<svg width="131" height="26" viewBox="0 0 131 26" fill="none" xmlns="http://www.w3.org/2000/svg">
<g clip-path="url(#clip0_613_7747)">
<path d="M47.2696 20H45.004V10H44.9356L40.8634 19.8828H39.1446L35.0724 10H35.004V20H32.7286V5.9082H35.6485L39.9649 16.543H40.0431L44.3595 5.9082H47.2696V20ZM55.3708 5.67383C59.4724 5.67383 62.0505 8.47656 62.0505 12.959C62.0505 17.4414 59.4724 20.2344 55.3708 20.2344C51.2595 20.2344 48.6813 17.4414 48.6813 12.959C48.6813 8.47656 51.2595 5.67383 55.3708 5.67383ZM55.3708 7.82227C52.8513 7.82227 51.2595 9.81445 51.2595 12.959C51.2595 16.0938 52.8513 18.0859 55.3708 18.0859C57.8806 18.0859 59.4821 16.0938 59.4821 12.959C59.4821 9.81445 57.8806 7.82227 55.3708 7.82227ZM65.8938 20H63.4622V5.9082H65.6497L72.6419 15.7812H72.7298V5.9082H75.1517V20H72.9837L65.9817 10.1172H65.8938V20ZM79.5614 20H77.0419V5.9082H79.5614V12.5H79.6493L85.2743 5.9082H88.1747L82.745 12.1582L88.5946 20H85.5282L80.9481 13.8477L79.5614 15.4688V20ZM90.7876 20.1074C89.9966 20.1074 89.3813 19.4922 89.3813 18.7012C89.3813 17.9199 89.9966 17.2949 90.7876 17.2949C91.5688 17.2949 92.1841 17.9199 92.1841 18.7012C92.1841 19.4922 91.5688 20.1074 90.7876 20.1074ZM96.6427 7.94922V12.7637H99.4845C101.086 12.7637 102.014 11.875 102.014 10.3516C102.014 8.86719 101.027 7.94922 99.4356 7.94922H96.6427ZM96.6427 14.6973V20H94.1231V5.9082H99.7188C102.766 5.9082 104.592 7.59766 104.592 10.293C104.592 12.1582 103.615 13.7109 101.936 14.3164L105.012 20H102.141L99.3673 14.6973H96.6427ZM115.144 17.8711V20H106.023V5.9082H115.144V8.03711H108.543V11.8457H114.783V13.8477H108.543V17.8711H115.144ZM119.163 20H116.732V5.9082H118.919L125.911 15.7812H125.999V5.9082H128.421V20H126.253L119.251 10.1172H119.163V20Z" fill="white"/>
<rect width="26" height="26" rx="6" fill="#251A2D"/>
<mask id="mask0_613_7747" style="mask-type:luminance" maskUnits="userSpaceOnUse" x="0" y="0" width="26" height="26">
<rect width="26" height="26" fill="white"/>
</mask>
<g mask="url(#mask0_613_7747)">
<ellipse cx="16.863" cy="10.0856" rx="4.54472" ry="3.97663" transform="rotate(-10 16.863 10.0856)" fill="#FF4444"/>
<ellipse cx="9.13697" cy="10.0856" rx="4.54472" ry="3.97663" transform="rotate(10 9.13697 10.0856)" fill="#FF4444"/>
<path d="M18.6469 14.7439C18.6469 18.3834 18.525 21.3338 12.9838 21.3338C7.44254 21.3338 7.35313 18.3834 7.35313 14.7439C7.35313 11.1045 0.292537 8.15408 12.9838 8.15408C25.675 8.15408 18.6469 11.1045 18.6469 14.7439Z" fill="#FF4444"/>
<path fill-rule="evenodd" clip-rule="evenodd" d="M13.2296 16.0065C13.2296 16.0065 13.1834 14.4495 14.0579 14.5396C14.3818 14.5729 14.6633 15.0185 14.321 15.4871C14.1504 15.7208 13.2296 16.0065 13.2296 16.0065Z" fill="#251A2D"/>
<path fill-rule="evenodd" clip-rule="evenodd" d="M12.7901 15.8193C12.7901 15.8193 12.8314 14.377 12.051 14.4605C11.7621 14.4914 11.5109 14.9041 11.8162 15.3382C11.9685 15.5546 12.7901 15.8193 12.7901 15.8193Z" fill="#251A2D"/>
<path d="M16.5755 17.8642C16.2202 17.7623 15.7997 17.7603 15.3764 17.8816C14.7305 18.0669 14.2425 18.4923 14.0557 18.9695" stroke="#251A2D" stroke-width="1.16995" stroke-linecap="round" stroke-linejoin="round"/>
<path fill-rule="evenodd" clip-rule="evenodd" d="M14.078 11.2131C14.6874 12.8244 16.2108 13.9665 17.9937 13.9665C20.0128 13.9665 21.8023 12.5066 22.102 10.5493C22.1934 9.95199 21.6909 9.64902 21.1897 9.64902C19.809 9.64902 17.5905 9.64902 15.1296 9.64902C14.0881 9.64902 13.8497 10.2948 13.9551 10.8083C13.9877 10.9671 14.0361 11.1024 14.078 11.2131Z" fill="white"/>
<mask id="mask1_613_7747" style="mask-type:luminance" maskUnits="userSpaceOnUse" x="13" y="9" width="10" height="5">
<path fill-rule="evenodd" clip-rule="evenodd" d="M14.078 11.2131C14.6874 12.8244 16.2108 13.9665 17.9937 13.9665C20.0128 13.9665 21.8023 12.5066 22.102 10.5493C22.1934 9.95199 21.6909 9.64902 21.1897 9.64902C19.809 9.64902 17.5905 9.64902 15.1296 9.64902C14.0881 9.64902 13.8497 10.2948 13.9551 10.8083C13.9877 10.9671 14.0361 11.1024 14.078 11.2131Z" fill="white"/>
</mask>
<g mask="url(#mask1_613_7747)">
<circle cx="16.6358" cy="9.51751" r="3.1813" fill="#251A2D"/>
</g>
<path fill-rule="evenodd" clip-rule="evenodd" d="M11.7181 11.2131C11.1087 12.8244 9.58532 13.9665 7.80245 13.9665C5.78332 13.9665 3.99379 12.5066 3.69416 10.5493C3.60272 9.95199 4.10517 9.64902 4.60638 9.64902C5.98714 9.64902 8.20562 9.64902 10.6665 9.64902C11.708 9.64902 11.9464 10.2948 11.841 10.8083C11.8084 10.9671 11.76 11.1024 11.7181 11.2131Z" fill="white"/>
<mask id="mask2_613_7747" style="mask-type:luminance" maskUnits="userSpaceOnUse" x="3" y="9" width="9" height="5">
<path fill-rule="evenodd" clip-rule="evenodd" d="M11.7181 11.2131C11.1087 12.8244 9.58532 13.9665 7.80245 13.9665C5.78332 13.9665 3.99379 12.5066 3.69416 10.5493C3.60272 9.95199 4.10517 9.64902 4.60638 9.64902C5.98714 9.64902 8.20562 9.64902 10.6665 9.64902C11.708 9.64902 11.9464 10.2948 11.841 10.8083C11.8084 10.9671 11.76 11.1024 11.7181 11.2131Z" fill="white"/>
</mask>
<g mask="url(#mask2_613_7747)">
<circle cx="3.1813" cy="3.1813" r="3.1813" transform="matrix(-1 0 0 1 12.3416 6.33621)" fill="#251A2D"/>
</g>
</g>
</g>
<defs>
<clipPath id="clip0_613_7747">
<rect width="130.488" height="26" fill="white"/>
</clipPath>
</defs>
</svg>
