<svg width="135" height="26" viewBox="0 0 135 26" fill="none" xmlns="http://www.w3.org/2000/svg">
<g clip-path="url(#clip0_613_7747)">
<path d="M49.2696 20H47.004V10H46.9356L42.8634 19.8828H41.1446L37.0724 10H37.004V20H34.7286V5.9082H37.6485L41.9649 16.543H42.0431L46.3595 5.9082H49.2696V20ZM57.9708 5.67383C62.0724 5.67383 64.6505 8.47656 64.6505 12.959C64.6505 17.4414 62.0724 20.2344 57.9708 20.2344C53.8595 20.2344 51.2813 17.4414 51.2813 12.959C51.2813 8.47656 53.8595 5.67383 57.9708 5.67383ZM57.9708 7.82227C55.4513 7.82227 53.8595 9.81445 53.8595 12.959C53.8595 16.0938 55.4513 18.0859 57.9708 18.0859C60.4806 18.0859 62.0821 16.0938 62.0821 12.959C62.0821 9.81445 60.4806 7.82227 57.9708 7.82227ZM69.0938 20H66.6622V5.9082H68.8497L75.8419 15.7812H75.9298V5.9082H78.3517V20H76.1837L69.1817 10.1172H69.0938V20ZM83.3614 20H80.8419V5.9082H83.3614V12.5H83.4493L89.0743 5.9082H91.9747L86.545 12.1582L92.3946 20H89.3282L84.7481 13.8477L83.3614 15.4688V20ZM95.1876 20.1074C94.3966 20.1074 93.7813 19.4922 93.7813 18.7012C93.7813 17.9199 94.3966 17.2949 95.1876 17.2949C95.9688 17.2949 96.5841 17.9199 96.5841 18.7012C96.5841 19.4922 95.9688 20.1074 95.1876 20.1074ZM101.643 7.94922V12.7637H104.484C106.086 12.7637 107.014 11.875 107.014 10.3516C107.014 8.86719 106.027 7.94922 104.436 7.94922H101.643ZM101.643 14.6973V20H99.1231V5.9082H104.719C107.766 5.9082 109.592 7.59766 109.592 10.293C109.592 12.1582 108.615 13.7109 106.936 14.3164L110.012 20H107.141L104.367 14.6973H101.643ZM120.744 17.8711V20H111.623V5.9082H120.744V8.03711H114.143V11.8457H120.383V13.8477H114.143V17.8711H120.744ZM125.363 20H122.932V5.9082H125.119L132.111 15.7812H132.199V5.9082H134.621V20H132.453L125.451 10.1172H125.363V20Z" fill="white"/>
<rect width="26" height="26" rx="6" fill="#251A2D"/>
<mask id="mask0_613_7747" style="mask-type:luminance" maskUnits="userSpaceOnUse" x="0" y="0" width="26" height="26">
<rect width="26" height="26" fill="white"/>
</mask>
<g mask="url(#mask0_613_7747)">
<ellipse cx="16.863" cy="10.0856" rx="4.54472" ry="3.97663" transform="rotate(-10 16.863 10.0856)" fill="#FF4444"/>
<ellipse cx="9.13697" cy="10.0856" rx="4.54472" ry="3.97663" transform="rotate(10 9.13697 10.0856)" fill="#FF4444"/>
<path d="M18.6469 14.7439C18.6469 18.3834 18.525 21.3338 12.9838 21.3338C7.44254 21.3338 7.35313 18.3834 7.35313 14.7439C7.35313 11.1045 0.292537 8.15408 12.9838 8.15408C25.675 8.15408 18.6469 11.1045 18.6469 14.7439Z" fill="#FF4444"/>
<path fill-rule="evenodd" clip-rule="evenodd" d="M13.2296 16.0065C13.2296 16.0065 13.1834 14.4495 14.0579 14.5396C14.3818 14.5729 14.6633 15.0185 14.321 15.4871C14.1504 15.7208 13.2296 16.0065 13.2296 16.0065Z" fill="#251A2D"/>
<path fill-rule="evenodd" clip-rule="evenodd" d="M12.7901 15.8193C12.7901 15.8193 12.8314 14.377 12.051 14.4605C11.7621 14.4914 11.5109 14.9041 11.8162 15.3382C11.9685 15.5546 12.7901 15.8193 12.7901 15.8193Z" fill="#251A2D"/>
<path d="M16.5755 17.8642C16.2202 17.7623 15.7997 17.7603 15.3764 17.8816C14.7305 18.0669 14.2425 18.4923 14.0557 18.9695" stroke="#251A2D" stroke-width="1.16995" stroke-linecap="round" stroke-linejoin="round"/>
<path fill-rule="evenodd" clip-rule="evenodd" d="M14.078 11.2131C14.6874 12.8244 16.2108 13.9665 17.9937 13.9665C20.0128 13.9665 21.8023 12.5066 22.102 10.5493C22.1934 9.95199 21.6909 9.64902 21.1897 9.64902C19.809 9.64902 17.5905 9.64902 15.1296 9.64902C14.0881 9.64902 13.8497 10.2948 13.9551 10.8083C13.9877 10.9671 14.0361 11.1024 14.078 11.2131Z" fill="white"/>
<mask id="mask1_613_7747" style="mask-type:luminance" maskUnits="userSpaceOnUse" x="13" y="9" width="10" height="5">
<path fill-rule="evenodd" clip-rule="evenodd" d="M14.078 11.2131C14.6874 12.8244 16.2108 13.9665 17.9937 13.9665C20.0128 13.9665 21.8023 12.5066 22.102 10.5493C22.1934 9.95199 21.6909 9.64902 21.1897 9.64902C19.809 9.64902 17.5905 9.64902 15.1296 9.64902C14.0881 9.64902 13.8497 10.2948 13.9551 10.8083C13.9877 10.9671 14.0361 11.1024 14.078 11.2131Z" fill="white"/>
</mask>
<g mask="url(#mask1_613_7747)">
<circle cx="16.6358" cy="9.51751" r="3.1813" fill="#251A2D"/>
</g>
<path fill-rule="evenodd" clip-rule="evenodd" d="M11.7181 11.2131C11.1087 12.8244 9.58532 13.9665 7.80245 13.9665C5.78332 13.9665 3.99379 12.5066 3.69416 10.5493C3.60272 9.95199 4.10517 9.64902 4.60638 9.64902C5.98714 9.64902 8.20562 9.64902 10.6665 9.64902C11.708 9.64902 11.9464 10.2948 11.841 10.8083C11.8084 10.9671 11.76 11.1024 11.7181 11.2131Z" fill="white"/>
<mask id="mask2_613_7747" style="mask-type:luminance" maskUnits="userSpaceOnUse" x="3" y="9" width="9" height="5">
<path fill-rule="evenodd" clip-rule="evenodd" d="M11.7181 11.2131C11.1087 12.8244 9.58532 13.9665 7.80245 13.9665C5.78332 13.9665 3.99379 12.5066 3.69416 10.5493C3.60272 9.95199 4.10517 9.64902 4.60638 9.64902C5.98714 9.64902 8.20562 9.64902 10.6665 9.64902C11.708 9.64902 11.9464 10.2948 11.841 10.8083C11.8084 10.9671 11.76 11.1024 11.7181 11.2131Z" fill="white"/>
</mask>
<g mask="url(#mask2_613_7747)">
<circle cx="3.1813" cy="3.1813" r="3.1813" transform="matrix(-1 0 0 1 12.3416 6.33621)" fill="#251A2D"/>
</g>
</g>
</g>
<defs>
<clipPath id="clip0_613_7747">
<rect width="135" height="26" fill="white"/>
</clipPath>
</defs>
</svg>
