<svg width="26" height="26" viewBox="0 0 26 26" fill="none" xmlns="http://www.w3.org/2000/svg">
<rect width="26" height="26" rx="6" fill="#251A2D"/>
<mask id="mask0_613_7770" style="mask-type:luminance" maskUnits="userSpaceOnUse" x="0" y="0" width="26" height="26">
<rect width="26" height="26" fill="white"/>
</mask>
<g mask="url(#mask0_613_7770)">
<ellipse cx="16.863" cy="10.0856" rx="4.54472" ry="3.97663" transform="rotate(-10 16.863 10.0856)" fill="#FF4444"/>
<ellipse cx="9.13697" cy="10.0856" rx="4.54472" ry="3.97663" transform="rotate(10 9.13697 10.0856)" fill="#FF4444"/>
<path d="M18.6469 14.7439C18.6469 18.3834 18.525 21.3338 12.9838 21.3338C7.44254 21.3338 7.35313 18.3834 7.35313 14.7439C7.35313 11.1045 0.292537 8.15408 12.9838 8.15408C25.675 8.15408 18.6469 11.1045 18.6469 14.7439Z" fill="#FF4444"/>
<path fill-rule="evenodd" clip-rule="evenodd" d="M13.2296 16.0065C13.2296 16.0065 13.1834 14.4495 14.0579 14.5396C14.3818 14.5729 14.6633 15.0185 14.321 15.4871C14.1504 15.7208 13.2296 16.0065 13.2296 16.0065Z" fill="#251A2D"/>
<path fill-rule="evenodd" clip-rule="evenodd" d="M12.7901 15.8193C12.7901 15.8193 12.8314 14.377 12.051 14.4605C11.7621 14.4914 11.5109 14.9041 11.8162 15.3382C11.9685 15.5546 12.7901 15.8193 12.7901 15.8193Z" fill="#251A2D"/>
<path d="M16.5755 17.8642C16.2202 17.7623 15.7997 17.7603 15.3764 17.8816C14.7305 18.0669 14.2425 18.4923 14.0557 18.9695" stroke="#251A2D" stroke-width="1.16995" stroke-linecap="round" stroke-linejoin="round"/>
<path fill-rule="evenodd" clip-rule="evenodd" d="M14.078 11.2131C14.6874 12.8244 16.2108 13.9665 17.9937 13.9665C20.0128 13.9665 21.8023 12.5066 22.102 10.5493C22.1934 9.95199 21.6909 9.64902 21.1897 9.64902C19.809 9.64902 17.5905 9.64902 15.1296 9.64902C14.0881 9.64902 13.8497 10.2948 13.9551 10.8083C13.9877 10.9671 14.0361 11.1024 14.078 11.2131Z" fill="white"/>
<mask id="mask1_613_7770" style="mask-type:luminance" maskUnits="userSpaceOnUse" x="13" y="9" width="10" height="5">
<path fill-rule="evenodd" clip-rule="evenodd" d="M14.078 11.2131C14.6874 12.8244 16.2108 13.9665 17.9937 13.9665C20.0128 13.9665 21.8023 12.5066 22.102 10.5493C22.1934 9.95199 21.6909 9.64902 21.1897 9.64902C19.809 9.64902 17.5905 9.64902 15.1296 9.64902C14.0881 9.64902 13.8497 10.2948 13.9551 10.8083C13.9877 10.9671 14.0361 11.1024 14.078 11.2131Z" fill="white"/>
</mask>
<g mask="url(#mask1_613_7770)">
<circle cx="16.6358" cy="9.51751" r="3.1813" fill="#251A2D"/>
</g>
<path fill-rule="evenodd" clip-rule="evenodd" d="M11.7181 11.2131C11.1087 12.8244 9.58532 13.9665 7.80245 13.9665C5.78332 13.9665 3.99379 12.5066 3.69416 10.5493C3.60272 9.95199 4.10517 9.64902 4.60638 9.64902C5.98714 9.64902 8.20562 9.64902 10.6665 9.64902C11.708 9.64902 11.9464 10.2948 11.841 10.8083C11.8084 10.9671 11.76 11.1024 11.7181 11.2131Z" fill="white"/>
<mask id="mask2_613_7770" style="mask-type:luminance" maskUnits="userSpaceOnUse" x="3" y="9" width="9" height="5">
<path fill-rule="evenodd" clip-rule="evenodd" d="M11.7181 11.2131C11.1087 12.8244 9.58532 13.9665 7.80245 13.9665C5.78332 13.9665 3.99379 12.5066 3.69416 10.5493C3.60272 9.95199 4.10517 9.64902 4.60638 9.64902C5.98714 9.64902 8.20562 9.64902 10.6665 9.64902C11.708 9.64902 11.9464 10.2948 11.841 10.8083C11.8084 10.9671 11.76 11.1024 11.7181 11.2131Z" fill="white"/>
</mask>
<g mask="url(#mask2_613_7770)">
<circle cx="3.1813" cy="3.1813" r="3.1813" transform="matrix(-1 0 0 1 12.3416 6.33621)" fill="#251A2D"/>
</g>
</g>
</svg>
