<svg height="30" viewBox="0 0 30 30" width="30" xmlns="http://www.w3.org/2000/svg"><g fill="#fff" fill-rule="evenodd"><path d="m15.1358696 18.0542702c0 1.0658438-.4415717 1.9403692-1.3247283 2.6236025-.8831566.6832332-2.1671111 1.0248447-3.85190217 1.0248447h-3.70923913c-.58424205 0-.8763587-.2937859-.8763587-.8813665v-11.43726705c0-.58758058.29211665-.88136646.8763587-.88136646h4.6263587c1.100549 0 1.9768989.25962473 2.6290761.77888199.7608733.62857457 1.1413043 1.46210662 1.1413043 2.50062112 0 1.5031131-.6929278 2.5279476-2.0788043 3.0745342.7880474.2186346 1.3654873.5534139 1.7323369 1.0043478.557068.6695686.8355979 1.4006171.8355979 2.1931677zm-1.9769022-6.2720497c0-.6012453-.2173891-1.0795013-.6521739-1.4347826-.2989146-.2322993-.7133126-.34844722-1.2432065-.34844722h-4.03532613c-.23097942 0-.34646739.10931572-.34646739.32795032v3.8124223h3.28125002c.8016344 0 1.4809754-.1844701 2.0380435-.5534161.6385901-.4372693.9578804-1.0385055.9578804-1.8037267zm.4891304 6.2310559c0-.6422392-.29891-1.2093143-.8967391-1.7012422-.570655-.450934-1.4334181-.6763976-2.5883152-.6763976h-3.28125002v4.2633541c0 .2186346.11548797.3279503.34646739.3279503h3.30163043c.8423955 0 1.5353234-.1708058 2.0788043-.5124224.6929383-.4236046 1.0394022-.9906796 1.0394022-1.7012422z"/><path d="m24.7826087 16.7444206c0 .4763972-.3057035.7145923-.9171196.7145923h-5.9918478c.0679351.8111628.3396715 1.4678086.8152174 1.9699571.5027199.5407752 1.1548873.8111588 1.9565217.8111588.6385902 0 1.1752696-.1866935 1.6100544-.5600859.2581534-.2188852.5570635-.6115851.8967391-1.1781116.1358703-.2317608.3532594-.3476395.6521739-.3476395.1902184 0 .3600536.0836902.5095109.251073.1630443.1545072.2445652.3412006.2445652.5600858 0 .3605169-.2581496.8304692-.7744565 1.4098713-.7608734.8497896-1.8206454 1.2746781-3.1793478 1.2746781-1.3451155 0-2.4116809-.457077-3.1997283-1.3712446-.7336993-.8497897-1.1005435-1.9248862-1.1005435-3.2253219 0-1.1716797.4076046-2.2017123 1.2228261-3.0901288.8288085-.8755408 1.8546135-1.3133047 3.0774457-1.3133047 1.2500062 0 2.2690178.4248884 3.0570652 1.2746781.7472863.8111629 1.1209239 1.7510676 1.1209239 2.8197425zm-1.548913-.5793991c0-.5021485-.2513562-1.0042894-.7540761-1.5064378-.4211978-.4120192-1.0461915-.6180258-1.875-.6180258-.6521772 0-1.2092369.1995689-1.6711957.5987125-.4755458.386268-.7948361.8948466-.9578804 1.5257511h5.15625c.0815221.0128756.1154892.0128756.1019022 0z"/></g></svg>