<svg height="30" viewBox="0 0 30 30" width="30" xmlns="http://www.w3.org/2000/svg"><g fill="#fff" fill-rule="evenodd" transform="translate(5 8)"><path d="m10.1358696 10.0542702c0 1.0658438-.44157171 1.9403692-1.3247283 2.6236025-.88315659.6832332-2.16711114 1.0248447-3.85190217 1.0248447h-3.70923913c-.58424205 0-.8763587-.2937859-.8763587-.8813665v-11.43726705c0-.58758058.29211665-.88136646.8763587-.88136646h4.6263587c1.10054898 0 1.97689891.25962473 2.62907608.77888199.76087337.62857457 1.14130435 1.46210661 1.14130435 2.50062112 0 1.5031131-.69292785 2.52794757-2.07880435 3.07453416.78804742.21863463 1.3654873.55341389 1.73233696 1.00434782.557068.66956857.83559786 1.40061716.83559786 2.19316772zm-1.97690221-6.2720497c0-.60124525-.21738913-1.07950133-.65217391-1.43478261-.29891454-.2322993-.71331257-.34844721-1.24320652-.34844721h-4.03532609c-.23097942 0-.34646739.10931568-.34646739.32795031v3.81242236h3.28125c.80163444 0 1.48097547-.1844702 2.03804348-.55341615.63859015-.43726926.95788043-1.03850549.95788043-1.8037267zm.48913044 6.2310559c0-.64223924-.29891006-1.20931431-.89673913-1.70124224-.57065503-.45093393-1.43341814-.67639751-2.58831522-.67639751h-3.28125v4.26335405c0 .2186346.11548797.3279503.34646739.3279503h3.30163043c.84239552 0 1.53532337-.1708058 2.07880435-.5124224.69293825-.4236046 1.03940218-.9906796 1.03940218-1.7012422z"/><path d="m19.7826087 8.7444206c0 .47639723-.3057035.71459228-.9171196.71459228h-5.9918478c.0679351.81116282.3396715 1.46780862.8152174 1.96995712.5027199.5407752 1.1548873.8111588 1.9565217.8111588.6385902 0 1.1752696-.1866935 1.6100544-.5600859.2581534-.2188852.5570635-.6115851.8967391-1.1781116.1358703-.2317608.3532594-.3476395.6521739-.3476395.1902184 0 .3600536.0836902.5095109.251073.1630443.1545072.2445652.3412006.2445652.5600858 0 .3605169-.2581496.8304692-.7744565 1.4098713-.7608734.8497896-1.8206454 1.2746781-3.1793478 1.2746781-1.3451155 0-2.4116809-.457077-3.1997283-1.3712446-.7336993-.8497897-1.1005435-1.9248862-1.1005435-3.22532192 0-1.17167968.4076046-2.2017123 1.2228261-3.09012876.8288085-.87554086 1.8546135-1.31330472 3.0774457-1.31330472 1.2500062 0 2.2690178.42488845 3.0570652 1.27467811.7472863.81116286 1.1209239 1.75106762 1.1209239 2.81974249zm-1.548913-.57939914c0-.50214843-.2513562-1.00428934-.7540761-1.50643777-.4211978-.41201923-1.0461915-.61802575-1.875-.61802575-.6521772 0-1.2092369.19956882-1.6711957.59871245-.4755458.38626802-.7948361.89484663-.9578804 1.52575107h5.15625c.0815221.0128756.1154892.0128756.1019022 0z"/></g></svg>