<svg height="30" viewBox="0 0 30 30" width="30" xmlns="http://www.w3.org/2000/svg"><path d="m15.2747203 2.66540147c-1.675185-1.68175182-3.9087649-2.63474451-6.30986334-2.63474451s-4.63467835.95299269-6.3098633 2.63474451c-1.67518495 1.68175183-2.62445641 3.9240876-2.62445641 6.33459853 0 2.4105109.94927146 4.6528467 2.62445641 6.3345985 1.67518495 1.6817519 3.90876489 2.6347445 6.3098633 2.6347445 2.40109844 0 4.63467834-.9529926 6.30986334-2.6347445 1.6751849-1.6817518 2.6244564-3.9240876 2.6244564-6.3345985 0-2.41051093-.9492715-4.6528467-2.6244564-6.33459853zm1.6193454 6.50277371c-1.1726294-.39240877-2.4010984-.61664232-3.6295673-.61664232-.7259135 0-1.5076665.0560584-2.23358.22423359-.2791975-.56058396-.558395-1.17722628-.8375925-1.73781023.3908765-.16817519.7259135-.28029196 1.0609505-.44846715 1.563506-.72875913 2.7919749-1.68175182 3.6854069-2.8589781 1.228469 1.40145987 1.9543824 3.25138687 1.9543824 5.26948906zm-8.59928272 7.79211682c-.1675185 0-.33503699-.0560584-.50255549-.0560584h-.11167898c-1.28430845-.2242336-2.51277743-.7287592-3.5178884-1.5696351 1.28430845-2.6908029 3.62956738-4.6528467 6.36570279-5.49372259.8375925 1.96204379 1.5076665 4.14832119 1.786864 6.39065689-1.005111.4484672-2.121901.7287592-3.29453043.7287592h-.22335801c-.223358.0560584-.33503699.0560584-.50255548 0zm4.85803632-1.1772263c-.223358-1.6256934-.6700739-3.3074452-1.2843084-5.1013139-.111679-.3363503-.2791975-.6727007-.3908765-1.00905107.6142345-.11211678 1.228469-.16817518 1.8427034-.16817518 1.228469 0 2.4010985.22423359 3.5737279.67270075-.3908765 2.3544525-1.7868639 4.3725547-3.7412464 5.6058394zm1.11679-12.72525549c-1.11679 1.51357664-2.7919749 2.46656933-4.52299938 3.13927006-.11167898-.16817518-.16751849-.33635036-.27919748-.50452555-1.17262946-2.01810219-2.23357994-3.58773723-2.84781441-4.31649634.72591349-.22423358 1.50766645-.33635036 2.28941942-.33635036 2.06606145-.05605837 3.96460445.72875913 5.36059185 2.01810219zm-8.54344326-1.40145983c.50255549.61664232 1.67518495 2.29839415 2.95949341 4.48467152.0558395.11211678.11167898.22423359.16751849.33635036-.89343198.28029196-1.78686394.50452555-2.56861693.61664233-2.23357995.39240877-4.24380189.39240877-5.13723384.39240877.50255552-2.63474452 2.23357994-4.76496352 4.57883887-5.83007298zm-4.74635733 7.34364962c0-.22423359 0-.39240877.05583951-.56058395h.72591349c1.06095048 0 2.7919749-.05605841 4.69051786-.39240877 1.06095048-.16817519 2.01022194-.39240877 2.90365392-.72875914.27919748.50452555.55839499 1.0651095.83759251 1.68175183-2.90365396.84087591-5.36059187 2.91503653-6.75657934 5.71795623-1.563506-1.4575182-2.45693795-3.4756204-2.45693795-5.7179562z" fill="#fff" stroke="#fff" stroke-width=".4" transform="translate(6 6)"/></svg>