<svg height="30" viewBox="0 0 30 30" width="30" xmlns="http://www.w3.org/2000/svg"><path d="m14.964857 5.83065696c2.4366745 0 4.7261808.96145625 6.451561 2.69360008 1.7252304 1.73199346 2.6827587 4.03005806 2.6827587 6.47574296s-.9575284 4.7437495-2.6827587 6.4757429c-1.7253801 1.7321439-4.0148864 2.6936001-6.451561 2.6936001s-4.726181-.9614562-6.45156107-2.6936001c-1.72523034-1.7319933-2.68275868-4.030058-2.68275868-6.4757429s.95752833-4.7437496 2.68275868-6.47574297c1.72538017-1.73214381 4.01488647-2.69360007 6.45156107-2.69360007zm1.449143 10.25734304-.1391998.045563c-2.4821431.8511698-4.5647372 2.6351925-5.7837945 4.9899002l-.0780057.1555368.1169904.0924216c.812694.615251 1.783127 1.0419912 2.8332189 1.2702867l.3173392.0625253.1725823.0015939.1332297.014727.0901499.0144505c.1146766.0191876.1632809.025287.2817411.0356248.1070675.0358291.1758797.0418006.3331188.011932l.1059682-.0222698h.223358c.9681486 0 1.9341349-.1963548 2.8654729-.5650928l.2088306-.0891992-.0505794-.372817c-.2655218-1.7473135-.7735511-3.53033-1.4816189-5.2874769zm2.9063378-.3834745c-.4817119 0-.9634728.0351754-1.445355.1055466l-.1279828.0209279.2612475.6448961.0494787.1410669c.5932301 1.7325257.9989094 3.2683671 1.2293458 4.7093342l.016928.1167028.2337748-.1650527c1.5919523-1.1753919 2.705905-2.8947947 3.1045837-4.8400357l.0236415-.1309116-.2287787-.0821157c-.8989163-.3052503-1.7966157-.4747122-2.7196626-.5123082zm-4.0593378-2.1405255-.1635144.0594582c-.6655129.2276717-1.3820836.4058551-2.1955165.55074l-.4150004.0697424c-1.4082276.249485-2.7940077.3651571-4.14739573.390177l-.57801126.0052984-.56856171-.000416-.00728903.0812408-.00590226.2797592c0 2.0614716.77476934 3.9485919 2.17811583 5.3630732l.02407546.0239268.03187432-.0606536c1.38866998-2.5964099 3.68999848-4.5427791 6.40834158-5.4217895l.0927841-.0295569-.070081-.1529388c-.1661814-.3536957-.3322684-.6871829-.4982423-1.0004492zm5.683-3.517-.0619518.0782195c-.8176141.9888797-1.8785305 1.8121238-3.1777976 2.4682236l-.3602513.174791c-.076542.0384211-.1525584.074039-.2370223.1111282l-.2877071.1199552-.3532699.1406825.675 1.408.1929388-.0389626c.4733271-.0863983.9825672-.1353622 1.5211876-.1514919l.409372-.0060126c1.0819997 0 2.1878176.1705964 3.2829356.4972136l.144566.0452535-.0042289-.2146015c-.0670121-1.7035123-.666991-3.300825-1.6997892-4.5808238zm-9.275-2.143-.1151255.05576014c-2.01436962 1.00258722-3.49578637 2.80896816-4.08039561 4.99677106l-.08047889.329501h.05425862c1.45536024-.005155 2.79310128-.079896 4.20078658-.2909835l.6081229-.0990085c.6287767-.0901773 1.3567752-.2580618 2.1407122-.4889002l.1721197-.05314-.0557872-.1116759-.3757702-.630562-.376529-.6147831c-.062513-.1007255-.1248287-.2004759-.1868327-.2990924l-.3673684-.576822-.3543954-.54198617-.3359295-.4995274-.3119708-.44944587c-.0496934-.07031069-.0981597-.13821704-.1452844-.20356022l-.2657339-.36003079zm3.5526501-.66633398-.3112431.00203717c-.5282912.00000331-1.0522163.05226525-1.5551265.15485471l-.3902805.0904421.0449076.05653876c.0899534.11576796.1852386.24262525.2851769.37959283l.3130947.44025453.336939.49504195c.0579172.08674625.1166582.17553056.1761382.26623053l.3650676.56620874.3787281.60631036.3883152.6405378.4514595.7627328.1271732.2475517.207564-.0820626c1.6774883-.6961685 2.9673226-1.5551344 3.8794364-2.67977384l.0779996-.10116356-.0888699-.07850299c-1.3003061-1.10705063-2.9503895-1.74194369-4.68648-1.76683099z" fill="#fff"/></svg>