<?xml version="1.0" encoding="UTF-8"?>
<svg width="30px" height="30px" viewBox="0 0 30 30" version="1.1" xmlns="http://www.w3.org/2000/svg" xmlns:xlink="http://www.w3.org/1999/xlink">
    <!-- Generator: Sketch 53.1 (72631) - https://sketchapp.com -->
    <title>投资组合/dribbble@2x</title>
    <desc>Created with Sketch.</desc>
    <g id="投资组合/dribbble" stroke="none" stroke-width="1" fill="none" fill-rule="evenodd">
        <g id="dribbble" transform="translate(6.000000, 6.000000)" fill="#FFFFFF" fill-rule="nonzero" stroke="#FFFFFF" stroke-width="0.4">
            <g id="Group">
                <path d="M15.2747203,2.66540147 C13.5995353,0.983649646 11.3659554,0.0306569562 8.96485696,0.0306569562 C6.56375852,0.0306569562 4.33017861,0.983649646 2.65499366,2.66540147 C0.979808708,4.3471533 0.0305372475,6.58948907 0.0305372475,9 C0.0305372475,11.4105109 0.979808708,13.6528467 2.65499366,15.3345985 C4.33017861,17.0163504 6.56375855,17.969343 8.96485696,17.969343 C11.3659554,17.969343 13.5995353,17.0163504 15.2747203,15.3345985 C16.9499052,13.6528467 17.8991767,11.4105109 17.8991767,9 C17.8991767,6.58948907 16.9499052,4.3471533 15.2747203,2.66540147 Z M16.8940657,9.16817518 C15.7214363,8.77576641 14.4929673,8.55153286 13.2644984,8.55153286 C12.5385849,8.55153286 11.7568319,8.60759126 11.0309184,8.77576645 C10.7517209,8.21518249 10.4725234,7.59854017 10.1933259,7.03795622 C10.5842024,6.86978103 10.9192394,6.75766426 11.2542764,6.58948907 C12.8177824,5.86072994 14.0462513,4.90773725 14.9396833,3.73051097 C16.1681523,5.13197084 16.8940657,6.98189784 16.8940657,9.00000003 L16.8940657,9.16817518 Z M8.29478298,16.960292 C8.12726448,16.960292 7.95974599,16.9042336 7.79222749,16.9042336 L7.68054851,16.9042336 C6.39624006,16.68 5.16777108,16.1754744 4.16266011,15.3345985 C5.44696856,12.6437956 7.79222749,10.6817518 10.5283629,9.84087591 C11.3659554,11.8029197 12.0360294,13.9891971 12.3152269,16.2315328 C11.3101159,16.68 10.1933259,16.960292 9.02069647,16.960292 L8.79733846,16.960292 C8.57398046,17.0163504 8.46230147,17.0163504 8.29478298,16.960292 Z M13.1528193,15.7830657 C12.9294613,14.1573723 12.4827454,12.4756205 11.8685109,10.6817518 C11.7568319,10.3454015 11.5893134,10.0090511 11.4776344,9.67270073 C12.0918689,9.56058395 12.7061034,9.50452555 13.3203378,9.50452555 C14.5488068,9.50452555 15.7214363,9.72875914 16.8940657,10.1772263 C16.5031892,12.5316788 15.1072018,14.549781 13.1528193,15.7830657 Z M14.2696093,3.05781021 C13.1528193,4.57138685 11.4776344,5.52437954 9.74660992,6.19708027 C9.63493094,6.02890509 9.57909143,5.86072991 9.46741244,5.69255472 C8.29478298,3.67445253 7.2338325,2.10481749 6.61959803,1.37605838 C7.34551152,1.1518248 8.12726448,1.03970802 8.90901745,1.03970802 C10.9750789,0.983649646 12.8736219,1.76846715 14.2696093,3.05781021 Z M5.72616604,1.65635038 C6.22872153,2.2729927 7.40135099,3.95474453 8.68565945,6.1410219 C8.74149895,6.25313868 8.79733843,6.36525549 8.85317794,6.47737226 C7.95974596,6.75766422 7.066314,6.98189781 6.28456101,7.09401459 C4.05098106,7.48642336 2.04075912,7.48642336 1.14732717,7.48642336 C1.64988269,4.85167884 3.38090711,2.72145984 5.72616604,1.65635038 Z M0.979808708,9 C0.979808708,8.77576641 0.979808708,8.60759123 1.03564822,8.43941605 L1.76156171,8.43941605 C2.82251219,8.43941605 4.55353661,8.38335764 6.45207957,8.04700728 C7.51303005,7.87883209 8.46230151,7.65459851 9.35573349,7.31824814 C9.63493097,7.82277369 9.91412848,8.38335764 10.193326,8.99999997 C7.28967204,9.84087588 4.83273413,11.9150365 3.43674666,14.7179562 C1.87324066,13.260438 0.979808708,11.2423358 0.979808708,9 Z" id="Shape"></path>
            </g>
        </g>
    </g>
</svg>