<?xml version="1.0" encoding="UTF-8"?>
<svg width="30px" height="30px" viewBox="0 0 30 30" version="1.1" xmlns="http://www.w3.org/2000/svg" xmlns:xlink="http://www.w3.org/1999/xlink">
    <!-- Generator: Sketch 53.1 (72631) - https://sketchapp.com -->
    <title>投资组合/instagram@2x</title>
    <desc>Created with Sketch.</desc>
    <g id="投资组合/instagram" stroke="none" stroke-width="1" fill="none" fill-rule="evenodd">
        <rect id="Rectangle" stroke="#FFFFFF" stroke-width="1.4" fill-rule="nonzero" x="7" y="7" width="16" height="16" rx="4"></rect>
        <g id="instgram" transform="translate(10.000000, 10.000000)" fill="#FFFFFF" fill-rule="nonzero">
            <path d="M9.84352679,4.99799107 C9.78727679,7.64977679 7.65178571,9.78526786 5,9.84151786 C2.34821429,9.78526786 0.212723214,7.64977679 0.156473214,4.99799107 C0.212723214,2.34620536 2.34821429,0.210714286 5,0.154464286 C7.66986607,0.150446429 9.83950893,2.31004464 9.84352679,4.98191964 L9.84352679,4.99799107 Z M1.540625,4.99799107 C1.540625,6.90848214 3.08950893,8.45736607 5,8.45736607 C6.91049107,8.45736607 8.46138393,6.90848214 8.46138393,4.99799107 C8.46138393,3.0875 6.9125,1.53660714 5,1.53660714 C3.09151786,1.54263393 1.54464286,3.08950893 1.540625,4.99799107 Z" id="Shape"></path>
        </g>
        <path d="M20.8,10 C20.7756168,10.3753623 20.4748911,10.6736232 20.098984,10.7 C19.7230769,10.6736232 19.4243832,10.3753623 19.4,10 C19.4243832,9.62463768 19.7251089,9.32637681 20.101016,9.3 C20.4769231,9.32637681 20.7756168,9.62463768 20.8,10 Z" id="Path" fill="#FFFFFF"></path>
    </g>
</svg>