<svg height="30" viewBox="0 0 30 30" width="30" xmlns="http://www.w3.org/2000/svg"><g fill="none" fill-rule="evenodd"><rect fill-rule="nonzero" height="16" rx="4" stroke="#fff" stroke-width="1.4" width="16" x="7" y="7"/><g fill="#fff"><path d="m9.84352679 4.99799107c-.05625 2.65178572-2.19174108 4.78727679-4.84352679 4.84352679-2.65178571-.05625-4.78727679-2.19174107-4.84352679-4.84352679.05625-2.65178571 2.19174108-4.78727678 4.84352679-4.84352678 2.66986607-.00401786 4.83950893 2.15558035 4.84352679 4.82745535zm-8.30290179 0c0 1.91049107 1.54888393 3.459375 3.459375 3.459375s3.46138393-1.54888393 3.46138393-3.459375-1.54888393-3.46138393-3.46138393-3.46138393c-1.90848214.00602679-3.45535714 1.55290179-3.459375 3.46138393z" fill-rule="nonzero" transform="translate(10 10)"/><path d="m20.8 10c-.0243832.3753623-.3251089.6736232-.701016.7-.3759071-.0263768-.6746008-.3246377-.698984-.7.0243832-.37536232.3251089-.67362319.701016-.7.3759071.02637681.6746008.32463768.698984.7z"/></g></g></svg>