<svg height="30" viewBox="0 0 30 30" width="30" xmlns="http://www.w3.org/2000/svg"><g fill="none" fill-rule="evenodd"><g fill="#fff" transform="translate(10 11.5)"><path d="m6.48650925 3.43004527c0 1.63175689-1.35488727 2.95461055-3.02629424 2.95461055-1.67128345 0-3.02617072-1.32285366-3.02617072-2.95461055v-2.25519133c0-.38633652.32076634-.69963046.71662834-.69963046.39578477 0 .71655111.31314306.71655111.69963046v2.25498009c0 .85894807.71324649 1.55534964 1.59299127 1.55534964.87980654 0 1.59306846-.69638647 1.59306846-1.55534964v-2.25498009c0-.38633652.32088989-.69963046.71655112-.69963046.39572301 0 .71647391.31314306.71647391.69963046v2.25517624h.00020075z"/><path d="m9.56595571 5.6849801c0 .38636669-.32068914.69966064-.71647391.69966064-.39581566 0-.7166901-.31329395-.7166901-.69966064v-4.51012616c0-.38633652.32087443-.69963046.7166901-.69963046.39580021 0 .71647391.31314306.71647391.69963046z"/></g><path d="m14.9999422 23.6228211c-.4396567 0-.8547982-.0995353-1.1689515-.2802119l-5.6620199-3.2568441c-.31417257-.1807534-.60825921-.4892092-.82808759-.8685724-.21982836-.3793633-.34088321-.7873544-.34088321-1.1488228l.00000002-6.5138419c0-.361526.12105485-.7695555.34088321-1.1489187s.513915-.68779986.82808758-.86847643l5.66201989-3.25688257c.3141533-.18071498.7292948-.2802503 1.1689515-.2802503.439676 0 .8548175.09953532 1.168913.28026951l5.6622896 3.25686336c.3141533.18067657.6082014.48911323.8279912.86847643.2198091.3793632.340864.7873927.340864 1.1488995v6.5136499c0 .3615068-.1210549.7695363-.3408832 1.1489188-.2198091.379344-.513915.6878382-.8281068.8686492l-5.662174 3.2568825c-.3140955.1806958-.7292178.2802119-1.1688938.2802119z" stroke="#fff" stroke-width="1.4"/></g></svg>