<svg height="30" viewBox="0 0 30 30" width="30" xmlns="http://www.w3.org/2000/svg"><g fill="#fff" transform="translate(6 5)"><g transform="translate(4 6.5)"><path d="m6.48650925 3.43004527c0 1.63175689-1.35488727 2.95461055-3.02629424 2.95461055-1.67128345 0-3.02617072-1.32285366-3.02617072-2.95461055v-2.25519133c0-.38633652.32076634-.69963046.71662834-.69963046.39578477 0 .71655111.31314306.71655111.69963046v2.25498009c0 .85894807.71324649 1.55534964 1.59299127 1.55534964.87980654 0 1.59306846-.69638647 1.59306846-1.55534964v-2.25498009c0-.38633652.32088989-.69963046.71655112-.69963046.39572301 0 .71647391.31314306.71647391.69963046v2.25517624h.00020075z"/><path d="m9.56595571 5.6849801c0 .38636669-.32068914.69966064-.71647391.69966064-.39581566 0-.7166901-.31329395-.7166901-.69966064v-4.51012616c0-.38633652.32087443-.69963046.7166901-.69963046.39580021 0 .71647391.31314306.71647391.69963046z"/></g><path d="m8.9999422.3c-.55660253 0-1.09179534.12831225-1.51799281.37348003l-5.66200671 3.25687499c-.42643918.24523962-.8060269.64334337-1.0847214 1.12429332-.27882334.48117227-.43522128 1.00830674-.43522128 1.49987966v6.5138419c0 .4915204.15639916 1.0186135.43522122 1.4997837.27866881.4809056.65821932.8790092 1.08466861 1.124359l5.66207584 3.2568762c.42623329.2451364.96141225.3734323 1.51797653.3734323.55663128 0 1.0918078-.1282951 1.5179555-.3734534l5.6621333-3.256859c.4265629-.2454783.8061148-.6436087 1.0847534-1.12448.2788195-.4811903.4352156-1.0083185.4352156-1.49987v-6.5136499c0-.4915418-.1563904-1.01866614-.4351887-1.49983744-.2786423-.48094428-.6581953-.87905941-1.0846809-1.12434083l-5.6622611-3.25684695c-.4260541-.24515648-.96126879-.37348358-1.5179271-.37348358zm0 1.4c.32270258 0 .61776837.07074719.81979556.18699598l5.66239294 3.25692282c.2018326.1160784.4103809.33482588.5713166.61260537.1608298.27757214.2465527.56650708.2465527.79798463v6.5136499c0 .2314797-.0857245.5204114-.2465529.7979713-.160966.2777932-.3696211.4966616-.5715856.6128881l-5.66204649 3.2568091c-.20208687.1162585-.49715615.1869939-.81987281.1869939-.322685 0-.61780733-.0707483-.8199659-.1870142l-5.66198047-3.2568214c-.2018533-.1161326-.41047206-.334949-.57145068-.6127538-.16082573-.277541-.24654515-.5664308-.24654515-.7978618v-6.5138419c0-.23149686.0857226-.52042226.24654518-.79795774.16096914-.27778838.36955766-.49655171.5713951-.6126258l5.66207855-3.25691631c.20213818-.11627889.4972347-.18702815.81992337-.18702815z"/></g></svg>