<svg height="30" viewBox="0 0 30 30" width="30" xmlns="http://www.w3.org/2000/svg"><g fill="#fff" transform="translate(5 7)"><path d="m7.64894083-.29946972c3.75102927 0 6.96164497 2.39136144 7.69396167 5.67368062l.0470464.23042572-1.1798978.2187262c-.520978-2.81036646-3.2818436-4.92283254-6.56111027-4.92283254-3.68614931 0-6.64894083 2.64894885-6.64894083 5.88107481 0 1.41290003.56553615 2.75012035 1.58342686 3.80817041.28216089.2932931.27821995.6371397.14564137 1.0477318l-.06123283.171765c-.01140019.0291402-.02357545.0589826-.03679233.0901964l-.09393332.2090889-.22710975.4694424.41584174-.1319687.57513025-.1911145.4636893-.1451882c.04387787-.0127509.0854479-.0244012.12494999-.0349775l.21411627-.0507811c.25751879-.0510887.41339455-.0368304.59044952.0292064l.06762827.0271644c.89218819.3813838 1.87282504.5823391 2.88713549.5823391.41705433 0 .82884143-.0339476 1.2318273-.1007594l.30053396-.056254.24526386 1.1746683c-.57858574.1208053-1.17386108.1823451-1.77762512.1823451-1.17650544 0-2.31759192-.2338352-3.35881177-.6789255.00745276.0031858.0035376.0085323-.01069045.0160579l-.13007747.0486359-.88738888.2838198-.57849755.1898847-.30373717.0919429c-.59617195.1695065-.81343485.1467843-1.11208845-.051738-.39878234-.2650801-.42362794-.6609308-.28355963-1.1135762l.05250318-.1541567.06681288-.1642093.15025261-.3231965.18491819-.3827561.10575999-.2382123.03966369-.1102505-.07646694-.0831868c-1.02735059-1.1625643-1.6291803-2.59065528-1.70039593-4.10684754l-.00713713-.30436057c0-3.9266716 3.5281312-7.08107481 7.84894083-7.08107481z"/><path d="m14.5 4.99999995c-3.3565058 0-6.1 2.48682395-6.1 5.58544225l.00713386.2721631c.06167304 1.1743837.52122207 2.2804796 1.30067876 3.1850694l.02718738.0303253-.06965458.1607025-.20742771.4375875-.07620022.1726463-.05449774.1444073c-.0079702.0234887-.01555796.0471314-.02302422.0715933-.12203952.3998409-.09982149.7587263.27081298 1.0085051.23147012.1559929.45346689.1645557.76731169.1001422l.222483-.0527644.1735259-.0494999.9933872-.3256368.1904533-.0525635c.0325506-.011055.0356349-.0232576-.0302568-.0518141.8087082.3504822 1.6948147.5345788 2.6080872.5345788 3.3565058 0 6.1-2.4868239 6.1-5.5854421 0-3.0986183-2.7434942-5.58544225-6.1-5.58544225zm0 1.2c2.7186264 0 4.9 1.97729308 4.9 4.38544225 0 2.408149-2.1813736 4.3854421-4.9 4.3854421-.6553475 0-1.2913579-.1151176-1.8810831-.3350036l-.249827-.100621c-.1763543-.0764295-.3010907-.1050316-.5101719-.0709425l-.1747501.0375538c-.0324689.0082955-.0667869.0176286-.1032193.0280283l-.2460939.0754305-.6148547.2046702.0491413-.1041305c.0631967-.1384888.1015626-.2352018.1364861-.3448555.1143162-.3589332.1177835-.6656421-.1418252-.9392274-.7484765-.7887724-1.1638022-1.7844069-1.1638022-2.8363444 0-2.40814917 2.1813736-4.38544225 4.9-4.38544225z" transform="matrix(-1 0 0 1 29 0)"/><circle cx="5.5" cy="5" r="1"/><circle cx="12.75" cy="9.55" r="1"/><circle cx="15.75" cy="9.55" r="1"/><circle cx="9.5" cy="5" r="1"/></g></svg>