<svg height="30" viewBox="0 0 30 30" width="30" xmlns="http://www.w3.org/2000/svg"><g fill="none" transform="translate(5 7)"><path d="m14.8 5.77204819c-.5693719-3.04792185-3.5543038-5.37204819-7.15105917-5.37204819-4.00347947 0-7.24894083 2.87947381-7.24894083 6.43148476 0 1.60138416.65965811 3.0660714 1.75103626 4.19182804.35039649.361434-.98309475 1.9547886-.55123941 2.2396567.37327323.2462252 2.50254634-.805508 2.92617035-.625807.94572484.4011758 2.00478228.625807 3.12297363.625807.56938209 0 1.12343172-.0582432 1.65499319-.1683809" stroke="#000" stroke-width="1.2"/><path d="m14.5 15.5720489c3.0375661 0 5.5-2.1427761 5.5-4.7860244 0-2.64324835-2.4624339-4.7860245-5.5-4.7860245s-5.5 2.14277615-5.5 4.7860245c0 1.1916787.50050341 2.2816337 1.3285664 3.1193716.2658569.2689631-.74590496 1.4546667-.4182427 1.6666528.2832142.1832298 1.8987608-.5994231 2.2201777-.4656976.7175513.2985371 1.5210916.4656976 2.3694986.4656976z" stroke="#000" stroke-width="1.2" transform="matrix(-1 0 0 1 29 0)"/><g fill="#000"><circle cx="5.5" cy="5" r="1"/><circle cx="12.8" cy="9.8" r="1"/><circle cx="15.8" cy="9.8" r="1"/><circle cx="9.5" cy="5" r="1"/></g></g></svg>