<svg height="30" viewBox="0 0 30 30" width="30" xmlns="http://www.w3.org/2000/svg"><g fill="none" stroke="#000" stroke-linecap="round" stroke-linejoin="round" stroke-width="1.4" transform="translate(5 7)"><g transform="translate(14)"><path d="m.6 3.6c.4197496.07059261.77263012.25259063 1.05864156.54599405.28601145.29340343.46646426.71140541.54135844 1.25400595"/><path d="m.6.3c1.4336141.39837944 2.55012004 1.06702975 3.34951782 2.00595093.79939779.93892118 1.31228638 2.01823636 1.53866577 3.23794555"/></g><path d="m13.5457045 6.81168414c-.2479573-.35674131-.7684613-.78179125-1.8348989-.78179125-.6610156 0-1.4394234.16653014-2.26788846.48262485.22426499-1.0792276-.08793434-1.68695467-.41368842-2.01393189-.32451319-.3261959-.78946163-.49858585-1.34581904-.49858585-1.395189 0-3.30177548 1.04537094-4.9757732 2.72800982-1.74606717 1.75626779-2.70763648 3.60032108-2.70763648 5.19165858 0 3.1701369 3.92069492 5.0648822 7.71124476 5.0648822 4.88478424 0 8.28875524-2.8303053 8.28875524-5.3707827-.0000382-1.2651416-.883467-2.30136006-2.3706377-2.77881338.302711-.82826047.2749905-1.50859333-.0836578-2.02327038z"/></g></svg>