<svg height="30" viewBox="0 0 30 30" width="30" xmlns="http://www.w3.org/2000/svg"><g fill="none" fill-rule="evenodd" stroke="#fff" transform="translate(6 7)"><path d="m11.443058.04541021c-.023373.02669547-.0701189.12585009-.1051783.22119107-.0662234.16398649-.1830882.36610936-.4285043.72840509-.0623279.09152734-.2648936.31653205-.4518773.4957731-.7790987.7589142-1.85815042 1.25850093-3.23325965 1.50257384-.31943047.05720459-.46745923.08390006-.90765.1754274-.81415816.17161377-1.73739014.49195946-2.48142941.86950974-.1830882.09152734-.37007189.18686832-.41681781.20975016-.05064142.02288183-.08959635.05339095-.08959635.0686455 0 .0190682-.01558198.03050912-.03505944.03050912-.03116395 0-.46356374.26695474-.56874207.3508548-.01947746.0190682-.15192425.11822282-.29216201.22500472-1.14137962.86950973-1.99059722 2.18521526-2.27886374 3.52380262-.03505944.16780012-.08570086.3889912-.10907382.49577309-.0623279.27076839-.05843241 1.72757854.00389549 2.04029694.15971524.7665415.19477468.888578.38954936 1.4110465.4246088 1.1326509 1.14527511 2.1203834 2.09188005 2.8831113.51810064.4195003.53757811.4309412 1.03230579.7093369.64665193.3622957 1.34394528.6178095 2.15810344.781796.45966824.095341.59211502.1029683 1.32836331.1067819.52978712 0 .90765-.0190682 1.07126073-.0495773.14023777-.0305091.34280343-.0686455.44798176-.0877137.3038485-.0610182.59211502-.1449183.99335086-.2936502 2.18926741-.7970506 3.85264311-2.6352247 4.40190771-4.8700173l.0662234-.2669547.2493116-.095341c.4908322-.1868683 1.1725436-.5720459 1.515347-.8504416.5025187-.41187299.8063672-.71315048 1.1725436-1.15934627.1129693-.13729101.3856538-.54916405.3856538-.5834868 0-.01906819.015582-.03813639.031164-.04576367.0311639-.01144092.2571026-.4576367.4362953-.85044154.0506414-.1067819.0973873-.25170019.1051783-.32797297.0272684-.1944956-.0623279-.2135638-.4207133-.09534098-.6038015.19830924-1.2699309.34322753-1.7880316.39280484l-.2142521.01906819.0779099-.0877137c.1402377-.16017285.4323997-.5834868.5492646-.79705059.0389549-.07245915.0818053-.14110465.0934918-.15254557.0467459-.04576367.4752502-.88857793.623279-1.23943274.1869837-.42712759.307744-.78942332.4518772-1.31570553.2337296-.86569609.292162-1.31189188.315535-2.35301538.0194775-.79323696.015582-.80849151-.0662234-.85044154-.0740144-.0381364-.1168648-.01144092-.4401908.29365021-.6583384.62162319-.9232319.84281427-1.3205723 1.10214173-.1558197.10296826-.292162.1944956-.3038485.20975016-.0506414.05339095-.4986232.3012775-.9543959.53009585-.7596213.38136392-1.3829002.60255499-2.2204313.79705059-.615488.14491829-.7713078.16398649-.7440393.1067819.2415206-.53772313.3778629-1.0411235.4518772-1.65893305.0506415-.41568668.015582-.88857794-.1012828-1.43774198-.0584324-.25932747-.1830882-.65594594-.2571026-.79323696-.0389549-.07627278-.1597152-.0877137-.2142521-.01906819z" fill-rule="nonzero" stroke-width="1.2"/><path d="m1.0429718 10.6488819c-.00071439-.0003029-.00142815-.0006082-.00214128-.0009158.0015606.0006732.00699935.0040201.01616972.0100431zm.01402844.0091273c.03002109.0197178.10003458.0681171.20490023.1452911.69701614.5161848 1.20300225.7620406 1.85562019.8928216l-.00041745-.0000839c-.14469365-.029124-.15069185-.031686-.15069185-.3830642 0-.0624076-.09815968.0598078-.1763333.0946069.00552826-.0041997-.07528073.008355-.13220448.008355-.25030213 0-.47941716-.1610989-.69232779-.5388663-.1515674-.2695632-.3034671-.6377397-.3034671-.6470469 0 .3152549-.35302244.531678-.61910689.4188594z"/><path d="m6.523948 11.6165248c-.03506967-.0160212-.06961156-.0332907-.10351699-.0518592-.07109678-.0389367-.23968231-.1671599-.38650653-.2971511-.07139405-.0632088-.13019953-.1201995-.16394975-.1581701.13984519.1573324.15800054.1876839-.01280952.472614-.1240095.1601789-.14404045.1692018-.18006925.1743939.33705205-.0486509.60099288-.0909209.84685204-.1398275zm-.84685204.1398275c-.0004926.000071-.0009882.0001413-.00148709.0002112.00050267-.0000725.00100517-.000145.00150751-.0002175zm3.6541717-1.066168c.24980635-.10917.51369282-.2296859.80099434-.3645887.1927795-.0906407.2757381-.1270084.3009727-.1343998-.1318099.0386082-.3379239-.0123283-.45008325-.188417-.08772189-.25111436-.08772189-.25111436-.07412561-.30990259.0054024-.03554196.00549887-.03617663.00758098-.04359282-.00102631.00366373-.005734.01774123-.013123.03740095-.02161423.05750843-.05535451.13486932-.09344188.21286496l-.00056825.00116753c-.14315467.29509447-.30388186.55917347-.47820603.78946747zm.58533916-1.04090091c.00003785-.00013483.00007637-.00027191.00011558-.00041148-.00002812.00010706-.0000611.00022796-.00009888.00036246z"/></g></svg>