<svg fill="none" height="60" viewBox="0 0 60 60" width="60" xmlns="http://www.w3.org/2000/svg"><path d="m0 0h60v60h-60z" fill="#fff"/><g stroke="#000" stroke-width="3"><path d="m23.3744 50.9297c3.7656 0 6.8217-3.0561 6.8217-6.8217v-6.8216h-6.8217c-3.7656 0-6.8217 3.0561-6.8217 6.8216 0 3.7656 3.0561 6.8217 6.8217 6.8217z"/><path d="m16.5527 30.465c0-3.7656 3.0561-6.8217 6.8217-6.8217h6.8217v13.6434h-6.8217c-3.7656 0-6.8217-3.0562-6.8217-6.8217z"/><path d="m16.5527 16.8217c0-3.7656 3.0561-6.8217 6.8217-6.8217h6.8217v13.6433h-6.8217c-3.7656 0-6.8217-3.0561-6.8217-6.8216z"/><path d="m30.1978 10h6.8216c3.7656 0 6.8217 3.0561 6.8217 6.8217 0 3.7655-3.0561 6.8216-6.8217 6.8216h-6.8216z"/><path d="m43.8411 30.465c0 3.7655-3.0561 6.8217-6.8217 6.8217-3.7655 0-6.8216-3.0562-6.8216-6.8217 0-3.7656 3.0561-6.8217 6.8216-6.8217 3.7656 0 6.8217 3.0561 6.8217 6.8217z"/></g></svg>