<svg height="240" viewBox="0 0 240 240" width="240" xmlns="http://www.w3.org/2000/svg" xmlns:xlink="http://www.w3.org/1999/xlink"><defs><circle id="a" cx="120" cy="120" r="120"/><path id="b" d="m0 0h218.181818v218.181818h-218.181818z"/><path id="c" d="m1.53663924 13.968659c5.59364204 14.3912263 19.57622706 24.5914851 35.94043046 24.5914851 18.5327519 0 34.9581091-13.038491 37.7082683-30.51957496.8392559-5.33463774-3.7724974-8.04056914-8.3728865-8.04056914-12.6734151 0-33.0358802 0-55.6235018 0-9.5596606 0-11.74761573 5.76787878-10.7799214 10.353376.29946565 1.419042.74354697 2.6271698 1.12761094 3.615283z"/><path id="d" d="m.67701288 9.19664354c4.12305274 16.85576516 18.47125012 29.36350056 36.59210222 29.36350056 16.9909787 0 30.7598623-11.471855 36.6921764-26.3073382 1.2639292-3.16082372.7680633-12.2528059-7.7917003-12.2528059-31.7937221 0-51.5354037 0-57.52133095 0-9.92666934 0-8.69214644 6.24948126-7.97124737 9.19664354z"/><mask id="e" fill="#fff"><use fill="none" xlink:href="#a"/></mask><mask id="f" fill="#fff"><use fill="none" xlink:href="#b"/></mask><mask id="g" fill="#fff"><use fill="none" xlink:href="#c"/></mask><mask id="h" fill="#fff"><use fill="none" xlink:href="#d"/></mask></defs><g fill="none" fill-rule="evenodd"><use fill="#d8d8d8" xlink:href="#a"/><g mask="url(#e)"><g transform="translate(-41.454545 -39.709091)"><path d="m0 0h327.272727v327.272727h-327.272727z" fill="#422f51"/><g fill="none" transform="translate(54.545455 54.545455)"><use fill="#422f51" xlink:href="#b"/><g mask="url(#f)"><g transform="translate(24.507955 48.371591)"><path d="m85.8947348 15.424019c14.4930872-12.53275366 31.3036152-16.7352364 50.4315842-12.60744822 28.691955 6.19168228 34.584018 51.41815172 9.242398 59.79437712s17.295908 74.8783631-60.1334897 73.9140341c-77.42939739-.964328-37.6952515-58.9265064-61.623809-73.9140341-23.92855748-14.9875277-16.78781639-50.4593399 10.401908-59.79437712 18.1264829-6.22335816 35.3536191-2.02087542 51.6814085 12.60744822z" fill="#fd6856"/><g fill="none" transform="translate(.101043 24.632844)"><g fill="#422f51" transform="translate(71.3903 49.764412)"><path d="m14.4252452 14.3101661c-.2903624-9.78615024 2.312829-14.39611327 7.809574-13.82988909 3.0528596.31447755 5.7067543 4.51489277 2.4804587 8.93282647-1.0726935 1.46889472-4.5027044 3.10124892-10.2900327 4.89706262z"/><path d="m.02063892 13.6051829c-.27423117-9.59491689 2.18433842-14.11479561 7.37570876-13.55963614 2.88325632.30833227 5.38971242 4.42666625 2.34265541 8.75826814-1.01309939 1.4401907-4.25255412 3.0406467-9.71836417 4.801368z" transform="matrix(-1 0 0 1 11.12787 0)"/></g><path d="m92.3368791 91.671286c3.6338599-4.5115979 7.7556719-7.3463431 12.3654369-8.5042355 4.609764-1.1578924 8.731577-.7988944 12.365436 1.076994" stroke="#422f51" stroke-linecap="round" stroke-linejoin="round" stroke-width="10.472727"/><g transform="translate(.010262 9.167129)"><g transform="translate(93.985204)"><use fill="#fff" xlink:href="#c"/><path d="m-2.5250781 0c0 15.2689589 12.37388583 27.6468958 27.6378475 27.6468958 15.2639618 0 27.6378476-12.3779369 27.6378476-27.6468958" fill="#422f51" mask="url(#g)"/></g><use fill="#fff" xlink:href="#d"/><path d="m21.9955678 0c0 15.2689589 12.3738858 27.6468958 27.6378475 27.6468958 15.2639618 0 27.6378476-12.3779369 27.6378476-27.6468958" fill="#422f51" mask="url(#h)"/></g></g></g></g></g></g></g></g></svg>