<svg id="图层_1" data-name="图层 1" xmlns="http://www.w3.org/2000/svg" viewBox="0 0 572 248.73"><defs><style>.cls-1{fill:#fff;}.cls-2{opacity:0.3;}</style></defs><path class="cls-1" d="M589.68,331.68a20.26,20.26,0,0,1,16.39,5.86,2.5,2.5,0,0,0,3.54-3.54,25.26,25.26,0,0,0-19.93-7.32,2.56,2.56,0,0,0-2.5,2.5,2.52,2.52,0,0,0,2.5,2.5Z" transform="translate(-324.4 -275.9)"/><path class="cls-1" d="M587.8,360.8A133,133,0,0,0,601.12,359a2.51,2.51,0,0,0,1.74-3.08,2.56,2.56,0,0,0-3.07-1.75q-1.57.3-3.15.54l-1.45.23-.73.1-.49.07c.22,0,.24,0,.06,0-2.07.26-4.15.49-6.23.66a2.5,2.5,0,0,0,0,5Z" transform="translate(-324.4 -275.9)"/><path class="cls-1" d="M580.17,401.86c5.36,4.12,11.32-2.76,14.67-6.23l14.36-14.84c2.24-2.31-1.3-5.85-3.54-3.54L593,390.31c-1.94,2-3.79,4.18-5.9,6-1.25,1.07-3,2.35-4.44,1.25a2.52,2.52,0,0,0-3.42.9,2.56,2.56,0,0,0,.89,3.42Z" transform="translate(-324.4 -275.9)"/><path class="cls-1" d="M628.78,313.15a7.77,7.77,0,0,1,1.58.39c.19.07.55.29-.09-.05l.36.17c.25.13.48.26.71.41l.34.22c.18.13.38.43-.07-.06.16.18.38.32.56.49a7.94,7.94,0,0,1,.57.59l.26.31c.17.19-.38-.51-.06-.07a9.28,9.28,0,0,1,.81,1.35c.06.12.11.25.17.37-.33-.68-.11-.26,0-.09s.17.51.24.77.08.56.17.8l0-.4a2.45,2.45,0,0,1,0,.27,2.83,2.83,0,0,1,0,.41,6.12,6.12,0,0,1,0,.74c0,.14,0,.27,0,.41s0,.09,0-.33a2.56,2.56,0,0,1,0,.27,2.5,2.5,0,0,0,4.83,1.33,11.31,11.31,0,0,0-8.95-13.12,2.73,2.73,0,0,0-1.92.25,2.52,2.52,0,0,0-1.15,1.49c-.27,1.18.36,2.88,1.74,3.08Z" transform="translate(-324.4 -275.9)"/><path class="cls-1" d="M614.74,354.4a9.35,9.35,0,0,0-4,7.34,2.52,2.52,0,0,0,3.76,2.16l51.94-27.34c2.85-1.5.32-5.82-2.53-4.32L612,359.59l3.76,2.15a3.94,3.94,0,0,1,1.5-3,2.57,2.57,0,0,0,.89-3.42,2.51,2.51,0,0,0-3.42-.9Z" transform="translate(-324.4 -275.9)"/><path class="cls-1" d="M636.6,329.36a111.45,111.45,0,0,1-4.86,20.31,87.32,87.32,0,0,1-8.41,17.07c-2.19,3.51-4.58,6.9-7,10.24l4.32,2.52c4-6,9.57-10.18,16-13.38,6.71-3.34,13.76-5.92,20.33-9.56,2.82-1.55.3-5.87-2.52-4.31-6.77,3.74-14.06,6.35-20.94,9.86A44.85,44.85,0,0,0,616.29,377a2.52,2.52,0,0,0,.9,3.42,2.56,2.56,0,0,0,3.42-.9,128,128,0,0,0,11.42-18A89.27,89.27,0,0,0,639,343c1-4.07,1.82-8.2,2.46-12.35a2.59,2.59,0,0,0-1.75-3.08,2.51,2.51,0,0,0-3.07,1.75Z" transform="translate(-324.4 -275.9)"/><path class="cls-1" d="M636,370.62a89.51,89.51,0,0,1-3.51,29.87c-.79,2.65,3.33,4.53,4.57,1.92a5.8,5.8,0,0,0-.28-5.91,2.57,2.57,0,0,0-3.42-.89,2.51,2.51,0,0,0-.9,3.42c.17.25.43.54.28.86l4.57,1.92A93.68,93.68,0,0,0,641,370.62c-.16-3.2-5.17-3.22-5,0Z" transform="translate(-324.4 -275.9)"/><path class="cls-1" d="M618.44,388.59,615,397.43a2.44,2.44,0,0,0,.25,1.92,2.5,2.5,0,0,0,3.42.9,2.89,2.89,0,0,0,1.15-1.49l3.47-8.84A2.55,2.55,0,0,0,623,388a2.58,2.58,0,0,0-1.5-1.15,2.52,2.52,0,0,0-1.92.26,2.85,2.85,0,0,0-1.15,1.49Z" transform="translate(-324.4 -275.9)"/><path class="cls-1" d="M645.88,379.21a22.51,22.51,0,0,0,6.79,11.09,2.54,2.54,0,0,0,3.93-.51l3.39-6.4,1.59-3,.67-1.28c.17-.31.76-1.05.78-1.4-1.42.09-1.74.29-1,.62l.63.38,1.44.88,2.9,1.77,6.21,3.78c2.75,1.68,5.27-2.64,2.52-4.31l-7.24-4.42c-2.15-1.31-5-3.88-7.67-3-2.37.79-3.44,4.17-4.5,6.17l-4.07,7.69,3.93-.51a17.73,17.73,0,0,1-5.5-8.88c-.82-3.11-5.65-1.79-4.83,1.33Z" transform="translate(-324.4 -275.9)"/><path class="cls-1" d="M669.54,351.67a69.34,69.34,0,0,1,15.93-7.59,70.93,70.93,0,0,1,8.45-2.21,44.1,44.1,0,0,1,8.24-1.09,6.15,6.15,0,0,1,6.05,6.77c-.34,2.56-2.3,5-3.69,7.07-1.56,2.31-3.18,4.59-4.93,6.76a54.59,54.59,0,0,1-14.06,12.88c-2.75,1.65-.24,6,2.53,4.31a57.31,57.31,0,0,0,14.39-12.82c2.09-2.54,4-5.19,5.91-7.9s4-5.5,4.61-8.65a11.24,11.24,0,0,0-7-12.75c-2.73-1-5.59-.59-8.4-.21A74,74,0,0,0,667,347.35c-2.71,1.73-.2,6.06,2.52,4.32Z" transform="translate(-324.4 -275.9)"/><path class="cls-1" d="M689.57,330.07a228.79,228.79,0,0,1-13.78,28.67c-1.59,2.8,2.73,5.32,4.32,2.52a237.61,237.61,0,0,0,14.28-29.86,2.51,2.51,0,0,0-1.74-3.07,2.56,2.56,0,0,0-3.08,1.74Z" transform="translate(-324.4 -275.9)"/><path class="cls-1" d="M714.63,344.84a23.58,23.58,0,0,1,3.08,16.7,2.5,2.5,0,0,0,4.82,1.33,28.73,28.73,0,0,0-3.59-20.55c-1.67-2.74-6-.23-4.31,2.52Z" transform="translate(-324.4 -275.9)"/><path class="cls-1" d="M728.09,339a26.76,26.76,0,0,1,4.62-2.35,9,9,0,0,1,2.56-.57,1.53,1.53,0,0,1,.76.08c.54.16-.15-.17.21.12-.61-.48.32.38.11.1a3,3,0,0,1,.26.46c-.07-.2-.06-.15,0,.14a6.37,6.37,0,0,1,.17,1.81,27.51,27.51,0,0,1-.38,5.37c-1.38,7.11-6.19,12.55-11.13,17.54-1.65,1.66,0,5.12,2.43,4.18l7.78-3a2.58,2.58,0,0,0,1.74-3.08,2.52,2.52,0,0,0-3.07-1.75l-7.78,3,2.43,4.18c4.82-4.85,9.45-10.14,11.64-16.74a29.31,29.31,0,0,0,1.32-10.4c-.13-3-1.51-6.06-4.69-6.82-4.06-1-8.16,1.48-11.55,3.41-2.79,1.59-.28,5.92,2.53,4.32Z" transform="translate(-324.4 -275.9)"/><path class="cls-1" d="M755.9,310.08a62,62,0,0,1-3.49,10.46c-.74,1.68-1.56,3.33-2.44,4.94s-2,3.08-2.81,4.68c-1,1.86-.82,4.17,1.06,5.4,1.5,1,3.3.84,5,.77,2.08-.08,4.15-.17,6.23-.24a14.65,14.65,0,0,0,1.69.07c.59-.17.09.09.1,0s-.31-.39-.28-.38-.09.13-.23.43a28.79,28.79,0,0,1-3.77,5q-2.13,2.56-4.42,5a2.55,2.55,0,0,0,.5,3.93c2.14,1.61,4.83,1.44,7.36,1.49a5.13,5.13,0,0,1,2.49.54c.24.14.29.13.36.34a2.83,2.83,0,0,1-.07,1.25c-1.22,6.18-2.58,12.35-3.87,18.52a2.56,2.56,0,0,0,1.75,3.07,2.52,2.52,0,0,0,3.07-1.74l2.22-10.61,1.06-5.06a25.64,25.64,0,0,0,.88-5.12c0-3.1-2.37-5.26-5.27-5.89a19.76,19.76,0,0,0-4.14-.3,5,5,0,0,1-3.31-.81l.5,3.93a101.85,101.85,0,0,0,7.79-9.31c1.12-1.51,2.2-3.19,2-5.16a4.62,4.62,0,0,0-3.6-4.06,19.81,19.81,0,0,0-5.6-.1l-3.24.12a19.6,19.6,0,0,0-2.28.09c-1.06.24-.18-.18-.22,0s.56,1.18.56,1.18.53-.82.62-1c.55-.87,1.09-1.75,1.6-2.64q1.43-2.49,2.62-5.1a68.66,68.66,0,0,0,4.35-12.46c.76-3.12-4.06-4.46-4.82-1.33Z" transform="translate(-324.4 -275.9)"/><path class="cls-1" d="M782,312.87a21,21,0,0,1,0,2.63c0,.24,0,.48-.07.72-.05.53.09-.51,0,.06-.07.41-.14.83-.23,1.24A24.19,24.19,0,0,1,781,320q-.21.63-.45,1.26l-.21.55c0,.1-.38.91-.13.32a2.75,2.75,0,0,0-.25,1.93,2.53,2.53,0,0,0,1.15,1.49c1.07.57,2.87.39,3.42-.89a32.2,32.2,0,0,0,2-5.82,22.26,22.26,0,0,0,.48-6,2.5,2.5,0,0,0-5,0Z" transform="translate(-324.4 -275.9)"/><path class="cls-1" d="M771.45,314.15c-.45,3.2-1.24,6.34-1.65,9.56-.34,2.74-.35,5.91,1.26,8.3s4.15,3.82,7,3c2.49-.7,4.72-2.35,6.79-3.86,2.6-1.9,5.09-4,7.85-5.63l-3.76-2.16c-.07.7.12-.52,0,.23l-.12.62c-.1.49-.22,1-.35,1.45-.3,1.07-.66,2.12-1.06,3.15a23.41,23.41,0,0,1-2.8,5.2,2.52,2.52,0,0,0,.89,3.42,2.57,2.57,0,0,0,3.42-.9,26.92,26.92,0,0,0,3.31-6.39,25,25,0,0,0,1.73-6.78c.19-1.93-2.25-3.07-3.76-2.16-4.22,2.53-7.77,6.11-12.13,8.43l-.67.34c-.26.13.1,0,.13-.05l-.35.13-.52.17-.32.07c-.34.1.08-.05.2,0-.11,0-.7,0-.24,0s.16,0,.07,0c-.28-.07,0-.1.24.12a3.5,3.5,0,0,0-.65-.39c-.43-.27-.14-.11-.06,0-.11-.1-.21-.22-.33-.32s-.32-.36,0,0a2.61,2.61,0,0,1-.19-.27,7.37,7.37,0,0,1-.37-.68c.18.39,0-.09-.06-.24a7.32,7.32,0,0,1-.21-.9c.09.46,0-.28,0-.42a8.62,8.62,0,0,1,0-.88c0-.63,0-1.25.1-1.87.11-1.11.44-2.81.71-4.22.31-1.56.62-3.13.84-4.7a2.59,2.59,0,0,0-1.75-3.08,2.51,2.51,0,0,0-3.07,1.75Z" transform="translate(-324.4 -275.9)"/><path class="cls-1" d="M771.16,351.77l23.58-12-3-3.93A53,53,0,0,0,774.29,362c-.93,3.09,3.89,4.41,4.83,1.33a48.24,48.24,0,0,1,16.13-24,2.49,2.49,0,0,0,.19-3.29,2.53,2.53,0,0,0-3.22-.64l-23.59,12c-2.86,1.47-.33,5.78,2.53,4.32Z" transform="translate(-324.4 -275.9)"/><path class="cls-1" d="M782,353.48c-.44-.16.2.25.3.37a4.33,4.33,0,0,1,.62,1.06,7.63,7.63,0,0,1,.4,2.81c0,2.5-.36,5-.46,7.47s3.62,3.55,4.66,1.26c6.45-14.28,12.13-28.91,17.66-43.57q2.25-6,4.45-11.92l-3.07,1.74c.77.11-.72-.52-.59-.59s0,.27,0,.15c0,.36,0,.84,0,1-.1,1-.32,1.91-.49,2.86-.42,2.32-.86,4.64-1.3,7-.86,4.45-1.76,8.89-2.48,13.36a2.53,2.53,0,0,0,3.67,2.82c2.31-1.2,5.35-2.74,7.59-2.88a4.59,4.59,0,0,1,1,0c-.61-.09.46.09.08.06-.22,0,0,0,.06.06a1.16,1.16,0,0,1-.34-.32c.24.26.08.15,0,0,.06.16.12.32.17.48s.13.48.18.71.06.29.08.43c0-.1,0-.51,0,0a14.54,14.54,0,0,1-.59,5.42,28.94,28.94,0,0,1-1.36,3.86,35,35,0,0,1-4.55,7.57,18.29,18.29,0,0,1-5.55,4.83c-.51.29.16,0-.38.18l-.68.22c-.25.06-.51.12-.77.16.56-.08,0,0-.28,0s-.09,0,.11.09c-.06,0-.3-.2,0,0s-.21-.28.07.07.09-.17,0,.07,0,.11,0-.07-.07-.27-.1-.41c.09.36,0,.09,0-.14a12.12,12.12,0,0,1,.55-3.95q.3-1.11.69-2.22c.2-.56.64-1.54.7-1.83a2.22,2.22,0,0,0,.16-.36c.14.15-.65.34-.65.34a6.63,6.63,0,0,1,1,.24c1,.36,2,.84,3,1.29,2,.91,3.9,1.91,5.8,3,8.84,4.9,17.07,10.76,26.48,14.6a2.52,2.52,0,0,0,3.08-1.74,2.57,2.57,0,0,0-1.75-3.08c-9.58-3.91-17.89-10.2-27-15-2.39-1.27-4.84-2.43-7.34-3.46s-5.53-1.35-6.93,1.34a22.88,22.88,0,0,0-2.8,10.76,5.68,5.68,0,0,0,2.24,4.73,6.15,6.15,0,0,0,4.7.55c3-.63,5.66-2.77,7.73-4.93,4.91-5.12,8.67-12.23,9.41-19.34.35-3.42-.27-8.19-4.32-9s-8.51,1.63-12,3.44l3.67,2.82c.85-5.22,1.92-10.41,2.91-15.6.46-2.43.92-4.86,1.32-7.31s.38-6.53-2.9-7a2.6,2.6,0,0,0-3.08,1.75c-5.34,14.45-10.79,28.86-16.74,43.08q-2.35,5.64-4.87,11.22l4.66,1.26c.21-5.37,2.11-14.09-4.53-16.53a2.51,2.51,0,0,0-3.07,1.74,2.55,2.55,0,0,0,1.74,3.08Z" transform="translate(-324.4 -275.9)"/><path class="cls-1" d="M833.25,307.52a.8.8,0,0,1-.27,0c-.31,0-.1-.25-.12-.05,0,0,.09.07.13.13a3.2,3.2,0,0,1,.29.51,5.24,5.24,0,0,1,.37,2.08,23.08,23.08,0,0,1-1.19,6.52,28.32,28.32,0,0,1-7,11.56c-2,2,.6,5.53,3,3.93,1.77-1.17,3.47-2.44,5.31-3.52,1.36-.79,3.05-1.73,4.66-1.52,0,0,.52.13.59.16.33.13.69.5.25.08l.43.42c.29.27-.05-.08-.09-.14.09.14.19.27.27.41s.24.42.35.63a3.54,3.54,0,0,1,.16.34c0-.08-.19-.5,0-.06a14.77,14.77,0,0,1,.53,1.63,35.68,35.68,0,0,1,1.08,8.41c.14,3.18.1,6.36,0,9.53-.11,2.67-.28,5.34-.54,8a2.51,2.51,0,0,0,2.5,2.5,2.55,2.55,0,0,0,2.5-2.5,123,123,0,0,0,.54-18.11c-.26-5.23-.57-14.38-6.91-16.05-5.24-1.39-10,2.8-14.1,5.47l3,3.93a33.33,33.33,0,0,0,8.91-16.12c.61-2.72,1.15-5.77.34-8.51-.9-3-3.11-5-6.32-4.51a2.53,2.53,0,0,0-1.75,3.08,2.57,2.57,0,0,0,3.08,1.74Z" transform="translate(-324.4 -275.9)"/><path class="cls-1" d="M860.18,280.58a7.21,7.21,0,0,1,3.24,6,13.19,13.19,0,0,1-2.88,8.14c-4,5.69-10.26,9.38-14,15.35-1.11,1.75.76,4.43,2.83,3.67,10.17-3.76,20.42-7.3,30.6-11.06a2.58,2.58,0,0,0,1.74-3.08,2.52,2.52,0,0,0-3.07-1.75c-10.18,3.76-20.43,7.31-30.6,11.07l2.82,3.67c4.18-6.61,11.53-10.5,15.35-17.42,3.4-6.16,3.19-15-3.47-18.95-2.78-1.64-5.3,2.69-2.52,4.32Z" transform="translate(-324.4 -275.9)"/><path class="cls-1" d="M858.35,323c2-1.14,4-2.35,6.07-3.31l.33-.15-.09,0a3.68,3.68,0,0,1,.68-.26c.52-.19,1-.36,1.59-.5s1-.25,1.53-.34l.83-.14s-.42.05-.12,0l.55-.06c.56-.05,1.12-.07,1.67-.1s-.47-.13-.17,0-.4-.19-.37-.17c.24.13.21.22-.26-.23.14.14.13.29-.27-.35.11.17.06.33-.17-.42.14.46-.07-.59,0-.29,0,.47.14-.47,0-.22s-.08.31-.13.46-.06.14-.08.22c-.08.28.25-.53.11-.25s-.14.29-.21.43c-.21.42-.44.82-.68,1.22-.54.88-1.12,1.74-1.71,2.58-1.53,2.18-3.14,4.31-4.63,6.52a2.52,2.52,0,0,0,.9,3.42,2.57,2.57,0,0,0,3.42-.9c1.47-2.18,3.06-4.28,4.57-6.43a20.57,20.57,0,0,0,3.18-5.64,4.08,4.08,0,0,0-.25-3.23,3.69,3.69,0,0,0-3.14-1.69,20.33,20.33,0,0,0-4.26.44,19,19,0,0,0-3.4.92,58.91,58.91,0,0,0-8,4.12,2.52,2.52,0,0,0-.89,3.42,2.56,2.56,0,0,0,3.42.9Z" transform="translate(-324.4 -275.9)"/><path class="cls-1" d="M863.22,333.19a19.75,19.75,0,0,0,5.94-1.06,20.48,20.48,0,0,0,5.53-2.35,2.5,2.5,0,1,0-2.52-4.31,10.28,10.28,0,0,1-.91.53l-.58.28-.28.13.18-.08c-.92.34-1.82.7-2.75,1s-1.84.51-2.77.7l-.69.12c-.11,0-.5.07,0,0s.1,0,0,0a8.25,8.25,0,0,1-1.11.05,2.5,2.5,0,0,0,0,5Z" transform="translate(-324.4 -275.9)"/><path class="cls-1" d="M852.18,341c1.79,2.5,3.51,5.07,5.19,7.64a30.61,30.61,0,0,1,4.11,8.78,2.5,2.5,0,1,0,4.82-1.33,35.59,35.59,0,0,0-4.45-9.73c-1.72-2.66-3.51-5.31-5.35-7.89a2.57,2.57,0,0,0-3.42-.89,2.53,2.53,0,0,0-.9,3.42Z" transform="translate(-324.4 -275.9)"/><path class="cls-1" d="M868.44,342.23c2.78-1.3,5.23-3.23,8-4.45a6.37,6.37,0,0,1,3.33-.63,5.07,5.07,0,0,1,.71.16,4.26,4.26,0,0,0,.47.15c.43.06,0,.07,0,0s-.41-.35-.21-.18-.26-.44-.11-.16a.84.84,0,0,0,.11.21c-.2-.17,0-.41-.08-.13a1.72,1.72,0,0,0,.09.36s0-.48,0-.18,0,.42,0,.63,0,.53,0,.79,0,.24,0,.35c0,.41.06-.35,0,.07a21,21,0,0,1-.85,3.32l-.3.79c-.11.28,0,0,0-.06s-.09.2-.14.3a9.21,9.21,0,0,1-.64,1.2,36.42,36.42,0,0,1-2.83,3.6,23.82,23.82,0,0,1-7.23,6.28,2.51,2.51,0,0,0-1.14,2.82,2.58,2.58,0,0,0,2.41,1.84,20.33,20.33,0,0,0,9.68-1.9,2.52,2.52,0,0,0,.9-3.42,2.56,2.56,0,0,0-3.42-.89,15.17,15.17,0,0,1-7.16,1.21l1.26,4.65a26.77,26.77,0,0,0,8-6.77c2.19-2.54,4.23-5,5.37-8.21.88-2.47,1.6-5.5.89-8.11-1-3.63-5.49-4.15-8.63-3.46-4,.88-7.31,3.79-11,5.5a2.53,2.53,0,0,0-.9,3.42,2.57,2.57,0,0,0,3.42.9Z" transform="translate(-324.4 -275.9)"/><path class="cls-1" d="M674.17,427.62a187.8,187.8,0,0,1,46.55-19.73q7-1.89,14-3.25a2.51,2.51,0,0,0,1.74-3.07,2.54,2.54,0,0,0-3.07-1.75,193.61,193.61,0,0,0-48.93,16.49q-6.56,3.24-12.86,7c-2.77,1.64-.26,6,2.52,4.32Z" transform="translate(-324.4 -275.9)"/><path class="cls-1" d="M697.72,423.4c.09.6,0-.38,0,.17,0,.24,0,.49.08.73q.06.63.09,1.26c.05.87.06,1.75,0,2.62s-.08,1.68-.16,2.52c0,.21,0,.42-.07.62-.07.6.06-.37,0,.17s-.16,1-.25,1.45a2.5,2.5,0,1,0,4.82,1.33,36.48,36.48,0,0,0,.28-12.2,2.48,2.48,0,0,0-1.15-1.49,2.51,2.51,0,0,0-3.42.9,3,3,0,0,0-.25,1.92Z" transform="translate(-324.4 -275.9)"/><path class="cls-1" d="M724.42,416.46c-5.62,11.26-17.32,17.49-26.26,25.75a53.06,53.06,0,0,0-7.24,8.18c-1.19,1.69.83,4.51,2.82,3.68a276.33,276.33,0,0,0,36.46-18.45c2.75-1.66.24-6-2.52-4.32a266.83,266.83,0,0,1-35.27,17.94l2.83,3.68c7.23-10.22,19-16,27.32-25.13a39.39,39.39,0,0,0,6.18-8.81c1.43-2.87-2.88-5.41-4.32-2.52Z" transform="translate(-324.4 -275.9)"/><path class="cls-1" d="M711.48,392.22q-.37,30.24-1.85,60.45-.42,8.58-.92,17.15a2.51,2.51,0,0,0,3.16,2.41,7.93,7.93,0,0,0,5-5.6c.71-3.14-4.11-4.47-4.82-1.33a2.82,2.82,0,0,1-1.53,2.11l3.17,2.41q1.78-30.18,2.47-60.43.2-8.58.3-17.17c0-3.22-5-3.22-5,0Z" transform="translate(-324.4 -275.9)"/><path class="cls-1" d="M708,443.59a222.08,222.08,0,0,1-19.23,25.9l3.92,3,10.55-13.78c1.26-1.65,2.54-3.61,4.4-4.67,2.05-1.17,4.78-.71,7-.55a274.9,274.9,0,0,1,33.2,4.34q9.29,1.8,18.43,4.23c3.11.82,4.44-4,1.33-4.82a283.54,283.54,0,0,0-35.12-6.94q-8.77-1.17-17.6-1.8c-2.69-.18-5.52-.45-8.11.46a13.64,13.64,0,0,0-6,4.77c-4.21,5.36-8.29,10.83-12.43,16.24-1.72,2.24,2.07,5.17,3.92,3a231.49,231.49,0,0,0,20-26.91c1.73-2.73-2.59-5.24-4.32-2.53Z" transform="translate(-324.4 -275.9)"/><path class="cls-1" d="M748.22,409.55a150.85,150.85,0,0,1,27.69-19.39c2.82-1.54.3-5.86-2.53-4.32A156.59,156.59,0,0,0,744.69,406c-2.42,2.13,1.13,5.66,3.53,3.53Z" transform="translate(-324.4 -275.9)"/><path class="cls-1" d="M753.37,405.42a111.88,111.88,0,0,1-.74,11.71c-.22,2.09-.45,4.19-.7,6.28l-.36,2.86c-.05.43-.11.87-.17,1.3-.08.62,0,.31-.12.91a2.59,2.59,0,0,0,1.75,3.08c1.16.32,2.89-.4,3.07-1.75,1.1-8.05,2.3-16.25,2.27-24.39,0-3.22-5-3.22-5,0Z" transform="translate(-324.4 -275.9)"/><path class="cls-1" d="M767.62,400.67c1.11,3.72.65,7.63.37,11.44l-.89,12.37-1.79,24.73a2.52,2.52,0,0,0,2.5,2.5,2.55,2.55,0,0,0,2.5-2.5L772.13,424l.9-12.36c.3-4.11.61-8.27-.59-12.28-.92-3.07-5.75-1.76-4.82,1.33Z" transform="translate(-324.4 -275.9)"/><path class="cls-1" d="M758,412.59l8-3-2.82-1.15c.24.39.2.24.11.57a8,8,0,0,1-.8,1.6c-.69,1.2-1.4,2.39-2.05,3.62a40.91,40.91,0,0,1-3.25,5.22c-1.29,1.74.85,4.36,2.82,3.67a41.86,41.86,0,0,0,8-3.29l-3.76-2.16c.07-.55,0,0,0,.11s-.12.4-.18.6a5.73,5.73,0,0,1-.41,1,28.49,28.49,0,0,1-1.57,2.87c-.57.93-1.17,1.83-1.8,2.73-.28.39-.56.79-.85,1.17-.15.21-.3.42-.46.62.2-.26,0,0-.08.1-3.53,4.37-7,8.81-10.55,13.14a2.5,2.5,0,0,0,3.53,3.53c7.93-6.27,17.35-10.29,25.29-16.57a2.5,2.5,0,0,0,0-3.53,2.55,2.55,0,0,0-3.53,0c-7.94,6.26-17.35,10.29-25.29,16.57l3.53,3.53c3.76-4.53,7.47-9.15,11.08-13.81,2.69-3.48,5.77-7.58,6.34-12.05.25-1.94-2.29-3.05-3.76-2.16a34.6,34.6,0,0,1-6.83,2.79L761.5,422a56.26,56.26,0,0,0,3.86-6.35c1.66-3,4.24-6.25,2.13-9.7a2.53,2.53,0,0,0-2.82-1.15l-8,3a2.56,2.56,0,0,0-1.74,3.07,2.51,2.51,0,0,0,3.07,1.75Z" transform="translate(-324.4 -275.9)"/><path class="cls-1" d="M786.64,390.22c-.21.52.25-.53,0,0l-.21.46c-.14.29-.28.58-.44.87-.32.62-.67,1.23-1,1.83s-.85,1.32-1.3,2l-.62.85-.39.51-.13.16a37.76,37.76,0,0,1-3,3.4q-.75.74-1.56,1.41c-.14.11-.27.24-.42.34.55-.35.06-.05-.05,0s-.54.38-.81.55a2.5,2.5,0,1,0,2.52,4.32,29.17,29.17,0,0,0,7-6.67,35.38,35.38,0,0,0,5.28-8.68,2.51,2.51,0,0,0-1.74-3.08,2.58,2.58,0,0,0-3.08,1.75Z" transform="translate(-324.4 -275.9)"/><path class="cls-1" d="M781.51,405c1.88,7.57-.23,15.54-.68,23.16-.15,2.61,3.39,3.22,4.66,1.26q5.13-7.95,9.51-16.37l-4.57-.6,3.32,9.22a2.57,2.57,0,0,0,3.08,1.74,7.27,7.27,0,0,0,4.54-3.86,23.59,23.59,0,0,0,1.22-2.89c.15-.42.29-.84.44-1.25.08-.21.15-.41.23-.61s.24-.57.09-.25a22.51,22.51,0,0,1,6-7.64A14.83,14.83,0,0,1,813,404.5c-.34.14.52-.17.64-.21s.89-.18.63-.15.47,0,.58,0c.36,0-.45-.08-.1,0a1.91,1.91,0,0,1,.45.13c-.64-.24,0-.06,0,0s-.26-.25-.05,0a3.83,3.83,0,0,1,.28.29c.25.28-.26-.28,0,0,0,.06.27.5.13.19s0,.06,0,.14.07.48,0,.16,0,.38,0,.46a7,7,0,0,1-.25,1.8,20.84,20.84,0,0,1-.8,2.66,11.55,11.55,0,0,1-1,2.06c-.08.13-.17.27-.26.39.3-.4-.09.13-.14.11.23.09-.82,0,0,0l.6-.16h-.14c0,.11-.18-.1-.1-.06s-.39-.24-.45-.29a7,7,0,0,1-1-.85,23.46,23.46,0,0,1-1.82-2.08,2.6,2.6,0,0,0-2.82-1.15,2.52,2.52,0,0,0-1.84,2.41,166.92,166.92,0,0,1,.22,21.1c-.18,3.68-.34,7.37-.4,11.06a103.72,103.72,0,0,1-.45,11.56c-.48,3.76-1.62,7.55-4.41,10.25-2.32,2.24,1.22,5.78,3.53,3.54,5.86-5.68,6.23-14.39,6.29-22,.06-7.3.61-14.57.72-21.87.07-4.54-.15-9.08-.5-13.61L806,411.59c2.36,3.13,7.3,8.61,11.09,4a16,16,0,0,0,2.76-5.64c.58-1.95,1.12-4.31.59-6.33-1-3.92-5.13-5.26-8.68-4-3.93,1.39-7.26,4.51-9.8,7.74a23.37,23.37,0,0,0-3.6,6.21c-.39,1-.7,2.11-1.18,3.11s-.85,1.63-1.7,1.86l3.07,1.75-3.32-9.21c-.67-1.89-3.5-2.65-4.57-.6q-4.36,8.4-9.51,16.37l4.66,1.26c.48-8.15,2.51-16.38.5-24.49-.77-3.12-5.59-1.8-4.82,1.33Z" transform="translate(-324.4 -275.9)"/><path class="cls-1" d="M845.75,382.48a70,70,0,0,1,8.75,1.69,21.33,21.33,0,0,1,2,.67l.44.17c.26.1-.27-.13.15.07s.62.29.92.45a12.92,12.92,0,0,1,1.69,1.06c.31.22-.27-.24,0,0l.41.35q.39.38.75.78a2.5,2.5,0,0,0,3.53-3.54c-4.26-4.8-11.41-5.62-17.37-6.53a2.57,2.57,0,0,0-3.08,1.75c-.27,1.19.37,2.86,1.75,3.07Z" transform="translate(-324.4 -275.9)"/><path class="cls-1" d="M824,420.7c15.92-8.26,33.22-14.19,50.61-18.46,3.12-.77,1.8-5.6-1.33-4.83a256.21,256.21,0,0,0-41.16,13.91c-3.6,1.57-7.16,3.25-10.65,5.06-2.85,1.48-.33,5.8,2.53,4.32Z" transform="translate(-324.4 -275.9)"/><path class="cls-1" d="M851.16,391.24a105.89,105.89,0,0,1-11.71,32.87l4.66,1.27a5,5,0,0,1,1-3.88,2.56,2.56,0,0,0,0-3.54,2.52,2.52,0,0,0-3.53,0,9.79,9.79,0,0,0-2.5,7.42,2.62,2.62,0,0,0,1.84,2.41,2.54,2.54,0,0,0,2.82-1.15A110.41,110.41,0,0,0,856,392.57a2.57,2.57,0,0,0-1.75-3.07,2.53,2.53,0,0,0-3.08,1.74Z" transform="translate(-324.4 -275.9)"/><path class="cls-1" d="M855.88,415.58c6.29,4.84,11.72,10.68,17.74,15.85,5.52,4.75,12.27,9.29,19.63,10.38a2.58,2.58,0,0,0,3.07-1.74,2.52,2.52,0,0,0-1.75-3.08c-7-1-13.27-5.43-18.49-10-5.92-5.22-11.41-10.88-17.68-15.71a2.51,2.51,0,0,0-3.42.9,2.57,2.57,0,0,0,.9,3.42Z" transform="translate(-324.4 -275.9)"/><rect class="cls-1" x="71.73" y="40.71" width="7.17" height="7.17"/><rect class="cls-1" x="93.25" y="40.71" width="7.17" height="7.17"/><path class="cls-1" d="M482.21,316.61v50.21h50.21V316.61Zm43,14.34v28.7H489.39V323.78h35.86Z" transform="translate(-324.4 -275.9)"/><rect class="cls-1" x="64.56" y="47.88" width="7.17" height="7.17"/><polygon class="cls-1" points="14.35 62.23 14.35 69.4 14.35 76.57 35.87 76.57 35.87 69.4 35.87 62.23 35.87 55.05 14.35 55.05 14.35 62.23"/><rect class="cls-1" x="57.39" y="55.05" width="7.17" height="7.17"/><rect class="cls-1" x="78.91" y="55.05" width="7.17" height="7.17"/><polygon class="cls-1" points="71.73 62.23 64.56 62.23 64.56 69.4 64.56 76.57 71.73 76.57 71.73 69.4 71.73 62.23"/><polygon class="cls-1" points="193.68 69.4 193.68 62.23 193.68 55.05 172.16 55.05 172.16 62.23 172.16 69.4 172.16 76.57 193.68 76.57 193.68 69.4"/><polygon class="cls-1" points="86.08 83.75 86.08 90.92 93.25 90.92 93.25 83.75 93.25 76.57 93.25 69.4 93.25 62.23 86.08 62.23 86.08 69.4 86.08 76.57 71.73 76.57 71.73 83.75 71.73 90.92 78.91 90.92 78.91 83.75 86.08 83.75"/><polygon class="cls-1" points="121.94 83.75 129.12 83.75 129.12 76.57 129.12 69.4 121.94 69.4 121.94 76.57 121.94 83.75"/><path class="cls-1" d="M374.61,359.65v-43H324.4v50.21h50.21Zm-43,0V323.78h35.87v35.87Z" transform="translate(-324.4 -275.9)"/><rect class="cls-1" x="114.77" y="83.75" width="7.17" height="7.17"/><rect class="cls-1" x="129.12" y="83.75" width="7.17" height="7.17"/><rect class="cls-1" x="78.91" y="90.92" width="7.17" height="7.17"/><polygon class="cls-1" points="121.94 98.09 121.94 105.27 129.12 105.27 129.12 98.09 129.12 90.92 121.94 90.92 121.94 98.09"/><polygon class="cls-1" points="21.52 98.09 0 98.09 0 105.27 0 112.44 0 119.61 0 126.79 7.17 126.79 7.17 119.61 14.35 119.61 14.35 112.44 21.52 112.44 21.52 105.27 21.52 98.09"/><rect class="cls-1" x="186.5" y="98.09" width="7.17" height="7.17"/><polygon class="cls-1" points="64.56 105.27 64.56 98.09 64.56 90.92 64.56 83.75 57.39 83.75 57.39 90.92 57.39 98.09 28.69 98.09 28.69 105.27 57.39 105.27 57.39 112.44 71.73 112.44 71.73 105.27 64.56 105.27"/><rect class="cls-1" x="179.33" y="105.27" width="7.17" height="7.17"/><polygon class="cls-1" points="200.85 112.44 186.5 112.44 186.5 119.61 193.68 119.61 193.68 126.79 193.68 133.96 200.85 133.96 200.85 141.13 193.68 141.13 193.68 148.31 193.68 155.48 193.68 162.65 200.85 162.65 200.85 169.83 193.68 169.83 193.68 177 193.68 184.17 200.85 184.17 200.85 177 208.02 177 208.02 169.83 208.02 162.65 208.02 155.48 200.85 155.48 200.85 148.31 208.02 148.31 208.02 141.13 208.02 133.96 208.02 126.79 200.85 126.79 200.85 119.61 208.02 119.61 208.02 112.44 208.02 105.27 200.85 105.27 200.85 112.44"/><rect class="cls-1" x="21.52" y="112.44" width="14.35" height="7.17"/><rect class="cls-1" x="43.04" y="112.44" width="7.17" height="7.17"/><polygon class="cls-1" points="114.77 119.61 114.77 126.79 129.12 126.79 129.12 119.61 129.12 112.44 114.77 112.44 114.77 119.61"/><rect class="cls-1" x="35.87" y="119.61" width="7.17" height="7.17"/><rect class="cls-1" x="43.04" y="126.79" width="7.17" height="7.17"/><polygon class="cls-1" points="35.87 155.48 35.87 148.31 50.21 148.31 50.21 155.48 57.39 155.48 57.39 148.31 57.39 141.13 57.39 133.96 50.21 133.96 50.21 141.13 35.87 141.13 35.87 133.96 35.87 126.79 21.52 126.79 21.52 133.96 21.52 141.13 28.69 141.13 28.69 148.31 21.52 148.31 21.52 141.13 14.35 141.13 14.35 148.31 7.17 148.31 7.17 155.48 14.35 155.48 14.35 162.65 21.52 162.65 21.52 155.48 35.87 155.48"/><rect class="cls-1" x="78.91" y="148.31" width="7.17" height="7.17"/><rect class="cls-1" y="155.48" width="7.17" height="7.17"/><polygon class="cls-1" points="50.21 162.65 50.21 155.48 35.87 155.48 35.87 162.65 21.52 162.65 21.52 169.83 43.04 169.83 43.04 162.65 50.21 162.65"/><rect class="cls-1" x="7.17" y="162.65" width="7.17" height="7.17"/><path class="cls-1" d="M489.39,438.55h7.17v-7.17H510.9v-7.17h-7.17V417h-7.17v7.18H482.21V417h7.18V402.69h14.34V417h14.35v-7.17H510.9V395.51h-7.17v-7.17H489.39v7.17h-7.18v-7.17h7.18V374H475V352.47h-7.17V345.3H475V331h-7.17v-7.17H475v-7.17H446.35v7.17h7.17V331h7.17v7.18h-7.17v7.17h7.17v14.35h7.18V374h-7.18v7.18H475v14.34H460.69v14.35h7.18V417H475v7.18h-7.17v7.17h-7.18v7.17h7.18v7.18H475v-7.18h7.17V452.9h7.18v7.17H467.87v7.18H446.35v-7.18h-7.18v7.18H432v7.17h14.35v7.17H432v7.18h7.17v7.17H417.65v-7.17h-7.17v7.17H396.13v-7.17H389v-7.18h7.17V452.9h14.35v7.17H432V438.55h-7.17V452.9h-7.18V438.55h7.18v-7.17h21.52v14.35h7.17V424.21h7.17V409.86H432V395.51H417.65V381.17h7.18V374h14.34v-7.17H432v-7.17h7.17V345.3h7.18V331h-7.18v-7.17H432V331h-7.17V345.3H432v7.17h-7.17v14.35h-7.18V374h-7.17v7.18h-7.17v7.17h-7.18v7.17H389v7.18h7.17v21.52h7.18V417h7.17V402.69h-7.17v-7.18h7.17v7.18h7.17v7.17h7.18v14.35h-7.18v7.17h-7.17v7.17h-7.17v7.18h-7.18V424.21H389v7.17h-7.17v14.35H367.44v7.17h14.35v43H389v7.17h14.35v7.18h7.17v7.17h-7.17v-7.17H389v-7.18h-7.17v21.52H389v-7.17h7.17v7.17h21.52v-7.17h7.18v7.17h28.69V510.29h-7.17v7.17H432v-7.17H417.65v-7.18h21.52v7.18h7.18v-7.18h7.17V481.59h14.35v14.35h-7.18v21.52h7.18v7.17h35.86v-7.17H482.21V503.11H475v7.18h-7.17v-7.18H475v-7.17h14.35v14.35H510.9v-7.18h-7.17v-7.17h7.17v-7.17h-7.17v-7.18h7.17v-7.17h-7.17V460.07h7.17V445.73H489.39ZM475,402.69h7.17v7.17H475ZM432,417h7.17v7.18H432Zm64.56,57.39v14.35H475V467.25h21.52Z" transform="translate(-324.4 -275.9)"/><rect class="cls-1" x="186.5" y="162.65" width="7.17" height="7.17"/><rect class="cls-1" y="169.83" width="7.17" height="7.17"/><rect class="cls-1" x="7.17" y="177" width="7.17" height="7.17"/><rect class="cls-1" x="21.52" y="177" width="7.17" height="7.17"/><polygon class="cls-1" points="35.87 184.17 28.69 184.17 28.69 191.35 50.21 191.35 50.21 184.17 43.04 184.17 43.04 177 35.87 177 35.87 184.17"/><rect class="cls-1" x="121.95" y="177" width="7.17" height="7.17"/><rect class="cls-1" y="184.17" width="7.17" height="7.17"/><polygon class="cls-1" points="78.91 191.35 78.91 198.52 86.08 198.52 86.08 191.35 86.08 184.17 78.91 184.17 78.91 191.35"/><path class="cls-1" d="M324.4,481.59v43h50.21V474.42H324.4Zm43,0v35.87H331.57V481.59Z" transform="translate(-324.4 -275.9)"/><rect class="cls-1" x="100.43" y="198.52" width="7.17" height="7.17"/><rect class="cls-1" x="157.81" y="198.52" width="7.17" height="7.17"/><polygon class="cls-1" points="193.68 205.69 200.85 205.69 200.85 212.87 208.02 212.87 208.02 205.69 208.02 198.52 208.02 191.35 186.5 191.35 186.5 198.52 193.68 198.52 193.68 205.69"/><rect class="cls-1" x="78.91" y="205.69" width="7.17" height="7.17"/><rect class="cls-1" x="93.25" y="205.69" width="7.17" height="7.17"/><polygon class="cls-1" points="193.68 227.21 200.85 227.21 200.85 234.39 208.02 234.39 208.02 227.21 208.02 220.04 193.68 220.04 193.68 227.21"/><polygon class="cls-1" points="35.87 227.21 35.87 220.04 35.87 212.87 14.35 212.87 14.35 220.04 14.35 227.21 14.35 234.39 35.87 234.39 35.87 227.21"/><polygon class="cls-1" points="193.68 241.56 193.68 248.73 208.02 248.73 208.02 241.56 200.85 241.56 200.85 234.39 193.68 234.39 193.68 241.56"/><rect class="cls-2" x="332.18" y="222.67" width="168" height="26.06" rx="13.03"/><path class="cls-1" d="M672.24,510l-.27.54c-.09.18-.19.36-.29.54v4.6h-.59V512c-.12.18-.25.35-.37.51s-.26.32-.39.46l-.44-.5.49-.58c.17-.22.34-.46.51-.7s.33-.5.47-.75.27-.5.37-.72Zm.12-2.14a11.84,11.84,0,0,1-.81,1.23c-.3.4-.62.8-1,1.21l-.48-.44a6.55,6.55,0,0,0,.48-.54q.25-.3.48-.6c.15-.21.29-.41.42-.61a5.79,5.79,0,0,0,.33-.56ZM675.6,514l-.2.16-.26.22-.24.21-.17.16-.15.14-.16.16-.39-.41a.43.43,0,0,0,.14-.2.58.58,0,0,0,0-.19v-1.47h-1v.67a5.72,5.72,0,0,1,0,.62,2.21,2.21,0,0,1-.14.52,2.39,2.39,0,0,1-.26.5,4.13,4.13,0,0,1-.41.56l-.54-.33a3.73,3.73,0,0,0,.4-.47,2.32,2.32,0,0,0,.24-.43,1.85,1.85,0,0,0,.12-.49,5.46,5.46,0,0,0,0-.62v-1.11h2.16v1.82l.16-.14.2-.16.18-.16.11-.11Zm-3.39-3h2.9v.56h-2.9Zm3-.74h-2.77v-2.07l.54,0v1.47h.55v-2.18h.56v2.17h.57v-1.49l.55,0Zm2.87,5.51c-.25-.29-.49-.59-.71-.9a8.19,8.19,0,0,1-.63-1,8.13,8.13,0,0,1-.67.94c-.26.3-.55.62-.88,1l-.46-.42a9.3,9.3,0,0,0,1-1,5.82,5.82,0,0,0,.71-1.09,8.2,8.2,0,0,1-.39-1.09,10.18,10.18,0,0,1-.27-1.23l-.12.25a2,2,0,0,1-.14.25l-.36-.59a4.39,4.39,0,0,0,.39-.75c.11-.28.21-.56.3-.85s.17-.58.24-.87.11-.56.15-.82l.6.06c-.05.25-.1.51-.16.75s-.13.5-.2.74h1.85v.62h-.44c0,.38-.07.74-.12,1.07s-.1.64-.16.93-.14.57-.23.83-.18.51-.29.75a6.78,6.78,0,0,0,.67,1.06,11.89,11.89,0,0,0,.83.94Zm-1.91-5.81a9.52,9.52,0,0,0,.19,1.39,8.31,8.31,0,0,0,.37,1.22,8.68,8.68,0,0,0,.38-1.31,15.35,15.35,0,0,0,.21-1.55h-1.06a.65.65,0,0,0,0,.13A.61.61,0,0,0,676.17,509.94Z" transform="translate(-324.4 -275.9)"/><path class="cls-1" d="M681.83,507.66c-.08.26-.18.55-.29.88s-.26.68-.43,1.06v6.15h-.67v-4.81c-.22.39-.47.78-.75,1.19l-.56-.44a11.86,11.86,0,0,0,.69-1.05c.22-.36.41-.72.59-1.08a10.63,10.63,0,0,0,.46-1.06,10.29,10.29,0,0,0,.33-1Zm5.69.85v.64h-5.77v-.64h2.52l-.15-.5-.15-.41.68-.12a3.86,3.86,0,0,1,.17.47c.06.21.12.39.18.56ZM682.25,510h4.61v.59h-4.61Zm0,1.33h4.61v.6h-4.61Zm0,1.4h4.58v3h-.71v-.51h-3.2v.51h-.67Zm.67.61v1.3h3.2v-1.3Z" transform="translate(-324.4 -275.9)"/><path class="cls-1" d="M691.92,511.6l-.54.2-.62.25v2.59a2,2,0,0,1,0,.47.64.64,0,0,1-.18.3.74.74,0,0,1-.33.17,3.55,3.55,0,0,1-.55.07l-.43,0L689,515l.51,0a1.14,1.14,0,0,0,.3,0,.32.32,0,0,0,.18-.1.28.28,0,0,0,.09-.16,1.63,1.63,0,0,0,0-.24v-2.13l-.74.26-.64.21-.15-.67.71-.22c.27-.08.54-.18.82-.28v-1.81h-1.26v-.67h1.26v-1.63h.67v1.62h1.14v.67h-1.14v1.57l.58-.23.48-.2Zm4.38-3.39,0,7.44h-.69v-.54h-3.94v-.67h3.94v-2.55h-3.4v-.68h3.4v-2.29H692v-.71Z" transform="translate(-324.4 -275.9)"/><path class="cls-1" d="M706,511.68h-8.13v-.78H706Z" transform="translate(-324.4 -275.9)"/><path class="cls-1" d="M710.46,511.6l-.53.2-.63.25v2.59a1.57,1.57,0,0,1,0,.47.55.55,0,0,1-.17.3.84.84,0,0,1-.34.17,3.25,3.25,0,0,1-.54.07l-.43,0-.22-.69.5,0a1.23,1.23,0,0,0,.31,0,.32.32,0,0,0,.18-.1.27.27,0,0,0,.08-.16,1.44,1.44,0,0,0,0-.24v-2.13l-.74.26-.64.21-.16-.67.72-.22.82-.28v-1.81h-1.27v-.67h1.27v-1.63h.66v1.62h1.14v.67H709.3v1.57l.59-.23.48-.2Zm4.39-3.39,0,7.44h-.7v-.54h-3.94v-.67h3.94v-2.55h-3.4v-.68h3.4v-2.29h-3.59v-.71Z" transform="translate(-324.4 -275.9)"/><path class="cls-1" d="M716.69,516.1a7.09,7.09,0,0,0,.62-1.23,4,4,0,0,0,.18-.63,2.89,2.89,0,0,0,.06-.56h.77a2.39,2.39,0,0,1-.09.63,6.4,6.4,0,0,1-.23.66,6,6,0,0,1-.32.62,4.51,4.51,0,0,1-.34.51Z" transform="translate(-324.4 -275.9)"/><path class="cls-1" d="M726.51,514.22l-.88.19-1,.18c-.32.07-.65.12-1,.18l-1,.16-.12-.65c.68-.1,1.36-.22,2-.34s1.28-.25,1.84-.38l0,.38Zm4-.5c0,.22-.1.43-.16.63a5.5,5.5,0,0,1-.21.66,1.1,1.1,0,0,1-.36.5.93.93,0,0,1-.55.18.91.91,0,0,1-.62-.24,2.73,2.73,0,0,1-.55-.79,4.81,4.81,0,0,1-.22-.46c-.22.21-.46.43-.74.65s-.58.45-.93.69l-.46-.55a13.12,13.12,0,0,0,1.1-.73,5.85,5.85,0,0,0,.81-.74,12.79,12.79,0,0,1-.33-1.66c-.1-.65-.18-1.44-.24-2.36h-4.38v-.63H727l-.09-1.4h.7c0,.13,0,.26,0,.41s0,.27,0,.44a5.17,5.17,0,0,0,0,.54h1.46l-.22-.28-.25-.3-.24-.27-.21-.2.44-.39.26.24.29.3.27.31.22.27-.31.32h1.08v.63h-2.76c.06.72.12,1.36.19,1.91a13.43,13.43,0,0,0,.23,1.43,7.34,7.34,0,0,0,.62-1.22c.18-.44.36-.95.55-1.53l.66.2q-.18.56-.36,1c-.12.31-.24.61-.37.88a8,8,0,0,1-.41.77,5.41,5.41,0,0,1-.49.69c0,.14.1.28.15.4s.11.24.16.34a1.62,1.62,0,0,0,.31.42.4.4,0,0,0,.26.13.27.27,0,0,0,.26-.13,1.82,1.82,0,0,0,.18-.37,4.84,4.84,0,0,0,.14-.51l.09-.53Zm-4.26-3.36v2.73h-2.88v-2.73Zm-.61.65H724v1.43h1.65Z" transform="translate(-324.4 -275.9)"/><path class="cls-1" d="M734.31,511.64l-.35.18-.43.21v2.71a1.69,1.69,0,0,1,0,.43.59.59,0,0,1-.15.27.71.71,0,0,1-.3.15,2,2,0,0,1-.48.07l-.37,0L732,515l.41,0a.7.7,0,0,0,.41-.13.52.52,0,0,0,.09-.36V512.3c-.23.11-.46.2-.67.29l-.55.21-.08-.69c.16-.05.35-.13.58-.22l.72-.3V509.8h-1v-.63h1V507.5l.63,0v1.65h.82v.63h-.82v1.5l.39-.19.31-.16,0,.39Zm5.41,4c-.55-.12-1.05-.25-1.51-.38a10.46,10.46,0,0,1-1.29-.5,7.65,7.65,0,0,1-1.24.48c-.46.15-1,.29-1.62.44l-.3-.64c.54-.1,1-.2,1.42-.31a7.78,7.78,0,0,0,1.09-.35,5.56,5.56,0,0,1-.67-.53,4.92,4.92,0,0,1-.62-.66l.33-.23h-.75v-.57h2v-.75h-2v-3.28c.22-.05.46-.12.73-.2s.54-.18.81-.28l.23.58-.63.23-.55.16v.79h1.06v.56h-1.06v.84h1.36v-3.57l.64,0v3.55h1.44v-.84h-1.12v-.56h1.12v-.84H737.5v-.58h1.76v3.42h-2v.75h1.83V513a10.47,10.47,0,0,1-.7.83,4.86,4.86,0,0,1-.79.63,9.57,9.57,0,0,0,1.06.33c.39.09.84.19,1.35.28ZM735.54,513a5.56,5.56,0,0,0,.65.64,3.75,3.75,0,0,0,.69.49,4.06,4.06,0,0,0,.71-.49,7.79,7.79,0,0,0,.65-.64Z" transform="translate(-324.4 -275.9)"/><path class="cls-1" d="M744,514.21l-.58.37c-.21.13-.43.25-.65.36l-.66.34-.63.3-.3-.59.63-.29.68-.34.65-.36c.2-.13.38-.24.53-.35Zm4.12-1h-1l-.65,0-.71,0v1.27a1.65,1.65,0,0,1-.06.48.69.69,0,0,1-.19.32,1,1,0,0,1-.37.19,2.89,2.89,0,0,1-.57.08l-.46,0-.21-.66.55,0,.33,0a.75.75,0,0,0,.2-.1.51.51,0,0,0,.09-.18,1.84,1.84,0,0,0,0-.26v-1.1l-.68,0-.61,0-.52,0-.38,0-.46,0-.49,0-.1-.58.43-.05a3,3,0,0,0,.4-.07,9.13,9.13,0,0,0,1.17-.42c.4-.17.79-.35,1.18-.56l-2,.06h-.56l-.16,0-.08-.45.39,0a1,1,0,0,0,.28-.07,10.19,10.19,0,0,0,.92-.51,11.5,11.5,0,0,0,1-.65h-2.4v1h-.68v-1.63H745v-.82h-3.1v-.6H745v-.78l.67,0v.75h3.11v.6h-3.11v.82h3.29v1.65h-.68v-1h-3.2l.23.28a7.77,7.77,0,0,1-.64.46l-.65.41h1.88l.63-.4q.32-.19.57-.39l.37.5c-.54.37-1.07.7-1.61,1a12.67,12.67,0,0,1-1.63.76h.69l.86,0,.9,0,.81,0-.37-.29-.32-.23.4-.44.43.31.5.4.49.43c.16.14.28.27.38.37l-.37.54A6,6,0,0,0,748.09,513.26Zm-1.4.39c.17.06.38.14.63.25l.78.34.77.36.6.3-.31.65c-.15-.1-.35-.22-.59-.35l-.76-.38-.78-.34c-.25-.11-.46-.2-.64-.26Z" transform="translate(-324.4 -275.9)"/><path class="cls-1" d="M753.88,507.9c-.16.37-.34.74-.53,1.12a11.42,11.42,0,0,1-.67,1.09,8.88,8.88,0,0,1-.83,1.05,9.34,9.34,0,0,1-1.06,1l-.53-.55a7.87,7.87,0,0,0,1-.88,9.47,9.47,0,0,0,.83-1,8.83,8.83,0,0,0,.65-1,7.19,7.19,0,0,0,.46-1Zm1.84,4.31c.16.23.33.48.49.75s.33.53.48.8.31.55.46.83.28.55.4.82l-.69.4c-.11-.3-.25-.61-.4-.92-.36,0-.74,0-1.16.08l-1.2.1-1.05.09-.67.08-.46.07-.45.1-.21-.7a.84.84,0,0,0,.24-.06.59.59,0,0,0,.16-.07.36.36,0,0,0,.12-.08l.1-.11a7.23,7.23,0,0,0,.6-.8c.2-.31.4-.64.59-1s.37-.71.54-1.07.32-.71.45-1l.68.29c-.13.32-.28.65-.44,1s-.34.68-.52,1-.37.65-.56,1a9.85,9.85,0,0,1-.58.8l.36,0,.55,0,.67-.05.7,0,.67-.06.55,0c-.16-.31-.33-.6-.5-.88l-.51-.81Zm-.05-4.61c.17.44.35.84.54,1.22a6.44,6.44,0,0,0,.64,1,6.29,6.29,0,0,0,.81.91,8.15,8.15,0,0,0,1,.81l-.56.63a8.37,8.37,0,0,1-1-.91,9.1,9.1,0,0,1-.84-1,10.14,10.14,0,0,1-.67-1.15c-.2-.4-.38-.82-.56-1.26Z" transform="translate(-324.4 -275.9)"/><path class="cls-1" d="M763.71,508.3a7.94,7.94,0,0,1-1.5,1.58,13.14,13.14,0,0,1-2.17,1.41l-.44-.63a12.92,12.92,0,0,0,2.26-1.42,6.82,6.82,0,0,0,1.52-1.68H764a6.76,6.76,0,0,0,1.55,1.71,12.79,12.79,0,0,0,2.2,1.39l-.42.64a12.73,12.73,0,0,1-2.12-1.37A8.45,8.45,0,0,1,763.71,508.3Zm-.42,5.48a3.72,3.72,0,0,0-.22-.3l-.28-.36c-.09-.12-.2-.24-.31-.37l-.32-.35a6.14,6.14,0,0,1-.27.86,6.81,6.81,0,0,1-.39.82,9.5,9.5,0,0,1-.54.81c-.21.27-.44.54-.7.83l-.64-.46a10.38,10.38,0,0,0,.87-1,6.62,6.62,0,0,0,.61-.95,5.09,5.09,0,0,0,.37-1,6.68,6.68,0,0,0,.18-1.17l.06-.81.68,0a1.18,1.18,0,0,1,0,.16,1.93,1.93,0,0,1,0,.24c0,.09,0,.17,0,.25a.51.51,0,0,1,0,.16c0,.07,0,.13,0,.2a1.37,1.37,0,0,1,0,.19c.11.11.24.23.38.38l.41.45.39.44.3.37Zm2-2.35a5.3,5.3,0,0,0,.79,2.06,6.89,6.89,0,0,0,1.65,1.68l-.48.57a7.74,7.74,0,0,1-1.35-1.33,5.37,5.37,0,0,1-.88-1.61,5.42,5.42,0,0,1-.82,1.56,10.83,10.83,0,0,1-1.38,1.48l-.54-.53a12.1,12.1,0,0,0,1-1,6.48,6.48,0,0,0,.7-1,4.77,4.77,0,0,0,.42-1,5.63,5.63,0,0,0,.19-1.15c0-.06,0-.14,0-.22a2.26,2.26,0,0,1,0-.26,1.77,1.77,0,0,0,0-.23,1,1,0,0,0,0-.16l.71,0-.06.85a.28.28,0,0,0,0,.09A.28.28,0,0,1,765.33,511.43Z" transform="translate(-324.4 -275.9)"/><path class="cls-1" d="M771.39,511.71l-.18.95h4.41c0,.07,0,.18,0,.34s0,.32,0,.5,0,.34,0,.49,0,.27,0,.33a2.39,2.39,0,0,1-.13.65.84.84,0,0,1-.32.4,1.61,1.61,0,0,1-.6.21c-.26,0-.6.07-1,.1l-.8.05-.22-.7,1,0a5,5,0,0,0,.68-.06.9.9,0,0,0,.39-.12.52.52,0,0,0,.2-.24,1.92,1.92,0,0,0,.07-.41,1.76,1.76,0,0,1,0-.19l0-.25,0-.24a1.56,1.56,0,0,0,0-.2h-4.52l.31-1.57h-1.69v-.61H777v.61Zm4.34-1.43h-5.54v-2.36h5.54ZM775,508.5h-4.16v1.19H775Z" transform="translate(-324.4 -275.9)"/><path class="cls-1" d="M779.47,511a.76.76,0,0,1-.46-.1c-.09-.07-.13-.23-.13-.48s0-.41.13-.48a.76.76,0,0,1,.46-.1.75.75,0,0,1,.45.1.89.89,0,0,1,0,1A.75.75,0,0,1,779.47,511Zm0,3.92a.85.85,0,0,1-.46-.1c-.09-.07-.13-.23-.13-.49s0-.4.13-.47a.76.76,0,0,1,.46-.1.75.75,0,0,1,.45.1c.09.07.14.22.14.47s0,.42-.14.49A.83.83,0,0,1,779.47,514.91Z" transform="translate(-324.4 -275.9)"/><path class="cls-1" d="M792.17,514.2v1.16h-7.85V514.2h3.34v-2.09h-2.58V511h2.58v-1.82h-2.81V508h6.82v1.15h-2.79V511h2.56v1.15h-2.56v2.09Z" transform="translate(-324.4 -275.9)"/><path class="cls-1" d="M796.1,509.66c-.12.43-.25.83-.37,1.21s-.25.75-.39,1.13-.29.74-.45,1.12-.36.78-.57,1.19l-1.17-.51c.2-.37.38-.74.55-1.1s.32-.72.46-1.09.27-.72.39-1.1.22-.75.33-1.15Zm2,4.51a4.61,4.61,0,0,1,0,.71,1,1,0,0,1-.18.46.81.81,0,0,1-.41.26,3.57,3.57,0,0,1-.74.13l-.84.09-.37-1.25.72-.08a1.94,1.94,0,0,0,.33,0,.35.35,0,0,0,.18-.13.48.48,0,0,0,.08-.24c0-.1,0-.24,0-.4v-6l1.25,0Zm.43-4.55,1.15-.43.54,1.13c.17.36.34.73.5,1.1s.33.76.49,1.17.32.84.47,1.31l-1.2.54c-.18-.52-.34-1-.49-1.41s-.3-.82-.45-1.2l-.48-1.09C798.92,510.38,798.75,510,798.56,509.62Z" transform="translate(-324.4 -275.9)"/><path class="cls-1" d="M810.26,507.81v7.8h-7.32v-7.8Zm-1.11,1.09h-5.09v3.82a10,10,0,0,0,1-.85,6,6,0,0,0,.75-.94h-1.43v-1.07h1.72v-.76l1.08,0v.71h1.71v1.07h-1.71v.58l.3-.36.41.35.47.41.45.43a4,4,0,0,1,.36.36l-.65.91-.29-.31-.35-.35-.36-.35c-.12-.12-.23-.23-.34-.32v1.87h-1.08v-1.91a9,9,0,0,1-.67.83,7.25,7.25,0,0,1-.76.72l-.57-.78v1.5h5.09Z" transform="translate(-324.4 -275.9)"/></svg>