<svg height="804" viewBox="0 0 2500 804" width="2500" xmlns="http://www.w3.org/2000/svg"><path d="m974.295284 423.483165c-87.196329 18.820973-119.631514-82.136079-110.051977-129.436453 0 0 10.32336-102.151677 81.042884-108.451631 56.169899-4.913739 97.564769 56.58689 101.869929 91.805776 2.5583 22.821839 14.482 127.317685-72.860836 146.082308zm162.198466-175.170291c-48.23578 0-87.30902-55.561315-87.30902-124.195882 0-68.6458366 39.07324-124.116992 87.30902-124.116992 48.21325 0 87.18506 55.4711554 87.18506 124.105722 0 68.645837-38.97181 124.207152-87.18506 124.207152zm207.86469 8.170782c-64.46465-8.260942-79.05936-66.572148-72.77067-125.074946 5.15041-47.8187953 62.31207-121.11916 108.10226-110.5929392 45.5986 10.4022505 87.28649 71.0012758 78.83395 123.1026882-8.27221 52.169033-49.63327 121.01773-114.16554 112.565197zm255.59332 87.647131c0 25.132197 10.48114 131.39744-85.15645 133.516208-95.72775 2.073688-99.71734-64.678781-99.71734-112.553927 0-50.151695 10.19939-121.13043 87.27522-121.13043 76.94058 0 97.59857 75.216272 97.59857 100.168149zm-97.59857 219.0333s74.76547 58.491528 26.95794 171.090535c-47.71737 112.700438-222.3805 54.13002-222.3805 54.13002s-64.41957-20.759421-139.29774-4.091026c-74.7204 16.713475-139.15124 10.413521-139.15124 10.413521s-87.421725 2.096228-112.351062-108.440362c-24.872986-110.604209 87.230142-171.180694 95.626322-181.458974 8.31729-10.503681 66.44818-50.061535 103.84218-112.700438 37.50671-62.481123 149.69999-112.599007 228.75935 10.447331 58.23232 83.454674 157.99475 160.609393 157.99475 160.609393zm-350.36313-107.572567v74.247048h-60.49759s-60.46379 5.015169-81.62893 73.537036c-7.38188 45.756377 6.51409 72.703052 8.93715 78.473314 2.4456 5.747723 21.98785 39.208483 71.05762 49.024691h113.52315v-274.481916zm-.91287 230.235724h-45.73384s-31.86041-1.656697-41.56392-38.329419c-5.0039-16.262673.74382-35.038566 3.26831-42.420445 2.31036-7.393149 13.00563-24.478535 35.06111-31.04897h48.95707zm80.13001-149.32808v144.515771s2.36671 35.98525 53.08191 49.081041h130.64235v-193.596812h-56.38403v145.349754h-53.81446s-17.19809-2.490679-20.42132-16.330293v-129.875985zm806.18004-94.882499h-144.49323l-12.91547 37.856077h146.9501v268.959595s3.23451 36.807963-33.21282 36.807963h-348.55991v-305.767558h146.7247l16.17251-36.965743h-172.5331l.51842-61.82746h401.3488zm-77.94362 278.313731h.01127v-61.151257h-241.51704v71.316837h231.30638c5.97312 0 10.19939-10.16558 10.19939-10.16558zm-.39445-120.037236v-66.86517h-241.13386v66.86517zm536.93869-217.590735v50.579956h-346.97083v351.726796h-64.98308v-403.828208h180.625v-29.324654h73.86386v30.84611zm-42.46552 83.567374h-.01127v-.02254h46.47766v45.745108h-46.48893v53.769379s-4.03468 32.153435-34.52014 32.153435h-219.6757v-85.911544h-39.8396l-.80018-45.733838h40.63978v-22.540087h60.13696v22.540087h130.59726v-23.3628h63.48416zm-63.48416 76.974399v-32.130894h-131.29601v42.544415h118.39181c7.24664 0 12.9042-10.413521 12.9042-10.413521zm-222.50447 117.309886v-.01127h.03381v-45.823998h326.01983v36.977014l-118.89897 68.273925s19.03511 12.081487 40.23406 15.248369h78.65364v44.967475h-104.33807s-40.22279-8.001731-61.15126-27.217156c0 0-50.54614 25.6957-77.86473 31.285641h-91.5353v-45.080175h67.41741s34.54268-11.168613 42.54441-19.981787zm210.41172-.755093h-110.85215l53.01428 30.485469zm-1634.922714-212.812236v-77.16599h87.60205v77.16599zm0 336.388266v-302.758456h87.60205v302.758456zm-142.442083-302.487975c88.853025 12.329428 100.100528 86.734257 100.100528 86.734257v216.869452h-236.141227c-50.861707-9.635887-67.947094-48.100546-70.054592-53.994779-2.197658-5.973124-6.491545-21.987856-3.268313-54.614632 18.730813-69.682681 77.05329-75.058492 77.05329-75.058492h148.302506v-22.404847c0-24.760286-39.005622-34.384904-39.005622-34.384904h-163.888976v-63.630667zm15.992192 243.669617v-64.757672h-116.690033s-16.003463 4.305157-25.66189 23.002159c-4.327697 9.703508-.608582 19.283045.495882 21.920236 1.127004 2.68227 6.469005 13.366271 22.506277 19.835277zm-244.6163-47.390534s10.176849 110.412618-131.20585 110.964851h-240.750675v-420.902325h213.217958s137.990416-5.263111 144.0537 107.673998c0 0 7.111397 73.784977-48.86691 103.07582 0 0 66.132617 25.470299 63.551777 99.187656zm-136.040699 32.739477c25.61681-4.012136 34.711735-19.880357 34.711735-19.880357 12.363238-17.141737 6.638056-40.211517 6.638056-40.211517-9.895099-24.568695-37.202415-29.561324-37.202415-29.561324l-4.857388-.969224h-143.5127379v90.802742h144.2227499zm30.575629-195.152078c10.131769-17.446028 4.136106-42.893787 4.136106-42.893787-9.985259-23.971383-40.143896-22.562627-40.143896-22.562627h-138.7905889v87.106168h139.3879019c25.718239-3.831815 35.410477-21.649754 35.410477-21.649754z" fill="#fff"/></svg>