<svg height="200" viewBox="0 0 200 200" width="200" xmlns="http://www.w3.org/2000/svg" xmlns:xlink="http://www.w3.org/1999/xlink"><linearGradient id="a" x1="-3.631445%" x2="140.785933%" y1="102.419323%" y2="-47.103201%"><stop offset="0" stop-color="#3aa5f5"/><stop offset="1" stop-color="#bbf3ff"/></linearGradient><g fill="none" fill-rule="evenodd" transform="translate(45 29)"><path d="m8.4 114.8c4.8 0 7.2-3.2 7.6-6.2h-3.2c-.6 1.8-2.2 3.2-4.4 3.2-3 0-4.8-2.4-4.8-5.4v-1.6c0-3 2-5.4 4.8-5.4 2.2 0 3.8 1.2 4.2 3h3.4c-.4-3-3-6-7.6-6-5 0-8.4 3.6-8.4 8.6v1c0 5.2 3.4 8.8 8.4 8.8zm15.2-3.2v-14.6h-3.4v17.6h11.8v-3zm24.2 2.8h3.4l-7.2-17.6h-2.8l-7.2 17.6h3.4l1.6-4h7zm-7.6-7 2.4-5.8 2.4 5.8zm24 7h3.8l-3.6-7c1.8-.8 3.2-2.8 3.2-5.2 0-3.6-2.2-5.6-5.2-5.6h-8.4v17.6h3.4v-6.4h3.6zm-6.8-14.6h4c1.4 0 2.6 1 2.6 2.8 0 1.6-1.4 2.8-3 2.8h-3.8v-5.6zm13.8 14.6h3.4v-17.6h-3.4zm20.6-17.6h-14.4v3h5.4v14.6h3.4v-14.6h5.4v-3zm13.8 0-4.2 7.6-4.2-7.6h-3.8l6.4 11v6.8h3.4v-6.8l6.4-11zm-92.2 26h-7.4v17.6h7c4.4 0 7.8-3.4 7.8-9 .2-5.4-3-8.6-7.4-8.6zm-1.2 14.8h-2.8v-11.8h3.2c3.2 0 4.8 2.2 5 5.8 0 3.6-1.8 6-5.4 6zm16.4 0v-4.6h7.8v-3h-7.8v-4.2h8.6v-3h-12v17.6h12.2v-3h-8.8zm19.8 3.2c4.2 0 7-2.2 7-5.6s-2-4.2-6.8-5c-1.6-.2-3.6-.6-3.6-2 0-1.6 1.2-2.6 3.4-2.6 2 0 3.4 1.2 3.4 3h3.4c0-3.8-2.4-6-6.6-6s-6.8 2.2-6.8 5.8c0 2.8 2 4 5.6 4.6 1.8.4 4.8.6 4.8 2.4 0 1.6-1.4 2.6-3.6 2.6-2.4 0-4-1.2-4-3h-3.4c0 3.6 2.6 5.8 7.2 5.8zm11.6-.4h3.4v-17.6h-3.4zm15.8.4c5 0 7.6-3.6 7.6-7v-3h-7.6v3h4.2c0 2.8-2 4-4.2 4-3 0-4.8-2.4-4.8-5.4v-1.6c0-3.2 2-5.4 4.8-5.4 2.2 0 3.6 1.2 4 3h3.4c-.2-3-2.8-6-7.4-6-5 0-8.4 3.4-8.4 8.6v1c.2 5.2 3.4 8.8 8.4 8.8zm23-18v12l-7.6-12h-3.4v17.6h3.4v-11.8l7.6 11.8h3.4v-17.6z" fill="#000" fill-rule="nonzero"/><path d="m56 71h-15.4c-2.2 0-4-1.8-4-4s1.8-4 4-4h15.4c15.2 0 27.4-12.2 27.4-27.2s-12.4-27.2-27.4-27.2h-14.2c-10.8 0-19.6 8.6-19.6 19.4 0 10.6 8.8 19.4 19.6 19.4h14.2c6.4 0 11.6-5.2 11.6-11.6s-5.2-11.6-11.6-11.6h-12v11.6c0 2.2-1.8 4-4 4s-4-1.8-4-4v-15.6c0-2.2 1.8-4 4-4h16c11 0 19.8 8.8 19.8 19.6s-9 19.6-19.8 19.6h-14.2c-15.4 0-27.8-12.4-27.8-27.4 0-15.2 12.4-27.4 27.8-27.4h14.2c19.6 0 35.6 15.8 35.6 35.2s-16 35.2-35.6 35.2" fill="url(#a)" fill-rule="nonzero"/><path d="m40.2 41.8v-21.8h17s13.8 1.6 13.8 15.8-13.8 16-13.8 16-15 0-19.8 0c-7.4 0-20-10.6-20-22.4 0-20.4 16.2-24 26.8-24h16.4c12.2 0 27 10.6 27 30.4 0 23.6-22.2 31-26.8 31s-26.6 0-26.6 0"/><path d="m100.2 120.4v19l-10.6-17v18l-3.8-11.6-3.4 1s-1.6-5.8-6.8-5.8c-4.2 0-6.4 3-6.4 7.6s2.8 7.8 5.6 7.8 7.2.4 7.2-6.6h-9l-11.2-12.4v20l-8.2-12s.2-4.4-5-4.4-4.6 2.8-4.6 4.4c0 1.2 1.8 2.6 4.6 3.2s6 2 5.6 4.8-5.6 2.8-5.6 2.8-5.6 0-5.6-4.4c0-4.2-5.4-10.8-5.4-10.8l-10.6-.2.4 7.6h9.2l-9.2-.6-.6 7.8 11.6.2-20.6-18-10-.2v3.6s11.8-3.4 11.8 7.8c0 9.2-11.8 6.8-11.8 6.8l.2-20"/><path d="m94.4 95.6 6.4 10.8 1.2-10h5.2l-6.2 10.8.2 7.4-9.6-16.6-14.2-.2 7.2-1.2v18.8l-11.6-21v20.2l-6.8-.4-4.4-7.8s3.8-.2 3.8-4c0-4.6-3.8-4.4-3.8-4.4h-6.2v16.2l-2.8-8.2h15.4v-15.4l-25.4 5.6-5.2 12.4 9.8.2 2 5.4h-13.4l3.6-7h7.6l-6-12.8-19.4 1v17h10.2l-.6 5.4-13.8-3.2v-12.2h-3.4s-1.4-4.8-6-4.8c-4.6 0-6.6 4.4-6.6 7.6s1.8 7.6 6.6 7.6 6-2.8 6-4.4"/></g></svg>