<svg viewBox="0 0 162 162" xmlns="http://www.w3.org/2000/svg"><path d="m1 .998h160v160.002h-160z" fill="#4ee700"/><path d="m55.585 72.016c1.703-3.978 8.37-4.038 9.553.878.116.475-.21.58-.678.42-2.72-.945-5.413-.995-8.222-.676-.562.062-.88-.088-.653-.622zm-.37 3.612c-.185-.534.196-.684.655-.522 3.087 1.1 5.56 1.4 8.28.356.526-.206.932.025.704.556-1.743 4.07-8.147 3.948-9.64-.39zm77.416 16.39c.88-3.168 1.74-6.687 2.82-9.456 1.05-2.713 3.15-4.538 3.15-7.207 0-1.337-1.1-1.988-2.17-3.12-1.06-1.143-1.55-2.036-2.7-2.143-2.18-.18-4.06 2.706-5.6 3.238-.38.13-.63-.156-.76-.444-.16-.35.67-2.706.59-3.388-.08-.675-.32-1.844-.85-2.444s-1.62-1.244-1.76-1.713c-.13-.46-.17-1.14-.37-1.88s-1.03-1.74-2.86-2.03c-1.82-.29-5.87.64-8.58-.14-2.71-.77-9.39-4.08-10.54-4.6-1.14-.52-2.46-1.21-3.38-1.42s-2.9-.72-4.36-.82c-2.35-.16-6.32.52-9.49.74-1.42.08-2.86-.22-4.21-.08-1.73.16-4.05.62-5.05.84-8.45 1.86-12.44 1.98-16.32.4-2.26-.92-3.44-.9-3.99-1.3-.44-.32-1.12-1.01-2.81-2.14-1.68-1.13-3.38-1.46-4.15-1.37-.78.09-1.12.33-1.62.45-.51.12-1.06.08-1.95.28-.89.19-2.55 1.03-3.38 2.8-.832 1.77-.51 3.56-.19 4.79.08.31.03.55-.34.92-.302.32-4.19 3.93-4.962 4.99-.777 1.05-1.16 2.4-1.36 2.86-.164.4-.53.54-.92.46-1.8-.45-3.87-1.33-4.7-.41s-.1 2.48.84 3.25c.946.77 1.7.31 2.96.25 1.25-.05 2.497 1.28 2.64 2.64 0 .24 0 .24-.143.38-1.88 1.28-4.966 2.3-7.116 2.73-2.44.49-3.75.32-4.97 1.34-1.17.98-.42 3.33 1.22 3.57 1.752.25 3.23-1.62 4.88-2.333 2.78-1.2 6.2-2.31 8.622-2.5.23-.02.48.23 1.07.65.58.427 2.59 1.94 5.4 3.427.24.12.43.3.37.52-.38 1.46-.39 2.77-.6 3.53s-.58 1.07-.77 1.98c-.192.913.22 2.013 1.42 2.33 1.2.314 2.326-.274 2.46-1.424.135-1.14-.465-1.64-.17-2.89.3-1.25.49-2.025 1.036-2.27s1.51.02 2.77.94c1.8 1.3 4.31 2.91 7.59 3.71 3.28.804 5.685.813 6.757 1.09 1.48.374 2.51 1.393 5.02 2.393 2.5 1 4.97 1.23 5.75 1.61 2.95 1.42 4.3 1.85 7.74 2.78 1.21.322-.07 2.94-.77 3.31-.87.46-2.09-.06-3.24.42s-1.13 2.87-1.5 3.8c-.3.75-2.028.75-2.55.75-1.37 0-2.84-.18-4.08-.675-1.09-.44-1.86-.89-3.237-1.58-1.964-.99-3.754-.577-4.37.69-.51 1.045.15 1.99 1.144 2.47 1.02.5 3.95.37 5.2 1.04.72.38 1.42 1.755.74 2.81-1.507 2.25-4.64 2.66-6.486 3.18-.71.207-2.863.54-3.51.96-1.76 1.16-.745 3.23.72 3.51 1.1.22 2.054-.29 2.707-.75 2.655-1.87 5.02-2.65 7.03-3.14 2.01-.492 4.355-.04 5.78 1.127 1.56 1.28 3.98 4.45 4.65 5.43.62.91 1.11 2.06 1.52 2.83 1.36 2.54 3.28 2.03 3.93 1.01.586-.92.304-1.86-.23-2.4-.54-.54-2.216-1.38-3.18-2.88-.96-1.49-1.73-4.87-.96-5.94s4.645-4.17 6.564-7.13c1.92-2.95 3.92-7.65 3.97-7.78.14-.31.36-.65.75-.68 4.77-.39 8.75-.66 12.82-2.61.5-.236.89-.13 1 .86.13 1.09.45 2.784.95 4.02.14.33-.05.45-.47.45-.94 0-2.07.08-2.4 1.15-.25.832.27 1.64.92 1.9.95.397 1.94-.02 2.39-.12 1.13-.24 1.93.16 2.25.39.658.47.93.765.61 1.5-.63 1.5-3.13 2.427-4.54 2.86-1.27.385-2.87.503-3.76 1.22-1.175.92-.69 2.95 1.075 3.15 1.87.2 2.86-1.28 4.59-2.25 2.086-1.18 5.545 1.37 4.82 3.23-.266.684-1.34 2.31-2.01 3.02-.67.7-2.1 1.26-2.687 1.84-.587.59-.887 1.7-.38 2.57.813 1.393 2.773 1.343 3.61.37.77-.895.663-1.55 1.39-3.1.723-1.54 3.53-4.8 6.473-4.926 2.946-.12 5.827 1.86 7.12 4.55.57 1.17 1.58 2.12 3.07 1.53 1.48-.58 1.644-2.29.887-3.3-.75-1-2.12-1.13-3.5-2.19-1.39-1.05-5.61-4.49-3.67-7.37 5.71-8.47 6.09-10.37 6.94-13.4zm-100.581-20.65c-.6.09-1.387-.667-1.43-1.226-.044-.562.538-.512 1.266-.34.728.18 1.203.33 1.228.8.024.462-.463.67-1.063.766zm-5.006 10.127c-.888.462-1.79.344-2.04-.466s.28-1.28 1.008-1.55 1.597-.42 1.956.27c.357.68-.036 1.27-.924 1.74zm43.454 23.857c-.622 0-2.38-.405-2.922-.687-.54-.28-.866-.644-.738-1.275.128-.63.78-.806 1.416-.675.912.2 2.578 1.237 2.87 1.788.287.55-.123.85-.626.85zm-7.33 10.445c-.676-.2-.9-.963-.335-1.45.566-.494 2.003-.98 2.366-.162.35.818-1.36 1.805-2.04 1.612zm21.743 4.837c.66-.5 1.82.388 2.1 1.213s-.33 1.344-1.13 1.075c-.68-.238-1.61-1.788-.96-2.288zm23-10.75c-.76.55-1.81.656-2.08-.175-.28-.82.56-1.39 1.62-1.3s1.23.92.47 1.47zm5.53 9.163c-.34.6-1.41.72-1.81.188-.5-.663.15-1.77 1.07-1.706.93.05 1.09.93.75 1.51zm16.8-3.907c.69-.38 1.61.08 1.66.894.06.894-1 1.337-1.66.925-.66-.4-.69-1.45 0-1.82zm-10.55-52.065c.68-.15 2.85-.307 3.85.837.23.262.26 1.103-.98.856-1.41-.28-2.66-.637-3.39-1.08-.35-.21-.15-.46.53-.613zm-1.32 2.637c.64.05 3.83 1.12 4.65 1.82.4.343 1.13 1.696.15 2.368-.98.668-1.94.77-3.03.375-1.09-.397-2.23-3.582-2.39-4.02-.15-.436-.01-.593.63-.543zm-39.2-5.85c1.37-.775 3.74-1.522 5.98-1.67 2.24-.15 4 .05 5.99-.18 2.36-.284 2.55.412 1.91.83-.61.407-1.84.876-3.6 1.232-1.69.344-6.64.687-7.9.756-1.15.06-2.16.163-2.64-.316-.11-.114-.27-.34.28-.652zm-12.471.338c.282-.13.667-.106 1.114-.087 1.62.05 2.512-1.406 3.538-1.55 1.022-.156 1.853-.056 2.575-.113.725-.056 1.066-.13 1.357-.11.29.016.43.413.175.635-.93.812-2.53.938-3.51 1.466-.98.54-1.98 1.06-2.93 1.06-1.01 0-2.24-.18-2.65-.36-.45-.2-.3-.64.32-.93zm-18.437 6.637c.678.012 1.044-.156 1.675-.647 1.425-1.11 2.816-2.316 4.88-2.047.398.05.436.456.057.67-1.144.643-2.563 1.68-2.87 2.643-.168.53-.174 1.112-.036 1.825.2 1.05-.75 1.37-1.45.95-.7-.41-2.33-2.01-3.5-1.65-.81.25-1.05.74-2.18.62-2.5-.29-2.1-2.24-.89-2.59s2.78.21 4.3.24zm-2.463-12.962c.538-.297.91.103.504.775-.984 1.613-1.02 2.68-1.097 3.97-.078 1.28-1.63 1.436-1.794.243-.237-1.77.553-3.982 2.388-4.988zm-4.365 10.003c.66-.197.944-.278 1.3-.765.31-.425.675-.934 1.22-.694.552.25.796 1.43-.5 2.61-1.61 1.46-3.286 1.65-3.645.62-.36-1.04.738-1.52 1.625-1.78zm5.215 25.402c-.57.282-1.505.063-1.674-.674-.166-.738.234-1.538.934-1.64.7-.104 1.194.346 1.334.908.138.564-.02 1.133-.593 1.407zm7.114-6.005c-.42-.06-4.04-.647-5.813-1.363-2.26-.82-4.85-2.27-6.14-3.42-.28-.255-.07-.6.27-.46 2.78 1.155 9.73 3.874 11.89 4.787.29.12.16.49-.19.45zm8.418 3.307c-2.425-.153-4.353-.778-4.7-.963-.344-.18-.2-.62.163-.62 2.02.03 4.78-.07 5.653-.23.94-.18 1.112-.83.55-.83-1.41.03-2.862-.04-4.963-.61-2.353-.63-6.553-2.41-11.116-4.24-8.51-3.43-9.98-4.65-10.98-6.96-.57-1.3-.58-3.57.69-4.61.29-.24.56-.1.53.2-.24 1.8-.3 2.94 1.3 3.89 1.7 1 7.72 1.83 10.5 5 .9.97 2.33 3.55 5.71 3.68.16 0 .25-.22.04-.31-3.85-1.67-4.44-7.55-1.17-10.95 3.16-3.29 10.97-4 13.57 2.45.36.89.74 1.23 1.86 1.78 1 .49 2.21 1.01 2.87 1.29.53.22.98.17 1.48-.1.49-.28 1.21-.58 2.17-.9 1.24-.4 2.3-.1 2.94.95 2.35 3.82 4.13 4.73 5.59 7 .17.27.09.57-.27.6-1.64.17-2.67.06-3.32-.47-.86-.71-2.05-1.84-4.84-3.44-2.8-1.61-6.62-2.94-7.19-3.15-.49-.19-.8-.09-.9.3-.77 2.73-2.92 4.69-5.51 5.25-.43.09-.45.57-.03.73.81.32 2.87.54 4.05.62 1.18.07 2.16.03 2.68-.55.51-.58.8-1 1.53-1.11.99-.16 2.43.66 3.38 1.46.33.27.22.72-.25.74-1.33.05-1.97.15-2.58.95-1.92 2.52-6.45 3.26-9.49 3.07zm19.607 6.662c.78-.588 3.28-.58 4.05-.3s.28 1.825-.36 2.08c-.64.245-5.08-.736-3.71-1.78zm-1 8.35c.23-.588.74-.756 1.24-.713.68.06 1.32.49.86 1.33-.62 1.15-1.13 1.86-1.54 1.86-.37 0-.76-.2-.84-.68-.11-.58.14-1.46.27-1.79zm25.81-11.412c-.89 1.225-2.42 2.706-4.18 3.556-2.28 1.094-4.64 1.18-5.98 1.2-.83.025-.65-.33-.08-1.65 2.01-4.613 1.13-6.738-.23-8.272-.86-.953-.74-1.672 2.99-.634 2.22.612 3.26 1.656 6.03 3.16 2.31 1.252 2.21 1.546 1.43 2.64zm-9.42-15.494c-1.56-.23-2.98-1.72-3.55-2.713-.57-1-1.28-2.62-1.82-3.32-.54-.693-1.82-2.605-4.53-2.043-.89.18-1.58.375-3.75.006-2.18-.356-8.4-1.375-9.49-1.49-1.09-.114-3.21.046-4.68-.09-.57-.05-.68-.562-.1-.82 1.01-.445 3.71-1.126 7.17-1.057 1.64.04 4.85.3 7.6.3 3.45 0 9.51-1.23 11.32-1.41 2.23-.22 5.71.98 7.56 1.65 3.05 1.1 6.18.31 5.88 2.11-.49 2.94.39 4.12-.23 5.57-1.41 3.28-7.69 3.88-11.43 3.33zm19.04 33.82c-.09.155-.3.3-.54.224-.68-.225-1.21-.6-1.96-.75-.52-.075-1.19-.225-1.13-.6.23-1.213 1.58-1.963 2.7-2.357.23-.062.62.163.69.538.29.988.52 1.963.22 2.944zm7.08 1.268c-.91 0-1.81-.07-2.65.313-.91.38-1.51.97-2.33 1.43-.24.15-.53.07-.6-.17-.08-.21-.08-.59.07-.75.83-.98.6-2.18.98-3.31.3-1.13 1.36-1.88 2.33-2.56.22-.15.6 0 .68.22.23 1.58.97 2.79 1.73 4.07.14.3.14.74-.22.74zm-35.279-4.876c-1.66 1.7-4.534 3.345-5.16 5.095-.49 1.394-.518 2.694-.62 3.325-.148.9-1.048.825-1.32.163-.128-.313-.306-.938-.625-1.806-.288-.788-1.278-1.22-2.228-1.22-1.22 0-3.253.157-4.006.157-.51 0-.86-.588-.22-.994.75-.463 1.53-1.28 1.61-2.744.05-.92 2.25-1.006 4.04-1.006.87 0 2.56 1.706 3.81 1.03 1.25-.68 2.64-1.443 3.52-3.424 1.23-2.732 4.41-9.67 5.31-11.626 1.9-4.137-.49-4.994-1.39-4.994-1.33 0-1.78.675-3.52.5-1.46-.144-3-.575-3.95-.79-.67-.153-1.05-.037-1.58.272-.36.22-.76.488-1.14.706-1.15.663-6.04 1.344-4.2.125 1.85-1.22 2.45-2.67 3.78-2.9 1.8-.3 6.36-.61 10.61 0 3.92.56 5.66 3.39 3.86 7.31-4.15 9.1-4.88 11.12-6.54 12.81zm26.317-16.125c.944-2.67 4.544-9.232 9.07-13.213 1.88-1.656 2.98-1.25 1.43.85-2.013 2.725-5.372 8-7.416 13.188-1.02 2.713-4.93 4.388-3.08-.825zm21.484-12.12c-1.22 2.548-3.92 7.99-6.39 13.764-2.41 5.65-6.62 9.85-10.42 11.08-3.03.98-5.63-.93-7-4.07-.46-1.08.45-1.6 1.11-.83 2.4 2.81 6.35 3.5 10.94-2.72 2.71-3.67 4.98-9.95 7.69-15.07.17-.35.44-.77.64-1.15.3-.57-.23-1.29-1.13-.22-1.32 1.58-4.55 6.89-5.99 9.42-1.43 2.51-4.02 6.1-5.59 5.28-1.57-.83.51-3.71 1.45-5.05 1.08-1.56 5.99-8.66 7.54-10.47s3.54-4.02 5.28-3.55c1.08.3 2.43 2.46 1.9 3.55zm-27.07 2.776c-.94 0-1.11-.75-.59-1.16 1.53-1.2 4.62-2.28 6.85-6.44 1.19-2.2 3.26-.25 2.52 1.99-.71 2.13-2.05 3.9-3.34 4.49-.86.4-3.3 1.17-5.42 1.13z" fill="#fff"/></svg>