<svg height="817" viewBox="0 0 2501 817" width="2501" xmlns="http://www.w3.org/2000/svg"><path d="m308.080537 0h22.231544c77.181208 1.67785235 153.104026 32.7181208 207.634228 87.6677852-20.134228 20.5536918-40.68792 40.2684568-60.402685 60.8221478-30.620805-27.684564-67.533557-49.0771813-107.802013-56.6275169-59.563759-12.5838926-123.741611-1.2583893-173.657718 32.7181209-54.530202 35.654362-91.442953 96.057047-99.4127521 160.654362-8.8087248 63.75839 9.2281881 130.872484 50.7550331 180.369128 39.848994 48.238255 100.671141 78.439597 163.590605 80.536913 58.724832 3.355704 119.966442-14.681208 162.751677-55.788591 33.557047-28.942953 49.077182-72.986577 54.110739-115.771812-69.630873 0-139.261745.419463-208.892618 0v-86.409396h293.204698c15.100671 92.701342-6.711409 197.147651-77.181208 263.422819-46.979866 46.979866-111.996644 74.664429-178.271812 80.117449-64.177852 6.291947-130.45302-5.872483-187.5-36.912751-68.372483-36.493289-122.9026845-98.154363-149.7483221-170.721477-25.16778525-66.694631-25.58724834-142.197986-2.0973155-209.31208 21.3926175-61.241611 62.5-115.3523493 115.3523486-153.1040272 50.755034-37.3322147 112.416108-57.88590601 175.335571-61.6610738zm1682.046983 21.8120805h89.7651v598.9932885c-29.78188 0-59.98322.419463-89.7651-.419463.41946-199.244966 0-398.909396 0-598.5738255zm-1178.271815 207.6342285c55.369127-10.486577 115.352349 1.258389 161.073825 34.395973 41.52685 29.362416 70.4698 75.503356 79.27852 125.838926 11.32551 58.305369-2.93624 122.063758-40.68792 168.204698-40.687915 51.59396-107.382546 79.278524-172.399325 75.083893-59.563758-3.355705-117.449664-33.137584-152.684563-81.795302-39.848994-53.691276-49.496645-127.516779-27.684564-190.436242 21.81208-67.533557 83.473154-119.127517 153.104027-131.291946zm12.583892 79.697986c-22.651006 5.872484-43.624161 18.875839-58.724832 37.332215-40.687919 48.657718-38.171141 127.936242 6.711409 173.238255 25.587249 26.006712 64.177853 38.171141 99.832215 31.040269 33.137584-5.872484 62.080537-28.104027 78.020134-57.466443 27.684564-49.916108 19.714766-118.708054-22.651006-157.718121-27.265101-25.167785-67.114094-35.654363-103.18792-26.426175zm432.046983-79.697986c63.33892-12.16443 132.55033 5.45302 179.94966 49.916107 77.18121 69.21141 85.57047 198.825503 19.71477 278.52349-39.849 50.335571-104.44631 78.020134-168.2047 75.083893-60.82215-1.677853-120.80537-31.879195-156.8792-81.795302-40.68792-54.949665-49.49664-130.45302-26.42617-194.630873 23.07047-65.436241 83.47315-115.352349 151.84564-127.097315zm12.58389 79.697986c-22.65101 5.872484-43.62416 18.875839-58.72483 36.912752-40.26846 47.818792-38.59061 125.838926 4.61409 171.560403 25.58725 27.2651 65.43624 40.687919 102.34899 33.137584 32.71813-6.291947 62.08054-28.104027 78.02014-57.466443 27.2651-50.335571 19.2953-119.127517-23.48993-158.137584-27.2651-25.167786-67.1141-35.2349-102.76846-26.006712zm364.51342-55.369127c48.23826-30.201342 112.41611-38.590604 164.42953-12.583893 16.35906 7.130873 29.78188 19.295302 42.78524 31.459732.41946-11.325504 0-23.07047.41946-34.815437 28.10403.419464 56.20805 0 84.73154.419464v369.966443c-.41946 55.78859-14.6812 114.932885-54.94966 155.620805-44.04362 44.88255-111.57718 58.724832-172.39933 49.496644-65.01678-9.647651-121.64429-57.04698-146.81208-117.030201 25.16779-12.16443 51.59396-21.812081 77.60067-33.137584 14.68121 34.395973 44.46309 63.758389 81.7953 70.469799 37.33222 6.711409 80.53692-2.516779 104.86578-33.557047 26.00671-31.879195 26.00671-75.503356 24.74832-114.513423-19.2953 18.875839-41.52685 35.654362-68.37249 41.946309-58.30536 16.35906-122.48322-3.775168-167.36577-43.204698-45.30201-39.429531-72.14765-100.251678-69.63087-160.654363 1.25839-68.372483 39.84899-134.228188 98.15436-169.88255zm86.82886 53.691275c-25.58725 4.194631-49.49664 18.456376-65.8557 38.171141-39.42953 46.979866-39.42953 122.063758.41946 168.204698 22.65101 27.265101 59.1443 42.365772 94.37919 38.590604 33.13759-3.355705 63.75839-24.328859 80.11745-53.271812 27.68457-49.077181 23.07047-115.771812-14.26174-158.557047-23.07047-26.426175-59.98322-39.42953-94.79866-33.137584zm467.28188-32.298658c50.33557-46.979866 127.93624-62.919463 192.53356-38.171141 61.24161 23.07047 100.25168 81.375839 119.96644 141.359061-91.02349 37.751678-181.62752 75.083892-272.65101 112.83557 12.5839 23.909396 31.8792 45.721477 57.88591 54.530202 36.49329 13.003355 80.11745 8.389261 110.73826-15.939598 12.16442-9.228188 21.81208-21.392617 31.04026-33.137584 23.07047 15.520135 46.14094 30.620806 69.21141 46.14094-32.71812 49.077181-87.66778 83.473154-146.81208 88.926174-65.43624 7.969799-135.06711-17.197986-177.43288-68.372483-69.63088-80.536913-62.91947-215.604027 15.52013-288.171141zm44.88255 77.600671c-14.26174 20.553692-20.13423 45.721477-19.71476 70.469799 60.82214-25.167785 121.64429-50.33557 182.46644-75.922819-10.06712-23.489933-34.39597-37.751678-59.1443-41.526845-39.84899-7.130873-81.37584 14.261745-103.60738 46.979865z" fill="#fff" fill-rule="evenodd"/></svg>