<?xml version="1.0" encoding="iso-8859-1"?>
<!-- Generator: Adobe Illustrator 23.0.2, SVG Export Plug-In . SVG Version: 6.00 Build 0)  -->
<svg version="1.1" id="&#x56FE;&#x5C42;_1" xmlns="http://www.w3.org/2000/svg" xmlns:xlink="http://www.w3.org/1999/xlink" x="0px"
	 y="0px" viewBox="0 0 126 70" style="enable-background:new 0 0 126 70;" xml:space="preserve">
<g>
	<g>
		<path d="M64.91,29.28l-2.613,0.012v0.962v5.72c0,0.168,0.037,2.09-0.784,3.135c-0.672,0.821-1.605,0.97-1.941,1.026
			c-0.291,0.045-0.628,0.073-1.049,0.089v2.241c0.915-0.008,1.708-0.058,2.654-0.352c2.724-0.877,3.732-3.508,3.732-6.121
			c0-0.007-0.001-0.012-0.001-0.019h0.001V29.28z"/>
		<path d="M74.681,42.112c-1.139,0.355-2.055,0.355-3.232,0.355h-4.203V29.278h4.726c0.598,0,1.326,0.037,1.905,0.15
			c0.654,0.13,2.074,0.56,3.176,1.98c0.579,0.766,1.364,2.241,1.364,4.576C78.417,38.6,77.408,41.234,74.681,42.112z M74.531,32.361
			c-0.224-0.187-0.673-0.524-1.383-0.71c-0.635-0.168-0.971-0.149-2.13-0.149h-1.308v8.742h0.654c1.326,0,2.111-0.019,2.709-0.112
			c0.336-0.056,1.27-0.205,1.943-1.027c0.822-1.046,0.785-2.97,0.785-3.138C75.801,34.004,75.204,32.958,74.531,32.361z"/>
		<path d="M87.085,42.467l-2.597-4.894h-2.223v4.894h-2.447V29.278h5.398c0.598,0,2.372,0.056,3.549,1.607
			c0.766,1.009,0.803,2.148,0.803,2.578c0,0.205-0.018,0.859-0.243,1.476c-0.205,0.541-0.841,1.681-2.354,2.148l2.933,5.38H87.085z
			 M86.244,31.8c-0.43-0.281-0.934-0.392-1.98-0.392h-1.999v4.109h0.878c1.438,0,2.335,0,2.932-0.317
			c0.374-0.205,0.99-0.691,0.99-1.756C87.066,33.108,87.029,32.323,86.244,31.8z"/>
		<g>
			<path d="M110.947,58.446l-0.019-1.121c-1.065,0.99-2.148,1.457-3.624,1.457c-0.803,0-2.634-0.112-4.222-1.662
				c-0.766-0.766-1.961-2.41-1.961-5.137c0-1.681,0.504-3.437,1.55-4.763c0.598-0.747,2.167-2.298,4.838-2.298
				c3.311,0,5.548,2.447,5.548,4.803l-2.354,0.017c-0.104-1.052-0.915-2.597-3.213-2.597c-0.448,0-1.494,0.075-2.372,0.953
				c-0.635,0.654-1.308,1.775-1.308,3.811c0,0.541,0,2.522,1.513,3.792c0.654,0.541,1.382,0.747,2.223,0.747
				c1.308,0,2.466-0.635,2.97-1.868c0.112-0.262,0.205-0.579,0.28-1.177h-3.288v-2.167h5.548v7.211H110.947z"/>
			<path d="M88.435,47.144c0.859,0,1.497,0.193,1.965,0.482c0.02,0.021,0.047,0.041,0.082,0.061
				c0.082,0.047,0.153,0.102,0.223,0.158c0.14,0.118,0.258,0.247,0.358,0.38c0.028,0.038,0.057,0.077,0.081,0.115
				c0.009,0.014,0.018,0.029,0.027,0.043c0.179,0.3,0.259,0.581,0.289,0.708c0.005,0.025,0.012,0.051,0.017,0.076h2.545
				c0,0,0.04-0.609-0.324-1.412c-0.001-0.003-0.003-0.006-0.004-0.009c-0.027-0.06-0.057-0.12-0.089-0.182
				c-0.021-0.041-0.043-0.082-0.065-0.122c-0.015-0.027-0.031-0.055-0.047-0.083c-0.366-0.628-1.196-1.345-1.201-1.349
				c0,0-0.001,0.001-0.001,0.001c-0.035-0.026-0.069-0.05-0.101-0.071c-1.394-0.928-2.792-1.02-3.623-1.02
				c-2.671,0-4.109,1.158-4.707,2.167c-0.467,0.785-0.504,1.644-0.504,1.942c0,1.906,1.27,2.746,1.887,3.064
				c0.598,0.317,1.326,0.467,1.999,0.616l1.569,0.355c0.654,0.15,1.849,0.317,2.298,0.915c0.224,0.299,0.243,0.654,0.243,0.785
				c0,1.233-1.289,1.588-1.569,1.644c-0.392,0.094-1.147,0.088-1.259,0.088c-2.428,0-2.866-1.097-3.08-2.514h-2.398
				c0,4.798,4.59,4.799,5.374,4.799c0.598,0,2.727-0.019,4.315-1.364c0.915-0.785,1.289-1.7,1.289-2.895
				c0-1.214-0.392-1.812-0.766-2.223c-0.878-1.028-2.261-1.401-3.512-1.681l-1.363-0.299c-1.214-0.261-1.943-0.43-2.261-0.971
				c-0.112-0.187-0.168-0.374-0.168-0.598c0-0.205,0.037-0.392,0.149-0.598C86.642,47.126,88.304,47.144,88.435,47.144z"/>
			<path d="M72.03,58.433V45.245h9.377v2.204h-6.949v3.101h6.37v2.13h-6.37v3.53h7.416v2.223H72.03z"/>
			<path d="M65.959,58.091c-1.139,0.355-2.055,0.355-3.232,0.355h-4.203V45.258h4.726c0.598,0,1.326,0.037,1.905,0.15
				c0.654,0.13,2.074,0.56,3.176,1.98c0.579,0.766,1.363,2.241,1.363,4.576C69.695,54.579,68.687,57.213,65.959,58.091z
				 M65.81,48.34c-0.224-0.187-0.672-0.524-1.382-0.71c-0.635-0.168-0.972-0.149-2.13-0.149H60.99v8.742h0.654
				c1.326,0,2.111-0.019,2.709-0.112c0.336-0.056,1.27-0.205,1.943-1.027c0.822-1.046,0.785-2.97,0.785-3.138
				C67.08,49.984,66.482,48.938,65.81,48.34z"/>
			<path d="M96.357,58.446V45.258h2.428v13.188H96.357z"/>
			<path d="M123.426,58.446l-5.772-9.247l0.149,9.247h-2.41V45.258h2.223l5.847,9.303l-0.299-9.303h2.428v13.188H123.426z"/>
		</g>
	</g>
	<path d="M51.247,48.511h0.003L26.556,0L1.804,48.614h0.004c-0.906,1.639-1.401,3.396-1.401,5.225
		c0,8.919,11.691,16.151,26.119,16.161l0.001,0l0.001,0c0.009,0,0.019,0,0.028,0c14.441,0,26.149-7.236,26.149-16.161
		C52.704,51.972,52.19,50.179,51.247,48.511z M26.428,48.652L11.042,39.28l15.485-9.959l15.389,9.897L26.428,48.652z M25.289,50.856
		v15.491l-15.223-9.272L10.059,41.58L25.289,50.856z M27.765,50.736l15.23-9.276l-0.007,15.616l-15.223,9.272V50.736z
		 M42.403,36.588l-15.876-10.21L10.731,36.537L26.556,5.457L42.403,36.588z M9.367,63.161c-4.182-2.584-6.485-5.895-6.485-9.322
		c0-2.902,1.657-5.719,4.703-8.084l0.006,12.7l-0.009,0.006l14.461,8.808C17.246,66.724,12.852,65.314,9.367,63.161z M43.744,63.161
		c-3.501,2.164-7.921,3.576-12.745,4.115l14.473-8.815l-0.009-0.006l0.006-12.745c3.082,2.374,4.76,5.208,4.76,8.128
		C50.229,57.266,47.926,60.576,43.744,63.161z"/>
	<g>
		<path d="M60.022,65.86c-0.289,0.436-0.73,0.94-1.132,1.268c-0.074-0.068-0.204-0.175-0.277-0.238
			c0.385-0.306,0.821-0.775,1.042-1.16L60.022,65.86z M63.577,62.871v0.368h-4.897v-0.368h2.338
			c-0.102-0.204-0.238-0.441-0.368-0.64l0.356-0.113c0.153,0.227,0.345,0.538,0.447,0.753H63.577z M61.33,65.357v1.505
			c0,0.238-0.051,0.34-0.238,0.402c-0.187,0.057-0.504,0.062-1.007,0.057c-0.023-0.107-0.074-0.249-0.13-0.357
			c0.402,0.011,0.753,0.006,0.86,0.006c0.102-0.006,0.125-0.028,0.125-0.113v-1.5h-1.562v-1.625h3.543v1.625H61.33z M59.751,65.022
			h2.779v-0.957h-2.779V65.022z M62.485,65.724c0.374,0.368,0.849,0.883,1.075,1.2l-0.323,0.226
			c-0.215-0.323-0.673-0.855-1.059-1.239L62.485,65.724z"/>
		<path d="M66.037,65.504c-0.272,0.594-0.702,1.177-1.11,1.562c-0.074-0.062-0.221-0.192-0.317-0.249
			c0.419-0.345,0.821-0.883,1.059-1.415L66.037,65.504z M67.447,64.938v1.834c0,0.238-0.057,0.351-0.215,0.419
			c-0.17,0.062-0.453,0.074-0.855,0.074c-0.017-0.113-0.079-0.277-0.142-0.391c0.334,0.006,0.629,0.011,0.719,0.006
			c0.09-0.006,0.113-0.028,0.113-0.113v-1.828h-1.262c-0.34,0-0.538,0.028-0.6,0.079c-0.022-0.085-0.085-0.283-0.141-0.391
			c0.124-0.034,0.249-0.198,0.419-0.447c0.096-0.13,0.323-0.481,0.555-0.911h-1.398v-0.362h1.579
			c0.13-0.249,0.249-0.521,0.357-0.781L66.96,62.3c-0.085,0.198-0.187,0.408-0.288,0.605h2.66v0.362h-2.847
			c-0.255,0.47-0.538,0.917-0.81,1.302h1.392v-0.849h0.379v0.849H69.1v0.368H67.447z M68.25,65.391
			c0.447,0.43,0.974,1.03,1.212,1.421l-0.328,0.192c-0.232-0.396-0.741-1.013-1.189-1.449L68.25,65.391z"/>
		<path d="M73.275,64.502c-0.057,0.039-0.107,0.079-0.164,0.113c0.6,0.3,1.647,0.594,2.417,0.73
			c-0.079,0.074-0.176,0.215-0.232,0.306c-0.759-0.159-1.834-0.509-2.468-0.861c-0.662,0.385-1.54,0.702-2.332,0.889
			c-0.045-0.085-0.124-0.204-0.209-0.283c0.974-0.204,2.094-0.611,2.706-1.075L73.275,64.502z M70.863,64.004h-0.34v-0.979h2.168
			v-0.34h-1.851V62.39h4.098v0.294H73.06v0.34h2.208v0.979h-0.357V63.29H73.06v0.877h-0.368V63.29h-1.828V64.004z M71.039,64.173
			h1.353v0.255h-1.353V64.173z M74.537,65.651l0.243,0.164c-0.328,0.351-0.9,0.713-1.381,0.957c0.266,0.108,0.498,0.204,0.673,0.294
			l-0.164,0.289c-0.492-0.26-1.455-0.628-2.196-0.832l0.164-0.243c0.345,0.09,0.736,0.21,1.115,0.345
			c0.373-0.164,0.843-0.419,1.171-0.662H71.05v-0.294h1.964c-0.107-0.147-0.317-0.351-0.492-0.487l0.238-0.164
			c0.181,0.136,0.402,0.334,0.504,0.476l-0.226,0.175h1.449L74.537,65.651z M72.386,63.613v0.249h-1.223v-0.249H72.386z
			 M74.622,63.613v0.249h-1.257v-0.249H74.622z M73.365,64.173h1.404v0.255h-1.404V64.173z"/>
		<path d="M81.016,64.898v0.3h-3.691v0.232h-0.368V63.5c-0.17,0.221-0.357,0.419-0.538,0.583c-0.051-0.068-0.187-0.215-0.266-0.272
			c0.481-0.408,0.945-1.025,1.217-1.664l0.357,0.107c-0.085,0.181-0.181,0.362-0.283,0.538h1.427
			c-0.079-0.176-0.181-0.38-0.277-0.538l0.345-0.102c0.119,0.193,0.255,0.447,0.34,0.64h1.613v0.289h-1.704v0.408h1.432v0.277
			h-1.432v0.413h1.455v0.272h-1.455v0.447H81.016z M76.952,65.634h3.736v1.687h-0.385v-0.277h-2.978v0.277h-0.374V65.634z
			 M78.82,63.081h-1.494v0.408h1.494V63.081z M78.82,63.766h-1.494v0.413h1.494V63.766z M77.326,64.898h1.494v-0.447h-1.494V64.898z
			 M77.326,65.945v0.787h2.978v-0.787H77.326z"/>
		<path d="M83.64,62.277c-0.142,0.413-0.317,0.832-0.515,1.223v3.804h-0.357v-3.187c-0.159,0.26-0.334,0.492-0.509,0.696
			c-0.034-0.09-0.147-0.277-0.221-0.368c0.504-0.555,0.968-1.404,1.251-2.27L83.64,62.277z M85.746,63.681
			c0.345,0.962,0.934,1.919,1.557,2.4c-0.085,0.068-0.215,0.198-0.289,0.3c-0.606-0.538-1.172-1.523-1.523-2.525v2.049h0.94v0.34
			h-0.94v1.042h-0.362v-1.042h-0.962v-0.34h0.962v-2.026c-0.368,1.013-0.94,1.97-1.551,2.513c-0.068-0.085-0.187-0.215-0.272-0.283
			c0.623-0.492,1.228-1.46,1.579-2.428H83.51v-0.362h1.619V62.17h0.362v1.149h1.715v0.362H85.746z"/>
		<path d="M89.457,65.973c-0.509,0.142-1.03,0.294-1.455,0.408l-0.079-0.317c0.391-0.085,0.94-0.238,1.5-0.391L89.457,65.973z
			 M90.046,64.79c0,0,0,0.119-0.006,0.159c-0.096,1.438-0.175,1.964-0.356,2.145c-0.091,0.108-0.193,0.142-0.357,0.153
			c-0.136,0.011-0.402,0.006-0.673-0.011c-0.006-0.096-0.04-0.226-0.102-0.317c0.283,0.028,0.549,0.034,0.651,0.034
			c0.091,0,0.153-0.011,0.198-0.068c0.13-0.125,0.215-0.594,0.294-1.783h-1.517c0.062-0.487,0.142-1.33,0.175-1.925l0.323,0.017
			c-0.034,0.498-0.085,1.127-0.142,1.596h0.742c0.068-0.549,0.147-1.358,0.192-2.043h-1.353v-0.328h1.704
			c-0.057,0.758-0.142,1.766-0.215,2.372H90.046z M91.823,62.226c-0.039,0.085-0.074,0.164-0.119,0.249
			c0.351,0.549,0.968,1.172,1.494,1.528c-0.068,0.079-0.153,0.238-0.198,0.34c-0.504-0.385-1.087-0.991-1.477-1.545
			c-0.385,0.634-0.894,1.177-1.438,1.557c-0.045-0.068-0.159-0.226-0.226-0.294c0.679-0.436,1.296-1.138,1.636-1.942L91.823,62.226z
			 M92.984,64.819c-0.232,0.606-0.56,1.359-0.849,1.879h0.9v0.334h-2.853v-0.334h1.625c0.289-0.526,0.645-1.37,0.832-1.97
			L92.984,64.819z M90.663,64.751c0.17,0.43,0.328,0.985,0.385,1.347l-0.312,0.085c-0.045-0.374-0.204-0.928-0.368-1.359
			L90.663,64.751z M92.401,64.236h-1.67v-0.328h1.67V64.236z M91.591,66.036c-0.028-0.362-0.13-0.922-0.232-1.353l0.3-0.04
			c0.107,0.43,0.209,0.979,0.243,1.347L91.591,66.036z"/>
		<path d="M95.699,65.957c0.028,0.096,0.09,0.238,0.136,0.3c-0.99,0.719-1.138,0.826-1.223,0.934c-0.04-0.09-0.142-0.238-0.21-0.317
			c0.102-0.068,0.283-0.249,0.283-0.504v-2.077H93.87V63.93h1.178v2.479L95.699,65.957z M95.172,63.375
			c-0.175-0.243-0.549-0.617-0.849-0.878l0.243-0.232c0.3,0.249,0.685,0.606,0.86,0.838L95.172,63.375z M96.757,62.996
			c0,0.521-0.181,1.126-0.996,1.523c-0.04-0.079-0.17-0.221-0.238-0.277C96.27,63.89,96.4,63.415,96.4,62.99v-0.628h1.749v1.324
			c0,0.159,0.017,0.21,0.102,0.21h0.408c0.079,0,0.192-0.011,0.26-0.023c0.011,0.09,0.022,0.238,0.04,0.323
			c-0.068,0.023-0.181,0.028-0.289,0.028h-0.436c-0.362,0-0.442-0.147-0.442-0.543v-0.963h-1.036V62.996z M98.67,64.74
			c-0.227,0.696-0.617,1.24-1.104,1.658c0.413,0.278,0.906,0.481,1.455,0.6c-0.085,0.085-0.181,0.232-0.232,0.334
			c-0.583-0.147-1.098-0.379-1.529-0.702c-0.453,0.317-0.974,0.544-1.511,0.691c-0.028-0.102-0.113-0.249-0.187-0.328
			c0.498-0.119,0.985-0.317,1.41-0.594c-0.413-0.379-0.742-0.837-0.974-1.376l0.045-0.017h-0.266v-0.356h2.593l0.068-0.017
			L98.67,64.74z M96.355,65.005c0.209,0.453,0.521,0.855,0.911,1.178c0.391-0.312,0.708-0.708,0.923-1.178H96.355z"/>
		<path d="M101.765,65.894c0.028,0.102,0.09,0.255,0.13,0.328c-1.042,0.736-1.2,0.855-1.285,0.968
			c-0.034-0.096-0.13-0.26-0.204-0.345c0.102-0.062,0.272-0.221,0.272-0.464v-2.077h-0.911V63.93h1.291v2.445L101.765,65.894z
			 M101.181,63.381c-0.186-0.238-0.572-0.617-0.889-0.877l0.243-0.243c0.323,0.255,0.713,0.611,0.894,0.843L101.181,63.381z
			 M104.889,64.422h-1.455v2.893h-0.396v-2.893H101.6v-0.385h1.438V62.17h0.396v1.868h1.455V64.422z"/>
	</g>
</g>
</svg>
