<svg height="32" viewBox="0 0 90 32" width="90" xmlns="http://www.w3.org/2000/svg" xmlns:xlink="http://www.w3.org/1999/xlink"><linearGradient id="a" x1="50%" x2="50%" y1="0%" y2="100%"><stop offset="0" stop-color="#6faeff"/><stop offset="1" stop-color="#3c76ff"/></linearGradient><linearGradient id="b" x1="50%" x2="50%" y1="0%" y2="100%"><stop offset="0" stop-color="#ff8faf"/><stop offset="1" stop-color="#ff5677"/></linearGradient><g fill="none" fill-rule="evenodd"><path d="m11.3370518 6.22768836h3.1420994l-7.19495233 6.99003284 8.24231883 9.2669164h-3.3242501l-6.60296263-7.650329-2.11750179 2.0264264v5.6239026h-2.48180318v-16.25694924h2.48180318v7.85524864zm7.2632588-.22768836c.4781456 0 .8879846.13661302 1.2067483.45537673.3187638.29599487.4781456.68306509.4781456 1.16121066s-.1821507.86521579-.5009144 1.1839795c-.3187637.29599487-.7286028.45537673-1.1839795.45537673-.4781456 0-.8652158-.15938186-1.1839795-.45537673-.3187637-.31876371-.4781456-.72860277-.4781456-1.1839795 0-.47814557.1593819-.86521579.4781456-1.16121066.3187637-.31876371.7058339-.45537673 1.1839795-.45537673zm-1.2067483 4.7131492h2.4134966v11.7714884h-2.4134966zm11.6348754-.3187638c2.9144111 0 4.3943855 1.5938186 4.3943855 4.8269934v7.2632588h-2.4134967v-7.0583393c0-2.0036576-.9335223-3.0054864-2.7550292-3.0054864-.6830651 0-1.2978237.2276884-1.7987381.7286028-.5464521.546452-.8879846 1.2978236-.97906 2.2541148v7.0811081h-2.4134966v-11.7714884h2.4134966v1.4572055c.4553768-.5919898.97906-1.0245977 1.5710497-1.3205925.5919898-.3187637 1.2522861-.4553768 1.9808888-.4553768zm12.0447145 0c1.5482809 0 2.7322604.6147586 3.5974762 1.8898135v-1.5710497h2.4134967v10.997348c0 3.7340892-1.8442758 5.6011338-5.4872896 5.6011338-1.6393563 0-2.8916423-.3187638-3.7568581-.9335223-.8652157-.6375275-1.388899-1.5938186-1.6165873-2.8916423h2.4134966c.136613.6830651.4098391 1.1839795.8652158 1.4799744.4326079.273226 1.1384418.4326079 2.094733.4326079 2.0491953 0 3.0737929-1.115673 3.0737929-3.3242501v-1.821507c-.8652158 1.2978237-2.0491953 1.95812-3.5974762 1.95812-1.5938185 0-2.8916422-.5464521-3.8707022-1.6165874-1.0018288-1.0701353-1.4799743-2.4818032-1.4799743-4.2577724 0-1.7759693.4781455-3.1876371 1.4799743-4.2805413.97906-1.115673 2.2768837-1.6621251 3.8707022-1.6621251zm.3643014 1.95812c-1.0245976 0-1.8215069.3415325-2.367959 1.0701353-.5919897.6830651-.8652158 1.6621251-.8652158 2.9144111 0 1.1384418.2276884 2.0491953.6830651 2.7094915.5236833.7741405 1.3661302 1.1839795 2.5501097 1.1839795 1.0245977 0 1.8215069-.3415325 2.4134967-1.0245976.5464521-.705834.8424469-1.6621251.8424469-2.8688734 0-1.2295172-.2959948-2.2085772-.8424469-2.9144111-.5919898-.7286028-1.388899-1.0701353-2.4134967-1.0701353zm7.1266458-1.6393562h2.6639539l2.4818032 8.902615 2.4134967-8.902615h2.2313459l2.4134967 8.902615 2.4818032-8.902615h2.6639538l-3.9845463 11.7714884h-2.231346l-2.4590344-8.8115397-2.4590343 8.8115397h-2.231346zm23.816203-.3187638c1.9125823 0 3.3925566.6375275 4.3943855 1.95812.9107534 1.1839795 1.388899 2.8233357 1.4116678 4.9180687h-8.9253839c.0910754 1.1384418.3870702 2.0264264.9335223 2.641185.5464521.5919897 1.2978237.9107535 2.2541148.9107535.842447 0 1.5255121-.2049196 2.0491953-.5919898.4098391-.3187637.7513716-.8424469 1.0701353-1.525512h2.4134967c-.2732261 1.0929041-.7969093 2.0264264-1.6165874 2.7550292-1.0245976.8879846-2.3224213 1.3433613-3.893471 1.3433613-1.7304316 0-3.1193306-.546452-4.1211595-1.6165874-1.0929041-1.1384418-1.6393562-2.6639538-1.6393562-4.5993049 0-1.7532004.5009144-3.210406 1.5482809-4.3943855 1.0018288-1.2067483 2.3907278-1.7987381 4.1211594-1.7987381zm.0683065 1.9808888c-.9107534 0-1.6165874.2504572-2.1630394.7969093-.5009145.5236832-.842447 1.2750548-.97906 2.2768836h6.3525054c-.2276884-2.0491952-1.2978237-3.0737929-3.210406-3.0737929zm9.4946048-6.3752742c.4781456 0 .8879847.13661302 1.2067484.45537673.3187637.29599487.4781455.68306509.4781455 1.16121066s-.1821507.86521579-.5009144 1.1839795c-.3187637.29599487-.7286027.45537673-1.1839795.45537673-.4781455 0-.8652158-.15938186-1.1839795-.45537673-.3187637-.31876371-.4781455-.72860277-.4781455-1.1839795 0-.47814557.1593818-.86521579.4781455-1.16121066.3187637-.31876371.705834-.45537673 1.1839795-.45537673zm-1.2067483 4.7131492h2.4134967v11.7714884h-2.4134967z" fill="url(#a)"/><path d="m88.1363373 19.228694c.4553767 0 .8652157.1593819 1.2067483.4781456.3187637.3187637.5009144.7286027.5009144 1.2295171 0 .4553768-.1821507.8652158-.5009144 1.2067484-.3415326.2959948-.7513716.4553767-1.2067483.4553767-.5009144 0-.8879847-.1593819-1.1839795-.4553767-.3415326-.3415326-.5009144-.7513716-.5009144-1.2067484 0-.5009144.1593818-.9107534.5009144-1.2295171.2959948-.3187637.6830651-.4781456 1.1839795-.4781456z" fill="url(#b)"/></g></svg>