<svg height="24" viewBox="0 0 24 24" width="24" xmlns="http://www.w3.org/2000/svg"><path d="m18.7636529.01820388c.4368932 0 .787318.35497573.7918689.79186894v17.94447818c0 .4368932-.3549757.7918689-.7918689.7918689h-17.94447814c-.43689321 0-.79186893-.3549757-.79186893-.7918689v-11.32281556c0-.20934466.08191747-.40958738.22754854-.55521845l6.51243932-6.62166262c.15018204-.15018204.35042476-.23665049.56432039-.23665049zm-11.7642597 1.97057039-5.13349514 5.11984223h5.13349514zm11.1589806 16.16049753v-16.73847083h-9.76183254v6.29854369c0 .4368932-.35497573.79186893-.79186893.79186893h-6.18476942v9.64805821zm.4050364 5.7524272h-15.83737865c-.38683252 0-.69629854-.314017-.69629854-.6962985 0-.3822816.31401699-.6962986.69629854-.6962986h15.83737865c1.7930825 0 3.2539442-1.4608616 3.2539442-3.2539441v-14.99544906c0-.38683253.314017-.69629855.6962985-.69629855.3822816 0 .696306.31401699.696306.69629855v14.99089806c.0045435 2.5667476-2.0798011 4.6510922-4.6465487 4.6510922z" fill="#747d87"/></svg>