<svg height="90" viewBox="0 0 180 90" width="180" xmlns="http://www.w3.org/2000/svg" xmlns:xlink="http://www.w3.org/1999/xlink"><radialGradient id="a" cx="38.174689%" cy="86.077657%" gradientTransform="matrix(.58369045 -.71409141 .59539585 .70005247 -.353578 .53079)" r="90.637917%"><stop offset="0" stop-color="#178f67"/><stop offset=".610821026" stop-color="#31cc79" stop-opacity=".55"/><stop offset="1" stop-color="#53e68d" stop-opacity=".8"/></radialGradient><linearGradient id="b" x1="54.972332%" x2="-8.235951%" y1="81.576225%" y2="100%"><stop offset="0" stop-color="#fff" stop-opacity="0"/><stop offset="1" stop-color="#d6f056"/></linearGradient><linearGradient id="c" x1="52.438928%" x2="74.030576%" y1="0%" y2="89.113059%"><stop offset="0" stop-color="#9beb5e" stop-opacity=".65"/><stop offset="1" stop-color="#23c26d" stop-opacity=".65"/></linearGradient><g fill="none" fill-rule="evenodd" transform="translate(0 14)"><path d="m108.799836 13.6793218c-.626915 0-1.049394-.1075874-1.267452-.3227652-.218057-.2151777-.327084-.5917332-.327084-1.1296777 0-.5110473.109027-.8876028.327084-1.1296778.218058-.2420749.640537-.3631106 1.267452-.3631106h21.710235c.572401 0 .974438.1210357 1.206124.3631106.231686.242075.347527.6186305.347527 1.1296778 0 .5379445-.115841.9145-.347527 1.1296777-.231686.2151778-.633723.3227652-1.206124.3227652h-11.856813l-.981254 4.1152546h8.177113c.926743 0 1.662677.0470694 2.20782.1412097.545144.0941403.947181.2824181 1.206125.5648389.258942.2824208.422483.6993216.490626 1.2507147.068143.551393.102213 1.2843314.102213 2.198837v4.195946h2.371364c.572401 0 .974438.1210356 1.206124.3631106.231686.2420751.347527.6186306.347527 1.1296778 0 .48415-.115841.8472571-.347527 1.0893322-.231686.2420749-.633723.3631106-1.206124.3631106h-24.817537c-.599659 0-1.00851-.1210357-1.226567-.3631106-.218057-.2420751-.327085-.6051822-.327085-1.0893322 0-.5110472.109028-.8876027.327085-1.1296778.218057-.242075.626908-.3631106 1.226567-.3631106h5.06981l1.349223-5.4870063h-4.292984c-.463372 0-.810896-.1008631-1.042582-.3025922-.231687-.2017292-.347527-.5850089-.347527-1.1498506 0-.9414028.463365-1.4120972 1.390109-1.4120972h4.988039l.981253-4.1152546zm22.282632 29.2505846c0 1.2372723-.231682 2.1181432-.695053 2.642639-.463373.5244959-1.294704.7867399-2.49402.7867399h-15.045888c-1.226573 0-2.064719-.262244-2.514461-.7867399-.449744-.5244958-.674612-1.4053667-.674612-2.642639v-7.1008315c0-1.2103751.224868-2.0710734.674612-2.5821206.449742-.5110473 1.287888-.7665671 2.514461-.7665671h15.045888c1.199316 0 2.030647.2555198 2.49402.7665671.463371.5110472.695053 1.3717455.695053 2.5821206zm-2.94376-6.7780665c0-.4572528-.177169-.6858758-.531512-.6858758h-14.47349c-.327086 0-.490627.228623-.490627.6858758v6.5359928c0 .4572527.163541.6858758.490627.6858758h14.47349c.354343 0 .531512-.2286231.531512-.6858758zm-19.952155 2.3803925c.463372.376561.688241.7732891.674612 1.1901961s-.29301.8943255-.838154 1.43227c-.708687.7262251-1.362849 1.3314036-1.962507 1.8155535-.599658.4841501-1.321963 1.0355349-2.166935 1.6541711-.545143.3765611-1.063022.5984599-1.553651.665703-.49063.067243-.926738-.0201716-1.308338-.2622467-.381601-.242075-.674611-.6186305-.87904-1.1296778-.2044287-.5110472-.2793852-1.1431224-.2248704-1.8962447l1.0630244-16.8241295c.054515-.5379445-.177168-.7665674-.695055-.6858758l-3.7614716.4034564c-.7904583.0806917-1.321965.0134497-1.5945372-.2017282-.2725713-.2151778-.4361121-.61863-.490626-1.210369-.0545148-.5110472.0476982-.8943269.3066417-1.1498506.2589426-.2555236.7291224-.4101803 1.410552-.4639747l4.2520981-.4034564c1.308345-.1344861 2.269146.0739642 2.882432.6253573.613287.5513931.87904 1.5532997.797269 3.0057498l-.981254 15.7347973c-.027257.4303555.109027.511046.408856.2420738.463372-.3765612.865409-.7194956 1.206124-1.0288137s.701867-.6522526 1.083468-1.0288136c.844972-.8876085 1.635418-1.0489894 2.371362-.4841476zm8.790396-17.873116-1.349223 5.4870063h11.161759v-4.5590567c0-.4034584-.040886-.6589781-.122657-.7665671-.081771-.1075889-.313454-.1613825-.695055-.1613825zm-11.039102-2.0576273c-.708686.6455333-1.526389.4841525-2.453134-.4841476-.7632-.8069167-1.560461-1.633994-2.391805-2.4812565-.831344-.8472626-1.7648886-1.7281335-2.8006608-2.642639-.899487-.7531224-.9540009-1.5600269-.1635426-2.4207381.2725722-.2958694.6200955-.4303536 1.0425816-.4034563.4224861.0268972.9062948.282417 1.4514378.766567 1.199316 1.0489917 2.194188 1.9702079 2.984646 2.7636759.790458.7934681 1.512762 1.5533033 2.166934 2.2795284.517888.5379444.790455 1.0019146.817713 1.3919243.027256.3900098-.190798.8001863-.65417 1.2305419zm63.636334.4438019c-.817715.5110473-1.655861.9951901-2.514462 1.4524429-.858601.4572527-1.724003.9144987-2.596233 1.3717516.163543.1613833.35434.4169031.572398.766567.218057.4572528.44974.954844.695054 1.4927885l.73594 1.6138253h11.407073c.517886 0 .899481.1143115 1.144795.3429379.245315.2286264.367971.6119061.367971 1.1498506 0 .9414028-.504251 1.4120972-1.512766 1.4120972h-12.143013v2.8241944h10.916446c.517886 0 .899481.1143114 1.144795.3429379.245315.2286263.367971.611906.367971 1.1498505 0 .9414029-.50425 1.4120972-1.512766 1.4120972h-10.916446v2.7031575h10.630247c.517886 0 .899481.1143115 1.144795.3429379.245315.2286263.367971.6119061.367971 1.1498506 0 .5379444-.122656.9077757-.367971 1.1095049-.245314.2017292-.626909.3025922-1.144795.3025922h-10.630247v2.9452313h12.756296c1.008516 0 1.512766.5110396 1.512766 1.5331342 0 .5379444-.122656.9144999-.36797 1.1296777s-.62691.322765-1.144796.322765h-28.333696v.2017283c0 .5379444-.129469.9212241-.388412 1.1498505s-.647353.3429379-1.165239.3429379c-.545143 0-.933552-.1143115-1.165239-.3429379-.231686-.2286264-.347526-.6119061-.347526-1.1498505v-17.9538073c-.572401.1344861-1.151608.2689703-1.737637.4034564-.586029.1344862-1.178864.2689702-1.778522.4034564-.844972.1882805-1.424179.2017289-1.737637.0403455-.313457-.1613833-.511069-.5513871-.59284-1.1700233-.081772-.5110472-.006816-.8943269.22487-1.1498506.231686-.2555236.660981-.4505256 1.287896-.5850117 3.298118-.6993278 6.45309-1.5465776 9.465008-2.541775 3.011917-.9951972 7.584272-2.7751343 7.584272-2.8904815 0-1.4864354 0-2.2893235 0-2.4086641 0-1.7452291 0-4.3630728 0-7.853531 0-1.07588901.517878-1.6138254 1.553651-1.6138254 1.035772 0 1.553651.53793639 1.553651 1.6138254v8.4322375.4034563c2.389529-1.2551941 4.093095-2.2234893 5.110696-2.9048856.599658-.3765612 1.09028-.5648389 1.47188-.5648389.381601 0 .749567.2420713 1.10391.7262214.327086.4572528.422485.8808778.286199 1.2708875s-.572394.8136346-1.308338 1.2708874zm-14.309947-8.4322375c.436115.3227668.660983.6791496.674612 1.0691593.013628.3900097-.21124.9077736-.674612 1.553307-1.144801 1.5869361-2.398613 3.1133307-3.761471 4.5792294-1.362859 1.4658987-2.902867 2.9116028-4.620069 4.3371557-.708687.5648416-1.267451.8674309-1.676309.9077767-.408857.0403459-.790452-.1681045-1.144795-.6253573-.327086-.4303555-.436113-.8270836-.327085-1.1901962.109029-.3631125.449738-.8001858 1.022139-1.3112331 1.526402-1.2641695 2.98464-2.6359073 4.374755-4.1152547 1.390117-1.4793473 2.575786-2.9317756 3.557044-4.3573285.463373-.6724306.906295-1.0624344 1.328781-1.1700234.422487-.1075889.838152-.0000015 1.24701.3227651zm13.083381 2.5821206c-.517887-.5110472-.810897-.9548448-.87904-1.3314059s.088583-.7531166.470184-1.1296777c.408857-.3765612.804081-.5379421 1.185681-.4841476.3816.0537944.844965.3227625 1.390109.8069126 1.226573 1.1296834 2.541713 2.494697 3.945457 4.0950819 1.403745 1.6003848 2.800654 3.3285055 4.190771 5.1844139.463371.6186362.722311 1.1296758.776825 1.5331342.054515.4034583-.136283.7665653-.572398 1.0893321-.490629.3765611-.933552.504321-1.32878.3832835-.39523-.1210375-.865409-.5446624-1.410552-1.2708875-1.253831-1.6676279-2.4872-3.2007467-3.700144-4.5994023s-2.568969-2.8241871-4.068113-4.2766372zm-18.194077 29.7347323h12.551868v-2.9452313h-12.551868zm0-11.45816h12.551868v-2.8241944h-12.551868zm0 5.6080431h12.551868v-2.7031575h-12.551868zm11.979471-14.0806263c-1.117544.4841501-2.2487.9548444-3.393502 1.4120972s-2.330471.9010503-3.557044 1.3314059h8.054456c-.136286-.2958695-.279384-.5984587-.429299-.9077768-.149914-.309318-.30664-.6253557-.470183-.9481223-.190801-.349664-.258943-.645529-.204428-.887604z" fill="#000" fill-opacity=".85" fill-rule="nonzero"/><g transform="translate(6.3)"><path d="m63.5237585 8.85151274-5.6995092-.30167379s-2.1558277-7.49625742-12.0488065-8.16878108-16.3665336-.25010759-16.3665336-.25010759 7.3389013 4.6305245 4.3978303 12.89341132c-2.1852842 4.4564835-5.6424727 8.0979672-9.3284746 12.2826709l-24.37373231 27.5707437c22.68896921-.3297198 36.06557081-.4945798 40.12980501-.4945798 11.3977103 0 21.0301396-9.7969302 20.635973-20.6973183-.2709018-7.4915925-2.6772493-9.1843059-3.5043902-12.4652464-.8271408-3.2809407.8285281-8.5132764 6.1578381-10.36911896z" fill="#31cc79"/><path d="m63.5237585 8.85151274-5.6995092-.30167379s-2.1558277-7.49625742-12.0488065-8.16878108-16.3665336-.25010759-16.3665336-.25010759 7.3389013 4.6305245 4.3978303 12.89341132c-2.1852842 4.4564835-5.6424727 8.0979672-9.3284746 12.2826709l-24.37373231 27.5707437c22.68896921-.3297198 36.06557081-.4945798 40.12980501-.4945798 11.3977103 0 21.0301396-9.7969302 20.635973-20.6973183-.2709018-7.4915925-2.6772493-9.1843059-3.5043902-12.4652464-.8271408-3.2809407.8285281-8.5132764 6.1578381-10.36911896z" fill="url(#a)" fill-opacity=".6"/></g><g transform="translate(0 20.7)"><path d="m30.6785642 4.69599858c-11.9300077 13.35447972-30.6785642 34.60193892-30.6785642 34.60193892 33.7293694 8.7744514 49.2697771-12.5214412 51.7030565-19.8939277 3.2624374-9.88471556-1.347221-14.70801122-3.9559638-16.28090063-8.8460964-5.33357712-15.4094985-.28423269-17.0685285 1.57288941z" fill="#93e65c"/><path d="m30.6785642 4.69599858c-11.9300077 13.35447972-30.6785642 34.60193892-30.6785642 34.60193892 33.7293694 8.7744514 49.2697771-12.5214412 51.7030565-19.8939277 3.2624374-9.88471556-1.347221-14.70801122-3.9559638-16.28090063-8.8460964-5.33357712-15.4094985-.28423269-17.0685285 1.57288941z" fill="url(#b)" fill-opacity=".75"/></g><g opacity=".447806" transform="translate(6.3 20.7)"><path d="m36.3723922 31.8133942c-5.4110062.0360815-17.531248.1909388-36.36072533.4645719l23.30000973-26.35618507c.5086568-.57747609 1.0127555-1.14413085 1.5092965-1.7038701 2.1921807-2.09334267 8.4597035-6.09894009 16.7001732-1.1305134 2.6191733 1.57917816 7.2472622 6.42175848 3.9717808 16.34599537-.9500439 2.8784963-3.8902018 7.8710457-9.1205349 12.3800013z" fill="#60db69"/><path d="m36.3723922 31.8133942c-5.4110062.0360815-17.531248.1909388-36.36072533.4645719l23.30000973-26.35618507c.5086568-.57747609 1.0127555-1.14413085 1.5092965-1.7038701 2.1921807-2.09334267 8.4597035-6.09894009 16.7001732-1.1305134 2.6191733 1.57917816 7.2472622 6.42175848 3.9717808 16.34599537-.9500439 2.8784963-3.8902018 7.8710457-9.1205349 12.3800013z" fill="url(#c)"/></g></g></svg>