<svg height="90" viewBox="0 0 180 90" width="180" xmlns="http://www.w3.org/2000/svg"><g fill="#2b5788"><path d="m.28362776 34.0851735v-.8673502c0-1.459022.1240694-2.7045425.37192429-3.7371293.24700316-1.0323028.68763407-1.8789274 1.32104101-2.5395899.6325552-.6606625 1.48684543-1.1492744 2.56031546-1.4664038 1.07318612-.3154259 2.43652997-.4747003 4.08832807-.4747003h160.32492141c.495142 0 .743564.2481388.743564.7432808v3.3862145c0 .4957097-.248422.7435646-.743564.7435646h-159.33378576c-1.34886435 0-2.26504732.2685805-2.7462776.8051735-.48179811.5371609-.72255521 1.3837855-.72255521 2.5395899v.8673502h10.67422717c.4954258 0 .7432807.2478549.7432807.7435647v3.3862145c0 .4954258-.2481388.7435647-.7432807.7435647h-10.67451108v16.8901892c0 .6061514-.30321767.9082335-.90880126.9082335h-4.04687697c-.6055836 0-.90794953-.3020821-.90794953-.9082335v-16.8899053z"/><path d="m43.7973502 34.0851735c.4957097 0 .7432807.2478549.7432807.7435647v3.4688328c0 .4954258-.247571.7429968-.7432807.7429968h-10.9848265c-.8812619 0-1.610347.0763723-2.1883912.2271294-.5780442.1518927-1.0396846.3997476-1.3832177.7435646-.3446687.3443849-.5854258.8122713-.7225552 1.4039432-.1385489.5925237-.2069716 1.3150789-.2069716 2.1679496v12.265552c0 .6055836-.3029337.9082335-.9079495.9082335h-4.0471609c-.6336908 0-.9508202-.3020821-.9508202-.9082335v-13.3804732c0-1.4865615.1655205-2.7596214.4959937-3.8197476.3301893-1.0595584.8738801-1.9269085 1.6313565-2.6017666.7569085-.6742902 1.7608202-1.169716 3.0145741-1.4865615 1.2526183-.3159937 2.8147003-.4749842 4.6870978-.4749842z"/><path d="m68.8641956 34.0851735c1.4036593 0 2.5665615.1172555 3.4887066.3509148.9221451.2342272 1.652082.6197792 2.1892429 1.1563723.536877.536593.9153312 1.2387066 1.1353628 2.1060568.2203154.8670662.3307571 1.9203785.3307571 3.1588012v3.9233754c0 .8815457-.192776 1.4939432-.5777603 1.8377603-.385552.3443848-.9777918.5158675-1.7761514.5158675h-20.854164v.9914195c0 1.2946372.3091798 2.2298423.9286751 2.8084543.6197791.5774763 1.8232807.8667823 3.6136277.8667823h17.2198107c.4962776 0 .7435647.2484227.7435647.7435647v3.4691167c0 .4957098-.2472871.7429969-.7435647.7429969h-17.7978549c-1.8729653 0-3.4347634-.1499054-4.6876656-.4545426-1.2526183-.3017981-2.2573817-.7912619-3.0142902-1.4661199-.7574763-.6742902-1.3005994-1.5416404-1.6313565-2.6011987-.3301892-1.0592745-.4954258-2.3334701-.4954258-3.8203155v-5.9462461c0-1.4868454.1652366-2.7599053.4954258-3.8200315.3307571-1.0595584.8738802-1.9269085 1.6313565-2.6017666.7569085-.6742902 1.7616719-1.1697161 3.0142902-1.4865615 1.2529022-.3162776 2.8149843-.4749842 4.6876656-.4749842zm-16.0642902 9.3747634h16.7246687c.4676026 0 .7023975-.2339432.7023975-.7023975v-1.7344164c0-.8531545-.1797161-1.4587381-.5377287-1.8170347-.3577287-.3574448-1.0183912-.536593-1.9814196-.536593h-10.3650473c-1.790347 0-2.9935646.282776-3.6136277.8463407-.6197792.5647003-.9286751 1.507287-.9286751 2.8286119z"/><path d="m101.446183 34.0851735c1.403659 0 2.566845.1172555 3.489558.3509148.922145.2342272 1.650947.6197792 2.189243 1.1563723.536309.536593.91448 1.2387066 1.135079 2.1060568.21918.8670662.330473 1.9203785.330473 3.1588012v3.9233754c0 .8815457-.193911 1.4939432-.57776 1.8377603-.385836.3443848-.978076.5158675-1.776151.5158675h-20.8547323v.9914195c0 1.2946372.3091799 2.2298423.9286751 2.8084543.620347.5774763 1.8235647.8667823 3.6139117.8667823h17.2195265c.49571 0 .742997.2484227.742997.7435647v3.4691167c0 .4957098-.247287.7429969-.742997.7429969h-17.7978546c-1.8726814 0-3.4347634-.1499054-4.6876656-.4545426-1.2526183-.3017981-2.2573817-.7912619-3.0142902-1.4661199-.7574764-.6742902-1.3005994-1.5416404-1.6313565-2.6011987-.3301893-1.0592745-.4954259-2.3334701-.4954259-3.8203155v-5.9462461c0-1.4868454.1655206-2.7599053.4954259-3.8200315.3307571-1.0595584.8738801-1.9269085 1.6313565-2.6017666.7569085-.6742902 1.761388-1.1697161 3.0142902-1.4865615 1.2529022-.3159937 2.8149842-.4747003 4.6876656-.4747003zm-16.0642903 9.3747634h16.7246693c.467602 0 .702113-.2339432.702113-.7023975v-1.7344164c0-.8531545-.179716-1.4587381-.537729-1.8170347-.357728-.3574448-1.018107-.536593-1.981419-.536593h-10.3650475c-1.7906309 0-2.9938486.282776-3.6139117.8463407-.6197792.5647003-.9286751 1.507287-.9286751 2.8286119z"/><path d="m134.276309 34.0851735c1.84429 0 3.400978.1587066 4.66694.4749842 1.26653.3168455 2.277256.8122713 3.034732 1.4865615.756909.6748581 1.300883 1.5419243 1.631357 2.6017666.329905 1.0601262.495141 2.3331861.495141 3.8197476v5.94653c0 1.4862776-.165236 2.7604732-.495141 3.8197476-.330474 1.0601262-.874448 1.9274764-1.631357 2.6017666-.757476.674858-1.768486 1.1637539-3.034732 1.4661199-1.265962.3032176-2.822366.4545426-4.66694.4545426h-15.485962v8.2178233c0 .6052997-.303218.9082334-.907666.9082334h-4.047444c-.633123 0-.950537-.3029337-.950537-.9082334v-22.50653c0-1.4865615.165805-2.7596214.496278-3.8197476.329337-1.0595584.873312-1.9269085 1.630789-2.6017666.756908-.6742902 1.761104-1.169716 3.01429-1.4865615 1.251482-.3162776 2.813564-.4749842 4.686814-.4749842zm-15.485962 17.7155205h14.908202c.908801 0 1.651798-.067571 2.230126-.2069716.577193-.1368454 1.038549-.3844164 1.382366-.7435647.344953-.3571609.58571-.8250473.722555-1.4033754.137981-.5777602.206972-1.3071293.206972-2.1881072v-3.6752366c0-.8528707-.068707-1.5754259-.206972-2.1679495-.136845-.591672-.377602-1.0595584-.722555-1.4039433-.343817-.343817-.805173-.591388-1.382366-.7435646-.578328-.1507571-1.321325-.2271294-2.230126-.2271294h-10.406499c-.881545 0-1.610914.0763723-2.188675.2271294-.57776.1518927-1.039684.3997476-1.383501.7435646-.344385.3443849-.58571.8122713-.722555 1.4039433-.137981.5925236-.207256 1.3150788-.207256 2.1679495z"/><path d="m173.961767 34.0851735v-8.1766561c0-.6052997.301798-.9085174.908233-.9085174h4.047445c.605016 0 .907098.3032177.907098.9085174v22.506246c0 1.4862776-.164669 2.7604732-.495142 3.8197476-.329338 1.0601262-.874448 1.9274764-1.630789 2.6017666-.758044.674858-1.76877 1.1637539-3.0353 1.4661199-1.265962.3032176-2.821798.4545426-4.665804.4545426h-11.563723c-1.871545 0-3.434763-.1504732-4.686813-.4545426-1.252619-.302366-2.257382-.7912619-3.014291-1.4661199-.757476-.6742902-1.300883-1.5416404-1.631356-2.6017666-.329338-1.0592744-.494574-2.33347-.494574-3.8197476v-5.94653c0-1.4865615.164669-2.7596214.494574-3.8197476.330473-1.0595584.87388-1.9269085 1.631356-2.6017666.756909-.6742902 1.761672-1.169716 3.014291-1.4865615 1.25205-.3159937 2.815268-.4749842 4.686813-.4749842zm-4.542587 17.7155205c.907665 0 1.650662-.0755205 2.229842-.2268454.57776-.1513249 1.039117-.398612 1.384069-.7435647.34325-.343817.584575-.8051735.723124-1.3835016.136277-.5777602.206403-1.3071293.206403-2.1881072v-8.2178234h-14.949369c-.881262 0-1.610915.0763723-2.189243.2271294-.57776.1518927-1.039116.3997476-1.382933.7435646-.344953.3443849-.58571.8122713-.722556 1.4039433-.137981.5925236-.206971 1.3150788-.206971 2.1679495v3.6752366c0 .8812618.068139 1.610347.206971 2.1881072.136846.5783281.377603 1.0396846.722556 1.3835016.343817.3443849.805173.5922398 1.382933.7435647.578328.1513249 1.307414.2268454 2.189243.2268454z"/><path d="m107.15877 61.0102208h-6.143849-78.4263406-21.56167188c-.49542587 0-.74328076.2478549-.74328076.7435647v3.3859306c0 .4957098.2481388.7435647.74328076.7435647h22.55252368 76.4452048 7.134417c.495142 0 .742713-.2478549.742713-.7435647v-3.3859306c-.000284-.4957098-.247855-.7435647-.742997-.7435647z"/><path d="m179.081546 61.0102208h-54.549937c-.494574 0-.742429.2478549-.742429.7435647v3.3859306c0 .4957098.247855.7435647.742429.7435647h54.550505c.495142 0 .742996-.2478549.742996-.7435647v-3.3859306c-.000567-.4957098-.248422-.7435647-.743564-.7435647z"/></g></svg>