<svg height="90" viewBox="0 0 180 90" width="180" xmlns="http://www.w3.org/2000/svg"><g fill="#fb8a1f" transform="translate(0 25)"><path d="m0 0h82.5875156v37.5824176h-82.5875156c0-12.530528 0-25.0518896 0-37.5824176zm2.75291719 2.74993299v32.08255161h77.08168121c0-10.6972394 0-21.3853123 0-32.08255161-25.6938937 0-51.3877875 0-77.08168121 0z"/><path d="m19.4845361 29.955122c-6.1162887 0-9.708866-2.1057561-9.708866-10.5880976 0-8.4526829 3.5925773-10.58809757 9.708866-10.58809757 6.1459794 0 9.708866 2.13541467 9.708866 10.58809757 0 8.4823415-3.5628866 10.5880976-9.708866 10.5880976zm0-4.864c2.8206185 0 3.5035051-1.3049757 3.5035051-5.7240976 0-4.478439-.6828866-5.8130732-3.5035051-5.8130732-2.8206186 0-3.4738145 1.3346342-3.4738145 5.8130732 0 4.4191219.6531959 5.7240976 3.4738145 5.7240976zm24.7138144 4.864c-6.294433 0-10.3917526-1.9574635-10.3917526-10.5880976 0-7.9484878 3.948866-10.58809757 10.1245361-10.58809757 2.0189691 0 3.8004124.26692683 5.0771134.74146341v5.01229266c-1.3954639-.5041951-2.9096907-.7711219-4.6020618-.7711219-2.9690722 0-4.1270103 1.3939512-4.1270103 5.6054634 0 4.4191219 1.3063917 5.4868293 4.2160824 5.4868293 1.5439176 0 3.1769072-.1779513 4.7505155-.7414635v5.0122927c-1.276701.4745366-3.1472165.8304391-5.0474227.8304391zm28.1876289-.2965854h-6.9773196l-4.2457732-6.910439h-1.1579381v6.910439h-5.9084537v-20.5830244h8.3727836c5.2552577 0 7.9868041 1.9871219 7.9868041 6.8807805 0 3.3217561-1.0985567 5.249561-3.5925773 6.1689756zm-12.3810309-16.0749268v4.9529756h1.4251546c2.4049484 0 3.2065979-.6524878 3.2065979-2.5802927 0-1.8981464-.8016495-2.3726829-3.2065979-2.3726829z"/><path d="m90.1113402 28.9096585c-1.9892783 0-2.3752577-.3559024-2.3752577-2.3726829 0-2.0760976.3859794-2.3726829 2.3752577-2.3726829 1.9002062 0 2.3752577.2965853 2.3752577 2.3726829 0 2.0167805-.4750515 2.3726829-2.3752577 2.3726829zm12.4404128.1186342c-2.43464 0-4.8989695-.3559025-6.0569076-.7414634v-3.4700488c1.2470103.4745366 3.7707216.8600975 5.9381446.8600975 2.850309 0 3.978556-.6821463 3.978556-2.7879024 0-1.9278049-.682886-2.4616585-4.067628-3.3217561-4.3348458-1.0083902-5.700619-2.2243902-5.700619-5.8427317 0-4.18185365 2.5237113-5.90204878 7.303917-5.90204878 2.226805 0 4.186392.35590244 5.255258.74146342v3.29209756c-1.068866-.385561-3.355051-.771122-5.136495-.771122-2.49402 0-3.622268.5041952-3.622268 2.5506342 0 1.5719024.475052 2.046439 3.741031 2.8472195 4.809897 1.1863415 6.086598 2.5506342 6.086598 6.465561 0 4.033561-2.345567 6.08-7.719587 6.08zm20.367835-16.6087805c5.255257 0 6.472577 3.2920976 6.472577 8.3043902 0 4.5377561-1.21732 8.3043903-6.472577 8.3043903-2.969073 0-4.275464-1.0083903-4.958351-2.5802927v8.2154146h-3.71134v-21.947317h3.71134v2.2540487c.682887-1.4236097 2.018969-2.5506341 4.958351-2.5506341zm-1.009485 13.7319024c3.236289 0 3.651959-2.5506341 3.651959-5.4275122 0-3.0844878-.445361-5.4571707-3.651959-5.4571707-3.236289 0-4.156701 2.0167805-4.156701 5.4571707 0 3.2920976.920412 5.4275122 4.156701 5.4275122zm17.903505-13.7319024c5.255258 0 6.947629 1.9278049 6.947629 5.1309268v11.1812683h-3.29567l-.385979-2.046439c-.80165 1.3939512-2.761237 2.3430244-5.34433 2.3430244-3.651959 0-5.492784-1.601561-5.492784-4.8343415 0-3.7666341 2.345567-5.1012683 6.502268-5.1012683h4.305155v-.7118049c0-1.8981463-.653196-2.8472195-3.622268-2.8472195-1.157938 0-2.286186.1186342-3.444124.3262439v-3.1734634c1.21732-.2076097 2.672165-.2669268 3.830103-.2669268zm-1.276701 13.7022439c2.256495 0 3.830103-.8897561 4.51299-2.2837073v-2.1057561h-3.800412c-2.345567 0-3.325361.444878-3.325361 2.3430244 0 1.3939512.742268 2.046439 2.612783 2.046439zm19.863093 2.9065366c-4.898969 0-7.749278-1.8091707-7.749278-8.3043903 0-6.4952195 2.850309-8.3043902 7.749278-8.3043902 1.66268 0 3.176907.2076098 4.156701.5338537v3.1734634c-1.157938-.4448781-2.345567-.6228293-3.770722-.6228293-3.087835 0-4.305154 1.1566829-4.305154 5.249561 0 4.033561 1.187629 5.1605853 4.364536 5.1605853 1.336082 0 2.672165-.1779512 3.830103-.6228292v3.1438049c-.920412.2965853-2.761237.5931707-4.275464.5931707zm21.436701-9.6983415c0 .8007805-.059381 1.5422439-.148454 2.1057561l-10.510515.6821464c.089072 2.6989268 1.395464 3.9149268 4.602062 3.9149268 1.929897 0 4.12701-.5635122 5.225567-1.0973659v3.0251708c-.950103.5635122-3.26598 1.0677073-5.878763 1.0677073-4.869278 0-7.689897-1.8091707-7.689897-8.3043903 0-6.4952195 2.820619-8.3043902 7.689897-8.3043902 5.552165 0 6.710103 3.1438049 6.710103 6.910439zm-10.658969.1482927 7.214845-.5338537c0-1.9871219-.41567-3.6776585-3.265979-3.6776585-2.969072 0-3.859794 1.4532683-3.948866 4.2115122z"/></g></svg>