<svg height="90" viewBox="0 0 180 90" width="180" xmlns="http://www.w3.org/2000/svg"><g fill="#494949"><g transform="translate(89.101124 28.988764)"><path d="m52.3464956.58146067-.5512796 4.7022472c-2.6060617 0-4.2348257.37920969-4.886341 1.13764044v.32865169c.9856259 1.26405127 1.4784314 2.67976744 1.4784314 4.247191 0 2.4101244-.8812032 4.4662836-2.6436359 6.1685393s-4.3893368 2.5533708-7.8807912 2.5533708c-1.7039633 0-3.0988536-.1348302-4.1847126-.4044944-.8853928.4044964-1.3280826.9353901-1.3280826 1.5926967 0 1.0280951.5303925 1.7485934 1.5911932 2.1615167 1.0608007.4129235 3.5290048.6193821 7.4046862.6193821 6.6989149 0 10.048322 2.3005388 10.048322 6.9016854 0 3.2359713-1.3948903 5.8061703-4.1847126 7.7106742-2.7898224 1.9045039-6.1809928 2.8567416-10.1736128 2.8567416-7.818185 0-11.7272189-2.4775033-11.7272189-7.4325843 0-1.5337156.4385135-2.8356689 1.3155535-3.905899.87704-1.0702299 1.8918853-1.7233132 3.0445664-1.9592695v-.3792135c-1.403264-.8932629-2.1048854-2.2584178-2.1048854-4.0955056 0-1.853942.9605532-3.4044881 2.8816883-4.6516854v-.3539326c-2.7062948-1.3651754-4.0594218-3.4971765-4.0594218-6.3960674 0-2.47754051.931319-4.55055349 2.7939847-6.21910116 1.8626659-1.66854766 4.7401492-2.50280898 8.6325361-2.50280898 2.6561781 0 4.8111583.50561292 6.4650051 1.51685393h.3508144c.48446-3.18540919 2.1048715-4.77808989 4.8612828-4.77808989 1.0858591 0 2.0380596.19381829 2.8566303.58146067zm-7.1415755 31.87921353c0-1.2471973-.471924-2.1488738-1.4157861-2.7050562-.9438621-.5561825-2.5684498-.8342697-4.8738119-.8342697-1.8710186 0-3.7587145-.0842687-5.6631441-.252809-1.4700861.8764088-2.2051182 2.1825757-2.2051182 3.9185394 0 3.2359712 2.138275 4.8539325 6.414889 4.8539325 2.3888897 0 4.2765855-.4550516 5.6631441-1.3651685 1.3865583-.9101169 2.0798272-2.115161 2.0798272-3.6151685zm-2.9568629-20.8061798c0-1.5168615-.4844529-2.67134438-1.4533732-3.46348316-.9689204-.79213879-2.0798211-1.18820225-3.3327352-1.18820225-1.2529144 0-2.351286.38342314-3.2951481 1.1502809s-1.415786 1.89184651-1.415786 3.37500001c0 1.5000075.484453 2.6376366 1.4533733 3.4129213.9689202.7752848 2.0965262 1.1629214 3.3828516 1.1629214 1.2195031 0 2.3011696-.3749963 3.2450317-1.125.9438619-.7500038 1.4157859-1.8581387 1.4157859-3.3244382z"/><path d="m22.8279835 13.5c0 .8595549-.0501158 1.9803302-.150349 3.3623596l-16.13745483.2780898c.23387734 1.9045039 1.04408305 3.4887578 2.43064149 4.752809 1.38655844 1.2640513 3.20743314 1.8960674 5.46267884 1.8960674 2.5058285 0 5.1703195-.3792097 7.9935529-1.1376404l-.5011631 4.9044944c-2.3053623.8427007-5.1619639 1.2640449-8.5698907 1.2640449-4.31002501 0-7.61349269-1.2218979-9.91050215-3.6657303-2.29700945-2.4438325-3.44549695-5.3848142-3.44549695-8.8230337 0-3.5899056 1.09001905-6.70363852 3.27008983-9.34129216 2.1800708-2.63765365 5.20790149-3.95646067 9.08358287-3.95646067 3.541571 0 6.1726514.96909143 7.8933204 2.90730337 1.7206687 1.93821193 2.5809904 4.45784966 2.5809904 7.55898876zm-5.8636094-.2275281c0-3.87642386-1.6371167-5.81460673-4.9113993-5.81460673-3.12393286 0-4.97821813 2.00559791-5.56291145 6.01685393z"/><path d="m80.6120998.58146067-.5512797 4.7022472c-2.6060616 0-4.2348257.37920969-4.886341 1.13764044v.32865169c.9856259 1.26405127 1.4784313 2.67976744 1.4784313 4.247191 0 2.4101244-.8812031 4.4662836-2.6436358 6.1685393s-4.3893368 2.5533708-7.8807912 2.5533708c-1.7039633 0-3.0988537-.1348302-4.1847126-.4044944-.8853927.4044964-1.3280825.9353901-1.3280825 1.5926967 0 1.0280951.5303924 1.7485934 1.5911931 2.1615167 1.0608008.4129235 3.5290048.6193821 7.4046862.6193821 6.6989149 0 10.048322 2.3005388 10.048322 6.9016854 0 3.2359713-1.3948902 5.8061703-4.1847126 7.7106742s-6.1809927 2.8567416-10.173613 2.8567416c-7.8181848 0-11.7272187-2.4775033-11.7272187-7.4325843 0-1.5337156.4385135-2.8356689 1.3155535-3.905899.87704-1.0702299 1.8918853-1.7233132 3.0445665-1.9592695v-.3792135c-1.403264-.8932629-2.1048856-2.2584178-2.1048856-4.0955056 0-1.853942.9605533-3.4044881 2.8816884-4.6516854v-.3539326c-2.7062948-1.3651754-4.0594218-3.4971765-4.0594218-6.3960674 0-2.47754051.931319-4.55055349 2.7939847-6.21910116 1.8626659-1.66854766 4.7401492-2.50280898 8.6325361-2.50280898 2.6561782 0 4.8111583.50561292 6.4650051 1.51685393h.3508142c.4844603-3.18540919 2.1048718-4.77808989 4.8612831-4.77808989 1.085859 0 2.0380595.19381829 2.8566303.58146067zm-10.0984385 11.07303373c0-1.5168615-.4844529-2.67134438-1.4533733-3.46348316-.9689203-.79213879-2.0798209-1.18820225-3.3327351-1.18820225-1.2529143 0-2.3512859.38342314-3.295148 1.1502809-.9438622.76685776-1.4157861 1.89184651-1.4157861 3.37500001 0 1.5000075.4844528 2.6376366 1.4533733 3.4129213.9689203.7752848 2.0965262 1.1629214 3.3828516 1.1629214 1.2195031 0 2.3011696-.3749963 3.2450315-1.125.9438621-.7500038 1.4157861-1.8581387 1.4157861-3.3244382zm2.9568629 20.8061798c0-1.2471973-.4719239-2.1488738-1.415786-2.7050562-.9438622-.5561825-2.5684498-.8342697-4.8738122-.8342697-1.8710186 0-3.7587144-.0842687-5.6631441-.252809-1.4700859.8764088-2.205118 2.1825757-2.205118 3.9185394 0 3.2359712 2.1382749 4.8539325 6.414889 4.8539325 2.3888897 0 4.2765855-.4550516 5.6631441-1.3651685 1.3865584-.9101169 2.0798272-2.115161 2.0798272-3.6151685z"/></g><g transform="translate(10 20)"><path d="m12.9438202 27.2766445 1.4382023-2.4796949 7.1910112 12.3986655h-14.38202246l5.75280896-9.9189706-5.75280896 9.9189706-7.19101124-12.3987133 7.19101124-12.3984748 7.19108316-12.39833155h14.3817828l-2.8763087 4.95938989 2.8764045-4.95938989 7.1912509 12.39847475h-14.3821902-14.38193943l7.19092823 12.3983316zm19.6380056 15.7359933-3.8177809 6.5837428-7.1910112-12.4009562h14.3820225l-3.3732304 5.8172134 3.3733981-5.8172134 7.1907716 12.4009562h-14.3820225zm10.5642416-18.215736 7.1910113-12.3984748 7.1910112 12.3984748zm-21.5730337-12.398427-7.1910112 12.3984748-7.19101126-12.3984748zm7.1909393-12.39837935h14.3820225l7.1910112 12.39847475h-14.3817828zm21.5731057 12.39837935-7.1910113 12.3984748-7.1910112-12.3984748zm-43.14613937 24.7970448h14.38202247l7.1910112 12.400861h-14.3817827z"/><path d="m25.586409 30.996354-3.5955056-6.1994762 3.5955056-6.1994759h7.1910112l3.5955056 6.1994759-3.5955056 6.1994762z"/></g></g></svg>