<svg height="90" viewBox="0 0 180 90" width="180" xmlns="http://www.w3.org/2000/svg"><path d="m10.2656459 56.6601832c-1.7279853 0-3.2399724-.2468551-4.52567571-.7199939-1.19451732-.4332334-2.2844341-1.1131172-3.19882985-1.9954115-.85900041-.8396059-1.51660028-1.8629298-1.92341216-2.9931174-.42147531-1.1920373-.63035969-2.4488249-.61713759-3.7131111v-13.6181695h7.4467936v12.7850337c0 1.0697052.25714066 1.9131266.77142199 2.5096929.51428132.606852 1.23427518.9051351 2.17026722.9051351.9462776 0 1.6662715-.3085688 2.1805528-.9051351s.771422-1.4399877.771422-2.5096929v-12.7850337h7.4056511v13.6078838c0 1.3268459-.2159982 2.5714067-.6685657 3.7131112-.435772 1.1274024-1.1133835 2.1455752-1.985126 2.9828317-.9406583.8840345-2.0543675 1.5634672-3.2708292 1.9954116-1.3062746.4834244-2.8182617.7302794-4.5565325.7302794zm24.1300798-7.1793673-3.8468243 6.551944h-8.8250676l7.9199324-11.6741861-7.5085073-10.738194h8.9793519l3.497113 5.8833783 3.3633999-5.8730927h8.7736394l-7.3953654 10.6353378 8.177073 11.7667567h-9.1130651l-4.0113943-6.551944zm26.7529146 6.551944h-7.4467936v-16.0455773h-5.4513821v-6.3462316h18.3495577v6.3565172h-5.451382zm12.4250368-22.4123801h12.3941799l6.1919472 11.1907616-6.1919472 11.1907617h-12.3941799l-6.2022328-11.1907617zm1.9748403 11.0879054c0 .7302794.1028562 1.4091308.32914 2.0159827.2159982.6171376.5142814 1.1417046.9051352 1.5839865.8048425.8815291 1.9434389 1.3837538 3.1371161 1.3837538 1.1936771 0 2.3322735-.5022247 3.137116-1.3837538.4011395-.4422819.7097083-.9668489.9257064-1.5839865.2262838-.6068519.3291401-1.2857033.3291401-2.0159827 0-.7199939-.1028563-1.378274-.3291401-1.9748403-.6034663-1.7165284-2.2331222-2.8581148-4.0525368-2.838833-1.183218-.0008834-2.3172186.4734698-3.1474017 1.3165602-.3805682.4114251-.689137.9257064-.9051352 1.5222728-.2247753.6338588-.3361895 1.302344-.32914 1.9748403zm24.1095085-11.0879054h12.3941801l6.191947 11.1907616-6.191947 11.1907617h-12.3941801l-6.1919471-11.1907617zm1.9645551 11.0879054c0 .7302794.102856 1.4091308.32914 2.0159827.215998.6171376.514281 1.1417046.905135 1.5839865.804842.8815291 1.943439 1.3837538 3.137116 1.3837538s2.332273-.5022247 3.137116-1.3837538c.401139-.4422819.709708-.9668489.925706-1.5839865.215999-.6068519.32914-1.2857033.32914-2.0159827 0-.7199939-.102856-1.378274-.32914-1.9748403-.603466-1.7165284-2.233122-2.8581148-4.052536-2.838833-1.183218-.0008834-2.317219.4734698-3.147402 1.3165602-.380568.4114251-.689137.9257064-.905135 1.5222728-.224776.6338588-.33619 1.302344-.32914 1.9748403zm18.616984-11.0879054h7.518793v15.9427211h7.354223v6.4593734h-14.862731v-22.4020945zm25.354069 23.0398034c-2.602588-.0011193-5.15821-.6932671-7.405651-2.0056972-.719994-.4114251-1.357703-.8742783-1.913127-1.378274l4.525676-4.9988144c.534853.575995 1.22399 1.0799907 2.087982 1.5222727.863993.4422819 1.758842.6582801 2.674263.6582801.421711 0 .802279-.0719994 1.15199-.2159982.339426-.1542844.514282-.4217107.514282-.8228501 0-.2057125-.061714-.3908538-.174856-.5348526-.172916-.1937563-.382715-.3511057-.617138-.4628532-.389196-.1981275-.791237-.3699398-1.203418-.5142813-.514281-.2057125-1.15199-.4114251-1.923412-.6685657-.750851-.2571407-1.470845-.5554239-2.159982-.9051352-.669468-.33315-1.286339-.7628808-1.830841-1.2754176-1.19121-1.1325435-1.826471-2.7300945-1.738271-4.3713913-.065182-2.3606059 1.074005-4.5924819 3.023974-5.9245209.902041-.6303606 1.91355-1.0872838 2.982832-1.3474171 4.149221-1.0870576 8.566491.0095102 11.725614 2.9108323l-4.628532 4.7725307c-.487278-.6227741-1.119304-1.1170959-1.841127-1.4399877-.617304-.2972657-1.290027-.4619426-1.97484-.4834244-.450872-.0183579-.900284.0623958-1.316561.2365694-.309598.1287126-.506504.4363785-.49371.771422 0 .3394257.16457.5862807.514282.7611363.339425.1645701.905135.3805682 1.676557.6274233.791993.2571406 1.625129.5554238 2.499407.8845638.874278.3394257 1.686843.7817077 2.427408 1.3165602.734753.5308633 1.35702 1.202072 1.830841 1.9748403.483425.7817076.719994 1.7485565.719994 2.9108323.049695 2.3543851-1.02332 4.592061-2.890261 6.0273772-.878636.668342-1.872122 1.1703141-2.931403 1.4811302-1.079991.32914-2.190839.4937101-3.322258.4937101zm12.239896-16.4055743c-.002819-.5235793.209076-1.0254344.58628-1.3885596.185142-.1851413.40114-.3291401.637709-.4319963.478631-.2095755 1.02307-.2095755 1.501702 0 .457544.2150897.822574.5874199 1.028562 1.0491339.429936.9998107-.030063 2.1590066-1.028562 2.5919779-.480591.1999985-1.021112.1999985-1.501702 0-.236569-.1028563-.452567-.2365694-.637709-.4114251-.376369-.3721625-.587589-.8798324-.58628-1.4091308zm9.997629 1.9748403c-.699423 0-1.337132-.1028563-1.913127-.3291401-1.13618-.3993889-2.048757-1.2633454-2.509693-2.3759797-.247935-.6068626-.370395-1.2576527-.359997-1.9131265 0-.689137.123428-1.3268459.370283-1.8925553.464264-1.1275143 1.394907-1.9981162 2.550835-2.3862654 1.627536-.5877002 3.437573-.3662188 4.875387.5965664l-1.789699 2.7051197c-.128924-.1556308-.295266-.2759637-.483424-.3497113-.349718-.1492466-.743032-.1602741-1.100562-.0308568-.16457.0617137-.308569.1542843-.442282.2777119-.28902.2842958-.448873.6746353-.442282 1.0799908 0 .246855.041142.4525675.123427.6274232.144458.3317834.420074.5887768.761137.7097082.364992.1316385.76677.1168944 1.121133-.0411425.205712-.082285.359997-.1851413.483424-.3291401l1.799985 2.6434061c-.878023.6585362-1.947014 1.012459-3.044545 1.0079914zm12.167896-4.6491032c.013243.6767022-.112794 1.3489004-.370283 1.9748403-.698413 1.6937891-2.387211 2.764734-4.217107 2.6742629-.596566 0-1.162276-.1028563-1.717699-.3085688-1.112167-.4095406-2.000667-1.2681742-2.447979-2.3656941-.261011-.6251958-.390555-1.2974212-.380569-1.9748403 0-.7199939.123428-1.378274.380569-1.9542691.45119-1.0880059 1.339855-1.9355983 2.447979-2.3348372 1.689231-.6018783 3.571243-.2568427 4.9371.9051351.411425.3908539.750851.8639927.997706 1.4399878.246855.5657094.370283 1.2137039.370283 1.954269zm-4.381677-1.3165602c-.380568 0-.689137.1234275-.925707.3908538-.236569.2571406-.359997.5554238-.359997.9051351 0 .3702826.123428.689137.370283.9462777.236569.2571406.555424.3908538.925706.3908538.390854 0 .709709-.1337132.946278-.3908538.246855-.2571407.370283-.5759951.370283-.9462777 0-.3497113-.123428-.6479945-.370283-.9051351-.247925-.2616153-.596373-.4039921-.956563-.3908538z" fill="#4285f4" fill-rule="evenodd"/></svg>