<svg height="90" viewBox="0 0 180 90" width="180" xmlns="http://www.w3.org/2000/svg" xmlns:xlink="http://www.w3.org/1999/xlink"><linearGradient id="a" x1="5.061969%" x2="64.422797%" y1="37.465988%" y2="56.025975%"><stop offset="0" stop-color="#0052cc"/><stop offset="1" stop-color="#0067ff"/></linearGradient><linearGradient id="b" x1="33.781403%" x2="99.075728%" y1="46.921901%" y2="65.70684%"><stop offset="0" stop-color="#0067ff"/><stop offset="1" stop-color="#0052cc"/></linearGradient><g fill="none" fill-rule="evenodd" transform="translate(0 34)"><path d="m.78692759 17.7668102c-.22861056.3716242-.48751467.8077103-.6893542 1.1525636-.19364582.3300676-.08839392.7543594.23706458.9556556l4.57925635 2.8254011c.16051714.0997475.35445763.1306026.53800475.0855941.18354716-.0450085.34121318-.1620827.43737686-.3247722.18176125-.3075146.41776908-.7045009.67561644-1.1296673 1.81444227-2.9941291 3.63980433-2.6291976 6.92700583-1.0666145l4.5401566 2.1582388c.1718546.0815086.3693651.0900649.5476247.0237234.1782595-.0663415.3221199-.2019431.3988724-.3759739l2.1804305-4.9234051c.15494-.3498515.0023119-.7594139-.3437965-.922544-.9588258-.4508806-2.8648532-1.3505284-4.5708023-2.1765558-6.2006654-3.0008219-11.44673194-2.8025049-15.45745601 3.7183562z" fill="url(#a)"/><path d="m21.3174951 6.22497065c.2286106-.37197652.4875147-.80771038.6893542-1.1511546.1945847-.33037848.0892308-.75570792-.2370646-.95706458l-4.5792563-2.82540118c-.1605172-.09974752-.3544576-.13060255-.5380048-.08559406-.1835471.04500849-.3412131.16208267-.4373768.32477215-.1817613.30751467-.4177691.70450097-.6756165 1.12966731-1.8144422 2.99412916-3.6398043 2.62919766-6.92700584 1.06661449l-4.5390998-2.15823875c-.1718546-.08150863-.36936511-.0900649-.54762468-.02372342-.17825954.06634148-.32211992.20194311-.39887239.37597391l-2.18043052 4.92199608c-.15494001.34985149-.00231193.75941391.34379647.92254404.95882583.45088062 2.86485323 1.35052837 4.57080235 2.17655577 6.19996091 3.00223089 11.44567511 2.80391389 15.45639921-3.71694716z" fill="url(#b)"/><g fill="#0052cc"><path d="m47.4231311 21.2843836c-1.2705675.8372994-3.2854403 1.2089236-5.3936595 1.2089236-6.695225 0-10.4769863-4.0293933-10.4769863-10.445636 0-6.19960858 3.7817613-10.53933461 10.4149902-10.53933461 1.9838748 0 3.9677495.37232877 5.4246576 1.42626224v2.69647749c-1.4569081-.92994129-3.0688063-1.42590998-5.4246576-1.42590998-4.7736986 0-7.6251663 3.16180039-7.6251663 7.84250486 0 4.6807045 2.9448141 7.7801566 7.7805088 7.7801566 1.8408191.0193494 3.6591009-.4060079 5.3003131-1.2399217z"/><path d="m49.3763601 14.4031703c0-4.6497065 2.7274755-8.02814095 7.377182-8.02814095 4.6183561 0 7.3155381 3.3787867 7.3155381 8.02814095 0 4.6493542-2.6968297 8.0901369-7.3155381 8.0901369-4.6497065-.0003522-7.377182-3.4407827-7.377182-8.0901369zm2.6038356 0c0 2.9444618 1.456908 5.6106457 4.7736986 5.6106457 3.2854403 0 4.7113503-2.6658317 4.7113503-5.6106457 0-2.9448141-1.42591-5.54864975-4.7113503-5.54864975-3.3174951 0-4.7740509 2.60383565-4.7740509 5.54864975z" fill-rule="nonzero"/><path d="m80.3427006 22.1833268h-2.6658317v-9.361409c0-2.7898239-1.1159296-4.02939334-3.6577691-4.02939334-2.4794912 0-4.1843836 1.64289624-4.1843836 4.77369864v8.6171037h-2.6658317v-15.49902152h2.6658317v2.54183953c.9676195-1.79427776 2.8581714-2.89596645 4.8962818-2.85322896 3.5644227 0 5.6106458 2.44849315 5.6106458 6.72798435z"/><path d="m87.7512329 6.68465753h3.9987475v2.47984345h-3.9987475v13.01882582h-2.6038356v-13.01882582h-2.5094325v-2.47984345h2.5108415v-1.70489236c-.001409-2.88281801 1.6104892-4.83534247 4.9272798-4.83534247.6074856-.00336776 1.2123648.07965484 1.7964775.24657534v2.44990216c-.5517458-.10492286-1.1122637-.15682267-1.6738943-.15499022-1.6428963 0-2.4488454.96129159-2.4488454 2.35585127z"/><path d="m98.786184 22.2763209c-2.5418396 0-4.1537378-1.2089236-4.1537378-4.0603914v-18.00951071h2.6658317v17.69917811c0 1.3952642.9299413 1.8908806 2.0782779 1.8908806.2586977.0045186.5174408-.0058311.7749512-.030998v2.3868493c-.4484231.0963649-.9068768.1379995-1.365323.1239921z"/><path d="m102.412603 6.68465753h2.665479v9.36140897c0 2.7898239 1.11593 4.0293934 3.657769 4.0293934 2.479844 0 4.184736-1.6428963 4.184736-4.7736986v-8.61710377h2.66548v15.49902157h-2.66548v-2.5421918c-.967559 1.7943361-2.858151 2.8960477-4.896282 2.8532289-3.564775 0-5.610646-2.4484931-5.610646-6.726223z"/><path d="m127.024697 22.492955c-5.796282 0-8.338122-3.3463797-8.338122-8.090137 0-4.68035225 2.603836-8.0281409 7.315539-8.0281409 4.773346 0 6.695225 3.31679061 6.695225 8.0281409v1.2089237h-11.314286c.372329 2.6348336 2.078278 4.339726 5.734638 4.339726 1.607353-.0011798 3.202016-.2845826 4.71135-.8372994v2.4491976c-1.270567.681957-3.222387.9295891-4.804344.9295891zm-5.67229-9.174364h8.648454c-.15499-2.882818-1.456908-4.52571429-4.121331-4.52571429-2.822583-.00035225-4.247436 1.82818009-4.527123 4.52571429z" fill-rule="nonzero"/><path d="m149.032955 22.1833268h-2.665832v-9.361409c0-2.7898239-1.115929-4.02939334-3.657769-4.02939334-2.479491 0-4.184383 1.64289624-4.184383 4.77369864v8.6171037h-2.665832v-15.49902152h2.665832v2.54183953c.967619-1.79427776 2.858171-2.89596645 4.896281-2.85322896 3.564423 0 5.610646 2.44849315 5.610646 6.72798435z"/><path d="m163.695029 21.7803523c-.930293.4959686-2.355851.7126027-3.781761.7126027-5.517299 0-8.090137-3.3463797-8.090137-8.090137 0-4.68035225 2.571429-8.0281409 8.090137-8.0281409 1.270565-.04139584 2.533333.21342509 3.688415.74430529v2.47984344c-1.094156-.5157311-2.293106-.77040081-3.502427-.74395303-4.029393 0-5.671233 2.5421918-5.671233 5.5486497s1.673895 5.5486497 5.734286 5.5486497c1.202194.0325832 2.400107-.1565609 3.533777-.5579648z"/><path d="m174.141018 22.492955c-5.796282 0-8.338122-3.3463797-8.338122-8.090137 0-4.68035225 2.603836-8.0281409 7.315538-8.0281409 4.773347 0 6.695225 3.31679061 6.695225 8.0281409v1.2089237h-11.314285c.372329 2.6348336 2.078278 4.339726 5.734638 4.339726 1.607353-.0011798 3.202016-.2845826 4.71135-.8372994v2.4491976c-1.270215.681957-3.223444.9295891-4.804344.9295891zm-5.672642-9.174364h8.648454c-.15499-2.882818-1.456908-4.52571429-4.121331-4.52571429-2.823288-.00035225-4.248141 1.82818009-4.527123 4.52571429z" fill-rule="nonzero"/></g></g></svg>