<svg height="90" viewBox="0 0 180 90" width="180" xmlns="http://www.w3.org/2000/svg"><g fill="#019bf0" transform="translate(0 29)"><path d="m51.9854056 8.39959568-6.9854056 18.55795152h3.1984457l1.663192-4.6524837h7.6506822l1.6631918 4.6524837h3.1984459l-6.9854056-18.55795152zm-1.2282032 11.41028122 2.891395-8.1353486h.1023503l2.8658074 8.1353486zm19.9838893-6.6538315c-.7932145 0-1.5096664.1559492-2.1749432.4938391-.6396891.3118983-1.2282031.8057374-1.7399544 1.4295341v-1.5594918h-2.9169826v13.4376204h2.9169826v-8.0833655c.1023503-1.0656527.4605761-1.8973815 1.0746778-2.4691952.5373389-.5198305 1.177028-.7797458 1.8934799-.7797458 1.9958302 0 2.9937453 1.0916442 2.9937453 3.3009241v8.0313824h2.9169826v-8.2912976c0-3.6907972-1.6631918-5.5102042-4.963988-5.5102042zm12.1796815-3.97670385-2.9169824 1.22160185v3.1189834h-2.3796437v2.4432037h2.3796437v7.5895264c0 1.0916442.2558756 1.8973816.7676269 2.4691953.5373389.6237966 1.3817287.935695 2.5331691.935695h2.2261183v-2.4432037h-1.7399546c-.3070507 0-.5117512-.0779745-.6652766-.2339238-.1535255-.1819406-.2047007-.4158645-.2047007-.7277628v-7.5895264h2.9425703v-2.4432037h-2.9425703zm13.8940487-.77974587v18.55795152h2.9937452v-12.7878321h.1023502l5.3733887 12.7878321h2.584344l5.373389-12.7878321h.102351v12.7878321h2.993745v-18.55795152h-3.505497l-6.192191 14.55525612h-.10235l-6.217779-14.55525612zm28.9907121 4.75644972c-2.021417 0-3.633434.6497883-4.83605 2.0013478-1.228203 1.3255679-1.816717 3.0150172-1.816717 5.0943396 0 2.0533307.588514 3.74278 1.79113 5.0423566 1.228203 1.3515594 2.84022 2.0273392 4.861637 2.0273392 1.995831 0 3.633435-.6757798 4.861638-2.0273392 1.177028-1.2995766 1.79113-2.9890259 1.79113-5.0423566 0-2.0793224-.614102-3.7687717-1.816718-5.0943396-1.228203-1.3515595-2.840219-2.0013478-4.83605-2.0013478zm0 2.4172122c1.202616 0 2.149356.4678475 2.814633 1.4555256.562926.8317289.869977 1.9233731.869977 3.2229496 0 1.2735849-.307051 2.3392376-.869977 3.196958-.665277.9616865-1.612017 1.4555256-2.814633 1.4555256-1.228203 0-2.149355-.4938391-2.814632-1.4555256-.562926-.8317289-.844389-1.8973816-.844389-3.196958 0-1.2995765.281463-2.3912207.844389-3.2229496.665277-.9876781 1.586429-1.4555256 2.814632-1.4555256zm13.35671-6.39391605-2.916982 1.22160185v3.1189834h-2.379644v2.4432037h2.379644v7.5895264c0 1.0916442.255875 1.8973816.767627 2.4691953.537338.6237966 1.381728.935695 2.533169.935695h2.226118v-2.4432037h-1.739955c-.30705 0-.511751-.0779745-.665276-.2339238-.153526-.1819406-.204701-.4158645-.204701-.7277628v-7.5895264h2.94257v-2.4432037h-2.94257zm7.087756-1.14362726c-.562927 0-1.023503.1819407-1.407316.5458221-.383814.36388141-.562927.83172892-.562927 1.40354255 0 .57181366.179113 1.03966116.562927 1.42953406.383813.3638814.844389.5458221 1.407316.5458221s1.023503-.1819407 1.407316-.5458221c.383814-.3638814.588514-.8577204.588514-1.42953406 0-.57181363-.2047-1.03966114-.562926-1.40354255-.383814-.3638814-.869977-.5458221-1.432904-.5458221zm-1.458491 5.48421251v13.4376204h2.916982v-13.4376204zm12.665845-.3638814c-2.021418 0-3.633434.6497883-4.83605 2.0013478-1.228203 1.3255679-1.816717 3.0150172-1.816717 5.0943396 0 2.0533307.588514 3.74278 1.791129 5.0423566 1.228204 1.3515594 2.84022 2.0273392 4.861638 2.0273392 1.995831 0 3.633434-.6757798 4.861638-2.0273392 1.177028-1.2995766 1.791129-2.9890259 1.791129-5.0423566 0-2.0793224-.614101-3.7687717-1.816716-5.0943396-1.228204-1.3515595-2.84022-2.0013478-4.836051-2.0013478zm0 2.4172122c1.202616 0 2.149356.4678475 2.814633 1.4555256.562926.8317289.869977 1.9233731.869977 3.2229496 0 1.2735849-.307051 2.3392376-.869977 3.196958-.665277.9616865-1.612017 1.4555256-2.814633 1.4555256-1.228204 0-2.149356-.4938391-2.814632-1.4555256-.562927-.8317289-.84439-1.8973816-.84439-3.196958 0-1.2995765.281463-2.3912207.84439-3.2229496.665276-.9876781 1.586428-1.4555256 2.814632-1.4555256zm16.043404-2.4172122c-.793214 0-1.509667.1559492-2.174944.4938391-.639687.3118983-1.228202.8057374-1.739953 1.4295341v-1.5594918h-2.916982v13.4376204h2.916982v-8.0833655c.10235-1.0656527.460576-1.8973815 1.074677-2.4691952.53734-.5198305 1.177028-.7797458 1.893481-.7797458 1.99583 0 2.993744 1.0916442 2.993744 3.3009241v8.0313824h2.916983v-8.2912976c0-3.6907972-1.663192-5.5102042-4.963988-5.5102042z"/><path d="m5.41556773 1.08415736 11.46729767 11.54343574 11.438635-11.51458298c.5644319-.67261867 1.4084841-1.09976956 2.351672-1.09976956 1.6992325 0 3.0768276 1.38674173 3.0768276 3.09746342v20.42501132c0 1.7107216-1.3775951 3.0974635-3.0768276 3.0974635-1.6994382 0-3.0770331-1.3867419-3.0770331-3.0974635v-12.9626466l-8.4675716 8.5236649c-.6217968.6259254-1.4442215.9268139-2.2589058.9026654-.8175426.0241898-1.6427829-.2777739-2.2666507-.9058914l-8.4488935-8.5048631v22.7860479c0 1.7109287-1.37759506 3.0976704-3.07703316 3.0976704s-3.07703316-1.3867417-3.07703316-3.0976704v-30.24603219c-.00007007-.01224475-.00006847-.02448987.00000481-.03673461.00296913-1.70817556 1.37942439-3.0919256 3.07702835-3.0919256.93586964 0 1.77413607.42054804 2.33848319 1.08415736zm2.78342578 21.71567254c0 1.4605992 1.17598075 2.644388 2.62653509 2.644388 1.4507599 0 2.6267407-1.1837888 2.6267407-2.644388 0-1.4603924-1.1759808-2.6441812-2.6267407-2.6441812-1.45055434 0-2.62653509 1.1837888-2.62653509 2.6441812z"/></g></svg>