<svg height="90" viewBox="0 0 180 90" width="180" xmlns="http://www.w3.org/2000/svg"><g fill="none" fill-rule="evenodd"><g fill="#333132"><path d="m8.53043478 8.42981366-.88322981-.13416149c-3.01863354-.42484472-3.40993789-1.47577639-3.40993789-2.47080745 0-1.56521739 1.14037267-2.51552795 3.01863354-2.51552795 1.39751553 0 2.62732919.46956522 3.54409938.86086957.3913043.17888198.7043478.26832298.9614907.26832298.8720497 0 1.531677-.65962733 1.531677-1.5204969 0-.55900621-.3018634-1.05093167-.8720497-1.4310559-1.5616078-.87996378-3.32817486-1.33124837-5.12049688-1.30807453-3.93540373 0-6.47329193 2.25838509-6.47329193 5.78012422 0 3.13043478 1.92298137 4.90807449 5.8136646 5.51180129l.88322981.1341614c2.8844721.4248448 3.4546584 1.2968945 3.4546584 2.515528 0 1.6434783-1.36397517 2.6496894-3.67826088 2.6496894-1.54122708-.0219242-3.04345305-.4877307-4.32670808-1.3416149-.22360248-.1341615-.57018633-.3130434-1.00621118-.3130434-.42471984-.0151784-.83735322.1430027-1.14309235.4381991s-.47829679.7020274-.47802566 1.1270182c0 .5590063.25714286 1.0397516.7826087 1.4310559.78260869.5254659 2.97391304 1.7888199 5.94782608 1.7888199 4.42732917 0 7.17763977-2.2695652 7.17763977-5.9142857.1341615-3.1304348-1.7888199-4.95279503-5.72422362-5.55652174z" transform="translate(60.372671 34.826087)"/><path d="m11.4372671 16.5018634h-7.70310561v-4.9863354h6.39503101c.9614907 0 1.6546584-.6484473 1.6546584-1.56521744 0-.89440994-.6931677-1.56521739-1.6546584-1.56521739h-6.39503101v-4.80745342h7.70310561c.9614907 0 1.6658385-.65962733 1.6658385-1.56521739 0-.91677019-.7043478-1.56521739-1.6770186-1.56521739h-9.43602489c-.91677018 0-1.53167702.60372671-1.53167702 1.52049689v16.11055904c0 .9167702.61490684 1.5204969 1.53167702 1.5204969h9.44720499c.9614907 0 1.6658385-.6484472 1.6658385-1.5652174-.0202555-.4241974-.2084528-.8229057-.5230704-1.108159-.3146176-.2852534-.7298006-.4336098-1.1539482-.4123379z" transform="translate(77.142857 34.826087)"/><g fill-rule="nonzero"><path d="m10.263354 6.17142857c0 1.64347826-1.08447201 2.60496895-2.97391301 2.60496895h-4.02484472v-5.1652174h4.02484472c1.93416149 0 2.97391301.90559007 2.97391301 2.56024845zm0 5.16521743c2.0953393-.838819 3.4315705-2.91042582 3.3316771-5.16521743 0-3.47701863-2.4596274-5.73540372-6.26086961-5.73540372h-5.7689441c-.91677018 0-1.53167702.6037267-1.53167702 1.52049689v16.02111806c0 1.0397515.65962733 1.7440993 1.66583851 1.7440993.96149069 0 1.65465839-.7043478 1.65465839-1.7440993v-6.115528h3.54409938l3.49937885 6.8981366c.3913044.6484473.9167702.9614907 1.5763975.9614907.4247199.0151784.8373533-.1430027 1.1430924-.4381991s.4782968-.7020274.4780257-1.1270183c0-.3018633-.0447205-.5590062-.2236025-.8720497z" transform="translate(92.795031 34.826087)"/><path d="m8.38509317 11.426087c1.87826083 0 2.92919253.90559 2.92919253 2.5602484 0 1.6099379-1.0509317 2.5714286-2.92919253 2.5714286h-4.02484472v-5.1428572zm-4.06956522-3.04099383v-4.81863354h3.90186335c1.74409938 0 2.7503106.90559006 2.7503106 2.42608695.0447205 1.4757764-1.00621122 2.39254659-2.7503106 2.39254659zm9.97267085-2.68322982c0-3.26459627-2.2360249-5.22111801-5.99254663-5.22111801h-5.7242236c-.91677018 0-1.53167702.60372671-1.53167702 1.5204969v16.11055896c0 .9167702.61490684 1.5204969 1.53167702 1.5204969h5.64596273c4.0583851 0 6.3726708-2.0906832 6.3726708-5.6459627 0-2.1242236-1.0397515-3.6-2.2248447-4.30434782 1.2745342-.7826087 1.9229814-2.1689441 1.9229814-3.99130435z" transform="translate(108.447205 34.826087)"/><path d="m10.9006211 6.17142857c0 1.64347826-1.08447203 2.60496895-2.97391303 2.60496895h-4.02484472v-5.1652174h4.02484472c1.889441 0 2.97391303.90559007 2.97391303 2.56024845zm-.0447205 5.16521743c2.0953393-.838819 3.4315705-2.91042582 3.331677-5.16521743 0-3.47701863-2.4596273-5.73540372-6.26086953-5.73540372h-5.76894409c-.91677019 0-1.53167702.6037267-1.53167702 1.52049689v16.02111806c0 1.0397515.65962733 1.7440993 1.66583851 1.7440993.96149068 0 1.65465838-.7043478 1.65465838-1.7440993v-6.115528h3.54409938l3.49937887 6.8981366c.3913044.6484473.9167702.9614907 1.5763975.9614907.4247199.0151784.8373532-.1430027 1.1430924-.4381991.3057391-.2951964.4782968-.7020274.4780256-1.1270183 0-.3018633-.0447205-.5590062-.2236024-.8720497z" transform="translate(125.217391 34.826087)"/><path d="m10.3975155 12.2981366h-4.72919252l2.35900621-6.60745337 2.37018631 6.59627327zm5.2881988 5.2546584-5.5565218-15.55155276c-.4807453-1.34161491-1.35279498-1.65465839-2.05714281-1.65465839-.96149068 0-1.60993789.52546584-2.01242236 1.65465839l-5.63478261 15.54037266c-.0447205.178882-.13416149.4360249-.13416149.6931677 0 .8720497.70434783 1.5652174 1.56521739 1.5652174.74906832 0 1.36397516-.4360248 1.58757764-1.173913l1.12919255-3.2086957h6.90931679l1.1403726 3.2086957c.268323.7378882.8385094 1.173913 1.5763976 1.173913.9167702 0 1.5652174-.6484472 1.5652174-1.5652174.0485078-.2334892.0210856-.4763717-.0782609-.6931677z" transform="translate(140.869565 34.826087)"/></g><path d="m2.00124224.34658385c-1.00621118 0-1.66583851.6931677-1.66583851 1.73291926v15.94285709c0 1.0397516.65962733 1.7329193 1.66583851 1.7329193.96149068 0 1.65465838-.6931677 1.65465838-1.7329193v-15.94285709c-.0447205-1.03975156-.6931677-1.73291926-1.65465838-1.73291926z" transform="translate(158.757764 34.826087)"/><path d="m12.9130435.33540373c-.9167702 0-1.5763975.70434782-1.5763975 1.65465838v11.47080749l-7.13291929-11.68322985c-.43602485-.7378882-1.00621118-1.4757764-2.01242236-1.4757764-1.08447205 0-1.78881988.7378882-1.78881988 1.90062112v15.90931673c0 .9503106.65962733 1.6434783 1.56521739 1.6434783.92795031 0 1.58757764-.6931677 1.58757764-1.6434783v-11.38136642l7.0770186 11.59378882c.4024845.6931677 1.0062112 1.4757764 2.0571429 1.4757764 1.0956522 0 1.7888199-.7378882 1.7888199-1.9006211v-15.92049691c0-.99503106-.6484472-1.64347826-1.5652174-1.64347826z" transform="translate(165.465839 34.826087)"/></g><path d="m12.1863354 0c-1.0285714 0-1.6993789.71552795-1.6993789 1.82236025v10.67701865c0 2.4931677-1.28571426 3.9130435-3.51055898 3.9130435-2.26956522 0-3.55527951-1.4198758-3.55527951-3.9130435v-10.67701865c0-1.0621118-.67080745-1.82236025-1.67701863-1.82236025-1.02857143 0-1.74409938.71552795-1.74409938 1.82236025v10.67701865c0 4.4944099 2.57142857 7.1664596 6.93167702 7.2111801h.0447205c4.36024848 0 6.93167698-2.6720497 6.93167698-7.2111801v-10.67701865c0-1.11801242-.6708074-1.82236025-1.7329192-1.82236025z" fill="#333132" transform="translate(44.720497 34.826087)"/><path d="m25.3677019 5.92546584c-3.0788013-3.08454696-7.2580019-4.81791122-11.6161491-4.81791122s-8.53734784 1.73336426-11.61614907 4.81791122c-1.00692862.99038587-1.31216689 2.49271329-.77156863 3.79752092.54059826 1.30480764 1.81888334 2.15106134 3.23119596 2.13912504.92486998.007715 1.81445745-.3545604 2.47080745-1.0062112 1.78093097-1.78931681 4.20592989-2.78831969 6.73043479-2.77267079 3.8180808.02532149 7.249325 2.33590229 8.7084887 5.86424799 1.4591637 3.5283458.6621675 7.587535-2.0227744 10.3022116-.6596274.6708075-1.0062112 1.5428572-1.0062112 2.4596274-.0059729.9220414.3568983 1.8082096 1.007843 2.4612541s1.5359396 1.0187679 2.4579955 1.0157645c.9210039.0047316 1.8060152-.3573185 2.4596273-1.0062112 6.3986765-6.4364868 6.3836762-16.836656-.0335403-23.25465836z" fill="#00a79d" transform="translate(4.47205 27)"/><path d="m29.2136646 20.4931677c-.6536121-.6488927-1.5386235-1.0109428-2.4596273-1.0062112-.9210039-.0047316-1.8060152.3573185-2.4596274 1.0062112-1.7817998 1.7961947-4.2116189 2.7995528-6.7416149 2.7838509-3.821892-.0396212-7.2500078-2.3598463-8.70723145-5.8932481-1.45722361-3.5334017-.66133399-7.59566493 2.02151715-10.31793199.929274-.87055509 1.3103428-2.17830561.9941661-3.41177576-.3161766-1.23347016-1.2793549-2.19664845-2.51282507-2.51282512-1.23347015-.31617666-2.54122068.06489211-3.41177577.9941661-6.42159643 6.41542201-6.42660186 16.82188157-.01117995 23.24347807 6.41542189 6.4215965 16.82188149 6.4266021 23.24347809.0111803.6708075-.6708074 1.0062112-1.5428571 1.0062112-2.4708074.0449458-.9096077-.3056362-1.7942159-.9614907-2.426087z" fill="#223f82" transform="translate(0 31.47205)"/><path d="m2.03478261 4.94161491c.0447205.04472049.08944099.04472049.13416149.08944099 1.83979909 1.77608717 2.8789154 4.22353078 2.8789154 6.7807453 0 2.5572146-1.03911631 5.0046582-2.8789154 6.7807454-.6757062.6511598-1.05744708 1.5491812-1.05744708 2.4875776 0 .9383965.38174088 1.8364179 1.05744708 2.4875777.68198758.6708074 1.59875776 1.0285714 2.57142857 1.0285714.95031056 0 1.86708075-.357764 2.54906832-1.0285714 3.19804561-3.0677978 5.00605361-7.307553 5.00605361-11.7391305 0-4.43157746-1.808008-8.67133261-5.00605361-11.73913041l-.08944099-.08944099z" fill="#00a79d" transform="translate(22.360248 32.590062)"/></g></svg>