<svg height="90" viewBox="0 0 180 90" width="180" xmlns="http://www.w3.org/2000/svg"><g fill="#ff4750" fill-rule="evenodd" transform="translate(0 22)"><path d="m19.5519833.37578288c2.3373695-.45093946 4.7799582-.44718163 7.1173278-.00375783 4.4718162.87181629 8.7858037 2.81085595 12.1039666 5.97870564 4.6334029 4.18246351 7.3691023 10.35281841 7.4104384 16.58705641.1240083 5.6818371-1.954071 11.4012526-5.7569938 15.62881-3.5286012 4.0584551-8.4964509 6.6776618-13.7574112 7.6584551-2.3373696.4471816-4.7799583.4471816-7.1173278-.0037578-5.4563674-1.010856-10.57077244-3.8179541-14.13695198-8.0981211-3.46096034-4.0960334-5.4-9.4546973-5.36617955-14.817119-.04885177-6.2643006 2.61169103-12.5173278 7.22254698-16.77494783 3.34446765-3.25803758 7.72985385-5.26471816 12.28058455-6.15532359zm6.3469729 7.85762004c-3.9457203 4.97536538-7.77119 10.04467638-11.701879 15.03131528-.5448851.8229645-1.9691023 1.9427975-.6463465 2.7394572 2.7732777.1615866 5.5615866.0075156 8.3386221.0676409-.9920668 3.6150313-2.0292275 7.222547-3.0701461 10.822547-.2066806.6425887-.2329854 1.3227557-.2217119 1.9916492 1.3528184.4584551 2.0367432-.8868476 2.7469728-1.7699373 3.8743215-5.0317328 7.8050105-10.0221295 11.6605428-15.0688936.5749478-.5636743.0977036-1.5256785-.6726513-1.4881002-2.6605428-.0826722-5.3210856.0075157-7.9816284-.0375783.7741127-2.8221294 1.5895616-5.6329854 2.3862213-8.451357.372025-1.4392484 1.0183716-2.8484342.8943632-4.37035487-.6425887-.04509394-1.3753653-.13903966-1.732359.53361169z" fill-rule="nonzero"/><path d="m54.7139875 2.72818372c1.9916492-.01127349 3.9832985-.00751566 5.9787056-.00375783-.0187891 8.05678501-.0037578 16.11356991-.0112735 24.17035491-1.9841336-.0112735-3.972025-.0075157-5.9599165 0-.0037578-8.056785.0112735-16.1135699-.0075156-24.16659708z"/><path d="m106.782463 3.46471816c1.924009-.01127348 3.851775-.00751565 5.775783-.00375783-.003757 1.7736952-.007515 3.5473904.003758 5.3210856 1.762422-.01127349 3.521086 0 5.283507-.01878915 0 1.53319412 0 3.07014612.011274 4.60709812-1.773695-.0075157-3.543633-.0112735-5.317328-.0037578.045094 2.1607515-.022547 4.3215031.030063 6.4860125-.003758.811691.300626 1.7098121 1.070981 2.0931107 1.292693.6688935 2.735699.0263048 3.994572-.3832986.379541 1.5256785.834238 3.0325679 1.318998 4.5244259-2.51023 1.3866388-5.629228 1.7473904-8.331106.7440501-2.348643-.8680585-3.735282-3.3407098-3.799165-5.7682672-.075157-2.5665971-.011274-5.1331942-.022547-7.6997913-1.104802 0-2.205846.0037579-3.303132.0075157.007516-1.536952.007516-3.0701461.007516-4.60709812 1.093528.01127349 2.190814.01503132 3.284342.02254698.007516-1.7736952.007516-3.5473904-.007516-5.3210856z"/><path d="m167.31357 3.46096033c1.92025-.00375782 3.844259-.00375782 5.772025.00375783-.015031 1.76993737-.015031 3.53987474-.003758 5.31356994 1.762422-.00375783 3.524844.00375783 5.291023-.01503132 0 1.53695202-.003758 3.07014612.011274 4.60334032-1.773696-.0037579-3.547391-.0075157-5.321086 0 .045094 2.1870563-.03382 4.3741127.030063 6.5611691-.011274.8906054.439666 1.8638831 1.345302 2.1382046 1.243842.4659707 2.529019-.131524 3.712735-.5035491.36451 1.536952.822965 3.051357 1.484343 4.4868476-2.645512 1.3753654-5.903549 1.8713988-8.703132.680167-2.23215-.9244259-3.532359-3.3256785-3.588726-5.6705636-.056368-2.5665971-.011274-5.1294364-.015032-7.6960335-1.101044 0-2.202087 0-3.299373.0075157.011273-1.536952.007515-3.073904.011273-4.61461377 1.08977.01878914 2.183299.02254697 3.276827.0263048.007515-1.7736952.007515-3.5473904-.003758-5.3210856z"/><path d="m70.5231733 10.4354906c2.4501044-2.29227557 6.365762-2.96492693 9.3156576-1.24384133 2.172025 1.24759913 3.2467641 3.78789143 3.314405 6.21544883.045094 3.8217119 0 7.6471816.0187892 11.4726514-1.9089771.0187891-3.8179541.0037578-5.7269312.0112735-.0150313-3.0814197.0112735-6.1665971-.0075156-9.2480167-.0187892-1.2926931-.1878915-2.7845512-1.3152401-3.6112735-1.4580376-1.1949896-3.8292276-.593737-4.7498956.988309-.6162839 1.0108559-.725261 2.2321503-.811691 3.3858037-.0375783 2.8296451.0075156 5.663048-.0150313 8.4926931-1.9014614-.0150313-3.799165-.0150313-5.7006264-.0037578-.0037578-6.0425887 0-12.0814196 0-18.12400836 1.9052193.00751566 3.8104385.00751566 5.7156577-.00375783-.0112735.55615867-.0263048 1.11231733-.0375783 1.66847599z"/><path d="m87.651357 10.6158664c1.5782881-1.74363258 4.0208768-2.35615868 6.2943633-2.39373696 2.3223382.00751565 4.783716.55240083 6.5348647 2.16826726.883089.7816284 1.356576 1.8826722 1.807515 2.9423799-1.702296.4922756-3.4609601.7327766-5.1782879 1.1574113-.7365344-1.9390397-3.0025052-2.6267223-4.8212944-1.8112735-.3269311.6914405-.6839248 1.5294363.1578289 2.0141962 2.6154488 1.0296451 5.7231732.7290188 8.0605424 2.4576201 2.709395 1.9653445 2.604176 6.5574113-.067641 8.5114822-2.5327762 1.9202506-5.9373691 1.9127349-8.94739 1.5068894-2.6643006-.4246347-5.2308977-2.2509395-5.7457202-5.0317328 1.8601252-.3645094 3.7014614-.8079332 5.5728601-1.0935282.6764092 1.9954071 3.2505219 2.5628393 4.9791232 1.6534447.856785-.3757829.8004175-1.7361169-.1052192-2.0141962-2.7056368-1.010856-5.9561587-.6764092-8.297286-2.5966597-2.2283925-1.8-2.1607516-5.4638831-.2442589-7.4705637z"/><path d="m121.956576 11.0893528c2.927349-3.41586637 8.564092-3.82171188 11.991232-.9244259 0-.35323588.003758-1.05594986.007516-1.40918577 1.912734.03382046 3.825469.01503131 5.741962.01878914-.011273 6.03883093 0 12.07766183-.007516 18.11649273-1.912735 0-3.825469-.0150314-5.738204.0150313 0-.3607516 0-1.0897704 0-1.4505219-2.19833 1.9014613-5.347391 2.3448851-8.098121 1.5970772-3.032568-.8943633-5.336117-3.5661795-6.038831-6.6137787-.638831-3.2204593-.154071-6.8617954 2.141962-9.3494781zm4.663466 3.1678497c-1.736117 1.6609603-1.875157 4.6446764-.511065 6.5762004 1.322756 1.8676409 4.227557 2.1720251 5.997495.7853862 2.123173-1.5219206 2.453862-4.8400835.79666-6.8204592-.770355-1.0597078-2.074322-1.427975-3.261796-1.7887266-1.052192.2780794-2.23215.4246347-3.021294 1.2475992z" fill-rule="nonzero"/><path d="m149.636743 10.3866388c2.64927-2.52526093 7.184969-2.98371604 10.063466-.59749475 1.743632 1.45427975 2.502714 3.79164925 2.465135 6.00876825 0 3.7014614 0 7.3991649-.003757 11.0968685-1.908977-.0112735-3.821712-.0075157-5.730689-.0075157-.007516-3.2016701.007515-6.4033403 0-9.6050104.018789-1.2964509-.372025-2.8146138-1.604593-3.4647182-1.337787-.811691-3.20167-.3795407-4.159917.8154489-.774112.9469728-.999582 2.2058455-.995824 3.3970772-.026305 2.9498956-.003758 5.8997913-.007516 8.8534447-1.93904.0150313-3.878079-.0037578-5.813361.0150313 0-6.0463465 0-12.0889353 0-18.13528182 1.93904.02254698 3.878079 0 5.817119.01878915-.011274.53361169-.022547 1.07098121-.030063 1.60459287z"/><path d="m120.693946 33.9745303c.195407-.3908142.139039-1.0935282.736534-1.1048017.665136-.2705637.71023.7553236.950731 1.1311065-.563674.0187891-1.127349.0112735-1.687265-.0263048z"/><path d="m55.3377871 33.2379958c.2254697.0037579.6839248.0112735.9131524.0112735.0037578 2.3561587-.0037579 4.7085595.0037578 7.0647182 1.1461378.0037578 2.2960334.0037578 3.445929 0-.0037578.217954-.0037578.6538622-.0075157.8755741-1.4542797-.0075157-2.9048016-.0075157-4.3590814.0075156-.0075156-2.6530271-.0112735-5.3060542.0037579-7.9590814z"/><g fill-rule="nonzero"><path d="m92.9348643 33.2643006c1.5970772.0263048 3.4835073-.2555323 4.7273486.9995825 1.3528184 1.6121085 1.3528184 4.2951983-.0150313 5.8997912-1.2175365 1.2814196-3.1152401.9995825-4.7048016 1.0258873-.0075157-2.6417537 0-5.2835073-.0075157-7.925261zm1.0672234.7515658c-.1052192 2.1269311-.0901879 4.25762-.0112735 6.3845511 1.0146138-.108977 2.2734864-.0225469 2.9461378-.943215.8605428-1.2363257.8680584-3.006263.131524-4.302714-.6350731-1.0484342-2.0066806-.9845511-3.0663883-1.1386221z"/><path d="m65.1457203 35.5039666c1.1987473-.7478079 2.9123173-.2179541 3.5473903 1.0221294 1.0070982 1.7849687.1503132 4.7874739-2.2058455 4.7762005-2.9987474.1803757-3.7615866-4.4830898-1.3415448-5.7983299zm.4058455.7816284c-1.1048017.9958246-1.1123174 3.1302714.1352818 4.0133612.9319415.5674321 2.1382046-.1954071 2.2847599-1.2137787.6275574-1.4730689-.6839248-3.7653445-2.4200417-2.7995825z"/><path d="m74.3824635 35.7031315c1.3716075-1.0183716 3.1791231-.2668058 4.7123173-.108977-.394572.2668058-.8079332.4960334-1.2363257.6989561.1503132.8229646.330689 1.8263048-.3983298 2.4350731-.6914405.7741128-1.7924844.4734864-2.6943633.5824635-.5599165.5561586.2217119 1.1461378.7365345 1.0784969 1.0860125.0300626 2.1795407.08643 3.2129436.4546972.08643.8154489.2480167 1.8375783-.5674322 2.3599165-1.3716075.9732777-3.9344467 1.1048017-4.7010438-.6839248-.0563674-.5899791.4096033-1.0371608.6350731-1.5444677-.3156577-.7290187-.285595-1.4542797.1916492-2.1043841-.5862213-.9507307-.8981211-2.3787056.1089771-3.1678497zm.4810021.6162839c-.2217119.6876827-.1052193 1.3828811.0901878 2.0592902.2405011.0713988.725261.2104385.965762.2818372.2292276-.0713987.6876827-.2104384.9131524-.2818372.4734865-.9995824.2592902-2.0818371-.7929018-2.5778705-.2931107.131524-.8830898.3908142-1.1762004.5185803zm-.3269312 6.388309c.6613779.5073069 1.5707725.5373695 2.3486431.3231733.6200417-.2179541 1.4016701-.9356994.766597-1.5707724-.9958246-.2968685-2.0555323-.1803758-3.0776618-.2292276-.0375783.4922756-.131524.988309-.0375783 1.4768267z"/><path d="m82.7736952 37.2475992c.3194154-1.5256785 2.1344468-2.5929019 3.5812109-1.8601253 1.4617954.5862213 1.8225469 2.3336117 1.7361169 3.7465553-.5223382 1.1010439-1.3979124 2.3073069-2.7770355 2.1720251-2.0179541.108977-3.182881-2.3524009-2.5402923-4.0584551zm1.8563674-1.0446764c-1.3490605.9056367-1.3302714 3.3219206.1052192 4.1448851 1.0484343.5561587 2.2208769-.5711899 2.2434238-1.6121085.3645094-1.3377871-.8229645-3.3858038-2.348643-2.5327766z"/><path d="m104.508977 40.982881c-2.115658-1.1574113-1.890188-4.8363257.387056-5.6743215.901879-.3682672 2.055533-.0601253 2.607934.7553236.496033.6951983.454697 1.5895616.574947 2.3974948-1.367849.0263048-2.731941.0075156-4.096033.0450939.266806.6538622.39833 1.5031315 1.138622 1.8075157.774113.3983298 1.62714.0187891 2.401253-.1803758l.236743.7177453c-1.022129.3832985-2.239666.725261-3.250522.131524zm-.586221-3.2167015c1.123591.0413362 2.247181.0413362 3.370772.0075157-.304384-.6501044-.402087-1.6083507-1.26263-1.7436326-1.119833-.3382046-1.724844.9093946-2.108142 1.7361169z"/></g><path d="m112.129854 36.8417537c.39833-.5636744.665136-1.3302714 1.386639-1.559499.995824-.3419624 2.40501-.0488518 2.713152 1.0935282-.965762-.0263048-2.078079-.8379958-2.897286.022547-.221712 1.2776617 1.450522 1.2475991 2.202088 1.8338204 1.104801.4246347 1.123591 2.1645094.12025 2.7131524-1.086012.6688935-2.517745.3607516-3.521085-.3269311-.05261-1.2814196 1.134864-.1954071 1.8-.1465553.860542.3118998 1.683507-.3720251 1.337787-1.2776618-1.101044-.7327766-2.604176-.9770355-3.141545-2.3524008z"/><path d="m127.777453 35.6392484c1.28142-.920668 2.90856-.1352818 4.34405-.1991649l-.026305.7365345c-.263048-.022547-.781628-.0601253-1.040918-.0826723.225469.7816284.578705 1.7549061-.082672 2.4313153-.706472 1.0033403-2.021712.7365344-3.066389.7590814.063883.2480167.187892.7440501.251775.9920668 1.26263.3494781 2.762004-.1653445 3.855532.7290188.96952 2.7394572-3.397077 3.7766179-4.930271 2.1006263-.608769-.6463466-.033821-1.4881002.255532-2.1344468-.214196-.7402923-.157829-1.4881002.251775-2.1532359-.638831-.9582463-.84927-2.4012526.187891-3.1791232zm.22547 1.5557412c-.146556.8417536.736534 1.7210856 1.57453 1.3753653 1.014614-.1954071.698956-1.4204593.740292-2.1645094-.289353-.1503131-.868058-.4584551-1.157411-.6125261-.465971.3795407-1.288935.6425887-1.157411 1.4016702zm-.473487 5.0242171c.781629 1.3077244 2.472652 1.0296451 3.596242.3682672-.037578-.3870564-.08643-.7703549-.146555-1.1498956-.935699-.2254697-1.908977-.1691023-2.859708-.2179541-.146555.2480167-.443423.747808-.589979.9995825z" fill-rule="nonzero"/><path d="m136.563257 35.3461378c.221712.0263048.665135.0713987.886847.0977035l-.056367.6087683c.533612-.2931106 1.05595-.6162839 1.623382-.8417537.898121-.2705636 1.957829.308142 2.108142 1.2588727.217954 1.559499.067641 3.1453027.097704 4.719833-.244259 0-.736535-.0037578-.984552-.0037578-.116492-1.6271399.3119-3.3632568-.326931-4.9077245-.815449-.4396659-1.642171.0601253-2.296033.5336117-.015031 1.4580376-.011274 2.9123174-.007516 4.3703549-.263048.0037579-.785386.0112735-1.048434.0187892-.007516-1.9503132-.015031-3.9043842.003758-5.8546973z"/><path d="m154.101044 41.2158664c-2.653027-.702714-2.611691-5.1219207-.030063-5.9035491.890606-.3419624 2.570355-.1352818 2.51023 1.1010439-.792902-.0977036-1.615867-.4659708-2.408768-.1878915-1.28142.879332-1.371608 3.0400835-.120251 3.9795407.811691.6125261 1.788727-.0413361 2.622965-.2329853.105219 1.3340292-1.619625 1.4655532-2.574113 1.2438413z"/><path d="m162.071399 35.4889353c.740292-.4208768 1.683507-.4509395 2.438831-.0413361 2.420041 1.2137787 1.875156 5.817119-1.067224 5.8584551-3.021294.2066806-3.817954-4.4981211-1.371607-5.817119zm.428392.7816284c-.909394.6989561-.909394 1.9878914-.676409 3.0025052.229228 1.0070981 1.548226 1.6271399 2.382464.9131524 1.033402-.8680585 1.070981-2.5929019.229227-3.6150313-.39833-.6313153-1.337787-.5411274-1.935282-.3006263z" fill-rule="nonzero"/><path d="m170.808351 35.42881c.195407-.0187891.589979-.0526096.789144-.0713987.056367.1653444.17286.4960334.232985.6651357.57119-.308142 1.074739-.9093946 1.777453-.8643007.702714-.1014613 1.14238.57119 1.649687.9356994.450939-.3118998.898121-.6425887 1.40167-.8755741.834238-.263048 2.017954.2668059 2.07808 1.2212944.150313 1.5858037.052609 3.1866388.048851 4.7762004-.217954 0-.653862-.0037578-.871816-.0037578-.071399-1.7098121.232985-3.4872652-.39833-5.1256785-.785386-.0037579-1.521921.2217119-2.141962.702714-.007516 1.469311 0 2.9423799-.011274 4.4154488-.263048-.0075157-.789144-.0300626-1.052192-.0413361-.063883-1.5219207.169102-3.0776618-.127766-4.5770355-.499791-.965762-1.732359-.2592902-2.333612.2480167-.011273 1.4505219-.007515 2.9010438-.007515 4.3515658-.341963-.0037579-.683925-.0075157-1.02213-.0075157 0-1.9164927.011274-3.8329854-.011273-5.7494781z"/><path d="m121.114823 35.473904.826722-.3569938c.112735 2.0292276.052609 4.0584551.052609 6.0839249-.229227.0037578-.683924.0037578-.913152.0037578.007516-1.908977-.078914-3.8217119.033821-5.7306889z"/><path d="m146.367432 40.0659708c-.030062-.5862213 1.352819-.2329854 1.19499.2254697-.011274.2217119-.033821.65762-.045094.8755741-.864301.4697286-1.619624-.2217119-1.149896-1.1010438z"/></g></svg>