<svg height="90" viewBox="0 0 180 90" width="180" xmlns="http://www.w3.org/2000/svg"><path d="m18.65625 39.3125h-6v18.6875h-5.296875v-18.6875h-5.953125v-4.0625h17.25zm16.359375 8.953125h-8.921875v5.671875h10.515625v4.0625h-15.8125v-22.75h15.84375v4.0625h-10.546875v4.890625h8.921875zm10.921875-13.015625 5.09375 15.921875h.09375l5.15625-15.921875h6.96875v22.75h-5.296875v-5.640625l.5-10.390625-.09375-.015625-5.484375 16.046875h-3.5625l-5.421875-15.90625-.09375.015625.5 10.25v5.640625h-5.296875v-22.75zm26.171875 14.953125v7.796875h-5.296875v-22.75h9.234375c2.6979302 0 4.8385337.6900973 6.421875 2.0703125s2.375 3.1848847 2.375 5.4140625c0 2.2395945-.7916587 4.044264-2.375 5.4140625s-3.7239448 2.0546875-6.421875 2.0546875zm0-4.0625h3.9375c1.1458391 0 2.0182262-.315101 2.6171875-.9453125s.8984375-1.4400992.8984375-2.4296875c0-1.0104217-.2994762-1.8385384-.8984375-2.484375s-1.4713484-.96875-2.6171875-.96875h-3.9375zm21 7.796875h9.796875v4.0625h-15.09375v-22.75h5.296875zm24.421875-.359375h-7.171875l-1.28125 4.421875h-5.3125l7.34375-22.75h5.671875l7.359375 22.75h-5.3125zm-6-4.0625h4.828125l-2.375-8.140625h-.09375zm28.703125-10.203125h-6v18.6875h-5.296875v-18.6875h-5.953125v-4.0625h17.25zm16.359375 8.953125h-8.921875v5.671875h10.515625v4.0625h-15.8125v-22.75h15.84375v4.0625h-10.546875v4.890625h8.921875zm3.984375 9.734375v-22.75h8.21875c2.677097 0 4.916658.8723871 6.71875 2.6171875s2.703125 3.9817572 2.703125 6.7109375v4.09375c0 2.739597-.901033 4.979158-2.703125 6.71875s-4.041653 2.609375-6.71875 2.609375zm5.296875-18.6875v14.625h2.5625c1.406257 0 2.505204-.481766 3.296875-1.4453125s1.1875-2.2369712 1.1875-3.8203125v-4.125c0-1.5729245-.395829-2.8385369-1.1875-3.796875s-1.890618-1.4375-3.296875-1.4375z" fill="#5fcec0" fill-rule="evenodd"/></svg>