<svg height="90" viewBox="0 0 180 90" width="180" xmlns="http://www.w3.org/2000/svg" xmlns:xlink="http://www.w3.org/1999/xlink"><mask id="a" fill="#fff"/><mask id="b" fill="#fff"><path d="m21.7741935 34.8387097h-21.7741935v-34.8387097h21.7741935z" fill="#fff" fill-rule="evenodd"/></mask><g fill="none" fill-rule="evenodd" transform="translate(0 22)"><path d="m0 0h46.451613v46.451613h-46.451613z" fill="#fff"/><g transform="translate(0 2.903226)"><path d="m22.6706486 6.13091613v.00580645l-22.67083196 16.69587092v-17.52038705c0-3.41535484 3.57371816-5.79193548 6.9518506-4.62309677l13.68733436 4.73690322.0427844.01161291.2554839.09812903h.0055009z" fill="#f67222" mask="url(#a)"/><path d="m-.00006 30.7655064c0 3.4205111 3.441 5.8010541 6.6936 4.6300521l15.5616-5.6030212v-29.33255797l-17.9034 6.44614265c-2.613.94095185-4.3518 3.39560882-4.3518 6.14375742z" fill="#fa9626" transform="translate(0 5.806452)"/><path d="m36.8703103.30685977-15.0961168 5.53503244h14.4186817c2.5717876 0 4.6569255 2.09666579 4.6569255 4.68267169v8.0029827l2.6985864 1.795034v-15.31652139c0-3.47260273-3.4335505-5.88860867-6.6780768-4.69919944" fill="#fbb82c"/><path d="m15.6978245 5.71209354-15.6978245-5.71209354v.36931639l9.30798051 6.67466102c1.55269979 1.56519804 2.36808739 3.32912349 2.36808739 5.12294599v21.0809313l3.5480217 1.2920212c3.1823009 1.1583638 6.5501039-1.1947093 6.5501039-4.5777645v-15.5810483c0-3.8778221-2.4279646-7.34118921-6.076369-8.66896956" fill="#f67222" mask="url(#b)" transform="translate(21.774194 5.806452)"/></g><path d="m73.8653226 36.5225806c-1.2290384 0-2.1749966-.3459643-2.8379032-1.0379032-.6629067-.691939-.9943549-1.6669292-.9943549-2.925v-8.6225806h-1.6258064c-.1741945 0-.324193-.0556447-.45-.1669355-.1258071-.111291-.1887097-.2782247-.1887097-.5008065v-1.2629032l2.3951613-.3483871.682258-4.282258c.0483874-.164517.1306446-.2975803.2467742-.3991936.1161296-.1016135.2709668-.1524194.4645162-.1524194h1.5967742v4.8629033h4.1080645v2.25h-4.1080645v8.4048387c0 .5322607.1306438.9387083.3919354 1.2193548.2612917.2806466.6096753.4209678 1.0451613.4209678.2419367 0 .4499992-.0314514.6241936-.0943549.1741944-.0629036.3241929-.1306448.45-.2032258.1258071-.0725811.234677-.1403223.3266129-.2032258.0919359-.0629036.1814512-.0943548.2685484-.0943548.1741944 0 .3145156.0967732.4209677.2903226l.9290323 1.5241935c-.4838734.4258086-1.0548354.7524181-1.7129033.9798387-.6580678.2274204-1.3354803.341129-2.032258.341129zm13.7758064-6.7064516c-1.1129088.0387099-2.051609.1282251-2.816129.2685484-.76452.1403232-1.3838686.3193538-1.8580645.5370968-.4741959.2177429-.8153216.4766114-1.0233871.7766129-.2080656.3000015-.3120968.6290305-.3120968.9870968 0 .3483888.0556445.6459664.1669355.8927419.1112908.2467754.266128.4499991.4645161.6096774.198388.1596783.4306439.275806.6967742.3483871.2661305.072581.5588694.108871.8782258.108871.8129073 0 1.5120938-.1524178 2.0975807-.4572581.5854867-.3048403 1.1540295-.7475777 1.7056451-1.3282258zm-8.2741935-6.2709677c1.6742019-1.5580723 3.6677304-2.3370968 5.9806451-2.3370968.8516172 0 1.6088678.1379018 2.2717742.4137097.6629067.2758078 1.2193526.6653201 1.6693549 1.1685484s.7935473 1.1008029 1.0306451 1.7927419c.2370979.691939.3556452 1.4588668.3556452 2.3008065v9.4064516h-1.3935484c-.3000015 0-.5274186-.0459674-.6822581-.1379032-.1548394-.0919361-.2854833-.2782244-.3919354-.558871l-.3048387-1.2048387c-.3774213.3387113-.7499982.6411276-1.117742.907258-.3677438.2661303-.7475786.4911282-1.1395161.675-.3919375.1838719-.8129009.3217738-1.2629032.4137097-.4500024.091936-.9459651.1379032-1.4879033.1379032-.600003 0-1.1588683-.0822572-1.6766129-.2467741-.5177444-.164517-.9653207-.413708-1.3427419-.7475807-.3774212-.3338726-.6749988-.7475782-.8927419-1.241129-.2177431-.4935509-.3266129-1.0741902-.3266129-1.7419355 0-.5709706.1524177-1.1274167.457258-1.6693548.3048403-.5419382.808061-1.0282236 1.5096774-1.458871.7016165-.4306474 1.6258008-.7862889 2.7725807-1.0669355 1.14678-.2806466 2.5620883-.4403224 4.2459677-.4790323v-.9870967c0-1.0645215-.227417-1.8580619-.682258-2.3806452s-1.1225763-.783871-2.0032258-.783871c-.600003 0-1.1032238.0749992-1.5096775.225-.4064536.1500007-.7596759.3120959-1.0596774.4862904-.3000015.1741944-.5661278.3362896-.7983871.4862903-.2322592.1500007-.4790309.225-.7403226.225-.2129042 0-.3943541-.0556447-.5443548-.1669355s-.2733866-.2491927-.3701613-.4137097zm18.1306451-8.7387097v21.483871h-3.1209677v-21.483871zm13.5725804 12.4112903c0-.5225832-.074999-1.0088686-.225-1.4588709-.15-.4500022-.37016-.8419338-.660484-1.1758065s-.650804-.5951604-1.081451-.783871c-.430648-.1887105-.92661-.2830645-1.487903-.2830645-1.132264 0-2.022578.3241903-2.670968.9725807-.648391.6483903-1.059677 1.5580586-1.233871 2.7290322zm-7.446774 1.9161291c.03871.8419397.169354 1.5701581.391936 2.1846774.222581.6145191.520159 1.124998.892742 1.5314516.372582.4064536.817739.7088699 1.335483.9072581.517745.198388 1.095965.2975806 1.734678.2975806.60968 0 1.137094-.0701607 1.582258-.2104839.445163-.1403233.832256-.2951605 1.16129-.4645161.329034-.1693557.609676-.3241929.841936-.4645161.232259-.1403234.44516-.2104839.638709-.2104839.251615 0 .445161.0967732.580646.2903226l.885483 1.1467742c-.367743.435486-.783868.8032243-1.248387 1.1032258-.464518.3000015-.958062.5443538-1.480645.7330645-.522583.1887106-1.059675.3241931-1.61129.4064516-.551616.0822584-1.088707.1233871-1.611291.1233871-1.025811 0-1.976608-.1717725-2.852419-.5153226s-1.63548-.8491902-2.279032-1.5169354c-.643552-.6677453-1.146773-1.4951564-1.509678-2.4822581s-.544354-2.1241871-.544354-3.4112903c0-1.0258116.162095-1.9838666.48629-2.8741936s.788707-1.6645128 1.393548-2.3225806c.604842-.6580678 1.340319-1.178224 2.206452-1.5604839.866133-.38226 1.845962-.5733871 2.939516-.5733871.909682 0 1.751609.1475791 2.525807.4427419.774197.2951627 1.441932.728223 2.003225 1.2991936s.999192 1.2701572 1.31371 2.0975806c.314518.8274235.471774 1.7685431.471774 2.8233871 0 .4838734-.053225.8080637-.159677.9725807-.106452.1645169-.299999.2467742-.580645.2467742zm16.272581 3.4403225c.435486.5612932.912094.955644 1.429838 1.1830646.517745.2274204 1.081449.341129 1.691129.341129 1.229039 0 2.187094-.4451568 2.874194-1.3354839.6871-.890327 1.030645-2.2693455 1.030645-4.1370967 0-1.7032344-.297578-2.9467703-.892742-3.7306452s-1.444349-1.1758065-2.54758-1.1758065c-.76452 0-1.429836.1717724-1.995968.5153226-.566132.3435501-1.095965.8346742-1.589516 1.4733871zm0-9.1306451c.60968-.6677453 1.291931-1.199998 2.046774-1.5967742.754842-.3967762 1.616124-.5951613 2.583871-.5951613.861295 0 1.6379.1669337 2.329839.5008065.691939.3338725 1.279836.8153194 1.763709 1.4443548.483874.6290354.856451 1.3911245 1.117742 2.2862903.261292.8951657.391936 1.9040267.391936 3.0266129 0 1.200006-.147579 2.2911241-.442742 3.2733871-.295163.9822631-.718546 1.82419-1.270162 2.5258065-.551615.7016163-1.21935 1.2435464-2.003225 1.6258064-.783875.3822599-1.659673.5733871-2.62742.5733871-.474196 0-.904836-.0459673-1.291935-.1379032-.387099-.091936-.74516-.2249991-1.074194-.3991936-.329034-.1741944-.63145-.3822568-.907258-.6241935s-.539515-.5177404-.791129-.8274194l-.130645 1.1467742c-.048387.2225818-.135483.3822576-.26129.4790323s-.299999.1451613-.522581.1451613h-2.032258v-21.483871h3.120968zm19.654838-2.1919355c1.093554 0 2.083061.1790305 2.968549.5370968s1.640319.8661257 2.264516 1.5241935c.624196.6580678 1.105644 1.4564469 1.444355 2.3951613.338712.9387144.508064 1.9935425.508064 3.1645161s-.169352 2.2258018-.508064 3.1645162c-.338711.9387143-.820159 1.7395127-1.444355 2.4024193-.624197.6629065-1.379028 1.1733853-2.264516 1.5314516s-1.874995.5370968-2.968549.5370968c-1.103231 0-2.097576-.1790305-2.983064-.5370968s-1.642739-.8685451-2.271774-1.5314516c-.629036-.6629066-1.112902-1.463705-1.451613-2.4024193-.338712-.9387144-.508065-1.9935426-.508065-3.1645162s.169353-2.2258017.508065-3.1645161c.338711-.9387144.822577-1.7370935 1.451613-2.3951613.629035-.6580678 1.386286-1.1661272 2.271774-1.5241935s1.879833-.5370968 2.983064-.5370968zm0 12.8177419c1.335491 0 2.329836-.4475762 2.983065-1.3427419.653229-.8951658.979839-2.1749917.979839-3.8395161 0-1.6645245-.32661-2.949189-.979839-3.8540323-.653229-.9048431-1.647574-1.357258-2.983065-1.357258-1.354845 0-2.361287.4524149-3.019354 1.357258-.658068.9048433-.987097 2.1895078-.987097 3.8540323 0 1.6645244.329029 2.9443503.987097 3.8395161.658067.8951657 1.664509 1.3427419 3.019354 1.3427419zm16.57742-12.8177419c1.093554 0 2.08306.1790305 2.968548.5370968s1.64032.8661257 2.264516 1.5241935c.624197.6580678 1.105645 1.4564469 1.444355 2.3951613.338711.9387144.508065 1.9935425.508065 3.1645161s-.169354 2.2258018-.508065 3.1645162c-.33871.9387143-.820158 1.7395127-1.444355 2.4024193-.624196.6629065-1.379028 1.1733853-2.264516 1.5314516s-1.874994.5370968-2.968548.5370968c-1.103232 0-2.097576-.1790305-2.983065-.5370968-.885488-.3580663-1.642738-.8685451-2.271774-1.5314516-.629035-.6629066-1.112901-1.463705-1.451613-2.4024193-.33871-.9387144-.508064-1.9935426-.508064-3.1645162s.169354-2.2258017.508064-3.1645161c.338712-.9387144.822578-1.7370935 1.451613-2.3951613.629036-.6580678 1.386286-1.1661272 2.271774-1.5241935.885489-.3580663 1.879833-.5370968 2.983065-.5370968zm0 12.8177419c1.335491 0 2.329836-.4475762 2.983064-1.3427419.653229-.8951658.979839-2.1749917.979839-3.8395161 0-1.6645245-.32661-2.949189-.979839-3.8540323-.653228-.9048431-1.647573-1.357258-2.983064-1.357258-1.354846 0-2.361287.4524149-3.019355 1.357258-.658068.9048433-.987097 2.1895078-.987097 3.8540323 0 1.6645244.329029 2.9443503.987097 3.8395161.658068.8951657 1.664509 1.3427419 3.019355 1.3427419zm13.296774-19.2629032v12.4548387h.667742c.212904 0 .387096-.0290319.522581-.0870968.135484-.0580648.275806-.1790313.420967-.3629032l4.151613-4.7467742c.145163-.1935493.304837-.3387092.479032-.4354838.174195-.0967747.396773-.1451613.667742-.1451613h2.830646l-4.993549 5.632258c-.290324.3774213-.609676.6774183-.958064.9.193549.1354846.362903.2879023.508064.4572581.145163.1693558.285483.3604828.420968.5733871l5.327419 7.2435484h-2.787096c-.251614 0-.466935-.0411287-.645968-.1233871-.179033-.0822586-.33629-.2346763-.471774-.4572581l-4.282258-5.8064516c-.145162-.2225818-.290322-.3653223-.435484-.4282258-.145162-.0629036-.362902-.0943548-.653226-.0943548h-.769355v6.9096774h-3.120968v-21.483871z" fill="#1e2125" fill-rule="nonzero"/></g></svg>