<svg height="90" viewBox="0 0 180 90" width="180" xmlns="http://www.w3.org/2000/svg" xmlns:xlink="http://www.w3.org/1999/xlink"><linearGradient id="a" x1="23.930556%" x2="76.069089%" y1="95.15293%" y2="4.84636%"><stop offset="0" stop-color="#ffd400"/><stop offset=".2147" stop-color="#ff812b"/><stop offset=".2278" stop-color="#ff7c2e"/><stop offset=".3992" stop-color="#ff414d"/><stop offset=".4812" stop-color="#ff2a59"/><stop offset=".6575" stop-color="#e52a92"/><stop offset=".7563" stop-color="#d82aad"/><stop offset=".8483" stop-color="#c82ad2"/><stop offset=".9463" stop-color="#b92af2"/><stop offset="1" stop-color="#b32aff"/></linearGradient><g fill="none" fill-rule="evenodd" transform="translate(0 29)"><path d="m178.405805 8.16070505h-3.851704v-3.85170387h-4.211915v3.85170387h-3.851704v4.21191535h3.851704v3.8517039h4.211915v-3.8517039h3.851704z" fill="url(#a)"/><g fill="#2c2d3c"><path d="m.194383 8.124747h4.855347v23.217673h-4.855347z"/><path d="m31.2273561 22.8779788.0456874-.3041598h-4.8919389l-.0539366.1935371c-.4439718 1.5916568-1.1462044 2.8040658-2.0878731 3.6033842-.9469565.8041833-2.1189659 1.1950646-3.5828672 1.1950646-2.1286956 0-3.7218331-.6724089-4.8697297-2.0557226-1.1443008-1.3778144-1.7244888-3.3827733-1.7244888-5.959248 0-2.3575558.5922444-4.2241833 1.760235-5.5476381 1.1756052-1.3327614 2.7568978-1.980423 4.8339835-1.980423 1.4681316 0 2.6695417.3798825 3.67255 1.1614336 1.0017391.7811281 1.6544771 1.8742421 1.9954406 3.3415276l.0478026.2051704h4.8949001l-.0387074-.2984489c-.3320799-2.5754171-1.4509988-4.6279671-3.3258754-6.1005405-1.8657814-1.46474736-4.3037133-2.20759108-7.2461105-2.20759108-3.6556286 0-6.5525499 1.06434783-8.6108108 3.16385428-2.05678024 2.0984489-3.09955345 5.0696122-3.09955345 8.8307873 0 3.5763102 1.04488837 6.3854524 3.10568745 8.3495887 2.0565687 1.9609636 4.9788719 2.9550882 8.6858989 2.9550882 1.7847709 0 3.4229612-.3003526 4.8693067-.8923855 1.4431728-.5907638 2.6655229-1.4611515 3.6329965-2.5866275.0767803-.080799.1188719-.1307168.1567333-.1848648l.0511868-.0643008c.0105758-.0116334.0222092-.0239013.0351116-.0365923l.0518214-.0594359c.4826792-.6182609.8549471-1.3027262 1.0941716-2.0195535.2335135-.7024442.4348766-1.6115394.5983784-2.7019037z"/><path d="m54.4217626 11.226416c-2.0451469-2.05804937-4.8942655-3.10166864-8.467403-3.10166864-3.5737721 0-6.4294477 1.04340775-8.4874971 3.10124554-2.0578378 2.0578379-3.1012456 4.9407991-3.1012456 8.5687192 0 3.6014806 1.0436193 6.4641363 3.1018802 8.5080141 2.0569917 2.0440893 4.9124559 3.080517 8.4868625 3.080517 3.5739835 0 6.4228907-1.0364277 8.4671915-3.0807285 2.0443008-2.0447239 3.0807286-4.907168 3.0807286-8.5078026.0002115-3.6268625-1.0362162-6.5098237-3.0805171-8.5682961zm-3.7203525 14.2652644c-1.1214571 1.3687191-2.6741951 2.0339365-4.746839 2.0339365-2.0745476 0-3.6344771-.6595064-4.7690482-2.0161692-1.1303408-1.3503173-1.7037603-3.273208-1.7037603-5.7147356 0-2.4675441.573208-4.4041833 1.7039718-5.7557697 1.1349942-1.3564512 2.6949236-2.0157462 4.7688367-2.0157462 2.0203995 0 3.5608696.653161 4.7096122 1.9969213 1.1430317 1.3386839 1.7225852 3.226886 1.7225852 5.6121504-.000423 2.5221152-.5672855 4.4936545-1.6853584 5.8594125z" fill-rule="nonzero"/><path d="m71.1943361 12.1943126c1.8484371 0 3.2622091.5772268 4.2021856 1.7149706.7231728.8758872 1.1214571 2.0789894 1.1214571 3.3884841v14.1525265h4.8318684v-15.3782609c0-4.3225382-3.6875675-7.83920094-8.2199295-7.83920094-3.4159812 0-5.5510223 1.44972973-6.3103642 2.07327854l-1.0552527.8619271v-2.83240893h-4.8318684v23.11466513l4.8707873-.0002115v-14.1525265c0-1.2405405.4215512-2.4592949 1.1565688-3.3442773.9560517-1.1506463 2.4205875-1.7589659 4.2345476-1.7589659z"/><path d="m95.5338895 8.14314924h-4.1573443v-2.26216217c0-1.24286721.9346886-1.89306698 1.8579554-1.89306698h2.3419036v-3.90246768h-4.6861339c-2.1314454 0-4.3360752 1.66209166-4.3360752 4.44352526v3.61438308h-3.2387309v4.20472385h3.1251468v18.9945476h4.8318684v-18.9945476h4.2616217z"/><path d="m116.844536 11.226416c-2.045147-2.05804937-4.894266-3.10166864-8.467403-3.10166864-3.573772 0-6.429448 1.04340775-8.4874973 3.10124554-2.0578378 2.0578379-3.1012456 4.9407991-3.1012456 8.5687192 0 3.6014806 1.0436193 6.4641363 3.1018802 8.5080141 2.0569917 2.0440893 4.9124557 3.080517 8.4868627 3.080517 3.573983 0 6.422891-1.0364277 8.467191-3.0807285 2.044301-2.0447239 3.080729-4.907168 3.080729-8.5078026 0-3.6268625-1.036428-6.5098237-3.080517-8.5682961zm-3.720564 14.2652644c-1.121457 1.3687191-2.674195 2.0339365-4.746839 2.0339365-2.074548 0-3.634477-.6595064-4.769048-2.0161692-1.130341-1.3503173-1.703761-3.273208-1.703761-5.7147356 0-2.4675441.573208-4.4041833 1.703972-5.7557697 1.134994-1.3564512 2.694924-2.0157462 4.768837-2.0157462 2.020399 0 3.560869.653161 4.709612 1.9969213 1.143032 1.3386839 1.722585 3.226886 1.722585 5.6121504-.000423 2.5221152-.567285 4.4936545-1.685358 5.8594125z" fill-rule="nonzero"/><path d="m153.868907 31.3411516 4.094947-.0014806v-3.732832h-1.902373c-1.034524 0-1.814595-.7735135-1.814595-1.7993654v-13.4596005h3.716757v-4.18357228h-3.716757v-4.78829612h-4.791257v4.78829612h-3.710623v4.18357228h3.710623v14.6855464c.000211 2.0717979 1.687473 4.3077321 4.413278 4.3077321z"/><path d="m132.956968 12.1943126c1.848437 0 3.262209.5772268 4.202186 1.7149706.723173.8758872 1.121457 2.0789894 1.121457 3.3884841v14.1525265h4.831868v-15.3782609c0-4.3225382-3.687567-7.83920094-8.219929-7.83920094-3.415981 0-5.551022 1.44972973-6.310364 2.07327854l-1.055253.8619271v-2.83240893h-4.831868v23.11466513l4.870787-.0002115v-14.1525265c0-1.2405405.421551-2.4592949 1.156569-3.3442773.956051-1.1506463 2.420587-1.7589659 4.234547-1.7589659z"/></g></g></svg>