<svg height="90" viewBox="0 0 180 90" width="180" xmlns="http://www.w3.org/2000/svg" xmlns:xlink="http://www.w3.org/1999/xlink"><linearGradient id="a" x1="99.684716%" x2="39.84444%" y1="15.813813%" y2="97.438839%"><stop offset="0" stop-color="#0052cc"/><stop offset=".923" stop-color="#2684ff"/></linearGradient><g fill="none" fill-rule="evenodd" transform="translate(0 34)"><path d="m6.86089888 10.4882022c-.13290919-.1739208-.34705105-.2657297-.56466158-.2420869s-.40703894.1592986-.49949573.3577049l-5.39224719 10.7811236c-.09987742.199776-.08920095.4370214.02821697.6270187s.32483592.3056568.54818753.3056779h7.50842696c.24569577.0057043.47165849-.1339697.5764045-.3562921 1.61966296-3.3468539.63808988-8.4357303-2.20483146-11.4731461z" fill="url(#a)"/><path d="m10.8158427.68224719c-2.73340846 4.20584045-3.04888541 9.54064151-.83022472 14.03932581l3.61988762 7.2397753c.1091575.2183382.3323002.356269.5764045.3562921h7.5070787c.2233516-.0000211.4307696-.1156806.5481875-.3056779s.1280944-.4272427.028217-.6270187c0 0-10.0995506-20.20146065-10.3533708-20.70674155-.1024025-.2098739-.3158366-.34267256-.5493587-.34181085-.2335221.0008617-.4459703.13523188-.5468211.34585579z" fill="#2684ff"/><g fill="#0052cc"><path d="m98.8698876 9.32662921c0 2.66966289 1.2384274 4.78921349 6.0825844 5.72494379 2.890112.6067416 3.495506 1.0732585 3.495506 2.0366292 0 .9357304-.606742 1.5414607-2.64236 1.5414607-2.460301-.0442356-4.871414-.6966639-7.0183146-1.8991011v4.3483146c1.4588766.715618 3.3852806 1.5138202 6.9633706 1.5138202 5.06427 0 7.073596-2.2584269 7.073596-5.6147191m0 0c0-3.1651685-1.678989-4.6516854-6.412922-5.6696629-2.614719-.5780899-3.247752-1.1558427-3.247752-1.98168539 0-1.04494382.93573-1.48617977 2.669662-1.48617977 2.091911 0 4.15618.63303371 6.110225 1.51382022v-4.15617977c-1.873708-.85282126-3.914378-1.27595018-5.972696-1.23842697-4.678989 0-7.1008994 2.03662921-7.1008994 5.36696629" fill-rule="nonzero"/><path d="m163.932135 4.2347191v18.0829213h3.853146v-13.78921343l1.624045 3.66033703 5.44955 10.1288764h4.844158v-18.0829213h-3.853146v11.67l-1.458877-3.385618-4.376292-8.284382z"/><path d="m135.213371 4.234719h4.211124v18.082921h-4.211124z"/><path d="m130.354382 16.9779775c0-3.1651685-1.678989-4.6516854-6.412921-5.6696629-2.614719-.5780899-3.247753-1.1558427-3.247753-1.98168539 0-1.04494382.93573-1.48617977 2.669663-1.48617977 2.09191 0 4.15618.63303371 6.110225 1.51382022v-4.15617977c-1.873708-.85282126-3.914378-1.27595018-5.972697-1.23842697-4.678989 0-7.100899 2.03662921-7.100899 5.36696629 0 2.66966289 1.238427 4.78921349 6.082584 5.72494379 2.890113.6067416 3.495506 1.0732585 3.495506 2.0366292 0 .9357304-.606742 1.5414607-2.64236 1.5414607-2.460301-.0442356-4.871414-.6966639-7.018314-1.8991011v4.3483146c1.458876.715618 3.385281 1.5138202 6.963371 1.5138202 5.064269 0 7.073595-2.2584269 7.073595-5.6147191"/><path d="m66.1567416 4.2347191v18.0829213h8.6555056l1.362809-3.9084269h-5.7798877v-14.1744944z"/><path d="m49.0560674 4.2347191v3.90808989h4.6789888v14.17483141h4.2384269v-14.17483141h5.0093259v-3.90808989z"/><g fill-rule="nonzero"><path d="m42.9101124 4.2347191h-5.5547191l-6.3057304 18.0829213h4.8155056l.8939326-3.0455056c2.2016146.6464693 4.5426551.6464693 6.7442697 0l.8939326 3.0455056h4.8165168zm-2.7775281 11.7765169c-.7844169-.0000455-1.5647935-.1123063-2.3174158-.3333708l2.3174158-7.89134835 2.3174157 7.89404495c-.7527547.2201522-1.5331288.3315045-2.3174157.3306742z"/><path d="m89.7340449 4.2347191h-5.554382l-6.3057303 18.0829213h4.8165168l.8939326-3.0455056c2.2016146.6464693 4.5426551.6464693 6.7442697 0l.8939326 3.0455056h4.8165168zm-2.777191 11.7765169c-.7844168-.0000455-1.5647935-.1123063-2.3174157-.3333708l2.3174157-7.89134835 2.3174158 7.89404495c-.7527548.2201522-1.5331288.3315045-2.3174158.3306742z"/><path d="m154.599101 4.2347191h-5.554382l-6.30573 18.0829213h4.816517l.893932-3.0455056c2.201615.6464693 4.542655.6464693 6.74427 0l.893932 3.0455056h4.816854zm-2.778876 11.7765169c-.784417-.0000455-1.564794-.1123063-2.317416-.3333708l2.317416-7.89134835 2.317415 7.89404495c-.752754.2201522-1.533128.3315045-2.317415.3306742z"/></g></g></g></svg>