<svg height="90" viewBox="0 0 180 90" width="180" xmlns="http://www.w3.org/2000/svg"><g fill="#dc222b" fill-rule="evenodd" transform="translate(10 18)"><path d="m.85079365.66031746c4.2031746-.03809524 8.39365079-.03809524 12.58412695.02539683-.1396825 17.21904761-.063492 34.45079361-.0380952 51.66984131-4.17777778.0253968-8.35555556.0253968-12.53333334.0126984.02539683-17.2444445.05079365-34.4761905-.01269841-51.70793654z"/><path d="m68.584127.67301587c11.5174603.02539683 24.2412698-1.47301587 34.336508 5.32063492 13.650794 8.68571431 13.765079 31.30158731.571428 40.48253971-9.8539678 7.8095238-23.1619043 5.4984127-34.8317455 5.8412698.0253968-17.2063492.1777777-34.4380952-.0761905-51.64444443zm12.4571428 8.25396826c0 11.66984127.0253969 23.35238097-.0253968 35.02222217 9.9428572 1.1174604 19.974603-7.0984126 19.619048-17.3206349.533333-10.3111111-9.5746035-18.79365077-19.5936512-17.70158727z" fill-rule="nonzero"/><path d="m124.660317 10.2349206c5.688889-7.54285711 16-11.14920631 25.180953-9.05396822 3.415873.71111111 6.526984 2.33650794 9.625397 3.84761905-1.917461 1.62539682-3.911111 3.13650794-5.942857 4.5968254-8.533334-2.43809524-18.501588 2.18412697-21.44762 10.69206347-3.822222 9.0666667 1.993651 20.5460318 11.517461 22.8825397 5.460317 1.7142857 11.339682.0761905 15.923809-3.0984127-.330158 2.6920635-.55873 5.4095238-.736508 8.1142857-5.955555 3.631746-13.346031 5.1555556-20.165079 3.4539683-9.180952-1.8920635-16.749206-9.6761905-18.628571-18.8190476-1.663492-7.7079366-.317461-16.3555556 4.673015-22.6158731z"/><path d="m18.9587302 17.7269841c3.0984127-2.9079365 6.1460317-5.8666666 8.9523809-9.05396823 2.8444445 3.16190473 5.8793651 6.12063493 8.9396826 9.06666663-3.0603175 2.8698413-6.0317461 5.8412699-8.9142858 8.8888889-2.8825396-3.0730158-5.8539682-6.0698412-8.9777777-8.9015873z"/><path d="m18.984127 43.4412698c11.8857143-11.1873015 23.263492-22.9333333 34.7174603-34.57777774 3.0222222 2.95873014 5.9936508 5.98095234 9.0793651 8.87619044-4.5587302 4.1396826-8.6984127 8.6984127-13.2190476 12.8634921 4.4190476 4.3301587 8.7619047 8.7111111 13.1301587 13.0793651-2.984127 2.8571428-5.8920635 5.7904762-8.8126984 8.6984127-4.4952381-4.2031746-8.7492064-8.6603175-13.0920635-13.0285714-4.1269841 4.5079365-8.5968254 8.6857142-12.8253968 13.0920634-3.0095238-2.9841269-5.968254-6.0190476-8.9777778-9.0031746z"/></g></svg>