<svg height="90" viewBox="0 0 180 90" width="180" xmlns="http://www.w3.org/2000/svg"><g fill="#5c5c5c" fill-rule="evenodd" transform="translate(0 28)"><path d="m54.4695652.68086957c2.0895652-.01565218 4.1869565-.01565218 6.2843478 0 .2347827 8.92173913-.2191304 17.85913043.1878261 26.76521743 1.1269566.7043478 2.5043479.7434782 3.7643479 1.0486956.2426087 1.6043478.6026087 3.2008696.5947826 4.8365217-1.5886957 1.3069566-3.9052174.9234783-5.8304348.9547827-3.1069565.0547826-5.1104348-3.24-5.0478261-6.0730435-.0391304-9.1721739-.0626087-18.35217393.0469565-27.53217393z"/><path d="m65.6530435.69652174c2.1678261-.03130435 4.3747826-.21130435 6.4956522.37565217-.0704348 4.34347826-.0078261 8.67913044-.0391305 13.01478259.0156522 4.6252174-.6730435 9.2817392.2113044 13.8756522 1.0878261.0234783 2.1678261.0469565 3.2556521.0547826.2426087 1.9486957.4617392 3.9052174.6573913 5.8617391-2.4573913.3521739-5.0086956.7356522-7.4504347.1173913-2.16-.9860869-3.3182609-3.3886956-3.2086957-5.6973913.086087-9.2034782-.0391304-18.3991304.0782609-27.60260866z"/><path d="m76.6095652.69652174c2.0582609-.03130435 4.1165218-.03913044 6.1747826-.03130435.2191305 4.10869565.8921739 8.42869565-.3052174 12.42782611 2.8173913-2.5513044 6.8634783-4.42173915 10.6434783-3.0365218 2.9113043 1.3539131 3.3965217 5.1026087 3.2165217 7.9513044.0626087 2.3478261.2269566 4.7034782-.1408695 7.0356522.3991304 2.8956521.3130434 5.8226087-.1252174 8.7104347-2.0504348.0156522-4.1086957.0156522-6.1591305-.007826-.1252173-5.6739131.0626087-11.3478261-.1408695-17.0139131-2.1991305-1.5026087-4.5939131.0234783-6.6052174 1.08-.0626087 1.346087-.1643478 2.7-.3052174 4.0382609-.0547826 2.6295652-.1173913 5.2669565.1252174 7.8886956-.1095652 1.3382609-.18 2.6686957-.2582609 4.0069566-2.0817391.0234782-4.1634782.0313043-6.2452174.0313043.1565218-11.0269565 0-22.053913.1252174-33.08086956z"/><g fill-rule="nonzero"><path d="m33.7382609 10.7217391c4.6330434-.8217391 9.4382608-1.67478258 14.1104348-.7043478 2.7860869.7669565 4.3121739 3.6782609 4.327826 6.4252174.0156522 5.7834783.0313044 11.5747826-.0704347 17.3582609-1.7686957.0156521-3.5373913-.086087-5.2904348-.3678261-.0547826-.7513044-.1721739-2.2617392-.2347826-3.0130435-.3365218.5869565-.6730435 1.173913-1.0017392 1.7686957-2.9034782 2.2460869-7.3408695 3.1617391-10.4556521.8530434-2.7547826-2.1208695-2.3556522-5.9165217-2.4730435-8.9921739.6417391-1.7686956 1.4165217-3.7878261 3.3808695-4.4373913 3.1930435-1.0408696 6.6365218-.4304348 9.9391305-.5634782-.2504348-1.0252174-.1486957-2.2382609-.8530435-3.0913044-3.5921739-.36-7.2156522-.1565217-10.8156522-.1017391-.2113043-1.706087-.3991304-3.42-.5634782-5.1339131zm5.1182608 14.9008696c.2113044.9704348.5008696 1.9330435.7982609 2.88 2.2773913.7356522 4.3513044-.4930435 6.1513044-1.7530435 0-.9782609.007826-1.9486956.0234782-2.9269565-2.3243478.4382609-6.0182609-1.2130435-6.9730435 1.8z"/><path d="m98.4130435 10.7295652c5.5173915-.80608694 11.8330435-2.55130433 16.8495655.7826087.923478 1.7686957 1.729565 3.6469565 1.690434 5.6973913.078261 5.5095652.023479 11.0269565-.046956 16.5365218-1.745217.007826-3.482609.0156521-5.227826.0234782-.117391-1.08-.226957-2.16-.313044-3.24-2.73913 4.9930435-12.005217 5.5017391-13.6956518-.5869565-.3286956-3.3495652-1.0565217-7.8808696 2.3321738-9.9626087 3.302609-1.6669565 7.168696-.7121739 10.721739-.9313043-.070435-.446087-.21913-1.3304348-.289565-1.7686957-1.095652-2.9582609-4.867826-1.0252174-7.153043-1.6747826-1.424348.1173913-2.856522.1956522-4.28087.2973913-.18-1.7295652-.3834783-3.4513044-.5869565-5.1730435zm5.4547825 13.2808696c-.007826 1.3930435-.133043 2.8017391.148696 4.1713043 2.246087 1.4634783 4.711304-.2347826 6.581739-1.4869565.015652-.9547826.023478-1.9017391.046956-2.8565217-2.261739.0078261-4.523478-.0156522-6.777391.1721739z"/><path d="m139.093043 14.6426087c1.486957-3.8113044 5.767827-5.30608696 9.586957-5.04 3.435652-.22695653 7.34087 1.0017391 8.851304 4.3669565.774783 2.6452174.430435 5.4313044.086087 8.1156522-3.161739 3.8347826-8.467826 2.1991304-12.764348 2.5747826.547827 1.4478261 1.017392 3.3182609 2.793914 3.6547826 3.083478.3521739 6.19826.0156522 9.25826-.3913043.148696.8373913.305218 1.6826087.477392 2.52.054782.6104347.164348 1.8391304.226956 2.4495652-4.061739 1.5495652-8.49913 1.7452174-12.764348 1.1426087-3.521739-.6026087-5.846087-3.9443479-6.190434-7.3408696-.884348-3.9991304-.399131-8.0921739.43826-12.0521739zm7.677392.813913c-1.846957.6808696-1.510435 2.9895653-2.003478 4.5234783 2.269565.0078261 4.562608.086087 6.808695-.36.039131-1.0956522.078261-2.1913043.117391-3.2869565-.328695-.2817392-.993913-.8373913-1.322608-1.1191305-1.205218.0547827-2.426087-.0156521-3.6.2426087z"/></g><path d="m165.052174 13.2808696c2.926956-2.5434783 6.965217-4.71913047 10.886087-3.2165218 2.621739.9078261 2.91913 3.9678261 3.388696 6.3.007826 1.1113044.015652 2.2304348.03913 3.3417392l-.289565.4930434c.031304 4.5156522.007826 9.0313044-.023479 13.5469566-2.05826.0234782-4.124347.0234782-6.182608 0-.219131-5.7913044.273913-11.6139131-.352174-17.3817392-2.324348-.6652174-5.486087.1252174-6.628696 2.3321739-.273913 5.0008696-.015652 10.0408696-.140869 15.0495653-2.073913.0234782-4.14.0234782-6.206087 0-.039131-7.8182609-.125218-15.6365218.023478-23.4547827 1.706087-.007826 3.42-.007826 5.133913.0156522.117391.986087.234783 1.98.352174 2.9739131z"/><path d="m.39913044 10.353913c2.12086956-.3130434 4.26521739-.3521739 6.38608695-.007826.94695652 4.8443478 1.74521739 9.72 2.69217391 14.5643478.21913044 1.5573913.39130435 3.1226087.6026087 4.6878261.6730435-6.3704348 1.62-12.7252174 2.9426087-18.9939131 2.5043478-.75913041 5.1104348-.62608693 7.6069565.086087 1.2208696 3.6 1.3852174 7.4269565 2.1286957 11.1365217.3286956 2.5513044.5634782 5.1104348 1.08 7.6382609.2113043-2.8408696.6573913-5.6504348 1.1660869-8.4521739.7591305-3.5373913 1.2913044-7.1139131 1.9878261-10.6669565 2.1521739-.3443479 4.3356522-.3443479 6.4956522-.0078261-1.6669565 7.6226087-3.5139131 15.2060869-5.1808696 22.8286956-2.6686956 1.0330435-5.5878261.6573913-8.3269565.1956522-1.8704348-6.1826087-2.066087-12.7095652-3.2713043-19.0173913-.1017392 1.5026087-.1252174 3.0052174-.18 4.5078261-.3678261 1.5495652-.6182609 3.1226087-.8373914 4.7034782-.6026086 3.2869566-.7747826 6.6834783-1.9565217 9.8373913-2.5669565.3365218-5.3373913.8373913-7.84173912-.0156521-.62608696-1.1582609-.9-2.4573913-1.20521739-3.7330435-1.35391305-6.4486957-3.00521739-12.8269565-4.28869565-19.2913044z"/><path d="m116.765217 10.3852174c2.269566-.3521739 4.578261-.43043479 6.84.0391304 1.486957 6.0886957 2.887826 12.2008696 4.484348 18.2582609 1.26-6.1043478 3.005218-12.1069565 4.241739-18.2269565 2.269566-.3913044 4.570435-.46173916 6.863479-.3678261-1.573044 6.7069565-3.96 13.1869565-5.806957 19.8234782-.516522 1.2834783-.586956 2.9973914-1.893913 3.772174-2.183478.2034782-4.374783.0782608-6.566087.1017391-.336522-.1956522-1.025217-.5869565-1.361739-.7904348-2.253913-7.5365217-4.64087-15.0417391-6.80087-22.6095652z"/></g></svg>