<svg height="90" viewBox="0 0 180 90" width="180" xmlns="http://www.w3.org/2000/svg"><path d="m89.9224589 15.0483174c.2989575-.0008678.5859206.1175086.7973164.3289043.2113957.2113958.329772.4983589.3289042.7973163v7.1609404c.0008678.2989574-.1175085.5859205-.3289042.7973163-.2113958.2113957-.4983589.3297721-.7973164.3289043-.3011886.005795-.5916523-.1118016-.8039783-.3254973-.2146594-.2090033-.3325972-.4979511-.3254973-.7974684v-7.1609403c-.0070999-.2995173.1108379-.5884651.3254973-.7974683.212326-.2202057.5027897-.3378023.8039783-.3320073zm-9.8039783.2148282 1.1880651.003255c.7508138 0 1.1262206.3786619 1.1262206 1.1359855v1.9171791c.0057951.3011886-.1118015.5916523-.3254972.8039783-.2092278.2143261-.4980239.3322021-.7974684.3254973h-1.1913201zm-8.6647378 0 1.1978301.0260398c.2963687-.0055559.5817068.1123525.7877034.3254973.2136957.212326.3312923.5027896.3254973.8039783v6.835443c.0021732.2985902-.1150063.58568-.3254973.7974684-.2066142.2161967-.4953.3345105-.7942134.3254973h-1.1913201zm-17.9609403 6.1356239.7323689-5.155877.7291139 5.155877zm48.5316455-6.1486438 1.19783.0260398c.296369-.0055559.581707.1123525.787704.3254973.213695.212326.331292.5027896.325497.8039783v6.8354431c.002173.2985901-.115006.5856799-.325497.7974683-.206615.2161967-.4953.3345105-.794214.3254973h-1.19132zm-51.3699818 11.0669078h2.0538878l.4784811-3.0043399h2.0603978l.4622061 3.0043399h2.0734178l-2.1905968-13.0687161h-2.7146474zm27.4915009 0h1.9725135v-4.918264h1.3019892l1.194575 4.924774h2.1320073l-1.4614829-5.7092225c.6797146-.5890044 1.0654979-1.4474914 1.0546112-2.3468354v-1.8976492c.0489037-.7953311-.1915725-1.5815034-.6770343-2.2133815-.5142857-.605425-1.321519-.9081375-2.4216998-.9081375h-3.1084991zm17.4368897 0h1.9725135v-13.0687161h-1.9725135zm-30.5739603-4.2835443-2.6039783-8.7884267h-2.2133815v13.0817359h1.9725135v-8.3815551l2.7146474 8.3815551h2.1189874v-13.0882459h-1.9725136zm4.4690778 4.2933092h3.1084991c.8261181.01221 1.6199509-.3204213 2.1905967-.9179023.5931411-.582236.9214169-1.3823348.9081375-2.2133816v-6.835443c.0126893-.8267868-.3130273-1.6228523-.9016275-2.2036166-.5719619-.5994925-1.3686604-.9323354-2.1971067-.9179024h-3.0987342zm30.5739607 0h3.098734c.826118.01221 1.619951-.3204213 2.190596-.9179023.593141-.582236.921417-1.3823348.908138-2.2133816v-6.835443c.012689-.8267868-.313027-1.6228523-.901628-2.2036166-.571961-.5994925-1.36866-.9323354-2.197106-.9179024h-3.098734zm-12.2907781-.7616636c.5776646.601011 1.3799185.9337105 2.2133816.9179023 1.7250191-.0053841 3.1200674-1.4062573 3.118264-3.1312839v-7.1381555c0-1.7266638-1.3997376-3.1264014-3.1264014-3.1264014-1.7266639 0-3.1264015 1.3997376-3.1264015 3.1264014v7.1381555c-.0132795.8310468.3149964 1.6311456.9081374 2.2133816zm21.4502711-14.3544304c1.006696 0 1.822785.8160886 1.822785 1.8227848v13.4983725c0 1.0066963-.816089 1.8227848-1.822785 1.8227848h-61.4994573c-1.0066963 0-1.8227848-.8160885-1.8227848-1.8227848v-13.5113924c0-.4834326.1920428-.947065.5338813-1.2889035.3418384-.3418384.8054709-.5338813 1.2889035-.5338813zm8.853526 10.0676311h1.461483l-.719349-5.152622zm2.096203-8.1374322 2.190597 13.0719711h-2.073418l-.462206-3.00434h-2.060398l-.478481 3.00434h-2.050633l2.223147-13.0719711zm7.447378 0 2.063653-.0130199v10.1099458c.018214.8339168-.31487 1.6370996-.917903 2.2133815-.584956.5879471-1.384128.9123167-2.213381.8983726-.826909.0052158-1.621602-.3202961-2.207243-.9041032-.585641-.583807-.913644-1.3774745-.911021-2.2043959v-10.0969259h1.930199v10.0904159c-.0071.2995173.110838.5884651.325497.7974684.212326.2136957.50279.3312923.803978.3254973.298958.0008678.585921-.1175086.797317-.3289043.211395-.2113958.329772-.4983589.328904-.7973164zm3.336347 0 6.155154-.0130199v1.9855335h-2.086438v11.0896926h-1.972513v-11.0799277h-2.096203zm11.799277 0 1.972513-.0130199v13.0752261h-1.972513v-5.5334539h-2.379385v5.5334539h-1.972514v-13.0752261h1.972514v5.5529838h2.379385zm5.683182 10.8650995c.212326.2136957.50279.3312923.803979.3254973.298957.0008678.58592-.1175086.797316-.3289043.211396-.2113958.329772-.4983589.328904-.7973163v-7.1609404c.000868-.2989574-.117508-.5859206-.328904-.7973163s-.498359-.3297721-.797316-.3289043c-.301189-.005795-.591653.1118016-.803979.3254973-.214659.2090033-.332597.4979511-.325497.7974684v7.1609403c-.0071.2995173.110838.5884651.325497.7974683zm-1.347558-10.1327306c.894841-.8926794 2.239339-1.1583553 3.406459-.6731242 1.16712.4852312 1.926973 1.6257929 1.925186 2.8897607v7.1381556c0 1.725765-1.399009 3.1247739-3.124774 3.1247739s-3.124774-1.3990089-3.124774-3.1247739v-7.1349006c-.014344-.8341376.318051-1.6368357.917903-2.2166365zm8.752622 5.4520796h1.188065c.299517.0071.588465-.1108379.797468-.3254973.213696-.212326.331292-.5027896.325497-.8039783v-1.920434c0-.7573237-.375406-1.1359855-1.12622-1.1359855h-1.188065zm1.135985-6.1844485c1.098011 0 1.905244.3027125 2.4217.9081375.484972.6308785.725437 1.4158576.677034 2.2101265v1.8976492c.013481.8994287-.36993 1.7591267-1.048101 2.3500904l1.451718 5.6962026h-2.132007l-1.188065-4.924774h-1.301989v4.924774h-1.985534v-13.0752261zm4.905244 13.0622062v-13.0752261h1.972514v13.0752261zm3.254973-13.0719711 6.155154-.003255v1.9855335h-2.086438v11.0896926h-1.972513v-11.0896926h-2.096203zm12.300543 0 2.190596-.0130199-2.649547 7.6068716v5.4781194h-1.972514v-5.4781194l-2.639783-7.6068716h2.171067l1.448463 4.7066908zm-148.1012661 5.403255c.4815559.0662035.9720289-.003703 1.4159132-.2018083.2250311.9858389.284432 2.0022544.1757685 3.0075949-2.161302-1.2075949-13.0101266-3.7920434-21.00759492-2.278481.00976492-3.9971067 2.29150092-7.9421338 6.38951172-9.45895119l-1.4712477-3.34611212.1985533-.19529837 2.5356239 3.17359855c.7414471-.16976778 1.498449-.26248415 2.2589512-.27667269 1.3372421-.04059545 2.6709955.15781415 3.9385172.58589512l1.3963833-2.46401447.1920434.12368897-.6998191 2.69837251c1.6193938.71668779 2.9940121 1.89105309 3.954792 3.37866189 0 0-1.7869801-.0130199-1.9757685.9960217-.2669078 1.4224231 1.5135624 4.0556962 2.6983725 4.2575045zm-9.237613-.7714286c2.2361663.2636528 5.5367088-2.4640145 4.8141048-3.9092224-.6802893-1.3638337-3.2582278-1.8358047-5.1396021-1.8358047-1.4972875.003255-2.880651.2441229-2.9294756 2.5844484-.0162749.9406872.3254973 2.8188066 3.2549729 3.1605787zm-.3092225 21.7985534c-8.0007495-.0000002-15.21363255-4.8197093-18.27508269-12.211564-3.06145013-7.3918547-1.3685204-15.9000429 4.28932936-21.55696165 5.65784973-5.65691873 14.16631643-7.34844826 21.55766723-4.2857817 7.3913508 3.06266655 12.2098729 10.27634265 12.2085563 18.27709215-.0143491 10.9179757-8.8624922 19.7646628-19.7804702 19.7772152zm-8.4433996-3.9254973c.3254973.1790235.6509946.3450271.9960217.4915009l.0716094.0358047.1627486.0716094.1594937.0683544.1399639.0585895.0781193-.0162748c1.927857-.4087261 3.879137-.6978851 5.8426763-.8658228l.4003617-.0325498c1.321519-.1074141 2.6690777-.1627486 4.0068716-.1692586h.3938517c.9113924 0 1.8260398.0260398 2.7146474.0683545.2864376 0 .5761302.0292947.8658228.0488246.4198915.0260398.8430379.0585895 1.2661844.0943942h.0618445l.0553345-.0227848.0650995-.0325498.3873418-.2245931c.1399638-.0813743.2799276-.1692586.4198915-.2603978.1399638-.0911393.3092224-.1985534.4589511-.3027125l.1074141-.0716094.5696203-.3971067-.6900542-.0716094c-.9960217-.1041591-2.0148283-.1887884-3.0238698-.244123-1.0090416-.0553345-2.0538879-.0911392-3.0824594-.0943942h-.3971067c-1.3605786 0-2.7179023.0553346-4.0361663.1594937-.3840868.0260398-.7714286.0585895-1.1555154.0976492l-.2896926.0325497c-2.0815235.2122197-4.1472613.5579589-6.1844484 1.0350814.1074141-.5793852-.0195299-1.5135624-.8560579-2.9717902l1.8195298-.5045208.0943942-.0488246c.4627578-.2617256.8479635-.641316 1.1164557-1.1001809.3905968-.6314647.8072333-1.7381555.5956601-3.4405063-.1660036-1.3345389-.5370705-2.3858951-1.1034358-3.121519-.4690186-.6770556-1.2307042-1.092301-2.0538879-1.1197106-.0813169-.0043254-.1628061-.0043254-.244123 0l-.3971067.0553345c0-.0455696 0-.0911392 0-.1367089 2.3512619-.5150726 4.7542092-.7564596 7.1609404-.719349 4.6253164.0260398 9.2603978.725859 12.7627486 1.9529838.5394101 2.8844768.9067856 5.7984825 1.1001808 8.7265822l.0358047.5240507.3840868-.361302c.2831827-.2669078.5598554-.5435805.8235082-.8300181l.0748643-.0813743v-.1074141c-.1497287-1.9529838-.3678119-3.8603979-.6509945-5.6864376.9483521.3802428 1.8442176.8801335 2.6658228 1.4875226.1464737.1074141.2864376.2148282.4166365.3254972l.240868.1920434.1367088-.2734177c1.2735697-2.5000951 1.9361789-5.2665445 1.9334539-8.0723327.0023564-7.381155-4.5104797-14.01256652-11.3776001-16.71887619s-14.6907826-.93667178-19.72473573 4.46154737c-5.03395313 5.39821912-6.25357998 13.32625922-3.07487933 19.98788942l.13670886.2864376.24737794-.1985534c1.36383363-1.0969258 4.12405063-2.994575 7.27811936-3.3721519h.0878843c.6509945 0 1.5168173.7844485 1.790235 2.9945751.2734178 2.2101266-.7942133 2.9620253-.953707 3.0499096l-2.42169984.6737794c-.42314647-.3254973-1.23688969-.9341773-1.59819168-.9341773h-.0358047l-.47197107.0390597.29945751.3678119c2.66582278 3.2549729 2.41193488 4.3811935 2.39891498 4.4267632l-.0488246.1822784.1594937.0976492c.2734177.1660036.5207957.3092224.7616637.4394214h.0260397l.0683545.0325497z" fill="#00eb7d" transform="translate(0 25)"/></svg>