<svg height="90" viewBox="0 0 180 90" width="180" xmlns="http://www.w3.org/2000/svg"><g fill="none" fill-rule="evenodd" transform="translate(0 28)"><g transform="matrix(.98162718 -.190809 .190809 .98162718 .545799 6.301854)"><path d="m19.4229622.04912616c1.6274069.00828471 3.6119477 1.19479219 4.4325993 2.65013441l4.8618395 8.62216653c.8206516 1.4553654.8262101 3.8183199.0125067 5.2778486l-4.7546067 8.5280384c-.8137035 1.4595286-2.7926858 2.635956-4.4200926 2.6276295l-9.64161385-.0490339c-1.62740689-.0083264-3.61194004-1.1947766-4.43257617-2.6501418l-4.86185336-8.6221744c-.82063614-1.4553653-.82624483-3.8183199-.01252749-5.2778484l4.75463366-8.52803081c.81371888-1.45950546 2.79267036-2.63595553 4.42007725-2.6276708z" fill="#dd6461"/><g fill="#613433"><path d="m8.10615384 13.7233158c.85274423 0 1.5440293-.6903522 1.5440293-1.5419456s-.69128507-1.5419456-1.5440293-1.5419456c-.85274422 0-1.5440293.6903522-1.5440293 1.5419456s.69128508 1.5419456 1.5440293 1.5419456z"/><path d="m21.230403 13.7233158c.8527673 0 1.5440292-.6903522 1.5440292-1.5419456s-.6912619-1.5419456-1.5440292-1.5419456c-.8527674 0-1.5440293.6903522-1.5440293 1.5419456s.6912619 1.5419456 1.5440293 1.5419456z"/><path d="m12.4130537 21.7490038c1.1779322.4979328 3.3325171.4979328 4.5104339 0 1.3842995-.5851606 2.4932986-1.6926939 3.0792577-3.075102.4986442-1.1763427-.5812499-2.2521813-1.860401-2.2521813h-6.9481319c-1.27911242 0-2.35901863 1.0758386-1.86041321 2.2521813.58594832 1.3824081 1.69497821 2.4899414 3.07925451 3.075102z"/></g><path d="m12.000188 21.1075467c.3698877.2117786 1.0202097.4574644 1.4399772.5321254.7629049.1356836 1.6933214.1356836 2.4562264 0 .4197675-.074661 1.0700895-.3203468 1.4399772-.5321254.4428507-.2535497.8400986-.568338 1.1779322-.9315279.2901231-.3119818.2508276-.8694953-.0870061-1.1292438-.7639085-.5872847-1.8091777-.9946967-2.9882448-1.1197323-.4239904-.0449623-1.117553-.0449623-1.5415434 0-1.1790672.1250356-2.2243363.5324476-2.9882078 1.1197323-.3378483.2597485-.3771801.817262-.0870192 1.1292438.3377788.3631899.7350576.6779782 1.1779083.9315279z" fill="#ab4f4f"/></g><path d="m50.2077289 19.1996c0 3.0926995-1.71736 4.6671647-4.25117 4.6671647-2.5619635 0-4.2793235-1.5744652-4.2793235-4.6671647v-11.21806451c0-.84346349-.506762-1.3495416-1.2387515-1.3495416-.760143 0-1.266905.50607811-1.266905 1.3495416v11.21806451c0 4.6671647 2.7027306 7.000747 6.7568265 7.000747 4.1104028 0 6.7849799-2.3335823 6.7849799-7.000747v-11.21806451c0-.84346349-.5067619-1.3495416-1.2387515-1.3495416-.7601429 0-1.2669049.50607811-1.2669049 1.3495416zm10.5904418 7.000747c3.5754872 0 5.4899215-1.7431579 5.4899215-4.3860102 0-2.193005-1.2387516-3.5144311-4.0540959-3.8237011l-1.4076722-.1405773c-2.027048-.1968082-2.6464238-.7591172-2.6464238-1.8275043 0-1.0965025.8727568-1.8556196 2.5619635-1.8556196 1.0698308 0 2.0833548.2811544 2.984265.7028862.3659947.1686927.6193757.2249237.8446033.2249237.5630688 0 1.013524-.4498473 1.013524-1.0121563 0-.4217317-.2252275-.7310017-.7038362-.9840407-1.0416774-.5904245-2.4493495-.9840407-4.0259424-.9840407-3.1531857 0-4.9831595 1.5463497-4.9831595 4.1048556 0 2.1648896 1.3795187 3.5144313 4.0259425 3.7955858l1.4076721.1405772c2.1396617.2249236 2.6464237.7872326 2.6464237 1.9118506 0 1.1808489-1.013524 2.0243124-2.9561115 2.0243124-1.5202861 0-2.6745772-.5341935-3.7725615-1.1808489-.3378414-.1968081-.5630689-.2530391-.7882964-.2530391-.6475292 0-1.0979843.5060781-1.0979843 1.0683871 0 .3936163.1970741.7310017.5630688.9840408 1.1261378.7872326 2.8434978 1.4901188 4.8986993 1.4901188zm19.0646282-1.9680815-.4786085-.8715789c-.1970741-.3936163-.253381-.6747708-.253381-1.3776571v-4.8358573c0-3.3176231-1.6892066-5.0326655-5.2928474-5.0326655-1.8581273 0-3.2657995.4498471-4.1104028 1.0121561-.3941482.2249236-.5630689.5904245-.5630689.9559253 0 .6185399.3941482 1.0121563 1.013524 1.0121563.1970741 0 .4504551-.0843464.6756826-.1968082.6475293-.3373854 1.7173601-.6747709 2.7590375-.6747709 2.3648893 0 3.2376461 1.0683871 3.2376461 2.9521223v.6466554c0 .1124617-.056307.1686927-.1689206.1686927h-3.0687255c-3.3502598 0-5.2646939 1.3776571-5.2646939 4.1610866 0 2.5585059 1.7455134 4.0486247 4.757932 4.0486247 1.970741 0 3.2376459-.5904244 4.1385562-1.6025807h.0281535l.5349154.8434635c.2815344.3936164.6193757.5904245 1.0416774.5904245.7038361 0 1.210598-.4779627 1.210598-1.124618 0-.2249236-.0844603-.4779626-.1970741-.6747708zm-6.4189851-.0562308c-1.8018204 0-2.8153444-.7028863-2.8153444-2.1086588 0-1.5182342 1.0416775-2.1930051 3.3502598-2.1930051h2.7027307c.1126136 0 .1689206.0562309.1689206.1686927v1.4901189c0 1.6588115-1.3232119 2.6428523-3.4065667 2.6428523zm10.3933676 1.8556196c.6756827 0 1.1824447-.4779627 1.1824447-1.2651952v-.3655008h.0281534c.6475292 1.0683871 1.8299738 1.7993887 3.8288684 1.7993887 2.2804289 0 3.941482-1.2651952 4.6453182-3.3738539.3378413-1.0683871.4786086-2.1367742.4786086-3.683124 0-1.5182343-.1407673-2.5866214-.4786086-3.6550085-.7038362-2.1086588-2.3648893-3.3738539-4.6453182-3.3738539-2.027048 0-3.2094926.7591171-3.8288684 1.7993887h-.0281534v-6.01670625c0-.78723261-.506762-1.26519526-1.1824447-1.26519526-.6756826 0-1.1824447.47796265-1.1824447 1.26519526v16.86926995c0 .7872325.5067621 1.2651952 1.1824447 1.2651952zm4.4763976-2.0243124c-1.520286 0-2.53381-.7591171-2.9842651-2.1086587-.2533809-.7310017-.3096878-1.5744653-.3096878-2.7553141 0-1.1527334.0563069-1.9961969.3096878-2.7271986.4504551-1.3495417 1.4639791-2.1086588 2.9842651-2.1086588 1.4921325 0 2.5056565.7591171 2.9561116 2.1086588.253381.7310017.3096878 1.5744652.3096878 2.7271986 0 1.1808488-.0563068 2.0243124-.3096878 2.7553141-.4504551 1.3495416-1.4639791 2.1086587-2.9561116 2.1086587zm9.6613781-14.28264851c.8446034 0 1.5484394-.70288625 1.5484394-1.54634975 0-.87157895-.703836-1.54634975-1.5484394-1.54634975-.8446033 0-1.5484394.6747708-1.5484394 1.54634975 0 .8434635.7038361 1.54634975 1.5484394 1.54634975zm-1.1824446 15.04176571c0 .7872325.5067619 1.2651952 1.1824446 1.2651952.6756826 0 1.1824447-.4779627 1.1824447-1.2651952v-11.2180645c0-.7872326-.5067621-1.2651953-1.1824447-1.2651953-.6756827 0-1.1824446.4779627-1.1824446 1.2651953zm9.4643035 1.2651952c.788297 0 1.210598-.4498471 1.210598-1.0965025 0-.6466553-.422301-1.0965026-1.097984-1.0965026-.929063 0-1.295058-.4217318-1.295058-1.5463497v-14.39511035c0-.78723261-.506762-1.26519526-1.182445-1.26519526-.675682 0-1.182444.47796265-1.182444 1.26519526v14.53568755c0 2.4179288.872756 3.5987776 3.293952 3.5987776zm4.537452-16.30696091c.844603 0 1.548439-.70288625 1.548439-1.54634975 0-.87157895-.703836-1.54634975-1.548439-1.54634975s-1.54844.6747708-1.54844 1.54634975c0 .8434635.703837 1.54634975 1.54844 1.54634975zm-1.182445 15.04176571c0 .7872325.506762 1.2651952 1.182445 1.2651952.675682 0 1.182444-.4779627 1.182444-1.2651952v-11.2180645c0-.7872326-.506762-1.2651953-1.182444-1.2651953-.675683 0-1.182445.4779627-1.182445 1.2651953zm10.308907 1.2651952c.844604 0 1.266905-.4498471 1.266905-1.0965025 0-.6466553-.422301-1.0965026-1.154291-1.0965026-1.435825 0-1.80182-.4217318-1.80182-1.8556197v-7.4787096c0-.1124618.056306-.1686928.16892-.1686928h1.773668c.647528 0 1.013523-.3936162 1.013523-.9559253 0-.5623089-.365995-.9559252-1.013523-.9559252h-1.773668c-.112614 0-.16892-.0562309-.16892-.1686927v-2.95212227c0-.7872326-.506762-1.26519524-1.182444-1.26519524-.675683 0-1.182445.47796264-1.182445 1.26519524v2.95212227c0 .1124618-.056307.1686927-.168921.1686927h-.760143c-.647529 0-1.013524.3936163-1.013524.9559252 0 .5623091.365995.9559253 1.013524.9559253h.760143c.112614 0 .168921.056231.168921.1686928v7.563056c0 2.811545 1.013523 3.9642784 3.772561 3.9642784zm4.396685 4.9202038c1.942587 0 3.012418-.7028863 4.194862-3.7393549l5.067621-13.2704923c.056307-.1686927.112613-.3655009.112613-.5623091 0-.6185398-.450455-1.0965025-1.154291-1.0965025-.534916 0-.90091.2811545-1.097984.8434635l-3.378414 9.3062139h-.056306l-3.519181-9.3062139c-.197074-.562309-.563068-.8434635-1.126137-.8434635-.675683 0-1.182445.4779627-1.182445 1.0965025 0 .1968082.056307.3936164.112614.5623091l4.589011 11.5554499-.450455 1.2370797c-.591223 1.6025807-1.238751 2.0243124-2.336736 2.0243124-.731989 0-1.154291.4779627-1.154291 1.0965027 0 .6185398.422302 1.0965025 1.154291 1.0965025zm11.688426-6.2697454c0 .8434635.506762 1.3495416 1.266905 1.3495416.731989 0 1.238751-.5060781 1.238751-1.3495416v-7.1132088c0-.1124617.056307-.1686927.168921-.1686927h8.305265c.112614 0 .168922.056231.168922.1686927v7.1132088c0 .8434635.506761 1.3495416 1.266905 1.3495416.731989 0 1.238751-.5060781 1.238751-1.3495416v-16.70057721c0-.84346349-.506762-1.3495416-1.238751-1.3495416-.760144 0-1.266905.50607811-1.266905 1.3495416v6.91640071c0 .1124618-.056308.1686926-.168922.1686926h-8.305265c-.112614 0-.168921-.0562308-.168921-.1686926v-6.91640071c0-.84346349-.506762-1.3495416-1.238751-1.3495416-.760143 0-1.266905.50607811-1.266905 1.3495416zm27.876656-11.1337181c0-.7872326-.506762-1.2651953-1.182444-1.2651953-.675683 0-1.182445.4779627-1.182445 1.2651953v7.1694397c0 1.996197-1.210599 3.2895076-3.040573 3.2895076-2.027047 0-2.984264-1.2651952-2.984264-3.4300848v-7.0288625c0-.7872326-.506762-1.2651953-1.182445-1.2651953s-1.182445.4779627-1.182445 1.2651953v7.5911714c0 3.0645841 1.717361 5.060781 4.645318 5.060781 1.829974 0 3.068726-.7872326 3.716255-1.8275043h.028154v.3936164c0 .7872325.506762 1.2651952 1.182445 1.2651952.675682 0 1.182444-.4779627 1.182444-1.2651952zm4.790832 12.4832597c.675683 0 1.182445-.4779627 1.182445-1.2651952v-.3655008h.028153c.64753 1.0683871 1.829974 1.7993887 3.828869 1.7993887 2.280428 0 3.941482-1.2651952 4.645318-3.3738539.337842-1.0683871.478609-2.1367742.478609-3.683124 0-1.5182343-.140767-2.5866214-.478609-3.6550085-.703836-2.1086588-2.36489-3.3738539-4.645318-3.3738539-2.027048 0-3.209493.7591171-3.828869 1.7993887h-.028153v-6.01670625c0-.78723261-.506762-1.26519526-1.182445-1.26519526s-1.182444.47796265-1.182444 1.26519526v16.86926995c0 .7872325.506761 1.2651952 1.182444 1.2651952zm4.476398-2.0243124c-1.520286 0-2.53381-.7591171-2.984265-2.1086587-.253381-.7310017-.309688-1.5744653-.309688-2.7553141 0-1.1527334.056307-1.9961969.309688-2.7271986.450455-1.3495417 1.463979-2.1086588 2.984265-2.1086588 1.492133 0 2.505656.7591171 2.956111 2.1086588.253381.7310017.309688 1.5744652.309688 2.7271986 0 1.1808488-.056307 2.0243124-.309688 2.7553141-.450455 1.3495416-1.463978 2.1086587-2.956111 2.1086587z" fill="#38444f" fill-rule="nonzero"/></g></svg>