<svg height="90" viewBox="0 0 180 90" width="180" xmlns="http://www.w3.org/2000/svg"><path d="m67.116955.2615917c1.4302611.04756212 2.9556464-.25819441 4.2839887.42126454l-.5401699.07813778c.0169865 1.04296949.0169865 2.08593898.0135892 3.13230576 5.5172067.04076754 11.0344133-.01019188 16.55162.02717836-.0033973 2.30676313-.0067946 4.61692356.0033973 6.92708396-1.2536018.0305757-2.5072035.0237811-3.757408.0237811-.0033973-1.0429695-.0033973-2.08254169 0-3.12551118-9.7094684-.03737024-19.4189368-.01019188-29.1318024-.01019188v3.13570306c-1.2536018 0-2.5072036.0033973-3.7608053-.0101919.0067946-2.31695501.0033973-4.63391003.0033973-6.94746775 5.4424662-.01358918 10.8883296-.0033973 16.3341931-.00679459 0-1.21623152 0-2.42906575 0-3.64529726zm-41.8410821 3.72683233c0-1.24340987 0-2.49021705 0-3.73362692h3.757408c-.0033973 1.24340987 0 2.48681975-.0033973 3.73022963 3.8627241.01019188 7.7254483.00339729 11.5881724.00679459v3.82195659c-8.9722554 0-17.9445109 0-26.9167663 0 0-.61830765.0033973-1.23661529.0033973-1.85492293-1.3283422-.02038377-2.6566845-.02038377-3.98162943.00339729 0 1.96363636.00679458 3.93067002-.00679459 5.89430642 1.36231522.0475621 2.72463042.0339729 4.08694562.0339729v3.7370242c-1.3623152 0-2.7246304-.0135891-4.08694562.033973.01698647 7.2090594.00339729 14.4147216.00679459 21.623781-1.25360177 0-2.50720353.0067946-3.76080529-.0169864-.05775401-3.6554892.13589179-7.3211702-.11550802-10.9698648-.07813778.3159484-.24120793.9478453-.322743 1.2637937-.18345392.4246618-.36011324.8493237-.54016987 1.2773828-.16646744.4790186-.34312677.9546398-.50959421 1.4370557-.17326203.4280591-.33972947.8629128-.51299151 1.2943693-.15287826.4042781-.3193457.8017615-.47901855 1.2026423-1.15508022-.4552375-2.31695502-.8900912-3.46184335-1.3623152.17665933-.5163888.36351054-1.0293803.54696445-1.5457691.36351054-.8968858.70663731-1.7971689 1.0395722-2.7042466.22082415-.5707455.44504561-1.1380937.65228059-1.7088393.17326203-.4314564.33972947-.8629128.5129915-1.290972.16986474-.4756212.34992136-.9478452.5197861-1.4234665.22422145-.5673482.44844291-1.1346964.65907518-1.7088392.17326203-.4314565.33972948-.8663102.51299151-1.2977666.16986473-.4756213.34992136-.9478452.51978609-1.4268638.16986474-.4246618.33972948-.8493237.51299151-1.2739855.16986474-.4654294.34652406-.9274615.52318339-1.3928909-1.40648002-.0169865-2.80956275-.0101919-4.21604278-.0101919 0-1.2468071 0-2.490217 0-3.7370242h4.16168607c0-1.98062282 0-3.96464296 0-5.94526579-1.38609626 0-2.77219252 0-4.16168607 0 0-1.27398553 0-2.54797106 0-3.82195659 4.00201321 0 8.00062913-.0033973 12.00264239 0-.0033973.61491035-.0067946 1.2298207-.0101919 1.84133375 3.8253539.05435672 7.6507077.01358918 11.4794589.02378106zm141.0284991-3.28858131c1.223027-.02717836 2.446053-.03057565 3.672476.01019188-.013589 3.95445109-.003397 7.90550488-.006795 11.859956h9.223656v3.5671594c-3.074552 0-6.149104 0-9.223656 0 0 7.1275244-.003397 14.2584461 0 21.3859705-1.219628.0203837-2.442654.0203837-3.662283.0067946.003397-7.1309217 0-14.2618434 0-21.3927651-3.081347 0-6.162693 0-9.240642 0-.003397-1.1890531-.003397-2.3781063 0-3.5671594h9.240642c-.003398-3.95784842.006794-7.9156968-.003398-11.87014788zm-69.2742367 4.20924819c.0033973-1.17206669.0033973-2.34413338-.0067946-3.51959736 3.9238753-.03057565 7.8511483-.09512425 11.7682293.03397295-.010192 1.15847751-.010192 2.31355772-.003398 3.47203523-3.920478.05775401-7.840956.03057565-11.7580367.01358918zm45.2281847-3.4958163c3.917081-.10531613 7.834162-.05775401 11.751243-.02378106-.010192 1.17206669-.006795 2.34753067-.003398 3.52299465-3.913683.01358918-7.827367.03737025-11.74105-.01358918.003397-1.1618748.003397-2.3237496-.006795-3.48562441zm-28.374205 1.32834225c.027178-.37709972.054356-.75419943.084932-1.12790186 4.813967-.00339729 9.63133.00679459 14.448694-.01019188.475622.04076754 1.032778-.09512425 1.423467.2615917.061151 3.33954073.006795 6.67908147.020384 10.01862218.689651.0067946 1.382699.0135892 2.075747.0237811-.006795 1.1822586-.003398 2.3611198 0 3.5433784-1.916074.0101919-3.828751.0067946-5.741428.0033973.003397-3.4244731-.003398-6.84894621 0-10.27341931-3.02699.02038377-6.057377-.04076754-9.084366.03737024-.05096.88329664-.101919 1.76319597-.152879 2.64649261-.258194 1.10412079-.281975 2.23881726-.353318 3.36671906-.336333 1.382699-.200441 2.8265493-.516389 4.2126455-1.182259-.1019188-2.357723-.2140296-3.536584-.3329349.064549-.8425291.1257-1.6884555.315948-2.5173954.071344-1.1312991.091727-2.2727902.346524-3.38030825.061152-1.03617489.078138-2.08254168.322743-3.09493551.081536-1.12790186.084933-2.26939289.346525-3.37691098zm-16.8505824 6.02680088c2.9794274-.2581944 5.9758414-.05435671 8.9620634-.11890531 1.511796.02378106 3.030387-.08153508 4.535389.11550802.03737 1.11770997.040767 2.23202265-.003398 3.34973265-2.18446.2547971-4.389305.0917269-6.58056.1358918-2.299968-.0475622-4.6135259.1223026-6.9066999-.1358918-.0339729-1.1143127-.0305756-2.23202268-.0067945-3.34633536zm45.2383764-.14948097c4.494621-.09512425 8.989242-.01698647 13.483863-.04076753v3.65209186c-4.501415-.0611513-9.013023.1256999-13.507644-.0951243.030576-.231016.095125-.6930481.1257-.9240641.027179-.3023593.081535-.9002831.108714-1.1992451l-.234414.0237811c.006795-.35331867.016987-1.06335327.023781-1.41667193zm-122.2686375 1.85832023c.4484429-.1290972.9138723-.1426864 1.3759043-.1392891 4.2670022.0271784 8.5340044.0101919 12.7976094.0067946.0067945.438251.0101918.876502.0101918 1.3147531-.1256999 1.8277445.1392891 3.6351053.2242215 5.4560553 1.8005662.057754 3.6011324-.0169864 5.3983013.0305757.4382511-.0407675.7677887.2989619 1.1550803.4416483l-.1223027.2344133c0 6.4446682.0203838 12.8927336-.0101918 19.340799-1.2230261.149481-2.4528468.1256999-3.6792702.057754-.0713432-5.1706826-.0135892-10.3447625-.0271784-15.5154451-.1019188-.1970431-.3091538-.587732-.4110727-.784775-.8493237-.0135892-1.7122365-.0101919-2.5207927.28877-.0407675 4.1243158.0237811 8.2520289-.0339729 12.3763448-2.7721925.2683863-5.5647688.0645486-8.3471532.1290972-1.9500472-.0679459-3.9340673.1936458-5.8569362-.2513998-.057754-4.1684807.0475622-8.3369614-.0543567-12.505442-.8255426-.0271784-1.6510852-.0305757-2.4766278-.0203838-.033973 5.140107-.0033973 10.2768166-.0135892 15.4169236-.1256999.2921673-.2480025.5843347-.3703052.876502-1.1788612.057754-2.3611198.0679459-3.5365838-.0781377-.0407675-6.5771627.0067946-13.1543253-.0203838-19.7314879 2.0825417-.6115131 4.3009752-.1223026 6.4378736-.3023593.0849324-2.2150361-.0781378-4.4334696.0815351-6.6417112zm3.896697 3.5807487c-.0135891 1.0225857-.0101918 2.0451714-.0067945 3.0677571 2.1742686.0237811 4.3519345.0033973 6.5262032.0135892.0441648-1.0225857.0441648-2.0451714.0033973-3.0643599-2.1708714-.0747404-4.3485373-.0611513-6.522806-.0169864zm.0237811 6.8999056c-.0611513 2.9488518-.0237811 5.8977037-.0203838 8.8431582 2.1708714.033973 4.3383454.033973 6.5092168 0 .0679459-2.9488518.0883296-5.9044983-.0169865-8.8533501-2.1572822-.0237811-4.3145643-.0441648-6.4718465.0101919zm28.8464297-7.9598616c10.8815351-.0305757 21.7630701-.0849324 32.6446052.0271784.1698648.9410506 0 1.8990877.1053162 2.846933-.0543568.2921673-.1053162.5843347-.1562756.8798993-4.8513369.0543567-9.7060711-.033973-14.557408.0475621-.0781378 1.6986474-.0679459 3.4006921-.0135892 5.0993394 3.699654.0475622 7.399308.0067946 11.098962.0169865.6081157-.0237811 1.2060396.1053161 1.786977.2751809.0237811 1.1380937.0237811 2.2795848-.0135892 3.4176785-4.2737968.2581944-8.5611827.0203838-12.8417741.1324945-.1290972 2.4630387-.0645486 4.932872-.0407676 7.3959107 3.2851841.8595155 6.7062599.5843347 10.0627871.7406102 2.1810632.0985216 4.402894-.231016 6.5533816.2378106.023781 1.1279019.0271783 2.2558038.0067945 3.3837056-2.051966.4042781-4.1514941.2717836-6.2306385.2581944-4.2364266-.4280591-8.6053476.0169865-12.7160743-1.2943693-2.3441333-.8425291-4.7698018-1.5763447-6.8149732-3.0371815-1.7360176-.9410506-3.0711545-2.408682-4.5557723-3.6690783-.5503617 1.0871343-1.0633532 2.1946524-1.6035231 3.285184-.9614344 1.6035231-1.8141554 3.3089651-3.1391003 4.6508965-.9308588-.5469644-1.7835798-1.2026423-2.6363008-1.8583202.0033973-.2038377.0135892-.6081158.0203838-.8085562.6862535-.8697074 1.2807801-1.8073608 1.8481283-2.7586033.6013212-1.1143127 1.1822586-2.2422145 1.7190312-3.3905002.4280591-1.2332179.8085561-2.4936143.9648317-3.7981755.2683863-1.7122365.1528783-3.4448569.173262-5.1672853 1.1856559 0 2.3713118.0033973 3.5569676-.0033973.0271784 1.6205096-.0067946 3.2444165.0237811 4.8649261 2.0417741 3.2376219 5.2827933 5.5987417 8.7616231 7.1037433.1528783-.645486.2853728-1.3045612.264989-1.9738282-.0101919-3.733627-.0101919-7.4672539 0-11.2008808.0135892-.645486-.0917269-1.2841774-.2378106-1.9092797-4.6780749-.0713432-9.3561497.0135892-14.0342246-.0441648-.0407675-1.2502045-.0373702-2.5004089 0-3.7506134zm44.259956 6.4446681c0-1.1856558 0-2.3679144 0-3.5535703 3.7064487-.0135891 7.4128967-.0101919 11.1193457-.0033973v3.5603649c-3.706449.0067946-7.412897.0101919-11.1193457-.0033973zm45.4014467-3.5603649c3.648695-.0033973 7.297389 0 10.946084 0v3.5671595c-3.648695 0-7.297389.0033973-10.946084 0-.003397-1.1890531-.003397-2.3781063 0-3.5671595zm-29.502107 1.8277446c6.349544-.1019188 12.702485-.0169865 19.055426-.0441648-.030576.6828562-.054357 1.3657125-.084932 2.0485687-.149481.5503618-.275181 1.1109154-.397484 1.6680717-.16307.4552375-.315948.9138723-.468827 1.3725071-1.15508 3.1187166-3.217238 5.8263605-5.622522 8.0855615 2.728027 1.6612771 5.653098 2.9318654 8.625731 4.080151-.1257.4994023-.298962.9818182-.458635 1.4676313-.129097.3295376-.254797.6624725-.373702.9954074-.078138.2276187-.241208.6828562-.319346.910475-3.665681-1.2468072-7.151305-2.9794275-10.361749-5.1469016-3.186662 2.2456119-6.757219 3.9000944-10.450079 5.1333124-.129097-.4110727-.258194-.8221453-.394086-1.2298207-.071343-.1698647-.214029-.5163888-.281975-.6896508-.091727-.3906889-.180057-.7813778-.258195-1.1720667-.108713-.0441648-.319345-.1358918-.428059-.1800566 3.074552-1.0565587 6.135515-2.2795848 8.809185-4.1616861-.964831-1.2569991-2.14709-2.3271469-3.060962-3.6215162-1.131299-1.4608367-1.899088-3.1492922-2.646493-4.8241585-.292167-1.002202-.557156-2.0179931-.638691-3.0609626-.095124-.5435672-.173262-1.0871343-.244605-1.6307015zm4.321359 3.5365838c.101918.2751809.203837.5469645.312551.8221454 1.151683 2.4970116 2.914879 4.6508965 4.898899 6.5296005 1.916074-1.613715 3.451651-3.6351054 4.647499-5.8297578.203838-.5061969.417867-1.0123938.621705-1.5219881-3.492419-.023781-6.988235-.023781-10.480654 0zm-20.2886446 2.2863794c4.3994966.0373703 8.8057876-.0883297 13.2052846.0679459.020384 4.5557723.023781 9.1115445.003397 13.6707141-4.396099.2446052-8.812582.0917269-13.2154762.0883296.0033973-4.6101289-.0101919-9.2202579.0067946-13.8269896zm3.6690786 3.5433784c-.010192 2.23542.020383 4.4742372-.016987 6.7130545 1.956842-.0067946 3.917081.0441648 5.873923-.0509595.030575-2.2150361.050959-4.4334696-.013589-6.6485058-1.950048-.0067946-3.896697.0135892-5.843347-.0135892zm41.538723-3.5399811c4.528593-.0237811 9.057187-.0033973 13.585781-.0101919-.003397 4.6441019-.003397 9.2882039-.003397 13.9289085-4.525197 0-9.053791.0067946-13.582384-.0033973 0-4.6373073.003397-9.278012 0-13.9153193zm3.669078 10.3515571h6.268009c0-1.5661529 0-3.1289085 0-4.691664 0-.2446053 0-.7338157 0-.9750236 0-.2819755 0-.8459264 0-1.1279019-2.089337 0-4.178673 0-6.268009 0z" fill="#161616" transform="translate(0 25)"/></svg>