<svg height="90" viewBox="0 0 180 90" width="180" xmlns="http://www.w3.org/2000/svg"><g fill="none" fill-rule="evenodd"><g fill="#747474" transform="translate(0 31)"><path d="m9.72857143.76403941c2.93940887-.91477833 6.18916257-.84384237 9.06798027.25862069 1.6211823.60147783 3.1019705 1.54581281 4.3965517 2.68669951.133005.13004926.2438424.28226601.3665025.42413793-6.4241379-.00591133-12.8512315-.05172414-19.27536945.03842364l-.07536945-.09014778c1.56945812-1.49113301 3.44926108-2.66305419 5.51970443-3.31773399z"/><path d="m23.61133 4.02413793c.5556651.73152709 1.208867 1.3862069 1.7009853 2.16502463 1.7334975 2.53891626 2.5566502 5.67339904 2.302463 8.73546794-.2793103 4.7334976-3.273399 9.1699508-7.5206896 11.2640395-2.5773399 1.3004926-5.5714286 1.7527093-8.4192119 1.2798029-2.620197-.4019704-5.09261079-1.6285714-7.0522167-3.4049261-.15517242-.1241379-.28226601-.2778325-.36206897-.4596059 3.15221675-.0280788 6.30591137-.0103448 9.45812807-.008867h.2142857c3.2172414-.0133005 6.4344828.0059113 9.6502463-.0103448.1773399-.908867.0029557-1.8310345.0517242-2.7458128.1034482-1.3802956-.0945813-2.762069.0162561-4.1423646.0295567-1.8709359.044335-3.7433497-.0325123-5.6142857-.0206896-.8866995.0857143-1.77192117.0458128-2.65862068-.1019704-1.46600985.0487685-2.93349754-.053202-4.39950739z"/><path d="m.17881773 14.91133c-.33842364-3.9576354 1.20591133-7.98325118 3.99753695-10.79113296.04137931 6.06354676-.00147783 12.12709356.02068965 18.19064036.00295567.4315271-.01330049.8645321-.04285714 1.2960592-2.30985221-2.2980296-3.75665024-5.4413794-3.97536946-8.6955666z"/></g><g fill="#bdbdbd" transform="translate(4 35)"><path d="m.03546798.05024631.03546798.04137931.07536946.09014778c3.09458128 6.49802956 6.31921182 12.935468 9.43448276 19.4231527-3.15221675-.0014778-6.30591133-.0192118-9.45812808.008867-.02660099.0014778-.07980296.0029557-.10640394.0029557.02955665-.4315271.04581281-.8645321.04285714-1.2960591-.02216749-6.0635468.02068966-12.12709364-.02068965-18.19064044z"/><path d="m19.4216749.14334975.0517241-.1093596c.1019705 1.46600985-.0487685 2.93349753.053202 4.39950739.0399015.8866995-.0665025 1.77192118-.0458128 2.65862069.0768473 1.87093596.0620689 3.74334977.0325123 5.61428567-.1108374 1.3802956.0871921 2.762069-.0162562 4.1423646-.0487684.9147783.1256158 1.8369458-.0517241 2.7458128-3.2157635.0162561-6.4330049-.0029557-9.65024631.0103448 3.13891621-6.1655172 6.16108371-12.38866994 9.27487681-18.56748768.1300493-.29261083.2231527-.6.3517242-.89408867z"/></g><path d="m.14630542.1817734c6.42413793-.09014778 12.85123148-.04433498 19.27536948-.03842365-.1285715.29408867-.2216749.60147784-.3517242.89408867-3.1137931 6.17881774-6.1359606 12.40197048-9.27487681 18.56748768-.07241379 0-.14334975 0-.21428571 0-3.11527094-6.4876847-6.33990148-12.92512314-9.43448276-19.4231527z" fill="#fefefe" transform="translate(4 35)"/><g fill="#202124" transform="translate(33 39)"><path d="m108.631876 1.46888141c1.626661-1.7079058 4.703364-1.65668629 6.27174.1077376.574012.61286795.837175 1.4412111.900757 2.26425567-.52809.00176619-1.054415.00176619-1.578974.00176619-.153658-.72237174-.429184-1.49772918-1.093271-1.90218671-1.18688-.84777123-3.28688-.37619848-3.675442 1.12682927-.229604.83894029.351472 1.60899916 1.057948 1.98519765 1.160387.61463414 2.513289.79478553 3.615391 1.53658536 1.02439.61286796 1.81741 1.7626577 1.676115 2.99722456-.052986 1.2592935-1.057948 2.2748528-2.198907 2.675778-1.842136.697645-4.180572.2649285-5.429268-1.3228764-.460976-.5616484-.664088-1.27695543-.725904-1.98696384.517493-.00176619 1.034987-.00176619 1.556013 0 .162489 1.02615644.893692 2.01522284 1.948108 2.23599664 1.038519.2384357 2.331371.0494533 2.986627-.8777965.526325-.73650123.284357-1.86509669-.450378-2.37552562-.863667-.61286796-1.923381-.82481077-2.884189-1.23456686-.909588-.41152229-1.872161-.90428932-2.402018-1.79268293-.651724-1.07031119-.443314-2.54861228.425652-3.43877208z"/><path d="m129.76434.88603869c1.398822-.95727502 3.405214-.87779647 4.766947.11480235.929016.67115223 1.407653 1.79444912 1.533053 2.90891506-.508663 0-1.013793 0-1.518924-.00176619-.181917-.7294365-.44508-1.52952061-1.114466-1.95340623-1.003196-.75063078-2.56804-.50866274-3.306307.4998318-.81598 1.07737594-.930783 2.49209419-.923718 3.79730866-.02296 1.3529016.091842 2.81530698.918419 3.94213626.980235 1.4323801 3.301009 1.450042 4.461396.241968-.003532-.90605548.008831-1.81211099.012363-2.71993269-.817746 0-1.633725 0-2.449705.00176619-.003533-.43095038-.001766-.86190076-.001766-1.29108494 1.303448-.00176619 2.60513-.00176619 3.908578 0 .008831 1.47300252.015896 2.94600504.024727 4.41900754-1.202776 1.4129521-3.209167 2.0487805-5.007149 1.5931035-1.280488-.3143819-2.241295-1.3670311-2.781749-2.52741803-.679983-1.47123633-.679983-3.13851976-.581077-4.72455845.100673-1.61783011.71884-3.30630782 2.059378-4.30067283z"/><path d="m.55458368.37384357c.63229605 0 1.2645921-.00176619 1.89688815.00176619.65349032 2.00815811 1.30698065 4.01631623 1.96047098 6.02447434.70824222-2.00815811 1.41118587-4.01808242 2.12119428-6.02624053h1.90218671c.00176619 4.01808242-.00176619 8.03616484 0 12.05248103-.49629941.0017662-.99436501.0017662-1.49066442.0017662-.02472666-3.27981494.02472666-6.55962991.1236333-9.83767869-.74356602 2.16005046-1.48183347 4.32363331-2.22539949 6.48544996-.29495375-.00176619-.58637511-.00176619-.87956266-.00176619-.67998318-2.10176619-1.35643398-4.20529857-2.04171573-6.30529857.10067284 3.21976451.14659378 6.43776282.12186712 9.65929349-.49629941 0-.99259882 0-1.48889824 0 0-4.01808239 0-8.03616481 0-12.05424723z"/><path d="m14.0447435.37560976c.427418-.00176619.8566022-.00176619 1.2857864-.00176619 1.2751892 4.01808242 2.546846 8.03616484 3.8220353 12.05424723-.510429 0-1.0208579.0017662-1.5295206-.0070647-.3055509-1.0420522-.6305299-2.0770396-.9449117-3.11379313-1.3405383 0-2.6828427 0-4.023381 0-.3232128 1.04028593-.6446594 2.08057193-.9678722 3.12085783-.5121951 0-1.022624 0-1.5312868 0 1.2963836-4.01808239 2.5945333-8.03439862 3.8891506-12.05248104zm.6375946 2.37022708c-.5404542 1.74146341-1.0738436 3.48469302-1.6125315 5.22792262h3.2038688c-.5316233-1.7432296-1.0579479-3.48645921-1.5913373-5.22792262z" fill-rule="nonzero"/><path d="m20.3147183.37384357h8.9386879v1.30698065c-1.2416316.00176619-2.4832632 0-3.7248948.00176619v10.74550039c-.4962995 0-.9925989 0-1.4888983 0 0-3.58183344 0-7.16366691 0-10.74726658-1.2433978 0-2.4832632.00176619-3.7248948 0-.0017662-.43624895-.0017662-.8707317 0-1.30698065z"/><path d="m31.3463415.37384357c2.4426408-.00176619 4.8852817 0 7.3279226 0-.0017662.43624895-.0017662.8707317 0 1.30698065-1.932212.00176619-3.8644239 0-5.7948697 0-.0017661 1.29285114-.0017661 2.58393608 0 3.87502103h5.0318756c0 .43271657-.0017662.86543314 0 1.29991589-1.6778806 0-3.353995 0-5.0318756 0-.0017661 1.4235492-.0017661 2.84709841 0 4.27241376 1.9551725 0 3.9121111-.0017662 5.8672835 0v1.2999159c-2.4656014 0-4.9329689 0-7.4003364 0 0-4.01808239 0-8.03616481 0-12.05424723z"/><path d="m41.5390244.37384357c1.7308663.07947855 3.5164844-.213709 5.2049621.27552565 1.3740959.38502943 2.4073171 1.69554247 2.4037847 3.131455.14836 1.49772919-.9254836 2.82590412-2.2430614 3.39814971.8601346 1.75029436 1.7414635 3.48822537 2.5945333 5.24205217-.5545837.0088309-1.1074012.0070647-1.6602187.0070647-.7859546-1.6372582-1.5825063-3.27098399-2.35963-4.91177457-.8071488-.01236333-1.6125315-.00529857-2.4179142-.00529857-.0017662 1.6372582-.0017662 3.27628264 0 4.91530694-.5086627.0017662-1.0155593.0017662-1.5224558.0017662 0-4.01808239-.0017662-8.03616481 0-12.05424723zm1.5224558 1.25929352c-.0017662 1.54011775-.0017662 3.0784693 0 4.61682086.8972246-.02472666 1.8050463.0706476 2.6969723-.07594618.6428932-.18191757 1.3087468-.5333894 1.6195963-1.15685449.5351556-1.06501262.176619-2.59806561-.9714046-3.0978974-1.0614802-.42035324-2.2324642-.25433137-3.345164-.28612279z" fill-rule="nonzero"/><path d="m51.6363331.37384357h7.2837678v1.33170731c-.9625736 0-1.9251472 0-2.8877207 0-.0017662 3.1332212-.0017662 6.26644239 0 9.39789742h2.8877207v1.3246425c-2.4285113 0-4.8570227 0-7.285534 0 0-.4433137 0-.8848612.0017662-1.3264087.9413793.0017662 1.8809924.0017662 2.8223717.0017662 0-3.13322122 0-6.26467622 0-9.39789742-.9413793 0-1.8827586 0-2.8223717.00176619-.0017662-.4450799-.0017662-.89015979 0-1.3334735z"/><path d="m61.0660219 12.4280908c1.2981497-4.01808239 2.592767-8.037931 3.8926829-12.05424723h1.282254c1.2751892 4.01808242 2.5486123 8.03616484 3.8220353 12.05424723-.5086627 0-1.0155593 0-1.5224558 0-.3161481-1.0402859-.6358285-2.0805719-.9502103-3.12085783-1.3423045 0-2.6846089-.00176619-4.0269134.00176619-.3214466 1.04028594-.6428932 2.07880574-.9661059 3.11909164-.5121952 0-1.0226241 0-1.5312868 0zm2.9142136-4.45433134h3.2021026c-.5280908-1.7432296-1.0579479-3.48645921-1.5878049-5.22968881-.5422203 1.7432296-1.0756097 3.48645921-1.6142977 5.22968881z" fill-rule="nonzero"/><path d="m72.189487.37384357h1.5312868c0 3.58536585-.0017662 7.16896551 0 10.75433133h5.8937762c0 .4327166 0 .8654332.0017662 1.2981497-2.4761985.0035324-4.9506308.0017662-7.4268292.0017662 0-4.01808239 0-8.03616481 0-12.05424723z"/><path d="m87.4093356.37384357c1.8633305.05651808 3.883852-.26492851 5.5776282.70824222 1.4888983.79655172 2.3402019 2.44793944 2.4832633 4.09049621.1430614 1.66728343.102439 3.46879731-.7983179 4.9382675-.7682927 1.2857863-2.1918419 2.0929352-3.6648444 2.2465937-1.1957107.1289319-2.3984862.0494534-3.5977292.0706476 0-4.01808239 0-8.03616481 0-12.05424723zm1.5560134 1.25929352c-.0017662 3.18090833-.0017662 6.36358284 0 9.54449121 1.2116064.0176619 2.5609756.0635828 3.558873-.7453323 1.2628259-.97140449 1.5206897-2.68814125 1.4765349-4.18057186.0194281-1.43238015-.3267451-3.05727502-1.5630782-3.93507149-.994365-.74356602-2.2942809-.69941127-3.4723297-.68351556z" fill-rule="nonzero"/><path d="m97.7874685.37384357h7.3261565c-.001766.43624895-.001766.8707317 0 1.30698065-1.932212.00176619-3.862658 0-5.7948697.00176619v3.87325484c1.6778807 0 3.3557607-.00176619 5.0354077 0-.003532.43448276-.003532.86719933-.001766 1.29991589-1.677881 0-3.355761 0-5.0336417 0-.0017662 1.4235492 0 2.8488646 0 4.27241376h5.8690497c0 .4327166 0 .8654332.001766 1.2999159-2.467367 0-4.934735 0-7.4021025 0 0-4.01808239 0-8.03616481 0-12.05424723z"/><path d="m118.07746.37384357h7.283768v1.3334735c-.96434-.00176619-1.926913-.00176619-2.887721 0-.001766 3.13145501-.003532 6.2646762 0 9.39613123.962574-.0017662 1.925147 0 2.887721 0-.001766.4397813 0 .8813288.001766 1.3228763-2.428511.0017662-4.858789.0035324-7.2873 0 0-.4415475 0-.8813288.001766-1.3228763h2.822372c0-3.13322122 0-6.26467622 0-9.39613123-.94138-.00176619-1.882759 0-2.822372-.00176619-.001766-.44331371-.001766-.8883936 0-1.33170731z"/><path d="m138.174937.37384357h1.55778c1.559545 2.99545836 3.115559 5.99444911 4.676871 8.98990748.010597-2.99545837.014129-5.99268293.024727-8.98990748h1.547182c.001766 4.01808242 0 8.03616484 0 12.05424723-.517494 0-1.034987 0-1.550715.0017662-1.56661-2.99899073-3.119092-6.00681242-4.68217-9.00756936-.008831 3.00252313-.017662 6.00328006-.024726 9.00580316-.517494 0-1.033222 0-1.548949 0 .001766-4.01808239 0-8.03616481 0-12.05424723z"/></g></g></svg>