<svg height="90" viewBox="0 0 181 90" width="181" xmlns="http://www.w3.org/2000/svg"><g transform="translate(1 33)"><path d="m148.947384.34273256c.622674-.18575582 1.323837-.17267442 1.95436-.00784884 1.206105.62005814 1.206105 2.68430233-.026163 3.2755814-.811046.35058139-1.956976.2747093-2.501162-.49970931-.575582-.86337209-.400291-2.26569767.572965-2.76802325z"/><path d="m2.13488372 3.43517442c2.6372093-2.44883721 7.17645349-1.84709302 9.49447678.76918605-.8188954.63313953-1.63517445 1.26366279-2.45668608 1.88895348-.85813954-1.24796511-2.49069768-1.88110465-3.94796512-1.39447674-.92354651.24331395-1.54098837 1.42848837-1.00203488 2.27354651.59127907.74825581 1.56976744.97848837 2.42790698 1.27412791 1.53837209.5127907 3.25203488.92093023 4.3639535 2.19505817 1.4206395 1.5985465 1.0831395 4.2226744-.3610465 5.6930232-1.3159884 1.3892442-3.34360468 1.8366279-5.1906977 1.6299419-2.07732558-.1255814-3.9872093-1.2741279-5.32151163-2.830814.89476744-.6697674 1.78953488-1.3369186 2.6869186-2.006686.61220931.8424418 1.40232559 1.6299418 2.44622093 1.8889535 1.0386628.2747093 2.38604652.2328488 3.08459303-.7090117.58081395-.6776162.60697674-1.8654069-.23023256-2.3546511-1.88110465-1.1668605-4.36133721-1.1119186-6.05406977-2.63720932-1.62994186-1.44156977-1.49389535-4.23313954.06017442-5.67994186z"/><path d="m108.737791 1.93081395c2.417442.08633721 4.892442-.2616279 7.260174.36889535 1.951744.54156977 3.749128 1.8130814 4.677907 3.64447675 1.412791 2.76540697 1.208721 6.37848835-.750872 8.83517445-1.520058 1.8968023-3.953198 2.9485465-6.360174 2.9877907-1.609012.0235465-3.218024 0-4.824419.0078488-.002616-5.2822674-.002616-10.5619186-.002616-15.84418605zm2.995639 2.74447675c-.002616 3.45087209-.002616 6.9017442 0 10.3526163 1.206105.0104651 2.456686.0392442 3.597384-.421221 1.656105-.5965116 2.925-2.1322674 3.181395-3.8747093.287791-1.81308135-.251162-3.89563949-1.818314-4.98662786-1.425872-1.03866279-3.265116-1.10930233-4.960465-1.07005814z"/><path d="m15.2659884 6.61395349c2.3049418-2.03023256 6.1848837-2.15581396 8.4061046.07587209-.0078488-.54156977-.0104651-1.08052325-.0130814-1.61947674.9915698-.00261628 1.9857558-.00261628 2.9773256-.00261628.0026163 4.24098837 0 8.48197674.0026163 12.72034884-.9941861.0052326-1.9883721.0026163-2.9825582 0 .0026163-.5860465.0078489-1.1694767.018314-1.7555233-2.2944767 2.5377907-6.6322674 2.221221-8.8482558-.2511628-2.3651163-2.4880813-2.1819768-6.93052321.4395349-9.16744181zm3.6497093 1.26104651c-1.8104651.41337209-3.1343024 2.3075581-2.7497093 4.1546512.3139535 2.1453488 2.7078488 3.4927325 4.7459302 2.9642441 2.1061047-.3898255 3.4875-2.8569767 2.6738372-4.8531976-.6436046-1.84709305-2.8334302-2.80465119-4.6700581-2.2656977z"/><path d="m28.4180233 5.07034884c.9863372-.00261628 1.9752907-.00261628 2.9616279-.00261628 0 .52848837 0 1.05436046-.0052326 1.58023256 1.9831395-2.29709303 6.2215116-2.15319768 7.8305233.50494186 1.6116279-2.30494186 5.0101744-2.68691861 7.3491279-1.33691861 1.4729651.90261628 2.1008721 2.69738372 2.0877907 4.35610463.0156976 2.540407 0 5.0781977.0052325 7.6186047-1.0151163 0-2.0302325 0-3.0427325-.0026163-.0026163-2.3546512.0052325-4.7093023-.0026163-7.0613372.0156977-.97587211-.225-2.07470932-1.077907-2.66075583-1.2087209-.77965116-3.0505814-.59127907-3.9296512.60174419-.5572674.73255814-.5938953 1.69534884-.5991279 2.57965114.0052326 2.1793605.0026163 4.3613372.0026163 6.543314-1.0098837 0-2.0197674 0-3.0270349-.0026163-.0026162-2.4331395.0052326-4.8688954-.0026162-7.3020349.0261627-.96802324-.3034884-2.0616279-1.208721-2.54563952-1.1694767-.60174419-2.7811046-.4133721-3.6497093.62005814-.6383721.73255814-.7168604 1.75029068-.7168604 2.67906978.0026162 2.1819767.0052325 4.3665698.0026162 6.5511628-.9915697 0-1.9857558 0-2.9773255-.0026163 0-4.2383721 0-8.47674419 0-12.71773256z"/><path d="m52.3936047 5.55436047c2.7-1.09883721 6.2947674-.48924419 7.9090116 2.11918604-.8398256.40552326-1.6848837.8005814-2.5325582 1.19040698-.9078488-1.27936047-2.7366279-1.73982558-4.144186-1.07267442-.6122093.27732558-.9680233 1.27151163-.2799419 1.66918605 1.7790698.82151158 3.8877907.69593018 5.5831396 1.74244188.7613372.4552325 1.3709302 1.2270349 1.4625 2.1296511.2145349 1.3761628-.5572675 2.7497093-1.6901163 3.4979652-1.6430233 1.1197674-3.7831395 1.1433139-5.6642442.7404069-1.5593023-.3401162-2.8648256-1.4258721-3.6235465-2.8125.9130814-.4159883 1.8287791-.8241279 2.7444767-1.2296511.9078489 1.5462209 3.0244186 2.1872093 4.6229652 1.378779.6409883-.3270348 1.0334302-1.4258721.2223837-1.7973837-1.4206396-.6906977-3.0662791-.6540697-4.5366279-1.2139535-1.2218024-.3819767-2.3965117-1.3656976-2.4802326-2.72354648-.225-1.60639535.9837209-3.04534884 2.4069768-3.61831395z"/><path d="m61.5636628 5.07034884c1.0098837-.00261628 2.0171512-.00261628 3.0244186-.00261628.0078488 2.32325581-.0078488 4.64389535.0052326 6.96453484-.0078489 1.0255814.2302325 2.2055233 1.1459302 2.8098838 1.1616279.6959302 2.8543605.5127907 3.7177325-.5755814.5781977-.6880814.711628-1.6194768.711628-2.4906977-.0026163-2.23430233-.0078489-4.47122094-.0026163-6.70813954.9915697 0 1.9831395 0 2.9747093.00261628.0026163 4.23313953 0 8.46889536.0026163 12.70203486-.983721.0026163-1.9674419.0052326-2.9485466 0 .0026163-.5075581.0052326-1.0177325.0156977-1.5252907-1.5959302 1.7816861-4.4581395 2.025-6.4674418.8398256-1.4598838-.8790698-2.1375-2.6215116-2.1610466-4.2671512-.0418604-2.5822674-.0078488-5.16715112-.0183139-7.74941856z"/><path d="m74.9563953 5.07034884c.9863373-.00261628 1.9726745-.00261628 2.961628-.00261628-.0026163.55726744-.0052326 1.11453488-.0104652 1.67180232 1.7372093-2.00668604 5.0232559-2.23953488 7.1241279-.69331395 1.2662791.9627907 1.7921512 2.6005814 1.8026163 4.14156977.0261628 2.5351744.0026163 5.0677326.0104651 7.602907-1.0098837 0-2.0171511 0-3.0270348-.0026163-.0052326-2.3494186.0130814-4.7014535-.0052326-7.0508721.0130814-1.04127907-.3244186-2.21598837-1.2872093-2.76017442-1.219186-.65406976-2.9171512-.46831395-3.8354651.61744186-.6540698.71947675-.7718023 1.73459306-.7613372 2.66337206.0078488 2.1767442.0052325 4.3534884.0052325 6.5328489-.994186 0-1.9857558 0-2.9773256-.0026163 0-4.2383721 0-8.47674419 0-12.71773256z"/><path d="m88.969186 8.1130814c1.8392442-3.32790698 7.0351745-4.19389535 9.646221-1.3002907-.0104651-.58081396-.0156977-1.16162791-.0156977-1.74244186.9915698-.00261628 1.9831397-.00261628 2.9773257 0-.005233 4.15203488.013081 8.30145346-.007849 12.45348836 0 2.2212209-1.213953 4.4686047-3.2598837 5.4313954-1.4232558.7875-3.1002907.6514534-4.6648256.6069767-2.231686-.1517442-4.238372-1.5880814-5.3084302-3.5241279.8816861-.5363372 1.7633721-1.0648256 2.6450582-1.5959302.5651162.8633721 1.172093 1.8052325 2.1688953 2.2159883 1.5723837.6122093 3.618314.3924419 4.6962209-1.0203488.871221-1.0386628.7901163-2.4540698.7875-3.7255814-2.2343023 2.6973837-6.7081395 2.3546512-8.9188953-.1857558-1.8627907-2.0197675-2.0982558-5.2613372-.7456396-7.6133721zm4.5340117-.12819768c-1.7947675.57819768-2.8988372 2.65813958-2.2997093 4.46337208.5729651 2.0773256 3.0741279 3.1473837 5.044186 2.4357558 1.9909884-.609593 3.1081396-3.0950581 2.1793605-4.97616276-.7848837-1.83662791-3.1081396-2.62936047-4.9238372-1.92296512z"/><path d="m125.262209 6.22412791c2.064244-1.41540698 4.881977-1.53313954 7.121512-.4630814 1.438953.68023256 2.577035 1.95959302 3.071512 3.47441861.334883.96017438.30872 1.99098838.319186 2.99563958-3.492733.0052325-6.988082-.0078489-10.483431.0078488.410756 1.6665698 1.941279 2.9616279 3.681105 2.9563953 1.611628.1648256 3.160465-.7796511 3.864244-2.2186046.813663.4656977 1.627326.9313953 2.443605 1.3944767-.85814 1.4912791-2.239535 2.7261628-3.927035 3.168314-2.17936.5598837-4.662209.2616279-6.480523-1.1302326-1.585465-1.1930232-2.485465-3.197093-2.393896-5.1723837.039245-1.99360465 1.122384-3.91656976 2.783721-5.01279069zm.188372 3.52674418c2.440989.01831396 4.881977.01831396 7.322966 0-.298256-.5991279-.65407-1.21395349-1.268896-1.53575581-1.988372-1.09360465-5.002325-.65145349-6.05407 1.53575581z"/><path d="m139.371802 5.46017442c2.665989-.9627907 6.106396-.32441861 7.676163 2.21598837-.839825.39767442-1.682267.79534884-2.522093 1.1877907-.656686-.82936047-1.635174-1.40755814-2.715698-1.36569768-.818895-.03924418-1.899418.23284884-2.093023 1.15639535-.107267.51540698.353198.88953489.803198.99941861 1.925581.68023253 4.230523.58866283 5.805523 2.05639533 1.295058 1.2296512.99157 3.4430233-.251163 4.5968023-1.606395 1.5854652-4.09186 1.7241279-6.1875 1.2872093-1.603779-.319186-2.956395-1.4180232-3.73343-2.8360465.913081-.4159883 1.828779-.8241279 2.749709-1.2270349.894768 1.5174419 2.932849 2.1505814 4.531396 1.4258721.651453-.2799418 1.153779-1.3735465.376744-1.8-1.862791-.9418604-4.193895-.6514534-5.918023-1.9438953-1.159012-.8084302-1.501745-2.48023257-.886919-3.72819768.465698-.96540698 1.373547-1.65610465 2.365116-2.025z"/><path d="m148.424128 5.07034884c.996802-.00261628 1.993605-.00261628 2.993023-.00261628.002616 4.24098837 0 8.48197674.002616 12.72034884-.999418.0026163-1.998837.0026163-2.995639 0 0-4.2383721-.002616-8.47936047 0-12.71773256z"/><path d="m155.310174 6.21104651c2.338954-1.66133721 5.902326-1.58808139 7.895931.60436047-.013082-.58343024-.018314-1.16424419-.018314-1.74505814.991569-.00261628 1.983139-.00261628 2.977325 0-.005232 4.15465116.015698 8.30930236-.010465 12.46395346-.005232 2.2107558-1.208721 4.4450582-3.24157 5.4130814-1.423255.7953489-3.095058.6593023-4.659593.6174419-2.242151-.1438954-4.251453-1.5880814-5.337209-3.5215116.881686-.5389535 1.765988-1.0700582 2.652907-1.6011628.531105.816279 1.093605 1.6953488 1.998837 2.1401162 1.609012.7194768 3.788372.5075582 4.892442-.9837209.842442-1.0360465.758721-2.4331395.761337-3.6889535-.732558.7848837-1.632558 1.4389535-2.689535 1.6979651-2.511627.6671512-5.376453-.4290697-6.794476-2.6084302-1.836628-2.7313953-1.213954-6.91744185 1.572383-8.78808139zm2.794186 1.76860465c-1.878488.59127907-2.982558 2.82034884-2.25 4.66482554.719477 2.1139535 3.432559 3.0348838 5.381687 2.0773256 1.818313-.8136628 2.673837-3.2363372 1.690116-4.98924416-.847675-1.72151163-3.074128-2.42005814-4.821803-1.75290698z"/><path d="m170.926744 6.7630814c1.781686-2.08517442 5.243023-2.29186047 7.328198-.56511628.983721.86075581 1.551453 2.16889535 1.514825 3.47703488.013082 2.7052326.002617 5.4104651.005233 8.1130814-.973256.0026163-1.943895.0026163-2.914535.0026163-.007849-2.3598837.015698-4.7171512-.007849-7.0744186.007849-1.00988375-.313953-2.13488375-1.216569-2.69738375-1.19564-.69069768-2.893605-.53895349-3.843314.50494186-.630524.64883721-.818896 1.58284879-.818896 2.45930229-.005232 2.268314.002616 4.5366279.002616 6.8049419-.994186.0026163-1.988372.0052326-2.979941 0 0-4.2383721 0-8.47936047 0-12.71773256.981104-.00261628 1.964825-.00261628 2.948546 0-.005232.5625-.007849 1.12761628-.018314 1.69273256z"/></g></svg>