<svg height="90" viewBox="0 0 180 90" width="180" xmlns="http://www.w3.org/2000/svg"><g fill="#333" transform="translate(0 20)"><path d="m13.5178512 10.8371901c6.5707438-.1487603 12.7398348 5.1947107 13.4330579 11.7476033.8330578 5.76-2.5586777 11.7416529-7.8649587 14.0786777-3.2176859 1.5961983-6.8489256 1.1052892-10.3090909 1.1871074h-3.38132231v10.8297521h-5.35090909c.01041322-8.3558678-.02082645-16.7117356.01487603-25.0661157.1785124-6.2271075 5.27355372-11.7996694 11.42776857-12.6297521.6694215-.0981818 1.353719-.1487603 2.0305785-.1487603zm0 21.6595041c3.8618182.0952066 7.4826447-2.9157025 8.06281-6.7433058.7690909-3.8499173-1.6884298-7.9884297-5.4446281-9.1428099-3.6267769-1.2882645-7.991405.4046281-9.76462814 3.8305785-1.37157025 2.3444628-.88363636 5.1084298-.97586777 7.6864463v4.3705785h8.12231401zm16.0170248-21.7904132h5.291405v27.014876h-5.2899174v-27.0163636zm21.1983471 16.9884297h.1933885l7.5228099 10.0338843h6.5603306l-10.2257852-13.8942148 9.0684298-13.1147108h-6.5603306l-6.3669421 9.2603306h-.1904133l-6.3669421-9.258843h-6.5603306l9.0669422 13.117686-10.2242976 13.8882644h6.5603306z"/><path d="m77.0028099 10.706281c5.3598347-.1041322 10.5024794 3.4066116 12.4869422 8.366281 1.0323967 2.3057851 1.016033 4.8555372.9818181 7.3279339v11.3206611c-4.7752066-.014876-9.5533884.0327273-14.3345454-.0267768-5.486281-.2677686-10.5099174-4.2694215-12.0793388-9.5266116-1.4429753-4.5669422-.2469422-9.8702479 3.1477685-13.2872727 2.5333885-2.6226447 6.1333885-4.2054546 9.7928926-4.1697521zm8.1223141 21.6595041c-.0223141-3.0049587.0490909-6.0099173-.0416529-9.0119008-.3153719-4.0239669-4.0433058-7.3963636-8.0806612-7.2892562-3.8409917-.0952066-7.4603306 2.8814876-8.0628099 6.682314-.7021488 3.6505786 1.3938843 7.6254546 4.8733884 8.985124 2.145124.9342149 4.5148761.5459504 6.7834711.6292562h4.5297521zm21.470578-21.528595c6.340166-.1547108 12.26529 4.8347107 13.275372 11.0752066 1.145455 5.9206612-2.195702 12.3143802-7.70876 14.7510744-5.385124 2.5438016-12.3099173.9029752-16.0125619-3.7532232-2.2938843-2.7029752-3.2846281-6.3-3.0897521-9.8033058v-23.09801648h5.3553719v10.82975208h8.1818181zm0 21.6595041c4.06562.1085951 7.780166-3.3069421 8.082149-7.3517355.505785-4.0195042-2.472396-8.0628099-6.451735-8.7947108-2.201653-.303471-4.436033-.0966942-6.652562-.1636363h-3.1596697c.0327273 3.0555372-.0743802 6.1140496.0624793 9.1606611.4254546 4.031405 4.0685954 7.2238017 8.1223144 7.1404959zm29.01124-21.7904132c5.361322-.1041322 10.502479 3.4066116 12.486942 8.366281 1.035372 2.3057851 1.020496 4.8555372.987769 7.3279339v11.3206611c-4.775207-.014876-9.556364.0327273-14.334546-.0267768-5.489256-.2677686-10.512892-4.2694215-12.085289-9.5266116-1.442975-4.5669422-.245454-9.8702479 3.149256-13.2872727 2.531901-2.6211571 6.131901-4.203967 9.791405-4.1697521zm8.122314 21.6595041c-.023801-3.0049587.047604-6.0099173-.040165-9.0119008-.309422-4.0239669-4.038843-7.3963636-8.077686-7.2892562-3.838017-.0952066-7.458843 2.8814876-8.058347 6.682314-.705124 3.6505786 1.392397 7.6254546 4.870413 8.985124 2.142149.9342149 4.511901.5459504 6.777521.6292562h4.529752zm34.820331-21.5955372c-.010413 8.3380166.022314 16.6730579-.014876 25.0066116-.193389 6.5603306-5.83438 12.4571901-12.41405 12.7993388-1.249587.0654546-2.502149.0238017-3.753223.0327273v-5.3523967c2.284959-.0104132 4.727603.2231405 6.749256-1.0710744 2.528926-1.4206611 4.135537-4.2813223 4.080496-7.1732231-4.745454 3.8290909-12.10314 3.6297521-16.717686-.3183471-3.364959-2.714876-5.202149-7.0809917-4.943306-11.3801653v-12.5404959h5.355372c.023802 4.7677686-.050578 9.54.038678 14.306281.290083 3.8484298 3.659504 7.1360331 7.519835 7.3279339 3.977851.4105785 7.893223-2.5884297 8.583471-6.5201653.301983-2.2016529.099669-4.4390082.160661-6.6585124v-8.4510743h5.355372z"/></g></svg>