<svg height="90" viewBox="0 0 180 90" width="180" xmlns="http://www.w3.org/2000/svg"><g fill="#0facf3" transform="translate(0 29)"><path d="m42.0390698 1.39534884c-8.0539535 0-14.5841861 6.56093023-14.5841861 14.65116276 0 8.0902326 6.5302326 14.6511628 14.5841861 14.6511628s14.5827907-6.5595349 14.5827907-14.6511628c.0013953-8.09023253-6.5274419-14.65116276-14.5827907-14.65116276m0 21.14511626c-3.5706977 0-6.4646512-2.907907-6.4646512-6.4939535s2.8953488-6.49395346 6.4646512-6.49395346c3.5693023 0 6.4632558 2.90790696 6.4632558 6.49395346.0013953 3.5860465-2.8925582 6.4939535-6.4632558 6.4939535"/><path d="m72.1786047 1.39534884c-8.0539535 0-14.5841861 6.56093023-14.5841861 14.65116276 0 8.0902326 6.5302326 14.6511628 14.5841861 14.6511628 8.0539534 0 14.5813953-6.5595349 14.5813953-14.6511628.0027907-8.09023253-6.5274419-14.65116276-14.5813953-14.65116276m0 21.14511626c-3.5706977 0-6.4646512-2.907907-6.4646512-6.4939535s2.8953488-6.49395346 6.4646512-6.49395346c3.5693023 0 6.4632558 2.90790696 6.4632558 6.49395346s-2.8939535 6.4939535-6.4632558 6.4939535"/><path d="m118.932558 1.39534884c-8.053953 0-14.582791 6.56093023-14.582791 14.65116276 0 8.0902326 6.528838 14.6511628 14.582791 14.6511628 8.052558 0 14.582791-6.5595349 14.582791-14.6511628.001395-8.09023253-6.528837-14.65116276-14.582791-14.65116276m0 21.14511626c-3.570698 0-6.464651-2.907907-6.464651-6.4939535s2.893953-6.49395346 6.464651-6.49395346c3.572093 0 6.464651 2.90790696 6.464651 6.49395346s-2.892558 6.4939535-6.464651 6.4939535"/><path d="m25.5795349 18.5776744c-1.855814-1.2558139-4.3730233-.7688372-5.6302326 1.0897675-.004186.0055814-.0083721.0139534-.0139535.0195348-.0153488.0223256-.0293023.0432559-.0418604.0655814h-.0027907c-1.1665117 1.6841861-3.1074419 2.787907-5.307907 2.787907-3.5693023 0-6.46325582-2.907907-6.46325582-6.4939535s2.89395352-6.49395346 6.46325582-6.49395346c2.2269767 0 4.1902326 1.13023256 5.3511628 2.85209306.0055814.0069767.0111628.0153488.0167442.0237209 1.2558139 1.8572093 3.7730232 2.344186 5.6288372 1.0869767 1.8586046-1.26 2.3483721-3.79395345 1.0925581-5.66232554-.0083721-.01395349-.0181395-.02511628-.0265116-.03906977h.0013953c-2.6246511-3.87488372-7.0493023-6.41860465-12.064186-6.41860465-8.05395349 0-14.5827907 6.55953488-14.5827907 14.65116276 0 8.0916279 6.52883721 14.6511628 14.5827907 14.6511628 5.0009302 0 9.4144186-2.5283721 12.0418605-6.3823256l-.0027907-.0027907c.0153488-.0223255.0334883-.0460465.0502325-.0739534 1.2544186-1.8669768.7646512-4.4009303-1.0925581-5.6609303"/><path d="m19.8906977 19.7497674.004186.0027907c.0139535-.0223255.027907-.0432558.0418605-.0655814-.0153489.0223256-.0293023.0446512-.0460465.0627907"/><path d="m19.9423256 19.68-.0055814.0069767.0139535-.0181395z"/><path d="m19.9506977 12.4269767c-.0055814-.0069767-.0097675-.0153488-.0153489-.0237209.0027907.0041861.0041861.0083721.0069768.0125582.0027907.0027907.0055814.0069767.0083721.0111627"/><path d="m102.327907 30.6976744h.016744c-.008372 0-.013953 0-.022325 0z"/><path d="m102.344651 22.5404651c-.008372 0-.016744 0-.022325 0h.005581c-3.5623256-.0083721-6.4493023-2.9134884-6.4493023-6.4939535v-10.57255811c0-.81906977-.2386047-1.57813954-.651628-2.2172093-.7227907-1.12046512-1.9772093-1.86139535-3.4060465-1.86139535-2.2423255 0-4.0618604 1.82511628-4.0618604 4.07860465v10.57255811c0 8.0846512 6.5218604 14.6427907 14.5688372 14.6511628h.016744c-.005581 0-.011163 0-.016744 0h-.005581.022325c2.24093 0 4.060465-1.8265116 4.060465-4.0772093 0-2.2534884-1.819535-4.08-4.060465-4.08"/><path d="m149.093023 1.39534884h.016744c-.006976 0-.013953 0-.022325 0z"/><path d="m149.108372 9.55255814c-.006977 0-.015349 0-.022325 0h.006976c-3.562325.00837209-6.450697 2.91209306-6.450697 6.49395346v10.5739535c0 .8176744-.23721 1.5781396-.651628 2.215814-.722791 1.1204651-1.97721 1.8613953-3.406047 1.8613953-2.24093 0-4.060465-1.8265116-4.060465-4.0772093v-10.5739535c0-8.08604648 6.521861-14.64139532 14.568837-14.65116276h.015349c-.005581 0-.009767 0-.015349 0h-.006976.022325c2.24093 0 4.05907 1.82511628 4.05907 4.07860465.001395 2.25348837-1.816744 4.07860465-4.05907 4.07860465"/><path d="m160.470698 19.6953488-.006977-.0139535z"/><path d="m171.177209 19.68-.00279.004186.009767-.0125581z"/><path d="m160.456744 19.6744186.005582.0069767-.002791-.0013953z"/><path d="m176.813023 18.5776744c-.121395-.0851163-.251163-.1576744-.378139-.2260465l-13.533489-8.0972093c.877675-.44790697 1.869768-.70186046 2.91907-.70186046 2.213023 0 4.165116 1.11767446 5.331628 2.82418606l.002791-.0013954c.707442 1.08 1.914418 1.8041861 3.298604 1.8348838 2.240931.0502325 4.099535-1.7330233 4.151163-3.9851163.019535-.91116281-.262325-1.75674421-.752093-2.44604653.008372.01116279.016744.02093023.026512.03209302l.00279-.0027907c-2.627441-3.87069767-7.049302-6.41302325-12.06279-6.41302325-5.005117 0-9.418605 2.53395349-12.046047 6.39348837l.002791.00139535c-.016744.02232558-.032093.04186046-.047442.06418604-1.253023 1.86697675-.763256 4.4023256 1.096744 5.6623256.124186.0837209.252558.1604651.380931.2288372l13.530697 8.0958139c-.877674.4465117-1.866977.7004652-2.91907.7004652-2.224186 0-4.184651-1.1288372-5.346976-2.8451163h-.002791c.002791.0027907.002791.0055814.005581.0055814-.005581-.0055814-.008372-.0111628-.011162-.0195349-.002791-.0027907-.005582-.0055814-.006977-.0083721-1.253023-1.8613953-3.775814-2.3553488-5.631628-1.0953488-1.86 1.2586046-2.351163 3.7967442-1.096744 5.6609302.00279.0055814.006976.0111628.009767.0139535v.0027907c2.621861 3.8860465 7.053489 6.4423256 12.08093 6.4423256 5.01907 0 9.440931-2.547907 12.064186-6.4241861.008373-.0111628.019535-.0223256.027907-.0348837 0-.0027907.002791-.0055814.005582-.0083721.005581-.0083721.011163-.0139535.016744-.0223256l-.002791-.0027907c1.227907-1.864186.733954-4.3744186-1.116279-5.6288372"/></g></svg>