<svg height="90" viewBox="0 0 180 90" width="180" xmlns="http://www.w3.org/2000/svg"><g fill="none"><g fill="#8c929d" transform="translate(93.180873 33.02079)"><path d="m44.3451143.58004158h-3.068607l.018711 22.80873182h12.3866944v-2.8253638h-9.3367984z"/><path d="m65.4885655 19.3659044c-.7671518.8045738-2.0582121 1.6091476-3.7983368 1.6091476-2.3388773 0-3.2744283-1.1413722-3.2744283-2.6382537 0-2.2640332 1.5717256-3.3492723 4.9022869-3.3492723.6174636 0 1.6278586.0748441 2.1517672.1683992v4.2099792zm-3.1621622-13.80873184c-2.4698544 0-4.7338877.87941788-6.5114345 2.33887734l1.0852391 1.87110187c1.2536383-.72972973 2.7879418-1.45945946 4.977131-1.45945946 2.5072765 0 3.6299376 1.29106029 3.6299376 3.44282749v1.1226611c-.4864865-.1122661-1.4968815-.1683992-2.1143451-.1683992-5.3700624 0-8.0831601 1.8711019-8.0831601 5.8191268 0 3.5176715 2.1517672 5.2952183 5.4261954 5.2952183 2.2079002 0 4.3222454-1.010395 5.0519751-2.6382536l.5613305 2.2266112h2.1330562v-11.6943867c0-3.68607067-1.6091476-6.15592514-6.1559252-6.15592514z"/><path d="m78.3617464 21.0873181c-1.1413722 0-2.1517672-.1309771-2.918919-.4864865v-10.5717256c1.0478171-.87941785 2.3388774-1.49688147 3.966736-1.49688147 2.956341 0 4.1164241 2.09563407 4.1164241 5.46361747 0 4.8274428-1.8523908 7.0914761-5.1642411 7.0914761m1.2910603-15.53014554c-2.7318088 0-4.2099793 1.87110187-4.2099793 1.87110187v-2.95634096l-.018711-3.89189189h-2.993763l.018711 22.24740122c1.4968815.6174636 3.5550936.972973 5.7817048.972973 5.7068607 0 8.4573805-3.6486486 8.4573805-9.954262 0-4.99584195-2.5446986-8.28898124-7.035343-8.28898124"/><path d="m11.039501 3.04989605c2.7130978 0 4.4532225.8981289 5.6133057 1.81496881l1.3097713-2.28274428c-1.7962578-1.57172557-4.2099792-2.43243243-6.7733888-2.43243243-6.51143452 0-11.07692309 3.96673597-11.07692309 11.97505195 0 8.3825364 4.92099792 11.6569647 10.55301459 11.6569647 2.8253638 0 5.2203742-.6548857 6.7920998-1.3284823l-.0561331-8.962578v-2.8253638h-8.36382536v2.8253638h5.33264036l.056133 6.8108108c-.6923077.3555094-1.9085239.6174636-3.5550935.6174636-4.52806656 0-7.55925159-2.8440748-7.55925159-8.8503118 0-6.06237009 3.14345115-9.01871105 7.72765069-9.01871105"/><path d="m32.5945946.58004158h-2.993763l.018711 3.83575884v13.20997918c0 3.6860707 1.6091476 6.1559252 6.1559252 6.1559252.6361746 0 1.2536382-.0561331 1.8523908-.1683992v-2.6943867c-.4303534.0748441-.8981289.1122661-1.3846154.1122661-2.5072765 0-3.6112266-1.2910603-3.6112266-3.4428274v-9.11226612h4.977131v-2.50727651h-5.014553z"/><path d="m22.004158 23.3700624h2.993763v-17.40124743h-2.993763z"/><path d="m22.004158 3.57380457h2.993763v-2.99376299h-2.993763z"/></g><g transform="translate(0 13)"><path d="m34.6902287 63.8232848 12.7234927-39.1621621h-25.4469854z" fill="#e24329"/><path d="m34.6902287 63.8232848-12.7234927-39.1621621h-17.83160086z" fill="#fc6d26"/><path d="m4.13513514 24.6611227-3.87318088 11.9002079c-.35550935 1.085239.03742204 2.2827442.95426196 2.9376299l33.47401248 24.3243243z" fill="#fca326"/><path d="m4.13513514 24.6611227h17.83160086l-7.6715177-23.59459463c-.3929314-1.21621622-2.1143451-1.21621622-2.5072765 0z" fill="#e24329"/><path d="m34.6902287 63.8232848 12.7234927-39.1621621h17.8316008z" fill="#fc6d26"/><path d="m65.2453222 24.6611227 3.8731809 11.9002079c.3555094 1.085239-.037422 2.2827442-.9542619 2.9376299l-33.4740125 24.3243243z" fill="#fca326"/><path d="m65.2453222 24.6611227h-17.8316008l7.6715177-23.59459463c.3929314-1.21621622 2.1143451-1.21621622 2.5072765 0z" fill="#e24329"/></g></g></svg>