<svg height="90" viewBox="0 0 180 90" width="180" xmlns="http://www.w3.org/2000/svg"><g fill="none" fill-rule="evenodd" transform="translate(2 21)"><g transform="translate(0 11)"><path d="m11.8793366 0h.846243c2.9379005.0638674 5.8279004 1.24541432 7.9035909 3.3370717-.7664088.78237566-1.5487845 1.53281762-2.2992264 2.31519328-1.1655801-1.05381211-2.5706629-1.86812148-4.1034805-2.15552478-2.2672928-.47900551-4.71022086-.04790055-6.61027604 1.24541432-2.07569053 1.35718227-3.48077335 3.6564087-3.78414351 6.11530368-.33530385 2.4269612.35127071 4.9816572 1.93198888 6.8657456 1.51685077 1.8361877 3.83204406 2.9858009 6.22707157 3.0656352 2.2353591.1277348 4.5665192-.5588398 6.1951379-2.1235911 1.277348-1.1017126 1.8681215-2.7782319 2.0597237-4.4068506-2.6504971 0-5.3009943.0159668-7.9514914 0v-3.2891712h11.1608283c.5748066 3.5286739-.2554696 7.5044196-2.9379005 10.0271819-1.7882872 1.7882873-4.263149 2.8420994-6.7859113 3.0496684-2.4429281.2395028-4.96569042-.2235359-7.13718206-1.4050828-2.60259658-1.3891159-4.67828711-3.7362429-5.70016553-6.498508-.95801101-2.5387292-.97397786-5.4127622-.07983425-7.96745828.81430936-2.33116014 2.37906069-4.39088382 4.39088381-5.82790034 1.93198888-1.42104967 4.27911587-2.20342533 6.67414343-2.34712698z" fill="#3780ff"/><path d="m75.906406.83027621h3.4169059v22.80066209c-1.1336463 0-2.2832596.0159669-3.4169059-.0159668.0159668-7.5842539 0-15.18447458 0-22.78469529z" fill="#38b137"/><g fill-rule="nonzero"><path d="m31.0555237 8.73386707c2.1076242-.39917125 4.3908838.04790056 6.1312705 1.30928173 1.5807182 1.1176795 2.6824308 2.874033 3.0177347 4.7900551.4311049 2.2193921-.111768 4.6463534-1.5487845 6.4027069-1.5487845 1.9639226-4.0875137 3.0177347-6.5623754 2.8580662-2.2672928-.1277348-4.4707181-1.2613812-5.8119335-3.1135358-1.5168508-2.0437568-1.8840884-4.8539225-1.0538121-7.24895.8302762-2.5706629 3.1774032-4.53458547 5.8279003-4.99762413zm.4790055 3.03370153c-.8622099.2235359-1.6605524.7185083-2.235359 1.4210497-1.5487845 1.8521546-1.4529834 4.8698893.2554696 6.5943091.9739778.9899447 2.4429281 1.4529834 3.8001103 1.1815469 1.2613812-.2235359 2.3630939-1.0697789 2.9698342-2.1874584 1.0538121-1.9000552.7504419-4.5186186-.8622099-6.0035357-1.0378453-.958011-2.5546961-1.3571823-3.9278452-1.0059116z" fill="#fa3913"/><path d="m47.9803849 8.73386707c2.4109944-.46303865 5.0455247.20756906 6.8497788 1.90005523 2.9379004 2.6345302 3.2572374 7.568287.7504419 10.6019885-1.5168507 1.916022-3.9757457 2.9698341-6.4027069 2.8580662-2.3151933-.0638674-4.5984529-1.2134806-5.971602-3.1135358-1.5487845-2.0916574-1.8840883-4.9656904-1.0059115-7.4086185.8781767-2.4908286 3.1774031-4.39088382 5.7799997-4.83795563zm.4790055 3.03370153c-.8622099.2235359-1.6605524.7185083-2.235359 1.4050828-1.5328176 1.820221-1.4689502 4.7900551.1756354 6.5304418.9739778 1.0378452 2.4908286 1.5487845 3.8959114 1.2613811 1.2454143-.2395027 2.3630939-1.0697789 2.9698342-2.1874584 1.0378452-1.9160221.7344751-4.5345855-.8941437-6.0195026-1.0378452-.958011-2.554696-1.3412154-3.9118783-.9899447z" fill="#fcbd06"/><path d="m62.3345833 9.65994439c1.8361878-1.14961322 4.2791158-1.46895022 6.2590053-.47900551.6227071.27143645 1.1336463.73447511 1.6286187 1.19751372.0159669-.43110491 0-.87817671.0159669-1.32524852 1.0697789.01596685 2.1395579 0 3.2253037.01596685v14.08276187c-.0159669 2.1235911-.5588398 4.374917-2.0916574 5.9237015-1.6765193 1.7084529-4.2471821 2.235359-6.5623754 1.8840883-2.4748618-.3672376-4.6303866-2.1714916-5.5883976-4.4547512.958011-.4630387 1.9639226-.8302762 2.9538673-1.2613812.5588397 1.3092817 1.6924861 2.4269612 3.1135358 2.6824308 1.4210497.2554697 3.0656352-.0958011 3.9917125-1.277348.9899448-1.2134806.9899448-2.874033.9420442-4.3589501-.7344751.7185083-1.5807182 1.3571823-2.6025966 1.596685-2.2193922.6227072-4.6623203-.1437016-6.3707732-1.6445855-1.7244199-1.500884-2.7462983-3.8160772-2.6504972-6.1153037.0479006-2.6025966 1.5168508-5.109392 3.736243-6.46657431zm3.305138 2.04375681c-.9739779.1596685-1.8840883.7025414-2.5067955 1.4529834-1.5008839 1.7882872-1.5008839 4.6463534.0159669 6.4027069.8622099 1.0378453 2.2513258 1.6126519 3.5925413 1.4689502 1.2613811-.1277348 2.4269612-.9260773 3.0496683-2.0277899 1.0538122-1.8681215.8781768-4.4068507-.5428729-6.0354694-.8781767-1.0059116-2.2832595-1.5008839-3.6085081-1.2613812z" fill="#3780ff"/><path d="m83.4267924 10.4742537c1.9160221-1.78828718 4.8698894-2.39502748 7.3287843-1.45298332 2.3311601.87817676 3.8160772 3.09756892 4.5665192 5.38082852-3.4648065 1.4370165-6.9136462 2.8580662-10.3784527 4.2950827.4790055.9101105 1.2134806 1.7403867 2.2034253 2.0756905 1.389116.4949724 3.0496684.3193371 4.2152485-.6067403.4630387-.3512707.8302762-.8143093 1.1815469-1.2613811.8781768.5907734 1.7563535 1.16558 2.6345303 1.7563535-1.2454143 1.8681215-3.3370717 3.1774032-5.5883976 3.3849722-2.4908286.3033702-5.1413257-.6546408-6.7539776-2.6025965-2.6504972-3.0656353-2.3950276-8.2069611.5907734-10.9692262zm1.708453 2.9538673c-.5428729.7823757-.7664088 1.7403867-.7504419 2.6824309 2.3151932-.958011 4.6303865-1.916022 6.9455798-2.8899999-.3832044-.8941436-1.3092817-1.4370165-2.2513259-1.5807182-1.5168508-.2714364-3.0975689.5428729-3.943812 1.7882872z" fill="#fa3913"/></g></g><path d="m107.660666 10.866h8.06c3.565 0 6.262.992 8.122 3.007 1.736 1.86 2.604 4.557 2.604 8.06 0 3.472-.899 6.169-2.666 8.091-1.86 1.984-4.557 2.976-8.122 2.976h-7.998zm3.379 2.883v16.368h3.999c2.79 0 4.867-.682 6.169-2.015 1.271-1.333 1.922-3.379 1.922-6.169 0-2.852-.651-4.898-1.891-6.2-1.302-1.333-3.348-1.984-6.138-1.984zm24.882667 2.79c2.418 0 4.371.806 5.828 2.418 1.426 1.581 2.17 3.596 2.17 6.045 0 2.418-.713 4.433-2.139 5.983-1.488 1.612-3.441 2.449-5.859 2.449s-4.371-.837-5.859-2.449c-1.426-1.55-2.139-3.565-2.139-5.983 0-2.449.713-4.464 2.17-6.045 1.457-1.612 3.41-2.418 5.828-2.418zm0 2.697c-1.519 0-2.697.589-3.534 1.798-.744 1.023-1.085 2.356-1.085 3.968s.341 2.914 1.085 3.937c.837 1.178 2.015 1.798 3.534 1.798s2.697-.62 3.565-1.798c.744-1.054 1.116-2.356 1.116-3.937 0-1.612-.372-2.945-1.116-3.968-.868-1.209-2.046-1.798-3.565-1.798zm17.225667-2.697c2.046 0 3.689.465 4.929 1.395 1.24.992 2.046 2.48 2.356 4.464h-3.255c-.217-1.085-.651-1.891-1.333-2.387-.682-.527-1.581-.775-2.697-.775-1.364 0-2.418.496-3.193 1.519-.806.992-1.178 2.418-1.178 4.216s.372 3.224 1.147 4.247c.713.992 1.767 1.519 3.193 1.519 2.449 0 3.813-1.24 4.123-3.658h3.255c-.372 2.139-1.209 3.751-2.449 4.805-1.24 1.023-2.914 1.55-4.96 1.55-2.449 0-4.34-.806-5.704-2.418-1.333-1.55-1.984-3.534-1.984-6.014 0-2.418.651-4.402 1.953-5.952 1.395-1.674 3.317-2.511 5.797-2.511zm15.117667 0c4.154 0 6.448 1.674 6.82 5.053h-3.193c-.248-.868-.62-1.457-1.147-1.798-.558-.372-1.426-.558-2.542-.558-.992 0-1.736.124-2.232.434-.589.31-.868.806-.868 1.426 0 .558.434 1.023 1.302 1.426.558.248 1.612.558 3.224.961 1.829.434 3.193.961 4.061 1.519 1.271.806 1.922 1.922 1.922 3.348 0 3.379-2.387 5.084-7.13 5.084-4.402 0-6.758-1.891-7.13-5.611h3.224c.186 1.085.589 1.86 1.147 2.294.558.403 1.426.62 2.666.62 2.542 0 3.844-.744 3.844-2.17 0-.775-.496-1.395-1.426-1.829-.496-.248-1.581-.558-3.224-.93-1.891-.434-3.224-.899-3.968-1.395-1.24-.775-1.86-1.86-1.86-3.224 0-1.457.589-2.604 1.798-3.41 1.209-.837 2.79-1.24 4.712-1.24z" fill="#6c6d6d"/></g></svg>