<svg height="90" viewBox="0 0 180 90" width="180" xmlns="http://www.w3.org/2000/svg"><path d="m42.269118 28.7723198-3.0679199-3.5792399-2.8974798 2.5565999h-33.06535845l1.70439991 2.0452799c.17044.17044.34087999.17044.51131998.17044.34087998 0 5.62451976-.17044 12.27167946-.17044-3.7496799 9.3741996-8.01067966 18.0666392-17.55531921 25.7364388-.17043999 0-.17043999.17044-.17043999.34088s.17043999.34088.34087998.34088h.17044c8.52199959-5.4540798 13.29431932-11.5899195 13.80563932-12.4421194v21.8163189c0 .34088.51132.51132.68176.51132 1.5339599-1.8748399 2.5565999-3.5792398 2.7270399-5.6245197 1.7043999 0 9.3741995 0 13.6351993-.17044.51132.5113199.8522.5113199 1.19308 2.2157199 0 .34088.1704399.34088.5113199.34088h.17044c2.8974799-1.7044 3.2383599-3.2383599 3.2383599-8.5219996v-9.5446396c0-.17044 0-.17044.17044-.34088l.8521999-1.8748399c.17044-.17044.17044-.34088 0-.51132l-3.2383598-1.8748399c-.17044-.17044-.51132 0-.51132.17044l-.8522 1.8748399c0 .17044-.17044.17044-.3408799.17044h-14.1465194l-2.0452799-.8521999c2.3861599-3.0679199 3.4087999-4.9427598 4.7723198-7.3289197.17044-.34088.17044-.51132.34088-.51132.34088-.17044.34088-.5113199.17044-.8521999l-.17044-.17044c-1.19308-.8522-2.2157199-1.7043999-2.8974799-2.8974799 4.9427598-.17044 23.5207189-.34088 23.5207189-.34088.17044 0 .34088-.17044.17044-.6817599zm-24.3729189 14.6578393.51132-.34088h13.9760794c.17044 0 .5113199.17044.5113199.51132v12.2716794c0 .8521999-.17044 2.0452799-1.0226399 2.8974798l-.34088.17044h-13.6351994zm43.973518 2.7270398c2.3861598 1.02264 4.0905598 2.2157199 4.9427597 2.8974799.8522.68176.8522 1.3635199 0 2.3861599-.17044.34088-.34088.51132-1.0226399 1.0226399-1.02264.68176-1.7043999.51132-2.0452799-.6817599-.51132-2.7270399-1.36352-4.6018798-2.3861599-5.6245198.17044.17044.17044 0 .51132 0zm9.8855195 0c2.5565999 1.02264 4.0905598 2.0452799 5.1131997 2.7270399.8522.68176.8522 1.36352.17044 2.3861599-.17044.34088-.3408799.51132-1.0226399 1.1930799-1.02264.68176-1.7043999.51132-2.0452799-.5113199-.68176-2.7270399-1.5339599-4.6018798-2.5565999-5.4540798 0-.17044.17044-.34088.34088-.34088zm-14.4873993-.1704399.17044-.17044c.17044 0 .17044 0 .17044.17044 0 0-.34088 4.9427597-.8522 5.9653997-.34088 1.0226399-1.02264 1.3635199-2.2157199 1.0226399-.51132-.17044-1.7043999-.6817599-1.7043999-.6817599-.8522-.51132-.68176-1.36352 0-1.87484 2.5565999-1.5339599 3.7496798-2.7270398 4.4314398-4.4314397zm32.3835984 16.1917992v.17044c0 .17044 0 .17044-.17044.17044h-38.0081181s-.17044 0-.34088-.17044l-1.19308-1.02264h18.5779591v-3.9201198c-6.9880396 0-13.8056393.17044-14.1465193.17044 0 0-.17044 0-.34088-.17044l-1.1930799-1.1930799h15.6804792v-6.1358397l3.5792399.8521999c.17044 0 .17044.17044 0 .34088l-.34088.51132v4.4314398h10.3968395l2.0452799-2.0452799 2.5565999 2.7270398v.17044s0 .17044-.17044.17044h-.17044s-7.3289197 0-14.9987193.17044v3.9201198h11.9307994l2.5565999-2.7270398zm-3.5792398-13.9760794c1.02264.51132 1.1930799 1.19308.51132 2.5565999-.17044.34088-.17044.68176-.8522 1.36352-.8521999.8521999-1.7043999.8521999-2.2157199-.17044-1.1930799-2.7270399-2.3861599-4.6018798-3.5792398-5.2836398-.17044-.17044 0-.34088.17044-.34088 2.8974799.51132 4.7723198 1.19308 5.9653997 1.8748399zm2.2157199-2.8974798.17044.17044c0 .17044-.17044.17044-.17044.17044h-.17044c-35.1106383-.17044-35.1106383 0-35.4515183 0 0 0-.17044 0-.34088-.17044l-1.1930799-1.19308 17.3848791.17044v-3.2383598h-11.9307994s-.17044 0-.34088-.17044l-1.1930799-1.19308 13.4647593.17044v-3.0679198h-11.0785994c-.68176.68176-1.8748399 1.7043999-2.3861599 2.0452799l-.17044.17044c-.17044 0-.34088-.17044-.34088-.34088v-12.1012394l3.4087998 1.0226399h24.3729189l1.0226399-1.7043999 1.8748399 1.02264 1.19308.5113199c.17044 0 .17044.17044 0 .34088l-.68176 1.3635199v6.9880397l.17044.34088c.17044.17044-.17044.51132-.34088.51132h-13.4647593v3.0679198h8.6924396l1.8748399-1.8748399 2.5565998 2.5565999v.17044s0 .17044-.1704399.17044h-13.1238794v3.2383598h11.9307994l2.0452799-1.8748399zm-16.5326792-16.7031192v7.3289196h2.5565999c1.5339599-2.2157199 2.0452799-3.7496798 2.7270398-6.4767197 0-.17044 0-.3408799.17044-.3408799 0 0 .17044 0 .17044.1704399l2.2157199 2.04528c.17044.1704399.34088.3408799 0 .6817599-1.0226399 2.0452799-4.2609998 3.5792398-5.2836397 3.9201198h7.4993596v-7.3289196zm-3.4087999 7.3289196v-7.3289196h-10.7377194v7.3289196zm-3.0679198-4.2609998c.68176.51132.68176 1.19308 0 2.2157199-.17044.34088-.34088.51132-.8522 1.02264-.8521999.6817599-1.5339599.34088-1.8748399-.51132-.51132-2.5565999-1.1930799-4.2609998-2.2157199-5.1131998 0-.1704399 0-.3408799.17044-.1704399 2.5565999.8521999 3.9201198 1.8748399 4.7723198 2.5565998zm48.7458381-.17044c-1.19308-3.5792398-2.38616-5.9653997-3.92012-6.9880396-.17044-.17044 0-.51132.34088-.34088 3.4088 1.0226399 5.283639 2.5565999 6.647159 3.4087998 1.19308.68176 1.19308 1.7043999.34088 3.2383599-.17044.34088-.51132.8521999-.8522 1.1930799-1.022639 1.19308-2.045279.8522-2.556599-.51132zm20.111919 27.2703987c.17044 0 .34088.17044.34088.51132 0 .17044-.17044.34088-.34088.34088s-.68176.17044-1.02264.17044c-1.36352.17044-3.4088.68176-4.261 2.7270399l-.17044.17044-.17044.17044h-.34088c-3.4088-1.53396-11.0786-5.1131998-13.805639-8.0106797l-.17044-.17044c-4.09056 3.7496799-9.20376 6.1358397-18.0666396 8.5219996h-.17044c-.17044 0-.3408799-.17044-.3408799-.3408799 0-.17044.1704399-.34088.1704399-.34088 7.4993596-3.0679199 12.6125596-6.4767197 16.1917996-10.2263995-3.74968-4.7723198-5.1132-9.3741996-6.8176-17.0439992h-7.4993596c-.17044 0-.34088 0-.51132-.17044l-1.36352-1.53396h32.0427186l2.5566-2.7270398 2.89748 3.2383598c.17044.34088 0 .51132-.34088.51132 0 0-5.62452.17044-11.41948.34088.8522.51132 1.87484.8521999 2.89748 1.0226399 0 0 .17044 0 .17044.17044.34088.17044.17044.68176-.17044.68176-.17044 0-.68176.34088-.68176.68176-1.19308 4.6018797-3.92012 10.9081594-7.15848 14.4873993l-.34088.34088c5.45408 3.5792398 11.24904 4.9427597 17.8962 6.4767196zm-27.440839-23.8615988c2.04528 6.8175997 4.60188 11.5899194 7.6698 14.8282793 3.238359-4.4314398 4.942759-9.3741996 6.135839-14.9987193-4.09056.17044-8.181119.17044-10.055959.17044zm73.118756-5.4540798c.34088.17044.17044.51132-.17044.68176-.17044 0-.51132.34088-.68176.68176-2.386159 2.8974798-4.601879 5.6245197-8.181119 8.3515596h-.17044c-.17044 0-.34088-.17044-.34088-.34088s.17044-.17044.17044-.34088c2.72704-4.6018798 3.74968-6.8175997 5.1132-10.9081595 0-.17044.17044-.34088.34088-.34088s.34088.17044.34088.17044l.17044.17044c1.02264.51132 2.386159 1.36352 3.408799 1.8748399zm-19.771039 7.3289197c-.17044-3.5792398-1.87484-8.0106796-2.897479-9.2037596 0-.17044.17044-.34088.34088-.34088 2.727039 2.2157199 3.920119 3.4087999 5.113199 4.4314398 1.87484 1.8748399 1.7044 4.2609998.68176 5.4540798-.34088.34088-.34088.51132-.68176.6817599-1.53396 1.02264-2.38616.51132-2.5566-1.0226399zm-2.38616 9.8855195c-.170439.34088-.511319.51132-.681759.8522-.8522.8521999-1.7044.51132-2.21572-.51132-.68176-2.7270399-1.53396-4.4314398-2.5566-5.4540797v16.7031192c-.17044 2.2157199-.68176 3.9201198-2.38616 5.9653997-.34088.17044-.8522 0-.8522-.51132v-20.793679c-1.36352 4.2609998-4.60188 8.3515596-7.84024 11.9307994 0 .17044-.17044.17044-.17044.17044-.17044.17044-.34088 0-.51132-.17044s0-.34088 0-.5113199c5.28364-7.4993597 6.8176-13.4647594 8.01068-18.9188391h-5.62452s-.17044 0-.34088-.17044l-1.19308-1.19308 7.15848.17044h.51132v-10.2263995l3.57924 1.02264c.17044.1704399.17044.1704399 0 .3408799l-.51132.51132v8.3515596h1.7044l2.04528-1.8748399 2.727039 2.5565999.17044.17044c0 .17044-.17044.17044-.17044.17044h-6.306279v4.7723197c2.72704 1.02264 4.43144 2.3861599 5.28364 3.4087999.681759 1.0226399 1.022639 2.0452799.170439 3.2383598zm21.475439-6.6471597c.17044.17044.17044.34088 0 .51132l-1.022639 1.8748399c0 .17044-.17044.17044-.17044.34088v10.5672795c0 5.7949597.17044 7.6697996-3.06792 9.7150795h-.17044c-.34088 0-.51132 0-.51132-.3408799-.51132-1.87484-.68176-1.87484-1.36352-2.3861599-4.77232.17044-13.6352.17044-15.510039.17044l-1.02264-1.36352h16.703119l.34088-.17044c.8522-1.0226399 1.19308-2.2157199 1.19308-3.2383598v-4.6018798s-.17044-.17044-.34088-.17044h-16.02136l-1.022639-1.1930799h17.043999v-7.8402397c0-.3408799-.17044-.5113199-.51132-.5113199h-16.02136l-1.022639-1.19308h8.692439v-16.1917992l3.74968 1.02264c.17044.1704399.17044.1704399 0 .3408799l-.68176.51132v14.1465193h5.1132c.17044 0 .34088-.17044.34088-.17044l.8522-1.7043999c.17044-.17044.51132-.34088.68176-.17044z" fill="#333"/></svg>