<svg height="90" viewBox="0 0 180 90" width="180" xmlns="http://www.w3.org/2000/svg" xmlns:xlink="http://www.w3.org/1999/xlink"><radialGradient id="a" cx="40.690178%" cy="-7.231456%" gradientTransform="matrix(1 0 0 .72776 0 -.019687)" r="153.119278%"><stop offset="0" stop-color="#0da960"/><stop offset="1" stop-color="#03914b"/></radialGradient><radialGradient id="b" cx="62.683417%" cy="7.827082%" gradientTransform="matrix(1 0 0 .78286 0 .016996)" r="155.79797%"><stop offset="0" stop-color="#ffcd4d"/><stop offset="1" stop-color="#f6c338"/></radialGradient><radialGradient id="c" cx="59.311593%" cy="107.232717%" gradientTransform="matrix(-1 0 0 -.727889 1.186232 1.852862)" r="153.09382%"><stop offset="0" stop-color="#4387fd"/><stop offset="1" stop-color="#4683ea"/></radialGradient><radialGradient id="d" cx="37.309962%" cy="92.175396%" gradientTransform="matrix(-1 0 0 -.782839 .7462 1.643339)" r="155.790264%"><stop offset="0" stop-color="#e04a3f"/><stop offset="1" stop-color="#cd372d"/></radialGradient><g fill="none" fill-rule="evenodd" transform="translate(0 25)"><path d="m62.9691343 0h.353984c1.2289257.02671578 2.4378145.52095762 3.3060772 1.39589927-.3205893.32726825-.6478576.64117862-.9617679.96844687-.4875629-.4408103-1.07531-.78143644-1.7164886-.90165743-.94841-.20036832-1.9702884-.02003683-2.7650828.52095762-.8682627.56771023-1.4560097 1.52947815-1.5829097 2.55803551-.1402578 1.01519947.1469368 2.0838305.8081522 2.87194587.6344997.76807855 1.6029466 1.24896251 2.6047882 1.28235723.9350521.05343155 1.9101779-.23376304 2.5914302-.88829954.5343155-.46084713.7814364-1.16213623.8615837-1.84338851-1.1087046 0-2.2174093.00667894-3.326114 0v-1.37586244h4.6685818c.2404419 1.4760466-.1068631 3.13910363-1.2289257 4.19437676-.7480417.74804172-1.783278 1.18885201-2.8385512 1.27567829-1.0218784.1001842-2.0771515-.09350522-2.9854879-.58774707-1.0886678-.58106812-1.9569305-1.56287287-2.3843829-2.71833016-.4007367-1.06195208-.4074156-2.26416198-.0333948-3.332793.3406262-.97512581.9951627-1.83670957 1.8367096-2.43781452.8081522-.594426 1.789957-.92169425 2.7917986-.98180475z" fill="#3780ff"/><path d="m89.7516992.34730508h1.429294v9.53753187c-.474205 0-.9550889.00667895-1.429294-.00667894.006679-3.17249835 0-6.35167564 0-9.53085293z" fill="#38b137"/><g fill-rule="nonzero"><path d="m70.9905459 3.65338231c.8816206-.1669736 1.8367095.02003683 2.5647144.54767339.6612155.46752608 1.1220626 1.2022099 1.2623204 2.00368317.1803315.9283732-.0467526 1.94357267-.6478576 2.6782565-.6478575.8215101-1.7098096 1.26232043-2.7450459 1.19553093-.94841-.0534315-1.8701043-.52763654-2.4311356-1.30239403-.6344996-.85490482-.7881153-2.03039895-.4408103-3.03224053.3473051-1.07530996 1.3291099-1.89682006 2.4378146-2.09050943zm.2003683 1.26899933c-.360663.09350522-.6946102.30055248-.9350522.59442601-.6478575.77475749-.6077839 2.03707789.1068631 2.75840382.4074156.41409453 1.0218784.6077839 1.5895887.49424185.5276365-.09350521.9884837-.44748924 1.2422835-.91501531.4408103-.79479432.3139104-1.89014112-.3606629-2.5112829-.4341314-.40073663-1.0686311-.56771023-1.6430202-.42077347z" fill="#fa3913"/><path d="m78.0702264 3.65338231c1.0085205-.19368938 2.1105462.08682627 2.8652669.79479432 1.2289257 1.10202574 1.3625046 3.1658194.3139104 4.43481874-.6344997.80147326-1.6630571 1.24228353-2.6782565 1.19553093-.9684469-.0267158-1.9235359-.50759971-2.497925-1.30239403-.6478576-.87494165-.7881154-2.07715155-.4207735-3.09902997.3673419-1.04191524 1.3291098-1.83670957 2.4177777-2.02371999zm.2003683 1.26899933c-.360663.09350522-.6946102.30055248-.9350521.58774707-.6411787.7613996-.6144629 2.00368316.0734683 2.73168805.4074156.43413135 1.0419153.64785755 1.6296623.52763656.5209577-.10018416.9884837-.44748924 1.2422836-.91501531.4341314-.80147327.3072314-1.89682006-.3740209-2.51796185-.4341313-.40073663-1.068631-.56103128-1.6363412-.41409452z" fill="#fcbd06"/><path d="m84.0745969 4.04076105c.7680786-.48088396 1.789957-.61446284 2.618146-.20036832.2604788.11354205.4742051.30723142.6812523.5009208.006679-.18033149 0-.36734192.006679-.55435235.4474892.00667895.8949784 0 1.3491466.00667895v5.8908285c-.0066789.88829957-.233763 1.83003067-.8749416 2.47788817-.7012891.714647-1.7765991.9350522-2.745046.7881154-1.0352363-.1536157-1.9368937-.9083364-2.3376303-1.8634253.4007366-.1936894.8215101-.3473051 1.2356046-.5276366.233763.5476734.707968 1.0151995 1.3023941 1.1220626.594426.1068631 1.2823572-.0400737 1.6697359-.5343156.4140945-.5075997.4140945-1.20220985.3940577-1.82335164-.3072314.30055248-.6612154.56771024-1.0886678.66789439-.9283732.26047885-1.9502517-.06011049-2.6648987-.68793122-.7213259-.62782072-1.1487783-1.59626759-1.1087046-2.55803551.0200368-1.08866785.6344996-2.13726204 1.5628728-2.70497227zm1.3825414.85490482c-.4074156.06678944-.7881154.29387353-1.0485942.60778389-.6278207.74804172-.6278207 1.94357267.006679 2.6782565.3606629.43413135.9417311.67457333 1.5027623.61446284.5276366-.05343155 1.0151995-.38737875 1.2756783-.84822588.4408103-.78143643.3673419-1.84338851-.2270841-2.52464078-.3673419-.42077347-.9550889-.62782073-1.5094413-.52763657z" fill="#3780ff"/><path d="m92.8974818 4.38138719c.8014733-.74804172 2.0370779-1.00184158 3.0656352-.60778389.9751259.36734191 1.5962676 1.29571511 1.910178 2.25080409-1.4493308.60110495-2.8919827 1.19553095-4.3413135 1.7966359.2003683.3806998.5075997.72800488.9216942.86826271.5810681.20704726 1.2756783.13357887 1.7632412-.25379987.1936894-.14693677.3473051-.34062614.4942419-.52763657.3673419.24712092.7346838.4875629 1.1020257.73468383-.5209576.78143643-1.3958993 1.32910983-2.3376304 1.41593611-1.0419152.1268999-2.1506199-.27383671-2.8251932-1.08866786-1.1087047-1.28235723-1.0018416-3.43297716.2471209-4.58843445zm.714647 1.23560462c-.2270841.32726825-.3205893.72800488-.3139104 1.12206257.9684469-.40073663 1.9368938-.80147327 2.9053406-1.20888884-.1602946-.37402086-.5476734-.60110495-.9417311-.66121545-.6344996-.11354204-1.2957151.2270841-1.6496991.74804172z" fill="#fa3913"/><path d="m14.9244 10.4256c0 3.0244-.84 5.3364-2.5184 6.9352-1.6792 1.6-4.0976 2.3996-7.2556 2.3996h-5.1248v-18.3188h5.6636c2.9152 0 5.1832.7852 6.804 2.3564 1.6208 1.5696 2.4312 3.7792 2.4312 6.6276zm-3.1576.1004c0-4.3856-2.0508-6.578-6.1524-6.578h-2.5932v13.2944h2.1296c4.4104-.0004 6.616-2.2388 6.616-6.7164zm11.2912 9.4852c-2.1556 0-3.8412-.628-5.0564-1.8856-1.2148-1.2576-1.8236-2.9888-1.8236-5.1932 0-2.2636.564-4.0424 1.6916-5.3384 1.1272-1.2944 2.6768-1.9416 4.6484-1.9416 1.8296 0 3.2752.556 4.336 1.6664 1.0604 1.1112 1.5916 2.6404 1.5916 4.5864v1.5916h-9.2352c.0416 1.3444.4056 2.3784 1.0908 3.1012s1.6496 1.0836 2.894 1.0836c.8188 0 1.5808-.0772 2.2872-.232s1.464-.4112 2.2748-.7704v2.3928c-.6928771.3340558-1.4256158.5781677-2.1804.7264-.7352.142-1.5748.2128-2.5188.2128zm-.5388-12.1292c-.9356 0-1.6852.2968-2.2488.89-.564.5928-.9 1.4584-1.0084 2.5932h6.2908c-.0168-1.1444-.292-2.0112-.8268-2.6-.536-.5888-1.2712-.8832-2.2068-.8832zm10.89 11.8788-5.2624-13.8584h3.108l2.8192 8.0572c.4844 1.3536.7764 2.448.8768 3.2832h.1c.0752-.6016.3676-1.6952.8768-3.2832l2.82-8.0572h3.1316l-5.2872 13.8584zm15.088.2504c-2.1556 0-3.8408-.628-5.0564-1.8856-1.2152-1.2576-1.8236-2.9888-1.8236-5.1932 0-2.2636.5636-4.0424 1.6916-5.3384 1.1276-1.2944 2.6772-1.9416 4.6488-1.9416 1.8292 0 3.2752.556 4.3356 1.6664 1.0604 1.1112 1.5916 2.6404 1.5916 4.5864v1.5916h-9.2348c.0416 1.3444.4056 2.3784 1.0904 3.1012.6852.7228 1.65 1.0836 2.894 1.0836.8192 0 1.5808-.0772 2.2872-.232.706-.1548 1.464-.4112 2.2752-.7704v2.3928c-.6929248.3339381-1.4256482.5780449-2.1804.7264-.7356.142-1.5748.2128-2.5192.2128zm-.5388-12.1292c-.9356 0-1.6852.2968-2.2492.89-.5636.5928-.9 1.4584-1.0084 2.5932h6.2908c-.0168-1.1444-.292-2.0112-.8264-2.6-.536-.5888-1.2712-.8832-2.2068-.8832zm10.6772 11.8788h-2.944v-19.4972h2.944zm14.9624-6.9544c0 2.2636-.5804 4.0304-1.7416 5.3004-1.1608 1.2696-2.7772 1.9044-4.8492 1.9044-1.2948 0-2.4396-.292-3.4332-.8768-.994-.5844-1.7584-1.4244-2.2924-2.5184-.5348-1.0936-.802-2.364-.802-3.8088 0-2.2472.5756-4.0012 1.7288-5.2628 1.1528-1.2608 2.7768-1.8916 4.8744-1.8916 2.0056 0 3.5916.6452 4.7612 1.9356 1.1696 1.29 1.754 3.0296 1.754 5.218zm-10.0864 0c0 3.1996 1.1816 4.7992 3.546 4.7992 2.3388 0 3.5084-1.5996 3.5084-4.7992 0-3.166-1.1768-4.7492-3.5336-4.7492-1.2364 0-2.1316.4088-2.6876 1.2276-.5556.8192-.8332 1.9928-.8332 3.5216zm18.9596 7.2048c-1.7544 0-3.1156-.6304-4.0848-1.8916h-.1752c.1168 1.17.1752 1.8796.1752 2.13v5.6756h-2.9444v-20.0228h2.3808c.0668.2584.2048.8768.4128 1.8548h.1508c.9188-1.404 2.2968-2.1056 4.1352-2.1056 1.7284 0 3.0752.626 4.0412 1.8796.9648 1.2528 1.4472 3.0112 1.4472 5.2752 0 2.2636-.4916 4.0304-1.4724 5.3004-.9816 1.2696-2.3372 1.9044-4.0664 1.9044zm-.714-11.9536c-1.1696 0-2.0244.342-2.5624 1.0272-.5388.6848-.8084 1.7792-.8084 3.2832v.4388c0 1.6876.2672 2.9088.802 3.6652.5344.7568 1.4076 1.134 2.6188 1.134 1.0192 0 1.8048-.4176 2.356-1.2532.5512-.8352.8268-2.0252.8268-3.5712 0-1.554-.2748-2.7296-.8212-3.5268-.5468-.7984-1.3508-1.1972-2.4116-1.1972zm14.1852 11.9536c-2.1552 0-3.8408-.628-5.0564-1.8856-1.2148-1.2576-1.8236-2.9888-1.8236-5.1932 0-2.2636.5636-4.0424 1.6916-5.3384 1.1268-1.2944 2.6764-1.9416 4.6488-1.9416 1.8284 0 3.2748.556 4.3356 1.6664 1.0596 1.1112 1.5916 2.6404 1.5916 4.5864v1.5916h-9.234c.0416 1.3444.4056 2.3784 1.0904 3.1012.6856.7228 1.65 1.0836 2.894 1.0836.8188 0 1.5808-.0772 2.2872-.232s1.4636-.4112 2.2752-.7704v2.3928c-.6929018.3339949-1.4256326.5781041-2.1804.7264-.7364.142-1.5752.2128-2.52.2128zm-.5384-12.1292c-.936 0-1.6856.2968-2.2492.89s-.9 1.4584-1.0084 2.5932h6.2912c-.0168-1.1444-.2924-2.0112-.8268-2.6-.536-.5888-1.2712-.8832-2.2068-.8832zm14.7616-2.2304c.5932 0 1.082.0416 1.4668.1248l-.2888 2.7436c-.426979-.10117794-.864399-.15165976-1.3032-.1504-1.178 0-2.1324.3844-2.8632 1.1532-.7312.7688-1.0964 1.7668-1.0964 2.9944v7.242h-2.9436v-13.8568h2.3056l.3888 2.4432h.1504c.4588-.8268 1.0584-1.4828 1.798-1.9672.7384-.4844 1.5336-.7268 2.3856-.7268zm11.806 10.162c0 1.3532-.4928 2.3916-1.4788 3.1136-.9856.7232-2.3972 1.0836-4.2352 1.0836-1.846 0-3.3288-.2792-4.448-.84v-2.5428c1.6288.7524 3.1448 1.1276 4.5484 1.1276 1.8124 0 2.7192-.5472 2.7192-1.6416 0-.3508-.1004-.6432-.3008-.8772-.2004-.2336-.5304-.4756-.99-.7264-.4596-.2504-1.0988-.5344-1.9172-.852-1.5956-.618-2.6752-1.2364-3.24-1.8548-.5636-.618-.8456-1.42-.8456-2.406 0-1.186.478-2.1076 1.4352-2.7628.9568-.6552 2.2576-.9836 3.9036-.9836 1.6288 0 3.17.33 4.6236.9904l-.9524 2.2176c-1.4952-.618-2.7524-.9268-3.7716-.9268-1.5544 0-2.3304.4424-2.3304 1.3276 0 .4344.2024.8024.6076 1.1032.406.3004 1.2896.714 2.6512 1.2404 1.1432.4428 1.9752.848 2.4924 1.2156s.9024.7916 1.1528 1.2724c.2504.4792.376 1.0544.376 1.722z" fill="#6c6d6d" transform="translate(58 14.8)"/></g><path d="m41.0608 26.5196c.4772.7896.4876 2.034.0756 2.8908l5.6888-9.4752c.5084-.8488.5084-2.2332 0-3.078l-9.194-15.318c-.5104-.844-1.7348-1.5392-2.722-1.5392h-8.014c-.9856 0-1.378.6948-.87 1.5396l5.7244 9.5296c.0348.048.084.0916.114.136z" fill="url(#a)"/><path d="m26.8952 36.7856h8.014c.9876 0 2.2112-.6896 2.7224-1.54l3.506-5.8364c.4112-.8564.4016-2.1008-.0756-2.8908l-5.836-9.6636c.5068.8448.5068 2.2292 0 3.078l-5.692 9.4696c-.0296.0636-.0432.1376-.0752.1964l-3.4932 5.8152c-.3576.7652.0104 1.3716.9296 1.3716z" fill="url(#b)"/><path d="m6.546 10.266c-.4724-.7904-.488-2.0352-.0728-2.8912l-5.6924 9.4772c-.5084.8488-.5084 2.2332 0 3.0792l9.2 15.3144c.5076.8452 1.7328 1.54 2.7164 1.54h8.014c.9892 0 1.382-.694.8736-1.54l-5.7268-9.5288c-.032-.0492-.084-.0916-.1124-.1368z" fill="url(#c)"/><path d="m20.7116 0h-8.014c-.9836 0-2.2088.6908-2.7164 1.5396l-3.508 5.836c-.4152.856-.3996 2.1008.0728 2.8912l5.8396 9.6652c-.5084-.846-.5084-2.2308 0-3.0792l5.6892-9.4696c.0276-.0632.042-.136.0792-.1968l3.4916-5.8144c.3568-.7648-.0148-1.372-.934-1.372z" fill="url(#d)"/></g></svg>