<svg height="90" viewBox="0 0 180 90" width="180" xmlns="http://www.w3.org/2000/svg" xmlns:xlink="http://www.w3.org/1999/xlink"><linearGradient id="a" x1="50%" x2="50%" y1="0%" y2="100%"><stop offset="0" stop-color="#23b8fb"/><stop offset="1" stop-color="#207ff5"/></linearGradient><g fill="none" transform="translate(0 16)"><path d="m23.4858649 1.53691687c1.3547291-1.64903239 4.0852091-1.7611479 5.5824184-.2452527 1.0534187 1.13984108 1.6817327 2.58799983 2.4735486 3.90769289 1.1258266-1.679397 1.7821695-4.00112248 3.8563066-4.75790222 2.0017291-.79882305 4.4659347.47882669 5.0008191 2.55763521.3246679 1.16786996.0513863 2.41982656-.565249 3.44288064-5.1993571 9.03931351-10.4220716 18.06461251-15.6261001 27.10159031-.3036462.5418916-.6656859 1.0534187-.8829097 1.6396894 3.7511983-.0163502 7.5000609.0023357 11.2512592-.009343 2.4548627-.1237942 4.8209672 1.5485956 5.568404 3.8819998.3877328 1.2939999.3106534 2.7281442-.2055451 3.977765-11.9146094-.0023357-23.8292187.009343-35.74382801-.0070072-1.88494211.0513863-3.69046907-1.319693-4.01513692-3.1976279-.32233211-1.6420252.54189167-3.4545594 2.06712983-4.16696.74977251-.3737184 1.59297463-.4811625 2.4221623-.4834982 3.11120557-.0070072 6.2224111.0070072 9.3336167-.0046715.3129892.0513863.3900686-.3433537.5442274-.5302129 4.1506098-7.2431295 8.3666204-14.4512229 12.5078873-21.6990239-1.3664079-2.2399746-2.6627435-4.52666394-3.9403933-6.8180248-.8291876-1.42246561-.7334223-3.34010808.3713827-4.58972893zm12.3280353 26.65079243c-2.2866894-4.0618517-1.8358916-9.6419344 1.5322453-12.9820424 3.8329493 6.6615302 7.6799129 13.318389 11.5362195 19.9705763 3.3237579.0140144 6.6498515-.0233574 9.9736095.0186859 1.4528302.0233574 2.9593824.7357581 3.6227326 2.0788085.9109385 1.5766245.4461263 3.7441911-.9740036 4.8630105-.7474368.5979494-1.7097616.871231-2.658072.8899169-1.805527.0233574-3.6133897-.0093429-5.4212524.0163502 1.1748772 2.155888 2.4712129 4.2417037 3.6601045 6.3882487.6189711 1.0674331.9833465 2.380119.5395559 3.583025-.5886064 1.9526786-2.8682886 3.1625919-4.8092885 2.496906-1.2706425-.3667112-2.127859-1.4785234-2.7398229-2.5879998-4.7532307-8.2451619-9.5204759-16.4833166-14.2620279-24.7354858zm-27.15531232 16.6561614c2.72113702-.700722 6.03555192-.1214585 7.70327022 2.3287327-1.2566281 2.0998302-2.433841 4.2463752-3.6951405 6.3462053-.7334224 1.2496209-2.0647941 2.2376389-3.56901062 2.1582237-1.95968579.053722-3.69280481-1.6583753-3.81192755-3.5853607-.09109385-1.1118123.42043319-2.1442093.95765337-3.0785053.81050175-1.3850937 1.59531036-2.7888734 2.41515508-4.1692957z" fill="url(#a)"/><g transform="translate(72.467532 2.337662)"><path d="m6.63960591 7.96965517h1.67150918l6.63960591 16.57579933h-1.5554322l-1.9268786-4.9448813h-7.98609941l-1.92687864 4.9448813h-1.55543215zm-2.69298701 10.42371693h7.0574832l-3.48231079-8.89150018h-.06964621zm18.0151545-6.1752978c1.6947246 0 3.0412181.626816 4.0394805 1.9268787.8821854 1.1607702 1.3232781 2.6233408 1.3232781 4.4341424 0 1.7643708-.4410927 3.2269413-1.3000627 4.3877116-.975047 1.2536319-2.2983251 1.9036632-4.0162651 1.9036632-1.9268786 0-3.3198029-.9518316-4.2019883-2.8322794v7.103914h-1.3929244v-16.5990148h1.3232781v2.3679714c.8821854-1.8108017 2.2751098-2.6929871 4.2252038-2.6929871zm-.1625078 1.1839857c-1.3000627 0-2.3215406.5107389-3.0412181 1.5322168-.6732468.9054008-.9982625 2.0893864-.9982625 3.551957v.2553694c0 1.4393552.3482311 2.6233408 1.0679087 3.551957.7196775.9286162 1.6947246 1.3929243 2.9251411 1.3929243 1.3697089 0 2.4144021-.5107389 3.1572951-1.4857859.6500313-.9054008.975047-2.1126019.975047-3.6216032 0-1.5090014-.3250157-2.7162024-.9518316-3.6216032-.742893-1.0446933-1.7875862-1.5554322-3.1340797-1.5554322zm13.5345812-1.1839857c1.6947246 0 3.0412181.626816 4.0394806 1.9268787.8821854 1.1607702 1.3232781 2.6233408 1.3232781 4.4341424 0 1.7643708-.4410927 3.2269413-1.3000627 4.3877116-.9750471 1.2536319-2.2983252 1.9036632-4.0162651 1.9036632-1.9268787 0-3.319803-.9518316-4.2019884-2.8322794v7.103914h-1.3929243v-16.5990148h1.3232781v2.3679714c.8821854-1.8108017 2.2751097-2.6929871 4.2252037-2.6929871zm-.1625078 1.1839857c-1.3000627 0-2.3215405.5107389-3.0412181 1.5322168-.6732467.9054008-.9982624 2.0893864-.9982624 3.551957v.2553694c0 1.4393552.3482311 2.6233408 1.0679086 3.551957.7196776.9286162 1.6947246 1.3929243 2.9251411 1.3929243 1.3697089 0 2.4144021-.5107389 3.1572951-1.4857859.6500314-.9054008.975047-2.1126019.975047-3.6216032 0-1.5090014-.3250156-2.7162024-.9518316-3.6216032-.7428929-1.0446933-1.7875862-1.5554322-3.1340797-1.5554322zm21.3581729-5.7574205c1.8108016 0 3.2501567.4410927 4.3180654 1.3232781 1.091124.8821854 1.7179399 2.1822481 1.8572324 3.9001881h-1.4161397c-.1857233-1.3000627-.6732468-2.2751097-1.4625706-2.94835648-.7893238-.67324676-1.9036632-.99826243-3.3430183-.99826243-1.3464935 0-2.3911868.23215405-3.1572952.69646216-.8821854.51073895-1.3000627 1.30006265-1.3000627 2.34475595 0 .9286162.510739 1.6482938 1.5554322 2.2054635.4875235.232154 1.5554322.6036005 3.1805105 1.0679086 2.1126019.6036006 3.5287416 1.1143395 4.2716346 1.5786476 1.3697089.8125392 2.0661711 1.9733094 2.0661711 3.4823108 0 1.4161397-.6036006 2.5536946-1.7875862 3.3894491-1.1375549.7893238-2.6465562 1.1839857-4.5270041 1.1839857-1.9036632 0-3.4126646-.4410927-4.5037886-1.3000627-1.2536319-.9982624-1.950094-2.5072637-2.0893865-4.5037886h1.3929243c.1625079 1.5554322.6964622 2.7162024 1.6250784 3.4823108.8357546.6732467 2.0197403 1.0214778 3.551957 1.0214778 1.4625706 0 2.6465562-.3018002 3.551957-.85897.8821854-.5803851 1.3464935-1.3697089 1.3464935-2.3447559 0-1.1375549-.5803851-2.0197403-1.6947246-2.6465562-.5571697-.3250157-1.7643708-.7661084-3.6448186-1.2768473-1.9733094-.5571697-3.2501567-.9982624-3.8073264-1.3232781-1.2768473-.7196776-1.9036633-1.7643708-1.9036633-3.1108643 0-1.4393551.5803852-2.53047918 1.7875862-3.29658756 1.0679087-.71967756 2.460833-1.06790864 4.1323422-1.06790864zm11.7005642 1.02147783v3.87697267h3.1340797v1.2072011h-3.1340797v8.1253918c0 .510739.0928617.9054008.2785849 1.1375549.1857232.2089386.5339543.3250157 1.0446932.3250157h1.5090014v1.207201h-1.6947246c-.9286162 0-1.601863-.2553694-1.9965249-.7196775-.3714464-.4178773-.5339543-1.0679087-.5339543-1.9500941v-8.1253918h-2.5536946v-1.2072011h2.5536946v-3.29658754zm10.4933632 3.55195697c1.7643708 0 3.1805105.626816 4.2484192 1.9036633.975047 1.1839856 1.4625705 2.6697716 1.4625705 4.4341424s-.4875235 3.2269413-1.4625705 4.410927c-1.0679087 1.2536319-2.4840484 1.9036632-4.2484192 1.9036632s-3.1805105-.6500313-4.2484191-1.9036632c-.9750471-1.1839857-1.4625706-2.6465562-1.4625706-4.410927s.4875235-3.2501568 1.485786-4.4341424c1.0446932-1.2768473 2.4608329-1.9036633 4.2252037-1.9036633zm0 1.2072011c-1.3697089 0-2.4376175.5107389-3.2269413 1.5786476-.7196776.9286162-1.0679087 2.1126019-1.0679087 3.551957 0 1.4161397.3482311 2.6001254 1.0679087 3.5287416.7893238 1.0446932 1.8572324 1.5786475 3.2269413 1.5786475s2.460833-.5339543 3.2501568-1.5786475c.6964621-.9518316 1.0679086-2.1358173 1.0679086-3.5287416 0-1.4393551-.3714465-2.6233408-1.0679086-3.551957-.7893238-1.0679087-1.8804479-1.5786476-3.2501568-1.5786476zm13.2095656-1.2072011c.6964622 0 1.2768473.0696463 1.7411554.2553695v1.4161397c-.6268159-.1857232-1.2304165-.2553694-1.834017-.2553694-1.0679086 0-1.950094.4643081-2.6001254 1.4393551-.6500313.8821854-.9518316 1.9268786-.9518316 3.1340797v6.3378056h-1.3929243v-12.0023645h1.3929243v2.2983251c.3250157-.7428929.7661084-1.3464935 1.3232781-1.7875862.6500313-.5571697 1.4393551-.8357546 2.3215405-.8357546zm8.1718231 0c1.903663 0 3.319803.626816 4.271634 1.9268787.835755 1.1375548 1.300063 2.7394178 1.369709 4.8055889h-9.7504701c.0696462 1.4625705.4643081 2.6233408 1.1839856 3.4590954.742893.8357545 1.71794 1.2536318 2.9715715 1.2536318 1.091124 0 1.97331-.3018002 2.646557-.85897.557169-.4875235.975047-1.1839856 1.276847-2.1126018h1.41614c-.278585 1.1607702-.81254 2.1126018-1.601863 2.8554948-.975047.8821854-2.205464 1.3232781-3.737681 1.3232781-1.6947242 0-3.0412177-.5803851-4.0394801-1.71794-1.0446933-1.1607702-1.5554322-2.7162024-1.5554322-4.6198656 0-1.7643708.4875235-3.2269414 1.485786-4.4341424 1.0214778-1.2536319 2.3679713-1.8804479 4.0626963-1.8804479zm.023215 1.2072011c-1.1839857 0-2.1358173.3946619-2.8554949 1.2304165-.7196775.8125392-1.1375548 1.8572324-1.2536318 3.1572951h8.2646847c-.232155-2.9251411-1.625079-4.3877116-4.155558-4.3877116z" fill="#313131"/><path d="m5.51365876 36.5529781c1.14626063 0 2.11840573.3047022 2.90192566.9141065.78351992.6094044 1.24782803 1.4364532 1.39292431 2.4666369h-1.14626063c-.14509629-.7545007-.52234662-1.3348859-1.10273175-1.7411554-.56587551-.39176-1.24782804-.5803852-2.06036722-.5803852-1.20429915 0-2.13291536.4207792-2.78584864 1.2623377-.60940439.7835199-.91410658 1.8137035-.91410658 3.1050604 0 1.291357.29019257 2.3215406.89959695 3.0760412.63842365.7980296 1.55253023 1.2042992 2.77133901 1.2042992.82704881 0 1.52351097-.2176444 2.1038961-.6529333.60940439-.4643081 1.03018361-1.1462606 1.23331841-2.0458576h1.14626064c-.23215406 1.2042992-.7690103 2.147425-1.62507837 2.8148679-.79802956.623914-1.75566503.9431259-2.85839678.9431259-1.61056874 0-2.84388715-.5368563-3.69995522-1.5960592-.78351992-.9576354-1.16077026-2.2054635-1.16077026-3.7434841s.39175996-2.8003582 1.18978952-3.7870129c.8705777-1.1027318 2.11840573-1.639588 3.71446485-1.639588zm9.30067174 2.8583967c1.1172414 0 2.0168383.3772504 2.6842812 1.1607703.6384237.739991.9576355 1.6686073.9576355 2.8003583 0 1.1172413-.3192118 2.0458575-.9431258 2.771339-.6819526.7835199-1.5815495 1.1752799-2.6987909 1.1752799-1.131751 0-2.0168383-.39176-2.6842812-1.1752799-.6384237-.7254815-.9576355-1.6540977-.9576355-2.771339 0-1.131751.3192118-2.0603673.9576355-2.8003583.6674429-.7835199 1.5525302-1.1607703 2.6842812-1.1607703zm0 .9721451c-.7980296 0-1.4219436.3047022-1.8572324.9141066-.4062696.5513659-.5948948 1.2333184-.5948948 2.0748769 0 .8270488.1886252 1.5090013.5948948 2.0603672.4352888.6094044 1.0592028.9141066 1.8572324.9141066.7835199 0 1.4074339-.3047022 1.871742-.9141066.39176-.5513659.5948948-1.2478281.5948948-2.0603672 0-.8415585-.2031348-1.523511-.5948948-2.0748769-.4643081-.6094044-1.0882221-.9141066-1.871742-.9141066zm8.6622481-.9721451c1.8572324 0 2.8003583 1.0301836 2.8003583 3.0905509v4.6140618h-1.1607703v-4.5270041c0-1.4654724-.6674429-2.1909538-1.9733095-2.1909538-.5223466 0-.9721451.1886251-1.3493954.5658755-.4062696.4062696-.623914.9431258-.6674429 1.6250783v4.5270041h-1.1607703v-7.5014779h1.1607703v1.1027318c.2611733-.4207792.5948948-.7399911 1.0011644-.9576355.4062696-.232154.856068-.3482311 1.3493954-.3482311zm8.1108822 0c1.8572324 0 2.8003583 1.0301836 2.8003583 3.0905509v4.6140618h-1.1607703v-4.5270041c0-1.4654724-.6674429-2.1909538-1.9733094-2.1909538-.5223467 0-.9721451.1886251-1.3493955.5658755-.4062696.4062696-.623914.9431258-.6674429 1.6250783v4.5270041h-1.1607702v-7.5014779h1.1607702v1.1027318c.2611733-.4207792.5948948-.7399911 1.0011644-.9576355.4062696-.232154.8560681-.3482311 1.3493954-.3482311zm7.690103 0c1.2042992 0 2.1184057.4062696 2.7278101 1.2188088.5513659.7254814.8415585 1.755665.8705777 3.0615316h-5.9199283c.0580385.8415584.2756829 1.4944917.6819525 1.9587998s.9721451.6964622 1.6831169.6964622c.6094044 0 1.1172414-.159606 1.4944917-.4643081.3192118-.2611734.5658755-.6529333.7545007-1.1752799h1.1607703c-.1741156.7254814-.507837 1.3058665-1.015674 1.7701746-.623914.5513659-1.4219436.8415585-2.3940887.8415585-1.0737125 0-1.9442902-.3627408-2.5827138-1.0592029-.6674429-.7254814-.9866548-1.6831169-.9866548-2.9019257 0-1.1027317.3047022-2.0313479.9431259-2.771339.6384236-.7835199 1.4944917-1.1752799 2.5827138-1.1752799zm.0290193.9721451c-.6674429 0-1.2042992.2176445-1.6105688.6529333-.4062696.4352889-.6384236 1.015674-.7109718 1.755665h4.68661c-.1450963-1.6105687-.9431259-2.4085983-2.3650694-2.4085983zm8.1689207-.9721451c.9286162 0 1.6686073.2176445 2.2344828.6529333.5803851.4497985.9286162 1.131751 1.0592028 2.0458576h-1.1462606c-.1015674-.5803851-.3337215-1.015674-.6964622-1.3058666-.3772503-.2901925-.856068-.4207792-1.4509628-.4207792-.7254814 0-1.3058665.275683-1.7266458.8270488-.4062696.5368563-.6094044 1.2623377-.6094044 2.1764443s.1886252 1.639588.5948948 2.1619346c.39176.5223466.9721451.7980296 1.7266458.7980296 1.2768473 0 2.0168383-.6529333 2.1909539-1.9442902h1.1607702c-.1741155.9576354-.5368562 1.6976265-1.1172414 2.1909538-.5658755.4788178-1.3058665.7254815-2.2344827.7254815-1.131751 0-2.0023287-.3772504-2.6262427-1.1317511-.5948948-.7109717-.8850874-1.6395879-.8850874-2.7858486 0-1.1462606.2901926-2.0748768.8850874-2.8003582.6384236-.7980296 1.5235109-1.1897896 2.6407523-1.1897896zm6.7034483-2.2199731v2.4231079h1.8572324v.9721451h-1.8572324v4.7736677c0 .275683.0435289.4788178.1596059.5948948.1015674.116077.2901926.1886252.5513659.1886252h.9576354v.9721451h-1.131751c-.6094044 0-1.0592028-.159606-1.3203761-.4788178-.2466637-.2901925-.3627408-.7109718-.3627408-1.2768473v-4.7736677h-1.5090013v-.9721451h1.5090013v-1.9442902zm8.2849977-1.015674h2.9599642v-.8850873h1.0301836v.8850873h2.4666368v.9141066h-2.4666368v1.0446932h2.1184058v.8560681h-2.1329154c-.0290193.3772503-.0725481.7109718-.1450963 1.0301836h2.6262427v.9141066h-2.887416c-.1305866.3192118-.2901926.6094044-.4643081.8705777-.5513659.7254814-1.4364532 1.3058665-2.655262 1.7121361l-.5368562-.8415584c1.131751-.3772503 1.9297805-.8705777 2.379579-1.4944917.0435289-.0870578.0870578-.1596059.1450963-.2466637h-2.7423198v-.9141066h3.0760412c.0725482-.3337214.1305867-.6819525.159606-1.0301836h-2.5682042v-.8560681h2.5972234v-1.0446932h-2.9599642zm5.6587551 6.1811017h1.0446932v1.3203762h4.4689655v2.9019256c0 .7545007-.4062696 1.131751-1.2042991 1.131751h-1.2333184l-.2611733-.9721451 1.1607702.0290193c.3337215 0 .507837-.1450963.507837-.4207792v-1.6976266h-3.4387819v4.0481863h-1.0446932v-4.0481863h-3.3807434v3.163099h-1.0446933v-4.135244h4.4254367zm1.6831169-6.5148231h4.7301388v.7254814c-.3627407.7690103-.7980296 1.5090013-1.2913569 2.2054635.9141066.6964621 1.3784147 1.3203762 1.3784147 1.871742-.0145097.78352-.4207793 1.2623377-1.2042992 1.4364532-.3772503.1015674-.8850873.159606-1.523511.159606l-.3772503-.9866548c.3192118.0290193.5803851.0580385.8125392.0580385.8125392-.0145096 1.2188088-.232154 1.2188088-.6674429 0-.3917599-.507837-1.0156739-1.4944917-1.871742.5078369-.6094044.9431258-1.2623377 1.2913569-1.9587998h-2.4956561v5.9199283h-1.0446932zm12.4347514.2901925v8.8363637c.3337215-.1015674.6529333-.2031348.9721451-.3047022v.9866547c-1.8862517.6094044-4.0772055 1.1752799-6.5728616 1.6976265l-.2901926-1.015674c.3482311-.0725481.6964622-.1450963 1.0446933-.2031348v-9.9971339zm-3.8160322 9.7794895c.9866547-.2176444 1.9152709-.4352888 2.8003582-.6674429v-2.0023287h-2.8003582zm0-3.6128974h2.8003582v-2.1909539h-2.8003582zm0-3.1485894h2.8003582v-2.0603672h-2.8003582zm6.4567846-3.8160322h1.0446932v2.9019256h3.2066279c0 4.5270041-.0725482 7.3128527-.2176445 8.3865652-.1450962 1.1897895-.8705777 1.7991939-2.1764442 1.7991939-.2321541 0-.6384237-.0145096-1.2188088-.0435289l-.2466637-.9286162c.507837.0290193.9431259.0580385 1.3203762.0580385.7690103 0 1.2188088-.4352888 1.3348858-1.2768473.0870578-.7545006.1450963-3.0905508.1741156-6.9791312h-2.1764443v.2031348c-.0435289 4.178773-1.0737125 7.2403045-3.0905508 9.1700851l-.7835199-.6819525c1.8572324-1.7556651 2.8003582-4.5850426 2.8293775-8.4881326v-.2031348h-1.7991939v-1.015674h1.7991939z" fill="#a6a6a6"/></g></g></svg>