<svg height="90" viewBox="0 0 180 90" width="180" xmlns="http://www.w3.org/2000/svg"><g fill="#151515" fill-rule="evenodd" transform="translate(0 28)"><path d="m89.5916667 0h2.5916666c1.9583334.24166667 3.9.64166667 5.825 1.09166667.0083334 1.375.025 2.75833333.0416667 4.13333333-4.9583333-1.59166667-10.7333333-2-15.3166667.85-7.35 4.3833333-7.4916666 16.9083333-.0166666 21.2166667 4.7833333 2.825 10.7083333 2.1583333 15.7666666.45-.0083333 1.3083333 0 2.6166666.0083334 3.9333333-2.325.7666667-4.7 1.4416667-7.1416667 1.6583333h-2.4666667c-5.225-.1833333-10.7166666-2.25-13.725-6.7333333-4.2666666-6.4-3.6666666-15.8166667 1.8416667-21.31666667 3.2666667-3.4 7.975-4.975 12.5916667-5.28333333z"/><path d="m0 .94166667c6.6.19166666 13.675-1.19166667 19.875 1.69166666 6.2083333 2.91666667 7.075 12.42499997 1.9916667 16.79166667-3.8916667 3.4666667-9.4 3.6833333-14.3416667 3.675.00833333 3.2416667-.00833333 6.4833333-.00833333 9.725-2.50833334.0166667-5.00833334.0166667-7.51666667.0083333zm7.53333333 5.64166666c-.00833333 3.59166667-.01666666 7.17499997 0 10.76666667 2.63333337-.075 5.46666667.2416667 7.85833337-1.0916667 3.225-1.725 3.2083333-7.3083333-.125-8.9083333-2.4083334-1.14166667-5.1583334-.74166667-7.73333337-.76666667z" fill-rule="nonzero"/><path d="m31.6.93333333c3.55-.01666666 7.1083333-.01666666 10.6583333.00833334 2.2333334 7.175 4.35 14.40000003 6.2833334 21.66666663 2.0083333-7.2666666 4.2416666-14.4583333 6.4083333-21.66666663 3.4083333-.025 6.8166667-.025 10.2333333-.00833334 1.175 10.62499997 2.325 21.24999997 3.425 31.88333337-2.7916666.0416666-5.5833333.0416666-8.375 0-.4916666-8.9-1.0583333-17.7916667-1.2833333-26.70000003-2.2583333 8.95833333-4.9916667 17.79166663-7.45 26.70000003-2.275.0333333-4.55.0333333-6.825.0166666-2.55-8.95-5.0666667-17.9166666-7.325-26.94999997-.4 9.00833337-1.2416667 17.98333337-2.1416667 26.94999997-2.4.0166667-4.8.0166667-7.1916666-.0083333 1.1583333-10.6333333 2.3583333-21.2666667 3.5833333-31.89166667z"/><path d="m112.75.60833333c1.908333-.03333333 3.816667-.05833333 5.725-.075 4.216667 10.76666667 8.466667 21.51666667 12.608333 32.30833337-1.633333-.0083334-3.275-.0083334-4.908333 0-1.366667-3.4416667-2.725-6.875-4.075-10.3166667-4.316667-.0166667-8.641667-.0083333-12.958333-.0083333-1.325 3.4416666-2.616667 6.9-3.966667 10.3333333-1.558333-.0166667-3.116667-.025-4.675-.025 3.883333-10.8166667 8.725-21.2916667 12.25-32.21666667zm2.8 3.60833334c-1.591667 4.94166666-3.516667 9.76666663-5.3 14.64166663 3.575.0166667 7.15.0416667 10.733333.05-1.791666-4.9083333-3.733333-9.7583333-5.433333-14.69166663z" fill-rule="nonzero"/><path d="m135.316667 32.8416667c-.025-10.7583334-.016667-21.525 0-32.28333337 6.666666-.04166666 13.333333-.025 20.008333-.00833333.158333 1.20833333.316667 2.41666667.483333 3.625-5.258333.025-10.525.00833333-15.783333.01666667-.008333 3.66666666-.008333 7.34166663 0 11.00833333 4.716667.0083333 9.433333-.0083333 14.15.0166667-.008333 1.2083333-.016667 2.4166666-.016667 3.625-4.708333.0333333-9.416666.0083333-14.133333.0166666-.008333 4.6583334.008333 9.3166667-.008333 13.975-1.566667-.0083333-3.133334 0-4.7.0083334z"/><path d="m159.525 32.8333333c-.025-10.7583333-.016667-21.5166666 0-32.2833333 6.675-.025 13.35-.01666667 20.025 0 .158333 1.05.308333 2.10833333.45 3.15833333v.44166667c-5.258333.06666667-10.516667.025-15.766667.04166667-.008333 3.66666666-.008333 7.34166663 0 11.00833333 4.716667.0083333 9.425-.0083333 14.141667.0166667-.008333 1.2083333-.008333 2.4166666 0 3.625-4.716667.0333333-9.425.0166666-14.141667.0166666-.008333 4.6583334 0 9.3166667-.016666 13.975-1.566667 0-3.125 0-4.691667 0z"/></g></svg>