<svg height="90" viewBox="0 0 180 90" width="180" xmlns="http://www.w3.org/2000/svg"><g fill="none" transform="translate(0 19)"><g fill="#000" opacity=".5"><path d="m26.5947467 53.9394934c15.1020866 0 27.3447467-12.2426601 27.3447467-27.3447467s-12.2426601-27.3447467-27.3447467-27.3447467-27.3447467 12.2426601-27.3447467 27.3447467 12.2426601 27.3447467 27.3447467 27.3447467zm0-1.5c-14.2736595 0-25.8447467-11.5710872-25.8447467-25.8447467s11.5710872-25.8447467 25.8447467-25.8447467 25.8447467 11.5710872 25.8447467 25.8447467-11.5710872 25.8447467-25.8447467 25.8447467z"/><path d="m7.48579253 7.48579253h38.21790837v38.21790837h-38.21790837zm1.5 1.5v35.21790837h35.21790837v-35.21790837z"/><path d="m45.6370216 7.48579253h-38.08454981l19.04227491 38.08454067zm-19.0422749 34.73043937-16.61522367-33.23043937h33.23044737z"/></g><path d="m66.7209006 16.5823077h3.0226829l7.8826829 18.0471951h.0889025l7.8530487-18.0471951h3.022683v21.1587805h-2.43v-16.8321951h-.0889025l-7.3196341 16.8321951h-2.1929269l-7.3196341-16.8321951h-.0889024v16.8321951h-2.43zm32.5086585 5.4230488c2.1929269 0 3.7931709.5630488 4.8599999 1.7187805.889024 1.0075609 1.363171 2.4003658 1.363171 4.1784146v9.8385366h-2.222561v-2.5781708c-.592683.8297561-1.392805 1.5113415-2.341098 2.0447561-1.1260973.6223171-2.4003656.9482927-3.8228046.9482927-1.5409756 0-2.7559756-.3852439-3.6746341-1.1557317-.9482927-.8001219-1.4224391-1.8373171-1.4224391-3.0819512 0-1.7484146.6815854-3.0523171 2.1040244-3.9413415 1.2446342-.8297561 3.022683-1.2742683 5.3341464-1.3039024l3.674634-.0592683v-.8001219c0-2.5781708-1.333536-3.8524391-4.0006096-3.8524391-1.1260976 0-2.0447561.2074391-2.7559756.6815854-.800122.4741463-1.3039025 1.215-1.5409757 2.1929268l-2.3410975-.1778049c.3259756-1.6002439 1.1260975-2.8152439 2.3707317-3.5857317 1.1260976-.7112195 2.5781707-1.0668292 4.4154878-1.0668292zm3.8524389 8.3864634-3.5264633.0592683c-3.437561.0592683-5.1563415 1.1853658-5.1563415 3.4079268 0 .7112195.2667074 1.2742683.8593903 1.7484146.5926829.4445122 1.3631707.6815854 2.3114634.6815854 1.4520732 0 2.7263411-.4741463 3.8524391-1.422439 1.096463-.9186586 1.659512-1.9854878 1.659512-3.1708537zm10.134878-12.9204878v4.9489024h3.793171v1.9854878h-3.793171v9.7496342c0 .5630488.088903.9779268.325976 1.215.207439.2370731.592683.3852439 1.126097.3852439h1.955854v1.9854878h-2.311463c-1.244635 0-2.163293-.3259756-2.696708-.9779268-.50378-.592683-.740853-1.4520732-.740853-2.6078049v-9.7496342h-3.081952v-1.9854878h3.081952v-3.9709756zm12.742683 4.5340244c2.459634 0 4.326585.8297561 5.57122 2.4892683 1.126097 1.4817073 1.71878 3.5857317 1.778048 6.2528048h-12.090731c.118536 1.7187805.563048 3.0523171 1.392805 4.0006098.829756.9482927 1.985487 1.422439 3.437561 1.422439 1.244634 0 2.281829-.3259756 3.052317-.9482927.651951-.5334146 1.155731-1.3335365 1.540975-2.4003658h2.370732c-.35561 1.4817073-1.037195 2.6670732-2.07439 3.6153658-1.274269 1.1260976-2.904147 1.7187805-4.889634 1.7187805-2.192927 0-3.970976-.7408536-5.274879-2.1632927-1.36317-1.4817073-2.015121-3.4375609-2.015121-5.9268292 0-2.2521951.622317-4.1487805 1.926219-5.660122 1.303902-1.6002439 3.052317-2.4003658 5.274878-2.4003658zm.059268 1.9854878c-1.36317 0-2.459634.4445122-3.28939 1.3335366s-1.303902 2.0743902-1.452073 3.5857317h9.571829c-.296341-3.2893903-1.926219-4.9192683-4.830366-4.9192683zm16.802561-1.9854878c.829756 0 1.540976.1185366 2.104025.3556097v2.3707317c-.770488-.2370731-1.540976-.3259756-2.28183-.3259756-1.185365 0-2.192926.5037805-2.993048 1.5706098-.829756 1.007561-1.215 2.222561-1.215 3.645v8.1197561h-2.341098v-15.3208537h2.341098v2.6670732c.414878-.8890244.948292-1.6002439 1.600244-2.1040244.800122-.6519512 1.71878-.9779268 2.785609-.9779268zm6.045366-5.3637805c.503781 0 .918659.1481707 1.274269.5037805.355609.2963414.533414.7112195.533414 1.2446341 0 .5037805-.177805.9186586-.533414 1.2742683-.35561.3259756-.770488.5037805-1.274269.5037805-.50378 0-.918658-.1778049-1.274268-.5037805-.35561-.3556097-.503781-.7704878-.503781-1.2742683 0-.5334146.148171-.9482927.503781-1.2446341.35561-.3556098.770488-.5037805 1.274268-.5037805zm-1.185366 5.7786585h2.370732v15.3208537h-2.370732zm13.483537-.414878c2.192927 0 3.793171.5630488 4.86 1.7187805.889024 1.0075609 1.363171 2.4003658 1.363171 4.1784146v9.8385366h-2.222561v-2.5781708c-.592683.8297561-1.392805 1.5113415-2.341098 2.0447561-1.126097.6223171-2.400366.9482927-3.822805.9482927-1.540975 0-2.755975-.3852439-3.674634-1.1557317-.948293-.8001219-1.422439-1.8373171-1.422439-3.0819512 0-1.7484146.681585-3.0523171 2.104024-3.9413415 1.244635-.8297561 3.022683-1.2742683 5.334147-1.3039024l3.674634-.0592683v-.8001219c0-2.5781708-1.333537-3.8524391-4.00061-3.8524391-1.126097 0-2.044756.2074391-2.755975.6815854-.800122.4741463-1.303903 1.215-1.540976 2.1929268l-2.341098-.1778049c.325976-1.6002439 1.126098-2.8152439 2.370732-3.5857317 1.126098-.7112195 2.578171-1.0668292 4.415488-1.0668292zm3.852439 8.3864634-3.526463.0592683c-3.437561.0592683-5.156342 1.1853658-5.156342 3.4079268 0 .7112195.266707 1.2742683.85939 1.7484146.592683.4445122 1.363171.6815854 2.311464.6815854 1.452073 0 2.726341-.4741463 3.852439-1.422439 1.096463-.9186586 1.659512-1.9854878 1.659512-3.1708537zm6.519512-14.2243903h2.341098v21.5736586h-2.341098z" fill="#7f7f7f"/></g></svg>