<svg height="90" viewBox="0 0 180 90" width="180" xmlns="http://www.w3.org/2000/svg" xmlns:xlink="http://www.w3.org/1999/xlink"><linearGradient id="a" x1="0%" x2="100%" y1="100%" y2="0%"><stop offset="0" stop-color="#ec407a"/><stop offset="1" stop-color="#ffa000"/></linearGradient><mask id="b" fill="#fff"><path d="m2.12698296 0 2.12698295 4.54787122h-4.25396591zm-2.12698296 5.26595615h4.25396591v20.34573965h-4.25396591zm0 21.06382455h4.25396591v2.4734037h-4.25396591zm7.56868271-21.79392577 2.94781879-2.95335174 13.5443341 13.59501541-13.6127864 13.9811016-2.94138623-2.8017359 10.69336803-11.157255z" fill="#fff" fill-rule="evenodd"/></mask><g fill="none" fill-rule="evenodd" transform="translate(0 29)"><path d="m36.4732612 23.5080118 10.8023147-13.0625815h-10.6261899v-1.14481047h12.2700204v1.05674817l-10.7729606 13.0625815h10.7142523v1.1448104h-12.3874369zm22.2210657 1.3502893c-1.076323 0-2.0743528-.210369-2.9941198-.6311135-.9197669-.4207443-1.7172124-.9980362-2.3923605-1.7318927-.6751479-.7338565-1.2035168-1.5802252-1.5851221-2.539131-.3816056-.958906-.5724054-1.9862897-.5724054-3.0821822 0-1.0763229.1907998-2.0890298.5724054-3.038151.3816053-.9491211.9050818-1.7808128 1.5704452-2.4950998.6653632-.7142871 1.4530241-1.276902 2.3630062-1.68786168.9099821-.41095967 1.8933352-.61643643 2.9500887-.61643643 1.0763229 0 2.0743528.21036906 2.9941198.63111349.9197669.42074442 1.7123201.98825162 2.3776833 1.70253872.6653632.714287 1.1839475 1.5459787 1.5557681 2.4950998.3718207.9491212.5577283 1.9520435.5577283 3.0087969v.3669264c0 .1467714-.0097846.2397251-.0293542.2788642h-13.3854767c.0587085.8806278.2641853 1.6976425.6164365 2.4510685.352251.7534262.7974507 1.4041025 1.3356121 1.9520487.5381615.5479464 1.1594841.9784691 1.8639864 1.2915812.7045023.3131122 1.4579171.4696658 2.260267.4696658.5283767 0 1.0469608-.0733844 1.5557681-.2201558.5088072-.1467714.9833606-.3473558 1.4236746-.6017594.4403139-.2544037.8316982-.5626188 1.1741646-.9246547s.6115431-.7583125.8072381-1.1888417l1.2915812.3522494c-.2152645.5479462-.5332644 1.0518535-.9540087 1.511737-.4207445.4598835-.9099748.85616-1.4677058 1.1888417-.5577311.3326817-1.1692689.5919737-1.8346323.7778841-.6653632.1859103-1.3502858.278864-2.0547881.278864zm5.9882397-8.5126934c-.0587086-.9001975-.259293-1.7221045-.6017594-2.4657458-.3424665-.7436413-.7827738-1.3845331-1.3209353-1.9226946-.5381614-.5381615-1.159484-.9588996-1.8639863-1.262227-.7045023-.3033273-1.4579171-.4549888-2.260267-.4549888-.8023498 0-1.5557646.1516615-2.2602668.4549888-.7045023.3033274-1.3258249.7240655-1.8639863 1.262227-.5381615.5381615-.9686842 1.1839456-1.2915812 1.9373716-.3228969.7534261-.5136968 1.5704408-.5724052 2.4510688zm11.8590627-5.7240527c-1.3698656.0391391-2.56848.4452003-3.5958791 1.2181958-1.0273993.7729956-1.746568 1.8346255-2.1575276 3.1849216v9.5400875h-1.4677058v-15.26414007h1.4089976v3.75732687c.5283767-1.076323 1.2279761-1.9520454 2.0988192-2.6271934.8708432-.67514805 1.8052732-1.06164004 2.8033181-1.15948758.1956951-.01956951.371818-.02935412.5283741-.02935412h.3816035zm9.1878382 14.2367461c-1.076323 0-2.0694607-.210369-2.9794428-.6311135-.9099821-.4207443-1.697643-.9931438-2.3630063-1.7172158-.6653632-.7240717-1.1839475-1.5655479-1.5557681-2.5244539-.3718207-.9589059-.5577281-1.9667204-.5577281-3.0234738 0-1.076323.1907998-2.0939222.5724052-3.0528281.3816053-.9589059.9050818-1.8003821 1.5704452-2.5244539.6653632-.7240719 1.4530241-1.2964714 2.3630063-1.71721582.9099822-.42074443 1.8933351-.63111349 2.9500886-.63111349 1.0567534 0 2.0352142.21036906 2.9354116.63111349.9001973.42074442 1.6878582.99314392 2.3630063 1.71721582.675148.7240718 1.2035168 1.565548 1.5851222 2.5244539.3816055.9589059.5724053 1.9765051.5724053 3.0528281 0 1.0567534-.1907998 2.0645679-.5724053 3.0234738-.3816054.958906-.9050819 1.8003822-1.5704451 2.5244539-.6653633.724072-1.4530242 1.2964715-2.3630063 1.7172158-.9099821.4207445-1.8933353.6311135-2.9500887.6311135zm-5.9882396-7.8375488c0 .9001974.1565538 1.7465659.4696658 2.539131.3131122.7925651.7387426 1.4823799 1.2769041 2.0694651.5381615.5870853 1.1692686 1.0518541 1.8933404 1.3943205.7240718.3424665 1.4970559.513697 2.3189752.513697s1.5949033-.1712305 2.3189751-.513697c.7240719-.3424664 1.3600713-.8170198 1.9080175-1.4236746.5479464-.6066548.9784689-1.3062541 1.2915812-2.0988192.313112-.7925652.4696657-1.6487183.4696657-2.5684851 0-.9001975-.1565537-1.746566-.4696657-2.5391311-.3131123-.7925651-.7436348-1.4872722-1.2915812-2.0841422-.5479462-.59687-1.1790534-1.0714235-1.8933404-1.4236746-.7142871-.3522512-1.4823788-.5283741-2.3042981-.5283741s-1.5949033.1761229-2.3189751.5283741c-.7240718.3522511-1.3551791.8316969-1.8933406 1.4383517-.5381614.6066547-.9686842 1.3160387-1.291581 2.1281733-.3228969.8121346-.4843429 1.6682878-.4843429 2.5684852zm29.4421781 7.5440076h-1.467706v-8.5126934c0-3.7769152-1.262214-5.6653444-3.786681-5.6653444-.626224 0-1.237762.1174153-1.834632.3522494s-1.154593.5675107-1.673185.9980399c-.5185915.4305292-.9735758.9344365-1.3649659 1.511737-.3913903.5773005-.6849284 1.1986231-.8806235 1.8639863v9.4520252h-1.4677058v-21.42850437h1.4677058v9.80427467c.6262243-1.19374 1.492162-2.1428469 2.5978394-2.8473492 1.105677-.70450234 2.294507-1.05674821 3.566525-1.05674821.841489 0 1.56555.15655372 2.172204.46966585.606655.31311213 1.110563.76320406 1.511737 1.35028936.401175.5870852.694714 1.2964692.880624 2.1281734.18591.8317041.278864 1.7661341.278864 2.803318zm10.919731.2935412c-1.076323 0-2.074353-.210369-2.99412-.6311135-.919767-.4207443-1.717212-.9980362-2.39236-1.7318927s-1.203517-1.5802252-1.585122-2.539131c-.381606-.958906-.572406-1.9862897-.572406-3.0821822 0-1.0763229.1908-2.0890298.572406-3.038151.381605-.9491211.905081-1.7808128 1.570445-2.4950998.665363-.7142871 1.453024-1.276902 2.363006-1.68786168.909982-.41095967 1.893335-.61643643 2.950089-.61643643 1.076323 0 2.074353.21036906 2.99412.63111349.919766.42074442 1.71232.98825162 2.377683 1.70253872.665363.714287 1.183947 1.5459787 1.555768 2.4950998.371821.9491212.557728 1.9520435.557728 3.0087969v.3669264c0 .1467714-.009784.2397251-.029354.2788642h-13.385477c.058709.8806278.264186 1.6976425.616437 2.4510685.352251.7534262.79745 1.4041025 1.335612 1.9520487.538161.5479464 1.159484.9784691 1.863986 1.2915812.704503.3131122 1.457917.4696658 2.260267.4696658.528377 0 1.046961-.0733844 1.555768-.2201558.508808-.1467714.983361-.3473558 1.423675-.6017594.440314-.2544037.831698-.5626188 1.174165-.9246547.342466-.3620359.611543-.7583125.807238-1.1888417l1.291581.3522494c-.215265.5479462-.533264 1.0518535-.954009 1.511737-.420744.4598835-.909975.85616-1.467706 1.1888417s-1.169269.5919737-1.834632.7778841c-.665363.1859103-1.350286.278864-2.054788.278864zm5.98824-8.5126934c-.058709-.9001975-.259293-1.7221045-.60176-2.4657458-.342466-.7436413-.782773-1.3845331-1.320935-1.9226946-.538161-.5381615-1.159484-.9588996-1.863986-1.262227-.704503-.3033273-1.457917-.4549888-2.260267-.4549888s-1.555765.1516615-2.260267.4549888c-.704502.3033274-1.325825.7240655-1.863986 1.262227-.538162.5381615-.968685 1.1839456-1.291582 1.9373716-.322896.7534261-.513696 1.5704408-.572405 2.4510688zm4.63795 8.2191522v-15.26414007h1.467706v15.26414007zm0-18.72792573v-2.70057864h1.467706v2.70057864zm12.240666 18.96275883c-1.056753 0-2.025429-.2201537-2.906057-.6604677-.880628-.4403139-1.638935-1.0273904-2.274944-1.7612469-.636009-.7338566-1.135024-1.5704405-1.49706-2.509777-.362036-.9393363-.543051-1.9080125-.543051-2.9060573 0-1.037184.17123-2.035214.513697-2.9941199.342466-.9589059.826804-1.8052744 1.453028-2.539131.626225-.7338565 1.374747-1.3160407 2.24559-1.74656986.870843-.43052918 1.834627-.64579055 2.891381-.64579055 1.330726 0 2.490202.34735356 3.478462 1.04207111.988261.6947175 1.824845 1.5410861 2.509777 2.539131v-3.31701507h1.35029v15.55768127c0 1.037184-.195693 1.9471525-.587083 2.7299329-.39139.7827802-.914866 1.4334567-1.570445 1.9520487-.655578.518592-1.418778.9099762-2.289621 1.1741646s-1.785704.3962806-2.74461.3962806c-.880628 0-1.673181-.0831692-2.377683-.24951s-1.325825-.4011715-1.863986-.7044988c-.538162-.3033274-1.017608-.6751425-1.438352-1.1154564-.420745-.440314-.787667-.924652-1.100779-1.4530287l.998039-.6751448c.606655 1.037184 1.428562 1.7954912 2.465746 2.2749441s2.142845.7191758 3.317015.7191758c.782781 0 1.521519-.1076307 2.216236-.3228953.694718-.2152646 1.301363-.5332643 1.819955-.9540088.518592-.4207443.929546-.9442209 1.232873-1.5704452.303328-.6262243.454989-1.3600697.454989-2.2015587v-3.3463691c-.626224.9980449-1.457916 1.7954904-2.4951 2.3923604-1.037184.5968701-2.123275.8953006-3.258307.8953006zm.35225-1.2622271c.645793 0 1.276901-.1223075 1.89334-.3669264.61644-.2446189 1.174162-.5626186 1.673185-.9540088.499022-.3913901.909976-.8316974 1.232872-1.3209352.322897-.4892377.523482-.978468.60176-1.4677058v-5.0195537c-.234834-.5870853-.547942-1.130131-.939332-1.6291534-.39139-.4990225-.83659-.9246529-1.335612-1.2769041-.499023-.3522511-1.037176-.6311124-1.614476-.8365923-.577301-.2054798-1.159485-.3082182-1.74657-.3082182-.919767 0-1.741674.1956921-2.465746.5870823s-1.33561.9001898-1.834632 1.526414c-.499023.6262243-.880622 1.3356083-1.144811 2.1281734-.264188.7925651-.39628 1.5900106-.39628 2.3923604 0 .8806279.156553 1.7123196.469665 2.4950998.313113.7827804.743635 1.4774876 1.291582 2.0841424.547946.6066546 1.19373 1.0861004 1.937371 1.4383515.743641.3522512 1.536195.5283741 2.377684.5283741zm23.923604 1.027394h-1.467705v-8.5126934c0-3.7769152-1.262216-5.6653444-3.786683-5.6653444-.626223 0-1.237762.1174153-1.834631.3522494-.59687.2348341-1.154592.5675107-1.673185.9980399-.518591.4305292-.973576.9344365-1.364966 1.511737s-.684928 1.1986231-.880624 1.8639863v9.4520252h-1.467705v-21.42850437h1.467705v9.80427467c.626225-1.19374 1.492163-2.1428469 2.597839-2.8473492 1.105679-.70450234 2.294507-1.05674821 3.566526-1.05674821.841489 0 1.56555.15655372 2.172204.46966585.606655.31311213 1.110562.76320406 1.511738 1.35028936.401174.5870852.694713 1.2964692.880623 2.1281734.18591.8317041.278864 1.7661341.278864 2.803318zm11.242627-.7338528c-.078278.0391391-.210371.1125236-.396281.2201559s-.420741.2103707-.7045.3082183c-.283757.0978475-.601757.1859089-.954008.2641869-.35225.0782781-.73385.1174165-1.144811.1174165-.410959 0-.79745-.0587076-1.159487-.1761248-.362035-.117417-.680035-.2935398-.954008-.528374-.273974-.234834-.489235-.5185877-.645791-.8512693-.156556-.3326817-.234834-.7240659-.234834-1.1741646v-11.5068134h-2.142849v-1.20351877h2.142849v-5.22503261h1.467706v5.22503261h3.551848v1.20351877h-3.551848v11.154564c0 .5675157.195693.9931462.587083 1.276904.391391.2837579.831698.4256347 1.320934.4256347.606656 0 1.130132-.1027384 1.570447-.3082183.440313-.2054798.709391-.337572.807238-.3962806z" fill="#000" fill-rule="nonzero"/><path d="m2.12698296 0 2.12698295 4.54787122h-4.25396591zm-2.12698296 5.26595615h4.25396591v20.34573965h-4.25396591zm0 21.06382455h4.25396591v2.4734037h-4.25396591zm7.56868271-21.79392577 2.94781879-2.95335174 13.5443341 13.59501541-13.6127864 13.9811016-2.94138623-2.8017359 10.69336803-11.157255z" fill="#fff" fill-rule="nonzero"/><path d="m0 0h24.101274v29.1586202h-24.101274z" fill="url(#a)" mask="url(#b)"/></g></svg>