<svg height="90" viewBox="0 0 180 90" width="180" xmlns="http://www.w3.org/2000/svg"><g fill="#222" fill-rule="evenodd" transform="translate(0 23)"><path d="m0 0h180v43.4482759c-60.001293 0-119.9987069 0-180 0 0-14.4814656 0-28.9668104 0-43.4482759zm118.004741 4.53491379c-.003879 11.53318961 0 23.06637931 0 34.59568961 19.167673.0038794 38.339225.0038794 57.506897 0 0-11.5293103.003879-23.0625 0-34.5918103-19.167672-.00775862-38.339224-.00387931-57.506897-.00387931zm-105.12931 7.27370691c-.0038793 6.6491379 0 13.3021552 0 19.9512931 2.7853449-.0349138 5.574569.0775862 8.3560345-.062069 2.6418104-.1551724 5.2719828-1.5866379 6.474569-4.0073276 1.5012931-3.025862 1.6099138-6.6103448.9193965-9.8689655-.550862-2.7-2.6650862-5.0081896-5.3767241-5.6172414-3.4021552-.7448275-6.9206897-.2560344-10.3732759-.3956896zm19.637069.0038793c.0038793 6.6491379 0 13.2982759.0038793 19.9474138 4.1741379.0038793 8.3521552.0038793 12.5301724 0 .0038793-1.2840517.0038793-2.5681035 0-3.8482759-2.5952586-.0077586-5.1866379 0-7.7818965-.0038793-.0038793-1.4314655 0-2.862931 0-4.2905172 2.2150862-.0038793 4.4262931 0 6.6413793-.0038793.0038793-1.2840518.0038793-2.5681035 0-3.8482759-2.2150862-.0077586-4.4262931-.0038793-6.6413793-.0038793.0038793-1.3577586-.0038793-2.7116379-.0077586-4.0693966 2.5875-.0155172 5.175 0 7.7625-.0077586.0038793-1.2918103.0038793-2.5836207 0-3.875431-4.1663794 0-8.336638-.0077586-12.5068966.0038793zm19.6913793.4228448c-3.6 1.4469828-4.3952586 7.0487069-1.3344827 9.4228449 1.7922413 1.3732758 4.0965517 1.7767241 6.0362068 2.8823275 1.2840518.6788794 1.0125 2.8900862-.3452586 3.324569-1.5206896.4306035-4.0267241.1280172-3.9801724-1.9396552-1.3577586-.0116379-2.7155172-.0077586-4.0771552-.0038793-.2172413 1.9629311.5159483 4.1508621 2.4090518 5.0314655 2.9637931 1.4275862 6.9051724 1.3693966 9.5120689-.7952586 2.374138-2.1103448 2.7232759-6.7228448-.1241379-8.5810345-1.9668103-1.2918103-4.3176724-1.8155172-6.3426724-2.9948275-1.0900862-.6012932-1.0047414-2.3857759.0814655-2.9482759 1.4159483-.7331897 4.05-.2676724 3.6814655 1.7961207 1.2918104.0116379 2.5875 0 3.8793104-.011638.0271551-1.6176724-.2056035-3.4525862-1.5788793-4.5193965-2.1879311-1.7030172-5.3418104-1.6875-7.8168104-.6633621zm13.7017241-.4267241c-.0077586 6.6491379-.0038793 13.3021552-.0038793 19.9512931 1.5827587.0038793 3.1655173.0038793 4.7482759 0 0-6.6491379.0038793-13.3021552-.0038793-19.9512931-1.5788793-.0038793-3.1616379-.0038793-4.7405173 0zm10.8698276 1.7728448c-2.5836207 2.475-2.7387931 6.3543104-2.5797413 9.7021552.0969827 2.9094827 1.0745689 6.2262931 3.8521551 7.6538793 3.6038793 1.7922414 7.8168104.8612069 11.4711207-.2948276-.0077586-3.5107758 0-7.025431-.0038793-10.5400862-2.2965517-.0038793-4.5892241-.0038793-6.8818965 0-.0077587 1.2607759-.0038794 2.5215517.0038793 3.7862069 1.062931-.0077586 2.125862-.0077586 3.1887931-.0038793.0077586 1.3150862.0038793 2.6301724 0 3.9491379-1.7146552.1706897-3.5922414.5935345-5.2137931-.2094827-1.6331897-.9775862-1.8737069-3.0840518-2.0521552-4.8064656-.0543104-2.0211206-.2482759-4.325431 1.0318965-6.0400862 1.3732759-1.9241379 5.0857759-1.9939655 5.7879311.5702587 1.3538793.0271551 2.7077586.0116379 4.0655172-.0038793-.1823276-1.9706897-1.1676724-3.9297414-2.9521552-4.8918104-3.0336206-1.625431-7.137931-1.1521552-9.7176724 1.1288793zm17.0107759-1.7689655c-.0038793 6.6491379-.0038793 13.2982759-.0038793 19.9474138 1.4392241.0038793 2.8784483.0038793 4.3137931 0 .0155172-4.4456897-.0116379-8.8913793-.0155173-13.337069.4189656 1.0706897.8030173 2.1607759 1.35 3.1771552 1.8155176 3.3827586 3.5999996 6.7771552 5.4077586 10.1637931 1.493535 0 2.990948 0 4.484483-.0038793 0-6.6491379.003879-13.3021552 0-19.9512931-1.423707 0-2.843535-.0038793-4.263362 0 .019396 4.1469827-.073707 8.2978448.089224 12.4448276-1.846552-4.286638-4.267241-8.2939655-6.3931036-12.4448276-1.6564655-.0038793-3.312931-.0038793-4.9693965.0038793z" fill-rule="nonzero"/><path d="m125.837069 11.7853448c1.590517-.0038793 3.181034-.0038793 4.775431 0 .023276 3.1150862-.050431 6.2301724.046552 9.3452586 1.590517-3.3827586 4.057758-6.2301724 6.082758-9.3452586 1.706897.0077586 3.409914-.050431 5.112931.0504311-1.9125 2.637931-3.925862 5.2021551-5.877155 7.8051724 1.346121 2.525431 2.622414 5.0896551 4.003448 7.5918103.256035.6400862 1.008621.4383621 1.547845.5314655-.007758 1.3461207-.007758 2.6922414-.007758 4.0383621-1.586638.1202586-3.588362.4034483-4.678449-1.062931-1.51681-2.1607759-2.509913-4.6396552-3.797844-6.9400862-.826294 1.0668103-1.640949 2.1452586-2.440087 3.2353448.011638 1.5827586.007759 3.1655172.007759 4.7482759-1.594397.0077586-3.188793.0077586-4.77931 0 .003879-6.6646552 0-13.3331897.003879-19.9978449z"/><path d="m145.427586 11.7853448c1.598276-.0038793 3.196552-.0038793 4.794828-.0038793.003879 6.6607759.003879 13.3215517.003879 19.9784483-1.602155.0038793-3.200431.0038793-4.798707 0-.003879-6.6568966-.003879-13.3176724 0-19.974569z"/><path d="m153.717672 11.7814655c4.67069.0038793 9.34138-.0038793 14.012069.0038793.00388 1.299569 0 2.599138 0 3.8987069-1.528448 0-3.053017.0038793-4.577586.0038793-.003879 5.3573276-.003879 10.7146552 0 16.0719828-1.609914.0038793-3.219827.0038793-4.829741 0 0-5.3573276.003879-10.7146552 0-16.0719828-1.536207 0-3.072414-.0038793-4.604742-.0038793-.003879-1.2995689 0-2.5991379 0-3.9025862z"/><path d="m17.5771552 15.5676724c1.575.0698276 3.2780172-.2560345 4.7482758.4616379 1.4857759.9465518 1.5788793 2.925 1.6836207 4.5077587-.0077586 2.0482758.1590517 4.2594827-.8262931 6.125431-1.225862 1.8426724-3.7435345 1.1637931-5.6056034 1.287931 0-4.1275862 0-8.2551724 0-12.3827586z"/></g></svg>