<svg height="90" viewBox="0 0 180 90" width="180" xmlns="http://www.w3.org/2000/svg"><g fill="none" fill-rule="evenodd"><g fill="#56657d" transform="translate(0 32)"><path d="m137.659398 2.40451128c.094737-1.3962406 1.497745-2.49022557 2.87594-2.27142857 1.655639.24360902 2.921053 1.45263158 4.139098 2.50150376 1.213534-1.08496241 2.521805-2.29398497 4.202256-2.51278196 1.405263-.17819549 2.749624.97669173 2.815037 2.38421053.094737 2.11127819-.999248 4.01729323-1.894737 5.85338346.47594.62481203.954136 1.24962406 1.430076 1.8789474 2.025564.187218 4.057894.4488721 6.011278 1.0375939.98797.3135339 2.018797.7556391 2.643609 1.6263158.737594 1.012782.54812 2.5330827-.369925 3.3721805-.967669.8661654-2.26015 1.2112782-3.487218 1.524812.890977 1.8360902 2.007519 3.7781955 1.768421 5.8917293-.193985 1.5924812-2.01203 2.5511279-3.47594 1.9984963-1.865413-.656391-3.268421-2.1383459-4.651128-3.4872181-.345112-.3744361-.825563-.6992481-.897744-1.2406015-.193985-.9225564.981203-1.7075188 1.761654-1.1706767.656391.5368421 1.16391 1.2360903 1.820301 1.7774437.929323.8007518 1.849624 1.7796992 3.115038 1.9939849.166917-.956391-.225564-1.8721804-.577444-2.7360902-1.317293-2.9616541-3.045113-5.7451128-4.973684-8.3413534-3.478196-.3112782-7.00376-.2548872-10.486466.0203008-1.689474 2.1879699-3.130828 4.5857142-4.396241 7.0466165-.530075 1.1571429-1.179699 2.3413534-1.209023 3.6406015-.009022.575188.638346.2300752.918046.0992481 1.5-.843609 2.668421-2.1473684 3.870676-3.356391.552632-.5593985 1.594737-.3225563 1.881203.4015038.225564.4759399.011278 1.0263158-.340601 1.3759399-1.267669 1.2992481-2.564662 2.61203-4.136842 3.5458646-1.026316.6022557-2.442858.8661654-3.45564.0947369-1.003759-.6969925-1.2203-2.0481203-.987969-3.1736843.324812-1.5969924 1.062406-3.074436 1.795488-4.5180451-1.202255-.3451127-2.519549-.7511278-3.295488-1.8045112-.68797-.9180452-.631579-2.2894737.137594-3.1421053.872932-1.0105263 2.22406-1.3759399 3.464661-1.7097744 1.441354-.3473685 2.914286-.550376 4.389474-.7037594.498496-.64511282.981203-1.3015038 1.479699-1.94661658-.902255-1.86541354-2.059398-3.79849624-1.883459-5.95037594zm2.312031 0c-.117294 1.42556391.622556 2.70902255 1.166165 3.97443609.613534-.70150376 1.227068-1.40526316 1.874436-2.07969925-.904511-.77142857-1.797744-1.74586466-3.040601-1.89473684zm6.358646 1.89022556c.638346.68120301 1.258647 1.38045113 1.860902 2.09774436.550376-1.26992481 1.281203-2.55789473 1.1797-3.9924812-1.240602.15789474-2.147369 1.11203008-3.040602 1.89473684zm-5.138346 5.75413536c2.316542-.07443611 4.63985-.13308273 6.954136.0045113-1.09173-1.42781959-2.255639-2.8015038-3.487218-4.11428576-1.218045 1.31729324-2.368421 2.69548873-3.466918 4.10977446zm-9.365413 4.224812c.620301.8864662 1.78421 1.0015038 2.740601 1.3037594.530075-.9315789 1.12782-1.8203007 1.698497-2.724812-1.524812.2932331-3.146617.4917293-4.439098 1.4210526zm21.166917-1.5067669c.63609.9586466 1.256391 1.9308271 1.858647 2.9120301 1.132331-.2774436 2.361654-.4669173 3.268421-1.2699248-.270677-.250376-.534587-.5278196-.886466-.6586467-1.346617-.5616541-2.806015-.7804511-4.240602-.9834586z" fill-rule="nonzero"/><path d="m1.23383459 2.82631579c.76466165-.25037594 1.71203007.39473684 1.68947368 1.21578947.14210526 5.04135339.04511278 10.08947364.00902256 15.13082704.04962406.8729324-.12406015 1.7819549.1037594 2.6323309.70150375.4172932 1.59924812.0609022 2.3774436.130827 2.47669173.0631579 4.95789477-.1105263 7.43007517-.0180451 1.4390978.2774436.9721805 2.7180451-.4127819 2.6616541-3.62030078.0225564-7.24060154.1511279-10.86090229.112782-.67218045.0157895-1.28571428-.5661654-1.32631579-1.2338346-.10150376-6.4804511-.09924812-12.9654135 0-19.44586465.03609023-.55488721.45338346-1.04887218.99022557-1.18646616z"/><path d="m25.3646617 2.85112782c2.5511278-.4962406 5.2714285-.02706767 7.524812 1.25864662 3.575188 2.06616541 5.8578947 6.20977446 5.6300752 10.33984966-.1736842 4.6917293-3.7466166 9.0045112-8.2894737 10.1390977-3.5819549.9135338-7.6218045.0203008-10.3804511-2.4721804-2.7203008-2.4676692-4.0601504-6.3112782-3.5842106-9.9383459.550376-4.67368422 4.5473685-8.49248121 9.0992482-9.32706768zm.6654135 2.70676692c-1.9872181.33834586-3.8278196 1.3962406-5.1428572 2.92330827-2.3593985 2.66165409-2.5172932 6.84360899-.6203007 9.80075189 1.9894737 3.2729323 6.4082707 4.7120301 9.9721804 3.3766917 3.9338346-1.4233083 6.4015038-6.1082707 5.1857143-10.1413534-1.1368421-3.89999997-5.3548872-6.66992478-9.3947368-5.95939846z" fill-rule="nonzero"/><path d="m52.8789474 2.83082707c3.243609-.60225564 6.7037594.4037594 9.2165413 2.51278195.5345865.41052632.9428572 1.10075188.7353384 1.78872181-.2706767.99022556-1.6872181 1.26090225-2.3774436.55037594-1.2428572-1.05112782-2.7157895-1.87443609-4.337594-2.13157895-3.331579-.52105263-6.8481203 1.20451128-8.5872181 4.07142857-2.1112782 3.43308271-1.1503759 8.29624061 1.962406 10.80225561 2.5082707 2.0661654 6.250376 2.2060151 9.0631579.6857143 1.831579-.9293233 3.3-2.6300752 3.7466166-4.6578947.0766917-.3699248.1939849-.9022557-.2481203-1.0917293-1.4413534-.0766918-2.8872181.024812-4.3308271-.0360903-1.0578947-.0992481-1.6037594-1.6556391-.7781955-2.3639097.3857143-.3947369.9631579-.3992482 1.4774436-.3924812 1.8157895.0180451 3.631579-.0045113 5.4473685.0090225.7037594-.0473684 1.4097744.4917293 1.4526315 1.2135338.2819549 2.7676692-.6721804 5.6345865-2.537594 7.6962406-3.9022556 4.4097745-11.3323308 4.4819549-15.6563909.6541354-3.9947369-3.575188-4.750376-10.1932331-1.6511279-14.56917295 1.7165414-2.47218045 4.4458647-4.20902256 7.4030076-4.74135338z"/><path d="m79.4954887 2.87142857c2.3887218-.4962406 4.9285715-.11729323 7.1075188.95864662 3.5932331 1.81127819 5.9954887 5.68195489 6.1601504 9.68571431.2503759 4.9150376-3.2796993 9.656391-7.9872181 10.987218-3.4827067.9947369-7.4255639.2255639-10.2676691-2.0210526-3.0406015-2.4135338-4.5947369-6.5052632-4.0330827-10.3353384.6451128-4.59022552 4.5225564-8.38646612 9.0203007-9.27518793zm.9090226 2.66616541c-2.7022557.41278196-5.1969925 2.15864662-6.4015038 4.62857142-1.2045113 2.4338346-1.0330827 5.4383459.2954887 7.7864662 1.7909775 3.3090225 6.0225564 4.9330827 9.6 3.8887218 4.1571429-1.1323308 6.8932331-5.8578948 5.8353384-10.0308271-.9902256-4.00375938-5.2330827-6.91127818-9.3293233-6.27293232z" fill-rule="nonzero"/><path d="m114.004511 2.83082707c.690226-.23458647 1.506767.25037594 1.664662.95639098.257143 5.95263157-.042857 11.91879695.067669 17.87593985.374436.5864662 1.197744.2458647 1.775188.2954887 2.636842-.0112782 5.27594-.0676692 7.912782-.0654135 1.527068.0270677 1.326316 2.4766917-.013534 2.6706767-3.609022.0631579-7.220301.1398496-10.833834.137594-.73985.0879699-1.511279-.469173-1.549624-1.2338346-.115038-6.4759399-.10376-12.9586466-.004512-19.43458649.018045-.55714286.446617-1.06015038.981203-1.20225564z"/><path d="m166.777444 2.78796992c1.612782-.05413533 3.230075-.02481203 4.845112-.01353383 1.60376.01578947 3.236842.54360902 4.425564 1.64887218 1.721053 1.57443609 2.210527 4.21804511 1.436842 6.37894733-.207518.6654136-.676691 1.2022557-.915789 1.8496241-.056391.3969925.360902.5639098.611278.7759398 1.213534.8300752 2.172181 2.075188 2.499248 3.5233083.701504 3.0360902-1.172932 6.4398496-4.132331 7.443609-.88421.3270677-1.840601.3225564-2.769924.306767-1.955639-.0112782-3.913534.0067669-5.869173-.0022557-.692482.0541354-1.380451-.5030075-1.366918-1.2203007-.083458-1.9533835-.011278-3.9112782-.031579-5.8669173-.153383-4.3669173.063158-8.73383461 0-13.1007519-.099248-.79624061.376692-1.72105264 1.26767-1.72330828zm1.754887 2.49022557c-.38797.0406015-.532331.4443609-.484963.7849624.006767 1.89022557-.031579 3.78045113.018046 5.67067671-.045113.3766917.329323.568421.656391.5526316.976691.024812 1.955639.0022556 2.934586.0090225 1.892481.056391 3.67218-1.581203 3.721804-3.48496238-.004511-1.88345865-1.718797-3.48045113-3.566165-3.5481203-1.091729-.0225564-2.190225-.05639098-3.279699.01578947zm-.356391 9.69473681-.094737.162406c-.090226 1.9488722-.004511 3.9022557-.042857 5.8533835.018045.4353384-.099248 1.118797.503007 1.2045113 1.709775.0631579 3.426316.0067669 5.138346.0270677 2.251128-.0203008 4.084963-2.4203008 3.588722-4.5992482-.430827-1.7526315-2.262406-2.9503759-4.030827-2.8511278-1.646617.0383459-3.297744-.056391-4.93985.0473684z" fill-rule="nonzero"/></g><path d="m2.1.23909774c1.73909774-.63383458 3.87518797.76240602 3.82781955 2.65037594.15112782 1.56090226-1.21353384 3.00902256-2.7631579 3.03609023-1.36015037.11278195-2.71127819-.85263158-2.99548872-2.19473684-.41954887-1.43458647.4962406-3.08120301 1.93082707-3.49172933z" fill="#0089ff" transform="translate(141.654135 45.533835)"/></g></svg>