<svg height="90" viewBox="0 0 180 90" width="180" xmlns="http://www.w3.org/2000/svg" xmlns:xlink="http://www.w3.org/1999/xlink"><linearGradient id="a" x1="50%" x2="50%" y1="0%" y2="100%"><stop offset="0" stop-color="#08eae2"/><stop offset="1" stop-color="#07d1ca"/></linearGradient><linearGradient id="b" x1="100%" x2="-14.813%" y1="86.198%" y2="-4.357%"><stop offset="0" stop-color="#a89bff"/><stop offset=".40927" stop-color="#8776f8"/><stop offset="1" stop-color="#6954f7"/></linearGradient><linearGradient id="c" x1="86.515%" x2="0%" y1="24.533%" y2="24.533%"><stop offset="0" stop-color="#6954f7" stop-opacity="0"/><stop offset="1" stop-color="#3e23f5"/></linearGradient><g fill="none" fill-rule="evenodd" transform="translate(15 18)"><path d="m79.702439 14.8760976c2.7863554 0 5.0640562.718692 6.8331708 2.1560975 1.7248866 1.3931777 2.7752826 3.2949473 3.1512195 5.7053659h-3.5160976c-.3980508-1.614317-1.16097-2.7973946-2.2887805-3.5492683-1.1056966-.7518737-2.520967-1.1278049-4.2458536-1.1278049-2.5652161 0-4.4890993.8734872-5.7717074 2.6204878-1.2162662 1.5700892-1.8243902 3.7482788-1.8243902 6.5346342 0 2.8305832.5970672 5.0308864 1.7912195 6.6009756 1.2604941 1.6585448 3.2175477 2.4878048 5.8712195 2.4878048 1.7470006 0 3.1843846-.4312152 4.3121951-1.2936585 1.1941524-.9287851 2.0234124-2.3219419 2.4878049-4.1795122h3.5160976c-.5307344 2.7642415-1.769096 4.9203175-3.715122 6.4682927-1.8133424 1.4595195-4.0025888 2.1892683-6.5678048 2.1892683-3.8699381 0-6.7889333-1.2383616-8.7570732-3.715122-1.7027728-2.1008235-2.5541464-4.9534779-2.5541464-8.5580487 0-3.5382291.884544-6.4019403 2.6536586-8.5912196 1.9681399-2.4988742 4.8429079-3.7482926 8.6243902-3.7482926zm21.594146 6.5346341c.906672 0 1.647477.1437384 2.222439.4312195v3.5160976c-.796101-.2432533-1.625361-.3648781-2.487804-.3648781-1.0614692 0-2.012354.4312152-2.8526834 1.2936586-.8845573.9066712-1.3268293 2.1229192-1.3268293 3.6487805v9.0887804h-3.5160975v-17.1492682h3.5160975v2.587317c.4201647-.9066712.9730047-1.6032496 1.6585366-2.0897561.7739876-.641304 1.7027591-.9619512 2.7863411-.9619512zm4.378537.4643903h3.516098v10.4487804c0 1.4816335.30959 2.5430863.92878 3.1843903.61919.6855319 1.603245 1.0282927 2.952195 1.0282927.884557 0 1.735931-.3759312 2.554146-1.1278049.796102-.7739876 1.348942-1.7912132 1.658537-3.0517073v-10.4819512h3.516098v17.1492682h-3.516098v-2.3219512c-1.459519 1.8575703-3.261778 2.7863415-5.406829 2.7863415-4.135305 0-6.202927-2.3108712-6.202927-6.9326829zm21.627317-6.8663415c.72976 0 1.31577.221136 1.758049.6634146.464392.4201647.696585.9840615.696585 1.6917073 0 .663418-.243249 1.2383716-.729756 1.7248781-.486506.4422786-1.06146.6634146-1.724878.6634146s-1.238372-.221136-1.724878-.6634146c-.464393-.4643926-.696585-1.0393462-.696585-1.7248781 0-.7076458.232192-1.2715426.696585-1.6917073.442279-.4422786 1.017232-.6634146 1.724878-.6634146zm-1.758049 6.8663415h3.516098v17.1492682h-3.516098zm16.850732-.4643903c2.498874 0 4.478041.8956008 5.937561 2.6868293 1.326836 1.6585449 1.990244 3.8035641 1.990244 6.4351219 0 2.4988743-.652351 4.5886095-1.957073 6.2692683-1.393178 1.7912285-3.328118 2.6868293-5.804878 2.6868293-2.100824 0-3.847798-.995112-5.240976-2.9853659v9.0887805h-3.516098v-23.7170731h3.283903v2.0565853c1.194152-1.6806588 2.96324-2.5209756 5.307317-2.5209756zm-.530732 2.8526829c-1.547975 0-2.731053.608124-3.549268 1.8243903-.72976 1.0614687-1.094634 2.4767391-1.094634 4.2458536v.2985366c0 1.8575703.453329 3.3391815 1.36 4.4448781.796101 1.0393548 1.857554 1.5590244 3.18439 1.5590244 1.724887 0 2.996419-.5638968 3.814634-1.6917074.751874-1.0835826 1.127805-2.554137 1.127805-4.4117073 0-1.8354563-.342761-3.3060107-1.028293-4.4117073-.818215-1.2383802-2.089747-1.857561-3.814634-1.857561z" fill="#101f3b"/><path d="m54.5404878 27.3170732c0-3.7717073-3.0478049-6.8292683-6.8058537-6.8292683-1.8081304.0031023-3.5409718.7243559-4.8173175 2.0050927-1.2763457 1.2807369-1.9916438 3.0160452-1.9885361 4.8241756 0 3.7717073 3.0458536 6.8292683 6.8058536 6.8292683 1.8081305-.0031023 3.5409719-.724356 4.8173176-2.0050928s1.9916437-3.0160451 1.9885361-4.8241755" fill="url(#a)"/><path d="m46.5658537 46.6341463c-3.4333235 3.4517533-7.7306257 5.9181366-12.4429269 7.1414635-2.1756097.5580487-4.4565853.8585365-6.8058536.8585365-7.8717734.0060355-15.357427-3.4099348-20.51121954-9.36-4.33816214-4.9753425-6.72321254-11.3560457-6.71219512-17.9570731 0-6.8741464 2.53268292-13.155122 6.71219512-17.9570732 5.15379254-5.95006514 12.63944614-9.36603549 20.51121954-9.36 2.3492683 0 4.6302439.30048781 6.8058536.85853659 4.7123012 1.22332688 9.0096034 3.6897101 12.4429269 7.14146341l-9.6253659 9.6585366c-2.5459864-2.5633795-6.0105281-4.0034262-9.6234146-4-7.5160976 0-13.6117073 6.1151219-13.6117073 13.6585366l.0039024.3512195c.1873171 7.3834146 6.2087805 13.3073171 13.6078049 13.3073171 3.7580488 0 7.1609756-1.5297561 9.6234146-4z" fill="url(#b)"/><path d="m36.9404878 17.6585366c-2.5459864-2.5633795-6.0105281-4.0034262-9.6234146-4-7.5160976 0-13.6117073 6.1151219-13.611742 13.6585366-.0115088-7.2423475 2.8575048-14.1920013 7.9746688-19.3170732 3.4333235-3.45175331 7.7306256-5.91813653 12.4429268-7.14146341z" fill="url(#c)"/></g></svg>