<svg height="90" viewBox="0 0 180 90" width="180" xmlns="http://www.w3.org/2000/svg" xmlns:xlink="http://www.w3.org/1999/xlink"><linearGradient id="a" x1="99.999544%" x2="0%" y1="49.998632%" y2="49.998632%"><stop offset="0" stop-color="#e60012"/><stop offset="1" stop-color="#e60012" stop-opacity=".5"/></linearGradient><g fill="none"><g transform="translate(160 21)"><path d="m5.32003546 0h10.04651164c2.4660156 0 4.4651163 1.99910065 4.4651163 4.46511628v39.06976752c0 2.4660156-1.9991007 4.4651162-4.4651163 4.4651162h-10.04651164c-2.46601564 0-4.46511629-1.9991006-4.46511629-4.4651162v-39.06976752c0-2.46601563 1.99910065-4.46511628 4.46511629-4.46511628z" fill="#a0a0a0"/><path d="m-7.81395185 18.5387689h5.37992436c3.02160136 0 4.53240204 1.2897079 4.53240204 3.8691236 0 2.5978402-1.52922508 3.9059726-4.55082644 3.9059726h-3.85069928v5.3799244h-1.51080068zm1.51080068 1.3081323v5.1588315h3.7770017c1.0686151 0 1.84243984-.2210928 2.358323-.6448538.49745876-.4237612.75540034-1.0686152.75540034-1.9529864 0-.884371-.25794158-1.529225-.77382474-1.9161374-.51588316-.4421856-1.28970789-.6448539-2.3398986-.6448539zm10.31766316-1.3081323h5.67471476c1.30813235 0 2.33989855.2947904 3.09529895.9027956.7738247.6264294 1.1791615 1.5476494 1.1791615 2.7636598 0 .7369758-.2026684 1.3818298-.6080052 1.9529862-.4421855.5895806-1.0317663.9580686-1.7871666 1.1423126v.0368488c1.2528591.276366 1.9529862 1.0686152 2.1003814 2.3951718l.2026684 2.0266838c.0736976.8106736.3132148 1.4555276.7001271 1.934562h-1.6397714c-.2947904-.4421856-.4790344-1.013342-.5343076-1.750318l-.1658196-1.7503178c-.0736976-.7738248-.3500635-1.344981-.8290979-1.6766202-.4421856-.3316392-1.0686151-.4790344-1.89771303-.4790344h-3.9796701v5.6562904h-1.51080068zm1.51080068 1.3081323v4.8824657h3.9796701c.95806873 0 1.71346903-.2395172 2.22935223-.6817028.46061-.4237612.7001271-1.013342.7001271-1.7871668 0-.8106734-.2395171-1.4186786-.6817027-1.805591-.4790344-.4053368-1.2344347-.6080051-2.24777663-.6080051zm16.69250513-1.5660738c1.9529862 0 3.51906.6448539 4.6613728 1.9714105 1.068615 1.2528592 1.621347 2.8742062 1.621347 4.8824656 0 1.9898352-.552732 3.5927578-1.621347 4.8456168-1.1423128 1.3081324-2.7083866 1.9714108-4.6797972 1.9714108-1.9714108 0-3.5190602-.6632784-4.6613729-1.9714108-1.0870395-1.252859-1.6213471-2.874206-1.6213471-4.8456168 0-1.989835.5343076-3.611182 1.6213471-4.8640412 1.1423127-1.3265566 2.6899621-1.9898349 4.6797973-1.9898349zm0 1.344981c-1.5108008 0-2.7083866.5158831-3.5743334 1.5660739-.8106735.9949176-1.2160103 2.3030498-1.2160103 3.9428212 0 1.6213472.4053368 2.9294794 1.2160103 3.924397.8475224 1.0317662 2.0451082 1.5476494 3.555909 1.5476494 1.5108006 0 2.7083866-.5158832 3.5559088-1.5108006.8106736-.9949176 1.2344348-2.3030498 1.2344348-3.9612458 0-1.6766202-.4237612-3.0031768-1.2344348-3.9980944-.8475222-1.013342-2.0266838-1.5108007-3.5374844-1.5108007z" fill="#fff" transform="matrix(0 1 -1 0 35.459572 14.772986)"/></g><g transform="translate(0 21)"><path d="m0 12.6174545c0 19.5403637 15.9559437 35.3825455 35.6317184 35.3825455h12.5569014v-12.466909c0-19.5403637-15.9559438-35.38254554-35.6317184-35.38254554h-12.5569014z" fill="url(#a)" opacity=".5"/><path d="m20.5238874 37.3003636c15.2748168 0 27.6625352-12.3010908 27.6625352-27.4712727v-9.68072726h-9.7489014c-15.2770142 0-27.6647325 12.30109086-27.6647325 27.46909096v9.682909z" fill="#e60012" opacity=".5"/><path d="m98.7809578 40.6581818c-.2350986 1.4181818-.8854648 2.208-2.8497466 2.208h-7.1628168c-1.092 0-2.4103098-.9643636-2.4103098-3.322909v-8.6661818c6.3784224-2.616 11.1353238-6.1418182 14.9056904-9.2094546l-1.8346482-2.712c-2.2213522 2.074909-8.4613522 6.4865454-13.0710422 8.458909v-12.5367272h-3.4100282v13.5207272l-5.6291832 1.8349092.9096338 3 4.7195494-1.5709092v8.8472728c0 3.4930908 2.5970704 5.3432728 5.7104788 5.3432728h7.6110422c2.3136338 0 4.8711546-.9229092 5.3545356-4.082182.208732-1.3592726.202141-3.1570908.202141-4.5643636l-2.8189864-1.4356364c-.0307606 2.5156364.035155 3.3207274-.2263098 4.8872728zm-8.5448452-40.35272725h-3.3045634v6.06327273h-13.1721126v-6.06327273h-3.3067606v6.06327273h-12.6030422v3.312h12.6030422v5.09454542h1.2392114c-1.7907044 2.9563637-3.959324 5.8778183-6.5080564 8.7643637-2.2718874 2.5832726-4.9590422 5.2647272-8.0570704 8.050909l2.3246196 2.6487274c1.3776338-1.189091 2.8058028-2.5483638 4.2867044-4.0756364l4.416338-4.4487274v21.2116364h3.3572958v-24.9294544c1.056845-1.7585456 1.8939718-2.9934546 3.278197-5.845091l-2.3751548-1.3745455h1.3424788v-5.09672722h13.1721128v5.22109092h3.3045632v-5.22109092h12.5525076v-3.312h-12.5525076v-6.06327273zm51.3943104 9.83345455c.34276 1.3243636.687718 2.8887273 1.032676 4.6887273l.41307 2.4458181c.032958.3076364.103268.7134546.206535 1.224.103268.5781819.171381.984.206535 1.2218182l2.634423-.7636363c-.344958-1.8349091-.654761-3.3970909-.929408-4.6865455-.344958-1.7323636-.722874-3.3447273-1.135944-4.83927272zm5.009577-4.128h-6.455324v2.904h15.03093v-2.904h-5.578648l-.309803-1.32436364c-.103268-.54327274-.206535-1.00145456-.309803-1.37672728-.276845-1.05381818-.586648-2.05527273-.929408-3.00654545l-2.994761.816.878873 2.54836363zm-34.555099 13.5032727 2.634423-.7658182c-.377916-2.9192727-.979944-5.9934545-1.808282-9.2203636l-2.478422.7636364c.652563 2.9214545 1.204056 5.9956363 1.652281 9.2225454zm11.363831-13.5032727h-5.112845c-.24169-1.05163638-.48338-2.0029091-.722873-2.85163638-.309803-1.12145454-.63938-2.1730909-.982141-3.15927272l-2.891493.91636364.878874 2.59854546c.274647.95127272.49876 1.78254544.672338 2.496h-6.404789v2.904h14.565127v-2.904zm32.386479 17.0181819v-2.9563638h-5.115042c1.067831-3.2596363 1.946704-6.5716363 2.634423-9.9338181l-2.840958-.91854546-1.083211 5.55490906c-.448226 2.0378182-.894254 3.8050909-1.342479 5.2996363h-7.8v2.9563638h5.938986v7.7432726h-4.853578v3.0065456h4.853578v12.7374544h3.15076v-12.7374544h5.938986v-3.0065456h-5.938986v-7.7432726h6.457521zm-16.942479-5.9607274c-.103267-2.6487272-.153802-6.6741818-.153802-12.07418178l1.601746-.30545454c.239493-.03272728.448225-.08509092.619606-.15272728l-.982141-2.85381818c-4.510817 1.05381818-9.64124 1.90254546-15.393465 2.54836364v8.55927274c0 1.9025454-.017577 3.5498182-.050535 4.944 0 1.6974545-.035155 3.2421818-.103268 4.6363636-.17138 3.1265454-.463605 5.893091-.876676 8.304-.964563 5.4349092-2.876112 10.1563636-5.732451 14.1643636l2.684958 1.9352728c2.961803-4.4836364 4.923888-9.733091 5.888451-15.744.448225-2.6509092.740451-5.7403636.878873-9.2727272.103268-1.5294546.156-3.2421819.156-5.1469092.032958-1.5621818.050535-3.4298182.050535-5.6050909v-4.27854544l2.478423-.30545456.050535 36.2247273-1.31831.2312728s.199944 1.3505454.360338 2.4087272c1.056845-.1789092 5.616-1.5621818 6.705803-2.1076364.175775.8901818.360338 1.6472728.503155 2.88l2.478423-.8138182s-2.265296-8.2058182-2.816789-10.0407272l-1.790704.4647272c.58445 2.3105454.984338 3.9294546 1.256788 5.3781818-.916225.4167274-2.010422.7745456-2.537746.8683636l.052732-35.8538181c1.135944-.168 2.118085-.3381818 2.944226-.50836362.138422 9.40800002.430648 16.30472732.878873 20.68581812.755831 8.1861818 2.392732 14.9454546 4.90631 20.2778182l2.58169-1.68c-2.342197-4.450909-3.891211-10.834909-4.64924-19.1585454-.344957-3.1221818-.56907-5.9934546-.672338-8.6094546zm-16.219605 13.1454546h-5.216113l.153803-2.496c.035155-.6109092.08569-2.2756364.156-4.9941818h5.47538v-2.9541819h-4.236169c.964564-3.1592727 1.773127-6.3861818 2.427887-9.6807272l-2.89369-.7658182c-.689915 3.9730909-1.412788 7.4552727-2.168619 10.4465454h-8.057071v2.9541819h6.352057c0 2.3105454-.017578 3.9054546-.050536 4.7890908 0 .408-.017577.8312728-.050535 1.272l-.103267 1.4269092h-5.681916v3.0065454h5.424845c-.448225 2.616-.999718 4.6036364-1.652282 5.9607272-.793183 1.6996364-2.100507 3.3272728-3.924169 4.8916364l2.478423 2.4458182c1.962084-1.9374546 3.410028-4.008 4.339437-6.216.41307-.9861818.755831-2.0901818 1.032676-3.312.24169-1.0167272.481183-2.2756364.722873-3.768h5.47538v-3.0065454z" fill="#03061f"/></g></g></svg>