<svg height="90" viewBox="0 0 180 90" width="180" xmlns="http://www.w3.org/2000/svg"><path d="m7.88321168 0h-7.88321168v17.5138686h7.88321168c5.55109492 0 8.25109492-3.7773722 8.25109492-8.85547444-.0394161-5.81386861-3.5737227-8.65839416-8.25109492-8.65839416zm-.28248175 14.2751825h-3.59343066v-11.03649637h2.85109489c3.97445254 0 5.25547444 2.25328467 5.25547444 5.7810219-.0065693 3.87591237-2.22043794 5.25547447-4.5328467 5.25547447zm37.64233577 3.2386861h3.6131387v-12.6788321h-3.6525548zm0-14.64963502h3.6131387v-2.86423358h-3.6525548zm15.0437956 3.65255474h-.0525547c-.8671533-1.47153285-2.1941606-2.03649635-3.9416059-2.03649635-3.6985401 0-5.649635 2.99562044-5.649635 6.28029193 0 3.4817519 1.6817518 6.3722628 5.629927 6.3722628 1.5676479.0753687 3.0613121-.6714634 3.9416058-1.9708029h.0525548v1.6686131c0 1.8131387-.8934307 3.140146-2.9036497 3.140146-1.2744525 0-2.3649635-.440146-2.7065693-1.7408759h-3.5934307c.1773723 2.9233577 3.1992701 4.1058394 5.80073 4.1058394 6.070073 0 6.8583941-3.5474452 6.8583941-5.629927v-11.8708029h-3.4686131zm-3.1335766 8.00145988c-2.2138686 0-2.929927-1.9708029-2.929927-3.810219 0-1.83941606.8934306-3.61313869 2.929927-3.61313869 2.3452554 0 3.0875912 1.83941606 3.0875912 3.89562039.0131387 1.8197081-1.0051095 3.5145986-3.0875912 3.5145986zm16.4890511-10.03795623c-1.6024097-.02323893-3.1087845.76205156-4.0072993 2.0890511h-.0788321v-1.73430657h-3.4357664v12.6788321h3.6131386v-6.6481752c0-2.57518245.840876-3.63284668 2.8051095-3.63284668 1.6817519 0 2.3189781 1.03138686 2.3189781 3.11386858v7.160584h3.6131387v-7.79781025c-.0131387-3.14014598-.9591241-5.22262774-4.8284671-5.22262774zm27.5912412 0c-1.5701373-.08728423-3.0693514.66232287-3.9416062 1.97080292h-.0656934v-1.61605839h-3.4160584v17.1459854h3.6131387v-6.0437956h.0525547c.9232784 1.2421498 2.394531 1.9557073 3.9416056 1.9116788 3.849635 0 5.781022-3.1532847 5.781022-6.5693431.006569-3.58686127-1.852555-6.79927003-5.978102-6.79927003zm-.762044 10.74744523c-2.3452556 0-3.1532848-1.9708029-3.1532848-4.0270073 0-2.05620435.7620438-4.0927007 3.1335768-4.0927007s3.153284 2.08248175 3.153284 4.0927007c0 2.010219-.788321 4.0270073-3.153284 4.0270073zm8.474452-12.36350362h3.613139v-2.86423358h-3.613139zm0 14.64963502h3.613139v-12.6788321h-3.613139zm9.4073-10.32700729h-.052555v-2.35182481h-3.442336v12.6788321h3.613139v-5.3868613c0-2.1810219.886861-3.81021898 3.534306-3.81021898.44208.01416047.881906.0691387 1.313869.16423358v-3.88248175c-.255661-.07819336-.52101-.12020701-.788321-.12481752-1.802845.01687882-3.433532 1.07413737-4.184672 2.71313868zm17.789781 1.03795621c0-3.04160584-2.870803-3.74452555-5.781022-3.74452555s-5.669343 1.31386861-5.859854 4.24379562h3.527737c.131387-1.37956204.919708-1.90510949 2.29927-1.90510949 1.274453 0 2.20073.22335767 2.20073 1.7080292 0 1.4846715-2.062774 1.35328467-4.270073 1.6686131-2.207299.3153285-4.486861.9854015-4.486861 3.8496351 0 2.6277372 1.970803 3.810219 4.486861 3.810219 1.631825.0856969 3.231092-.478889 4.447445-1.570073.033012.4181077.116841.8306361.249635 1.2284671h3.685402c-.366743-.8919013-.52406-1.856029-.459854-2.8182482zm-3.613139 4.38175178c0 .7620438-.09854 2.9167884-2.929927 2.9167884-1.169343 0-2.213869-.3153285-2.213869-1.6160584 0-1.30073 1.018249-1.6423358 2.135037-1.8656935 1.116788-.2233576 2.39781-.2167883 3.008759-.7357664zm10.353285-11.57518244h-3.613139v3.81021898h-2.194161v2.32554744h2.194161v7.48905112c0 2.5291971 1.931387 3.0218978 4.151825 3.0218978.707056.0125543 1.414077-.0269686 2.115328-.1182482v-2.7262774c-.37049.0683258-.74663.1013206-1.123357.0985402-1.221898 0-1.530657-.2956204-1.530657-1.4715329v-6.29999996h2.627737v-2.32554744h-2.627737zm4.270073 16.48905114h3.613138v-12.6854015h-3.613138zm0-14.64963508h3.613138v-2.87080292h-3.613138zm12.218978 1.61605839c-4.125548 0-6.79927 2.62773723-6.79927 6.70072989 0 4.0729927 2.673722 6.6678833 6.79927 6.6678833 4.125547 0 6.832117-2.6474453 6.832117-6.6875913 0-4.04014597-2.693431-6.68102189-6.845256-6.68102189zm0 10.74744529c-2.443796 0-3.186132-2.0364964-3.186132-4.0467154 0-2.01021894.742336-4.07299266 3.186132-4.07299266 2.443795 0 3.218978 2.03649635 3.218978 4.07299266 0 2.0364964-.748905 4.0467154-3.218978 4.0467154zm15.812409-10.74744529c-1.608387-.032614-3.123965.75113492-4.027008 2.08248176h-.078832v-1.73430657h-3.442336v12.6788321h3.613139v-6.6481752c0-2.57518245.867153-3.63941603 2.837956-3.63941603 1.681752 0 2.318978 1.03138686 2.318978 3.11386863v7.1737226h3.593431v-7.80437955c0-3.14014598-.985401-5.22262774-4.821898-5.22262774zm-87.1554749 5.4c-2.0627737-.45985401-4.1058394-.6569343-4.1058394-1.8919708 0-1.03138686 1.2087591-1.22846715 2.0233576-1.22846715 1.3138686 0 2.3649635.42043795 2.4635037 1.77372263h3.4423357c-.2824817-3.11386862-2.929927-4.04671533-5.8138686-4.04671533s-5.8138686.95255474-5.6759124 4.04671533c.0919708 2.19416061 2.2992701 3.04160581 4.3883212 3.48175181 2.6277372.5452555 3.8364963.8408759 3.8364963 1.8919708 0 1.2284672-1.3138686 1.6160584-2.3649635 1.6160584-1.3664233 0-2.6277372-.5649635-2.7591241-1.9379562h-3.4489051c.2627738 3.2058394 3.1795621 4.270073 6.1751825 4.270073 2.9956205 0 6.0109489-1.0773723 6.0109489-4.4145985 0-2.3518249-2.0627737-3.0875913-4.1781022-3.5474453zm-48.7051095 0c-2.0627737-.45985401-4.0992701-.6569343-4.0992701-1.8919708 0-1.03138686 1.2021898-1.22846715 2.0233577-1.22846715 1.3138686 0 2.3649635.42043795 2.4569343 1.77372263h3.4423358c-.2824818-3.11386862-2.9299271-4.04671533-5.8072993-4.04671533-2.8773723 0-5.8072993.9459854-5.6759124 4.04671533.0919708 2.19416061 2.29927 3.04160581 4.3883211 3.48175181 2.6277373.5452555 3.8364964.8408759 3.8364964 1.8919708 0 1.2284672-1.3138686 1.6160584-2.3649635 1.6160584-1.359854 0-2.6277372-.5649635-2.7591241-1.9379562h-3.4489051c.2627737 3.2058394 3.179562 4.270073 6.1751825 4.270073 2.9956204 0 6.0109489-1.0773723 6.0109489-4.4145985 0-2.3649635-2.0627737-3.10073-4.1781022-3.56058399zm-15.280292-5.4c-1.795553-.06835726-3.5388211.6122132-4.81312 1.87903824-1.2742989 1.26682503-1.965112 3.00605959-1.9073179 4.80198365 0 3.9416059 2.5751824 6.6678832 6.7270073 6.6678832 2.9824817 0 5.1437956-1.2744525 6.1751824-4.270073h-3.1861313c-.229927.7883212-1.4058395 1.6423358-2.8576643 1.6423358-2.010219 0-3.1335766-1.0051095-3.2321168-3.2189781h9.4992701c.2627737-3.87591241-1.9051095-7.50875913-6.3919708-7.50875913zm-3.1072992 5.32116789c.022931-.7622865.3566869-1.48201545.9237314-1.99198322.5670444-.50996776 1.318018-.76578326 2.0784583-.70801678 1.760584 0 2.6277373 1.07080292 2.890511 2.69343065z" transform="translate(0 35)"/></svg>