<svg height="90" viewBox="0 0 180 90" width="180" xmlns="http://www.w3.org/2000/svg"><g fill="none"><path d="m15.168 0h.354c1.788 2.442.774 5.616 1.038 8.406-.21 2.022.834 5.148-1.692 6.06-4.572.882-9.288.906-13.866 1.644l-.228.066c-.072-.366-.216-1.098-.282-1.464.708-4.092.888-8.25 1.494-12.354.096-.924.558-2.058 1.608-2.196 3.84-.486 7.77.348 11.574-.162zm-8.148 4.566c-.99 1.776-.6 4.062-1.08 6.036 2.004-.306 4.14-.21 6.03-.996.018-1.626.582-3.612-.372-5.034-1.518-.18-3.06-.174-4.578-.006z" fill="#77be31" transform="translate(15.6 29)"/><path d="m.066 2.424c-.132-1.086.51-2.406 1.776-2.31 3.57-.102 7.158-.084 10.734-.006 1.17-.036 1.842 1.248 1.902 2.274.432 3.84.882 7.674 1.254 11.52.282.822-.318 1.5-.624 2.196-4.338-.606-8.718-.894-13.056-1.494-.96-.132-2.052-.912-1.962-1.974-.066-3.402-.03-6.804-.024-10.206zm4.554 7.338c1.926.492 3.924.612 5.892.852-.294-1.992-.414-4.014-.858-5.982-1.674-.264-3.384-.15-5.076-.144-.126 1.746-.402 3.552.042 5.274z" fill="#00a13b" transform="translate(0 29)"/><g fill="#303030" opacity=".8" transform="translate(38.4 32.6)"><path d="m4.626.504h2.046c.126.258.378.786.504 1.044 4.134.192 8.28-.03 12.42.096.162-.312.492-.93.654-1.236.492.03 1.476.102 1.968.132.402 1.926 2.766.792 4.122 1.086-.006.918-.012 1.836-.012 2.754-1.26-.006-2.52-.012-3.774-.018-.03.33-.09.99-.12 1.326-.576.018-1.716.054-2.286.072-.126-.354-.372-1.062-.498-1.416-4.224.066-8.448.03-12.672.024-.018.33-.06.996-.084 1.326-.582.012-1.758.036-2.346.042-.09-.342-.27-1.032-.36-1.374-1.242.006-2.478.018-3.714.024-.006-.924-.006-1.842-.006-2.76 1.338-.354 3.894.924 4.158-1.122z"/><path d="m34.08.642c.858-.036 1.722-.072 2.58-.108.072 2.94.03 5.88.048 8.82 1.62-.012 3.24-.024 4.86-.036-.012.876-.024 1.752-.036 2.628-1.614-.018-3.222-.024-4.83-.018-.006 4.326-.006 8.652 0 12.978-.882 0-1.77 0-2.658-.006.018-4.308 0-8.616.03-12.924-1.626-.048-3.252-.06-4.878-.042-.012-.87-.03-1.74-.042-2.604 1.638 0 3.27.006 4.908.012-.006-2.898-.03-5.802.018-8.7z"/><path d="m99 .498c.972.006 1.95.012 2.928.018-.258.906-.522 1.812-.78 2.718 1.314-.012 2.634-.024 3.954-.036-.018-.912-.03-1.818-.048-2.73.846-.018 1.686-.042 2.532-.066.03.948.054 1.89.09 2.832 1.608-.018 3.222-.03 4.836-.042.006.888.012 1.776.024 2.658-1.614 0-3.228-.018-4.842-.054-.036 1.2-.06 2.406-.084 3.606 1.608-.012 3.216-.03 4.83-.054.048.876.09 1.752.144 2.628-1.638.096-3.27.108-4.908.072-.024 1.242-.042 2.49-.054 3.738 1.632-.006 3.264-.012 4.902-.018-.006.882-.006 1.758-.006 2.64-1.614-.012-3.222-.024-4.83-.054-.036 1.248-.06 2.49-.084 3.738 1.626 0 3.252 0 4.884-.006.012.912.024 1.818.042 2.73-4.11-.042-8.22.054-12.324-.024-1.476.174-2.826-1.11-2.676-2.604-.078-4.032-.018-8.076.012-12.108-.594.366-1.182.732-1.77 1.098.114-1.548-.234-3.294.786-4.614 1.272-1.812 1.986-3.918 2.442-6.066zm1.074 5.352c-.018 1.176-.03 2.352-.042 3.528 1.692.012 3.378.006 5.064-.018-.006-1.176-.006-2.346-.006-3.516-1.674-.006-3.348-.006-5.016.006zm-.018 6.216c-.006 1.236-.006 2.472-.006 3.714 1.68 0 3.36 0 5.046-.012-.006-1.224-.006-2.448-.012-3.672-1.674-.018-3.354-.024-5.028-.03zm.012 6.318c-.012 1.158-.018 2.322-.024 3.48 1.68.288 3.396.282 5.094.156-.03-1.206-.048-2.406-.066-3.612-1.668-.018-3.336-.024-5.004-.024z"/></g><path d="m9.3.474c.852.054 1.704.102 2.556.156-.054 5.466.018 10.926-.042 16.392.324.072.972.216 1.296.282 0 .774.006 1.548.012 2.316-.33.102-.984.306-1.314.408.024 1.632.036 3.27.048 4.902-.654-.006-1.95-.006-2.604-.012.012-1.668.03-3.342.054-5.01-2.934-.066-5.874-.012-8.814-.072 0-.888 0-1.77.006-2.658 2.928-.006 5.856 0 8.784 0-.006-5.568-.042-11.136.018-16.704z" fill="#2f2f2f" opacity=".8" transform="translate(80.4 32.6)"/><path d="m4.362.15c1.05-.03 2.094-.06 3.15-.09-1.356 2.67-2.916 5.226-4.152 7.956 1.014-.054 1.866-.546 2.586-1.236.948-.018 1.896-.03 2.844-.036-1.668 3.258-3.504 6.42-5.274 9.618 1.644.006 3.288.006 4.938-.006v2.646c-2.19-.036-4.392.114-6.57-.096-.966-.018-1.866-1.122-1.458-2.058.726-2.244 2.094-4.2 3.192-6.276-1.398.06-3.756-.138-3.372-2.118.918-2.958 2.814-5.502 4.116-8.304z" fill="#2f2f2f" opacity=".79" transform="translate(124.8 33.2)"/><path d="m.516.102c3.816.072 7.644-.12 11.46.078 1.17 0 2.1 1.134 2.094 2.262.09 2.958-.534 5.88-.57 8.832.45.792 1.158 1.542 1.116 2.514.072 2.598.084 5.202-.024 7.8.006 1.134-.732 2.484-1.974 2.574-2.718.192-5.454.006-8.178.078.018-.912.036-1.824.06-2.736 2.46-.024 4.932.156 7.392-.09.402-2.394.504-5.07-.042-7.422-1.77-.81-3.954-.18-5.88-.348-1.77-.108-4.41.462-5.208-1.644-.168-2.508.306-5.004.42-7.506.912-.042 1.824-.078 2.736-.108-.336 2.184-.618 4.38-.642 6.594 2.538.06 5.082.054 7.62-.012-.012-2.622.708-5.28.336-7.866-3.438-.726-7.134-.114-10.668-.282-.018-.906-.036-1.812-.048-2.718z" fill="#313131" opacity=".82" transform="translate(165 33.2)"/><path d="m.312.15c.834-.006 1.662-.012 2.496-.018-.03 1.968-.024 3.93.006 5.898-.834-.024-1.674-.054-2.508-.072.03-1.932.036-3.87.006-5.808z" fill="#343434" opacity=".88" transform="translate(67.8 33.8)"/><g fill="#323232" opacity=".85" transform="translate(76.8 33.8)"><path d="m.126.132c.852 0 1.704.006 2.562.006-.03 1.938-.018 3.87.03 5.802-.858.048-1.722.102-2.58.15.012-1.986.012-3.972-.012-5.958z"/><path d="m20.682.282c7.962.042 15.93.012 23.898.018-.024.84-.042 1.686-.066 2.526-7.914-.024-15.834-.09-23.748.036-.03-.858-.06-1.722-.084-2.58z"/></g><g fill="#303030" opacity=".81" transform="translate(38.4 33.2)"><path d="m115.398.396c3.27.018 6.54.018 9.81.006-.012.894-.03 1.788-.036 2.682-1.596 0-3.18.012-4.77.048-.174 1.434-.372 2.862-.6 4.29 1.428.096 3.012-.312 4.338.378 1.398.948.978 2.808 1.068 4.236-.102 3.372.114 6.75-.102 10.11-.054 1.374-1.458 2.25-2.742 2.088-1.854-.096-4.404.642-5.52-1.32-.45-3.132-.102-6.33-.132-9.486-.36.078-1.086.228-1.446.306.084-1.5-.024-3.108.936-4.374 1.206-1.866 1.344-4.122 1.62-6.258-.6-.006-1.794-.012-2.394-.012-.012-.9-.024-1.794-.03-2.694zm3.852 9.648c-.06 3.45-.108 6.906-.03 10.35-.168 1.758 2.148 1.356 3.222 1.092.45-3.78.12-7.62.138-11.418-1.116-.018-2.22-.024-3.33-.024z"/><path d="m1.632 7.782c.258-1.446 1.944-1.698 3.156-1.65 5.808.018 11.622-.006 17.43.012 1.248-.084 2.748.282 3.084 1.68.24 2.388.186 4.812.024 7.206-.054 1.026-.858 2.13-1.956 2.124-2.856.156-5.718.006-8.58.018-.042.606-.084 1.212-.126 1.818 3.888.036 7.782-.006 11.676.024-.012.888-.024 1.776-.03 2.664-3.876.03-7.746-.03-11.616.036.012.828.024 1.656.042 2.484-.642 0-1.92 0-2.562 0 .018-.828.03-1.656.048-2.484-3.918-.06-7.83-.012-11.748-.03 0-.894 0-1.788 0-2.682 3.918-.012 7.842.024 11.766-.018-.03-.588-.054-1.176-.084-1.764-2.838-.078-5.682.084-8.526-.066-1.152.048-2.142-1.05-2.076-2.19-.066-2.388-.144-4.8.078-7.182zm2.682 1.164c-.114.354-.33 1.068-.438 1.428 6.384.012 12.768.054 19.152-.024-.132-.33-.402-.996-.534-1.332-2.022-.6-4.23-.156-6.318-.276-3.954.138-7.938-.276-11.862.204zm-.468 4.068c.144.36.432 1.068.582 1.428 5.934.426 11.922.024 17.88.192.186-.408.552-1.212.738-1.614-6.396-.054-12.798-.048-19.2-.006z"/></g><path d="m.096.144c2.256.024 4.506.03 6.756.018-.006.852-.012 1.698-.018 2.544-2.238-.012-4.476-.006-6.708.024-.012-.864-.024-1.728-.03-2.586z" fill="#343434" opacity=".87" transform="translate(81 35)"/><path d="m.18.3c2.256.024 4.512.024 6.762.006.006.846.006 1.692.006 2.544-2.256-.024-4.512-.024-6.768.006 0-.852 0-1.704 0-2.556z" fill="#343434" opacity=".87" transform="translate(81 42.2)"/><path d="m.774.576.228-.066c.036.078.102.234.138.312 4.536.36 9.072.792 13.572 1.464 2.484.654 1.752 3.618 1.842 5.52-.264 2.994.744 6.306-1.002 8.994h-.378c-.168-.066-.516-.204-.69-.276-3.408.276-6.834.27-10.254.186-1.104.138-2.028-.768-2.154-1.818-.756-4.266-.714-8.652-1.686-12.882.096-.36.288-1.074.384-1.434z" fill="#b8db7c" transform="translate(15.6 44.6)"/><path d="m2.04 1.596c4.374-.6 8.784-.888 13.158-1.524.246.714.684 1.416.51 2.208-.246 3.432-.768 6.834-1.068 10.26-.132 1.266-.168 2.844-1.494 3.486-3.564.252-7.152.054-10.722.102-1.086.114-2.424-.492-2.322-1.77-.09-3.576-.048-7.164-.018-10.74-.108-1.092.984-1.89 1.956-2.022zm2.586 4.83c-.366 1.686-.342 3.486.006 5.178 1.668.18 3.408.294 5.052-.084.408-1.956.528-3.96.834-5.934-1.968.24-3.966.372-5.892.84z" fill="#94c55e" transform="translate(0 45.2)"/><g fill="#313131" opacity=".83" transform="translate(67.2 45.8)"><path d="m1.386.552c.864.006 1.728.012 2.598.018-.294 2.952.018 5.97-.636 8.88-.342 1.416-1.89 1.824-3.048 2.322.588-3.714 1.218-7.434 1.086-11.22z"/><path d="m58.05 8.892c2.754.006 5.508.006 8.262-.006.012.9.018 1.806.03 2.706-2.772-.018-5.544-.018-8.316-.012.006-.894.012-1.794.024-2.688z"/></g><path d="m.198.396c.888-.048 1.722.084 2.502.378.372 2.61-.168 5.328.666 7.872.324 1.02.426 2.082.48 3.144-1.32-.504-3-1.14-3.18-2.766-.414-2.856-.318-5.754-.468-8.628z" fill="#303030" opacity=".81" transform="translate(76.2 45.8)"/><path d="m.186.354c3.786.012 7.572.012 11.364 0-.024.876-.042 1.752-.054 2.622-3.75-.078-7.494-.078-11.244.006-.024-.876-.048-1.752-.066-2.628z" fill="#313131" opacity=".83" transform="translate(164.4 49.4)"/><path d="m.564.234c8.568.078 17.142.036 25.716.024.006.846.012 1.692.018 2.544-8.34-.054-16.686.024-25.026-.03-1.41.096-.558-1.716-.708-2.538z" fill="#333" opacity=".86" transform="translate(96 53.6)"/></g></svg>