<svg height="90" viewBox="0 0 180 90" width="180" xmlns="http://www.w3.org/2000/svg"><g fill="#03a3bb" fill-rule="evenodd" transform="translate(0 25)"><path d="m64.2066482 4.63213296c3.1213296-3.0066482 7.4742382-4.7468144 11.8221607-4.48254847 5.1731302.23434903 9.9548476 3.17368421 13.0761772 7.21495845-1.4858725 2.6301939-2.9817174 5.25789476-4.4700831 7.88808866-1.5506925-2.8121884-4.0288088-5.1706371-7.0479224-6.31994462-1.8124654-.68808864-3.9515235-.78781163-5.6867036.17451524-2.0916897 1.09196678-3.3731302 3.32326868-3.7570637 5.59944598-.4587258 2.7049861.0548476 5.6792244 1.8024931 7.8531856 1.2141274 1.5307479 3.1537396 2.365928 5.0833795 2.433241 3.1836565.1919668 6.3149584-1.6204986 7.9728532-4.3030471.7903047-1.2365651 1.4085872-2.5728532 2.1365651-3.8468144 2.2163434-4.0188366 4.1759002-8.26204987 7.269806-11.70747923 2.2612189-2.55540166 5.3601109-4.46509695 8.7855958-4.88891967 3.78698-.44376731 7.773407.18947369 11.081717 2.14155125 4.071191 2.40831025 7.057895 6.61911357 7.863158 11.29362885.685596 3.7620498.014959 7.7609418-1.872299 11.0867036-3.520222 6.2700831-11.393352 9.80277-18.398892 8.0551246-3.7271468-.967313-7.0828255-3.3756233-9.1894737-6.601662 1.6229917-2.73241 3.2135735-5.4847646 4.8590028-8.2047092.9373961 1.8448754 2.0218837 3.6373961 3.4529086 5.1432133 2.8645433 2.9916898 8.3867033 2.3958449 10.7202213-.967313 1.500831-2.1066482 1.937119-4.8415512 1.530748-7.3620499-.289196-1.899723-1.18421-3.7470914-2.665097-5.00110799-2.597784-2.19390582-6.848476-2.17396122-9.3390579.18448749-1.665374 1.5531856-2.7897507 3.5725762-3.8916897 5.5396122-1.632964 2.9916898-3.1836566 6.0382272-5.1282549 8.8454294-1.6105263 2.333518-3.4354571 4.5922438-5.8088643 6.1903047-2.9518005 1.9720222-6.5916897 2.9193906-10.1293628 2.5554017-4.3379502-.3864266-8.5263158-2.4905818-11.3185596-5.8487535-2.4706371-2.9368421-3.9440443-6.7512465-3.8817174-10.6030471-.0747923-4.5024931 1.8498614-8.98504154 5.1282548-12.06149584z"/><path d="m9.76038781 2.9767313c5.33019389-3.01911357 12.40304709-2.47562327 17.21218839 1.31883657.6108033-.96481995 1.5083102-1.7800554 2.6202216-2.1066482 1.7900277-.57839335 3.9141274.05484764 5.0360111 1.58060942 1.2191135 1.54819944 1.2515235 3.9066482.0648199 5.48227146-.6307479.90249305-1.6155125 1.49335185-2.6626039 1.78504155 1.2340721 3.2883657 1.4060942 6.9806094.3515236 10.3387812-1.3711912 4.5698061-4.9761773 8.3941828-9.4387812 10.0645429-3.8891967 1.4883657-8.3443213 1.301385-12.1637119-.3091413-.81523546.8626039-1.02216066 2.2936288-.3091413 3.2808865.5808865.767867 1.598061.9997229 2.5105263 1.0720221 2.8072023.1396122 5.6144045.2617729 8.4216067.4013851 3.1462604.2069252 6.4146814.8526315 9.0124654 2.7423822 1.9121883 1.3686981 3.1936288 3.5401662 3.5202216 5.8637119.5958448 4.2058172-.7778394 8.7681441-3.9590028 11.6626039-2.7249307 2.5130194-6.432133 3.667313-10.0645429 3.9963989-4.5872577.4238227-9.4387812-.1221607-13.45761776-2.5204986-3.48282549-2.0243767-6.15789474-5.699169-6.3398892-9.8027701-.19196676-3.2110803.53102493-6.7711911 2.99418283-9.0274238-1.34127424-2.3858726-1.45346261-5.2429363-1.2066482-7.9055402.23434903-2.0144044.92991689-4.0188365 2.28864266-5.5545706-2.12908588-3.2534626-2.98421053-7.3047092-2.34099723-11.1390582.72049861-4.69445982 3.74210526-8.95761771 7.91052631-11.2238227zm5.81883659 6.19030471c-1.3138504.31412742-2.5354571.98476459-3.5252078 1.89972299-2.64265926 2.3759003-3.26094181 6.6390582-1.366205 9.6556787 1.9271468 3.400554 6.5966759 4.8091412 10.0695291 3.0041551 3.5950139-1.6504155 5.3950139-6.2725762 3.8069252-9.9049862-1.3437673-3.467867-5.3700831-5.58448749-8.9850415-4.65457059zm-4.3803324 41.19058169c1.2166205 1.4933518 3.1711911 2.1191136 5.0260387 2.298615 2.0567868.1944598 4.2432133.0598338 6.098061-.9274238 1.7850415-.93241 3.0440443-2.8819945 2.9842105-4.9188366-.0847645-.8401662-.8102493-1.4409972-1.5481994-1.7376731-1.3612189-.5584488-2.8445984-.6905817-4.298061-.800277-2.9193906-.1745153-5.8362881-.3789474-8.7556786-.5360111-1.11689755 2.0443213-.99224381 4.7891967.4936288 6.6216066z" fill-rule="nonzero"/><path d="m49.9836565 2.32354571c2.0044321-1.10443214 4.3529086-1.32132964 6.6016621-1.28144045 1.1368421.03240998 2.2387811.6531856 2.8720221 1.59556787.96482 1.37368421.8252078 3.40304709-.3116343 4.63462604-.700554.78531856-1.7501385 1.24155125-2.8047092 1.2066482-2.7822714.0398892-5.7465374.68808864-7.8307479 2.65013853-1.4484764 1.3412742-2.1240997 3.333241-2.1265928 5.2778393-.034903 4.0088643.0049862 8.0177285-.0174515 12.0290859-.0972299 2.1315789-2.1515236 3.9141274-4.2781164 3.7321329-2.2038781.0049862-4.1210526-2.0144044-4.0562326-4.2108033-.0274239-7.3321329-.0049862-14.6642659-.0124654-21.99639887-.0373961-1.28891967.3864266-2.62770083 1.3637119-3.50277008 1.1792244-1.15678671 3.0864266-1.50831025 4.5772853-.77783934 1.4135734.66066482 2.3634349 2.16897507 2.365928 3.72963989 1.0620499-1.19418283 2.2313019-2.33601108 3.6573407-3.08642659z"/><path d="m154.583102 4.75180055c2.73241-2.3534626 6.30748-3.71717451 9.919945-3.71468144 3.831856-.08725761 7.723546 1.2864266 10.503324 3.9565097 3.24349 3.03905817 4.901385 7.56648199 4.741828 11.97423819-.022437 1.398615-1.386149 2.4457064-2.719944 2.4706372-6.437119.0199446-12.876731-.0024931-19.313851.0099723.281718 2.1216066 1.578117 4.0936288 3.51025 5.0559556 3.228532 1.632964 7.359557 1.0096953 10.166759-1.2041551.83518-.6432133 1.802493-1.2041551 2.884487-1.2415512 2.233795-.1421053 4.21579 2.1565097 3.804432 4.3429362-.204432 1.0745153-1.116897 1.7675901-1.919667 2.4058172-3.418006 2.6526316-7.845707 3.7795014-12.126316 3.6423823-4.462604-.1844875-8.793075-2.400831-11.535457-5.9260388-2.587812-3.2185595-3.791967-7.499169-3.295845-11.5952908.42133-3.9091413 2.388366-7.62631583 5.380055-10.17673135zm5.716621 4.73933518c-1.293906 1.00470917-2.071745 2.52548477-2.445706 4.09612187 4.569806-.0024931 9.139612.0049862 13.706925-.0024931-.493629-2.4132964-2.326039-4.52991685-4.719391-5.20304705-2.188919-.59833795-4.72687-.32908587-6.541828 1.10941828z" fill-rule="nonzero"/><path d="m120.839335 3.16620499c.698061-1.24903047 2.166482-2.01440444 3.592521-1.84736842 1.358726.12216066 2.592798 1.04459833 3.141274 2.28614958 2.385873 5.26288089 4.786704 10.51578945 7.175069 15.77867035 2.293629-5.0409972 4.592244-10.0770083 6.875901-15.12299168.438781-1.1867036 1.271468-2.29362881 2.500554-2.72742382 1.590581-.62576178 3.557617.02243767 4.442659 1.48836565.700554 1.07451523.785319 2.50803324.229363 3.66232687-3.540166 7.75595568-7.092798 15.50692518-10.640443 23.26038778-.608311 1.3612189-2.054294 2.3409973-3.56759 2.2238227-1.401108-.0099723-2.680056-.967313-3.25097-2.2188365-3.540166-7.7609418-7.100277-15.5119114-10.635457-23.27285321-.528532-1.10193905-.476177-2.45567867.137119-3.5102493z"/></g></svg>