<svg height="90" viewBox="0 0 180 90" width="180" xmlns="http://www.w3.org/2000/svg" xmlns:xlink="http://www.w3.org/1999/xlink"><linearGradient id="a" x1="50%" x2="50%" y1="0%" y2="100%"><stop offset="0" stop-color="#6faeff"/><stop offset="1" stop-color="#3c76ff"/></linearGradient><linearGradient id="b" x1="50%" x2="50%" y1="0%" y2="100%"><stop offset="0" stop-color="#ff8faf"/><stop offset="1" stop-color="#ff5677"/></linearGradient><g fill="none" fill-rule="evenodd" transform="translate(0 23)"><path d="m20.9063968.45537673h6.3548079l-14.551589 13.98006557 16.6698583 18.5338329h-6.7232025l-13.35430639-15.3006581-4.2825879 4.0528529v11.2478052h-5.01937721v-32.51389847h5.01937721v15.71049717zm14.689737-.45537673c.967036 0 1.795924.27322604 2.4406146.91075346.6446907.59198975.967036 1.36613019.967036 2.32242132s-.3683947 1.73043158-1.0130853 2.367959c-.6446907.59198975-1.4735786.91075346-2.3945653.91075346-.967036 0-1.7498746-.31876371-2.3945653-.91075346-.6446906-.63752742-.9670359-1.45720554-.9670359-2.367959 0-.95629113.3223453-1.73043157.9670359-2.32242132.6446907-.63752742 1.4275293-.91075346 2.3945653-.91075346zm-2.4406146 9.42629831h4.8812292v23.54297689h-4.8812292zm23.5312088-.63752742c5.8943145 0 8.8875211 3.18763711 8.8875211 9.65398671v14.5265176h-4.8812292v-14.1166786c0-4.0073152-1.8880226-6.0109728-5.5719692-6.0109728-1.38148 0-2.624812.4553767-3.6378973 1.4572055-1.1051839 1.0929042-1.7959239 2.5956474-1.9801212 4.5082296v14.1622163h-4.8812293v-23.54297689h4.8812293v2.91441109c.9209866-1.1839795 1.9801212-2.0491953 3.1774039-2.64118505 1.1972826-.63752743 2.5327133-.91075346 4.0062919-.91075346zm24.3600967 0c3.1313546 0 5.5259199 1.22951721 7.2757945 3.77962681v-3.14209939h4.8812292v21.99469609c0 7.4681783-3.7299959 11.2022675-11.097889 11.2022675-3.3155519 0-5.8482652-.6375274-7.5981398-1.8670446-1.7498747-1.2750548-2.8090093-3.1876371-3.2695026-5.7832844h4.8812292c.276296 1.3661301.828888 2.367959 1.7498746 2.9599487.8749373.5464521 2.3024666.8652158 4.2365386.8652158 4.1444399 0 6.2166598-2.231346 6.2166598-6.6485003v-3.6430138c-1.7498746 2.5956474-4.1444399 3.9162399-7.2757945 3.9162399-3.2234532 0-5.8482652-1.0929042-7.8283864-3.2331748-2.0261707-2.1402706-2.9932066-4.9636064-2.9932066-8.5155449s.9670359-6.3752742 2.9932066-8.5610825c1.9801212-2.23134596 4.6049332-3.32425011 7.8283864-3.32425011zm.7367893 3.91623991c-2.0722199 0-3.6839465.6830651-4.7891305 2.1402706-1.1972826 1.3661302-1.7498746 3.3242501-1.7498746 5.8288221 0 2.2768837.4604933 4.0983906 1.3814799 5.4189831 1.0591347 1.5482809 2.76296 2.367959 5.1575252 2.367959 2.07222 0 3.6839466-.6830651 4.8812293-2.0491953 1.1051839-1.4116678 1.7038253-3.3242501 1.7038253-5.7377468 0-2.4590343-.5986414-4.4171542-1.7038253-5.8288221-1.1972827-1.4572055-2.8090093-2.1402706-4.8812293-2.1402706zm14.413441-3.27871249h5.387772l5.019377 17.80523009 4.881229-17.80523009h4.512835l4.881229 17.80523009 5.019377-17.80523009h5.387772l-8.058633 23.54297689h-4.512834l-4.973328-17.6230794-4.973328 17.6230794h-4.512835zm48.167602-.63752742c3.868143 0 6.86135 1.27505481 8.887521 3.91623991 1.841973 2.367959 2.809009 5.6466714 2.855058 9.8361373h-18.051338c.184197 2.2768837.782839 4.0528529 1.888023 5.2823701 1.105184 1.1839795 2.624812 1.8215069 4.558884 1.8215069 1.703825 0 3.085305-.409839 4.144439-1.1839795.828888-.6375274 1.519628-1.6848939 2.164319-3.0510241h4.881229c-.552592 2.1858083-1.611726 4.0528529-3.269502 5.5100585-2.07222 1.7759692-4.697032 2.6867227-7.874436 2.6867227-3.499749 0-6.308759-1.0929042-8.334929-3.2331748-2.210368-2.2768837-3.315552-5.3279078-3.315552-9.19861 0-3.5064008 1.013085-6.4208119 3.131354-8.7887708 2.026171-2.41349672 4.83518-3.59747621 8.33493-3.59747621zm.138148 3.96177751c-1.841974 0-3.269503.5009144-4.374687 1.5938186-1.013085 1.0473665-1.703825 2.5501097-1.980121 4.5537673h12.847763c-.460493-4.0983906-2.624812-6.1475859-6.492955-6.1475859zm19.202571-12.7505484c.967036 0 1.795924.27322604 2.440615.91075346.64469.59198975.967036 1.36613019.967036 2.32242132s-.368395 1.73043158-1.013086 2.367959c-.64469.59198975-1.473578.91075346-2.394565.91075346-.967036 0-1.749875-.31876371-2.394565-.91075346-.644691-.63752742-.967036-1.45720554-.967036-2.367959 0-.95629113.322345-1.73043157.967036-2.32242132.64469-.63752742 1.427529-.91075346 2.394565-.91075346zm-2.440615 9.42629831h4.88123v23.54297689h-4.88123z" fill="url(#a)"/><path d="m176.230794 26.457388c.920987 0 1.749875.3187637 2.440615.9562911.644691.6375275 1.013085 1.4572056 1.013085 2.4590344 0 .9107534-.368394 1.7304316-1.013085 2.4134966-.69074.5919898-1.519628.9107535-2.440615.9107535-1.013085 0-1.795923-.3187637-2.394565-.9107535-.69074-.683065-1.013085-1.5027432-1.013085-2.4134966 0-1.0018288.322345-1.8215069 1.013085-2.4590344.598642-.6375274 1.38148-.9562911 2.394565-.9562911z" fill="url(#b)"/></g></svg>