<svg height="90" viewBox="0 0 180 90" width="180" xmlns="http://www.w3.org/2000/svg"><path d="m15.7797852 33.140625h5.9677734v20.6103516c0 2.9531397-.9057527 5.3046787-2.7172852 7.0546875-1.8115325 1.7500087-4.1391459 2.625-6.9829101 2.625-3.15821893 0-5.66014704-.7792891-7.50585939-2.3378907-1.84571236-1.5586015-2.73437535-3.8212742-2.66601563-6.7880859l.04101563-.1230469h5.82421875c0 1.5859455.38964454 2.758297 1.16894531 3.5170899.77930077.7587928 1.82518873 1.1381836 3.13769533 1.1381836 1.0937554 0 1.9892543-.4545853 2.6865234-1.3637696.6972691-.9091842 1.0458985-2.1498945 1.0458985-3.7221679zm24.5683593 26.578125c-.6835971 1.1894591-1.5517525 2.1054655-2.6044922 2.7480469-1.0527396.6425813-2.2763602.9638672-3.6708984.9638672-2.3379023 0-4.1664973-.7929609-5.4858398-2.3789063-1.3193426-1.5859454-1.9790039-4.0468583-1.9790039-7.3828125v-12.8583984h5.9677734v12.899414c0 1.941416.263181 3.2709925.7895508 3.9887696.5263698.717777 1.3432562 1.0766601 2.4506836 1.0766601.957036 0 1.7773403-.153807 2.4609375-.4614258.6835971-.3076187 1.2441384-.762204 1.6816406-1.3637695v-16.1396484h5.9882812v22.1894531h-4.9628906zm22.1074219-2.8710938c0-.6562532-.3178679-1.2202124-.9536133-1.6918945-.6357453-.471682-1.8149328-.8852521-3.5375976-1.2407226-2.5976693-.5195339-4.5698175-1.3056588-5.9165039-2.3583985-1.3466865-1.0527396-2.0200196-2.4814363-2.0200196-4.2861328 0-1.9004001.8066326-3.5205011 2.4199219-4.8603516 1.6132893-1.3398504 3.7597522-2.0097656 6.4394531-2.0097656 2.8027484 0 5.0483314.6699152 6.7368164 2.0097656 1.688485 1.3398505 2.4985355 3.0078026 2.4301758 5.0039063l-.0410156.1230469h-5.7832031c0-.8886763-.2871065-1.6132785-.8613282-2.1738282-.5742216-.5605496-1.4013617-.8408203-2.4814453-.8408203-.957036 0-1.7158175.2392555-2.2763672.7177735-.5605496.478518-.8408203 1.0664027-.8408203 1.7636718 0 .6835972.2905245 1.2407206.8715821 1.6713868s1.760245.8168928 3.5375976 1.1586914c2.7207167.5468777 4.7475519 1.3500923 6.0805664 2.4096679 1.3330145 1.0595757 1.9995117 2.5190337 1.9995117 4.378418 0 1.9961037-.8544836 3.6298765-2.5634765 4.9013672s-3.9648298 1.9072266-6.7675781 1.9072266c-2.9531398 0-5.2875891-.7485277-7.003418-2.2456055s-2.5327153-3.2026272-2.4506836-5.1166992l.0410156-.1230469h5.475586c.0410158 1.1894591.4306603 2.0507786 1.1689453 2.5839844.7382849.5332058 1.7021425.7998047 2.8916015.7998047 1.1074274 0 1.9516573-.2221658 2.5327149-.6665039.5810576-.4443382.871582-1.0493126.871582-1.8149415zm16.8369141-21.4716796v5.4345703h3.7529297v4.2041015h-3.7529297v11.2998047c0 .8613325.1811505 1.4765607.543457 1.8457031.3623065.3691425.8373994.553711 1.425293.553711.3144547 0 .5878894-.0170897.8203125-.0512695.232423-.0341799.4990219-.0922848.7998047-.1743165l.4921875 4.3271485c-.6015656.2050791-1.1860324.3588862-1.753418.4614258-.5673857.1025395-1.1860318.1538086-1.855957.1538086-2.0644635 0-3.6538031-.5673772-4.7680664-1.7021485-1.1142634-1.1347713-1.6713868-2.9326049-1.6713868-5.3935547v-11.3203125h-3.2402343v-4.2041015h3.2402343v-5.4345703zm35.8066405 15.2167968h-11.463867v12.4072266h-5.9882813v-29.859375h19.5439453v4.6142578h-13.555664v8.2236328h11.463867zm4.101563 1.1074219c0-3.3086103.922842-6.0190324 2.768554-8.1313476 1.845713-2.1123153 4.402328-3.1684571 7.669922-3.1684571 3.281267 0 5.851553 1.0527239 7.710938 3.1582032 1.859384 2.1054792 2.789062 4.8193193 2.789062 8.1416015v.4306641c0 3.3359542-.92626 6.0532121-2.778808 8.1518554-1.852549 2.0986433-4.412582 3.1479493-7.680176 3.1479493-3.281267 0-5.848135-1.049306-7.700684-3.1479493-1.852548-2.0986433-2.778808-4.8159012-2.778808-8.1518554zm5.967773.4306641c0 2.0234476.355465 3.6469665 1.066406 4.8706054.710941 1.223639 1.859367 1.8354493 3.445313 1.8354493 1.544929 0 2.676266-.6152283 3.394043-1.8457032s1.07666-2.8505759 1.07666-4.8603515v-.4306641c0-1.9687598-.362301-3.5751891-1.086914-4.8193359-.724613-1.2441469-1.866203-1.866211-3.424805-1.866211-1.544929 0-2.676266.6254821-3.394043 1.8764649s-1.07666 2.8539941-1.07666 4.809082zm24.137695-11.3203125.266602 3.1787109c.738285-1.1347713 1.647455-2.0165984 2.727539-2.6455078 1.080083-.6289094 2.290032-.9433594 3.629883-.9433594 2.242198 0 3.992181.7211842 5.25 2.1635742 1.257819 1.4423901 1.886719 3.7221524 1.886719 6.8393555v13.5966797h-6.00879v-13.5761719c0-1.5859454-.276852-2.7104459-.830566-3.3735351-.553714-.6630893-1.384272-.9946289-2.491699-.9946289-.888676 0-1.671383.1674788-2.348145.5024414-.676761.3349626-1.233884.7963837-1.671386 1.3842773v16.0576172h-5.988282v-22.1894531zm25.40918-5.4345703v5.4345703h3.75293v4.2041015h-3.75293v11.2998047c0 .8613325.181151 1.4765607.543457 1.8457031.362307.3691425.837399.553711 1.425293.553711.314455 0 .587889-.0170897.820313-.0512695.232423-.0341799.499021-.0922848.799804-.1743165l.492188 4.3271485c-.601566.2050791-1.186033.3588862-1.753418.4614258-.567386.1025395-1.186032.1538086-1.855957.1538086-2.064464 0-3.653803-.5673772-4.768067-1.7021485-1.114263-1.1347713-1.671386-2.9326049-1.671386-5.3935547v-11.3203125h-3.240235v-4.2041015h3.240235v-5.4345703z" fill="#2b3b4d" fill-rule="evenodd"/></svg>