<svg height="90" viewBox="0 0 180 90" width="180" xmlns="http://www.w3.org/2000/svg"><g fill-rule="evenodd" transform="translate(0 36)"><g fill-rule="nonzero"><path d="m27.9889296.06834401c.8818847-.0831656 1.772827-.05516926 2.6456541.09798719 2.3508692.4652333 4.4110705 2.09149131 5.489753 4.22168344.6299176 1.22360476 1.0350412 2.56907594 1.1643184 3.94007319.105398.48170174.0691674.97904849.083989 1.46898445.0568161 2.78728272-.8588289 5.67666972-2.836688 7.69240622-.9428179.8967063-2.0931382 1.6089661-3.3669717 1.9169259-1.7958828.5236962-3.7613906.3450137-5.4749313-.384538-1.2137237-.568161-2.3022873-1.4245196-3.0779506-2.5229643-1.5381519-2.1071363-2.1334858-4.7857274-1.9959744-7.36303751.1226898-2.20512351.7921317-4.43412626 2.178774-6.18142726 1.2779506-1.57438244 3.1660567-2.66541629 5.1900275-2.88609332zm-3.5333029 3.55059469c-1.263129 1.45827996-1.8913998 3.37355901-2.0396157 5.27566331-.0321135.84565417-.0559927 1.70118939.0699908 2.54107959.1910339 1.4508692.6817933 2.879506 1.5282708 4.0817017.8036597 1.1470266 2.0198537 2.0173834 3.394968 2.3187558 1.3339433.3557182 2.7691675.2272644 4.0479415-.2750229 1.3339432-.542635 2.399451-1.6279049 3.0433668-2.9033852.5319305-.9658737.8201281-2.042086 1.0037512-3.1224154.3112534-2.50484899-.03129-5.20484899-1.5010979-7.31610243-1.1717292-1.75141811-3.3397987-2.73458371-5.4271729-2.56166514-1.557914.07987192-3.0795975.7978957-4.1204026 1.96139067z"/><path d="m48.1537054.08563586c.9798719-.12927721 1.9762123-.05516925 2.9445563.12598354 1.1923147.30548948 2.3302836.86129917 3.2558097 1.67813357 1.0128087.81107045 1.7431839 1.92186643 2.2759377 3.09359561.4874657 1.13467521.7995426 2.3442818.9107045 3.57447393.126807 1.54391579.0485819 3.11829829-.3697163 4.61610249-.437237 1.5760293-1.2153706 3.0812443-2.3665142 4.2554437-1.6336688 1.6698994-4.0520586 2.4710888-6.3634035 2.2397072-1.1379689-.1226898-2.2767612-.4322964-3.2591034-1.0342177-1.1593778-.6669716-2.1211345-1.6534309-2.7913998-2.8086917-1.0251601-1.6550778-1.4912168-3.6057639-1.5719122-5.5358646-.0576395-2.1524245.3705398-4.35507775 1.4500458-6.23494966 1.2030192-2.13430924 3.4311985-3.71116194 5.8849954-3.96971638zm.0642269 1.63037512c-1.5323879.23632205-2.9898445 1.07291857-3.8972553 2.34263495-.9831656 1.3273559-1.5019213 2.95279048-1.6657822 4.58481244-.1169259 1.53897533-.0428179 3.11500453.4495883 4.58892953.4290027 1.3100641 1.1330283 2.5698994 2.2051235 3.4600183 2.1623056 1.7802379 5.5704483 1.7917658 7.7558097.042818 1.1618481-.952699 1.905398-2.3245197 2.3327539-3.7465691.3664227-1.2985362.5031107-2.6662397.3886551-4.00841722-.1012809-1.79423605-.6686185-3.59341263-1.7662398-5.03110705-1.3174748-1.75306496-3.6584629-2.59130832-5.8026532-2.23311985z"/><path d="m89.2078683.03293687c.7353156-.04775846 1.4673376.03623056 2.1919487.15150961 1.7020128.38124428 3.2566331 1.35041171 4.3740165 2.68517841 1.1536139 1.4105215 1.8197621 3.1652333 2.1112534 4.95041171.2412626 1.77529734.1992681 3.6082342-.2783165 5.3423605-.4421775 1.5990851-1.2351327 3.125709-2.410979 4.3081427-.6167429.62086-1.3569991 1.1042086-2.1326624 1.5002745-1.700366.7567246-3.6568161.9592863-5.4601098.4726441-1.76871-.4207686-3.3529735-1.532388-4.394602-3.0186643-1.173376-1.6435498-1.7818847-3.6370539-1.9309241-5.6387923-.1778591-2.70905761.4248857-5.56880143 2.1063129-7.75004572 1.3932297-1.77035681 3.5580055-2.94620311 5.8240623-3.00301921zm-.5549863 1.68307411c-1.6130833.24455627-3.1347667 1.16184812-4.0347667 2.5336688-1.42699 2.05443733-1.7720037 4.67374199-1.495334 7.11354072.1869168 1.4821592.6842635 2.9429094 1.5488564 4.1698079.6389753.9065873 1.5332113 1.6353156 2.5649588 2.0486733 2.042086.8036597 4.5238793.5459287 6.2555352-.8423604 1.3388839-1.1025618 2.1326624-2.7411711 2.5048491-4.4094236.2025617-.8308326.2256176-1.6880147.2799634-2.53696253-.0691674-.62827082-.0559927-1.26477585-.1745654-1.88728271-.2676121-1.59085087-.9024703-3.15041171-1.9852699-4.36248856-1.3644099-1.47639524-3.4904849-2.15407137-5.4642269-1.82717292z"/><path d="m129.084538.07410796c1.563678-.16303751 3.194053.03870082 4.59634.77978042 1.349589.69496798 2.508143 1.76788655 3.269808 3.08453797 1.013632 1.71271729 1.493687 3.71527905 1.504392 5.69725526.056816 2.19524249-.451235 4.43577309-1.625435 6.30576399-.773193 1.294419-1.932571 2.3344007-3.279689 3.0021958-1.723422.7880146-3.72269.9930466-5.55645.4891125-1.562854-.3779506-2.97667-1.3051235-3.998536-2.5402562-.879414-1.0935041-1.515096-2.3772187-1.880695-3.7301006-.534401-1.9753889-.573925-4.07840808-.137512-6.07685273.392772-1.73659652 1.156908-3.4336688 2.42333-4.70914913 1.241721-1.26395242 2.913267-2.12689844 4.684447-2.30228728zm-3.931016 4.02653248c-1.011985 1.38828911-1.5258 3.0894785-1.655901 4.78984446-.047758 1.07703569-.046935 2.1655993.178683 3.2253431.316194 1.5529735.979872 3.0812443 2.105489 4.2200366 2.270174 2.2891125 6.42022 2.268527 8.650869-.0666972 1.207137-1.2598353 1.870815-2.9569076 2.130193-4.6622141.092223-.4874657.064226-.9872827.139158-1.4755718-.023879-.93046659-.064227-1.87328452-.277493-2.783989-.349955-1.53650503-1.048216-3.04089662-2.206771-4.13357731-1.214547-1.10503202-2.889387-1.67978042-4.524702-1.56038427-1.772827.08563587-3.513541.98728271-4.539525 2.44720952z"/><path d="m149.280604.06916743c.685087-.06093321 1.376761-.06258006 2.062671.00494053.350778.08892955.722141.07657823 1.066332.20256176 1.497804.40677035 2.851509 1.28042086 3.87914 2.43897529 1.107502 1.28124429 1.790119 2.88444648 2.137602 4.53129003.3656 1.8716377.341721 3.82479416-.107868 5.67996336-.424062 1.6591949-1.217841 3.2475755-2.413449 4.4860019-1.185727 1.1964318-2.768344 1.989387-4.440714 2.2034766-.613449.1169259-1.239249.095517-1.858463.0732846-.876944-.105398-1.747301-.2980787-2.561665-.6447393-1.428636-.642269-2.662122-1.7110704-3.474016-3.0524245-.93129-1.4623971-1.462397-3.1644099-1.602379-4.8878316-.184446-1.65343097-.013175-3.35132667.470997-4.94382438.463587-1.49945105 1.243367-2.93467521 2.405215-4.00759378 1.20796-1.14126258 2.782342-1.90045745 4.436597-2.08408051zm-3.53495 3.5547118c-1.128088 1.31171089-1.762946 2.99560842-1.969625 4.70091491-.1301.78719122-.064227 1.58920403-.070814 2.38298266.078225 1.1404391.326075 2.2751143.77978 3.3274474.542635 1.2697163 1.404758 2.4480329 2.612718 3.1528819.753431.4759378 1.635315.6957914 2.509789.8151876 1.67484.1671546 3.456725-.294785 4.726441-1.4311071 1.170083-1.046569 1.882342-2.5172003 2.260293-4.0215919.387008-1.6279049.410064-3.33979873.09387-4.98252517-.290668-1.44181152-.893412-2.84245196-1.86505-3.95818847-1.228545-1.37099725-3.118298-2.0989021-4.947942-1.95315645-1.561207.08151876-3.087008.79954254-4.12946 1.96715462z"/><path d="m67.4761208.22973468c.9856358-.20914914 2.0025617-.25855444 3.0054894-.1548033 1.731656.19515096 3.3603843 1.03833486 4.589753 2.26440988 1.5677951 1.59085087 2.42086 3.78938701 2.6489479 5.98792315.1062214.48252516.068344.98151876.0831656 1.47227813.0395242 1.66660566-.2832571 3.34226896-.9444648 4.87383346-.6167429 1.3512352-1.4862763 2.6300092-2.7074108 3.5020128-2.6950595 2.0354987-6.7265325 2.0387924-9.4281793.0148216-1.1807869-.8407136-2.0371455-2.0602013-2.653065-3.3570905-.5327539-1.1733761-.8637694-2.4381519-.9666971-3.7226899-.2157366-1.97785909.0601097-4.0125343.7937785-5.86440987.5006405-1.18984447 1.2013724-2.32122599 2.1795975-3.17758463.9535224-.88682525 2.1400732-1.51180238 3.3990851-1.83870082zm.3911253 1.59743824c-1.2491308.33101555-2.4159195 1.03668801-3.2064044 2.0684355-.9930466 1.26806953-1.5488563 2.83504117-1.7514181 4.42259835-.0881061.5179323-.0708143 1.04492223-.0922232 1.56779506.0370539.51546207-.005764 1.03833487.1012808 1.54638607.1333944 1.0350412.4207686 2.0527905.8818848 2.9906679.5788655 1.2112534 1.4936871 2.289936 2.6958829 2.9157365 2.3162854 1.1964319 5.4247026.8547118 7.2699908-1.0457456 1.4796889-1.5496798 2.1565416-3.7128088 2.2594694-5.8182983.1119853-2.21500458-.3466606-4.53458372-1.663312-6.35763953-.7880147-1.12891125-2.0033852-1.91939615-3.3241537-2.2767612-1.0350412-.26349497-2.1351327-.26761208-3.1709973-.01317475z"/><path d="m108.848948.06834401c.68591-.05763953 1.376761-.06340348 2.062671.00658737 1.570266.18115279 3.072187.88270814 4.242269 1.94327539 1.193962 1.03257091 1.999268 2.45215005 2.494145 3.93677951.24538.7715462.438884 1.56120768.504757 2.36980786.100458.46276304.068344.94034767.081519 1.40969808.048582 1.89551688-.348307 3.81573648-1.218664 5.50539798-.624154 1.1980787-1.478042 2.3064044-2.61107 3.063129-1.499451 1.0803294-3.401556 1.5076853-5.229552 1.3866423-.858006-.1029277-1.710247-.2890211-2.50979-.6233303-1.468984-.642269-2.732937-1.7423605-3.554711-3.1199451-.915646-1.4492223-1.433578-3.1339433-1.575206-4.8376029-.246203-2.36239711.16139-4.82854532 1.30677-6.92415374 1.02516-1.89963403 2.842452-3.35956084 4.932296-3.91537054.345838-.12598353.720494-.10786825 1.074566-.20091491zm-3.530833 3.55141811c-1.131381 1.31088747-1.765416 2.99643184-1.975389 4.70256176-.09387.56239707-.079871 1.13714547-.083989 1.70530652-.006587 1.83129.457 3.6881061 1.448399 5.2394327.792132 1.2433669 2.043733 2.2174749 3.492955 2.5509607 1.779415.4792315 3.78527.1696249 5.290485-.9123513 1.101739-.8020128 1.849406-1.9967978 2.332754-3.2533395.657091-1.7744739.788015-3.71857271.520403-5.58362303-.24291-1.60073193-.853065-3.17429094-1.912809-4.41354071-1.225252-1.40064044-3.138884-2.14583715-4.987466-1.99844465-1.55956.08069534-3.083714.7978957-4.125343 1.96303751z"/><path d="m.02881976.4800549c2.95361391-.01564502 5.90805124-.00164685 8.86248857-.00658738 1.47804207-.00576395 2.98655077.11939616 4.36989937.67602928.8431839.3820677 1.647667.94034766 2.1129003 1.76129917.4594693.75343093.6290942 1.65178408.5862763 2.52625801.0403476 1.28865508-.6645014 2.56413541-1.7522416 3.2483989-.4915828.3252516-1.0498627.52287283-1.6073193.69990851 1.2713632.21326624 2.5279049.80777681 3.3216835 1.85105211.8489478 1.0284538 1.0976212 2.4521501.8752973 3.7449223-.1259835.7089661-.3680695 1.4088746-.8127173 1.9844465-.5204025.7377859-1.3141811 1.2186642-2.1268984 1.5760292-1.1091492.4322965-2.2973468.6505032-3.484721.6966148-3.44354984.0074108-6.88792313-.0032936-10.33147299.0049406-.0115279-.5047576-.0115279-1.0103385 0-1.5150961.95187557.0008234 1.90375114.0123513 2.85562672-.0049405.22232388-.2379689.4767612-.4462946.68014638-.6999085.10292772-.284904.04199451-.595334.05846295-.8909424-.01399817-2.6876487.00082342-5.3744739-.00082342-8.06294601-.00082343-.5483989-.00082343-1.0967978 0-1.6451967-.00082343-.54922233 0-1.09926807 0-1.6484904-.00082343-.57721866 0-1.15526075.00082342-1.73247941.05269899-.49405306-.48252516-.71390668-.73531565-1.05727356-.95599268-.0189387-1.91116194.00576395-2.8663312-.01317475-.00164684-.49734675.00658738-.99551692-.00576395-1.49286367zm5.23284538 1.50027447c-.00164684 2.24464776-.00082342 4.48847209-.00082342 6.73229643 1.54062214-.00576395 3.08124428.00247027 4.62186642-.00411711.52287286.01152791 1.03339436-.11692589 1.54638606-.19762122.9568161-.20503203 1.958097-.64556268 2.4710888-1.52580055.4430009-.81189387.5179323-1.80576396.2429094-2.68517841-.1869167-.73119854-.7641354-1.28783166-1.4171089-1.62625801-1.1033851-.55416285-2.3607502-.67767612-3.578591-.69167429-1.29524245-.00494053-2.59048491-.00164684-3.88572736-.00164684zm.02223239 8.25315643c-.03623056.3754803-.02058554.7517841-.02305581 1.1280879-.00164684 2.120311.00329369 4.2414455-.00247027 6.3617566 1.51262581.015645 3.02607503.0090576 4.53952425.0032937 1.0292772-.0666972 2.0807868-.1251601 3.0499543-.5162855.8275388-.2783165 1.6015553-.8225983 2.0017383-1.6163769.4043001-.8670632.4602928-1.8864593.1811528-2.7988106-.2890211-.9749314-1.132205-1.7036597-2.0741995-2.0272644-1.1536139-.474291-2.4216834-.5014639-3.6502287-.5401647-1.34053065.0032937-2.68188472-.0082343-4.02241537.0057639z"/></g><path d="m161.021775.51299177c.778957-.06834401 1.562854-.0148216 2.344282-.03211345 1.236779.00164684 2.474382-.00329369 3.711985.00247026 1.164318 3.65434584 2.291583 7.32021958 3.449314 10.97621222.242086-.5656907.384538-1.1667886.583806-1.74812439.971638-3.06806953 1.935865-6.13778591 2.914913-9.20338517.835773-.05846295 1.676487-.01235133 2.51473-.02717292 1.143733.00164684 2.287466-.00247027 3.431199.00247026.00247.50558097.011528 1.01198536-.004941 1.51756633-.576395.02223239-1.15279.00576396-1.728362.01070449-.24785.22891125-.486642.4652333-.722964.70402561-.018939 4.66797805-.001647 9.33677949-.009882 14.00558099-.035407.4660567.476762.673559.732022.9872827.575572.021409 1.153614-.0090576 1.73001.0139982.016468.4899359.005764.9806953.006587 1.4706313-.075755.0897529-.209149.0337602-.303843.0502287-2.132662-.0107045-4.265325.0074108-6.397987-.0090577-.02882-.5047575-.00494-1.0128087-.010704-1.5183897.600274-.0041171 1.200549.0041171 1.801646-.0016469.225618.0230559.340897-.2099725.497347-.3318389.149863-.173742.424062-.3096066.386185-.5780421-.009881-4.9018298.015645-9.80448309-.013175-14.7054895-.293138-.00823421-.585453-.00576395-.87612-.00494053-1.232663 3.71774932-2.438976 7.44537969-3.656817 11.16806953-.59698.0082342-1.193138.0107045-1.788472-.0016468-1.21043-3.72268988-2.428271-7.44290946-3.648582-11.16230562-.294785-.00576395-.587923-.00576395-.880237-.00411711-.008235 4.93147301-.003294 9.86294603-.003294 14.79359563-.021409.1622141.131747.2544373.227264.3590119.175389.1498627.316194.357365.527814.4578225.642269.0263495 1.287008.0057639 1.9301.0082342.015645.5088747.017292 1.0193962-.000823 1.5290942-2.246295-.015645-4.494236.0230558-6.739707-.0189387-.012352-.4973467-.014822-.9946935.001646-1.4920402.533578-.0362306 1.068802-.0016469 1.604026-.0172919.204209.0222324.308783-.1852699.447942-.2972552.15892-.1877402.457822-.3244282.412534-.6134493-.006588-4.7042086.007411-9.40841716-.007411-14.11180234-.24538-.22150046-.452882-.49734675-.735316-.66861848-.572278-.03458372-1.146203.01482159-1.717657-.0263495-.025527-.49405306-.013999-.98892955-.009058-1.48298261z"/></g></svg>