<svg height="90" viewBox="0 0 180 90" width="180" xmlns="http://www.w3.org/2000/svg" xmlns:xlink="http://www.w3.org/1999/xlink"><linearGradient id="a" x1="1.289962%" x2="57.402875%" y1="33.03346%" y2="48.851999%"><stop offset="0" stop-color="#3c6df0" stop-opacity="0"/><stop offset="1" stop-color="#3057d5"/></linearGradient><g fill="none" fill-rule="evenodd"><g transform="translate(58 24)"><path d="m17.1033487 15.1001171.030352.0910559c.0404695 2.35735-.6778539 4.2037445-2.1549916 5.539239-1.4771378 1.3354944-3.5157597 2.0032316-6.11592683 2.0032316-2.65075407 0-4.79054825-.8523767-6.41944675-2.5571555-1.62889849-1.7047789-2.44333552-3.9078058-2.44333552-6.6091467v-4.38586319c0-2.6912236.79420257-4.89425047 2.38263154-6.60914671 1.58842896-1.71489624 3.67257838-2.5723315 6.25251078-2.5723315 2.69122358 0 4.79560748.65761996 6.31321478 1.97287962 1.5176073 1.31525965 2.2561651 3.16671277 2.2156956 5.55441491l-.030352.09105599h-4.3099832c0-1.41643348-.3414565-2.47115472-1.0243798-3.16419539-.6829233-.69304066-1.7376445-1.0395558-3.16419538-1.0395558-1.32537704 0-2.35986382.5336839-3.1034914 1.60106769-.74362757 1.0673838-1.11543578 2.44585641-1.11543578 4.1354592v4.41621518c0 1.6997201.39204267 3.0857807 1.17613977 4.1582231.7840971 1.0724425 1.87422865 1.6086557 3.27042736 1.6086557 1.32537703 0 2.31433633-.3465151 2.96690743-1.0395558.6525711-.6930406.9788518-1.7578791.9788518-3.1945473zm14.7207171 2.5495675h-7.1630706l-1.4872477 4.765263h-4.6286791l7.4514145-22.09625166h4.5376232l7.4210625 22.09625166h-4.6286791zm-6.0703988-3.4753034h4.992903l-2.4433355-7.78528644h-.091056zm18.7575323-.5918638v8.8324302h-4.4313911v-22.09625166h7.6487025c2.5192281 0 4.4895587.57415281 5.9110509 1.72247566 1.4214921 1.14832285 2.1322275 2.74937453 2.1322275 4.80320307 0 1.13314678-.3009876 2.1119888-.9029718 2.93655542-.6019842.82456661-1.4796539 1.48977451-2.6330355 1.99564361 1.3051423.3844605 2.2435154 1.0269046 2.8151475 1.9273516s.8574438 2.0133423.8574438 3.3387194v1.6238317c0 .6171603.0834672 1.2621337.250404 1.9349396s.4527485 1.1710795.8574438 1.4948357v.3186959h-4.5679751c-.4046953-.3237562-.665214-.8599694-.7815639-1.6086557-.1163499-.7486862-.1745239-1.4720682-.1745239-2.1701675v-1.5631277c0-1.1027947-.3009876-1.9602299-.9029719-2.5723315-.6019842-.6121016-1.4543608-.9181478-2.5571555-.9181478zm0-3.4145994h3.1414314c1.244438 0 2.1701646-.26304797 2.7772075-.78915183s.9105598-1.30513058.9105598-2.33710354c0-1.0117382-.3060462-1.816058-.9181478-2.41298353-.6121016-.59692554-1.5100058-.89538383-2.6937395-.89538383h-3.2173114zm15.373285 12.2470296v-22.09625166h7.2389506c2.6001672 0 4.6286718.50839082 6.0855748 1.5251877 1.456903 1.01679689 2.1853436 2.52679349 2.1853436 4.53003512 0 1.01173819-.263048 1.9172303-.7891518 2.71650347-.5261039.79927317-1.2950134 1.40124837-2.3067516 1.80594367 1.375964.2529345 2.4129801.8498511 3.1110794 1.7907676.6980994.9409166 1.0471438 2.038636 1.0471438 3.2931914 0 2.1145328-.6980889 3.7155845-2.0942876 4.8032031-1.3961987 1.0876185-3.3741172 1.6314196-5.9338148 1.6314196zm4.4313912-9.7733421v6.3739188h4.1126952c1.1736163 0 2.0689911-.2554601 2.6861514-.7663879.6171603-.5109277.9257359-1.2671907.9257359-2.2688115 0-1.0724425-.3035169-1.8969968-.9105599-2.4736875-.6070429-.5766908-1.5226522-.8650319-2.7468554-.8650319zm0-3.06555137h2.9593194c1.1837337 0 2.0942844-.24281352 2.7316795-.72844785.637395-.48563434.9560878-1.19384045.9560878-2.12463959 0-1.02185558-.3212221-1.77558923-.9636758-2.26122356-.6424538-.48563433-1.6010613-.72844786-2.8758515-.72844786h-2.8075594zm33.2506095 3.77882327c0 2.7215757-.854906 4.9650715-2.5647435 6.7305547-1.7098376 1.7654831-3.9356282 2.6482115-6.6774387 2.6482115-2.7316931 0-4.9473665-.8852577-6.6470867-2.6557995-1.6997202-1.7705419-2.5495675-4.0115083-2.5495675-6.7229667v-3.97611123c0-2.70134098.847318-4.93977816 2.5419795-6.71537869s3.902747-2.66338748 6.6243227-2.66338748c2.7418105 0 4.9726598.88778695 6.6926147 2.66338748s2.5799195 4.01403771 2.5799195 6.71537869zm-4.4162151-4.00646322c0-1.71995493-.4299823-3.13130854-1.2899598-4.23410318-.8599775-1.10279463-2.048752-1.65418367-3.5663593-1.65418367-1.4973725 0-2.6633833.55138904-3.4980673 1.65418367-.834684 1.10279464-1.2520198 2.51414825-1.2520198 4.23410318v4.00646322c0 1.7503071.4198651 3.1768365 1.2596078 4.2796312.8397427 1.1027946 2.0133414 1.6541836 3.5208313 1.6541836 1.5176073 0 2.7013232-.551389 3.5511833-1.6541836.8498601-1.1027947 1.2747838-2.5293241 1.2747838-4.2796312zm25.7840191 13.06653342h-4.431391l-8.908311-14.90282906-.091056.01517599v14.88765307h-4.431391v-22.09625166h4.431391l8.908311 14.88765306.091056-.015176v-14.87247706h4.431391z" fill="#3057d5"/><path d="m0 41.8883704v-9.0984565h2.56831432c.79153636 0 1.49141063.1749685 2.09964383.5249109s1.07794049.8477696 1.40913596 1.4934967c.33119547.645727.49887369 1.3872605.50303967 2.2246226v.5811514c0 .8581921-.16559526 1.6101403-.49679073 2.2558673-.33119547.6457271-.8040272 1.1414713-1.41850937 1.4872477-.61448217.3457765-1.32997864.522828-2.14651088.5311599zm1.19979647-8.111124v7.1300405h1.26228587c.92484774 0 1.64451013-.2874484 2.15900876-.8623537.51449863-.5749054.77174408-1.3935083.77174408-2.4558334v-.5311599c0-1.0331633-.24266474-1.836144-.7280015-2.4089664s-1.17375477-.8633952-2.06527466-.8717271zm12.33540753 3.9055875h-3.94308116v3.224453h4.58047296v.9810835h-5.78026943v-9.0984565h5.71778003v.9873325h-4.51798356v2.9245039h3.94308116zm4.8116837.1499745c-1.0289972-.2957846-1.7778211-.659261-2.2464939-1.09044s-.7030057-.9633751-.7030057-1.5966042c0-.7165487.2864068-1.3091505.8592292-1.7778234.5728224-.4686728 1.3174803-.7030057 2.233996-.7030057.6248972 0 1.1820887.1208116 1.6715915.3624385.4895027.2416269.8686013.5749003 1.1373071.9998304.2687057.42493.4030566.8894299.4030566 1.3935136h-1.2060454c0-.5499095-.1749686-.9821235-.524911-1.2966551-.3499424-.3145315-.8436037-.4717949-1.4809988-.4717949-.5915692 0-1.0529447.1301849-1.3841402.3905587-.3311954.2603738-.4967907.6217672-.4967907 1.0841911 0 .3707723.1572634.6842577.471795.9404655.3145315.2562078.849852.4905407 1.6059775.7030057.7561256.212465 1.347686.4467979 1.774699.7030058.427013.2562078.7436228.5551124.9498389.8967228.206216.3416105.3093225.7436216.3093225 1.2060455 0 .7373786-.2874484 1.3278975-.8623537 1.7715744-.5749054.443677-1.3435173.6655121-2.3058589.6655121-.6248971 0-1.2081256-.1197701-1.7497031-.359314-.5415776-.2395439-.9592109-.56761-1.2529125-.984208-.2937017-.4165981-.4405503-.8894299-.4405503-1.4185094h1.2060454c0 .5499094.2030886.9842064.6092717 1.302904.4061831.3186975.948794.4780439 1.6278488.4780439.6332291 0 1.1185586-.1291435 1.456003-.3874343.3374445-.2582908.5061642-.6103109.5061642-1.0560709 0-.4457599-.156222-.7904896-.4686705-1.0341995-.3124486-.2437099-.8790135-.4842917-1.6997117-.7217526zm6.1989485 4.055562h-1.1997965v-9.0984565h1.1997965zm8.9109883-1.1935475c-.3082825.441594-.7384136.771743-1.2904061.990457-.5519924.218714-1.1945853.3280693-1.9277979.3280693-.7415446 0-1.3997597-.173927-1.9746651-.5217864-.5749053-.3478594-1.0196171-.8425622-1.3341486-1.4841233-.3145316-.641561-.4759609-1.3851774-.4842929-2.2308715v-.7936154c0-1.3706077.3197342-2.4329169.9592123-3.1869594.639478-.7540425 1.5382749-1.1310581 2.6964176-1.1310581.9498436 0 1.7142896.2426647 2.2933609.7280015.5790714.4853367.9331744 1.1737547 1.0623198 2.0652746h-1.1997964c-.224963-1.2039684-.9415009-1.8059436-2.1496354-1.8059436-.8040343 0-1.4132998.2822409-1.8278149.8467313s-.6238525 1.3820519-.6280185 2.452709v.7436238c0 1.0206653.2332914 1.8319779.6998813 2.4339621.4665898.6019843 1.0977265.9029719 1.8934288.9029719.4499259 0 .8436052-.049991 1.1810497-.1499746.3374444-.0999835.6165609-.2687032.8373579-.5061641v-2.0434034h-2.1058928v-.9748346h3.2994403zm8.9922246 1.1935475h-1.2060454l-4.580473-7.0113106v7.0113106h-1.2060454v-9.0984565h1.2060454l4.5929709 7.0425553v-7.0425553h1.1935475zm7.9798964-4.055562c-1.0289973-.2957846-1.7778211-.659261-2.2464939-1.09044-.4686729-.431179-.7030058-.9633751-.7030058-1.5966042 0-.7165487.2864069-1.3091505.8592293-1.7778234.5728223-.4686728 1.3174802-.7030057 2.233996-.7030057.6248971 0 1.1820887.1208116 1.6715914.3624385.4895028.2416269.8686013.5749003 1.1373071.9998304.2687058.42493.4030566.8894299.4030566 1.3935136h-1.2060454c0-.5499095-.1749686-.9821235-.5249109-1.2966551-.3499424-.3145315-.8436037-.4717949-1.4809988-.4717949-.5915693 0-1.0529447.1301849-1.3841402.3905587s-.4967907.6217672-.4967907 1.0841911c0 .3707723.1572634.6842577.4717949.9404655.3145316.2562078.8498521.4905407 1.6059776.7030057s1.3476859.4467979 1.7746989.7030058c.4270131.2562078.7436229.5551124.9498389.8967228.2062161.3416105.3093225.7436216.3093225 1.2060455 0 .7373786-.2874483 1.3278975-.8623537 1.7715744-.5749053.443677-1.3435172.6655121-2.3058588.6655121-.6248971 0-1.2081257-.1197701-1.7497032-.359314s-.9592108-.56761-1.2529125-.984208c-.2937016-.4165981-.4405502-.8894299-.4405502-1.4185094h1.2060454c0 .5499094.2030885.9842064.6092716 1.302904.4061832.3186975.948794.4780439 1.6278489.4780439.6332291 0 1.1185586-.1291435 1.456003-.3874343s.5061641-.6103109.5061641-1.0560709c0-.4457599-.1562219-.7904896-.4686705-1.0341995-.3124485-.2437099-.8790134-.4842917-1.6997116-.7217526zm7.6861961-.4749194 2.3745972-4.5679751h1.3622689l-3.1369678 5.7052821v3.3931744h-1.1997965v-3.3931744l-3.1369679-5.7052821h1.3747668zm7.5924621.4749194c-1.0289973-.2957846-1.7778211-.659261-2.2464939-1.09044-.4686729-.431179-.7030058-.9633751-.7030058-1.5966042 0-.7165487.2864069-1.3091505.8592293-1.7778234.5728223-.4686728 1.3174802-.7030057 2.233996-.7030057.6248971 0 1.1820887.1208116 1.6715914.3624385.4895028.2416269.8686013.5749003 1.1373071.9998304.2687058.42493.4030566.8894299.4030566 1.3935136h-1.2060454c0-.5499095-.1749686-.9821235-.5249109-1.2966551-.3499424-.3145315-.8436037-.4717949-1.4809988-.4717949-.5915693 0-1.0529447.1301849-1.3841402.3905587s-.4967907.6217672-.4967907 1.0841911c0 .3707723.1572634.6842577.4717949.9404655.3145316.2562078.8498521.4905407 1.6059776.7030057s1.3476859.4467979 1.7746989.7030058c.4270131.2562078.7436229.5551124.9498389.8967228.2062161.3416105.3093226.7436216.3093226 1.2060455 0 .7373786-.2874484 1.3278975-.8623538 1.7715744-.5749053.443677-1.3435172.6655121-2.3058588.6655121-.6248971 0-1.2081257-.1197701-1.7497032-.359314s-.9592108-.56761-1.2529125-.984208c-.2937016-.4165981-.4405502-.8894299-.4405502-1.4185094h1.2060454c0 .5499094.2030885.9842064.6092716 1.302904.4061832.3186975.948794.4780439 1.6278489.4780439.6332291 0 1.1185586-.1291435 1.456003-.3874343s.5061641-.6103109.5061641-1.0560709c0-.4457599-.1562219-.7904896-.4686705-1.0341995-.3124485-.2437099-.8790134-.4842917-1.6997116-.7217526zm11.1981004-4.055562h-2.9245039v8.111124h-1.1935476v-8.111124h-2.9182549v-.9873325h7.0363064zm6.4926486 3.9055875h-3.9430811v3.224453h4.580473v.9810835h-5.7802695v-9.0984565h5.7177801v.9873325h-4.5179836v2.9245039h3.9430811zm3.6806256-4.89292 2.9744955 7.4237406 2.9744954-7.4237406h1.555986v9.0984565h-1.1997964v-3.5431489l.1124809-3.8243513-2.9869933 7.3675002h-.9185942l-2.9807444-7.3487533.1187299 3.8056044v3.5431489h-1.1997965v-9.0984565z" fill="#152935"/></g><g stroke-width=".8" transform="translate(2.153409 23.524513)"><g stroke="#3057d5"><path d="m17.4953613 42.8277927c7.2301327 0 11.9184218-3.6123963 14.8556631-9.8896751l-7.0041909-4.263812c-1.1861937 3.3755178-3.6150663 6.1588396-7.8514722 6.1588396-5.0272015 0-8.35984079-3.5531767-8.35984079-10.067334v-6.6325965c0-6.5141572 3.33263929-10.06733391 8.35984079-10.06733391 4.2364059 0 6.3263661 2.30956481 7.3431035 5.74430231l7.3995888-4.02693358c-2.8807559-6.63259648-7.5125596-9.71201628-14.7426923-9.71201628-10.61925723 0-17.45399196 7.69854949-17.45399196 21.67437776 0 13.9758284 6.83473473 21.0821817 17.45399196 21.0821817z" opacity=".05"/><path d="m22.1901422 42.8277927c7.2301326 0 11.9184217-3.6123963 14.8556631-9.8896751l-7.004191-4.263812c-1.1861936 3.3755178-3.6150663 6.1588396-7.8514721 6.1588396-5.0272016 0-8.3598408-3.5531767-8.3598408-10.067334v-6.6325965c0-6.5141572 3.3326392-10.06733391 8.3598408-10.06733391 4.2364058 0 6.326366 2.30956481 7.3431034 5.74430231l7.3995889-4.02693358c-2.880756-6.63259648-7.5125597-9.71201628-14.7426923-9.71201628-10.6192573 0-17.453992 7.69854949-17.453992 21.67437776 0 13.9758284 6.8347347 21.0821817 17.453992 21.0821817z" opacity=".2"/><path d="m27.6922533 42.8277927c7.2301326 0 11.9184217-3.6123963 14.8556631-9.8896751l-7.004191-4.263812c-1.1861936 3.3755178-3.6150663 6.1588396-7.8514721 6.1588396-5.0272016 0-8.3598409-3.5531767-8.3598409-10.067334v-6.6325965c0-6.5141572 3.3326393-10.06733391 8.3598409-10.06733391 4.2364058 0 6.326366 2.30956481 7.3431034 5.74430231l7.3995889-4.02693358c-2.880756-6.63259648-7.5125597-9.71201628-14.7426923-9.71201628-10.6192573 0-17.453992 7.69854949-17.453992 21.67437776 0 13.9758284 6.8347347 21.0821817 17.453992 21.0821817z"/></g><g stroke="url(#a)"><path d="m35.2444488 28.3642979-5.341356.1955403"/><path d="m42.5293342 32.9239734-5.5107892-.0215197"/><path d="m34.6602709 14.1011154h-5.3165792"/><path d="m42.3360857 9.73427728-5.1413207.16526042"/></g></g></g></svg>