<svg height="90" viewBox="0 0 180 90" width="180" xmlns="http://www.w3.org/2000/svg"><path d="m.28211921 24.3417219c2.06622516-.0476822 4.13245033-.0437087 6.19867549-.0079471.1986755 2.1298014.05960265 4.2754967.09933775 6.4092716-.03576159 8.6741721.0794702 17.3523178-.06357616 26.02649-2.0821192.1072848-4.16821192.0794702-6.25033112.0198676-.03178808-10.8158941-.12317881-21.6357616.01589404-32.4476821zm71.19735099.3019867c1.6927152-.5006622 3.4966887-.1986755 5.2370861-.2662252.7430463-.1549668.9615894.6437087.8662252 1.2079471.015894 9.4172185.0198675 18.8304635.0397351 28.2437086-.0238411 1.0410596.22649 2.0543046.4728476 3.0516556-1.9311258-.0397351-3.8622516.007947-5.7894039-.0596026-.6317881-.1231789-.7509934-1.378808-1.5456954-.8264901-2.6543046 1.1443708-5.6344371 1.402649-8.4357616.6635761-2.213245-.7509933-4.1801324-2.2569536-5.2490066-4.3629139-2.5072848-4.5456953-1.9192053-10.2993377.6119205-14.7019867 1.2794702-2.2688742 3.6437086-3.8622517 6.2264901-4.1960265 2.5470199-.4649007 5.2649006-.2622517 7.5615894 1.005298-.007947-3.2543046-.0119205-6.5046358.0039735-9.7589404zm-9.9615894 17.9483444c-.3655629 1.8596026-.3139073 3.8860927.5006622 5.6304636.8662252 1.7761589 2.8728477 2.6900662 4.7562914 2.9006622 1.7562914.194702 3.3576159-.7311258 4.6490067-1.815894-.0158941-3.0437086.0039735-6.0874173-.0158941-9.1311259-1.5496689-.7907284-3.2582781-1.4821192-5.0344371-1.2913907-2.1099337.2185431-4.3470198 1.5139073-4.8556291 3.7072848zm21.5642384-18.1827815c1.613245-.3417218 3.794702-.3456953 4.6688742 1.3390729.6953642 1.6450331.6913907 3.8145695-.5682119 5.1854304-1.7165563 1.4860927-5.0900663.9933775-5.6860928-1.4225165-.3576159-1.7523179-.3655629-4.2794702 1.5854305-5.1019868zm67.2834438.1430464c1.625165-.5801325 4.001324-.5443709 4.94702 1.1761589.564238 1.3390729.552318 2.9006623.087417 4.2675497-1.112583 2.5788079-5.721854 2.3205298-6.333775-.5165563-.381457-1.6569536-.369536-3.9655629 1.299338-4.9271523zm-118.2119206 12.0476821c4.5814569-2.3086093 9.8741722-4.3112583 15.0476821-2.9483444 3.210596.7668874 5.1258278 3.9298014 5.6622517 6.9933775.1390728 4.386755-.1271524 8.7735099-.1033113 13.1602649 0 1.0211921.3019868 2.0066225.5562914 2.984106-2.1496689.1430463-4.3311258.2304635-6.4688742-.0516557-.0357616-.3337748-.1033112-1.005298-.1390728-1.3390728-1.1125828 1.1562914-2.7059603 1.4662252-4.2476821 1.5417219-.6556292.0754966-1.3112583.1112582-1.970861.1271523-1.0529801-.2105961-2.1258278-.2940398-3.194702-.4013245-1.4900662-.4847682-3.0635761-1.0807947-4.013245-2.4039735-1.5814569-2.1059603-1.5854305-4.9668875-1.0092715-7.4225166.8860927-3.0556291 4.1125828-4.6410596 7.0569536-5.0344371 2.6066225-.405298 5.2172186.2622517 7.6172186 1.2516556.0397351-1.0013245.0993377-2.1774834-.6913908-2.9284768-.9059602-.794702-2.2092715-.9496689-3.3655629-.8582781-3.0437086.3456953-5.8728477 1.6013245-8.7695364 2.5112583-.7430464-1.6927153-1.2913907-3.4609272-1.9668874-5.181457zm5.7536424 11.7655629c-.3496689.8066225-.0596027 1.7364239.5841059 2.3006623 1.0768212 1.2715231 2.9364239.9735099 4.4066225.8304635 1.3033113-.2463576 2.7695365-.2741721 3.8622517-1.1284768-.0119205-.9059602-.0119205-1.807947-.0119205-2.7139073-1.7284769-.6476821-3.5324504-1.2794702-5.4039735-1.2278145-1.378808-.0119206-2.765563.7192053-3.4370861 1.9390728zm43.5019867-14.8768212c.1112583-.0834437.3337749-.2463576.4450331-.3298013 1.8397351-.0834437 3.6953643-.0834437 5.5350994.0039735.1072847.0953642.3178808.2860927.421192.381457.1231788 6.218543.0119206 12.4450331.0476821 18.6675496-.0437086 1.5377484.1509934 3.1033113-.2225165 4.6132451-2.0821192-.0317881-4.1642384.0715231-6.2384106-.0993378-.007947-7.7443708-.0874172-15.4927152.0119205-23.2370861zm15.8066225 2.4039735c2.3086093-1.7324503 5.185431-2.9483443 8.121854-2.5549669 2.336424.1986755 4.700663 1.2158941 6.075497 3.186755 1.796027 2.5430464 2.554967 5.8450331 1.954967 8.9125828-.437086 2.6503311-1.772186 5.018543-3.003974 7.3668874-1.243708 2.578808-.607947 5.5629139.452981 8.0860927-.88212 1.784106-2.729802 2.9523179-3.96159 4.5178808-1.410596-1.3668874-2.856954-2.8609271-3.317881-4.8397351-1.045033-4.0251655.385431-8.213245 2.411921-11.6900662 1.434437-2.4953642 1.86755-5.992053-.051656-8.3483444-2.233112-2.0304636-6.1509931-1.6410596-8.1218541.5880795-.7668874.8701987-.5324503 2.1019867-.5761589 3.1589404-.0238411 4.1880795.0715232 8.384106-.0794702 12.5682119-2.0821192.0516556-4.1721854.0278146-6.2503311-.0834437-.0238411-7.621192-.1311259-15.2463576.0437086-22.8635762 2.0662252-.0397351 4.1284768-.031788 6.194702-.015894.0715232.6675497.0953642 1.3390729.1072847 2.010596zm51.683444-1.1642384c.051655-.5483443-.166888-1.2953642.480794-1.5695364 1.85563-.0834437 3.719206-.0794702 5.570861 0 .647682.2662252.44106 1.0013245.488742 1.5496689 0 6.7629139-.023841 13.5258278-.003973 20.2887417-.05563.6.154966 1.3152318-.341722 1.7801324-1.978808.1192053-3.96159.0039736-5.940398.0357616-.131125-.6-.234437-1.207947-.218543-1.823841-.007947-6.7549669-.007947-13.5059603-.035761-20.2609272zm-132.7867552-.8384106c3.3735099-.6119205 7.0847682-.5205298 10.1403973 1.192053 2.5430464 1.4622517 3.8384106 4.3748344 4.0807947 7.2039735.3496689 3.5682119.4807947 7.5655629-1.7324503 10.6092715-2.6701987 3.186755-7.0450331 4.8754967-11.1655629 4.1721855-3.4649007-.6675497-7.0092715-2.8490067-8.14172186-6.3576159-1.05298014-3.4649007-.89801325-7.2317881-.0794702-10.7284768.77880794-3.2264901 3.67549666-5.5748345 6.89801326-6.0913908zm1.5854304 5.1099338c-1.831788.4887417-3.0516556 2.2370861-3.2821192 4.0609272-.3576159 2.1456953-.3258278 4.6172185 1.0847683 6.4013245 1.4543046 1.6490066 3.9735099 1.7443708 5.9523178 1.1443708 1.8516557-.5364238 3.0596027-2.423841 3.1033113-4.3033112.0993377-2.0821192.0675497-4.4463577-1.4185431-6.0834438-1.3231788-1.5377483-3.5920529-1.6649006-5.4397351-1.2198675zm112.6807948-5.384106c1.815894-.2145695 3.66755-.1470198 5.487417-.0437086.45298.5443709.230464 1.2913908.298013 1.9350994 0 7.1602649.043709 14.3245033.059603 21.4847682.051656 2.4516556-.321854 5.1456953-2.113907 6.9735099-1.072848 1.207947-2.630464 1.7483444-4.12053 2.2291391-2.396027.397351-4.819868.4927152-7.243709.3854305-1.203973-.2503312-2.415894-.4569537-3.603973-.778808-1.390729-.5602649-2.733775-1.2516556-3.925828-2.1655629 1.203974-1.4066225 2.372185-2.8450331 3.568212-4.2596027 2.431788 1.3271524 5.189404 2.3562914 8.006622 2.0662252 2.348345-.413245 3.74702-2.8927152 3.309934-5.1655629-.909934.5125828-1.883443.8781457-2.872847 1.2039735-3.337749.3615894-7.128477.0357616-9.679471-2.4-2.725827-2.6741722-3.981457-6.7072848-3.552318-10.4741722.536424-3.615894 2.252981-7.2596026 5.30861-9.405298 3.162914-2.1019868 7.398675-1.8 10.668874-.1033113.127152-.4966887.22649-.9973509.405298-1.4821192zm-9.74702 8.8211921c-.913907 1.8834437-1.05298 4.1205298-.472848 6.1271523.548345 1.8278146 2.376159 2.9403974 4.168212 3.2662252 1.927153.413245 3.866225-.3099338 5.558941-1.1801325-.011921-3.0874172.007947-6.1748344-.011921-9.2662251-1.335099-1.0370861-2.940397-1.9589404-4.696689-1.7046358-1.772185.2781457-3.675496 1.0927152-4.545695 2.7576159zm44.876821-8.5549669c3.627815-.6357616 7.744371-.5125828 10.847682 1.7046358 2.574835 1.9033112 3.357616 5.2649006 3.464901 8.3006622.170861 3.2543047.003974 6.9019868-2.256954 9.4768212-2.256953 2.3245033-5.427814 3.8543046-8.698013 3.8423841-3.572185.0913907-7.184106-1.6490066-9.282119-4.5417218-2.125828-3.568212-1.855629-7.994702-1.2-11.9364239.572185-3.5562914 3.603973-6.3258278 7.124503-6.8463576zm1.601325 5.1059603c-1.601325.405298-2.793378 1.7642384-3.178808 3.3456953-.52053 2.1854305-.580133 4.6728477.584106 6.6715232 1.327152 2.0821192 4.227814 2.2807947 6.377483 1.5735099 1.831788-.5761589 2.980133-2.4675496 3.039735-4.3311258.115232-2.0582781.003974-4.3629139-1.410596-6-1.303311-1.5536424-3.568212-1.6847682-5.41192-1.2596026zm-25.434437 10.7523179c1.458278-.186755 3.31788-.0357616 4.088741 1.434437.937749 1.9112583.774835 5.002649-1.509933 5.8490067-1.649007.4013245-3.798676.2622516-4.78808-1.3231788-1.152318-2.0622517-.552318-5.6662252 2.209272-5.9602649z" fill="#9b9b9b" fill-rule="evenodd"/></svg>