<svg height="90" viewBox="0 0 180 90" width="180" xmlns="http://www.w3.org/2000/svg"><g fill="#4a90e2" fill-rule="evenodd" transform="translate(2)"><path d="m162.401938 37.6268904-1.78001 2.3733459c-2.128621 2.9479939-4.653311 5.5886133-7.502835 7.8473535-.997902.7815355-2.116222 1.3956421-3.311201 1.8182892-.983411.3886176-2.095717.2625232-2.967181-.3363687-.871465-.5988918-1.387875-1.592091-1.377573-2.6494536-.053593-1.1387018.088837-2.2781473.421078-3.36862.784735-2.6795841 1.68431-5.3208885 2.564744-7.9621928.210539-.6507562.478497-1.2823724.746456-2.0096881-1.913989 0-3.560019 0-5.244329 0-1.790111-.2083325-3.446137.9757263-3.827977 2.7370037-2.600448 6.1786174-4.618879 12.5863368-6.029065 19.1398866-.520905 1.9694464-.520905 4.040478 0 6.0099244.225378.6089993.172845 1.2861415-.143764 1.8530929-.31661.5669515-.865555.9668764-1.502266 1.0944496-.59959.1288871-1.225626-.0076178-1.717133-.3744146-.491508-.3667967-.800532-.9280978-.847612-1.539574-.249095-1.6879294-.249095-3.4032804 0-5.0912098.708176-3.8279774 1.68431-7.6559547 2.545605-11.483932.153119-.6507561.325378-1.3015123.593337-2.3733459-1.071834.842155-1.76087 1.4737712-2.526465 1.9139886-1.66517 1.1483932-3.36862 2.2585066-5.05293 3.3686201-.164692.097816-.337608.1810714-.516777.2488185-3.942817 1.7034499-6.450142.1339792-6.641541-4.2107751 0-.2488185 0-.497637-.114839-.9761342l-1.435492 1.0909736c-1.58861 1.167533-3.138941 2.354206-4.765832 3.4643194-.743723.4908738-1.547912.8833182-2.392485 1.1675331-1.827662.748621-3.899901.6020462-5.603989-.3963845-1.704089-.9984308-2.84505-2.7344795-3.08552-4.6948253 0-.4976371-.133979-.9952741-.248818-1.7225898-.516777.3636578-.899575.6316163-1.2632329.9378544-2.6638579 2.4675741-5.8308147 4.3285694-9.282845 5.4548677-1.7047873.4882179-3.4561122.7961431-5.225189.9187146-2.5090342.3399671-4.8733463-1.258209-5.4931475-3.713138-.1531191-.4019376-.3062381-.7847354-.5359168-1.3397921-.6316162.5550567-1.1292533 1.014414-1.6651701 1.4546314-1.053597.9118296-2.1591864 1.7617914-3.3112004 2.5456049-1.0279687.852692-2.3750627 1.2179646-3.6929743 1.0013718-1.3179116-.2165927-2.4772467-.9937853-3.178245-2.1306251-.4784971-.5933365-.842155-1.2632325-1.2632325-1.9139887l-.8995747-1.3780718-1.6077504 1.4929112c-2.373346 2.2967864-4.727552 4.5935727-7.1391777 6.8520794-.6894501.6564074-1.4693402 1.2107094-2.3159263 1.6460302-.8985067.63424-2.1410435.4200095-2.7752835-.4784972s-.4200096-2.1410435.4784971-2.7752835c.4478225-.4446507.934653-.8482075 1.4546314-1.2058129 3.259341-2.5294036 6.2656227-5.3690257 8.9766068-8.4789697 1.5327039-1.318845 2.0425836-3.4742456 1.2632325-5.3400284l-1.014414-2.4116257c-1.3589319.1913989-1.8182892 1.1483932-2.3924858 1.9139887-3.5915636 4.9339963-8.0858234 9.142494-13.2448015 12.4026465-.8101469.4961086-1.6696835.9066336-2.5647448 1.2249527-3.9428167 1.4163516-5.9716446-1.6460302-5.741966-4.5170132.0651673-1.1415399.3106443-2.2655657.7273157-3.3303403 1.4737713-3.5025992 3.043242-6.9669187 4.6701323-10.3929584.4114641-.7886433.9552812-1.5007846 1.6077505-2.1053875.685033-.7489948 1.8356296-.83298 2.6221645-.1913989.7407083.5374066.9973724 1.5239593.6124763 2.3542061-.1936505.4677563-.4307475.9163182-.7081758 1.339792-1.8609219 3.0153821-3.3883355 6.2242342-4.555293 9.5699433-.2818586.7698209-.455769 1.5749612-.5167769 2.3924858-.0988681.4581253.0766763.932037.4501315 1.2152063.3734551.2831693.8771586.3242916 1.2915982.1054459.7246945-.2311145 1.4091196-.573327 2.0288279-1.014414 3.409401-2.4366059 6.4075074-5.4024051 8.8809074-8.7852079 1.2632325-1.7417297 2.7178639-3.3494802 4.0959357-4.9955104.2104329-.2364313.4409754-.4541659.689036-.6507562 2.2585066-1.9139886 3.9236767-1.6651701 5.3783081.9569944.7137445 1.4071508 1.3526315 2.8510354 1.9139886 4.3256143.3940028-.2897832.7593303-.6166552 1.0909736-.9761342 1.6651701-2.1628072 3.2920605-4.3447542 4.9572306-6.5075614.4684218-.6756914.9866392-1.3154659 1.5503308-1.9139887.5807368-.6461082 1.5666456-.7219473 2.2393667-.172259.7732842.4079919 1.0926737 1.3493505.7273157 2.1436673-.3333594.822267-.7777009 1.5950348-1.3206521 2.2967864-2.2202269 2.7752836-4.4404537 5.5314273-6.7372401 8.2492911-1.6268904 1.9139887-1.7034499 1.9139887-.669896 4.1724953 1.5694707 3.3877599 2.9475425 3.8279773 5.7419659 1.2823724 2.201087-1.9139886 4.0767959-4.3256143 6.1056238-6.5075614 2.028828-2.1819471 3.38776-3.9619565 5.2634689-5.741966 2.0407895-2.0383332 4.7738888-3.2340642 7.6559546-3.3494801.7583973-.0090434 1.5096118.1477319 2.2010869.4593572 1.4552358.5239626 2.2338399 2.1065601 1.7608696 3.5791588-.3656756 1.2716138-.984106 2.4563963-1.8182892 3.4834594-2.5344565 2.8695591-5.8034053 4.9937141-9.455104 6.1439036-.6507561.2296786-1.3589319.3827977-1.9139886.6507561-.469582.1347674-.840154.4962565-.9865306.9623503-.1463765.4660937-.0490072.9745396.2592149 1.353576.5060325.9181991 1.526566 1.4284659 2.5647448 1.2823724 2.4167524-.1526752 4.7579086-.9023713 6.8137996-2.1819471 3.1163165-1.968579 5.8684151-4.4616566 8.1344516-7.3688563.518915-.7150885.901715-1.5196185 1.129253-2.3733459 2.795114-9.0598641 6.88897-17.6666326 12.153828-25.55174862 1.435781-2.14803513 3.169293-4.08131944 5.14863-5.74196598 1.340473-1.19229802 2.994213-1.97599789 4.765832-2.25850661 1.114571-.26495046 2.288266.03191387 3.142834.79492118.854569.76300731 1.281984 1.89570602 1.1445 3.03305613-.131475 1.64168988-.485619 3.25787165-1.052693 4.80411154-1.682921 4.18108686-4.036078 8.05991696-6.966919 11.48393196-3.364528 4.2308449-7.219487 8.0472547-11.483932 11.3690926-1.328834.9827084-2.286596 2.3856265-2.717864 3.9810964-.478497 1.9139887-.995274 3.6748582-1.358932 5.5314272-.418453 1.3118833-.020214 2.7470463 1.014414 3.6557184 1.244093.9569943 2.526465.4402174 3.827977-.1531191 3.1855-1.7019157 6.022785-3.987326 8.364131-6.7372401 1.75881-1.8412609 3.21837-3.9466433 4.325614-6.239603.57653-1.1316164 1.255651-2.2079599 2.028828-3.215501.46432-.7179422 1.332057-1.0635011 2.162807-.8612949.514486.0544066.979015.3323131 1.270231.7599217.291217.4276086.379651.9616483.24182 1.4603052-.185939.6788605-.476523 1.3246024-.861295 1.9139886-1.822801 2.9778696-3.324135 6.1409353-4.478733 9.4359641-.267251.710473-.453448 1.4488432-.555057 2.201087-.133979 1.3972117.708176 1.9139886 2.028828 1.4929111.534943-.1971088 1.042952-.4607589 1.512051-.7847353 3.654893-2.5384497 6.841175-5.6923512 9.416825-9.3211248.286698-.4676333.542445-.9535515.765595-1.4546314-.346101-.1620779-.704501-.2964777-1.071834-.4019376-.731035-.040675-1.302643-.6459065-1.301512-1.3780718-.14502-.9176058.351726-1.8164797 1.205813-2.1819471.665666-.1900193 1.355822-.28032 2.047968-.2679584.651926.0540699 1.257955-.3394552 1.473771-.9569943.555057-1.2823724 1.129253-2.5456049 1.74173-3.8279773 2.221086-5.1941677 4.993096-10.135019 8.268431-14.7377127 2.107871-2.87218645 4.769616-5.2931381 7.828213-7.12003781 1.910987-1.3044576 4.35123-1.55640004 6.488422-.66989603.949128.35542679 1.653158 1.16804881 1.869739 2.15813185.216581.99008305-.083862 2.0224337-.797905 2.74167911-1.129254 1.30151229-2.603025 1.16753309-3.253781-.44021739-.363658-.89957467-.899575-1.05269376-1.607751-.76559546-.822255.32957869-1.600227.76035644-2.315926 1.2823724-2.116717 1.63374764-3.941641 3.61398363-5.397448 5.85680533-3.241201 4.9300508-6.052365 10.1297422-8.40241 15.5415879-.087146.2999109-.144839.6076051-.172259.9187145h7.655954c.459358 0 .918715-.4402174 1.397212-.5359168.66177-.1737064 1.351683-.2127581 2.028828-.1148393.476972.101226.882234.4134399 1.10178.8488112s.229652.9468521.027473 1.3905555c-.228531.5930643-.523916 1.158148-.880434 1.68431-1.887297 3.162422-3.348206 6.560484-4.344755 10.1058601-.210538.689036-.612476 1.4354915 0 2.1819471 1.018416-.0942297 1.943149-.6336569 2.526465-1.4737713 2.047968-2.3350661 4.057656-4.7084121 5.971645-7.1391777 1.282372-1.6460302 2.411626-3.4260396 3.560019-5.1677693.848922-1.2872066 2.144395-2.2144928 3.636578-2.6030246 1.913989-.5550567 2.851844.344518 2.430766 2.2776465-.561607 2.0082571-1.008922 4.0467349-1.339792 6.1056238-.555057 5.4165879-.899575 10.8714556-1.320652 16.3071834-.019686.2739852-.019686.5490299 0 .8230151h1.60775c2.027951-.0211489 4.019863.5365863 5.741966 1.6077505 1.89862 1.064252 2.853885 3.2644921 2.335066 5.3783081-.175599.6680735-.518072 1.2805736-.995274 1.7800095-.719669.6710553-1.780776.8237326-2.660444.3827977-.918714-.344518-1.052694-1.186673-1.033554-2.0671078 0-.1913988 0-.3827977 0-.5741966.133979-1.9139886-.306238-2.6030245-2.258506-2.9666824-.435795-.0838238-.877239-.1350057-1.320653-.1531191-1.913988 0-2.124527.1148394-2.469045 1.9139887-1.061152 7.0213003-3.403191 13.7879116-6.909499 19.9629017-1.575865 2.866798-3.765264 5.3502951-6.411862 7.2731569-2.129792 1.6609014-4.857361 2.3549393-7.521975 1.9139886-2.823391-.4378964-4.895288-2.8850184-4.861532-5.7419659-.065916-2.2898108.358253-4.5672708 1.244093-6.6798204 2.249938-5.9924083 6.0552-11.2774952 11.024575-15.3119093 2.659982-2.2869296 5.606854-4.2171952 8.766068-5.741966.728742-.2435033 1.241233-.89919 1.301512-1.6651701.440217-5.0529301.937854-10.1058601 1.397212-15.1587902-.028956-.3537569-.080096-.7053466-.153119-1.0526937zm-1.913989 22.0491493c-.248819 0-.382798 0-.459357 0-.34249.1650843-.674837.3504317-.995274.5550567-3.596015 2.3839466-6.864762 5.2280136-9.723063 8.4598299-2.7612 3.0732739-4.77826 6.740656-5.895085 10.7183365-.340414 1.1519162-.539652 2.3409162-.593336 3.540879-.108862.8760719.247457 1.7454282.939858 2.2930902.692402.5476619 1.62045.6941895 2.447902.3864939 1.261117-.4056781 2.445126-1.0203274 3.502599-1.8182892 1.781447-1.4378411 3.252948-3.2218731 4.325614-5.2443289 3.10236-5.3917159 5.276317-11.2665755 6.431002-17.3790171.070952-.5010017.109312-1.0060803.114839-1.512051zm-50.54844-32.8631853.325378.1913989c.497637-.4784972 1.033553-.9187145 1.512051-1.4163516 3.39376-3.3371267 6.422204-7.0264388 9.034026-11.0054348 1.244093-1.9139886 2.315926-3.9236767 3.36862-5.93336482.333567-.68592143.547193-1.42390519.631616-2.18194707.13398-.9952741-.459357-1.41635161-1.397211-.97613422-.573915.26661094-1.098196.62907744-1.550331 1.07183365-.960467.91820938-1.861844 1.89629949-2.698724 2.92840265-3.646755 4.79944921-6.597881 10.08956941-8.766068 15.71384691-.191399.6124763-.306238 1.0718336-.459357 1.6077504zm-24.6904542 12.2112477c3.0812695-.7967659 5.854026-2.4964123 7.9621928-4.8806711.1503381-.2031813.2666911-.4294233.344518-.669896.0882955-.2372509.0468778-.5033452-.1093502-.7025358-.1562279-.1991907-.4047891-.3028195-.6562453-.2735984-.3130325.0245262-.6184319.1089984-.8995746.2488185-2.7082253 1.4985313-4.9930397 3.6582406-6.6415407 6.2778828z" fill-rule="nonzero"/><path d="m36.0021267 1.72046314c1.9139886.21053875 3.6748582.26795841 5.4548676.66989603 5.5888469 1.20581285 8.2875709 5.49314745 7.7899339 11.29253303-.2479476 2.3452831-1.0410502 4.6000541-2.3159263 6.584121-3.0782872 5.1416458-7.7188519 9.1652568-13.2448015 11.483932-2.0894321.9473662-4.3674514 1.4055885-6.6606806 1.339792-.6903188-.0293696-1.3703041-.1783187-2.009688-.4402174-.8712585-.3522653-1.3578792-1.284955-1.1483932-2.2010869.0406118-.7896281.6192317-1.447511 1.3972117-1.5886106.6729314-.1626762 1.357754-.2714798 2.0479678-.3253781 8.0387524-.7273157 13.3979207-5.2060491 16.7856806-12.2303875.5062561-1.2099862.7351543-2.5179761.669896-3.8279773.1516799-3.31888411-2.2424555-6.21007183-5.5314272-6.67982042-3.0562202-.60236871-6.2042515-.56326273-9.2445652.11483932-7.9255395 1.38871679-15.2119642 5.2395387-20.82419663 11.0054348-1.83427192 1.773783-3.19618328 3.9778425-3.96195652 6.411862-.33103502.9611904-.33103502 2.005492 0 2.9666824.36554741.6820485.39295555 1.4953471.07415538 2.2004581s-.9475139 1.2217588-1.70104574 1.3978406c-.73680504.212556-1.52949393.0968421-2.17479133-.3174681-.64529739-.4143103-1.08043558-1.0869172-1.19382871-1.8453391-.32687395-1.6274652-.18075241-3.3145049.42107751-4.8615312 1.52937507-4.7223441 4.5099929-8.8416249 8.51724952-11.7710302 7.73338382-5.88854723 17.13535802-9.1722018 26.85326092-9.37854446z"/><path d="m9.32112476 49.2830813c.40629271-3.81603 1.29377494-7.5653209 2.64130434-11.1585539 3.0237862-8.438942 7.3860385-16.3362344 12.9194235-23.3889414 1.0631891-1.3384705 2.2485895-2.5751315 3.540879-3.6939981.7347744-.5947074 1.5806161-1.0371477 2.4881852-1.30151229.8447817-.31253451 1.7931612.00624851 2.2776465.76559549.5061605.7731617.4598777 1.7836692-.1148393 2.5073251-.4967812.6808521-1.0472123 1.3208882-1.6460302 1.9139887-7.2535435 7.0528112-12.6232636 15.8115092-15.6181475 25.475189-.9830025 3.1005563-1.543113 6.3195825-1.6651701 9.5699433-.0004232.5055168-.0323851 1.0105147-.0956995 1.512051-.0556341.3668582-.2588597.6950129-.5624979.9082825-.3036381.2132697-.6812789.2931046-1.0452525.2209709-.8598552-.0145366-1.6770917-.3770108-2.2650261-1.0046218-.58793436-.6276109-.89634303-1.4667456-.85477544-2.3257185z"/><path d="m57.4196597 15.2332231c-.0859569 1.7560154-1.3032111 3.2523851-3.0049622 3.6939981-.6295401.190243-1.3089421-.059652-1.6651701-.6124764-.6571345-.8364828-.888449-1.9307498-.626048-2.9616111.2624011-1.0308613.9887469-1.8813601 1.9658401-2.3018577.724046-.4630921 1.652498-.4579944 2.3714153.0130204.7189172.4710148 1.0943537 1.3201888.9589249 2.1689267z"/><path d="m132.294896 15.7882798c.055804-.3461142.145556-.6858918.267958-1.014414.633418-1.4853208 2.280187-2.2593024 3.827978-1.7991494 1.278094.9334617 1.583247 2.7135193.689036 4.0193762-.146182.2754714-.333333.5271569-.555057.7464556-.667047.8669412-1.750265 1.306084-2.832703 1.1483932-.803875-.2105388-1.397212-1.4737713-1.397212-3.1006616z"/></g></svg>