<svg height="90" viewBox="0 0 180 90" width="180" xmlns="http://www.w3.org/2000/svg"><g fill="#ff6500" fill-rule="evenodd" transform="translate(0 16.538462)"><path d="m144.776923.77307692c.511539-.17692307 1.034615-.32692307 1.565385-.45384615.011538.45384615.038461 1.36538461.05 1.81923077-.234616.03846154-.707693.10769231-.942308.14615384.896154.72307693 2.353846 1.2923077 2.146154 2.68846154.046154 1.75384616-.015385 3.50769231-.034616 5.26153848-4.534615-.0384616-9.06923.0846154-13.6-.0807692.076924-1.82307697-.003846-3.65000005.076924-5.47307697.203846.06538462.611538.19615385.815384.26153846l-.111538-.54230769c1.91923-.04615385 3.892307.25769231 5.776923-.23461538l.315384-.2c.046154-.2923077.142308-.86923077.188462-1.15769231.55.15 1.1.33076923 1.669231.41923077 1.007692-.48461539 1.353846-1.67692308 2.084615-2.45384616z"/><path d="m171.157692.98846154c.142308-.01153846.426923-.03846154.569231-.05.030769 1.21923077.015385 2.43846154-.080769 3.65769231-.334616.59230769-.769231 1.18076923-.734616 1.89615384-.076923 2.32307693-.380769 4.65000001-.11923 6.97307691.203846 1.9653846-.473077 3.9692308.173077 5.8923077.207692.0038462.626923.0153846.834615.0192308 1.873077.0076923 3.742308-.0076923 5.615385-.0038462l.026923-.1384615c.757692-.95 1.392307-1.9961539 1.746154-3.1653846.203846-.1346154.607692-.4115385.811538-.5461539v5.0576923c-.234615 0-.707692-.0038461-.942308-.0076923-.06923 1.7538462.05 3.5115385-.092307 5.2615385-.103847.1115384-.319231.3307692-.426923.4384615-2.5.1615385-5.007693-.0230769-7.507693.1-.734615 5.0230769-.2 10.1230769-.323077 15.1807693-.123077 2.5576923.338462 5.1115384.107693 7.6692307-.242308 2.65-.107693 5.3153846-.153847 7.9730769-2.65.0961539-5.3-.0115384-7.95.0115385.211539-6.7615385-.407692-13.5307692.076924-20.2884615-.326924-2.9461539.030769-5.8923077-.092308-8.8384616-.038462-.226923-.107692-.6884615-.146154-.9153846-.015385-.2153846-.042308-.6461538-.057692-.8615384-2.269231.0346153-4.542308.0538461-6.811539-.023077-.061538-2.2576923-.061538-4.5192307.026923-6.776923 2.342308-.1961539 4.734616.2038461 7.046154-.2307693.257692-4.8115384-.084615-9.64615382.176923-14.46153844 1.846154-.03461538 3.703846.12307692 5.546154-.08076923.823077-.03076923 1.215385-.76153846 1.507692-1.42307692.542308-.68846154.911539-1.48461539 1.173077-2.31923077z"/><path d="m84.1653846 3.00769231c.1038462-.21923077.3076923-.65769231.4076923-.87692308.3153846.00769231.9461539.01923077 1.2653846.02692308-.4192307.85769231-.9346153 1.68461538-1.7692307 2.2-.1961539 1.19230769-.1 2.40384615.3153846 3.53846154 1.0576923-.01923077 2.1153846-.05769231 3.1769231-.1.1423077.47692307.2846153.95384615.4307692 1.43076923.1692308-.09615385.5-.2923077.6692308-.38846154 0 .24230769.0076923.72692308.0076923.96923077-4.1076923.43846149-8.2269231-.07307693-12.3423077.11538461.0230769-.58461538.0461538-1.16538461.0730769-1.75.4923077-.43846154.9346154-.92692307 1.3269231-1.45384615.1-.01153846.3038461-.03461539.4038461-.04230769.1653846.81923077.35 1.63846154.5384616 2.45384615.2692307-.11923077.8-.35769231 1.0692307-.47692308.0423077-1.13846153.4038462-2.21153846.8923077-3.23076923.0538462.18461539.1692308.55384616.2269231.73846154.0192308-.58461538.0269231-1.16923077.0423077-1.75384615.2692308-.03076923.8076923-.1 1.0769231-.13076923.05-.48461539.1038461-.96923077.1576923-1.45769231.6769231.06538461 1.3538461.12692308 2.0307692.18846154z"/><path d="m114.223077 3.92692308c.146154-.6423077.388461-1.26153846.715385-1.83461539.092307.30384616.280769.91538462.373076 1.21923077 1.423077.12307692 2.469231-.85 3.4-1.79230769.273077 1.98461538-.273076 3.89230769-.757692 5.78461538-.096154 2.6923077.011539 5.38846155-.042308 8.08461535-.061538 1.4461539.746154 2.75.753847 4.1884616.061538 2.1076923.115384 4.2153846.007692 6.3192307-1.019231-.8115384-1.792308-1.8538461-2.415385-2.9884615-.153846-.1076923-.461538-.3269231-.615384-.4346154-.057693-.9346154-.4-1.7884615-1.115385-2.4038461-.069231-1.25-.473077-2.4384616-1.215385-3.45-.203846-1.5538462.073077-3.3807693-1.115384-4.6076923-.080769-.2384616-.25-.7192308-.330769-.9615385-.042308-.2192308-.126923-.6653846-.169231-.8884615-1.769231.0153846-3.538462.0076923-5.303846.026923-.4.3884616-.796154.7769231-1.192308 1.1692308-.069231 1.0653846-.130769 2.1307692-.096154 3.2l.019231.5269231c-.057692.1384615-.176923.4192308-.234615.5615384-.642308 1.3-1.211539 2.65-1.323077 4.1115385-.307693.3384615-.615385.6730769-.923077 1.0115385-.076923.4884615-.15.9807692-.226923 1.4730769-.523077.3807692-.903847.9038461-1.219231 1.4615385-.126923.1076923-.376923.3192307-.5.426923-.542308.6384616-1.0884617 1.273077-1.6384617 1.9038462-.2269231.0076923-.6846154.0192308-.9115385.0269231.0769231-.8961539.2961539-1.773077.85-2.5038462.1884616-2.0692308.0576924-4.1538461.2653847-6.2230769.1076923-.9576923.0807692-1.9230769-.0653847-2.8730769.073077-.5923077.1307693-1.1884616-.0076923-1.773077.2115385-.876923.2-1.8-.0384615-2.6692307.0384615-1.75384618.2076923-3.50769234.2807692-5.26538465 2.8807688.15 5.7653848.01923077 8.6499998.06153847 2.069231-.06153847 4.338462.4076923 6.142308-.88846154z"/><path d="m54.2230769 6.3c-.6961538-1.10384615-1.1961538-2.34615385-.9615384-3.67307692 1.0884615.56153846 1.9615384 1.42307692 2.4846153 2.53076923.1807693.03076923.5384616.08846154.7153847.11538461.1615384 1.2923077.526923 2.70769231-.0423077 3.94615385.0846154.27692308.2461538.83846153.326923 1.11538463l-.0307692.7576923c-.0115384.0615385-.0307692.1807692-.0384615.2384615.35-.0384615.7-.0807692 1.0538461-.1192307.0769231-.5538462.1576923-1.1076923.2384616-1.65769235l.6230769.4c.2692308 1.83076925.0423077 3.69230765.1730769 5.53076925.2346154.0384615.7115385.1153846.9461539.1538461.0846153 1.1615385.3192307 2.3307693 1.15 3.2038462.1846153 1.2115385.35 2.4230769.5230769 3.6384615.2192308.2961539.4384615.5923077.6576923.8923077.0576923.6076923.1346154 1.2115385.2192308 1.8192308.026923.1346154.0807692.4115385.1076923.5461538.1923077 4.8846154.2038461 9.7846154 0 14.6692308-.2769231 1.0884615-.2576923 2.2192308-.2461539 3.3346154l-.5423077-.2769231.273077.6653846-.5461539-.1846154c-.0038461.6538462-.0115385 1.3076924-.0115385 1.9615385l-.3538461.05c.0307692.2884615.0884615.8615385.1192308 1.15-.2346154-.0192308-.7115385-.05-.9461539-.0653846.0269231.1576923.0807692.4769231.1076923.6384615-.0153846.3346154-.0423077 1.0076923-.0576923 1.3461539l-.3807692.0461538-.0076923.9769231c-.1692308-.1923077-.5038462-.5730769-.6730769-.7653846-.0384616.6807692-.0807693 1.3653846-.1153847 2.05l-.3923077.0153846.0846154.4884615c-.2192307-.05-.65-.1461538-.8653846-.1961538.0423077.2153846.1230769.6461538.1653846.8576923l-.5.0384615c.0038462.2769231.0115385.8307693.0153846 1.1076923-.2692307 0-.8153846-.0038461-1.0846153-.0038461l.026923.4807692-.5307692-.1038461c.0307692.2153846.0884615.65.1192308.8653846-.2038462-.0346154-.6076923-.1076923-.8115385-.1423077l.0038462.4846154c-.223077-.0307693-.6692308-.0923077-.8923077-.1269231.0230769.2115385.0769231.6346154.1.8461538-.25.0307693-.75.0846154-1 .1115385-.5807693.2423077-1.2115385.2846154-1.8307693.3230769.0576924.1769231.1769231.5269231.2346154.7-1.376923.0153846-2.7461538.1615385-4.1153846.2653846-1.6730769-.176923-3.35-.2461538-5.0269231-.326923.3692308-.1192308 1.1076923-.3653846 1.4807693-.4884616-1.2423077-.2076923-2.4653846-.5038461-3.7153846-.6730769.1076923-.1692308.3192307-.5038461.4230769-.6730769l-.6692308.0461538-.0615385-.5192307c-.2.0884615-.6.2615384-.8.35l.173077-.6192308-.4961539-.0269231c.0153846-.1923077.0423077-.5730769.0538462-.7615384-.2269231.0307692-.6769231.0884615-.9038462.1153846.0269231-.2192308.0769231-.6576923.1038462-.8769231l-.4769231.05.0961538-.4807692c-.2230769.0346153-.6653846.1-.8884615.1346153.0423077-.2115384.1269231-.6384615.1692308-.85l-.4615385-.026923.0269231-.55c-.1730769.0615384-.5153846.1884615-.6884615.2538461-.1-.8461538-.2846154-1.6807692-.4884616-2.5038461-.1653846.0384615-.5.1230769-.6692308.1653846-.0692307-.5961539-.1846153-1.1846154-.3538461-1.7576923-.0538462-.4961539-.1038462-.9961539-.1423077-1.4923077-.1807692.0461538-.5461538.1461538-.7269231.1961538-.0384615-.976923.0615385-1.9961538-.3076923-2.926923-.0615384-.873077-.0807692-1.7461539-.0653846-2.623077l-.4692308.1846154c.0384616-.5730769.0769231-1.1461538.1153846-1.7153846l-.4730769.1769231c-.0730769-4.6769231.0076923-9.3576923.0269231-14.0346154l.5153846.2615385-.1961538-.6769231.4846154.25c-.073077-1.9076923.4961538-3.7730769.4615384-5.6846154.1192308.4346154.3538462 1.3.4692308 1.7346154.1923077-1.3307693.4884615-2.6423077.6192308-3.9807693.1653846.05.5.15.6653846.2.0923077-.8346153.3115384-1.65.4384615-2.4807692.1923077.0230769.5769231.0730769.7730769.0961539.0153846-.5115385.0346154-1.023077.0538462-1.5346154.2730769-.0076923.8115384-.0307693 1.0807692-.0423077-.0076923-.25-.0269231-.7576923-.0346154-1.0115385.2384616-.05.7153846-.1538461.95-.2038461.6961539-.8807693 1.5423077-1.6307693 2.5576923-2.1192308.05-.28076923.0961539-.56153846.1423077-.84230769.9576923-.21923077 1.9192308-.42307693 2.8846154-.60384616-.4115384-.11538461-1.2307692-.34615384-1.6423077-.46538461 1.6692308-.10769231 3.3384616-.18076923 5.0076923-.22692308.2269231-.07307692.6807693-.21923077.9076923-.29615384.0076923-.63076924.0192308-1.26538462.0269231-1.9.6153846.03076923 1.2346154.0576923 1.85.07307692.05.63076923.1076923 1.25769231.1615385 1.88461538.7692307.03846154 1.5384615.06153846 2.3076923.08461539l-.1576923-.46153846.4846154-.07307693-.1807693-.62692307c.273077-.03461539.8192308-.10769231 1.0923077-.14615385zm-8.9230769 8.5269231c-.1307692.6115384-.7115385.8653846-1.2307692 1.0769231h-.1961539c-.9115384.6038461-1.6346154 1.4346153-2.45 2.1538461-.0346154.2153846-.1076923.65-.1423077.8653846-1.15.2423077-1.0461538 1.5461539-1.1576923 2.45-.1576923.0038462-.4730769.0076923-.6307692.0076923-.3423077 1.7769231-.4230769 3.5884616-.8615385 5.3461539l-.326923.0423077c-.4269231 4.3230769-.6884616 8.7923077.3692307 13.0423077.1153846.0153846.3461539.0423077.4615385.0576923-.0153846.5615384-.0115385 1.1230769.0076923 1.6846154.3307692.9384615.3230769 1.9384615.3384615 2.9192307.1653846-.05.5-.1538461.6653846-.2076923.25.5923077.2269231 1.25.4807693 1.8384616.1538461-.05.4615384-.1538462.6153846-.2038462.1423077.7923077.3307692 1.5807692.5423077 2.3615385.2038461-.023077.6153846-.0692308.8192308-.0923077-.0346154.2153846-.1.6461538-.1346154.8615384l.4461538-.0346154-.0307692.4076924c.2884615.0038461.8653846.0076923 1.15.0076923-.0153846.2153846-.0538462.6384615-.0692308.8538461h1.3384616l-.45.1384616c.6384615.1461538 1.3307692.2923076 1.7115384.8884615.9346154.05 1.8692308.05 2.8076923.0384615.0269231-.2346154.0846154-.7038461.1153846-.9384615.1923077.0192308.5846154.0576923.7769231.0769231.4461539-.0923077.8884616-.2 1.3307692-.3115385.1692308-.6576923.8115385-.8653846 1.3538462-1.1269231.1384615-.3653846.2807692-.726923.4153846-1.0923077.2192308-.0307692.6538462-.0961538.8730769-.1307692.1115385-.7.1346154-1.4730769.7269231-1.9615385.7884616-.6346153.4961539-1.7423076.6384616-2.6192307.1653846.0076923.5.0192307.6692307.0269231.5807693-2.2.1884616-4.523077.7692308-6.7076924.0230769-1.0346153.1807692-2.0576923.4346154-3.0576923.3769231-1.6923077-.5807693-3.2884615-.3538462-4.9807692-.1346154.0461539-.4076923.1384615-.5461538.1846154.1615384-.9769231.1-1.9692308.0230769-2.95-.2-.7076923-.2307692-1.4423077-.2346154-2.1730769l-.5153846.226923.2538462-.6115384-.5538462.1461538c.0076923-.6461538.0038462-1.2961538.0076923-1.9423077l-.3384615-.0576923c0-.3192307 0-.9576923 0-1.2730769-.1961539.0538462-.5884616.1615385-.7846154.2153846.0038461-.3038461.0115384-.9153846.0192308-1.2192307l-.4307693-.0192308c.0346154-.1846154.1-.5461539.1346154-.7269231-.2-.0769231-.5961538-.2269231-.7961538-.3-.0307693-.2807692-.1-.8423077-.1346154-1.1230769-1.1230769-.1115385-1.3346154-1.5538462-2.6-1.3730769-.2807693-.2307693-.5615385-.4653847-.8384616-.7-1.4884615-.273077-3.0076923-.3384616-4.4884615.0153846z" fill-rule="nonzero"/><path d="m20.35 5.36538462c.2846154-.85.7-1.65 1.2269231-2.37692308.1461538 1.59615384.1846154 3.21538461.6153846 4.76923077.5692308.00769231 1.1384615.01923077 1.7076923.02692307.1576923-.31538461.3192308-.63076923.4807692-.94230769 1.1961539-.75384615 2-1.96923077 3.2192308-2.69615384.0038462 1.31923077.0923077 2.78461538-.85 3.84615384-.0346154.97692308-.0384615 1.95-.0346154 2.92692311.2346154.2961538.4653846.5923077.6923077.8923077.0884615.8576923.1961539 1.7192307.4846154 2.5384615.2307692.0538462.6884615.1615385.9192308.2153846.0653846.3230769.1230769.6423077.176923.9692308.0153847.5923077.2115385 1.1307692.7576923 1.4269231.4269231 1.2346153.023077 2.926923 1.1846154 3.8038461.1038462 2.0807692.1615385 4.1730769.0346154 6.2538462.05.5153846-.3884615.8230769-.6384615 1.2-.2730769 1.1192307-.4307693 2.2615384-.5576923 3.4038461-.6346154.6692308-1.1 1.4692308-1.2653846 2.3884616-.2076924.0384615-.6307693.1153846-.8384616.1576923-.0769231.3846154-.1538461.7730769-.2307692 1.1615384-.9423077 1.4-1.9153846 2.823077-2.4038462 4.4615385-.1884615.0384615-.5692307.1230769-.7576923.1615385-.1769231.9423076-.4846154 1.8653846-1.0730769 2.6346153-.8769231 1.1153847-1.2269231 2.55-2.1576923 3.6269231-.1961539.5576923-.3884615 1.1192308-.5807692 1.6807692-.6384616.6153847-1.0346154 1.4038462-1.1807693 2.2807693-.2115384.0423077-.6307692.1269231-.8423077.1692307-.076923.5153847-.1576923 1.0307693-.2423077 1.5461539-.5846153.5538461-1.0307692 1.2269231-1.1846153 2.0307692-.3.3884616-.6.7730769-.9076923 1.1538462-.0346154.25-.1038462.75-.1384616 1-.1846154.0961538-.5576923.2884615-.7461538.3846154-.023077.1807692-.073077.5423077-.1.7192307-.3307693.0115385-.9961539.0269231-1.3269231.0346154l-.2807692.2192308c-1.4115385-.0076923-2.823077-.1-4.22692312-.2846154.03846154-.2153846.11153847-.6461538.15-.8615385.2-.0846153.60000002-.2576923.80000002-.3423077.1538461-.5730769.3115384-1.1461538.4692308-1.7192307.2615384-.2307693.5230769-.4576923.7846153-.6846154.6846154-1.9615385 2.1423077-3.5384615 2.7076923-5.55.2192308-.0576923.65-.1692308.8692308-.2230769.0269231-.5923077.0538462-1.1807693.0807692-1.7653846.2115385-.1153847.6269231-.3384616.8384616-.4538462.1692308-.5461538.3423077-1.0884615.5230769-1.6307692.9653846-.7153846 1.0615385-1.9038462 1.1461539-3.0115385-2.0846154.2461539-3.9846154-.7384615-6.0153847-.95-1.3730769-.1153846-2.45769227-1.0653846-3.75384612-1.4346154-.33076923-.3038461-.66538461-.6115384-.99615384-.9153846-.24230769-.0576923-.73076923-.1692308-.97692308-.2269231-.11153846-.176923-.33461538-.526923-.44615384-.7-.23461539-.0153846-.70384616-.0423077-.93846154-.0576923-.01153846-.2923077-.03461539-.8807692-.05-1.1730769-.20384616.0230769-.61923077.0730769-.82692308.1-.00384615-.2884615-.00769231-.8692308-.01153846-1.1576923-.38076923-.3076923-.76153846-.6076923-1.15384616-.9-.01923076-.0846154-.06538461-.25-.08461538-.3346154-.09615385-.5-.23461538-.9884615-.40769231-1.4692308-.15769231.0346154-.46923077.1076923-.62307692.1461539-.01153846-.2615385-.03461539-.7807692-.04615385-1.0423077-.01923077-1.1884615-.34230769-2.3461539-.9576923-3.3653846l-.36538462 1.1076923v-7.8269231c.23076923-.1538461.69615385-.4615385.92692308-.6153846.13846154-.9730769.28846154-1.9461539.47692307-2.9115385.29615385-.4115384.5923077-.8307692.78846154-1.3038461.10384616-.4576923.2-.9153846.29230769-1.3730769.1923077 0 .57307693 0 .76538462-.0038462.86153846-2.4769231 3.45384615-3.6269231 5.28461538-5.29230769 1.04615385-.23461539 2.08076922-.58846154 2.90769232-1.29230769 1.3153846-.14615385 2.7730769.13076923 3.9153846-.68461539.8-.53076923 1.7615385-.6 2.6884615-.68076923.3115385-1.07692308 1.3692308-1.08461538 2.3038462-1.18461538zm-7.6346154 9.16923078c-.3076923.0576923-.9230769.1653846-1.2307692.2192308-.2115385.0038461-.6346154.0076923-.85.0115384.1038461.9423077-.80384617.8615385-1.46538463.9846154-.02307692.2538462-.06538462.7692308-.08846154 1.0230769-.26538461.0230769-.8.0653846-1.06923077.0846154-.03846154.4807692-.08076923.9576923-.12307692 1.4384615-.17307692 0-.52307692 0-.69615385 0-.24230769.9269231-.43846154 1.8615385-.60384615 2.8038462-1.35384616 1.3538462-.73846154 3.5192308-.62692308 5.2269231.25769231.3076923.51538462.6153846.77307692.9230769.03846154.6807692.07692308 1.3615385.11538462 2.0423077.34230769.1538461.68461538.3 1.03076923.45.2.6615385.35 1.3346154.54230769 1.9961538.16923077-.0538461.50384616-.1692307.67307693-.2230769l.31538461.1423077c.03461539.2692308.10384616.8038462.13846154 1.0730769.7346154.2153846 1.4807692.3884616 2.2153846.6038462-.0038461.1576923-.0115384.4692308-.0153846.6269231 2.4961538.5153846 5.1538462.7 7.6307692-.0076923.0076923-.173077.023077-.523077.0346154-.6961539.2846154-.0153846.8576923-.0384615 1.1423077-.0538461.6461539-.6692308 1.3307692-1.3307693 2.2307692-1.6384616.2038462-.5884615.3923077-1.1807692.5807693-1.7730769.2307692-.0269231.6884615-.0769231.9153846-.1038462.0346154-.4615384.0730769-.9230769.1115384-1.3846153.15-.0653847.4461539-.1923077.5961539-.2538462.7153846-2.3884615.5038461-4.9038462.4384615-7.3576923-.2346154-.0307692-.7115384-.0884615-.95-.1153846-.226923-.8461539.023077-2.3730769-1.1961538-2.4653846-.0538462-.4269231-.1038462-.8576923-.1538462-1.2846154-.2576923-.0230769-.7730769-.0653846-1.0307692-.0846154-.0192308-.2615385-.0576923-.7807692-.0769231-1.0423077-.2692307-.0192308-.8076923-.0615385-1.0730769-.0807692.1769231-.9269231-.6230769-.873077-1.2538462-.9-.3192307-.0384616-.9615384-.123077-1.2807692-.1615385-.2884615-.3153846-.5884615-.6115385-.9038461-.8923077-.5846154-.0807692-1.1692308-.1615384-1.75-.2461538-1.1153847.0923077-2.3423077.1-3.0461539 1.1153846z" fill-rule="nonzero"/><path d="m69.8115385 12.5461538c2.4884615-.526923 5.0115384-.0192307 7.5230769-.1346153 3.2-.1538462 6.4.0884615 9.6-.0653847 2.5423077-.1961538 5.0846154.1538462 7.6307692.0615385.0846154 1.8346154.0769231 3.6692308.1846154 5.5038462-1.3.5153846-2.6576923-.0423077-3.9692308.2307692-.7730769.0461538-1.5576923.0692308-2.3038461-.1615385-.5153846.023077-1.0269231.0807693-1.5346154.1692308-.6423077-.0307692-1.3384615.1076923-1.9346154-.1807692-1.0115385.1576923-2.0538461.3230769-3.0615385.05-.3 0-.9-.0038462-1.2-.0038462-1.276923.3884616-2.5807692-.2307692-3.8730769.0384616-1.0038461.1692307-2.0230769.0923076-3.0230769-.0653847-1.1384615.3-2.3230769.1653847-3.4846154.1846154-.6961538-1.8-.5807692-3.7384615-.5538461-5.6269231z"/><path d="m127.9 17.9461538c.065385-1.8961538-.080769-3.8.103846-5.6923076 2.576923.2461538 5.173077.1384615 7.757692.0461538 5.857693.1692308 11.715385-.05 17.573077.1846154-.030769 1.8038461-.046153 3.6076923-.046153 5.4115384-2.376924.1538462-4.757693.0192308-7.134616.1423077-2.053846.2653847-4.115384-.2384615-6.173077 0-2.557692.3269231-5.111538-.0692307-7.669231-.0346153-1.473076.0615384-2.942307.0192307-4.411538-.0576924z"/><path d="m72.5038462 25.15c-.0807693-1.8730769.1538461-3.7653846-.1307693-5.6269231 2.6269231.6961539 5.3461539-.1769231 8.0076923.1692308 2.1769231.2307692 4.3615385-.1769231 6.5423077.0346154 1.7538462.1923077 3.5038462-.3615385 5.2538462-.0423077.2807692 1.3692308.4076923 2.7692308.3230769 4.1653846.0653846.5730769-.1769231 1.4307692-.9230769 1.3115385-6.3576923.0230769-12.7153846.026923-19.0730769-.0115385z"/><path d="m130.576923 19.7730769c2.373077-.0653846 4.746154.0423077 7.115385-.0692307 1.011538-.4692308 2.080769.2346153 3.11923-.0076924.634616-.126923 1.28077-.2423076 1.907693.0153847.5.0038461 1.003846.0076923 1.507692.0076923.869231-.423077 1.796154.0423077 2.7 0 1.226923-.1846154 2.457692.0884615 3.692308.0576923.615384 1.6115384.242307 3.3653846.376923 5.0461538-1.296154.5269231-2.707692.3269231-4.069231.3538462-5.446154-.0038462-10.892308-.0038462-16.342308 0-.088461-1.8-.065384-3.6038462-.007692-5.4038462z"/><path d="m72.5153846 27.1538462c6.4807692 0 12.9653846-.0269231 19.45.0153846.3961539.2230769.8269231.3576923 1.2884616.4-.0384616 1.7615384-.0384616 3.5230769 0 5.2846154-2.8769231.4038461-5.7692308.076923-8.6461539.2730769-1.1346154-.3269231-2.2961538.0807692-3.4461538.05-2.8961539-.0384616-5.8038462.1384615-8.6807693-.2769231.0346154-1.9153846 0-3.8307692.0346154-5.7461538z"/><path d="m130.538462 27.4346154c6.81923-.0153846 13.634615-.0230769 20.453846.0076923.057692 1.8653846.084615 3.7346154-.026923 5.5961538-1.211539-.2230769-2.45-.0961538-3.669231-.1115384-5.584616 0-11.173077.0115384-16.753846-.0076923-.015385-1.8269231-.015385-3.6576923-.003846-5.4846154z"/><path d="m97.9230769 28.5961538c.9538462-.026923 1.9115385-.0346153 2.8692311-.0846153.746154-.1846154 1.511538-.1961539 2.257692.0076923 1.8-.0076923 3.634615.2192307 5.411538-.1423077.896154.1192307 1.8.1846154 2.703847.1615384 1.280769-.4346153 2.596153.15 3.9-.0384615 1.703846-.1961538 3.407692.1730769 5.11923.1038462.038462 2.4346153-1.388461 4.4730769-1.61923 6.8384615-.765385.8576923-1.107693 1.9384615-1.169231 3.0730769-.307692.2230769-.615385.4461539-.919231.6692308-.053846.5692308-.103846 1.1346154-.15 1.7038461-.326923.1884616-.653846.3807693-.973077.5692308-.092308.5-.184615 1-.273077 1.5-.853846 1.1192308-2.192307 2.1346154-2.238461 3.6423077.511538.75 1.146154 1.7153846 2.173077 1.6653846l.526923.0538462c.011538.2576923.030769.776923.042307 1.0346154.173077-.123077.523077-.3653847.696154-.4846154l.088462.5653846c.307692-.0192308.926923-.0538462 1.238461-.0692308l-.238461.5153846.611538-.0807692-.2.4884615c.557693-.15 1.042308-.0538461 1.45.2846154l.515385-.2461538c.488461 2.2307692.742308 4.6.042308 6.8153846-.119231-.0307692-.361539-.0961539-.48077-.1269231-.526923-1.0307692-1.723077-.9807692-2.707692-1.0961538-.088462-.1692308-.261538-.5076923-.35-.673077-.611538-.1730769-1.219231-.3461538-1.823077-.5230769-.615385-.5192307-1.230769-1.1923077-2.115385-1.0807692l-.565384-.0346154c.030769-.1923077.096154-.5769231.126923-.7692308-.311539-.0115384-.934615-.0307692-1.246154-.0423077-.019231-.2961538-.05-.8923076-.069231-1.1884615-.184615.0615385-.553846.1923077-.738461.2576923l-.034616-.5692308c-.765384.0153847-1.523077.0461539-2.284615.073077l.030769.4038461-.442307-.0384615c.030769.2192308.092307.6538461.11923.8730769-.211538-.0346154-.638461-.1038461-.85-.1384615l-.007692.3153846-.346154.2038461c-.042308.173077-.123077.5115385-.161538.6807693-.569231-.0115385-1.138462.0307692-1.703846.0692307-.061539.2153847-.188462.6461539-.25.8615385-1.165385.5153846-2.269231 1.2038462-3.526924 1.4807692-.7999995.1423077-1.4076918.7153846-2.0346149 1.1807693-.3192308-1.3769231-.4384616-2.7846154-.3961539-4.1923077.973077-.7307693 1.9-1.5269231 2.8384618-2.3038462 1.380769-.9730769 2.623077-2.2192308 3.315384-3.7807692.15-.1076923.457693-.3307692.611539-.4423077-.896154-1.4730769-1.738462-2.9923077-2.85-4.3192308-.196154-.6384615-.380769-1.2807692-.565385-1.9230769-.153846-.0884615-.469231-.2653846-.626923-.3538462-.111538-1.0461538-.419231-2.0653846-1.1307691-2.8615384-.1384615-.9-.2730769-1.7961539-.4115384-2.6961539 1.2999995-.3153846 2.6423075-.3 3.9653845-.2115384.565385.1346154 1.138462.2461538 1.719231.3192307.007692.6115385.019231 1.223077.026923 1.8346154l.330769.0769231c.011539.5153846.023077 1.0346154.034616 1.5538462.196153-.05.596153-.1461539.796153-.1961539-.007692.3115385-.015384.9307692-.023077 1.2423077l.442308.0384615c-.042308.2115385-.126923.6384616-.169231.85.223077-.0230769.669231-.0692307.892308-.0884615 0 .2884615.003846.8730769.003846 1.1615385l.411539-.0461539-.073077.4192308.826923.0038461-.030769-.4384615.523077.0769231c-.061539-.1807692-.188462-.55-.25-.7346154.265384-.0346154.8-.1 1.06923-.1346154.13077-.4423077.207693-.9.311539-1.3538461.215384-.0538462.638461-.1653847.85-.2192308-.046154-2.0346154 1.769231-3.5423077 1.311538-5.6461539-4.596154-.0884615-9.192307-.0384615-13.7884613-.026923-.3038462-1.4038462-.4038462-2.8384616-.3692308-4.273077z"/><path d="m69.7961538 35.5884615c.6884616-.1923077 1.3846154-.3961538 2.1076924-.3884615 7.5230769.0192308 15.0461538.0115385 22.5692307.0076923.1576923 4.8076923-.1038461 9.6192308.1653846 14.4230769-.0538461 2.5038462-.3346153 5.0269231.0961539 7.5153846-3.3615385.4-6.7576923.05-10.1076923.223077-.4769231-.0961539-.9538462-.173077-1.4346154-.2307693.0115385-1.55-.0038462-3.1.0346154-4.65 1.5807692.0192308 3.1653846 0 4.75.0192308-.0461539-.2115385-.1307693-.6384615-.1769231-.85.2192308.0461539.6576923.1307692.8769231.1730769-.0076923-3.6038461.0730769-7.2076923-.05-10.8115384.0038461-.2.0153846-.6.0192307-.8-4.0961538-.073077-8.1923076-.073077-12.2884615 0 0 .2.0038462.5923077.0038462.7923077-.1807693 3.8846153-.0038462 7.776923-.0923077 11.6653846-.1538462.8884615.276923 1.6615384.8 2.3423077.0615384.4384615.126923.8807692.1884615 1.3192307.2807692.0038462.8423077.0076923 1.1230769.0115385-.0192307.1923077-.0538461.5730769-.0730769.7615385-1.9884615.2923077-4.0076923.2423077-6 .1461538-.6.2730769-1.2730769.0115385-1.8846154-.0653846-.1576923-.0307692-.4653846-.0961539-.6192307-.1269231.0153846-7.1576923.0307692-14.3192308-.0076924-21.4769231z"/><path d="m128.246154 35.2076923c7.5 0 15.003846.0115385 22.507692-.0076923.873077-.0269231 1.715385.2115385 2.546154.4576923-.092308.5576923-.196154 1.1115385-.307692 1.6615385-.092308 1.5346154-.073077 3.0692307-.011539 4.6038461.646154 1.3615385-.361538 2.8230769.146154 4.2192308-.303846 1.9076923-.307692 3.8846154 0 5.7923077-.253846.8846154.173077 1.8038461-.134615 2.6769231-.05.826923-.057693 1.6576923-.057693 2.4884615-3.711538.0846154-7.426923.1192308-11.134615-.0115385 0-1.2423077 0-2.4807692-.019231-3.7192307.115385-.1923077.338462-.573077.453846-.7653846 1.4-.0076924 2.807693-.0076924 4.211539.0153846.176923-.7307693.307692-1.473077.292308-2.223077-.023077-2.7-.003847-5.4038461-.007693-8.1038461.011539-.7346154-.2-1.4423077-.4-2.1423077-3.530769.0576923-7.061538 0-10.588461.0269231-.526923-.1115385-.873077.2269231-1.05.6807692-.515385.1192308-.746154.5230769-.669231 1.0384615 0 3.523077-.030769 7.05.026923 10.5769231 1.015385.8115385.769231 2.1615385.888462 3.3115385.488461.3692308 1.41923.4538461 1.184615 1.35-2.642308.05-5.280769.0269231-7.923077.0153846.015385-7.3115385-.069231-14.6307692.046154-21.9423077z"/></g></svg>