<svg height="90" viewBox="0 0 180 90" width="180" xmlns="http://www.w3.org/2000/svg"><g fill="none" fill-rule="evenodd"><path d="m.09736148 29.916095c.08311345-10.3868074 2.95646438-20.71424803 8.16174142-29.69525067 12.4456464-.00237467 24.8627968 3.92058047 34.9955145 11.15620057 7.1620053 5.0058047 13.1319261 11.6430079 17.546438 19.173087-3.8327177 6.5350924-8.7886543 12.4408971-14.7514512 17.1332454-10.6147757 8.553562-24.2073878 13.2649077-37.83087069 13.2601583-5.40237467-9.3751979-8.25197889-20.2060686-8.12137203-31.0274406zm14.87968342-13.269657c-1.6313985.7313984-2.7261214 2.4649076-2.7071241 4.2530343-.014248 6.2477573-.0189973 12.4955145.0023747 18.7432718-.0332454 2.4530343 2.1395779 4.6377308 4.5926122 4.6187335 4.8656992.0332454 9.733773.0094987 14.5994722.0189973.0118734-2.0208443-.014248-4.0416886.0142481-6.0625329-4.3765172-.0617415-8.7577837.0023746-13.1366755-.0189974-.0047493-5.3073879-.0023747-10.6124011 0-15.9174143 5.3097625-.0047493 10.6218997-.0023746 15.9316623.0023747.0047493 1.0899736 0 2.1823219.0023746 3.2746702 2.0327177.0023747 4.0654354 0 6.0981531.0023747-.014248-1.7216359.0664907-3.4456465-.0451188-5.1649077-.1733509-2.2559367-2.2179419-4.1604221-4.4786279-4.1841688-6.0126649-.0403694-12.0253298 0-18.0379947-.0189974-.9593668-.0094987-1.9567283.021372-2.8353562.453562zm8.1166226 11.7166227c2.0564644 2.0113456 4.0701847 4.0630607 6.1124011 6.0886543 1.6883905.0047494 3.3791557 0 5.0675462.0047494.0094987 1.6955145-.0118734 3.391029.0118733 5.0841688 2.0422164 2.016095 4.0583114 4.0559367 6.0934037 6.076781-.0166227-5.7585751.0427441-11.5171503-.028496-17.2733509-5.7514512.0403694-11.5052771.014248-17.2567283.0189974z" fill="#3e85e0" fill-rule="nonzero" transform="translate(0 14)"/><g fill="#111a34" transform="translate(76.701847 23.261214)"><path d="m38.7 7.46833773c2.3604222-1.8878628 4.1889182-4.4121372 5.1292876-7.29498681.6601583.11398417 1.3226913.23509235 1.9733509.40369394-.2802111.67203166-.5295514 1.35831134-.7741425 2.04221635 2.3532982.00712401 4.7065963 0 7.0598945.00237467-.0189974.53667547.0807388 1.09709763-.0759894 1.6171504-.9356201 2.32717678-2.4102903 4.40501319-4.1627969 6.18839052 2.0065963 1.6218997 4.3551451 2.7712401 6.8010554 3.5643799-.3823219.5509235-.7646438 1.1042217-1.1327176 1.6646438-2.6097626-.8050132-5.0604222-2.1277045-7.1287599-3.9158311-2.0920845 1.6670185-4.4406333 2.9873351-6.8960423 4.0440633-.4084432-.5485488-.8145118-1.0994723-1.2205804-1.6480211 2.3841688-.9831134 4.6804749-2.2060686 6.7203166-3.7947229-.9759895-1.12084437-1.8474934-2.32480216-2.5883905-3.61662274-.7741425.84300792-1.6005277 1.63139842-2.476781 2.36517151-.4131926-.53905013-.8216359-1.08047494-1.2277045-1.62189974zm4.8680739-2.31292876c.7955145 1.42955145 1.7382586 2.75936676 2.8496042 3.96094987 1.3891821-1.37255937 2.5955145-2.93509235 3.5026385-4.66860158-1.9496042-.00949868-3.8968338.00949868-5.8440633-.01187335-.1709763.23984168-.3419525.47968337-.5081794.71952506z" fill-rule="nonzero"/><path d="m71.4680739.37044855c.6934037-.11635884 1.389182-.23034301 2.0873351-.33957784.2897097.75277045.5627968 1.51266491.8216359 2.27730871h7.919525v5.26939314c-.698153.00712401-1.3939314.00474934-2.0897097-.01424802.0023746.16622691.0094986.50343008.0118733.66965699-1.9187335.00712401-3.837467 0-5.7562005.00474934-.0047494.69102902-.0047494 1.38443272 0 2.07546173 2.2108179.0047494 4.4240105 0 6.6372031.0047494.0023747 3.4171503 0 6.8366754 0 10.2538258-5.0722955.0023747-10.144591.0023747-15.2168865 0 0-3.4171504-.0023747-6.8366755 0-10.2538258 2.2131926-.0047494 4.4263852 0 6.6372032-.0047494.0023746-.69102901.0023746-1.38443271 0-2.07546173-1.9092349-.00474934-3.816095 0-5.7253298-.00237467.0023746-.17335092.0023746-.5176781.0023746-.68865435-.6862797.00474934-1.36781.00474934-2.051715.00474934-.0047494-1.74775726-.0047494-3.49313984 0-5.2408971 2.505277-.00474934 5.0105541 0 7.5182058-.00474934-.2659631-.64353562-.5295515-1.28944591-.7955145-1.9353562zm-4.701847 3.82084433c-.0023747.76226913-.0023747 1.52691292-.0023747 2.29155672 4.5023747-.01424802 9.0071241-.04036939 13.5094987.01187336 0-.76701847 0-1.53641161-.0023746-2.30343008-4.5023747-.00237467-9.0023747-.00474934-13.5047494 0zm1.1137203 7.89340372c.0023747.8501319-.0332454 1.7026385.0332454 2.5527704 1.5364116-.042744 3.0728232-.0047493 4.6092348-.021372 0-.8453826 0-1.6883905-.0023746-2.5313984-1.5459103-.0023747-3.0941953-.0047494-4.6401056 0zm6.5825858 0c-.0047494.8430079-.0047494 1.6860158-.0023747 2.5313984 1.541161.0094987 3.0823219-.007124 4.6234829.0094987.0332453-.8477573.021372-1.6931399.0189973-2.5408971-1.5482849-.0023747-3.0941952-.0023747-4.6401055 0zm-6.5825858 4.1889182c-.0047493.8430079-.0047493 1.6883905 0 2.5313984 1.5459103.0023747 3.0941953.0023747 4.6401056 0 .0023746-.8430079.0023746-1.6883905 0-2.5313984-1.5459103-.0023747-3.0941953-.0047494-4.6401056 0zm6.5825858 0c-.0047494.8430079-.0047494 1.6883905 0 2.5313984 1.5459103.0023747 3.0918206.0047493 4.6401055 0 .0023747-.8430079.0023747-1.6883905 0-2.5313984-1.5482849-.0047494-3.0941952-.0023747-4.6401055 0z" fill-rule="nonzero"/><path d="m58.7849604.65778364c1.8023747 1.29182058 3.5358839 2.69525066 5.0722955 4.30052771-.4844327.48443271-.9664907.96886543-1.4509234 1.45329815-1.526913-1.63377309-3.2699209-3.04195251-5.0699209-4.35989446.4796834-.46543536.9641161-.93087071 1.4485488-1.3939314z"/><path d="m.63166227 2.16569921c.4701847-.47730871.94274406-.95224275 1.42242744-1.42242744 1.93773087 1.29894459 3.80184697 2.71662269 5.49498681 4.32902374-.48205805.48443272-.9641161.96886544-1.45092349 1.45092349-1.64089709-1.66701847-3.53113456-3.05620053-5.46649076-4.35751979z"/><path d="m9.57229551 1.42717678c5.20527709-.00474934 10.41055409-.00237467 15.61583109 0 .0023747.66253298.0023747 1.32744063 0 1.98997362-4.5166226.00237467-9.0332453.00474934-13.549868 0-.0261214 6.6300792-.007124 13.2601583-.0094987 19.8902375 4.6044855.0047493 9.2113456 0 13.8158311.0023746.0023747.6934037.0023747 1.3868074 0 2.0778364-5.2907651.0023747-10.5815303.0047494-15.86992082 0 0-7.9860158 0-15.97203162-.00237467-23.96042212z"/><path d="m29.6667546 1.3701847c2.923219-.00474934 5.8488127-.00237467 8.7744063 0 .0023747 2.98021108 0 5.96279683 0 8.9430079-.9474934.0023747-1.8949868.0023747-2.8424802.0023747-.014248 1.5292876-.007124 3.0585752-.0047493 4.5878628.9854881.0023746 1.9733509-.0023747 2.958839.0023746.0023747.6435357.0023747 1.289446 0 1.9353562-.9854881 0-1.9733509-.0023746-2.958839.0023747-.0023747 1.76438-.0047493 3.5287599 0 5.2931399 1.2134565-.3775726 2.4174142-.7907652 3.614248-1.2182058.0023747.683905.0023747 1.3654353 0 2.0493403-3.4005277 1.2467019-6.8865435 2.253562-10.4153034 3.0656992-.1781003-.6625329-.3633245-1.3250659-.5509235-1.9828496.5010554-.1139841 1.0021108-.2279683 1.5055409-.3419525.0047493-3.4480211-.0023747-6.8960422.0023747-10.3440633.6055409 0 1.2134564-.0023747 1.821372 0 .007124 3.2936675-.0023747 6.5897098.0047493 9.885752.7005278-.1781003 1.4010555-.3585752 2.1039578-.5366755.0047494-4.1343008.0047494-8.2662269 0-12.398153-1.339314-.0023747-2.6762533.0023747-4.0131926-.0023747-.0023747-2.98021107-.0047493-5.96279682 0-8.9430079zm1.994723 7.0646438c1.6029023 0 3.2081794.00237467 4.8110818 0 .0023746-1.7287599.0047493-3.45751979 0-5.18627969-1.6052771 0-3.2081795.00237467-4.8110818 0-.0047494 1.7287599-.0047494 3.45751979 0 5.18627969z" fill-rule="nonzero"/><path d="m56.8519789 8.8646438c.482058-.48443272.9688654-.9641161 1.4722955-1.42480211 1.6765172 1.31794195 3.3007916 2.71424801 4.7350924 4.29815301-.4796834.4891821-.9641161.9736148-1.4532982 1.4532982-1.3986807-1.6337731-3.0562005-3.0158312-4.7540897-4.3266491z"/><path d="m.03087071 9.14485488c.47968338-.46543535.9641161-.92849604 1.45092349-1.39155673 1.83562005 1.23245383 3.58100263 2.60026385 5.18153034 4.12717675-.48918206.4986808-.98311346.9926122-1.4817942 1.4841689-1.53641161-1.6147757-3.32216359-2.9564644-5.15065963-4.21978892z"/><path d="m57.3364116 25.1335092c1.7667546-3.182058 3.1868074-6.5327176 4.5854881-9.8857519.5984169.2327176 1.1968338.4701847 1.792876.712401-1.353562 3.4005277-2.8424802 6.739314-4.5047493 9.9997362-.6245383-.2754618-1.2490765-.5509235-1.8736148-.8263853z"/><path d="m40.9203166 15.7036939c3.7021108-.0047493 7.4065963-.0023746 11.1110818-.0023746.0023747 3.5240105.0023747 7.0456464 0 10.569657-.655409.0023746-1.3084433.0023746-1.9614776 0-.0047493-.417942-.0047493-.8335093-.0047493-1.2514512-2.3936675.0023746-4.7849604-.0047494-7.178628.0047493-.0023746.4131926-.0023746.8311346 0 1.2467019-.6577836.0023746-1.3108179.0023746-1.9662269.0023746-.0023746-3.5240105 0-7.0480211 0-10.569657zm1.9686016 1.8522428c-.0047493 1.8593667-.0023747 3.7211082 0 5.5804749 2.3912929.0023747 4.7849604.0023747 7.178628 0 0-1.8593667.0023746-3.7211082 0-5.5804749-2.3936676-.0047494-4.7873351-.0023747-7.178628 0z" fill-rule="nonzero"/><path d="m4.87044855 16.1311346c.63878628.2422163 1.27282322.489182 1.90923483.7408971-1.29182058 3.189182-2.71187335 6.3189973-4.30290238 9.3704485-.69102902-.3110818-1.38443272-.6245382-2.07546174-.9332454 1.60527705-3.0015831 3.22717678-6.0007915 4.46912929-9.1781002z"/><path d="m63.6079156 24.7630607c2.4174142-.878628 4.7754617-1.9567282 6.9197889-3.391029.4796834.4345646.9641161.8667546 1.4485488 1.2989446-2.1680739 1.591029-4.6187335 2.7474934-7.1192612 3.7139841-.4203166-.5390501-.8382586-1.0781002-1.2490765-1.6218997z"/><path d="m76.3931398 21.4029024c2.3081795.907124 4.5284961 2.0042216 6.6419525 3.3031662-.3775725.5817942-.7575197 1.1588391-1.1398416 1.7358839-2.0374671-1.4129288-4.2150396-2.6216359-6.5208444-3.5335092.3372032-.5010554.6791557-1.0021108 1.0187335-1.5055409z"/></g><g fill="#fff" transform="translate(12.110818 30.147757)"><path d="m2.86622691.49868074c.87862797-.43218997 1.87598945-.46306069 2.8353562-.45356201 6.01266489.01899737 12.02532979-.02137203 18.03799469.01899737 2.2606861.0237467 4.3052771 1.92823218 4.478628 4.18416886.1116095 1.71926121.0308707 3.44327177.0451187 5.16490765-2.0327176-.00237467-4.0654353 0-6.098153-.00237467-.0023747-1.09234828.0023747-2.18469657-.0023747-3.27467018-5.3097625-.00474934-10.6218997-.00712401-15.93166224-.00237467-.00237467 5.30501321-.00474934 10.61002641 0 15.91741421 4.37889184.0213721 8.76015834-.042744 13.13667544.0189974-.028496 2.0208443-.0023746 4.0416887-.014248 6.062533-4.8656992-.0094987-9.73377308.014248-14.59947229-.0189974-2.4530343.0189974-4.62585752-2.1656992-4.59261214-4.6187335-.02137203-6.2477572-.01662269-12.4955145-.00237467-18.74327176-.01899736-1.78812665 1.0757256-3.52163588 2.70712401-4.2530343z"/><path d="m10.9828496 12.2153034c5.7514512-.0047493 11.505277.0213721 17.2567282-.0189973.0712401 5.7562005.0118734 11.5147757.0284961 17.2733509-2.0350924-2.0208443-4.0511874-4.060686-6.0934037-6.076781-.0237467-1.6931399-.0023747-3.3886544-.0118734-5.0841689-1.6883905-.0047493-3.3791556 0-5.0675461-.0047493-2.0422164-2.0255937-4.0559367-4.0773087-6.1124011-6.0886544z"/></g><g fill="#666f83" transform="translate(75.751979 56.98153)"><path d="m68.3050132.07836412c.3775726-.00237467.7575198-.00237467 1.1398417 0-.0023747 3.45514511 0 6.9126649-.0023747 10.37018468-.3585752 0-.7147757 0-1.0686016 0 .0023747-.3989446.007124-.79788917.0189974-1.19445909-1.0496042 1.91160949-4.1081794 1.78812669-5.1672823-.04274406-1.0686016-1.80474934-.8810027-4.55699209.9189973-5.83931399 1.3749341-.94036939 3.4290238-.46306068 4.1699209 1.05672823-.0213721-1.45092348-.0047494-2.90184696-.0094987-4.35039577zm-2.9113457 3.84221635c-.928496.20897098-1.4414248 1.1469657-1.5649076 2.023219-.1472296 1.02585752-.0664908 2.16569921.5604222 3.03007916.6102902.75514512 1.7572559.90712401 2.6168865.53192612.7480211-.3348285 1.1137203-1.15646438 1.2443272-1.92110818.1757256-1.08759894.0261214-2.30817942-.7147757-3.16543536-.5343008-.58416886-1.4081795-.70290237-2.1419526-.49868074z" fill-rule="nonzero"/><path d="m78.2976253.07836412c.3775726 0 .7575198-.00237467 1.1422164 0-.007124 1.40105541.007124 2.80211081-.0094987 4.20316622.7693931-1.41292876 2.7783641-1.83324538 4.06781-.89762533.6934037.58416887.9261214 1.51978892.9522428 2.39366755.0403694 1.55540897.0023746 3.11319261.0189973 4.66860154-.3823219 0-.7646438 0-1.1398416.0023747-.0308708-1.61952505.056992-3.24379946-.0474935-4.86094986-.0261213-.86200527-.6862796-1.66701847-1.5720316-1.70976253-1.2134565-.21372032-2.210818.94511874-2.2345647 2.08733509-.0854881 1.48891821-.0189973 2.98258576-.0332453 4.4738786-.3823219.0047494-.7646438.007124-1.1445911.0118734 0-3.45751981.0023747-6.91503959 0-10.37255938z"/><path d="m1.49604222 1.52453826c1.35593667-1.56728232 3.76622691-1.77862797 5.59947229-1.02585752 1.23957784.50817942 1.96385224 1.76437995 2.18469657 3.03720317-.39182058.00237467-.78364116.00237467-1.17308707.00237467-.223219-.71477573-.54854881-1.45092349-1.21345646-1.86174143-1.50791557-.94274406-3.80422164-.69340369-4.81583114.86437995-1.05435356 1.65039578-1.06860158 3.98469657-.02612137 5.64459103 1.37255937 1.87361477 4.21978892 1.71926121 6.0530343.64591029-.00474934-.86675462-.00237467-1.73350924-.00474934-2.60026386-1.06147757 0-2.12532982.00237467-3.18680739-.00237467-.00237467-.33482849-.00237467-.67203166 0-1.00923482 1.44617414-.00237467 2.89472296 0 4.34327177 0-.00474934 1.39630606.01187335 2.79261213-.00949868 4.1889182-1.63139842 1.14221633-3.76622691 1.48654353-5.69208443 1.03298153-1.66939314-.3965699-2.93034301-1.87836411-3.26042217-3.53350923-.38469657-1.8403694-.11635884-3.9585752 1.20158312-5.38337731z"/><path d="m36.8833773.27546174c1.6503958.02849604 3.3079156-.0712401 4.9559367.06174143 1.1469657.08073878 2.4102902.7480211 2.6406332 1.97097625.3894459 1.33693931-.3704485 2.89234828-1.7738786 3.20343008.6126649.18997361 1.2395778.5414248 1.4604222 1.18258575.4179419 1.22532982.1211081 2.63588391.8643799 3.76147755-.4298153-.007124-.8548813-.0118733-1.2799472-.0094987-.5058048-1.00211078-.3585752-2.15382582-.6364116-3.21055405-.180475-.69340369-.8881267-1.09709762-1.5672823-1.12321899-1.1635884-.08311346-2.3319262-.01899737-3.4955146-.03562006v4.3717678c-.3918205-.0023747-.7812665-.0023747-1.1707124-.0023747.0023747-3.38865431 0-6.77968333.0023747-10.17071236zm1.1707124 1.0116095c-.0047493 1.2585752-.0023747 2.51477573-.0023747 3.77335092 1.087599-.01424802 2.1775726.03799473 3.2651715-.0237467.6744064-.03087071 1.4319262-.24934037 1.8023747-.86675462.5295515-.91424802.2659631-2.44591029-.8905013-2.71424802-1.36781-.31583113-2.7854881-.1116095-4.1746702-.16860158z" fill-rule="nonzero"/><path d="m20.0422164 4.33852243c.5461741-1.1707124 1.8973614-1.73588391 3.1226913-1.32506597.0047493.38707124.0094986.77414248.0189973 1.16121372-.6672823-.10923482-1.4176781-.27546174-2.0208443.12823219-.7029024.48918206-1.0686016 1.35831135-1.0923483 2.20131927-.0403694 1.31319261-.0023747 2.62875989-.014248 3.94432716-.3775726-.0023747-.7503958-.0023747-1.1255937 0 0-2.45540896 0-4.91081793.0023747-7.3662269h1.1255937c-.0047494.41794195-.0094987.8358839-.0166227 1.25620053z"/><path d="m48.801847 3.00158311c1.0686015-.23984169 2.2868074-.10686015 3.1559366.6055409 1.6052771 1.31081794 1.7976254 3.88496042.6910291 5.56860158-1.1612138 1.80237471-4.0796834 1.97572561-5.4688655.35620053-1.7810026-1.94722955-1.123219-5.85118733 1.6218998-6.53034301zm.230343.94986808c-1.757256.6292876-2.0208444 3.06569921-1.2443272 4.54274406.6292876 1.45567282 2.8899736 1.59815305 3.7781003.32532982.8073878-1.20158312.8097625-2.90422164.0023746-4.10580475-.5532981-.79076517-1.6456464-1.03773087-2.5361477-.76226913z" fill-rule="nonzero"/><path d="m56.5408971 3.11319261c1.1208443-.3182058 2.4459103-.36332454 3.4503958.30633246.698153.53192612.9522427 1.4414248.9783641 2.28205804.0427441 1.58153035.0047493 3.16543536.0166227 4.74696569-.3585752-.0023747-.7171504-.0023747-1.0709763-.0023747 0-.4060686.0023747-.81213716.0094987-1.21583109-.9878628 1.22770449-2.7997361 1.77625329-4.2649076 1.13034299-.9427441-.39419523-1.3606861-1.55303428-1.0424803-2.49340368.2303431-.80263852.9949869-1.30844327 1.757256-1.53878628 1.130343-.32532981 2.3200528-.23034301 3.4836411-.26596306-.0379947-.66015831-.042744-1.45567282-.6506596-1.87598944-1.0852243-.69815304-2.9730871-.41081795-3.3292876.99261213-.3870712-.00949868-.7717678-.02849604-1.151715-.05699208.2350923-.91662269.8786279-1.74538259 1.814248-2.00897098zm-.1021108 4.20079156c-.8240106.37519789-1.0709763 1.74063324-.194723 2.19656992 1.6480211.79313981 3.9704486-.68390501 3.614248-2.59313984-1.1398416.05461741-2.3604221-.1116095-3.419525.39656992z" fill-rule="nonzero"/><path d="m71.5416887 3.60949868c1.0757255-.82638522 2.6121372-.89525066 3.8469657-.41319261.8358839.30395778 1.2585752 1.16596306 1.4176781 1.98522427-.3799473-.00712401-.7527705-.01424802-1.1279684-.02612137-.2612137-1.53403694-2.6833773-1.77150396-3.4765171-.61029024-.2612138.43693932.0997361.95699209.5200527 1.12084433 1.1707124.55329815 2.5622692.57467019 3.6332454 1.35356201 1.116095.81451187.7646438 2.78073878-.4915567 3.27467023-1.1208443.460686-2.4364116.4583113-3.5667546.042744-.9451188-.3348285-1.4129288-1.31081793-1.5506597-2.24168864.3656993 0 .7313985.00237467 1.0994723.00474934.1543536.56279683.3751979 1.24195251 1.0044855 1.42955145.8121372.23509235 1.7525066.23509235 2.5147758-.17335092.6577836-.38944591.6126649-1.45567283-.0831135-1.78337731-1.1968338-.63641161-2.7047493-.55329815-3.7923483-1.42480211-.7741425-.61978892-.7171504-1.94010554.0522428-2.53852243z"/><path d="m88.6773087 3.00633245c1.0686016-.2469657 2.2915567-.11873351 3.1654354.59366755 1.6100263 1.3060686 1.807124 3.88021108.7076517 5.56860158-1.1540897 1.79762532-4.0559367 1.98522432-5.4546174.38707124-1.8023747-1.9353562-1.1588391-5.85118733 1.5815303-6.54934037zm.251715.94274407c-1.7620052.6292876-2.023219 3.07282322-1.2443271 4.54986807.6316622 1.45329815 2.8899736 1.59102901 3.7757256.32058048.8050132-1.19920845.8097625-2.89709763.007124-4.09868074-.5509235-.79313984-1.6456465-1.04722955-2.5385225-.77176781z" fill-rule="nonzero"/><path d="m10.8593668 3.07994723c.3775725.00237467.7598944.00712401 1.1422163.01187335.0189974 1.65514512-.0641161 3.31503958.0451187 4.96781003.0142481.82638522.6720317 1.56490765 1.519789 1.58153034 1.3013192.21846966 2.3437994-1.0591029 2.3556728-2.27255937.0237467-1.42717678-.0047494-2.85672823.007124-4.28627968h1.1398417c.0023747 2.45540897-.0023747 4.91081794 0 7.3662269-.3823219-.0023747-.7622691-.0023747-1.1422164 0 0-.3751979.0023747-.75039577.0094987-1.12559365-.6506596.91662265-1.7738786 1.52216355-2.9113456 1.25620055-1.073351-.0593668-1.9424802-.96649079-2.0588391-2.01609501-.2184696-1.81899737-.0617414-3.65699209-.1068601-5.48311346z"/><path d="m24.1575198 3.07757256c.3799472.00712401.7622691.01187335 1.144591.01899736.014248 1.65751979-.0664907 3.31978892.0451188 4.97493404.0166226.82163588.6720316 1.55065963 1.5126649 1.56728232 1.2941952.22559367 2.3390501-1.04248021 2.3580475-2.25118734.028496-1.43430079-.0023747-2.87097625.0094986-4.30527704h1.1398417c.0023747 2.45540897 0 4.91081794 0 7.3662269-.3823219-.0023747-.7622691-.0023747-1.1422163 0 0-.3751979.0023746-.75039577.007124-1.12559365-.648285.91424805-1.771504 1.52216355-2.908971 1.25620055-1.0686016-.0593668-1.9329815-.95936678-2.0564644-2.00184699-.223219-1.8237467-.0641161-3.66649077-.1092348-5.49973615z"/><path d="m93.8730871 3.0823219c.4155673 0 .8358839.00237467 1.2562005.00474934.5984169 1.98759894 1.1992084 3.97282322 1.8047493 5.96042216.5699209-1.98759894 1.1398417-3.97282322 1.7073879-5.96042216.3538259-.00237467.7100264-.00474934 1.0686016-.00474934.5770446 1.98522427 1.1350926 3.97757256 1.7145116 5.96279683.617415-1.99234828 1.187335-3.99894459 1.830871-5.98416886.330079.00949868.660158.01899736.992612.02612137v.68865435c-.745646 2.2226913-1.519789 4.43350924-2.258311 6.66094991-.365699.007124-.731399.0094986-1.094723.0166227-.572296-1.97810031-1.1374672-3.9538259-1.7097627-5.9295515-.5794196 1.97335093-1.1612137 3.94670185-1.7358839 5.9200528-.3585752.0023746-.7171504.0023746-1.0709763.0047493-.8358839-2.45303429-1.6741425-4.90844326-2.505277-7.3662269z"/></g></g></svg>