<svg height="90" viewBox="0 0 180 90" width="180" xmlns="http://www.w3.org/2000/svg"><g fill="none"><g fill="#2196f3" transform="translate(0 32.245902)"><path d="m0 0h3.68852459v3.68852459 17.95081971c-1.2295082 0-2.45901639 0-3.68852459 0z"/><path d="m21.6393443 0h3.6885246v21.6393443c-1.2295082 0-2.4590164 0-3.6885246 0 0-5.9827869 0-11.96803282 0-17.95081971 0-1.2295082 0-2.45901639 0-3.68852459z"/><path d="m10.8196721 3.68852459h3.6885246v17.95081971 3.6885246c-1.2295082 0-2.4590164 0-3.6885246 0 0-1.2295082 0-2.4590164 0-3.6885246 0-5.9827869 0-11.96803282 0-17.95081971z"/></g><g fill="#ff9800" transform="translate(0 32.245902)"><path d="m3.68852459 0h17.95081971v3.68852459c-2.3778689 0-4.7532787 0-7.1311476 0-1.2295082 0-2.4590164 0-3.6885246 0-2.37786882 0-4.75327866 0-7.13114751 0 0-1.2295082 0-2.45901639 0-3.68852459z"/><path d="m0 21.6393443h3.68852459 7.13114751v3.6885246c-3.60737702 0-7.21229505 0-10.8196721 0z"/><path d="m14.5081967 21.6393443h7.1311476 3.6885246v3.6885246c-3.6073771 0-7.2122951 0-10.8196722 0 0-1.2295082 0-2.4590164 0-3.6885246z"/></g><g fill="#4a4a4a" transform="translate(32.95082 32)"><path d="m.08606557.36393443c1.20245902-.00491804 2.40491804-.00245902 3.60737705-.00245902.00491804 8.40491803.00245902 16.80737709 0 25.21229509-1.20245901 0-2.40491803 0-3.60983606-.002459.00245901-8.402459-.00245902-16.80491806.00245901-25.20737707z"/><path d="m7.11393443.36147541c2.30163934.04180328 4.61065577-.09590164 6.90983607.08606557 2.0114754.14508197 3.9196721 1.43852459 4.6008197 3.36885246.8483606 2.32868853.8704918 4.97704918.0959016 7.33032786-.3811475 1.2934426-1.4163934 2.252459-2.5401639 2.9311476 1.2934426 3.8311475 2.5918032 7.662295 3.8852459 11.4934426-1.2713115.002459-2.545082.002459-3.8188525.002459-1.1237705-3.5852459-2.2426229-7.1754098-3.3639344-10.7631148-.7204918-.002459-1.4409836-.002459-2.1614754-.002459v10.7631148c-1.20245904.002459-2.40737707.002459-3.60983609.002459 0-8.404918-.00245902-16.80737706.00245902-25.21229509zm3.60737707 3.40081967c0 2.61885246-.002459 5.23770492 0 7.85901642 1.1950819-.0467213 2.4565574.1672131 3.5950819-.2877049 1.1163935-.5040984 1.3032787-1.86147545 1.345082-2.9483607-.0098361-1.29590164.154918-2.81803279-.754918-3.87295082-1.1090164-1.06967213-2.7983607-.66639344-4.1852459-.75z"/><path d="m22.2172131.36393443c1.202459-.00245902 2.404918-.00245902 3.6073771-.00245902.004918 8.40491803.002459 16.80737709 0 25.21229509-1.2024591 0-2.4073771 0-3.6098361-.002459.002459-8.402459-.002459-16.80491806.002459-25.20737707z"/><path d="m30.4918033 2.20327869c1.2196721-1.50737705 3.2434426-2.17131148 5.1393442-2.01393443 2.245082.12295082 4.3524591 1.63770492 5.1590164 3.74016394.4696722 1.1704918.3762295 2.45655737.3811476 3.6909836-1.2.00245902-2.397541 0-3.595082 0-.0196721-1.1704918-.0639344-2.53278688-.9959016-3.38360655-1.040164-.75491804-2.8254099-.65163935-3.5139345.53360655-.5262295 1.02049181-.5483606 2.21803279-.452459 3.33688525.0467213.71803279.4057377 1.39918033 1.0254099 1.78032787 1.9008196 1.11639348 4.2590164 1.40163938 5.9336065 2.91147538 1.5172131 1.4360656 1.5836066 3.6909836 1.5885246 5.6409836-.0295082 2.1565574-.4008197 4.6081968-2.1713115 6.0565574-2.7786885 2.1565574-7.4483606 1.5639344-9.302459-1.5344262-.8803279-1.3303279-.9540983-2.9655738-.9122951-4.5049181 1.2024591-.002459 2.4049181 0 3.6073771 0-.0221312 1.1434427-.004918 2.4909837.9614754 3.2803279.9295082.590164 2.2254098.5729508 3.1893443.0639344 1.0352459-.6614754.9713114-2.0434426 1.0155737-3.1229508-.0172131-1.2245901.1745902-2.8155737-1.047541-3.5606557-1.8442623-1.0721312-4.0721311-1.4409836-5.7270491-2.847541-1.2049181-1.0204918-1.637705-2.64836065-1.7655738-4.16311475-.1696721-2.04590164.1622951-4.26393443 1.4827869-5.90409836z"/><path d="m48.5852459.36393443c3.9860656-.00245902 7.9745902-.00491804 11.9631148 0 .002459 1.13114754.002459 2.26229508 0 3.39590164-1.3918033.00245901-2.7836066-.00245902-4.1754099 0-.002459 7.27131143 0 14.54262293-.002459 21.81147543-1.202459.002459-2.404918.002459-3.6098361.002459 0-7.2713115.0024591-14.542623 0-21.81147542-1.3918032-.00491803-2.7836065 0-4.1754098-.00245901-.002459-1.13360656-.002459-2.2647541 0-3.39590164z"/><path d="m66.2188525.30983607c2.2180327-.49672132 4.7114754.31721311 6.1180327 2.12459016.9368853 1.18032787 1.2737705 2.7147541 1.2565574 4.19508197.002459 4.2639344.0073771 8.5278688-.002459 12.7918033.0073771 1.4163934-.3147541 2.8795082-1.202459 4.0131147-1.5442623 2.0581968-4.4754098 2.847541-6.8803279 1.9967213-1.654918-.5434426-3.0590164-1.8491803-3.6270492-3.5090164-.4401639-1.1877049-.3885245-2.4786885-.3959016-3.7278688.0073771-3.8557377-.004918-7.7139344.004918-11.57213115.0049181-1.17049181.1721312-2.37295082.7524591-3.40819672.7942622-1.50983607 2.3213114-2.55983607 3.9762295-2.90409836zm.2557377 3.6909836c-.9565574.36639344-1.3942623 1.41885246-1.3622951 2.3852459-.0368853 4.18032783.002459 8.36311473-.0172131 12.54590163.0319672.7696721-.0172131 1.6377049.4770491 2.2844262.9147541 1.2786886 3.142623 1.2467214 3.9983607-.0836065.3885246-.5581967.3786885-1.2762295.4155738-1.9303279.002459-4.1065574-.002459-8.2106557.002459-12.3172131-.0245902-.79180328-.0221312-1.6795082-.5827869-2.30409836-.7008197-.81885246-1.9672131-.99590164-2.9311475-.58032787z"/><path d="m85.5565574.36147541h3.604918c.002459 8.40491803 0 16.80737709.002459 25.20983609-1.1336065.002459-2.2672131.002459-3.4008196.002459-1.8639345-5.0901639-3.6934427-10.195082-5.5770492-15.2778689-.0393443 5.092623-.0049181 10.1852459-.0172131 15.2778689-1.2049181 0-2.4098361 0-3.6122951-.002459.002459-8.402459-.002459-16.80491806.002459-25.20983609h3.4672131c1.8467213 5.09754098 3.6368853 10.21475409 5.5155738 15.30245899.0295082-5.1 0-10.19999997.0147541-15.30245899z"/><path d="m96.3959016.45737705c2.237705-.72540984 4.8836064-.06639344 6.4500004 1.70655738 1.352459 1.45081967 1.563934 3.5262295 1.492623 5.41967213-1.202459.00245901-2.404918.00245901-3.607377 0-.022132-1.13852459.120491-2.56967213-.9295087-3.32704918-1.3893442-1.0795082-3.8729508-.24590164-3.907377 1.63770492-.1352459 3.52131147-.0196721 7.052459-.0565574 10.5786885.0467213 1.3819672-.1377049 2.7885246.1672131 4.1508197.5237705 1.7336065 3.1327869 2.0459016 4.195082.6614754.489344-.5803279.489344-1.3795082.52377-2.097541.007378-1.4360656-.002459-2.8721311 0-4.3081967-.9565569 0-1.9106552 0-2.8672126-.002459-.002459-1.0598361-.002459-2.1221312.002459-3.1819672 2.1565576-.002459 4.3155736-.002459 6.4721316 0-.004918 2.6508196.019672 5.3040983-.009837 7.954918.002459 1.5860656-.528688 3.2040984-1.669672 4.3352459-1.583606 1.6032787-4.0844259 2.1836066-6.2237701 1.502459-1.6647541-.4893442-3.1057378-1.7385246-3.7352459-3.3663934-.4180328-1.0008197-.4598361-2.1-.4696722-3.1696722.002459-3.7745901.0049181-7.5491803 0-11.32377045 0-1.26639344-.0270492-2.57704918.4598361-3.77213115.6147541-1.63770491 2.0483606-2.90163934 3.7131147-3.39836065z"/><path d="m112.95.36393443c1.271311-.00245902 2.542623-.00245902 3.813934-.00245902.62705 5.37786885 1.187705 10.76311479 1.846722 16.13852459.981147-5.3754098 1.903278-10.76065574 2.867213-16.13852459.919672 0 1.839344 0 2.761475.00245902 1.003279 5.50081967 1.942623 11.01393447 2.982787 16.50983607.619672-5.5008197 1.168033-11.0090164 1.763115-16.50983607 1.271311-.00245902 2.542623-.00245902 3.816393-.00245902-1.239344 8.40491803-2.500819 16.80737709-3.742623 25.21229509-1.136065 0-2.269672 0-3.403278 0-.941804-5.4934426-1.831968-10.9967213-2.798361-16.48278689-.94918 5.48606559-1.836885 10.98688529-2.759016 16.47786889-1.136066.007377-2.272131.007377-3.405738 0-1.241803-8.4024591-2.50082-16.80245906-3.742623-25.20491807z"/><path d="m135.228689.36147541h3.604918c.004918 6.27786885 0 12.55573769.002459 18.83360659.034426.6983606.031967 1.4655737.457377 2.0606557.745082 1.1655738 2.680327 1.197541 3.489344.0860656.509016-.6885246.494262-1.5860656.518852-2.402459-.004918-6.1918033-.004918-12.3836066-.002459-18.57540987 1.202459-.00491804 2.404918-.00245902 3.609836 0-.017213 6.59262295.029509 13.19016397-.02459 19.78278687-.031967 3.0909836-2.891803 5.7811476-5.980328 5.6163935-3.061475-.0098361-5.736885-2.7909837-5.668032-5.845082-.024591-6.5188525-.007377-13.03770493-.007377-19.55655739z"/></g></g></svg>