<svg height="90" viewBox="0 0 180 90" width="180" xmlns="http://www.w3.org/2000/svg"><g fill="none" fill-rule="evenodd" transform="translate(0 19)"><path d="m20.4387097 13.0134194h20.5618064v2.4758709h-20.5618064zm-2.5060645 4.3478709h25.604129v2.5966452h-10.9300645v5.4046451c0 1.7512259-.9661936 2.6268388-2.8985807 2.6268388h-2.808l-.5736774-2.5966452c.8454194.1207742 1.6908387.1811613 2.475871.1811613.6038709 0 .936-.3019355.936-.8756129v-4.7403871h-11.8056774zm19.4144516 3.6534194c2.2947097 1.268129 4.3780645 2.808 6.3104516 4.6498064l-1.6002581 2.475871c-2.0229677-2.1135484-4.076129-3.7741936-6.1594838-4.9819355zm-13.8286452-.0603871 1.9625807 1.7512258c-1.6002581 1.9927742-3.5628388 3.7741935-5.9179355 5.283871l-1.7814194-2.2947097c2.2645161-1.3587097 4.1667097-2.9287742 5.7367742-4.7403871zm-5.5556129-18.38787099h5.0423226v-2.47587096h2.808v2.47587096h4.3176774v2.59664516h-4.3176774v.18116129c1.3285161.75483871 2.6872258 1.60025807 4.076129 2.56645162l-1.5398709 2.29470972c-.9963871-1.17754843-1.8418065-2.11354843-2.5362581-2.80800005v4.71019355h-2.808v-4.77058064c-1.1473548 1.872-2.5060645 3.44206454-4.0157419 4.71019354l-1.5700646-2.35509677c2.0531613-1.26812903 3.7138065-2.77780645 4.9819355-4.52903226h-4.4384516zm13.3757419 0h4.1667097v-2.47587096h2.808v2.47587096h5.1932903v2.59664516h-4.076129c1.0265807 1.63045162 2.5966452 3.14012904 4.7705807 4.46864517l-1.8418065 2.29470966c-1.7512258-1.6908387-3.1099355-3.47225805-4.0459355-5.40464515v5.61600005h-2.808v-5.49522585c-1.1171613 2.20412903-2.4456774 4.04593545-3.9855484 5.55561285l-1.600258-2.41548382c1.872-1.32851613 3.3816774-2.8683871 4.5290322-4.61961291h-3.1099355zm20.3101939 8.51458069v4.6196129h6.9445161v-4.6196129zm-.1509677 7.2766451c-.3623226 3.8043871-1.4794839 6.9445161-3.3514839 9.4203871l-2.204129-1.9625806c1.8116129-2.5966452 2.7476129-5.887742 2.808-9.8732904v-14.79483866h23.1584516v22.73574196c0 2.2645161-1.1775484 3.4118709-3.4722581 3.4118709h-3.4722581l-.7548387-2.808c1.1775484.0905807 2.2645162.1509678 3.2910968.1509678.9661936 0 1.4794839-.603871 1.4794839-1.7814194v-4.4988387h-7.488v8.6051613h-2.8985807v-8.6051613zm17.4820645-2.6570322v-4.6196129h-7.488v4.6196129zm0-7.24645165v-4.52903226h-7.488v4.52903226zm-10.3865807-4.52903226h-6.9445161v4.52903226h6.9445161zm39.8152261 23.94348391h-3.3212903l-.7246451-2.7476129 3.4420645.0603871c.9058064 0 1.3587097-.5132904 1.3587097-1.4794839v-19.83716131h-14.1003871v-2.71741935h16.9385806v23.36980646c0 2.2343226-1.207742 3.3514839-3.5930323 3.3514839zm-12.6510967-21.10529036h11.8358709v2.7476129h-11.8358709zm.9058064 5.43483866h9.9034839v9.9034839h-9.9034839zm7.2162581 7.3974194v-4.8913548h-4.4686452v4.8913548zm-14.643871-19.23329032c1.9625807 1.47948387 3.6232258 2.95896774 4.9819355 4.46864516l-1.9625806 1.9927742c-1.207742-1.41909678-2.8683871-2.9287742-5.0121291-4.49883871zm-4.0157419 8.75612903h6.9143226v12.56051609c.7548387-.7246451 1.5398709-1.5398709 2.3550967-2.3852903l.7548388 3.079742c-1.7512259 1.7512258-3.5930323 3.3212903-5.5254194 4.7101935l-1.0869677-2.5664516c.4830967-.4227097.7548387-.9661936.7548387-1.5700645v-11.0810323h-4.1667097zm33.8972904 2.20412899h18.478452v11.4131613h-18.478452zm15.700645 8.8769033v-1.9021936h-12.922838v1.9021936zm-12.922838-4.3176774h12.922838v-2.0229678h-12.922838zm-6.03871-13.28516134h11.111226v-2.53625806h2.777806v2.53625806h11.111226v2.65703226h-8.544774c2.234322 1.8116129 5.525419 3.29109677 9.843097 4.37806452l-1.237936 2.59664516c-5.19329-1.7814194-8.907097-4.10632258-11.171613-6.94451613v5.13290323h-2.777806v-5.10270968c-2.355097 2.77780645-6.03871 5.10270968-11.050839 6.91432258l-1.539871-2.53625807c4.438452-1.20774193 7.789936-2.6872258 10.084645-4.43845161h-8.605161zm-.603871 21.95070964h26.117419v2.6268387h-26.117419zm39.694452-14.73445157c-.392516.42270967-.785032.84541937-1.207742 1.26812907l-1.781419-2.29470972c2.445677-2.41548387 4.076129-5.34425806 4.921548-8.78632258l2.898581.42270968c-.241549.96619355-.543484 1.872-.84542 2.7476129h11.594323c0 11.41316132-.150968 18.44825802-.452903 21.10529032-.301936 2.3249032-1.78142 3.5024516-4.378065 3.5024516-.573677 0-1.570064-.0603871-2.989161-.1207742l-.694452-2.5664516c1.268129.0905807 2.385291.1509678 3.291097.1509678 1.147355 0 1.841806-.7548388 2.022968-2.2343226.181161-1.6908387.271742-7.3974194.332129-17.11974196h-9.963871c-.603871 1.08696774-1.268129 2.08335483-2.022968 3.04954838h8.93729v14.19096778h-9.661935zm6.97471 10.89987097v-3.5326452h-4.196904v3.5326452zm-4.196904-5.8877419h4.196904v-3.4722581h-4.196904zm-10.114838-14.46270972c1.932387 1.47948387 3.593032 2.95896774 4.951742 4.46864516l-1.962581 1.9927742c-1.207742-1.41909678-2.868387-2.9287742-4.981936-4.49883871zm-4.076129 8.75612903h6.974709v12.71148389c.815226-.7548387 1.690839-1.6002581 2.626839-2.5362581l.785032 3.0193549c-1.811613 1.7814193-3.774193 3.3816774-5.827355 4.7705806l-1.086967-2.5664516c.483096-.4227097.754838-.9661936.754838-1.5700645v-11.0810323h-4.227096z" fill="#2e3838"/><path d="m7.00954839 38.3225806c.22296774.459871.44593548.9754839.66890322 1.5607742h5.00283869v1.2820646h-10.21470965v2.9403871c-.04180646 3.0658064-.48774194 5.5184516-1.35174194 7.3718709l-1.11483871-.9894193c.72464516-1.5329033 1.10090323-3.6650323 1.12877419-6.3824516v-4.2224517h5.08645162c-.20903226-.4738064-.432-.9197419-.68283871-1.3099354zm17.60980661 7.7481291v5.2815484h-1.3378064v-.6689033h-6.6611613v.6689033h-1.3378065v-5.2815484zm-7.9989677 3.3723871h6.6611613v-2.1181936h-6.6611613zm-.3205162-7.8178065c-.4738064.6410323-1.0172903 1.2123871-1.6443871 1.728l-.7943225-1.0451613c1.2263225-.9894193 2.0624516-2.2018064 2.5083871-3.6510967l1.3099354.1672258c-.1672258.5434838-.3623225 1.0590967-.5992258 1.5329032h2.3411613v-1.8673548h1.323871v1.8673548h4.4454193v1.268129h-4.4454193v1.9230968h5.5045161v1.296h-12.6812903v-1.296h5.8529032v-1.9230968zm12.3282583 2.8289032h9.4900645v1.1427097h-9.4900645zm-1.1566452 2.0067097h11.8172903v1.1984516h-5.0446451v2.4944517c0 .808258-.4459355 1.212387-1.3378065 1.212387h-1.296l-.2647742-1.1984516c.3901936.055742.7803871.0836129 1.1427097.0836129.2787097 0 .432-.1393548.432-.404129v-2.187871h-5.4487742zm8.9605161 1.6861936c1.0590968.5852903 2.0206452 1.296 2.9125162 2.1460645l-.7385807 1.1427097c-.9336774-.9754839-1.8812903-1.7419355-2.8428387-2.2993549zm-6.3824516-.027871.9058065.8082581c-.7385807.9197419-1.6443871 1.7419355-2.7313549 2.4387096l-.8221935-1.0590967c1.0451613-.6270968 1.9230968-1.351742 2.6477419-2.187871zm-2.564129-8.4867097h2.3272258v-1.1427096h1.296v1.1427096h1.9927742v1.1984516h-1.9927742v.0836129c.6131613.3483871 1.2402581.7385807 1.8812903 1.1845162l-.7107097 1.0590967c-.4598709-.5434838-.8500645-.9754838-1.1705806-1.296v2.1739355h-1.296v-2.2018064c-.5295484.864-1.1566452 1.5886451-1.8534194 2.1739355l-.7246451-1.0869678c.9476129-.5852903 1.7140645-1.2820645 2.2993548-2.0903226h-2.0485161zm6.1734193 0h1.9230968v-1.1427096h1.296v1.1427096h2.3969032v1.1984516h-1.8812903c.4738065.7525162 1.1984516 1.4492904 2.2018065 2.0624517l-.8500645 1.0590967c-.8082581-.7803871-1.4353549-1.6025806-1.8673549-2.4944516v2.592h-1.296v-2.536258c-.5156129 1.0172903-1.1287742 1.8673548-1.8394839 2.564129l-.7385806-1.1148387c.864-.6131613 1.5607742-1.323871 2.0903226-2.1321291h-1.4353549zm9.3739357 3.9298065v2.132129h3.2051613v-2.132129zm-.0696774 3.3584516c-.1672258 1.755871-.6828387 3.2051613-1.5468387 4.347871l-1.0172904-.9058065c.8361291-1.1984516 1.2681291-2.7174193 1.296-4.5569032v-6.8283871h10.6885162v10.4934193c0 1.0451613-.5434839 1.5747097-1.6025807 1.5747097h-1.6025806l-.3483871-1.296c.5434839.0418065 1.0451613.0696774 1.5189677.0696774.4459355 0 .6828387-.2787096.6828387-.8221935v-2.0763871h-3.456v3.9716129h-1.3378064v-3.9716129zm8.0686451-1.2263226v-2.132129h-3.456v2.132129zm0-3.3445161v-2.0903226h-3.456v2.0903226zm-4.7938064-2.0903226h-3.2051613v2.0903226h3.2051613zm18.3762582 11.0508387h-1.5329032l-.3344516-1.268129 1.5886451.0278709c.4180646 0 .6270968-.2369032.6270968-.6828387v-9.1556129h-6.507871v-1.2541935h7.8178065v10.7860645c0 1.0312258-.5574194 1.5468387-1.6583226 1.5468387zm-5.8389677-9.7409032h5.4627096v1.268129h-5.4627096zm.4180645 2.5083871h4.5708387v4.5708387h-4.5708387zm3.3305806 3.4141935v-2.2575484h-2.0624516v2.2575484zm-6.7587096-8.8769032c.9058064.6828387 1.672258 1.3656774 2.2993548 2.0624516l-.9058065.919742c-.5574193-.6549678-1.3238709-1.351742-2.3132903-2.0763871zm-1.8534194 4.0412903h3.1912258v5.7971613c.3483871-.3344516.7107097-.7107097 1.0869677-1.1009032l.3483871 1.4214193c-.808258.8082581-1.6583225 1.5329033-2.5501935 2.1739355l-.5016774-1.1845161c.2229677-.1950968.3483871-.4459355.3483871-.7246452v-5.1143225h-1.9230968zm15.6449034 1.0172904h8.5285161v5.2676129h-8.5285161zm7.2464516 4.0970322v-.8779355h-5.9643871v.8779355zm-5.9643871-1.9927742h5.9643871v-.9336774h-5.9643871zm-2.7870968-6.1316129h5.1282581v-1.1705806h1.2820645v1.1705806h5.1282581v1.2263226h-3.943742c1.0312258.836129 2.5501936 1.5189677 4.5429678 2.0206452l-.5713549 1.1984516c-2.3969032-.8221936-4.1109677-1.8952258-5.156129-3.2051613v2.3690322h-1.2820645v-2.3550967c-1.0869677 1.2820645-2.7870968 2.3550967-5.1003871 3.1912258l-.7107097-1.1705807c2.0485162-.5574193 3.5953549-1.240258 4.6544516-2.0485161h-3.9716129zm-.2787096 10.1310968h12.0541935v1.2123871h-12.0541935zm18.3205163-6.8005161c-.1811613.1950967-.3623226.3901935-.5574194.5852903l-.8221936-1.0590968c1.1287742-1.1148387 1.8812904-2.4665806 2.2714839-4.0552258l1.3378065.1950968c-.1114839.4459355-.2508387.864-.3901936 1.268129h5.3512258c0 5.2676129-.0696774 8.5145807-.2090322 9.7409032-.1393549 1.0730323-.8221936 1.6165162-2.0206452 1.6165162-.2647742 0-.7246452-.027871-1.3796129-.055742l-.3205161-1.1845161c.5852903.0418064 1.1009032.0696774 1.5189677.0696774.5295484 0 .8500645-.3483871.9336774-1.0312258.0836129-.7803871.1254194-3.4141935.1532904-7.9014193h-4.5987097c-.2787097.5016774-.5852903.9615483-.9336774 1.4074838h4.1249032v6.5496774h-4.4593548zm3.2190967 5.0307096v-1.6304516h-1.9370322v1.6304516zm-1.9370322-2.7174193h1.9370322v-1.6025807h-1.9370322zm-4.6683871-6.6750968c.8918709.6828387 1.6583226 1.3656774 2.2854193 2.0624516l-.9058064.919742c-.5574194-.6549678-1.323871-1.351742-2.2993549-2.0763871zm-1.8812904 4.0412903h3.2190968v5.8668387c.3762581-.3483871.7803871-.7385806 1.2123871-1.1705806l.3623226 1.3935484c-.836129.8221935-1.7419355 1.5607742-2.6895484 2.2018064l-.5016774-1.1845161c.2229677-.1950968.3483871-.4459355.3483871-.7246452v-5.1143225h-1.9509678zm19.4214196 8.667871h-1.5747097l-.3065807-1.296c.5016775.0557419.9754839.0836129 1.4214194.0836129.292645 0 .445935-.1532903.445935-.459871v-3.0797419c-1.337806.0836129-2.7592253.1532903-4.2921285.2229677l-.3623226-1.1566451c.4180645-.0418065.808258-.1254194 1.1427096-.2369032 1.0312259-.4459355 2.16-1.1148388 3.3863225-2.0206452-1.1148386.0836129-2.3132902.1672258-3.5674837.2369032l-.2787097-1.1705806c.3205161-.027871.6131613-.1114839.8918709-.2369033.5574194-.2787096 1.2263226-.8500645 2.0067097-1.7140645-1.1009032.0418065-2.2575484.0696774-3.4838709.0696774l-.3901936-1.1427096c3.9855484 0 7.3579353-.2787097 10.1032263-.8082581l.654967 1.1009032c-1.477161.3205162-3.233032.5434839-5.239742.6828387-.724645.8361291-1.477161 1.5329033-2.2575481 2.0903226.9754839-.0557419 1.9509681-.1114838 2.9264521-.1811613.58529-.4877419 1.198451-1.0172903 1.825548-1.5886451l1.226323.5992258c-2.215742 1.9230968-4.138839 3.3305806-5.7692908 4.2503226 1.9370318-.1254194 3.6232258-.2787097 5.0585808-.4459355-.306581-.4041291-.613161-.8082581-.947613-1.2123871l.975484-.6131613c1.156645 1.3378064 2.048516 2.5223226 2.661677 3.5256774l-1.059097.7385807c-.250838-.4459355-.543483-.9058065-.864-1.379613-.919741.1114839-1.923096.2090323-3.024.2926452v3.4978065c0 .8918709-.445935 1.3517419-1.309935 1.3517419zm3.191226-4.2085161c1.393548 1.0033548 2.550193 2.0067096 3.483871 3.0100645l-.947613.9476129c-.808258-.9615484-1.950968-1.9927742-3.414194-3.0936774zm-5.5602583.0975484.9336774.836129c-.9476129 1.1287742-2.104258 2.1181935-3.4978064 2.9682581l-.8361291-1.0869678c1.3378065-.7803871 2.4805162-1.6861935 3.4002581-2.7174193zm14.6833553.7525161v1.268129c-1.268129.6410323-2.71742 1.1705807-4.333936 1.5607742l-.15329-1.323871c1.700129-.376258 3.205161-.8779354 4.487226-1.5050322zm-2.424774-9.5179355 1.268129.5016774c-.668904 1.6583226-1.337807 3.0100645-2.00671 4.0412903.473806-.0557419.947613-.1254193 1.421419-.2090322.236903-.4459355.487742-.9336774.738581-1.4492903l1.184516.4459354c-1.114839 2.1181936-2.048516 3.6789678-2.814968 4.6823226.864-.2369032 1.741936-.5434838 2.633807-.9336774v1.2123871c-1.505033.6270968-2.940387 1.0451613-4.292129 1.268129l-.348387-1.2263225c.236903-.1114839.432-.2369033.599225-.3901936.432-.459871.975484-1.2541935 1.630452-2.3829677-.641032.1114838-1.309935.2090322-2.00671.3065806l-.334451-1.2123871c.209032-.0836129.404129-.2647742.571355-.5156129.668903-1.2402581 1.254193-2.619871 1.755871-4.1388387zm2.842838 6.3127742-.292645-1.1705807c.111484-.0278709.209032-.0696774.264774-.0975483.418065-.3065807.961549-1.1009033 1.616516-2.3550968h-2.16v-1.268129h3.386323c-.167226-.4459355-.348387-.864-.543484-1.2541936l1.351742-.2229677c.181161.4459354.362323.9336774.529548 1.4771613h3.051871v1.268129h-4.236387c-.529548 1.0033548-1.003355 1.7698064-1.421419 2.3272258 1.128774-.1114839 2.257548-.2508387 3.372387-.4180645-.27871-.3901936-.557419-.7664516-.836129-1.1427097l1.003355-.6270968c.919742 1.1845162 1.630451 2.2296774 2.132129 3.1215484l-1.031226.7107097c-.167226-.3205161-.362323-.6410323-.557419-.9754839-1.728.2647742-3.609291.4738065-5.629936.6270968zm1.031226.432h1.282065c-.069678 1.7698064-.292646 3.0658064-.654968 3.888-.404129.864-1.073032 1.6165161-2.020645 2.2575484l-.836129-1.0451613c.780387-.5016774 1.337806-1.1009032 1.672258-1.7976774.320516-.6689033.501677-1.7698065.557419-3.3027097zm5.100387 5.9225806h-.891871c-.989419 0-1.477161-.4459354-1.477161-1.3238709v-4.752h1.268129v4.5011613c0 .2229677.083613.3623225.250839.3901935h.780387c.250838-.027871.404129-.2090322.432-.5434839.041806-.376258.069677-.9197419.069677-1.6165161l1.14271.404129c0 1.3378065-.111484 2.1460646-.306581 2.4526452-.195097.2787097-.627097.432-1.268129.4877419zm13.178323-12.7091613h1.240258c-.58529.947613-1.031226 1.9091613-1.337807 2.8846452-.418064 1.1984516-.613161 2.4108387-.613161 3.6232258 0 1.1984516.195097 2.4108387.613161 3.6232258.306581.9615484.752517 1.9230968 1.337807 2.8846452h-1.240258c-.654968-.919742-1.156645-1.8673549-1.505032-2.8428387-.432-1.1845162-.641033-2.3969033-.641033-3.6510968 0-1.268129.209033-2.4944516.641033-3.6650323.348387-1.0033548.850064-1.9509677 1.505032-2.8567742zm6.224516.2229678 1.226323.4877419c-.98942 2.9125162-2.299355 5.1421936-3.929807 6.6750968l-1.045161-.9058065c1.672258-1.5747096 2.926452-3.6650322 3.748645-6.2570322zm5.239742 7.3858064c1.003355 1.5050323 1.88129 3.0936775 2.605936 4.7938065l-1.240258.5574193c-.195097-.4459354-.376259-.8918709-.571355-1.3099354-2.424775.3623225-5.114323.6410322-8.096516.836129l-.236904-1.2820645c.98942-.3205161 2.369033-2.4526452 4.152775-6.3963871l1.296.4459355c-1.114839 2.3550967-2.257549 4.32-3.400259 5.8947096 1.978839-.1393548 3.901936-.3483871 5.74142-.6270967-.459871-.919742-.933678-1.755871-1.435355-2.5083871zm-.236903-7.4972903c.780387 2.5362581 2.118193 4.6126452 4.04129 6.2152258l-.947613 1.0869678c-2.020645-1.728-3.428129-3.943742-4.222451-6.6611613zm10.600258.0418065h1.003355c1.672258 2.0624516 3.60929 3.6929032 5.811097 4.8774193l-.696774 1.2402581c-2.201807-1.2541936-4.069162-2.8985807-5.616-4.9192258-1.449291 1.8952258-3.344517 3.5396129-5.713549 4.9052903l-.682839-1.2263226c2.369033-1.3099355 4.333936-2.9264516 5.89471-4.8774193zm-2.689548 4.8774193h1.268129c0 .9754839-.069678 1.8673549-.195097 2.6756129.822194.7525162 1.532903 1.5050323 2.132129 2.2575484l-.947613.9476129c-.390193-.6131613-.877935-1.268129-1.477161-1.9370322-.027871.0557419-.041807.0975483-.041807.1532903-.432 1.4492903-1.44929 2.6338064-3.051871 3.5814193l-.822193-1.0033548c1.337806-.7943226 2.215742-1.7698065 2.633806-2.9125161.334452-.9754839.501678-2.2296774.501678-3.7625807zm4.891355-.1254193h1.268129c0 .836129-.041807 1.6025806-.12542 2.3272258.668903 1.8812903 1.85342 3.3723871 3.539613 4.4872258l-.850064 1.0033548c-1.323871-.9615484-2.355097-2.1181935-3.079742-3.4838709-.404129 1.4214193-1.309936 2.6059354-2.703484 3.5535483l-.808258-.9894193c1.17058-.8221936 1.950968-1.8255484 2.31329-3.0100645.27871-1.0033549.432-2.2993549.445936-3.888zm8.677161-4.6544516h1.296v3.5814193h.668903v1.296h-3.135484v.5295484c0 .3901935-.013935.7664516-.027871 1.1287742h2.675613v6.1176774h-1.296v-4.8495484h-1.44929c-.167226 2.0345807-.543484 3.5953549-1.100903 4.6823226l-1.003355-.864c.58529-1.3099355.891871-3.3723871.905806-6.2152258v-5.1282581h1.296v3.3027097h1.170581zm3.874065 5.0585806v1.1705806c-.055742 2.675613-.529549 4.8216775-1.42142 6.4103226l-.905806-.9615484c.696774-1.3099354 1.059097-3.1354838 1.114838-5.4487742v-5.4069677c2.215742-.0418064 4.194581-.3344516 5.950452-.891871l.641032 1.1845162c-1.616516.4738064-3.400258.7525161-5.379096.836129v1.8534194h5.086451v1.1287741c-.30658 1.8394839-.864 3.4141936-1.700129 4.6962581.641032.836129 1.407484 1.4910968 2.31329 1.9509678l-.654967 1.1566451c-.98942-.5016774-1.811613-1.1845161-2.480516-2.0206451-.724646.808258-1.588646 1.4910967-2.592 2.0345806l-.627097-1.1705806c.975484-.5434839 1.783742-1.2123871 2.452645-1.9927742-.71071-1.2402581-1.198452-2.7452904-1.477161-4.5290323zm1.505032 0c.250839 1.2820645.613161 2.4108387 1.114839 3.3584516.571354-.9894193.975483-2.104258 1.198451-3.3584516zm5.332645-5.3094194h1.240258c.641032.9058065 1.14271 1.8534194 1.505032 2.8567742.418065 1.1705807.641033 2.3969033.641033 3.6650323 0 1.2541935-.222968 2.4665806-.641033 3.6510968-.362322.9754838-.864 1.9230967-1.505032 2.8428387h-1.240258c.571355-.9615484 1.01729-1.9230968 1.337807-2.8846452.404129-1.2123871.613161-2.4247742.613161-3.6232258 0-1.2123871-.209032-2.4247742-.613161-3.6232258-.320517-.9754839-.766452-1.9370322-1.337807-2.8846452z" fill="#9ea0a0"/></g></svg>