<svg height="90" viewBox="0 0 180 90" width="180" xmlns="http://www.w3.org/2000/svg"><g transform="translate(0 19)"><path d="m20.4878106 10.5395265c1.5766295-.90827302 2.3649693-2.53634544 2.3649693-4.88416717 0-.68549916-.2784735-1.38813593-.8354206-2.10790529-.5569972-.71977437-1.5766796-1.07965905-3.0590473-1.07965905-1.4824178 0-2.6605906.39844178-3.5346184 1.19533537-.8739777.79688858-1.3109917 1.83800056-1.3109917 3.12332089 0 1.2852702.1713761 2.31352647.5141282 3.08471867.6169136 1.42240108 1.6966128 2.81055708 3.2389471 4.16441778l2.1593481 1.9536268c1.9193817 1.7137604 3.2217995 3.1361615 3.9073037 4.2672535 1.3538607 2.2792813 2.0307911 4.5928078 2.0307911 6.9406796 0 4.370039-1.5080892 7.746117-4.5242675 10.128234-2.724869 2.1764457-6.1523398 3.2646685-10.2824623 3.2646685-5.10698612 0-8.52589309-1.6366462-10.25677609-4.9098885-.59980864-1.1481895-.89971421-2.4849025-.89971421-4.0101393 0-2.7591644.78832479-4.9098886 2.36496936-6.452273s3.34178273-2.3135265 5.29545961-2.3135265 3.35035653.5912424 4.19013923 1.7737271c.3256045.4455376.5055544 1.0111086.5397995 1.6965626-2.69057383 0-4.55856269.8826017-5.60391645 2.6477549-.37704735.6340613-.56557103 1.3452869-.56557103 2.1336268 0 1.4909415.44132591 2.7333927 1.32387744 3.7274039.88260167.993961 2.17218384 1.4909415 3.86879664 1.4909415s3.114702-.60839 4.2543677-1.82517c1.1396156-1.2167298 1.7094485-2.7591142 1.7094485-4.627103 0-1.8679889-.2656379-3.4060613-.7969137-4.6142173-.5312256-1.2082061-1.1995821-2.3349861-2.0050696-3.38039-.8054373-1.0454039-1.6708914-2.0436267-2.596312-2.9947688-.9254206-.951142-1.7908746-1.9151197-2.59631197-2.8919331-1.86798886-2.2621337-2.80198329-4.4643009-2.80198329-6.60650141 0-2.70772145 1.16964903-4.95699944 3.50889696-6.74785905 2.3392479-1.79086463 5.2226574-2.68629694 8.6501281-2.68629694 4.2329582 0 6.9063844 1.28531031 8.0203287 3.85592591.3084568.68549916.4626852 1.65804066.4626852 2.91763955s-.385571 2.38637883-1.1567632 3.38038994c-.7711922.993961-1.7351699 1.4909415-2.8919331 1.4909415-1.1567633 0-2.0522006-.3684735-2.686312-1.1053704z"/><path d="m41.592585 12.6988245c4.2158105 0 6.3237158 1.5938273 6.3237158 4.7813816 0 1.3367131-.2742117 2.3178385-.8225849 2.9433259-.5484234.6255376-1.1653371.9383064-1.8508412.9383064-.6855042 0-1.345287-.2056713-1.9793984-.6169637.4284401-1.1310418.6426853-2.1678719.6426853-3.1104402 0-1.4395487-.5012925-2.159298-1.5038273-2.159298-1.0025349 0-2.0607744.908273-3.1747187 2.7248189-1.5937772 2.5706407-2.6905738 5.7667688-3.29039 9.5884346-.171376 1.1481894-.257064 2.4077883-.257064 3.7787966 0 2.5363454 1.2082061 3.8045181 3.6245682 3.8045181 2.0222173 0 3.7231421-.4498495 5.1026741-1.3495989 1.3795822-.8996991 2.8405404-2.2235766 4.3829248-3.9715821h1.7991978c-3.9413984 6.4950919-8.7655989 9.7426128-14.472351 9.7426128-2.5020502 0-4.4985961-.6468969-5.9895376-1.9407911-1.4909415-1.2938941-2.2364624-3.4317827-2.2364624-6.4137159 0-4.0272869 1.0196824-7.917493 3.0590473-11.6705682 1.5423844-2.8277048 3.6588636-4.8584958 6.3494374-6.0923733 1.3881058-.6512089 2.8190807-.9768635 4.2929248-.9768635z"/><path d="m46.7852089 39.4846797 5.5782451-26.3231198h7.5835655l-.6683565 3.2646685c.8739275-.7711922 1.8376044-1.5080891 2.891532-2.2106908 1.0539276-.7026518 2.1935933-1.0539777 3.4189972-1.0539777s2.1464624.4027187 2.7636769 1.2082061c.6167131.8054373.9250696 1.5766295.9250696 2.3135265 0 1.2681727-.3384401 2.2964289-1.0153203 3.0847688-.6768802.7882897-1.4951532 1.1824847-2.454819 1.1824847-.9596657 0-1.5939275-.218507-1.9022841-.6555209-.3083565-.437014-.4968802-.8826017-.565571-1.3367131-.0686908-.4541616-.1584401-.8140613-.2697493-1.079649-.1113092-.2656379-.3469638-.3984569-.7069638-.3984569-.72 0-1.3537604.1670641-1.9022841.5012424-.5485237.3341782-1.1737605.8354707-1.8767131 1.5038273l-4.2157103 19.9994039z"/><path d="m90.5886351 30.0505237c-3.9419499 6.4950919-8.7658496 9.7426128-14.472702 9.7426128-2.5019498 0-4.4984958-.6468969-5.9896378-1.9407911-1.4906407-1.2938941-2.2362117-3.4317827-2.2362117-6.4137159 0-4.0101392 1.0198328-7.8917716 3.0589972-11.6448969 1.5593315-2.8619499 3.6847354-4.9013148 6.3752089-6.1180446 1.3878551-.6512089 2.8273538-.9768635 4.3184958-.9768635 2.4337605 0 4.0873538.4584736 4.9612814 1.3753203.8739275.9168468 1.311142 2.1378886 1.311142 3.6631254 0 2.9990306-1.2083565 5.5482618-3.6245682 7.6475933-2.4167131 2.0993315-5.2440669 3.2518329-8.4830641 3.457454-.0857382.9939611-.1283565 1.6966129-.1283565 2.1079053 0 1.7994485.3168802 2.986195.9506406 3.5602897.6342619.5741449 1.5252368.8611922 2.6739276.8611922 2.022117 0 3.7228412-.4498495 5.1026741-1.3495989 1.3793315-.8996991 2.84039-2.2235766 4.3826741-3.9715821zm-6.7352089-12.6731532c0-1.2681727-.4367131-1.902234-1.3111421-1.902234-1.2850696.0342451-2.5275209 1.1695989-3.7273537 3.4060613-1.1993315 2.2364122-2.0647354 4.7170529-2.5962117 7.441922 2.022117-.1370808 3.8005571-1.079649 5.3343175-2.8276546 1.5337605-1.7480557 2.30039-3.7874206 2.30039-6.1180947z"/><path d="m110.79376 30.0505237c-3.941949 6.4950919-8.765849 9.7426128-14.4727015 9.7426128-2.5019499 0-4.4984958-.6468969-5.9896379-1.9407911-1.4906407-1.2938941-2.2362117-3.4317827-2.2362117-6.4137159 0-4.0101392 1.0193315-7.8917716 3.0589972-11.6448969 1.5593315-2.8619499 3.684234-4.9013148 6.3752089-6.1180446 1.3878552-.6512089 2.827354-.9768635 4.318496-.9768635 2.433259 0 4.087354.4584736 4.961281 1.3753203.873928.9168468 1.311142 2.1378886 1.311142 3.6631254 0 2.9990306-1.208356 5.5482618-3.624568 7.6475933-2.416713 2.0993315-5.2440668 3.2518329-8.4830641 3.457454-.0857381.9939611-.1288579 1.6966129-.1288579 2.1079053 0 1.7994485.3173816 2.986195.9511421 3.5602897.6342618.5741449 1.5252367.8611922 2.6734262.8611922 2.0226187 0 3.7233427-.4498495 5.1026737-1.3495989 1.379833-.8996991 2.840892-2.2235766 4.383176-3.9715821zm-6.735208-12.6731532c0-1.2681727-.437215-1.902234-1.311143-1.902234-1.285069.0342451-2.52752 1.1695989-3.7273533 3.4060613-1.1993315 2.2364122-2.0647354 4.7170529-2.5962117 7.441922 2.022117-.1370808 3.800056-1.079649 5.333816-2.8276546 1.534262-1.7480557 2.300892-3.7874206 2.300892-6.1180947z"/><path d="m119.585181 15.886429c1.713761-1.9536769 3.761449-2.9305404 6.143566-2.9305404 1.679665 0 3.076545.4627354 4.190139 1.388156 1.114095.9254206 1.671142 2.2964289 1.671142 4.1129749 0 1.8165961-.291309 3.8730585-.873928 6.1694875l-1.26 5.0898384c-.274262 1.1139443-.411142 2.0222173-.411142 2.7248189 0 .7026519.149917 1.2553371.44975 1.6580558.299832.4027688.861392.6041281 1.683676.6041281.822786 0 1.396881-.1114095 1.722285-.3341783-.256714 1.902234-.942117 3.2818162-2.056212 4.1386964-1.114095.8568301-2.270808 1.2852702-3.470139 1.2852702-2.108357 0-3.590474-.6169137-4.447354-1.8508412-.754095-1.0282563-1.131142-2.3264123-1.131142-3.894468s.394094-3.9287632 1.182284-7.0820724c.788691-3.1532591 1.182785-5.3297048 1.182785-6.5293371 0-1.7994484-.634261-2.6991476-1.902284-2.6991476-1.268022 0-2.399164 1.0025348-3.393426 3.0076045-.291309.5655208-.530975 1.1824846-.719499 1.8508412l-3.573426 16.8889638h-7.583064l5.577995-26.3231198h7.583565zm31.361616 15.449415c1.559331 0 2.338997.8397326 2.338997 2.5191978 0 1.3538607-.599666 2.6306072-1.799499 3.8301894-1.199331 1.1996323-2.741615 1.7994485-4.626852 1.7994485h-13.958774l13.418774-23.4697438h-2.930641c-.822284 0-1.5122.0428691-2.069248.1285571-.557047.0856881-.83532.3170307-.83532.6940279 0 .085688.030084.1371309.089749.1542785.060167.0170975.154429.0728023.282786.1670641.128858.0942618.193036.5055543.193036 1.2338774 0 .7283733-.295822 1.3110418-.886964 1.7480558-.591142.4370139-1.143677.6555208-1.658106.6555208-.839832 0-1.499164-.2056713-1.979498-.6169637-.479833-.4112925-.719499-.9339945-.719499-1.5681059 0-1.3538607.582619-2.6005738 1.747855-3.7402395 1.165237-1.1396156 2.613761-1.7094485 4.344569-1.7094485h13.54713l-12.904345 22.2615376c.222618.0171476.488357.0428691.796713.0771142l1.002284.1285571c.788691.085688 1.50819.128507 2.159499.128507 1.559331 0 2.399164-.3513259 2.518997-1.0539276-.668356-.0685905-1.002284-.4370139-1.002284-1.1053705 0-.5141281.239666-1.0196824.72-1.5166629.479833-.4969805 1.216379-.7454708 2.210641-.7454708z"/><path d="m162.642786 32.3897716c0 1.5423844.522952 2.3135766 1.568356 2.3135766 1.850641 0 3.256045-1.5509582 4.21571-4.6528245l3.572925-16.8889638h7.634708l-6.426351 30.5389304c-.668357 3.3589303-2.022117 5.7924401-4.061282 7.3006796-1.491142 1.096546-3.196378 1.6450697-5.11571 1.6450697-1.919331 0-3.504735-.5314764-4.75571-1.5939276-1.233928-1.0794986-1.850641-2.3390975-1.850641-3.7786463 0-1.4395487.235655-2.5792144.706964-3.418947.470808-.8397326 1.212368-1.6109248 2.223175-2.3135265.994262-.7197994 3.050474-1.5423844 6.169638-2.467805l.54-2.3135766c-1.782451 2.0222173-3.924401 3.0333259-6.426852 3.0333259-1.576379 0-2.913092-.4969805-4.010139-1.4909415-1.079499-.993961-1.619499-2.596312-1.619499-4.8070529 0-.993961.137382-2.1422006.411643-3.4446184l3.572925-16.8889638h7.583566l-3.778998 17.8914986c-.102785.4455877-.154428.8911253-.154428 1.3367131zm3.521782 8.354507c-1.885237.6683565-3.187354 1.2938941-3.907354 1.8765626-1.302117 1.0796491-1.953426 2.2792814-1.953426 3.5988468 0 .394195.209582.7840279.62975 1.169649.419665.3855711.908022.5783566 1.465069.5783566.557048 0 1.135655-.299883 1.735321-.8996992.599665-.5998161 1.062451-1.6708913 1.388356-3.2132757z"/></g></svg>