<svg height="90" viewBox="0 0 180 90" width="180" xmlns="http://www.w3.org/2000/svg"><g fill="none" transform="translate(0 22)"><path d="m56.5878 1.5258c-2.871 1.3854-5.0244 3.72-6.597 6.3672-2.5284-4.2504-6.5478-7.6974-12.6354-7.6974-6.09 0-13.5564 5.1684-13.5564 13.899 0 8.8392 7.3758 13.029 11.0292 15.3948 3.9048 2.5266 10.5678 7.1202 15.162 15.6216 4.596-8.5008 11.2578-13.095 15.1638-15.6216 2.7444-1.779 7.593-4.5882 9.8322-9.6282zm-.2202 18.837v-16.6104l16.6104 16.6098h-16.6104z" fill="#e5322d"/><g fill="#000" transform="translate(0 5.4)"><path d="m.2748 30.0984h2.0592c.6528 0 1.4064-.9042 1.4064-1.5066v-21.8478c0-.6024-.7536-1.4562-1.4064-1.4562h-2.0592v-5.274h16.524v5.274h-2.1096c-.6528 0-1.356.8538-1.356 1.4562v21.8478c0 .603.7032 1.5066 1.356 1.5066h2.1096v5.073h-16.524z"/><path d="m80.0298 30.0984h1.7076c.7032 0 1.4562-.9042 1.4562-1.5066v-21.8478c0-.6024-.7536-1.4562-1.4562-1.4562h-1.7076v-5.274h15.9714c9.3924 0 14.5152 3.315 14.5152 11.1498 0 7.6344-5.4246 11.0994-14.8668 11.0994h-2.913v7.8354h4.068v5.073h-16.7748zm15.4698-13.008c4.2186 0 5.3238-2.4108 5.3238-5.7756 0-3.315-1.1052-5.6754-5.3238-5.6754h-2.913v11.4516h2.913z"/><path d="m113.58 30.0984h1.7076c.7032 0 1.4562-.9042 1.4562-1.5066v-21.8478c0-.6024-.753-1.4562-1.4562-1.4562h-1.7076v-5.274h15.3186c12.5058 0 19.035 5.4246 19.035 17.3778 0 11.7528-6.6294 17.7798-19.2864 17.7798h-15.0672zm15.0672-.2508c6.3282 0 9.4422-3.7668 9.4422-12.2046 0-8.3874-3.0636-12.0042-9.4422-12.0042h-2.3604v24.2082h2.3604z"/><path d="m151.1472 30.0984h1.7076c.7032 0 1.4562-.9042 1.4562-1.5066v-21.8478c0-.6024-.753-1.4562-1.4562-1.4562h-1.7076v-5.274h28.578v10.8486h-5.625l-.8538-5.1732h-9.3924v9.8442h4.5702l.402-3.315h5.1738v12.2046h-5.1732l-.402-3.4656h-4.5702v9.141h4.0686v5.073h-16.7754v-5.073z"/></g><path d="m56.3676 20.3628v-16.6104l16.6104 16.6104z" fill="#fff"/></g></svg>