<svg height="90" viewBox="0 0 180 90" width="180" xmlns="http://www.w3.org/2000/svg"><g fill="none" transform="translate(39 5)"><path d="m56.5340426 32.2162162h10.6340425c7.5450647 0 13.5638298 5.996438 13.5638298 13.5135135 0 7.5170756-6.0187651 13.5135135-13.5638298 13.5135135h-10.5255319v20.5405406h10.5255319c18.9315311 0 34.1808509-15.1927512 34.1808509-34.0540541 0-18.8613028-15.2493198-34.054054-34.1808509-34.054054h-10.6340425z" fill="#eebf01"/><g fill="#232323"><path d="m32.4446809 32.2162162h24.1978723v-20.5405405h-44.8148936v34.054054c0 18.8613029 15.2493199 34.0540541 34.180851 34.0540541h10.6340426v-20.5405406h-10.6340426c-7.5450646 0-13.5638297-5.9964379-13.5638297-13.5135135z"/><path d="m0 11.7837838v20.5405405h32.4446809v-32.3243243h-20.6170213v11.7837838z"/></g></g></svg>