<svg height="90" viewBox="0 0 180 90" width="180" xmlns="http://www.w3.org/2000/svg"><path d="m38.178 44.2748571c0 9.036-7.3285714 16.362-16.362 16.362s-16.36457143-7.3311428-16.36457143-16.3568571v-43.63714286h-5.45142857v43.63199996c0 12.0497143 9.76628571 21.8108572 21.816 21.8108572 12.0497143 0 21.8134286-9.7637143 21.8134286-21.8108572v-43.63199996h-5.4514286zm54.54-26.802-16.8351429-16.82999996h-7.7142857l20.6897143 20.68714286 3.8571429 3.8571429 3.8571428-3.8571429 20.6845716-20.68714286h-7.714286zm0 24.0737143-3.8571429 3.8571429-20.6871428 20.6845714h7.7142857l16.83-16.8248571 16.824857 16.8222857h7.714286l-20.6845716-20.682-3.8571428-3.8571429zm76.353429-35.45228569h10.902857v-5.45142857h-10.902857c-18.072 0-32.726572 14.65199996-32.726572 32.72399996s14.652 32.724 32.724 32.724h10.902857v-5.4514285h-10.902857c-15.060857 0-27.27-12.2091429-27.27-27.27 0-15.0634286 12.209143-27.27257146 27.267429-27.27257146z" transform="translate(0 11)"/></svg>