<svg height="90" viewBox="0 0 180 90" width="180" xmlns="http://www.w3.org/2000/svg"><g fill="none" transform="translate(0 26)"><path d="m13.9020935 37.990299h-11.52081444c-1.30927977 0-2.37280476-1.0635251-2.37280476-2.3728049v-33.21079214c0-1.30927976 1.06352499-2.37280475 2.37280476-2.37280475h11.52081444c1.3092798 0 2.3728048 1.06352499 2.3728048 2.37280475v33.20655504c0 1.3092798-1.063525 2.377042-2.3728048 2.377042zm-11.52081444-36.60051335c-.55930398 0-1.01691633.45761233-1.01691633 1.01691631v33.20655504c0 .559304.45761235 1.0169163 1.01691633 1.0169163h11.52081444c.5593041 0 1.0169163-.4576123 1.0169163-1.0169163v-33.20655504c0-.55930398-.4576122-1.01691631-1.0169163-1.01691631z" fill="#00365b"/><path d="m34.9564985 16.321507h-12.8767029c-.9364105 0-1.6948605-.7584501-1.6948605-1.6948605v-12.876703c0-.93641044.75845-1.69486053 1.6948605-1.69486053h12.8767029c.9364105 0 1.6948607.75845009 1.6948607 1.69486053v12.876703c0 .9364104-.7584502 1.6948605-1.6948607 1.6948605z" fill="#0080ff"/><path d="m28.5202657 37.990299c-2.5253422 0-4.8981469-.9830191-6.6819877-2.7668599-1.7838406-1.7838406-2.7668598-4.1566455-2.7668598-6.6819877s.9830192-4.8981469 2.7668598-6.6819877c1.7838408-1.7838406 4.1566455-2.7668597 6.6819877-2.7668597s4.8981469.9830191 6.6819877 2.7668597c1.7838407 1.7838408 2.7668597 4.1566455 2.7668597 6.6819877s-.983019 4.8981471-2.7668597 6.6819877c-1.7838408 1.7838408-4.1566455 2.7668599-6.6819877 2.7668599zm0-17.5502809c-4.4659575 0-8.0971962 3.6312387-8.0971962 8.0971962s3.6312387 8.0971962 8.0971962 8.0971962 8.0971962-3.6312387 8.0971962-8.0971962-3.6354758-8.0971962-8.0971962-8.0971962z" fill="#00365b"/><path d="m47.7272727 8.18181818h6.9272728c3.0272727 0 5.3181818.9 6.8454545 2.72727272 1.3909091 1.6363636 2.1 3.9818182 2.1 7.0090909 0 2.9727273-.7909091 5.3181818-2.3454545 7.0363637-1.6363637 1.8-3.9545455 2.7-6.9545455 2.7h-6.5727273zm1.6636364 1.47272727v16.52727275h4.6636364c2.590909 0 4.5818181-.7363637 5.9454545-2.2090909 1.3090909-1.4181818 1.9636364-3.4363637 1.9636364-6.0545455 0-2.7272727-.5727273-4.7454545-1.7181819-6.0818182-1.2545454-1.4727272-3.2181818-2.18181815-5.8363636-2.18181815zm22.8 3.51818185c2.2363636 0 3.9.7363636 5.0181818 2.2636363.9818182 1.3363637 1.5272727 3.2181819 1.6090909 5.6454546h-11.4545454c.0818181 1.7181818.5454545 3.0818182 1.3909091 4.0636363.8727272.9818182 2.0181818 1.4727273 3.490909 1.4727273 1.2818182 0 2.3181819-.3545454 3.109091-1.0090909.6545454-.5727273 1.1454545-1.3909091 1.5-2.4818182h1.6636363c-.3272727 1.3636364-.9545454 2.4818182-1.8818182 3.3545455-1.1454545 1.0363636-2.5909091 1.5545454-4.3909091 1.5545454-1.990909 0-3.5727272-.6818181-4.7454545-2.0181818-1.2272727-1.3636363-1.8272727-3.1909091-1.8272727-5.4272727 0-2.0727273.5727272-3.7909091 1.7454545-5.2090909 1.2-1.4727273 2.7818182-2.2090909 4.7727273-2.2090909zm.0272727 1.4181818c-1.3909091 0-2.5090909.4636364-3.3545454 1.4454545-.8454546.9545455-1.3363637 2.1818182-1.4727273 3.7090909h9.7090909c-.2727273-3.4363636-1.9090909-5.1545454-4.8818182-5.1545454zm14.0181818-1.4181818c3.3272728 0 5.2090909 1.4454545 5.6181819 4.3363636h-1.609091c-.190909-.9818182-.5727272-1.6909091-1.1727272-2.1545454-.6545455-.5181819-1.6090909-.7636364-2.8636364-.7636364-1.0363636 0-1.8818182.1909091-2.5363636.6272727-.6545455.4363637-.9818182.9818182-.9818182 1.6909091s.4090909 1.2818182 1.2545454 1.7181818c.5454546.2727273 1.5272728.6 2.9727273.9818182 1.7181818.4363636 2.9454546.8727273 3.6545455 1.3090909 1.1181818.6818182 1.6909091 1.6363637 1.6909091 2.8363637 0 2.8363636-1.9090909 4.2818181-5.7272728 4.2818181-3.6272727 0-5.5909091-1.6090909-5.9181818-4.8272727h1.6090909c.1636364 1.2272727.6 2.1272727 1.3090909 2.6727273.6545455.4909091 1.6363637.7363636 2.9454546.7363636 2.7272727 0 4.0909091-.9272727 4.0909091-2.7818182 0-.8454545-.4636364-1.5-1.3909091-1.9636363-.4909091-.2454546-1.5272727-.5727273-3.1363637-.9818182-1.6363636-.4363636-2.7818181-.8454546-3.4363636-1.2545455-1.0909091-.6545454-1.6090909-1.5545454-1.6090909-2.7 0-1.1454545.4909091-2.0454545 1.5272727-2.7545454.9818182-.6818182 2.2363637-1.0090909 3.7090909-1.0090909zm10.2818182-4.69090912c.3818182 0 .7090909.13636364.9818182.40909091.2727273.21818182.4090909.54545455.4090909.95454546 0 .38181815-.1636364.70909095-.4363636.98181815-.2727273.2454546-.5727273.3818182-.9545455.3818182-.4090909 0-.7363636-.1363636-.9818182-.3818182-.2727272-.2727272-.4090909-.6-.4090909-.98181815 0-.40909091.1363637-.73636364.4090909-.95454546.2454546-.27272727.5727273-.40909091.9818182-.40909091zm-.8181818 5.07272732h1.6363636v14.1h-1.6363636zm11.7-.3818182c2.318182 0 4.009091 1.0636363 5.045455 3.2181818v-2.8363636h1.636363v13.0636363c0 4.5272727-2.127273 6.8181818-6.327273 6.8181818-1.854545 0-3.272727-.4090909-4.281818-1.2-.954545-.7636363-1.554545-1.8818181-1.8-3.3818181h1.636364c.190909 1.0363636.627273 1.8272727 1.309091 2.3454545.709091.5727273 1.745454.8727273 3.136363.8727273 3.109091 0 4.69091-1.7727273 4.69091-5.2636364v-2.7c-1.036364 2.1272727-2.727273 3.2181818-5.045455 3.2181818-1.963636 0-3.545455-.7090909-4.718182-2.1-1.090909-1.3090909-1.636363-2.9454545-1.636363-4.9636363 0-1.9909091.545454-3.6545455 1.636363-4.9636364 1.172727-1.4181818 2.754546-2.1272727 4.718182-2.1272727zm.190909 1.3909091c-1.554545 0-2.754545.5454545-3.627273 1.6909091-.845454 1.0363636-1.254545 2.3727272-1.254545 4.0090909 0 1.5818181.381818 2.8909091 1.172727 3.9272727.845455 1.1454545 2.072727 1.7181818 3.681818 1.7181818 1.554546 0 2.781819-.5454545 3.654546-1.6363636.818182-1.0363637 1.227273-2.3727273 1.227273-4.0090909 0-1.6363637-.409091-2.9727273-1.227273-4.0090909-.872727-1.1454546-2.1-1.6909091-3.627273-1.6909091zm16.145455-1.3909091c3.490909 0 5.236363 1.9363636 5.236363 5.8090909v8.6727273h-1.636363v-8.5636364c0-3-1.336364-4.5-4.009091-4.5-1.145455 0-2.072728.4090909-2.836364 1.2272727-.818182.8181818-1.254545 1.9363637-1.336364 3.3272727v8.509091h-1.636363v-14.1h1.636363v2.3181818c.49091-.8454546 1.118182-1.5 1.909091-1.9909091s1.690909-.7090909 2.672728-.7090909zm31.036363-4.99090912h2.236364l-8.945455 8.31818182 10.172728 11.1545455h-2.290909l-9.027273-10.0909091-3.490909 3.2454545v6.8454546h-1.663637v-19.47272732h1.663637v10.69090912zm6.818182.3c.381818 0 .709091.13636364.981818.40909091.272728.21818182.409091.54545455.409091.95454546 0 .38181815-.163636.70909095-.436363.98181815-.272728.2454546-.572728.3818182-.954546.3818182-.409091 0-.736364-.1363636-.981818-.3818182-.272727-.2727272-.409091-.6-.409091-.98181815 0-.40909091.136364-.73636364.409091-.95454546.245454-.27272727.572727-.40909091.981818-.40909091zm-.818182 5.07272732h1.636364v14.1h-1.636364zm9.3-4.5545455v4.5545455h3.681818v1.4181818h-3.681818v9.5454545c0 .6.109091 1.0636364.327273 1.3363637.218182.2454545.627273.3818181 1.227273.3818181h1.772727v1.4181819h-1.990909c-1.090909 0-1.881818-.3-2.345455-.8454546-.436363-.4909091-.627272-1.2545454-.627272-2.2909091v-9.5454545h-3v-1.4181818h3v-3.87272732zm7.963637 15.9272727c.381818 0 .709091.1363637.981818.4090909.272727.2727273.409091.6.409091.9818182s-.136364.7363637-.409091 1.0090909c-.272727.2454546-.6.3818182-.981818.3818182-.409091 0-.736364-.1363636-.981819-.3818182-.272727-.2727272-.40909-.6272727-.40909-1.0090909s.136363-.7090909.40909-.9818182c.245455-.2727272.572728-.4090909.981819-.4090909z" fill="#606976"/></g></svg>