<svg height="90" viewBox="0 0 180 90" width="180" xmlns="http://www.w3.org/2000/svg"><path d="m35.8168779.04000979c21.819038-.99480381 39.720884 16.69212321 39.3549088 38.47014821-.2930946 20.0454302-16.3645407 36.5164271-36.3164765 37.1798057-3.2581223.0733569-6.3699594-.2211262-9.3716894-.8845047-.8420573-.1841839-1.5378296-.8475623-1.7208171-1.7315393l-7.5045873-33.2744748c-.2196898-.6264362.5489628-.9948038.9149378-.478667l8.9695365 13.8918954c.6952478 1.0312185 2.1229701 1.17846 2.9650276.2575408l.2563923-.2575408c1.7936975-1.9901355 4.136882-3.3902494 6.6992321-4.0905702 6.0773891-1.6951247 17.6092755-5.0484319 21.5264677-7.8486596 5.1981051-3.7955596 5.7475921-9.4698997 5.6741872-12.1967707-.0367023-.8106199-.7319501-1.4739985-1.5740075-1.4370563l-19.5492583.8475625c-2.4894696.1102991-4.9789394-.4791946-7.2120167-1.6581824l-4.3198697-2.3585033c-2.5628744-1.3631714-5.5279021-1.9526654-8.4200494-1.5473554l-8.3838711 1.1056309c-5.1247004.699793-9.44509423 4.0900424-11.27496985 8.9173482-1.42824684 3.7950317-3.00225432 8.4381534-4.13740649 13.1176897-.21968983.7367355-1.31761514.7367355-1.5006028-.0369422-.69577217-3.2424801-1.02504482-6.6696719-.84205733-10.2435774 1.06174733-19.4928788 16.40071867-34.85877261 35.76698947-35.74327731zm-.0256787 35.80223701c-1.6503607.2659934-3.2019171-.930263-3.3999982-2.6247215-.2311733-1.6611498.9573132-3.1895411 2.6076738-3.4222257 1.6503606-.2322089 3.1688247.9635716 3.3999982 2.6251974.2307006 1.6606741-.9573132 3.1890652-2.6076738 3.4217498zm58.9852001-12.5684302c.4751108-.1841492.9866237.1470338.9866237.6618905v4.5228386h3.7625955c.401834 0 .7308655.3307073.7308655.7351695v3.383207c0 .4044622-.3290315.7351694-.7308655.7351694h-3.7625955v8.9723983c0 .8826791.6939925 1.5807332 1.5709391 1.5807332h2.1916564c.401834 0 .7308655.3311832.7308655.7356454v3.1990577c0 .404938-.3290315.7356452-.7308655.7356452h-3.6165163c-2.8861233 0-5.2243304-2.3534939-5.2243304-5.2584838v-9.9283566h-2.7395702c-.401835 0-.7308671-.3307072-.7308671-.7351694v-3.3827311c0-.4049381.3290321-.7356454.7308671-.7356454h2.7400429v-3.1257787c0-.3307073.1820078-.5881355.4746383-.6980541zm23.0884067 16.5837099v-10.6268864c0-.4044622.32856-.7351695.730867-.7351695h3.616516c.401836 0 .730395.3307073.730395.7351695v18.5690957c0 .4049381-.328559.7356454-.730395.7356454h-3.616516c-.402307 0-.730867-.3307073-.730867-.7356454v-1.8748009c-.913347 1.8015219-2.629893 3.1619424-5.808646 3.1619424-4.091154 0-7.671741-2.6109222-7.671741-8.1263586v-11.766518c0-.4044622.329032-.7356454.730867-.7356454h3.616517c.401835 0 .730867.3311832.730867.7356454v11.766518c0 1.3975357 1.460789 3.4198464 4.018825 3.4198464 2.520688 0 4.383311-1.8386374 4.383311-4.5228386zm35.363289 8.6779975c-.401835 0-.730394-.3307074-.730394-.7356454v-18.5690957c0-.4044622.328559-.7356454.730394-.7356454h3.616517c.402308 0 .730867.3311832.730867.7356454v18.5690957c0 .404938-.328559.7356454-.730867.7356454zm-14.101341-20.5549575c5.443212 0 9.826997 4.7431516 9.826997 10.5897711s-4.383785 10.5536074-9.826997 10.5536074c-2.484286 0-4.749218-.9930736-6.466236-2.6109222v1.2871413c0 .4044622-.329031.7351695-.730394.7351695h-3.616989c-.401836 0-.730868-.3307073-.730868-.7351695v-26.5488963c0-.4044622.329032-.7351694.730868-.7351694h3.616989c.401363 0 .730394.3307072.730394.7351694v9.3402209c1.753893-1.6183245 3.98195-2.6109222 6.466236-2.6109222zm-.840072 16.1423228c3.068603 0 5.552417-2.5005277 5.589291-5.6258307 0-3.1257787-2.520688-5.6258307-5.589291-5.6258307-3.105476 0-5.589762 2.5371673-5.589762 5.6258307 0 3.125303 2.521161 5.6258307 5.589762 5.6258307zm41.537133 3.1988674c.401834.4782172.072803 1.2138623-.547915 1.2138623h-4.274581c-.219354 0-.401834-.0737547-.547913-.2574282l-7.014151-8.4941812v8.0159643c0 .4044621-.329031.7356451-.730867.7356451h-3.616989c-.401363 0-.729922-.331183-.729922-.7356451v-26.5488963c0-.4044622.328559-.7351695.729922-.7351695h3.616989c.401836 0 .730867.3307073.730867.7351695v15.627942l6.72152-8.1263586c.110151-.1470339.329033-.2574283.548387-.2574283h4.237707c.62119 0 .949749.7351695.547913 1.2133866l-7.123828 8.6040998zm-24.805379-27.5044738c1.694799 0 3.068603 1.3827849 3.068603 3.0886634 0 1.7058786-1.373804 3.0886634-3.068603 3.0886634-1.694798 0-3.068601-1.3827848-3.068601-3.0886634 0-1.7058785 1.373803-3.0886634 3.068601-3.0886634z" fill="#3a3a3a" transform="translate(0 7)"/></svg>