<svg height="90" viewBox="0 0 180 90" width="180" xmlns="http://www.w3.org/2000/svg" xmlns:xlink="http://www.w3.org/1999/xlink"><linearGradient id="a" x1="15.926561%" x2="15.926561%" y1="0%" y2="100%"><stop offset="0" stop-color="#0067ff"/><stop offset="1" stop-color="#00327d"/></linearGradient><linearGradient id="b" x1="15.926561%" x2="15.926561%" y1="0%" y2="100%"><stop offset="0" stop-color="#00327d"/><stop offset="1" stop-color="#0067ff"/></linearGradient><g fill="none" transform="translate(0 34)"><path d="m104.980831 2.60511182c1.236421-1.29968051 3.323961-1.69073482 4.957188-1.00638978-.005751.4888179-.011501 1.46645368-.011501 1.95527157-.994889-.08626198-2.093291-.28753994-2.961662.33929712-.833866.72460064-.638338 1.91501598-.626837 2.88690096 1.161662.0345048 2.323323-.01725239 3.484984.0230032v2.06453674c-1.109904.0115016-2.219808.0115016-3.323961-.0115016-.391055 3.58849837-.023004 7.37827477-.184026 11.04728437-.707348-.0172524-1.414697-.0115016-2.116294.0172524-.356549-3.6345048.034505-7.3955272-.195527-11.06453677-.529074.0057508-1.598722.0172524-2.127796.0230032-.00575-.52332269-.00575-1.56421726-.00575-2.08753994h2.168051c.017252-1.43769968-.028754-3.01916933.943131-4.18658147zm-65.5130994-.52332268c1.4261981-1.20766773 3.6345048.84536741 2.2600639 2.27731629-1.4031949 1.74249201-4.0830671-.92587859-2.2600639-2.27731629zm36.115016 1.01789137c2.858147-1.06389776 6.5616613-.98913738 9.0632588.77060703-.0057508.54057508-.0172524 1.61597444-.0230032 2.15079872-2.4555911-1.19616613-5.4805112-1.83450479-8.085623-.77060703-1.4089457.58658147-1.5239617 2.83514377-.1610224 3.54249202 2.3405751 1.32843455 5.2677317 1.21916935 7.4760384 2.84089455 1.9380191 1.3399361 2.0990415 4.2555911.9891373 6.170607-.8683706 1.4722045-2.6223642 2.0932908-4.2325878 2.2773163-2.628115.2185304-5.3654952-.0517572-7.7520767-1.2421725-.028754-.8051118-.0345048-1.6102236-.0172524-2.4210862 2.6683706 1.1444089 5.7335463 1.8345047 8.6031949 1.1386581 1.8115016-.4600639 2.2140575-3.2492013.5923323-4.1750799-2.4095847-1.4146965-5.5207668-1.2134185-7.7175719-3.0594249-2.3348243-1.93801916-1.5929713-6.17635782 1.2651757-7.22300319zm-41.9463259 10.71948879c.0057508-3.7150159-.0230032-7.43003192.0057508-11.1392971.5808307-.00575079 1.7367412-.02300319 2.3118211-.02875399.2702876 3.08817891.0345048 6.26837061.115016 9.39105429-.0517572 2.2255591.3335463 4.8076678-1.2766773 6.6134186-1.6447285 1.7309904-4.3361023 1.5297124-6.4408946.8971246-.0057508-.7591055-.0115016-1.5124601-.0057508-2.2715655 1.4952077.4485623 3.4044728.8108626 4.6638978-.3680512.6670926-.8913738.626837-2.0415335.626837-3.0939297zm79.6543133-9.79936099c.753354-.0172524 1.506709-.0115016 2.265815 0 .017252.92012779-.011502 1.84600639.011501 2.76613418 1.190415.0172524 2.386582-.0115016 3.582748.0115016v2.07028754c-1.144409.0115016-2.283067.0172524-3.427476-.0172524-.35655 2.32907347-.103515 4.87092657-.120767 7.28051117.241533 1.684984 2.283067 1.7079872 3.565495 1.3859425v2.1623003c-2.053035.5750799-4.692652 0-5.566773-2.1335463-.672843-2.8466454-.051757-5.8198083-.402556-8.68945687-.523323.0057508-1.575719.0230032-2.099041.03450479 0-.52332268 0-1.56996805 0-2.08753993h2.179552c.023003-.9258786-.011501-1.85750799.011502-2.78338658zm-73.9610225 15.88370609c.0805111-4.3591055-.2242812-8.8677317.1495207-13.1348243.5405751.00575079 1.6217253.02300319 2.1623003.02875399.0057508 4.36485621.0057508 8.72971241 0 13.09456871-.5808306 0-1.7367412.0057508-2.311821.0115016zm5.8370607-13.11182111h2.2600639c.028754.76485623.0172524 1.52971246-.0402556 2.29456869.9488818-1.73674121 2.8811501-2.6798722 4.8421725-2.47859425 0 .54632588-.0057508 1.65047923-.0057508 2.19680511-1.886262-.28753993-4.5603834.25878595-4.7271566 2.59361026-.1380191 2.8293929-.0172524 5.6645367-.0575079 8.4996805-.5693291 0-1.7022365 0-2.2715655 0-.0057508-4.3706071-.0115016-8.7354633 0-13.10607031zm9.1667731 2.13354633c1.8230032-3.1456869 7.2230032-3.25495208 8.8159745.16102236-.0057508-.75910543-.0057508-1.52396166.0057508-2.28881789.770607-.0115016 1.5469648-.0115016 2.3175719 0 0 4.36485621.0230031 8.72971241-.0115016 13.10031951-.7706071-.0920128-1.6102237.1725239-2.3348243-.1265176.0172524-.5463259.0517572-1.6447284.0690096-2.1910543-1.7022365 3.1284345-6.716933 3.4907348-8.7469649.5175719-1.6964856-2.6971246-1.7539936-6.4351438-.115016-9.17252398zm3.4217253-.0057508c-2.6166135 1.15591058-2.6051119 4.75591058-1.8172524 7.08498398 1.1386581 3.1341853 6.3776358 2.4498403 7.0102236-.7015974.3105431-1.7252396.4198083-3.6977636-.5520767-5.2447284-1.0408945-1.39744412-3.0709265-1.76549524-4.6408945-1.13865818zm33.3258786-1.77699681c2.8121405-1.25367412 6.6766773-.58658147 8.3099041 2.20830671 1.5642177 2.81789138 1.3801917 6.80319488-.971885 9.14376998-2.743131 2.6338658-7.9533546 2.1047923-9.856869-1.2881789-1.857508-3.2837061-1.1444089-8.35591057 2.5188499-10.06389779zm1.2249201 1.8230032c-3.3527157 1.58146969-3.2549521 7.49329069.2357827 8.87348239 1.5872205.4658147 3.5482428.1897764 4.5891374-1.2019169 1.3054313-1.9897764 1.2996805-4.7214057-.0517572-6.68242811-1.1386581-1.3571885-3.1916933-1.62172524-4.7731629-.98913738zm27.5290737-2.17380192c.851118-.0057508 1.702236-.0057508 2.553354.0057508 1.270927 3.68051121 2.668371 7.32651761 3.807029 11.04728431 1.621725-3.5827476 2.559106-7.5047923 4.169329-11.07028751.511821.0057508 1.535463.0115016 2.047285.0115016 1.44345 3.65175721 2.633865 7.41277951 4.019808 11.09329071 1.29968-3.6920128 2.582109-7.3955271 3.899041-11.08178911.851119-.0115016 1.707988-.0115016 2.559106-.0057508-1.65623 4.37060701-3.300959 8.74696481-4.985943 13.10031951-.994888-.0057508-1.984025.0230032-2.967412-.0172524-1.230671-3.4102237-2.628115-6.7801917-3.490735-10.31693292-1.132907 3.43897762-2.317571 6.86645372-3.623003 10.24792332-.931629.2242811-1.955271.0172524-2.915655.1035144-1.846006-4.2900959-3.369968-8.7527157-5.072204-13.11757191zm25.936102.93162939c2.099042-1.7942492 6.498403-1.69648562 7.395527 1.25367413.764856-.20127796.166773-1.56996806.396805-2.18530352.764857-.0057508 1.529713-.0057508 2.30032.0057508-.040256 4.36485621.109265 8.75846641-.074761 13.11182111-.7246-.0230032-1.44345-.0172524-2.1623.0115016-.097764-.7821087-.138019-1.5699681-.120767-2.3635783-1.65623 3.4159744-7.286262 3.4504792-8.971246.0345048-1.552715-3.0824281-1.420447-7.4242812 1.236422-9.86837062zm2.294569 1.24792333c-2.490096 1.18466449-2.484345 4.58913739-1.805751 6.87220449.943131 3.0766773 5.837061 2.7833866 6.91246-.028754.523323-1.5469649.500319-3.2952077.063259-4.8594249-.638339-2.08178917-3.30671-2.8408946-5.169968-1.98402559zm11.323322-2.17380192c.753355-.0115016 1.50671-.0172524 2.265815 0 .005751.75910543-.034505 1.52971246.138019 2.28306709.672844-1.88051118 2.817892-2.59936102 4.658147-2.46709265v2.19105431c-1.748243-.18402556-4.152076.06900959-4.640894 2.12779556-.442812 2.9559105.161022 6.1073482-.316294 8.9827476-.701598-.0115016-1.397444-.0115016-2.093291-.0115016-.023003-4.3706071-.011502-8.7354633-.011502-13.10607031zm8.718211 3.06517572c1.742492-4.10031949 8.631949-4.62939297 10.690735-.56357828.776358 1.55271567.839617 3.32396167.816613 5.02044727-3.277955.1092652-6.63067-.1667731-9.856869.1380192.299042 1.3111821 1.0754 2.6223642 2.403834 3.0939297 2.15655.8051118 4.537381.3680511 6.682428-.2587859.057508.7246006.034505 1.4492012-.07476 2.1623003-3.105431 1.0293929-7.033227 1.1501597-9.598083-1.173163-2.081789-2.2083067-2.248562-5.7335463-1.063898-8.41916929zm1.604473 2.55335459c2.44984 0 4.899681-.0115016 7.349521 0 .414057-1.598722-.971885-3.70926513-2.783387-3.73226833-2.346326-.62683706-4.479872 1.45495203-4.566134 3.73226833z" fill="#0052cc"/><path d="m11.5533546 15.1821086c-.1035143-.1610223-.2012779-.3277955-.2990415-.4888179.7188498-.4830671 1.1616613-1.2824281 1.8402556-1.8230032.5463259-.5233226 1.0869009-1.0581469 1.6217252-1.5929712-1.1156549-1.1559105-2.4038338-2.15654953-3.4044728-3.41022365-1.67923324-1.84600639-1.97252398-4.44536741-.9776358-6.69968051.2645367-.26453674.7878594-.79361022 1.0466454-1.06389776 3.6805112 3.6057508 7.4587859 7.11948881 11.0702875 10.78849842l.0632588.5463259c-1.5642173 2.0472843-3.6632588 3.6977635-5.486262 5.5380191-.4830671.4773163-.9891374.9373802-1.5067092 1.3801917l.0115015.1667732c-1.2421725.9948882-2.2888178 2.2198083-3.542492 3.1859425 1.0638978-1.9897764 1.3456869-4.8479233-.4370607-6.5271566z" fill="url(#a)"/><path d="m5.76230032 5.31373802c1.47795527-1.43194888 3.17444089-2.62236422 4.57188498-4.14632588-.99488818 2.2543131-.70159744 4.85367412.9776358 6.69968051-.4888179.48306709-.9086262 1.05814697-1.48945688 1.43769968-.72460064.58083067-1.28242812 1.34568687-1.98402556 1.95527157 1.08690096 1.1961661 2.37507984 2.1968051 3.41597444 3.4332268.0977636.1610224.1955272.3277956.2990415.4888179 1.7827476 1.6792333 1.5009585 4.5373802.4370607 6.5271566-.1552715.2070287-.4658147.6210862-.626837.828115-3.7207668-3.3527157-7.24025562-6.9527157-10.86900961-10.4146965-.64408946-.4428115-.55782748-1.3859425.09201278-1.7769968 1.70223642-1.70223642 3.50798722-3.32396166 5.17571885-5.03194888z" fill="url(#b)"/></g></svg>