<?xml version="1.0" encoding="UTF-8"?>
<svg width="180px" height="90px" viewBox="0 0 180 90" version="1.1" xmlns="http://www.w3.org/2000/svg" xmlns:xlink="http://www.w3.org/1999/xlink">
    <!-- Generator: Sketch 55.2 (78181) - https://sketchapp.com -->
    <title>logo_noteyoudao</title>
    <desc>Created with Sketch.</desc>
    <defs>
        <path d="M5.5208059,0 L33.7360893,0 C36.7850383,0 39.2564885,2.4864169 39.2564885,5.55614785 L39.2564885,33.9560473 C39.2564885,37.0245562 36.7862583,39.5121951 33.7360893,39.5121951 L5.5208059,39.5121951 C2.47185697,39.5121951 0,37.0253709 0,33.9560473 L0,5.55614785 C0,2.48763892 2.4706369,0 5.5208059,0 Z" id="path-1"></path>
        <linearGradient x1="51.6666667%" y1="20.1851852%" x2="51.6666667%" y2="115%" id="linearGradient-3">
            <stop stop-color="#3B9FFF" offset="0%"></stop>
            <stop stop-color="#397EFF" offset="100%"></stop>
        </linearGradient>
        <path d="M5.5208059,0 C2.4706369,0 0,2.48763892 0,5.55614785 L0,33.9560473 C0,37.0253709 2.47185697,39.5121951 5.5208059,39.5121951 L33.7360893,39.5121951 C36.7862583,39.5121951 39.2564885,37.0245562 39.2564885,33.9560473 L39.2564885,5.55614785 C39.2564885,2.4864169 36.7850383,0 33.7360893,0 L5.5208059,0 Z" id="path-4"></path>
        <linearGradient x1="50%" y1="0%" x2="50%" y2="94.1565979%" id="linearGradient-6">
            <stop stop-color="#3B9FFF" offset="0%"></stop>
            <stop stop-color="#397EFF" offset="100%"></stop>
        </linearGradient>
        <path d="M10.1041932,1.01998491 L1.65563174,9.4817048 C0.889429283,10.2499522 1.03217719,10.8304149 1.03217719,10.8304149 C1.03217719,10.8304149 0.262721224,17.1140759 0.0593766234,19.0171788 C-0.143967978,20.9198743 1.60601566,20.5667086 1.60601566,20.5667086 C1.60601566,20.5667086 9.11878527,19.8913352 9.74223981,19.77565 C10.3665077,19.6607794 10.5137292,19.6318582 11.2327558,18.9120845 C11.9509688,18.1919035 18.4238341,11.709052 19.7288999,10.4018909 C21.0335588,9.09513704 19.5930656,7.87636912 19.5930656,7.87636912 L12.8249439,1.09737994 C12.8249439,1.09737994 12.2466319,0.388604476 11.418206,0.388604476 C11.0249375,0.388604476 10.5751393,0.548282625 10.1041932,1.01998491 Z" id="path-7"></path>
        <path d="M0.455491905,16.0961277 C0.336331969,16.215479 0.376187511,16.1947046 0.385948051,16.2044808 C0.84510016,16.6554086 1.61536951,16.4998038 1.61536951,16.4998038 C1.61536951,16.4998038 9.12813912,15.8248379 9.75200036,15.7091526 C10.3758616,15.5938748 10.5230831,15.5649535 11.2417029,14.8451797 C11.9603227,14.125406 18.433188,7.64214735 19.737847,6.33498617 C21.0429126,5.02823234 19.6020128,3.80946442 19.6020128,3.80946442 L16.1622356,0.364163942 C16.1622356,0.364163942 0.575058531,15.9767765 0.455491905,16.0961277 Z" id="path-9"></path>
        <path d="M9.60233873,0.193080211 C9.54621562,0.347870254 9.47789183,0.528322857 9.39858745,0.731993965 C9.1704348,1.31815942 8.89835972,1.97357305 8.58154883,2.67949711 C7.67747875,4.69706311 6.60544601,6.71422177 5.37399111,8.59084737 C3.75577478,11.0568972 1.98504999,13.0866835 0.0817445294,14.5323409 L1.3180797,16.1824842 C3.43042342,14.5783707 5.34999644,12.3770933 7.0873727,9.72977622 C8.38471126,7.75253709 9.50676676,5.64087503 10.4535392,3.52921297 C10.7845842,2.79029419 11.0704868,2.10310787 11.3112468,1.48557706 C11.3958381,1.26764898 11.4686355,1.07416143 11.5300455,0.905929092 C11.567461,0.803278854 11.5930824,0.730771939 11.6073165,0.690445059 L9.66700231,0.0134422932 C9.65683508,0.0419562484 9.63528055,0.102650239 9.60233873,0.193080211 Z" id="path-11"></path>
        <path d="M15.7941818,0.0631380438 L1.22210105,0.0631380438 L0.195210817,0.0631380438 L0.195210817,1.09697259 L0.195210817,17.4032889 L2.24899129,17.4032889 L2.24899129,2.1303998 L14.7672915,2.1303998 L14.7672915,15.1576112 L14.7672915,15.2117878 L14.7729852,15.2663716 C14.7778655,15.3515061 14.7733919,15.4561931 14.7571244,15.5449937 L12.3047885,15.5449937 L10.6568838,15.5449937 L9.49375271,15.5449937 L9.49375271,17.6122554 L10.6568838,17.6122554 L12.3047885,17.6122554 L14.8864515,17.6122554 C15.8730795,17.6122554 16.4997876,16.9910586 16.7283469,16.1360473 C16.821072,15.788177 16.8405931,15.4496756 16.8222922,15.144169 C16.8218854,15.1356148 16.8214788,15.1274679 16.821072,15.1197285 L16.821072,1.09697259 L16.821072,0.0631380438 L15.7941818,0.0631380438 Z" id="path-13"></path>
        <path d="M1.83213485,0.256218255 C1.7548639,0.256218255 1.66213877,0.263957757 1.55599289,0.284324868 C1.38762356,0.316097561 1.21803415,0.374347498 1.05251165,0.469258235 C0.561637787,0.749509681 0.260281089,1.26764898 0.260281089,1.91328639 L0.260281089,2.57399548 L0.260281089,3.9365552 L0.260281089,7.82952477 L0.260281089,10.6202263 L0.260281089,12.7640684 L0.260281089,13.4406638 L0.260281089,13.7592054 C0.260281089,14.4810158 0.706419143,14.9352025 1.29001815,15.1527231 C1.54216545,15.2464119 1.77031809,15.2826653 1.95536168,15.2920342 L2.00701121,15.2936636 L2.81876286,15.2936636 L4.85871589,15.2936636 L7.74824266,15.2936636 L11.5328924,15.2936636 L12.8477185,15.2936636 L13.468733,15.2936636 C14.1076417,15.2936636 14.6058359,14.9600502 14.8587966,14.4529092 C14.9389144,14.2928237 14.9864971,14.1323309 15.0129318,13.9734674 C15.0291994,13.8748906 15.0357064,13.7893488 15.0357064,13.7184712 L15.0357064,12.9176365 L15.0357064,10.8980337 L15.0357064,7.8955142 L15.0357064,4.15285391 L15.0357064,2.81717878 L15.0357064,2.12428967 C15.0357064,1.3768167 14.6847337,0.79716872 14.1230959,0.487588635 C13.9360188,0.384531053 13.7444682,0.32139301 13.5541377,0.286361579 C13.4357911,0.264365099 13.3337122,0.256218255 13.2515609,0.256218255 L1.83213485,0.256218255 Z M2.31324818,12.7640684 L2.31324818,10.6202263 L2.31324818,7.82952477 L2.31324818,3.9365552 L2.31324818,2.57399548 L2.31324818,2.32307267 L12.981926,2.32307267 L12.981926,2.81717878 L12.981926,4.15285391 L12.981926,7.8955142 L12.981926,10.8980337 L12.981926,12.9176365 L12.981926,13.2264018 L12.8477185,13.2264018 L11.5328924,13.2264018 L7.74824266,13.2264018 L4.85871589,13.2264018 L2.81876286,13.2264018 L2.31324818,13.2264018 L2.31324818,12.7640684 Z" id="path-15"></path>
        <path d="M0.140714463,2.1303998 L3.36616652,2.1303998 C3.35640598,2.55240633 3.35640598,2.65342721 3.35640598,3.77728438 L3.35640598,6.94233341 L3.35640598,9.56276591 L3.35640598,11.2727885 L3.35640598,11.949384 C3.35274578,12.1758662 3.37796051,12.5025547 3.45563815,12.8919738 C3.5776449,13.5066533 3.80213734,14.1184813 4.15677033,14.6940558 C5.19626792,16.3828967 7.10160683,17.3837365 9.92687671,17.3837365 L16.0337217,17.3837365 L22.9576054,17.3837365 L25.0345672,17.3837365 L25.8182572,17.3837365 L25.8182572,15.316882 L25.0345672,15.316882 L22.9576054,15.316882 L16.0337217,15.316882 L9.92687671,15.316882 C7.79257179,15.316882 6.55623661,14.6671713 5.90228037,13.6056374 C5.68592172,13.2536937 5.54561395,12.8724214 5.46915637,12.487483 C5.44150151,12.3489867 5.42482726,12.2210812 5.41588009,12.1058034 C5.41059313,12.0385919 5.40896637,11.9921549 5.40937306,11.9701584 C5.40977975,11.8235152 5.40977975,11.8235152 5.40977975,11.2727885 L5.40977975,9.56276591 L5.40977975,6.94233341 L5.40977975,3.77728438 L5.40977975,2.00167966 C5.40977975,1.26764898 5.09215548,0.68881569 4.56752642,0.352758361 C4.38573635,0.235851144 4.19703256,0.159270807 4.00873546,0.112833795 C3.88916884,0.0830978124 3.78464971,0.069248177 3.70005836,0.0647674126 L0.140714463,0.0631380438 L0.140714463,2.1303998 Z" id="path-17"></path>
        <path d="M0.507954812,11.5249333 C0.466879203,11.5811465 0.392455079,11.7037566 0.319251023,11.8581393 C0.182603451,12.1457229 0.0980120974,12.4479708 0.101938629,12.7783253 C0.1167198,14.0484184 1.23592848,14.6040332 2.97411813,14.4366155 C4.01849599,14.3364094 6.80472371,14.0516772 10.8008518,13.6386322 C10.8545348,13.632522 10.8545348,13.632522 10.9078111,13.6272265 C12.699277,13.4418858 14.6127497,13.2431028 16.5213421,13.0447272 C17.1891258,12.9750717 17.8089201,12.9103042 18.3644575,12.8524616 L18.8809528,12.7986925 C19.0314279,12.7832134 19.0314279,12.7832134 19.0631496,12.7795474 L18.8516712,10.7236912 C18.8195427,10.7273573 18.8195427,10.7273573 18.6690678,10.7428363 C18.4624697,10.7644254 18.4624697,10.7644254 18.1529791,10.7966055 C17.5974417,10.8544481 16.9776474,10.9192155 16.3098638,10.988871 C14.401678,11.1872466 12.4890187,11.3856223 10.6975527,11.5713704 C10.6442765,11.5766659 10.6442765,11.5766659 10.5910002,11.5823686 C6.60137911,11.9950063 3.81596478,12.2797385 2.77890731,12.37913 C2.63575271,12.3929796 2.50723892,12.4007191 2.39336595,12.4019412 L9.76257428,1.21998994 L8.05122611,0.0778023635 L0.507954812,11.5249333 Z" id="path-19"></path>
        <path d="M3.83019889,0.450113151 C3.79766376,0.566613025 3.75740153,0.703072668 3.70981889,0.85786271 C3.57154457,1.30512446 3.39951503,1.80534071 3.19210354,2.34506915 C2.60037076,3.88889615 1.84636898,5.43190847 0.92115104,6.86616042 C0.738954279,7.14885592 0.551470557,7.4246266 0.357886497,7.69306512 L2.02287208,8.90327885 C2.23597723,8.60673372 2.44257534,8.30285642 2.64307312,7.99205431 C3.65206903,6.4278602 4.46788756,4.75897913 5.10801637,3.08969073 C5.33210211,2.50556198 5.51917915,1.96176012 5.67046753,1.47213477 C5.76278598,1.17314559 5.82378937,0.954810158 5.85551112,0.830978124 L3.86517417,0.320985667 C3.86070059,0.339316067 3.8489066,0.382901684 3.83019889,0.450113151 Z" id="path-21"></path>
        <path d="M3.65166234,0.450113151 C3.61872052,0.566613025 3.57845828,0.703072668 3.53087564,0.85786271 C3.393008,1.30512446 3.22097848,1.80534071 3.01356698,2.34506915 C2.42102081,3.88889615 1.66742572,5.43190847 0.742207792,6.86616042 C0.56001103,7.14885592 0.372527309,7.4246266 0.179349938,7.69306512 L1.84392884,8.90327885 C2.05744066,8.60673372 2.26403878,8.30285642 2.46453656,7.99205431 C3.47353247,6.4278602 4.28894431,4.75897913 4.92907312,3.08969073 C5.15356556,2.50556198 5.34064259,1.96176012 5.49193097,1.47213477 C5.58384274,1.17314559 5.6452528,0.954810158 5.67656787,0.830978124 L3.68623092,0.320985667 C3.68135065,0.339316067 3.66996335,0.382901684 3.65166234,0.450113151 Z" id="path-23"></path>
        <path d="M19.5837118,0.575167211 C17.7405963,0.840754338 14.8095873,1.12589389 11.098955,1.41795826 C8.75032485,1.60289163 6.23332539,1.77967815 3.71632592,1.94139301 C2.83462373,1.99842093 2.01677175,2.0493387 1.28269774,2.09333165 C1.02567017,2.109218 0.797517524,2.1226603 0.601493329,2.13406587 C0.483146771,2.14099069 0.402622309,2.14547146 0.360733321,2.14791551 L0.477453123,4.21151119 C0.519748799,4.20906714 0.601900018,4.20417903 0.720653265,4.19725421 C0.918304216,4.18584863 1.14727024,4.171999 1.40511119,4.15651999 C2.14243872,4.11211969 2.96313752,4.06120192 3.84727984,4.004174 C6.37363316,3.84164446 8.89957979,3.66404325 11.2591905,3.47870254 C15.0108984,3.18337943 17.9760693,2.8945738 19.8744945,2.62124717 C20.7529433,2.49456374 21.4003924,2.37236108 21.8266028,2.24445562 L21.2405636,0.263550415 C20.9359534,0.354795072 20.368622,0.462333417 19.5837118,0.575167211 Z" id="path-25"></path>
        <path d="M0.176909803,0.0704702037 L0.176909803,13.7543173 C0.176909803,13.8528942 0.187483722,13.9840583 0.215951966,14.1400705 C0.261094467,14.3918079 0.344465753,14.6451747 0.478266501,14.8899874 C0.874788472,15.6154639 1.60886248,16.0635404 2.59752393,16.0635404 L10.5397573,16.0635404 C10.7166671,16.0635404 10.9789817,16.0399145 11.3014863,15.9722957 C11.8281487,15.8627206 12.3548112,15.6647523 12.8517854,15.3523208 C13.0925454,15.2020115 13.3190714,15.0276691 13.5309564,14.8292934 C14.0250838,14.3653307 14.431773,13.8985165 14.7583444,13.4496254 C14.9629091,13.1685592 15.09915,12.946965 15.1743874,12.8043953 L13.3581135,11.8394015 C13.3284252,11.8956148 13.2446472,12.0316671 13.1018993,12.2288207 C12.8493453,12.575469 12.5268408,12.9449283 12.1299121,13.3180538 C12.0172592,13.4235554 11.8956591,13.5164295 11.766332,13.5983052 C11.48897,13.771833 11.1867998,13.8854815 10.8838164,13.9490269 C10.7788906,13.970616 10.6837253,13.9844657 10.6007607,13.9922052 C10.5592784,13.9958712 10.5381306,13.996686 10.5397573,13.996686 L2.59752393,13.996686 C2.36652446,13.996686 2.31690838,13.9665427 2.27745953,13.8940357 C2.2445177,13.8341564 2.23028358,13.755132 2.23028358,13.7543173 L2.23028358,0.0704702037 L0.176909803,0.0704702037 Z" id="path-27"></path>
        <path d="M0.352192848,0.0207744532 L0.352192848,2.08722152 L12.2010827,2.08722152 C12.2543591,2.08722152 12.3637585,2.09821976 12.4686842,2.12428967 L12.4686842,3.3943827 L12.4686842,5.98385718 L12.4686842,8.1965401 L12.4686842,10.0475031 C12.4434695,10.0475031 12.3783993,10.0576867 12.2767269,10.0576867 L10.4360516,10.0576867 L7.38384914,10.0576867 L6.86776054,10.0576867 L3.73747376,10.0576867 L2.35595055,10.0576867 L2.27908629,10.0605381 C2.20750898,10.0662409 2.11112365,10.0784612 1.99643729,10.102087 C1.80814019,10.1407845 1.61821633,10.1990345 1.4311393,10.2849837 C0.788570361,10.5811214 0.335518591,11.138773 0.335518591,11.9314609 L0.335518591,12.5673221 L0.335518591,13.7922001 L0.335518591,17.2252803 L0.335518591,19.9785064 L0.335518591,21.8310988 L0.335518591,22.5651295 C0.342432307,22.7272516 0.361953389,22.8628967 0.404249066,23.020538 C0.470946095,23.2706462 0.579532111,23.519125 0.742614481,23.7549761 C1.19647964,24.4112044 1.9545483,24.7969575 2.95297029,24.7969575 L7.99347625,24.7969575 L10.9261121,24.7969575 L12.6012649,24.7969575 L13.2588813,24.7969575 L13.3060572,24.7969575 L13.3532333,24.7924767 C13.4325376,24.785552 13.5431571,24.7688509 13.6769579,24.7395222 C13.8969767,24.6918632 14.1182156,24.6209857 14.3341676,24.5191501 C15.0617345,24.1765753 15.5656225,23.5578225 15.5656225,22.6763339 L15.5656225,20.3915515 L15.5656225,19.1784863 L15.5656225,17.8855821 L13.5122487,17.8855821 L13.5122487,19.1784863 L13.5122487,20.3915515 L13.5122487,22.62175 C13.4996413,22.6290822 13.4829671,22.6380438 13.4638527,22.6474126 C13.3695008,22.6918129 13.2605081,22.7195122 13.1966579,22.7301031 L12.6012649,22.7301031 L10.9261121,22.7301031 L7.99347625,22.7301031 L2.95297029,22.7301031 C2.61663832,22.7301031 2.49219143,22.666965 2.42834122,22.5740911 C2.41085359,22.5488358 2.39661946,22.5182851 2.38848568,22.4885491 L2.38848568,21.8310988 L2.38848568,19.9785064 L2.38848568,17.2252803 L2.38848568,13.7922001 L2.38848568,12.5673221 L2.38848568,12.1310586 C2.39336595,12.1298366 2.3990596,12.1286146 2.40434655,12.1277999 C2.40515993,12.1277999 2.40597331,12.1265778 2.40638,12.1245411 L3.73747376,12.1245411 L6.86776054,12.1245411 L7.38384914,12.1245411 L10.4360516,12.1245411 L12.2767269,12.1245411 C13.1385013,12.1245411 13.8026248,11.780337 14.1906063,11.1917274 C14.3301007,10.9799095 14.4203857,10.7570933 14.4724419,10.5346844 C14.5057904,10.393744 14.5196179,10.2715414 14.522058,10.1741866 L14.522058,8.1965401 L14.522058,5.98385718 L14.522058,3.3943827 L14.522058,1.89454865 C14.522058,0.991063616 13.9453727,0.42974604 13.1633093,0.175564496 C12.9481708,0.105501634 12.729372,0.0627307016 12.5130134,0.0395121951 C12.3828728,0.0256625597 12.2759135,0.0207744532 12.2010827,0.0207744532 L0.352192848,0.0207744532 Z" id="path-29"></path>
        <path d="M0.313964064,0.263550415 L0.313964064,2.33040483 L3.39341469,2.33040483 C3.39056787,2.33040483 3.42432307,2.33610762 3.45807828,2.34629118 C3.43896389,2.57888358 3.43896389,2.59558461 3.43896389,3.12838823 L3.43896389,4.67710334 L3.43896389,8.99941162 L3.43896389,12.4931858 L3.43896389,14.8260346 L3.43896389,15.7507016 L3.43896389,15.8264672 L3.44994449,15.9014182 C3.49020673,16.1747448 3.61384024,16.4949157 3.88225511,16.8020518 C4.44429959,17.4476892 5.36341718,17.6790596 6.55135635,17.4183606 C7.30291799,17.2537943 7.874723,17.1275183 8.29157943,17.0350515 C8.43758086,17.0024641 8.55389397,16.9768016 8.64377228,16.9564345 C8.69786194,16.9446216 8.73080378,16.936882 8.74747803,16.933216 L8.29483294,14.9172794 C8.2814122,14.9201307 8.24928376,14.9270556 8.19682085,14.9392758 C8.1085693,14.9592356 7.99388294,14.9844908 7.8486949,15.0170782 C7.43427859,15.1091375 6.86410034,15.234599 6.11457214,15.3991652 C5.8298897,15.4610812 5.62613841,15.4700427 5.49274435,15.4468242 L5.49274435,14.8260346 L5.49274435,12.4931858 L5.49274435,8.99941162 L5.49274435,4.67710334 L5.49274435,3.12838823 L5.49274435,2.31451849 C5.49274435,1.44687956 5.04538623,0.811018355 4.36702864,0.489218004 C4.15351681,0.387789792 3.93593809,0.325873774 3.71998612,0.29206437 C3.58821882,0.271289917 3.47678598,0.263550415 3.39341469,0.263550415 L0.313964064,0.263550415 Z" id="path-31"></path>
    </defs>
    <g id="logo_noteyoudao" stroke="none" stroke-width="1" fill="none" fill-rule="evenodd">
        <g id="logo" transform="translate(0.000000, 25.000000)">
            <g id="Group-3">
                <g id="Fill-1-Clipped">
                    <mask id="mask-2" fill="white">
                        <use xlink:href="#path-1"></use>
                    </mask>
                    <g id="path-1"></g>
                    <polygon id="Fill-1" fill="url(#linearGradient-3)" fill-rule="nonzero" mask="url(#mask-2)" points="-403.435688 351.128992 377.407578 351.128992 377.407578 -88.8006035 -403.435688 -88.8006035"></polygon>
                </g>
            </g>
            <g id="Group-6">
                <g id="Fill-4-Clipped">
                    <mask id="mask-5" fill="white">
                        <use xlink:href="#path-4"></use>
                    </mask>
                    <g id="path-4"></g>
                    <path d="M5.5208059,0 C2.4706369,0 0,2.48763892 0,5.55614785 L0,33.9560473 C0,37.0253709 2.47185697,39.5121951 5.5208059,39.5121951 L33.7360893,39.5121951 C36.7862583,39.5121951 39.2564885,37.0245562 39.2564885,33.9560473 L39.2564885,5.55614785 C39.2564885,2.4864169 36.7850383,0 33.7360893,0 L5.5208059,0 Z" id="Fill-4" fill="url(#linearGradient-6)" fill-rule="nonzero" mask="url(#mask-5)"></path>
                </g>
            </g>
            <g id="Group-9" transform="translate(10.573919, 7.739502)">
                <g id="Fill-7-Clipped">
                    <mask id="mask-8" fill="white">
                        <use xlink:href="#path-7"></use>
                    </mask>
                    <g id="path-7"></g>
                    <polygon id="Fill-7" fill="#FFFFFF" fill-rule="nonzero" mask="url(#mask-8)" points="11.4295934 -3.18794166 23.8010789 9.2034086 5.1259107 27.9085633 -7.24516812 15.517213"></polygon>
                </g>
            </g>
            <g id="Group-12" transform="translate(10.573919, 11.812925)">
                <g id="Fill-10-Clipped">
                    <mask id="mask-10" fill="white">
                        <use xlink:href="#path-9"></use>
                    </mask>
                    <g id="path-9"></g>
                    <polygon id="Fill-10" fill="#EBF4FF" fill-rule="nonzero" mask="url(#mask-10)" points="16.1647164 -2.51863766 23.8092533 5.138174 5.1320517 23.8453653 -2.51248522 16.1885536"></polygon>
                </g>
            </g>
            <polygon id="Fill-13" fill="#23314F" fill-rule="nonzero" points="44.5137599 12.2854413 68.8305206 12.2854413 68.8305206 10.2185869 44.5137599 10.2185869"></polygon>
            <polygon id="Fill-14" fill="#23314F" fill-rule="nonzero" points="49.7100277 22.4258185 64.9572125 22.4258185 64.9572125 20.3593714 49.7100277 20.3593714"></polygon>
            <polygon id="Fill-15" fill="#23314F" fill-rule="nonzero" points="80.888042 19.9675082 93.7085123 19.9675082 93.7085123 17.9006537 80.888042 17.9006537"></polygon>
            <polygon id="Fill-16" fill="#23314F" fill-rule="nonzero" points="80.888042 24.2694493 93.7085123 24.2694493 93.7085123 22.2030023 80.888042 22.2030023"></polygon>
            <polygon id="Fill-17" fill="#23314F" fill-rule="nonzero" points="49.7100277 27.342439 64.9572125 27.342439 64.9572125 25.2755846 49.7100277 25.2755846"></polygon>
            <g id="Group-20" transform="translate(43.515744, 6.517475)">
                <g id="Fill-18-Clipped">
                    <mask id="mask-12" fill="white">
                        <use xlink:href="#path-11"></use>
                    </mask>
                    <g id="path-11"></g>
                    <polygon id="Fill-18" fill="#23314F" fill-rule="nonzero" mask="url(#mask-12)" points="-1.95210817 18.2191953 13.6403558 18.2191953 13.6403558 -2.02286146 -1.95210817 -2.02286146"></polygon>
                </g>
            </g>
            <g id="Group-23" transform="translate(49.209393, 15.071662)">
                <g id="Fill-21-Clipped">
                    <mask id="mask-14" fill="white">
                        <use xlink:href="#path-13"></use>
                    </mask>
                    <g id="path-13"></g>
                    <polygon id="Fill-21" fill="#23314F" fill-rule="nonzero" mask="url(#mask-14)" points="-1.83823519 19.6485592 18.8622451 19.6485592 18.8622451 -1.97357305 -1.83823519 -1.97357305"></polygon>
                </g>
            </g>
            <polygon id="Fill-24" fill="#23314F" fill-rule="nonzero" points="81.4994179 7.51061655 83.2961708 10.8695605 85.1043109 9.8894951 83.3075581 6.53095852"></polygon>
            <polygon id="Fill-25" fill="#23314F" fill-rule="nonzero" points="88.835237 10.0013513 90.6108421 11.0400739 92.6145998 7.56911089 90.8394014 6.53120292"></polygon>
            <polygon id="Fill-26" fill="#23314F" fill-rule="nonzero" points="78.7484501 11.6707619 95.6606206 11.6707619 95.6606206 9.60390746 78.7484501 9.60390746"></polygon>
            <polygon id="Fill-27" fill="#23314F" fill-rule="nonzero" points="84.8617209 13.3118215 86.8154558 13.9484973 87.9094497 10.5480045 85.9557148 9.91132864"></polygon>
            <g id="Group-30" transform="translate(79.711084, 13.034951)">
                <g id="Fill-28-Clipped">
                    <mask id="mask-16" fill="white">
                        <use xlink:href="#path-15"></use>
                    </mask>
                    <g id="path-15"></g>
                    <polygon id="Fill-28" fill="#23314F" fill-rule="nonzero" mask="url(#mask-16)" points="-1.77316492 17.3303746 17.0691525 17.3303746 17.0691525 -1.78049283 -1.77316492 -1.78049283"></polygon>
                </g>
            </g>
            <polygon id="Fill-31" fill="#23314F" fill-rule="nonzero" points="72.6351794 8.81097511 75.3339689 13.4114981 77.1022535 12.3609625 74.403464 7.76043953"></polygon>
            <g id="Group-34" transform="translate(71.577300, 15.071662)">
                <g id="Fill-32-Clipped">
                    <mask id="mask-18" fill="white">
                        <use xlink:href="#path-17"></use>
                    </mask>
                    <g id="path-17"></g>
                    <polygon id="Fill-32" fill="#23314F" fill-rule="nonzero" mask="url(#mask-18)" points="-1.89273154 19.4204476 27.8512966 19.4204476 27.8512966 -1.97316571 -1.89273154 -1.97316571"></polygon>
                </g>
            </g>
            <polygon id="Fill-35" fill="#23314F" fill-rule="nonzero" points="72.0238848 30.7986562 73.5579165 32.1722143 77.0822851 28.1863707 75.5478468 26.811998"></polygon>
            <polygon id="Fill-36" fill="#23314F" fill-rule="nonzero" points="102.590198 10.7489464 120.37309 10.7489464 120.37309 8.68209203 102.590198 8.68209203"></polygon>
            <polygon id="Fill-37" fill="#23314F" fill-rule="nonzero" points="99.5335218 18.7385567 123.08408 18.7385567 123.08408 16.6721096 99.5335218 16.6721096"></polygon>
            <g id="Group-40" transform="translate(101.265611, 17.515715)">
                <g id="Fill-38-Clipped">
                    <mask id="mask-20" fill="white">
                        <use xlink:href="#path-19"></use>
                    </mask>
                    <g id="path-19"></g>
                    <polygon id="Fill-38" fill="#23314F" fill-rule="nonzero" mask="url(#mask-20)" points="-1.93136702 16.5026553 21.0965956 16.5026553 21.0965956 -1.95890873 -1.93136702 -1.95890873"></polygon>
                </g>
            </g>
            <polygon id="Fill-41" fill="#23314F" fill-rule="nonzero" points="114.816413 23.0771587 121.411286 32.6028564 123.096607 31.421564 116.501734 21.8954589"></polygon>
            <g id="Group-44" transform="translate(126.073652, 6.517475)">
                <g id="Fill-42-Clipped">
                    <mask id="mask-22" fill="white">
                        <use xlink:href="#path-21"></use>
                    </mask>
                    <g id="path-21"></g>
                    <polygon id="Fill-42" fill="#23314F" fill-rule="nonzero" mask="url(#mask-22)" points="-1.67515282 10.9399899 7.88895712 10.9399899 7.88895712 -1.71613276 -1.67515282 -1.71613276"></polygon>
                </g>
            </g>
            <g id="Group-47" transform="translate(137.867639, 6.517475)">
                <g id="Fill-45-Clipped">
                    <mask id="mask-24" fill="white">
                        <use xlink:href="#path-23"></use>
                    </mask>
                    <g id="path-23"></g>
                    <polygon id="Fill-45" fill="#23314F" fill-rule="nonzero" mask="url(#mask-24)" points="-1.85409607 10.9399899 7.71001388 10.9399899 7.71001388 -1.71613276 -1.85409607 -1.71613276"></polygon>
                </g>
            </g>
            <polygon id="Fill-48" fill="#23314F" fill-rule="nonzero" points="129.794452 11.3632185 138.345906 11.3632185 138.345906 9.2963641 129.794452 9.2963641"></polygon>
            <polygon id="Fill-49" fill="#23314F" fill-rule="nonzero" points="142.021156 11.3632185 151.601534 11.3632185 151.601534 9.2963641 142.021156 9.2963641"></polygon>
            <polygon id="Fill-50" fill="#23314F" fill-rule="nonzero" points="131.934125 10.4368816 133.876879 14.8785411 135.756597 14.0459336 133.813436 9.60386673"></polygon>
            <polygon id="Fill-51" fill="#23314F" fill-rule="nonzero" points="144.160666 10.1864883 145.930985 13.9230385 147.784675 13.0329957 146.014356 9.29644557"></polygon>
            <g id="Group-54" transform="translate(127.293720, 14.256978)">
                <g id="Fill-52-Clipped">
                    <mask id="mask-26" fill="white">
                        <use xlink:href="#path-25"></use>
                    </mask>
                    <g id="path-25"></g>
                    <polygon id="Fill-52" fill="#23314F" fill-rule="nonzero" mask="url(#mask-26)" points="-1.67230599 6.24822228 23.8600487 6.24822228 23.8600487 -1.77316067 -1.67230599 -1.77316067"></polygon>
                </g>
            </g>
            <polygon id="Fill-55" fill="#23314F" fill-rule="nonzero" points="126.126482 25.0271465 126.255809 27.090335 151.413196 25.4943682 151.284682 23.4315871"></polygon>
            <polygon id="Fill-56" fill="#23314F" fill-rule="nonzero" points="127.960609 20.5842243 128.10295 22.6461906 148.835152 21.1915715 148.692811 19.1300126"></polygon>
            <g id="Group-59" transform="translate(136.647572, 16.293689)">
                <g id="Fill-57-Clipped">
                    <mask id="mask-28" fill="white">
                        <use xlink:href="#path-27"></use>
                    </mask>
                    <g id="path-27"></g>
                    <polygon id="Fill-57" fill="#23314F" fill-rule="nonzero" mask="url(#mask-28)" points="-1.85612951 18.1002514 17.2074267 18.1002514 17.2074267 -1.96583354 -1.85612951 -1.96583354"></polygon>
                </g>
            </g>
            <polygon id="Fill-60" fill="#23314F" fill-rule="nonzero" points="155.469961 8.91729143 159.454702 12.9120965 160.903735 11.4477012 156.919401 7.45289615"></polygon>
            <g id="Group-63" transform="translate(163.082370, 7.739502)">
                <g id="Fill-61-Clipped">
                    <mask id="mask-30" fill="white">
                        <use xlink:href="#path-29"></use>
                    </mask>
                    <g id="path-29"></g>
                    <polygon id="Fill-61" fill="#23314F" fill-rule="nonzero" mask="url(#mask-30)" points="-1.6983341 26.8336686 17.5990684 26.8336686 17.5990684 -2.01593664 -1.6983341 -2.01593664"></polygon>
                </g>
            </g>
            <g id="Group-66" transform="translate(153.321829, 14.256978)">
                <g id="Fill-64-Clipped">
                    <mask id="mask-32" fill="white">
                        <use xlink:href="#path-31"></use>
                    </mask>
                    <g id="path-31"></g>
                    <polygon id="Fill-64" fill="#23314F" fill-rule="nonzero" mask="url(#mask-32)" points="-1.71948194 19.5601659 10.7805173 19.5601659 10.7805173 -1.77316067 -1.71948194 -1.77316067"></polygon>
                </g>
            </g>
        </g>
    </g>
</svg>