<svg height="90" viewBox="0 0 180 90" width="180" xmlns="http://www.w3.org/2000/svg"><g fill="#333" transform="translate(0 31)"><path d="m142.830061.998323c1.069397-1.49289099 3.835816-1.27852716 4.47715.51753555.234597.85745534.172139 1.90783813-.517942 2.54633613-1.017603.92176449-2.778605.90951513-3.756601-.06584032-.420447-.40729129-.501185-1.01363471-.648951-1.55107547.095972-.49456799.141672-1.0243529.446344-1.44695589z"/><path d="m5.48713609 2.6198323c1.74424509-.84826832 3.74289099-.96157492 5.63947191-.72730587 1.7015911.32307692 3.2950237 1.18053226 4.5121869 2.419249-.6992214 1.00751002-1.5370684 1.90783813-2.2789439 2.88166241-.6459038-.3292016-1.1607989-.87889172-1.84174-1.14531535-1.53249827-.6124681-3.41993903-.44710171-4.71479346.62471747-1.33598511 1.06569449-1.95446852 2.82347794-2.00016927 4.49704704-.07312119 1.6123223.06398105 3.354794 1.01150982 4.7190667.77386595 1.2157492 2.20734597 1.8909953 3.61797563 1.9384615.85917398.0934014 1.75338528 0 2.50897088-.450164.0091402-1.0748815.0198037-2.149763-.0060934-3.2246446-1.0358836.0061247-2.07024377.0091871-3.10612731-.0015311-.01066351-1.2065622-.01218687-2.4146555.00152335-3.6212177 2.36729856-.018374 4.73612056-.009187 7.10341906-.0045935-.0198036 2.985782.0076168 5.971564-.0137102 8.957346-2.3322613 2.1375137-5.7628639 2.7239519-8.77911305 2.0395188-2.44803656-.4823187-4.66147597-2.0915786-5.80247123-4.334743-1.2704807-2.5371491-1.46851726-5.5413052-.84394042-8.2882246.62000677-2.70098432 2.44194313-5.14932555 4.99204469-6.2793292z"/><path d="m84.1244076 2.81735326c1.2263033-.00306234 2.4556533-.05359096 3.6804333.03062341.0350372 1.29230769.0060934 2.58614655.0182803 3.87998542 1.1577522-.00918703 2.3170278-.01378054 3.4763033.00153117-.0137102 1.16522056 0 2.33044112-.0076168 3.49566164-1.1516587-.0061246-2.3033175-.0107182-3.4549763.0030624-.0350372 1.9491797-.0060934 3.8998906-.0152336 5.8506015.0274205.7717098.2787746 1.7072548 1.0617807 2.0288006.7098849.1577105 1.4624238.071965 2.1494583-.1653664.322952 1.0687568.446344 2.1880423.7464455 3.264455-1.3268449.5450966-2.7953622.6400291-4.2120853.5450966-1.2872376-.1469924-2.5958023-.7487423-3.2858835-1.8955888-.6596141-.989136-.8454638-2.1926358-.9140149-3.3563252-.080738-2.0915785.0609343-4.1877506-.0761679-6.2762668-.6367637-.0061247-1.2735275 0-1.9102912-.0030624-.042654-.49150562-.0594109-.98607361-.0167569-1.47757926-.5484089.75027342-1.1029113 1.49595336-1.6696005 2.23091506-.8317536-.4654758-1.6238998-1.09631791-2.6034191-1.18665695-.6017265-.03981043-1.3253216-.10871309-1.7868992.36441855-.434157.4103536-.2391672 1.1897193.2726812 1.448487 1.3999661.8161138 3.0665199 1.0718192 4.3903182 2.0349253 1.0541638.7074006 1.7335816 1.9369304 1.7777589 3.2078017-.0060934 1.2264673-.4174001 2.4927451-1.3146581 3.354794-1.0602572 1.0121035-2.5318212 1.4607364-3.9622545 1.5709807-2.3033176.1500547-4.7132702-.5558148-6.460562-2.0961721.6794178-.9416697 1.3283683-1.906307 2.0397766-2.8250091.8759309.6446227 1.8265064 1.2402479 2.9004739 1.4714546.8667908.0489974 1.960562.2327379 2.5333447-.6032811-.016757-.3552315.0959715-.791615-.2269804-1.0442581-.697698-.6706526-1.6726473-.9033904-2.5394381-1.2724025-1.2141164-.5114108-2.4785037-1.1254101-3.2386594-2.2554138-1.0617806-1.6123222-.7601557-3.96266857.6443805-5.27794382.7647258-.76252278 1.799086-1.17746992 2.8441097-1.37652205 2.2210562-.46241342 4.5624577.18833394 6.3904875 1.49595333.00457-.35829384.0091401-.71505651.021327-1.07335034.7312119-.12861831 1.476134-.14546118 2.2134394-.22508203.187373-1.28771418.3168585-2.58461539.5346987-3.86926723z"/><path d="m18.263541 8.27597521c1.7305348-1.01363471 3.6469194-1.76850164 5.6577522-1.91396281 1.6696005-.09340139 3.5113405.18833394 4.7574475 1.40561429 1.3359851 1.31374407 1.7213947 3.29048491 1.6909275 5.10032811.0152336 2.8525702.0213271 5.7051404-.0030467 8.5561794-1.2019296-.0122494-2.4053825-.0107182-3.6088354 0-.1294855-.467007-.2178403-.9432009-.3381856-1.411739-.8226134.6170616-1.6665538 1.2632154-2.6734935 1.5388261-1.3984428.4210718-3.0299594.3092964-4.2379824-.566533-1.8813473-1.3795844-2.2789438-4.3041196-.9719025-6.205833.735782-.9921984 1.8615436-1.5970106 3.0025389-1.9935837 1.4106297-.4486329 2.8730535-.7227124 4.3430941-.8819541.0060934-.8497995-.5773527-1.7026613-1.4289099-1.8741524-1.6254232-.30317166-3.1594449.5144733-4.5411307 1.2693402-.4250169-.5527525-.6824645-1.2080933-1.0374069-1.80524974-.2315505-.39044841-.4478673-.79161502-.6108666-1.21728035zm4.3476641 7.57469919c-.6123899.5052862-.7251184 1.5403573-.0898781 2.0732046.8210901.5803135 1.9453284.350638 2.700914-.2327379.2787746-.2342691.6961747-.4562887.7022681-.8712359.0182803-.7135253 0-1.4270507-.0015233-2.140576-1.1531821.1898651-2.3840555.3996354-3.3117807 1.1713452z"/><path d="m36.9368653 8.52708713c1.1013879-1.08406854 2.4449898-2.10382792 4.0475626-2.16813708 1.3161814-.0872767 2.7801286.23733139 3.6712932 1.28618302.2711577.32154575.4752877.69055778.7144549 1.03660226.8241368-.76099162 1.6619838-1.57404302 2.7252878-1.98439665 1.4609005-.58031353 3.2310426-.45628873 4.5350372.45322639 1.1394719.87123588 1.6604604 2.32278528 1.7853758 3.71461903.0396073.7165877.1675694 1.4285818.1538592 2.1482319-.0106636 2.7897922.0060934 5.5795844-.0091402 8.3693766-1.4852742.0780896-2.9735951.0076558-4.4588693.0383991-.0304672-2.3428104-.0060935-4.6855009-.0137103-7.0281913-.0091401-1.0779439.0700745-2.18498-.2635409-3.2261758-.1904198-.6002187-.795193-.9876048-1.407583-.9952606-.9901828.1102442-1.8188896.7518046-2.4906905 1.4500182.0060934 3.2629238.0182803 6.5258476-.0076168 9.7887714-1.4791808.009187-2.9598849.0108381-4.4390657 0-.0411307-3.0546846.0182803-6.1109004-.0304672-9.1655851.0106635-.8253008-.310765-1.8481225-1.2339201-2.0180824-1.0968178-.1913963-2.0534868.6277798-2.7846987 1.3520233-.0015233 3.273642.0258971 6.547284-.0137102 9.8193949-1.4883209.0336857-2.9766419.0199052-4.4634394.009187-.0198037-4.8890266-.0182803-9.7765221-.0015234-14.66401751 1.2293501-.03827926 2.4617468-.02756107 3.6910968-.00765585.0624577.60174991.1477658 1.20196864.2940082 1.79146919z"/><path d="m59.6150982 7.41086402c2.4983074-1.64294568 6.2655721-1.40867663 8.2444143.95545023 1.5812458 1.95530445 1.7381517 4.65475755 1.3862559 7.05257015-2.8806702.0275611-5.7628639-.0122493-8.6420108.0183741.2315505 1.2907765 1.1775559 2.4360918 2.4708869 2.7392636 1.4974611.4899744 3.023866-.1423989 4.350711-.8145826.4570074.7303682.8302301 1.5082027 1.2598171 2.2554138.076168.1837404.2894381.4302588.0624577.5895005-2.5501015 1.7271601-6.0462085 2.149763-8.817197.701276-2.1311781-1.0917244-3.4625931-3.4191032-3.6088355-5.7847612-.4006432-2.9000365.7692959-6.11702518 3.2935004-7.71250458zm2.7359512 2.57389719c-.9734258.37054319-1.6193297 1.35661689-1.7457684 2.37331389 1.6604604.0153117 3.3224441-.0045935 4.9829045.0107182-.0152336-.7609916-.2376439-1.5878236-.8424171-2.0915786-.6733243-.50987967-1.6178063-.60940573-2.394719-.29245349z"/><path d="m97.7889303 6.42479038c1.7655721-.25570544 3.6438727.13321181 5.1062967 1.17900109 1.524881 1.04885162 2.545531 2.74998173 2.895904 4.55982503.333615 1.9231498.234597 3.9963543-.679418 5.7541378-.744922 1.6031352-2.176879 2.8357273-3.816012 3.4497266-1.9757958.6874954-4.2699732.5496901-6.0751526-.548159-1.6665538-.9569814-2.8502031-2.6703609-3.2660799-4.5429821-.2056533-1.1131608-.40826-2.266132-.1782329-3.3930733.2178402-1.906307 1.1044347-3.76667882 2.615606-4.97324098.9703791-.80233321 2.1646919-1.28005833 3.3970887-1.48523514zm.2239336 3.76361652c-.7159783.2710171-1.1668923.9508567-1.4030129 1.6506015-.3930264 1.0565075-.3259986 2.2018228-.2757278 3.3073277.1660461 1.0886621.5651659 2.3809698 1.6939743 2.8051039 1.0358835.4915057 2.3398785-.0949325 2.8197355-1.1024426.609344-1.1820634.58954-2.5509296.507279-3.8447685-.126439-.7563981-.313812-1.5418884-.795193-2.1543565-.5895399-.7364929-1.6756942-1.06110098-2.5470551-.6614655z"/><path d="m114.370684 6.70040102c1.064827-.47772512 2.310934-.4578199 3.398612-.06277798-.158429 1.32139993-.435681 2.62901932-.725119 3.92592056-.86679-.2082392-1.829553-.4118848-2.67197-.0030624-.967332.4471017-1.67417 1.3658039-2.012356 2.3641269-.057888 2.8204156.01371 5.6454247-.036561 8.4673715-1.489844.0489974-2.981211.0199052-4.472579.0168429-.012187-4.8905578-.02285-9.7826468.006093-14.67473573 1.23392-.01378054 2.470887-.03521692 3.706331.01378053.044177.80845789.153859 1.60772876.258971 2.41006197.61696-1.01669704 1.43348-1.98439664 2.548578-2.45752825z"/><path d="m122.567874 8.5286183c1.057211-1.05191396 2.338355-2.02573824 3.870853-2.16048122 1.162322-.09340139 2.406906.09033904 3.359005.8130514.522512.3858549.84851.96157492 1.188219 1.50207802.836324-.75486694 1.669601-1.57863653 2.740522-1.98745899 1.482227-.58643821 3.285883-.45322639 4.589878.4991615 1.226303.98148013 1.689404 2.60911411 1.762525 4.12650379.170616 1.2218739.094448 2.4559971.109682 3.6855268-.00457 2.1267955.00914 4.253591-.007617 6.3803865-1.485274.0673715-2.972072.0045935-4.457346.0352169-.025897-2.3426905-.00457-4.685381-.012187-7.0265403-.007617-1.0871309.070075-2.203354-.265064-3.2537368-.236121-.6936201-1.04807-1.1162231-1.745769-.9125774-.846987.2082391-1.547731.7717098-2.144888 1.3872402.00457 3.264455.016757 6.52891-.00457 9.7918338-1.483751.0122493-2.965978.0122493-4.448206 0-.04113-3.0516224.018281-6.1032447-.030467-9.154867.01371-.8298943-.306195-1.8588407-1.23392-2.0288006-1.099865-.1837404-2.051963.629311-2.783175 1.3596792-.001524 3.2721109.025897 6.5442217-.013711 9.8148013-1.486797.0306234-2.973595.0199052-4.460392.0061247-.024374-4.8859643-.019804-9.7749909-.001524-14.66095514 1.226304-.04440394 2.455654-.02143639 3.68348-.0153117.067028.60481224.14929 1.20962449.304672 1.79912504z"/><path d="m153.860697 8.52249362c1.232397-1.18665694 2.807549-2.19110463 4.570075-2.16660591 1.363405-.05359095 2.845633.45169523 3.627116 1.636821.962762 1.36580387 1.017603 3.10368209 1.03893 4.71447319-.01371 2.8923806.025897 5.7878236-.01828 8.678673-1.462424.0780897-2.932465-.0015312-4.397935.0382793-.036561-2.2936931-.006094-4.5873861-.015234-6.8810792-.012187-1.1162231.070074-2.2615384-.236121-3.3471381-.22698-.7701787-1.110528-1.1790011-1.856973-.9676996-.883548.1393365-1.590386.7303682-2.207346 1.339774-.010664 3.2736419.016757 6.5472839-.01371 9.8209259-1.488321.0566533-2.978166.0199053-4.46801.0214364-.02285-4.8905578-.021327-9.7811155 0-14.67014215 1.23392-.02296756 2.470887-.04899745 3.703284.01684287.050271.59409406.161476 1.18053226.274204 1.7654393z"/><path d="m166.69042 8.00189573c1.307041-1.2708713 3.212762-1.72716004 4.987474-1.64141451.834801-.04746627 1.60105.40422895 2.43585.36441852 1.587339-.00306234 3.176202-.01071819 4.763541.00306235-.00914 1.08253736-.00914 2.16354356 0 3.24608093-.734259.01224936-1.466994.01071819-2.199729-.00306234.60782 1.51585852.481381 3.35173172-.440251 4.71447322-.909444 1.3520233-2.559241 1.9736784-4.12373 2.0992344-.871361.1822093-1.745769-.0398104-2.598849-.2097703-.418924.3827925-.610867 1.0901932-.198037 1.5449508.578876.4639445 1.364929.3965731 2.05958.3965731 1.640657-.0015312 3.310258-.0459352 4.920447.3184834.99323.2633612 1.997123.8115202 2.475457 1.7700328.648951 1.4668611.379317 3.3042654-.687034 4.506234-.805857.970762-1.959039 1.5694495-3.136595 1.9553044-1.791469.6078746-3.7109.5940941-5.575491.4899745-1.226303-.1454612-2.48155-.4700693-3.465639-1.2555596-1.023697-.8237696-1.436527-2.3717827-.883548-3.5814072.315335-.8421436 1.087678-1.367335 1.776236-1.8833394-.882025-.6124681-1.390826-1.7026613-1.288761-2.7760117.126438-1.0335399.804333-1.8864017 1.607142-2.5019322-.885071-.7227123-1.585815-1.7210353-1.805179-2.860226-.357989-1.655195.126439-3.52628509 1.377116-4.69609917zm3.840386 1.58782356c-.623054.25264309-1.061781.90339041-1.092248 1.57404301-.033514.7334306-.091402 1.555669.40369 2.1620124.720548 1.0534451 2.565335.8666424 3.051286-.3246081.327522-.8283631.377793-1.861903-.079214-2.6504557-.396074-.8130514-1.485275-1.14225301-2.283514-.76099161zm-1.404537 12.32745171c-.415876.4562887-.776912 1.0733503-.528605 1.7041925.382363.7364929 1.259817.9722931 2.019973 1.0687568 1.203453.0949326 2.530298.1117754 3.572275-.5925629.438727-.3108275.895735-.9156398.566689-1.4607364-.309241-.4654758-.903351-.503755-1.395396-.620124-1.41063-.0826831-2.825829-.0122493-4.234936-.099526z"/><path d="m142.724949 6.74021145c1.489845-.03062341 2.981212-.03368575 4.471056.00153117.018281 4.88290188.021327 9.76580388-.001523 14.64870578-1.488321.053591-2.979688.0183741-4.468009.0199052-.021327-4.8905578-.019804-9.7795844-.001524-14.67014215z"/></g></svg>