<svg height="90" viewBox="0 0 180 90" width="180" xmlns="http://www.w3.org/2000/svg"><g fill="none" fill-rule="evenodd"><path d="m.69928571 12.6542857h3.02571429v-3.89357141h3.74v-2.74357143h-3.74v-2.62357143h4.22285714v-2.74357143h-7.24857143zm14.62571429-12.0042857h-5.1035714v12.0042857h2.9764285v-3.53285713h1.5457143l1.995 3.53285713h3.325v-.4464286l-2.2771428-3.8078571c2.9421428-2.05642857 2.1107143-7.73285714-2.4614286-7.75zm0 5.71071429h-2.1271429v-2.96642858c.6985715 0 1.4292858-.01714285 2.1271429 0 1.6964286.01642858 1.6128571 2.96642858 0 2.96642858zm9.4885714 1.45785714h3.9564286v-2.72642857h-3.9564286v-1.69785715h4.3057143v-2.74428571h-7.265v12.0042857h7.415v-2.72642856h-4.4557143zm9.9707143 0h3.9571429v-2.72642857h-3.9571429v-1.69785715h4.3057143v-2.74428571h-7.265v12.0042857h7.415v-2.72642856h-4.4557143zm16.0035714-.37714286h-.0821428l-2.7257143-6.79142857h-2.86v.46214286l4.9871429 11.67928574h1.2642857l4.9357143-11.67928574v-.46214286h-2.8585715zm10.2035715.37714286h3.9564285v-2.72642857h-3.9564285v-1.69785715h4.305v-2.74428571h-7.2642857v12.0042857h7.4135714v-2.72642856h-4.4542857zm12.2814285 2.16071428c-1.7621428-.01714285-2.8921428-1.56071428-2.8921428-3.32714285 0-1.98928572 1.1464286-3.34428572 2.8921428-3.34428572 1.2457143 0 2.1285715.54928572 2.5442858 1.76642857h2.9257142c-.4492857-3.20642857-3.0592857-4.56071428-5.47-4.56071428-2.9592857 0-5.9514285 2.05714286-5.9678571 6.13928571.0164286 4.08142856 3.0092857 6.13928576 5.9678571 6.12224906 2.4778572 0 5.0878572-1.3379633 5.5207143-4.73367763h-2.9271428c-.3171429 1.28642857-1.33 1.93785714-2.5935715 1.93785714zm6.6442858-6.58571428h2.86v9.26071427h2.9407142v-9.26071427h2.8442858v-2.74357143h-8.6457143v2.74357143zm9.7714285 3.275c0 8.31785717 11.9378576 8.31785717 11.9378576 0 0-8.3-11.9378576-8.3-11.9378576 0zm3.0578572 0c0-4.32142857 5.8371428-4.32142857 5.8371428 0 0 4.35714287-5.8371428 4.35714287-5.8371428 0zm18.6650004 1.73214286c2.943571-2.05714286 2.112142-7.73357143-2.459286-7.75071429h-5.104286v12.0042857h2.975714v-3.53285713h1.545715l1.995 3.53285713h3.325714v-.4464286zm-2.459286-2.04h-2.128572v-2.96642858c.699286 0 1.43-.01714285 2.128572 0 1.695.01642858 1.612857 2.96642858 0 2.96642858z" fill="#646468" transform="translate(65.714286 33)"/><path d="m5.77571429 2.82928571c0-.53214285-.13071429-.96642857-.39071429-1.30214285-.26-.33642857-.58357143-.55428572-.97-.655-.25142857-.06642857-.79-.1-1.61785714-.1h-2.18285715v6.68928571h1.36071429v-2.52357143h.88642857c.615 0 1.08642857-.03142857 1.41214286-.09571428.23857143-.05142857.47357143-.15785715.705-.31714286.23142857-.16.42214286-.37928571.57285714-.65928571.15-.28071429.22428572-.625.22428572-1.03642858zm-1.555.53857143c-.10357143.14857143-.245.25857143-.42571429.32785715-.18142857.07071428-.53928571.105-1.07571429.105h-.74428571v-1.89857143h.65714286c.49 0 .81714285.015.97857143.045.22142857.04.40285714.13857143.54785714.29642857.14285714.15857143.21571428.35928571.21571428.60285714 0 .19928572-.05142857.37214286-.15357142.52142857zm3.91428571-2.59571428-2.62571429 6.68928571h1.44357143l.55571429-1.52h2.69357147l.5885714 1.52h1.48l-2.69857144-6.68928571zm-.20714286 4.04285714.91-2.48285714.92857143 2.48285714zm3.88428576-2.91142857h2.0007142v5.55785714h1.3607143v-5.55785714h1.995v-1.13142857h-5.3564285zm10.2664285 1.50071428h-2.6657143v-2.63285714h-1.3607142v6.68928572h1.3607142v-2.925h2.6657143v2.92571428h1.3607143v-6.68928571h-1.3607143zm6.8885715.36285715c-.3171429-.16571429-.8064286-.32642857-1.4685715-.48142857-.6628571-.155-1.0792857-.30428572-1.2507143-.44714286-.135-.11285714-.2021428-.24857143-.2021428-.40571429 0-.17357143.0721428-.31214285.2164286-.415.2235714-.16214285.5335714-.24214285.9285714-.24214285.3835714 0 .67.07571428.8614286.22571428.1914285.15.3171428.39785714.3757142.74214286l1.36-.05928572c-.0207142-.615-.2457142-1.10571428-.6728571-1.47357142-.4292857-.36857143-1.0642857-.55214286-1.9107143-.55214286-.5178571 0-.9607143.07714286-1.3257143.23285714-.3664285.155-.6471428.38071429-.8421428.67714286s-.2921429.615-.2921429.95571428c0 .52928572.2071429.97857143.6207143 1.34571429.2942857.26142857.8064286.48285714 1.5357143.66214286.5671428.14.93.23714285 1.0892857.29214285.2321429.08214286.3964286.17857143.49.29.0935714.11142858.14.24571429.14.40357143 0 .24642857-.1121429.46142857-.3335714.64571429-.2228572.18357143-.5521429.27642857-.9907143.27642857-.4142857 0-.7421429-.10428571-.9871429-.31071429-.2435714-.20714285-.4042857-.53071428-.4842857-.97142857l-1.3242857.12714286c.0892857.74857143.3614286 1.31785714.8178571 1.70928571.4571429.39071429 1.1121429.58642858 1.9642858.58642858.5842857 0 1.0742857-.08142858 1.4671428-.24428572.3921429-.16214286.695-.41142857.9092857-.74571428.215-.335.3221429-.69357143.3221429-1.07642858 0-.42357142-.09-.77857142-.2692857-1.06571428-.1785715-.28928572-.4264286-.51571429-.7442857-.68142857zm8.87 1.47142857-2.7571429-4.46642857h-1.3242857v6.68928571h1.265v-4.36214286l2.7164286 4.36214286h1.3657142v-6.68928571h-1.265v4.46642857zm5.6878571-4.58142857c-.5492857 0-1.0328571.08857143-1.4521429.265-.3157142.13071428-.6071428.33142857-.8721428.60214285-.2642857.27071429-.475.57714286-.6271429.91714286-.205.46214286-.3085714 1.035-.3085714 1.71571429 0 1.065.2957143 1.9.8864286 2.50714285.5914285.60714286 1.3892857.91071429 2.3921428.91071429.99 0 1.7792857-.305 2.3721429-.915.5914286-.61.8871428-1.455.8871428-2.535 0-1.08857143-.2985714-1.93928571-.8942857-2.55071429-.5957143-.61142857-1.39-.91714285-2.3835714-.91714285zm1.3507143 5.18142857c-.3485714.38785714-.7935714.58142857-1.3364286.58142857-.5421428 0-.99-.195-1.3428571-.58571429-.3521429-.39142857-.5285715-.965-.5285715-1.72285714 0-.77.1721429-1.34571428.5157143-1.72714286.3428572-.38214285.795-.57285714 1.3557143-.57285714s1.01.18928572 1.3492857.56571429c.3392857.37714285.5092857.95.5092857 1.71571428-.0007142.77642857-.175 1.35857143-.5221428 1.74571429zm2.505-3.935h2.0021428v5.55785714h1.36v-5.55785714h1.995v-1.13142857h-5.3571428zm12.6535714-1.03214286c-.2514286-.06642857-.7907143-.1-1.6185714-.1h-2.1835714v6.68928572h1.36v-2.52357143h.8871428c.6164286 0 1.0864286-.03142857 1.4121429-.09571429.2385714-.05142857.4742857-.15785714.7057143-.31714286.2314285-.16.4214285-.37928571.5721428-.65928571.1507143-.28071429.2242857-.625.2242857-1.03642857 0-.53214286-.1314285-.96642857-.3892857-1.30214286-.26-.33571428-.5835714-.55357143-.97-.655zm-.195 2.49642857c-.1021428.14857143-.2442857.25857143-.4257143.32785715-.1814285.07071428-.5385714.105-1.0757143.105h-.745v-1.89857143h.6571429c.4914286 0 .8178571.015.9792857.045.2207143.04.4028572.13857143.5471429.29642857.145.15857143.2164285.35928571.2164285.60285714 0 .19928572-.0521428.37214286-.1535714.52142857zm2.6307143 4.09357143h1.3614286v-6.68928571h-1.3614286zm8.0335714-6.68928571h-1.5778571l-1.3242857 2.14928571-1.3521429-2.14928571h-1.5907143l2.0871429 3.19857143-2.3021429 3.49071428h1.6307143l1.5-2.31357143 1.4942857 2.31357143h1.6407143l-2.3035714-3.44071428zm2.265 3.74071428h3.3828572v-1.12642857h-3.3828572v-1.48357143h3.6371429v-1.13142857h-4.9971429v6.68928572h5.1257143v-1.12714286h-3.765v-1.82071429zm6.3171429-3.68642857h-1.36v6.635h4.7435714v-1.12714286h-3.3828571v-5.50785714zm9.22 3.62071429c-.18-.28785715-.4285714-.51428572-.745-.68-.3164286-.16571429-.8064286-.32642857-1.4692857-.48142857-.6628572-.155-1.0785715-.30428572-1.25-.44714286-.135-.11285714-.2021429-.24857143-.2021429-.40571429 0-.17357143.0714286-.31214285.2164286-.415.2228571-.16214285.5328571-.24214285.9292857-.24214285.3821429 0 .6685714.07571428.8607143.22571428.1914286.15.3164286.39785714.375.74214286l1.36-.05928572c-.0207143-.615-.2457143-1.10571428-.6721429-1.47357142-.4285714-.36857143-1.0657143-.55214286-1.9114285-.55214286-.5178572 0-.96.07714286-1.325.23285714-.3671429.155-.6471429.38071429-.8428572.67714286-.1935714.29642857-.2914286.615-.2914286.95571428 0 .52928572.2078572.97857143.6207143 1.34571429.2942857.26142857.8064286.48285714 1.5357143.66214286.5664286.14.9307143.23714285 1.0892857.29214285.2328572.08214286.3964286.17857143.49.29.0935715.11142858.1392857.24571429.1392857.40357143 0 .24642857-.11.46142857-.3335714.64571429-.2221428.18357143-.5507143.27642857-.9907143.27642857-.4128571 0-.7421428-.10428571-.985-.31071429-.2442857-.20714285-.4057143-.53071428-.4857143-.97142857l-1.3242857.12714286c.0878572.74857143.3614286 1.31785714.8178572 1.70928571.4564285.39071429 1.1121428.58642858 1.9642857.58642858.5828571 0 1.0728571-.08142858 1.465-.24428572.3935714-.16214286.6964286-.41142857.9107143-.74571428.215-.335.3221597-.69357143.3221597-1.07642858.0014117-.425-.087874-.78-.267874-1.06714285z" fill="#b4b4b7" transform="translate(65.714286 50.142857)"/><path d="m33.8857143 0-4.9685714 8.21142857v-.00428571l-4.9685715-8.20714286h-23.9485714l9.38357143 14.4407143h2.38428567l6.4242858 9.63 4.2864285-.0035714 6.4392857 9.6542857v.0164285l6.4407143-9.6585714 4.285.0042857 6.425-9.6357143h2.3842857l9.3828572-14.4478571zm11.8135714 9.63142857h-6.9921428l-2.8157143 4.81571433h4.2778571l-3.215 4.8164285h-4.2742857l-3.7628571 5.6328572v-.0128572l-3.7614286-5.63h-4.275l-3.2157143-4.8135714h4.2785714l-2.8164285-4.81357143h-6.9921429l-3.215-4.81285714h12.2107143l7.7864286 12.78071427v.0085714l7.7892857-12.78714281h12.21z" fill="#0e8cfb" fill-rule="nonzero" transform="translate(0 28)"/></g></svg>