<svg height="90" viewBox="0 0 180 90" width="180" xmlns="http://www.w3.org/2000/svg"><g fill="none" fill-rule="evenodd" transform="matrix(0 -1 1 0 -.127072 67.872928)"><path d="m18.4002499 0h8.7320539c.6673175 1.10692462 2.084181.52183589 3.0424614 1.10376198.600902.3478906 1.2618941.56927552 1.9450247.70210648.2340355.19292115.4649084.38584229.6989439.57876344.2150596 0 .6451789-.00316264.8602385-.00632528.0790661.15496945.2371982.4617457.3162642.61671515.3668665.11701774.7337329.24036077 1.1005994.36686644.3320773.30045097.7021064.55346232 1.0784608.79066045.0063253.08222869.0189759.24036078.0253011.32258946 1.2081292.29728833 1.862796 1.41686352 2.8210765 2.10631943.7527088.85075064 1.6287605 1.6350858 2.0841809 2.70405872.1138551.00632529.3384027.01581321.4522578.02213849.044277.35737853.088554.71159444.1391563 1.06897294.5344864.1518068.7463834.6325283.9456298 1.103762.1296684.1012045.389005.3004509.5186733.4016555.0316264.50286.0632528 1.0025574.0948793 1.5054175.1486441-.0126506.4459324-.0411144.591414-.0537649.1106924.6673174.2245475 1.3314721.3225894 2.0019522.132831-.0031626.4016555-.0126506.5376491-.0158132.1170178.9582805-.2688245 2.2612889.8349375 2.7704742v9.6934971l-.3415654-.7874978c-.4396072 1.0215332-.5091853 2.1316205-.5249985 3.2290572-.1391562-.0284638-.4143061-.088554-.5534623-.1170177-.1359936.7621966-.2751498 1.5243933-.3921676 2.2897526-.1423189-.0031626-.4269566-.0126506-.5692755-.0189758.0031626.2371981.0094879.7115944.0126506.9487925-.1518068.0600902-.4585831.1771079-.6135525.2371981-.1201804.4649084-.2435235.9298167-.3637038 1.3947251-.1201804-.0063253-.3605412-.0221385-.4838842-.0284638-.1486442.5281612-.1454816 1.2049665-.7874978 1.3978876-.0189759.1929212-.0600902.5819261-.0790661.7748473-.1771079.0126506-.5313238.0411143-.7084317.0537649-.389005.5344865-.7969858 1.0531597-1.1859907 1.5876462-.0917166.0126505-.2783125.034789-.3700291.0474396-.423794.4649083-.8412627.9329793-1.2492435 1.4105382-.8096363.4079808-1.5844835.8950277-2.198036 1.5686704-.8317748.3573785-1.6287606.7874978-2.4510474 1.1670148 0 .1075298.0031626.3194268.0031626.423794-.7653593.0822287-1.6350858.0284637-2.1664096.6894559-1.1638522.2087343-2.3561681.3099389-3.4630928.7463834-.9677683.3700291-2.0209281.256174-3.0361361.2719872-1.774242-.0411143-3.5611346.1106925-5.3258887-.1518068-1.0689729-.5850887-2.3087285-.5882513-3.4725807-.8381-.5186733-.812799-1.5528571-.5819261-2.3688187-.7052692-.0031626-.1106924-.0063253-.3289147-.0094879-.4396072-.8064737-.3700291-1.5844836-.7938231-2.3941199-1.1543642-.61987774-.6926186-1.42318875-1.1606896-2.24547562-1.571833-.20557171-.4712336-.64201628-.724245-1.06581028-.9646057-.02846377-.0695781-.08539133-.2087344-.1138551-.2814751-.62304043-.5249986-1.1733401-1.1259005-1.64141109-1.7932179-.17078265-.0189759-.51867325-.0506023-.68945591-.0664155-.01897585-.1960838-.05376491-.5850887-.07274076-.7811725-.67680534-.1581321-.63885364-.8634012-.78117252-1.3883998-.12334303.0031627-.37002909.0126506-.49337211.0158132-.12650568-.4743962-.25617399-.9519551-.38267966-1.4263514-.14548152-.044277-.43960721-.132831-.58825137-.177108-.00632529-.1897585-.02213849-.5629502-.02846378-.7495461-.83177479-.4490951-.73689553-1.4990922-.95828046-2.2834273-.13599359-.0790661-.40481815-.2308729-.5376491-.3099389-.03162642-.768522-.06009019-1.5370439-.1138551-2.3024032-.18659587-.0253012-.55346232-.0727408-.73689554-.0948793v-9.6428948c1.19231595-.1518068.63885364-1.6414111.86340121-2.4383968.9614431-.4743963.25933662-2.0177654 1.41370087-2.3150538.04111435-.4490951.07590341-.8981902.10752982-1.350448.14864417-.0948793.44593249-.2814751.59457666-.3763544.0759034-.3162642.15496945-.6325283.23403549-.9487925.1739453-.0094879.52183589-.0316264.69894383-.044277.01581321-.4079808.03478906-.81912423.05060227-1.23026766.15180681.01581321.45225778.04743962.60090194.06641548.02530114-.18659587.07906605-.5597876.10436718-.74638347.66099213-.63252835 1.26821935-1.31882162 1.8849345-1.99562696.23403549-.30677625.46807099-.61355251.70526912-.92032876.73057025-.29412568 1.28086992-.83810007 1.66354958-1.51490541.56927552-.14231888 1.15120163-.29728833 1.51490543-.79382309.3700291-.12334303.7368955-.24352342 1.1069246-.3637038.0759034-.14864417.2277102-.4459325.3036136-.59457666.1929212-.01581321.5850887-.04743963.7811725-.06325283.4554205-.8096363 1.5149054-.63252836 2.2739395-.91716612.9361419-1.12590048 2.8210764-.01897585 3.4978818-1.41686352z" fill="#bc002d"/><path d="m4.40696562 118.693946c.5376491.243523 1.10376198.347891 1.70150128.309939.35105324-.110692.70526912-.208734 1.06581028-.290963-.01581321-.142319-.04743963-.420631-.06325284-.559788.19292115.012651.58192609.034789.77484724.044277-.00948792-.173945-.02846377-.524998-.0379517-.698944.21822228-.009487.65150421-.025301.86972649-.034789.00632528-.22771.02530113-.68313.03478906-.914003.16129473.025301.49020948.069578.65466685.091717-.11385511-.645179.26249927-.850751.84442532-.831775.0189759-.208735.0569276-.623041.0759034-.828612.177108.009488.5313239.034789.7084318.044277-.0284638-.170783-.0853913-.512348-.1138551-.683131.2466861-.015813.7400582-.050602.9867442-.066415-.0316264-.15497-.0980419-.464909-.1296683-.619878 1.2966831-.110693 2.4763485-.828612 3.8109834-.619878.2656619.259337.5756008.458583.926654.600902.2182223.003163.6578295.009488.8760518.01265l-.1834332.373192.3953302-.006325-.0347891.385842c.1423189-.031626.4301193-.088554.5724382-.117018.0189758.271988.0537649.809637.0695781 1.081624.1612947-.044277.4807216-.129668.6388536-.173945.0948793 1.309333.1233431 2.624992.0189759 3.934326-.1486442-.031626-.4490951-.094879-.5977393-.126506-.0253011.474397-.1707827.93298-.3194268 1.382075-.679968-.230873-.7305703.309939-.768522.841263-.6957812.06009-1.3915624.164457-2.0905062.151806-.0727408-.205571-.2245476-.616715-.2972883-.822287-.0316264-.518673-.0600902-1.034183-.0822287-1.549694l.4490951.066415c-.0284638-.170782-.0853913-.51551-.1106924-.686293.1296683.028464.3953302.088554.5281611.117018.1992465-.101205.600902-.309939.803311-.411144-.0031626-.547137-.0031626-1.091111-.0126505-1.631923l-.4775589.186596c.034789-.177108.1043672-.528161.1359936-.705269-1.0784609-.085391-2.163247-.056927-3.2417079 0 .0126506.151807.0411144.455421.0569276.607227-.2340355.015814-.7021065.04744-.936142.063253-.0063253.21506-.0189758.642016-.0253011.853913-.2150596.009488-.6483416.025302-.8665639.034789.0031627.183434.009488.553463.0126506.736896-.2213849-.022138-.4427698-.041114-.6609921-.06009-.0126506.230873-.0347891.686293-.044277.914003-.1865959-.009488-.5597876-.034789-.74638347-.044277.04427699.151807.13283096.455421.17710794.607228-.36054116.139156-.72108232.278312-1.08162349.420631.02846378.126506.09171662.373192.12018039.496535-.26882455.01265-.80647365.037951-1.0752982.050602.03162641.158132.09487925.471234.12650567.629366-.59141402.034789-1.18915331.088554-1.75210355.2878-.53132382.003163-1.06581028-.006325-1.58448353-.123343-.49020948-.053765-.9835816-.094879-1.47379107-.132831.02530113-.173945.07906604-.521836.10436718-.695781-.17710794.028464-.53448646.082229-.71475705.110692l-.02846377-.40798c-.16445738.025301-.49337212.079066-.65466685.107529.02213849-.161294.07274076-.487046.09804189-.651504l-.34789059-.034789c.00632528-.259337.02213849-.77801.02846377-1.034184l-.41430607.211897c-.01581321-1.021533-.01581321-2.043066.02213849-3.061437l.48072155.170783c-.04427698-.170783-.12650567-.512348-.17078265-.679968l.42063135-.110693c-.05060226-.161295-.1518068-.480721-.20240907-.642016l.48704683.192921-.07906604-.464908.40481815.135993-.02213849-.439607c.17710794.022139.53132382.066416.70843176.088554l-.18027059-.389005c.49020948-.091716.97725631-.202409 1.47062843-.294126l-.24352341-.338402c.66415477 0 1.32830954.009488 1.99246432.022138.02213849.759034.06009019 1.521231.05692755 2.28659-.18027058-.044277-.54713703-.132831-.73057025-.177108l.18659586.534487-.48388419-.218222.08222869.39533-.71791969.009488c-.01265056.132831-.03162642.404818-.04111434.537649-.22138493.22771-.43960721.458583-.65466685.695781.10436718.461746.21505964.923491.33207739 1.385237l.61987779-.088554c-.11069247.063253-.32891475.192921-.43644457.256174zm.71791969-10.711868c-.08539133-.069578-.25301135-.205571-.33524003-.271987.16129473-.006325.48388419-.018976.64517892-.025301.42063136-.303614.95828046-.338403 1.44216465-.483884.08855397.098042.26566191.290963.35421588.389005.15813209-.085392.47439627-.249849.63252836-.33524.04111434-.714757.02530113-1.426352-.00316264-2.137946-2.25180095.044277-4.5036019.015813-6.75540285.009488-.01265057-.740058-.01897585-1.476954-.04111434-2.213849.211897-.050603.63252835-.148645.84442535-.196084 5.29742499-.012651 10.59801259-.018976 15.89543759.003162.3668665.079066.7337329.151807 1.103762.21506-.0379517 1.720477-.0411144 3.44728-.0031627 5.170919l-.414306-.177108.1328309.547137-.3858423-.262499c-.0158132.230873-.044277.692619-.0569275.923492.1865958.629365-.8317748.401655-.6736427 1.059485-.6040646.224547-1.2429182.316264-1.8849345.322589l.1581321.357379c-1.5338813-.037952-3.0709252-.04744-4.6048065.009488l.1707827-.360542c-.7527088-.056927-1.97032584.196084-2.02092811-.891865-.45542041.015814-.90767819.034789-1.35993596.063253-.41114344.094879-.82544951.161295-1.24608087.199247l.22454757.313101c-1.12590047.034789-2.22017453.360541-3.34923765.309939l.19924644.433282-.56611288-.218222.21505964.445932c-.79066045.009488-1.58132089.037952-2.37198134.050602.01897585-.781172.01897585-1.562345.02530114-2.343517.17394529.041114.51867325.117018.69261855.154969l-.03795171-.404818c.46490835-.009488.92665405-.01265 1.39156239-.015813l-.24668606-.344728c.74005818-.117018 1.48011635-.22771 2.22966246-.294126zm-4.00706714-24.0139387c.01581321-.1454815.04743962-.4301193.06325283-.5724382 5.87618843.009488 11.7523769-.0126505 17.6285653.0126506.0158132.1454815.0411143.4332819.0569275.5787635.0189759.7368955.0063253 1.473791.0063253 2.2106866-4.9590223.0727407-9.92120724.0189758-14.88339219.0316264-.05376491 1.5591824-.0221385 3.1183648-.04111435 4.6775472-.94246725.034789-1.8849345.034789-2.82740175.0316264-.04743963-2.3245417-.05692755-4.6490834-.00316264-6.9704625zm15.50959533-10.7751205c.1518068.0126505.4554204.0411143.6103898.0537649.3415653.4111434.6989439.7969857 1.0373465 1.2207797-.0695781.0063253-.2150596.0221385-.2846377.0284638.0885539.1739453.2624992.5218359.3510532.6957812.123343-.0474397.3763544-.1391563.5028601-.1865959.1012045 1.227105.1170177 2.4605353.0442769 3.690803-.1518068-.0284638-.4522577-.088554-.6009019-.1170178-.0126506.4016555-.1296683.768522-.3510532 1.0942741.0094879.1138551.0284637.3415653.0411143.4554204-.2055717.0126506-.6103899.0379517-.8127989.0506023.034789.1359936.1106924.4048181.1486441.5408117-.3826796.0632528-.759034.1612947-1.1259004.290963-2.8400524.1992465-5.6927552.0411144-8.53913285.088554-1.54020655-.0569275-3.12785272.1960838-4.617457-.3162642.02846377-.1423188.08222868-.4269566.10752982-.5692755-.34472796-.0284638-.68945591-.0569275-1.03418387-.0853913.0221385-.1707827.06325284-.512348.08539133-.6831306l-.45858306.1581321c-.00632528-.2624993-.01897585-.7874979-.02530113-1.0468345-.13915624.0221385-.41746872.0695781-.55662495.0917166-.05060227-1.0088827-.06641548-2.0177654-.03795171-3.0266482l.35105324.211897c-.02846377-.4554204.09171661-.8507506.36370381-1.1859906-.02530114-.132831-.07906605-.3984929-.10752982-.5313238.16445737.0221385.49653476.0695781.66415477.0917166l.06009019-.4585831c.16129474.0347891.48704684.1075298.64834157.1454815-.02213849-.1707826-.06957812-.5060226-.09171661-.6768053.25933662 0 .77484723.0031626 1.03418386.0031626l-.05376491-.3225894c4.00706714-.0158132 8.01097162-.0126506 12.01803882-.0031627l-.0316265.3352401zm-15.45899306-17.631728c-.11385511-.8444253-.08539133-1.6983386-.06325284-2.5490892.20557172 0 .61987779-.0063253.82544951-.0063253-.04743963-.1518068-.14548153-.4554205-.19292115-.6040646.60090194-.0411144 1.20180387-.1012046 1.79954317-.1865959.40165551-.0980419.81279894-.1581321 1.22710501-.1865958l-.20557171-.2814752c.39849286-.0569275.79066044-.1391562 1.17650274-.246686.49653476-.0600902.99623216-.1043672 1.49592956-.132831-.04111434-.1454815-.12018039-.4332819-.16129473-.5787634.89819027-.044277 1.76791676-.2719872 2.6566191-.3763544-.03162642-.1391562-.09487926-.4206314-.12650567-.5597876.68629327-.0189758 1.36942387-.0600902 2.05571717-.0980419.0031626-.0695781.0126506-.2087343.0158132-.2783125-.1834332.0284638-.5534623.0790661-.7368955.1043672l.0664154-.3763544c-3.30496063.0221385-6.60992129.0284638-9.91488195-.0094879.00632528-.759034.00316264-1.5149054-.01265057-2.2739394 5.94260391-.0506023 11.88837042-.0790661 17.82781172.0158132-.0158132.9487925-.0284638 1.8975851-.0569275 2.8463776-.512348.0316264-1.024696.0948792-1.5402066.088554-.0253011.1423188-.0727408.4269566-.0980419.5724381-.1043672-.034789-.3099389-.0980419-.4143061-.1328309-1.1005993.290963-2.2264998.4617457-3.3650508.4870468.0506023.1454815.1549694.4364446.2055717.5819261-.4269566.0347891-.8539133.0759034-1.2777073.123343-.3984928.0948793-.803311.1612948-1.2081291.2087344l.1960837.2751498c-.3984928.0569276-.7906604.132831-1.1796653.2308729-.47755894.0537649-.9582805.1012045-1.43900205.1265056-.00948792.1549695-.02846377.468071-.0379517.6262031.39216758.0126506.7716846.088554 1.1353884.2308729 2.77363685.0664154 5.55359895-.0158133 8.32407315.0379517.2055717-.0158133.6167152-.0474397.8222869-.0632529-.0221385.891865.211897 1.8912598-.3384027 2.6724323-5.8983269-.0600902-11.79981647.088554-17.69498076-.0759034.0600902-.0506022.17710794-.1581321.2340355-.211897zm14.38685746-11.7397263c.0853913.0537649.2498487.1644574.33524.2182223-.5186732.177108-1.0405091.3953302-1.6002967.379517-3.0076723.0284638-6.02166996-.044277-9.0293423.0347891l-.03162642-.3573785c-.27514983.0158132-.82861214.0537649-1.10376198.0695781.08222869-.088554.24668606-.2656619.32891475-.3573785-.35105324-.0189759-1.05632236-.0600902-1.4073756-.0790661.00948793-.1581321.0221385-.4743962.02846378-.6325283-.15813209.0379517-.47755891.1170177-.635691.1581321l.00316264-.4396073-.47123362.0600902c.05060227-.1454815.14864416-.4364445.19608379-.581926-.78433516.1043671-.65150421-.6072273-.68313063-1.1353884l-.35737852.2403607c-.02530113-.9203287-.04111434-1.8374948-.03162641-2.754661l.4617457.177108c-.03478906-.1707827-.10436718-.5060227-.13915624-.6768054l.34472795-.0253011c-.01897585-.1739453-.05692755-.5249985-.0759034-.7021065.16762001.0063253.4996974.0221385.66415477.0284638.01581321-.2150596.05060227-.6420163.06641548-.8539133.23719813-.0126505.71475704-.0379517.95195518-.0537649l-.10120454-.5439744c4.47513812-.1201804 8.96292682-.1328309 13.43806492.0031627-.0316264.1265056-.0948792.3826796-.1265057.5091853.4965348.0474396 1.1891533-.0727408 1.068973.6768053.1296683-.0189758.3858423-.0569275.5155106-.079066.0094879.2814751.0284637.8444253.0379517 1.1259005l.3826796-.2055718-.0600902.4965348.3858423-.2055717c.0316265 1.1132499.0221385 2.2264998-.0158132 3.3397497l-.4490951-.1644574.1865959.5597876-.4143061-.202409c-.1802706.3225894.0695781 1.2587314-.5534623 1.0373465-.1170178.0917166-.3510533.2751498-.4712337.3668664l.177108.3763544c-.1423189-.0316264-.4206314-.1012046-.5629503-.132831-.3131015.0822287-.9393046.2435234-1.2524061.3257521zm-1.3630986-39.65003999c-.4902095.41430607-1.6888507 1.31249634-2.1505964.55662495-.3605412.20557172-.759034.28463776-1.192316.23719814.0379517.12650567.1170178.3858423.1549695.51234797-1.00572011.00948792-1.98297642.24668606-2.97604594.37002908.01897585.14864417.0600902.44909514.07906605.5977393 3.59276109.09171661 7.18868479-.01265057 10.78144579.06957812-.0063252.76852195-.0063252 1.53704391-.0031626 2.30556586-.1612947-.04743963-.4870468-.13915624-.6483416-.18659587v.3478906c-5.4523944-.05376491-10.90162619.01581321-16.35402062-.03478906-.13915624-.06009019-.41746872-.18343322-.55346231-.24352342l-.26882455.11701775c.02846377-.81596158.02846377-1.6350858.03478906-2.45104738l.48704683.18659586c-.0379517-.16129473-.1138551-.48704683-.15180681-.64834156.3858423-.07274076.76852196-.16445737 1.14487633-.27831248.39849286-.03162642.80014837-.05376491 1.20180388-.06641548l-.15496945-.37951701c.26566191.01581321.79382309.04427699 1.059485.06009019l-.08539133-.35737852c.43960721.01265057.87921441.02530114 1.31565898.03478906l-.02846378-.37002909c.18343323.03162642.55029967.09487926.7337329.12650568l-.19292115-.40798079c.42063135-.01897585.84126271-.04743963 1.25873143-.07906605.45542041-.18659586.94246725-.23719813 1.4231888-.27198719-.02846378-.13915624-.09171661-.42063136-.12334303-.5597876.55978759-.01265056 1.12273782-.03478906 1.68252542-.04111434l-.0284638-.25301134c.3225895-.05060227.9646058-.15180681 1.2871952-.20240908-3.30812327-.51867325-6.67949941-.12966831-10.01608649-.26249927-.211897-.04743962-.63252835-.14548152-.84442535-.19608379.02213849-.73689553.02846377-1.47695371.04111434-2.21384924 5.92362806-.01265057 11.8472561-.03478906 17.7708842.01265056.0063253.82861215.0063253 1.6572243.0031626 2.48583644-.2371981-.00316264-.714757-.00948792-.9519552-.0158132.0158132.15496944.0474397.4617457.0632529.6135525-.6704801.00948793-1.3409601.04427699-2.0114402.0600902l.0347891.41114343c-.1676201-.05060227-.5091854-.15496945-.679968-.20873436l.1644574.43011928c-.4364446.06641548-.8697265.12966831-1.3061711.19292115zm-13.11863812 7.01157679c5.93944127-.0506022 11.88520782-.079066 17.82781172.0158133-.0189758.7463834-.0221385 1.4959295-.0158132 2.242313-5.933116.0759034-11.86623197.044277-17.79618531.0189758.00316264-.759034 0-1.518068-.01581321-2.2771021zm-.00948792 6.7142885c.02213849-.7368955.02846377-1.473791.0379517-2.2106866 5.92362806-.0126505 11.85041874-.034789 17.77404684.0126506.0126505 1.8121937.0221385 3.6275501-.0221385 5.4397439-.1423189-.0474397-.4301193-.1454816-.5756008-.1929212-.0126506.4332819-.1138551.8381001-.3036136 1.2176171 0 .1296683.0031626.3826797.0063252.512348-.1612947-.0253012-.4807215-.0759034-.6420162-.1012046l-.0632529.4364446c-.16762-.0411143-.50286-.123343-.67048-.1644574.0253011.1739453.0727407.5186733.0948792.6894559-2.1379458.0980419-4.2790543.0790661-6.4170001.0253012l.0189758-.4111435c-.1581321.0506023-.47439626.1486442-.63252835.1992465.00632528-.1739453.02213849-.5155106.02846377-.6862933-.16445737-.0094879-.49337212-.0221385-.65782949-.0284638l.00948793-.4111434-.40165551.0695781c.04743963-.1549694.13915624-.468071.18659587-.6262031l-.48704684.044277.18659587-.4870468c-.12018039.044277-.36054117.1359936-.48072155.1802706-.04111435-1.1005994-.05692756-2.2011987-.14548153-3.2986354-1.9987896-.0063253-4.00074185.0094879-5.99953146-.0094879-.211897-.0506023-.63252835-.1486442-.84442535-.1992465zm9.30449214.3194269c.0158132.6989438.0253011 1.3978876.034789 2.0968315.2498487.2371981.4965348.4807215.7463835.7210823.2245476.0537649.6736427.1612947.9013529.2182223 1.2081292.044277 2.4257463.0664155 3.6085743-.2245476.0600902-.3668664.1518068-.7210823.2719872-1.0721356.0284638-.6040645.0411143-1.2081291.0537649-1.8090311-1.6983387-.0632528-3.3966773-.0759034-5.0950159.0063253-.1296683.0158132-.3921676.0474397-.5218359.0632529zm-9.3013295 9.8041895c.01897585-.7368955.02530113-1.4769537.0379517-2.2138493 5.92046542-.0126505 11.8472561-.034789 17.7677215.0126506.0126506 1.8121937.0316264 3.6243875-.0253011 5.4365812-.1423189-.0537649-.4301193-.1612947-.5724382-.2150596-.0094879.4427698-.1106924.8570759-.3099389 1.2460809.0031627.1296683.009488.3826796.0126506.5123479-.1581321-.0253011-.4775589-.079066-.635691-.1043672l-.0727408.4490952c-.1612947-.0474397-.4838841-.1454815-.6420162-.1929212.0126505.1581321.0379517.4743963.0506022.6325284-2.321379.0379517-4.6901977.3162642-6.97046245-.2308729.14864416-.67048-.43011928-.635691-.91716612-.6673174-.03478906-.4269566-.06641548-.8570759-.09804189-1.2840325-.14548153.034789-.43644457.1012045-.58192609.1359936-.05060227-.4965348-.0980419-.9899069-.13283096-1.483279.01265057-.6135526-.01581321-1.2239424-.06325283-1.8311696-2.00195225 0-4.0039045.0126505-6.00585675-.0063253-.211897-.0506023-.63252835-.1486442-.84126271-.1960838zm9.3013295.3194268c.0158132.6957812.0253011 1.3915624.0379517 2.0905062.256174.2498487.5091853.5060227.7621967.7653593 1.4927669.0284638 2.9886964.0822287 4.4783007-.0379517.0695781-.3700291.1612947-.7337329.2814751-1.0879487.0347891-.600902.044277-1.2018039.0537649-1.8027059-1.695176-.0632528-3.3966772-.0759034-5.0918532.0063253-.1296683.0158132-.389005.0506023-.5218359.0664155zm-6.31579566 10.1172911c-.08539133.9234914-.10436718 1.8533081-.0379517 2.7799621.3637038.0632528.72108233.1549694 1.07213556.2751498 2.74201043.0600902 5.4871835.0031627 8.2323566.0316264.6420162-.0063252 1.2998457.053765 1.9133982-.1771079.1359936 0 .4016555-.0031626.5376491-.0031626 0-.1992465.0031627-.5977393.0031627-.8001484.1359936.0284638.4079808.079066.5439744.1043672.0031626-.4649084.0126505-.9298167.0284637-1.3915624l-.4396072.2530113.1486442-.4870468-.4016555-.0126506c.0379517-.1518068.1170177-.4617457.1581321-.6167151-3.9185132-.0853913-7.84651427-.1612947-11.75870216.044277zm-1.38839974 24.6780938c.45225777-.0158132.90135291-.0316264 1.35361068-.0411143l-.01265057-.3036137c3.90902525-.0316264 7.82121309-.0031626 11.73023839-.0158132l-.0506023.3162642c.2624993 0 .7874978-.0031626 1.0499971-.0031626-.0253011.1771079-.0727408.5281611-.0980419.7052691.1359936-.044277.4048181-.132831.5408117-.177108l.2435235.3573786c.1423188.0284637.4301192.0917166.5724381.1201804-.0158132.1012045-.0474396.3036136-.0632528.4048181.2403608.3542159.3542159.759034.3447279 1.2081292.1454816-.0474397.4364446-.1391563.5819261-.1865959.0094879.8096363.0284638 1.6192726.0253012 2.4320715-.1549695-.0474396-.4585831-.1391562-.6103899-.1865958-.0284638.5534623-.0790661 1.1069246-.1170178 1.6635495-.16762-.0063252-.5060226-.0189758-.6736427-.0253011.0506023.1612947.1518069.4838842.2024091.6451789l-.4016555-.0126505-.0316264.3731917c-.1739453-.0506023-.5218359-.1518068-.6957812-.2024091l.1865959.4775589c-1.2587315.468071-2.6155048.2498487-3.9248385.2783125-.0063253-.7432208-.0126505-1.483279-.0316264-2.2264998.8823771-.1454815 1.7710794-.2245476 2.666107-.2245476l-.1581321-.4427698.5091854.1454815c-.0379517-.1581321-.1138551-.4712336-.1549695-.6262031l.3637038-.0664155c.0189759-.5060226-.0759034-.9867442-.2814751-1.4358393.0221385-.1201804.0695781-.3605412.0917166-.4807216-.50286-.1518068-1.0120454-.3131015-1.5465318-.2783125-3.0614373.0158133-6.12287451-.0253011-9.18114911.0189759-.15496945.0474396-.45858306.1454815-.61038987.1960838-.11701774.0063253-.35105323.0158132-.47123362.0221385-.03162642.7780099-.05060227 1.5528571-.0379517 2.3340296.18343322-.0126505.54397438-.0411143.72424496-.0537649-.05060226.1644574-.1518068.4902095-.20240907.6515042 1.12590048.0600902 2.25812623.0221385 3.3682135.2435234-.01897585.7400582-.02530114 1.483279-.03162642 2.2264998-1.53704391-.0474396-3.11520215.1897586-4.62061964-.211897l.17078265-.4079807c-.2277102-.0063253-.68313062-.0189759-.90767819-.0253012l-.02213849-.33524-.40165551.0632528c.04743963-.1739453.14231888-.5281611.18975851-.7052691l-.44593249.1486442c-.19924643-.5724382-.3478906-1.1606896-.36370381-1.7679168l-.35105323.2593366c0-.9013529.03478906-1.8027058.06957812-2.700896.09487925.034789.27831247.1012045.37319173.1359936.07906604-.3605412.15496944-.7210824.22454756-1.0816235l.40165551.0759034-.08222869-.4775589.39849287.1644573-.08539133-.4269566.45225777.1043672c-.04111434-.1612948-.12650567-.4807216-.16762001-.6420163zm1.34412276 12.5556879c-.03478906.7685219-.04427699 1.5402065-.03795171 2.3150538l.42695665-.0822287c-.04427699.16762-.12966832.4996974-.1739453.6673174 3.85842297.1391562 7.7326592.1170177 11.5942448.0126506-.0379517-.1296684-.1075299-.3826797-.1423189-.512348.6831306-.6704801.3320774-1.8248443.0031626-2.6091795-3.1057142-.0727407-6.21459107-.0094879-9.3203053-.0379517-.63252836.0031627-1.2871952-.0632528-1.87860922.2150597-.11701774.0063252-.35421588.0221384-.47123362.0316264zm-.79382309 16.3982976.4996974.1834332-.06009019-.3826796c4.25375319-.0189759 8.50434372-.044277 12.75809692.0126505-.0189758.1423189-.0569275.4301193-.0727407.5724382.4902094.0664155 1.439002-.0474396 1.2587314.768522.1391562-.0253012.4111434-.0790661.5502997-.1043672.0316264.4301193.0664154.8634012.0980419 1.2966831.158132-.034789.4743962-.1106925.6325283-.1486442.0822287 1.2334303.0569276 2.4668606-.0189758 3.7002909-.1581321-.0411143-.4743963-.123343-.6325284-.16762-.0221385.2530114-.0632528.7621967-.0853913 1.015208-.1992465.009488-.5945767.0284638-.7938231.0379517-.0031626.177108-.0126506.5313239-.0158132.7115944-.1707827-.0316264-.5155106-.0980419-.6862933-.1296683l-.0569275.389005c-.16762-.044277-.5028601-.132831-.6704801-.177108l.1929212.4870469c-.2688246-.012651-.8064737-.041114-1.0752982-.053765l.079066.306776c-3.4725807-.063253-6.94516136-.037951-10.41774204-.015813l-.14231888-.290963c-.16445737.022139-.49337211.069578-.65782949.091717l.18027059-.4870472c-.14548153.0221385-.43644457.0664155-.58192609.0853913-.30677626-.246686-.66731742-.3668664-1.08162349-.3542158.00948792-.1644574.02213849-.4933721.02846377-.6578295-.15496944.0158132-.46807098.044277-.62620307.0569275-.13915624-.5534623-.31626418-1.0974367-.35421588-1.6698748l-.35737852.1834332c-.01265057-1.0025575-.00316264-1.9987896.04743963-2.9981844.14548152.0221385.43011928.0664155.57243816.0853913-.00316264-.2656619-.00948793-.7938231-.01265057-1.059485.16445738.0063253.49337212.0221385.65466685.0284638.01897585-.2087344.0600902-.6325284.07906605-.8412627.24668606.0031626.73689553.0063253.98358159.0063253zm1.35044804 2.6914082c-.13915624-.0126506-.41430607-.0347891-.55346231-.0474397-.04427699.8349375-.04427699 1.6762002-.01581321 2.5143003.24668606.0094879.74322082.0316264.99306952.0411143-.02846378.1549694-.08855397.4649083-.11701775.6198778 3.38718935-.0284638 6.77437874-.0284638 10.16156804-.0031627.0917166-.1454815.2719872-.4396072.3605412-.5850887l-.0063253.1802706c1.0088827-.4933721.5629502-1.7932179.5597876-2.6724323-.1612947-.0316264-.4902095-.0980419-.6546669-.1296683l.1802706-.3352401c-3.1373406-.0221384-6.27784392.0031627-9.41834721-.0158132-.52499854.0316265-1.19864124-.1518068-1.48960428.433282zm6.10389859 10.3987664c-.0063252.746383-.0189758 1.492767-.0253011 2.242313l.4048182-.177108c-.0221385.18027-.0695782.547137-.0917166.73057 1.3789118.385842 2.8906545.439607 4.2822169.12018.1233431.003163.3700291.009488.4933721.015814.2055718-.762197.2530114-1.546532.2783125-2.327705l-.3510532-.015813c.0379517-.161295.1138551-.480721.1486441-.638854-1.7141518.025302-3.4283036-.028463-5.1392929.050603zm-.3004509-86.9631613c.1296683-.0158132.3921676-.0474397.5218359-.0632529.0506022.9614431.1359936 1.9228862.2593366 2.8811667-.2498487-.2403608-.4965348-.4838842-.7463835-.7210823-.0094879-.6989439-.0189758-1.3978877-.034789-2.0968315zm0 10.1236163c.0158132.6957812.0253011 1.3915624.0379517 2.0905062.256174.2498487.5091853.5060227.7621967.7653593-.1423189-.970931-.2308729-1.9450247-.2783125-2.922281-.1296683.0158132-.389005.0506023-.5218359.0664155zm-5.37965369 68.9487535c2.46369795.0600902 4.93055854-.0031626 7.39425649.0316264 1.0120454-.0031626 2.0493919.0727408 3.0266482-.246686-.0031627.0600902-.0094879.1834332-.0158132.246686-.088554.1454815-.2688246.4396072-.3605412.5850887-3.3871893-.0253011-6.77437869-.0253011-10.16156804.0031627.02846378-.1549695.08855397-.4649084.11701775-.6198778z" fill="#666" transform="translate(13.237413 57.243816)"/></g></svg>