<svg height="90" viewBox="0 0 180 90" width="180" xmlns="http://www.w3.org/2000/svg"><g fill="none" fill-rule="evenodd"><g fill="#2878ff" transform="translate(0 11)"><path d="m11.1136364 0h.6c2.25 2.94545455 4.7863636 5.65909091 7.3772727 8.29090909 6.9818182-3.77727273 15.4363636-4.00909091 22.4454545-.16363636 2.5090909-2.44090909 4.6363637-5.22272728 6.5727273-8.12727273h1.9227273c.75 4.58181818-1.0227273 8.82272727-3.1363637 12.75 2.9454546 4.3090909 5.6045455 9.0681818 5.9318182 14.4.75 9-.5318182 18.9818182 4.9772728 26.7954545 1.2545454 2.2636364 3.8863636 4.4454546 2.6863636 7.309091-1.7727273 3.6545454-5.9454546.8863636-8.7409091.4090909-7.3636364-2.4954546-13.0636364 5.0181818-20.25 5.1681818-6.6136364.9954545-11.8636364-3.7772727-17.85-5.5090909-4.65-1.3909091-9.88636364 4.4590909-13.65-.0409091v-2.6863637c2.11363636-3.45 4.82727273-6.6272727 6.04090909-10.5681818 2.35909091-7.2 1.43181818-14.8772727 2.34545455-22.2818182.53181818-4.65 2.98636366-8.7272727 5.46818186-12.5590909-2.1545455-4.09090905-4.59545459-8.46818178-2.7409091-13.1863636zm16.8272727 15.7090909c-9.9818182 1.3772727-14.5227273 15.1772727-7.2409091 22.1727273 6.2045455 7.3090909 19.4181818 4.5545454 22.2409091-4.6090909 3.8181818-9.15-5.3727273-19.9363637-15-17.5636364z" fill-rule="nonzero"/><path d="m78.2045455 8.15454545c.45-1.96363636.6954545-5.07272727 3.5863636-3.91363636.6681818 1.2 1.1045454 2.50909091 1.3090909 3.9 7.3636364.02727273 14.7409091 0 22.118182.01363636.477273-2.2090909.75-5.18181818 3.831818-3.84545454.245455.94090909.736364 2.83636364.981818 3.77727273 3.681818.16363636 7.459091-.34090909 11.072727.54545454 1.581819 1.77272732-.10909 4.32272732-2.4 3.64090912-16.786363.0409091-33.6136359.3-50.3863632-.1227273-2.4272727.45-2.1545454-4.2-.0545454-3.80454545 3.3-.36818182 6.6272727-.20454546 9.9409091-.1909091z"/><path d="m146.154545 18.6c.504546-4.8136364-1.213636-10.21363636 1.036364-14.65909091.6.12272727 1.786364.36818182 2.386364.49090909 1.268182 4.56818182.340909 9.47727272.572727 14.18181822 2.236364.1090909 4.527273-.0272728 6.709091.5590909 2.127273 4.5954545-4.063636 3.3409091-6.654546 3.6409091-.040909 4.5136363-.040909 9.0272727-.027272 13.5409091 3.013636 1.540909 6.340909 3.6136363 6.818182 7.2954545.422727 4.4727273.654545 9.0954545-.272728 13.5136364-1.786363 5.85-9.968182 7.9909091-14.413636 3.8045454-4.595455-3.9818182-2.959091-10.6772727-3.068182-16.0090909-.027273-4.1590909 3.436364-6.9545454 6.872727-8.5772727.040909-4.5136364.027273-9.0409091.027273-13.5545455-2.522727-.2590909-8.481818.9272728-6.818182-3.5181818 2.168182-.8590909 4.554546-.5590909 6.831818-.7090909zm-1.05 23.0318182c-2.345454 1.7454545-1.786363 4.9636363-1.963636 7.5.245455 2.9590909-.681818 6.7090909 1.909091 8.8772727 2.495455 2.2363636 6.968182.9545455 7.868182-2.2772727.504545-3.5454546.395454-7.1590909.15-10.7181818-.013637-3.8045455-5.168182-5.8772728-7.963637-3.3818182z" fill-rule="nonzero"/><path d="m161.331818 16.2545455c-.477273-4.8545455 2.740909-9.98181823 7.786364-10.62272732 5.154545-1.03636363 9.668182 3 10.881818 7.78636362v42.9272727c-.040909 3.9954546-3.681818 8.3454546-7.895455 6.1772728-1.104545-2.7136364 1.922728-3.45 3.6-4.6772728.19091-6.4090909.122728-12.8181818.109091-19.2272727-3.477272 0-6.940909 0-10.404545 0-.081818 8.3045455.259091 16.6090909-.313636 24.8863637-.872728-.3681819-2.618182-1.0909091-3.49091-1.459091-.627272-15.2318181-.095454-30.5318181-.272727-45.790909zm4.431818-3.3818182c-.709091 3.8454545-.272727 7.8136363-.354545 11.7136363h10.404545c-.109091-3.9681818.436364-8.0181818-.422727-11.9181818-1.595454-4.15909089-8.222727-4.03636362-9.627273.2045455zm-.354545 15.75v5.9727272h10.418182c0-1.990909 0-3.9818181 0-5.9863636-3.477273 0-6.954546 0-10.418182.0136364z" fill-rule="nonzero"/><path d="m129.613636 6.62727273c.681819-.09545455 2.045455-.25909091 2.713637-.34090909 1.404545 2.67272727 6 8.01818186 1.377272 9.66818186-2.65909-1.8954546-4.881818-6.12272732-4.090909-9.32727277z"/><path d="m73.95 16.8136364c.6136364-.1363637 1.8409091-.3954546 2.4545455-.5181819 2.140909 3.1772728.7636363 7.3363637 1.1590909 10.9363637-.3818182 3.2045454.9681818 7.0090909-1.2272728 9.7363636-.6136363-.1363636-1.8545454-.3818182-2.4818181-.5045454-.8318182-6.4227273-1.0363637-13.2954546.0954545-19.65z"/><path d="m85.7045455 16.2136364c1.7454545.1909091 4.1318181.6954545 3.6818181 3.0136363-.1772727 5.8227273.8181819 11.85-.6409091 17.5227273-.7227272-.0136364-2.1545454-.0409091-2.8772727-.0681818-1.2954545-6.6681818-.7090909-13.7045455-.1636363-20.4681818z"/><path d="m103.05 17.1c1.404545-1.8818182 3.177273.5727273 4.05 1.6090909-1.840909 1.9909091-3.763636 3.9136364-5.631818 5.8772727 4.295454.0409091 8.618182-.3 12.9.2318182 3.463636 1.9636364.204545 5.6590909-1.786364 7.3772727-2.195454 1.609091-3.981818 5.6454546-7.2 4.2681819-1.895454-3.4090909 2.904546-5.2772728 4.540909-7.7045455-4.609091-.7636364-10.7318179 1.8-14.3590906-1.6363636-.2454546-4.5272728 4.8272726-6.9681818 7.4863636-10.0227273z"/><path d="m129.804545 20.5909091c3.04091-2.3863636 4.431819 3.0545454 5.468182 5.0863636 1.95 2.1-1.35 5.85-3.054545 3.0272728-1.172727-2.4-3.981818-5.509091-2.413637-8.1136364z"/><path d="m131.195455 35.8909091c1.786363-.9136364 3.504545.1227273 3.354545 2.1545454.095455 7.759091.204545 15.5181819-.054545 23.2636364.204545 2.2636364-4.227273 2.8227273-3.927273.0545455-.259091-8.1272728-.354546-16.2954546.054545-24.4090909z"/><path d="m71.1136364 43.8272727c.9136363-2.0045454 3.1227272-2.9045454 5.2227272-2.7 11.85-.0136363 23.7000004-.0136363 35.5500004 0 2.086363-.1909091 4.35.6136364 5.263636 2.6454546.695455 4.9227272.204545 9.9136363.340909 14.8636363.968182.2318182 2.904546.7090909 3.872727.9545455 1.731819 3.0818182-1.854545 3.8863636-4.063636 3.5590909-15 0-30.0136364-.0545455-45.0136364.0136364-1.9363636-.3-5.3181818.7772727-5.8227272-2.0181819.2454545-2.3318181 2.6590909-2.0727272 4.3636363-2.5227272.1090909-4.9363637-.3409091-9.9.2863637-14.7954546zm4.05 1.5409091c-.1772728 4.5136364-.15 9.0409091-.1227273 13.5681818 3.3818182 0 6.7772727-.0136363 10.1727273 0 .0136363-4.5272727.0136363-9.0681818.0136363-13.5954545-3.3545454 0-6.7090909-.0136364-10.0636363.0272727zm14.25-.0136363c.0136363 4.5272727 0 9.0545454.0136363 13.5818181 3.15-.0136363 6.3 0 9.45-.0136363 0-4.5272728.0136364-9.0681818-.0136363-13.6090909-3.15.0272727-6.3.0136363-9.45.0409091zm13.6636366-.0272728c.013636 4.5409091 0 9.0681818.013636 13.6090909 3.395455-.0136363 6.777273 0 10.172727-.0136363.027273-4.5136364.040909-9.0272728-.122727-13.5409091-3.354545-.0545455-6.709091-.0409091-10.063636-.0545455z" fill-rule="nonzero"/></g><path d="m11.5772727.70909091c9.6272728-2.37272727 18.8181818 8.41363636 15 17.56363639-2.8227272 9.1636363-16.0363636 11.9181818-22.24090906 4.6090909-7.28181819-6.9954546-2.74090909-20.79545456 7.24090906-22.17272729zm5.0727273 5.01818182c-4.4454545 1.97727272-5.1545455 8.78181817-1.1045455 11.54999997 3.5727273 2.8909091 9.5318182.8318182 10.5272728-3.6545454 1.7727272-5.30454548-4.5136364-10.52727275-9.4227273-7.89545457z" fill="#fff" fill-rule="nonzero" transform="translate(16.363636 26)"/><path d="m4.37727273 1.63636364c4.90909091-2.63181819 11.19545457 2.59090909 9.42272727 7.89545454-.9954545 4.48636362-6.95454545 6.54545452-10.52727273 3.65454542-4.05-2.7681818-3.34090909-9.57272724 1.10454546-11.54999996z" fill="#293d4f" transform="translate(28.636364 30.090909)"/></g></svg>