<svg height="90" viewBox="0 0 180 90" width="180" xmlns="http://www.w3.org/2000/svg"><g fill="none" fill-rule="evenodd" transform="translate(10)"><path d="m70.3 36.4 13.4-6.8c-4-2.6-24.8-12.6-33-4.1-.5.6-1.1 1.1-1.6 1.7 8.5 1.2 16 4.5 21.2 9.2z" fill="#f15e4f"/><path d="m64 31.9 11.6-6.4c-10.5-4.3-16.4-3-23.1 1.1-.4.3-.8.5-1.2.8 4.7 1 9 2.5 12.7 4.5z" fill="#b33332"/><path d="m38.8 26.7c8.4-.4 16.3 1.1 22.7 4h.1s3.9-3.1 9.6-7 9.4-6.7 9.4-6.7c-3-2-10.2-3.9-14.7-4.5-13.4-1.9-24.4 4.7-28.8 14.3.6-.1 1.1-.1 1.7-.1z" fill="#6cc395"/><path d="m38.8 26.7c6.4-.3 12.6.5 18 2.2l5.2-16.7c-12.9-.4-24.1 5.9-27.9 14.7 0 .1-.1.2-.1.3 1.6-.3 3.2-.4 4.8-.5z" fill="#4ba072"/><path d="m38.8 26.7c5.1-.3 10.1.3 14.6 1.3l7.4-27.3c-5.8-.4-12 .2-18 2-16.8 5-26.8 17.5-23.9 29.1 5.6-2.9 12.5-4.7 19.9-5.1z" fill="#f3df3d"/><path d="m38.8 26.7c2.2-.1 4.4-.1 6.6.1l-9.1-21.6c-12.7 6-19.8 16.7-17.4 26.7 5.6-3 12.5-4.8 19.9-5.2z" fill="#ceb031"/><path d="m38.8 26.7c.9 0 1.7-.1 2.6-.1-.7-1.7-2.9-6.9-6.4-12.9-4.3-7.4-7-12.2-7-12.2-6.4 2.4-14.2 6.5-18.7 10.9-9.9 9.9-10.8 21.9-3.6 30.9 5.7-9.1 18.2-15.8 33.1-16.6z" fill="#1cacd7"/><g fill="#4a4a4a"><g transform="translate(3 60)"><path d="m29.8.7-10.5 27.5c-.3.8-.9 1.2-1.8 1.2h-4.5c-.9 0-1.5-.4-1.8-1.2l-10.6-27.5h5.4l7.1 20.1c.4 1.1 1 2.8 1.7 5h.8l1.8-5 7.1-20.1z"/><path d="m40.7 29.4h-5v-28.7h5z"/><path d="m63.2 17.8-8.3-1.9c-2.4-.6-4-1.4-5-2.7-1-1.2-1.5-3-1.5-5.4 0-3.2.9-5.1 2.5-6.2 1.7-1.1 4.6-1 8.7-1h12.1v3.7s-10 0-11.3 0c-2.9 0-4.8.1-5.7.5s-1.4 1.3-1.4 3c0 1.4.3 2.3.9 2.8s1.7.9 3.3 1.3l8.4 1.9c2.4.6 4.1 1.5 5.1 2.6 1 1.2 1.6 2.9 1.6 5.3 0 3.3-.8 5.1-2.7 6.2-1.8 1.1-4.3 1.4-9.6 1.4-4 0-11 0-11 0v-3.9h10c3.3 0 5.6-.3 6.7-.8s1.7-1.3 1.7-3c0-1.3-.3-2.2-1-2.7-.6-.2-1.8-.7-3.5-1.1z"/><path d="m85.2.7v4c3.8-3.1 7.5-4.7 11.1-4.7 4 0 6.4 1.7 7.3 5.1 3.9-3.4 7.8-5.1 11.6-5.1 2.5 0 4.4.7 5.7 2s2 3.3 2 5.9v21.6h-5v-20.1c0-1.8-.4-3.1-1.1-3.9s-1.8-1.2-3.4-1.2c-1.4 0-2.7.3-4 .9s-3.1 1.8-5.5 3.5v20.7h-4.8v-20.1c0-1.8-.4-3.1-1.1-3.9s-1.9-1.2-3.4-1.2c-1.4 0-2.7.3-4 .9s-3.1 1.8-5.5 3.5v20.8h-5v-28.7z"/><path d="m149.1 17.5h-13.4c.3 3.3 1.1 5.5 2.4 6.7 1.3 1.1 3.6 1.4 6.7 1.4h10v3.8s-5.7 0-10.6 0c-5 0-8.5-.4-10.6-2.7s-3.2-6.2-3.2-11.7c0-5.6 1-9.4 3.1-11.7 2-2.2 5.4-3.3 10.2-3.3 4.3 0 7.4.8 9.4 2.3 2 1.6 3 3.9 3 7.1 0 5.4-2.3 8.1-7 8.1zm-13.4-3.9h12.2c2.1 0 3.1-1.4 3.1-4.3 0-1.8-.6-3.2-1.7-4s-2.9-1.2-5.4-1.2c-3 0-5.1.7-6.3 2-1.2 1.4-1.8 3.9-1.9 7.5z" fill-rule="nonzero"/></g><path d="m49.5 39.2-8.2 5.8 3-8.8c-.9-.2-2-.4-3-.4-5.9 0-10.7 4.2-10.7 9.3s4.8 9.3 10.7 9.3 10.7-4.2 10.7-9.3c-.1-2.2-1-4.3-2.5-5.9z"/></g></g></svg>