<svg height="90" viewBox="0 0 180 90" width="180" xmlns="http://www.w3.org/2000/svg"><g fill="#f5c94c" transform="translate(0 26)"><path d="m18.9079646.1879646c5.0304425-.40141593 10.1755752 1.51964602 13.8679646 4.93168142.200708.26123894.8952212.43008849.6084956.86017699-1.0768142 1.05132743-2.1217699 2.13769911-3.2049558 3.18265487-.3823009.29309734-.659469-.31539823-.9621239-.46513275-2.3256637-2.08672566-5.4095575-3.21769911-8.5125663-3.32920354-7.5440708-.86336283-14.7568142 5.91292031-14.66761066 13.42513271-.43646018 5.5465487 3.45982301 10.7394691 8.39787606 12.940885 3.8962832 1.4941593 8.4106195 1.6725664 12.3100885.0987611-.0031858 1.1883185-.0095575 3.5617699-.0127433 4.7500884-6.7348673 2.9883186-15.3015929 1.2424779-20.55185843-3.9058407-2.93097345-2.9628318-5.07823009-6.8304424-5.58159292-11.0070796-1.08637168-5.4509735 1.06088496-11.0930973 4.59079646-15.21557523 3.5139823-3.77203539 8.55716819-6.11044247 13.71823009-6.26654867z"/><path d="m71.3819469.96530974c8.1684956-.01274337 16.3338053-.02867257 24.5023009.00637168.0318584 1.69168141.0318584 3.38017699-.0031859 5.0718584-6.1518584.0541593-12.3037168-.04141593-18.4555752.02867257-.0223009 3.28141593-.0286725 6.56601771.0031859 9.84743361 5.5178761.0382301 11.038938-.0159292 16.5568141.0095575.9334514-.1752212 1.4846018 1.1150443.9589381 1.9083186-.0031859.7932744-.0095575 2.3830089-.0127434 3.1762832-5.8364602.0509735-11.6697345-.0254867-17.5030088.0254867-.0509735 5.301239.0254867 10.6024779-.0254868 15.9037168-2.0102654.0063717-4.0205309.0732744-6.0307964-.0095575-.0095575-11.9883186-.0318584-23.979823.0095575-35.96814156z"/><path d="m51.7189381 10.3730973c2.9086725-.52566367 5.8523893.4842478 8.3946902 1.8382301 6.7953982 4.5876107 7.6492036 15.2697345 2.5136283 21.4375222-4.778761 5.1546902-13.8010619 5.619823-18.9366371.7136283-5.0049558-5.3904425-5.4477876-14.8300885-.2994691-20.2842478 2.0676107-2.3638938 5.2630089-3.5107965 8.3277877-3.7051328zm0 4.7500885c-4.3741593.5065487-6.3270797 5.6038938-5.9734514 9.4969912.1975221 2.2619469.5033629 4.7341593 2.2651328 6.3812389 2.5295575 2.7047788 7.2318584 2.7175222 9.7327433-.0127433 2.9054868-4.0109735 3.1953983-10.2074337-.0923893-14.0909735-1.6152213-1.3571681-3.8134514-2.2173451-5.9320354-1.7745133z"/><path d="m109.701239 10.360354c3.800708-.45557524 8.248142.1433628 10.972035 3.0902655 1.191505 1.8637168 2.210974 4.0205309 1.987965 6.298407-.03823 5.7313275.041416 11.4658408-.028673 17.1971682-1.793628.0095575-3.587256.060531-5.374513-.0063717-.044602-.9716814.006372-1.9242478-.050973-2.8895575-2.172744 2.3352212-5.307611 3.5713274-8.474337 3.698761-3.494867.4141593-7.700177-1.0545132-9.0477872-4.5939823-1.220177-2.7238938-.6084956-6.078584 1.2584072-8.3532743 4.249911-4.0969911 10.561062-3.5840708 15.973805-3.7943363.286726-1.8923894-.105133-4.039646-1.825487-5.1483186-1.984778-.9748672-4.488849-1.3157522-6.559646-.3727433-1.4623.4555752-2.621947 1.7553982-2.860885 3.2782301-1.908318-.0764602-4.186194.1911504-5.890619-.6467257.662655-2.6283186 2.19823-5.1323894 4.715044-6.3302655 1.561062-.9621239 3.427965-1.140531 5.205664-1.4272566zm2.545487 14.9447787c-2.023009.1561062-4.35823.1847788-5.925664 1.6884956-1.318938 1.0449558-1.331681 2.9437168-1.130974 4.4633629 2.003894 2.398938 5.785487 2.2460176 8.299116.7900884 2.500884-1.3476106 3.886725-4.2753982 3.427964-7.0757522-1.169203.0318584-3.504425.1019469-4.670442.1338053z"/><path d="m141.559646 10.360354c3.31646-.4683186 7.177699.8824779 8.882124 3.9026548 1.121416 2.3861947 1.586549 5.0846018 1.529203 7.7161062-.028672 4.9890266.028673 9.9780531-.0223 14.9670797-1.905133.0031858-3.80708.0700885-5.709027-.0095575-.073274-5.4031859.082832-10.8095576-.063717-16.2095576-.073274-1.9752212-.981239-4.2021238-2.905487-5.0049557-1.576991-.5161062-3.297345-.8219469-4.922123-.3440708-2.816284 1.4782301-4.081062 4.8265487-3.912213 7.8753982-.025487 4.5621239.057345 9.1274337-.012743 13.6927434-1.905133.0031858-3.80708.0700885-5.705841-.0095575.003186-8.5762832-.060531-17.1525664.031859-25.7256637 1.576991-.9175222 3.851681-.1656638 5.677168-.3631859.003186.9525664.006371 1.9178761.035044 2.8736283 1.984779-1.8159292 4.316814-3.319646 7.098053-3.3610619z"/><path d="m166.090619 10.360354c3.711505-.45876108 8.034691.2134513 10.717169 3.0361062 1.006725 1.5037168 2.007079 3.179469 1.924247 5.0654867-1.793628.0031858-3.587256.0955752-5.371327-.0159292-.579823-.9907965-1.102301-2.0484956-2.051681-2.7366372-1.917877-.5415929-4.01416-1.1246017-5.96708-.4205309-1.698053.0700885-3.329204 2.4371681-1.857345 3.7815929 4.619469 2.7876106 10.873274 2.1408849 14.814159 6.1869026 1.787257 2.5454868 2.124956 6.320708.105133 8.8279646-1.057699 1.6948673-3.016991 2.5550443-4.883894 3.0456638-4.077876.8824778-8.541239 1.1023008-12.405664-.7263717-3.036106-1.2838938-4.316814-4.6736283-4.708672-7.7161062 1.889203 0 3.79115-.1019469 5.686725.0159292.066903 2.4626548 2.287434 4.4028318 4.737346 4.2658407 2.233274-.0063717 4.960353.2580531 6.562831-1.6566372.621239-1.0162832.433275-2.4530973-.340885-3.3419469-2.258761-1.8892035-5.368141-1.8254867-8.025132-2.800354-2.55823-.7295575-5.511505-1.4176991-7.00885-3.8261947-1.564248-2.6219469-1.443186-6.4672566 1.178761-8.3755752 1.828673-1.8063717 4.447434-2.2810619 6.894159-2.6092035z"/><path d="m13.3900885 12.7561062c7.0024779-.0223009 14.0049557-.0223009 21.0074336 0-.3026548 1.4750442.5989381 3.4725664-.379115 4.7214159-6.8750443.0955752-13.7532744.0350443-20.6283186.0318584 0-1.1883186 0-3.5649557 0-4.7532743z"/><path d="m13.3900885 20.720708c6.8750442-.0031859 13.7500885-.0637168 20.6251327.0286725.0860177.0892036.261239.2644248.3504425.3504425.060531 3.8835398.0955752 7.7766372 0 11.660177-1.6630088 1.1628319-3.4247787 2.2969912-5.3522124 2.9628319-.079646-3.4088496.0350443-6.8176992-.0382301-10.2265487-5.1961062-.0637168-10.3922124.0541593-15.5851327-.0318584 0-1.1851328 0-3.5585841 0-4.7437168z"/></g></svg>