<svg height="90" viewBox="0 0 180 90" width="180" xmlns="http://www.w3.org/2000/svg"><g fill="none" transform="translate(0 34)"><path d="m1.07784431 0h26.94610779c.595277 0 1.0778443.48256734 1.0778443 1.07784431v20.47904189c0 .595277-.4825673 1.0778443-1.0778443 1.0778443h-26.94610779c-.59527697 0-1.07784431-.4825673-1.07784431-1.0778443v-20.47904189c0-.59527697.48256734-1.07784431 1.07784431-1.07784431zm3.23353294 4.31137725v14.01197605h8.62275445v-14.01197605zm11.85628745 0v14.01197605h8.6227545v-14.01197605z" fill="#0260ee"/><path d="m37.7245509 10.9638323c0-3.28419158.871976-5.90335326 2.6148503-7.85748499 1.7428742-1.9530539 3.9869461-2.928503 6.7322156-2.928503 1.8355688 0 3.4189221.50119761 4.748982 1.50359282 1.3035473.96712079 2.3171396 2.2729736 2.9306587 3.77568862l-3.6129341 1.16299401c-.471018-.84287425-1.0185629-1.52407186-1.6415569-2.04682635-.622994-.52167664-1.44-.78251497-2.451018-.78251497-1.5316168 0-2.748503.65209581-3.6495808 1.95736527-.9010779 1.30526946-1.3516168 3.04383234-1.3516168 5.21676649 0 2.2063473.4548503 3.9621557 1.3634731 5.2674251.9097006 1.3041916 2.1233532 1.9573653 3.6377245 1.9573653 1.011018 0 1.9164072-.3287425 2.7161677-.9851497.7743895-.6210902 1.364066-1.4422389 1.7051497-2.374491l3.7897006 1.1867066c-.2026348.5065868-.4462276 1.0023952-.7329342 1.4906586-.3300843.5471666-.7150669 1.0592728-1.148982 1.5283833-.4734772.5251325-1.0079123.9919039-1.591976 1.3904191-.582036.3944911-1.2804791.7189222-2.0964072.9722156-.8476204.256939-1.7291642.384483-2.6148503.3783234-2.6946108 0-4.9257485-.9592815-6.6944911-2.88-1.7687425-1.9207186-2.6525748-4.5646707-2.6525748-7.934012zm19.8053892 10.3580839v-21.3219162h4.0419162v21.3208383h-4.0419162zm6.6179641-7.6548503c0-2.4758084.6908982-4.42994015 2.0716168-5.8613174 1.3817964-1.43137724 3.0912574-2.14706587 5.1283832-2.14706587 1.9702994 0 3.6431138.73724551 5.0152096 2.20958084 1.3720958 1.47449102 2.0586826 3.40598803 2.0586826 5.79880243 0 .4882634-.0258683.9765269-.0754491 1.4658682h-10.1058683c0 .9592815.3039521 1.7719761.9097006 2.4359282.6068264.6661078 1.4227545.9991617 2.451018.9991617.7577246 0 1.4184431-.1897006 1.9832335-.5691018.5637126-.3783234.9883833-.8622755 1.2750899-1.4518563l3.3596407 1.1867066c-.5044312 1.1285029-1.3300599 2.0845509-2.4758084 2.8670658-1.1446707.7835928-2.5674252 1.1748503-4.2682635 1.1748503-2.1395209 0-3.8953293-.7329341-5.2674251-2.1977245-1.3731737-1.4658683-2.0586827-3.4350898-2.0586827-5.9108982zm4.1173653-1.2891018h6.0380838c0-.976527-.256527-1.814012-.7695808-2.51353296-.5141318-.69844312-1.2427545-1.04766467-2.1858683-1.04766467-.9592814 0-1.7137725.35353293-2.2602395 1.0605988-.5475449.70706583-.8213174 1.54131733-.8213174 2.50059883zm15.71497 4.4461078c0 .4548503.1756886.8385628.5292216 1.1500598.3535329.311497.8083832.4667066 1.3645509.4667066.8924551 0 1.6501796-.3017964 2.2742515-.9086227.6219161-.6068264.9334131-1.4152096.9334131-2.4251497v-1.011018c-.9765269.2360479-1.751497.3955689-2.3238323.4796407-1.8528144.2694611-2.7786826 1.0196407-2.7786826 2.2483833zm-4.0936527.3546107c0-1.3817964.5302994-2.526467 1.5919761-3.4361676 1.0605988-.9097006 2.6191617-1.5154491 4.6735329-1.8194012 1.6835928-.2694611 2.6601198-.4462276 2.9295808-.5302994v-.782515c0-.62299401-.214491-1.08215569-.643473-1.37748503-.4300599-.2942515-.9894611-.44191617-1.6803593-.44191617-1.5833533 0-2.9468263.62299402-4.0925748 1.8700599l-2.3744911-2.04682636c1.6501797-1.9702994 3.7897006-2.95544911 6.4164072-2.95544911 2.3249102 0 3.9750898.55616767 4.9516168 1.66742515.9765269 1.11125749 1.4658683 2.68598802 1.4658683 4.72419162v9.2705389h-3.9158084v-1.5661078c-.3039521.5723354-.8083833 1.0530539-1.516527 1.44-.7070658.388024-1.5154491.582036-2.4251497.582036-1.6491018 0-2.9597605-.4257485-3.9276646-1.2761677-.9689821-.851497-1.4529342-1.9584431-1.4529342-3.3219162zm16.1428743 4.1421557v-15.20838321h3.8651497v1.49173653h.0247904c.8256288-1.29664671 2.1136528-1.94550899 3.8651498-1.94550899 3.352096 0 5.027066 1.97029941 5.027066 5.91089817v9.7512575h-4.016048v-9.2705389c0-1.0778443-.151976-1.8398802-.45485-2.28610778-.303953-.44622755-.783593-.66934132-1.44-.66934132-.842875 0-1.524072.3405988-2.046827 1.0228743-.521676.6822754-.782515 1.5359281-.782515 2.5641916v8.6389221zm15.7128139 0v-15.20838321h3.86515v1.44107784h.024791c.190623-.26063418.406521-.50180469.64455-.72.260839-.24467065.677965-.5011976 1.2503-.77065868.55178-.26465607 1.155699-.40274731 1.767665-.40419162 1.584431 0 2.771137.75772456 3.562275 2.2742515.960359-1.51652694 2.42515-2.2742515 4.396527-2.2742515.908623 0 1.687904.15952096 2.335689.47964072.621492.29545414 1.143833.76499936 1.503592 1.35161677.353533.58203593.605749 1.2039521.757725 1.87005988.150898.6650299.227425 1.4011976.227425 2.2095808v9.7512575h-4.041916v-9.6747305c0-.8590419-.126108-1.4982036-.379401-1.92071858-.252216-.42035928-.672575-.63053892-1.262156-.63053892-.776048 0-1.386108.32335329-1.832335.9722156-.446228.6477844-.668264 1.4184431-.668264 2.3108982v8.9428742h-3.992335v-9.7760479c0-.7577245-.139042-1.3559281-.417126-1.79353291-.277006-.4376048-.685509-.65748503-1.224431-.65748503-.825629 0-1.444311.29964071-1.857126.89784431-.412814.59712573-.618682 1.39257483-.618682 2.38634733v8.9428742zm26.601198-7.6031137c0 1.6663473.311497 2.8541317.934491 3.5611976.622994.7081437 1.312814 1.0616766 2.071617 1.0616766.32012 0 .635928-.0722156.947425-.2155689.311497-.1422754.627305-.3697006.946347-.6811976.32012-.3125748.582036-.7922155.783593-1.44.202635-.6488622.302874-1.4108982.302874-2.2861077 0-.893533-.097006-1.6598803-.291018-2.299042-.192934-.6402395-.453772-1.120958-.782515-1.43999997-.328742-.32011976-.647784-.54754491-.959281-.68227544-.298791-.13229347-.621738-.20128665-.948503-.20263473-.757725 0-1.447545.3502994-2.070539 1.04874254-.622994.6995209-.934491 1.8905389-.934491 3.5752096zm-4.143233 0c0-1.045509.13473-2.0338923.404191-2.9683833.269461-.93556884.677964-1.78922154 1.225509-2.56526944.546467-.77389222 1.296647-1.38826348 2.247306-1.84311378.951736-.4548503 2.042514-.68227545 3.272335-.68227545 1.228742 0 2.315209.22634731 3.258323.68227545.943114.4548503 1.687904 1.06922156 2.235449 1.84311378.549961.78002684.964286 1.64730386 1.225509 2.56526944.269461.934491.404192 1.9239521.404192 2.9683833 0 .6736526-.059282 1.342994-.176767 2.0080239-.138461.7313906-.363143 1.4437872-.669341 2.1222755-.309149.7191756-.731238 1.3843284-1.250299 1.9702994-.506587.5637125-1.192096 1.031497-2.058683 1.4011976-.867665.3707784-1.857126.5561676-2.968383.5561676-1.09509 0-2.071617-.1767664-2.931737-.5302994-.857964-.3535329-1.548862-.8040718-2.070539-1.3516167-.532134-.5621147-.963795-1.2114294-1.276167-1.9196408-.311879-.6814658-.54059-1.3979974-.681198-2.1341317-.127333-.700589-.190827-1.4112878-.1897-2.1233533zm15.814131 0c0-2.4930539.673653-4.45904197 2.020958-5.89904197 1.347306-1.44 3.064312-2.16 5.152096-2.16 1.616767 0 2.956527.49580839 4.017126 1.49065869 1.061677.99377245 1.718084 2.10502994 1.971377 3.33485028l-3.410299.934491c-.159161-.606447-.462358-1.1655136-.883833-1.62970056-.421437-.46347306-.960359-.69520958-1.616766-.69520958-1.011018 0-1.778443.43868263-2.30012 1.31497004-.521676.8752096-.782515 1.9778443-.782515 3.3089821 0 1.4982035.291018 2.643952.870898 3.4350898.582036.7911377 1.318204 1.1877844 2.210659 1.1877844.741557 0 1.364551-.2532934 1.87006-.7577245.488321-.4752072.830204-1.0804227.98515-1.7439521l3.410299.9097006c-.286707 1.3138922-1.019641 2.4790419-2.198802 3.4986826-1.178084 1.0185629-2.558803 1.5283832-4.142156 1.5283832-2.122275 0-3.847904-.7329341-5.179042-2.1977245-1.33006-1.4658683-1.99509-3.4189222-1.99509-5.8602395zm15.636288 7.6031137v-21.3208383h3.992335v11.2160479l4.673533-5.10251497h4.976407l-5.709341 6.23964077 5.910898 8.9676646h-4.673533l-3.839281-6.1383233-1.338683 1.4658682v4.6724551h-3.991257z" fill="#14213c"/></g></svg>