<svg height="90" viewBox="0 0 180 90" width="180" xmlns="http://www.w3.org/2000/svg"><g fill="none" fill-rule="evenodd"><g fill="#dd137b" transform="translate(34.411765 18)"><path d="m27.4764706 0h1.5264706c.6441176.87352941 1.3235294 1.74705882 1.7470588 2.76176471-.0970588 2.14411764-2.9294118 3.5117647-4.4382353 1.77352941-1.6941176-1.4382353-.2029412-3.52941177 1.1647059-4.53529412z"/><path d="m.15 10.5c2.99117647.0617647 5.96470588-.3088235 8.82352941-1.19117647 4.13823529-1.20882353 7.90588239 2.09999997 9.87352939 5.42647057 3.7235294 6.1147059.8382353 15.132353-5.867647 17.7441177-2.6558824 1.1382353-5.38235298-.1235294-7.77352945-1.2529412.04411765 7.5264706.11470589 15.0617647-.05294117 22.5970588h-4.97647059c-.06176471-14.4441176-.00882353-28.8794118-.02647059-43.3235294zm5.10882353 3.6529412c.08823529 4.4294117-.24705882 8.867647.13235294 13.2882353 1.95 2.3823529 5.76176473 2.567647 8.41764703 1.3235294 6-2.9205883 5.8235294-13.1735294-.4147059-15.7411765-2.7-1.4647059-5.69999995-.2294118-8.13529407 1.1294118z" fill-rule="nonzero"/><path d="m44.4176471 9.24705882c3.8117647-.93529411 7.4117647 1.60588238 9.5029411 4.57941178-2.5411764-.3529412-4.6323529-1.9852941-7.1205882-2.4705882-2.2147059-.3794118-4.1470588.9352941-5.9823529 1.95.0617647 5.267647.0529411 10.5352941.0088235 15.7941176 1.8352941.9882353 3.767647 2.3029412 5.9647059 1.9411765 2.4970588-.5117647 4.6147059-2.1176471 7.1558823-2.5235294-2.1088235 3-5.6823529 5.5235294-9.5117647 4.6235294-4.8794117-1.3147059-8.3911765-6.1235294-8.6735294-11.1-.4411765-5.5235294 3.2382353-11.3117647 8.6558824-12.79411768z"/><path d="m25.5264706 10.3852941c1.7205882.0176471 3.4411765.0352941 5.1705882.0617647-.0264706 7.4470588-.0352941 14.8852941 0 22.332353-1.7205882.0264706-3.45.0529411-5.1705882.0794117 0-7.4911764 0-14.9823529 0-22.4735294z"/></g><g fill="#00599e" transform="translate(0 18.882353)"><path d="m24.6176471.05294118c1.5617647-.01764706 3.1235294-.00882353 4.6764705.02647058.4764706 1.94117648-.2823529 4.78235295-2.8147058 4.32352942-2.1529412-.32647059-2.1441177-2.68235294-1.8617647-4.35z"/><path d="m0 9.52058824h4.59705882c-.01764706 1.46470586-.04411764 2.93823526-.07941176 4.40294116 2.6117647-2.5323529 5.99117644-4.44705881 9.72352944-4.37647058 2.8323529-.08823529 5.2058823 2.60294118 5.0382353 5.37352938.0970588 5.682353.0264706 11.3735294-.0088236 17.0558824-1.6764706-.0088235-3.3529411-.0176471-5.0205882-.0176471-.2029412-5.6470588.2911765-11.3205882-.2470588-16.9411764-1.9676471-3.4058824-6.60000002-.6970589-9.36176473.2558823-.13235294 5.5588235-.03529412 11.1176471-.06176471 16.6764706-1.52647058 0-3.05294117 0-4.57941176 0 0-7.4735294 0-14.9558824 0-22.42941176z"/><path d="m24.3882353 9.52058824h5.1v22.42941176c-1.7029412 0-3.3970588 0-5.1 0 0-7.4735294 0-14.9558824 0-22.42941176z"/></g><g fill="#000" transform="translate(95.294118 23.294118)"><g fill-rule="nonzero"><path d="m64.9676471 5.00294118c5.3911764-3.66176471 12.4764705-5.50588236 18.767647-3.16764706.5558824 7.61470588.15 15.29999998.2117647 22.93235298.2911765 4.3941176-6.5470588 5.7617647-8.0470588 1.6764705-.5823529-2.2235294 2.4176471-2.4441176 3.4588235-1.05-.45.5735295-1.35 1.7205883-1.8 2.3029412.8470589-.5911764 2.5852941-.7235294 2.3735294-2.1529412.2117647-7.2441176-.0352941-14.4970588.0352942-21.74999995-5.0647059-1.20882353-10.2882353-.3-15.0264706 1.66764706.1235294.59117647.3617647 1.75588235.4852941 2.33823529 1.367647 1.07647059 2.5588235 2.3470588 3.7058823 3.6529412-.0794117-1.65000002-.15-3.30000002-.2205882-4.95882355 1.2176471.01764706 2.4352941.03529411 3.6617647.04411764 0 .36176471-.017647 1.07647059-.0264706 1.4382353 1.0411765.92647059 2.0647059 1.87058823 3.0705883 2.83235291-.0617647-1.42941174-.1147059-2.86764703-.1676471-4.29705879 1.2794118.00882353 2.5588235.02647058 3.8470588.04411764-.1852941 2.79705883-.8294117 5.53235295-1.2264706 8.30294115.432353 1.8352941 1.2352942 3.5647059 1.7117647 5.4-.8911764.9794118-1.7823529 1.9588236-2.6735294 2.9294118-.2117647-1.3411765-.4235294-2.6823529-.6352941-4.0235294-1.6147059 2.6911765-2.7882353 5.8941176-5.5235294 7.6764706 1.5529412-3.9088236 3.6529412-7.7029412 4.0764706-11.9647059-.3088235-2.3294118-1.4470588-4.4205882-2.3735294-6.54705884-.4147059 2.29411764-.7764706 4.59705884-1.2882353 6.86470584.6794117 1.5970589 1.3411765 3.1852942 1.9764706 4.8-.882353 1.0764706-1.7647059 2.1617648-2.6382353 3.2470589-.2647059-1.2882353-.5294118-2.5852941-.7941177-3.8735294-1.4647059 2.1264705-2.0294117 5.5323529-4.8794117 6.1941176v3.2294118c-1.3411765-.0176471-2.6735294-.0352941-4.0147059-.0617647.0529412-8.9294118.017647-17.8588236.0264706-26.79705886 1.3411764.00882353 2.6911764.00882353 4.0323529.01764706-.0264706.76764706-.0794118 2.28529412-.1058823 3.05294118zm.4588235 3.97941176c-.8382353 5.36470586-.2735294 10.93235296-.2735294 16.37647056 2.1088235-2.9294117 3.15-6.5735294 3.4323529-10.1382353-.5823529-2.1441176-1.4911765-4.1823529-2.4264706-6.19411761-.1852941-.00882353-.5470588-.03529412-.7323529-.04411765z"/><path d="m10.0676471 2.44411765c1.3588235.00882353 2.717647.01764706 4.0852941.02647059-.0176471.59117647-.0529412 1.77352941-.0705883 2.36470588 2.7088236-1.80882353 5.9117647-2.84117647 9.2029412-2.50588236.2558824 3.19411765.1852941 6.3882353.1588235 9.58235294-3.0882352-.2029412-6.167647-.5117647-9.2647058-.4764706.6088235 7.3235294-2.1088236 14.8764706-7.95000004 19.5088235.6882353-1.2705882 1.40294118-2.5235294 2.13529412-3.7764705-1.43823529-.1235295-2.99117647-.1588236-4.01470588-1.3411765-1.19117647 1.0058823-2.65588235 1.2705882-4.15588235 1.3411765-.0882353-7.9941177-.00882353-15.9882353-.03529412-23.99117651 1.09411765-.00882353 2.18823529-.01764706 3.28235294-.02647059v1.40294118c1.45588235-1.02352942 3.07058824-1.75588236 4.78235294-2.21470589.36176471 8.15294121-.0617647 16.32352941.2382353 24.47647061 2.91176469-7.782353 1.10294117-16.2617647 1.60588239-24.37058825zm4.0411764 3.58235294c.0088236 1.17352941.0176471 2.33823529.0264706 3.50294117 1.8794118-.00882352 3.7676471-.00882352 5.6470588-.01764705-.0088235-1.65-.017647-3.3-.0352941-4.95-1.9147059.34411764-3.8029412.82941176-5.6382353 1.46470588zm-10.66764703 5.99117651c-2.03823529 1.3588235-2.15294118 3.9529411-.00882353 5.3029411.05294118 2.1705883.05294118 4.35.06176471 6.5205883.38823529-.0176471 1.16470588-.0529412 1.55294117-.0705883-.01764706-2.0823529-.02647058-4.1647058 0-6.2558823.72352942-1.05 2.41764706-2.3029412 1.37647059-3.6970588-2.18823529-2.4176471-1.14705882-5.78823534-1.52647059-8.72647063-1.90588235 1.83529412-1.35882353 4.53529412-1.45588235 6.92647063z"/><path d="m35.5411765 5.50588235c4.7382353-3.32647059 10.6852941-5.13529411 16.4470588-3.97058823 1.1382353.26470588 2.9117647.33529412 2.6205882 1.97647059.132353 8.54117649.0088236 17.07352939.0529412 25.61470589-1.3323529 0-2.6558823 0-3.9794118 0-.017647-.3529412-.0441176-1.0676471-.0617647-1.4205882-4.9941176 0-9.9970588.0264705-14.9911764-.0176471-.0264706.3617647-.0882353 1.0764706-.1147059 1.4382353-1.3411765 0-2.6735294 0-4.0147059 0 0-8.9470588 0-17.8941177 0-26.83235295 1.35-.00882353 2.7088235-.00882353 4.0676471-.00882353-.0088236.80294117-.0176471 2.41764706-.0264706 3.22058823zm-.0176471.56470589c.2029412 1.74705882-.4764706 3.77647058.7235294 5.25882356.2294118.0352941.6794118.1058823.9088236.1411764.5735294-1.7205882.9705882-3.48529408 1.3147058-5.24999996 1.4117647-.03529412 2.8235294-.05294118 4.2352942-.07941177-.2205883.45-.6705883 1.33235294-.9 1.78235294 2.3647058-.74117647 4.7823529-1.39411765 7.2882352-1.33235294-.5117647 2.74411765-2.3823529 4.83529413-4.0852941 6.92647063 1.9058824.6970588 3.8558824 1.2705882 5.7970589 1.8617647-.2647059-3.7235294-.1235295-7.46470592-.15-11.19705886-5.1088236-1.14705882-10.4647059-.44117647-15.132353 1.8882353zm4.4029412 3.61764705 1.5 1.11176471c-1.8352941.7588235-3.7147059 1.4029412-5.5235294 2.2323529-.1235294.9705883-.3705883 2.9029412-.5029412 3.8647059.5647059.3176471 1.1294118.6352941 1.6852941.9441177 2.7705883-2.5058824 4.8176471-5.6117647 7.0676471-8.55882356-1.4117647.10588235-2.8235294.24705882-4.2264706.40588235zm2.9647059 5.43529411c-2.232353 1.65-4.6941177 3.0088235-7.4029412 3.7058824.0794118 2.3117647.0794118 4.6235294.0794118 6.9352941h7.4823529c-.2205882-.2117647-.6617647-.6529412-.8823529-.8735294l-.5647059-.3441177c-.7147059-1.4558823-.0705883-2.6735294 1.4294117-3.3882353-.6705882-.5823529-1.3411764-1.1647059-2.0117647-1.7470588.5205883-.9264706.6-2.5941176 2.0558824-2.3205882 1.5-.0882353 1.5529412 1.7205882 2.117647 2.6647059l-1.517647.0352941c.0264706 1.8 2.3029412 4.217647-.2911765 5.267647 2.2588235 1.1205883 4.8352941.6176471 7.2617647.7147059-.5382353-3.45 1.332353-7.7558823-1.3147059-10.5352941-.15.8117647-.4588235 2.4352941-.6088235 3.2470588-1.9941176-1.0323529-3.9264706-2.1705882-5.8323529-3.3617647z"/></g><path d="m3.83823529 13.3941176c1.7382353-.6 2.47058824 2.2941177.61764706 2.5411765-1.67647059.4941177-2.3117647-2.2147059-.61764706-2.5411765z"/><path d="m14.7617647 12.8823529c1.2970588 0 2.5941177-.0088235 3.9-.0088235.0264706 1.5088235.0617647 3.0088235.1147059 4.5176471.8823529-.9352941 1.7470588-1.8882353 2.5941176-2.8588236 1.0941177.6352942 2.1882353 1.2617647 3.282353 1.8970589-1.8970588 1.1029411-3.8735294 2.0470588-5.9735294 2.7.017647 2.1352941-.0970589 4.2882353.1235294 6.4235294.0088235 1.1382353 2.4441176 1.5882353 2.6205882.1764706.6088235-1.9058824.7588235-3.9264706 1.2441177-5.8764706.3264705 2.4617647.5470588 5.117647 2.9647058 6.4588235-2.0735294 3.2382353-6.1588235 3.2029412-9.5294117 2.6029412-1.2970588-.5735294-1.4735294-2.1088235-1.4205883-3.3352941-.0264705-4.2352942-.0264705-8.4705883.0794118-12.6970589z"/></g></g></svg>