<svg height="90" viewBox="0 0 180 90" width="180" xmlns="http://www.w3.org/2000/svg"><g fill="none" transform="translate(0 22)"><path d="m0 36.576v-21.024c0-1.008 1.008-1.728 2.016-1.296l19.152 8.208c.576.288.864.72.864 1.296v21.024c0 1.008-1.008 1.728-2.016 1.296l-19.152-8.208c-.432-.144-.864-.72-.864-1.296zm43.92-20.016-17.712 7.632v19.44l17.712-7.632zm.72-2.448c.72 0 1.44.576 1.44 1.44v21.024c0 .576-.288 1.152-.864 1.296l-19.152 8.208c-.144.144-.432.144-.576.144-.72 0-1.44-.576-1.44-1.44v-21.024c0-.576.288-1.152.864-1.296l19.152-8.208c.144-.144.288-.144.576-.144zm-21.744-11.952-18.288 8.208 18.288 8.064 18.288-8.208c0 .144-18.288-8.064-18.288-8.064zm0-2.16c.144 0 .432 0 .576.144l20.16 8.928c1.152.432 1.152 2.16 0 2.592l-20.016 8.928c-.144.144-.432.144-.576.144s-.432 0-.576-.144l-20.16-8.928c-1.152-.432-1.152-2.16 0-2.592l20.016-8.928c.144-.144.432-.144.576-.144z" fill="#63c5da"/><path d="m75.888 24.912c0 2.16-.864 3.888-2.592 5.184-1.584 1.152-3.456 1.728-5.616 1.728s-3.888-.576-5.472-1.728c-1.584-1.296-2.448-3.024-2.448-5.184v-12.24h4.032v11.376c0 1.008.432 1.728 1.296 2.448.72.576 1.728.864 2.736.864s1.872-.288 2.592-.72c.864-.576 1.152-1.44 1.152-2.448v-11.52h4.032v12.24zm5.904 6.768h-4.176v-19.008h4.176zm12.528-7.488h-4.032c-1.008 0-1.728.288-2.16 1.008-.288.432-.432 1.008-.432 1.728v4.752h-4.176v-6.336c0-1.44.432-2.736 1.152-3.6.864-1.152 2.16-1.584 3.888-1.584h5.184c.432 0 .864-.144 1.152-.432s.432-.72.432-1.152-.144-.864-.432-1.152-.72-.576-1.152-.576h-10.08v-4.176h10.8c1.584 0 2.88.576 3.888 1.728.864 1.008 1.296 2.448 1.296 3.888 0 1.584-.432 2.88-1.296 3.888-1.152 1.44-2.304 2.016-4.032 2.016zm10.944 7.488h-4.176v-19.008h4.176zm20.304 0h-4.896l-4.464-6.912c-.144-.288-.144-.288-.432-.288s-.288.144-.288.288l-4.464 6.912h-4.896l1.584-2.448c1.296-2.016 2.16-3.456 2.736-4.464.432-.864.864-1.584 1.44-2.448l-5.616-9.36h4.896l4.464 6.912c0 .144.144.288.288.288s.288-.144.432-.288l4.464-6.912h4.896l-5.616 9.36zm16.848 0h-10.8c-1.584 0-2.88-.576-3.888-1.872-.864-1.152-1.296-2.448-1.296-4.032 0-1.44.288-2.592 1.008-3.744-.72-1.008-1.008-2.304-1.008-3.6 0-1.584.432-2.88 1.296-3.888 1.008-1.152 2.16-1.728 3.888-1.728h10.8v4.032h-10.08c-.432 0-.864.144-1.008.576-.288.288-.432.72-.432 1.152s.144.864.432 1.152.576.432 1.152.432h10.08v4.176h-10.656c-.288.144-.432.288-.72.72s-.288.72-.288 1.008c0 .432.144.864.432 1.152s.576.576 1.152.576h10.08v3.888zm17.712 0h-7.488c-2.448 0-4.32-.576-5.616-1.728-1.152-1.008-1.872-2.16-2.304-3.888-.288-1.008-.432-2.16-.432-3.456v-9.936h4.176v8.928c0 1.584.288 2.88 1.008 4.032.72 1.296 1.872 1.872 3.168 1.872h7.488zm17.568-14.976h-10.08c-.432 0-.864.144-1.008.576-.288.288-.432.72-.432 1.152s.144.864.432 1.152.576.432 1.152.432h5.904c1.584 0 2.88.576 3.744 1.728.864 1.008 1.296 2.448 1.296 4.032s-.432 2.88-1.296 4.032-2.16 1.728-3.744 1.728h-10.8v-4.032h10.08c.432 0 .72-.144 1.008-.576.288-.288.432-.72.432-1.296s-.144-.864-.288-1.152c-.288-.288-.576-.432-1.008-.432h-6.048c-1.584 0-2.88-.576-3.888-1.728-.864-1.008-1.296-2.304-1.296-3.888s.432-2.88 1.296-3.888c1.008-1.152 2.16-1.728 3.888-1.728h10.8v3.888z" fill="#000"/></g></svg>