<svg height="90" viewBox="0 0 180 90" width="180" xmlns="http://www.w3.org/2000/svg"><path d="m4.9049999 39.942h21.297v5.673h-6.51v1.457h8.649v2.263h-8.649v1.457h7.44v2.108h-7.44v1.457h9.703v2.356h-9.703v2.511h-2.852v-13.609h-2.604v13.609h-2.852v-2.511h-9.548v-2.356h9.548v-1.488h-7.719v-2.108h7.719v-1.426h-8.649v-2.263h8.649v-1.457h-6.479zm18.414 3.596v-1.55h-15.531v1.55zm-15.996-8.835c-.589.589-1.209 1.116-1.86 1.612h8.928v-1.612zm-3.038 1.612-1.209-1.457c1.705-1.054 3.162-2.449 4.34-4.247l2.604.589c-.279.434-.558.868-.837 1.271h5.208v-2.015h2.79v2.015h9.61v2.232h-9.61v1.612h12.214v2.232h-27.59v-2.232zm42.0256667 0h-5.208v-2.511h4.34c-.434-.868-.961-1.705-1.55-2.48l2.511-.899c.62.961 1.209 2.077 1.767 3.379h3.968c.651-1.116 1.209-2.294 1.705-3.472l2.511.899c-.434.93-.868 1.798-1.364 2.573h3.968v2.511h-5.115v5.704h5.89v2.542h-19.468v-2.542h6.045zm4.96 0h-2.387v5.704h2.387zm5.642.434 2.077.961c-.589 1.302-1.333 2.573-2.232 3.813l-2.046-1.085c.93-1.24 1.643-2.48 2.201-3.689zm.744 9.548v12.896h-2.759v-1.147h-9.455v1.147h-2.79v-12.896zm-12.214 9.424h9.455v-2.356h-9.455zm0-4.588h9.455v-2.48h-9.455zm-2.015-14.229c.806 1.178 1.488 2.418 2.077 3.751l-2.046.868c-.651-1.426-1.395-2.697-2.201-3.751zm-7.998-6.107c1.86 1.55 3.472 3.069 4.774 4.588l-2.046 2.046c-1.147-1.426-2.759-2.976-4.805-4.619zm-4.185 9.021h6.789v13.082c.806-.744 1.674-1.581 2.573-2.511l.775 3.1c-1.829 1.798-3.751 3.379-5.797 4.774l-1.116-2.635c.496-.434.744-.93.744-1.519v-11.47h-3.968zm32.1986667-7.316h10.695v-1.984h2.914v1.984h10.571v2.387h-10.571v1.581h9.269v2.294h-9.269v1.55h11.935v2.449h-14.074c-1.55 1.147-3.162 2.108-4.774 2.914 2.418-.093 4.867-.186 7.316-.31 1.24-.682 2.48-1.395 3.72-2.139l2.263 1.488c-4.154 2.294-8.339 4.123-12.555 5.487 3.286-.124 7.192-.372 11.749-.744-.62-.62-1.209-1.24-1.829-1.86l2.015-1.24c2.263 2.139 3.999 4.03 5.208 5.642l-2.077 1.426c-.496-.682-1.023-1.364-1.612-2.046-2.697.186-5.084.341-7.192.465v4.588c0 1.86-.93 2.79-2.759 2.79h-2.945l-.589-2.604c.899.093 1.767.155 2.573.155.558 0 .868-.341.868-.961v-3.813c-2.697.124-4.805.217-6.355.217l-3.348.124-.589-2.418c.496.062.992.093 1.55.155 2.697-.744 5.363-1.674 8.029-2.821-2.325.124-4.774.217-7.316.341l-.496-2.108c.558-.062 1.116-.186 1.643-.434 1.116-.372 2.48-1.147 4.092-2.294h-9.393v-2.449h12.028v-1.55h-9.393v-2.294h9.393v-1.581h-10.695zm6.789 20.305 1.643 1.86c-2.418 1.612-5.425 2.976-8.959 4.061l-1.147-2.418c3.441-.899 6.262-2.077 8.463-3.503zm10.261-.093c3.193 1.054 6.107 2.356 8.773 3.875l-1.457 2.232c-2.821-1.705-5.735-3.069-8.711-4.061zm31.5166667-13.423h-7.564v-2.821h8.649v-5.89h2.914v5.89h3.317v2.821h-3.317v16.368c0 2.108-.992 3.193-2.976 3.193h-3.441l-.682-2.852c1.085.093 2.139.155 3.131.155.682 0 1.054-.434 1.054-1.24v-12.71c-2.139 5.239-5.332 9.641-9.548 13.206l-1.581-2.666c4.588-3.534 7.936-7.998 10.044-13.454zm-20.305-2.883h4.743v-5.797h2.914v5.797h3.875v2.821h-3.875v1.488c1.519 1.364 3.069 2.945 4.65 4.681l-1.705 2.573c-1.147-1.674-2.139-3.069-2.945-4.123v15.221h-2.914v-15.097c-1.054 3.007-2.387 5.766-4.061 8.246l-1.333-3.379c2.387-2.79 4.123-6.014 5.208-9.61h-4.557zm31.175667-4.65h25.234v2.883h-11.284v10.974h12.462v2.821h-12.462v10.726h-2.976v-10.726h-12.214v-2.821h12.214v-10.974h-10.974zm4.34 4.34c1.116 2.108 2.201 4.402 3.255 6.944l-2.759 1.364c-1.023-2.604-2.108-4.929-3.255-6.975zm16.74-.124 2.697 1.271c-.899 2.387-2.077 4.712-3.503 7.006l-2.666-1.364c1.457-2.356 2.604-4.65 3.472-6.913zm32.074666 10.075v13.175h-2.976v-1.271h-15.252v1.271h-2.976v-13.175zm-18.228 9.083h15.252v-6.262h-15.252zm-4.991-11.966-.558-2.79c2.356-.527 5.611-3.844 9.765-9.92l3.069 1.054c-2.511 3.472-5.053 6.386-7.657 8.742 5.27-.186 10.354-.527 15.283-.992-.992-1.488-2.015-2.852-3.038-4.154l2.666-1.271c2.511 3.1 4.898 6.51 7.161 10.261l-2.883 1.426c-.744-1.302-1.457-2.511-2.17-3.658-6.479.558-13.702.992-21.638 1.302z" fill="#2b3b4d" fill-rule="evenodd"/></svg>