<svg height="90" viewBox="0 0 180 90" width="180" xmlns="http://www.w3.org/2000/svg"><g fill="#00bcff"><g transform="translate(0 66.042253)"><path d="m107.075939 1.64967865h7.717959c-1.416122 3.12244897-3.996735 5.76918367-7.74 7.94938775l.580408.7402041c2.606327-1.5557143 4.665306-3.33734696 6.176939-5.34122451v9.96428561h.9v-11.28489786c.407755-.67775509.756735-1.35 1.046939-2.02775509h6.142041v-.85408164h-14.824286z"/><path d="m117.127653 5.06122966-.615306.60979592c1.987347 1.62918368 3.546734 3.15734694 4.685511 4.56979592l.675917-.6777551c-1.28755-1.51163266-2.870816-3.01224489-4.746122-4.50183674"/><path d="m140.024204 3.99592354h1.8v-.85408163h-1.8v-2.99020408h-.852245v2.99020408h-2.172857v.85408163h2.172857v3.90857142c-.740204.29020409-1.566734.56020409-2.477755.8044898v.87061225c.686938-.22591836 1.660408-.49591836 2.477755-.8044898v4.30897959c0 .4812245-.25347.727347-.758571.727347h-1.23796v.7714286h1.544694c.870612 0 1.304082-.4279592 1.304082-1.2728572v-4.90591839c.663062-.28836735 1.307755-.51244899 1.928571-.86510205v-.8687755c-.580408.31959183-1.221428.54734694-1.928571.88163265z"/><path d="m142.854612 14.2287399h8.415919v-.8191837h-7.547143v-11.7h7.547143v-.83571429h-8.415919z"/><path d="m145.317306 12.1660868c1.048775-.9863266 1.967143-2.18020407 2.751428-3.58346938.77143 1.13326531 1.445511 2.26285718 2.025919 3.37775508l.595102-.5987754c-.655714-1.1883674-1.390408-2.39142866-2.204082-3.60367356.664899-1.37938775 1.201225-3.1132653 1.60898-4.88938775h-.82102c-.321429 1.50061225-.762245 2.87081633-1.316939 4.1032653-.784286-1.15897958-1.671428-2.33816327-2.657755-3.53938775l-.593266.56387754c1.050613 1.28755103 2.000205 2.5567347 2.846939 3.8112245-.72 1.37387755-1.64204 2.60632652-2.766123 3.70285712z"/><path d="m167.197959 13.4492296h11.16551v-11.76979586h-11.16551zm-.868775.7842858v-13.36040819h12.903061v13.36040819zm4.697082-10.06016328c.600612.63367346 1.293061 1.18469387 2.075509 1.65306122.870613-.5344898 1.535511-1.17183674 1.996531-1.91387755h-3.879184zm-2.604491 4.16387754-.38755-.70714285c1.759591-.3544898 3.212448-.81918368 4.360408-1.39959185-.699797-.4610204-1.309592-.98265305-1.834899-1.56122448-.503265.52530612-1.089183.99183673-1.754081 1.39959184l-.483061-.64285714c1.493266-.9 2.455714-1.99836736 2.992041-3.29510205h.855918c-.130409.35265307-.290204.78428572-.484898 1.10938775h4.312653v.60795919c-.473878.91285714-1.201225 1.69897959-2.187551 2.36755102 1.157143.59877551 2.457551 1.06897959 3.892041 1.41428572l-.448163.6777551c-1.621837-.45183673-3.004899-.99734695-4.152858-1.64204082-1.274694.69795918-2.837755 1.25448979-4.68 1.67142857zm1.171286 2.35983674.356327-.6557143c2.141632.4151021 4.207959 1.0102041 6.191632 1.7797959l-.288367.7291836c-1.963469-.7714284-4.05-1.3904081-6.259592-1.8532652zm1.885225-2.26010205c1.274694.22959185 2.477755.56938777 3.607347 1.0267347l-.310408.70163265c-1.192041-.51061224-2.391429-.87061224-3.6-1.07816326z"/><path d="m12.9844286 3.50973987c-.0238775 2.49979592-.3765306 4.62122448-1.0634694 6.35877551-.72-1.70816326-1.1369388-3.68265306-1.2544898-5.92163265l.1304082-.43714286zm-1.4969388-3.35755102h-.8210204c-.3526531 2.64489796-1.04693879 4.81224489-2.07551021 6.36979591l.51612245.62632653c.35265305-.51612244.68693877-1.09836734.99734696-1.75224489.1910204 2.00204081.657551 3.81122448 1.3995918 5.4220408-.7071428 1.3812244-1.66224489 2.4612244-2.86530612 3.2491837l.51612245.6557143c1.14612247-.7677551 2.08102037-1.7797959 2.79734687-3.0379592.6226531 1.1479592 1.3904083 2.16 2.3014286 3.0379592l.5969389-.5785714c-1.0102042-.9532653-1.8293878-2.0516327-2.4630613-3.2932653.9-1.95428577 1.3665306-4.39897965 1.3995918-7.34142863h1.1002042v-.81918367h-3.8663266c.18-.74938776.3361224-1.73387755.4665306-2.53836735z"/><path d="m3.36324489.15200517c-.68693877 2.46489796-1.80918367 4.68551021-3.36306122 6.65816327l.28836735.91836735c.66489796-.81551021 1.23428571-1.59612245 1.70816326-2.33265306v9.56387747h.83387756v-11.07551013c.51428571-1.06530612.95142857-2.54387755 1.30408163-3.7322449z"/><path d="m4.31265306 7.42290313h1.76877552v-3.39612245h-2.18755103v-.80632653h2.18755103v-3.06918367h.83755101v3.06918367h2.13979592v.80632653h-2.13979592v3.39612245h1.7522449v5.42204087h-4.35857143zm.83387755 4.63040817h2.70367347v-3.84428572h-2.70367347z"/><path d="m38.9964489 11.3320255c-1.190204-1.0212244-2.0112244-2.18387746-2.4630611-3.48979584h4.9720408c-.5253061 1.32795919-1.3628572 2.49244894-2.5089797 3.48979584m3.3777552-3.52469379v-.8044898h-6.694898v.83938775h.0018367c.4720408 1.50061225 1.3683674 2.83224494 2.687143 3.98571434-1.2232654.9036734-2.7624491 1.6438775-4.6175511 2.2224489l.4830612.7236735c1.9193877-.5785715 3.5283674-1.3646939 4.8251021-2.367551 1.1681632.8944898 2.6228571 1.6787755 4.3604081 2.367551l.4665306-.7420409c-1.6622448-.5969387-3.0618367-1.315102-4.1969387-2.1544897 1.2434693-1.0965306 2.1379592-2.45020409 2.6853061-4.07020409"/><path d="m41.3283673 4.36529088v-3.5687755h-5.1795918v1.55387755c0 1.39591836-.72 2.48142858-2.1544897 3.25285714l.5914284.66122449c1.6218369-.94591836 2.43-2.27204082 2.43-3.99122449v-.65755102h3.4420409v2.89653061c0 .85408163.45 1.28571429 1.3371429 1.28571429h2.1875509v-.8044898h-2.0112244c-.4279592 0-.6428572-.20938775-.6428572-.62816327"/><path d="m32.8836122 3.46676027.6116327-.61346939c-.7108163-.80448979-1.6255102-1.63653061-2.7532653-2.4942857l-.5951021.57857142c1.1387756.87061225 2.0479592 1.71367347 2.7367347 2.52918367"/><path d="m34.6037142 11.6710868v-1.0322449c-.7732653.7346939-1.6824489 1.44-2.2848978 1.9010205v-7.40387764h-3.2014286v.85408164h2.3308163v8.1551021c1.1497959-.7604083 2.222449-1.5869389 3.1555101-2.4740817"/><path d="m68.6622858.06953579h-.9018369v4.95367347h-4.4559183v.8687755h4.4559183v9.06612244h.9018369v-9.06612244h4.4008162v-.8687755h-4.4008162z"/><path d="m62.0184489 3.46676027.6116327-.61346939c-.7089796-.80448979-1.6255102-1.63653061-2.7532652-2.4942857l-.5951022.57857142c1.1387756.87061225 2.049796 1.71367347 2.7367347 2.52918367"/><path d="m61.4534694 5.13671946h-3.2014286v.85408163h2.3326531v8.15326531c1.1479592-.7604082 2.2206122-1.585102 3.1555102-2.4722449v-1.0340816c-.7751021.7365306-1.6842857 1.44-2.2867347 1.9010203z"/></g><g transform="translate(0 8)"><path d="m179.462204 4.16461225v34.44795915c-.014693 2.4759184-2.020408 4.4779592-4.498163 4.4779592h-2.246327v-4.465102h-.003673v-4.3714286c-.01653.0055102-.027552.0183673-.045919.0183673h-4.057347c-.075306 0-.154286-.0771428-.192856-.1138775l-3.732246-6.8987756-3.166531 5.8812246c-.30857.5693878-.808162 1.0046939-1.395917 1.2893878-.538164.3140815-1.151633.5234693-1.840409.5234693-1.230612 0-2.279388-.5877551-2.911224-1.467551-.203878-.2259183-.378367-.4646938-.510612-.7053061l-2.986531-5.5304082-3.735918 6.9079592c-.036735.0367347-.115715.1138775-.231429.1138775h-4.031633v4.3346939.0110204c-.022041 2.4704082-2.025918 4.465102-4.498163 4.465102h-2.246326v-4.465102h-.003674v-34.45897956c0-.0422449.036735-.07530612.077143-.07530612h1.548367 5.122653v.0055102h28.838572v-.00183673h6.672857c.040408 0 .075306.03489795.075306.07714286zm-6.748163 7.91632655v-4.37510207h-28.838572v4.37510207h4.268572c.053265.0312245.093673.0532653.146939.0844898l3.633061 6.7316326 3.678979-6.715102c0-.0183673.016531-.042245.042246-.062449.394898-1.0028571 1.38857-1.7393878 2.61-1.7393878 1.243468 0 2.253673.7567347 2.635714 1.7871429.003673.0036735.012856.0110205.016531.0146939l3.702856 6.7573469 3.655102-6.7738775c.053265-.0312245.093673-.0532653.146939-.0844898zm0 21.6495918v-21.3814286l-5.805919 10.7853061zm-14.434899-3.0544898 4.121633-7.6408163-4.121633-7.6206123-4.123469 7.6206123zm-14.403673 2.9093878 5.750817-10.4987755-5.750817-10.6493878zm-22.180958-3.4942041h10.346325c.049592 0 .093675.0404082.093675.0918367v3.4089796c0 .0532653-.044083.0936734-.093675.0936734h-10.346325v4.9095919-.0146939.0275511.0477551h-.007347c-.040409 2.4520408-2.033266 4.4265305-4.494491 4.4265305h-2.246326v-4.4265305-.0477551-4.9224491h-13.21898c-.049591 0-.09-.0404081-.09-.0936734v-3.4089796c0-.0514285.040409-.0918367.09-.0918367h13.21898v-3.2491837h-6.292653v.0055103h-6.84c-.132245 0-.224082-.1304083-.183674-.2534695l3.111429-9.2681632h-3.225306c-.042245 0-.07347-.034898-.07347-.0734695v-3.4879591c0-.0385714.031225-.0734694.07347-.0734694h4.444898l1.230612-3.6734694c.023878-.07163264.091837-.11938773.167143-.11938773h6.911633c.128571 0 .220408.12673473.178163.24979593l-1.230612 3.5430612h17.601428c.040408 0 .07347.034898.07347.0734694v3.4879591c0 .0385715-.033062.0734695-.07347.0734695h-18.861428l-2.042449 5.884898h5.030816v-3.4530613c0-.1138776.093673-.207551.207551-.207551h6.331224c.115714 0 .209389.0936734.209389.207551v3.4530613h9.104693c.051429 0 .093674.0404081.093674.0936734v3.4457143c0 .0514286-.042245.0918367-.093674.0918367h-9.104693zm-50.6663274-10.6005306h17.9632653c.0404083 0 .0734695.0330612.0734695.0734694v3.4365306c0 .0404081-.0330612.0734694-.0734695.0734694h-17.9632653v15.5075509.0257144.0183673h-.0055102c-.0257142 2.4667347-2.0259183 4.4577552-4.4963265 4.4577552h-2.2463265v-4.4761225h.0018368v-15.5332653h-18.1910205c-.0422448 0-.0753061-.0330613-.0753061-.0734694v-3.4365306c0-.0404082.0330613-.0734694.0753061-.0734694h18.1910205v-8.937551l-1.3169388.1046938c-4.1638776.242449-8.6712245.3655102-13.4981633.3691837l-.0055102.0055102-.0055102-.0055102c-.1010205-.0055102-.1763266-.0826531-.1836735-.1818367 0-.0055102-.007347-.0036735-.007347-.007347 0-.0055102.007347-.0036734.007347-.0073469v-3.26387755-.00183674c0-.10469387.0863266-.1855102.1891837-.18918367h.0036735l.0018367-.0055102.0055102.00367347c.2314286-.01285715.6153061-.0367347.8485714-.05326531 12.3116327-.81 21.5302041-2.81020408 29.34-5.99877552.0606122-.02571428.1322449-.00734694.18.04040817l5.5138775 5.71224489c.1065307.11387755.0642858.30306124-.0863264.34530613-3.9710205 1.12408164-8.7171429 1.98918367-14.2402042 2.59163263zm61.0839184-11.97293879c0 .09918367-.07898.18183673-.18.18183673h-32.5946939v11.67979596c-.1891836 13.0261224-3.7781632 23.662653-8.3938775 23.662653h-1.8220408c1.7853061-6.5442857 3.4751021-16.157755 3.4751021-24.0318367v-14.72693879c0-.10469389.0863265-.18918367.1910203-.18918367l6.5240817-.01102042h11.4336731v-3.65877551-.42428571h1.849592c2.312449 0 4.198776 1.81102041 4.318163 4.08306122h15.01898c.10102 0 .18.08081633.18.18183674z"/><path d="m11.2428367 3.84061225c.2828572 0 .512449.22959183.512449.51061224v13.57346941c-.712653 1.8569388-1.0928571 3.8589795-1.0928571 6.0263265 0 2.152653.3802041 4.1528571 1.0928571 6.0208163v1.3959184c0 6.4910204-5.26224489 11.7551021-11.75510203 11.7551021v-28.0395919c0-6.20999999 5.03265306-11.24265305 11.24265303-11.24265305zm30.8316122 31.94210195.0128572.042245-.7824489.5271428c-1.1736736.7916327-2.2867347 1.4436735-3.3483674 1.9524491-1.0634694.5087755-2.1379592.9091836-3.2271429 1.2012244-2.2389796.6006123-4.4908163.7604081-6.7628571.4848979-2.2720409-.2736734-4.3897959-.9532653-6.355102-2.0295918-1.9634694-1.0781632-3.6936736-2.5218367-5.192449-4.3236735-.2185715-.2644897-.4077552-.5491836-.609796-.8265306-1.1718367-1.6181633-2.0571428-3.4530611-2.6155101-5.5322448-.5583674-2.0938776-.7108163-4.1253061-.5014286-6.1034694.0330612-.3214286.0532653-.6465306.1083673-.9661225.3875511-2.2793877 1.1644898-4.3622449 2.3363266-6.2485714 1.1681632-1.8881633 2.6742856-3.5228572 4.5183673-4.90040818 1.8440816-1.37938775 3.8975511-2.37122449 6.1622449-2.97918367 1.2930612-.34346939 2.5971429-.55285714 3.9159184-.62081633 1.3187755-.06795918 2.7385714-.00734694 4.2667347.18367347.9789795 3.64959184-1.3004082 7.35795921-4.9959184 8.14591841-.1763265.0404081-.3563265.0808163-.532653.1304081-1.2618368.3361224-2.3693878.8742857-3.3263266 1.6108163-.9532653.7346939-1.7155102 1.5924491-2.284898 2.5677552-.5675509.9771428-.9312245 2.0571428-1.0928571 3.24-.1579591 1.1828571-.0734694 2.3914285.2571429 3.620204.3379591 1.26.8706122 2.3638775 1.6016327 3.3061225.7291836.9459183 1.5924489 1.702653 2.5897958 2.2757142.9991837.5712246 2.0883673.9385715 3.2693878 1.1020408 1.1791837.1653062 2.3877551.0808164 3.6220408-.2497958.1891837-.0514286.3746939-.1065306.5583673-.1671429 3.5889797-1.1938775 7.4314286.9036734 8.4085714 4.5569387z"/></g></g></svg>