<svg height="90" viewBox="0 0 180 90" width="180" xmlns="http://www.w3.org/2000/svg"><g fill="none"><path d="m7.39354839 0h3.09677421c2.4387097.57419355 4.6645161 2.07741935 5.9096774 4.27741935 2.3612903 4.05161291.716129 9.89677415-3.5806452 11.90967745-4.5677419 2.516129-10.93548383-.2064516-12.18064512-5.283871-1.53548387-4.7548387 1.88387097-10.07741935 6.75483871-10.9032258z" fill="#f89984" transform="translate(21.290323 25)"/><path d="m0 0h1v25.1612903h-1c0-8.3870968 0-16.77419353 0-25.1612903z" fill="#ccc" transform="translate(60 35.322581)"/><path d="m0 21.9806452c4.19354839-7.3419355 8.43870968-14.65806455 12.6903226-21.97419359 4.2967742 7.33548387 8.5225806 14.70967739 12.7548387 22.07741939-8.4774194.0258064-16.96129033 0-25.4451613.0193548z" fill="#9adec1" transform="translate(0 36.612903)"/><path d="m.50967742.42580645c.34193548-.07096774 1.02580645-.20645161 1.37419355-.27096774.18709677 5.96774194.09032258 11.94193549.09032258 17.90967739-.36774194 0-1.09677419 0-1.45806452 0-.00645161-5.8774193 0-11.76129029-.00645161-17.63870965z" fill="#4f4f4f" transform="translate(161.290323 37.258065)"/><g fill="#505050" transform="translate(76.129032 38.548387)"><path d="m.29677419.6516129c.4 0 1.19354839-.00645161 1.59354839-.01290322v14.84516132c2.55483871 0 5.11612903-.0064516 7.67096774.0129032 0 .316129.00645162.9483871.00645162 1.2645161-3.0967742.0193549-6.18709678.0258065-9.28387097-.0129032.03225806-5.3612903.01290322-10.72903226.01290322-16.0967742z"/><path d="m53.0322581.63870968c.7806451.00645161 1.5612903.01290322 2.3419354.02580645 2.0193549 4.45806452 3.9806452 8.9483871 5.9483871 13.43225807 2.0258065-4.46451614 3.9806452-8.96129033 5.9806452-13.4451613.7483871 0 1.4967742-.00645161 2.2451613-.00645161v16.13548391c-.4-.0064517-1.1935484-.0129033-1.5935484-.0129033-.0193548-4.6258064.0645161-9.25161287-.0516129-13.87741932-2.4 4.63870968-3.9612903 9.69677422-6.6064516 14.20000002-2.5548387-4.6451613-4.3548387-9.66451615-6.6709677-14.4387097-.0064517 4.70967742 0 9.4129032 0 14.1225806-.4 0-1.1935484 0-1.5935484 0 0-5.3806451 0-10.75483866 0-16.13548382z"/><path d="m14.4129032 6.1483871c3.8645162-1.72258065 8.7225807 1.85806451 7.767742 6.1032258-.5548387 4.2258065-6.1935484 5.9548387-9.3290323 3.3096774-3.21290322-2.4258064-2.3419355-8.20645159 1.5612903-9.4129032zm1.1290323 1.0516129c-3.5419355.56129032-4.3225807 5.9483871-1.283871 7.6516129 2.2774194 1.5096774 5.9225807.3096774 6.3935484-2.5096774.9354839-2.9935484-2.116129-6.07096776-5.1096774-5.1419355z"/><path d="m24.5612903 11.6193548c-.2967742-3.14838706 2.6774194-5.90967738 5.7354839-5.84516125 1.6193548-.16129032 2.9419355.9032258 4.2322581 1.69677419-.0387097-.41290322-.1225807-1.2516129-.1612904-1.66451613h1.5483871c-.0580645 3.69032258.1161291 7.38064519-.0774193 11.05806449-.083871 2.3032258-1.7548387 4.5612904-4.1032258 4.9225807-2.7225807.7032258-5.4967742-.4903226-7.3741936-2.4516129 2.4258065-1.0645162 4.1806452 2.1483871 6.7225807 1.3032258 2.8129032-.3290323 3.4064516-3.3612903 3.5677419-5.683871-1.3548387.7290323-2.6516129 1.9548387-4.2967742 1.8516129-2.8516129.0709678-5.683871-2.2709677-5.7935484-5.1870968zm4.6258065-4.40645157c-3.1483871.70967742-4.2258065 5.20645157-1.6967742 7.23225807 2.2 2.1354839 6.2645161.8258064 6.8709677-2.1548387.8774194-2.9419355-2.2516129-6.00645163-5.1741935-5.07741937z"/><path d="m42.1806452 6.14193548c3.8451613-1.69032258 8.6645161 1.83870968 7.7548387 6.06451612-.5290323 4.2580645-6.2 6.0129032-9.3483871 3.3548387-3.2129033-2.4387097-2.3290323-8.23225804 1.5935484-9.41935482zm1.2193548 1.03225807c-3.6193548.47741935-4.483871 5.94838705-1.4 7.67741935 2.2967742 1.5290323 5.9741935.2774194 6.4064516-2.5806452.8645161-2.92903222-2.0645161-5.91612899-5.0064516-5.09677415z"/><path d="m73.2322581 7.18064516c2.4064516-1.48387097 6.3806451-2.37419355 8.1806451.43870968.9096774 2.94838706.2903226 6.12258066.5870968 9.15483866-.3548387 0-1.0709677 0-1.4258065 0 .0193549-.3935483.0709678-1.1935483.0903226-1.5870967-1.716129 1.516129-4.2967742 2.2645161-6.3677419 1-1.716129-.8967742-1.8322581-3.6258065-.2516129-4.7096774 1.9483871-1.4322581 4.516129-1.0645162 6.7870968-1.3032259-.483871-.95483866-.5483871-2.36774189-1.7032258-2.78064511-1.6580646-.85161291-3.4451613.07096774-4.9612904.78064516-.2387096-.24516129-.7032258-.74193549-.9354838-.99354839zm1.3354838 5.71612904c-.9032258 2.2645161 2.2064516 3.1096774 3.8258065 2.3612903 1.7096774-.3419355 1.9677419-2.2451613 2.3935484-3.6258064-2.1096774-.0064516-4.5225807-.2645162-6.2193549 1.2645161z"/><path d="m92.3806452 5.80645161c.5419354 0 1.632258-.01290322 2.1741935-.01290322-1.8967742 1.63225806-3.716129 3.35483871-5.6 5.01290321 2.0645161 2.0064516 4.0903226 4.0451613 6.2322581 5.9677419-.567742 0-1.6967742-.0064516-2.2645162-.0064516-1.632258-1.6258064-3.2645161-3.2387096-4.8516129-4.9096774l-.4129032.2903226c.0064516-.7354839.0258065-1.4709677.0516129-2.20645162 1.683871-1.22580645 3.1548387-2.70967742 4.6709678-4.13548387z"/><path d="m96.5096774 5.5483871c.8774194.2516129 1.7548387.51612903 2.6258065.78709677 1.3612901-.3483871 2.7548391-.54193548 4.1612901-.64516129-.4 2.38709677-3.780645 1.6-4.2516127 3.90967742-.5419355 2.5354839-.2193548 5.1612903-.316129 7.7354839-.6774194-.1354839-1.3483871-.2903226-2.0064517-.4774194-.1935483-3.7677419.0064517-7.54193547-.2129032-11.3096774z"/><path d="m94.4774194 20.9290323c.6129032-.6 1.3354838-1.1225807 2.2580645-1 2.3677419-.083871 4.7419351-.0193549 7.1096771.0580645-.348387 1.2838709-1.567742 1.0967742-2.529032 1.1612903-2.2838709.0258064-4.5741935.0322581-6.8387096-.2193548z"/></g><path d="m.16774194.34193548c6.82580645-.03870967 13.65161286-.01290322 20.47741936-.01935483v20.32258065c-6.8258065 0-13.65806453 0-20.48387098 0 .00645162-6.7677419-.00645161-13.53548388.00645162-20.30322582z" fill="#86b6e5" transform="translate(27.741935 45)"/></g></svg>