<svg height="90" viewBox="0 0 180 90" width="180" xmlns="http://www.w3.org/2000/svg"><g fill="#333" transform="translate(0 33)"><path d="m9.84480179 0h.62394011c.4174564.50274314.7316709 1.07281796 1.0369078 1.64289277 2.2802992 1.31970075 4.5830424 2.59900249 6.8633416 3.91870324.2154614-.1032419.6463841-.30523691.8618454-.40399002.3815461.22892768.7675811.46234413 1.1491272.69576059-.2244389.60149626-.4668329 1.19401497-.7226933 1.78204489-.0718204 2.65286783-.0673316 5.31022443-.0089775 7.96758103.2379052.6643392 1.0189526 1.4229427.3411471 2.0738155-3.2453865.3546134-5.7097257 2.729177-8.5107232 4.1880299-.3007481.5027431-.6104738 1.0009975-.9561097 1.476808h-.65536162c-.35461346-.444389-.67780548-.9067332-1.0009975-1.3690773-2.75162095-1.4857856-5.35511222-3.3261846-8.34463841-4.3182045-.82593516-.6284289.13915212-1.5710723.13017457-2.3700748.04937656-2.5047382.11221945-5.0184539-.03142145-7.51870327-.11670823-.68229426-1.21197008-1.75511221-.1840399-2.19501246 3.11970075-.65087282 5.64239401-2.75610973 8.43441397-4.18354115.30972568-.4713217.6329177-.93815461.97406483-1.38703242zm-3.81546134 8.84289277c1.08628429.57905237 2.15910224 1.18503743 3.25436409 1.75062343.60149626-.040399 1.20299256-.0314214 1.80448876.0269327 1.0279302-.5700748 2.042394-1.16259354 3.0703242-1.72817957-1.2389027-2.15910225-2.4239401-4.35411472-3.7122194-6.48179551-.1615961-.02693267-.49376563-.08528679-.65536164-.11221946-1.32418953 2.14114714-2.48229427 4.37655861-3.76159601 6.54463841zm-3.7032419-2.79201995c-.02244389.15710723-.06284289.46234414-.080798.61945137.99201995.6553616 2.0648379 1.16708229 3.09725685 1.75511222 1.15361596-2.01995013 2.25336659-4.06683292 3.46982544-6.04638404-2.14114713 1.25685785-4.34513716 2.41496259-6.48628429 3.67182045zm9.25137155-3.40698255c1.0503741 1.95261846 2.1995013 3.85586035 3.2633417 5.79950125 1.1625935-.6329177 2.3072319-1.29276808 3.4159601-2.01546135-2.2354115-1.24339152-4.4394015-2.54513715-6.6793018-3.7840399zm-10.04588526 4.59201995c-.01795512 2.66633417-.00897756 5.33266838-.01346634 7.99900248 1.09077307-2.0648379 2.30723192-4.0578553 3.38902743-6.12718203-1.13117207-.61496259-2.25785536-1.23890274-3.37556109-1.87182045zm13.72668326 1.96608479c1.234414 2.04239399 2.3566085 4.14763089 3.5865337 6.19451369-.0314215-2.7336658-.1750624-5.46284286-.0269327-8.19201992-1.2299252.58802992-2.405985 1.27481297-3.559601 1.99750623zm-3.7885287 2.14563589c-.2962593.4937656-.6104738.9830424-.9381546 1.4588529-.0089775 2.8503741-.0493765 5.7052369.0269327 8.555611 2.405985-1.3197008 4.7581047-2.7381547 7.1102244-4.147631.5790524-.282793.7586035-1.0997506.3321696-1.5980049-1.1356608-2.0199502-2.3117207-4.0174564-3.4294264-6.04638409-1.0279302.60598509-2.0603491 1.19850379-3.1017457 1.77755609zm-9.4399002 4.6234414c.10324189.3591023.31421446 1.0773068.41745636 1.436409 2.3925187 1.3376559 4.77605985 2.6798005 7.17306733 4.0084788.13017456-2.8997506.05835411-5.8084788.040399-8.7082294-.23790523-.4084788-.46234414-.8214464-.67780548-1.234414-1.07281796-.7092269-2.21296758-1.3062344-3.32618454-1.94812967-1.21197008 2.14563587-2.44638404 4.28229427-3.62693267 6.44588527z"/><path d="m89.5744776 9.19750623c.5072319-2.15910224 3.0927681-3.4159601 5.117207-2.52269326 1.3062344.48029925 1.9167082 1.81795511 2.4149626 3.01197007-.5790524.02244389-1.1581048.040399-1.7371571.05835412-.5206983-1.78204489-3.1421447-2.28927681-4.0219452-.53865337-.5386533 1.86733171-.5341646 3.95910221.0314215 5.81745631.9426434 1.6877806 3.3127182 1.1221946 3.9995012-.4937655.5655861.0089775 1.1356609.0224439 1.7057357.0359102-.4892768 1.1581047-1.0862843 2.4822943-2.3745636 2.9177057-2.1995012.99202-5.076808-.6374065-5.2159601-3.0703242-.1167082-1.7326683-.1705736-3.4922693.080798-5.21596007z"/><path d="m142.735076 6.80049875c1.737157-.83940149 3.78404-.25137157 5.341646.71371571-.300748.45785537-.597007.91571073-.888778 1.37356609-1.108728-.52518703-2.383541-1.07281796-3.613466-.62394015-1.063841.40399002-1.17606 2.1456359-.107731 2.6124688 1.216459.4892768 2.711222.2558604 3.766085 1.1356609 1.683291 1.3241895 1.481296 4.4753117-.55212 5.3506234-2.078304.8618454-4.506733.2783043-6.212469-1.1132169.363591-.4129676.731671-.8214464 1.099751-1.2299252 1.252369.8798005 2.913217 1.4049875 4.399002.7945137.915711-.40399.947132-1.7416459.350125-2.4284289-1.288279-.6643392-2.922195-.345636-4.098254-1.274813-1.714714-1.3107232-1.445387-4.36309228.516209-5.31022445z"/><path d="m160.070737 7.5276808c1.310723-1.45885287 3.842394-1.51720698 5.229426-.13466334.646384.62394015.942644 1.49476309 1.310724 2.29376558-.570075.02244389-1.131172.040399-1.69227.05835412-.507232-.72269327-1.018952-1.68329177-2.042394-1.63391521-1.229925-.15710724-2.244389.9605985-2.280299 2.13665835-.085287 1.5082294-.210973 3.074813.215461 4.5471322.457856 1.2703242 2.284788 1.7147132 3.276808.7945137.776559-.5700748.821447-1.5800499.929177-2.4508728-.763092-.0134664-1.521695-.0224439-2.27581-.0269327-.004489-.3995012-.008978-1.1985037-.013466-1.598005h3.833416c.089776 1.9930175.152618 4.470823-1.782045 5.6558604-2.347631 1.6608478-5.970075-.3411472-5.799501-3.2094763.094264-2.1276808-.610474-4.75361601 1.090773-6.432419z"/><path d="m32.3201135 6.53117207c.3411471-.00897756 1.0189526-.03142145 1.355611-.040399 1.3017456 3.72119703 2.5855361 7.44688283 3.882793 11.16807983-.4264339-.0044888-1.2793017-.0089776-1.7057357-.0134664-.2693266-.8394015-.5476309-1.6698254-.8259351-2.5047381-1.3331671 0-2.6663342 0-3.9995013-.0134664-.2917705.8438903-.5700748 1.6922694-.8573566 2.5361596-.4264339-.0044887-1.2793017-.0089775-1.7057356-.0134663 1.3017456-3.6987531 2.5990025-7.401995 3.8558603-11.11870323zm.7406484 2.23541147c-.5835412 1.61596006-1.0638404 3.26334166-1.6069826 4.88827926 1.0413966.0044888 2.0783043.0044888 3.1197008 0-.5341646-1.6204488-1.0369077-3.2498753-1.5127182-4.88827926z"/><path d="m41.472732 6.5042394c2.1411471.18852868 4.8029925-.64638404 6.4638404 1.14014963 1.5082294 1.53067331 1.0548628 3.84239397 1.090773 5.78154617.1660848 1.9660848-1.3017456 3.923192-3.2768079 4.1835411-1.4229427.1077307-2.8503741.0269327-4.2733168.0448878 0-3.7167082.0044888-7.4334165-.0044887-11.1501247zm1.6518703 1.60698255c-.0044888 2.65286785 0 5.30124685-.0044888 7.95411475 1.3915212-.0493766 3.317207.363591 4.0533666-1.2029926.4219451-1.6922693.3052369-3.519202.0942643-5.23840395-.5206982-1.84937656-2.6663341-1.51720698-4.1431421-1.5127182z"/><path d="m52.5645025 6.49975062c.426434.00448878 1.2837906.00897756 1.7147133.01346634.7541147 2.85037406 1.6922693 5.65137154 2.3296758 8.53316704.9785536-2.8054862 1.6743142-5.69177053 2.5137157-8.53765582.4309227 0 1.2882793-.00448878 1.719202-.00448878-1.1850374 3.7122195-2.3566085 7.4244389-3.5102245 11.1456359-.3187032 0-.9605985-.0044888-1.2793017-.0089775-1.1446384-3.7167083-2.3206983-7.4289277-3.4877806-11.14114718z"/><path d="m67.6243529 6.48628429c.3411471.01346633 1.0234414.03591022 1.3690773.04488778 1.2433915 3.72119703 2.5451372 7.41995013 3.8468828 11.11870323-.4219451.0044888-1.2703242.0089776-1.6922693.0089776-.2917706-.8438903-.5790524-1.6877806-.8842893-2.5316709-1.3331671.0134664-2.6663342.0179552-3.9995012.0134664-.2648379.8349127-.5296758 1.6698254-.7855362 2.5047381-.4354115.0044888-1.3017456.0089776-1.7371571.0089776 1.3017456-3.7167082 2.5810474-7.4468828 3.882793-11.16807981zm-.8842893 7.16857851c1.0369078.0044888 2.0738155.0044888 3.1107232.0044888-.5341646-1.6294264-1.0189526-3.276808-1.6024937-4.89276806-.4713217 1.63840396-.9830424 3.26334166-1.5082295 4.88827926z"/><path d="m76.6782183 6.52668329c.3860349-.00897755 1.1491271-.03142144 1.535162-.040399 1.6428928 2.65735661 3.2588529 5.33266831 4.8927681 7.99900251.0224439-2.6618454.0089776-5.32369079.0044888-7.98553618.3995013.00448878 1.1985037.00897756 1.598005.00897756-.0179551 3.71221942-.0134663 7.42443892 0 11.13665832-.3725686.0044888-1.113217.0224439-1.4857855.0314215-1.6563591-2.6438903-3.2678305-5.3102245-4.874813-7.9810474-.0448878 2.6528678-.0134663 5.3057357-.0179551 7.9630923-.40399 0-1.2074813-.0044888-1.6114713-.0044888-.0134664-3.7122195.0538653-7.4199501-.040399-11.12768081z"/><path d="m100.872732 6.50872818c2.284788-.00448878 4.565087-.01346633 6.849875.00448878.008978.37705735.026933 1.13117207.031422 1.50374065-1.737157.13915212-3.483292.10324189-5.229427.09875311v3.21396508c1.472319 0 2.944639-.0044888 4.416958 0 0 .3680798.004489 1.1042394.004489 1.4723192-1.476808.0044888-2.953616.0044888-4.430424.0044888.008977 1.0862843.008977 2.1680798.004489 3.2543641 1.737157 0 3.474314-.0044888 5.21596.0044888v1.5845386c-2.289277.0089776-4.574065.0044888-6.858853 0 0-3.7122194 0-7.4244389-.004489-11.14114712z"/><path d="m118.163505 17.6543641c.004489-3.7167082.004489-7.4334165-.004489-11.1501247 2.078304.19301746 4.578554-.59700748 6.28429.95610973 1.68778 1.5127182 1.279301 3.96807977 1.28379 5.99251867.125686 1.921197-1.265835 3.8109726-3.173566 4.147631-1.463342.121197-2.931172.0314214-4.390025.0538653zm1.656359-9.54314215c.004489 2.65286785-.004489 5.30573565.004489 7.95860345.870823-.0089775 1.746135.0359103 2.616958-.080798 1.117705-.2109725 1.759601-1.4094763 1.665336-2.486783-.089775-1.4543641.33217-3.0972569-.426434-4.4214464-.803491-1.36458852-2.558603-.87980049-3.860349-.96957605z"/><path d="m130.368493 6.49975062c2.27581.00897756 4.551621 0 6.827431.01346634-.013466.39950124-.03591 1.20299252-.049377 1.60249376-1.714713 0-3.433915 0-5.148628 0 0 1.07281796 0 2.14114718.004489 3.21396508 1.481297-.0044888 2.962593-.0089775 4.448379.0134663v1.4498754c-1.485786.0179551-2.97606.0089775-4.466334.0179551.013466 1.0817955.013466 2.163591.008977 3.2453865 1.72818.0044888 3.451871.0044888 5.18005.0044888v1.5935162c-2.271322 0-4.538155-.0044888-6.804987.0044888.004488-3.721197.004488-7.4379053 0-11.15910228z"/><path d="m152.82136 6.49975062c.412968.00448878 1.234414.00448878 1.647382.00897756-.004489 3.71221942 0 7.42892772 0 11.14563592-.412968 0-1.234414 0-1.647382 0 .004489-3.7167082.004489-7.4334165 0-11.15461348z"/><path d="m171.229839 6.49526185c.386035.00448877 1.153616.01346633 1.539651.01795511 1.606983 2.63491272 3.213965 5.26982544 4.820948 7.90473814.03591-2.6438903.008977-5.28329176.017955-7.92718203.62394.01795511 1.24788.040399 1.876309.06284289v11.06034914c-.58803.0179551-1.17606.0359102-1.76409.0493765-1.61596-2.6438902-3.218454-5.2922693-4.84788-7.93167078-.031421 2.64389028-.008978 5.28329178-.013466 7.92718208-.408479 0-1.220948 0-1.629427 0 .004489-3.721197 0-7.442394 0-11.16359105z"/></g></svg>