<svg height="90" viewBox="0 0 180 90" width="180" xmlns="http://www.w3.org/2000/svg"><g fill="none" fill-rule="evenodd"><g fill="#46bc01" transform="translate(3 11)"><path d="m0 0h65.8536585v65.8536585h-65.8536585zm18.5460366 23.6785061c-.0699695-.6791159-.1358232-1.3582317-.2057927-2.0373476-.617378.9425305-.8931402 2.0208842-.7408537 3.1445122-.9795731.9466464-1.9426829 1.9262195-2.6547256 3.0992378.197561-.0452744.5885671-.1317073.7861281-.1728658.1358232.8478658.3621951 1.8233232 1.3006097 2.0990853 1.9015244.6544208 3.6754574 1.5887196 5.3135671 2.757622-.3827744-1.1442073-1.123628-2.3378049-.6873475-3.5766768.5679878-1.8480183 2.9428353-2.4859756 4.5809451-1.7245427 1.18125.5185975 1.489939 2.0785061 2.7370427 2.4983232 1.0001524.3868902 2.0538109-.0946647 3.0827743-.0740854 1.1771342.8931402 1.9961891 2.1690549 2.7411586 3.4243902-2.3954268-.2881097-4.2846037-2.1114329-6.7376525-2.276067-.6667682 1.0618902-1.658689 1.8150914-2.7329268 2.4283536 1.3829268.0946647 2.7782012.0329269 4.1446646.2757622.2016769 1.3294207-1.7492378 1.5434451-2.7041158 1.8480183-.4403963-.4198171-.9054878-.8519817-1.5352134-.9301829-2.7082317-.5926829-5.4205793-1.4035061-7.7583842-2.9428354-.6009146-.3910061-1.152439-.9096036-1.4364329-1.5804878-1.0495427.8560976-2.3295732 1.3541159-3.654878 1.5804878-.703811.2140244-1.6545732.1481707-1.9838415.9507622.0658537.7120427.7614329 1.1071646 1.3705793.703811 1.432317-.8190549 2.9634146-1.4611281 4.6056402-1.7121951.872561.6132622 1.7698171 1.1894817 2.671189 1.7615853-.1728658.8602134-.4280487 1.7121952-.5144817 2.588872-.0123475.6132622 1.5640244.7902439 1.321189-.0041159.0905488-.7408536.1605183-1.4858231.2757622-2.2266768 1.2182927.646189 2.3707318 1.461128 3.7166159 1.8315549 1.3047256.4157012 2.7411585.3498475 3.9800305.9754573 1.18125.5803354 2.4077744 1.0536585 3.6672256 1.4364329-.1440549-.366311-.4280488-1.0907012-.5679878-1.4528963 1.1606707.279878 2.304878.6214939 3.4285061 1.0330792-.3827744 1.6586891-.8684451 3.4367379-2.2925305 4.5192074-.2304878-.7202744-.0740854-1.7657013-.8190549-2.1896342-1.1195122.197561-.3951219 1.4282012-.4650914 2.1608232-1.2553354-.2634146-2.3871952-.901372-3.630183-1.1853659-.3910061.2716464-.7614329.563872-1.1153963.8807927.9631097.8478659 2.8481707.3621951 3.3050305 1.6751525-.6626525 1.6628048-2.8317073 1.3253048-4.1487805 2.1196646-.6544207.3580793.1070122 1.4158537.7161585 1.1771341 1.6216464-.646189 3.2556403-2.0455792 5.1036586-1.3829268 1.7121951.872561 2.3913109 2.8275915 3.5807926 4.2269817.197561-.0329268.5885671-.0987805.7820122-.1317073.675-1.3170732-1.5969512-1.8480183-1.6092987-3.1980183-.5103659-1.2141768.6832317-1.9509146 1.3788109-2.7164634 1.3376525-1.2553354 2.0620427-2.9634146 2.8317074-4.5932927 1.8397865-.139939 3.6795731-.4157012 5.4082317-1.0989329.1522865.6297256.3045731 1.2594512.4609756 1.8891768-.3868903.3333842-1.4487805.5103659-1.0330793 1.238872.9219512.1522865 1.885061.1522865 2.7082317.6708841-1.0330793 1.0330793-2.473628 1.3253049-3.7618902 1.8891768-.1481708.423933-.0411586.7737805.3210366 1.0495427.9054878.0699695 1.5969512-.6708841 2.4118902-.9425305.7326219-.0658536 1.210061.6379574 1.7698171.9960366-.563872.983689-1.4199695 1.716311-2.1978659 2.5147866-.646189.646189.7614329 1.6051829 1.2224086.8602134.7614329-1.292378 1.5146341-3.0786585 3.2762195-3.1157012 1.4076219-.057622 2.2184451 1.2018293 3.0251524 2.1402439.366311.7778963 1.7245427-.1728659 1.2141768-.7902439-1.0042683-1.0948171-2.7864329-1.6175305-3.0868902-3.2597561.6708841-1.8727134 2.2019817-3.3503049 2.7164634-5.3176829-1.6216463 1.0125-2.4900915 2.9675305-4.3381098 3.6466463-.8272865.3868903-1.7410061.0905488-2.5477134-.1934451 3.1115854-.2716463 4.1282013-3.5108232 5.9844513-5.4740854 1.2429878-1.5846036 3.091006-2.9346036 3.3996951-5.0501524-.4445122-.8025915-1.1112805-1.489939-1.8891769-1.9714939-.9096036.2839939-1.629878.9384146-2.4077743 1.4528963.4939024-1.7121951-.4897866-3.1733231-1.4446647-4.4862805-1.3993902-.5967987-3.066311.1358232-4.4903963-.5103658-1.9920732-.6420732-3.8442073-2.3131098-6.0667683-1.7121951-1.9673781.4321646-3.9676829.8190548-5.9926829.7038109.9919207-.4856707 2.0085365-.9178353 3.0004573-1.3911585-.0041159-.0658537-.0205793-.197561-.028811-.2634146-1.8315549.4897866-3.741311.5679878-5.5934451.9795731-1.885061.4074696-3.9018293.6256098-5.7375-.1193597-1.35-.3333842-2.3007622-1.5434451-3.6713415-1.7739329-1.1647866.2099085-1.4693597 1.5105183-2.0579268 2.3501524zm-5.8403964 4.2146341c-.1028963 1.7862805 2.7535061 2.053811 2.9510671.2387196-.9795732-.1193598-1.9591463-.3292683-2.9510671-.2387196zm10.0838415 1.1153964c1.378811.2099085 2.7493903.448628 4.1282012.6420732-.4609756-.6626525-.8890244-1.5393293-1.8027439-1.6092988-.926067-.2510671-1.6833841.4074695-2.3254573.9672256zm-.1934451 1.5969512c.4321646.5803354.8231707 1.3582317 1.6422256 1.4282012.9260671.2469512 1.7039634-.3704268 2.3748476-.9054878-1.3458842-.1358232-2.6711891-.4033536-4.0170732-.5227134z" fill-rule="nonzero"/><path d="m26.7695122 25.0490854c1.4158537-.8807927 3.1033537-1.1483232 4.7414634-1.2347561-.8190549 1.7410061-3.2021341 1.0536585-4.7414634 1.2347561z"/><path d="m16.6897866 27.3210366c.2099085-1.1236281 1.3664634-1.6298781 2.1525914-2.3172256-.251067 1.0989329-.7243902 2.5189024-2.1525914 2.3172256z"/><path d="m28.321189 26.0780488c2.897561-.3745427 5.8321647.0535061 8.7338415-.3045732 2.3789634-.3868902 4.6262195.6708842 6.91875 1.1236281.3375.5721036-.1317073 1.2759146-.4897866 1.7368902-1.1071646 1.1112805-2.8358232 1.6051829-4.3669207 1.2429878-1.5434452-.3786585-2.2102134-2.1731707-3.7371952-2.560061-2.3583841-.3169207-4.8484756-.2304878-7.058689-1.2388719z"/><path d="m17.6981707 28.3582317c1.5434452-.5432927 2.7740854-1.6669207 4.2722561-2.2925305-.8314024 1.0536586-1.5475609 2.2060976-1.6504573 3.5807927-.8560975-.4609756-1.7368902-.8766768-2.6217988-1.2882622z"/><path d="m46.6408537 26.8230183c1.0125.2304878 2.5147865-.0205793 2.9757622 1.1730183-.395122.477439-1.0495427.8972561-1.6792683.5967988-.563872-.4815549-.8931403-1.1647866-1.2964939-1.7698171z"/><path d="m42.5167683 32.260061c1.4158537-1.0824695 2.7987805-2.2266769 3.7824695-3.7371951 1.1442073.9054878.3169207 2.444817-.5926829 3.1650914-.9384147.6132622-2.1155488.5803354-3.1897866.5721037z"/><path d="m45.1015244 35.239939c1.1894817-2.0990853 2.8070122-4.1282012 5.0501524-5.1612805-.9589939 1.7533537-2.1978658 3.3338415-3.0169207 5.1653964-.3539634.7079268-.8067073 1.8768292-1.8233232 1.5393292-.8396341.0329269-.3663109-1.1071646-.2099085-1.5434451z"/><path d="m51.835061 31.6591463c.5721036-.5762195 1.1647866-1.8397865 2.1525914-1.2388719-.3663109 1.51875-1.6257622 2.5518293-2.5765244 3.7083841-1.3541158 1.4775915-2.4118902 3.2103659-3.8935975 4.5685976.8025915-2.671189 2.7493902-4.7908537 4.3175305-7.0381098z"/><path d="m38.2115854 33.4001524c1.7739329.4856708 3.2597561 1.605183 4.836128 2.5106708-1.0454268 1.4199695-2.8152439 1.7945122-4.4533536 2.0291158.4403963-1.5393292.6585365-3.177439-.3827744-4.5397866z"/><path d="m31.6550305 34.0545732c1.6463415-.1810976 3.3091463.0123475 4.922561.3704268.5309451.1481707 1.2553353.3045732 1.2141768 1.0125-.0246951 2.0661585-.9878049 3.992378-1.9632622 5.766311-.8272866 1.5393292-2.5518293 2.3871951-3.1692073 4.0623475-.5926829-.3333841-1.1853659-.6544207-1.7862805-.9631097 1.1112805-.3539634 2.3954268-.6832317 2.9839939-1.8027439 1.1606707-1.9714939 2.0167683-4.1323171 2.7617378-6.2931403.2963415-.6132622-.2675305-1.0495426-.8314024-1.0166158-1.4240854-.1481708-2.9798781-.1358232-4.1323171-1.1359756z"/><path d="m45.2620427 42.664939c.5185975-.2016768 1.041311-.3992378 1.5681402-.588567-.0658536.5803353-.1440549 1.1606707-.2263719 1.7451219-.4486281-.3827744-.8972561-.7696646-1.3417683-1.1565549z"/><path d="m47.4681402 43.9696646c.2839939-.8108231.7161586-1.5599085 1.5105183-1.9550305.1358232.6420732.2757622 1.2882622.4157013 1.9303354-.6420732.0082317-1.2841464.0164634-1.9262196.0246951z"/><path d="m30.0457317 42.6032012c.6379573.0246951 1.2594512.1564025 1.8768293.3004573-.646189.2963415-1.3006098.5679878-1.9673781.8149391.0246951-.2798781.0699695-.8355183.0905488-1.1153964z"/></g><g fill="#fff" transform="translate(13.289634 31.990854)"><path d="m8.25640244 2.68765244c.58856707-.83963415.89314024-2.1402439 2.05792686-2.35015244 1.3705792.23048781 2.3213414 1.44054878 3.6713414 1.77393293 1.8356708.74496951 3.8524391.52682927 5.7375.11935975 1.8521342-.41158536 3.7618903-.48978658 5.5934452-.97957317.0082317.06585366.0246951.19756098.0288109.26341464-.9919207.47332317-2.0085366.9054878-3.0004573 1.39115853 2.025.11524391 4.0253049-.27164634 5.9926829-.70381097 2.222561-.60091464 4.0746952 1.07012195 6.0667683 1.71219512 1.4240854.64618902 3.0910061-.08643293 4.4903964.51036585.954878 1.31295732 1.938567 2.77408537 1.4446646 4.48628049.7778963-.51448171 1.4981707-1.16890244 2.4077744-1.45289634.7778963.48155488 1.4446646 1.16890244 1.8891768 1.9714939-.308689 2.11554877-2.1567073 3.46554877-3.3996951 5.05015247-1.85625 1.9632622-2.8728658 5.202439-5.9844512 5.4740853.8067073.2839939 1.7204268.5803354 2.5477134.1934452 1.8480183-.6791159 2.7164634-2.6341464 4.3381098-3.6466464-.5144818 1.9673781-2.0455793 3.4449695-2.7164635 5.3176829.3004574 1.6422257 2.082622 2.1649391 3.0868903 3.2597561.5103658.6173781-.8478659 1.5681403-1.2141768.7902439-.8067074-.9384146-1.6175305-2.1978658-3.0251525-2.1402439-1.7615853.0370427-2.5147866 1.8233232-3.2762195 3.1157013-.4609756.7449695-1.8685976-.2140244-1.2224085-.8602135.7778963-.7984756 1.6339939-1.5310975 2.1978658-2.5147865-.5597561-.3580793-1.0371951-1.0618903-1.7698171-.9960366-.814939.2716463-1.5064024 1.0125-2.4118902.9425305-.3621951-.2757622-.4692073-.6256098-.3210366-1.0495427 1.2882622-.563872 2.728811-.8560976 3.7618903-1.8891768-.8231708-.5185976-1.7862805-.5185976-2.7082317-.6708842-.4157013-.7285061.646189-.9054878 1.0330792-1.2388719-.1564024-.6297257-.308689-1.2594513-.4609756-1.8891769-1.7286585.6832317-3.5684451.9589939-5.4082317 1.098933-.7696646 1.629878-1.4940549 3.3379573-2.8317073 4.5932926-.6955793.7655488-1.8891768 1.5022866-1.378811 2.7164634.0123476 1.35 2.2842988 1.8809452 1.6092988 3.1980183-.1934451.0329269-.5844512.0987805-.7820122.1317074-1.1894817-1.3993903-1.8685976-3.3544208-3.5807927-4.2269817-1.8480183-.6626525-3.4820122.7367378-5.1036585 1.3829268-.6091464.2387195-1.3705793-.8190549-.7161586-1.1771342 1.3170732-.7943597 3.4861281-.4568597 4.1487805-2.1196646-.4568597-1.3129573-2.3419207-.8272866-3.3050305-1.6751524.3539635-.3169208.7243903-.6091464 1.1153964-.8807927 1.2429878.2839939 2.3748475.9219512 3.6301829 1.1853658.0699695-.7326219-.6544207-1.9632622.4650915-2.1608231.7449695.4239329.588567 1.4693597.8190549 2.1896341 1.4240853-1.0824695 1.9097561-2.8605183 2.2925304-4.5192073-1.123628-.4115854-2.2678353-.7532012-3.4285061-1.0330793.1399391.3621951.423933 1.0865854.5679878 1.4528964-1.2594512-.3827744-2.4859756-.8560976-3.6672256-1.436433-1.2388719-.6256097-2.6753048-.5597561-3.9800304-.9754573-1.3458842-.3704268-2.4983232-1.1853658-3.7166159-1.8315549-.1152439.7408537-.18521342 1.4858232-.2757622 2.2266769.24283537.7943597-1.33353658.617378-1.32118902.0041158.08643292-.8766768.34161585-1.7286585.51448171-2.5888719-.90137196-.5721037-1.79862805-1.1483232-2.67118903-1.7615854-1.64222561.2510671-3.17332317.8931403-4.60564024 1.7121951-.60914634.4033537-1.30472561.0082317-1.37057927-.7038109.32926829-.8025915 1.28003049-.7367379 1.98384146-.9507622 1.32530488-.226372 2.60533537-.72439029 3.65487805-1.58048785.2839939.67088415.83551829 1.18948175 1.43643293 1.58048785 2.33780488 1.5393292 5.05015241 2.3501524 7.75838411 2.9428353.6297256.0782012 1.0948171.5103659 1.5352134.930183.9548781-.3045732 2.9057927-.5185976 2.7041159-1.8480183-1.3664634-.2428354-2.7617378-.1810976-4.1446646-.2757622 1.0742378-.6132622 2.0661585-1.3664635 2.7329268-2.4283537 2.4530488.1646342 4.3422256 1.9879573 6.7376524 2.2760671-.7449695-1.2553354-1.5640244-2.53125002-2.7411585-3.42439027-1.0289634-.02057926-2.082622.46097561-3.0827744.07408537-1.2471036-.41981707-1.5557927-1.97972561-2.7370427-2.49832317-1.6381097-.76143293-4.0129573-.12347561-4.5809451 1.72454268-.4362805 1.23887195.3045732 2.43246949.6873476 3.57667679-1.6381098-1.1689024-3.41204272-2.10320118-5.31356711-2.75762191-.93841463-.27576219-1.16478658-1.25121951-1.30060975-2.09908537-.19756098.04115854-.58856708.12759147-.78612805.17286586.71204268-1.17301829 1.67515244-2.15259147 2.65472561-3.09923781-.15228659-1.12362805.12347561-2.2019817.74085366-3.14451219.06996951.67911585.13582317 1.35823171.20579268 2.03734756zm8.22347556 1.37057927c1.5393293-.18109756 3.9224086.50625 4.7414635-1.2347561-1.6381098.08643293-3.3256098.35396341-4.7414635 1.2347561zm-10.07972556 2.27195122c1.42820122.20167683 1.90152439-1.21829269 2.15259146-2.31722561-.78612805.68734756-1.94268292 1.19359756-2.15259146 2.31722561zm11.63140246-1.24298781c2.2102134 1.00838415 4.7003049.92195122 7.058689 1.23887195 1.5269817.38689025 2.19375 2.18140244 3.7371951 2.56006098 1.5310976.36219512 3.2597561-.13170732 4.3669208-1.24298781.3580792-.46097561.8272865-1.16478658.4897865-1.73689024-2.2925304-.4527439-4.5397865-1.51051829-6.91875-1.12362805-2.9016768.35807927-5.8362804-.06996951-8.7338414.30457317zm-10.62301831 2.28018293c.88490853.41158536 1.76570121.82728658 2.62179881 1.28826219.1028963-1.37469512.8190548-2.52713414 1.6504573-3.58079268-1.4981707.62560976-2.72881099 1.74923781-4.27225611 2.29253049zm28.94268291-1.53521342c.4033537.60503049.732622 1.2882622 1.2964939 1.76981708.6297256.30045731 1.2841464-.11935976 1.6792683-.59679878-.4609756-1.19359756-1.9632622-.94253049-2.9757622-1.1730183zm-4.1240854 5.43704267c1.0742379.0082317 2.251372.0411586 3.1897866-.5721036.9096037-.72027443 1.7368903-2.2596037.592683-3.1650915-.9836891 1.51051829-2.3666159 2.6547256-3.7824696 3.7371951zm2.5847561 2.9798781c-.1564024.4362805-.6297256 1.5763719.2099086 1.5434451 1.0166158.3375 1.4693597-.8314025 1.8233232-1.5393293.8190548-1.8315549 2.0579268-3.4120427 3.0169207-5.16539632-2.2431403 1.03307922-3.8606707 3.06219512-5.0501525 5.16128052zm6.7335366-3.5807927c-1.5681402 2.2472561-3.514939 4.3669207-4.3175305 7.0381097 1.4817074-1.3582317 2.5394817-3.0910061 3.8935976-4.5685975.9507622-1.1565549 2.2102134-2.1896342 2.5765244-3.70838417-.9878049-.60091463-1.5804878.66265247-2.1525915 1.23887197zm-13.6234756 1.7410061c1.041311 1.3623475.8231708 3.0004573.3827744 4.5397866 1.6381098-.2346037 3.4079268-.6091464 4.4533537-2.0291159-1.576372-.9054878-3.0621952-2.025-4.8361281-2.5106707zm-6.5565549.6544207c1.1524391 1.0001525 2.7082317.9878049 4.1323171 1.1359756.563872-.0329268 1.1277439.4033537.8314025 1.0166159-.7449696 2.1608231-1.6010671 4.3216463-2.7617379 6.2931402-.588567 1.1195122-1.8727134 1.4487805-2.9839939 1.8027439.6009147.308689 1.1935976.6297256 1.7862805.9631098.6173781-1.6751525 2.3419208-2.5230183 3.1692074-4.0623476.9754573-1.7739329 1.938567-3.7001524 1.9632621-5.766311.0411586-.7079268-.6832317-.8643292-1.2141768-1.0125-1.6134146-.3580792-3.2762195-.5515243-4.922561-.3704268zm13.6070122 8.6103659c.4445122.3868902.8931403.7737805 1.3417683 1.1565548.0823171-.5844512.1605183-1.1647865.226372-1.7451219-.5268293.1893293-1.0495427.3868902-1.5681403.5885671zm2.2060976 1.3047256c.6420732-.0082317 1.2841463-.0164634 1.9262195-.0246951-.139939-.6420732-.279878-1.2882622-.4157012-1.9303354-.7943598.3951219-1.2265244 1.1442073-1.5105183 1.9550305zm-17.4224085-1.3664634c-.0205793.279878-.0658537.8355183-.0905488 1.1153963.6667683-.2469512 1.321189-.5185976 1.967378-.814939-.617378-.1440549-1.2388719-.2757622-1.8768292-.3004573z" fill-rule="nonzero"/><path d="m2.4160061 6.90228659c.99192073-.09054879 1.9714939.11935975 2.95106707.23871951-.19756097 1.81509146-3.05396341 1.54756097-2.95106707-.23871951z"/><path d="m12.4998476 8.01768293c.6420731-.5597561 1.3993902-1.21829269 2.3254573-.96722561.9137195.06996951 1.3417683.94664634 1.8027439 1.60929878-1.378811-.19344512-2.7493903-.43216464-4.1282012-.64207317z"/><path d="m12.3064024 9.61463415c1.3458842.11935975 2.6711891.38689025 4.0170732.52271345-.6708841.5350609-1.4487805 1.152439-2.3748476.9054878-.8190548-.0699695-1.2100609-.8478659-1.6422256-1.42820125z"/></g><g fill="#46bd00" transform="translate(85.902439 22.487805)"><path d="m11.9340433 0h4.7612504c1.0048094.13912745 2.0096187.2859842 3.014428.44829955 0 1.67725868 0 3.35451735.0077293 5.03177603-2.349708-.06956373-5.1245276-.80384748-7.0954998.8965991-1.8009275 1.90913776-1.0666437 4.78443832-1.2753349 7.14960492 1.8859498 0 3.7718997 0 5.6578495-.0077293-.0077293 1.7390931 0 3.4859155 0 5.2250086-1.8704912 0-3.7332532 0-5.6037444 0-.0541051 6.3998626.0927516 12.8074545-.0386465 19.1995878.409653 3.9651322-6.84043285 4.5061834-7.06458263.6415321-.16231535-6.6085538.01545861-13.2325661-.04637582-19.8411199-1.41446238 0-2.83665407 0-4.25111645 0 0-1.7390931.0077293-3.4781862 0-5.2172793h4.23565785c.04637582-3.3854345-.47148746-7.16506352 1.64634146-10.08673992 1.35262797-2.0405359 3.7950876-2.86757128 6.05204399-3.43953968z"/><path d="m20.0961869 13.5262796h6.0056681c-.0231879 1.4840261-.0463758 2.9757815-.0927516 4.4598077 1.7777396-3.6946067 5.8665407-5.1709035 9.731192-5.1631742.0077293 1.9323256.0077293 3.8646513.0077293 5.796977-3.2463071-.0618344-7.2578152 1.1207489-8.0693919 4.7226039-.5796977 4.3129509-.0850224 8.6877362-.2164205 13.0316042-.0463758 1.4840262.1313981 3.5091034-1.4917554 4.2743044-2.1410168 1.3371694-6.0829612.2937135-5.8510821-2.6975266-.077293-8.1389557 0-16.2856407-.0231879-24.4245964z"/><g fill-rule="nonzero"><path d="m43.6087255 13.6344899c3.5632085-1.1207489 7.6133631-.9970801 10.9987977.6260735 3.6482308 1.8086568 5.5496393 5.8665407 5.9206458 9.7698385.4792168 4.7612505.1313982 10.2026795-3.3158708 13.8740983-3.7177946 3.7564411-9.9166953 4.0965304-14.608382 2.1564754-5.2327379-2.2878736-6.8558915-8.5872552-6.5080728-13.8122638-.1468568-5.1245277 2.2569563-10.9833391 7.5128821-12.6142219zm3.0839918 4.6375816c-2.3651666.6338028-3.0298867 3.3777052-3.2772243 5.5032634-.2473377 3.3236002-.4560289 6.8790794.9120577 10.0017177.9584335 2.3033321 3.9960494 2.7361731 6.0984198 1.9400549 2.1487461-.919787 2.6434215-3.4781862 2.9294057-5.54191.3400893-3.3004122.3555479-6.8095156-.9738922-9.9012367-.9661628-2.1178289-3.6405015-2.6125043-5.6887667-2.0018893z"/><path d="m66.3637925 15.373583c4.7380625-3.2617658 11.1379251-3.0530746 16.2701821-.842494 2.2801443-.6569908 4.6375816-1.0048094 7.0104775-1.097561.0077293 1.7468224.0154586 3.4936448.0231879 5.2404672-.9584335.1004809-1.9091378.2086912-2.859842.3246307.9816214 3.6636895.8115768 8.0616627-2.1178289 10.828753-3.6482309 3.4704569-9.0432841 3.5554792-13.7427001 2.9680522-.5642391 1.1052903-.9661629 2.5506699.5642391 3.0144281 4.5912057.9429749 9.5997939-.6028857 13.9668499 1.5690484 4.5525592 2.0018894 5.2327378 8.7109241 2.0637238 12.2045689-3.114909 3.5322913-8.0616627 4.6839574-12.5910341 4.5680178-4.0346959.0077293-8.7650291-.587427-11.41618-4.0037787-2.4733768-3.3081416-.9893507-7.7679492 1.684988-10.4500172-2.4192717-2.7593611-1.6618-6.7863277 1.1593954-8.8964274-4.7612504-3.6636894-5.0085881-11.8722088-.0154586-15.427688zm6.6317417 2.937135c-2.9835108.7188251-3.6559602 4.4907248-2.7129852 7.0104775 1.1439367 2.8521126 4.9235657 3.1767434 7.4355891 2.171934 2.5661285-1.0821024 2.9525936-4.5061834 2.0637238-6.8327035-1.0125386-2.6202336-4.4057025-3.0221574-6.7863277-2.349708zm-1.8009275 22.83236c-1.4762968 1.7854689-2.5583992 4.6453109-.6338029 6.5235314 2.5815871 2.094641 6.3380282 1.6231536 9.2519753.5255926 2.6125043-.9429749 3.5863964-5.387324.6724493-6.5853659-3.014428-.8502233-6.20663-.3091721-9.2906217-.4637581z"/></g></g></g></svg>