<svg height="90" viewBox="0 0 180 90" width="180" xmlns="http://www.w3.org/2000/svg"><g fill="none"><g fill="#a1cc3a" transform="translate(0 16)"><path d="m.15100671 4.78389262c-.25973154-2.26510067 1.72147651-4.43959732 4.01677852-4.31879195 12.11677857-.01208054 24.23355707-.04228188 36.35033557.01208054 2.2590604-.06644295 4.1496644 2.10805369 3.8778524 4.33087248.0120805 15.71677851-.0241611 31.42751681.0181208 47.14429531-.0362417 1.3651007.1147651 2.7845638-.3020135 4.1073825-.4167785 1.4013423-1.8302013 2.0416108-3.0805369 2.5308725h-37.5281879c-1.89664429-.5013423-3.56375838-2.1080537-3.35234899-4.1979866 0-16.5322147.00604027-33.0704697 0-49.60872478zm7.53221477 10.15369128c.02416107 2.6516778.01208053 5.2973154.03624161 7.942953 4.86241611 2.4221477 9.70067111 4.8926175 14.58724831 7.266443 4.838255-2.4342282 9.6946309-4.8322148 14.5268456-7.2785235.0181209-2.6516779.0120806-5.3033557.0120806-7.9550336-4.8261745-2.4885906-9.7006712-4.8684564-14.5510067-7.30872481-4.8865772 2.41610741-9.7852349 4.80805371-14.61140942 7.33288591zm-.04228188 17.6194631c1.32885906 6.1912751 3.8657718 12.0684564 5.7201342 18.1208053 2.2228188.066443 4.4456376.0785235 6.6684564.0724833.7973154-2.114094 1.5161074-4.2583893 2.204698-6.4087249.7308725 2.0959732 1.4255033 4.2040269 2.1261745 6.3120806 2.2832215.1268456 4.5664429.1268456 6.8496644 0 1.8362416-6.0402685 4.3308725-11.8993289 5.7261745-18.0543624-2.2409396-.1208054-4.5-.3020135-6.7409396-.0362417-1.2261745 1.9389262-1.5644295 4.318792-2.4040268 6.4389262-.7308725-2.1140939-1.4315437-4.2342282-2.1020135-6.3664429-2.2469798-.0724833-4.6208053-.5738255-6.7892617.1389261-.9060403 1.9812081-1.4315436 4.1134229-2.1744966 6.1550336-.7127517-2.138255-1.4255034-4.2765101-2.1684564-6.4087248-2.3073826-.0845638-4.61476512-.0845638-6.9161074.0362416z"/><path d="m10.4496644 15.3845638c3.666443-1.8181208 7.3208054-3.666443 10.9932886-5.4845638 0 1.6671141-.0060402 3.3281879-.0181208 4.9892617-2.0295302 1.0087249-4.0530201 2.0295302-6.1006711 3.0020135-1.618792-.8456376-3.2496645-1.6671141-4.8744967-2.5067114z"/><path d="m23.1040268 14.8832215c0-1.6610738 0-3.3221477.0060403-4.9832215 3.6785235 1.8302013 7.3510067 3.6604027 11.0114094 5.5087248-1.6610738.8335571-3.3281879 1.6610739-5.0013423 2.4765101-2.0053691-1.0087248-4.0107382-2.0114094-6.0161074-3.0020134z"/><path d="m17.3053691 18.8395973c1.6550336-.8395973 3.3100671-1.6671141 4.9651007-2.4885906 1.6610738.8214765 3.3221476 1.6550336 4.9771812 2.4946309-1.6550336.8275168-3.3161074 1.6550335-4.9771812 2.4765101-1.6550336-.8214766-3.3100671-1.6489933-4.9651007-2.4825504z"/><path d="m9.35637584 16.8463087c1.35906036.6704698 2.71208056 1.3469799 4.05906036 2.0416108-1.3469798.67651-2.6939597 1.3469798-4.04697982 2.0114094-.00604027-1.3530202-.00604027-2.7-.01208054-4.0530202z"/><path d="m31.1194631 18.8758389c1.3530201-.6825503 2.7060403-1.3590604 4.0651007-2.0234899 0 1.3469799-.0060403 2.7-.0060403 4.0530201-1.3530201-.6704698-2.7060403-1.3469798-4.0590604-2.0295302z"/><path d="m10.3590604 22.3067114c1.6489933-.8275168 3.2919463-1.6489933 4.9348993-2.4825503 2.0536913 1.0026845 4.095302 2.0234899 6.1369128 3.0503355.0060403 1.6550336.0120805 3.3161074.0181208 4.9771813-3.7026846-1.8362417-7.3993289-3.6845638-11.0899329-5.5449665z"/><path d="m23.0677852 22.9409396c2.02349-1.0751678 4.071141-2.0899329 6.1248322-3.104698 1.4859061.8939597 3.5456376 1.2684564 4.6087249 2.6275168-3.5154363 1.8845637-7.1335571 3.5818792-10.6912752 5.3818792-.0060403-1.6369128-.0120805-3.2677853-.0422819-4.904698z"/><path d="m20.6697987 34.1214765c1.0691275 0 2.138255 0 3.2073825.0060403-.5315436 1.6127517-1.0630872 3.2255033-1.6067114 4.838255-.5375839-1.6187919-1.0691275-3.2315436-1.6006711-4.8442953z"/><path d="m9.59798658 34.133557c1.25033552-.0060402 2.50671142-.0060402 3.76308722-.0060402.8335571 2.4946309 1.6671141 4.9832215 2.4946309 7.4778523-.6281879 1.8604027-1.2442953 3.7147651-1.8543624 5.5812081-1.5040269-4.342953-2.9718121-8.6919463-4.40335572-13.0530202z"/><path d="m31.1919463 34.1275168c1.2322148 0 2.4704698 0 3.7087248-.0060403-1.4436241 4.3791946-2.9053691 8.7463087-4.3731543 13.1134228-.6281879-1.8483221-1.2442953-3.7026845-1.8604027-5.557047.8395973-2.5187919 1.6791946-5.0375838 2.5248322-7.5503355z"/><path d="m23.152349 41.5812081c.6221476-1.8483222 1.238255-3.6966443 1.8785235-5.5389262.6161074 1.8604027 1.2322147 3.7208053 1.8483221 5.581208-.6221476 1.8483222-1.238255 3.7087249-1.8543624 5.5630873-.6342282-1.866443-1.2563758-3.7328859-1.8724832-5.6053691z"/><path d="m17.6375839 41.6718121c.6161074-1.8543624 1.238255-3.7147651 1.8724832-5.5630873.6221477 1.8543624 1.2442953 3.7087249 1.8483222 5.5691275-.6040269 1.8604027-1.2261745 3.7147651-1.8483222 5.5691276-.6402684-1.8543625-1.2563758-3.7147651-1.8724832-5.5751678z"/><path d="m15.1852349 49.0711409c.5134228-1.57651 1.0389262-3.1530201 1.5704698-4.7234899.5375839 1.5704698 1.0630872 3.1409396 1.5825503 4.7174497-1.0510067.0060402-2.1020134.0060402-3.1530201.0060402z"/><path d="m27.7791946 44.4624161c.5557047 1.5221477 1.0812081 3.0624161 1.5885906 4.6087248-1.0570469 0-2.1080537 0-3.1651006 0 .5134228-1.5402684 1.0268456-3.0805369 1.57651-4.6087248z"/></g><g transform="translate(7.248322 23.248322)"><path d="m.43489933 7.68926174c4.8261745-2.52483221 9.72483217-4.91677852 14.61140937-7.3328859 4.8503356 2.44026846 9.7248322 4.82013423 14.5510067 7.30872483 0 2.65167783.0060403 5.30335573-.0120805 7.95503353-4.8322148 2.4463088-9.6885906 4.8442953-14.5268456 7.2785235-4.8865772-2.3738255-9.72483225-4.8442953-14.58724836-7.2664429-.02416107-2.6456376-.01208054-5.2912752-.03624161-7.94295306zm2.76644295.44697987c1.62483222.83959732 3.2557047 1.66107383 4.87449665 2.50671139 2.04765097-.9724832 4.07114097-1.99328857 6.10067117-3.0020134.0120805-1.66107383.0181208-3.32214765.0181208-4.98926175-3.6724832 1.81812081-7.32684567 3.66644296-10.99328862 5.48456376zm12.65436242-.50134228c2.0053691.99060403 4.0107383 1.99328859 6.0161074 3.00201347 1.6731543-.81543629 3.3402684-1.64295307 5.0013423-2.47651012-3.6604027-1.84832214-7.3328859-3.67852349-11.0114094-5.50872483-.0060403 1.66107383-.0060403 3.32214765-.0060403 4.98322148zm-5.7986577 3.95637587c1.6550335.833557 3.3100671 1.6610738 4.9651007 2.4825503 1.6610738-.8214765 3.3221476-1.6489933 4.9771812-2.4765101-1.6550336-.8395973-3.3161074-1.67315433-4.9771812-2.49463084-1.6550336.82147651-3.3100672 1.64899334-4.9651007 2.48859064zm-7.94899331-1.99328862c.00604027 1.35302012.00604027 2.70000002.01208054 4.05302012 1.35302013-.6644295 2.7-1.3348993 4.04697986-2.0114094-1.34697986-.6946309-2.7-1.3711409-4.0590604-2.04161072zm21.76308721 2.02953022c1.3530202.6825503 2.7060403 1.3590604 4.0590604 2.0295302 0-1.3530202.0060403-2.7060403.0060403-4.05302015-1.3590604.66442955-2.7120805 1.34093955-4.0651007 2.02348995zm-20.76040264 3.4308725c3.69060402 1.8604026 7.38724834 3.7087248 11.08993284 5.5449664-.0060402-1.6610738-.0120805-3.3221476-.0181208-4.9771812-2.0416107-1.0268456-4.0832214-2.047651-6.13691272-3.0503356-1.64295302.8335571-3.28590604 1.6550336-4.93489932 2.4825504zm12.70872484.6342281c.0302013 1.6369128.0362416 3.2677853.0422819 4.904698 3.5577181-1.8 7.1758389-3.4973154 10.6912751-5.3818792-1.0630872-1.3590604-3.1228188-1.733557-4.6087248-2.6275167-2.0536913 1.0147651-4.1013423 2.0295302-6.1248322 3.1046979z" fill="#fff"/><g fill="#191934"><path d="m49.8322148 4.08926174c2.9416107-.88187919 6.4449664-.15704697 8.4865771 2.22885907 2.6879195 3.06845637 2.5308725 8.22080539-.4892617 11.00536909-3.2375839 3.2134229-9.2536913 2.7543624-11.8691275-1.0147651-3.0503356-4.0409396-1.1718121-10.84832212 3.8718121-12.21946306zm1.1295302 2.90536913c-3.8174497.98456376-4.3369128 6.94630873-.9422819 8.78255033 2.7845637 1.6731544 6.7711409-.3322148 6.9040268-3.6302013.6040269-3.261745-2.8147651-6.27583896-5.9617449-5.15234903z"/><path d="m130.167785 4.07718121h3.171141v12.08053689h7.399329v3.0201342c-3.527517 0-7.048993 0-10.57047 0 0-5.0315436 0-10.06912747 0-15.10067109z"/><path d="m62.2147651 4.07718121c2.7302013.15704698 5.5630872-.39261745 8.2147651.38053691 3.5637584 1.1295302 4.1677852 6.55369128 1.2080537 8.64966448-1.7879195 1.3530201-4.1496644 1.0751677-6.2516779 1.0932885v4.9771812c-1.0570469 0-2.1140939 0-3.1711409 0 0-5.0315436 0-10.06912747 0-15.10067109zm3.1771812 2.84496644c-.0060403 1.47986577-.0060403 2.95973154.0060403 4.43959735 1.7697986-.0302014 4.8865772.2355704 4.8684564-2.33154366-.2114094-2.42818792-3.1409396-2.10805369-4.8744967-2.10805369z"/><path d="m75.2013423 4.07718121h12.3825503v2.86912751c-1.5583892 0-3.1228188 0-4.681208 0v12.23154358c-1.057047 0-2.114094 0-3.171141 0 0-4.0771812 0-8.1543624 0-12.23154358-1.5100671 0-3.0201342 0-4.5302013 0 0-.95436241 0-1.9147651 0-2.86912751z"/><path d="m90 4.07718121h3.1711409v15.10067109c-1.0570469 0-2.1140939 0-3.1711409 0 0-5.0315436 0-10.06912747 0-15.10067109z"/><path d="m96.4932886 4.07114094c1.0026846.00604027 2.0053691.00604027 3.014094.0181208 1.4375834 2.44026846 2.9416104 4.84429531 4.3671144 7.29664426 1.395302-2.46442949 2.911409-4.86241607 4.361073-7.29060399 1.020806-.01208053 2.035571-.0181208 3.056376-.02416107-.00604 5.03758389.012081 10.07516776-.00604 15.11275166-1.057047-.0060403-2.114094-.0060403-3.165101-.0120805.006041-3.2738255-.066443-6.5536913.169128-9.82147653-1.195973 1.99932883-2.385906 4.00469803-3.515436 6.04630873-.585906.0060403-1.171812.0060403-1.757718.0120805-1.171813-1.9872483-2.313423-3.9986577-3.5033562-5.97382547v9.74295297c-1.0087248 0-2.0174496 0-3.0201342 0 0-5.0375838 0-10.06912747 0-15.10671136z"/><path d="m119.204698 4.07114094c.996644.00604027 1.993289.00604027 2.989933.01208054 2.071812 5.02550335 4.149664 10.05100672 6.215436 15.08255032-1.13557.0120805-2.271141.0120805-3.400671.0120805-.392617-.9483221-.767114-1.9087248-1.12953-2.8691275-2.114094 0-4.234228 0-6.348322 0-.374497.9604027-.755034 1.9147651-1.135571 2.8630873-1.12953.0060402-2.25302.0060402-3.37047.0120805 1.993289-5.0617449 4.125504-10.07516777 6.179195-15.11275166zm1.497987 3.86577181c-.622148 1.85436242-1.328859 3.68456375-2.065772 5.49664425 1.371141.0060403 2.748322.0060403 4.125503.0060403-.736913-1.8120805-1.443624-3.64228186-2.059731-5.50268455z"/></g><path d="m.39261745 25.3087248c2.30134228-.1208053 4.60872483-.1208053 6.91610738-.0362416.74295302 2.1322148 1.4557047 4.2704698 2.16845638 6.4087249.74295299-2.0416108 1.26845639-4.1738255 2.17449669-6.1550336 2.1684563-.7127517 4.5422818-.2114094 6.7892617-.1389262.6704698 2.1322148 1.3711409 4.252349 2.1020134 6.366443.8395973-2.1201343 1.1778524-4.5 2.4040269-6.4389262 2.2409396-.2657718 4.5-.0845638 6.7409396.0362416-1.3953021 6.1550336-3.8899329 12.014094-5.7261745 18.0543624-2.2832215.1268457-4.566443.1268457-6.8496645 0-.7006711-2.1080537-1.395302-4.2161074-2.1261745-6.3120805-.6885906 2.1503356-1.4073825 4.2946309-2.2046979 6.4087248-2.2228188.0060403-4.44563763-.0060402-6.66845642-.0724832-1.85436242-6.052349-4.39127517-11.9295302-5.72013423-18.1208054zm13.02885905 1.5644296c.5315436 1.6127516 1.0630873 3.2255033 1.6006712 4.8442953.5436241-1.6127517 1.0751677-3.2255034 1.6067114-4.8382551-1.0691276-.0060402-2.1382551-.0060402-3.2073826-.0060402zm-11.07181207.0120805c1.43154362 4.3610738 2.89932886 8.7100671 4.4033557 13.0530201.61006712-1.8664429 1.2261745-3.7208053 1.85436242-5.581208-.82751678-2.4946309-1.66107383-4.9832215-2.49463087-7.4778524-1.25637584 0-2.51275168 0-3.76308725.0060403zm21.59395977-.0060403c-.8456376 2.5127517-1.6852349 5.0315437-2.5248323 7.5503356.6161074 1.8543624 1.2322148 3.7087248 1.8604027 5.557047 1.4677853-4.3671141 2.9295302-8.7342282 4.3731544-13.1134228-1.238255.0060402-2.4765101.0060402-3.7087248.0060402zm-8.0395974 7.4536913c.6161074 1.8724832 1.2382551 3.7389262 1.8724833 5.6053691.6161073-1.8543624 1.2322147-3.7147651 1.8543624-5.5630872-.6161074-1.8604027-1.2322148-3.7208054-1.8483222-5.5812081-.6402684 1.8422819-1.2563758 3.6906041-1.8785235 5.5389262zm-5.5147651.090604c.6161074 1.8604027 1.2322148 3.7208054 1.8724833 5.5751678.6221476-1.8543624 1.2442953-3.7087248 1.8483221-5.5691275-.6040268-1.8604027-1.2261745-3.7147651-1.8483221-5.5691275-.6342282 1.8483221-1.2563759 3.7087248-1.8724833 5.5630872zm-2.45234895 7.3993289c1.05100671 0 2.10201345 0 3.15302015-.0060403-.5194631-1.57651-1.0449665-3.1469798-1.58255035-4.7174496-.53154362 1.5704698-1.05704698 3.1469798-1.5704698 4.7234899zm12.59395975-4.6087248c-.5496644 1.5281879-1.0630873 3.0684563-1.5765101 4.6087248h3.1651007c-.5073826-1.5463087-1.0328859-3.0865772-1.5885906-4.6087248z" fill="#fff"/><g fill="#191934"><path d="m72.1328859 26.8912752c4.6993289-1.6671141 10.2926175 1.9510067 10.3288591 7.0248322.5315436 4.8261745-4.1194631 9.1087248-8.8731544 8.3053691-4.1557047-.3261745-7.3630872-4.433557-6.8375839-8.5469799.2355705-3.0624161 2.3738255-5.9496644 5.3818792-6.7832214zm.6342282 3.0805369c-3.6604027 1.4073825-3.6724832 7.5201342.0483221 8.8671141 2.9355705 1.3107382 6.680537-1.1295302 6.3362417-4.409396.338255-3.2979866-3.4067115-5.8651007-6.3845638-4.4577181z"/><path d="m99.5134228 26.8791946c1.0570472 0 2.1080542 0 3.1711412-.0060402v6.1187919c2.047651-2.0355705 4.071141-4.095302 6.130872-6.1127517 1.298658-.1147651 2.748322.3201343 3.926175-.3926174-1.636913 2.5791946-4.336913 4.4214765-6.354363 6.7348993 2.198658 2.8993289 4.336913 5.8469799 6.51745 8.7583893-1.268456 0-2.536913 0-3.805369.0060402-1.594631-2.228859-3.225503-4.433557-4.820134-6.6684563-.531544.5375839-1.063088 1.0751677-1.594631 1.6127516v5.0557047c-1.063087-.0060402-2.114094-.0060402-3.1711412-.0060402 0-5.0315437 0-10.0691275 0-15.1006712z"/><path d="m114.414765 32.4c-1.328859-3.2013423 2.132215-6.0885906 5.158389-5.8409396 2.712081-.2536913 5.128188 1.6248322 6.07651 4.0832215-.990604.3322147-1.999328.6221476-3.008053.8939597-.610067-.9241611-1.208054-2.0355705-2.446309-2.1684564-1.238255-.5194631-3.503356.6402685-2.567114 2.1322148 2.379866 1.6852349 6.07047 1.5463087 7.616778 4.3731544 1.322819 2.4885906-.573825 5.671812-3.255704 6.1248322-3.442953 1.147651-7.465772-.7369128-8.444296-4.3006712.990604-.3020134 1.981208-.585906 2.983893-.8577181.628188 1.2322148 1.504027 2.5912752 3.068456 2.5912752 1.419464.3442953 3.473155-.9845638 2.488591-2.5369128-2.331544-1.8664429-6.275839-1.4738255-7.671141-4.4939597z"/><path d="m137.718121 26.8731544c1.057047.0060402 2.114094.0060402 3.171141.0060402v15.1006712c-1.057047 0-2.114094 0-3.171141.0060402 0-2.0657718 0-4.1315436 0-6.1973154-2.114094 0-4.228188 0-6.342282 0v6.1912752c-1.008725 0-2.01745 0-3.020134 0 0-5.0315437 0-10.0691275 0-15.1006712h3.020134v5.8892618h6.342282c0-1.9630873 0-3.9261745 0-5.895302z"/><path d="m148.179866 26.933557c4.862416-1.8422818 10.818121 2.1684564 10.401342 7.4899329.332215 4.6812081-4.348993 8.5651007-8.879195 7.7979866-4.222147-.3624161-7.447651-4.6932886-6.75906-8.842953.259732-2.9657718 2.410067-5.5630873 5.236913-6.4449665zm.67047 3.0563759c-4.016779 1.5583892-3.35839 8.4684564.966443 9.0785235 3.364429.8818792 6.378523-2.675839 5.41208-5.871141-.489262-2.790604-3.847651-4.3973154-6.378523-3.2073825z"/><path d="m44.8369128 26.8671141c1.1174496.0060403 2.2348993.0120805 3.3523489.0120805.9543625 3.3644296 2.0355705 6.6986577 2.8510068 10.0993289.9483221-2.8630873 1.9872483-5.6899329 2.9536912-8.5469799.966443-.0302013 1.9268457-.0422819 2.8932886-.0604027.9785235 2.8630873 2.0416108 5.6959732 2.9536913 8.5832215.9241611-3.3704698 1.9268456-6.7167785 2.8872483-10.0751678 1.1114094 0 2.2228188 0 3.3342282.0060403-1.5402684 5.0436242-3.1711409 10.057047-4.7234899 15.0946309-.966443 0-1.9328859 0-2.8993289 0-1.0026845-3.2013423-2.1322147-6.3724832-2.9838926-9.6281879-.833557 3.2617449-1.9449664 6.4389261-2.9838926 9.6402684-.9543624-.0060403-1.9087249-.0060403-2.8630873 0-1.6369127-5.0255033-3.195302-10.081208-4.771812-15.1248322z"/><path d="m84.8657718 41.9798658c0-5.0315437 0-10.0691275 0-15.1006712 3.1892618.2778524 6.8979866-.8395973 9.652349 1.2684564 2.6637584 2.1563758 2.0295302 6.7832215-1.0449664 8.257047 1.1355704 1.8543624 2.2651006 3.7147651 3.4006711 5.5751678-1.1959732 0-2.3919463 0-3.5818792.0060402-.990604-1.6791946-1.9872483-3.3583892-2.9174497-5.0677852-.7791946-.0422819-1.5583892-.0724832-2.3375838-.1087248v5.1704698c-1.057047 0-2.114094 0-3.171141 0zm3.171141-12.2557047v4.2644295c1.2563758-.0302013 2.5308724.0785235 3.7751677-.1510067 1.0208054-.5919463 1.0872484-1.8 1.1295302-2.8510067-1.238255-1.4677853-3.1771812-1.2744967-4.9046979-1.2624161z"/><path d="m160.822148 26.8791946c2.754362.1510067 5.605369-.3865772 8.293288.404698 3.630202 1.147651 4.149665 6.8194631.990604 8.7825504-1.787919 1.2322147-4.071141.8879194-6.112751.9362416v4.9771812c-1.063088 0-2.114094 0-3.171141 0 0-5.0315437 0-10.0691275 0-15.1006712zm3.171141 2.8449665v4.4275168c1.745637-.0060403 4.789932.3080536 4.910738-2.1684564.00604-2.5248322-3.14698-2.2832215-4.910738-2.2590604z"/></g></g></g></svg>