<svg height="90" viewBox="0 0 180 90" width="180" xmlns="http://www.w3.org/2000/svg" xmlns:xlink="http://www.w3.org/1999/xlink"><linearGradient id="a" x1="62.102327%" x2="108.19718%" y1="0%" y2="37.863576%"><stop offset="0" stop-color="#4285eb"/><stop offset="1" stop-color="#2ec7ff"/></linearGradient><linearGradient id="b" x1="69.644116%" x2="54.042898%" y1="0%" y2="108.456714%"><stop offset="0" stop-color="#29cdff"/><stop offset=".378600687" stop-color="#148eff"/><stop offset="1" stop-color="#0a60ff"/></linearGradient><linearGradient id="c" x1="69.690817%" x2="16.722898%" y1="-12.974359%" y2="117.391248%"><stop offset="0" stop-color="#fa816e"/><stop offset=".41472606" stop-color="#f74a5c"/><stop offset="1" stop-color="#f51d2c"/></linearGradient><linearGradient id="d" x1="68.127987%" x2="30.440091%" y1="-35.690574%" y2="114.942679%"><stop offset="0" stop-color="#fa8e7d"/><stop offset=".512635191" stop-color="#f74a5c"/><stop offset="1" stop-color="#f51d2c"/></linearGradient><g fill="none" fill-rule="evenodd"><g transform="translate(0 21)"><path d="m21.8355702.99572859-20.83902215 20.82188611c-1.12034051 1.1194192-1.12034051 2.9274705 0 4.0468898l20.83902215 20.8218862c1.1203405 1.1194193 2.9298798 1.1194193 4.0502203 0l8.7375044-8.7303195c1.0033467-1.0025216 1.0033467-2.6279304 0-3.6304519-1.0033467-1.0025218-2.6300932-1.0025218-3.6334399 0l-6.623832 6.6183852c-.2788509.2786216-.7020641.2786216-.9809151 0l-16.64144771-16.6277635c-.27885097-.2786216-.27885097-.7014867 0-.9801084l16.64144771-16.62776331c.278851-.27862169.7020642-.27862169.9809151 0l6.623832 6.61838521c1.0033467 1.0025217 2.6300932 1.0025217 3.6334399 0s1.0033467-2.6279304 0-3.63045208l-8.7365413-8.72936962c-1.1249406-1.09519457-2.9351415-1.08632833-4.0511834.02879579z" fill="url(#a)"/><path d="m21.8355702.99572859-20.83902215 20.82188611c-1.12034051 1.1194192-1.12034051 2.9274705 0 4.0468898l20.83902215 20.8218862c1.1203405 1.1194193 2.9298798 1.1194193 4.0502203 0l8.7375044-8.7303195c1.0033467-1.0025216 1.0033467-2.6279304 0-3.6304519-1.0033467-1.0025218-2.6300932-1.0025218-3.6334399 0l-6.623832 6.6183852c-.2788509.2786216-.7020641.2786216-.9809151 0l-16.64144771-16.6277635c-.27885097-.2786216-.27885097-.7014867 0-.9801084l16.64144771-16.62776331c.6943299-.59857717 1.8272041-1.81098079 3.4908356-2.09454046 1.2363814-.21073651 2.5880822.25309078 4.0551025 1.39148194-.9807952-.9799899-2.662226-2.65944922-5.0442924-5.03837797-1.1249406-1.09519457-2.9351415-1.08632833-4.0511834.02879579z" fill="url(#b)"/><path d="m36.6402834 32.3891712c1.0033467 1.0025215 2.630093 1.0025215 3.6334397 0l6.4452118-6.439912c1.1203405-1.1194193 1.1203405-2.9274706.0001311-4.0467592l-6.5013973-6.4730154c-1.005722-1.0013317-2.6329849-.9998877-3.6369255.0032273-1.0033467 1.0025216-1.0033467 2.6279304 0 3.630452l4.3910797 4.3874689c.278851.2786217.278851.7014868 0 .9801085l-4.3315395 4.3279777c-1.003347 1.0025215-1.003347 2.6279304 0 3.6304522z" fill="url(#c)"/><ellipse cx="23.964876" cy="23.945169" fill="url(#d)" rx="5.626536" ry="5.621909"/></g><path d="m2.61640581 18.0595096h-2.61640581l6.25444776-16.98069367h2.33324724l6.2544478 16.98069367h-2.6164059l-1.6625537-4.739904h-6.28422367zm2.417422-6.9155707h4.77448713l-2.38724356-6.80904041zm17.93498899-6.09416226c2.892805 0 4.532302 1.73720747 4.532302 4.7890901v8.22064286h-2.3914569v-7.7386187c0-2.11430047-.8509202-3.07249399-2.7026737-3.07249399-1.8697634 0-3.0351847 1.24054492-3.0351847 3.27907579v7.5320369h-2.3914569v-12.79167443h2.2997299v1.65578724c.7242417-1.22504298 1.9662671-1.87384577 3.6887403-1.87384577zm8.5388112.21805853v-3.20201747h2.3914566v3.20201747h2.7518135v2.07237587h-2.7518135v6.79096586c0 1.3456382.4614069 1.8674336 1.6248804 1.8674336.3347856 0 .5201991-.0095665.8977013-.0449909l.2292318-.0215108v2.0706557l-.1732259.0305983c-.4449614.078597-.8213731.1179609-1.1944908.1179609-2.6597414 0-3.7755534-1.0331052-3.7755534-3.5151691v-7.29594356h-1.9950647v-2.07237587zm20.4698875-4.18901924c5.0293108 0 8.0179323 3.16440993 8.0179323 8.48460846 0 5.33446471-2.9797741 8.49608521-8.0179323 8.49608521h-5.8852767v-16.98069367zm-3.4020931 14.70173607h3.2645025c3.5678242 0 5.6264754-2.2619274 5.6264754-6.19417408 0-3.93839632-2.0767885-6.22860437-5.6264754-6.22860437h-3.2645025zm19.4543377-8.56658537c-1.7845239 0-3.0512903 1.25432071-3.2679853 3.21841287h6.3632469c-.1204007-1.9643295-1.3216277-3.21841287-3.0952616-3.21841287zm.0687951 8.89941157c1.5049371 0 2.5153377-.5355852 2.9980379-1.5555854l.0567987-.1200223h2.3815324l-.0748786.2666481c-.629085 2.2402137-2.6379345 3.5731495-5.4073539 3.5731495-3.5449893 0-5.7820839-2.571938-5.7820839-6.6024189 0-4.00646105 2.2704831-6.62537256 5.7820839-6.62537256 3.4526961 0 5.5756979 2.46765404 5.5756979 6.43026756v.9673273h-8.8796854c.1394231 2.2719481 1.4144665 3.6660067 3.349851 3.6660067zm7.9196534-7.25003648c0-2.18267689 2.0865747-3.81356508 4.8189492-3.81356508 2.6873404 0 4.5843161 1.3524135 4.8630648 3.49960323l.030755.23690357h-2.3488282l-.0415854-.15564084c-.2453381-.91822104-1.1550165-1.48553657-2.5148719-1.48553657-1.3973488 0-2.4045608.69465184-2.4045608 1.63789835 0 .71659676.5915755 1.18886766 1.9835744 1.52897022l1.9034176.4590899c2.4554264.5932513 3.6116994 1.6955083 3.6116994 3.5552174 0 2.3143344-2.205475 3.9512862-5.1629261 3.9512862-2.8461126 0-4.8392148-1.3853178-5.0700276-3.5618784l-.0246037-.2320122h2.4157925l.0465276.1461396c.3148771.9889999 1.2554856 1.5638984 2.7011067 1.5638984 1.5673509 0 2.6453443-.7244383 2.6453443-1.7182357 0-.7349003-.5669842-1.2399197-1.8005588-1.5405533l-2.1210611-.5164231c-2.4273444-.5893698-3.5312079-1.6742431-3.5312079-3.55516168zm12.6239437 9.19616788v-12.79167443h2.3914566v12.79167443zm1.1957285-14.88536427c-.8725419 0-1.5855688-.71370324-1.5855688-1.58707267 0-.87336946.7130269-1.58707266 1.5855688-1.58707266.8725416 0 1.5855684.7137032 1.5855684 1.58707266 0 .87336943-.7130268 1.58707267-1.5855684 1.58707267zm9.7460055 12.53754607c2.1435327 0 3.4594227-1.6134934 3.4594227-4.2316472 0-2.61297481-1.323114-4.23164729-3.4594227-4.23164729-2.1214658 0-3.3676954 1.58574297-3.3676954 4.23164729 0 2.6459042 1.2462296 4.2316472 3.3676954 4.2316472zm3.5052857-10.44385623h2.29973v12.79987213c0 2.8956034-2.239202 4.7431831-5.7132887 4.7431831-3.0215717 0-5.0691718-1.3663615-5.3900423-3.5651746l-.0350511-.2401928h2.4985287l.0357141.1655705c.1987947.9216068 1.2431755 1.4985604 2.8908506 1.4985604 2.1042497 0 3.3218317-1.0055302 3.3218317-2.7052375v-1.9977465c-.845847 1.2247731-2.219335 1.9092115-3.8492625 1.9092115-3.2911604 0-5.3922439-2.5405162-5.3922439-6.3958372 0-3.85276587 2.121632-6.43026756 5.3922439-6.43026756 1.6449095 0 3.1249105.73887273 3.9409895 1.94203521zm11.583824-.21805853c2.892805 0 4.532302 1.73720747 4.532302 4.7890901v8.22064286h-2.391457v-7.7386187c0-2.11430047-.85092-3.07249399-2.702674-3.07249399-1.869763 0-3.035184 1.24054492-3.035184 3.27907579v7.5320369h-2.391457v-12.79167443h2.29973v1.65578724c.724241-1.22504298 1.966267-1.87384577 3.68874-1.87384577z" fill="#0d1a26" fill-rule="nonzero" transform="translate(60.794702 32.92053)"/></g></svg>