<svg height="90" viewBox="0 0 180 90" width="180" xmlns="http://www.w3.org/2000/svg"><g fill="#2d91c8" fill-rule="evenodd" transform="translate(0 23)"><path d="m.62584061 1.10874231c.6258406-.45585921 1.18986979-1.17828016 2.05522964-1.08942624 1.61868651-.16611819 3.05580198 1.49120046 2.85491487 3.0635284-.01545286 5.79095722-.00386321 11.57805123-.00772643 17.36900843.01158964 2.0590929-.0849907 4.1297754.21247675 6.1772786 1.05079411 5.118758 4.77106886 9.5344112 9.67348686 11.3655745 1.5221062.5563027 3.4266705.5138074 4.4195164 2.008871.1004436.4597225.2086136.9194449.3322364 1.3753041-.2665617 1.1782802-1.0816998 2.4106453-2.3604235 2.5883531-1.6225497.1120332-3.1369295-.5987981-4.6319932-1.1203319-.5331234-.2317928-1.0662469-.4674489-1.5993704-.6953785-3.16783516-1.5259694-5.72141936-4.0447846-7.95049362-6.691086-.6799256-1.5182429-1.57619116-2.9399055-2.19044213-4.4929174-.44040635-1.2903134-.76877951-2.6153956-1.07397338-3.9443411-.21247675-1.1435113-.28587781-2.3063386-.28974102-3.4653026.00386321-6.8224353.00772642-13.64487055 0-20.46344259-.0849907-.72242095.23179281-1.37144083.55630276-1.9856918z"/><path d="m83.8665045.39018458c1.3791673-.29746745 2.7931035-.36314208 4.2031764-.35927887 5.4162255 0 10.832451-.03863214 16.2486761-.00772643 2.04364.0270425 4.122049-.13907569 6.123194.37859494.923308.26656174 1.842753.53312348 2.754471.84218057 3.090571 1.23236514 5.879811 3.41508084 7.382602 6.4399771.150665.37473172.305193.74946345.467448 1.12419517.66061 2.15180994.645157 4.51995994-.262698 6.59836884-1.363715 3.2875948-4.338389 5.6557448-7.591215 6.9344685-.498354.1699814-.996709.3322363-1.4912.506081-.529261.1313492-1.054658.2704249-1.568465.4404063-2.796967.3013307-5.620976.1931607-8.425669.1545286l.112033.309057c-.4095.0038633-1.224639.0115897-1.630276.0154529l.173845-.3322364c-1.8697957.0811275-3.7434543.0386322-5.6132497.0424954-.0424954 5.9609386-.0038632 11.9218772-.0193161 17.8828158.0965804 1.0314781-.579482 1.862069-1.1705537 2.6231221-.9194449.0309057-1.8504793.10817-2.766061-.0115897-.9271712-.4867649-1.5491486-1.5491486-1.429389-2.6076692.0077264-6.4477035-.0115897-12.8992702.0115896-19.3469738-.0386321-1.5877808 1.0971527-2.9824009 2.5072257-3.5966519 1.2864501-.2781513 2.6153956-.1506653 3.9211618-.1777078.2936042.0038632.8769495.0038632 1.1666905.0077264.7726427.0115897 1.5530119.0193161 2.314065-.1506653 1.0160249.2240664 2.0706829.2086136 3.0905709.0077264 1.151238.1931607 2.352697.2588354 3.492345-.0463585.32451.073401.977393.2202032 1.301903.2936042l.019316-.2858778c.857634-.0309057 1.711404-.0965803 2.569037-.1892975 2.267707-.7262841 4.562455-1.8427529 5.860495-3.9443411.513808-1.1782801.772643-2.5806267.173845-3.7820861-.811275-1.93160681-2.696523-3.12920304-4.562455-3.89798255-.509945-.17770782-1.019889-.35541565-1.52597-.53312348-2.947632-.43654314-5.937759-.13521247-8.904707-.24724567-1.5143799-.24338246-3.051939-.1429389-4.5701819-.01158964-3.3764487.09271713-6.7567606-.04249535-10.1332093.0849907-1.5143798.04635856-2.9553585.5949349-4.2804407 1.29803978-3.3841752 2.82400915-6.1811418 6.26226926-9.1751324 9.48032626-1.3057662 1.4023465-2.495636 3.5541565-4.7478895 3.2219201 5.099442 5.5939333 9.8511947 11.4969238 14.7613392 17.2569753.9233081 1.2285019 2.078409 2.2870224 2.8819574 3.6082415.5447131 1.012162.1313493 2.1402203-.3515524 3.0828445-1.2516813.8344541-3.4228073.977393-4.3190729-.451996-4.6358563-5.6248391-9.3567034-11.1724138-14.0775504-16.727715-.7301474-.7919588-1.4255258-1.6186865-2.024324-2.5188153-.0038632.8576334-.127486 1.7384461-.7378738 2.3913292-4.9989984 5.9107169-10.0173129 11.8175705-14.9583631 17.7823723-1.0353412.0772643-2.0784089.0965804-3.1060237-.0695378-.9928459-1.012162-1.5684648-2.7621977-.5138075-3.9288883 4.3808843-5.2848762 8.7926742-10.5465731 13.2624124-15.7541851.7031049-.8228645 1.3289455-1.7848047 2.3217914-2.2870225.6451567-.1583917 1.321219-.0965803 1.9856918-.1236228-4.357705-4.6319931-8.3561311-9.6078123-12.9765346-13.99255974-1.0932894-1.09715267-2.5419945-1.70754042-4.0022893-2.14022035-1.6109601-.17384461-3.2257833-.19702389-4.8406066-.1699814.0309057 4.60108739.0038632 9.20217489.0154528 13.80326229-.0386321 3.2103305.235656 6.4824724-.6451567 9.6155387-.2086135.6915152-.4404063 1.375304-.6528831 2.0668193-2.0706825 5.3466876-6.3781657 9.7777936-11.7325797 11.8677922-1.7191301.5987981-3.5000716 1.3946201-5.3621405 1.0816998-1.5993705-.5138074-2.4647303-2.6733438-1.4139362-4.0679639 1.0121619-1.483474 3.0326227-1.2285019 4.5276863-1.8697954 3.6739162-1.4525683 6.8378882-4.2186293 8.49907-7.830734.1545286-.3863214.3129203-.7649163.4790385-1.1473745.5524395-1.6341393.9348977-3.3416797.9117184-5.0762627.0077264-7.0928602-.0193161-14.18185717 0-21.27471737-.0270425-1.1048791.8421806-1.87752182 1.591644-2.55744742 3.0982973-.1120332 6.23909-.2549721 9.3142081.2279296 1.193733.30905709 2.3797396.66060953 3.5193876 1.13578481 1.9122907.97739304 3.5387037 2.38746602 5.0067248 3.94047789 3.6546001 3.78208614 7.2319359 7.66075259 10.54271 11.74030619.1506653-.8885391.4674488-1.7616254 1.1048791-2.4145085 3.1910144-3.6236944 6.4090714-7.23193591 9.8705108-10.60065818 1.2555444-1.25940764 2.7506081-2.2406639 4.3654314-2.97081128.903992-.27815138 1.8118472-.54084991 2.7274288-.78423236z"/><path d="m134.752754 18.4661611c.43268-.0695378.86536-.1352125 1.305767-.2047503 1.290313-.3747317 2.642438-.2279296 3.96752-.2240664v.2202032c.583345.0618114 1.16669.1313492 1.750036.2086135 3.600515 1.1435112 6.795392 3.6584633 8.406353 7.1199027.791958 1.4139362 1.008298 3.0326227 1.348261 4.593361-.328373.9542138-.703105 2.2831593-1.954786 2.25998-.003863.2511089 0 .506081.007726.7610531.749464.0231792 1.182144.6683359 1.676635 1.1319216.351553 1.483474-.173844 2.912863-1.128058 4.0447846-1.344399 1.9007011-3.175562 3.4150809-5.230791 4.4929175-.753327.3167835-1.510517.6258406-2.25998.9464873-2.205895.3901846-4.458149.1429389-6.68336.2086135-1.684361.0734011-3.171698-.8305909-4.62813-1.5452854-3.388038-2.0861354-5.632565-5.6943769-6.254543-9.6000859-.251109-2.7931034.266562-5.6596079 1.649592-8.1166118 1.773215-3.021033 4.666762-5.3003291 8.027758-6.2970382zm.761053 5.3969094c-1.429389.6606096-2.816282 1.5375591-3.693232 2.8858206-2.433824 3.1948777-1.641866 8.2595507 1.583918 10.6238375 2.58449 2.0320503 6.327944 1.9702389 9.213764.6451566.193161-.1081699.587209-.3245099.780369-.4365431 2.147947-1.1203319 2.638575-3.8786665 4.879239-4.8212906-4.991272-.0424953-9.986407.0347689-14.977679-.0309057-2.04364-.0849907-2.997854-2.839462-1.699814-4.3152096.795822-1.2053227 2.375876-.8924024 3.604378-.9464874 1.031478.0154529 2.062956.0154529 3.098298.0115897 1.023751.0038632 2.051366.0038632 3.078981.0038632.772643.0038632 1.545285-.0038632 2.321791.0193161.363142-.0579482 1.09329-.1699814 1.456432-.2240664-1.294177-1.9779654-3.364859-3.2644155-5.632566-3.8323079-1.359851-.1274861-2.708112.0463585-4.013879.417227z" fill-rule="nonzero"/><path d="m161.818429 19.9032766c3.295321-1.6070969 7.255115-1.5955072 10.54271.0309057 3.291458 1.8891114 5.991844 5.1767062 6.478609 9.0128774.057948 4.4117899.023179 8.8235799.019316 13.2353698.081128.722421-.482901 1.2362284-.992846 1.6380026-1.649592.7803692-3.801402-.0656746-4.106596-1.9586493-.123623-3.7666333.046359-7.540993-.081127-11.3114895-.154529-3.3107741-2.978538-6.4322507-6.382029-6.4592932-3.689369-.2511088-6.884247 3.1832881-6.857204 6.7760767-.046359 3.7473172.007726 7.4907712-.027043 11.2380885-.467449.6606095-.884676 1.4409786-1.614823 1.8427529-.784232.1429389-1.595507.1390756-2.372013-.0193161-.529261-.3747317-.919445-.8962656-1.344399-1.3753041-.050221-4.6513092-.224066-9.3257976.115897-13.9693804.946487-3.6391472 3.264415-6.9035628 6.621548-8.680641z"/><path d="m100.860781 23.9673773c1.425526-.1583918 2.437688 1.0082988 3.434397 1.8350265 5.281013 4.4465589 10.538847 8.916297 15.823723 13.3589927.594935.4597224.996709 1.1048791 1.410073 1.71913.177708 1.2207755-.436543 2.3024754-1.282587 3.1214766-1.089426-.0927171-2.45314.4017743-3.314637-.4790384-5.354414-4.6165403-10.797682-9.132637-16.179139-13.7182716-.9387607-.8112749-2.1633994-1.537559-2.445414-2.839462-.3167835-1.5105165.9812563-3.1176134 2.553584-2.9978538z"/></g></svg>