<svg height="90" viewBox="0 0 180 90" width="180" xmlns="http://www.w3.org/2000/svg"><path d="m5.80656716 2.9838806c.36537497-.21492645.91880226-.41910351 1.66029851-.61253732.74149626-.1934338 1.48835445-.29014925 2.24059702-.29014925 1.07463221 0 2.02566751.15581934 2.85313431.46746269s1.3594018.80059368 1.5958209 1.46686567c.3868676 1.11761754.8059679 2.41790301 1.2573134 3.90089552.4513456 1.48299251.9026844 3.01432049 1.3540299 4.59402989.4513455 1.5797093.8919381 3.1379027 1.321791 4.6746268s.8059686 2.8961135 1.1283582 4.078209c-.2579117.300897-.6447735.5426857-1.160597.7253731-.5158235.1826875-1.1283546.2740299-1.8376119.2740299-.5158235 0-.951043-.0429847-1.3056716-.1289553-.3546287-.0859706-.644775-.2149245-.8704478-.3868656-.2256728-.1719412-.4083575-.3976106-.5480597-.677015-.1397022-.2794043-.2632831-.6017892-.3707463-.9671641l-.5802985-2.2244776h-5.83522387c-.17194115.6447793-.34387974 1.3110413-.51582089 1.9988059-.17194115.6877647-.34387975 1.3540267-.5158209 1.998806-.30089704.1074632-.61790879.1988056-.95104478.2740298-.33313599.0752243-.73611703.1128359-1.20895522.1128359-1.09612488 0-1.90746005-.1880579-2.43402985-.5641791-.5265698-.3761213-.78985075-.8973102-.78985075-1.5635821 0-.3008971.04298465-.6017895.12895523-.9026866.08597058-.300897.18268603-.6555203.29014925-1.0638806.15044851-.5803014.35999866-1.3002942.62865672-2.16s.56417749-1.7892487.88656716-2.7886567.66626683-2.0256664 1.03164179-3.078806c.36537496-1.05313959.70925212-2.0471595 1.03164179-2.98208953.32238968-.93493003.61790911-1.76775752.88656717-2.49850746.26865806-.73074992.47820819-1.28955031.62865671-1.67641791zm3.86865672 4.15880597c-.30089704.90269109-.6394011 1.90745713-1.01552239 3.01432833-.37612128 1.1068712-.71462534 2.2298451-1.01552239 3.3689552h3.9976119c-.300897-1.1606028-.6071626-2.2943228-.9188059-3.401194-.3116434-1.1068712-.5964166-2.10089111-.85432838-2.98208953zm17.24776122 9.41373133c0 .5588088.1773116.9564168.5319403 1.1928358.3546286.2364191.8543251.3546269 1.4991045.3546269.3223896 0 .6555206-.0268654.9994029-.080597s.6447749-.1235817.9026866-.2095523c.1934338.2364191.3599993.4997001.4997015.7898508s.2095522.6394009.2095522 1.0477612c0 .8167205-.3062656 1.4829825-.9188059 1.998806-.6125404.5158234-1.6925296.7737313-3.24.7737313-1.8913528 0-3.3474576-.4298465-4.3683582-1.2895522-1.0209007-.8597058-1.5313433-2.2567068-1.5313433-4.1910448v-13.79820897c.236419-.06447794.5749232-.13432799 1.0155224-.20955224.4405992-.07522426.9080572-.11283582 1.402388-.11283582.9456764 0 1.6817884.1665655 2.2083582.49970149s.7898508 1.03700955.7898508 2.11164179v2.06328358h4.2232836c.1289558.23641908.2525367.53193851.3707462.88656717.1182096.35462865.1773135.74686352.1773135 1.17671641 0 .75224259-.1665655 1.29492369-.4997015 1.62805969s-.7791017.4997015-1.3379105.4997015h-2.9337313zm23.4376119-2.4501492c0 1.3325439-.2041769 2.5199948-.6125373 3.562388-.4083604 1.0423933-.98328 1.9182054-1.7247761 2.6274627s-1.6280543 1.2465653-2.6597015 1.6119403c-1.031647.365375-2.1814862.5480597-3.4495522.5480597-1.2680661 0-2.4179053-.1934309-3.4495523-.5802985-1.0316469-.3868676-1.9182052-.9402949-2.6597015-1.6602985-.7414962-.7200036-1.3164158-1.5958158-1.7247761-2.6274627s-.6125373-2.1922324-.6125373-3.481791c0-1.2680661.204177-2.4179053.6125373-3.4495523.4083603-1.03164692.9832799-1.90745909 1.7247761-2.62746267.7414963-.72000358 1.6280546-1.27343091 2.6597015-1.66029851 1.031647-.38686759 2.1814862-.5802985 3.4495523-.5802985 1.268066 0 2.4179052.198804 3.4495522.59641791 1.0316472.39761391 1.9182054.95641433 2.6597015 1.67641791s1.3164157 1.59581574 1.7247761 2.62746266c.4083604 1.031647.6125373 2.1707401.6125373 3.4173135zm-11.2835821 0c0 1.3110513.2525348 2.3158174.757612 3.0143283.5050771.698511 1.2089507 1.0477612 2.1116418 1.0477612.902691 0 1.5958184-.3546233 2.0794029-1.0638806s.7253732-1.7086503.7253732-2.9982089c0-1.2895587-.2471617-2.2835786-.7414926-2.9820896-.4943308-.698511-1.1928313-1.0477612-2.0955223-1.0477612-.9026911 0-1.6011916.3492502-2.0955224 1.0477612-.4943309.698511-.7414926 1.6925309-.7414926 2.9820896zm21.4710448-8.31761198c.8811985 0 1.7462646.12358083 2.5952239.37074627.8489592.24716543 1.5850715.61790798 2.2083582 1.1122388.6447792-.42985289 1.3701452-.78447622 2.1761194-1.0638806.8059742-.27940437 1.7785016-.41910447 2.9176119-.41910447.8167205 0 1.6173094.10746161 2.4017911.32238806.7844816.21492644 1.4829819.5534305 2.0955224 1.01552238.6125404.46209188 1.1014907 1.07462306 1.4668656 1.83761194.365375.76298889.5480597 1.6925319.5480597 2.7886567v10.1552239c-.2149262.0644779-.5534306.1289549-1.0155223.1934328-.4620918.064478-.9402959.0967165-1.4346269.0967165-.4728381 0-.8973117-.0322385-1.2734328-.0967165-.3761212-.0644779-.693133-.1934318-.9510448-.3868656-.2579118-.1934339-.4567155-.4567148-.5964179-.7898508s-.2095523-.7683555-.2095523-1.3056716v-7.7050746c0-.6447794-.1826848-1.1122374-.5480597-1.4023881s-.8596983-.4352239-1.4829851-.4352239c-.3008968 0-.6232817.06985-.9671641.2095522-.3438824.1397023-.6017902.2847754-.7737314.4352239.0214926.0859706.0322388.1665668.0322388.2417911v10.9450746c-.2364192.0644779-.5856694.1289549-1.0477612.1934328-.4620918.064478-.92955.0967165-1.402388.0967165-.4728381 0-.8973117-.0322385-1.2734329-.0967165-.3761212-.0644779-.6931329-.1934318-.9510447-.3868656-.2579118-.1934339-.4567156-.4567148-.5964179-.7898508-.1397024-.333136-.2095523-.7683555-.2095523-1.3056716v-7.7050746c0-.6447794-.1988042-1.1122374-.5964179-1.4023881s-.8758182-.4352239-1.4346269-.4352239c-.3868674 0-.7199986.0591039-.9994029.1773134-.2794044.1182096-.51582.2310443-.7092538.3385075v11.3158209c-.2149262.0644779-.5534306.1289549-1.0155224.1934328-.4620918.064478-.9402958.0967165-1.4346268.0967165-.4728381 0-.8973117-.0322385-1.2734329-.0967165-.3761212-.0644779-.6931329-.1934318-.9510447-.3868656-.2579118-.1934339-.4567156-.4567148-.596418-.7898508-.1397023-.333136-.2095522-.7683555-.2095522-1.3056716v-9.73611943c0-.58030141.1235808-1.04238635.3707463-1.38626865s.5856694-.66626714 1.0155224-.96716418c.7307498-.51582349 1.6388006-.93492376 2.7241791-1.25731343 1.0853785-.32238968 2.2190986-.48358209 3.401194-.48358209zm19.8268657.48358209c0-1.09612487.1880579-2.03641399.5641791-2.82089553.3761212-.78448153.886564-1.4292512 1.5313433-1.93432835.6447792-.50507716 1.4023835-.87581972 2.2728358-1.11223881.8704522-.23641909 1.7999951-.35462687 2.7886567-.35462687 1.5904558 0 2.7617875.20955015 3.5140298.62865672.7522424.41910657 1.1283583 1.13372629 1.1283583 2.1438806 0 .42985289-.0913424.8167147-.2740299 1.16059701-.1826875.34388232-.3814916.6017902-.5964179.77373135-.4083605-.10746323-.8328336-.19880562-1.2734328-.27402986-.4405993-.07522425-.9510421-.11283582-1.5313433-.11283582-.9241836 0-1.6441764.15581933-2.16.46746269s-.7737314.85432451-.7737314 1.6280597v1.03164179h5.2871642c.1289557.23641908.2525369.53193851.3707463.88656717.1182094.35462865.1773134.74686352.1773134 1.17671641 0 .75224259-.1665654 1.29492369-.4997015 1.62805969s-.7791018.4997015-1.3379104.4997015h-3.7074627v10.2197015c-.2149263.0644779-.5534306.1289549-1.0155224.1934328-.4620918.064478-.9402958.0967165-1.4346269.0967165-.472838 0-.8973116-.0322385-1.2734328-.0967165-.3761212-.0644779-.693133-.1934318-.9510448-.3868656-.2579118-.1934339-.4567155-.4567148-.5964179-.7898508s-.2095522-.7683555-.2095522-1.3056716zm18.6340298 15.63582089c-.2149262.0644779-.5534306.1289549-1.0155224.1934328-.4620918.064478-.9402958.0967165-1.4346268.0967165-.4728381 0-.8973117-.0322385-1.2734329-.0967165-.3761212-.0644779-.693133-.1934318-.9510447-.3868656-.2579118-.1934339-.4567156-.4567148-.596418-.7898508-.1397023-.333136-.2095522-.7683555-.2095522-1.3056716v-9.67164181c0-.49433082.0913424-.91880418.2740299-1.27343284.1826874-.35462866.4459683-.6716404.7898507-.95104478.3438824-.27940437.7683555-.53193917 1.2734328-.75761194.5050774-.22567276 1.0477585-.42447676 1.6280597-.59641791s1.1820865-.30626816 1.8053732-.40298507 1.2465645-.14507463 1.8698505-.14507463c1.031647 0 1.848355.198804 2.450149.59641791.601795.39761391.902687 1.04775667.902687 1.95044776 0 .30089705-.042985.59641648-.128955.88656717-.085971.29015068-.193433.55343167-.322388.78985074-.451346 0-.913431.0214923-1.386269.0644776s-.934923.1074623-1.386269.1934329c-.451345.0859705-.875819.1773129-1.273432.2740298-.3976141.0967169-.7361184.2095516-1.0155228.3385075zm13.9916418-3.4495522c.365375 0 .768356-.0376116 1.208955-.1128359.440599-.0752242.768358-.1773128.983284-.3062686v-2.5791045l-2.321194.1934328c-.601794.0429853-1.096118.1719393-1.482985.3868657-.386868.2149265-.580299.5373113-.580299.9671642s.166566.7791031.499702 1.0477612c.333136.268658.897309.4029851 1.692537.4029851zm-.25791-12.66985078c1.160602 0 2.219099.11820779 3.175522.35462686.956423.23641908 1.773131.59641549 2.450149 1.08.677019.48358451 1.198207 1.09611569 1.563582 1.83761194.365375.74149626.54806 1.61730838.54806 2.62746268v7.2214925c0 .5588088-.15582 1.0155206-.467463 1.3701493s-.682386.6608942-1.112238.918806c-1.397023.8382131-3.36357 1.2573134-5.899702 1.2573134-1.13911 0-2.165369-.1074616-3.078806-.3223881-.913437-.2149264-1.697907-.5373112-2.353433-.9671641-.655525-.4298529-1.160595-.9779072-1.515224-1.6441791-.354628-.666272-.53194-1.4399957-.53194-2.3211941 0-1.4829925.440593-2.6220855 1.321791-3.4173134.881199-.7952279 2.245961-1.2895513 4.094328-1.4829851l4.223284-.4513433v-.2256716c0-.6232867-.274027-1.0692524-.82209-1.3379105-.548062-.268658-1.337905-.40298503-2.369552-.40298503-.81672 0-1.611936.0859693-2.385671.25791043-.773736.1719412-1.472236.3868644-2.095523.6447761-.279404-.1934338-.51582-.4889532-.709254-.88656712-.193433-.39761391-.290149-.81134114-.290149-1.24119403 0-.55880875.134327-1.00477446.402985-1.33791045s.682386-.61790928 1.241194-.85432836c.623287-.23641907 1.359399-.40835767 2.208359-.51582089.848959-.10746323 1.649548-.16119403 2.401791-.16119403zm18.601791 0c.881198 0 1.746264.12358083 2.595223.37074627.84896.24716543 1.585072.61790798 2.208359 1.1122388.644779-.42985289 1.370145-.78447622 2.176119-1.0638806.805974-.27940437 1.778502-.41910447 2.917612-.41910447.81672 0 1.617309.10746161 2.401791.32238806.784482.21492644 1.482982.5534305 2.095522 1.01552238.612541.46209188 1.101491 1.07462306 1.466866 1.83761194.365375.76298889.54806 1.6925319.54806 2.7886567v10.1552239c-.214926.0644779-.553431.1289549-1.015523.1934328-.462091.064478-.940295.0967165-1.434626.0967165-.472838 0-.897312-.0322385-1.273433-.0967165-.376121-.0644779-.693133-.1934318-.951045-.3868656-.257912-.1934339-.456716-.4567148-.596418-.7898508s-.209552-.7683555-.209552-1.3056716v-7.7050746c0-.6447794-.182685-1.1122374-.54806-1.4023881s-.859698-.4352239-1.482985-.4352239c-.300897 0-.623282.06985-.967164.2095522-.343883.1397023-.60179.2847754-.773731.4352239.021492.0859706.032238.1665668.032238.2417911v10.9450746c-.236419.0644779-.585669.1289549-1.047761.1934328-.462092.064478-.92955.0967165-1.402388.0967165s-.897312-.0322385-1.273433-.0967165c-.376121-.0644779-.693133-.1934318-.951045-.3868656-.257911-.1934339-.456715-.4567148-.596417-.7898508-.139703-.333136-.209553-.7683555-.209553-1.3056716v-7.7050746c0-.6447794-.198804-1.1122374-.596418-1.4023881-.397613-.2901507-.875818-.4352239-1.434626-.4352239-.386868 0-.719999.0591039-.999403.1773134-.279405.1182096-.51582.2310443-.709254.3385075v11.3158209c-.214926.0644779-.553431.1289549-1.015523.1934328-.462091.064478-.940295.0967165-1.434626.0967165-.472838 0-.897312-.0322385-1.273433-.0967165-.376121-.0644779-.693133-.1934318-.951045-.3868656-.257912-.1934339-.456716-.4567148-.596418-.7898508s-.209552-.7683555-.209552-1.3056716v-9.73611943c0-.58030141.123581-1.04238635.370746-1.38626865.247166-.3438823.585669-.66626714 1.015522-.96716418.73075-.51582349 1.638801-.93492376 2.72418-1.25731343 1.085378-.32238968 2.219098-.48358209 3.401194-.48358209zm28.047761 16.66746268c-1.268066 0-2.444771-.1773116-3.530149-.5319403-1.085379-.3546287-2.031041-.8865636-2.837015-1.5958209-.805975-.7092573-1.439998-1.6011886-1.90209-2.6758209-.462092-1.0746322-.693134-2.3319331-.693134-3.7719403 0-1.4185145.231042-2.6382038.693134-3.6591045.462092-1.02090059 1.06925-1.85910117 1.821493-2.51462683.752242-.65552566 1.611935-1.13910291 2.579104-1.45074627s1.955816-.46746268 2.96597-.46746268c1.139111 0 2.176115.17193859 3.111045.51582089s1.740892.81671342 2.41791 1.41850746c.677019.60179405 1.203581 1.32178684 1.579702 2.16.376121.83821313.564179 1.75163683.564179 2.74029853 0 .7307499-.204177 1.2895503-.612537 1.6764179-.408361.3868676-.977907.6340293-1.708657.7414925l-7.962985 1.1928359c.236419.7092572.719996 1.2411922 1.450746 1.5958208.73075.3546287 1.568951.5319403 2.514627.5319403.881199 0 1.714026-.1128347 2.498508-.3385074.784481-.2256728 1.423877-.4889537 1.918209-.7898508.343882.2149265.634028.515819.870447.9026866.23642.3868676.354627.7952217.354627 1.2250746 0 .967169-.451339 1.6871618-1.35403 2.16-.687764.365375-1.461488.6125367-2.321194.7414926-.859706.1289558-1.665668.1934328-2.41791.1934328zm-.902687-12.66985074c-.515823 0-.961789.0859693-1.33791.25791044-.376121.1719412-.682387.3922375-.918806.6608955-.236419.2686581-.413731.5695506-.53194.9026866-.11821.333136-.18806.6716401-.209553 1.0155224l5.512836-.9026866c-.064478-.4298529-.300893-.8596993-.709254-1.2895522-.40836-.4298529-1.010145-.64477614-1.805373-.64477614zm15.797015 12.12179104c-.214926.0644779-.55343.1289549-1.015522.1934328-.462092.064478-.940296.0967165-1.434627.0967165-.472838 0-.897312-.0322385-1.273433-.0967165-.376121-.0644779-.693133-.1934318-.951045-.3868656-.257911-.1934339-.456715-.4567148-.596418-.7898508-.139702-.333136-.209552-.7683555-.209552-1.3056716v-9.67164181c0-.49433082.091343-.91880418.27403-1.27343284s.445968-.6716404.789851-.95104478c.343882-.27940437.768355-.53193917 1.273433-.75761194.505077-.22567276 1.047758-.42447676 1.628059-.59641791s1.182087-.30626816 1.805373-.40298507c.623287-.09671691 1.246564-.14507463 1.869851-.14507463 1.031647 0 1.848355.198804 2.450149.59641791.601795.39761391.902687 1.04775667.902687 1.95044776 0 .30089705-.042985.59641648-.128955.88656717-.085971.29015068-.193433.55343167-.322388.78985074-.451346 0-.913431.0214923-1.386269.0644776s-.934923.1074623-1.386269.1934329c-.451345.0859705-.875819.1773129-1.273432.2740298-.397614.0967169-.736119.2095516-1.015523.3385075z" fill="#007aff" transform="translate(0 34)"/></svg>