<svg height="90" viewBox="0 0 180 90" width="180" xmlns="http://www.w3.org/2000/svg"><g fill="#ff5a00" fill-rule="evenodd" transform="translate(34 10)"><path d="m10.4094118 0h9.1247058c-1.0623529 4.71058824-3.2447058 9.10823529-6.4482352 12.7317647.9388235-.0576471 2.8082352-.1729412 3.7470588-.2305882.057647 11.5952941.0082353 23.1988235.0247059 34.7941176-2.7670589-.0411765-5.5341177-.0329412-8.30117651 0-.0082353-10.3435294 0-20.6788235 0-31.0141176-.95529412.6588235-1.91058824 1.3094117-2.86588235 1.9682353-1.79529412-2.4376471-3.3682353-5.1058824-5.69058824-7.0988236v-.9305882c5.37764706-.51058824 8.48235294-5.73176471 10.4094118-10.22z"/><path d="m29.0458824 0h9.3058823c-.4117647 2.28117647-.84 4.56235294-1.2517647 6.84352941 2.9317647-.01647059 5.8717647-.01647059 8.8035294 0 0-2.28117647 0-4.56235294.0082353-6.84352941h8.5482353c.0164706 4.56235294.0082353 9.12470588.0082353 13.6870588-6.1929412-.0494117-12.3941177.0329412-18.5870588-.057647-2.0505883 11.2164706-4.0847059 22.4329411-6.102353 33.6494117-3.1458823-.0247059-6.3-.0247059-9.4458823.0082353 2.1-11.2082353 4.0517647-22.4411764 6.1682353-33.6494117-2.1247059.0247058-4.2494118.0494117-6.3741177.0905882-.0247059-2.3223529-.0247059-4.64470589 0-6.96705883 2.52.05764706 5.0482353.08235294 7.5682353.10705882.4364706-2.29764705.8070588-4.60352941 1.3505883-6.86823529z"/><path d="m61.5341176 0h14.0411765c.0247059 2.04235294.0329412 4.09294118.0329412 6.13529412-4.6941177-.02470588-9.3882353-.04117647-14.0823529.00823529 0-2.05058823 0-4.09294117.0082352-6.14352941z"/><path d="m81.9329412 0h25.6529408c.041177 4.36470588-.024706 8.72941176.065883 13.0941176 1.457647-.4858823 2.923529-.9635294 4.348235-1.5482352v7.3458823c-3.244706-.1152941-6.538824.2964706-9.742353-.2552941-4.5458823-2.3882353-2.149412-8.4741177-2.7423529-12.55882354-3.0882353.02470588-6.1764706.04941176-9.2647059-.04941177.1070589 5.49294121-3.0552941 10.24470591-7.0905882 13.68705881-1.8941176-2.0505882-3.8047059-4.0847059-5.7647059-6.0611765 1.622353-1.2270588 3.5576471-2.4458823 4.1011765-4.56235289.7823529-2.95647059.3294118-6.06941177.4364706-9.09176471z"/><path d="m61.5341176 11.0188235c4.6858824.0741177 9.3717648.0576471 14.0576471.0164706.0164706 2.3141177.0247059 4.6364706-.0411765 6.9588235-.7-.0494117-2.0917647-.14-2.7917647-.1811764-.0411764 6.6047059-.0494117 13.217647.0082353 19.8305882.9470588-.3129412 1.8941177-.617647 2.8494118-.9223529-.0082353 2.2811764-.0082353 4.5705882-.0329412 6.8517647-4.6941176 1.2352941-9.4047059 2.3964706-14.0658823 3.7635294.0082353-2.2894118.0082353-4.5705882.0164705-6.86.9717648-.2470588 1.9435295-.4941177 2.9070589-.7411765 0-7.3047059.0082353-14.6011765 0-21.9058823-.9635294.0494117-1.9352941.0988235-2.8988236.1482353-.0247058-2.322353-.0247058-4.6364706-.0082353-6.9588236z"/><path d="m39.8835294 18.1258824c2.94.0988235 5.8882353.0741176 8.8282353.0411764.0164706 7.4941177-.0247059 14.9882353.0247059 22.4741177 2.1329412.0247059 4.1588235-.6094118 5.9047059-1.8447059-.082353 2.8329412-.0576471 5.6658823-.0576471 8.4905882-3.3847059-.0658823-6.7694118.0164706-10.1458823-.0247059-2.462353.2141177-4.6941177-2.0588235-4.5705883-4.4882353-.0247059-8.2188235-.0329412-16.4294117.0164706-24.6482352z"/><path d="m80.5329412 21.6917647c9.5941176.0741177 19.1964706.0164706 28.7988238.0247059-.864706 6.2505882-3.738824 12.0894118-7.872941 16.8164706 3.261176 1.1529412 6.810588 2.1494117 10.22.9223529-.84 2.3964706-1.498824 4.8505883-2.38 7.2305883-4.949412.56-10.1376475-.9058824-14.6094122-3.1129412-4.4964706 2.2152941-9.66 3.6482353-14.642353 3.1294117-.9058823-2.3717647-1.5317647-4.8423529-2.3717647-7.2470588 8.5729412 2.1164706 17.78-3.78 21.2635294-11.5705882-6.1352941.0741176-12.2705882-.0329412-18.4058823.0741176-.0082353-2.0917647-.0082353-4.1752941 0-6.2670588z"/><path d="m20.8847059 52.0964706c1.96-1.4411765 4.5458823 1.8611765 2.2729412 3.1211765-1.8611765 1.8447058-4.8258824-1.8364706-2.2729412-3.1211765z"/><path d="m44.6517647 51.8247059c1.1858824-.0082353 2.3635294-.0082353 3.5494118-.0082353.0164706 5.7235294.0164706 11.4388235 0 17.1541176-.8564706.0164706-2.5611765.0329412-3.4176471.0411765-.0082353-.3705882-.0247059-1.1035294-.0411765-1.4741176-.8317647.56-1.6635294 1.12-2.52 1.6388235h-2.2729411c-5.4352942-1.5152941-4.8752942-11.0352941.617647-12.04 1.4658824-.3458824 2.8.6094118 4.142353 1.0458823-.0576471-2.1247058-.0658824-4.2411764-.0576471-6.357647zm-3.9364706 8.6552941c-1.5070588 1.82-1.3011765 5.6 1.4 6.1764706 1.9188235-.3211765 2.9070588-2.3141177 2.6270588-4.1176471.3047059-2.1164706-2.5364705-3.7882353-4.0270588-2.0588235z" fill-rule="nonzero"/><path d="m5.97882353 57.3835294c1.18588235 0 2.36352941-.0082353 3.54117647-.0082353.04941176 2.5611765-.14 5.1388235.12352941 7.6917647.47764709 2.1082353 3.55764709 1.6552941 3.86235299-.3047059.2305882-2.4541176.057647-4.9329411.0988235-7.3952941 1.1611765.0082353 2.3305882.0164706 3.5.0247059-.0082353 3.8623529.0411765 7.7247059-.0494118 11.5870588-.8317647.0082353-2.4870588.0164706-3.3188235.0247059-.0494118-.4447059-.14-1.3423529-.1894118-1.7952941-.4941176.4694118-1.4988235 1.4082353-1.9929412 1.8776471-2.14117642.3623529-4.71882348-.3952942-5.34470584-2.7094118-.51058823-2.9564706-.14-5.9952941-.23058823-8.9929412z"/><path d="m25.9905882 60.2082353c.4941177-3.8623529 5.6164706-3.9776471 8.342353-2.4623529-.1235294.5929411-.3705883 1.7870588-.4941177 2.38-1.4164706-.56-4.0682353-1.8117648-4.4882353.5352941 1.5482353 1.1611764 3.4752942 1.7458823 4.9164706 3.0552941 1.6058824 1.8694118-.1564706 4.62-2.1905882 5.2211765-2.0670588.4529411-4.1588235-.082353-6.1682353-.5682353.3458823-.9141177.6917647-1.8282353 1.0376471-2.742353 1.2188235.7905883 4.5211764 2.2235294 4.5047058-.2964706-1.9929411-1.3835294-5.74-2.0011764-5.46-5.1223529z"/><path d="m51.5611765 59.7470588c1.9352941-2.9729412 5.8964706-2.997647 8.9517647-2.0752941-.3458824.9141177-.7 1.8282353-1.0541177 2.7341177-2.0835294-.6588236-5.0647059-.5270589-5.3117647 2.24-.6258823 3.0635294 2.8164706 4.7188235 5.2788236 3.36.2635294.8482352.5352941 1.7047058.7988235 2.5529411-.5270588.1564706-1.5894118.4611765-2.1164706.6176471h-2.24c-4.5211765-.222353-6.8847059-5.8717647-4.3070588-9.4294118z"/><path d="m68.7235294 60.4717647c1.6058824-3.5576471 6.2588235-4.0517647 9.4788235-2.5447059-.3211764.6176471-.9635294 1.8694118-1.2847058 2.4870588-1.82-.477647-4.422353-.7905882-5.0235295 1.5482353-.9470588 2.3552942.9552942 4.2494118 3.0470589 4.9164706.4529411-.337647 1.3588235-1.0129411 1.8117647-1.3505882.3705882 1.0047059.7411764 2.0011765 1.1117647 3.0058823-.5188235.1647059-1.5482353.4858824-2.0670588.642353h-2.4129412c-4.1505883-.2552941-6.5717647-5.1388235-4.6611765-8.7047059z"/><path d="m79.2647059 61.7894118c.6258823-5.1882353 8.3505882-6.3247059 11.1917647-2.3635294 2.2647059 3.4588235.6752941 8.9847058-3.7058824 9.7505882h-1.6552941c-3.9117647.2388235-6.7035294-3.7305882-5.8305882-7.3870588zm4.2823529-1.2435294c-1.457647 1.8035294-1.0047059 6.1270588 1.9517647 5.9870588 2.2564706-.1235294 2.602353-2.9070588 2.24-4.6447059-.1729411-1.9435294-2.9235294-2.8905882-4.1917647-1.3423529z" fill-rule="nonzero"/><path d="m96.9541176 58.0341176c2.182353-1.4988235 5.1635294-1.1941176 6.7447064 1.0047059 1.614117-2.2482353 5.583529-2.8988235 7.082352-.2141176 1.227059 3.22.378824 6.7941176.609412 10.1623529-1.210588-.0247059-2.412941-.0411764-3.623529-.0658823-.098824-2.6188236.28-5.2870589-.230588-7.8729412-.370589-1.8364706-3.121177-1.5647059-3.401177.2305882-.304706 2.5529412-.074118 5.1388236-.14 7.7082353-1.218823-.0247059-2.437647-.0411764-3.648235-.0658823-.065883-2.6105883.214117-5.2541177-.164706-7.8564706-.3788236-1.8364706-3.2776471-1.6470588-3.4670589.2223529-.3047059 2.5529412-.0741176 5.1388236-.14 7.7-1.2105882-.0247059-2.4294117-.0411764-3.64-.0658823.082353-3.8705883.082353-7.7411765.0082353-11.62 1.3588235.0988235 2.7917647.0164706 4.0105882.7329411z"/><path d="m20.1847059 57.3670588c.8894117.0082353 2.66.0247059 3.5411765.0247059 0 3.8541177.0164705 7.7082353-.0082353 11.5541177-.8811765.0164705-2.6270589.0494117-3.5082353.0658823-.0494118-3.8788235-.0164706-7.7576471-.0247059-11.6447059z"/><path d="m63.7576471 65.4294118c1.9188235-1.4247059 4.48 1.9847058 2.1164705 3.22-2.0670588 1.6552941-4.6858823-2.1247059-2.1164705-3.22z"/></g></svg>