<svg height="90" viewBox="0 0 180 90" width="180" xmlns="http://www.w3.org/2000/svg"><path d="m13.7235795 46.0569494h1.7498547c4.0612358 0 10.9222391.2089802 10.9222391-5.5953277 0-6.3644692-6.7910091-5.734386-11.27221-5.734386h-1.3998838zm0-21.5430331h1.5406586c3.6404842 0 7.4209568-.6300832 7.4209568-5.105874 0-4.8261862-4.2712183-5.1043027-7.9824832-5.1043027h-.9791322zm-13.7235795 32.0352547v-52.73686734h19.6046642c9.3815805 0 15.6834168 3.63594166 15.6834168 13.70863154 0 4.7554785-1.5406586 8.6027574-5.811877 10.770338v.1406296c7.5617317.979693 10.7830373 6.0839957 10.7830373 13.4289437 0 11.0500258-9.4523612 14.6883245-19.1139185 14.6883245zm48.0464537 0v-35.726917h12.5431403v35.726917zm13.3009615-49.44493307c0 3.89943037-3.1713926 7.10423797-7.0293914 7.10423797-3.8595468 0-7.0293913-3.2048076-7.0293913-7.10423797 0-3.90099476 3.1698445-7.10423793 7.0293913-7.10423793 3.8579988 0 7.0293914 3.20324317 7.0293914 7.10423793zm24.0424066 49.44493307h-12.848569v-25.2430965h-4.1644463v-10.4324906h4.1644463v-10.7074408h12.848569v10.7074408h7.2703365v10.4324906h-7.2703365zm23.9652032-17.756696c0 4.5319888 3.025643 8.0165081 8.227916 8.0165081 5.203062 0 8.225546-3.4845193 8.225546-8.0165081 0-4.3895079-3.022484-8.0838342-8.225546-8.0838342-5.202273 0-8.227916 3.6943263-8.227916 8.0838342zm29.95473 0c0 12.1281-10.125754 19.0274638-21.726814 19.0274638-11.531561 0-21.7276045-6.8296891-21.7276045-19.0274638 0-12.1962089 10.1257535-19.0955728 21.7276045-19.0955728 11.60106 0 21.726814 6.8993639 21.726814 19.0955728z" fill="#ff4c00" transform="translate(20 16)"/></svg>