<svg height="90" viewBox="0 0 180 90" width="180" xmlns="http://www.w3.org/2000/svg"><g fill="none" fill-rule="evenodd"><g fill="#999" transform="translate(95.845285)"><path d="m35.0827603 1.05095776c6.5875491-1.37917485 13.5795678-.80562377 19.8322692 1.6875 4.817166 1.92288802 9.1768173 5.18516699 12.0047888 9.57134084 3.2722249 4.949779 4.4557956 11.0300835 4.2436149 16.8915766-.377947 6.5709725-3.8358301 12.4921415-7.8904715 17.4916503-4.694499 5.7255649-10.3835953 10.5593075-16.3810167 14.8659136 1.932834.1160363 3.8855599.1558202 5.7852407.5768664 1.6808693.3414784 3.252333 1.1636788 4.9961935 1.1802554 2.3870334.0397839 4.7840127-.1094057 7.1445236-.4774067.3447937-1.5847249.5801817-3.355108 1.8532662-4.5022102 1.2697691.8321464.9183448 2.5097004 1.2299852 3.7927309.490668-1.5449411.5171906-3.5706042 2.0919696-4.4657417.9846512 1.1603635.8686149 2.7450884.8752456 4.1673625 2.5760068.6862721 4.9862475 2.0753929 6.7964145 4.0446955.5503438.6630648 1.1902014 1.5051571.9349214 2.4201866-.4276768.8851916-1.3725442 1.339391-2.1947446 1.7836444-3.0766208 1.4487967-6.3654224 2.3571955-9.5846022 3.4147839.2420187 2.5428536 1.6676081 4.7840128 3.4512525 6.5378192.6100196.4077849-.2387033.9150295-.6531189.8387771-3.1959725-.0464146-5.6857809-2.7152505-6.730108-5.5498527-.6067043.3912083-1.206778.7956778-1.8035364 1.2001474.6199657 1.0277504 1.4388507 1.902996 2.2577358 2.771611-.0198919.5304518-.6067043.5536591-1.0045432.603389-1.4023821-.0430993-2.678782-.7127947-3.8059922-1.4985266-1.5747789 1.1404715-3.2191797 2.2080059-4.9995088 3.0003684.961444-.122667 2.0687623-.2221267 2.8147102.5403978.9050835.858669 1.7504912 1.9593566 1.9262033 3.2258105.0961444.5470284-.5271365.6199656-.9117141.6199656-1.462058 0-2.874386-.480722-4.3298134-.4939833-1.9659872.1392436-3.9220284.9581287-5.9045923.5403978-.4343075-.4144155-.348109-1.064219-.470776-1.6013016-2.4069254-.2088654-4.8072201 1.2134087-7.1710462.3746317-.009946-.2851179-.0331532-.8553537-.0430992-1.1404715.736002-.0033154 1.4720039 0 2.2113212.0033153.122667-1.6410855.2818026-3.2755403.4774067-4.9033645-2.526277.0232073-5.0492387.1790275-7.5755157.1723969.0232072-4.3596513-.0066307-8.7159872.0165766-13.0756385 2.2411591-5.5597986 3.845776-11.5306975 3.4147839-17.5745334-.2519647-3.5672888-1.216724-7.1511542-3.252333-10.1283153-.4641454.3912082-.9249755.7890471-1.3824902 1.1835707.0298379-1.7206532.0961444-3.4379912.1558202-5.1553291 2.3671415-.0066306 4.7342829.0033153 7.1047397-.0066306.4541994-2.9506385.8652996-5.9045924 1.2763998-8.8618615-9.3392681-.009946-18.6785363-.0066307-28.0144892 0-.0895137 2.9705304-.4575147 5.9244843-.828831 8.8718074 2.7251965-.0132613 5.4503929 0 8.1789047-.0132613.1856582 4.2635069.2022348 8.5369598.1292976 12.803782-.1094057.0596758-.328217.1757121-.4376227.235388-3.3219549 1.3824902-6.9422888 2.2511051-10.5593075 2.0057711-.1027751-7.9733546.2685412-15.9433939.6730108-23.9034872-2.98047643-.0165766-5.95763753.0132613-8.93811395-.019892 2.65888998-6.9157662 8.06286835-12.4357809 14.20947935-16.40090862 5.7089882-3.68664047 12.1241405-6.28585461 18.7813114-7.64513752z"/><path d="m.99791257 40.9309921c-1.15373281-5.0094548-.87193025-10.3736493.87524558-15.2140226.22212672 5.5863213.19891945 11.1792731.37463163 16.7655944-.42436149-.5138753-.85203831-1.0211199-1.24987721-1.5515718z"/></g><g fill="#61456a" transform="translate(6 23.870334)"><path d="m45.4365177.37463163c4.5287328-.32158644 9.3624754.29174853 13.122053 3.03020629 4.0181729 2.83460216 5.9941061 7.74791258 6.4449902 12.50871808.4939833 5.3542485-.0663065 11.1560658-3.2457024 15.668222-2.5030697 3.600442-6.7267927 5.6957269-11.0201375 6.2029715-4.9995088.603389-10.473109-.112721-14.5178045-3.3352161-3.8126228-2.9771611-5.6526277-7.8208497-6.0471513-12.5252947-.3945235-5.2514735.1624509-10.9273084 3.3352161-15.31679764 2.6854126-3.85240668 7.3434431-5.89464636 11.9285364-6.23280943zm.1193517 8.0529224c-1.9726179.88187623-2.6555747 3.16281927-3.0003684 5.11886047-.4740914 3.0865668-.4939833 6.2427554-.142559 9.3458989.3050099 2.1184921.755894 4.4126964 2.3240423 5.9907907 1.4985265 1.584725 4.2635069 1.5946709 5.8349705.112721 1.0343812-.9780206 1.554887-2.3605108 1.8764735-3.7164783.5735511-2.5329077.5636051-5.1486985.4840373-7.7280207-.2055501-2.7152505-.5801817-5.6128438-2.280943-7.84074162-1.1437868-1.53831041-3.3584234-2.03892436-5.0956532-1.28303045z" fill-rule="nonzero"/><path d="m3.48109037 1.24324656c7.97998523-.00331532 15.96328583.00331533 23.94658643-.00331532.1624509 2.97053045.470776 5.93111493.8652996 8.87843816-4.1242632-.1060904-8.2518418-.25528001-12.3761051-.4044696-.0795678 2.536223-.1525049 5.072446-.2718566 7.6053536 3.7695236.0066307 7.5390472 0 11.3085708.0066307-.122667 2.4268173-.1359283 4.8602652-.2420187 7.2903978-3.6866405.0033153-7.3732809-.0066306-11.0599214.0066307.1094057 4.1408399.1922888 8.2816797.1790275 12.4258349-4.09111 0-8.18222005 0-12.27001475 0 .17902751-9.030943.41773085-18.0685167.0961444-27.09945968-.00663064-2.90422397-.1922888-5.80181729-.17571218-8.70604126z"/><path d="m69.2770138 1.24324656c3.0733055.00663065 6.146611-.01326129 9.2199165.00994597 4.1043713 5.27799608 8.2385805 10.53278487 12.3462671 15.80746567.3978389.5304518.8255158 1.0376964 1.2498773 1.5515717-.1757122-5.5863213-.152505-11.17927312-.3746317-16.76559434 0-.15582024-.0066306-.46746071-.0066306-.62328094l.225442.00331532c2.9804764.03315324 5.9576375.00331533 8.9381136.01989195-.404469 7.96009332-.775785 15.93013261-.67301 23.90348721.142559 3.9651277.079567 7.9335707.169081 11.8986984-2.6356826 0-5.26805-.0033153-7.9004174.0033154-4.8337426-5.9642682-9.9194499-11.7229863-14.5609037-17.8430747.0795678 5.9443762.1922888 11.8854371.1723968 17.8298134-2.9108546.0165766-5.8183939.0099459-8.7259332.0066306.3447937-11.9318516.3348478-23.8736493-.0795677-35.80218564z"/><path d="m103.719917 1.24656189c9.335952-.00663065 18.675221-.00994598 28.014489 0-.4111 2.95726915-.822201 5.91122298-1.2764 8.86186151-2.370457.009946-4.737598 0-7.10474.0066306-.059676 1.7173379-.125982 3.4346759-.15582 5.1553291-.258595 7.2572446.15582 14.5178045.04973 21.7783644-4.061272 0-8.122544-.0033153-12.180501 0 .006631-4.7077603.175712-9.4155206.165766-14.1232809l-.470776.2188114c.109406-.0596758.328217-.1757122.437623-.235388.072937-4.2668222.05636-8.5402751-.129298-12.8037819-2.728512.0132613-5.453708 0-8.178905.0132613.371317-2.94732323.739318-5.90127706.828832-8.87180751z"/><path d="m7.96009332 42.7743124c2.00577112-2.5859529 5.48023088-3.2191798 8.56679768-3.2457024-.2121808 1.6941307-.3912083 3.3915766-.5868124 5.0890226-1.3261297.0265226-2.6920432.6365423-3.1959725 1.94278-1.4355354 3.4048379-1.196832 7.5456778-3.7993615 10.4266945-2.11517682 2.4898084-5.56311395 3.0434676-8.6563114 3.11972.2055501-1.7040766.44425344-3.4015226.67964146-5.1022839 1.47200393-.0265226 2.98379174-.7028487 3.52750491-2.1615913 1.3725442-3.272225 1.14047151-7.1942535 3.46451375-10.0686395z"/><path d="m21.6789047 40.5961444c2.7881876-1.3261297 6.1333497-1.3659136 9.0176817-.3215864 2.7285118 1.0111738 4.6049853 3.6170186 5.092338 6.4383595.5039292 2.8909627.4343074 6.0106827-.8354617 8.7060412-.8818763 1.8499509-2.5130157 3.2457024-4.3894892 4.0248036 1.0343811 1.3824902 2.0223477 2.7981336 3.0268909 4.2071463-2.0157171.4343075-4.0082269.9647594-6.0305746 1.3692289-1.0244352-1.6046169-1.9394647-3.2821709-2.6655206-5.042608-2.3074657-.2718566-4.5983547-1.3592829-5.9675835-3.2854863-1.9195727-2.6257367-2.188114-6.0902505-1.7770138-9.2232318.3547397-2.8147102 1.9063114-5.6095285 4.5287328-6.872667zm3.9949656 3.3451621c-1.5283644.5205059-1.8234283 2.3439342-1.9792485 3.7396856-.1259823 2.310781-.2751719 4.8436886.9249754 6.9223969.7393173 1.3360756 2.8544942 1.5283644 3.7728389.2950638.8056238-1.0973722.981336-2.5130157 1.0310659-3.83583.0331532-2.0090865.0795677-4.1574165-.9548134-5.9543222-.5370825-.9581287-1.7206532-1.5681483-2.7948183-1.1669941z" fill-rule="nonzero"/><path d="m37.9604617 40.0325393h6.9621807c.0928291 4.5486247-.4077848 9.1105108-.0198919 13.6458743.1525049 1.9063114 2.6058448 2.6257367 4.0281189 1.6079322.8785609-.6763262 1.084111-1.8665275 1.1272102-2.904224.0099459-4.1143173 0-8.2319499.0033153-12.3495825h4.9729862c-.0099459 4.0115422.0165767 8.0230845-.0099459 12.0313114-.0530452 2.1914293-.5437132 4.5784627-2.2444745 6.1068271-1.8698428 1.7173379-4.5983546 2.0256631-7.0318025 1.8499509-2.5229617-.1458743-5.1486985-1.2299853-6.524558-3.4479371-1.0542731-1.6278242-1.2631385-3.6137034-1.2664538-5.5067535.0033153-3.6766945 0-7.3567043.0033153-11.0333988z"/><path d="m57.5175589 40.0325393c2.3273576 0 4.6547152-.0033153 6.9820727 0-.1326129 4.5552554-.5072446 9.1138261-.2718566 13.6690815.019892 1.9626719 0 3.9286592.0066307 5.8913311-2.2411591-.0033154-4.4823183.0066306-6.7234774-.0066307.3083251-6.5112966.1458743-13.0391699.0066306-19.5537819z"/><path d="m67.2911346 40.0325393c3.7728389.0762524 7.588777-.2519646 11.3185167.4475688 2.1184921.4144155 4.459111 1.4587426 5.1984283 3.6601178 1.0376964 2.8777014-.3713163 6.2294941-3.0401523 7.6550835.6531189 1.0807957 1.3427063 2.2577358 2.5130157 2.8478635.7492633.3812623 1.6013016.3083251 2.40361.1956041-.225442 1.7107073-.4144155 3.4247299-.6265962 5.1354371-1.8400049.1558203-3.8291994.2519647-5.4669696-.7625245-2.1218074-1.2631385-3.4048379-3.5142436-4.203831-5.7852407-.4608301.0464146-.9183448.0961444-1.3758595.142559.0066306 2.0090864.0033153 4.0148575.0033153 6.023944-2.2113212-.0033154-4.4226425 0-6.6339637 0 .1558203-6.5212427.1591356-13.0424853-.0895137-19.5604126zm6.7433693 4.1176326c-.235388 1.8731582-.0066306 3.752947-.0066306 5.6294204 1.2200393-.092829 2.6124754-.4442534 3.2125491-1.6311395.470776-1.054273.593443-2.5229616-.3348477-3.3716846-.7791012-.7061641-1.9029961-.5702358-2.8710708-.6265963z" fill-rule="nonzero"/><path d="m86.6990422 40.0325393c3.8159382.0795678 7.6782908-.2619106 11.4511297.4641454 1.9693021.4011542 4.0844791 1.3460216 4.9530941 3.2854862 1.166994 2.7616651.072937 6.1797643-2.45997 7.7843812 1.969302 2.1516453 4.853634 3.2854862 7.737966 3.3816306 2.34725.0994597 4.677923-.2751719 6.968812-.7293713.125982 1.9494106.288433 3.8955059.394523 5.8482318-4.525417.8520383-9.425466 1.2465619-13.745334-.6696955-2.8578092-1.2299852-5.2481579-3.4048379-6.9323426-6.0073673-.5602898.0663064-1.1172642.1326129-1.677554.1922888.112721 2.0024558.1160364 4.0049115.1027751 6.0106827-2.2444745-.009946-4.488949.0165766-6.7334234-.0165767.3083251-6.5079813.2188114-13.0358546-.0596759-19.5438359zm6.7102161 4.1275786c0 1.8797888-.0033153 3.7562623.0033154 5.6327357.6763261-.112721 1.3758595-.1757121 2.0157171-.4508841 1.6145628-.6829567 2.0654469-2.9837917 1.1305255-4.3762278-.7791012-.8918223-2.0787082-.7791012-3.149558-.8056238z" fill-rule="nonzero"/><path d="m106.004175 40.0325393h9.037574v3.0666748c-1.379175 0-2.755035 0-4.13421 0-.003315.7625246-.013261 1.5250492-.076252 2.2842584.729371-.6929028 1.859897-.951498 2.791503-.5636051 1.011174.4243615 1.054273 2.1649067-.053045 2.5030697-.898453.4674607-1.790275-.1425589-2.632368-.4243615-.15582.6929028-.082883 1.4023822-.026522 2.1052309 1.578094-.0961444 3.159504-.1160364 4.737598-.1922888-.139244 1.1305255-.248649 2.270997-.301695 3.4114685-3.11972-.0165766-6.23944 0-9.35916-.0099459.208866-4.0579568.082883-8.1225442.016577-12.180501z"/><path d="m117.601179 40.0325393h6.80636c0 .583497.003316 1.1703094.009946 1.7571218-.023207 4.3596513.006631 8.7159872-.016576 13.0756385 2.526277.0066307 5.049238-.1491896 7.575515-.1723968-.195604 1.6278241-.354739 3.2622789-.477406 4.9033644-.739318-.0033153-1.47532-.0066307-2.211322-.0033153-3.925343 0-7.850687 0-11.772716-.0033154.275172-6.5179273.295064-13.0358546.086199-19.5570972z"/></g></g></svg>