<svg height="90" viewBox="0 0 180 90" width="180" xmlns="http://www.w3.org/2000/svg"><g fill="none" fill-rule="evenodd" transform="translate(0 30)"><path d="m99.9441718 22.9693252v-20.37975465h6.2337422c3.114111 0 5.609816.93865031 7.49816 2.81595092 1.888343 1.87730062 2.832515 4.33435583 2.832515 7.37116563 0 3.0533742-.944172 5.5159509-2.832515 7.3877301-1.888344 1.8717791-4.389571 2.804908-7.49816 2.804908zm2.6171782-17.87852765v15.37177915h3.616564c2.374233 0 4.240491-.6791411 5.609816-2.0374233 1.363804-1.3582822 2.048466-3.2411043 2.048466-5.6484663 0-2.3907975-.684662-4.26809814-2.048466-5.6374233-1.363804-1.36380368-3.235583-2.04846625-5.609816-2.04846625zm22.246012 18.33128835c-2.048466 0-3.738037-.701227-5.068712-2.103681s-1.993251-3.1803681-1.993251-5.3226994c0-2.1257668.646012-3.892638 1.938037-5.3061349 1.292024-1.41349698 2.942944-2.12024545 4.95276-2.12024545 2.070552 0 3.715951.66809816 4.936197 2.00429445 1.225767 1.3361964 1.833128 3.213497 1.833128 5.6208589l-.027607.2871166h-10.954601c.03865 1.3638037.491411 2.4680982 1.363804 3.3018405.872392.8337423 1.91595 1.2533742 3.130674 1.2533742 1.667485 0 2.981596-.8337423 3.925767-2.5067485l2.335583 1.1374234c-.623926 1.1760736-1.496319 2.0981595-2.606135 2.7607362-1.104294.6625766-2.36319.993865-3.765644.993865zm-4.185276-9.1104295h8.000613c-.0773-.9662576-.469325-1.7668711-1.181595-2.4073619-.71227-.6349693-1.667484-.9552147-2.860122-.9552147-.988344 0-1.833129.3036809-2.545399.9110429-.717792.6128834-1.187117 1.4300613-1.413497 2.4515337zm23.499386 4.7815951c0 1.214724-.530061 2.2417178-1.595705 3.0754602-1.065644.8337423-2.401841 1.2533742-4.014111 1.2533742-1.402454 0-2.639263-.3644172-3.699386-1.0932515-1.065644-.7288344-1.822086-1.6950921-2.274847-2.8877301l2.335583-.993865c.342331.8337423.839264 1.485276 1.496319 1.9490797s1.369325.6957055 2.147853.6957055c.833742 0 1.534969-.1822085 2.092638-.5411043.557669-.3588957.839264-.7895705.839264-1.2809815 0-.8944786-.684663-1.5460123-2.048467-1.9656442l-2.390797-.596319c-2.716564-.6846626-4.069325-1.9932516-4.069325-3.9257669 0-1.2699387.519018-2.2914111 1.551534-3.05889572 1.032515-.76748466 2.357668-1.15398773 3.969938-1.15398773 1.231289 0 2.346626.29263804 3.346012.88343559.993865.59079756 1.695092 1.37484666 2.092638 2.36319016l-2.335582.9662577c-.265031-.5852761-.695706-1.0490798-1.297546-1.3803681-.596319-.3312884-1.264418-.4969325-2.004295-.4969325-.684662 0-1.297546.1711656-1.833129.5134969-.541104.3423313-.811656.7564417-.811656 1.2533742 0 .7950921.75092 1.3638037 2.247239 1.706135l2.103681.5411043c2.766258.6736196 4.152147 2.0705522 4.152147 4.1742331zm5.195706-14.88588954c0 .51349694-.182209.94969325-.541104 1.30858896-.358896.35889571-.795092.54110429-1.308589.54110429s-.949694-.18220858-1.308589-.54110429c-.35323-.34282987-.549056-.81640966-.541105-1.30858896 0-.51349693.182209-.94969325.541105-1.30858895.34283-.35322992.816409-.54905617 1.308589-.5411043.513497 0 .949693.18220859 1.308589.5411043.364417.36441717.541104.80061349.541104 1.30858895zm-.541104 4.81472393v13.94723931h-2.617178v-13.94723931zm8.911656 20.55092021c-.778528 0-1.507362-.0993865-2.192024-.2981595-.659054-.1889766-1.287554-.4716158-1.866258-.8392638-.557669-.3588957-1.038037-.7895705-1.435583-1.2809816-.39783-.4928345-.706179-1.0515993-.911043-1.6509202l2.47362-1.0269939c.27162.79593.789983 1.4845022 1.479754 1.9656442.701227.491411 1.518405.7398773 2.446013.7398773 1.424539 0 2.534355-.4251534 3.329447-1.2809816s1.192638-2.0319018 1.192638-3.5282209v-1.3361963h-.11595c-.491411.7398773-1.165031 1.3251534-2.004295 1.7503068-.844785.4251533-1.76135.6404908-2.744172.6404908-1.822086 0-3.384662-.71227-4.698773-2.1368099-1.292024-1.4631901-1.938037-3.2245398-1.938037-5.295092 0-2.0705521.646013-3.8208589 1.938037-5.2674846 1.308589-1.44110434 2.876687-2.16441722 4.698773-2.16441722.988344 0 1.899387.21533742 2.744172.6404908.844785.42515337 1.512884 1.01042942 2.004295 1.75030672h.11595v-1.93803678h2.506749v13.35092028c0 2.2361963-.634969 3.9920245-1.904908 5.2674846-1.286503 1.2920246-2.992638 1.9380368-5.118405 1.9380368zm.082822-8.5417178c1.292025 0 2.341104-.4638036 3.158282-1.3969325.855829-.9276073 1.280982-2.1423313 1.280982-3.6441718 0-1.4631901-.425153-2.6668711-1.280982-3.6165644-.833742-.9496932-1.888343-1.4245398-3.158282-1.4245398-1.253374 0-2.307975.4748466-3.158282 1.4245398-.855828.9496933-1.280982 2.1533743-1.280982 3.6165644 0 1.4797547.425154 2.6834356 1.280982 3.6165645.855828.9496932 1.910429 1.4245398 3.158282 1.4245398zm9.601841-12.00920241h2.506748v1.93803681h.115951c.397546-.6846626 1.010429-1.25337423 1.83865-1.70613497.8227-.45276074 1.684049-.68466258 2.578528-.68466258 1.706135 0 3.020245.49141105 3.942331 1.46319015.922086.9773007 1.380368 2.3687117 1.380368 4.1687117v8.7680982h-2.617178v-8.5969326c-.055214-2.2748466-1.203681-3.4177914-3.445398-3.4177914-1.043559 0-1.915951.4251534-2.617178 1.2644172-.701227.8447853-1.054602 1.8552147-1.054602 3.0312883v7.7190185h-2.617177v-13.94723931z" fill="#757575" fill-rule="nonzero"/><path d="m.43619632 11.7496933c0-6.43251539 5.41104294-11.67239269 11.84355828-11.67239269 3.5558282 0 6.0901841 1.39693252 8.0006135 3.21901841l-2.2472393 2.24723926c-1.3638036-1.28098159-3.2190184-2.27484662-5.7478527-2.27484662-4.69877303 0-8.37055217 3.78773006-8.37055217 8.48098164 0 4.698773 3.67177914 8.4809815 8.37055217 8.4809815 3.0478527 0 4.7815951-1.2257668 5.891411-2.3355828.911043-.9110429 1.507362-2.2196319 1.7337423-4.0141104h-7.6306748v-3.1858896h10.7337423c.115951.5687117.1711657 1.2533743.1711657 1.9932516 0 2.3907975-.6570552 5.3503067-2.7607362 7.4595092-2.0484663 2.1368098-4.6656442 3.2742331-8.1386503 3.2742331-6.43803684 0-11.84907978-5.2398773-11.84907978-11.6723926z" fill="#4285f4"/><g fill-rule="nonzero"><path d="m31.8533742 8.39263804c-4.1576687 0-7.5423313 3.15828216-7.5423313 7.51472396 0 4.3288343 3.3846626 7.5147239 7.5423313 7.5147239s7.5423313-3.1858896 7.5423313-7.5147239c0-4.3564418-3.390184-7.51472396-7.5423313-7.51472396zm0 12.06993866c-2.2748466 0-4.2404908-1.8773006-4.2404908-4.5552147 0-2.7055215 1.9656442-4.5552148 4.2404908-4.5552148 2.2748467 0 4.2404908 1.8496933 4.2404908 4.5552148 0 2.6779141-1.9656441 4.5552147-4.2404908 4.5552147z" fill="#ea4335"/><path d="m48.307362 8.39263804c-4.1576687 0-7.5423313 3.15828216-7.5423313 7.51472396 0 4.3288343 3.3846626 7.5147239 7.5423313 7.5147239s7.5423313-3.1858896 7.5423313-7.5147239c0-4.3564418-3.3846626-7.51472396-7.5423313-7.51472396zm0 12.06993866c-2.2748467 0-4.2404908-1.8773006-4.2404908-4.5552147 0-2.7055215 1.9656441-4.5552148 4.2404908-4.5552148 2.2748466 0 4.2404908 1.8496933 4.2404908 4.5552148 0 2.6779141-1.9656442 4.5552147-4.2404908 4.5552147z" fill="#fbbc05"/><path d="m68.504908 8.85092025v1.22576685h-.1159509c-.7398773-.88343557-2.1644172-1.67852759-3.9588958-1.67852759-3.7546012 0-7.2 3.30184049-7.2 7.54233129 0 4.2128834 3.4453988 7.4871166 7.2 7.4871166 1.7944786 0 3.2190185-.7950921 3.9588958-1.706135h.1159509v1.0822086c0 2.8766871-1.5349693 4.4116564-4.0141105 4.4116564-2.0208588 0-3.2742331-1.4521472-3.78773-2.6779141l-2.8766871 1.1981595c.8226994 1.9932516 3.0147239 4.4392638 6.6588957 4.4392638 3.8705521 0 7.1447852-2.2748466 7.1447852-7.8294478v-13.49447855zm-3.7877301 11.61165645c-2.2748466 0-4.1852761-1.904908-4.1852761-4.5276074 0-2.6447853 1.904908-4.5828221 4.1852761-4.5828221 2.2472393 0 4.0141104 1.9380368 4.0141104 4.5828221 0 2.6226994-1.7613496 4.5276074-4.0141104 4.5276074z" fill="#4285f4"/></g><path d="m73.9159509.87791411h3.3018405v22.08588959h-3.3018405z" fill="#34a853"/><path d="m86.2674847 20.4625767c-1.6785276 0-2.8766872-.7674847-3.6441718-2.2748466l10.0490797-4.1576688-.3423313-.8558282c-.6239263-1.6785276-2.5343558-4.78159506-6.4325153-4.78159506-3.8705521 0-7.0895705 3.04785276-7.0895705 7.51472396 0 4.2128834 3.1858895 7.5147239 7.4595092 7.5147239 3.4453987 0 5.4386503-2.103681 6.2613497-3.3294479l-2.5619632-1.7061349c-.8558283 1.2478527-2.0208589 2.0760736-3.6993865 2.0760736zm-.2539878-9.1656442c1.308589 0 2.4184049.6570552 2.7883436 1.5957055l-6.7196319 2.7883436c-.0828221-2.9042945 2.2472393-4.3840491 3.9312883-4.3840491z" fill="#ea4335" fill-rule="nonzero"/><path d="m.27607362.0607362h92.50674848v30.2411043h-92.50674848z"/></g></svg>