<svg height="90" viewBox="0 0 180 90" width="180" xmlns="http://www.w3.org/2000/svg"><g fill="#333" fill-rule="nonzero"><path d="m17.3974576 16.3957627c1.4491526-1.7237288 3.8440678-.640678 5.6135593-.1372881 9.6711865 3.3559322 19.4491526 6.3991525 29.0135594 10.0525423-6.4754238-2.188983-13.3550848-1.3881355-20.0516949-1.5254237-3.8135594.061017-7.6347458-.129661-11.4483051.0762712-3.0966102.1220339-5.590678 3.0737288-5.4 6.1398305-.0152543 13.0805085-.0762712 26.1762712.0457627 39.2644068-4.9194915-8.2220339-10.45677968-16.0779661-15.170339-24.4144068v-.9915254c3.42457627-6.811017 7.8940678-13.0423729 11.7533898-19.609322 1.9220339-2.9288136 3.5084746-6.0788136 5.6440678-8.8550848z"/><path d="m28.8762712 26.7457627c8.3745763.4881356 17.4432203-1.5177966 25.1542373 2.7228814 10.2661017 5.3008474 15.0559322 18.5415254 11.2957627 29.3262712-2.4864407 7.4440678-8.9084746 13.4923728-16.6118644 15.1932203-7.2305085 1.5711864-14.6745763.8161017-22.0042373.8466102-2.7-.1449153-5.7661017.2822034-8.0694915-1.4567797-1.540678-1.1516949-1.5711865-3.2186441-1.5864407-4.9576271-.0228814-6.2389831-.0305085-12.4779661-.0457627-18.7169492 6.2771186-.0152542 12.5542373.0305085 18.8313559-.0152542 1.4491526-.0228814 3.1957627-.2745763 3.9889831-1.6550848.9838983-1.3576271-.0457628-2.9898305-.7169492-4.2330508-3.409322-5.6898305-6.8338983-11.3644068-10.2355932-17.0542373z"/><path d="m140.316102 29.5754237c3.294915.0838983 6.605084-.1754237 9.884745.1372882 4.31695 1.0677966-.831355 8.4279661 4.294068 8.2677966-.007627.4194915-.030508 1.2661017-.038135 1.6855932-1.45678-.2135593-3.394068-.1983051-4.042373-1.8381356-.45-2.0974576-.007627-4.2711864-.404238-6.3762712-3.226271-.2364407-6.460169-.0457627-9.694067-.0991525 0-.4423729 0-1.3271187 0-1.7771187z"/><path d="m171.495763 29.590678c.350847-.0076272 1.060169-.0228814 1.411017-.0305085.007627 2.8449152.007627 5.6898305.007627 8.5347458h7.085593v1.418644c-2.364407 0-4.721186 0-7.085593 0 0 4.7364407.007627 9.4652543-.007627 14.2016949-.350848-.0076271-1.06017-.0152542-1.411017-.0152542 0-4.7288136 0-9.4576271 0-14.1864407-2.35678 0-4.721187 0-7.077966 0l-.007628-1.418644h7.085594c0-2.8372882 0-5.6669492 0-8.5042373z"/><path d="m122.049153 30.8949153c.617796-.1220339 1.235593-.2364407 1.853389-.3584746.343221 1.8.686441 3.6076271 1.037289 5.4076271-.465255.0915254-1.388136.2669491-1.85339.3508475-.343221-1.8-.694068-3.6-1.037288-5.4z"/><path d="m132.925424 30.8872881c.434745-.1677966 1.311864-.5110169 1.74661-.6788135.678813 1.5254237 1.372881 3.0432203 2.059322 4.568644-.427119.1983051-1.281356.5872882-1.716102.7855933-.701695-1.5559322-1.40339-3.1118644-2.08983-4.6754238z"/><path d="m158.239831 30.9940678c.427118-.2059322 1.266101-.6330509 1.685593-.8389831.694068 1.35 1.388135 2.7076272 2.08983 4.0576272-.411864.2211864-1.24322.6635593-1.655085.8847457-.709322-1.3652542-1.418644-2.7305084-2.120338-4.1033898z"/><path d="m83.6084746 31.0016949h1.4415254c-.0152542.8847458-.0305085 1.7694915-.0457627 2.6542373 1.670339.190678 3.8669491.5949153 4.1567796 2.6161017.2288136 3.1042373.2288136 6.2466102 0 9.3584746-.3279661 1.9830508-2.4864406 2.3872881-4.1491525 2.570339.0228814 1.6703389.0305085 3.3330508.0305085 5.0033898 1.159322-.0533898 2.3110169-.1067797 3.470339-.1830509.0838983-.5491525.2440678-1.6474576.3203389-2.2042372.5186441.0381355 1.5635594.1067796 2.0822034.1449152-.2898305 1.4491525-.3966101 3.3864407-2.0822034 3.920339-3.1118644.5262712-6.3076271.1144068-9.45.2440678-.0076271-.4881356-.0228813-1.4720339-.0305084-1.9601695 1.418644 0 2.8449152-.0076271 4.2635593-.0076271 0-1.6474577.0076271-3.3025424.0381356-4.95-1.6779661-.1830509-3.8059322-.5949153-4.1567797-2.570339-.2211864-3.1271187-.2211864-6.2847458 0-9.4118644.3508475-1.9830509 2.4864407-2.379661 4.1644068-2.570339-.0228813-.8847458-.0381356-1.7694915-.0533898-2.6542373zm-2.3567797 5.6135593c-.190678 2.8525424-.1830508 5.7355933-.0076271 8.5881356.0762712 1.090678 1.5940678.8694916 2.3262712 1.2584746.0762712-3.6915254.0838983-7.3754237 0-11.059322-.7169492.4118644-2.2194915.1677966-2.3186441 1.2127118zm3.8288136-1.1974576c-.0686441 3.6762712-.0686441 7.3525424 0 11.0288136.7627118-.3127119 1.8610169-.1983051 2.3338983-1.0067797.1754237-2.9974576.1754237-6.0177966-.0076271-9.0076271-.4728814-.8084746-1.5635594-.7016949-2.3262712-1.0144068z"/><path d="m90.709322 31.0016949c3.340678.2288136 6.8644068-.5186441 10.090678.4423729 2.463559 2.3872881.747458 6.4220339 1.24322 9.4881356-.480508 0-1.441525 0-1.922034-.0076271-.2669487-2.6237288.602543-5.6440678-.4576267-8.031356-2.9745762-.2364406-5.9720339-.0305084-8.9542373-.0915254 0-.45 0-1.35 0-1.8z"/><path d="m110.539831 31.0016949h1.433898c-.007627.6635593-.015254 1.990678-.015254 2.6618644 1.677966.2059322 3.920339.6177966 4.149152 2.6847458.198305 3.0508474.198305 6.1322034 0 9.190678-.244068 2.0669491-2.471186 2.448305-4.149152 2.6618644.007627 1.6779661.015254 3.348305.015254 5.0262711 1.098305-.0305084 2.19661-.0991525 3.287288-.2135593.228814-.709322.434746-1.4262712.625424-2.1508474.442373 0 1.327118 0 1.769491.0076271 0 .3355932-.007627 1.0144068-.007627 1.35 1.632203-2.6161017 3.378814-5.1483051 4.988136-7.7720339-1.685594-3.2567797-3.409322-6.5059322-5.00339-9.8084746.427118-.1983051 1.273729-.5872881 1.69322-.7855932 1.441526 2.9288135 2.936441 5.8271186 4.454237 8.7177966 1.685594-2.8144068 3.157628-5.7508475 4.843221-8.5652542.457627.129661 1.365254.3966101 1.815254.5262711-1.716102 3.4245763-3.683898 6.7118645-5.567797 10.0449153 1.677967 3.2415254 3.699153 6.3 5.392373 9.5262712-.34322.2822034-1.037288.838983-1.388135 1.1135593-1.8-2.9059322-3.523729-5.85-5.148305-8.8550847-1.8 2.8754237-3.691526 5.6974576-5.697458 8.4432203-3.905085.2440678-7.810169.4271186-11.730508.3127119 0-.4881356-.007628-1.4644068-.007628-1.9525424 1.418644 0 2.837289-.0076271 4.255933-.0076271 0-1.6550848 0-3.3101695.038135-4.9652543-1.738983-.1525423-4.004237-.6559322-4.187288-2.7610169-.129661-3.1576271-.28983-6.361017.10678-9.4957627.488135-1.8305085 2.516949-2.0364407 4.088135-2.2652543-.022881-.8923728-.045762-1.7771186-.053389-2.6694915zm-2.417797 6.0330509c-.091526 2.5855932-.083898 5.1864406-.007627 7.7720339-.236441 1.3881356 1.525424 1.3118644 2.372034 1.6550847.099152-3.6915254.106779-7.3830508-.007627-11.0669491-.823729.3737288-2.577967.2669491-2.35678 1.6398305zm3.866949-1.6322034c-.030508 3.6915254-.038136 7.3830508.007627 11.0822034.831356-.190678 1.616949-.4728814 2.372034-.8618644.183051-2.8525424.129661-5.720339.05339-8.5805085.244068-1.4186441-1.609322-1.2508475-2.433051-1.6398305z"/><path d="m141.132203 32.420339h2.028814c-.068644 1.7923729.190678 3.6305085-.282203 5.3847457-.709322 1.5254238-2.509322 1.5788136-3.935594 1.8686441-.015254-.45-.045762-1.3423729-.061017-1.7923729.755085-.1601695 1.502543-.3508474 2.242373-.579661.015255-1.6245763.007627-3.2567796.007627-4.8813559z"/><path d="m90.770339 41.7635593c.0457627-2.6466101.3584746-5.2779661.5262712-7.9245762.45.0381355 1.3423729.1067796 1.7923729.1449152-.190678 2.7991525-.4652543 5.6059322-.5262712 8.4127119 2.6084745.1601695 5.2855932-.2669492 7.8483051.3127118 2.173729 1.1288136 1.540678 3.8898305 1.655085 5.8805085-.16017 2.0516949.579661 4.7745763-1.433899 6.1474576-2.2652538.7398305-4.7288132.2593221-7.0703386.381356 0-.4881356 0-1.4491526-.0076271-1.9372882 2.1737288.0152543 4.3398305.0152543 6.5059317-.129661.244068-2.8525424.198306-5.7127118.038136-8.5652542-2.4864406-.2211865-4.9881355.0228813-7.4669491-.2288136-1.1745762-.1372881-1.9906779-1.35-1.8610169-2.4940678z"/><path d="m131.827119 37.9576271c1.311864.2059322 3.111864.1220339 3.6 1.6855932.526271 4.3932204-.091526 8.8474577.305084 13.2559322.45.1372882 1.342373.4118644 1.784746.5491526-.022881.4652542-.068644 1.3957627-.091525 1.8610169-1.304238-.259322-3.104238-.3432203-3.477966-1.9372881-.465255-4.3627119.068644-8.7711864-.251695-13.1415254-.472882-.0915254-1.418644-.2822034-1.891526-.3737288.007627-.6330509.015255-1.2661017.022882-1.8991526z"/><path d="m157.454237 37.8966102c1.40339.2440678 3.500848.3661017 3.592373 2.25.228814 4.2635593 0 8.55.114407 12.8211864.488136.1067797 1.479661.3279661 1.967797.4347458-.083899.4881356-.259322 1.4644068-.343221 1.9525423-1.319491-.3432203-3.233898-.5567796-3.394068-2.2728813-.282203-4.309322 0-8.6415254-.129661-12.9584746-.511017-.0457627-1.517796-.1372881-2.028813-.1830508.061017-.511017.167796-1.5330509.221186-2.0440678z"/><path d="m139.187288 42.3508475c4.5.068644 9-.1220339 13.492373.0762711 1.411017.0152543 2.35678 1.8915255 1.441525 3.0127119-1.647457 2.379661-4.118644 3.9889831-6.406779 5.6974576 1.754237.7932204 3.538983 1.5177966 5.354237 2.1508475-.099152.4652542-.305085 1.4033898-.411864 1.8686441-2.349153-.7093221-4.591526-1.7237289-6.75-2.9059322-2.066949 1.1135593-4.202543 2.0822033-6.40678 2.898305-.152542-.4652542-.457627-1.4033898-.610169-1.868644 1.761864-.6940678 3.500847-1.4338983 5.216949-2.2347458-1.822882-1.3881356-3.569492-2.8677966-5.224577-4.4466102.312712-.3508474.930509-1.0372881 1.243221-1.3881356 1.815254 1.7008475 3.737288 3.2872882 5.766101 4.7288136 2.471187-1.5711864 4.759322-3.4322034 6.772882-5.5677966-4.492373-.0762712-8.984746-.0152542-13.469492-.0381356 0-.4957627-.007627-1.4872881-.007627-1.9830508z"/><path d="m90.709322 48.0254237h8.4966102c0 .3584746.0076271 1.0677966.0076271 1.4186441-2.8372881 0-5.6669491 0-8.5042373 0 0-.3508475 0-1.0601695 0-1.4186441z"/><path d="m79.1161017 65.9338983c1.0449152-1.7466102 2.0135593-3.5542373 3.3101695-5.1330508 2.440678.3203389 3.0432203 3.5847457 4.2559322 5.4228813-2.5016949.2669492-5.1635593.6559322-7.5661017-.2898305zm.9838983-.1830508c1.8762712.0076271 3.7525424.0152542 5.6364407.0076271-.9305085-1.4949153-1.8533899-2.9898305-2.7991526-4.4694915-.9610169 1.479661-1.9067796 2.9669491-2.8372881 4.4618644z"/><path d="m91.1059322 60.4347458c1.8381356 1.8838983 3.0508475 4.248305 4.4923729 6.4144067.0076271-2.0211864.0076271-4.0347457.0152542-6.048305l.7550848-.0533899c.0152542 2.4559322.0838983 4.9271187-.1677966 7.3754238-2.2576272-1.4796611-3.1576272-4.1796611-4.690678-6.2771187-.0686441 2.2271187.0381356 4.4542373-.1754237 6.6737288-1.1898305-2.509322-.5872882-5.4457627-.2288136-8.0847457z"/><path d="m102.04322 62.2194915c0-.4728813.007627-.9457627.007627-1.418644 1.861017-.0076272 3.729661-.0228814 5.598306-.0076272.053389.2898305.160169.8771187.221186 1.1669492-.404237.129661-1.205085.3813559-1.609322.5033898.022881 1.3347458.038136 2.6694915.05339 4.0042373l-1.426271.0076271c0-1.418644-.015255-2.8372881-.007628-4.2559322-.709322 0-2.127966 0-2.837288 0z"/><path d="m119.242373 61.0449153c1.761864-.4271187 3.744915-.4881356 5.422881.259322 1.601695.7398305 1.944915 3.0661017.617797 4.2254237-1.716102 1.4491526-4.141526.9-6.185593.7398305-.022882-1.7466101-.190678-3.5084746.144915-5.2245762zm.686441.3584745c-.007628 1.4644068-.015255 2.9288136.007627 4.4008475 1.822881-.1372881 4.919491.5262712 5.361864-1.9983051-.045763-2.8220339-3.49322-2.25-5.369491-2.4025424z"/><path d="m131.918644 60.9457627c1.609322-.129661 3.233898-.2745763 4.84322-.0228813-1.334745.6330508-2.814406.6177966-4.255932.6788135 0 .511017-.007627 1.5254237-.007627 2.0364407h3.561864l-.007627 1.4567797c-1.029661-.0381356-2.051695-.0762712-3.066101-.1220339.015254.5644067.05339 1.6932203.068644 2.2576271-1.868644-1.6627119-1.258475-4.1186441-1.136441-6.2847458z"/><path d="m141.666102 62.3644068c.79322-2.3262712 4.255932-1.8838983 6.025423-1.0525424-1.723728.6025424-4.95-.8618644-5.300847 1.7313559 1.380508.2440678 2.837288.0838983 4.172034.5567797 1.098305.3661017 1.022034 2.2118644-.045763 2.570339-1.487288.5262712-3.119491.2364407-4.660169.320339.007627-.1830509.030508-.5338983.038135-.7169492 1.548305-.0228813 3.119492.0381356 4.644916-.2898305.327966-2.890678-4.637289-.1983051-4.873729-3.1194915z"/><path d="m161.755932 64.5381356c-1.113559-3.3101695 3.943221-4.9805085 5.895763-2.6389831-1.845763-.3813559-4.850848-.7855932-5.049153 1.8991526.61017 2.6084746 4.072882 2.3491525 5.468644.5491525-1.197457-.2745762-2.387288-.5110169-3.54661-.8771186 1.472034-.2059322 2.974577-.190678 4.461865-.1067797-.602543 3.3711865-5.735594 4.3169492-7.230509 1.1745763z"/><path d="m173.349153 60.7398305c2.051694 1.5177966 2.951694 4.0881356 4.461864 6.0711864.007627-2.0135593.007627-4.0271186.022881-6.0406779l.739831.0152542c-.183051 2.440678.579661 5.1254237-.655932 7.3677966-1.56356-1.9754237-2.844916-4.1567796-4.233051-6.2542373-.015254 2.0059322-.007627 4.0118644-.007627 6.0101695-.190678 0-.572034-.0152542-.755085-.0152542.129661-2.379661-.427119-4.8813559.427119-7.1542373z"/></g></svg>