<svg height="90" viewBox="0 0 180 90" width="180" xmlns="http://www.w3.org/2000/svg"><g fill="none" fill-rule="evenodd"><path d="m80.4827586.66206897c1.2275862.00689655 2.462069.00689655 3.6896552.00689655v.36551724c-.0206897 7.75862069.0137931 15.52413794-.0206897 23.28965514-1.2068965-.0068965-2.4137931-.0137931-3.6206896-.0206896-.0413793-7.8827586.0482758-15.76551727-.0482759-23.64137933zm-77.8689655 4.34482758c1.1724138-.36551724 2.33793104-.73103448 3.50344828-1.11034483.07586207 1.34482759.11034483 2.68965518.15862069 4.03448276 1.24137931 0 2.47586207 0 3.71724138.00689655 0 .73103449.01379315 2.19999997.01379315 2.93103447-1.24827591 0-2.49655177 0-3.74482763 0 .09655172 3.2275862-.33793104 6.5034483.22068965 9.6965517.29655172 1.4068966 2.16551724 1.0068966 3.20689655 1.1172414.06896552.9103448.13793104 1.8137931.20689655 2.724138-2.46896551.4620689-6.24827586.6137931-6.98620689-2.4896552-.66896552-3.6344828-.16551724-7.3655173-.34482759-11.0344828-.59310345-.0206896-1.77931034-.0551724-2.37931034-.075862-.37931035-1.60000005.8275862-3.02758626 2.37241379-3.12413798.02068965-.88965517.03448276-1.7862069.05517241-2.67586207zm104.8206899.06206897c1.206896-.4 2.413793-.80689655 3.620689-1.2v.6275862c-.006896 1.14482759.006897 2.28965518.013794 3.42758621 1.241379 0 2.489655.00689655 3.737931.00689655.013793.69655173.048275 2.08275862.068965 2.77241382-1.193103-.0137931-2.37931-.0068966-3.572414.0068965h-.255172c.137931 3.5862069-.475862 7.2689655.517241 10.7655173 1.027586.1172413 2.055173.1517241 3.089655.1931034v2.8c-2.310344.2827586-5.517241.5793104-6.662069-1.9931034-1.082758-3.7517242-.372413-7.7379311-.593103-11.5862069-.586207-.0275862-1.758621-.0758621-2.344828-.0965518-.503448-1.65517237.848276-2.95862064 2.331035-3.12413788.013793-.86896552.034483-1.73103449.048276-2.6zm-88.8068968 2.87586207c2.3103448-.70344828 4.8275862-.43448276 6.8551724.89655172 1.9103448 2.28965519 2.4413793 5.32413789 2.2758621 8.22758619-3.4551724.0275862-6.9103448-.0206896-10.3586207.0344828.4206897 2.2620689 1.7172414 4.337931 4.1862069 4.6896551 1.6137931-.0965517 3.1931034-.4482758 4.7586207-.8068965.2482758.9103448.4965517 1.8206897.7448276 2.7241379-3.4344828 1.1931035-7.7172414 1.6896552-10.6965518-.8206896-2.5931034-2.3655173-2.7931034-6.2413793-2.1724137-9.4758621.5862069-2.3517241 2.1862069-4.44827586 4.4068965-5.46896551zm-1.1931034 6.30344831c2.3310344.0689655 4.6620689.0827586 6.9931034.0413793-.3586207-1.662069-1.0206896-3.8137931-3.062069-3.9379311-2.3103448-.2896551-3.2965517 2.1517242-3.9310344 3.8965518zm15.1310344-6.36551728c.2482759.00689655.7586207.0137931 1.0068966.0137931.5655172.02068966 1.6965517.04827587 2.262069.06896552.0068965.4.0137931 1.20689655.0206896 1.6137931 2.462069-2.46206896 6.9034483-2.84137931 9.0137931.28275863 1.4413793-1.42068966 3.3241379-2.54482759 5.4344828-2.25517242 2.4827586.13793104 4.3103448 2.46206895 4.4620689 4.84137935.2068966 3.9517241.0206897 7.9172413.0689656 11.875862-1.2068966-.0068965-2.4137931-.0137931-3.6275862-.0206896-.0482759-3.5172414.0827586-7.0344828-.0344828-10.5448276-.0068966-1.3931035-.7931035-2.937931-2.262069-3.2344828-1.8-.1172413-3.2068965 1.5172414-3.2620689 3.2344828-.2551725 3.5172414-.0275862 7.0482759-.1172414 10.5655172-1.2068966-.0068965-2.4137931-.0137931-3.6206897-.0206896-.0551724-3.5310345.0689655-7.062069-.0413793-10.5862069.0344828-1.2965517-.5724138-2.6275862-1.8413793-3.1310345-1.9862069-.3793103-3.6068965 1.4551724-3.6896552 3.3172414-.275862 3.4620689-.0413793 6.9517241-.1241379 10.4275862-1.2068965-.0137931-2.4137931-.0206897-3.6275862-.0344828-.0137931-5.3793103.0275862-10.7586207-.0206897-16.13793101zm32.3931035 1.02068966c2.4413793-1.86896552 6.2896552-1.80689656 8.3862069.56551724 2.1034483 2.48275858 2.3310345 6.01379308 1.8344827 9.10344828-.4275862 2.6068965-2.1448275 5.2344828-4.8620689 5.8551724-2.1172414.7103448-4.324138-.0827586-6.0206897-1.3793103.0689655 2.5517241.0344828 5.1034482.0206897 7.6551724-1.2068966-.0068966-2.4137931-.0137931-3.6275862-.0137931-.0275862-7.6068966.0551724-15.2137931-.0344828-22.82068968 1.262069-.14482759 3.6068966.12413793 3.3517242 1.91724138.2344827-.22068966.7103448-.66206897.9517241-.88275862zm-.4275862 10.09655172c.4827586 2.4068966 3.3310345 3.2689655 5.3931034 2.2758621l-.5103448-.2482759c.7517241-.1586207 1.2965517-.6482759 1.6275862-1.4689655 1.4482759-3.0758621.9310345-8.8275862-3.3448276-9.0344828-3.8482758.7448276-3.7034483 5.4758621-3.1655172 8.4758621zm27.4965517-11.00689655c3.1448276-.92413793 7.6551724-.52413793 8.8344828 3.10344825 1.082759 4.3103449.262069 8.8206897.627586 13.2137931-1.075862.0137931-2.1448274.0275862-3.2137929.0413793-.0896552-.3034482-.2758621-.9103448-.3655173-1.2137931-2.2 1.4758621-5.4275862 2.3586207-7.6206896.3793104-1.724138-1.3862069-1.5724138-3.7310345-1.4413793-5.7103448.875862-1.8137932 2.5034482-3.2137932 4.4827586-3.6551725 1.5034483-.3310344 3.0344827-.5241379 4.5517241-.7586207-.5586207-3.93793099-4.875862-3.2413793-7.4827586-1.9448275-.2-.8551725-.4068966-1.71724142-.6275862-2.57241383.7448276-.31034483 1.4827586-.64137931 2.2551724-.88275862zm.4 11.28965515c-.3586207 1.7103448 1.5310345 3.1793104 3.0896552 2.4137931 2.4-.7103448 2.3103448-3.5862069 2.2206896-5.6-1.9862069.2275862-5.3310344.4896552-5.3103448 3.1862069zm30.9793108-11.32413791c2.296551-.65517241 4.813793-.51034483 6.862069.7862069 2 2.29655171 2.524137 5.37241381 2.37931 8.32413791-3.475862.0206897-6.944828-.0206896-10.42069.0413793.434483 2.1310345 1.668966 4.1517242 3.944828 4.6344828 1.772414-.0068966 3.503448-.3931035 5.220689-.8068966.027587.2206897.082759.6551724.110345.8689656.006897.5172413.027586 1.5448275.04138 2.0551724-3.710345 1.3034482-8.317242 1.2620689-11.172414-1.8-1.572414-2.4827587-1.834483-5.4827587-1.42069-8.3310345.655173-2.4206897 2.144828-4.66896553 4.455173-5.77241381zm-1.02069 6.28965521c2.289655.0689655 4.57931.0827586 6.875862.0344827-.303448-1.675862-1.013793-3.8896552-3.068966-3.9310345-2.275862-.1724138-3.289655 2.0758621-3.806896 3.8965518z" fill="#333" transform="translate(0 30)"/><path d="m.08275862 1h1.02758621c.58620689.00689655 1.74482758.02758621 2.33103448.03448276-.00689655.44137931-.0137931 1.31724138-.02068965 1.75862069 2.44827586-2.60689655 6.80689654-2.86896552 9.12413794.06206896 1.4896552-1.28275862 3.2965517-2.46896551 5.3724138-2.14482758 2.4689655.15172414 4.3241379 2.4137931 4.5172414 4.78620689.3793103 3.9724138.0827586 7.96551728.1586206 11.94482758-1.2068965-.0137931-2.4137931-.0275862-3.6137931-.0413793-.0620689-3.2689655.0896552-6.5448276-.0620689-9.80689655-.0965517-1.43448276-.4482759-3.31034483-2.0068966-3.82758621-1.8482758-.59310345-3.5862069 1.37241379-3.5586207 3.12413793-.137931 3.51724143.0206897 7.03448273-.0551724 10.54482763-1.2137931-.0068966-2.4275862-.0137931-3.64137929-.0275862-.19310344-3.9724138.43448279-8.02758626-.35862069-11.94482763-.8137931-2.88965518-4.97931034-1.81379311-5.17241379.86206896-.35862069 3.68965517-.03448276 7.41379307-.15172414 11.11724137-1.20689655-.0137931-2.4137931-.0275862-3.6137931-.0413793-.11724138-5.3931034.22758621-10.8-.26206897-16.17241379zm27.39310348 5.62758621c.6689655-2.51034483 2.3517241-4.74482759 4.8206896-5.70344828 2.8344828-.53793103 6.2413793-.35172414 8.1448276 2.13793104 2.6551724 3.47586206 2.5862069 9.00689653-.1517241 12.42068963-2.8551724 3.2-8.6896552 3.1448276-11.2827586-.3793103-1.8896552-2.3793104-1.7655173-5.61379313-1.5310345-8.47586209zm5.1586207-2.26896552c-2.1862069 2.05517241-1.8344828 5.43448276-1.1379311 8.07586211.8896552 2 3.5448276 3.3448275 5.3724138 1.6551724 2.4482759-2.4689655 2.3448276-6.85517244.2965517-9.55172417-.4482758-.38620689-.8965517-.77241379-1.3448275-1.16551724-1.1103449.10344828-2.3793104.06896552-3.1862069.9862069z" fill="#cf0" transform="translate(137.241379 36.896552)"/></g></svg>