<svg height="90" viewBox="0 0 180 90" width="180" xmlns="http://www.w3.org/2000/svg"><path d="m0 0h28.6363636v9.6h9.5454546c-.0818182 6.4090909.1636363 12.8181818-.0818182 19.2136364-.0409091 4.8409091-4.4590909 9.2454545-9.3 9.2863636-6.4772727.1772727-12.9681818.1772727-19.44545455 0-4.65.0136364-8.22272727-3.9272727-9.35454545-8.1545455zm5.45454545 5.45454545c.12272728 7.77272725-.23181818 15.57272725.15 23.33181815 1.62272728 5.8909091 9.00000005 3.4636364 13.45909095 3.9545455 4.2545454-.5863636 10.5272727 1.8 13.1045454-2.8227273 1.2272727-4.7863636.2727273-9.8863636.5454546-14.7954545-2.2636364 0-4.5272728 0-6.8045455 0v10.7863636c-4.5409091 0-9.0954545 0-13.6363636 0 0-4.5409091 0-9.0954545 0-13.6363636h10.9090909c0-2.27727275 0-4.54090912 0-6.81818185-5.9045455 0-11.8227273 0-17.72727275 0zm12.50454545 12.50454545c2.2227273-.7090909 2.9727273.0409091 2.2636364 2.2636364-2.2227273.7090909-2.9727273-.0409091-2.2636364-2.2636364zm13.2409091-17.9590909h6.9818182v6.98181818c-2.3318182-2.31818182-4.6636364-4.65-6.9818182-6.98181818zm15.75 3.61363636h4.6227273c.1090909 7.90909094-.2181818 15.81818184.1363636 23.71363634.1636364 3.1636364 3.8863636 2.1 5.7409091 1.5409091.7772727-8.4.2318182-16.8409091.3954545-25.25454544h4.309091c-.1363637 8.26363634.3 16.55454544-.2045455 24.79090914-1.2681818 5.6727272-9.2590909 6.7227272-13.0909091 3.0272727-1.6772727-1.8272727-2.0045454-4.4181818-1.9363636-6.8045455 0-7.0090909.0136363-14.0045454.0272727-21.01363634zm25.6772727 4.63636364c1.1727273-5.55 8.5090909-6.77727273 12.6681818-3.85909091 2.6181819 2.12727273 2.3863637 5.75454541 2.5772728 8.78181821-1.1454546.3-3.4227273.8863636-4.5681818 1.1863636-.0136364-2.6727273-.2863637-5.33181817-1.3363637-7.81363635-2.1545454-.23181819-5.0454545.57272727-4.9363636 3.24545454-.2181818 5.87727271-.6136364 11.87727271.3 17.70000001.1909091 2.6590909 3.1363636 1.7727273 4.95 2.0454545.8727273-2.5772727.9818182-5.3045454.9954545-7.9909091 1.5136364.3409091 3.0409091.6954546 4.5818182 1.0363637-.1772727 3.3818182.1363636 8.1954545-3.5181818 9.9-4.3363636 2.7-11.25.3-11.7545455-5.1136364-.5181818-6.3409091-.5590909-12.7772727.0409091-19.1181818zm20.6454546-4.8c3.9954545-1.45909091 9.2590907-.3 10.9363637 3.99545455.995454 3.79090905.409091 7.77272725.559091 11.65909095-.204546 3.8590909.790909 8.1954545-1.595455 11.5772727-3.6818179 4.9636363-13.2272725 3.4090909-14.2090906-3.0409091-.6681819-5.5636364-.3-11.2090909-.2454546-16.8136364-.0409091-3.08181815 1.4863637-6.28636361 4.5545455-7.3772727zm1.1863636 3.76363636c-2.2772727 4.52727274-.8863636 9.85909094-1.2818182 14.71363634.2181818 2.6727273-.4772727 6.5590909 2.5090909 7.9090909 2.3318182.6545455 4.8409094-1.5136363 4.4045454-3.9545454.027273-5.4681818.177273-10.9363637-.0954545-16.39090911-.2454545-2.59090909-3.5045454-3.83181818-5.5363636-2.27727273zm16.4727271-3.73636363c4.65-2.00454546 11.277273.6 11.440909 6.13636363.027273 6.21818184.586364 12.54545454-.313636 18.69545454-1.731818 6.9545455-13.227273 7.05-15.15.1909091-1.063636-5.3454545-.409091-10.8681818-.531818-16.2818182-.163637-3.44999998.954545-7.47272725 4.554545-8.74090907zm1.268182 3.73636363c-2.454545 5.64545454-.913636 12.19090914-1.159091 18.20454544-.586364 3.6 3.831818 6.2318182 6.218182 3.0545455 1.295454-5.7409091.313636-11.8363637.559091-17.7272728.531818-3.02727268-3.081818-5.50909086-5.618182-3.53181814zm56.140909-3.6c3.340909-1.33636363 8.059091-1.03636363 10.036364 2.4.736363 2.01818182.709091 4.20000004.9 6.30000004-1.445455.3136363-2.890909.6136363-4.35.9136363-.259091-2.4681818.245454-6.09545452-2.904546-6.85909088-2.809091-.09545455-3.259091 3.53181818-2.740909 5.56363638 1.663637 4.1590909 7.268182 4.7045454 9.190909 8.7136363 2.277273 5.1272728.286364 13.7863637-6.763636 12.9272728-5.740909.5318182-7.772727-5.3590909-7.759091-10.0227273 1.595455-.45 3.190909-.9 4.786364-1.35.422727 2.6863636-.777273 7.4318182 3.136363 7.7727273 3.477273-.1090909 2.468182-4.4318182 2.85-6.75-2.413636-3.2045455-6.504545-4.4863637-9-7.5681818-2.004545-3.8727273-1.772727-9.92727277 2.618182-12.04090914zm-103.3636363.01363637c1.0909091 0 3.2454546-.01363637 4.3227273-.01363637v29.11363634c-1.0772727 0-3.2454545 0-4.3227273 0 0-9.6954545-.0272727-19.4045454 0-29.09999997zm61.3772723-.01363637c1.077273 0 3.231819 0 4.309091.01363637 0 4.85454545.013637 9.70909087-.013636 14.57727277 2.263636-4.8272728 4.159091-9.84545459 6.831818-14.46818186 1.131818-.06818182 3.395455-.17727273 4.513637-.24545455-1.8 3.75-3.668182 7.47272731-5.577273 11.15454541 1.772727 6.0681819 4.090909 11.959091 5.672727 18.0818182-1.2 0-3.613636 0-4.827273 0-1.254545-4.5954545-2.631818-9.1636363-4.090909-13.7181818-2.863636 4.0772727-2.7 8.9727273-2.509091 13.7181818-1.077272 0-3.245454 0-4.322727 0 0-9.7090909-.027273-19.4045454.013636-29.11363634zm16.363637.02727273c1.077273-.01363636 3.231818-.02727273 4.309091-.02727273v29.11363634c-1.077273 0-3.259091 0-4.35 0 .054545-9.6954545-.013637-19.3909091.040909-29.08636361zm8.181818-.01363636c4.05-.02727273 8.1-.02727273 12.163636 0v3.65454545c-2.631818.01363637-5.25.02727273-7.868181.02727273.013636 2.84999999.013636 5.71363639 0 8.56363639 2.35909 0 4.718181.0136363 7.077272.0136363v3.6818182c-2.359091 0-4.718182.0136364-7.077272.0136364.013636 3.2045454.013636 6.4227273.013636 9.6272727 2.727273 0 5.468182 0 8.209091-.0272727-.013637.8863636-.027273 2.6590909-.027273 3.5454545-4.172727 0-8.345454 0-12.518182 0 .013637-9.7090909-.013636-19.4045454.027273-29.09999997z" fill="#666" transform="translate(0 25)"/></svg>