<svg height="90" viewBox="0 0 180 90" width="180" xmlns="http://www.w3.org/2000/svg"><g fill="none"><g fill="#444" transform="translate(0 26)"><path d="m9.20954198.53244275c1.76221372-.32290076 4.00877862-.40877863 5.18358782 1.21259542 1.3843511 1.87900763.8450381 4.34885496.2164122 6.40305343 5.190458-.0240458 10.380916.03091603 15.571374-.02748091.0240458 6.00114501-.0103053 12.00572521.0068703 18.00687021.0034351.7866412.0068702 1.5835878-.1854962 2.3564886-.1820611-6.6916031.0103053-13.3935115-.0824428-20.08854965-5.1423664.00687023-10.2812977-.0240458-15.4236641.01717557-.3847328 1.07519084-.7969466 2.14007638-1.2160305 3.20152668 4.1633588.0309161 8.3232824-.0824427 12.4832061.027481 1.4290076-.0034352 2.6141221 1.4049618 2.4286259 2.8099236-.0206107.7866412-.601145 1.3603054-1.0717557 1.9236641.9515267.3847329 1.9030534 1.078626 2.0232825 2.1778626.271374 1.4015268-.7866413 2.7446565-2.1675573 2.9645039.8793893.6595419 1.4874046 1.7622137 1.1473282 2.8751908-.2610687 1.1919847-1.4152671 1.9030534-2.5797709 1.9408397.9240458.7900763 1.171374 1.9751908 1.1198473 3.1431298-.3435115.3675572-.6801527.7454198-1.0167939 1.1198473.1958015 1.3706107.1923664 2.7515267.0412214 4.1290076 1.1816793-.0996183 2.3633587 0 3.5450381.0240458.0206107-1.2091603.0137405-2.4217557-.0721374-3.630916-.5461832.0206107-1.0923664.0515267-1.6351145.0927481.1683206-.7351145.0480916-1.4633588-.2782443-2.1435115.7557252.6389313 1.4805344 1.3156489 2.2053436 1.9889313.030916 1.2916031.0549618 2.5832061.0137404 3.8713741-.7660305.0583969-1.5320611.1442748-2.2980916.1374046-.5496183-.0515268-1.0958015-.1030535-1.6454198-.1511451.0206107-.9171756.030916-1.830916.0034351-2.7480916-.0137405-.4465649-.0377863-.8931298-.0618321-1.3396946-1.8034351.4740458-3.6824427.2267175-5.520229.2954198-3.3217557-.0652672-6.7568702.2335878-9.94809159-.8862595-.98931298-.3229008-1.84809161-.9309161-2.79618321-1.3431298-1.3019084-.1683206-2.62442748-.0961832-3.93320611-.0446565l-.2370229.0240458c-.16145038 2.2671756-.04122137 4.5377863-.0721374 6.808397-.31603054-2.2568703-.1167939-4.5480917-.1167939-6.8187023-.54274809-.058397-1.11297709-.0068703-1.6351145-.1889313-.40534351-.4225191.07557252-.9858779.59770992-.8312977 1.4427481-.0549619 2.88549619-.0137405 4.32824428-.0068703-.78320611-1.1576336-1.65229008-2.3805343-1.67290076-3.840458.16488549.0034351.50152671.0171756.66984732.0206107.76603054 1.3774809 1.28129771 2.998855 2.65534352 3.9229008 2.95419843 2.280916 6.87022903 2.129771 10.40152673 2.2534351-.0412214-.1099237-.1270993-.3332061-.1717557-.4465649-.8038168-1.288168-.1030535-2.8477099 1.0786259-3.6-.6526717-.5633588-1.3774809-1.198855-1.411832-2.1332061-.1545802-.9755725.4637404-1.7965649 1.082061-2.4732825-1.4496183-.1477099-2.6038168-1.5423664-2.3049618-3.00229.1442748-1.2022901 1.2263359-1.9511451 2.3324427-2.1812977-1.2057252-.8896947-1.3671755-2.4938932-.7076336-3.778626-1.7175572.0446565-3.4351145.0343511-5.1526717.0068702-.4156489.9377863-.7007634 1.9374046-1.2057252 2.8374046-.2198473.0412214-.6561069.1270992-.8759542.1717557l.1167939-.4259542c.8931298-3.4145038 2.8477099-6.50954195 3.2942748-10.04770989.2576336-1.67977099-.6870229-3.61717557-2.5316794-3.77519084-.5324427-.01374046-1.0614504.01717557-1.5938931.03778626-.17862597 1.72442748.1030534 3.61717557-.90000001 5.1389313-1.68320611 3.02290076-3.16717558 6.16259537-4.90534352 9.15114507-.14083969.0549618-.42595419.1648855-.570229.2198473-.52557252-.5427481.06526717-1.1679389.24732824-1.7244275-1.31221374.0171756-2.63816794.120229-3.94351145-.0790076-.01374046-.1820611-.04122137-.5461832-.05496183-.7316794.94122137-.2507634 1.92709924-.1408397 2.88549618-.1580153-.0721374-1.6248091-.09274809-3.24618318-.06526717-4.87099234 1.38091603.03091603 2.76526717.01030534 4.14961832.03091603.72824427-1.10954199 1.48053435-2.24312977 1.89274809-3.51755725.21641221-1.42557252.23358779-2.87175573.34007633-4.30763359zm-6.17977099 7.97633588c-.03435114 1.56984737-.03435114 3.14312977.12366412 4.70954197.46374046-.0068702.93091604-.0171756 1.39465649-.0240458.85534351-1.5629771 1.66259542-3.15 2.52137405-4.71297709-1.34656489.02061069-2.69312977.01030534-4.03969466.02748092zm15.61946561 5.69541987c.1683207.6492366.4843512 1.4599236 1.2675573 1.5183206 1.9477099.120229 3.9125954.0927481 5.8671756.0171756.810687.030916 1.1610687-.7935115 1.5801526-1.3328245-.2541984-.7625954-.5977099-1.7759542-1.5835877-1.7656488-1.9614504-.0996183-3.9366413-.0515267-5.8980917.0824427-.7282442-.0068702-1.2812977.9171756-1.2332061 1.4805344zm-1.2744274 4.860687-.1580153.1374046c.4637405.5083969.8278626 1.3396946 1.6351145 1.3225191 2.6484733.0790076 5.3072519.0927481 7.9557252-.0068703.8450382-.0103053 1.1748091-.8896946 1.5492366-1.4977099-.3332061-.6526717-.6561068-1.5938931-1.5526717-1.590458-2.6312977-.0755725-5.2729008-.0549618-7.9076336-.0137405-.9343512-.0412213-1.4049618.8553435-1.5217557 1.648855zm1.2263358 5.0770992.089313.0240458c.3400764.4328245.6114504 1.0889313 1.2503817 1.1129771 1.9374046.1133588 3.8885496.0858779 5.8259542.0206107.8725191.0240458 1.2366412-.8587786 1.6145038-1.4839694-.3194656-.7041985-.6938931-1.6625955-1.6385496-1.6248092-1.9305344-.0515267-3.8713741-.0927481-5.7984733.0240458-.9755725.0790076-1.2641221 1.1198473-1.3431298 1.9270992zm.089313 4.9087787c.5015267 1.1610687 1.889313 1.0889313 2.940458 1.0923664 1.3843512-.0618321 3.0984733.3435114 4.0053435-1.0099237.0240458-.8175572-.1339694-1.8687023-1.0717557-2.1022901-1.5217557-.2026717-3.0778626-.1442748-4.6064885-.0480916-1.0030535.1064886-1.3843512 1.1885496-1.2675573 2.067939zm9.8209924 1.5698473c-.089313-.0927481-.2713741-.2782443-.3641222-.3675573-.8896946.0927481.2301527 1.2366413.3641222.3675573z"/><path d="m10.5938931 1.85496183c.4603054.29885496 1.0511451.47061069 1.3706107.94465649.1958015.75572519.1408397 1.54236641.1648855 2.31526718-.5736641.01717557-1.1438931.03435114-1.7175572.05152671.0515267-1.10267175.1030534-2.20877862.182061-3.31145038z"/><path d="m26.9622137 7.08664122c1.49771-.31946565 3.0435115-.13053435 4.5618321-.14427481.0068702 1.45305344.1133588 2.9129771-.0412214 4.36259539-.2954198-1.35343508-.151145-2.75152669-.1958015-4.12213737-1.4427481-.04122138-2.8889313.05152672-4.3248092-.09618321z"/><path d="m85.1461832 11.009542c.7385496-.4946565 1.6625954-.570229 2.5248092-.5290076.4122137.511832.2919847 1.2641221.360687 1.8858778 0 5.1011451-.0034351 10.2057252-.0034351 15.3068702.1923664.0824428.5736641.2473283.7660305.329771-.0240458.3160306-.0721374.9549619-.0927481 1.2709924-1.0786259.721374-2.4183206.7729008-3.4454198-.0652672-1.8480916.9618321-4.2423664.9412214-5.9496184-.2954198-1.4083969-1.0339695-1.8687022-2.8442748-1.9717557-4.4965649-.1717557-2.5832061.5530535-5.5683206 2.8339695-7.0660305 1.4187023-.9996184 3.2324427-.9961832 4.8675572-.6698474.058397-1.8893129-.1580152-3.7992366.1099237-5.671374zm-2.5900763 7.6980916c-1.2538168.5530534-1.8 1.9751908-1.978626 3.2461832-.1820611 1.5664122-.1992366 3.2874046.6183206 4.6923664.7454199 1.3087786 2.789313 1.4152672 3.7820611.3641221.0790076-2.7274809.1270992-5.4755725-.0240458-8.2030534-.7522901-.3091603-1.6282443-.3812977-2.3977099-.0996183z"/><path d="m43.1278626 11.5832061c2.2912214-.4671756 4.9465649-.4843511 6.8187023 1.1301527-.3022901.45-.3503817 1.5835878-1.1473283 1.3190839-1.8446564-.5599236-4.0053435-.9343511-5.7125954.2198474-1.9270992 1.3293893-2.2980916 3.8748091-2.3977099 6.0389313-.0034351 2.1847328.1545802 4.6648855 1.7416031 6.3377862 1.2881679 1.3156489 3.2874045 1.2606871 4.95.869084.0377862-1.9477099.0274809-3.8954198.0137404-5.8431298-1.0717557-.1923664-1.5973282-1.0614503-1.7553435-2.0782442 1.4874046-.388168 3.0332061-.2267176 4.5515267-.2473283.4087786 3.0400763.120229 6.1145038.2267176 9.1717557-2.4629771 1.7347329-5.7950382 1.8343512-8.5671756.8416031-2.2396947-.7969466-3.6721374-2.9885496-4.0774809-5.2591603-.5908397-3.2290076-.4362596-6.7980916 1.3465649-9.6492367.8759542-1.4496183 2.3530534-2.4973282 4.0087786-2.851145z"/><path d="m19.8755725 13.3351145c.5599237-.240458 1.1919848-.1648855 1.7862596-.1958015.0274809.7316794.0583969 1.4633588.0858778 2.1950381-.9446565-.1030534-1.9099236-.2610687-2.6965649-.8312977.2645039-.3950381.508397-.810687.8244275-1.1679389z"/><path d="m56.1332061 16.680916c1.9923664-.4568702 4.4209924-.2541984 5.8568702 1.3671756 1.4049619 1.648855 1.5767176 3.960687 1.4324428 6.0320611-.1374046 2.2019084-1.2332061 4.5583969-3.3973283 5.4103053-2.4286259.9206107-5.7641221.4156489-7.0660305-2.0679389-.9996183-2.1229008-1.0545801-4.6270993-.5015267-6.8805344.4396946-1.8137404 1.8103053-3.4385496 3.6755725-3.8610687zm.9343512 1.9683206c-1.2366413.5770993-1.6145039 2.0645039-1.7312978 3.3114504-.0858778 1.6248092-.1305343 3.3629771.6320611 4.8469466.5427481 1.0270992 1.9648855 1.4942748 2.9473283.7969466 1.0133587-.7076336 1.2435114-2.0370229 1.3843511-3.1843512.1270992-1.5973282.1339695-3.3045801-.5977099-4.771374-.4431298-.9721374-1.6660306-1.3431298-2.6347328-.9996184z"/><path d="m68.4996183 16.680916c1.6213741-.3709923 3.4385496-.2988549 4.9019084.5599237 1.4942748.9137405 2.1847328 2.6896947 2.3530535 4.3625954.2061068 2.0301527.0583969 4.228626-1.078626 5.9839695-2.040458 3.2633588-7.8664122 3.15-9.4912214-.4534351-.841603-2.0782443-.9034351-4.4450382-.3572519-6.6057252.4431298-1.8068703 1.8137405-3.4248092 3.6721374-3.8473283zm.9377863 1.9683206c-1.5732825.7866413-1.7622138 2.8099237-1.7793893 4.3694657.0343511 1.6007633.0206107 3.6343511 1.501145 4.6374046 1.1851145.75229 2.7343512-.089313 3.0950382-1.3534351.6526717-2.0645039.6973282-4.4003817-.0721374-6.4374046-.3916031-1.0854962-1.6832061-1.6076336-2.7446565-1.2160306z"/><path d="m18.0034351 18.5290076c.6114504-.7110687 1.5870229-.5770992 2.4251909-.6629771-.0034352.2610687-.0137405.779771-.0171756 1.0408397-.0206107.3538168-.0652672.7041985-.1305344 1.0545802-.6767175-.030916-1.6316794.240458-2.0507633-.4603054-.058397-.240458-.1717558-.7282442-.2267176-.9721374z"/><path d="m20.0232824 22.8057252c.5564886-.1167939 1.1267176-.1270992 1.6935115-.1751908.0412214.2954198.1270992.8862595.1717557 1.1816793 1.1748092-.0515267 2.3530535-.0515267 3.5278626-.0206106.1614504-.3366413.3263359-.6732825.4912214-1.0064886.0103053.2576336.0343511.7694657.0446565 1.0270992.0068702.1442748.0171755.4362596.0240458.5805344-.1408397-.0996183-.4225191-.3057252-.5633588-.4053435-1.1541985.0171756-2.3118321.0171756-3.4660305-.0068702-.0858779.2232824-.2576336.6629771-.3435115.8828244-.7832061-.1408397-1.5629771-.298855-2.3255725-.5221374.209542-.5118321.0961832-1.3396947.7454198-1.5354962z"/><path d="m19.3122137 28.171374c.6080153-.7625954 1.6007634-.7041984 2.4732825-.8003816 0 .7488549.0034351 1.4942748.0034351 2.2431297-.6458015-.0927481-1.3087786-.1133587-1.9305344-.3160305-.1992366-.3675572-.3812977-.7419847-.5461832-1.1267176z"/><path d="m26.2408397 31.7954198c.7316794 0 1.4667939-.0034351 2.1984733-.0034351.0034351.690458.0068702 1.3809161.0103053 2.0713741-.7316794.0103053-1.4667939.0206107-2.1984733.0137404-.0103053-.6938931-.0171755-1.3877862-.0103053-2.0816794z"/><path d="m31.3145038 36.4603053c.0377863-1.3362595-.1442748-2.7.1683206-4.0156488.1511451 1.4152672.058397 2.8408397.0755725 4.2629771-1.5251908-.0412214-3.0709923.1545801-4.5755725-.1511451 1.4358779-.1648854 2.8854962-.0721374 4.3316794-.0961832z"/><path d="m76.2080153 33.1041985c.0687023-.0068703.2129771-.0206107.2816794-.0240458.6286259 1.2091603.9515267 2.5488549 1.3019084 3.8576336-.5599237-.1820611-.779771-.6973283-1.0030535-1.1816794-.2164122-.0103054-.6492366-.0274809-.8622137-.0377863-.2438932.4843512-.4534351 1.0339695-1.0305344 1.2057252.3572519-1.2984733.7694657-2.5866412 1.3122138-3.8198473zm.1477099 1.3156488c-.4980916.0480916-.5770992.9549619-.0377863 1.0064886.5221374-.0240458.5770993-.9618321.0377863-1.0064886z"/><path d="m79.8664122 33.1625954c.1030534-.0377862.3057252-.1133588.4087786-.1545801.1648855 1.0992366.1064886 2.2156488.1133588 3.3251908.2919848-.0068702.8725191-.0171756 1.1645038-.0206107l-.0377862.4534351c-.5736641-.0137404-1.1438932-.0240458-1.7175573-.0412213 0-1.1851145-.089313-2.3805344.0687023-3.5622138z"/><path d="m83.6931298 32.9908397c.1236641.0824427.3778626.2507634.5015267.3332061.1236641.9961832.0480916 1.9992366.0549618 2.998855.2851145-.0034352.8587786-.0103054 1.1438932-.0103054l-.027481.4568702c-.5736641-.0171755-1.1473282-.030916-1.7175572-.0480916.0103053-1.2435114-.0103054-2.490458.0446565-3.7305343z"/><path d="m90.7694656 33.3824427c.6011451-.5152671 1.4152672-.3057251 2.0438932.0343512-.4740458.0446565-.9480916.1030534-1.4152672.1786259-.9927481.779771-.7351145 2.84771.7007634 2.9473283.0206106-.3057252.061832-.9171756.0824427-1.2229008-.1099237-.1580152-.3332061-.4706107-.4431298-.6286259.2507634.0034351.7591603.0137404 1.0133588.0171755-.0103053.6732825-.0240458 1.3465649-.0480916 2.0232825-.721374.0996183-1.6488549.271374-2.1400763-.4293893-.5358779-.869084-.4431298-2.129771.2061068-2.9198474z"/><path d="m95.6541985 33.179771c1.4083969-.6973283 2.4183206.9446565 2.0473282 2.191603.0652672 1.2778626-1.7072519 2.0473283-2.4870229.9755726-.5152672-.9480916-.5599236-2.5145039.4396947-3.1671756zm.151145.4706107c-.4156488.8553435-.5942748 2.2843511.4087786 2.789313 1.4667939-.1339695 1.1541985-3.6480916-.4087786-2.789313z"/><path d="m100.751908 33.1041985c1.545802-.5152672 2.198474 1.4187023 1.77939 2.5935114-.099619 1.3019084-2.129771 1.5801527-2.5797713.3675573-.2919847-.9652672-.3709923-2.5591603.8003813-2.9610687zm-.027481.6217557c-.546183.7763359-.484351 2.0851145.278245 2.7206107 1.154198-.0480916 1.116412-1.5080153.896565-2.3187023-.061832-.5324428-.834733-.9824428-1.17481-.4019084z"/><path d="m104.908397 33.1729008c.676718-.0446565 1.501145-.1683206 2.030153.3744274.498091.8484733.467175 2.0301527-.137405 2.8236642-.539313.511832-1.353435.3332061-2.023282.4328244.054961-1.2022901-.178626-2.4767176.130534-3.630916zm.470611.2576336c-.020611 1.0030534-.020611 2.0061068 0 3.0091603 1.686641-.0068703 1.741603-3.0435115 0-3.0091603z"/><path d="m117.048092 33.2450382c.14771-.0480916.446564-.1408397.594274-.1889313-.003435 1.0545801-.003435 2.1091603-.00687 3.1637404.484351.0927481.992748.1648855 1.435878.4053435-.662977.089313-1.325954.1305344-1.992366.1648855-.037787-1.1816794-.037787-2.3633587-.030916-3.5450381z"/><path d="m120.826718 33.2347328c.151145-.0446565.446564-.1305343.594274-.1751908-.003435 1.0545801-.003435 2.1091603-.003435 3.1637404.480916.0858779.989313.1545802 1.425573.4087787-.659542.0858778-1.322519.1236641-1.982061.1580152-.044657-1.1851145-.044657-2.370229-.034351-3.5553435z"/><path d="m127.624809 33.1522901c.662977.0103053 1.325954.0343511 1.988931.0927481-.453435.1683206-.924045.3091603-1.380916.4534351-.003435.240458-.010305.7179389-.01374.9549618.30916.0377863.927481.1133588 1.236641.1511451-.398473.151145-.796946.3057251-1.191985.4603053-.092748.601145.164886 1.4255725-.583969 1.7072519-.079008-1.2744275-.054962-2.5454198-.054962-3.8198473z"/><path d="m135.676718 33.1625954c.628626.0034351 1.253816.0137405 1.885877.0549619-.408778.1992366-.841603.3469465-1.264122.4946564-.00687.1992367-.02061.6011451-.024046.8003817.42252.0927481.855344.1820611 1.281298.2851145-.439694.1236641-.879389.2438932-1.315649.360687.017176.3847329.034351.7660306.051527 1.1507634.377863.0034351.75916.0103053 1.140458.0206107l.003435.4122137c-.577099.0034351-1.154198.0034351-1.731298 0-.02061-1.1919847-.02061-2.3874045-.02748-3.5793893z"/><path d="m139.561832 33.1660305c.518702-.0068702 1.04084-.0137404 1.566412-.0240458.006871.0996184.020611.3022901.027481.4019084-.250763.0103054-.75229.0309161-1.003053.0412214v.9034351c.415649.1167939.841603.2370229 1.253817.3847328-.316031.0549619-.944657.1614504-1.257252.2164123.003435.4156488.010305.8312977.017175 1.2469465.28168-.0068702.848473-.0206107 1.130153-.0274809l-.027481.4568702c-.570229-.0137404-1.137023-.0274809-1.703817-.0446565-.010305-1.1851145-.010305-2.370229-.003435-3.5553435z"/><path d="m112.173664 36.9377863c.360687-1.4187023.827863-2.8167939 1.518321-4.1152672.556488 1.3225191 1.020229 2.6828244 1.384351 4.0706107-.60458-.1236642-.796947-.690458-1.037405-1.1748092-.212977.0068702-.642366.0240458-.855343.0343512-.233588.4774809-.45.9996183-1.009924 1.1851145zm1.212596-2.4217558c-.395039.3160306.024045 1.1919848.501526.8038168.367558-.3160305-.034351-1.1816794-.501526-.8038168z"/><path d="m131.475573 36.089313c-.037787-1.0030535 0-2.0026718.003435-3.0022901l.635496.030916c-.051527.6389313-.096183 1.2778626-.137405 1.920229.350382-.1683206.704199-.3400763 1.05458-.511832l.072138.5805343c.092748.6561069.498091 1.2091603.75229 1.8068703-.790076-.2885497-1.147328-1.0854962-1.669466-1.6763359-.089313.5736641-.151145 1.1507633-.240458 1.7244275-.343511-.2061069-.498091-.4946565-.47061-.8725191z"/></g><g fill="#1e1630" opacity=".31" transform="translate(1.030534 27.030534)"><path d="m10.6969466.31259542c1.8446565.15801527 2.7893129 2.09541985 2.5316794 3.77519084-.4465649 3.53816794-2.4011451 6.63320614-3.29427485 10.04770994-.83473283.0274809-1.66946565.0412214-2.50419848.0377862 1.50114504-3.5759542 3.57251913-6.95610683 4.47251913-10.75534347.3538167-1.22633588-.45-2.25-1.2057252-3.10534351z"/><path d="m.50839695 5.84656489c1.47709923-.02404581 2.95076336-.01717558 4.42786259-.00687023l.0240458.34694656c-1.30877862 0-2.62099236 0-3.92977099.00343512 0 1.38091603.05496183 2.76183206-.0721374 4.13587786-.85534351-1.31908397-.26450382-3.00229008-.45-4.47938931z"/><path d="m7.99007634 7.33740458c.43969465.09274809.87938931.18549618 1.31564885.27824427-.10648855.18206107-.31946565.55305344-.42938931.73854962-.43282443-.04465649-.86564886-.08587786-1.29847328-.12709923.13740458-.29541985.27480916-.59427481.41221374-.88969466z"/><path d="m20.6312977 12.1087786.0790076.0034351c.0755726.2713741.2301527.8175573.3057252 1.0889313 1.3946565.0687023 3.0022901.3091603 3.9847329-.930916.0549618.240458.1683206.7179389.2232824.958397.2782443.0343511.8312977.1099236 1.109542.1477099-.419084.539313-.7694657 1.3637404-1.5801527 1.3328244-1.9545801.0755725-3.9194656.1030534-5.8671756-.0171756-.7832061-.0583969-1.0992366-.8690839-1.2675572-1.5183206l.4019084.298855c.7866412.570229 1.7519084.7282443 2.6965649.8312977-.0274809-.7316794-.058397-1.4633588-.0858779-2.1950382z"/><path d="m24.629771 17.790458c.8622137-.7076336 1.8206107-.1442748 2.6965649.1992367-.3744275.6080152-.7041985 1.4874045-1.5492367 1.4977099-2.6484732.0996183-5.3072519.0858778-7.9557252.0068702-.8072519.0171756-1.171374-.8141221-1.6351145-1.3225191l.1580153-.1374046c.1545802-.1339694.4706107-.4019084.628626-.5358778.0549618.2438931.1683206.7316794.2267175.9721374.419084.7007633 1.3740458.4293893 2.0507634.4603053.0652672-.3503816.1099236-.7007633.1305343-1.0545801 1.7484733-.0137405 3.5003817.0377862 5.248855-.0858779z"/><path d="m.25763359 20.8854962c1.51832061-.0790077 3.04007633-.120229 4.56183206-.0927481.68358779 1.6660305 1.42557252 3.3732824 2.76526717 4.6305343 1.9648855 1.8961832 4.67175568 2.7171756 7.27557248 3.3045802.6973283.1751908 1.4290077.1889313 2.1229008-.0137405.0446565.1133588.1305344.3366413.1717557.4465649-3.5312977-.1236641-7.44732821.0274809-10.40152669-2.2534351-1.3740458-.9240458-1.88931297-2.5454198-2.65534351-3.9229008-.16832061-.0034351-.50496183-.0171755-.66984733-.0206106.02061069 1.4599236.88969466 2.6828244 1.67290077 3.840458-1.44274809-.0068703-2.88549619-.0480916-4.32824428.0068702-.19923664-1.9717557-.44656488-3.9435114-.51526717-5.9255725z"/><path d="m24.9217557 22.7816794c.3572519 0 1.0717558.0034351 1.4290077.0034351-.3778626.6251908-.7419848 1.5080153-1.6145039 1.4839695-1.9374045.0652671-3.8885496.0927481-5.8259542-.0206107-.6389313-.0240458-.9103053-.6801527-1.2503816-1.1129771.1958015.0583969.391603.1167939.5874045.1751908.7625955.2232825 1.5423665.3812977 2.3255726.5221374.0858778-.2198473.2576336-.659542.3435114-.8828244 1.1541985.0240458 2.3118321.0240458 3.4660305.0068702.1408397.0996183.4225191.3057252.5633588.4053435-.0068702-.1442748-.0171755-.4362595-.0240458-.5805343z"/><path d="m20.7549618 26.340458c.0618321.4431298.120229.8896947.178626 1.3328244.9377862-.0034351 1.920229-.0446564 2.6141221-.7625954.3503817.3984733.7041985.7969466 1.0580153 1.1919848-.9068702 1.3534351-2.6209924.9480916-4.0053435 1.0099236-1.0511451-.0034351-2.4389313.0687023-2.940458-1.0923664.2026717-.2954198.4087786-.5908397.6217557-.8793893.1648855.3847328.3469466.7591603.5461832 1.1267176.6217557.2026717 1.2847328.2232824 1.9305343.3160305 0-.748855-.0034351-1.4942748-.0034351-2.2431298z"/><path d="m1.99923664 27.8416031.2370229-.0240458c-.03091603 2.1194656-.04122137 4.2354961.00343512 6.3515267 5.67137404.0583969 11.33931294.0240458 17.00725194.0206107 1.0923664.0515267 2.311832-.2507634 3.2736641.4190839-6.8564886.2198474-13.73015268.0103054-20.59351146.1030535v-.0618321c.03091603-2.2706107-.08931298-4.5412214.0721374-6.8083969z"/><path d="m23.0599237 31.6339695c.2851145-.4809161.9790076-.329771 1.4358778-.4980916.0274809.9171755.0171756 1.830916-.0034351 2.7480916.5496183.0480916 1.0958015.0996183 1.6454199.151145.0206106.1580153.0652671.4740458.0893129.628626-1.0408397.0858778-2.10229.1374045-3.1259542-.0824428-.1580152-.9721374-.1854961-1.9751908-.0412213-2.9473282z"/><path d="m.4980916 33.3377863c.04809161-.6870229-.13053435-1.5045802.47748092-2.0061069.10305343 1.3465649.05496183 2.6965649.05839695 4.0431298 1.30534351.0034351 2.61068702.0034351 3.91603053.0034351l.0240458.3469465c-1.4461832-.0103053-2.89236641.0652672-4.3351145-.0103053-.20954199-.7729008-.11335878-1.5870229-.1408397-2.3770992z"/><path d="m130.448473 32.0564885c.687023-.0412213 1.573283-.3641221 1.930535.45.553053.5152672-.082443 1.0648855-.305726 1.5698474l-.072137-.5805344c-.350382.1717558-.704198.3435115-1.05458.5118321.041221-.6423664.085878-1.2812977.137404-1.920229z"/></g><g fill="#881ad0" transform="translate(92.061069 36.305344)"><path d="m42.7053435.75916031c.7076336-.56335878 1.7347328-.75229008 2.5900763-.47061069.508397 2.07137404.2335878 4.2389313.2885497 6.35496183 1.4496183-.6389313 3.2633587-1.1370229 4.7370229-.31603053 1.3706107.94122137 1.2366412 2.99541984.5667939 4.32480918-.6458016 1.2778626-1.8755726 2.0919847-3.1019084 2.7446565 2.0610687 2.0370229 4.0019084 4.2080152 5.7400763 6.5232824-1.2778626.4603054-2.9335878.659542-3.898855-.5152672-1.2641221-1.5114503-2.5625954-3.00229-4.0293893-4.3248091-.0068702 1.3706107.0652672 2.7549618-.1683206 4.1152671-.9412214.1167939-1.8858778.14771-2.8305343.1167939-.0171756-4.2629771.1545801-8.522519.0927481-12.78549614.0893129-1.92022901-.3022901-3.86106871.0137404-5.76755725zm2.9026718 8.48473282c-.0137405 1.00305347-.0171756 2.00954197-.0034351 3.01259537 1.5080152-.8312977 3.0332061-2.26374041 2.5660305-4.17366407-1.0545802-.20610687-1.8515267.50496183-2.5625954 1.1610687z"/><path d="m1.67633588 2.4148855c-.04809161-1.49770993 1.85152672-.97557252 2.80305343-1.16106871 1.55954199 3.49007634 2.76526718 7.12099237 4.01908397 10.72786261.41221374-.0412214.3538168-.6423664.54961832-.9171756 1.2160305-3.19809159 2.3530534-6.43396945 3.6858779-9.58396945.8656488-.0721374 1.741603-.25763359 2.6141221-.13053435.3091603 1.23664122.2919847 2.51793893.4259542 3.77862595.3400763 4.63396947.9068702 9.24732825 1.2400763 13.88129775-.9652671.2541984-1.9580152.3503816-2.9541984.3366412-.7282443-3.9022901-.6973283-7.9076336-.9309161-11.8614504-1.0580152 2.7549618-2.0919847 5.5236641-3.12938928 8.2854962-.17175572.4087786-.31946565.8484733-.62175572 1.1851145-.64580153.2541985-1.35343512.2026717-2.03015268.2473282-1.10610687-3.2530534-2.2980916-6.4751908-3.36641221-9.73854958-.04465649 3.46603058-.4259542 6.90801528-.73854962 10.35687018-.0721374.4053436-.0721374.8896947-.39160305 1.1919848-.81068702.4053435-1.76564886.209542-2.6278626.1408397.21984733-5.5923664 1.0167939-11.15725194 1.45305344-16.739313z"/><path d="m22.8160305 6.37557252c2.0610687-.48091603 4.6133588-.22671756 6.0080153 1.54923664 1.3293893 1.7519084 1.4427481 4.09809164 1.2400763 6.20381684-.2026717 2.0885496-1.322519 4.2561068-3.3629771 5.0564885-2.432061.9240458-5.7709923.4122137-7.0694656-2.0782443-.989313-2.1194656-1.0477099-4.6133587-.4980916-6.8599236.4396946-1.81717561 1.8103053-3.45229011 3.6824427-3.87137408zm.9618321 1.95801527c-1.2572519.55648855-1.6454199 2.06450381-1.7622137 3.31145041-.089313 1.501145-.1064886 3.0709923.45 4.4931297.3812977 1.0133588 1.5148855 1.7656489 2.6038167 1.4118321 1.2091604-.3709924 1.6522901-1.7141221 1.8309161-2.8339695.2301527-1.7862595.2851145-3.720229-.5187023-5.37595416-.4431298-.96183207-1.6419847-1.32938932-2.6038168-1.00648855z"/><path d="m33.0183206 8.24083969c1.8480916-2.44580152 5.640458-2.66908396 8.1034351-1.05114503-.1477099.54961832-.3091603 1.09580152-.4740458 1.64198473-1.380916-.15114504-2.8717557-.94465649-4.2080152-.2129771-1.4942749.9-1.7656489 2.84083971-1.7553436 4.43473281.0240458 1.4839695.2782443 3.3251909 1.7450382 4.0877863 1.380916.659542 2.940458.1305343 4.3076336-.3057252.1064886.8038168.1236641 1.769084-.7007634 2.2087786-1.4805343.7694657-3.2770992.6389313-4.8572519.298855-1.7519084-.4225191-3.00229-1.9923664-3.3251908-3.7236642-.4980916-2.4664122-.3778626-5.2866412 1.1645038-7.37862591z"/><path d="m53.879771 6.87366412c.8793893-.54274809 2.3530534-1.36717557 2.9541985-.03778626.8759542 2.80648855-.0515268 5.77442744.1683206 8.64274814.030916.810687.4843511 1.7519084 1.3980916 1.8240458.9240458.240458 1.7931298-.2541985 2.5832061-.6732825.0068702-2.7961832-.0034351-5.5923664 0-8.38854961.0206107-.58053435-.0034351-1.33282442.5977099-1.64541984.7729008-.24389313 1.6007634-.1408397 2.401145-.17519084.1133588 4.02938929-.240458 8.08625949.2129771 12.10190839-.8587786.4774809-1.7759542.5049618-2.6793893.1339695-1.6969465.8038168-3.6824427 1.2744275-5.4893129.5083969-1.408397-.4293893-1.94771-1.9923664-2.0301527-3.3217557-.1889313-2.9851145.5874046-6.01832062-.1167939-8.96908398z"/><path d="m69.4717557 7.1278626c1.4564886-.75229008 3.1362596-1.32251909 4.7816794-.83473283 2.0335878.38473283 3.3938931 2.34618321 3.5725191 4.32480913.2679389 2.7412214-.0618321 5.9633588-2.3118321 7.8526718-1.470229 1.3362595-3.6412213 1.3225191-5.4446565.779771-.0343511 1.7038168.1099237 3.4179389-.0755725 5.1148855-.8656488.480916-1.8893129.3263359-2.8270992.2645038-.2232824-5.2316794-.0034351-10.4770992-.1099237-15.70877863-.061832-.54961832-.1477099-1.09236642-.2645038-1.62824428.8141221-.55992366 1.8240458-.84160305 2.6793893-.16488549zm.5908397 2.06793893c.0206107 2.59007637.0206107 5.17671757.0034351 7.76679387.9790077.5736641 2.3187023.8965649 3.2427481.0343512 1.3740458-1.3706107 1.4599237-3.4900764 1.4221374-5.3175573-.0377862-1.229771-.3538168-2.82366411-1.7072519-3.23931296-1.0648855-.36412214-2.0782443.23015267-2.9610687.75572519z"/><path d="m80.9450382 6.70534351c2.0301526-.85877862 4.5893129-.77633588 6.3927481.57709924-.2026718.51870229-.4122138 1.03396946-.6354962 1.54236641-1.1816794-.20610687-2.3770993-.80725191-3.5862596-.48091603-.8862595.23358779-1.1748091 1.49083969-.4396946 2.07137407 1.3293893 1.2022901 3.0881679 1.8961832 4.232061 3.3183206 1.1816794 1.4152672.838168 3.7889313-.6698473 4.8400763-1.7072519 1.1885496-3.9778626 1.229771-5.9221374.6801527-.5358778-.2164122-1.229771-.4122137-1.4427481-1.0133588.1236641-.511832.3194657-.9996183.508397-1.4908397 1.3980916.3229008 2.8339694 1.0236641 4.2870229.5530535.9343511-.3812978 1.1026717-1.7759542.3641221-2.4217558-1.4461832-1.2847328-3.3492366-2.0954198-4.4622137-3.7305343-.9858779-1.51832063-.298855-3.75114506 1.3740458-4.44503819z"/></g></g></svg>