<svg height="90" viewBox="0 0 180 90" width="180" xmlns="http://www.w3.org/2000/svg"><g fill="#0480d6" fill-rule="evenodd" opacity=".96" transform="translate(20 17)"><path d="m121.648649 0h1.021621c5.562162 3.67027027 11.408108 6.90540541 17.32973 9.95135135v4.95675675c-6.186486-2.6486486-11.862162-6.29999999-17.518919-9.87567567-6.054054 3.5945946-12.089189 7.22702707-18.162162 10.76486487.037838-1.3432432.094595-4.0297297.132432-5.372973 5.864865-3.25405403 11.654054-6.64054052 17.197298-10.4243243z"/><path d="m1.89189189 2.25135135c18.04864861-.3972973 36.11621621-.43513513 54.18378381-.81351351.0567567 1.02162162.1513513 3.06486486.2081081 4.08648648-18.1432433.24594595-36.2675676.54864865-54.39189191.92702703 0-1.04054054 0-3.14054054 0-4.2z"/><path d="m91.6810811 1.19189189c1.3054054-.03783784 3.9162162-.07567567 5.2216216-.09459459-2.8567568 7.54864865-5.9216216 15.0216216-8.4567568 22.6837838 7.7756757.8513513 5.2405406-11.445946 13.5270271-9.5162162-3.5756757 8.2864865-7.5486487 16.3837837-11.3513514 24.5756756 3.972973-.0189189 7.945946-.0189189 11.9189194-.0378378-.018919 1.172973-.056757 3.5-.075676 4.6540541-6.5837839 0-13.1675677.0189189-19.7513515-.0378379 2.6297297-5.3162162 5.2972973-10.6135135 7.945946-15.9108108-3.1594595.0189189-6.3378379.0378378-9.4972973.0567568 3.481081-8.7972973 7.0567567-17.57567571 10.5189189-26.37297301z"/><path d="m25.0297297 13.0351351c2.0054054-2.1567567 4.3891892-3.87837834 6.8486487-5.48648645.0756757 1.41891892.227027 4.21891895.3027027 5.63783785 3.6891892-.0567568 7.4162162.1324324 11.0864865-.3405406 2.4783783-1.5513513 4.6729729-3.55675671 7.0567567-5.25945941.0756757 1.38108108.2648649 4.14324321.3405406 5.52432431 1.6459459 0 4.9.0189189 6.5459459.0378378v8.172973c-1.2297297 0-3.6891892-.0189189-4.9189189-.0189189 0-1.0783784-.0189189-3.2351351-.0378378-4.3135135-15.4756757-.0378378-30.9513514 0-46.42702707-.0189189-.01891892 1.0783783-.05675676 3.2729729-.07567568 4.3513513-1.3054054 0-3.93513513 0-5.24054054-.0189189 0-2.7054054 0-5.3918919 0-8.0972973 1.4-.0567568 4.21891892-.1702703 5.61891892-.2081081 2.00540541-1.9486487 4.06756757-3.80270271 6.18648647-5.61891892.1513514 1.45675676.4351352 4.33243242.5675676 5.77027022 4.0486486-.0189189 8.0972973-.0378378 12.1459459-.1135135z"/><path d="m109.918919 19.0702703c9.232432.0378378 18.464865-.0189189 27.697297.0567567-.018919 1.1540541-.056757 3.4621622-.075675 4.5972973-10.518919.0378379-21.018919 0-31.537838.0378379 1.305405-1.5702703 2.610811-3.1216217 3.916216-4.6918919z"/><path d="m11.8621622 23.4216216c2.5162162-1.6648648 5.0702702-3.272973 7.681081-4.8054054l-1.5891891 5.3540541c12.827027-.0567568 25.6729729-.0378379 38.5189189 0v3.9351351c-11.8810811.1324324-23.7621622-.1324324-35.6432433.0378378-3.8972973-.7378378-6.3189189 2.1567568-8.4567567 4.918919 14.3405405.5675675 28.7.1513513 43.0594594.2837837.018919 3.0648649.018919 6.1108109.018919 9.1756757-6.0162163 1.5702703-12.0135136 3.1405406-18.0297298 4.7297298 7.1324325 2.781081 17.3108108 1.381081 21.3027027 9.1189189-9.7810811-1.1540541-19.0324324-4.9-28.7756757-6.2054054-9.4216216 1.3621621-18.4081081 4.7108108-27.69729725 6.7918919h-1.62702703c3.31081082-8.2297298 14.17027028-6.5837838 21.15135138-9.4783784-3.8594595-1.3621622-8.4756757-2.1567568-9.8945946-6.6405406 7.8324324.8513514 15.6459459 5.0135136 23.572973 2.5540541 5.7702702-1.3432433 11.4459459-3.0837838 16.9135135-5.372973-13.4702703-1.0972973-26.9972973-.3783784-40.4864865-.5486486-2.64864867 4.5972973-4.38918921 10.8405405-10.84054056 11.0297297 2.97027027-6.8675676 6.47027027-13.4891892 9.89459456-20.1486486-3.65135132-.2081082-7.28378375-.4162163-10.91621618-.8324325 3.27297297-2.9891892 7.62432432-3.4621621 11.84324328-3.8972973z"/><path d="m105.945946 29.4945946c11.105405 0 22.210811-.0189189 33.297297 0 .018919 8.627027.018919 17.254054.018919 25.8810811-11.105405 0-22.210811 0-33.316216 0 0-8.6270271 0-17.2540541 0-25.8810811zm5.051351 4.672973c0 5.5621621 0 11.1054054.018919 16.6486486 7.832433 0 15.664865-.0378378 23.478379.1135135 0-5.5810811 0-11.1810811 0-16.7621621-7.832433 0-15.664865 0-23.497298 0z" fill-rule="nonzero"/><path d="m80.972973 55.4891892c.9648648-1.1540541 2.8756756-3.4621622 3.8405405-4.6162162 5.8837838-.4351352 11.8054054-.1513514 17.7270275-.1702703-.018919 1.2297297-.037838 3.7081081-.056757 4.9378378-7.1702705.018919-14.3405408.0756757-21.510811-.1513513z"/></g></svg>