<svg height="90" viewBox="0 0 180 90" width="180" xmlns="http://www.w3.org/2000/svg"><g fill="none" fill-rule="evenodd"><g fill="#6a7481" transform="translate(20 23)"><path d="m0 0h35.6421488l-3.2338843.00578512c-.0289257 2.93305786 0 5.86033058-.0347108 8.79338843-6.9363636-.00578512-13.8785124-.00578512-20.814876 0v9.80578515c6.392562.0115702 12.7909091-.0173554 19.1834711.0115702.0057851 2.9735537.0289256 5.9413223-.0289257 8.9148761-6.3809917-.0115703-12.7677686-.0057852-19.1545454-.0057852v15.2958678c-3.84710745-.1099174-7.72892563.2719008-11.5586777-.2371901z"/><g fill-rule="nonzero"><path d="m37.9214876 0h19.9991736c5.3859504.24297521 10.8471074 2.16363636 14.7694214 5.95867769 8.4752067 7.87933881 8.4983472 23.00165291-.0231405 30.85785121-4.6859504 4.4487604-11.3793388 6.2884298-17.7314049 6.016529-5.6289256.0752066-11.2983471-.2950414-16.8983471.2487603-.1793389-8.5677686.1851239-17.1586777-.3008265-25.7206612.5842976-5.7793388 0-11.57603303.185124-17.361157zm11.0033058 9.33719008c-.0057851 8.05867772-.0057851 16.11157022 0 24.17024792 4.4834711-.2371901 9.4991735.8561984 13.4735537-1.7933884 6.7743802-4.5471075 6.7280992-16.0768595-.1504132-20.4909091-3.9338843-2.64958678-8.8685951-1.70661157-13.3231405-1.88595042z"/><path d="m84.231405 0h21.977686c3.806611.39917355 7.775207 1.39421488 10.702479 3.99752066 3.228099 2.64958678 4.761157 6.91900824 4.506612 11.02644624.323967 5.131405-2.134711 10.4537191-6.583471 13.1438017-1.122314.4165289-.468595 1.5272727.017355 2.1752066 2.695868 4.107438 5.189256 8.3421488 7.983471 12.3801653-4.298347.2024793-8.602479.0520661-12.906611.092562-2.071075-4.0380165-4.194215-8.0471075-6.328926-12.0504132-2.695868-.0057852-5.3859504-.0057852-8.0702479-.0057852 0 4.0090909-.0057852 8.0123967 0 12.0157025-3.7661157.0809917-7.5380166.0578513-11.3041323.0115703.0173554-14.2603306 0-28.5264463.0057852-42.7867769zm11.2925619 8.79917355c.0057852 4.39669425 0 8.79338845.0057852 13.19586775 2.8809917-.0289256 5.7619839.046281 8.6429749-.0231405 1.943802-.0347107 3.957025-.7694215 5.218182-2.3024793 1.405785-1.7876033 1.602479-4.2636364 1.110744-6.4214876-.630579-2.5801653-3.147108-4.38512398-5.761984-4.41983473-3.0719-.08677686-6.1438012-.00578512-9.2157021-.02892562z"/></g></g><path d="m1.37107438 3.6677686c2.1-3.98016529 8.56198347-4.16528926 11.00330582-.45123967 2.5396694 3.56363636.5495867 9.34876037-3.92809921 10.08925617h-2.85206611c-4.25206612-.7752066-6.28264463-6.0165289-4.2231405-9.6380165z" fill="#47c2bf" transform="translate(146.115702 53.082645)"/></g></svg>