<svg height="90" viewBox="0 0 180 90" width="180" xmlns="http://www.w3.org/2000/svg"><g fill="none" fill-rule="evenodd"><g fill="#00be6e" transform="translate(0 14)"><path d="m5.54433962 8.09150943c5.16226418-6.10471698 13.86509438-9.08490566 21.65943398-7.1235849 6.4528302 1.41792453 12.1330189 5.94339622 14.9349056 11.93773587 2.3179246 4.7971698 2.5301887 10.4773585 1.0358491 15.554717-.6622641-4.168868-.7132075-8.7113208-3.2518868-12.2858491-4.3301887-6.57169811-13.5169811-9.52641509-20.6660377-5.85-4.4830189 1.4009434-7.8707547 5.1367925-9.0509434 9.645283-3.02264153 6.1301887-.71320757 13.8650944 4.4490566 18.0679245 3.2518868 2.7679246 7.590566 3.5320755 11.4028302 5.2386793-9.3311321 1.7066038-19.36698116-3.3198113-23.51886795-11.8443396-1.33301887-2.6830189-1.29905661-5.8160378-2.53867925-8.5160378v-.5773585c.68773585-5.085849 2.01226415-10.3330188 5.54433962-14.24716977z"/><path d="m67.109434 3.27735849c5.6971698-.52641509 11.2160377-2.20754717 16.9047169-2.76792453 2.7424529.01698113 4.0245283 2.84433962 4.0160378 5.23018868-5.0603774.73018868-10.1462264 1.36698113-15.2405661 1.8764151-.0169811 3.88018866-.0084905 7.76037736-.0084905 11.64056606 4.3471698.135849 8.7283019-.2716981 13.0584905.195283 2.6915095.4330189 3.9566038 3.0735849 4.6867925 5.4-5.9264151.135849-11.8528302-.0254717-17.7707547.1103774.0679245 6.2066037-.0084906 12.4132075.0509434 18.6198113-1.8933963.0169811-3.7867925.0169811-5.6716981.0169811-.0169812-6.2235849.1103773-12.4556604-.0764151-18.6877358-6.5462264-.059434-13.0924529.1103773-19.6386793-.0933963.8235849-2.3433962 2.0971698-5.0179245 4.8650944-5.4084905 4.9415094-.3820755 9.9169811-.0084906 14.8754717-.1867925-.0084906-3.659434-.0084906-7.3188679-.0084906-10.98679244-5.1537736.50094339-10.3330189.97641509-15.5207547.76415094.9339622-2.13962264 2.2669811-4.53396226 4.8056604-4.9754717 3.5320754-.45849056 7.1320754-.25471698 10.6726415-.74716981z"/><path d="m93.5490566 5.90943396c-.1103774-3.06509434 2.8273585-5.64622641 5.8415094-5.44245283 9.866038-.04245283 19.740566-.04245283 29.606604 0 2.988679-.19528302 5.883962 2.37735849 5.807547 5.41698113.067925 10.79150944.059434 21.59150944.008491 32.38301884.15283 3.2179246-2.878302 5.1113208-5.629246 5.8160378 0-13.0415095.008491-26.0830189 0-39.11603777-10.001887-.00849056-20.003773-.00849056-30.0141507-.00849056v34.81981133c7.1575467.0849056 14.3320757-.1698113 21.4811317.1103773 2.105661-.0084905 2.954717 2.114151 3.854717 3.6254717-7.819811.2037736-15.639622.0254717-23.459434.1103774-2.1481128.0509434-4.6018864-.0933962-6.0877354-1.8849057-1.664151-1.5792452-1.4349057-4.0075471-1.468868-6.0877358.0849057-9.9169811-.0424528-19.8254717.059434-29.74245284z"/><path d="m138.031132 6.7754717c-.348113-3.18396227 2.233019-6.34245283 5.501887-6.28301887 9.314151-.13584906 18.628302.01698113 27.933962-.06792453 2.199057-.00849056 4.754717-.10188679 6.393396 1.63867925 2.003774 1.84245283 1.816981 4.76320754 1.833963 7.24245283-.118868 9.61981132.127358 19.24811322-.110378 28.85943392-.016981 3.209434-2.920754 5.0858491-5.722641 5.7226415-.067925-3.2518867-.059434-6.5122641 0-9.7641509-.704717.8915094-1.417925 1.7830189-2.139623 2.6575472-2.003773-3.1839623-3.056604-7.0556604-5.663207-9.7981132-1.833963 3.1584905-3.413208 6.4698113-5.145283 9.6792453-.74717-.6622642-1.366982-1.6216982-2.156604-2.1566038-.738679.6792453-1.409434 1.4433962-2.114151 2.1650943-1.715095-3.2094339-3.277359-6.495283-5.10283-9.6367924-2.733963 2.6490566-3.59151 6.7415094-5.926415 9.7641509-.619812-.8915094-1.231133-1.7830189-1.842453-2.6830189.00849 3.3452831.016981 6.6905661-.016981 10.0443397-2.759434-.8150944-5.85-2.6575472-5.68868-5.968868-.084905-10.4688679-.00849-20.9462264-.033962-31.4150943zm5.756604-1.7745283c-.076415 9.0933962-.008491 18.1867924.025472 27.2716981 1.715094-3.3877358 3.481132-6.75 5.247169-10.1122641-1.613207-2.9886793-3.260377-5.9518868-4.737735-9 .033962-.2716982.118867-.8150944.16132-1.0867925 3.854717-1.3839623 5.306604 3.2349057 6.877359 5.7396226 1.265094-1.9018867 1.8-4.7971698 4.134905-5.7141509 2.343397-.1358491 4.814151-.4330189 7.089623.195283 1.842453 1.3584906 2.54717 3.7103774 3.735849 5.5783019 1.027359-1.8254717 1.757547-3.9226415 3.319811-5.3830189 1.19717-.6707547 2.666038-.6622641 3.999057-.7047169-1.239623 3.6594339-3.370755 6.945283-5.136792 10.3669811 1.766037 3.3707547 3.540566 6.7415094 5.247169 10.154717.14434-9.1018868.042453-18.2037736.067925-27.3056604-10.010377-.04245283-20.020755-.0509434-30.031132 0zm9.75566 17.1849057c1.757547 3.3028301 3.379246 6.6820754 5.272642 9.9169811 1.8-3.2773585 3.45566-6.6226415 5.213207-9.9169811-1.766037-3.3028302-3.498113-6.6226416-5.238679-9.9339623-1.757547 3.3028302-3.498113 6.6226415-5.24717 9.9339623z" fill-rule="nonzero"/><path d="m107.312264 9.67075472c1.400944-1.3754717 3.396227-.46698114 5.060378-.36509434-.560378.84905662-1.129246 1.69811322-1.706604 2.53867922 3.880188.0169812 7.785849-.2716981 11.657547.1358491 1.95283.0764151 2.7 2.0632075 3.45566 3.5320755-2.300943 1.0613207-4.618868 2.0886792-6.90283 3.1669811 3.557547 1.8594339 9.815094 2.6320755 8.923585 8.0745283-4.219811-1.6811321-8.295283-3.6933962-12.464151-5.4933962-1.095283-.7811321-2.300943.0594339-3.353774.4415094-3.812264 1.6981132-7.582075 3.4981132-11.445283 5.0688679.067925-1.7745283.008491-4.0754717 1.94434-4.9160377 4.321698-2.2415095 8.940566-3.8462264 13.236793-6.1386793-3.065095-.0764151-6.130189-.0424528-9.203774-.0169811-1.061321 1.0698113-2.139623 2.1311321-3.226415 3.1839623-2.632076-3.8377359 1.282075-7.0132076 4.024528-9.21226418z"/><path d="m36.0509434 32.6886792c3.4132075-1.3924528 7.5056604 1.9783019 6.5292453 5.6037736-.7132076 3.4216981-5.3235849 5.0433963-7.9556604 2.6745283-2.9207547-2.1481132-2.0207547-7.2169811 1.4264151-8.2783019z"/><path d="m77.8245283 47.6830189c.5603774 1.8.704717 3.7273585 1.4349057 5.4679245.9424528.4584906 2.4367924.1273585 3.031132 1.1037736-.7047169.9-2.131132.6622641-3.0820754 1.1971698-.764151 2.3603774-.3311321 4.9330189-.3905661 7.3783019h-.8320754c-.6198114-2.6490566-.4754717-5.3915095-.4924529-8.0830189-1.5537736-.2632075-3.1075471-.5179245-4.6273585-.9084906 1.5198114-.2122641 3.0396227-.3990566 4.559434-.5518867.0933962-1.8679246.195283-3.7443397.3990566-5.6037736z"/><path d="m127.409434 49.1603774c2.190566-.2207548 4.389623-.1103774 6.580189-.1358491.059434 2.504717.076415 5.0264151-.407548 7.4971698 2.827359.0339623-.619811 1.6132076-1.265094 2.4707547 1.095283 1.0528302 2.190566 2.114151 3.116038 3.3283019-3.710377-.8320755-4.661321-4.8311321-6.571698-7.5481132-.466981 1.9273585-.577359 3.9056604-.687736 5.8669811.9-.0509434 2.70849-.1613207 3.60849-.2122641-1.494339.840566-3.124528 1.3669811-4.754717 1.8424528.577359-4.3471698.13585-8.745283.382076-13.1094339zm.585849.7641509c-.084906 3.0990566 3.362264 1.8424528 5.281132 1.6471698-.110377-2.6830189-3.574528-1.2820755-5.281132-1.6471698zm.050943 2.8613208c-.169811 3.1245283 3.370755 1.6471698 5.24717 1.9783018.169812-3.2009434-3.30283-1.6896226-5.24717-1.9783018zm3.59151 3.2603773c-.399057 1.2056604.00849 1.5962264 1.214151 1.1886793.399056-1.2056604-.008491-1.604717-1.214151-1.1886793z" fill-rule="nonzero"/><path d="m46.3330189 53.6264151c1.2735849-.2716981 2.5641509-.45 3.8632075-.6367925-.0084906 2.1566038-.0169811 4.304717-.0679245 6.4528302.8660377-.2207547 1.7320755-.4330188 2.5981132-.6367924-1.290566 1.1632075-2.6490566 2.2584905-4.0160377 3.3283019.4415094-2.5811321.5603773-5.204717.5349056-7.8283019-.7301887-.1698113-2.1820755-.509434-2.9122641-.6792453z"/><path d="m68.0943396 53.7877358c1.2820755-.4584905 2.6320755-.6707547 3.9650944-.9.1018868 2.1820755.1188679 4.3726416.1103773 6.554717.9169812-.2886792 1.8424529-.5688679 2.7679245-.8235849-1.35 1.2481132-2.8018867 2.3858491-4.2622641 3.4981132.4330189-2.5896226.5349057-5.2047169.509434-7.8198113-.7726415-.1273585-2.3179246-.3820755-3.0905661-.509434z"/><path d="m51.7754717 55.0443396c2.7424528.0679246 5.5018868-.0169811 8.2273585.3735849-.5009434 1.4603774-1.6811321 2.5981132-2.1226415 4.0584906.3820755 1.154717 1.9103773 1.3330189 2.7849056 2.054717-.135849.3226415-.3990566.9764151-.5349056 1.2990566h-.3820755c.1188679-.0849057.3650943-.254717.4839623-.3481132-1.3245283-.6113208-2.6405661-1.2311321-3.9650944-1.8424529-1.6896226.6537736-3.4047169 1.2481132-5.1707547 1.664151 1.2990566-.9764151 2.6830189-1.8169811 4.0669811-2.6490566-1.1377358-1.5283019-2.25-3.0735849-3.3877358-4.6103774zm1.859434 1.0273585c.8235849 1.1122642 1.6726415 2.2075472 2.5216981 3.3028302.9-1.0783019 1.7830188-2.1650943 2.6575471-3.2688679-1.7320754-.0254717-3.4556603-.0424529-5.1792452-.0339623z" fill-rule="nonzero"/></g><path d="m10.7660377 1.83396226c7.1490566-3.67641509 16.3358491-.72169811 20.6660378 5.85 2.5386792 3.57452834 2.5896226 8.11698114 3.2518868 12.28584904-.4075472 1.1632076-.8660378 2.309434-1.3245283 3.4556604-2.9207548-1.0783019-6.6650944-1.604717-8.864151 1.1377358-2.3688679 2.2075472-1.154717 5.5443397-1.0018868 8.3207548-1.8679245.9424528-3.8971698 1.4943396-5.9264151 1.9018868-3.8122641-1.7066038-8.15094336-2.4707548-11.40283016-5.2386793-5.16226415-4.2028302-7.47169811-11.9377358-4.4490566-18.0679245-.89150943 6.945283 4.66981132 14.0264151 11.84433966 13.8650943 7.395283.5009434 13.890566-7.0896226 12.0566037-14.3235849-1.2735849-6.58018866-8.4566037-10.63018866-14.85-9.18679244z" fill="#009f6e" transform="translate(8.490566 22.490566)"/><path d="m3.68490566.48396226c4.38962264-.23773584 8.81320754-.12735849 13.21132074-.05943396 2.1650944-.14433962 3.1584906 1.99528302 3.9566038 3.61698113-6.8603774.11037736-13.71226416.11886793-20.56415096-.00849056.78962265-1.4009434 1.50283019-3.39622642 3.39622642-3.54905661z" fill="#00c170" transform="translate(103.584906 40.320755)"/><path d="m.32264151 4.1009434c.77264151-1.60471698 1.72358491-3.73584906 3.88018868-3.6 4.23679245-.11037736 8.48207551-.11886793 12.71886791 0 2.1650944-.14433963 3.1075472 1.99528302 3.9396227 3.5745283-6.8433963.14433962-13.69528306.11037736-20.53867929.0254717z" fill="#00c06f" transform="translate(103.584906 46.264151)"/><path d="m1.00188679.19528302c1.00188679 1.4009434 1.8 2.92924528 2.44528302 4.5254717l.29716981.70471698c-.50943396-.28867925-1.52830188-.88301887-2.03773585-1.17169812.21226415 3.29433963.42452831 6.63113212-.11886792 9.90849062l-.49245283 1.1122641c-.38207547-5.009434-.41603774-10.06132075-.09339623-15.07924528z" fill="#00be6e" opacity=".71" transform="translate(26.320755 61.54717)"/><g fill="#00b669" opacity=".96" transform="translate(3.396226 61.54717)"><path d="m29.2669811 4.22830189c.2377359-1.35849057.3990566-2.7509434 1.0273585-3.99056604.1613208 1.4009434.2801887 2.81037736.3566038 4.22830189 1.3075472-.0509434 2.6150943-.09339623 3.9226415-.15283019-.7556604-.72169812-1.5113207-1.4518868-2.2754717-2.17358491.1443396-.31415094.4160377-.9254717.5518868-1.23113207.9849057 1.40094339 1.9103774 2.84433962 2.7 4.37264151-2.9801887-.17830189-6.0028302.11037735-8.9490566-.5264151.6622641-.12735849 1.995283-.3990566 2.6660377-.52641509z"/><path d="m50.6462264 1.33301887c1.5113208.0254717 3.0311321.04245283 4.5509434.05943396 0 1.30754717-.0084906 2.61509434-.0084906 3.92264151.6877359.16132075 2.0716982.49245283 2.759434.66226415-1.2056604.22075472-2.4367924.32264151-3.6679245.38207547-.0339623-1.31603773-.0679245-2.64056604-.0933962-3.96509434-.6113208-.00849056-1.8424529-.0254717-2.4537736-.0254717-.4330189 2.14811321-1.2990566 4.33018868-3.6169812 5.00943397 1.3160378-1.80849057 2.4877359-3.73584906 2.5301887-6.04528302z"/><path d="m118.65566 1.44339623c1.451887 0 2.912265.00849056 4.372642.01698113-1.485849 2.91226415-.356604 5.89245283-.271698 8.88962264-.585849.3481132-1.757547 1.0443396-2.343396 1.3924528.348113-.6537736 1.035849-1.97830186 1.375471-2.63207544-.789622-2.08018868-.832075-4.23679245-.798113-6.3764151-.229245.00849057-.670755.0254717-.891509.03396227-1.027359 4.01603773-.050944 8.37169807-.577359 12.51509437h-.365094c-.883019-4.559434-.433019-9.22924532-.500944-13.83962267z"/><path d="m168.936792 2.36037736c.084906-3.1754717 2.054717.16132075 3.15.56886792l-.526415-2.42830188c1.231132.92547169 2.470755 1.85094339 3.701887 2.78490566-1.621698.00849056-3.234906.00849056-4.848113.00849056.169811.84905661.517924 2.54716981.696226 3.39622642.925472-1.02735849 1.893397-2.01226415 2.903774-2.96320755-.653774 1.48584906-1.417925 2.92075472-2.190566 4.35566038.560377.46698113 1.129245.93396226 1.698113 1.40094339.339623-.56886792 1.010377-1.70660377 1.34151-2.27547169.025471.67075471.084905 2.02075471.110377 2.69150943l-1.248113-.25471698c.195283 1.48584908.475471 2.96320758.764151 4.43207548-.628302-.6367925-1.248114-1.2820755-1.859434-1.9358491-.628302 3.718868-4.95 2.3773585-7.582076 2.25-.212264-.6028302-.619811-1.8-.823585-2.4028302-1.001886.823585-1.978302 1.664151-2.971698 2.4962265.382076-1.0273585.789623-2.0462265 1.180189-3.0650944 1.061321-.2292453 2.122641-.4415094 3.183962-.6877358-.025472 1.0018868-.042453 2.0037736-.050943 3.0056603 2.09717.0679246 4.219811-.0084905 6.232075-.6877358.458491-1.4179245 1.460378-3.41320755-.45849-4.22830189-1.001887.67924529-2.071698 1.18018869-3.268868.75566038-1.18868-.18679245-2.39434-.30566038-3.574529-.53490566-.144339-.77264151-.45-2.31792453-.594339-3.09056604-.908491 1.62169812-1.358491 3.47264151-2.453774 4.99245281.500944-2.8443396 1.05283-5.68867922 1.129245-8.58396224 2.114151.01698113 4.236793.01698113 6.359434 0zm-6.274528 2.11415094c2.300944-.05094339 4.627359-.38207547 6.928302-.05094339-2.199057.78113207-4.610377.49245283-6.792453 1.35 1.918868.27169811 3.863208.27169811 5.807547.33113207 0 .88301887.016982 2.6490566.016982 3.53207547 2.954716-1.31603773 1.171698-4.09245283.840566-6.34245283-2.283963.15283019-5.026416-.73867924-6.800944 1.18018868zm3.022642 2.51320755c-.433019 1.30754717.084905 1.73207547 1.570754 1.28207547.433019-1.2990566-.084905-1.7235849-1.570754-1.28207547z" fill-rule="nonzero"/><path d="m1.13773585 2.11415094c4.12641509-.51792452 8.30377358-.21226415 12.45566035-.28018868l-.0084905 1.03584906c-1.8849057 0-3.76981136 0-5.65471702 0-.10188679 1.15471698-.20377359 2.31792453-.30566038 3.48113208 2.4537736.20377358 5.2386792-.67075472 7.4122642.83207547-2.0462265.22075471-4.1009434.24622641-6.15566042.26320755.00849056 1.99528301.03396226 3.99056608.09339622 5.98584908 1.2311321.0084905 2.4707547-.0339623 3.7018868-.1273585.6707547-.9 1.3245283-1.8 1.9613207-2.7254717-.3226415 1.1971698.0764151 2.7933962-.9933962 3.6933962-1.8254717.2462264-3.66792451.1358491-5.50188677.1188679-.29716981-2.2330188-.37358491-4.48301883-.51792453-6.73301883-1.20566038 3.31132073-3.48113207 6.65660373-7.26792453 7.12358493 2.42830189-2.1056604 5.22169812-4.0415095 6.18962265-7.30188682-2.09716982-.0509434-4.19433963-.06792453-6.27452831-.30566038 1.86792453-1.33301887 4.26226415-.70471698 6.39339623-.88301887.04245283-.84056603.11886792-2.52169811.15283019-3.36226415-1.90188679-.10188679-3.96509434.22924529-5.68018868-.81509434z"/><path d="m96.7245283 2.09716981c4.3132077-.11037736 8.9490567-1.06132075 13.0754717.50943396-2.09717.26320755-4.219811.28867925-6.333962.30566038-.076415.85754717-.220755 2.56415094-.29717 3.42169811 2.513207.11037736 5.204717-.4245283 7.548113.73018868-2.080189.33113208-4.194339.36509434-6.3.39056604.016981 1.96981132.033962 3.93962262.076415 5.90094342 1.417925.0169811 2.827359.0339622 4.245283.0339622.093396-.5518868.280189-1.6556603.373585-2.2075471.314151.0424528.950944.1188679 1.265094.1613207-.322641.959434-.594339 1.9273585-1.018867 2.8443396-1.935849.4160378-3.922642.1867925-5.866982.0933963-.127358-2.309434-.127358-4.62735852-.118867-6.93679248-1.451887 3.25188678-3.4641514 7.14056608-7.5481137 7.27641508 2.6660377-1.8339622 5.2216977-3.9311321 6.2575467-7.13207545-2.1396222-.05943397-4.2962259-.08490567-6.4188675-.41603774 1.9952831-1.01886793 4.2792453-.68773585 6.4358495-.76415094.067924-.84056604.220754-2.52169812.297169-3.36226415-1.910377-.08490567-3.9396222.13584905-5.6716977-.84905661z"/><path d="m140.196226 2.06320755c3.693397-.95943397 7.531132-.56886793 11.300944-.61132076.033962 1.78301887.067924 3.56603774.101887 5.34905661-1.749057.10188679-3.498114.21226415-5.23868.33962264.628302 1.56226415.653774 3.66792456 2.224529 4.68679246 1.732075 1.1207547 3.693396 1.8254717 5.510377 2.8103773-2.963208.0679246-5.612264-1.2990566-7.633019-3.3792452-1.638679 1.4943396-3.532075 2.6320754-5.476415 3.6764151l-.169811.3481132h-.416038c-.195283-.2801887-.585849-.8320755-.781132-1.1037736 1.732075-.7896227 3.778302-1.2650944 5.051887-2.7849057.764151-1.3584905 1.146226-2.87830186 1.681132-4.32169809-1.086793-.07641509-3.260378-.22075472-4.34717-.28867925.237736.67924529.704717 2.04622642.942453 2.7254717-.874528.67075474-1.749057 1.33301884-2.649057 1.96981134.543396-.9084906 1.103774-1.80849058 1.672642-2.70000002-.399057-.9254717-.806604-1.84245283-1.19717-2.77641509 3.260377-.01698113 6.520755-.01698113 9.789623-.0254717l-.076416-1.36698113c-3.116037 0-6.266037.16132075-9.339622-.48396227 3.107547-.44150943 6.240566-.36509434 9.373585-.36509434l.016981-1.3245283c-3.44717 0-6.919811.15283019-10.34151-.3735849z"/><path d="m22.4915094 4.54245283c1.409434.10188679.764151 3.38773585-.5518868 3.09056604-.4754717-.9509434-.2632075-2.37735849.5518868-3.09056604z"/><path d="m31.4150943 7.6245283.5179246-1.41792453c.2886792 2.42830189.2377358 4.87358493.3056603 7.31037733.4839623-.0254717 1.468868-.0849056 1.9613208-.1188679.4754717-.9084906.9679245-1.8 1.4858491-2.6830189-.0679246 1.1377359-.1952831 2.2669812-.4075472 3.3877359-1.2905661.390566-2.6575472.2716981-3.9905661.3226415l.0169812-.5433962c.0509434-2.0886793.1103773-4.16886795.1103773-6.2575472z"/><path d="m29.2839623 7.08113208c.1273585.28867924.3820754.86603773.5094339 1.15471698-.1867924 2.47075474-1.4264151 5.25566034-3.8292453 6.26603774l-.0424528-.2716981c1.4264151-2.2245283 2.8528302-4.50849059 3.3622642-7.14905662z"/><path d="m150.639623 8.61792453c2.10566-1.05283019.577358 3.18396227-.883019 2.41132077-.212264-.9424528.084905-1.74905662.883019-2.41132077z"/><path d="m167.264151 10.3584906c1.095283-.4075472 2.581132 1.1716981 2.165094 2.25-1.120754.45-2.564151-1.1716981-2.165094-2.25z"/></g><path d="m.13584906.44150943c1.21415094-.3735849 2.86132075 1.34150944 2.34339622 2.54716982-1.19716981.38207547-2.81037736-1.38396227-2.34339622-2.54716982z" fill="#007f4a" opacity=".67" transform="translate(48.396226 62.396226)"/><path d="m.93396226.45849057c1.21415095-.36509434 2.84433963 1.36698113 2.3264151 2.55566037-1.18867925.33113208-2.85283019-1.37547169-2.3264151-2.55566037z" fill="#00814b" opacity=".68" transform="translate(69.622642 62.396226)"/><path d="m.85754717.00849057c.50943396.28867924 1.52830189.88301886 2.03773585 1.17169811l-.29716981-.70471698.22924528.03396226c2.94622642.63679246 5.96886793.34811321 8.94905661.5264151l.8066038.22924528c-1.8509434.22924528-3.71037739.26320755-5.56981135.24622641.15283019.46698114.46698113 1.4009434.62830188 1.86792453 0 2.08867925-.05943396 4.16886793-.11037735 6.25754717-.31415095-1.46886792-.61132076-2.94622641-.9254717-4.4235849-.14433963-.30566038-.43301887-.91698113-.58584906-1.22264151-.12735849-.28867925-.38207547-.86603774-.50943396-1.15471698-.14433962-.33962264-.44150944-1.01886793-.58584906-1.35849057-1.20566038.32264151-2.41132075.63679245-3.61698113.95943396.16132075 2.52169812.41603774 5.04339623.84056604 7.54811321l.04245283.27169814c-.36509434-.0849057-1.08679246-.254717-1.45188679-.33962267.54339622-3.27735849.33113207-6.61415094.11886792-9.90849056z" fill="#00be6e" transform="translate(27.169811 65.792453)"/></g></svg>