<svg height="90" viewBox="0 0 180 90" width="180" xmlns="http://www.w3.org/2000/svg"><g fill="#a2d840" fill-rule="evenodd" transform="translate(5 15)"><path d="m21.44 0h6.12c6.86 1.96 14.4 5.01 17.36 12.05 8.3 12.47.16 31.94-14.73 34.27-.14 2.58-.42 7.75-.56 10.34-.88 4.41-6.69 5.56-9.49 2.16-.17-3.88-.25-7.76-.25-11.65-6.64-2.85-14.01-5.92-16.64-13.37-5.68-10.81-.78-26.02 10.46-31.06 2.47-1.19 5.19-1.72 7.73-2.74zm-1.12 10.34c-3.57 1.43-7.03 3.71-8.63 7.35-4.16 7.56 1.15 17.45 9.21 19.49 10.18 3.32 21.04-8.12 17.02-18.12-1.62-3.8-4.57-9.56-9.62-7.46-.69-3.58-6.31-.11-7.98-1.26z" fill-rule="nonzero"/><path d="m131.17 8.08h6.69c.75 2.21 1.18 4.49 1.32 6.83 5.21 0 10.41.09 15.6.28 2.67 1.67 2.67 4.7 2.14 7.66-4.96 4.11-12.12 1.21-17.93 2.22.81 3.76-1.86 9.32 2.27 11.75 6.66 3.1 5.45-4.16 7.01-7.57 1.98-.99 5.3-2.6 7.03-.55 3.2 2.24 2.02 7.3.72 10.33-2.93 8.25-14.91 10.93-21.4 5.4-7.05-5.44-5.6-15.64-5.66-23.44.44-4.27-1.06-9.43 2.21-12.91z"/><path d="m20.31 12.31c9.53-2.04 3.7.63 1.4 1.42-5.98 2.28-8.33 9.37-6.6 15.21.16 2.2 2.77 2.93 3 5.05-2.54-.48-3.82-2.48-4.28-4.89-2.62-6.14.22-14.28 6.48-16.79z"/><path d="m52.26 15.17c5.75-3.22 8.72 3.48 7.71 7.82-.08 6.9.46 13.92-.27 20.76-.86 4.61-7.38 4.65-9.51 1-.3-8.9-.33-17.81-.12-26.71-.03-1.34 1.46-1.94 2.19-2.87z"/><path d="m63.18 15.07c4.34-2.19 10.03 2.04 7.78 6.92.35 4.75-2.44 17.49 6.81 14.9 3.41-5.33-.57-13.03 2.01-19 .46-6.04 13.18-3.64 9.22 3.1-.71 6.19 1.63 13.03-1.18 18.86-4.85 10.79-23.72 9.25-25.83-2.83-.87-6.9-3.17-15.78 1.19-21.95z"/><path d="m93.25 15.19c8.25 1.02 17.97-2.88 25.47 1.49 2.65-3 8.25-2.68 8.99 1.61.12 8.83 1.31 17.99-.75 26.65-.85 4.06-7.14 2.78-8.77-.19-.5-7.97.08-15.95-.31-23.92-3.56 5.95-8.25 11.04-13.04 16 3.98-.61 8.37.21 11.02 3.39 2.1 3.29-.38 4.88-2.11 6.59-7.57.25-15.15.38-22.71.13-4-.51-2.44-7.21-.07-8.98 3.14-5.07 7.72-8.99 11.14-13.88-3.07-1.21-8.15 1.66-10.41-1.77-2.42-2.15-.61-5.72 1.55-7.12z"/><path d="m161.26 15.17c4.33-2.35 9.92 2.02 7.72 6.82-.02 7.32.22 14.65-.05 21.97-.98 4.2-7.71 4.45-9.74.79-.3-8.9-.33-17.81-.12-26.71-.03-1.34 1.46-1.94 2.19-2.87z"/><path d="m161.28 49.2c5.26-2.18 11.07 4.16 7.8 8.84-2.24 4.48-9.64 3.53-10.78-1.34-2.28-3.74 1.05-5.45 2.98-7.5z"/></g></svg>