<svg height="90" viewBox="0 0 180 90" width="180" xmlns="http://www.w3.org/2000/svg"><g fill="none" transform="translate(0 23)"><path d="m3.73707692 8.71946154h4.191c.24 0 .433-.19546154.43346154-.43361539 0-.00153846-.05084615-3.59115384-.05084615-4.58938461v-.01184616c0-.81984615.17207692-1.53461538.47176923-2.13361538l.14323077-.269c-.0184335.00346549-.03526278.01277014-.048.02653846l-8.13784616 8.06984616c-.01490921.01224065-.02557034.02887849-.03046153.04753846.16830769-.0833077.39846153-.19715385.431-.21146154.7086923-.31976923 1.568-.495 2.5966923-.495zm32.58984618-.87869231c-.3326923-1.78092308-1.3915385-2.65861538-2.3488462-3.00369231-1.0328461-.37330769-3.1270769-.76-5.7584615-1.07015384-2.117-.2493077-4.6052308-.22946154-6.1082308-.183-.1804615-1.23553846-1.047-2.3643077-2.0166923-2.75507693-2.5836923-1.03992307-6.5753846-.7886923-7.6003846-.50146153-.8143846.22761538-1.7158462.69407692-2.2175385 1.41292307-.33646151.48015385-.55415382 1.09530769-.55584612 1.95469231 0 .48638462.01353846 1.63215385.02592307 2.65015385.0123077 1.02115384.02569231 1.93446153.02569231 1.9406923-.00046154.90915385-.73730769 1.64907693-1.65046154 1.65023077h-4.18892307c-.89353847 0-1.57623077.15015388-2.09776923.38707688-.5223077.2371539-.89223077.5568462-1.1733077.935077-.55946153.7510769-.65661538 1.677923-.65430769 2.6237692 0 0 .00823077.7729231.19446154 2.2689231.15484615 1.1575384 1.41015385 9.2438461 2.60246154 11.7032307.46230769.9567693.77023077 1.3553077 1.67846154 1.7771539 2.02361538.8663846 6.64584615 1.8302308 8.81223075 2.1062308 2.1624616.2766923 3.5196923.8583077 4.3285385-.8376154.0026923-.0043077.1619231-.4219231.3811538-1.0346923.7022308-2.1279231.7998462-4.016.7998462-5.3823077 0-.139.2038461-.1453077.2038461 0 0 .9645384-.1843077 4.3780769 2.3943077 5.2937692 1.0178462.361 3.1296154.6828462 5.2752308.9343077 1.9400769.2228462 3.3479231.9863846 3.3479231 5.9637692 0 3.0281539-.636077 3.4434616-3.9611539 3.4434616-2.6953846 0-3.7226923.0697692-3.7226923-2.0716154 0-1.7306923 1.7116923-1.5493846 2.9803077-1.5493846.5666154 0 .1553846-.4214616.1553846-1.4891539 0-1.0622307.6643077-1.6761538.036-1.6916923-4.3866923-.1206923-6.9679231-.005-6.9679231 5.4812308 0 4.9805384 1.906 5.9053846 8.132077 5.9053846 4.8815384 0 6.6023077-.1597692 8.6178461-6.4139231.3990769-1.2346154 1.3636154-5.0023077 1.9473077-11.3285384.3693077-3.9999231-.3476923-16.0726923-.9164615-19.11976927zm-8.5094616 13.34423077c-.6030769-.0210769-1.1831538.017-1.7240769.1039231.1522308-1.2294616.6596923-2.7380769 2.4573846-2.6749231 1.99.0684615 2.2688462 1.9493077 2.2759231 3.2233077-.8390769-.3741539-1.8778461-.6125385-3.0092308-.6523077z" fill="#807f83"/><g fill="#7ac143"><path d="m178.563769 13.6965385c.772154 0 1.394462.6256923 1.394462 1.3942307 0 .7711539-.622308 1.3984616-1.394462 1.3984616-.773461 0-1.395692-.6273077-1.395692-1.3984616.000077-.7685384.622154-1.3942307 1.395692-1.3942307zm0 2.5463846c.623154 0 1.133308-.5086923 1.133308-1.1521539 0-.6428461-.510308-1.1505384-1.133308-1.1505384-.624154 0-1.134154.5076923-1.134154 1.1505384 0 .6434616.51 1.1521539 1.134154 1.1521539zm-.595154-1.9496923h.613539c.394154 0 .598615.1376923.598615.4594615 0 .2910769-.185.4123077-.412154.4543077l.429539.682h-.300077l-.419385-.6691538h-.246923v.6691538h-.262923v-1.5957692zm.262923.6827692h.350539c.254385 0 .333692-.0869231.333692-.2365385 0-.1481538-.125923-.2012307-.333692-.2012307h-.350539z"/><path d="m.04630769 14.6778462h1.87538462l.09046154-11.9818462h-1.96584616v-2.29884615h12.43369231l.1515385 4.65930769h-2.4506154l-.21138464-2.36046154h-4.69l-.03038461 4.68923077h4.75038461v2.30015385h-4.78030769l-.02976923 4.99230768h4.71953846l.3029231-2.6638461h2.6620769l-.3025385 4.9625384h-12.52515381zm32.37146151-11.9818462h-1.5727692l-5.9008462 14.2804615h-3.3876153l-5.9304616-14.2804615h-1.6640769v-2.29884615h7.0806923v2.29884615h-1.6643077l4.084 11.2555385h.06l4.0544616-11.2555385h-1.996v-2.29884615h6.836923zm1.6333846 11.9818462h1.8753847l.0910769-11.9818462h-1.9663846l-.000077-2.29884615h12.4336924l.1515384 4.65930769h-2.4502308l-.2121538-2.36046154h-4.6896923l-.0301539 4.68923077h4.7503847v2.30015385h-4.7799231l-.0309231 4.99230768h4.7193846l.3036154-2.6638461h2.6622308l-.3029231 4.9625384h-12.5246923zm15.9439231 0h1.8753846l.0906154-11.9818462h-1.966v-2.29884615h7.6542308c3.8433846 0 5.0824615 2.20876923 5.0824615 4.35638461 0 1.90623077-.9370769 3.63092308-3.9028461 4.38715385v.06023077c1.5428461.42323077 1.9375384.81700002 3.4800769 3.47969232 1.0274615 1.7249231 1.3906923 1.9971538 1.9664615 1.9971538.2415385 0 .4832308-.0610769.6953847-.0907692v2.3895385l-1.6948462-.0001539c-2.2391538 0-2.5096923-.2713077-4.2642308-3.7517692-1.5747692-3.0856154-1.9378461-3.29700002-3.1480769-3.29700002h-.6643846l-.0308462 4.75030772h1.9655385v2.2986154h-7.1391538v-2.2987693h.0002307zm5.2349231-7.05038466h1.3000769c1.7843077 0 2.9939231-.96769231 2.9939231-2.51015385 0-1.513-.7548462-2.42123077-2.2685385-2.42123077h-1.9975384zm24.9592308-4.93146154h-1.9673077v-2.29884615l6.5043077-.00007693v2.29892308h-1.876l-.0906154 14.2804615h-2.4807692l-8.8647693-11.79923073h-.06l-.0915384 9.50061543h1.9674615v2.2986153h-6.5047692v-2.2986153h1.875923l.0906154-11.98192312h-1.9663077v-2.29884616h4.9013847l8.4106923 11.22469228h.0604615zm13.945923-2.63276923c5.7188462 0 8.2296152 3.78207692 8.2296152 8.38184615 0 5.23384618-3.1170767 8.86361538-8.2296152 8.86361538-5.7183846 0-8.2294615-3.7813077-8.2294615-8.40923076-.0000769-5.20376923 3.1151539-8.83623077 8.2294615-8.83623077zm0 14.58384613c3.085 0 4.8395385-2.633 4.8395385-5.9910769 0-3.78061538-2.0556154-5.92892308-4.8395385-5.92892308-3.0863846 0-4.8407692 2.63176923-4.8407692 6.05076923 0 3.72146155 2.0573846 5.86923075 4.8407692 5.86923075zm13.4326152.0307693h1.874462l.090461-11.9818462h-3.325923l-.123615 2.36046154h-2.508769l.179692-4.65930769h14.857l.181308 4.65930769h-2.512231l-.120769-2.36046154h-3.328l-.090923 11.9818462h1.965615v2.2986923h-7.138077v-2.2986923zm13.067923 0h1.876077l.091539-11.9818462h-1.967616v-2.29884615h12.436308l.150077 4.65930769h-2.449846l-.211693-2.36046154h-4.689461l-.030308 4.68923077h4.748308v2.30015385h-4.778846l-.030846 4.99230768h4.719384l.304385-2.6638461h2.660538l-.301307 4.9625384h-12.526693z" transform="translate(43 13.307692)"/></g></g></svg>