<svg height="90" viewBox="0 0 180 90" width="180" xmlns="http://www.w3.org/2000/svg"><g fill="#040000" transform="translate(0 24)"><path d="m13.8325123.26600985h-13.21182265c-.22167487 0-.39901477.1773399-.39901477.39901478v2.21674877c0 1.46305419 1.19704433 2.66009852 2.83743842 2.74876847v22.30049263c-1.19704433.4433497-1.59605911 1.729064-1.59605911 3.1477832v1.7290641c0 .2216749.1773399.3990148.39901478.3990148h11.88177343c9.2660098 0 13.7881773-7.0935961 13.7881773-16.226601 0-9.13300496-4.4334975-16.71428575-13.6995074-16.71428575zm-.1773399 27.66502465c-.044335 0-4.25615762 0-4.92118225 0-.04433498 0-.08866995-.044335-.08866995-.08867v-22.16748765c0-.04433498.04433497-.08866995.08866995-.08866995h4.74384235.1330049c5.5862069 0 8.5123153 4.9211823 8.5123153 10.9950739s-2.8817734 11.3497537-8.4679803 11.3497537z"/><path d="m75.0591133 11.1280788c0-1.41871919 1.1527094-2.57142855 2.5270936-2.57142855h2.1280788c.2216749 0 .3990148.1773399.3990148.39901477v21.63546798c0 1.4187192-1.1527094 2.5714286-2.5270936 2.5714286h-2.1280788c-.2216749 0-.3990148-.1773399-.3990148-.3990148zm0-5.27586205v-3.19211823c0-1.41871921 1.1527094-2.57142857 2.5270936-2.57142857h2.1280788c.2216749 0 .3990148.1773399.3990148.39901478v4.69950739c0 .22167488-.1773399.39901478-.3990148.39901478h-3.591133c-.3990148.04433497-.7536946.13300492-1.0640394.26600985z"/><path d="m101.881773 15.8719212c.17734 0 .35468.1330049.399015.3103448.133005.6206897.17734 1.2413793.17734 1.906404 0 5.275862-4.2118226 9.5320197-9.3990147 9.5320197s-9.3990148-4.2561577-9.3990148-9.5320197c0-5.2758621 4.2118227-9.53201975 9.3990148-9.53201975h8.9999997c.221675 0 .399015.1773399.399015.39901477v2.17241378c0 1.4187192-1.152709 2.5714286-2.5270935 2.5714286h-6.8719212c-2.3940887 0-4.3448276 1.9507389-4.3448276 4.3891626 0 2.4384236 1.9507389 4.3891625 4.3448276 4.3891625 2.2610837 0 4.2118227-1.729064 4.3448276-4.0344827.0886699-1.5960592 1.1527093-2.5714286 2.5270936-2.5714286z"/><path d="m23.0985222 11.8817734c.2216748 0 .3990147-.1773399.3990147-.3990148-.2216748-6.29556648-5.320197-11.34975367-11.5714285-11.34975367-6.25123155 0-11.34975372 5.05418719-11.5714286 11.34975367 0 .2216749.1773399.3990148.39901478.3990148h4.25615764c.22167487 0 .39901478-.1773399.39901478-.3990148.1773399-3.45812806 3.01477832-6.20689653 6.5172414-6.20689653 3.4581281 0 6.2955665 2.74876847 6.5172414 6.20689653 0 .2216749.1773399.3990148.3990147.3990148z" transform="translate(81.133005 29.704433)"/><path d="m124.935961 18.2216749c0-5.3201971-3.901478-9.53201973-9.53202-9.53201973-5.763547 0-9.399015 4.21182263-9.399015 9.53201973v14.2315271c0 .2216748.17734.3990147.399015.3990147h2.128079c1.418719 0 2.704433-1.1970443 2.704433-2.6157635v-12.1477832c0-2.4384237 1.817734-4.3891626 4.211823-4.3891626s4.211823 1.9507389 4.211823 4.3891626v14.320197c0 .2216749.177339.3990148.399014.3990148h2.216749c1.418719 0 2.615764-1.1970444 2.615764-2.6157636v-11.9704433z"/><path d="m143.955665 8.86699507c-1.418719 0-2.527094 1.15270933-2.527094 2.57142853v12.1034483c0 2.4384237-2.039408 4.3891626-4.433497 4.3891626s-4.433498-1.9507389-4.433498-4.3891626v-14.27586205c0-.22167487-.17734-.39901478-.399014-.39901478h-1.995074c-1.41872 0-2.438424 1.19704433-2.438424 2.57142853v12.0591133c0 5.3201971 3.901478 9.5320198 9.310345 9.5320198 5.719212 0 9.576355-4.3004927 9.576355-9.5320198v-14.23152705c0-.22167487-.17734-.39901478-.399015-.39901478z"/><path d="m5.408867 21.1034483v9.4876847c0 1.4187192-1.15270936 2.5714286-2.5270936 2.5714286h-2.12807882c-.22167488 0-.39901478-.1773399-.39901478-.3990148v-21.2807882c0-6.29556648 4.87684729-11.39408865 10.862069-11.39408865 5.9852216 0 10.8620689 5.09852217 10.8620689 11.39408865 0 6.2955665-4.8768473 11.3940887-10.8620689 11.3940887-2.12807885 0-4.12315274-.6650246-5.8078818-1.773399zm5.8078818-3.3694582c3.1921182 0 5.8078817-2.7931034 5.8078817-6.2512315 0-3.45812806-2.5714285-6.25123151-5.8078817-6.25123151-3.19211826 0-5.8078818 2.79310345-5.8078818 6.25123151 0 3.4581281 2.57142857 6.2512315 5.8078818 6.2512315z" transform="translate(148.965517 8.423645)"/><path d="m58.9655172 15.8719212c0-1.4187192 1.6403941-2.5714286 3.8571429-2.5714286 1.5960591 0 2.9704433.6206897 3.591133 1.4630542.4433498.6650246 1.2413793 1.1083744 2.0837438 1.1083744h.08867 2.8374384c.2216749 0 .3990148-.1773399.3990148-.4433498-.2660099-3.8571428-4.2118227-6.91625613-9.044335-6.91625613-5.0098522 0-9.044335 3.28078813-9.044335 7.35960593 0 3.8128079 2.4827587 5.5862069 8.0246306 6.8719212 3.1034483.6650246 5.364532 1.4187192 5.364532 3.1034482 0 1.4187193-1.9507389 2.5270936-4.3448276 2.5270936-1.773399 0-3.3251231-.6650246-3.9901478-1.5517241-.4433497-.3990148-1.0197044-.6206897-1.684729-.6206897-.044335 0-.08867 0-.08867 0h-3.1921182c-.2660099 0-.4433498.2216749-.3990148.4433498.5320197 3.679803 4.5221675 6.5172414 9.3546798 6.5172414 5.1871921 0 9.3990148-3.2807882 9.3990148-7.3596059 0-4.8325124-5.2315271-6.4285715-9.0886699-7.3596059-2.2610838-.5320198-4.1231528-1.1527094-4.1231528-2.5714286z"/><path d="m170.512315 7.49261084 3.945813-6.82758621c.133005-.22167488.35468-.3546798.62069-.3546798s.487684.13300492.620689.3546798l3.945813 6.87192118c.08867.13300493.133005.26600986.133005.39901478 0 .39901478-.310345.70935961-.709359.70935961h-7.980296s0 0-.044335 0c-.399015 0-.70936-.31034483-.70936-.70935961.044335-.1773399.08867-.3546798.17734-.44334975z"/><path d="m46.2413793 23.0098522h4.2118227c.3990147 0 .7536946-.3103448.7980295-.7093596.044335-.4876847.08867-.9753694.08867-1.5517241 0-8.2906404-4.8768473-12.23645323-10.862069-12.23645323s-10.862069 4.07881773-10.862069 12.32512313 4.8768473 12.5024631 10.862069 12.5024631c4.3448276 0 8.4679803-2.6157636 10.2413793-6.6059114.1330049-.2660098-.0886699-.5320197-.3546798-.5320197h-3.502463c-1.2413793 0-1.950739.3990148-2.3940887.7980296 0 0-1.3300493 1.3300493-3.7241379 1.3300493-2.6157636 0-5.0985222-1.3300493-5.8078818-5.1871922 0-.0443349.044335-.0886699.0886699-.0886699h11.0394089.1773399zm-5.8078818-9.6206896c2.6157636 0 5.0541872 1.2413793 5.541872 5.0541872 0 .0443349-.044335.0886699-.08867.0886699h-10.9507389c-.044335 0-.08867-.044335-.08867-.0886699.7980296-3.9014779 2.9704434-5.0541872 5.5862069-5.0541872z"/></g></svg>