<svg height="90" viewBox="0 0 180 90" width="180" xmlns="http://www.w3.org/2000/svg"><g fill="none" fill-rule="evenodd" transform="translate(3 21)"><path d="m16.7284615 0h1.3411539c4.1334615.11423077 8.2203846 1.70076923 11.275 4.50153846 3.7653846 3.32115385 5.9442308 8.31346154 5.9146154 13.32692304-.0338462 1.5442308-.2115385 3.0884616-.6007693 4.5819231-.6853846 2.4284616-1.8234615 4.7511539-3.4607692 6.6761539-1.0534615 1.0873077-3.0884615.5246153-3.5157692-.9053847-.5457693-1.4596153.7911538-2.5934615 1.4003846-3.7738461 3.1434615-5.2503846 1.9630769-12.5653846-2.6484615-16.58038462-3.575-3.29576923-9.0538462-4.30269231-13.5638462-2.47076923-4.47192308 1.69653846-7.71269231 5.99499995-8.32615385 10.71230765-1.35807692-.5965384-2.8176923-.9307692-4.27730769-1.1634615.66-3.8246154 2.51730769-7.45884615 5.37307692-10.10307692 2.97-2.86423077 6.98500002-4.52692308 11.08884612-4.80192308z" fill="#ffc411" transform="translate(16.076923)"/><path d="m1.63730769 8.43615385c2.66115385-5.335 8.77038461-8.68576924 14.70615381-7.91576923 1.4596154.2326923 2.9192308.56692307 4.2773077 1.16346153 2.788077 1.27769231 5.1573077 3.41846154 6.6634616 6.0923077.6853846 1.45538461-.7319231 3.27461535-2.3142308 2.99115385-1.1888462-.11-1.7007692-1.3073077-2.3903846-2.10692308-2.75-3.5623077-8.0130769-4.80615385-12.0830769-2.89384616-3.6765385 1.59076923-6.11346158 5.47884614-6.10923081 9.46423074-1.46384615 0-2.92346154 0-4.38730769 0v-.9434615c.22423077-2.0223077.67692308-4.0446154 1.63730769-5.85115385z" fill="#fc9603" transform="translate(0 14.384615)"/><path d="m.99.05923077c3.11807692-.28346154 6.35038462.45269231 8.91846154 2.28038461 3.34230766 2.26769231 5.44076926 6.12615385 5.74538466 10.13269232v.7319231c-1.4511539.22-2.915.1057692-4.3703847.126923-.0507692-2.9615384-1.55269227-5.87653842-4.06999996-7.47153842-1.98846154-1.34115384-4.50153846-1.65846153-6.82423077-1.21846153.38923077-1.49346154.56692308-3.03769231.60076923-4.58192308z" fill="#6fc653" transform="translate(50.346154 17.769231)"/><path d="m0 0h4.38730769c-.02115384 4.19692308 2.70769231 8.24576923 6.65923081 9.70115385 3.1434615 1.24807695 6.5407692.26653846 9.8026923.65576925-1.5696154.0084615-3.1434616.0253846-4.713077.0507692-.0126923 1.4638462-.0211538 2.9319231-.0042307 4.4h-2.5173077c-4.59038463-.3892308-8.94384617-2.9784615-11.35538463-6.92153845-1.29461538-1.98-1.925-4.29846154-2.25923077-6.62115385z" fill="#ec5b54" transform="translate(0 29.615385)"/><path d="m16.7834615.21576923c1.4553847-.02115384 2.9192308.09307692 4.3703847-.12692308v1.09153847c-.4188462 6.56615384-6.1726924 12.28192308-12.80653851 12.35807688h-1.84884615c-.00423077-1.4723077-.00423077-2.9446153 0-4.41692304-2.06884616-.02538461-4.13769231 0-6.20653846-.03384615 3.01230769-.30461539 6.04153846.19038461 9.04538461-.11 4.20538461-.58384616 7.46307691-4.55230769 7.44615381-8.76192308z" fill="#00aee5" transform="translate(44.846154 30.884615)"/><path d="m.05923077.25384615c1.56961538-.02538461 3.14346154-.04230769 4.71307692-.05076923 8.09769231.03807693 16.19115381.0423077 24.28884611 0 2.0688462.03384616 4.1376924.00846154 6.2065385.03384616-.0042308 1.47230769-.0042308 2.94461538 0 4.41692307h-35.2126923c-.01692308-1.46807692-.00846154-2.93615384.00423077-4.4z" fill="#a953ab" transform="translate(16.076923 39.769231)"/><path d="m78.4193335 11.252c1.638 1.3 3.016 2.574 4.134 3.848l-1.274 1.3c-1.014-1.248-2.392-2.548-4.16-3.926zm-3.016 7.514h5.434v11.544c.936-.78 1.95-1.664 3.016-2.678l.52 1.976c-1.638 1.534-3.38 2.886-5.2 4.082l-.728-1.664c.364-.364.572-.754.572-1.17v-10.296h-3.614zm9.23 3.042h12.376v1.716c-.832 2.444-2.184 4.55-4.082 6.318 1.768 1.222 3.926 2.288 6.474 3.224l-1.014 1.612c-2.704-1.092-4.992-2.314-6.812-3.718-2.08 1.56-4.654 2.782-7.696 3.718l-1.04-1.586c2.886-.858 5.304-1.976 7.254-3.354-1.976-1.82-3.302-3.848-4.03-6.11h-1.43zm3.198 1.82c.676 1.872 1.872 3.562 3.588 5.044 1.664-1.456 2.912-3.12 3.744-5.044zm-1.196-11.856h8.736v5.616c0 .65.338.988 1.014.988h2.392v1.716h-2.86c-1.612 0-2.392-.78-2.392-2.314v-4.238h-5.044v.91c0 2.756-1.352 4.888-4.004 6.396l-1.248-1.43c2.262-1.118 3.406-2.704 3.406-4.758zm22.0393335 6.786h7.046v-7.826h1.924v7.826h6.682v1.872h-6.682v14.222h-1.924v-14.222h-7.046zm-5.096-7.54c1.768 1.326 3.25 2.652 4.446 4.004l-1.274 1.3c-1.092-1.274-2.6-2.626-4.472-4.03zm-3.042 7.696h5.616v11.57c.936-.78 1.976-1.664 3.068-2.704l.468 1.924c-1.612 1.56-3.354 2.938-5.2 4.16l-.728-1.69c.39-.312.598-.676.598-1.092v-10.374h-3.822zm25.237333 6.448h15.834v-1.638h1.872v1.638h5.72v1.82h-5.72v5.512c0 1.456-.806 2.184-2.366 2.184h-3.328l-.416-1.846c1.092.078 2.106.13 3.094.13.754 0 1.144-.312 1.144-.936v-5.044h-15.834zm19.5-13.39v6.188h-14.898v1.872c0 .702.39 1.066 1.118 1.066h13.91c.52-.026.858-.208 1.066-.52.156-.286.312-.962.416-2.054l1.768.572c-.13 1.17-.312 2.002-.52 2.522-.364.78-1.092 1.17-2.184 1.222h-15.132c-1.56 0-2.314-.728-2.314-2.132v-8.736zm-14.898 4.472h13.026v-2.782h-13.026zm1.378 11.518c1.742 1.352 3.198 2.73 4.394 4.082l-1.404 1.404c-1.04-1.326-2.496-2.73-4.316-4.212zm30.229333-13.65h4.914c-.364-1.144-.78-2.21-1.248-3.172l1.95-.312c.416 1.014.806 2.184 1.222 3.484h4.966v1.846h-11.804zm-11.206 7.982h1.768v-8.658h2.86c.338-.936.598-1.872.78-2.834l1.95.26c-.208.936-.468 1.794-.806 2.574h3.562v18.798c0 1.456-.702 2.184-2.08 2.184h-2.184l-.468-1.742c.754.052 1.456.104 2.106.104.572 0 .884-.39.884-1.17v-7.8h-4.914c-.104 4.472-.806 8.086-2.106 10.868l-1.456-1.326c1.144-2.548 1.768-5.72 1.846-9.542h-1.742zm8.372 0v-6.916h-4.888v6.916zm-2.808-5.59c.728 1.144 1.352 2.444 1.924 3.926l-1.404.364c-.494-1.326-1.118-2.6-1.872-3.848zm.078 8.736c.676 1.404 1.3 2.99 1.872 4.81l-1.508.416c-.468-1.664-1.092-3.25-1.82-4.758zm4.732 8.138c.962-1.196 1.638-2.496 2.054-3.848.338-1.222.52-2.99.52-5.278v-5.434h7.254v13.26c0 .338.156.52.494.52h.624c.182 0 .338-.052.494-.104.104-.052.208-.156.26-.26.13-.234.208-1.43.208-3.614l1.69.52c0 1.482-.052 2.626-.156 3.406-.104.65-.312 1.118-.65 1.378-.338.208-.884.312-1.612.312h-.91c-1.482 0-2.21-.676-2.21-1.976v-11.726h-3.718v3.718c0 2.314-.208 4.238-.624 5.798s-1.17 3.094-2.288 4.602z" fill="#272e2e"/></g></svg>