<svg height="90" viewBox="0 0 180 90" width="180" xmlns="http://www.w3.org/2000/svg"><g fill="#e82954" fill-rule="evenodd" transform="translate(0 20)"><path d="m143.920879.76153846c5.103297-.67252747 10.275824-.28681318 15.418681-.34615384 7.516484-.06923077 14.943956 3.83736263 19.147253 10.06813188 2.017583 2.9769231-1.958242 6.8142857-4.964835 5.132967-2.482418-1.8296703-4.292308-4.5593406-7.2-5.8153846-5.627473-2.67032967-12.065934-1.17692308-18.059341-1.56263736-8.436263-.44505495-16.20989 7.05164836-15.962637 15.52747256-.187912 8.0604395 6.863736 15.3989011 14.934066 15.4879121 5.172527-.0494506 10.404396.4054945 15.537363-.3263737 3.906593-.7021978 6.903296-3.4318681 9.504395-6.2406593 1.958242-2.2054945 6.151649-1.0978022 6.636264 1.8593406.435165 1.3549451-.534066 2.5813187-1.265934 3.6098902-3.936264 4.9945055-9.939561 8.3670329-16.308791 8.821978-4.687912.1978022-9.375825.1087912-14.063737.0593406-6.032967-.0989011-11.957142-2.7098901-16.140659-7.0516483-5.42967-5.4989011-7.813187-13.8065934-6.042857-21.3428572 1.918681-9.02967029 9.702198-16.45714281 18.830769-17.88131864z"/><path d="m2.36373626 1.33516484c2.16593407-2.08681319 6.3-.40549451 6.3 2.61098901.20769231 8.23846155-.05934066 16.48681315.10879121 24.72527475.00989011 4.4505494 3.79780223 7.7934066 7.78351653 9.0296703 6.4681318 2.067033 13.5 2.0175824 20.1362637.8505495 4.678022-.8505495 10.078022-3.6 10.6615385-8.8615385.3461538-8.6142857-.0791209-17.2582418.1978022-25.87252748.0890109-3.02637363 4.2923076-4.54945055 6.3791208-2.3934066 1.6120879 1.33516484 1.2065934 3.61978022 1.2956044 5.45934066-.0692307 7.27912092.0692308 14.54835162-.0692307 21.81758242-.0989011 5.2813187-2.7197803 10.5131868-7.1802198 13.4307692-6.210989 4.1736264-13.9747253 4.8758242-21.2637363 4.7868132-6.7747253-.1879121-13.9846154-1.3351648-19.46373625-5.6274725-4.12417582-3.1747253-6.32967033-8.4065934-6.25054945-13.5494506-.03956044-7.2791208.00989011-14.5483516-.01978022-21.82747249.00989011-1.6021978-.05934066-3.51098901 1.38461538-4.57912087z"/><path d="m64.621978 1.08791209c1.4835165-1.0978022 3.6098901-.77142857 4.8758242.49450549 5.2615385 4.32197802 10.2758242 8.94065932 15.5571429 13.23296702 2.7494505 2.2252747 6.9725274 2.0967033 9.6428571-.1879121 4.8659341-4.0252747 9.5934068-8.2285714 14.3901098-12.33296701 2.294506-3.44175824 8.317583-1.57252747 7.397802 2.72967033-.316483 1.64175825-1.83956 2.5912088-2.967033 3.64945055-14.9340656 12.49120883-29.6505491 25.24945053-44.6538458 37.66153843-3.2043956 2.6703297-7.8923077-2.2945055-5.1626374-5.3802197 4.8461538-4.7076924 10.443956-8.5945055 15.3296703-13.2527473 2.2153846-2.2549451 1.8197803-6.1516483-.5043956-8.1791209-4.6582417-4.3120879-9.7120879-8.1989011-14.3703296-12.5208791-1.8494506-1.49340659-1.4934066-4.66813187.4648351-5.91428571z"/><path d="m97.2593407 28.0582418c2.5813186-1.2857143 4.7076923 1.176923 6.5472523 2.610989 4.005495 3.5505494 8.436264 6.6461538 12.224176 10.4241758 2.373627 3.0560439-1.869231 7.6747253-5.063736 5.3901099-4.895604-3.7384616-9.524176-7.8428572-14.2714286-11.7791209-2.4230769-1.5428571-2.1263736-5.5582418.5637363-6.6461538z"/></g></svg>