<svg height="90" viewBox="0 0 180 90" width="180" xmlns="http://www.w3.org/2000/svg"><g fill="none" fill-rule="evenodd" transform="translate(0 28)"><g transform="translate(0 5)"><path d="m11.8793366 0h.846243c2.9379005.0638674 5.8279004 1.24541432 7.9035909 3.3370717-.7664088.78237566-1.5487845 1.53281762-2.2992264 2.31519328-1.1655801-1.05381211-2.5706629-1.86812148-4.1034805-2.15552478-2.2672928-.47900551-4.71022086-.04790055-6.61027604 1.24541432-2.07569053 1.35718227-3.48077335 3.6564087-3.78414351 6.11530368-.33530385 2.4269612.35127071 4.9816572 1.93198888 6.8657456 1.51685077 1.8361877 3.83204406 2.9858009 6.22707157 3.0656352 2.2353591.1277348 4.5665192-.5588398 6.1951379-2.1235911 1.277348-1.1017126 1.8681215-2.7782319 2.0597237-4.4068506-2.6504971 0-5.3009943.0159668-7.9514914 0v-3.2891712h11.1608283c.5748066 3.5286739-.2554696 7.5044196-2.9379005 10.0271819-1.7882872 1.7882873-4.263149 2.8420994-6.7859113 3.0496684-2.4429281.2395028-4.96569042-.2235359-7.13718206-1.4050828-2.60259658-1.3891159-4.67828711-3.7362429-5.70016553-6.498508-.95801101-2.5387292-.97397786-5.4127622-.07983425-7.96745828.81430936-2.33116014 2.37906069-4.39088382 4.39088381-5.82790034 1.93198888-1.42104967 4.27911587-2.20342533 6.67414343-2.34712698z" fill="#3780ff"/><path d="m75.906406.83027621h3.4169059v22.80066209c-1.1336463 0-2.2832596.0159669-3.4169059-.0159668.0159668-7.5842539 0-15.18447458 0-22.78469529z" fill="#38b137"/><g fill-rule="nonzero"><path d="m31.0555237 8.73386707c2.1076242-.39917125 4.3908838.04790056 6.1312705 1.30928173 1.5807182 1.1176795 2.6824308 2.874033 3.0177347 4.7900551.4311049 2.2193921-.111768 4.6463534-1.5487845 6.4027069-1.5487845 1.9639226-4.0875137 3.0177347-6.5623754 2.8580662-2.2672928-.1277348-4.4707181-1.2613812-5.8119335-3.1135358-1.5168508-2.0437568-1.8840884-4.8539225-1.0538121-7.24895.8302762-2.5706629 3.1774032-4.53458547 5.8279003-4.99762413zm.4790055 3.03370153c-.8622099.2235359-1.6605524.7185083-2.235359 1.4210497-1.5487845 1.8521546-1.4529834 4.8698893.2554696 6.5943091.9739778.9899447 2.4429281 1.4529834 3.8001103 1.1815469 1.2613812-.2235359 2.3630939-1.0697789 2.9698342-2.1874584 1.0538121-1.9000552.7504419-4.5186186-.8622099-6.0035357-1.0378453-.958011-2.5546961-1.3571823-3.9278452-1.0059116z" fill="#fa3913"/><path d="m47.9803849 8.73386707c2.4109944-.46303865 5.0455247.20756906 6.8497788 1.90005523 2.9379004 2.6345302 3.2572374 7.568287.7504419 10.6019885-1.5168507 1.916022-3.9757457 2.9698341-6.4027069 2.8580662-2.3151933-.0638674-4.5984529-1.2134806-5.971602-3.1135358-1.5487845-2.0916574-1.8840883-4.9656904-1.0059115-7.4086185.8781767-2.4908286 3.1774031-4.39088382 5.7799997-4.83795563zm.4790055 3.03370153c-.8622099.2235359-1.6605524.7185083-2.235359 1.4050828-1.5328176 1.820221-1.4689502 4.7900551.1756354 6.5304418.9739778 1.0378452 2.4908286 1.5487845 3.8959114 1.2613811 1.2454143-.2395027 2.3630939-1.0697789 2.9698342-2.1874584 1.0378452-1.9160221.7344751-4.5345855-.8941437-6.0195026-1.0378452-.958011-2.554696-1.3412154-3.9118783-.9899447z" fill="#fcbd06"/><path d="m62.3345833 9.65994439c1.8361878-1.14961322 4.2791158-1.46895022 6.2590053-.47900551.6227071.27143645 1.1336463.73447511 1.6286187 1.19751372.0159669-.43110491 0-.87817671.0159669-1.32524852 1.0697789.01596685 2.1395579 0 3.2253037.01596685v14.08276187c-.0159669 2.1235911-.5588398 4.374917-2.0916574 5.9237015-1.6765193 1.7084529-4.2471821 2.235359-6.5623754 1.8840883-2.4748618-.3672376-4.6303866-2.1714916-5.5883976-4.4547512.958011-.4630387 1.9639226-.8302762 2.9538673-1.2613812.5588397 1.3092817 1.6924861 2.4269612 3.1135358 2.6824308 1.4210497.2554697 3.0656352-.0958011 3.9917125-1.277348.9899448-1.2134806.9899448-2.874033.9420442-4.3589501-.7344751.7185083-1.5807182 1.3571823-2.6025966 1.596685-2.2193922.6227072-4.6623203-.1437016-6.3707732-1.6445855-1.7244199-1.500884-2.7462983-3.8160772-2.6504972-6.1153037.0479006-2.6025966 1.5168508-5.109392 3.736243-6.46657431zm3.305138 2.04375681c-.9739779.1596685-1.8840883.7025414-2.5067955 1.4529834-1.5008839 1.7882872-1.5008839 4.6463534.0159669 6.4027069.8622099 1.0378453 2.2513258 1.6126519 3.5925413 1.4689502 1.2613811-.1277348 2.4269612-.9260773 3.0496683-2.0277899 1.0538122-1.8681215.8781768-4.4068507-.5428729-6.0354694-.8781767-1.0059116-2.2832595-1.5008839-3.6085081-1.2613812z" fill="#3780ff"/><path d="m83.4267924 10.4742537c1.9160221-1.78828718 4.8698894-2.39502748 7.3287843-1.45298332 2.3311601.87817676 3.8160772 3.09756892 4.5665192 5.38082852-3.4648065 1.4370165-6.9136462 2.8580662-10.3784527 4.2950827.4790055.9101105 1.2134806 1.7403867 2.2034253 2.0756905 1.389116.4949724 3.0496684.3193371 4.2152485-.6067403.4630387-.3512707.8302762-.8143093 1.1815469-1.2613811.8781768.5907734 1.7563535 1.16558 2.6345303 1.7563535-1.2454143 1.8681215-3.3370717 3.1774032-5.5883976 3.3849722-2.4908286.3033702-5.1413257-.6546408-6.7539776-2.6025965-2.6504972-3.0656353-2.3950276-8.2069611.5907734-10.9692262zm1.708453 2.9538673c-.5428729.7823757-.7664088 1.7403867-.7504419 2.6824309 2.3151932-.958011 4.6303865-1.916022 6.9455798-2.8899999-.3832044-.8941436-1.3092817-1.4370165-2.2513259-1.5807182-1.5168508-.2714364-3.0975689.5428729-3.943812 1.7882872z" fill="#fa3913"/></g></g><path d="m119.726562 21.206543h-9.034179v8.793457h-3.440918v-20.6171875h13.919433v2.7612305h-10.478515v6.3012695h9.034179zm3.270997.9912109c0-2.2750765.62304-4.1441984 1.86914-5.6074219 1.264981-1.4632234 2.978342-2.1948242 5.140137-2.1948242 2.199555 0 3.922357.7316008 5.168457 2.1948242 1.25554 1.4537833 1.883301 3.3229053 1.883301 5.6074219v.2973633c0 2.3033969-.627761 4.1819589-1.883301 5.6357422-1.2461 1.4443431-2.959462 2.1665039-5.140137 2.1665039-2.190115 0-3.912917-.7268808-5.168457-2.1806641-1.2461-1.4537833-1.86914-3.3276252-1.86914-5.621582zm3.440918.2973633c0 1.4915439.29264 2.7093052.877929 3.6533203.575849.934575 1.48209 1.4018555 2.71875 1.4018555 1.198899 0 2.0957-.4672805 2.69043-1.4018555.60417-.9440151.90625-2.1617764.90625-3.6533203v-.2973633c0-1.4632235-.30208-2.6668247-.90625-3.6108398-.59473-.9534553-1.500971-1.4301758-2.71875-1.4301758-1.198899 0-2.0957.4767205-2.69043 1.4301758-.585289.9534553-.877929 2.1570565-.877929 3.6108398zm16.737304-7.8164063.198242 2.2089844c.500328-.7835326 1.130449-1.3947732 1.890381-1.8337402.759932-.4389671 1.616613-.6584473 2.570069-.6584473 1.595385 0 2.839107.4838005 3.731201 1.451416s1.338135 2.4756571 1.338135 4.52417v9.6289062h-3.440918v-9.6005859c0-1.1516985-.238361-1.9706194-.715088-2.4567871-.476728-.4861678-1.201249-.7292481-2.173584-.7292481-.670251 0-1.269692.1486802-1.79834.4460449-.528649.2973648-.962889.7056452-1.302734 1.2248535v11.1157227h-3.440918v-15.3212891zm17.586914-3.7241211v3.7241211h2.747071v2.5488282h-2.747071v8.4677734c0 .6324901.13688 1.0832506.410645 1.3522949.273764.2690443.637205.4035645 1.090332.4035645.188803 0 .372883-.01652.552246-.0495606.179363-.0330405.349283-.0778805.509766-.1345215l.368164 2.5205079c-.292645.1604825-.641925.2855627-1.047852.3752441-.405926.0896814-.826007.1345215-1.260254.1345215-1.26498 0-2.256181-.3705204-2.973633-1.1115723-.717451-.7410519-1.076171-1.9045331-1.076171-3.4904785v-8.4677734h-2.336426v-2.5488282h2.336426v-3.7241211zm14.415039 14.8823243c0-.5286485-.22656-.967609-.679687-1.3168946s-1.298008-.6560859-2.534668-.9204101c-1.831389-.3870462-3.216711-.9369268-4.156006-1.6496582-.939295-.7127315-1.408935-1.6826925-1.408935-2.9099121 0-1.2838606.5428-2.3789018 1.628417-3.2851563 1.085618-.9062545 2.515779-1.359375 4.290528-1.359375 1.86915 0 3.353591.4602005 4.453369 1.3806152 1.099778.9204148 1.626058 2.060296 1.578857 3.4196778l-.02832.0849609h-3.299316c0-.6324901-.240721-1.1752907-.722168-1.6284179-.481448-.4531273-1.142249-.6796876-1.982422-.6796876-.830734 0-1.463214.1864402-1.897461.5593262s-.651367.8283665-.651367 1.3664551.20532.9652491.615966 1.2814941c.410647.3162451 1.243728.5970854 2.499268.8425293 1.925791.3964864 3.353592.955807 4.283447 1.6779786.929855.7221715 1.394776 1.7062926 1.394776 2.9523925 0 1.3782621-.568761 2.4969033-1.706299 3.3559571-1.137538.8590537-2.63614 1.2885742-4.49585 1.2885742-1.991872 0-3.563633-.5097605-4.715332-1.5292969-1.151698-1.0195363-1.699219-2.1900976-1.642578-3.5117187l.02832-.084961h3.200196c.03776.8873742.358721 1.5340149.96289 1.9399414.60417.4059265 1.340491.6088867 2.208985.6088867.887374 0 1.571775-.1699201 2.053222-.5097656.481448-.3398454.722168-.7976859.722168-1.3735351z" fill="#6c6d6d"/></g></svg>