<svg height="90" viewBox="0 0 180 90" width="180" xmlns="http://www.w3.org/2000/svg"><g fill="#010101" fill-rule="evenodd"><g transform="translate(35.474453 36.569343)"><path d="m4.22890511 17.3181022h-4.10014599v-16.87357665h4.10014599z"/><path d="m20.8646715 1.07824818-.2908029 3.57065693c-1.1119708-.70467153-2.4516788-1.05766423-4.0208759-1.05766423s-2.8830657.48963503-3.9411679 1.46802919-1.5862774 2.25240876-1.5862774 3.82160584c0 1.57007299.5369344 2.83883209 1.6134307 3.80846719 1.0751825.969635 2.4232117 1.4548905 4.0462774 1.4548905 1.7456934 0 3.129635-.3350365 4.1518248-1.0051095l-.3437956 3.6762044c-1.0230657.599562-2.4954745.9-4.4163504.9-1.1286131 0-2.2353285-.1948905-3.320146-.5824818-1.0835036-.3875912-2.0671533-.9385401-2.9487591-1.6524087-.88116789-.7147446-1.59153285-1.6445256-2.12846716-2.7910949-.53824817-1.1461314-.80715328-2.4153285-.80715328-3.80846719 0-1.85124087.46686131-3.46423357 1.40233577-4.83985401.93416058-1.37562044 2.08423357-2.38467154 3.45109487-3.0280292 1.3655475-.64379562 2.8164964-.96569343 4.3510949-.96569343 2.009781-.00043796 3.6056934.34335766 4.7877372 1.03094891z"/><path d="m40.7264234 8.8550365c0 2.6268613-.9035037 4.759708-2.710511 6.399854-1.8078832 1.640146-3.9367883 2.460438-6.3871533 2.460438-2.4332846 0-4.5543065-.820292-6.3613138-2.460438s-2.710511-3.7729927-2.710511-6.399854c0-2.59270073.9035037-4.70846716 2.710511-6.34861314 1.8070073-1.63883212 3.9280292-2.45912409 6.3613138-2.45912409 1.5691971 0 3.0411679.35343066 4.4163504 1.05810219 1.3756204.70467153 2.4989781 1.74175182 3.3718248 3.10817518.8728467 1.36510949 1.3094891 2.91240876 1.3094891 4.64145986zm-4.1531387 0c0-1.51664234-.4927008-2.76481752-1.48073-3.74321168-.9880292-.97795621-2.1416058-1.4680292-3.4642335-1.4680292-1.3226278 0-2.4731387.48963504-3.4510949 1.4680292-.9797081.9779562-1.4684672 2.22656934-1.4684672 3.74321168 0 1.5332847.4887591 2.7893431 1.4684672 3.7686131.9779562.9775183 2.1284671 1.4680292 3.4510949 1.4680292 1.3226277 0 2.4762043-.490073 3.4642335-1.4680292.9880292-.97927 1.48073-2.2353284 1.48073-3.7686131z" fill-rule="nonzero"/><path d="m58.9493431 17.5029197h-2.0632117l-6.5592701-7.1943066c-.9166423-1.00554741-1.9659854-2.23795617-3.1480292-3.70248171l-.0525547.02671533c.0525547 1.2.079708 2.38072992.079708 3.54394158v7.1417518h-4.0988321v-16.87401455h3.3061314l5.7122627 6.29430657c1.0751825 1.18029197 1.9918249 2.25678832 2.750365 3.22642335l.0529927-.02715328c-.0529927-1.00467153-.079708-2.05313869-.079708-3.14671533v-6.34686131h4.100146z"/><path d="m71.9343066 3.80321168h-5.9767884v3.35912409h4.9191241v3.41124083h-4.9191241v6.7449635h-4.0988321v-16.87401455h10.0760584v3.35868613z"/><path d="m78.1493431 17.3181022h-4.100146v-16.87357665h4.100146z"/><path d="m97.1654015 17.5029197h-2.0627738l-6.559708-7.1943066c-.9170803-1.00554741-1.9655474-2.23795617-3.1480292-3.70248171l-.0521168.02671533c.0521168 1.2.0797081 2.38072992.0797081 3.54394158v7.1417518h-4.0992701v-16.87401455h3.3061314l5.7122627 6.29430657c1.0751825 1.18029197 1.9922628 2.25678832 2.750803 3.22642335l.0525547-.02715328c-.0525547-1.00467153-.080146-2.05313869-.080146-3.14671533v-6.34686131h4.100146v17.05839415z"/><path d="m112.173723 2.74554745c1.754452 1.53328467 2.632554 3.57941605 2.632554 6.13532846 0 2.55678829-.878102 4.60204379-2.632554 6.13620439-1.754453 1.5332847-3.892555 2.3014598-6.412993 2.3014598h-5.686423v-16.87401455h5.686423c2.520876 0 4.658978.76642336 6.412993 2.3010219zm-3.014015 9.77124085c1.030949-.8544525 1.546423-2.0662774 1.546423-3.63635034 0-1.56919708-.515912-2.7810219-1.546423-3.63635037-1.031825-.85445255-2.323358-1.28321168-3.875474-1.28321168h-1.26876v9.83912409h1.26876c1.552116 0 2.843211-.4278832 3.875474-1.2832117z" fill-rule="nonzero"/><path d="m127.764964 17.3181022h-10.579271v-16.87357665h9.838687v3.35868613h-5.739416v3.35912409h4.681313v3.41124083h-4.681313v3.3854015h6.480437v3.3591241z"/><path d="m144.268029 17.3181022h-4.576204l-4.548613-6.639854h-1.454015v6.639854h-3.94073v-16.87357665h6.293869c1.498248 0 2.78146.46686131 3.848759 1.4010219 1.066861.93547445 1.598978 2.16875912 1.598978 3.70335766 0 .95124088-.246569 1.80656934-.740146 2.56510949-.493577.75766423-1.110219 1.3129927-1.851241 1.66642336zm-6.71781-11.76919709c0-.59956204-.208029-1.06248175-.622336-1.38963504-.413868-.32627737-.912263-.48832116-1.49343-.48832116h-1.745256v3.78175182h1.745256c.581167 0 1.079562-.16248175 1.49343-.48963504.414307-.32540146.622336-.79751824.622336-1.41416058z" fill-rule="nonzero"/></g><g transform="translate(0 30)"><path d="m13.1855474 12.8084672c.7576643.2649635 1.30073.9858394 1.30073 1.8341605 0 1.0751825-.8693431 1.9436497-1.9436497 1.9436497-.8483211 0-1.569197-.5421898-1.8341605-1.3011679-.2378103.5592701-.3687592 1.1745985-.3687592 1.8192701 0 2.5778102 2.0890511 4.6651095 4.6646716 4.6651095 2.5764963 0 4.6651095-2.0877373 4.6651095-4.6651095 0-2.5756205-2.0886132-4.6651095-4.6651095-4.6651095-.6446716.0004379-1.26.1322627-1.8188322.3691971z"/><path d="m11.1214599 5.83313869.0021897-.00218978c1.6427738-1.19649636 3.6665694-1.90335767 5.8559124-1.90335767 1.2232117 0 2.3864234.19051095 3.4672993.5960584.070073.0249635.1629197.04160583.2049635.04160583.2575183 0 .4475913-.17737226.4489051-.42832116.000438-.17124088-.0840876-.31313869-.1931387-.41430657-2.8629197-2.63474453-5.9032116-3.72262774-5.9032116-3.72262774-6.78481756 2.71270073-11.77445259 9.27547445-11.91766427 16.7741606-.06131387 2.1332847.4480292 4.3086131 1.59372263 6.2916788.67970803 1.1776642 1.53021897 2.1950365 2.50072992 3.0389781-1.85781022-.8255474-3.48043795-2.2248175-4.57532846-4.120292-.61182482-1.059416-1.02919708-2.1626277-1.21795621-3.3004379-.01270073-.0735767-.04510949-.1616058-.06613139-.1983942-.12875912-.2237956-.37708029-.299562-.59518248-.1738686-.14890511.0840876-.22905109.2286132-.26102189.3740146-.85226278 3.7966424-.27372263 6.9735767-.27372263 6.9735767 5.82569343 4.5854014 14.16043798 5.5887591 20.77445258 1.7702189 3.1108029-1.7973722 5.1065693-4.7824817 5.7420438-8.0531386l.0017518.0043795c.2141606 2.0224818-.1861314 4.1268613-1.2805839 6.0232117-.6113869 1.0589781-1.3572263 1.9725547-2.2489052 2.7056934-.0573722.0468613-.1178102.1195621-.1388321.1554745-.1287591.2224817-.0705109.4773722.1462774.6030657.1480292.0862773.3127007.0827737.4545985.039416 3.7143066-1.1605839 6.1764964-3.2505109 6.1764964-3.2505109 1.040146-7.210511-2.1271533-14.7910949-8.5116788-18.67401462-2.9982482-1.86306569-6.7449635-2.34-10.1859854-1.15007299zm13.5827737 9.05912411c.0963503.4778102.149343.969635.149343 1.469343 0 4.7058395-4.409343 8.5182482-9.8487591 8.5182482-5.43941604 0-9.84832115-3.8124087-9.84832115-8.5182482 0-.5001459.0529927-.9919708.14890511-1.469343 2.04394161-2.0956205 5.62248174-3.4887592 9.69941604-3.4887592 4.0764964 0 7.6550365 1.3931387 9.6994161 3.4887592z" fill-rule="nonzero"/></g></g></svg>