<svg height="90" viewBox="0 0 180 90" width="180" xmlns="http://www.w3.org/2000/svg"><g fill="none" fill-rule="evenodd" transform="translate(5)"><path d="m42.2870599 89.4536378c12.4131903-.0903381 26.2248838.7700087 35.9432704-6.9147998s13.0561981-18.6097311 12.6486625-31.5092427c-.4075355-12.8995117-4.5089521-22.8109273-14.6863402-32.9883154-10.1773881-10.17738814-23.8790204-18.01071361-36.2006004-17.89862533-12.3215801.11208827-17.4137914 8.7778762-25.4072997 18.45906673-7.99350832 9.6811905-14.87616697 17.0691244-14.56024179 29.9468858.31592519 12.8777614 7.68735786 26.260915 16.13986769 34.4419211 8.4525098 8.1810062 13.7094911 6.5534476 26.1226815 6.4631096z" stroke="#262627"/><g fill="#262627" transform="translate(41.204819 36.86747)"><path d="m.34470753 3.24005422v-2.64849398h14.05192767v2.64849398h-5.62499995v15.17963858h-2.80192771v-15.17963858z"/><path d="m29.4487015 5.58341566h-3.0822289l-4.3725904 9.40662654-4.1231927-9.40662654h-3.0518675l5.6043976 12.78542164-2.4392169 5.2460241h3.0827711z"/><path d="m40.9651807 12.0014458c0-1.2990362-.3052409-2.34325303-.916265-3.10662652-.6115663-.78993976-1.4009639-1.17216868-2.3692771-1.17216868-.9677711 0-1.7566266.38222892-2.3681928 1.17216868-.6115663.76337349-.9162651 1.80759032-.9162651 3.10662652 0 1.2990361.3046988 2.3421687.9162651 3.1326506.6110241.7644578 1.4004217 1.1461446 2.3681928 1.1461446.9683132 0 1.7577108-.382229 2.3692771-1.1461446.6110241-.7899398.916265-1.8336145.916265-3.1326506zm-2.979759 6.6220482c-1.5028916 0-2.8013856-.713494-3.4373494-1.6297591v6.6209639h-2.6495783v-18.03036145h2.6490361v1.4763253c.4879518-.84036145 1.9355422-1.68072289 3.4915663-1.68072289 3.7463855 0 5.7307229 2.44409638 5.7307229 6.62150604 0 4.0749397-2.0114458 6.6220482-5.7795181 6.6220482z" fill-rule="nonzero"/><path d="m48.9242169 10.5245783h6.2403614c-.2298795-1.60481926-1.2995783-2.80138553-3.1077108-2.80138553-1.7062048 0-2.8274097 1.14560241-3.1326506 2.80138553zm9.0412048 2.2153012h-9.0921687c0 2.0125301 1.1710843 3.5403615 3.1836145 3.5403615 1.4259036 0 2.7254819-.8154217 3.3614458-2.1648796l2.266265.8913253c-1.2979518 2.5210844-2.8008434 3.6162651-5.6277108 3.6162651-4.2278314 0-5.9855422-3.5674699-5.9855422-6.6253012 0-3.05783132 1.7577108-6.6253012 5.9855422-6.6253012 4.1004217 0 5.9085542 3.33433735 5.9085542 6.213253v1.1439759z" fill-rule="nonzero"/><path d="m60.1248795 7.92650602v-2.34325301h1.6557832v-.66144578c0-3.03180723 1.6319277-4.53415663 4.3048192-4.53415663.8403615 0 1.5289157.15180723 2.1144579.45813253l-.536747 2.2413253c-.4554217-.22933735-.9650603-.35674698-1.5018073-.35674698-1.1439759 0-1.729518.66253012-1.729518 2.01253012v.84036144h2.8301205v2.34216868h-2.8246988v10.49367471h-2.6457832v-10.49259038h-1.6590361z"/><path d="m71.810241 12.0014458c0 1.1710843.3057831 2.1903614.916265 3.0307229.6375904.8403614 1.5034338 1.2480723 2.5986145 1.2480723s1.9615662-.4066265 2.5725903-1.2480723c.6365061-.8403615.9422892-1.8596386.9422892-3.0307229 0-1.1710844-.3057831-2.16487953-.9422892-3.00524098-.6110241-.84036145-1.4774096-1.27409639-2.5725903-1.27409639s-1.9610241.43373494-2.5980723 1.27409639c-.6072289.84036145-.9162651 1.83361448-.9162651 3.00524098zm-2.7970482 0c0-1.8596386.5638554-3.43734941 1.7078313-4.7114458 1.1493976-1.27409639 2.7-1.91060241 4.6138554-1.91060241 1.9127711 0 3.4373494.63650602 4.586747 1.91060241 1.1456024 1.27409639 1.7311446 2.8518072 1.7311446 4.7114458 0 1.8596385-.5855422 3.4384337-1.7316868 4.7114458-1.1472289 1.2740964-2.6750602 1.9106024-4.5856626 1.9106024-1.9095181 0-3.4644578-.6370482-4.6095181-1.9100603-1.1461446-1.2740964-1.7062048-2.8528915-1.7062048-4.7114457z" fill-rule="nonzero"/><path d="m86.8066265 18.4196386h-2.6490361v-12.83530125h2.6484939v2.13885542c.8403615-1.50289157 2.3638555-2.34379518 3.7951808-2.34379518.5855421 0 1.1168674.10301205 1.626506.30578313l-.4608434 2.4196988c-.4066265-.25481928-.916265-.38493976-1.5018072-.38493976-.9433735 0-1.7566265.50963855-2.4451807 1.55060241-.6885543 1.01927713-1.0192771 2.46686743-1.0192771 4.38072293v4.7602409z"/><path d="m94.9554217 5.58325301h2.648494v2.19036145c1.044759-1.60481928 2.317771-2.39421687 3.8710843-2.39421687 1.732229 0 3.158675 1.04421687 3.540361 2.64849398.891326-1.70620482 2.343253-2.64849398 3.999037-2.64849398 2.320482 0 3.670482 1.52783133 3.670482 3.84560241v9.1940964h-2.645784v-8.60801206c0-1.35-.737349-2.08843374-1.881325-2.08843374-1.653614 0-3.003614 2.16433735-3.003614 5.5518072v5.1451808h-2.647952v-8.6096386c0-1.35-.73735-2.0873494-1.883494-2.0873494-1.7078315 0-3.0057833 2.16325301-3.0057833 5.8315663v4.8648795h-2.648494v-12.83584339z"/></g></g></svg>