<svg height="90" viewBox="0 0 180 90" width="180" xmlns="http://www.w3.org/2000/svg"><g fill="none" fill-rule="evenodd" transform="translate(0 20)"><path d="m6.09745539 15.0201446c4.81146691-4.9788223 9.36353301-10.21704543 14.35072311-15.0201446 1.8325414.07530992 3.6985538-.10041322 5.5059918.24266529 3.3722107 3.09607438 6.4933884 6.45991735 9.7400826 9.68150826 1.8827479 1.58150825 2.025 4.72778925.1924587 6.40971075-3.4307851 3.5479339-6.761157 7.2213843-10.3676653 10.593595-2.8701446 2.0752067-6.8448347-1.7153925-5.388843-4.7528925 1.9245868-3.2048554 5.3219009-5.3386364 7.0038223-8.6857438 1.0125-3.4224174-3.7654958-6.32603308-6.2256198-3.67345044-3.8157025 3.93285124-7.5309917 7.98285124-11.28811983 11.98264464-1.45599174 1.230062-1.1714876 3.5228306.20919421 4.6859504 3.71528922 3.8157025 7.41384302 7.664876 11.21280992 11.3969008 1.1547521 1.4308885 3.4977273 1.5229339 4.6775826.0753099 4.9286157-5.3972107 9.9994835-10.6772727 15.0117769-15.9908057 1.5480372-2.0752066 5.0959711-1.5982438 6.1586777.7028925.8618802 1.4978306.2426653 3.3136364-.9120868 4.4432851-5.7988636 6.2423554-11.6646694 12.4261364-17.463533 18.660124-1.3974174 1.6066116-3.3889463 2.8617769-5.5896695 2.6442149-2.3764462-.0585744-4.1755165-1.773967-5.7235537-3.363843-4.9286157-5.0876033-9.97438015-10.0580578-14.89462808-15.1456611-1.47272727-1.447624-2.6107438-3.4140496-2.23419422-5.5561984.25940083-3.9914256 3.53119835-6.6021694 6.02479339-9.330062z" fill="#0d0d0d"/><text fill="#000" font-family="PingFangSC-Medium, PingFang SC" font-size="29.752066" font-weight="400"><tspan x="64.026504" y="34.975207">百度</tspan> <tspan font-family="Roboto-Medium, Roboto" x="123.530637" y="34.975207">EUX</tspan></text></g></svg>