<svg height="90" viewBox="0 0 180 90" width="180" xmlns="http://www.w3.org/2000/svg"><g fill="#5186ec" fill-rule="evenodd" transform="translate(.831 25.117082)"><path d="m65.9531144 1.42530084c3.354821-2.02454022 7.8636759-1.79005525 11.0729016.42299251.4812307.36015666.8766367.81993113 1.3241505 1.22146749-.582381.55479452-1.1049913 1.1708923-1.7195565 1.68737229-.4260577-.22222433-.7019223-.64368425-1.0850677-.92567926-1.5034625-1.17395746-3.5096118-1.49733217-5.3671006-1.29196624-3.1356619.35402633-5.8881783 2.8735904-6.4966132 5.97400287-.3172444 1.6904374-.234485 3.4912208.4000038 5.101964.8199311 1.8912056 2.3862295 3.4804927 4.3310754 4.200806 2.6007909.9609286 5.7287899.4888935 7.8483502-1.3272156 1.3701279-1.03296 1.9494437-2.7647771 2.1394838-4.4092371-2.4000227-.0260539-4.801578 0-7.2031333-.0137933-.0137932-.7923446-.0061303-1.5846893-.0168584-2.37550137 3.2138235.00919549 6.4261145-.00153258 9.639938.00459775.2804624 2.21611292.010728 4.56709302-1.1448385 6.51500412-1.1019261 1.849826-2.8935139 3.2827897-4.93338 3.9709188-3.1724438 1.0375577-6.8766934.6651404-9.595493-1.3410088-1.0467532-.7923447-1.9693673-1.7456104-2.6942784-2.8429388-1.7977182-2.838341-2.0015515-6.53032998-.8245289-9.6430031.882767-2.03067055 2.4000227-3.81919322 4.3249452-4.92878226z"/><path d="m84.33643.34636343c1.1632294-.46437221 2.5333573.62529327 2.3525127 1.85902142-.0490426 1.02223189-1.1111216 1.81610913-2.1042345 1.59235223-1.0482857-.15479074-1.7425452-1.38238856-1.3502043-2.36170817.1716491-.50881707.6023045-.90728828 1.1019261-1.08966548z"/><path d="m.42145993.45977447c2.46285854.03984712 4.93031484-.09348748 7.38857564.09348747 2.39849013.17777946 4.76326343 1.2291304 6.33722473 3.07589117 1.8881404 2.11649512 2.6130515 5.08204041 2.321861 7.86674109-.1869749 3.2138235-2.1118974 6.3571483-5.0728449 7.7180807-1.3793234.7555627-2.9655453 1.014569-4.51958299 1.0728071-2.15327708.0490426-4.30808673.0015325-6.46136381.0231685.01379323-6.6163344.00306516-13.23402149.00613033-19.85017603zm2.52875955 2.45213047c.00153258 4.99315069-.00459774 9.98476876.00306516 14.97791946 2.31419814-.0367819 4.73567699.2206918 6.93186635-.6712707.74636721-.2452131 1.33794371-.7862143 1.95250891-1.2536517 1.6843071-1.5448422 2.2115152-3.9586581 2.076648-6.16251042-.0597707-1.81917429-.732574-3.6628699-2.0398661-4.95483614-.6268258-.49502384-1.2521191-1.03142738-2.01840986-1.29196625-2.18239613-.92567925-4.60387497-.57012033-6.90581246-.64368425z" fill-rule="nonzero"/><path d="m93.0430258 1.08200257c1.4482896-.85364792 3.2904526-.93180958 4.8567509-.36935215-.3218421.714183-.6176303 1.43909407-.9042231 2.17013547-.977787-.26207144-2.1762658-.32490729-2.904242.51034966-.7494324.94560281-.4781655 2.2345039-.5256755 3.35022326h3.523405v2.29887233c-1.1754901 0-2.3509801 0-3.5249376 0 .0030652 3.77015056-.0076629 7.54030126.0061304 11.30891926-.8597783-.0107281-1.718024-.0076629-2.5778022-.0045978.0107281-3.768618.0015326-7.5357034.0045977-11.30432146-.8551805 0-1.7118935 0-2.5670741 0 0-.76629078 0-1.53258155 0-2.29887233h2.5686067c-.0030651-1.00537349-.0429123-2.01994248.1455953-3.01305532.2559411-1.08200257.9226141-2.09044123 1.8988685-2.64830092z"/><path d="m105.709812.45977447c.852116 0 1.704231 0 2.556346.00153258 2.317264 4.0613411 4.60694 8.14107318 6.970181 12.17636035 2.30347-4.06747138 4.613071-8.13341023 6.953323-12.17942552.841387.00306517 1.682774.00153259 2.524162.00153259-.003066 6.61308938.004597 13.22617873-.003066 19.83773553-.844452.0137933-1.687372.0045978-2.530292.0153258.044445-5.065182-.084292-10.1334292.101151-15.19707859-.441384.57778324-.750965 1.23985847-1.120318 1.86361916-1.734882 3.03604403-3.460569 6.07668583-5.196984 9.11272993-.504219 0-1.008438 0-1.511125-.0015326-2.087376-3.6613373-4.151763-7.33800048-6.275921-10.97941424-.045978 1.20614168.068966 2.41228336.062835 3.61842504-.010728 3.8590403.012261 7.7180807-.01226 11.577121-.841387 0-1.682775-.0030651-2.524162.0030652.013793-6.6161546.003065-13.23384169.00613-19.84999623z"/><path d="m141.687164.45977447h2.52876c0 4.0858624-.001533 8.17325739.001532 12.25911983 1.190816-1.1586317 2.314198-2.3846969 3.505014-3.54486115.813801-.78468175 1.538712-1.65518807 2.360176-2.43220692 1.111122.00613033 2.220711-.00919549 3.331832.01226065-1.750208 1.81457656-3.561719 3.57091502-5.334916 5.36403542 1.862086 2.7310603 3.762487 5.4375993 5.607716 8.1809203-1.043688.0153258-2.087376 0-3.129532.0137932-1.432964-2.1256906-2.830678-4.2728373-4.277435-6.3893324-.695792.6789336-1.376258 1.3716605-2.064387 2.058257 0 1.4544199-.001533 2.9088398 0 4.3632597-.839855 0-1.67971.0015325-2.519564-.0030652-.021456-6.6268826-.003066-13.25529782-.009196-19.88218043z"/><path d="m34.1765685 2.56707409c.8551805 0 1.7118936.00306517 2.5670741-.00459774-.0015326 1.39464921 0 2.78776584 0 4.18088246h3.3333649v2.29887233c-1.1111216 0-2.2222433 0-3.3333649 0-.0015326 1.99235596.0030652 3.98624456-.0030651 5.97860066 0 .6436842-.018391 1.2950314.113411 1.9295201.102683.4812306.4827632.8153334.8321918 1.12798.6804662.1425301 1.3747256.102683 2.0444638-.0781616.2804624.7387043.6023045 1.4605502.8827669 2.1992545-1.2628472.4199274-2.6544312.4413835-3.9234087.0383145-1.1800878-.3724173-2.058257-1.4436918-2.3249262-2.6360402-.1578559-.7448346-.1931053-1.5095928-.1900402-2.2697533.0030652-2.0965715 0-4.1931431.0015326-6.28971466-.7923446 0-1.5831567 0-2.3755014 0 0-.76629078 0-1.53258155 0-2.29887233h2.3755014c0-1.39158404 0-2.78470067 0-4.17628472z"/><g fill-rule="nonzero"><path d="m21.2002006 6.94872474c1.4743434-.73870431 3.2030954-.76475819 4.7923825-.44138349 1.6674487.41073186 3.2383448 1.55250511 3.8360516 3.2061606.3647544.85058275.3984712 1.79158785.4383183 2.70194125.0045977 2.62991 0 5.2613525.0015326 7.8912624-.8183986 0-1.6352645 0-2.4521305 0 .0015326-.6498146.0091955-1.2980966-.029119-1.9463785-.42146.5164799-.835257 1.0574812-1.3961818 1.4329637-1.3639976.9915803-3.1969651 1.1525013-4.7954477.7279762-1.4436918-.3724173-2.7586468-1.4406266-3.1938999-2.8981117-.3693522-1.2536517-.2513434-2.6958109.4842957-3.7992696.8061379-1.1157194 2.058257-1.8636192 3.4007985-2.1287558 1.8452282-.3831454 3.8789639-.2835276 5.5556081.6436842-.0045978-1.0498183-.2268221-2.2176455-1.1433058-2.86286229-1.6781768-1.41304018-4.7632635-1.04675319-5.6674866 1.08506779-.7862143-.3019186-1.5632332-.63142365-2.3233936-.99464547.5394687-1.1049913 1.428366-2.010747 2.4919776-2.61764929zm-.0827594 8.28053806c-.3310377.637554-.271267 1.3593999-.0582381 2.0230077.7325739.8674411 1.9049988 1.2843033 3.0253159 1.1387081 1.4191705-.1287369 2.6850829-1.08047 3.3578862-2.3096004.2268221-.5149474.4444487-1.098861.3203096-1.6643836-1.1080565-.780084-2.5440854-.8858321-3.8559752-.7908121-1.1034587.0613033-2.2666881.582381-2.7892984 1.6030803z"/><path d="m44.8464013 6.69738137c1.278173-.46130705 2.6774199-.47816545 4.0046356-.24061531 1.6812419.38467797 3.3333648 1.42836601 3.9893097 3.0820215.4582419.99617804.4796981 2.11189734.5318058 3.18623704-.0045977 2.527227.0091955 5.0544539-.0091955 7.5816809-.8153333 0-1.6321993-.0045977-2.4475327.0076629.0061303-.6559449.0061303-1.3118898-.0015326-1.9678347-.4996216.4919587-.9026905 1.0866003-1.4927344 1.4820064-1.2015439.875104-2.7831681 1.0482858-4.2207296.8229963-1.6367971-.2666692-3.175509-1.380856-3.7088473-2.9870015-.3954061-1.3532695-.2467457-2.9241656.6145652-4.0720691.7478998-.967059 1.9019337-1.5141906 3.0498372-1.849826 1.915727-.4521115 3.9954401-.3126466 5.7778325.553262-.036782-.9118861-.1409975-1.9295202-.8766367-2.56860671-1.6429274-1.71036101-4.9594339-1.38851888-5.9786006.85211531-.761693-.3310376-1.5218535-.66360778-2.2942746-.96705893.6069023-1.31342239 1.7042307-2.39849012 3.062098-2.9149701zm-.2697344 8.00927113c-.6620752.619163-.7080527 1.6214713-.4674374 2.4444676.7111179.8720389 1.8191743 1.3823886 2.9502195 1.2459888 1.3701279-.0536403 2.5226293-.9609286 3.3180391-2.0122796.3708847-.5731855.4582419-1.2613146.5486642-1.9218572-1.03296-.7218459-2.3264588-.9088209-3.560187-.8674412-1.0145689.0275865-2.1118973.3019186-2.7892984 1.1111216z"/><path d="m130.214259 6.81385756c1.218402-.50575191 2.579334-.6145652 3.877431-.41839476 1.819174.24981079 3.612295 1.32415046 4.352532 3.05903277.46897.96552633.52874 2.05825703.560924 3.11420573v7.7380042c-.818398 0-1.635264 0-2.45213 0 0-.6559449 0-1.3118898-.004598-1.9678347-.586979.6544123-1.132578 1.3762582-1.937183 1.7777946-1.515723.8138008-3.400798.8046053-4.98089.1808446-1.085068-.4842957-2.047529-1.3609324-2.433739-2.5057708-.518013-1.409975-.295789-3.0881518.640619-4.2728374 1.14024-1.3762582 2.982403-1.973965 4.721883-2.0153447 1.380856-.084292 2.764778.1915727 4.013832.7846818.018391-1.1141868-.318777-2.36324079-1.350205-2.95328469-1.699633-1.25671687-4.603875-.81533338-5.472849 1.24292359-.777018-.3279724-1.550972-.66207518-2.327991-.98698247.599239-1.19388103 1.552505-2.23910164 2.792364-2.77703777zm.021456 7.87900174c-.648282.6206955-.818399 1.6705139-.426058 2.4705215.547132.7846817 1.514191 1.223 2.458261 1.2459888 2.165538.0873571 4.262109-1.7502082 4.303489-3.9525279-.78928-.5011541-1.695035-.8138008-2.632975-.8367895-1.291966-.1011504-2.798494.0291191-3.702717 1.0728071z"/><path d="m155.782317 8.19931128c1.302694-1.39005146 3.278192-2.09657155 5.167865-1.85442367 1.290433.08122682 2.600791.50421933 3.587773 1.36093242.994645.74789979 1.667449 1.87128207 2.042931 3.04370697.378548 1.0344925.363222 2.1548096.426058 3.2398774-3.592371-.0168584-7.184742.0076629-10.777114-.0122607.139465.8551805.269735 1.7548059.772422 2.4858473.637553.9747219 1.662851 1.7410126 2.836808 1.8958034 1.255184.1823772 2.660562-.0704988 3.598501-.9808522.386211-.3417657.590044-.8260615.824529-1.2735753.772421.2881253 1.520321.6406191 2.292742.9364073-.422992.750965-.810735 1.5617006-1.527983 2.0812458-.764759.7494324-1.744078 1.2551843-2.793897 1.4605502-1.741012.3509612-3.604631.1011504-5.17093-.7463672-1.184685-.7570953-2.179331-1.842163-2.715734-3.1509877-.639087-1.4804738-.750965-3.1509876-.488894-4.7326118.234485-1.4161054.99158-2.68355029 1.924923-3.75329222zm2.337187 1.11571937c-.8843.59617422-1.399247 1.57549385-1.713427 2.56554155 2.62991-.0045978 5.25982-.0045978 7.88973 0-.217626-1.1509688-.847517-2.30960043-1.940248-2.83374332-1.333346-.60690229-3.014588-.59464164-4.236055.26820177z"/></g><path d="m172.746462 7.5249754c1.31802-1.10345871 3.224551-1.44675698 4.826099-.78774691-.350961.78927949-.657477 1.59694997-1.011504 2.3831643-.824529-.15325815-1.705763-.32030954-2.507303.01992357-1.41304.56858775-2.321861 2.04599634-2.337187 3.55099144-.075096 2.5364225.001533 5.0759101-.038315 7.6138651-.842919.0030652-1.684307-.0015325-2.525694.0045978.013793-4.5226482.003065-9.0437637.00613-13.56641189.804606 0 1.609211 0 2.415349.00153258-.004598.76782336-.024521 1.5371793.044445 2.30347007.3387-.5318058.591576-1.15096874 1.12798-1.52338606z"/><path d="m83.640638 6.74335881h2.5670741v13.56334669c-.8582457 0-1.7164913-.0015326-2.5732044.0030652.0137932-4.5226482.0030651-9.0437637.0061303-13.56641189z"/><path d="m15.5250511 30.5566109c1.5693635-1.7701317 4.7218837-1.955574 6.3264966-.1394649-.2390827.2436805-.4751003.4934913-.7570953.6896617-.4061341-.3095815-.7862143-.6819988-1.2980965-.8046053-1.5433097-.4597745-3.4145917.3586241-3.9939076 1.8912056-.7417694 1.5678309.0505752 3.626088 1.6367971 4.3126845 1.2429237.5977068 2.8674601.3233747 3.7962045-.7126504.3908083-.4260577.5180126-1.0084387.6528798-1.5509726-1.0237645-.0521077-2.0505941-.0199235-3.0743586-.029119-.0015326-.3310376 0-.6620752 0-.9931129 1.3670627-.0015325 2.7356581-.0045977 4.1027208.0030652.1088133 1.2934988-.1808446 2.7479187-1.2337282 3.6061644-1.7563384 1.5371793-4.7356769 1.3272156-6.2345417-.4735677-1.4406266-1.5846893-1.4191705-4.2575115.0766291-5.7992886z"/><path d="m.11034587 29.3106221c1.13870809.0321842 2.28507909-.0704987 3.41918944.0582381 1.18162037.1164762 2.2007871 1.2582495 2.02454022 2.4643911-.07509649.6636079-.52567547 1.2107395-1.10805646 1.5095929.55939227.2957882 1.11571937.7111178 1.31188981 1.3410088.281995.948668-.1409975 2.0735829-1.00690608 2.5686067-.58084841.4015364-1.30882464.4475138-1.99235601.4521116-.88123439 0-1.76246878-.0045978-2.64370317-.0030652-.00306517-2.7969613.00613032-5.5939227-.00459775-8.390884zm1.07587225 1.0360251c-.01072807.8551805.01839098 1.710361.04904261 2.5655416.76016045-.0229888 1.53104896.0720313 2.28354651-.0750965.68506395-.1180088 1.12338227-.9103535.91801634-1.5601681-.10115038-.3632218-.41073185-.6053697-.65747748-.8689737-.86131083-.0888897-1.72875199-.065901-2.59312798-.0613033zm-.00306516 3.5617196c-.00613033.9195489.02298872 1.8390978.05210777 2.7586467.76475819-.0122606 1.53258155.0383146 2.29733974-.0260538.73870431-.0429123 1.31648755-.8061379 1.20614168-1.5279838-.08275941-.6344888-.66514039-1.1678272-1.30729206-1.1816204-.7478998-.0582381-1.50039734-.0107281-2.24829713-.0229887z" fill-rule="nonzero"/><path d="m43.525316 29.3106221h1.0728071v8.390884c-.3586241 0-.7157156 0-1.0728071 0 0-2.7969613 0-5.5939227 0-8.390884z"/><path d="m54.670249 29.3090895c.4245251.0015326.8490502.0015326 1.2735753.0015326 1.4053772 2.1823961 2.7601793 4.3969765 4.134905 6.5977636-.0781617-2.1992545-.0199236-4.4000416-.0429123-6.5992962.3555589.0015326.714183.0030652 1.0728071.0061304.0076629 2.7954287 0 5.5908574.0030651 8.3878188-.3739499-.0030652-.7478998-.0030652-1.1218496-.0061304-1.4314312-2.2973397-2.8337433-4.6130704-4.3080868-6.8812911.102683 2.2942746.055173 4.5900817.065901 6.8858889-.3586241 0-.7157156-.0015326-1.0728071 0-.0030651-2.7969613.0061304-5.5939227-.0045977-8.3924166z"/><path d="m85.2820328 29.2983615c.3586241.010728.7187808.0183909 1.0789375.0306516 0 2.442935-.0015326 4.88587.0015325 7.328805 1.2138046.0183909 2.4276092.0061303 3.6429464.0091954-.0045978.3432983-.0061303.6881292-.0061303 1.0344926-1.5708961 0-3.1417922 0-4.7111557 0-.0045978-2.8015591.0091955-5.6015856-.0061304-8.4031446z"/><g fill-rule="nonzero"><path d="m96.7472754 29.3152199c.3570915-.0030652.714183-.0045978 1.0743397-.0061304-.0199236 1.1601643.0306516 2.3218611-.0490426 3.4804927.5394687-.6819988 1.4084424-1.1494361 2.2942745-.9701241 1.255184.0919549 2.164005 1.2613146 2.354045 2.4383373.202301.9823847-.162453 1.9770302-.741769 2.7647771-.470503.3724173-.973189.7524975-1.59695.7954098-.8781694.1946378-1.7272195-.281995-2.3111331-.9042231.0045977.2620714.0076629.5241429.0091955.7877469-.3463635 0-.6911943 0-1.0360252 0 .0030652-2.7954288-.0045977-5.5908575.0030652-8.3862862zm1.5693635 4.0260917c-.5716529.6651404-.6728033 1.6643835-.3172444 2.4551956.1731818.4061341.5241429.6881291.8398547.9823848.4965564.0643684 1.0237645.1593885 1.5019298-.0567055.42146-.2237569.668206-.6498146.950201-1.0161016.157856-.7540301.194638-1.6276016-.33257-2.2544274-.585447-.864376-1.9816284-.8996254-2.6421711-.1103459z"/><path d="m26.3864565 31.8025997c.7923447-.0321842 1.5739613.2727995 2.179331.7785514 1.259782 1.2260653 1.1984788 3.5632521-.2176266 4.6483199-1.2720427 1.0574812-3.4881556.6988572-4.2697722-.7877469-.6314236-1.0375577-.5685877-2.4521305.1256717-3.4421782.4551767-.7478998 1.3348785-1.1325778 2.1823961-1.1969462zm-.4582419 1.0743397c-1.4697457.5609248-1.6413948 2.8797207-.3371679 3.7134451.6697381.4490464 1.6459926.3540263 2.2053848-.2283547.7969424-.7954098.8107357-2.2253084.0398472-3.0406418-.4597745-.527208-1.2643798-.6789336-1.9080641-.4444486z"/><path d="m31.3934004 32.3098842c1.0421555-.7341066 2.5701393-.6697381 3.5341331.1701166 1.3241504 1.1555664 1.344074 3.449841.0490426 4.6345266-.7570953.6636078-1.8528911.8858321-2.8153523.6038371-1.0498184-.2988534-1.8222395-1.259782-1.9938886-2.3249262-.1471278-.5808484.018391-1.1693597.1149436-1.7440778.2973208-.4996216.5777833-1.0498184 1.1111216-1.3394763zm1.0115039.56399c-1.2168698.450579-1.5831568 2.1517445-.8674412 3.1724438.4551767.7923447 1.5770264 1.0651442 2.3571104.6023046.5961742-.2973209.8766367-.9731893.9716567-1.5984826.0812268-.6191629-.1931052-1.2015439-.4934912-1.7241542-.5394687-.4459813-1.2812382-.7310414-1.9678347-.4521116z"/><path d="m46.5215129 32.4355559c1.1417733-1.0482858 3.2306819-.8061379 4.0291569.5501968.4260577.5885113.4413835 1.3394762.5379361 2.0306705-1.5203209.0076629-3.0391092-.0015326-4.5594301.0045978.0704988.6804662.4107319 1.3762582 1.0528835 1.6812419.8429199.4199274 1.9571067.0781617 2.3632408-.7923446.3126466.1394649.6252933.2743321.9440702.4015363-.3049837.553262-.7387043 1.062079-1.3379437 1.3011618-.7295088.3862105-1.5724286.2114962-2.3387194.065901-.403069-.2973209-.8751041-.5379362-1.1494362-.9731893-.9379399-1.2643798-.7463672-3.24141.4582419-4.2697722zm.9701241.5088171c-.5011541.2084311-.6896617.7570953-.9364073 1.1954136 1.1341103-.0045978 2.2666881.0045977 3.4007985-.0061304-.1072808-.2421478-.186975-.4965564-.3218422-.7218459-.4444486-.6819988-1.4513547-.8214637-2.142549-.4674373z"/><path d="m63.174544 32.5336411c1.1310452-1.1831529 3.3747446-.9287444 4.1701544.5180126.3770151.5854461.4076667 1.2950314.4888935 1.9647695-1.5203209.0061303-3.0391092.0015326-4.5594301.0030652.0781617.930277.7816166 1.8743472 1.7869901 1.8590214.7080527.0689662 1.2934988-.3984712 1.6720465-.9517331.2957882.1287368.6023045.2375501.8873647.395406-.2682018.5808484-.7249111 1.0973284-1.3394763 1.3180201-.7494324.3463635-1.5908196.1839098-2.3678385.0383146-.5915765-.4260577-1.1969462-.8919625-1.4559525-1.6030803-.4567093-1.1846856-.2375501-2.659029.7172482-3.541796zm.3647544 1.08047c-.04751.1747143-.09502.3509612-.1440626.5272081 1.1065238-.007663 2.2115151.0030651 3.318039-.0061304-.1900401-.7295088-.7678234-1.3869863-1.5739612-1.3670627-.6774011-.1149436-1.2153372.3524937-1.6000152.845985z"/><path d="m90.7027738 33.1512715c.7647582-1.6030803 3.2030954-1.842163 4.3402709-.5287407.4919587.5410013.5578597 1.3072921.5900439 2.0046167.0091955 1.0237645-.0061303 2.0490615 0 3.0743586-.3463634 0-.6911943 0-1.0360251 0 .0015326-.2605389.0030652-.5210777.0061303-.7816166-.3923409.3586241-.7877469.7739537-1.3302808.8842996-.875104.1777794-1.9356505-.0291191-2.4429349-.8321918-.3739499-.5318058-.2927231-1.212272-.1808447-1.8145766.3341028-.3862105.685064-.7862143 1.1800878-.9670589.9057557-.3800803 1.9295202-.2298873 2.8260804.1026829-.1103459-.3862105-.1333346-.8444524-.4674374-1.1187845-.7049875-.7019224-1.9846931-.4413835-2.4950427.3678196-.3325702-.1272043-.6636078-.2559411-.9900477-.3908083zm1.3318133 2.0291379c-.4153296.2973209-.5440664 1.014569-.1471278 1.3823886.5578597.3494286 1.3256831.4337206 1.8804776.0229887.5149474-.2743321.7295088-.8429198.8475176-1.3793234-.7923447-.4153296-1.794653-.5026867-2.5808674-.0260539z"/></g><path d="m6.10887005 31.9558579c.38467797 0 .76935594-.0030652 1.15403391-.0030652.56399001 1.3777908 1.11571937 2.7632445 1.71649133 4.1257095.54713162-1.3701279 1.14330581-2.7187996 1.64446001-4.1057859.395406-.0153259.7923447-.018391 1.1877507-.0245213-1.1984788 2.7632445-2.37703399 5.5387497-3.6138273 8.2851358-.35555892-.0015326-.71111784-.0030652-1.06667675-.0015326.37854764-1.0099712.93947248-1.9402482 1.31495496-2.951752-.81073564-1.7609362-1.58468932-3.5387308-2.33718686-5.3241883z"/><path d="m37.4026527 32.6516499c.6130326-.7126504 1.6459926-.977787 2.5456179-.761693.5471317.1210739.9226141.5655226 1.3180202.9272118 0-.2850602 0-.5685878.0015326-.8536479.3432982-.0061304.6865965-.0091955 1.0298948-.0122607.0015325 1.6597858.0015325 3.3195717.0030651 4.9793575-.0367819.8367895-.0781616 1.7624688-.6390865 2.4383372-.7586279.9410051-2.1364187 1.2245327-3.2567358.8659086-.7341065-.2406153-1.2551843-.8398547-1.626069-1.4896693.3218421-.1394649.6390865-.2896579.9578635-.4352531.2237569.3233747.4030689.7218459.7846817.8919624.7969424.4153296 1.9387157.2206918 2.4214789-.5793158.3601566-.5026867.3065163-1.1509687.3387005-1.7348823-.5256755.3877431-1.0252971.9379399-1.7210891.9716567-.6574775.0091955-1.3716605-.1088133-1.8697495-.5747181-1.3670627-1.1049913-1.4850715-3.3578862-.2881253-4.632994zm.743302.7494324c-.8413872.9839173-.5701203 2.7954287.648282 3.3394952.6911943.3218421 1.4513548.0306516 2.0122796-.4076667.4888935-.8567131.6804662-2.0092144.0490426-2.8475365-.582381-.9057557-2.0827783-.9762545-2.7096042-.084292z" fill-rule="nonzero"/><path d="m77.7264058 32.3604594c.8904299-.677401 2.2176455-.7724211 3.1678461-.1609211.3417657.2252895.5532619.5885113.7923446.9118861-.3264398.1241391-.6498145.2498107-.9701241.3816128-.4950238-.9103535-1.9417808-.9747219-2.4981079-.0950201.0904223.179312.1823772.3601567.2773972.5394687.7203134.2927231 1.5034625.3816128 2.2253085.6682056.695792.292723 1.2107394 1.1080564.9609286 1.8636191-.102683.6712707-.750965 1.0544161-1.3287482 1.2797056-.8505828.2482782-1.8053811.0873572-2.5364225-.4091993-.366287-.2896579-.5977068-.7034549-.8628434-1.0758722.3233747-.1333346.6436843-.2743321.9655264-.413797.311114.5379361.7923446 1.0712745 1.4682131 1.0605464.5149474-.0245213 1.2628472-.1440627 1.2659124-.8076705-.1118785-.5195451-.6590101-.6988571-1.1095891-.8122682-.6911942-.1593885-1.4191705-.3432983-1.9571066-.8306592-.5946416-.5547945-.498089-1.6199387.1394649-2.0996367z"/><path d="m68.0067736 31.9604556c.3693522-.0061303.7387043-.0076629 1.1095891-.0107281.4551767 1.4482896.8521153 2.9149701 1.3011617 4.3663249.4613071-1.4590177.9149512-2.9195679 1.4207031-4.3632597h1.1049913c.5011542 1.465148.948668 2.9471543 1.4237683 4.4214978.377015-1.4881367.8429198-2.9502195 1.2751078-4.4230304.3647544.0030652.7310414.0061303 1.0973284.0122607-.6712707 1.9004011-1.1954136 3.8513774-1.8927382 5.742583-.3555589-.0030651-.7080527-.0045977-1.0605464-.0061303-.46897-1.4789412-1.0007758-2.9379588-1.4237683-4.4306932-.4950238 1.4697457-.9440702 2.9563498-1.4222357 4.4322258-.3586241 0-.7172481 0-1.0743396.0015326-.6590101-1.9019337-1.2138046-3.8375842-1.8590215-5.7425831z"/></g></svg>