<svg height="90" viewBox="0 0 180 90" width="180" xmlns="http://www.w3.org/2000/svg"><path d="m41.3012903 16.0414839c1.9518387 0 3.8244194-1.6249355 4.1501613-3.6296129.3849678-1.9512581-.9380322-3.57619358-2.8884193-3.57619358-1.9509678 0-3.8238388 1.62493548-4.1545162 3.57619358-.3806129 2.0046774.8880968 3.6296129 2.8927742 3.6296129zm132.4515487 5.7997742h4.366161c.598355 0 .948774-.243 1.083484-.8012904.209038-.8647802.423978-1.7281229.644806-2.5899677.129194-.5025484-.163451-.8834516-.72058-.8834516h-4.308387c.310354-1.2347419 1.518677-5.2435161 1.518677-7.85700001 0-5.21941936-4.432065-9.65903226-10.720742-9.65903226-7.102161 0-11.722645 4.76622581-11.722645 11.47296777 0 1.9561935.729871 4.2363871 1.634516 5.6508387-.389312-.0222433-.779183-.0332801-1.169129-.0330968-5.396516 0-8.795613 2.9273226-8.795613 7.1869355 0 3.9977419 3.151452 5.5512581 6.118548 6.5850968 2.635549.9185806 5.062646 1.3459354 5.062646 3.4049032 0 1.3883226-1.335484 2.2029677-3.948968 2.2029677-3.100936 0-4.805129-1.4603225-5.23829-2.014258.293806-.2308065.730742-.7803871.730742-1.6960645 0-1.2809033-.89971-2.3263549-2.570807-2.3263549-1.413871 0-2.609129 1.1531613-2.909323 2.6700968-2.270903 1.8577742-4.749387 3.0617419-8.264612 3.0617419-3.461226 0-5.257742-1.8002903-5.257742-5.6310968.811451.2470646 2.924419.5437742 4.320871.5437742 5.860742 0 9.855-2.6628387 9.855-7.9954838 0-2.8675162-2.517387-5.8790323-7.497581-5.8790323h-.011323c-6.550258 0-10.219354 4.1492903-11.821354 8.7131613-.448831-.1082287-.898456-.2131348-1.348839-.3147097.358258-1.0123548.615484-2.1855484.615484-3.4861935 0-2.2540645-1.395871-4.9122581-5.131162-4.9122581-2.601871 0-5.069903 1.7041936-6.780483 4.2584516.425612-1.6661613.707806-2.7757742.726096-2.8500967.111484-.4357742-.069967-.9211936-.749613-.9211936h-3.833709c-.546387 0-.931936.1930645-1.087258.8152258-.104226.414871-1.42142 5.5831936-2.703775 10.6156452-.807677 3.1378064-4.9859995 7.0438064-10.2376447 7.0438064-3.4618064 0-5.2568709-1.9187419-5.2568709-5.751.9058064.3605807 2.924129.6633871 4.32.6633871 6.0990967 0 9.8549996-2.6628387 9.8549996-7.9954839 0-2.8675161-2.517096-5.8790322-7.4978706-5.8790322h-.0107419c-7.3759355 0-11.8942259 5.7289355-12.6598065 12.2246129-.3184839 2.7002903-2.5975161 6.4082903-5.0681613 6.4082903-1.2036774 0-1.8749032-.756-1.8749032-2.0395161 0-1.1084516.7803871-3.8189032 1.6356774-7.2156774.2865484-1.1363226.7214516-2.8698387 1.2036774-4.7906129h4.0099355c.5969032 0 .9470323-.243 1.0826129-.8012904.1919032-.8039032.5440645-2.2064516.6439355-2.5899677.1291935-.5025484-.1617097-.8834516-.7205807-.8834516h-3.9431612s1.8153871-7.2435484 1.8586451-7.4296452c.1747742-.73654836-.4415806-1.16158062-1.0863871-1.02599997 0 0-3.0478064.5966129-3.6130645.71448387-.5681613.11496774-1.0091613.4270645-1.2144193 1.2460645l-1.6141936 6.4950968h-3.1662581c-.5969032 0-.9479032.2435806-1.0817419.8007097-.2103518.8645776-.4249996 1.7281044-.6439355 2.5905484-.1309355.5025483.1614194.8834516.7197097.8834516h3.105c-.0220645.0888387-1.1215161 4.2712258-2.0107742 8.0166774-.4186452 1.8011613-1.8206129 6.0157742-4.1164839 6.0157742-1.3714838 0-1.9509677-.6918387-1.9509677-2.1756774 0-2.3368065 2.3002258-8.1865162 2.3002258-10.8409355 0-3.5457097-1.9021936-5.6000323-5.7991936-5.6000323-2.4564193 0-5.0034193 1.5860323-6.0828387 2.978129 0 0 .3274839-1.1395161.4395484-1.5776129.1196129-.4627741-.1286129-.9174193-.736258-.9174193h-3.8101936c-.810871 0-1.035.4334516-1.1540322.9101613-.0476129.1913226-1.4205484 5.5826129-2.7386129 10.7581935-.9014517 3.5439678-3.0919355 6.5052581-5.4339678 6.5052581-1.2042581 0-1.7404839-.7557097-1.7404839-2.0392258 0-1.1090323.7165162-3.8456129 1.5715162-7.2420968 1.0402258-4.1350645 1.9579355-7.5402581 2.0560645-7.938.1280322-.5098064-.099871-.954-.756871-.954h-3.833129c-.6944516 0-.9423871.3643549-1.0887097.8706774 0 0-1.0788387 4.0839678-2.2212581 8.6304194-.8297419 3.2995161-1.746 6.6602903-1.746 8.2393548 0 2.817871 1.2652258 4.941871 4.7435807 4.941871 2.6846129 0 4.8091935-1.3613226 6.4315161-3.096-.2383548.9389032-.3904839 1.5331935-.405871 1.593871-.1399354.5368064.029613 1.0111935.6619355 1.0111935h3.9225484c.6828387 0 .9452903-.2746452 1.0878387-.8700968.1373226-.5681613 3.0669678-12.0913548 3.0669678-12.0913548.7742903-3.0954194 2.6895484-5.1450968 5.3840322-5.1450968 1.2777097 0 2.3835484.846 2.2555162 2.4900968-.1422581 1.8087097-2.3234517 8.3064194-2.3234517 11.1582581 0 2.1585483.8004194 4.9511613 4.8637742 4.9511613 2.7696775 0 4.8086129-1.3279355 6.2912904-3.0417097.5429032 1.8188709 1.9811613 3.0417097 4.6193225 3.0417097 4.3844517 0 7.0272581-2.6004194 8.5799033-5.2124517 1.2884516 3.034742 4.3060645 5.211 8.7311613 5.211 4.5101612 0 8.0004193-1.9013225 10.4739677-4.4860645l-.771387 3.025742c-.140226.5449354.096968.9734516.736839.9734516h3.882193c.531581 0 .909871-.2702904 1.047774-.8285807.068226-.2740645.629129-2.4419032 1.42142-5.5222258 1.515193-5.8944193 3.950419-12.0097742 7.609645-12.0097742 1.290484 0 1.819742.7214516 1.819742 1.8580645 0 .5359355-.155613.999-.290032 1.2472258-1.773581-.3524516-3.200517.5231613-3.200517 2.4169355 0 1.233871 1.298323 2.3553871 3.05071 2.3553871 1.338968 0 2.445968-.3283548 3.328839-.9226451.868991.1792397 1.73604.3677666 2.601.5655484-.133043.8547141-.201077 1.718287-.203516 2.5832903 0 4.7310968 3.378193 8.7433548 9.433451 8.7433548 4.745033 0 8.001291-1.7358387 10.812194-3.9611613 1.351161 2.2108065 4.762742 3.9974516 9.238645 3.9974516 6.134516 0 9.613742-3.1897742 9.613742-7.406129 0-3.8162903-3.132871-5.220871-6.363581-6.3902903-2.626258-.9487742-4.816742-1.4646774-4.816742-3.3207097 0-1.5212903 1.197581-2.2171935 3.250162-2.2171935 1.331709 0 2.33158.2868387 2.865484.4366451.529548 1.3253226 1.625225 2.7929032 3.495774 2.7929032 1.582838 0 2.293548-1.2518709 2.293548-2.4047419 0-3.2818064-5.466774-3.6258387-5.466774-10.664129 0-4.37661293 2.476452-7.98706454 7.60529-7.98706454 3.56371 0 5.890936 2.25987097 5.890936 5.90719355 0 3.00716129-1.823807 8.36041939-1.823807 8.36041939h-3.100064c-.595742 0-.947323.2435806-1.082033.8007096-.209817.8648065-.424853 1.7283383-.645096 2.5905484-.130355.5025484.162.8834516.72058.8834516h3.026904s-3.129097 11.5403226-3.129097 13.6390646c0 2.8178709 1.588064 4.9412903 5.067871 4.9412903 4.921838 0 7.997516-3.1984839 9.334742-7.8494516.103935-.3597097-.099871-.6526452-.464226-.6526452h-1.877807c-.374806 0-.592258.2136774-.686903.5800645-.424161 1.6510645-1.475419 3.3880645-3.545419 3.3880645-1.203678 0-1.874613-.756-1.874613-2.0392258 0-1.1087419.733935-3.7045161 1.636839-7.2156774.430258-1.6719677 1.196129-4.7911935 1.196129-4.7911935zm-38.808581-.1971291c1.740484 0 2.567323 1.1578065 2.567323 2.5377097 0 2.3339032-1.810162 3.7570645-4.641387 3.7570645-1.013226 0-2.42971-.2400967-3.266129-.5188064.35158-2.1463549 1.905096-5.7759678 5.340193-5.7759678zm-40.9427419 0c1.9050968 0 2.5664516 1.1578065 2.5664516 2.5377097 0 2.3339032-1.8092903 3.7570645-4.6402258 3.7570645-1.0135161 0-2.43-.2400967-3.266129-.5188064.3495484-2.1463549 1.727129-5.7759678 5.3399032-5.7759678zm-75.320129-21.644129c-12.41941936 0-18.6813871 8.90419355-18.6813871 16.3294839 0 4.4959355 1.70216129 8.4957096 5.35296774 9.9859355.59864516.2450322 1.13487097.0084193 1.30848387-.6543871.1207742-.4587097.40645162-1.6156452.53390323-2.097871.17535484-.6555484.10712903-.8854839-.37596774-1.4568387-1.05270968-1.2417097-1.7253871-2.8492258-1.7253871-5.1262258 0-6.606 4.9424516-12.51987099 12.87-12.51987099 7.02 0 10.8763548 4.2892258 10.8763548 10.01758069 0 7.5370645-3.3352258 13.8983225-8.287258 13.8983225-2.7345484 0-4.7816129-2.2616129-4.1254839-5.0353548.7856129-3.3114194 2.3074839-6.8852903 2.3074839-9.2755161 0-2.1396775-1.1485162-3.9242904-3.5253871-3.9242904-2.7955162 0-5.0411613 2.8919033-5.0411613 6.7659678 0 2.4674516.8338064 4.1362258.8338064 4.1362258s-2.86083867 12.1212581-3.36222577 14.2440968c-.99870968 4.2276774-.15038709 9.4102258-.07867742 9.9336774.0423871.3100645.441.3838064.62158065.1498064.25780645-.3364838 3.58693544-4.4468709 4.71919354-8.5543548.3202258-1.1630323 1.8386129-7.1849032 1.8386129-7.1849032.908129 1.7323548 3.5625484 3.2582903 6.3853548 3.2582903 8.4028065 0 14.1041613-7.6607419 14.1041613-17.9149355 0-7.75364515-6.5673871-14.9748387-16.5489677-14.9748387z" fill="#cb2027" transform="translate(0 23)"/></svg>