<svg height="90" viewBox="0 0 180 90" width="180" xmlns="http://www.w3.org/2000/svg"><g fill="none"><path d="m.10360809.03252812c2.61911611-.01927592 5.23702747-.00481898 7.85614358-.00722847.28070564-.02289016.45418895.24094904.6577909.39033745 4.80693343 3.98770668 9.61748113 7.97059438 14.42561923 11.9583011.3084148.255406.6071916.5240641.9409061.746942-2.6853771-4.36238244-5.3900302-8.71271744-8.0742025-13.07630463 2.6781486-.03614235 5.3611162-.03132337 8.0380601-.00240949 1.201131.7433278 2.3576864 1.56255455 3.5431557 2.33238675 4.3081689 2.84922245 8.6018809 5.7225398 12.9172783 8.56091957-.1530027-.1746881-.3035958-.3493761-.4469605-.5312927-2.7287479-3.46002825-5.4719528-6.90559958-8.1982912-10.3668326 2.5444219-.03373286 5.0900485 0 7.6344704-.01686643.1734833.00843322.3578093-.01686643.5216547.05541828 5.409306 2.54321716 10.8198168 5.08643432 16.2279181 7.63326572.3156433.14577417.6168296.33250968.9577725.4156371v.13252197c-.2011925-.03132337-.1903498.27106768-.2807057.3915422-5.6442313 14.58705516-11.2932817 29.17170076-16.9399225 43.75755116h-8.0645645c2.7167004-12.3799619 5.465929-24.7526953 8.1922675-37.1302477.1252935-.5830967.2590202-1.1649886.4047944-1.7432663-.0156617-.0012048-.0481898-.0024095-.0650563-.0036143-5.4309914 12.9630586-10.8800541 25.922503-16.3351404 38.8771283h-8.0645645c2.5239412-10.4752597 5.0635441-20.9457004 7.5910996-31.4197554.3108243-1.2107689.5662303-2.4359948.893921-3.6419448-5.4117156 11.6860287-10.8017457 23.3804905-16.22309918 35.0617002h-8.06215502c3.02029627-11.1378696 6.07553015-22.2673059 9.10546438-33.402766.07710369-.363833.29516258-.7397136.1999877-1.1131846-3.10703792-5.9574651-6.25262769-11.89685903-9.35364189-17.85793838z" fill="#ffd02f" transform="translate(3 18)"/><path d="m36.5882353 37.5294118-5.8823529-1.2941177v-15.0588235c0-2.5882353-1.882353-4.4705882-4.7058824-4.4705882s-4.7058824 1.8823529-4.7058824 4.4705882v16.3529412l-5.8823529-1.2941177v-15.0588235c0-2.5882353-2-4.4705882-4.7058823-4.4705882-2.94117652 0-4.82352946 1.8823529-4.82352946 4.4705882v16.3529412l-5.88235294-1.2941177v-23.6470588l5.88235294-1.1764706v2.7058824c1.64705882-2 4.23529416-3.1764706 7.05882356-3.1764706 2 0 4.4705882.7058823 6.4705882 2.5882353 2-1.882353 4.2352941-2.5882353 7.0588235-2.5882353 4.1176471 0 10.1176471 2.8235294 10.1176471 10.4705882zm57.0588235.117647c7.4117652 0 13.4117652-6 13.4117652-13.4117647 0-7.2941176-6-13.2941176-13.4117652-13.2941176-7.5294117 0-13.5294117 6-13.5294117 13.2941176 0 7.4117647 6 13.4117647 13.5294117 13.4117647zm0-5.5294117c-4.3529412 0-7.8823529-3.5294118-7.8823529-7.882353 0-4.2352941 3.5294117-7.7647059 7.8823529-7.7647059 4.2352941 0 7.7647062 3.5294118 7.7647062 7.7647059 0 4.3529412-3.5294121 7.882353-7.7647062 7.882353zm-21.4117647-20.7058824 3.4117647-.5882353v6.1176471l-3.4117647.5882353c-2.9411765.5882353-4.8235294 2.117647-4.8235294 5.4117647v14.4705882l-5.8823529-1.1764706v-14.2352941c0-7.0588235 4.2352941-9.1764706 10.7058823-10.5882353zm-25.7647059-10.35294117c-1.4117647 1.41176471-1.4117647 3.76470588 0 5.29411765 1.4117647 1.4117647 3.882353 1.4117647 5.2941177 0 1.5294117-1.52941177 1.5294117-3.88235294 0-5.29411765-1.4117647-1.41176471-3.882353-1.41176471-5.2941177 0zm-.3529411 35.17647057 5.8823529 1.4117647v-26.4705882l-5.8823529 1.2941176z" fill="#050038" transform="translate(70 26)"/></g></svg>