<svg height="90" viewBox="0 0 180 90" width="180" xmlns="http://www.w3.org/2000/svg"><path d="m57.2570594.03502989c1.2708844-.02662272 2.6734813-.14572435 3.7790247.60811893 1.446034.67397513 2.5081403 1.96027277 3.2241513 3.35306128.3194726 1.3003096.4343707 2.65106224.3909336 3.98920412-.0028024 7.66033678-.0042036 15.32067368 0 22.98241168.0434371 1.2596749-.1401196 2.5123438-.1807542 3.7706176-.1233053.980837 0 2.012117-.4021432 2.9411097-.2339997.5730891-.4413766 1.1615912-.4946221 1.7823209-.0490418.5212448-.1443231 1.0466932-.400742 1.510489-.3362869.6109213-.4329694 1.3115191-.7076038 1.9462608-.4357718.8323102-.694993 1.7444886-1.1980223 2.5431702-.5002268 1.1419744-1.2358546 2.1494341-1.8860094 3.2073369-.3657121.5786938-.8196995 1.0915314-1.2568725 1.6155786-1.0004537 1.1854116-1.954668 2.4212662-3.107852 3.465157-1.4726567 1.2919024-2.9299002 2.6216371-4.5987243 3.6627255-1.6029679 1.0522979-3.2970134 1.9672787-5.0541128 2.7337328-.9121784.2998558-1.7528958.8028851-2.7043077.9822381-.794478.1625387-1.4852674.658562-2.2993621.7356278-.7258194.0784669-1.45304.179353-2.1494342.4049455-1.0691123.3348858-2.1942725.4413767-3.3110254.4385743-1.9182369-.0042036-3.8364738.0140119-5.7547107-.0112096-1.0508968-.0140119-2.0849792-.2255925-3.0854329-.5352567-.9766334-.2998559-2.0485481-.1765507-2.978942-.6375441-.865939-.4189575-1.8593867-.4609934-2.7099125-.9219867-4.2063895-1.632393-8.1059171-4.1083058-11.25860735-7.3478702-3.00416355-2.9018763-5.31893883-6.4805301-6.90509234-10.3352194-.48061012-.9402023-.61372371-2.005111-1.06210633-2.9593253-.27603555-.6725739-.26622718-1.4110041-.41475393-2.1144043-.11910163-.5786938-.36991566-1.1195553-.48201131-1.6996504-.16113751-.8295078-.18355664-1.6772312-.18215544-2.5193498-.00420359-9.1063708 0-18.2141427-.00280239-27.3219147.00840717-.76365165-.10789207-1.5945607.33208337-2.27273941.58990339-1.2652797 1.496477-2.41285897 2.7295292-3.09804366.8126935-.42596349 1.66321928-.88835807 2.60762518-.86313655.94440589.02382033 1.93925483-.13171239 2.83461887.24801164 1.07471709.4553886 2.14242817 1.03548361 2.89487027 1.9504644.5520711.70059784 1.1041422 1.4600459 1.2302498 2.3694219.1919638 1.20082471.4427779 2.41706256.3138679 3.6389052-.0742634.79447796.1443231 1.58054874.0770657 2.37362548-.0490418.651556-.1457243 1.3017108-.1191016 1.9560692.0476406.9836394-.0322275 1.9700811.0980837 2.9481157.114898.8883581-.2101794 1.7669078-.0630538 2.6538647.1317124.8421186-.0952813 1.6842372-.0210179 2.5291582.0826705.8407174.0112095 1.6870396.0938801 2.5291582.0966825.8435198-.1331136 1.6842372-.0224192 2.527757.1036885.8855557-.1177004 1.7641054-.0952813 2.6510622-.0266227 1.1251602.1975686 2.2391107.1415208 3.3642709-.0700598 1.1363697.2045746 2.2503203.3026583 3.3768816.0476406.6025141.2858439 1.1629924.5058316 1.7192671 1.689842 5.5389266 6.2100993 10.0269563 11.6131099 12.0054446.959819.5268496 2.0849791.4890173 3.100846.8477234.7104062.2311973 1.4544411.3615085 2.2026796.3474966 1.1223578-.0084072 2.2461167.0140119 3.3684745-.0112096 1.0018549-.0154132 1.9280452-.4455802 2.9032774-.6193285.5030293-.0952813 1.0200705-.1625387 1.4950758-.3671133 1.0228729-.4609933 2.0989912-.8028851 3.0700198-1.3759741 2.5221522-1.3857826 4.8145084-3.2759955 6.430087-5.677645.6067177-.7832683 1.1083458-1.6379977 1.5581296-2.5179486.4399754-.7454361.6235321-1.6001655.9780346-2.3834339.4806101-1.0368848.4567898-2.2082844.7818672-3.2914086.3671132-1.167196.186359-2.3974459.243808-3.5968694.1443232-1.6786324-.1401196-3.3614684.0476407-5.0386997.2031733-1.6814348-.078467-3.3712768.0742633-5.0541128-.0686585-1.0270764-.0910777-2.0527517-.0042035-3.0798281-.1331136-1.8635903.1134968-3.7327853-.0588503-5.5963756-.0728621-.7482385.0868742-1.496477.0084072-2.24611667-.0756646-.844921.0868741-1.68703961.0546466-2.53336181.0042036-.909376-.1134968-1.87900341.3082631-2.72252322.3671133-.72301697.6921907-1.49787819 1.303112-2.05555407.6977954-.70900502 1.5847523-1.18401035 2.4590984-1.63519537.4357719-.2255925.9373999-.22839489 1.4152077-.26902957zm21.70312.00560478c.8182982-.07846695 1.6422013-.0322275 2.4576972.05604783.6053165.04483826 1.109747.41475393 1.625387.69639426.8785497.47920892 1.6604169 1.15038166 2.2250987 1.9812907.3460954.51283762.7426337 1.02567524.8617354 1.64920732.2129817 1.17420199.2704308 2.3722243.2382033 3.56604303-.0014012 14.98999149 0 29.97998289 0 44.97137559-.0364311 1.9868955.1709458 4.0270364-.4119516 5.9592852-.6557596 1.3493515-1.7276743 2.5137451-3.0812293 3.1849178-.6613644.3895324-1.3927885.6921907-2.1704521.7048015-1.052298.0266227-2.1690509.1373171-3.1484867-.329281-.7286218-.3404906-1.4684531-.6963943-2.0513505-1.2624773-.7188134-.6193285-1.2554713-1.4124053-1.7318779-2.2236976-.3180714-.508634-.2550176-1.1293637-.3376881-1.6996504-.1247065-.9247891-.3180715-1.8453747-.3264786-2.7841758.0042036-15.0880751 0-30.1761503.0014012-45.26422546.0042035-.65295719-.0322275-1.30731558.0224191-1.96027277.0518442-.65295719.2564188-1.28069286.3278798-1.93084765.0630538-.53245437.0630538-1.09433384.3390893-1.57074037.4764066-.844921 1.0565016-1.64500374 1.7963329-2.27974538.5576759-.4876161 1.238657-.79728035 1.8846082-1.15038166.4483826-.2606224.9752322-.27743675 1.4796627-.31386784zm50.3295476.26622719c.662766-.33768817 1.427819-.21578414 2.14383-.23680208.655759.01961674 1.33674-.07566456 1.972883.12750881 1.500681.60111295 2.952319 1.55392602 3.736989 3.00976834.340491.67397512.828107 1.3325371.802885 2.12281146-.002802 17.37482651-.004203 34.75105421 0 52.12447951.039234.6809812-.339089 1.266681-.637544 1.8453748-.783268 1.5973631-2.304967 2.7323316-3.959779 3.3096242-1.273687.2942511-2.623038.2746343-3.89112-.0294251-1.098538-.5184424-2.258728-1.0649087-3.015373-2.0555541-.472203-.6263345-.992047-1.2680821-1.129364-2.0639612-.165341-.9472083-.559077-1.8579855-.529652-2.8332177.033629-5.8780159-.022419-11.7588342.029425-17.6382513-.306862-.1148981-.619328-.2424069-.950011-.2466105-7.703774.0098084-15.407547-.0028024-23.111321.007006-.8435201-.0294251-1.7346806-.0266227-2.503937-.4203587-1.0186693-.5268496-2.0611589-1.1139506-2.74214-2.0653624-.4021431-.5828975-.8617353-1.1573877-1.0410884-1.8551831-.3026582-1.3969921-.3138678-2.8724512.078467-4.2540301.2746343-.7104063.7412325-1.3311359 1.224645-1.9126322.7188134-.8477233 1.7094588-1.3829801 2.6973017-1.855183.5478675-.2634248 1.1699984-.2382033 1.7613027-.2970535 1.196621-.1162993 2.400249-.0448383 3.601073-.0630538 6.898087.0112095 13.796173-.0196168 20.694259.0168143.145725-.2998559.291449-.6123225.277437-.9542142-.019617-5.6944593.005605-11.3903198-.012611-17.08618026-.014012-.76785523.274635-1.48947101.431569-2.23070353.226993-1.42221362 1.1728-2.65246344 2.310571-3.49037846.554874-.37832283 1.16019-.67817871 1.761303-.97523219zm-98.4227872-.14011957c.7244182-.14152077 1.4698543-.11629925 2.2040808-.08967653.8042863.02662272 1.5399141.3895324 2.2433143.7482385.7818672.39373599 1.4011957 1.03548361 1.9854943 1.67302765.5394603.63053806 1.0621063 1.33393829 1.2064295 2.17185331.1835566 1.09433384.2704307 2.20548202.236802 3.315229-.0056047 8.87377228 0 17.74614338-.0028023 26.61991568.0182155 1.4082016.0182155 2.8416248-.3138679 4.217599-.7762624 2.0317337-2.5950144 3.7874319-4.8131072 4.0564615-.5941069.1078921-1.1994235.2676284-1.8061412.1667423-.5478675-.0896765-1.0901302-.2143829-1.6309918-.3320834-.8295078-.1821554-1.5174949-.7146098-2.1634461-1.2358546-.8154959-.6669691-1.3577586-1.5917583-1.8061413-2.5291582-.2662271-.566083-.3446941-1.1966211-.3531013-1.8145484 0-10.2301297.0042036-20.4616606-.0014012-30.69179033.0196168-.71881339.0392335-1.4614471.3040595-2.13962582.5450651-1.25687253 1.4039981-2.39043984 2.5249546-3.1835166.7019991-.36851446 1.4208124-.73422654 2.1858653-.95281306z" fill="#6ea6ff" fill-rule="evenodd" transform="translate(20.14012 12.392335)"/></svg>