<svg height="90" viewBox="0 0 180 90" width="180" xmlns="http://www.w3.org/2000/svg" xmlns:xlink="http://www.w3.org/1999/xlink"><linearGradient id="a" x1="66.7%" x2="41.7%" y1="16.7%" y2="75%"><stop offset="0" stop-color="#37aee2"/><stop offset="1" stop-color="#1e96c8"/></linearGradient><linearGradient id="b" x1="66%" x2="85.1%" y1="43.7%" y2="80.2%"><stop offset="0" stop-color="#eff7fc"/><stop offset="1" stop-color="#fff"/></linearGradient><g fill="none" fill-rule="evenodd" transform="translate(0 11)"><circle cx="32.53404" cy="32.53404" fill="url(#a)" r="32.53404"/><path d="m26.5694662 47.4454754c-1.0541029 0-.8748946-.3979998-1.2384625-1.4016749l-3.0994095-10.200235 23.8582961-14.1542053" fill="#c8daea"/><path d="m26.5694662 47.4454754c.813351 0 1.172581-.3719726 1.626702-.813351l4.337872-4.2180384-5.4109531-3.2628931" fill="#a9c9dd"/><path d="m27.1225449 39.1520063 13.1112182 9.6870104c1.4965659.8252802 2.5756115.3977287 2.9486685-1.3892035l5.3369382-25.1496264c.5465719-2.1906254-.8350404-3.1845403-2.2659959-2.534944l-31.3384143 12.084227c-2.1391131.8580853-2.1266417 2.0515424-.3904084 2.5832028l8.0424147 2.5105435 18.6184179-11.7464153c.8784191-.533016 1.6855344-.2467165 1.0234667.3410652" fill="url(#b)"/><path d="m88.2895771 21.1679479h9.8799373c5.5490056 0 8.3235086 2.3684782 8.3235086 7.1054344 0 4.7707917-2.808338 7.1731052-8.357344 7.1731052h-7.071599v9.8799374h-2.7745029zm2.7745029 2.4023136v9.4739125h6.9362574c1.9624533 0 3.3835406-.4060248 4.3309316-1.1842391.913556-.7782142 1.387251-1.9624533 1.387251-3.5865526s-.473695-2.8083383-1.421087-3.5188818c-.947391-.8120496-2.3684777-1.184239-4.2970956-1.184239zm23.278756-1.3872515v5.6505121h4.330932v2.2669719h-4.330932v11.1318472c0 .6428727.101507 1.1165683.37219 1.3872515.236848.2706832.676708.4398602 1.285745.4398602h2.233137v2.266972h-2.639162c-1.421087 0-2.469984-.3721894-3.079021-1.1165683-.575202-.676708-.845885-1.6579347-.845885-2.9775154v-11.1318472h-3.518882v-2.2669719h3.518882v-4.5339438zm12.011568 0v5.6505121h4.330932v2.2669719h-4.330932v11.1318472c0 .6428727.101506 1.1165683.37219 1.3872515.236847.2706832.676708.4398602 1.285745.4398602h2.233136v2.266972h-2.639161c-1.421087 0-2.469984-.3721894-3.079022-1.1165683-.575201-.676708-.845885-1.6579347-.845885-2.9775154v-11.1318472h-3.518881v-2.2669719h3.518881v-4.5339438zm15.022919 5.1768165c.947391 0 1.75944.1353416 2.402313.4060248v2.7068322c-.87972-.2706833-1.759441-.3721895-2.605326-.3721895-1.353416 0-2.50382.5752019-3.417375 1.7932763-.947392 1.1504037-1.387252 2.5376552-1.387252 4.1617545v9.2709001h-2.672997v-17.4929028h2.672997v3.0451862c.473696-1.0150621 1.082733-1.8271117 1.827112-2.4023136.913556-.7443788 1.962453-1.1165682 3.180528-1.1165682zm12.857452 0c4.330932 0 6.530233 2.4023135 6.530233 7.2069406v10.7596578h-2.706832v-10.5566454c0-3.4173756-1.556429-5.1091457-4.601615-5.1091457-1.218074 0-2.266972.4398602-3.146692 1.3195807-.947392.9473912-1.454923 2.1993011-1.556429 3.789565v10.5566454h-2.706832v-17.4929028h2.706832v2.5714906c.609037-.9812267 1.387252-1.7256055 2.334643-2.2331366.947391-.5413664 1.996289-.8120496 3.146692-.8120496zm16.917701 0c4.330932 0 6.69941 1.7932763 7.173105 5.4474997h-2.639161c-.236848-1.0827329-.676708-1.8947825-1.353416-2.3684781-.744379-.5413665-1.827112-.8120497-3.214363-.8120497-1.218075 0-2.165466.2030124-2.842174.676708-.744379.4398603-1.116568 1.0488975-1.116568 1.8271117 0 .7443789.473695 1.3872515 1.488757 1.8947826.642873.3045186 1.860948.676708 3.620388 1.1504036 2.097795.507531 3.586553 1.0488975 4.500109 1.6240993 1.387251.8797205 2.097795 2.0639595 2.097795 3.5865526 0 3.5865526-2.469985 5.4136643-7.409953 5.4136643-4.601615 0-7.105435-2.0301241-7.511459-6.0565369h2.639161c.203012 1.3872514.710543 2.3684781 1.454922 2.9775153.744379.5413665 1.860947.8120497 3.349705.8120497 3.112857 0 4.703121-1.0150621 4.703121-2.9775154 0-.9812266-.575202-1.7256055-1.657935-2.2669719-.575202-.2706832-1.827112-.6428727-3.721894-1.1165683-2.06396-.507531-3.518882-1.015062-4.330931-1.5564285-1.353417-.8120496-1.996289-1.9286179-1.996289-3.4173755 0-1.4887577.642872-2.6391614 1.962453-3.5188818 1.218075-.8797205 2.842174-1.3195807 4.804627-1.3195807z" fill="#272e2e"/></g></svg>