<svg height="90" viewBox="0 0 180 90" width="180" xmlns="http://www.w3.org/2000/svg"><path d="m48.0695063 44.8920356c-.4148395 2.8942549-2.3549639 5.3747052-5.0634927 6.473125-1.32884.5392442-2.7816928.7290494-4.2581409.5578956-1.4129783-.1640223-2.8038247-.6398153-4.2515561-1.4542589-2.0043259-1.1278597-4.0333447-2.8593291-6.316425-5.3990249 3.6346011-4.4887647 5.9041463-8.6260791 6.744617-12.3111888.3844764-1.6846582.4658712-3.2782539.2416238-4.7367182-.2163822-1.4076305-.7127996-2.6852498-1.4755335-3.7973838-1.700147-2.4791705-4.6307281-3.9593949-7.8404299-3.9593949-3.2078725 0-6.1380879 1.4798589-7.8382348 3.9586634-.762734 1.112134-1.2591513 2.3895705-1.4755336 3.7962865-.2244304 1.4570018-.1434013 3.0498658.2403435 4.7348899.8399219 3.6865725 3.10965 7.8249839 6.7453486 12.3150288-2.2830804 2.5395129-4.3120992 4.2709823-6.3164251 5.398842-1.4475484.8144436-2.8382118 1.2902366-4.2513731 1.4542589-1.4758994.1711538-2.9294838-.0186514-4.25850664-.5578956-2.70852875-1.0984198-4.64865331-3.5788701-5.06294406-6.473125-.20266409-1.4145788-.0462762-2.7788722.49221034-4.2936566.19827425-.5584441.43038684-1.1064656.71792108-1.757618.40679146-.9212316.83864156-1.8574578 1.25622471-2.762781l.05615331-.1215996c3.82299833-8.2912683 7.92658036-16.6968224 12.19697616-24.9837022l.1697403-.3298734c.4347766-.84479764.8843689-1.71830379 1.3379854-2.56237003.470627-.87496901.9445463-1.72086381 1.5668056-2.45009607 1.1631236-1.36264766 2.6929813-2.08291996 4.4242229-2.08291996 1.7306929 0 3.2601848.7199066 4.4231254 2.08218853.6231738.72941511 1.0969102 1.5749442 1.5668056 2.4491818.4494094.83656911.8951609 1.70221241 1.3260964 2.53914723l.1827268.3551076c4.2700301 8.2857828 8.3736121 16.6915195 12.1969762 24.984068l.034387.0746054c.4250825.9205003.864249 1.8720864 1.2778082 2.8092265.2880829.6522498.5205613 1.2006368.7184698 1.7570695.5381205 1.5155159.6943257 2.8799921.4920273 4.2940223zm-22.2184227-2.5888841c-3.0075863-3.8180466-4.937285-7.3636368-5.6144172-10.3359715-.2842418-1.2476307-.3491749-2.393959-.1931528-3.4075334.1349875-.8766148.4360571-1.6605211.8949778-2.3299593 1.0381961-1.5135043 2.874428-2.416999 4.9129581-2.416999 2.0377984 0 3.8742129.9038604 4.9125922 2.4177305.4589207.6692553.7599902 1.4535274.8947947 2.3301421.1560221 1.0148544.0907235 2.1617311-.1938843 3.4089963-.6778639 2.9719689-2.6071968 6.5164619-5.6138685 10.3335943zm25.0699869-2.892792c-.2487573-.6988782-.5390353-1.3752648-.8155949-2.0019145-.4254482-.9636545-.8711995-1.9295033-1.302135-2.8629863l-.0342042-.074057c-3.8445817-8.3386283-7.9712104-16.7911764-12.2648356-25.12285615l-.1821782-.35382759c-.4378862-.85083193-.8907709-1.73055522-1.3553619-2.59491853-.5425106-1.00936863-1.1435522-2.07816568-1.9939-3.0736372-1.8312932-2.14490836-4.3603874-3.32616223-7.1217771-3.32616223-2.7619384 0-5.2917643 1.18180244-7.1237891 3.32799078-.8490674.99528869-1.4499262 2.06353716-1.9928026 3.07308864-.468615.8720433-.9257066 1.75999512-1.3676168 2.61868988l-.1691916.32859339c-4.2938082 8.33241121-8.42025393 16.78495911-12.26483561 25.12285611l-.05597041.1214169c-.42361918.9181232-.86168821 1.8678805-1.28000299 2.8154436-.27655966.6261011-.56665465 1.3019392-.81559493 2.0026459-.72816403 2.0487257-.94436345 4.0060231-.66103612 5.9839834.59262785 4.13896 3.36736994 7.6861959 7.24121721 9.2576658 1.43858581.5834955 2.96606575.8797232 4.53963905.8795405.4839794 0 .9761897-.0287087 1.462547-.0852112 1.864034-.2165023 3.7421522-.8511976 5.582408-1.886532 2.25162-1.2668308 4.4756206-3.1237399 6.9050289-5.7769897 2.4294084 2.6532498 4.6532261 4.5101589 6.9048461 5.7769897 1.8406216 1.035517 3.7187397 1.6702126 5.582408 1.886532.48654.0565025.9785675.0852112 1.4627298.0852112 1.5733903 0 3.1006874-.296045 4.5390904-.8795405 3.8738472-1.5711042 6.6487722-5.11834 7.2419488-9.2576658.2829616-1.9770459.066762-3.9345262-.6610362-5.9843491zm36.9725454-27.4537638v23.1031915c0 1.2006383.036383 2.5104256.1455319 3.2380851h-4.6206383c-.1091489-.4002127-.1819149-1.2370212-.1819149-2.0738297-.8368085 1.4189361-2.5831915 2.5104255-5.0208511 2.5104255-5.093617 0-8.7319149-4.0021277-8.7319149-9.4231915 0-5.2391489 3.529149-9.3504255 8.586383-9.3504255 3.0561702 0 4.5842553 1.2734042 5.0572341 2.2193617v-10.2236171zm-13.5344681 17.3546809c0 3.2017021 1.8555319 5.093617 4.4387234 5.093617 2.4740425 0 4.4023404-1.8919149 4.4023404-5.13 0-3.2017021-1.9282979-4.9844681-4.4023404-4.9844681-2.4740426 0-4.4387234 1.819149-4.4387234 5.0208511zm22.3027659-2.0010638h8.0042553c-.109149-1.746383-1.237021-3.529149-4.002128-3.529149-2.5104251 0-3.8929783 1.9282979-4.0021273 3.529149zm8.4772343 4.6570212 4.03851 1.2006383c-.873191 3.1289362-3.783829 5.6757447-8.149787 5.6757447-4.9480849 0-9.2412764-3.5291489-9.2412764-9.5687234 0-5.7121276 4.2204255-9.4231915 8.8046804-9.4231915 5.566596 0 8.841064 3.492766 8.841064 9.2776596 0 .6912766-.072766 1.3825532-.072766 1.4917021h-12.8068082c.1091489 2.3285107 2.1102128 4.0748936 4.5114892 4.0748936 2.292128 0 3.492766-1.1278723 4.074894-2.7287234zm6.585319 1.3461703c.181915 2.0374468 2.07383 5.5302127 7.458511 5.5302127 4.693404 0 6.949149-2.9834042 6.949149-5.8940425 0-2.6195745-1.782766-4.7661702-5.311915-5.4938298l-2.546809-.5457447c-.98234-.1819149-1.637234-.7276596-1.637234-1.6008511 0-1.0187234 1.018723-1.7827659 2.292128-1.7827659 2.07383 0 2.765106 1.3461702 2.947021 2.4012766l4.038511-.9095745c-.181915-1.9282979-1.964681-5.166383-7.021915-5.166383-3.856596 0-6.694468 2.6559575-6.694468 5.8576596 0 2.5104255 1.528085 4.5842553 5.020851 5.3482979l2.364893.5457447c1.418937.2910638 1.928298.9095744 1.928298 1.7463829 0 .9823405-.764042 1.782766-2.364893 1.782766-2.146596 0-3.16532-1.3097872-3.274468-2.7287234zm23.139574 4.984468v-17.9004255h-4.838936v17.9004255zm-5.421063-23.7580851c0 1.6008511 1.34617 2.9470213 2.983404 2.9470213 1.71 0 2.983404-1.3461702 2.983404-2.9470213 0-1.71-1.273404-3.0197872-2.983404-3.0197872-1.637234 0-2.983404 1.3097872-2.983404 3.0197872zm9.314042 24.7404256 4.365958-1.1642554c.327446 2.0010639 1.855531 3.3836171 4.184042 3.3836171 3.05617 0 4.76617-1.4917022 4.76617-4.9844681v-1.3097873c-.727659 1.1642554-2.364893 2.2921277-4.984468 2.2921277-4.76617 0-8.331702-3.6746808-8.331702-8.6955319 0-4.7661702 3.42-8.7319149 8.331702-8.7319149 2.874256 0 4.475107 1.2370213 5.093617 2.4376596v-2.1102128h4.657022v15.9721277c0 4.9117021-2.692341 9.3868085-9.386809 9.3868085-4.911702 0-8.222553-3.0561702-8.695532-6.4761702zm9.168511-5.9304256c2.474042 0 4.220425-1.7827659 4.220425-4.5478723s-1.891915-4.5114894-4.220425-4.5114894c-2.43766 0-4.293192 1.746383-4.293192 4.5114894 0 2.8014894 1.782766 4.5478723 4.293192 4.5478723zm18.664468-5.3482978c0-2.0738298 1.200638-3.7110639 3.347234-3.7110639 2.328511 0 3.310851 1.5280851 3.310851 3.5655319v10.4419149h4.838936v-11.2787234c0-3.9293617-2.001064-7.0946808-6.47617-7.0946808-1.928298 0-4.038511.8368085-5.166383 2.6923404v-2.2193617h-4.693404v17.9004255h4.838936z" transform="translate(0 17)"/></svg>