<svg height="90" viewBox="0 0 180 90" width="180" xmlns="http://www.w3.org/2000/svg"><g transform="translate(48 15)"><path d="m63.8146341 59.7156863v-15.1862745h3.0634147l7.0829268 9.3529411v-9.3529411h3.2780488v15.1862745h-2.8292683l-7.3170732-9.6470588v9.6470588zm-8.5463414.2549019c-4.702439 0-7.9414634-3.3137255-7.9414634-7.8039215v-.0392157c0-4.3137255 3.3463414-7.8529412 7.9219512-7.8529412 2.7219512 0 4.3609756.7352941 5.9317073 2.0784314l-2.097561 2.5392157c-1.1609756-.9803922-2.204878-1.5392157-3.9512195-1.5392157-2.4195122 0-4.3414634 2.1470588-4.3414634 4.7254902v.0392157c0 2.7745098 1.902439 4.8137254 4.5756098 4.8137254 1.2097561 0 2.2829268-.3039215 3.1317073-.9117647v-2.1666666h-3.3463415v-2.882353h6.5658537v6.5980393c-1.5414634 1.3235294-3.6780488 2.4019607-6.4487805 2.4019607zm-13.2682927-15.4411764h3.3268293v15.1862745h-3.3268293zm-7.4926829 15.4019607c-2.2829269 0-4.595122-.8039215-6.4097561-2.4313725l1.9609756-2.3627451c1.3560975 1.127451 2.7804878 1.8431373 4.5073171 1.8431373 1.3560975 0 2.1756097-.5392157 2.1756097-1.4313726v-.0392157c0-.8431372-.5170732-1.2843137-3.0439024-1.9313725-3.0439025-.7843138-5.0048781-1.627451-5.0048781-4.6372549v-.0392157c0-2.754902 2.2048781-4.5784314 5.2878049-4.5784314 2.2048781 0 4.0780488.6960784 5.6097561 1.9313726l-1.7268293 2.5196078c-1.3365853-.9313725-2.6536585-1.5-3.9317073-1.5s-1.9414634.5882353-1.9414634 1.3235294v.0392157c0 1 .6439024 1.3235294 3.2585366 2 3.0634146.8039216 4.7902439 1.9117647 4.7902439 4.5588235v.0392157c.0195122 3-2.2731707 4.6960784-5.5317073 4.6960784zm-18.7317073-.2156862v-15.1862745h11.3951219v2.9705882h-8.097561v3.0784314h7.1219513v2.9705882h-7.1219513v3.1862745h8.2048781v2.9705883h-11.502439zm-12.44878053-3.0196079h2.56585366c2.72195122 0 4.55609757-1.8431372 4.55609757-4.5294117v-.0392157c0-2.6862745-1.83414635-4.5784314-4.55609757-4.5784314h-2.56585366zm-3.32682927 3.0196079v-15.1862745h5.89268293c4.75121947 0 8.02926827 3.2745098 8.02926827 7.5490196v.0392157c0 4.2745098-3.2780488 7.5882353-8.02926827 7.5882353h-5.89268293z"/><path d="m45.7560976 37.8039216c-2.2829269 0-4.595122-.8039216-6.4097561-2.4313726l1.9609756-2.3627451c1.3560975 1.127451 2.7804878 1.8431373 4.507317 1.8431373 1.3560976 0 2.1756098-.5392157 2.1756098-1.4313726v-.0392157c0-.8431372-.5170732-1.2745098-3.0439024-1.9313725-3.0439025-.7843137-5.0048781-1.627451-5.0048781-4.6372549v-.0490196c0-2.754902 2.2048781-4.5784314 5.2878049-4.5784314 2.204878 0 4.0780488.6960784 5.6097561 1.9313726l-1.7268293 2.5196078c-1.3365853-.9313725-2.6536585-1.5-3.9317073-1.5s-1.9414634.5882353-1.9414634 1.3235294v.0392157c0 1 .6439024 1.3235294 3.2585366 2 3.0634146.8039216 4.790275 1.9117647 4.790275 4.5588235v.0392157c.009725 3.0196079-2.2732019 4.7058824-5.5317384 4.7058824zm-14.292683.0294117c-4.0585366 0-6.5365853-2.2745098-6.5365853-6.745098v-8.6764706h3.3268292v8.5882353c0 2.4705882 1.2292683 3.754902 3.2585366 3.754902s3.2585366-1.2352942 3.2585366-3.6470589v-8.6960784h3.3268293v8.5686275c0 4.5980392-2.5756098 6.8529411-6.6341464 6.8529411zm-18.1463414-.245098v-15.1764706h3.3268292v12.1470588h7.5317074v3.0392157h-10.8585366zm-9.99024393-7.5196078h2.63414634c1.65853659 0 2.63414634-1 2.63414634-2.2941177v-.0392157c0-1.5-1.03414634-2.3039216-2.70243902-2.3039216h-2.56585366zm-3.32682927 7.5196078v-15.1764706h6.17560976c3.6 0 5.78536584 2.1470588 5.78536584 5.245098v.0392157c0 3.509804-2.72195121 5.3333334-6.10731706 5.3333334h-2.52682927v4.5588235z"/><path d="m70.5560976 15.4705882v-15.18627447h3.0634146l7.0829268 9.34313725v-9.34313725h3.2780488v15.18627447h-2.8292683l-7.3170732-9.64705879v9.64705879zm-9.892683-2.8235294c2.6731708 0 4.5365854-2.127451 4.5365854-4.72549017v-.03921569c0-2.59803921-1.902439-4.7745098-4.5756098-4.7745098-2.6731707 0-4.5365853 2.12745098-4.5365853 4.72549019v.03921569c0 2.60784318 1.902439 4.77450978 4.5756097 4.77450978zm-.0390244 3.0784314c-4.6634146 0-8.0097561-3.4901961-8.0097561-7.80392157v-.03921569c0-4.31372549 3.3853659-7.85294118 8.0487805-7.85294118 4.6634147 0 8.0097561 3.49019608 8.0097561 7.80392157v.03921569c0 4.32352938-3.3853658 7.85294118-8.0487805 7.85294118zm-13.3365853-15.44117647h3.3268292v15.18627447h-3.3268292zm-9.5219512 15.18627447v-12.1078431h-4.595122v-3.07843137h12.5170732v3.07843137h-4.595122v12.0980392h-3.3268292zm-12.7512196-2.8235294c2.6731708 0 4.5365854-2.127451 4.5365854-4.72549017v-.03921569c0-2.59803921-1.902439-4.7745098-4.5756097-4.7745098-2.6731708 0-4.5365854 2.12745098-4.5365854 4.72549019v.03921569c0 2.60784318 1.902439 4.77450978 4.5756097 4.77450978zm-.0390243 3.0784314c-4.6634147 0-8.0097561-3.4901961-8.0097561-7.80392157v-.03921569c0-4.31372549 3.3853658-7.85294118 8.0487804-7.85294118 4.6634147 0 8.0097561 3.49019608 8.0097561 7.80392157v.03921569c0 4.32352938-3.3951219 7.85294118-8.0487804 7.85294118zm-24.9756098-.254902v-15.18627447h3.5804878l3.97073171 6.42156862 3.97073169-6.42156862h3.5804878v15.18627447h-3.297561v-9.91176467l-4.25365849 6.48039217h-.08780488l-4.20487804-6.42156864v9.84313724h-3.25853659z"/></g></svg>