<svg height="90" viewBox="0 0 180 90" width="180" xmlns="http://www.w3.org/2000/svg"><path d="m6.40962298 38.2812926h12.69048472v2.2048115h-5.1018312v3.1533932h4.3070736v2.1535368h-4.3070736v3.5635907h2.615009c-.4614722-1.0254937-.9485817-1.8971634-1.4613286-2.6662837l1.9228007-.6152962c.5896589.820395 1.1024058 1.6920646 1.5382406 2.6662836l-1.3844165.6152963h2.615009v2.2048115h-14.12617598v-2.2048115h5.81967688v-3.5635907h-4.30707365v-2.1535368h4.30707365v-3.1533932h-5.12746862zm17.12574502-4.0763375v22.6377738h-2.4611849v-.974219h-16.61299818v.974219h-2.46118492v-22.6377738zm-19.07418308 19.3818313h16.61299818v-17.0744704h-16.61299818zm33.53364448-8.5885099 2.2048115.4871095c-.8203949 3.589228-1.9997127 6.6913465-3.5379533 9.3063555l-1.9997127-1.2818672c1.5382405-2.6406463 2.6662836-5.4863914 3.3328545-8.5115978zm9.5370916-.3589228c1.0767684 2.8713824 2.0253501 5.9222262 2.8457451 9.1781687l-2.1535368.9485817c-.8716697-3.5379533-1.794614-6.6913465-2.8201078-9.4089048zm-5.9478635 12.1264632h-2.538097l-.5127469-2.3073609c.7691203.1025494 1.5126033.1794614 2.2304489.1794614.6152962 0 .9229443-.3589228.9229443-1.051131v-10.5113106h-6.1529623v-2.3586356h14.6389228v2.3586356h-6.0760502v11.1266068c0 1.6920646-.8460324 2.5637343-2.5124596 2.5637343zm-4.4865351-22.201939h11.7419031v2.3329982h-11.7419031zm-9.6140035-.4614722h8.2039497v1.9228008c-.7691203 2.2048115-1.6664273 4.5121723-2.691921 6.9477199 1.4613285 2.3329982 2.2560862 4.3839856 2.3586355 6.1529623 0 1.1793178-.2563734 2.0509874-.7434829 2.5637343-.7178456.6409336-1.9484381.974219-3.7174147.9998564l-.743483-2.3586356c.5127469.076912.9229444.1281867 1.2562298.1281867.6409336-.0512747 1.0511311-.153824 1.2562298-.3589228.2050988-.1794614.3332855-.5127468.3332855-.974219 0-1.717702-.7947577-3.6405027-2.3842729-5.7940395 1.1536804-2.5637343 2.0509874-4.8710952 2.7175583-6.9220826h-3.4866786v20.5098743h-2.3586355zm32.303052-1.1024057 2.2817235 1.0767684c-.8716696 2.1022621-1.9997127 4.1019749-3.3841292 5.9735009v16.895009h-2.4099103v-14.0492639c-1.051131 1.0767684-2.1791741 2.1278994-3.3841292 3.1277558l-.7691203-2.538097c3.4610413-2.9995691 6.0247756-6.4862477 7.6655655-10.4856732zm12.1777379 23.4838061h-4.7941831c-2.0509875 0-3.0764812-1.0254937-3.0764812-3.0764811v-7.1784561c-.9229443.4871096-1.871526.9742191-2.845745 1.4356912l-1.1024058-2.3073608c1.3844165-.6152962 2.7175584-1.2562298 3.9481508-1.9740754v-9.9729264h2.4355476v8.4603231c2.5124596-1.6664272 4.7429084-3.5635906 6.6400718-5.6914901l1.6920646 1.9228007c-2.4355475 2.5124596-5.2043806 4.7685458-8.3321364 6.7169839v8.2552244c0 .7178456.3845601 1.0767684 1.2049551 1.0767684h3.8199641c.5896589 0 1.0254937-.2050987 1.3075045-.5896589.2563734-.3845601.4358348-1.7433393.4871095-4.1019749l2.2560862.743483c-.1794614 2.9482944-.5127469 4.7429084-.974219 5.3582047-.4871096.6152962-1.3844166.9229443-2.6662837.9229443zm14.7158348-14.0492639c1.3075045.6152962 2.4868223 1.3331418 3.5635907 2.1791741l-.9998564 1.5895153c-1.1536804-.9998564-2.3329982-1.7689767-3.512316-2.3329982zm-3.4097666 5.4351167h-1.717702v2.0766248h1.717702zm0 3.8199641h-1.717702v2.2560862h1.717702zm1.9228007 2.2560862h1.6664273v-2.2560862h-1.6664273zm1.6664273 1.871526h-5.30693v.974219h-2.1022621v-10.2805745c-.2307361.1538241-.4358348.3076481-.6152962.4358348l-1.1536804-1.8971633c1.6407899-.8460323 2.8713824-1.8715261 3.743052-3.0508438h-2.8201077v-2.0766248h1.9228007c-.2563734-.7691203-.5896589-1.4613286-.9998563-2.1278995l1.7433393-.6922082c.3589228.7947576.6665709 1.7433393.974219 2.8201077h.974219v-3.6405027c-1.2049551.1025494-2.4868222.153824-3.8456014.153824l-.6665709-1.948438c3.743052 0 6.9220826-.4101975 9.4858169-1.2049551l1.0767684 1.8458887c-1.1536805.4101974-2.4868223.7178456-3.9737882.9229443v3.8712388h.820395c.4101975-1.0254937.7947576-2.1535368 1.1280431-3.3328546l1.794614.6409336c-.3332855.9998564-.6922083 1.8971634-1.1024058 2.691921h1.5638779v2.0766248h-4.2045242v3.4097666h-2.0766248v-3.4097666h-.0512747c-.7691202 1.5382405-1.794614 2.8970197-3.1277558 4.0250628h8.8705207v10.7420467h-2.0509875zm-1.6664273-5.8709515h1.6664273v-2.0766248h-1.6664273zm5.6658528 6.5631597-.6152962-2.2304488 2.0509874.076912c.4101975 0 .6409336-.3332854.6409336-.9485816v-4.6916338c-.7691203 1.0254937-1.6407899 1.9997127-2.5637343 2.8713824l-.974219-2.1791741c1.3331418-1.1024058 2.5124596-2.3842729 3.5379533-3.8199641v-9.2550808h-3.0764812v-2.0253501h5.2043807v19.7663914c0 1.6151526-.7691203 2.4355475-2.2560862 2.4355475zm5.7684022 0-.5896589-2.2304488 2.0253501.076912c.4871095 0 .7434829-.3589228.7434829-1.0767684v-5.1274685c-.6922082 1.051131-1.4356912 2.02535-2.2560862 2.9226571l-.974219-2.1791742c1.2049551-1.1536804 2.2817235-2.4868223 3.2303052-4.0250628v-8.4603232h-2.9226571v-2.1022621h5.0761943v19.6382047c0 1.6920646-.794758 2.5637342-2.3586359 2.5637342zm.3332854-18.4076122c.5127469 1.7689767.9485817 3.6661401 1.3587792 5.6658528l-1.5126032.6922083c-.4614722-2.2048115-.9485817-4.1532496-1.4613286-5.8453142zm-5.7684021.3076482c.5383842 1.7689766.9998564 3.66614 1.4100538 5.6914901l-1.4869659.6665709c-.4614721-2.2048115-.974219-4.1276122-1.5126032-5.8196768zm21.586643-4.2814363h12.53666v2.0253501c-.666571 1.7433393-1.871526 3.2559425-3.614865 4.5378097 1.538241.6409335 3.409767 1.0767684 5.614578 1.3075045l-.846032 2.1278994c-2.845745-.3332854-5.204381-1.0254937-7.050269-2.0766248-1.974076.9742191-4.358349 1.7433394-7.178456 2.3586356l-1.153681-2.0253501c2.40991-.4871095 4.460898-1.1024057 6.1786-1.8202513-1.333142-1.1793178-2.307361-2.5893717-2.948295-4.2814363h-1.53824zm3.922513 2.1535368c.615296 1.2562298 1.512603 2.3073609 2.717559 3.1790305 1.512603-.9229443 2.615008-1.9740754 3.332854-3.1790305zm-3.17903 9.5114542h4.640359v-2.1022621h2.40991v2.1022621h4.973644v2.2048115h-4.973644v2.4099102h6.229874v2.3073609h-6.229874v4.2557989h-2.40991v-4.2557989h-5.742765v-2.3073609h5.742765v-2.4099102h-4.640359zm-6.588797-12.3571993c1.666427 1.2562298 3.076481 2.5124596 4.230161 3.7943268l-1.666427 1.6920646c-1.025494-1.2049551-2.435548-2.4868223-4.255799-3.8199641zm-3.409767 7.4348295h5.819677v10.5113106c.666571-.666571 1.358779-1.4100539 2.076625-2.2304489l.640933 2.5637343c-1.512603 1.64079-3.127756 3.1277559-4.81982 4.409623l-.897307-2.1791741c.435834-.3845602.666571-.8460324.666571-1.4100539v-9.3319928h-3.486679zm36.558851-.2563735v2.0253501h3.563591v-9.2550808h2.281723v9.2550808h3.537953v-2.0253501h-2.384272v-1.9997127h2.384272v-2.1791742h-2.486822v-2.0509874h4.665997v10.3318492h-5.717128v1.8971634h5.588941v2.0509874c-.820395 1.6664273-2.153537 3.1277559-3.999426 4.3839857 1.563878.6409335 3.358492 1.1793177 5.358205 1.5895152l-.897307 2.2817235c-2.717558-.5896589-5.024919-1.4100538-6.973357-2.4355475-2.102262.9998563-4.640359 1.8202513-7.614291 2.4611849l-1.204955-2.1791742c2.486822-.4614721 4.640359-1.0254937 6.486248-1.7433393-1.589516-1.2049551-2.845746-2.615009-3.743053-4.2301616h-1.179317v-2.1791741h5.896589v-1.8971634h-5.768403v-9.5883662c1.333142-.3076482 2.615009-.8460324 3.871239-1.563878l1.358779 1.8202514c-.846032.4101975-1.845888.8460323-3.025206 1.2562298v1.9740754h2.486822v1.9997127zm1.435691 8.1783124c.922944 1.1793178 2.1279 2.2048115 3.640503 3.0764812 1.589515-.8716697 2.845745-1.8971634 3.717415-3.0764812zm-9.126894 7.8706643h-2.40991l-.512747-2.3073609c.743483.1025494 1.435691.1794614 2.102262.1794614.538384 0 .820395-.3332854.820395-.9998563v-5.4863914c-.87167.3076481-1.717702.6152962-2.589372.897307l-.564021-2.3073609c1.076768-.2563734 2.127899-.5896589 3.153393-.9485817v-5.4094793h-2.640646v-2.3329982h2.640646v-4.5890844h2.358636v4.5890844h2.127899v2.3329982h-2.127899v4.4608977c.794757-.3589228 1.563877-.743483 2.332998-1.1536805v2.3842729c-.769121.3845602-1.538241.743483-2.332998 1.1024058v7.0759066c0 1.6664273-.794758 2.5124596-2.358636 2.5124596zm24.534937-21.6122801h8.434686v-1.8202513h2.461185v1.8202513h8.434686v2.2048115h-8.434686v1.7689767h9.690916v4.9992819h-2.358636v-2.8970198h-9.075619l1.128043.5640215c-1.410054 1.0767684-2.845745 2.0509875-4.332711 2.8713825 1.999712-.0512747 3.640502-.1281868 4.92237-.2050988.871669-.5896589 1.743339-1.2049551 2.640646-1.871526l1.948438 1.3075045c-2.666284 1.9740754-5.588941 3.5635906-8.767971 4.7685457 2.845745-.1025493 5.640215-.2563734 8.383411-.4101974-.48711-.5383842-.974219-1.0767684-1.486966-1.5895153l1.768977-1.1024057c1.794614 1.794614 3.204667 3.3841292 4.204524 4.7429084l-1.845889 1.3075045c-.38456-.5640216-.794757-1.1536805-1.25623-1.717702-1.897163.1025494-3.691777.2050987-5.435116.3076481v4.486535c0 1.5126033-.820395 2.2817235-2.409911 2.2817235h-2.332998l-.487109-2.2560861c.692208.1025493 1.358779.153824 2.02535.153824.512747 0 .794757-.2563734.794757-.7434829v-3.7943268c-2.717558.1281867-5.255655.2307361-7.61429.2820108l-.48711-2.1791741c.717846.0512746 1.410054.076912 2.076625.076912 1.743339-.4871095 3.56359-1.2562298 5.460754-2.3073609-1.538241.0512747-3.230305.1025494-5.127469.1538241l-.461472-1.794614c.358923-.076912.743483-.2307361 1.128043-.4358348 1.461329-.8460324 2.820108-1.8202514 4.101975-2.8970198h-6.588797v2.8713824h-2.358636v-4.9736445h9.690916v-1.7689767h-8.434686zm13.587792 16.0489767c2.666284.9485817 5.076194 2.1022621 7.255368 3.4610413l-1.230592 1.948438c-2.358636-1.5382405-4.768546-2.7431956-7.229731-3.6148653zm-8.383411-.0512747 1.435691 1.6151526c-1.999713 1.5126032-4.43526 2.768833-7.33228 3.7686894l-.999856-2.1535368c2.820107-.820395 5.101831-1.8971634 6.896445-3.2303052z" fill="#5c5f6b"/></svg>