<svg height="90" viewBox="0 0 180 90" width="180" xmlns="http://www.w3.org/2000/svg"><g fill="none" fill-rule="nonzero"><path d="m60.5909524 34.990315h14.0653073v2.0891984h-11.6524303v7.062079h11.0344984v2.0891983h-11.0344984v9.7692093h-2.412877zm23.3637113 5.3848353c.8239092 0 1.5301171.1177013 2.0891983.3531039v2.3540263c-.7650585-.2354026-1.5301171-.3236786-2.2657503-.3236786-1.1770132 0-2.1774744.5002306-2.9719583 1.5595425-.8239092 1.0004611-1.2064384 2.2068996-1.2064384 3.6193154v8.0625402h-2.324601v-15.2128951h2.324601v2.6482796c.4119546-.8827599.9416105-1.5889678 1.5889677-2.0891984.7944839-.6473572 1.7066691-.9710358 2.765981-.9710358zm10.8579464 0c2.2657503 0 4.0901207.7650585 5.4436859 2.3540263 1.294714 1.5006918 1.942072 3.3839128 1.942072 5.6790885 0 2.2657503-.647358 4.1489714-1.912647 5.6202379-1.3829902 1.5889677-3.2073606 2.3834516-5.4731109 2.3834516-2.2951757 0-4.0901208-.7944839-5.4436859-2.3834516-1.2947145-1.4712665-1.9420717-3.3544876-1.9420717-5.6202379 0-2.2951757.6473572-4.1783967 1.9420717-5.6790885 1.3535651-1.5889678 3.1485102-2.3540263 5.4436859-2.3540263zm0 1.971497c-1.6183931 0-2.8836823.6179319-3.7664421 1.8537957-.8239092 1.1181625-1.2064385 2.501153-1.2064385 4.2078221 0 1.6772438.3825293 3.0602342 1.2064385 4.1783967.8827598 1.2358638 2.148049 1.8537958 3.7664421 1.8537958 1.5889678 0 2.8542569-.617932 3.7958674-1.8537958.7944839-1.1181625 1.2064385-2.5305783 1.2064385-4.1783967 0-1.7066691-.4119546-3.0896596-1.2064385-4.2078221-.9416105-1.2358638-2.2068996-1.8537957-3.7958674-1.8537957zm9.6515079-1.5595424h12.09381v1.6478184l-9.327829 11.5935797h9.798635v1.971497h-12.858869v-1.7066691l9.298404-11.534729h-9.004151zm21.392214-.4119546c2.442303 0 4.296098.8239092 5.531962 2.4717276 1.118163 1.4712665 1.706669 3.5604648 1.76552 6.2087444h-12.005534c.117701 1.7066691.559081 3.0308089 1.38299 3.9724195.823909.9416105 1.971497 1.4124158 3.413338 1.4124158 1.235864 0 2.265751-.3236787 3.030809-.9416106.647357-.5296559 1.147588-1.3241398 1.530117-2.3834516h2.354027c-.353104 1.4712664-1.029887 2.6482796-2.059773 3.5898901-1.26529 1.1181625-2.883683 1.7066691-4.85518 1.7066691-2.177474 0-3.942994-.7356332-5.237708-2.148049-1.353565-1.4712665-2.000923-3.4133382-2.000923-5.8850658 0-2.236325.617932-4.1195461 1.912647-5.6202379 1.294714-1.5889678 3.030809-2.3834516 5.237708-2.3834516zm.058851 1.971497c-1.353565 0-2.442302.4413799-3.266212 1.3241398-.823909.8827599-1.294714 2.0597731-1.441841 3.5604648h9.504382c-.294254-3.2662115-1.912647-4.8846046-4.796329-4.8846046zm17.125541-1.971497c3.766443 0 5.679089 2.0891983 5.679089 6.2675951v9.3572546h-2.354026v-9.1807027c0-2.9719582-1.353565-4.4432247-4.001845-4.4432247-1.059312 0-1.971497.3825293-2.736556 1.1475879-.823909.8239092-1.265289 1.9126464-1.353565 3.2956368v9.1807027h-2.354026v-15.2128951h2.354026v2.236325c.529656-.8533346 1.206439-1.5006918 2.030348-1.9420717.823909-.4708053 1.736094-.7062079 2.736555-.7062079zm9.622083-5.3848353h2.412877v12.9765702c0 2.059773.44138 3.6193154 1.382991 4.6786273.971035 1.0887372 2.501152 1.6478184 4.590351 1.6478184 2.059773 0 3.58989-.5590812 4.590351-1.6478184.912185-1.0593119 1.382991-2.6188543 1.382991-4.6786273v-12.9765702h2.412877v12.9471448c0 2.7365556-.706208 4.825754-2.089199 6.2675951-1.441841 1.4712665-3.531039 2.2068997-6.29702 2.2068997s-4.855179-.7356332-6.267595-2.1774743c-1.412416-1.4712665-2.118624-3.5604649-2.118624-6.2970205zm21.186237 0h2.383452v21.009685h-2.383452z" fill="#23cbfd"/><g><path d="m.28186047 12.3707865c-.53860466-6.06179774 4.61302325-11.91011234 10.59906973-12.31741571 8.3776745-.01966292 16.7553489 0 25.1330233-.01404495 2.944186-.15168539 5.8046512 1.20505618 7.9255814 3.19662922 1.9367442 1.83146067 3.147907 4.31179775 3.7116279 6.90449434.3069767.5983146.2734884 1.2865169.2902325 1.9410113-.0055813 8.6151685-.0027906 17.2275281-.0027906 25.8398876-.0167442.5674157.0139534 1.1629214-.2651163 1.6741573-.6334884 3.2696629-2.4418605 6.3342697-5.2018605 8.2219101-1.5767442 1.0617978-3.4074419 1.9073034-5.3413953 1.9016854-8.5646512.002809-17.1320931-.005618-25.6995349.002809-3.01953491.1769663-5.88000003-1.4185393-7.93674421-3.5365168-1.95069768-2.1573034-3.39627907-5.005618-3.21767442-7.9859551.00837209-8.6095506.0055814-17.2191011.0055814-25.8286517zm26.62325583-2.60674156c-3.7423256.67696626-7.0744186 2.90168536-9.5106977 5.79494386-2.3860465 2.741573-3.8148837 6.3230337-3.8595349 9.9775281-.0111628 4.7921348 0 9.5842696-.0055814 14.3764044-.1032558.9466293.5748837 1.9438203 1.5376744 2.0533708 1.0241861.1573034 2.0567442-.741573 2.0232559-1.7893258.0167441-4.1460674.0083721-8.2921348 0-12.4382023 5.7488372-.0421348 11.4976744.011236 17.2465116-.0280898.9823256.0533707 1.8725581-.8792135 1.8083721-1.8595506.0223256-.9662921-.8511628-1.8539326-1.8167442-1.7977528-5.6762791-.011236-11.3525581.002809-17.0316279-.002809.6083721-4.8370787 4.4427907-8.8651685 8.9609302-10.3398876 2.4390698-.8005618 5.0288372-.4606742 7.5432558-.5561798.9934884.0337078 1.8362791-.9494382 1.7413954-1.9297753-.0167442-.9129213-.8344186-1.73314607-1.7497675-1.72191011-2.2967441.00842697-4.6130232-.14606742-6.8874418.26123595z" fill="#23cbfd" transform="translate(0 20)"/><path d="m13.5097674.49438202c2.2744186-.40730337 4.5906977-.25280899 6.8874419-.26123595.9153488-.01123596 1.7330233.80898876 1.7497674 1.72191011.0948838.98033708-.7479069 1.96348315-1.7413953 1.92977528-2.5144186.09550562-5.1041861-.24438202-7.5432558.55617978-4.51813955 1.4747191-8.35255816 5.50280898-8.96093025 10.33988766 5.67906977.005618 11.35534885-.008427 17.03162795.002809.9655814-.0561798 1.8390697.8314606 1.8167441 1.7977528.0641861.9803371-.8260465 1.9129213-1.8083721 1.8595505-5.7488372.0393259-11.49767437-.0140449-17.24651158.0280899.00837209 4.1460674.01674419 8.2921349 0 12.4382023.03348837 1.0477528-.99906977 1.9466292-2.02325581 1.7893258-.9627907-.1095505-1.64093024-1.1067416-1.53767442-2.0533708.00558139-4.7921348-.0055814-9.5842696.00558139-14.3764045.04465117-3.6544943 1.47348838-7.23595502 3.85953489-9.97752806 2.43627907-2.89325842 5.76837209-5.11797753 9.51069763-5.79494382z" fill="#fff" transform="translate(13.395349 29.269663)"/></g></g></svg>