<svg height="90" viewBox="0 0 180 90" width="180" xmlns="http://www.w3.org/2000/svg"><g fill="none" fill-rule="evenodd"><g fill="#4497df" transform="translate(0 14)"><path d="m19.1625 0h3.0075c.63.06 1.8975.1875 2.535.2475-3.48 6.15-6.765 12.4125-10.4625 18.435-3.1125-3.855-5.7975-8.025-8.6925-12.0375 3.705-3.585 8.4225-6.1275 13.6125-6.645z"/><path d="m25.6875.4575c6.8625 1.6575 12.555 6.75 15.105 13.3125-7.035.105-14.07.3525-21.105.1875 1.665-4.6425 4.035-8.985 6-13.5z"/><path d="m56.58 1.5675h5.265c.0075 2.145.0075 4.29.0075 6.4425h2.9925l.06 1.215c-1.02.0075-2.0325.015-3.0525.0225v9.645c1.59-.5475 3.1725-1.125 4.74-1.71-.0075-4.8675 0-9.735-.0075-14.595-.555 0-1.68 0-2.2425 0v-1.2225c8.3925-.0075 16.7925 0 25.1925 0l.045 1.2c-.5175.0075-1.5525.0375-2.07.045.015 4.7775.0075 9.5475 0 14.3175 1.0425.0225 1.86.435 2.445 1.2525-.6075.06-1.8225.18-2.43.24-.0075.36-.0225 1.0875-.03 1.455-1.74 0-3.48 0-5.22.0075-.0225-.3825-.075-1.155-.105-1.5375-5.1.12-10.2225-.165-15.315.1275-1.665.555-3.5925.915-4.95 2.055-.15 6.315 0 12.6375-.0525 18.96-3.0525-.465-6.105-.9375-9.1725-1.3425.24-1.755.4875-3.5025.735-5.25 1.0575.15 2.1075.3 3.165.4575-.0075-3.705 0-7.4025 0-11.1075-2.085.8025-4.17 1.635-6.36 2.085 1.1625-2.325 4.245-2.295 6.345-3.375.0225-3.885.0075-7.77.015-11.6625-1.2975-.225-3.255.5625-3.7125-1.2075 1.2375-.0525 2.475-.075 3.7125-.09-.0075-2.145-.0075-4.29 0-6.4275zm15.3 1.0275v4.5075h10.3425c0-1.5075 0-3.0075.0075-4.515-3.45 0-6.9 0-10.35.0075zm-.0075 5.3025c.0075 1.4625.0075 2.9325.0075 4.395h10.3425c0-1.4625 0-2.9325 0-4.395-3.45 0-6.9 0-10.35 0zm.0075 5.1975c0 1.3425-.0075 2.685-.0075 4.0275 3.45.015 6.9075.0075 10.365.0075-.0075-1.35-.015-2.6925-.015-4.0425-3.45.0075-6.8925 0-10.3425.0075z" fill-rule="nonzero"/><path d="m98.8125 1.545c3.345-.2175 6.615.735 9.96.57 6-.0525 12.0075.0225 18.015-.0225 2.5275-.2325 5.0325-.6975 7.59-.54-.0225 12.6525.0075 25.305-.0225 37.9575-1.9875-.105-4.155.4125-5.955-.6825-7.8525-.105-15.705-.09-23.55-.0075-1.8375 1.1025-4.035.6-6.06.6375.0525-12.6375.0075-25.275.0225-37.9125zm5.265 1.815c.045 11.3925.0075 22.785.0225 34.185 8.3325.015 16.6575-.015 24.99.0075-.0075-11.415.0225-22.83-.015-34.2375-8.3325.03-16.665-.0525-24.9975.045z" fill-rule="nonzero"/><path d="m142.0725 1.5225c3.165-.0525 6.285.5775 9.45.5925 9.495-.075 19.0125.2775 28.4775-.615v38.0325c-3.0525-.615-6.15-.975-9.225-1.425.2475-1.665.4275-3.3375.81-4.9725 1.0425-.06 2.085.015 3.135.045-.03-9.9525-.0075-19.905-.015-29.8575-1.3125-.0075-2.625-.0075-3.93-.0075.2325 5.2425-.525 10.44-1.5525 15.57.81 2.835 2.8575 5.565 1.9275 8.6475-.945-2.1975-1.65-4.4925-2.5725-6.705-1.7775 5.0025-4.4325 9.705-8.2125 13.47-.9675-1.005-1.9275-2.0175-2.8875-3.03 3.99-4.08 6.5025-9.3375 7.8825-14.8275-1.2075-1.185-2.6475-2.22-3.39-3.7875 1.575-.2175 2.5575 1.455 3.765 2.205.6-3.8175.885-7.6725.81-11.535-2.5575-.0075-5.1225-.0075-7.68-.0075.0975 4.83-.375 9.6525-1.35 14.385 1.395 1.83 2.6775 3.78 3.3 6.0225-1.83-.93-2.61-2.895-3.645-4.53-1.0725 3.3-2.565 6.465-4.635 9.27-1.0725-.915-2.145-1.8225-3.21-2.745 2.0925-2.9325 3.435-6.3 4.275-9.7875-1.5-1.065-3.045-2.1225-4.11-3.645 1.53.5475 2.985 1.275 4.4175 2.0325.5175-3.6375.75-7.32.735-10.995-2.43-.0075-4.86-.0075-7.29-.0075.0075 12.0525-.015 24.1125.015 36.165-1.7625.015-3.5325.0225-5.295.03 0-12.66.0075-25.3275 0-37.9875z"/><path d="m105.12 13.32c2.805-2.67 4.935-5.955 6.3975-9.5325 1.2975.42 2.6025.84 3.9 1.2525-.135.4275-.4125 1.2825-.5475 1.71 3.9375.03 7.875-.09 11.8125.105-.5475 4.2525-3.4875 7.5675-6.6675 10.1925 2.43 1.0425 4.965 1.755 7.5225 2.37-.105.2625-.3075.78-.4125 1.0425-2.88-.36-5.6325-1.35-8.22-2.6475-3.9525 2.4075-8.2275 4.23-12.645 5.625-.4275-1.3425-.8475-2.6925-1.2675-4.035 3.42-1.0725 6.75-2.415 9.9225-4.0875-1.0275-1.0575-2.085-2.085-3.135-3.1275-1.23 1.4775-2.52 2.9025-3.8625 4.275-.9375-1.0425-1.8675-2.0925-2.7975-3.1425zm9.2925-5.67c-.6375 1.185-1.29 2.355-1.95 3.525 1.2 1.155 2.4225 2.2875 3.6825 3.3825 2.565-1.7775 4.8525-4.005 6.195-6.87-2.64-.075-5.28-.06-7.9275-.0375z" fill-rule="nonzero"/><path d="m0 19.725c.2475-4.5225 2.2125-8.6925 4.8075-12.33 3.66 6.0525 7.425 12.0675 10.7775 18.3-4.89.7425-9.8325 1.02-14.7525 1.4775-.3-1.6575-.6225-3.3225-.8325-5.0025z"/><path d="m26.43 16.2975c4.8675-.765 9.8025-1.0425 14.715-1.4625 1.95 6.7875.405 14.2725-4.0575 19.74-3.51-6.1125-7.3725-12.0375-10.6575-18.2775z"/><path d="m64.38 21.2625c9.2025-.0375 18.4275-.225 27.63.0975-2.3625 3.75-3.2925 8.295-6.3 11.7075 2.145 2.205 4.7025 3.8925 7.29 5.52l.1275.6225-.615.285c-2.91-1.23-5.325-3.33-7.59-5.475-2.055 2.115-4.365 3.975-6.885 5.52-.6825-1.2225-1.3725-2.445-2.055-3.675 2.25-1.4175 4.2975-3.1125 6.1125-5.055-1.5075-1.9725-2.985-3.9825-4.095-6.2175 2.5425.345 3.2025 3.5775 4.89 5.2125 1.545-2.2875 2.8125-4.755 3.735-7.365-3.0525-.0075-6.105-.0075-9.1575.0075-.96 3.4875-2.535 6.78-4.59 9.7575 1.1625.93 2.865 1.53 3.09 3.225-1.3725-.6-2.67-1.3575-3.93-2.145-2.1675 2.4375-4.68 4.56-7.485 6.24-.69-1.2225-1.38-2.4375-2.07-3.66 2.46-1.53 4.6875-3.405 6.555-5.625-1.2375-1.755-2.31-3.6225-3.0375-5.64 2.2725.195 2.4675 3.195 3.7875 4.6425 1.365-2.1375 2.475-4.41 3.3225-6.795-2.91-.0525-5.8275.0825-8.73-.075 0-.2775 0-.8325 0-1.11z"/><path d="m115.8075 21.33c2.0325-1.14 4.6725 1.1175 3.8475 3.2925-.465 1.8825-3.105 2.625-4.485 1.2525-1.4325-1.2075-1.1025-3.7875.6375-4.545z"/><path d="m17.3475 41.685c3.4275-6.135 6.6975-12.375 10.4025-18.345 3.135 3.7875 5.7375 7.9725 8.6475 11.9325-4.8075 5.115-12.12 7.6425-19.05 6.4125zm9.69-12.195c.7725-.465 1.545-.93 2.31-1.395-.5025-.6525-1.02-1.3125-1.575-1.9275-1.2225.6825-1.545 2.175-.735 3.3225zm-4.9125 7.29c2.3925-1.1475 4.4625-2.8125 6.6-4.365-.915-1.2225-1.8225-2.445-2.7375-3.6675-1.305 2.655-3.48 5.01-3.8625 8.0325zm5.6925-6.7125c.3675.4875 1.1025 1.4625 1.47 1.9425.5025-.3525 1.5075-1.05 2.01-1.4025-.5175-.6075-1.0575-1.2-1.6125-1.77-.4725.3075-1.4025.9225-1.8675 1.23zm2.0175 2.3175 1.1475 2.2725c.78-.5025 1.5525-1.02 2.325-1.545-.9225-1.38-2.1-1.8825-3.4725-.7275zm-6.4875 4.965c.66.9 1.3275 1.8075 1.995 2.7075 3.345-.75 7.095-2.16 9.135-4.89-.5175-2.3775-2.175.105-3.3225.6375-.63-.9-1.26-1.8-1.8975-2.6925-1.9725 1.41-3.9375 2.8275-5.91 4.2375zm-2.0175-.2475c.5625.3075.5625.3075 0 0zm-.765 2.685c1.0125-.0675 2.76 1.035 3.39-.0525-.2325-.525-.6975-1.5825-.93-2.115-.8475.69-1.6725 1.41-2.46 2.1675z" fill-rule="nonzero"/><path d="m108.8475 27.0525c5.91 1.38 11.7375 3.4575 16.77 6.915-.84 1.1325-1.68 2.2575-2.5125 3.3825-4.5525-3.0675-9.78-4.905-15.0825-6.15.27-1.38.5475-2.7675.825-4.1475z"/><path d="m1.2225 27.99c7.0425.15 14.1225-.36 21.1425.1575-1.86 4.5-4.0125 8.865-6.015 13.2975-6.945-1.485-12.765-6.795-15.1275-13.455z"/></g><g fill="#435565" opacity=".73" transform="translate(0 58.25)"><path d="m68.9475 16.08c.5475-5.325-.78-10.86.9-16.02 1.3725 5.325.405 10.9425.615 16.395-.165.2025-.5025.6-.6675.795h-2.9325l-1.38-.9525c1.155-.0825 2.31-.1575 3.465-.2175z"/><path d="m173.5875.3375c.675.9 1.3425 1.815 2.01 2.73.33-.7725.66-1.5375.9975-2.31.87 1.02 1.74 2.04 2.6175 3.0525-1.5225.0375-3.0375.075-4.56.105.165 1.3275.3675 2.6475.5775 3.9675.54-1.065.87-2.475 1.995-3.09.7425-.1875 1.2675.8475.7575 1.395-.39 1.35-1.7475 2.565-1.485 4.02 1.2225.105 2.175-1.245 3.5025-1.14v.4125c-.15.195-.45.5925-.6.795-.27.5175-.81 1.545-1.08 2.0625-1.1475-.435-2.2875-.8925-3.4125-1.365-.255.225-.765.675-1.0125.9-2.175-.57-4.4175-.66-6.645-.6525-.0075-1.245-.0075-2.4825 0-3.7275 1.7475.0075 3.495.0075 5.25.0075-.0075 1.245-.015 2.4975-.015 3.75.675-.57 1.35-1.14 2.025-1.7025-.36-1.1025-.7125-2.205-1.0575-3.3075-2.445.24-4.9125.225-7.3575.03-.21 2.295-.8475 4.59-2.6925 6.1275.585-3.255 1.3725-6.495 1.4025-9.825 2.7375-.015 5.4825-.0075 8.2275.03.135-.57.4125-1.7025.555-2.265zm-7.23 3.6225c-.1875.4275-.5475 1.275-.7275 1.695 2.5725-.5325 5.265-.6975 7.83.0225-.075-.45-.225-1.35-.3-1.8-2.2725.015-4.545-.105-6.8025.0825zm2.3775 4.6275c.03.3825.0975 1.1475.1275 1.5375.5175-.0075 1.5525-.0225 2.07-.03 0-.39.0075-1.1625.015-1.5525-.555.0075-1.6575.03-2.2125.045z" fill-rule="nonzero"/><path d="m3.9675 1.2225c.36.015 1.0725.0525 1.4325.0675-.825 1.9125-1.7325 3.78-2.5725 5.685 1.7325.06 2.535-1.38 3.3675-2.625l.5325.96c-.5925 2.1975-2.0775 4.02-3.1575 5.9925 1.23-.2475 2.46-.5025 3.69-.7425-.1125.3525-.3525 1.05-.4725 1.395-1.815.45-3.645.87-5.4825 1.2075.195-1.905 1.5975-3.315 2.58-4.8675-1.095-.03-2.1825-.0675-3.27-.1125 1.14-2.31 2.1825-4.665 3.3525-6.96z"/><path d="m6.435 7.7325c1.44-2.685 3.8475-4.665 5.565-7.1625 1.6725 2.4975 4.3275 4.32 5.5425 7.0875-.7875-.225-1.5825-.435-2.3775-.6375-.6075 1.185-2.0025 1.0575-3.1425 1.0725-1.2-.075-2.85.315-3.285-1.185-.765.285-1.53.555-2.3025.825zm2.5275-.9825c1.7025-.06 3.4275.1125 5.115-.1575.6225-1.5525-1.41-2.6475-2.0325-3.9225-1.02 1.3575-2.0475 2.7225-3.0825 4.08z" fill-rule="nonzero"/><path d="m27.4275 10.08c1.02-3.5025 3.33-6.4125 4.905-9.6675.9825 1.8975-.555 3.69-.75 5.565-.405 3.7425-.045 7.515-.1425 11.2725h-1.455c-.0075-3.09 0-6.1875.015-9.2775-.8475.7125-1.7025 1.425-2.5725 2.1075z"/><path d="m33.24 5.625c1.02-1.6725 1.2225-3.9975 3.0525-5.0475-.0525.63-.165 1.8825-.2175 2.5125 2.55-.0075 5.0925-.0075 7.6425.015-.36 1.545-.78 3.0675-1.245 4.575-1.8-.345-.7275-2.025-.5175-3.18-2.145 0-4.2975.0075-6.4425 0-.645 1.26-1.2675 2.535-2.055 3.72-1.815.345-.6525-1.8525-.2175-2.595z"/><path d="m54.315 7.5075c1.7325-2.37 3.66-4.5825 5.625-6.7575 1.83 2.145 4.62 3.945 4.815 7.0125-1.7175-1.575-3.2025-3.3675-4.725-5.115-1.1025 1.365-2.19 2.7375-3.285 4.1025 2.0925 0 4.185 0 6.2775-.0075-.0075 2.0775-.0075 4.155-.0525 6.2325-1.4925.0375-3.1875.4875-4.2975-.87l2.82-.3c.03-1.2225.06-2.445.0825-3.6675-1.2-.015-2.4075-.0225-3.6075-.0375-.03 2.58-.0375 5.1525-.03 7.725 1.6425.03 3.2775.0375 4.92.03.27-.705.795-2.1075 1.065-2.8125.9675 1.3125.5775 2.8125.12 4.2075h-7.245c-.435-3.195-.42-6.42-.3375-9.63-.5325-.03-1.605-.09-2.145-.1125z"/><path d="m89.0775.4425c.4875.4125 1.4625 1.2225 1.95 1.6275 1.9875.045 3.9825.0525 5.97.0675l.0225 1.065c-1.275.2025-2.8875-.15-3.66 1.17 1.41.5625 4.95-.9675 4.4625 1.53-5.175.1275-10.3575.1425-15.5325 0-.84-2.385 3.015-1.035 4.29-1.5375-.7725-1.2675-2.325-.9675-3.5625-1.17l-.045-1.08c1.95 0 3.8925.0075 5.8425.0375.0675-.4275.195-1.2825.2625-1.71zm-1.59 2.9325c.0825.2775.2475.825.33 1.095 1.4775.015 2.955.0225 4.4325.0225-.03-.3-.0825-.9-.105-1.2-1.5525.03-3.105.06-4.6575.0825z" fill-rule="nonzero"/><path d="m108.8475 2.685c2.67-.5625 5.355-1.095 8.07-1.3425-.945.81-1.9725 1.5075-3.0225 2.175-.045.7575-.0825 1.5225-.1125 2.28 1.2675.18 2.5425.3675 3.81.5775-.09-1.38-.165-2.7525-.24-4.125 2.385-.0075 4.7625-.0075 7.1475-.0075-.24 4.995.57 10.0725-.4875 15-.3675-.4425-1.11-1.32-1.485-1.7625-1.0725.03-2.145.075-3.21.1125-.465.5625-.9375 1.11-1.425 1.6575h-.435c0-1.7325.015-3.4725.06-5.205-.465-.015-1.38-.0375-1.8375-.0525-.615-.75-1.23-1.4925-1.8525-2.235-.0225 2.4975-.0225 4.995-.0225 7.4925h-1.4025c.0075-2.46.03-4.9125.105-7.365-1.0725 1.5525-2.1975 3.0675-3.435 4.4925-.3975-2.82 2.25-4.6725 3.3375-7.02-1.0575-.03-2.115-.0525-3.1725-.0825l-.03-1.2675c1.0725-.015 2.145-.03 3.225-.0525 0-.4875 0-1.47 0-1.9575-1.275-.2175-2.625-.3375-3.585-1.3125zm9.9825.9375c-.03 3.5025-.015 7.0125-.03 10.515 1.395.015 2.79.03 4.185.0525.0225-3.525.015-7.0425.015-10.56-1.3875-.0075-2.7825-.0075-4.17-.0075zm-5.265 3.9075c.915 1.1475 1.8225 2.295 2.7525 3.4275 1.0125-1.1025 1.215-2.5575 1.3875-3.99-1.38.1875-2.76.375-4.14.5625z" fill-rule="nonzero"/><path d="m138.405 1.7175c3.9375-.375 7.9125-.0525 11.865-.15.0675 2.3775.075 4.7625.0525 7.1475-4.1325-.1725-8.25-.09-12.3825-.0075l-.0375-1.2825c3.615-.075 7.2375.12 10.8525-.0825.0075-.3375.015-1.0125.0225-1.35-3.33-.2475-6.675-.06-10.005-.0975-.03-.3525-.0825-1.05-.105-1.395 3.3525-.045 6.705.105 10.0575-.0975l.39-.6975-.45-.6c-3.6075-.2475-7.2375.03-10.8525-.18.15-.3.4425-.9075.5925-1.2075z"/><path d="m66.195 1.9725c.2625.2625.78.7875 1.035 1.05.27 3.63.24 7.3125-.0225 10.9425-.9.2625-1.305-.1125-1.215-1.1025-.0525-3.63-.1875-7.275.2025-10.89z"/><path d="m37.7475 6.045c.3525-.03 1.05-.075 1.4025-.105.0375 3.7725.045 7.545-.1125 11.31h-4.6875c1.1025-.4875 2.205-.9825 3.3075-1.455.135-3.2475.135-6.5025.09-9.75z"/><path d="m84.1275 6.7725c3.9-.06 7.8075-.015 11.7075-.03.0525 1.83.075 3.66.0825 5.49-3.945.0525-7.89.045-11.835-.0075.0075-1.815.015-3.63.045-5.4525zm1.02 2.115c3.2325.165 6.465.1575 9.6975.0075-1.125-1.53-3.2625-.66-4.8525-.9075-1.5975.24-3.7125-.615-4.845.9zm.7425 1.2825c-.165.24-.5025.72-.6675.96 3.09.105 6.1875.0375 9.2775.0675-.0225-.285-.0675-.855-.09-1.1325-2.8425.0975-5.6925-.1425-8.52.105z" fill-rule="nonzero"/><path d="m34.8675 8.6925c.33-.1425.99-.435 1.32-.585-.5025 2.4-1.125 4.86-2.5575 6.885-.3525.0525-1.05.15-1.4025.195.9375-2.1375 1.65-4.38 2.64-6.495z"/><path d="m40.3275 8.0175c.3375.135 1.02.405 1.3575.54 1.0125 2.055 1.5525 4.305 2.34 6.4575-.285.18-.8475.555-1.1325.735-.885-2.565-1.83-5.115-2.565-7.7325z"/><path d="m8.3025 10.0275c2.4825.015 4.965.0225 7.455.0225.0075 2.4.0075 4.8.0075 7.2h-1.02c-1.44-1.4175-3.81-1.5675-5.2125 0h-1.2975c.0075-2.4075.0075-4.815.0675-7.2225zm1.4625 1.3875c-.0075 1.1925-.015 2.385-.015 3.5775 1.5225 0 3.0525.0075 4.5825.0075-.015-1.2075-.0225-2.4075-.0375-3.615-1.515.015-3.0225.0225-4.53.03z" fill-rule="nonzero"/><path d="m137.67 13.635c.9525-1.17 1.29-3.5625 3.0525-3.66.57 1.5225-1.23 4.2525-3.0525 3.66z"/><path d="m142.38 13.305c.9375-.945.84-3.03 2.1675-3.4125.8175 1.4175 1.2975 3.18 2.76 4.1025 1.935 1.215 4.0725 2.0625 6.0225 3.255h-2.49c-2.535-.57-4.68-2.115-6.3825-4.035-1.5 1.755-3.36 3.1725-5.505 4.035h-2.9625c2.0475-1.44 4.6125-2.145 6.39-3.945z"/><path d="m147.5025 13.71c.645-1.7025 1.4025-3.72 3.435-4.1175-.555 1.7175-1.2825 3.9825-3.435 4.1175z"/><path d="m164.145 17.25c-1.4775-1.9575 1.0425-3.975 1.8675-5.715.555 2.0775-.645 3.9375-1.5225 5.715z"/><path d="m167.4825 12.0375c.4275.0075 1.275.03 1.7025.045.2025 1.125 0 2.385.5925 3.4125 1.8525.81 4.26.435 5.7375-.9975.4275.8625.1725 1.83.18 2.7525h-6.285c-2.61-.1725-1.485-3.4725-1.9275-5.2125z"/><path d="m170.205 11.7975c1.3725.135 3.555 1.44 2.745 3.015-1.59.015-1.935-1.9875-2.745-3.015z"/><path d="m88.875 12.6225c1.7325-.3225 2.475 1.23 3.315 2.3925-1.7925.6375-2.61-1.14-3.315-2.3925z"/><path d="m95.085 12.48c1.5225.9825 2.58 2.475 3.3375 4.095-2.2125.4275-3.3825-2.2725-3.3375-4.095z"/><path d="m175.98 12.6c2.115.2175 3.3975 2.2875 3.51 4.2675-1.7325-.87-2.85-2.4975-3.51-4.2675z"/><path d="m82.5075 17.25c-.93-1.32.165-3.945 1.875-3.615.0075 1.2825-.9975 2.4075-1.41 3.615z"/><path d="m86.145 12.6675c1.47.5175 1.6425 1.98 1.905 3.3075 2.535.2925 5.01-.195 6.8475-2.07-.3 1.1175-.585 2.2425-.93 3.345h-8.775l1.3725-.0075c-.195-1.5225-.3375-3.045-.42-4.575z"/><path d="m.5325 16.725c1.395-2.55 4.965-1.89 7.365-2.7225-1.38 2.61-4.8675 2.3175-7.365 2.7225z"/></g></g></svg>