<svg height="90" viewBox="0 0 180 90" width="180" xmlns="http://www.w3.org/2000/svg"><g fill="none" fill-rule="evenodd"><g fill="#d1272c" transform="translate(0 30.803571)"><path d="m13.9419643 28.0044643-7.79464287-13.21875v13.21875h-6.14732143v-27.96428573h10.0446429c1.4464285 0 2.7723214.20089286 3.9776785.64285714 1.2053572.40178572 2.2098215 1.00446429 3.0535715 1.72767858.84375.72321428 1.4866071 1.60714285 1.9285714 2.65178571.4419643 1.00446429.6830357 2.12946429.6830357 3.33482143 0 2.08928567-.5625 3.81696427-1.7276786 5.14285717-1.1651785 1.3258928-2.6517857 2.25-4.5 2.7723214l7.4330357 11.6919643zm-.4017857-19.60714287c0-.96428572-.3214286-1.72767857-1.0044643-2.33035714-.6830357-.5625-1.4866072-.84375-2.4910714-.84375h-3.89732147v6.75000001h3.89732147c1.0848214 0 1.9285714-.3214286 2.53125-.9642857.6428571-.6428572.9642857-1.52678574.9642857-2.61160717z" fill-rule="nonzero"/><path d="m23.7455357 28.0044643v-27.96428573h16.3125v5.18303572h-10.2053571v6.54910711h9.4419643v5.1830357h-9.4419643v5.90625h10.7276785v5.1830358z"/><path d="m67.5401786 13.9821429c0 2.2901785-.4017857 4.3392857-1.2053572 6.0669642-.8035714 1.7678572-1.8883928 3.2142858-3.2544643 4.3794643-1.3660714 1.1651786-2.8928571 2.0491072-4.6607142 2.6517857-1.7276786.6026786-3.5357143.9241072-5.4241072.9241072h-8.4776786v-27.96428573h8.4776786c2.0089286 0 3.8571429.28125 5.625.88392857 1.7678572.60267857 3.2946429 1.48660715 4.6205357 2.69196429 1.3258929 1.20535714 2.3705357 2.65178571 3.1339286 4.37946428.8035714 1.72767858 1.1651786 3.73660719 1.1651786 5.98660719zm-6.3080357 0c0-1.2455358-.2008929-2.3705358-.6026786-3.4553572-.4017857-1.08482141-.9642857-2.00892856-1.6875-2.77232141-.7232143-.76339286-1.6071429-1.40625-2.6116072-1.84821429-1.0044642-.44196429-2.1294642-.68303571-3.3348214-.68303571h-2.3303571v17.63839281h2.3303571c1.2857143 0 2.4508929-.2410714 3.4955357-.7232142 1.0044643-.4821429 1.8883929-1.125 2.5714286-1.9285715.7232143-.8035714 1.2455357-1.7276785 1.6071429-2.8125.3616071-1.125.5625-2.25.5625-3.4151785z" fill-rule="nonzero"/></g><g fill="#000" transform="translate(73.125 30)"><path d="m16.03125 19.2053571h9.8839286c-.2410715 1.125-.7232143 2.2098215-1.3660715 3.1741072-.6830357 1.0044643-1.4866071 1.9285714-2.4910714 2.6517857-.9642857.7633929-2.0892857 1.3258929-3.2946428 1.7276786-1.2053572.4017857-2.4910715.6428571-3.8169643.6428571-1.8080357 0-3.4955357-.28125-5.02232146-.8839286-1.52678571-.6026785-2.89285714-1.4464285-4.01785714-2.53125-1.125-1.0848214-2.00892857-2.4107142-2.65178571-3.9375-.64285715-1.5267857-.96428572-3.2946428-.96428572-5.1830357 0-1.7678571.32142857-3.4553571.96428572-4.98214283.64285714-1.52678571 1.52678571-2.89285714 2.65178571-4.01785714s2.45089286-2.04910714 3.97767857-2.69196429c1.52678573-.64285714 3.21428573-.96428571 4.98214283-.96428571.9642857 0 1.8482143.08035714 2.6517857.20089286.8035715.12053571 1.5669643.36160714 2.2901786.64285714s1.40625.68303571 2.0892857 1.16517857c.6428572.48214286 1.3258929 1.08482143 2.0089286 1.80803571l.0803571.08035715 1.3258929-1.28571429-.0803571-.08035714c-1.2455358-1.36607143-2.7321429-2.45089286-4.4196429-3.21428572-1.6875-.76339285-3.65625-1.16517857-5.8258929-1.16517857-2.0491071 0-3.9776785.36160715-5.74553567 1.125-1.76785714.76339286-3.33482143 1.80803572-4.66071429 3.09375-1.32589285 1.28571429-2.37053571 2.85267857-3.13392857 4.62053572-.76339286 1.76785714-1.16517857 3.69642854-1.16517857 5.70535714 0 2.1294643.36160714 4.0580357 1.125 5.8258929.76339286 1.7276785 1.80803571 3.2946428 3.13392857 4.5401785s2.89285714 2.25 4.66071429 2.9732143c1.76785714.6830357 3.73660714 1.0446429 5.78571424 1.0446429 1.7678572 0 3.4553572-.3214286 5.0223215-.9241072 1.5267857-.6428571 2.9330357-1.4866071 4.0982143-2.5714285 1.1651785-1.0848215 2.1294642-2.3303572 2.8125-3.7366072.6830357-1.40625 1.0848214-2.9330357 1.1651785-4.5v-.1205357h-12.0535714z"/><path d="m32.785714.803571h1.928571v28.004464h-1.928571z"/><path d="m50.3839286.32142857h-1.125l-10.3258929 28.28571433-.0803571.1607142h2.0892857l3.8169643-10.6473214h10.0848214l3.7767857 10.5669643.0401786.0803571h2.0892857l-10.3258929-28.32589281zm3.8571428 16.11160713h-8.8392857l4.4196429-12.37499999z" fill-rule="nonzero"/><path d="m84.8571429 25.0714286c0 .2410714 0 .4821428.0401785.6830357v.1607143l-17.5982143-25.0714286-.0401785-.04017857h-2.3303572v28.00446427h1.96875v-23.62499999c0-.28125 0-.52232142 0-.80357142 0-.24107143 0-.44196429 0-.68303572 0-.04017857 0-.08035714 0-.16071428l17.7589286 25.19196431.0401786.0401785h2.1696428v-27.96428567h-1.96875v24.26785717z"/><path d="m90.9241071.80357143v1.72767857h7.0714286v26.2767857h1.9285714v-26.2767857h6.9508929v-1.72767857z"/></g></g></svg>