<svg height="90" viewBox="0 0 180 90" width="180" xmlns="http://www.w3.org/2000/svg" xmlns:xlink="http://www.w3.org/1999/xlink"><linearGradient id="a" x1="50%" x2="50%" y1="0%" y2="100%"><stop offset="0" stop-color="#505b5b"/><stop offset="1" stop-color="#272e2e"/></linearGradient><path d="m17.2285156 23 12.2753906 32.8125h.1757813l12.3046875-32.8125h9.2285156v42.65625h-7.1191406v-14.53125l.703125-18.4863281-.1757812-.0292969-12.65625 33.046875h-4.7753907l-12.5976562-32.9589844-.1757813.0292969.703125 18.3984375v14.53125h-7.1191406v-42.65625zm61.4941406 42.65625c-.2539075-.8007853-.4638663-1.5820274-.6298828-2.34375-.1660164-.7617226-.27832-1.5234337-.336914-2.2851562-.9765674 1.4843824-2.2607343 2.7294871-3.8525391 3.7353515s-3.3740136 1.5087891-5.3466797 1.5087891c-3.3007977 0-5.8349521-.8496009-7.602539-2.5488282-1.767587-1.6992272-2.6513672-4.0331882-2.6513672-7.0019531 0-3.0664216 1.2109254-5.454093 3.6328125-7.1630859s5.8300561-2.5634766 10.2246093-2.5634766h5.5371094v-2.7832031c0-1.6601646-.4882763-2.9589797-1.4648437-3.8964844s-2.3730378-1.40625-4.1894531-1.40625c-1.6211019 0-2.9101515.3906211-3.8671876 1.171875-.957036.7812539-1.4355468 1.7871032-1.4355468 3.0175781h-6.8554688l-.0292968-.1757812c-.1367195-2.5000125.9814334-4.7167872 3.3544921-6.6503906 2.3730588-1.9336034 5.4638482-2.9003906 9.272461-2.9003906 3.6914247 0 6.6699105.9374906 8.9355469 2.8125 2.2656363 1.8750093 3.3984374 4.5702949 3.3984374 8.0859374v14.0917969c0 1.3086003.0878898 2.5634706.2636719 3.7646485.1757822 1.2011778.4589824 2.3779239.8496094 3.5302734zm-8.7304687-5.0976562c1.796884 0 3.4130788-.4492143 4.8486328-1.3476563 1.4355541-.898442 2.387693-1.9238224 2.8564453-3.0761719v-4.6875h-5.6542968c-2.0703229 0-3.6914004.5126902-4.8632813 1.538086-1.1718809 1.0253957-1.7578125 2.2314383-1.7578125 3.618164 0 1.2109436.3955039 2.172848 1.1865234 2.8857422.7910196.7128942 1.918938 1.069336 3.3837891 1.069336zm35.3906245.0292968c1.73829 0 3.20312-.5126902 4.394532-1.5380859 1.191412-1.0253958 1.787109-2.3095626 1.787109-3.8525391h6.445313l.058593.1757813c.097657 2.9687648-1.108386 5.527333-3.618164 7.6757812-2.509778 2.1484483-5.532209 3.2226563-9.067383 3.2226563-4.667992 0-8.2470574-1.5038912-10.7373042-4.5117188-2.4902468-3.0078275-3.7353516-6.8163832-3.7353516-11.4257812v-1.0253906c0-4.5898667 1.2451048-8.3935396 3.7353516-11.4111329 2.4902468-3.0175932 6.0693122-4.5263671 10.7373042-4.5263671 3.808613 0 6.899403 1.1083873 9.272461 3.3251953 2.373059 2.2168079 3.520509 5.0341626 3.442383 8.4521484l-.058594.1757813h-6.474609c0-1.73829-.571283-3.2128846-1.713867-4.4238282-1.142584-1.2109435-2.631827-1.8164062-4.467774-1.8164062-2.675794 0-4.570306.9716699-5.6835932 2.915039-1.1132869 1.9433691-1.6699219 4.3798682-1.6699219 7.3095704v1.0253906c0 2.9882962.556635 5.4443263 1.6699219 7.368164 1.1132872 1.9238378 3.0077992 2.8857422 5.6835932 2.8857422zm48.632813-21.8261718 8.994141-15.7617188h8.4375l-13.125 21.1523438 13.623046 21.5039062h-8.554687l-9.257813-16.0253906-9.257812 16.0253906h-8.4375l13.417969-21.5039062-13.125-21.1523438h8.378906z" fill="url(#a)" fill-rule="evenodd"/></svg>