<svg height="90" viewBox="0 0 180 90" width="180" xmlns="http://www.w3.org/2000/svg"><g fill="none" fill-rule="evenodd"><g fill="#399" transform="translate(76.153846 23.923077)"><path d="m28.2115385.17307692h3.4615384c.0069231 10.61307688.0069231 21.22615388 0 31.84615388-1.1561538 0-2.3053846 0-3.4615384 0 0-10.613077 0-21.233077 0-31.84615388z"/><path d="m68.3584615 4.51384615c.81-.00692307 1.62-.01384615 2.43-.01384615v5.01230769c1.7307693.00692308 3.4615385.00692308 5.1923077.00692308v2.59615383c-1.7307692 0-3.4615384 0-5.1923077 0 .1107693 5.3376923-.2146153 10.6961539.1384616 16.02.7615384 2.2361539 3.4753846 1.4261539 5.2269231 1.3084616 0 .636923.006923 1.9107692.006923 2.5476923-2.2361538.2492307-4.6938461.906923-6.7984615-.1938462-1.6823077-.9553846-2.07-2.9976923-2.0423077-4.77-.0207692-4.9707692.0207692-9.9346154 0-14.9053846-.9761538 0-1.9592308-.0069231-2.9353846-.0138462 0-.6438461 0-1.9384615 0-2.58923073.9692308 0 1.9453846 0 2.9215384-.00692308.36-1.66153846.7061539-3.33 1.0523077-4.99846154z"/><g fill-rule="nonzero"><path d="m3.41307692 13.0915385c3.6-5.15076927 12.59307688-5.55230773 16.13769228-.1592308 2.0561539 3.3507692 2.2707693 7.5323077 1.5923077 11.3123077-.5330769 2.9561538-2.2153846 5.8846154-5.0192307 7.1861538-4.223077 1.9869231-9.84461543 1.0661539-12.71076928-2.79.09692308 4.4169231.02769231 8.8338462.04846154 13.2438462-1.15615384 0-2.30538461 0-3.46153846 0 0-10.7930769 0-21.5861539 0-32.37923078 1.16307692.01384615 2.31923077.0276923 3.47538462.04846153-.02076924 1.17692305-.04153847 2.36076925-.0623077 3.53769235zm5.15769231-.9692308c-2.52692308.6369231-4.23692308 2.9838461-4.74230769 5.4484615-.67153846 3.0876923-.55384616 6.5561539 1.16307692 9.3046154 1.80692308 2.88 5.88461534 3.51 8.84769234 2.1946154 2.3676923-1.1007692 3.6415384-3.6830769 3.9046154-6.1823077.2492307-2.7484615.2423076-5.7461538-1.3015385-8.1484615-1.5438462-2.6376923-5.0815385-3.4615385-7.87153847-2.6169231z"/><path d="m45.5815385 9.44307692c4.2438461-.85846154 10.2253846-.37384615 11.8938461 4.39615388 1.2461539 4.7215384-.0692308 9.6992307.7476923 14.4830769.27 1.6476923 2.1876923 1.2807692 3.3923077 1.3915385 0 .5884615.0138462 1.7723076.0138462 2.3607692-1.7446154.0276923-3.6553846.4915384-5.2615385-.4153846-1.1769231-.7753846-1.2946154-2.3123077-1.7584615-3.5238462-2.9838462 4.4584616-9.7269231 5.7392308-14.0746154 2.6169231-3.1984616-2.7069231-2.6446154-8.55 1.0592308-10.5646154 3.9461538-2.2430769 8.6815384-1.7446154 13.0430769-1.8623077-.2215385-1.71-.0138462-3.7523077-1.3846154-5.0538461-2.07-1.8553847-5.2546154-1.7515385-7.7330769-.8792308-1.6684616.5261538-2.16 2.3192308-2.8038462 3.7315385-1.1353846-.1246154-2.2707692-.2561539-3.4061538-.3876924.6023077-3.1430769 3.0392307-5.81538457 6.2723077-6.29307688zm-1.8138462 12.92538458c-2.5407692 1.5507693-2.2569231 6.2307693.8515385 6.9161539 5.1161538 1.5369231 10.6615384-3.0392308 10.0592307-8.3838462-3.6346153.1661539-7.6223077-.456923-10.9107692 1.4676923z"/><path d="m80.91 15.2584615c2.1807692-6.20307688 10.5784615-7.73307688 15.7984615-4.6176923 3.6484615 2.34 4.4584615 6.9853846 4.4446155 10.9938462-5.8984616.0138461-11.8038462-.0276923-17.7092308.0207692.4015384 2.2776923.6992307 4.86 2.5823076 6.4592308 3.4961539 3.1430769 9.7961539 2.0630769 11.6861539-2.3746154 1.0869231.18 2.1669231.36 3.2469233.5538462-2.2984618 6.4315384-10.869231 7.926923-16.2900002 4.7284615-4.9638462-3.3715385-5.58-10.4953846-3.7592308-15.7638462zm4.4861538-1.176923c-1.2184615 1.3638461-1.4815384 3.24-1.9661538 4.9361538 4.7838462.0415385 9.5676923.0276923 14.3515385.0069231-.4915385-2.2846154-1.0453847-4.9361539-3.2192308-6.2376923-2.8523077-1.6407693-6.9646154-1.26-9.1661539 1.2946154z"/></g></g><g fill="#c60" transform="translate(2.769231 28.076923)"><path d="m4.18153846.33923077c.59538462 0 1.8.00692308 2.39538462.00692308v5.01923077h5.19230772v2.59615384c-1.7307693 0-3.46153849 0-5.19230772 0 .01384615 4.76307694-.02076923 9.51923074-.00692308 14.28230774-.02076923 1.1561538.12461538 2.5476923 1.31538462 3.1084615 1.31538461.4223077 2.70692308-.0138462 4.04999998-.0761539 0 .6369231.0138462 1.9176924.0207692 2.5546154-2.1461538.263077-4.46538457.8376923-6.54230765-.0553846-1.81384615-.8930769-2.34692307-3.06-2.30538461-4.9292308-.01384616-4.956923.02076923-9.9207692.00692308-14.87769226-.98307693-.00692308-1.96615385-.00692308-2.9423077-.00692308 0-.86538461 0-1.73076923 0-2.59615384h2.9423077c.35307692-1.67538462.70615384-3.35076924 1.06615384-5.02615385z"/><path d="m25.1930769 5.05384615c3.2953846-.28384615 6.9646154.09 9.5330769 2.38846154 2.9769231 2.65846151 3.6 6.97846151 3.3161539 10.76538461-.1938462 3.7661539-2.2292308 7.6292308-5.8153846 9.1592308-4.7076923 2.0215384-11.1669231 1.4192307-14.2753846-3.06-2.4507693-3.6761539-2.6723077-8.55-1.3361539-12.6830769 1.1769231-3.67615389 4.7353846-6.34153851 8.5776923-6.57000005zm-.7130769 2.97c-2.4646154.67153847-4.2576923 2.90769235-4.7353846 5.36538465-.6784616 3.2330769-.54 6.9161538 1.4261538 9.6992307 2.0561539 2.8453847 6.2307693 3.2815385 9.2769231 1.9246154 2.4576923-1.0869231 3.7869231-3.78 3.9530769-6.3623077.1869231-2.88.1869231-6.0715384-1.5715384-8.5223077-1.9246154-2.45769227-5.5038462-2.93538458-8.3492308-2.10461535z" fill-rule="nonzero"/><path d="m52.8438462 5.10230769c3.5376923-.40153846 7.5253846-.01384615 10.2392307 2.54076923 2.6376923 2.58923078 3.3092308 6.54230768 3.1361539 10.09384618-.1107693 4.2507692-2.5338462 8.6053846-6.7153846 10.0038461-4.2369231 1.3361539-9.5469231.9553846-12.7038462-2.4923077-3.1569231-3.7176923-3.5030769-9.1592307-2.07-13.6592307 1.1492308-3.51692311 4.4792308-6.06461542 8.1138462-6.48692311zm.0276923 2.83846154c-2.8523077.57461539-4.7561539 3.23307697-5.1092308 6.00923077-.3807692 2.9838462-.4015385 6.3138462 1.35 8.9030769 2.9561538 4.5207693 11.2223077 3.6346154 12.8492308-1.6407692 1.0315384-3.2746154 1.0038461-6.9992308-.4223077-10.1492308-1.5715385-3.09461536-5.5315385-3.9530769-8.6676923-3.12230767z" fill-rule="nonzero"/><path d="m26.3076923 15.9230769h2.0769231v4.1538462c-.5192308 0-1.5576923 0-2.0769231 0 0-1.3846154 0-2.7692308 0-4.1538462z"/><path d="m54 15.9230769h2.0769231v4.1538462c-.5192308 0-1.5576923 0-2.0769231 0 0-1.3846154 0-2.7692308 0-4.1538462z"/><path d="m28.6338462 33.7915385c1.7030769-.0692308 2.4646153 1.5161538 3.51 2.5476923 3.8976923 4.1261538 10.6061538 5.0261538 15.57 2.3884615 2.8176923-.9 3.8215384-4.3961538 6.666923-4.9707692-2.5476923 4.5553846-7.4838461 7.9407692-12.8215384 7.7330769-5.3653846.2284615-10.3153846-3.1638462-12.9253846-7.6984615z"/></g></g></svg>