<svg height="90" viewBox="0 0 180 90" width="180" xmlns="http://www.w3.org/2000/svg"><g fill="none" fill-rule="evenodd"><g fill="#fed623" transform="translate(0 26)"><path d="m2.97391304 1.71614907c1.69937889-1.25776398 3.95217392-1.19068323 5.96459628-1.22981367 7.47391308.07826087 14.95341618-.10062111 22.42173908.08385094 3.5161491-.01677019 6.6242236 3.18074534 6.383851 6.71366459-.0391305 8.58074537.1173913 17.16708077-.1229814 25.74223607-.2962733 1.2130434-.9447205 2.3198757-1.7552795 3.2645962-1.6434783 1.2018634-3.6279503 1.8670808-5.673913 1.7664597-7.4571429-.0055901-14.9142857 0-22.37701867 0-1.74968944.0335403-3.47701863-.3633541-5.03664596-1.1515528-1.45341615-1.2689441-2.62173913-3.0242236-2.59937888-5.0142858-.06708075-8.2173913 0-16.4403726-.01118013-24.65776393-.10621118-2.17453416 1.01180125-4.30434782 2.80621118-5.5173913zm2.27515528 15.91490683c-2.04037267.4360248-3.95776397 2.0068323-4.18695652 4.1813665-1.05652174 3.689441 3.18074534 7.4571428 6.70807454 6.1658385 1.94534161-1.1403727 3.79006206-3.2869566 3.28136646-5.7074534.0335404-2.9068323-2.9515528-5.4055901-5.80248448-4.6397516zm25.75341618.0447205c-3.2031056.5813665-4.9807454 4.2652174-3.8068323 7.2111801 1.1124223 2.1857143 3.6335403 3.8124224 6.126708 3.2534162 2.3701864-1.0453416 4.3546584-3.7341615 3.5664597-6.4173913-.1677019-2.8006212-3.2198758-4.8689441-5.8863354-4.047205zm-11.7335404 5.7913043c-.8608696 1.2633541-1.3975155 2.7-1.9844721 4.0919255-1.0173913-.542236-2.0347826-1.078882-3.063354-1.5987578-.2012422 1.0397516-.3689441 2.0850932-.5198758 3.1360249-4.27639748.0167702-8.55838506.1453416-12.8012422.721118 4.55590062.2068323 9.1229814.4639752 13.678882.1229814.0503105-1.0173913.095031-2.0347826.1509317-3.0521739.9447205.6708074 1.8782608 1.3583851 2.8173913 2.0403726.6260869-1.5093167 1.2857143-3.0018633 2.0012422-4.4664596.7714286 1.7273292 1.7217391 3.3708075 2.9347826 4.8298137.5701863-.6428572 1.1403727-1.2857143 1.7217391-1.9173913.1006212.8944099.1956522 1.7944099.2850932 2.6888198 2.252795.2906833 4.5223603.2291926 6.7863354.3689441 1.9006211.0950311 3.7621118.7267081 5.6850932.4975156-.0559006-.1453417-.1621118-.4416149-.2180124-.5925466-3.8291926-.1229814-7.647205-.542236-11.4931677-.5254659-.2124224-1.3863354-.357764-2.789441-.4863354-4.1869565-.7267081 1.0062112-1.4701864 2.0068323-2.2583851 2.968323-1.0844721-1.6602484-1.4031056-4.1254658-3.236646-5.126087z" fill-rule="nonzero"/><path d="m6.23291925 20.7111801c.82173914-.9223602 1.92857143-1.0285714 3.0689441-.7658385-.22919254.7043478-.43602484 1.4254659-.79378882 2.0795031-1.01180124.1900621-1.62670807-.721118-2.27515528-1.3136646z"/><path d="m33.6857143 21.9913043c-1.4813665-.1062111-.9670808-1.716149-.4136646-2.521118.4639751.173292 1.3863354.5198758 1.8447205.6931677-.2291926.8273292-.2347826 2.1130435-1.4310559 1.8279503z"/></g><g fill="#140a0b" transform="translate(.559006 26.559006)"><path d="m43.8652174 1.25217391c.0838509-1.0621118 1.6546584-.83850931 1.8335404.07267081 1.984472 4.0136646 3.6279503 8.19503106 5.5341615 12.24782608 1.9006211-4.06956521 3.3763975-8.34037266 5.3720496-12.36521738.4527951-1.01180125 1.5484472-.66521739 2.3869566-.48633541-.0167702 6.84223603.0838509 13.69006209-.0503106 20.52670809.0559006 1.4981366-2.2807453 1.257764-2.336646-.0279503-.2236024-4.5167702.0111802-9.0503106-.0894409-13.57826089-1.5596274 3.39875779-2.8900622 6.89813669-4.5670808 10.24099379-.6987578-.357764-1.6602484-.4695652-1.9509317-1.3136646-1.4198757-2.8062112-2.4484472-5.7968944-3.8795031-8.60310559-.1732919 3.14720499.1565218 6.31118009-.1732919 9.44720499-.6204969.2180124-1.2913044.3018633-1.9285714.1229813-.6652174-1.4645962-.4248448-3.1192546-.4807454-4.684472.083851-3.86273292-.1509317-7.75341615.3298137-11.59937889z"/><path d="m63.0447205 7.74223602c1.2689441-2.59937888 1.9565217-5.57888198 4.047205-7.69192546.7937888.70434783 1.6378882 1.4310559 2.0236025 2.45403727 1.5149068 3.49937888 2.9347826 7.03229813 4.4385093 10.53167697 1.2857143.1509317 2.5378882.5701864 2.8956521 1.973292-.3409937.1621118-1.0341614.4919254-1.3751552.6540372-.2459628.7267081-.3465839 1.5372671-.8608696 2.1465839-1.347205.1397515-1.7776398-1.442236-2.5267081-2.2583851-3.0298136.0055901-6.0596273 0-9.095031.0111801-.5869566 1.257764-2.1801243 3.3484472-3.236646 1.2298137.7937888-3.1695652 2.4819876-6.026087 3.689441-9.05031058zm4.1813665-3.57204968c-1.2465839 2.99627329-2.4987578 5.98695656-3.7341615 8.98881986 2.4931677-.0111801 4.9807453-.0055901 7.473913-.0111801-1.2745342-2.9795031-2.4093168-6.02049691-3.7397515-8.97763976z" fill-rule="nonzero"/><path d="m79.7590062 4.84658385c3.0913044-2.71118012 7.2726708-4.59503105 11.4484472-4.15900621.4024845 1.38074534.542236 3.10248447-.6652174 4.14223602-.6484472-.58695652-1.2186335-1.24658385-1.7888199-1.90621118-3.9577639 1.11242236-8.1614906 3.38757764-9.5254658 7.52981362-.7434783 1.8726709.3857143 4.2316771 2.426087 4.5782609 2.8341615.6540373 5.221118-1.4254658 7.7869565-2.1913043 1.2074534-.3689441 1.7329192 1.3192546.8776397 2.0180124-2.3590062 2.0012422-5.5677018 3.0801242-8.6645962 2.7614907-2.4037267-.1956522-4.5279503-2.0906833-4.9751553-4.4664597-.5869565-3.0521739.9614907-6.17701858 3.0801242-8.30683225z"/><path d="m92.1074534 1.18509317c.4863354-1.49254659 1.7552795-.26832298 2.6161491.13416149 3.5776397-.59254658 7.6304345-1.62111801 10.9397515.39130435 2.275155 1.33602484 1.895031 4.66770186.190062 6.31677018-3.035404 2.99627331-7.3397514 4.35465841-11.532298 4.56708071-.0223602 1.5037267.1229814 3.0298137-.1285714 4.5223603-.542236 1.3192546-2.604969.4695652-2.2192547-.8832298 0-5.0142857-.1956521-10.0509317.1341615-15.04844723zm2.2248447 2.80062112c-.0223602 2.01242236-.0223602 4.01925465-.00559 6.02608691 2.9795031-.27950306 6.0428569-.94472045 8.5248449-2.6944099 1.056522-.810559 2.202484-1.95652173 1.928571-3.41552795-3.063354-2.16335403-7.1049687-.52546583-10.4478259.08385094z" fill-rule="nonzero"/><path d="m124.060248.79937888c2.795032-.22360248 5.612423-.06149068 8.413044-.1173913.749068.07826087 1.626708-.11739131 2.280745.35776397.072671.47515528.223603 1.42546584.296274 1.90062112-2.906833.30186335-5.830435.1621118-8.748448.18447205v8.75962728c2.599379.0559007 5.215528-.1621118 7.803727.089441 1.101242.0503106.648447 1.4422361.944721 2.1409938-2.890063.1453416-5.791305.0782609-8.681367.083851v1.2018633c4.214907.0111801 8.435404-.0335404 12.655901.0223603.475155.3689441.96149.7378882 1.453416 1.0956521-.095031-5.1037267-.184472-10.2186335.01118-15.31677015.329814-1.30248447 1.872671-.3242236 2.655279.03913044 3.147205-.61490683 6.741615-1.62111801 9.659628.25155279 1.704969 1.09006212 1.660248 3.49378882.860869 5.13167702-1.369565 2.85652174-4.214906 4.5111801-6.791925 6.1378882 3.739751.9391304 7.613665 1.5204969 11.224845 2.9124224-.00559.7322981-.050311 1.4590062-.122982 2.1913043-5.086956-1.0118012-10.106832-2.3534161-15.143478-3.5944099-.02795 1.0341615-.061491 2.073913-.100621 3.1136646-.340994.1285714-1.011801.3857143-1.352795.5142857-.531056-.4024845-1.056522-.810559-1.576398-1.2242236-.0559 1.4142857-1.419875.9223602-2.252795 1.0677018-3.365217-.00559-6.724844-.0335403-10.090062.0055901-1.246584.0335404-2.509938-.0670807-3.678261-.536646.273913-5.4670807-.279503-10.97329188.279503-16.41242232zm18.670808 3.14161491c-.03354 2.50993789-.039131 5.01987578.01118 7.52981371 3.465839-1.1962733 7.278261-2.91242241 8.809938-6.49565222.670807-1.17950311-.659627-2.24720497-1.744099-2.3310559-2.431677-.25714286-4.773914.6484472-7.077019 1.29689441z" fill-rule="nonzero"/><path d="m107.485714.74347826c3.633541-.06708074 7.267081-.07267081 10.900621-.00559006-.03913.7378882-.01677 1.49813664-.251552 2.2136646-2.739131.38012422-5.517392.10062111-8.273292.15652173v8.78198757c2.76708.089441 5.562111-.268323 8.301242.178882.156522.6875776.195652 1.3919255.257143 2.0906832-2.850932.0782609-5.707454.0391305-8.563975.0279503 0 .3074535-.00559.9167702-.00559 1.2242236 4.393788.0782609 8.804347-.2180124 13.186956.1229814.156522.5031056.469565 1.5149068.626087 2.0180124-5.310559.2515528-10.665838.3409938-15.965217-.00559-.475156-1.5149069-.290684-3.1248448-.324224-4.678882.078261-4.04161493-.100621-8.08322983.111801-12.12484474z"/><path d="m166.991925 1.4757764c.609317-.68757764 1.436646-.03913044 2.073914.21801242.08385 1.65465838-1.380746 2.75590062-2.230435 4.00248447 2.448447.03354037 5.232298.19006211 7.021118 2.11304348 2.431677 2.63850933 1.358385 7.32298133-1.671429 9.05031053-4.131056 2.5322982-9.715528 1.5372671-13.48882-1.1962733-.93913-.4695652-.273913-1.4031056-.02236-2.0906832 2.7.4695652 5.075776 2.1968944 7.887578 2.1745342 1.906211-.1118013 3.929813-.7099379 5.204348-2.2192547 1.106832-1.2018633 1.129192-3.4378882-.324224-4.38260869-2.269565-1.72173913-5.204348-.73788819-7.764596-.55341614-.737889.13975155-1.252174-.54782609-1.855901-.83850932 1.654658-2.14658385 3.231056-4.3826087 5.170807-6.27763975z"/><path d="m4.69006211 17.0720497c2.85093168-.7658385 5.83602489 1.7329192 5.80248449 4.6397515.5086956 2.4204969-1.33602486 4.5670808-3.28136648 5.7074535-3.52732919 1.2913043-7.76459627-2.4763976-6.70807453-6.1658386.22919255-2.1745341 2.14658385-3.7453416 4.18695652-4.1813664zm.98385093 3.0801242c.64844721.5925466 1.26335404 1.5037267 2.27515528 1.3136646.35776398-.6540373.56459628-1.3751553.79378882-2.0795031-1.14037267-.2627329-2.24720497-.1565217-3.0689441.7658385z" fill-rule="nonzero"/><path d="m30.4434783 17.1167702c2.6664596-.8217391 5.7186335 1.2465838 5.8863354 4.047205.7881987 2.6832298-1.1962733 5.3720496-3.5664597 6.4173913-2.4931677.5590062-5.0142857-1.0677019-6.126708-3.2534162-1.1739131-2.9459627.6037267-6.6298137 3.8068323-7.2111801zm2.6832298 4.3155279c1.1962733.2850932 1.2018633-1.0006211 1.4310559-1.8279503-.4583851-.1732919-1.3807454-.5198758-1.8447205-.6931677-.5534162.804969-1.0677019 2.4149069.4136646 2.521118z" fill-rule="nonzero"/><path d="m18.7099379 22.9080745c1.8335404 1.0006212 2.1521739 3.4658385 3.236646 5.126087.7881987-.9614907 1.531677-1.9621118 2.258385-2.968323.1285715 1.3975155.2739131 2.8006211.4863354 4.1869565 3.8459628-.0167702 7.6639752.4024845 11.4931677.5254659.0559007.1509316.1621119.4472049.2180125.5925466-1.9229814.2291925-3.7844721-.4024845-5.6850932-.4975156-2.2639752-.1397515-4.5335404-.0782608-6.7863354-.3689441-.089441-.8944099-.184472-1.7944099-.2850932-2.6888198-.5813664.631677-1.1515528 1.2745341-1.7217391 1.9173913-1.2130435-1.4590063-2.163354-3.1024845-2.9347826-4.8298137-.715528 1.4645963-1.3751553 2.9571428-2.0012422 4.4664596-.9391305-.6819876-1.8726708-1.3695652-2.8173913-2.0403727-.0559007 1.0173914-.1006212 2.0347827-.1509317 3.052174-4.55590064.3409937-9.12298139.0838509-13.67888201-.1229814 4.24285714-.5757764 8.52484472-.7043478 12.80124221-.721118.1509317-1.0509317.3186336-2.0962733.5198758-3.1360249 1.0285714.5198758 2.0459627 1.0565218 3.063354 1.5987578.5869566-1.3919255 1.1236025-2.8285714 1.9844721-4.0919255z"/><path d="m55.3416149 25.4068323c3.2310559-.8385093 6.6298137-.8273292 9.9335404-1.2130435-1.3583851.9167702-3.0130435 1.0844721-4.589441 1.3304348-.0111801 1.0565217-.0167702 2.1130435-.0223603 3.1751553 1.6937889-.0055901 3.3931677-.0111801 5.0981367-.0167702-.0055901.1956522-.0111801.5757764-.0111801.7714286-1.6937889-.0111802-3.3819876-.0167702-5.0757764-.0223603.00559 1.8447205.00559 3.683851.00559 5.5229814-.178882.00559-.5478261.0223602-.7267081.0279503-.0111801-1.8503106-.0111801-3.7006211-.0167701-5.5509317-1.6378882.0055901-3.2757764.0111801-4.9192547.0223603 0-.1956522-.0055901-.5757764-.0055901-.7714286 1.6434783.0055901 3.2869566.0111801 4.9304348.0223602 0-1.0453416 0-2.0906832 0-3.1360248-1.531677.0391304-3.0745341.0559006-4.6006211-.1621118z"/><path d="m68.9254658 23.4950311c.3130435 1.2913043.5031056 2.610559.7043479 3.9242236.2403726-.8552795.4863354-1.710559.7322981-2.5602485 1.0621118.178882 2.1298137.3298137 3.2031056.4807454.1956522-.4360249.5925466-1.3136646.7881987-1.7496895.1173914.4136646.3409938 1.2521739.4527951 1.6658385.8552795-.0111801 1.710559-.0223602 2.5658385-.0335404l.0726708.4807454c-1.1403727.1229814-2.2807453.2459627-3.4043478.4695652 1.1627329.3521739 2.3478261.626087 3.516149.9670808-.9726708.0894409-1.9397515.1732919-2.9068323.2403726l.0055901.6987578c1.2298137.0838509 2.4819876.1229814 3.6614907.5310559-2.3757764.363354-4.7850932.1956522-7.1776398.2515528-.00559-.1397516-.0167702-.4248447-.0223602-.5645963 1.1068323-.1453416 2.2360248-.2571428 3.2757764-.7043478-.9391305-.1453416-1.8838509-.2739131-2.8285714-.3857143l-.0223603-.542236c.7881988-.0055901 1.5763975-.0055901 2.3645963-.0055901 0-.184472 0-.5478261.00559-.7267081-.9279503-.1453416-1.8559006-.2962733-2.7782608-.4416149-.4975156 1.0285715-1.0844721 2.0347826-2.1074534 2.6273292.4751552.0670808 1.4254658.2068323 1.9006211.2739131-.3409938.1677018-1.0118013.4975155-1.347205.6652174.5086957 1.1962732.9782609 2.4093167 1.3863354 3.6503105-.4583851-.5198758-1.3807453-1.5540373-1.8391304-2.073913.1900621 1.6490683.3242236 3.3149068.1453416 4.9751553-.6763975-1.3527951-.6708075-2.873292-.631677-4.3434783-.6540373.8329192-1.3360249 1.6434783-2.068323 2.4037267.6093168-1.5875776 1.3751553-3.1024845 2.0962733-4.6397516-.5645963-.1341614-1.6881988-.4024844-2.252795-.5366459.4472049-.089441 1.3472049-.2739131 1.8-.3689441-.5981367-1.2186336-1.1459628-2.521118-.7714286-3.9074534.3857143 1.0956521.7155279 2.2136646.989441 3.3428571.1118012-1.3583851.2515528-2.7167702.4919254-4.0639751z"/><g fill-rule="nonzero"><path d="m80.2956522 24.3279503c2.7111801-.2571428 5.4503105-.273913 8.1614907.0111801-.0447205 1.3304348.1006211 2.7-.2515528 3.9968944-2.336646.6316771-4.8801243.3130435-7.289441.2124224-1.2409938-.9391304-.4304348-2.8565217-.6204969-4.2204969zm.8273292 3.4937888c2.1409938.3409938 4.3155279.1341615 6.4732919.0559007.0111801-.983851.0223602-1.973292.0335404-2.9571429-2.0124224-.0167702-4.0360249-.1453416-6.0372671.0503106-1.0621118.5981366-.5813665 1.8894409-.4695652 2.8509316z"/><path d="m115.507453 23.9031056c.922361.6093168 1.78882 1.3024845 2.63851 2.0068323.559006-.6763975 1.118012-1.352795 1.682608-2.0291926.212423.1956522.637268.5813665.84969.7714286 1.77205-.0223602 3.549689-.0111801 5.316149.178882-.620497.9838509-1.391926 1.8726708-2.426087 2.4372671.357764-.6819876.732298-1.352795 1.106832-2.0236025-1.056521.0614907-2.118633.1229814-3.169565.2180124 1.157143 1.7161491 3.136025 2.4652174 4.762733 3.6223603-1.78323-.1341615-3.342857-1.0173913-4.768323-2.0291926-.85528.6540373-1.727329 1.2857143-2.604969 1.9062112 1.75528-.0559006 3.516149-.1621118 5.271429.0055901.93354 1.0006211.514285 2.5099379.721118 3.7453416-.380125.2459627-.754659.4975155-1.129193.7490683.816149.5031056 1.615528 1.0509317 2.314286 1.710559-1.883851-.4639751-3.762112-1.2298137-5.131677-2.6496894.480745.1509316 1.436646.4472049 1.917391.5981366.385714-.2180124.765839-.4416149 1.151553-.6652174-.02236-.7322981-.061491-2.1968944-.083851-2.9291925-.480745.0838509-1.447826.2459627-1.934162.3298136-.96149.6372671-1.000621 1.9173913-1.526086 2.8565218-.698758 1.6937888-2.722361 1.984472-4.214907 2.6496894-.078261-.2012422-.234783-.6037267-.313044-.810559 1.352795-.4975155 3.068944-.7267081 3.851553-2.1018633.363354-.9055901.447205-1.8950311.676398-2.8397516-.654038.0614907-1.967702.1844721-2.62174.2459627-.559006 1.1180125-.581366 2.4204969-.93354 3.6055901-.475155-1.8559006-.279503-3.778882.944721-5.310559-.939131.357764-1.861491.7434783-2.817392 1.0397515 1.095652-1.0397515 2.342236-1.895031 3.57205-2.7614906-1.514907-.1621118-2.621739-1.1124224-3.102485-2.5267081zm4.159007 1.2354037c-.380125.8608696-1.74969 1.710559-1.056522 2.7111801 1.341615.2571429 2.018012-1.5093167 2.867702-2.3198757-.452795-.0950311-1.358385-.2962733-1.81118-.3913044z"/><path d="m140.455901 25.6304348c.195652-.6540373.408074-1.3080746.626087-1.9621118.122981.542236.380124 1.6155279.503105 2.157764.424845 0 1.274534-.0055901 1.704969-.0055901.117391.9670807.201242 1.9285714.301863 2.8956522 1.062112-1.6993789 2.045963-3.4658385 3.432299-4.9304348-.408075 1.7217391-1.380746 3.2254658-2.314286 4.7012422 1.447826-.1509317 2.901242-.3018633 4.354658-.4360248-.380124-.9726708-.743478-1.9509317-1.050931-2.9459628 1.537267 1.3360249 2.319875 3.2590063 2.806211 5.1931677-.363354-.3801242-1.090062-1.1459627-1.459006-1.5260869-1.928572.2068323-3.868323.2906832-5.808075.2068323-.352174 1.1180124-.732298 2.2304348-1.134783 3.331677.469566.8552795.927951 1.7273292 1.369566 2.604969-.670808-.5534162-1.330435-1.1180125-1.973292-1.6937889-.927951.7826087-1.883851 1.5204969-2.923603 2.1465839.642857-1.0341615 1.425466-1.9621118 2.219255-2.8844721-.531056-.6987577-1.050932-1.4031056-1.565218-2.1130434.363355-1.2465839.715528-2.4931677 1.067702-3.7453417-.408074-.089441-1.218633-.2683229-1.621118-.3521739.363354-.1621118 1.095653-.4807453 1.464597-.6428571zm.838509.9614907c-.285093 1.2409938-.581367 2.4763975-.89441 3.7118012.447205.5813665.89441 1.1571429 1.347205 1.7385093.765838-1.7776397 1.123602-3.689441.967081-5.6236025-.352174.0447205-1.062112.1341615-1.419876.173292z"/><path d="m156.549689 23.5509317c.061491 1.0285714.061491 2.0571428.067081 3.0857143 1.978882-.0279503 3.991305-.1173913 5.914286.4472049-2.051553.3130435-4.125466.2403727-6.188199.2180125-.117391.3521739-.352174 1.0453416-.475155 1.3919254 1.878261-.0111801 3.756522-.0167702 5.623602.1621118-.626087 1.4254659-1.459006 2.7391305-2.420497 3.9633541 1.263354.7546583 2.565839 1.4869565 3.605591 2.5490683-1.570808-.3689441-2.979504-1.168323-4.315528-2.0459628-1.464597.8496895-2.985094 1.6434783-4.656522 2.0068323 1.106832-1.1515527 2.593789-1.7832298 3.980124-2.5155279-.670807-1.1012422-1.330435-2.2024845-1.950932-3.326087-1.190683 2.0291926-2.448447 4.1701864-4.56149 5.3664597 1.492546-2.4540373 3.504969-4.6118013 4.404969-7.4012423-1.190684-.1173913-2.375777-.2291925-3.56087-.3801242.402485-1.078882.816149-2.157764 1.285714-3.2086956.055901.9223602.072671 1.8447205.078261 2.7726708.709938.0111801 1.414286.0223602 2.124224.0335403.324223-1.0453416.659627-2.0906832 1.045341-3.1192546zm-.089441 5.8919254c.654038.9614907 1.319255 1.9118013 2.012423 2.8453417.681987-.9335404 1.352795-1.8726708 2.012422-2.8229814-1.341615-.0167702-2.68323-.0223603-4.024845-.0223603z"/></g><path d="m157.969565 24.115528c1.447826.3186335 2.895652.9559006 3.55528 2.3925465-1.308075-.5981366-2.543479-1.3639751-3.55528-2.3925465z"/><path d="m165.113665 25.3565217c.06708-.3857142.201242-1.1627329.268323-1.5484472.318633.5534162.642857 1.1124224.97267 1.6714286.436025-.0279503 1.308075-.089441 1.7441-.1173913.02795.2068323.072671.626087.100621.8385093-1.75528-.0335404-3.56087.0838509-5.249068-.4695652.536646-.0950311 1.621118-.2795031 2.163354-.3745342z"/><path d="m42.5124224 24.6801242c3.8459627-.3186335 7.747826-.3689441 11.5937888.0167702-2.4484472.9223603-5.0981367.4807454-7.647205.536646 0 .7434782.0055901 1.4869565.0111801 2.2304348 2.0515528-.0055901 4.1086957-.0167702 6.1602485.0335403-.0055901 2.2975156.3745341 4.8801243-.9279503 6.9149069-1.2242236 1.3807453-3.1304348.3577639-4.5670808-.0447205l.2124224-.7658385c1.1515528.3242236 2.3086956.90559 3.5329192.6484472 1.2130435-1.7888199.9726708-4.0527951 1.0621118-6.0987578-1.7944099-.0167702-3.5888198-.0167702-5.3832298-.0335404-.3130434 2.7503106-1.1571428 5.6962733-3.7285714 7.1608696.7043478-1.4086957 1.7329193-2.6496895 2.2863354-4.1310559.6596273-1.8391304.5813665-3.8124224.6204969-5.7298137-1.0844721-.2180124-2.1689441-.4304348-3.2254658-.7378882z"/><path d="m91.0397516 24.6074534c1.3695652.9503106 2.6832298 1.9732919 4.0024844 2.9962733 1.2074534-1.0118012 2.4204969-2.0180124 3.6726708-2.9795031.0614907 3.1304348.5031056 6.3447205-.3018633 9.4136646-.4416149-2.6608696-.2291926-5.3608696-.2571429-8.0385093-1.0677018.8496894-2.1186335 1.7217391-3.1751553 2.5826087-1.0677018-.8385093-2.1242236-1.6881988-3.1919254-2.5267081-.0391305 2.6552795.1453416 5.3329193-.2236025 7.9770186-1.1795031-2.9850931-.4136646-6.3-.5254658-9.4248447z"/><path d="m100.369565 26.5080745c1.011801-2.5378882 5.059006-2.3645962 5.919876.2012423.508696 2.2080745.167702 4.5167702.251553 6.7695652-.184472.00559-.559006.0223602-.743478.0279503-.005591-1.7273292 0-3.4546584 0-5.1763975-1.682609-.0111801-3.365218-.0111801-5.042236-.0111801 0 1.895031.111801 3.8291925-.374535 5.6850931-.3968941-2.4540372-.7267077-5.0757764-.01118-7.4962733zm.00559 1.1012423c1.934162.095031 3.873913.1006211 5.808075-.0447205-.799379-.8440994-1.459006-2.1913044-2.789441-2.2416149-1.431056-.0726708-2.163354 1.4086956-3.018634 2.2863354z" fill-rule="nonzero"/><path d="m109.503727 25.6136646c1.526087-1.0565217 3.504969-.9335404 5.204348-.4192547-1.7441.5310559-3.946584.083851-5.31615 1.5149069-1.330434 1.2689441-1.492546 3.5832298-.145341 4.9024844 1.168323 1.4086957 3.141615 1.1906833 4.773913 1.3136646l-.122981.804969c-1.77764-.1565218-3.907454 0-5.159628-1.5372671-1.78323-1.8447205-1.436646-5.221118.765839-6.5795031z"/><path d="m127.688199 24.573913c.810559-.3577639 2.236025.5813665 2.012422 1.4925466-.804969.3186336-2.230435-.5869565-2.012422-1.4925466z"/><path d="m130.583851 30.1639752c.095031-1.9062112.02795-3.8124224.078261-5.7186336 2.655279-.0559006 5.321739-.1732919 7.960248.1509317-1.375155.4192547-2.800621.6540373-4.192546 1.0285714 1.045341.3298137 2.230434.3186336 3.208695.8720497.150932 1.5484472.055901 3.1136646.01118 4.6677019-.832919.0111801-1.665838.0167702-2.493167.0279503-.061491 1.4198758-.128572 2.8397515-.285093 4.2540373-.9-.262733-1.78882-.5254659-2.66646-.8440994.536646-.0726708 1.604348-.2124224 2.140994-.2850932.01677-1.0341615.03354-2.0627329.04472-3.0968944-.788199-.0335404-1.581987-.0670808-2.370186-.1006211-.02236-1.6099379-.03354-3.2198758-.00559-4.8298137.709938-.1453416 1.425466-.2850932 2.140994-.4248447l-.055901-.8273292c-.92236.0614907-1.84472.1341615-2.767081.2124224-.240372 3.4434782.85528 7.6975155-2.185714 10.2298136.463975-1.7776397 1.341615-3.4546584 1.436646-5.316149zm1.654658-1.9844721c1.520497.0670808 3.052174.1844721 4.567081-.0055901.693168-.726708.547826-1.1795031-.447205-1.352795-1.537267-.3689441-3.57205-.4751553-4.119876 1.3583851zm.324224.8385093c.04472.3745342.139751 1.1291926.190062 1.5037267 1.408696 0 2.817391-.0111801 4.231677-.0279503.02236-.3801242.072671-1.1347826.100621-1.5149068-1.509317.00559-3.018633.0111801-4.52236.0391304z" fill-rule="nonzero"/><path d="m170.334783 24.3055901.782608-.0559007c.00559.3242236.01677.9782609.027951 1.3024845 1.229813.1341615 2.470807.2739131 3.67267.6149068-1.218633.178882-2.448447.2459628-3.67826.3074535-.011181.6149068-.022361 1.2298136-.033541 1.8447205.85528.1062111 1.721739.184472 2.571429.363354.178882 2.1018633.195652 4.226087-.033541 6.3223602-1.649068.262733-3.331677.1173913-4.980745-.0614906-.03354-2.062733-.050311-4.1310559.03354-6.1993789.419255-.0950311 1.252174-.2850932 1.665839-.3801242-.01118-1.3527951-.01677-2.7055901-.02795-4.0583851zm-.676398 5.1037267c-.670807 1.5037267-.257143 3.2534161-.335404 4.8577639 1.280125.0111802 2.554659.0111802 3.834783 0-.01118-1.710559-.02236-3.421118-.089441-5.137267-1.129193.095031-2.325466-.1118013-3.409938.2795031z" fill-rule="nonzero"/><path d="m177.562733 25.5801242c.531056-.0223602 1.062112-.0447205 1.593168-.0670807-.050311 2.2472049-.201243 4.5167702-.816149 6.6913043-.503106-2.1745341-.726709-4.3993789-.777019-6.6242236z"/><path d="m163.967702 26.5695652c.972671 2.1689441 1.475776 4.6677019.87205 7.0099379-.637268-2.2751553-1.006212-4.6453416-.87205-7.0099379z"/><path d="m127.162733 28.0006211c.03913-.1900621.106211-.5701863.145342-.7602484.777018.452795 1.559627.90559 2.347826 1.3472049.167701 2.3422361-.452795 4.8186336-2.303106 6.3950311.430435-1.621118 1.095652-3.1695652 1.671429-4.7403727l.497515.0559006c-.765838-.7937888-1.548447-1.5596273-2.359006-2.2975155z"/><path d="m166.287578 33.2944099c.335403-2.2136646.318633-4.5279503 1.190683-6.6242236.245963 2.0459628-.061491 4.0919255-.368944 6.115528.335403.1621118 1.011801.4919255 1.347205.6540373-1.716149.6987577-3.460249 1.3751552-5.310559 1.6043478.989441-.6819876 2.068323-1.2186336 3.141615-1.7496895z"/><g fill-rule="nonzero"><path d="m71.4298137 29.610559c1.9285714-.1062112 4.2093167-.6540373 5.942236.3354037.2180124 1.7217392.0782609 3.4658385-.0279503 5.1931677-1.0844721-.1565217-2.1521739-.4360248-3.1583851-.8664596.631677-.0223602 1.9006211-.0614907 2.5322981-.0838509.0055901-.3242236.0167702-.9670808.0223603-1.2857143-1.5931677-.0055901-3.1807454 0-4.768323.0055901-.0055901.5086956-.0111801 1.531677-.0167702 2.0459627l-.7602484-.0279503c.0503105-1.7720497-.0223603-3.5608696.2347826-5.3161491zm.095031 1.0509317c1.7273292.2403727 3.4714286.2403727 5.2099379.2515528l-.0391304-.8552795c-1.7385093-.0055901-3.5329193-.1062112-5.1708075.6037267zm-.1062112 1.3192546c1.9173913.3689441 3.8850932.3689441 5.8136646.0726708-1.8279503-.8385093-3.9465838-.6819875-5.8136646-.0726708z"/><path d="m79.3732919 29.5602484c1.526087-.1788819 3.0689441-.0838509 4.6006211-.0279503.0391305 1.8167702.0391305 3.6335404.0167702 5.4503106-1.3360248.0950311-2.6888198.2850932-4.0192546.0614907-.5590062-.1118013-.810559-.447205-.7602485-1.0118013-.1062112-1.4869565-.1285714-3.0018633.1621118-4.4720497zm.4304348 4.7012423c1.1962733.0111801 2.3981367.0167702 3.6.0111801-.0279503-1.3639751-.0167702-2.7335404-.2347826-4.0807453-.8776398-.1285715-1.7720497-.173292-2.6496894-.0614907-1.2074535.9838509-.4863354 2.7838509-.715528 4.1310559z"/><path d="m84.9242236 29.5602484c1.5763975-.0782608 3.1583851-.1173913 4.7347826-.1062111.0782609 1.8391304.0838509 3.6782608.0335404 5.5173913-1.5149068.1341615-3.0521739.2795031-4.5614907.0335403-.4975155-1.7720496-.2571429-3.6335403-.2068323-5.4447205zm.5981366 1.2242236c-.1453416 1.1459628-.0894409 2.3086957-.1006211 3.4658386 1.2018634.0223602 2.4037267.0335403 3.6055901.0335403-.0223603-1.3695652.0167702-2.7503105-.1677019-4.1142857-1.1012422.0111801-2.6664596-.5813664-3.3372671.6149068z"/><path d="m144.391304 35.0217391c-.06708-1.6378882-.04472-3.2757764.100621-4.9024844 1.693789-.0167702 3.409938-.1844721 5.086957.1565217.218012 1.5931677.117391 3.2031056.083851 4.8018634-1.76087.0223602-3.516149.0167701-5.271429-.0559007zm.82733-4.1590062c-.055901 1.168323-.089441 2.336646-.111802 3.504969 1.308075.00559 2.616149.00559 3.924224-.0111802-.01677-1.173913-.02795-2.3534161-.055901-3.5273292-1.252174.0055901-2.504348.0167702-3.756521.0335404z"/></g><path d="m130.706832 34.9993789c.749069-1.4142857 1.699379-2.7614907 3.068944-3.6391305-.575776 1.5316771-1.609937 2.8621118-3.068944 3.6391305z"/><path d="m135.603727 31.4049689c1.403105.8161491 2.375776 2.1633541 2.73913 3.7397516-1.213043-.9950311-2.180124-2.2639752-2.73913-3.7397516z"/><path d="m177.853416 32.578882c.799379-.5757764 1.78323.7770186.983851 1.3583851-.799379.5645963-1.79441-.7770187-.983851-1.3583851z"/><path d="m29.6329193 37.4981366c2.0459627.1006212 4.0304347-.5645962 5.673913-1.7664596-1.3583851 1.3416149-3.1919255 2.1689441-5.126087 2.0068323-8.016149-.0167702-16.0322981.0111801-24.04844716-.0111801-1.44782609.095031-2.76708075-.5645963-3.91304348-1.3807453 1.55962733.7881987 3.28695652 1.1850931 5.03664596 1.1515527 7.46273288 0 14.91987578-.00559 22.37701868 0z"/></g></g></svg>