<svg height="90" viewBox="0 0 180 90" width="180" xmlns="http://www.w3.org/2000/svg"><g fill="none" fill-rule="evenodd" transform="translate(0 35)"><path d="m1.06605201.72970405c2.2119154-.51307316 4.59485519-.45036422 6.79536897.11971707-.10261463.29644227-.30214308.89502763-.40475772 1.19717071-2.01808776.02280325-4.03617552.02280325-6.05426329-.01710244.11971707 1.20287152.25083577 2.41144385.61568779 3.56300806 1.28268291 4.93120315 4.40102756 9.61727135 9.19541124 11.68096565 4.874195 2.0750959 10.877151 2.5140585 15.5632192-.2850407 4.2300031-2.4228455 6.7497624-6.8979836 8.2376746-11.39592495.4104585-1.14586339.5529788-2.36013654.7126016-3.55730725-8.4201006.02280325-16.8345005.0855122-25.2546011-.03420487-.0285041-.35915122-.091213-1.07175283-.1197171-1.42520323 9.8396031-.29074145 19.6963086-.06270894 29.5473132-.12541788 2.8846114-.19952845 5.5867967 2.37153816 5.5012845 5.25614949.0741106 2.31453003-1.6076293 4.40672839-3.7226308 5.19914139-2.1378049.0171024-4.4694373.4332617-6.3336032-.8893268 1.8869691-.57578215 3.870852-.47886833 5.8148292-.68409759 2.9929268-.63849105 3.5231024-5.11932998 1.0945561-6.7212584-1.4765106-.82661787-3.260865-.44466341-4.8741951-.56438048-.2964422 1.57342436-.6099869 3.14684872-.9976422 4.69746982-1.8755675 6.13977545-6.4875251 11.90329735-12.9351445 13.47102085-7.6333884 1.6646374-16.61216874-1.1857691-20.60273777-8.2205722-1.80715768-2.67938203-2.41144385-5.86043563-2.6109723-9.0300876-.15392195-.88932681-.36485203-2.07509589.83231868-2.23471865z" fill="#393734"/><path d="m.23373333 2.9644227c.19952845 3.16965197.80381462 6.35070557 2.6109723 9.0300876 3.99056903 7.0348031 12.96934937 9.8852096 20.60273777 8.2205722 6.4476194-1.5677235 11.059577-7.3312454 12.9351445-13.47102085-.1938277.90642925-.3591512 1.81855932-.5244748 2.73068938 1.767252-.05130732 3.534504-.06840976 5.301756-.14252032-1.9439772.20522926-3.9278601.10831544-5.8148292.68409759 1.8641659 1.3225885 4.1957983.9064292 6.3336032.8893268-2.1093008.4845691-4.4751382.5301756-6.550234-.1425204-.1482212.9577366-.4959708 1.8698667-.883626 2.7534927-.4788683.5187739-.883626 1.0888552-1.128761 1.7501495-.1938276.2109301-.5757821.6270894-.7696097.8323187-.4959708 1.1344618-1.3966992 1.9952845-2.3202309 2.7876975-1.2769821.6384911-2.2689235 1.7159447-3.534504 2.377239-5.3644649 2.5311609-11.7835802 2.2575219-17.06823379-.3420488-2.27462434-.8779252-3.81384382-2.8276032-5.484182-4.5036422-.21663089-.6669951-.62708942-1.2313756-1.12306014-1.7159446-.51877397-1.2142732-1.4138016-2.3430341-1.36249428-3.7226309l-.38765528.0342049c-.56438048-2.63947636-1.01474469-5.3530633-.83231868-8.0495478z" fill="#ffe55c"/><path d="m2.01808776 5.59249745c10.99686804-.02280325 21.99943694-.02280325 32.99630504 0-1.4879122 4.49794135-4.0076715 8.97307945-8.2376746 11.39592495-4.6860682 2.7990992-10.6890242 2.3601366-15.5632192.2850407-4.79438368-2.0636943-7.91272833-6.7497625-9.19541124-11.68096565z" fill="#ffe55c"/><path d="m98.6600547 11.6492944c.0171024 3.9962699-4.509343 6.9663934-8.197769 5.4727804-3.92786-1.0204455-5.2903543-6.2879966-3.0328324-9.43484532.91213-1.31118697 2.3829398-2.13780484 3.9335609-2.42284548 3.7511349-.8380195 7.707499 2.50835767 7.2970405 6.3849104zm-8.83626-3.53450396c-1.0261463 1.65323574-1.4993138 3.83094626-.4959707 5.60959986 1.4993138 2.3829398 5.6267023 2.0579935 6.6186437-.6498926 1.0489496-2.1492065-.2052292-4.4466341-1.9667804-5.73501781-1.4366048-.05700813-2.8561073.13681951-4.1558926.77531055zm44.4961113-2.53686174c.450364-.25653658.900729-.51877397 1.356794-.78101136.781011.91783087 1.658936 1.77295281 2.274624 2.82190238-.330647.27363902-.986241.82091706-1.311187 1.09455608-.798114-1.02614632-1.584826-2.06369427-2.320231-3.1354471zm16.104797.02280326c.404757-.33634796.815216-.67269593 1.225674-1.0147447.855122 1.02614632 1.704543 2.05799346 2.553965 3.08984059-.467467.34204877-.923532.68409755-1.385298 1.03184713-.792413-1.04324876-1.590527-2.07509589-2.394341-3.10694302zm7.690396-.91213007c.410459.01140163 1.225675.02850407 1.636134.03420488v5.03381779c1.305486 0 2.616673-.00570082 3.922159-.01140163-.005701.54727807-.011402 1.09455607-.011402 1.64753497-1.305486 0-2.610972.0057008-3.916458.0057008.005701 2.468452 0 4.9426047.011401 7.4167575-.399057.0057009-1.19717.0171025-1.596227.0228033-.074111-2.4798536-.039906-4.9597072-.062709-7.4452616-1.288384 0-2.576768 0-3.859451-.0057009.011402-.4047577.028504-1.2085723.039906-1.61333001 1.271281-.01140162 2.548263-.02280325 3.825246-.02850406.0057-1.68744062.0057-3.36918042.011401-5.05662104zm12.604498.00570082c.319245.00570081.957736.01140162 1.276982.01710243.0057.84372031.017102 1.69314143.022803 2.53686174.786712.01140163 1.573424.01710244 2.360136.02280325-.165323 3.35207797 0 6.71555757-.296442 10.05623397.005701 1.6931414-3.232361 1.7501495-3.049935-.1026147.450364-.0399056 1.356794-.1140162 1.807158-.1539219.091213-2.7705951.165323-5.5411901.171024-8.31748601-.245135.00570081-.735405.01140162-.98054.01710244.057009 3.50599997-.296442 7.11461447-2.086497 10.21015587-.34775-.1254179-1.043249-.3705528-1.396699-.4959707 1.738748-2.8390048 2.120702-6.1682796 2.126403-9.42914453-1.61333-.3990569-.285041-1.6817398-.085512-2.54256255.028504-.45606503.096914-1.36249428.131119-1.81855931zm-114.1391426.7981138c.7810114-.01710244 1.5677236-.03990569 2.3544358-.05700813-.1083155 2.650878.0342048 5.30745682-.0855122 7.96403562.0627089 2.2461203-2.1264032 3.9107576-4.2129007 4.0703804-1.5335187.2508358-2.8903122-.6042862-4.2129008-1.219974-1.704543-3.3349755-.91213-7.17732339-1.0945561-10.76883551h2.3886406c.0513074 2.63377555-.1425203 5.27895271.0741106 7.91272831.0285041 2.4399479 4.053278 2.7135869 4.6689658.5301756.3306471-2.7933983.091213-5.62670235.119717-8.43150229zm3.7099624-.07981138c.9634374.03990569 1.9268748.06270894 2.8960129.09121301.7753106 1.31118696 1.2085724 3.0100292 2.6565789 3.76253651.4674666-1.33399022 1.1629658-2.57106662 1.886969-3.77963895.9577366-.00570081 1.921174-.01140163 2.8789105-.01710244-1.4366048 1.77295281-2.496956 3.81384383-3.8822535 5.63240314 1.2826829 2.0693951 2.5083576 4.1786958 4.0076714 6.0998698-.9064292-.0171024-1.8128585-.0285041-2.7135869-.0342049-.8950276-1.2712813-1.3624943-2.9872259-2.6850829-3.8594503-1.0090439 1.1344618-1.7045431 2.4912552-2.4228455 3.8195446-.9178309.0456065-1.8356617.091213-2.7477918.1482212 1.2712813-1.8698667 2.5482634-3.7454341 3.7055284-5.6894113-.456065-2.31453004-2.377239-4.15019179-3.5801105-6.17398037zm17.7960376 1.27698209c2.1207024-1.84136257 5.2789527-1.89837069 7.6732941-.57008129-.1482211.50737235-.456065 1.51641623-.6042861 2.01808776-1.219974-.55867966-2.5539642-1.04894957-3.9107577-.72970405-3.471795.70119999-3.7853397 6.46472186-.5358764 7.68469576 1.5278179.5358764 3.1354471.062709 4.5492487-.5814829.1710244.7069008.3420488 1.4195024.5130732 2.1264032-2.0066862.7867122-4.326917 1.2997854-6.339304.2280325-3.8423479-1.676039-4.5150438-7.5307738-1.3453918-10.17595098zm21.7188303-1.35109266h6.0428613c-.0057.54157723-.011401 1.62473168-.017102 2.1663089-1.25988-.03990569-2.514059-.09691382-3.762537-.17102438 0 1.00904388.005701 2.01238695.005701 3.02143082 1.100257-.0057008 2.206215-.0057008 3.312172-.0057008v2.0807967c-1.111658-.0057008-2.217616-.0114016-3.329274-.0171024.017102 1.5905268.028504 3.1810536.06841 4.7715804-.598586 0-1.790056 0-2.3886411 0 .0855122-3.9506634-.0114016-7.8956259.0684098-11.84628924zm7.3021083.00570082c2.052292-.01140163 4.098884-.00570082 6.151177-.00570082-.011402.71260161-.022804 1.42520323-.028504 2.13780484-1.219974 0-2.445649 0-3.659922.00570081-.017103.94633494-.034205 1.89837069-.045607 2.84470559 1.100257 0 2.194813-.0057008 3.300771-.0057008v2.1549073c-1.12306-.0399057-2.24042-.0798114-3.357779-.1140163.011402 1.6076293.022803 3.2152585.062709 4.8228878-.798114 0-1.596228 0-2.394341 0 .125417-3.9449626-.017103-7.88992509-.028504-11.84058842zm7.404722.00570081c2.069395-.01710244 4.13879-.01710244 6.208185-.01140163.005701.7069008.005701 1.41950241.017103 2.12640321-1.265581.01140163-2.52546.01140163-3.779639.02280325-.005701.89502763-.011402 1.79005525-.011402 2.68508288 1.071753.0057008 2.143506.0114016 3.215259.0228032-.005701.5301756-.005701 1.5905268-.011402 2.1264033-1.060351 0-2.120702 0-3.181054.0057008-.011401.9463349-.022803 1.8983707-.028504 2.8447056h3.939262c-.011402.7240032-.022803 1.4480065-.034205 2.1720097-2.097899-.028504-4.190097-.1368195-6.287996-.1767252-.045607-3.9392617-.028504-7.8785234-.045607-11.81778511zm7.632755-.01140163c2.052293-.00570081 4.104585-.01140162 6.162579.02850407-.017103.70119998-.034205 1.40239997-.045607 2.10930077-1.231375 0-2.468452 0-3.699827 0 .005701.90642925.017102 1.8128585.028504 2.7192877 1.060351-.0057008 2.120702-.0114016 3.186754-.0171024-.005701.5358764-.005701 1.6019284-.011401 2.1378048-1.066052 0-2.132104.0057009-3.192456.0057009-.0057.9520357-.0057 1.8983707-.0057 2.8504064 1.305486 0 2.616673-.0057008 3.922159-.0114016v2.1435056c-2.115002.0057008-4.230003.0057008-6.345005.0057008 0-3.990569 0-7.98113801 0-11.97170704zm23.42274 0c0 1.10025689.011402 2.20621459.022803 3.30647148.524475.01710244 1.579125.05130732 2.109301.06840976.233733 2.0522926-2.325932 1.7444487-3.488897 1.03184713-.285041-.98053982-.233734-2.01238695-.313545-3.02143083-.832319.01710243-1.658937.03420487-2.485555.0456065 0 1.77295281-.934933 3.2323609-2.32023 4.264208 2.542562-.1083154 5.090825-.1083154 7.639089.0171025-.079812 2.0237886-1.413802 3.5858113-2.673681 5.0395186 1.276982.5415772 2.571066 1.066052 3.870852 1.5620227-.216631.3420488-.644192 1.0261463-.860823 1.3624943-1.54492-.4503642-2.953021-1.2598797-4.389626-1.9610796-1.408101.7582081-2.844706 1.4708097-4.304114 2.1264032-.228032-.3534504-.678397-1.0603512-.906429-1.4138016 1.311187-.5472781 2.610972-1.1116585 3.905057-1.6988423-1.505015-1.8128585-3.038534-3.7910405-3.175353-6.23668928 1.413802-1.08885526 1.687441-2.80479994 1.584826-4.49224056zm-5.05092 7.08040964c.655593.9349333 1.322588 1.8527642 2.000985 2.7648942.957737-.729704 1.715945-1.6703381 2.200514-2.770595-1.4024-.0228033-2.799099-.0171025-4.201499.0057008zm28.851814-6.19108283c.005701 3.40908611.005701 6.81817223 0 10.22155753-.991942.1254179-2.417145-.273639-2.536862 1.157265-.290741-.0114016-.877925-.0285041-1.174367-.0342049.017102-3.7682373-.011402-7.5364746.022803-11.29901112 1.225675-.01140163 2.45705-.02280325 3.688426-.04560651zm-2.200514 1.79575607c-.165323 2.25752186-.119717 4.54354786-.028504 6.80677056.228033.1026147.684098.2964423.917831.3990569.039906-2.5995706.085512-5.2048421-.062709-7.798712-.205229.14822113-.621389.4446634-.826618.59288454zm11.891896-1.767252c.022803 4.10458526-.045607 8.20917056.045606 12.30805506-1.162966.3306471-1.670338-.7126016-2.280325-1.4594081-.114016 1.0489495-.672696 1.5905268-1.670338 1.6190308-.028504-4.1558926-.005701-8.3060843-.011402-12.45627614 1.305486-.00570081 2.610973-.00570081 3.916459-.01140162zm-2.508358 1.4594081c-.085512 2.71358696-.079811 5.43287466-.005701 8.15216246.273639-.0228033.826618-.062709 1.100257-.0798114-.017102-2.6280747-.011401-5.2618503-.005701-7.88992505-.273639-.0456065-.815216-.13681951-1.088855-.18242601zm-27.272689 1.68744062h3.699828c0 2.10359994 0 4.20149914.017102 6.30509904.832319-.6042861 1.664638-1.2085723 2.496956-1.8128585.13682.3819545.399057 1.157265.530176 1.5449203-1.373896.9577366-2.656579 2.0750959-4.121688 2.8903121-.182426-.1083154-.541577-.3363479-.718302-.4503642.108315-2.2746243.228032-4.5435478.159622-6.823873-.7069-.0171024-1.402399-.0342049-2.103599-.0570081.011401-.3990569.028504-1.19717074.039905-1.59622764zm-16.030686.20522926c1.180069 0 2.371539.00570081 3.557308.00570081v6.09416897c.587183-.3933561 1.180068-.7867122 1.778653-1.1800683.114016.336348.353451 1.0090439.467467 1.3453919-1.020446 1.1344618-2.325932 1.9667804-3.597213 2.7819967-.781011-2.4114439.085512-5.0224162-.228033-7.525073-.490269-.0057008-1.47651-.0228033-1.96678-.0342049-.005701-.3705529-.011402-1.11735934-.011402-1.48791218z" fill="#393734" fill-rule="nonzero"/></g></svg>