<svg height="90" viewBox="0 0 180 90" width="180" xmlns="http://www.w3.org/2000/svg"><g fill="none" fill-rule="evenodd"><g fill="#764e30" transform="translate(0 17)"><path d="m.94736842.70105263c2.14105263.00947369 4.27263158.01894737 6.41368421.03789474-.04736842 6.70736842.00947369 13.41473683-.04736842 20.12210523.04736842 2.2547369-.18947368 4.6705263.98526316 6.6978948 1.07052631 2.1505263 3.27789473 3.2778947 5.20105263 4.5189473 0 2.1031579-.0094737 4.2063158-.0284211 6.3189474-6.06315785-1.5442105-11.73789469-6.1957895-12.37263153-12.7326316-.37894737-8.308421-.03789474-16.64526313-.15157895-24.96315787z"/><path d="m15.3189474 23.7126316c-.8147369-7.4652632 5.4473684-14.78842107 12.9789473-14.96842107 4.0357895-.38842106 8.1568421 1.10842105 10.951579 4.05473687 4.9263158 5.2389473 9.4168421 10.8852631 14.3052631 16.1621052 3.0126316 3.2873685 8.5926316 3.42 11.8705264.4452632 3.6568421-2.9463158 4.1494736-8.9052632.9757894-12.3726316-2.6715789-3.2873684-7.8157894-4.1494737-11.3589473-1.7905263-2.3589474 1.3168421-3.4010527 3.9126316-4.4242106 6.2431579-1.288421-1.5442105-2.5957894-3.06-3.9221052-4.5757895 2.4915789-4.7652631 7.3894737-8.48842104 12.96-8.19473683 7.5505263-.42631579 14.4568421 6.49894733 14.04 14.04947373.18 5.7978947-3.8084211 11.368421-9.2747369 13.2157894-4.9926315 1.6957895-10.9989473.5778948-14.6463158-3.3631579-4.7368421-5.0494736-9.1326315-10.4210526-13.7557894-15.5842105-1.9989474-2.5105263-5.3810527-3.628421-8.4978948-2.9557895-5.2578947.9378948-8.7347368 7.2947369-6.2621052 12.1452632 1.9326315 4.8221053 8.4315789 6.9157895 12.7515789 3.96 2.5010526-1.3263158 3.5242105-4.0831579 4.4431579-6.5747368 1.3263158 1.5536842 2.6621053 3.088421 3.9789474 4.6421052-2.4347369 4.8978948-7.4273684 8.6684211-13.0642105 8.4884211-7.1621053.2936842-13.8126316-5.8547369-14.0494737-13.0263158z"/><path d="m85.6421053 9.05684211c7.1905263-1.90421053 15.3757897 2.64315789 17.0621057 9.97578949 2.207368 7.3231579-2.7473689 15.84-10.2884215 17.3652631-7.0010527 1.8-14.8926316-2.6242105-16.7589474-9.6536842-2.4726316-7.3515789 2.4726316-15.9631579 9.9852632-17.68736839zm-.0473685 5.56105259c-6.0821052 2.3494737-7.1431579 11.5010527-1.7336842 15.1484211 4.7463158 3.9694737 12.78.8621053 13.8884211-5.1347369 1.828421-6.6505263-5.94-13.1115789-12.1547369-10.0136842z" fill-rule="nonzero"/><path d="m68.4378947 35.9810526c2.2357895-1.98 4.1778948-4.2347368 5.9684211-6.6126315.0094737 5.4852631.388421 11.6242105-3.211579 16.2-4.14 6.0063157-12.7610526 8.0905263-19.2315789 4.8031578-3.2210526-1.4494736-5.4757895-4.2821052-7.2947368-7.2 2.4726315-.0663157 4.9452631-.0757894 7.4178947-.0189473 2.8421053 2.1505263 6.6505263 3.5715789 10.0989474 1.9231579 3.7705263-1.4210527 5.5989473-5.371579 6.2526315-9.0947369z"/><path d="m83.5484211 43.2c1.7336842 3.1736842 2.4157894 6.84 4.4431578 9.8621053l1.08-.6442106c.5873685-2.8515789.2084211-5.788421-.4547368-8.5926315.4263158.0473684 1.26.1515789 1.6863158.1989473-.0568421 2.5294737-.1326316 5.0589474-.1989474 7.5978948.2084211.1515789.6347369.4547368.8526316.6063158.3031579-.1042106.9094737-.3031579 1.2031579-.4073685.0568421-2.6810526-.0378947-5.3526315-.1136842-8.0336842.3221053.0094737.9663158.0378948 1.288421.0473684-.028421 3.1831579-.1326315 6.3757895.0094737 9.5589474-2.88.4831579-5.76-.1136842-8.6494737-.0757895.9378948-1.1936842.5589474-2.6810526.4168421-4.0547368-1.0989473-.0568421-2.2073684-.1136842-3.3063157-.151579-.1989474.8147369-.6157895 2.4631579-.8147369 3.2873685.3694737.208421 1.0989474.6442105 1.4684211.8526315-1.2221053.0473685-2.4442106.1042106-3.6663158.1705264 1.5631579-1.5726316 2.5389473-3.5621053 2.6715789-5.7884211 1.1463158.4831579 2.3684211.7484211 3.5810527 1.0421053-.6252632-.5873684-1.8757895-1.7526316-2.5105264-2.34.331579-1.0421053.6631579-2.0936842 1.0136843-3.1357895z"/><path d="m98.1094737 47.7c.7673684-1.5347368 1.1273684-3.96 3.2968423-4.0073684.691579.36 1.383158.7105263 2.074737 1.0705263-.966316 0-2.889474.0094737-3.8557898.0189474.5399998 1.0515789 1.0136838 2.1315789 1.4305258 3.2305263-1.8663153 1.26-1.3073679 3.4578947-.9 5.3052631-.4736837.0284211-1.4210522.0852632-1.8852627.1136842.1705263-1.9042105.1894737-3.8368421-.1610526-5.7315789z"/><path d="m156.486316 53.2894737c.151579-3.1736842.170526-6.3757895-.511579-9.4926316.454737.0473684 1.354737.1326316 1.809474.1705263-.07579 3.1547369-.18 6.3094737.028421 9.4547369-.331579-.0378948-.994737-.1042106-1.326316-.1326316z"/><path d="m137.444211 47.7c1.165263-1.1178947 2.595789-.4926316 3.931578-.1705263-2.017894 1.1936842-2.538947 3.0221052-1.563157 5.4757895 1.496842-1.2410527 1.686315-3.2305264 2.311579-4.9357895 1.345263-.5873684 2.832631-.6536842 4.253684-.9189474l-.265263 1.3926316c2.311579-.331579 4.594736-.8621053 6.915789-1.1463158-.653684 1.0136842-1.591579 1.5631579-2.842105 1.6484211.255789 1.4873684.577895 2.9652631.947368 4.4242105-.558947-.0473684-1.676842-.1421053-2.235789-.1894737.113684-.9473684.341052-2.8326316.46421-3.78-.502105-.18-1.506316-.5305263-2.008421-.7105263 1.771579 3.0315789-1.913684 5.8736842-4.623158 4.6231579-1.316842-.5494737-2.681052-.691579-3.770526.4073684-.502105-1.6863158-.663158-3.4389474-.786316-5.1726316-1.458947-.0757895-2.908421-.18-4.367368-.18-.9 1.411579-.18 2.8136842.454737 4.1494737.881052-.0189474 2.643158-.0568421 3.52421-.0852632-1.923158 1.1747369-4.556842 1.5063158-5.693684-.9378947-.956842 1.3642105-2.728421 2.6336842-4.386316 1.591579-2.44421-1.5631579-1.042105-5.1442106 1.013684-6.3852632-.274736 1.1178947-.814736 3.3631579-1.089473 4.4905263.54.3789474 1.610526 1.1463158 2.150526 1.5347369.454737-.36 1.373684-1.0705264 1.828421-1.4305264.558947-1.288421.558947-3.1073684 1.998947-3.7894736 1.278948-.0663158 2.557895-.0284211 3.836843.0947368zm6.735789 5.1915789c2.88.4831579 2.842105-4.168421.757895-5.1915789-2.898948.36-3.041053 3.9126316-.757895 5.1915789z" fill-rule="nonzero"/><path d="m102.476842 53.3084211c-.009474-2.0368422-.208421-4.0736843.018947-6.1010527.757895-.0094737 2.273685-.0378947 3.031579-.0568421.596843.6252632 1.203158 1.2410526 1.818948 1.8568421l.056842-1.5442105c2.936842 1.08 5.94.4831579 8.933684.2273684.085263.3505263.25579 1.0610526.341053 1.4210526l-1.676842 1.4778948.473684-2.2547369c-.521053.0757895-1.572632.2273685-2.093684.3031579-.189474.6821053-.558948 2.0463158-.748421 2.7378948 1.496842.7294737 3.097894 1.0989473 4.755789 1.2221052-1.942105 1.0705264-4.035789 1.051579-5.883158-.2273684-1.648421 1.26-3.571579 1.4684211-5.134737-.0094737-.075789-1.4968421-.435789-2.9652631-1.345263-4.1778947-1.098947 1.5252632-1.506316 3.2589474-1.222105 5.2010526-.331579-.0189473-.994737-.0568421-1.326316-.0757894zm5.76-4.6042106c.217895 3.1642106 2.794737-1.5726316 0 0zm-.502105 2.2736842c.757895 1.3357895 1.837895 1.5631579 3.230526.6631579.445263-1.7715789-2.870526-2.4442105-3.230526-.6631579z" fill-rule="nonzero"/><path d="m120.258947 47.5863158c.691579-.0189474 2.065264-.0568421 2.756842-.0757895-.198947.331579-.587368.9852632-.786315 1.3168421.852631 1.6010527 1.733684 3.2210527 1.970526 5.0494737-2.122105-1.4968421-2.794737-4.1021053-3.941053-6.2905263z"/><path d="m129.675789 47.7378947c1.345264-.1894736 1.818948.3694737 1.411579 1.6578948-1.326315.1894737-1.8-.3694737-1.411579-1.6578948z"/><g fill-rule="nonzero"><path d="m160.465263 47.5957895c1.942105-.54 4.803158.2273684 4.651579 2.6905263.397895 2.5389474-3.003158 4.1210526-4.954737 2.7663158-2.235789-.9663158-1.970526-4.6326316.303158-5.4568421zm.61579.6252631c-2.23579.691579-1.089474 6.0157895 1.506315 4.5189474 2.358948-1.0894737 1.241053-5.8831579-1.506315-4.5189474z"/><path d="m166.973684 47.7663158c3.429474.2936842 6.877895.4357895 10.278948-.2747369.568421 1.6389474 1.08 3.2873685 1.591579 4.9452632l1.155789-1.1463158v2.6905263c-.407368-.3978947-1.212632-1.1936842-1.62-1.5915789-1.62.3410526-3.448421 2.0936842-5.068421.9189474-.824211-1.3452632-1.534737-2.7568422-2.358947-4.111579-1.212632 1.4494737-2.681053 2.5673684-4.39579 3.3631579 1.51579.2273684 3.012632.54 4.5.9378947.189474.8052632.558947 2.4157895.748421 3.2210527-.492631-.7294737-1.458947-2.1789474-1.942105-2.9084211-1.657895.1894737-3.249474.6442105-4.244211 2.0936842 1.070527.1705263 3.221053.4926316 4.291579.6631579l1.184211.2747369h-4.945263c-.236842-.3031579-.729474-.9-.966316-1.2031579 1.212631-2.4442106-.236842-6.0631579 1.790526-7.8726316zm1.08.6347368c-1.515789.0284211-1.449473 2.6526316.047369 2.6242106 1.487368-.0947369 1.525263-2.6810527-.047369-2.6242106zm5.134737-.0189473c.151579 1.5536842-.009474 3.3915789 1.316842 4.5189473 2.576842.4926316 2.605263-2.7189473 2.52-4.4526315-1.278947-.0378948-2.557895-.0568422-3.836842-.0663158z"/></g></g><g fill="#f50" transform="translate(103.263158 25.526316)"><path d="m5.08736842 4.01684211c5.88315788-5.58 16.48421048-4.29157895 20.70947368 2.70947368 1.5726316-1.11789474.8147368-3.30631579 1.051579-4.93578947 1.7905263-.22736843 3.5715789-.46421053 5.3621052-.68210527-.0094737.75789474-.028421 2.29263158-.0378947 3.05052632 4.7652631-4.19684211 12.448421-4.82210527 17.46-.72947369 6.4042105 4.50947369 7.2852631 14.92105262 1.4589473 20.24526312-4.8031578 5.2105264-13.5 5.6178948-18.9 1.0705264.0284211 3.5336842.0189474 7.0673684.0189474 10.6010526-1.8094737.2463158-3.628421.4831579-5.4473684.72-.0094737-9.5494737.0094737-19.0989474.0094737-28.64842106-6.3757895 4.01684206-12.9126316 7.77789476-19.34526318 11.69999996 3.79894738 5.0589474 11.05578948 3.9126316 15.39473688.2463158.4642105 1.7336842.9378947 3.4673684 1.4021052 5.2010527-5.3431579 3.96-13.4336842 4.9073684-18.67263155.2842105-6.20526316-4.9926316-6.66947369-15.65052633-.46421053-20.83263159zm3.51473684 3.56210526c-2.2168421 1.73368421-2.73789473 4.57578943-3.01263158 7.20000003 4.60421052-2.5673685 9.06631582-5.36210529 13.55684212-8.12842108-3.3252632-1.65789474-7.7684211-1.87578948-10.54421054.92842105zm30.37263154-1.71473684c-3.8178947.79578947-6.8494736 4.41473687-6.7831579 8.34631577-.1042105 4.5568421 4.0168422 8.7157895 8.5926316 8.5452632 4.8789474.0947368 9.0947369-4.68 8.4410527-9.5021053-.5021053-4.78421052-5.5231579-8.52631578-10.2505264-7.38947367z" fill-rule="nonzero"/><path d="m58.8694737 1.87578947c4.2726316-2.3968421 9.8336842-1.03263157 12.96 2.63368421-1.0326316 1.17473685-2.0747369 2.34947369-3.1073684 3.52421053-1.6105264-1.08947368-3.0694737-2.98421053-5.2010527-2.83263158-1.8947368-.04736842-4.0736842 2.18842105-2.7568421 4.01684211 2.5768421 3.19263156 7.5789474 2.93684206 9.9757895 6.36631576 2.2073684 3.5147369 1.0136842 8.8010527-2.6715789 10.8473684-4.4147369 2.6526316-10.26 1.5726316-13.9831579-1.8094736.9757894-1.411579 1.9421052-2.8231579 2.908421-4.2442106 1.9042105 1.8094737 4.68 3.8557895 7.3894737 2.3778948 1.7810526-.6631579 2.3589474-3.2968421.9568421-4.6042106-2.9178947-2.0463157-7.0389474-2.2073684-9.3126316-5.1821052-2.3968421-3.58105265-1.0421052-9.11368423 2.8421053-11.09368423z"/></g></g></svg>