<svg height="90" viewBox="0 0 180 90" width="180" xmlns="http://www.w3.org/2000/svg"><g fill="none" fill-rule="evenodd"><path d="m.03279352.6048583c2.20809717-.82348178 4.75870446-.76882591 6.94129555.10931174-1.31538462-.24777328-2.64534413-.43724696-3.98623482-.44817814-.15668016.01093118-.46275304.03279353-.6194332.0437247-.20404858.0291498-.61578947.08380567-.81983805.10931174-.09473685.80161943-.17125506 1.59959514-.30607288 2.39392713l-.04736842.24412955c.08380567-.76518219.00364373-1.55222672-.26963563-2.27004049-.2222672-.04736842-.66680162-.13846153-.89271255-.18218623z" fill="#325b3e" opacity=".62" transform="translate(10.202429 32)"/><path d="m.45546559.41902834c.20404858-.02550607.61578947-.08016194.81983805-.10931174-.25870445 1.31174089-.13481781 2.73279352-.76518218 3.94615385-.09109312-.36072875-.26963563-1.08218624-.36072875-1.44291498.13481782-.79433199.21133604-1.5923077.30607288-2.39392713z" fill="#311841" transform="translate(11.295547 32)"/><path d="m1.27530364.3097166c.15668017-.01093117.46275304-.03279352.6194332-.0437247.28421053.42995952.57206478.85991903.85991903 1.28623482.36437247.53927126.73238866 1.07489879 1.05668016 1.63967611l.08016195.22955466c.42631579 1.32267206-.72510122 2.1097166-1.57408907 2.88582996.2368421-.00364373.70688259-.01093117.94008097-.0145749l-.64493927.64493927c-.63765182.39716599-1.32267207.71052632-1.99311741 1.04939271-.09838057-1.3882591-.38987854-2.75465587-.54655871-4.13562753-.00364372-.14210526-.00728745-.42995951-.01093117-.5757085l.04008097-.21862348.04736842-.24412955c.09109312.36072874.26963563 1.08218623.36072875 1.44291498.63036437-1.21336033.50647773-2.63441296.76518218-3.94615385z" fill="#425353" transform="translate(11.295547 32)"/><path d="m.07287449.2659919c1.34089069.01093118 2.67085021.20040486 3.98623482.44817814 1.49392713.36072875 2.87489879 1.10040486 4.12834008 1.97125506.01093118.00728745.03279352.02550607.0437247.03279352.251417.18947369.75425101.57206478 1.00202429.76153847l-.0291498.01457489-.5465587.24777328c.56842105.65951417 1.14048583 1.31902834 1.76720652 1.92388664-.1967612.07651822-.59028344.22226721-.78704458.29878543-.59757085.18947368-1.20607287.32793522-1.80728745.49554656.06194332-1.19149798-.08016194-2.37935223-.36072874-3.53441296-.10931174.05101215-.32793523.15668016-.43724697.20769231-.12024291.06194332-.36437247.18582996-.48461538.24777328-.79068826-2.21902834-3.66558705-2.4631579-5.61497976-1.8291498-.28785425-.42631579-.5757085-.8562753-.85991903-1.28623482z" fill="#362b4a" transform="translate(13.117409 32)"/><path d="m.94736842 1.66153846c.9437247-.51376518 1.93481781-.9145749 2.92226721-1.32995951-.16396761.65951417-.3242915 1.31902834-.51740891 1.97125506-.32064777.88906882-.73603239 1.73441295-1.14048583 2.58704453-.67773279.25141701-1.34089069.53927126-2.01133603.81619433-.02550607-.07651821-.07651822-.22955465-.10566802-.30607287.33157895-1.23522267.59392713-2.48502024.85263158-3.73846154z" fill="#825632" transform="translate(5.82996 32.364372)"/><path d="m.5902834.33157895.53562753-.09109312c.22591093.0437247.67044535.13481781.89271255.18218624l-.13481781.23319838c-.34251012.75425101-.53562753 1.56315789-.71417004 2.36842105-.36072875-.24777328-.72510122-.48825911-1.09676114-.72145749.19311741-.65222672.3534413-1.31174089.51740891-1.97125506z" fill="#a7a232" transform="translate(9.109312 32.364372)"/><path d="m.5611336.0582996c.27327936.71781376.3534413 1.50485829.26963563 2.27004048l-.04008097.21862348c-.37165992-.68502024-.5757085-1.47935222-.36437247-2.25546558z" fill="#6ae73f" transform="translate(10.566802 32.728745)"/><path d="m.20404858.45910931c1.94939272-.6340081 4.8242915-.38987854 5.61497976 1.8291498-.42995951.24777328-.8562753.50283401-1.26437247.77975708l-.61214575.42631579c.0728745-.41174089.14574899-.82348178.22226721-1.23886639-.9437247-.29878543-1.93481782-.28421053-2.90404859-.15668016-.32429149-.56477733-.69230769-1.10040486-1.05668016-1.63967612z" fill="#4c2e5c" transform="translate(13.846154 33.093117)"/><path d="m.07651822 2.65991903c.17854251-.80526316.37165992-1.61417004.71417004-2.36842105-.21133603.77611336-.00728745 1.57044534.36437247 2.25546558.00364372.14574899.00728745.43360324.01093117.5757085l-.32064777.22226721c-.19311741-.17125506-.57935223-.51376518-.76882591-.68502024z" fill="#d8bf37" transform="translate(10.202429 32.728745)"/><g fill="#281132" transform="translate(5.101215 33.821862)"><path d="m.20769231 1.2097166c.49190283-.33157895.98380567-.66680162 1.46842105-1.00566802-.25870445 1.2534413-.52105263 2.50323887-.85263158 3.73846154-.26234818-.89635627-.44089069-1.8145749-.61578947-2.73279352z"/><path d="m17.3368421 2.04412955c.4991903-.14574898 1.1732794.52469636.9910931 1.02024292-.5975708.01821862-1.0129554-.42631579-.9910931-1.02024292z"/><path d="m19.9493927 13.0846154c.5064777-.7761134 1.0421053-1.5340081 1.6032389-2.2736842.0692307 1.5668016.0473684 3.202834-.8271255 4.5728745.0218623.3534413.0400809.7068826.0582996 1.0603239l-.1530365.4481781c-.0072874.0182186-.025506.0582996-.0327935.0801619l-.3206478.6449393c-.0109311.0145749-.0327935.0473684-.0437247.0655871l-.3388664.3898785c-.3862348.2040486-.5829959.5101215-.5866396.9218623l-.0036438.2987855c-1.0421052.8234817-2.3939271.674089-3.6291498.6340081.4663968-1.0676114.940081-2.1279353 1.4064778-3.1919029-.8453442.4226721-1.6979757.8307693-2.5323887 1.2789474.7469636-.7797571 1.4939271-1.5595142 2.2846154-2.2955466-.7469636-1.1004048-1.6578947-2.076923-2.7145749-2.8858299l.0218623-.1894737c.5137652.0182186 1.0311741.040081 1.5449393.0619433 1.4210526.1093118 2.8384616.2951417 4.2631579.3789474z"/></g><path d="m.235.685c.015.01.045.035.06.045-.015-.01-.045-.035-.06-.045z" fill="#413845" opacity=".53" transform="translate(21.133603 34.186235)"/><path d="m.51376518.81983806c.26234818-.23319838.52469636-.47004049.78704454-.70323887.17489878.91821862.35344129 1.83643725.61578947 2.73279352.0291498.07651822.08016194.22955466.10566802.30607288l.16396761.37894737c.48461538 1.1368421 1.00566801 2.26275303 1.4757085 3.41052631-.21497976.18582996-.42995951.37165992-.64129555.5611336-.38987854-.32793522-.77611336-.64858299-1.151417-.98744939-.30242915-.37530364-.5757085-.77975708-.81619433-1.19878542-.0582996-.14574899-.17489879-.44089069-.23319838-.5902834-.15668016-.04736843-.46639676-.14939272-.6194332-.20040486.12024291-1.21700405.24412955-2.43765182.3097166-3.66194332z" fill="#af463d" transform="translate(4.008097 34.91498)"/><path d="m.02550607 2.70364372c.40445344-.85263157.81983806-1.6979757 1.14048583-2.58704453.37165992.23319838.73603239.47368421 1.09676114.72145749.18947368.17125506.5757085.51376518.76882591.68502024l-.27327935.18947369c-.68866397.26234818-1.38461539.50647773-2.08056681.75789473-.16396761.0582996-.48825911.17489879-.65222672.23319838z" fill="#a66f38" transform="translate(8.016194 34.550607)"/><path d="m.16761134.27692308c.96923077-.12753037 1.96032388-.14210527 2.90404858.15668016-.07651822.41538461-.14939271.8271255-.22226721 1.2388664-.41174089.29149797-.82348178.57935222-1.24615384.8562753l-.37530365.2368421c-.36801619-.73603238-.73603239-1.47206477-.98016194-2.25910931z" fill="#643e76" transform="translate(14.939271 34.91498)"/><path d="m.47368421.21862348c.10931174-.05101214.32793522-.15668016.43724696-.20769231.28056681 1.15506073.42267207 2.34291498.36072875 3.53441296-.26963563-.08016194-.80890688-.23319838-1.07854251-.31336032-.10931174-1.01295547.06558704-2.02591094.2805668-3.01336033z" fill="#3d5d53" transform="translate(19.676113 34.91498)"/><path d="m1.4465587.46639676c.12024292-.06194332.36437247-.18582996.48461539-.24777328-.21497976.98744939-.38987854 2.00040486-.2805668 3.01336033-.49190284-.12024292-.98744939-.22591094-1.47935223-.34251013.00364373-.55020242.00728745-1.09676113.01093118-1.64331983.40809716-.27692308.83441295-.53198381 1.26437246-.77975709z" fill="#46a366" transform="translate(18.218623 34.91498)"/><path d="m.13117409 3.02793522c.84898785-.77611336 2.00040486-1.56315789 1.57408907-2.88582996.24412955.78704454.61214575 1.52307693.98016194 2.25910931l.37530364-.2368421c1.2097166.73238866 2.33927126 1.58866397 3.55991903 2.29919028-.89271255.6048583-1.8 1.18785425-2.71093117 1.76720648l-.30242915.18947368c-.44453441-.71052631-.88178138-1.42469635-1.37004049-2.10971659-.30607287-.42267207-.62672064-.83805668-.94736842-1.2534413-.28785425.20040486-.5757085.40080972-.86356275.60121458l.64493927-.64493928c-.23319838.00364373-.70323887.01093118-.94008097.0145749z" fill="#a8ff6a" transform="translate(13.481781 35.279352)"/><g fill="#290f45" transform="translate(2.550607 35.279352)"><path d="m19.2242915.46275304.5465587-.24777328.1165992.37165992c-.0218624.59392712.3935223 1.03846153.9910931 1.02024291.542915.17854251.9910931.72874494 1.2097166 1.25708502-.3862348-.10931174-.7469636-.28785425-1.0967611-.47732793-.6267207-.6048583-1.1987854-1.26437247-1.7672065-1.92388664z"/><path d="m.02550607 13.3906883.15668017.0327935c.98744939.2587044 1.96032388.5538461 2.94777327.8161943l.16396762.0473684.04736842.0765183c-.80890689.6995951-1.61417004 1.402834-2.41578948 2.1097166-.31336032-1.0238867-.6194332-2.0477733-.9-3.0825911z"/></g><path d="m.21133603 4.63117409c.77246964-1.68340081 1.80364373-3.27206478 3.21376518-4.49271255-.06558704 1.2242915-.18947368 2.44493927-.30971659 3.66194332.15303643.05101214.46275303.15303644.61943319.20040486.0582996.14939271.17489879.44453441.23319838.5902834-1.23522267-.34251012-2.51417004-.18582996-3.75668016.04008097z" fill="#7b2232" transform="translate(1.093117 35.643725)"/><path d="m.84534413.42995951.32064777-.2222672c.15668016 1.38097166.44817814 2.74736842.54655871 4.13562753l-.20040486.24412955c-.49919028-.40809716-1.31538462-.6194332-1.43562753-1.34817813-.17489879-.9.18582996-1.78906883.49554656-2.61983806z" fill="#823842" transform="translate(10.202429 35.643725)"/><path d="m2.49959514 1.01295547c.69595142-.25141701 1.39190284-.49554656 2.0805668-.75789474-.3097166.83076923-.67044534 1.71983806-.49554656 2.61983806.12024292.72874493.93643725.94008097 1.43562753 1.34817813-1.08947368 1.16234818-2.19716599 2.31376519-3.31214574 3.45425102-.24412956-.60850203-.48825911-1.21700405-.73238867-1.82550608-.47004048-1.14777328-.99109311-2.27368421-1.4757085-3.41052631.78340081.14210526 1.57773279.2368421 2.36842105.33157894.25141701-.56477732.50283401-1.12955465.74696357-1.6979757-.15303644-.0145749-.45910932-.04736843-.61578948-.06194332z" fill="#6b303a" transform="translate(6.194332 36.008097)"/><path d="m1.39190283.57935223.61214575-.42631579c-.00364372.5465587-.00728745 1.09311741-.01093117 1.64331984.49190283.11659919.98744939.2222672 1.47935223.34251012.26963562.08016194.80890688.23319838 1.07854251.31336032.04736842.03643725.14210526.11659919.18947368.15303644-.25506073.42631579-.52469636.8417004-.79068826 1.25708502-.06194332-.0291498-.18218623-.09473684-.24412955-.12753037-1.22064778-.71052631-2.35020243-1.56680162-3.55991903-2.29919028.42267206-.27692308.83441295-.56477733 1.24615384-.8562753z" fill="#47ff83" transform="translate(16.396761 36.008097)"/><path d="m2.21174089.51740891c.16396761-.0582996.48825911-.17489879.65222672-.23319838.15668016.0145749.46275304.04736842.61578948.06194332-.24412956.56842105-.49554656 1.13319838-.74696357 1.6979757-.79068826-.09473684-1.58502024-.18947368-2.36842105-.33157894l-.16396761-.37894737c.67044534-.27692308 1.33360324-.56477733 2.01133603-.81619433z" fill="#552637" transform="translate(5.82996 36.736842)"/><path d="m.52834008.49919028c.19676114-.07651821.5902834-.2222672.78704454-.29878542.34979757.18947368.71052631.36801619 1.09676113.47732793l.13117409.04736843c.77246963 1.50485829 1.5194332 3.04979757 1.81821862 4.73319838-.14939271-.31336033-.29878542-.62307693-.45546559-.9291498-.41902834-.16761134-.83441295-.3388664-1.24979757-.51376518-.77246963-.88178138-1.55587044-1.75627531-2.41214574-2.55425102.09473684-.32064777.18947368-.64129554.28421052-.96194332z" fill="#35b34a" transform="translate(22.226721 37.465587)"/><path d="m.90728745.63036437c.60121457-.16761133 1.2097166-.30607287 1.80728745-.49554656-.09473684.32064778-.18947369.64129555-.28421053.96194332.85627531.79797571 1.63967612 1.67246964 2.41214575 2.55425102-1.1659919-.42267207-2.34291498-.82348179-3.53441295-1.16963563-.3388664-.13846154-.67044535-.28421053-1.0020243-.44089069.26599191-.41538462.53562754-.83076923.79068826-1.25708502-.04736842-.03643725-.14210526-.11659919-.18947368-.15303644z" fill="#55fc5f" transform="translate(20.040486 37.82996)"/><path d="m2.24817814.74331984c.28785425-.20040486.5757085-.40080972.86356275-.60121458.32064777.41538462.64129555.83076923.94736842 1.2534413-.26234818 1.15506073-.48097166 2.31740891-.76882591 3.46518218l-.14574899.09109312-.17489878.10566802c-.79433199-1.08947369-1.71983806-2.0659919-2.66356276-3.0242915l-.05101214-.24048583c.67044534-.3388664 1.35546559-.65222672 1.99311741-1.04939271z" fill="#67b153" transform="translate(11.659919 38.194332)"/><g fill="#4a4a4a" transform="translate(33.88664 38.923077)"><path d="m102.184615.22226721c2.047774-.3825911 4.448988-.30607288 6.081377 1.15506073 1.544939 1.36639676 1.923887 3.55991902 1.883806 5.52024291.010931 2.11336032-.666802 4.51821865-2.623482 5.62955465-2.313765 1.2170041-5.480162 1.1769231-7.560729-.5064777-2.0404858-1.8218624-2.0805668-4.8497976-1.7489878-7.36032391.2951417-2.09878543 1.8400808-4.00809717 3.9680158-4.43805668zm-.036437 1.78178137c-1.526721.56477733-2.1534412 2.29190284-2.2117408 3.79676114-.0910931 1.69068826-.0510121 3.64008097 1.2133608 4.92995948 1.333603 1.151417 3.334008 1.1623482 4.929959.6194332 1.606883-.6267206 2.157085-2.47408904 2.219028-4.05182183.061944-1.61781377-.058299-3.47975709-1.278947-4.68582996-1.319028-1.13319838-3.297571-1.14048583-4.87166-.60850203z" fill-rule="nonzero"/><path d="m.16032389.45182186c.58663967-.2368421 1.35546558-.17854251 1.96761133-.01821862 1.50121458 1.7417004 2.78016195 3.67287449 4.24129555 5.45101214 1.32995951-1.68704453 2.61255061-3.41417004 3.92793523-5.10850202.4846154-.75789474 1.5303644-.33522267 2.2663968-.47368421.1238866 4.32145749-.0473685 8.65384615.0874493 12.97894735-.6230769.0218624-1.2497975.040081-1.8728744.0473684.0437246-3.36680158-.0145749-6.7336032.0400809-10.09676109-1.59230767 1.81821862-2.94777326 3.83319838-4.44898783 5.72793522-1.49757085-1.89473684-2.86761134-3.89149798-4.41983806-5.7388664.02186235 3.3631579-.01093117 6.72631579.02550608 10.09311737-.61578948.0036438-1.22793523.0072875-1.84008098.0072875.04008098-4.28866398-.01821862-8.58097167.02550608-12.86963564z"/><path d="m16.1781377 2.97327935c1.42834-2.87125506 5.2870445-3.35222672 8.0271255-2.31376518 1.9748987.73967611 3.057085 2.82388664 3.2319838 4.83157895.1821862 2.15708502.0437247 4.58380568-1.442915 6.28906878-1.4101215 1.5012146-3.640081 1.9785426-5.6259109 1.7708502-1.7562754-.3971659-3.5672065-1.257085-4.2850203-3.0279352-.9546559-2.37206475-.9582996-5.20688257.0947369-7.54979755zm3.6546558-.9291498c-1.654251.4117409-2.4595141 2.17530365-2.5433198 3.74939272-.1275304 1.83643724-.080162 4.06639676 1.4829959 5.32712553 1.3809717.9109311 3.2465587.9218623 4.7550608.3425101 1.4902834-.6121458 2.0259109-2.35020243 2.1060728-3.82955466.0728745-1.55222672.0182187-3.28299595-.9838056-4.5582996-1.1477733-1.39919028-3.1991903-1.36639676-4.8170041-1.03117409z" fill-rule="nonzero"/><path d="m32.6623482.80526316c2.2408907-1.03117409 4.8643724-.69959514 7.1016194.16032389 0 .5757085.0036437 1.151417.0145749 1.73076923-1.8910931-.80161944-4.1210526-1.20607288-6.0777328-.43360324-1.6615384.69959514-2.1060729 2.68178137-2.117004 4.30688259-.0327936 1.71983805.2259109 3.87692307 1.9348178 4.75870447 1.9821862.9582996 4.3032388.4445344 6.259919-.3206478-.0072874.582996-.0182186 1.1659919-.0255061 1.7489879-.9546558.3206477-1.9493927.5064777-2.911336.7943319-2.0659919.2186235-4.4271255-.2987854-5.8008097-1.971255-1.3299595-1.7089069-1.442915-4.00809718-1.2680162-6.08137653.1712551-1.8874494 1.1004049-3.85506073 2.8894737-4.69311741z"/><path d="m42.1178138.33522267c.5866396-.00364372 1.1805668-.01093117 1.7708502-.02186235.0692307 2.08785425.0327935 4.17570851.0072874 6.25991903 2.0404858-2.04412955 3.9643725-4.20121457 6.0012146-6.24898785.7578947.00728745 1.5121457.00364372 2.2700405.00364372-1.7927126 2.00404859-3.6364373 3.96437247-5.5202429 5.88461539 2.0331983 2.35020243 3.9898785 4.76234819 6.0522267 7.08704449-.7688259.0255061-1.5376518.0218624-2.3064777.0327936-1.668826-1.9129555-3.3085021-3.84777332-4.9153847-5.8080972-.5210526.53927125-1.0348178 1.08218623-1.5558704 1.62145749-.0036437 1.38825911-.0109312 2.77651821.0291498 4.16477731-.6230769.0072875-1.2461539.0036437-1.8692308-.0072874.0655871-4.32145752 0-8.64655874.0364373-12.96801623z"/><path d="m54.4773279.19676113c.6085021-.00364372 1.2206478-.00728745 1.8291498-.01457489.0546559 2.97327935-.1238866 5.95384615.0983806 8.91983805.2805668 2.64534411 3.7639676 3.21012141 5.6769231 1.96761131.9692307-.6886639 1.1987854-1.95303641 1.2024291-3.06801617.0145749-2.60526315.0072875-5.21417004 0-7.81943319.6157895.01093117 1.231579.01821862 1.8510122.03643724-.0910931 2.80566802.0109311 5.61497976-.0546559 8.4242915-.0874494 1.80728742-1.1441296 3.64008102-2.8967611 4.28502022-1.7635628.6340081-3.8732794.6048583-5.5093118-.3716599-1.4137652-.8781376-2.1388664-2.56153846-2.1789473-4.18299595-.0218624-2.72550607.0182186-5.45101214-.0182187-8.17651822z"/><path d="m68.294332.17489879c2.2408907.08380566 4.5546559-.28785426 6.7445344.31700404 3.1080972.91093118 3.41417 5.92105264.5829959 7.33846154-1.6979757.88178138-3.6765182.47732794-5.5093117.60121458.0364373 1.57773275.0182186 3.15910935.0255061 4.74048585-.608502 0-1.2133603 0-1.8218624 0-.0036437-4.33238869.0364373-8.66477735-.0218623-12.99716601zm1.8291498 1.70161943c.0145749 1.63238866.0218623 3.2611336-.0072875 4.89352227 1.3080972-.02186235 2.6380567.11659919 3.9352227-.12388664 2.1534413-.3534413 2.2882591-3.9680162.2587045-4.59838057-1.3700405-.3242915-2.7947369-.14210526-4.1866397-.17125506z" fill-rule="nonzero"/><path d="m78.3838057.18947368c.6704453.00364373 1.3408907.01093118 2.0149797.03643725 1.0348178 3.36680162 1.9748988 6.78825911 3.1846154 10.07854247 1.0530364-3.36315785 2.0769231-6.73724692 3.1263158-10.10040482.5210526-.00728745 1.045749-.0145749 1.5704453-.02186234 1.0311741 3.35222672 2.1497976 6.68623481 3.0753037 10.07125506.5101214-.33522268.4736842-1.02024292.6740891-1.53765183.859919-2.84939271 1.7380566-5.69149797 2.6307692-8.52995951.6522267.00364372 1.3080972.01093117 1.9639676.0145749-1.4684211 4.29595142-2.7874494 8.63927125-4.2012146 12.94979754-.6194332.0182187-1.2352226.0255061-1.8510121.0437247-1.0348178-3.0315789-1.9311741-6.11052629-2.88583-9.16761131-.0692308-.09473684-.2040486-.29149798-.2732793-.38987854-.8854251 3.20283401-1.9530365 6.35465587-2.9368421 9.52834005-.623077.0036438-1.2388664.0072875-1.8582996.0182187-1.4720648-4.31052636-2.7655871-8.682996-4.2340081-12.99352232z"/><path d="m112.846154.19311741c2.619838.22955466 5.509312-.5902834 7.910526.76518219 2.652632 1.70526315 1.821863 6.40931174-1.311741 7.04696356 1.191498 1.70526316 2.295547 3.46882594 3.483401 5.17773284-.725101-.0072875-1.446559-.0109312-2.168016.0072874-1.136842-1.5923077-2.131579-3.28299595-3.19919-4.92631579-.969231-.00728745-1.934818-.00364372-2.900405-.00728745.010931 1.63603239 0 3.27570854.014575 4.91174094-.608502.0036437-1.217004.0036437-1.821863.0036437 0-4.32510124.010931-8.65384618-.007287-12.97894739zm1.803644 1.69797571c.029149 1.53765182.021862 3.07894737.003643 4.61659919 1.523077-.04008097 3.10081.20404858 4.583806-.24048583 1.8-.68137652 1.646964-3.74574899-.225911-4.2340081-1.424696-.32793522-2.911336-.12024291-4.361538-.14210526z" fill-rule="nonzero"/><path d="m125.231174.18582996c.612146.00728745 1.231579.0145749 1.851012.0291498-.083805 3.75303643 0 7.50607287-.043724 11.25910934 2.164372.0036437 4.332388.0036437 6.496761-.0036438-.003644.5647774-.007288 1.1331984-.007288 1.7016195-2.765587 0-5.52753 0-8.293117 0 0-4.32874496.010931-8.6574899-.003644-12.98623484z"/><path d="m135.706883 13.1757085c-.021863-4.33603239.014574-8.6757085-.018219-13.01174089 2.597976.14574899 5.469231-.49190283 7.819433.9291498 1.95668 1.20242915 2.54332 3.68016194 2.448583 5.83360324.02915 2.09149797-.725101 4.46720645-2.696356 5.49109315-2.324696 1.2388664-5.042915.5902834-7.553441.7578947zm1.778137-1.6396761c1.646964-.0072875 3.44332.2331984 4.922672-.6558705 1.32996-.8380566 1.712551-2.52510117 1.727126-3.99716595.032793-1.57408907-.255061-3.42145749-1.676114-4.35789474-1.461133-.92186234-3.275708-.70323886-4.919028-.76153846-.076518 3.25748988.018219 6.51497976-.054656 9.77246965z" fill-rule="nonzero"/></g><path d="m.77975709.30242915c.4882591.68502024.92550607 1.39919028 1.37004048 2.1097166-.71052631.45546559-1.42469635.90728745-2.1388664 1.35546559.28785426-1.14777328.50647774-2.31012146.76882592-3.46518219z" fill="#7df354" transform="translate(14.939271 39.287449)"/><path d="m3.34129555.09109312c.06194332.03279352.18218623.09838056.24412955.12753036.33157895.15668016.6631579.30242915 1.00202429.44089069-.16761133.03279352-.50283401.09838057-.67044534.12753036-.17489879-.01093117-.53198381-.03643724-.71052632-.04736842-.18947368 1.71255061-.24777328 3.44696357-.07287449 5.16680162-.03643725.53562753.55020243.69959514.89271255.96923077-.51376518-.02186235-1.03117409-.04372469-1.54493927-.06194332-.04736842-.01093117-.13846154-.03279352-.18582996-.04008097-.648583-.52105263-1.27530365-1.07489878-1.94210526-1.57044534.32429149-.9.67773279-1.78906883 1.04939271-2.67085021-.25506073-.22955465-.51376518-.45182186-.77246964-.67408906.91093118-.57935223 1.81821863-1.16234818 2.71093118-1.76720648z" fill="#3c4343" transform="translate(16.761134 39.651822)"/><path d="m.94008097.25870445c1.24251012-.22591093 2.52145749-.38259109 3.75668016-.04008097.24048583.41902834.51376519.82348178.81619434 1.19878543-.0728745.81619433-.14210527 1.63238866-.21133604 2.44858299.72510122.12388664 1.44655871.24777328 2.17165992.37530365-.41174089.42267206-.81983805.84898785-1.21700405 1.28259109-.19311741-.10566802-.38259109-.21133603-.5757085-.31336032-.04736842-.26963563-.09473684-.53927126-.14210526-.80890689-1.13684211.10566802-2.28461539.09473685-3.41781377-.05465587.47732794-1.33360324.93643725-2.67813765 1.44291498-4.00080971-.71417004 1.28259109-1.38825911 2.58704453-2.09149797 3.87692307-.22591093-.16396761-.6777328-.49190283-.90728745-.65587044-.06923077-.12024292-.20404858-.3534413-.27327935-.47368421 0-.21497976 0-.64129555 0-.85263158.17125506-.6777328.42267206-1.32631579.64858299-1.98218624z" fill="#b1273b" transform="translate(.364372 40.016194)"/><path d="m6.61336032.57935223.20040486-.24412956.05101215.24048583c-.12024292 1.54129555-.32064778 3.07894737-.40445344 4.62024292.10566801.08380567.3097166.24412955.41538461.32429149.6194332.52834009 1.2242915 1.07854252 1.88016195 1.56680162-.47004049-.08016194-.94008098-.16032388-1.40647774-.24412955-1.16963562-.21133603-2.32469635-.52469636-3.5125506-.59757085-1.26072875.38259109-2.4777328.88178138-3.71659919 1.31538461.45546558-.56842105.91457489-1.12955465 1.39919028-1.67246963.39716599-.43360324.80526316-.85991903 1.21700405-1.28259109.18582996-.19311741.37530364-.3825911.56477732-.57206478 1.11497976-1.14048583 2.22267207-2.29190284 3.31214575-3.45425101z" fill="#df733e" transform="translate(5.101215 39.651822)"/><path d="m1.10769231 4.22307692c.70323886-1.28987854 1.37732793-2.59433198 2.09149797-3.87692307-.50647773 1.32267206-.96558704 2.66720647-1.44291498 4.00080971l-.28785425.13481782c.99109312.85991902 1.98218624 1.71619433 2.87125506 2.67813765-.79068826.48825911-1.55587044 1.02024291-2.33562753 1.52672065l-.15668016-.03279353c-.53562753-1.6979757-1.17692308-3.36315789-1.64696356-5.08663967.22955465.16396761.68137652.49190283.90728745.65587044z" fill="#3d0f3d" transform="translate(.728745 40.016194)"/><path d="m.67044534.21133603c.9437247.9582996 1.86923077 1.93481782 2.66356276 3.0242915-1.00931174.5611336-2.04048583 1.07489879-3.0680162 1.59595142.08380567-1.54129555.28421053-3.07894737.40445344-4.62024292z" fill="#99a043" transform="translate(11.295547 40.016194)"/><path d="m.29149798.01093117c.17854251.01093118.53562753.03643725.71052631.04736843 1.37368421 2.21538461 3.0680162 4.21214574 4.37246964 6.46761133-1.42469636-.08380567-2.84210527-.26963563-4.2631579-.37894737-.34251012-.26963562-.92914979-.43360324-.89271255-.96923077-.17489878-1.71983805-.11659919-3.45425101.0728745-5.16680162z" fill="#4c703b" transform="translate(19.676113 40.380567)"/><path d="m.27327935.42267207c.16761134-.0291498.50283401-.09473685.67044535-.12753037 1.19149797.34615385 2.36842105.74696356 3.53441295 1.16963563.41538462.17489878.83076923.34615384 1.24979757.51376518.15668016.30607287.30607288.61578947.45546559.9291498l.04736842.12024291c.00728745.52834008.0145749 1.06032389.01821862 1.58866397-.5611336.73967611-1.09676113 1.49757085-1.60323886 2.27368421-1.30445344-2.25546559-2.99878543-4.25222672-4.37246964-6.46761133z" fill="#293735" transform="translate(20.404858 40.016194)"/><path d="m.41174089.3242915c.37530364.3388664.76153846.65951417 1.151417.98744939.21133604-.18947368.42631579-.37530364.64129555-.5611336.24412956.60850202.48825911 1.21700405.73238867 1.82550607-.18947369.18947368-.37894737.37894737-.56477733.57206478-.72510122-.12753037-1.44655871-.25141701-2.17165992-.37530365.06923077-.81619433.13846154-1.63238866.21133603-2.44858299z" fill="#c7363f" transform="translate(5.465587 41.109312)"/><g fill="#435a4a" transform="translate(14.574899 41.473684)"><path d="m2.51417004.22591093.30242915-.18947368c.25870445.2222672.51740891.44453441.77246964.67408907-.37165992.88178137-.72510122 1.7708502-1.04939272 2.6708502-.77246963-.56477733-1.54858299-1.12591093-2.31012145-1.70890688l.14574898-.09109312c.71417004-.44817814 1.42834008-.9 2.1388664-1.35546559z"/><path d="m12.0607287 1.57044534c.4445345 2.41578948.2477733 4.96639677-.7506072 7.22186235-.0182187-.35344129-.0364373-.70688259-.0582996-1.06032388.8744939-1.37004049.8963562-3.00607288.8271255-4.5728745-.0036438-.52834008-.0109312-1.06032388-.0182187-1.58866397z"/></g><path d="m1.96032389 9.67408907c-1.63603239-2.89311741-2.07327936-6.39473684-1.30445344-9.6194332v.85263158c-.01821863 1.74898785-.0145749 3.50161943.08016194 5.25060729.61214575.10566801 1.2242915.20404858 1.84008097.3097166.2805668 1.03481781.58663968 2.05870445.9 3.08259109 1.31538462.86356277 2.75465587 1.49392717 4.2340081 2.01497977l.15303643.0692308c-1.47206477-.1566802-2.951417-.0255061-4.40526315.211336-.51740891-.6813765-1.02753037-1.3663968-1.46113361-2.10607289-.01093117-.0145749-.02914979-.04736842-.03643724-.06558704z" fill="#272989" transform="translate(0 42.202429)"/><path d="m.29149798.17854251c.06923077.12024292.20404858.3534413.27327935.47368421.47004048 1.72348178 1.11133603 3.38866397 1.64696356 5.08663968-.61578947-.10566802-1.22793522-.20404859-1.84008097-.3097166-.09473684-1.74898786-.09838057-3.50161944-.08016194-5.25060729z" fill="#28196f" transform="translate(.364372 42.931174)"/><path d="m.2659919 1.91659919c1.02753037-.52105263 2.05870446-1.03481781 3.0680162-1.59595142l.17489878-.10566801c.76153846.58299595 1.53765182 1.14412955 2.31012146 1.70890688.66680162.49554656 1.29352227 1.04939271 1.94210526 1.57044534-1.20607287-.25870445-2.37206477-.66315789-3.5562753-.99838056-1.16234818-.21862348-2.35020243-.19311741-3.52348178-.25506073-.10566802-.08016195-.3097166-.24048583-.41538462-.3242915z" fill="#351940" transform="translate(11.295547 42.931174)"/><path d="m.01093117.47368421.28785426-.13481781c1.13319838.14939271 2.28097166.16032388 3.41781376.05465587.04736842.26963563.09473684.53927125.14210526.80890688.19311741.10202429.3825911.20769231.57570851.31336032-.48461539.54291498-.9437247 1.10404859-1.39919029 1.67246964 1.2388664-.43360324 2.45587045-.93279352 3.71659919-1.31538462l-.06194332.35708502c-.48097166.50647774-.97651822.99473685-1.43927125 1.51578948-.52469636.6048583-1.03117409 1.2242915-1.59230769 1.79635627l-.16396762-.04736842c-.17489878-.78704453-.34979757-1.57773279-.61214575-2.34291498-.88906882-.96194332-1.88016194-1.81821862-2.87125506-2.67813765z" fill="#9b1e39" transform="translate(2.186235 44.024291)"/><path d="m.31700405.05465587c1.17327935.06194332 2.3611336.03643725 3.52348178.25506073.18582996.81619433.37894737 1.63238866.56842105 2.45222672-.14210526 1.38097166-.44089069 2.74008097-.75789473 4.09190283-.22955466-1.69433198-.44089069-3.38866396-.65222672-5.08299595-.20040486-.03643724-.60121458-.11295546-.80161944-.14939271-.65587044-.48825911-1.26072874-1.03846154-1.88016194-1.56680162z" fill="#d34e49" transform="translate(11.659919 45.117409)"/><path d="m.19676113.3097166c1.18421053.33522267 2.35020243.73967611 3.55627531.99838057.04736842.00728745.13846154.02914979.18582996.04008097l-.02186235.18947368c-.28785425 1.52672065-.55384616 3.05708502-.76518219 4.59473684-.09473684.51740891-.20404858 1.03117409-.34251012 1.5340081-.51376518.06923077-1.02388664.13846154-1.5340081.20404858.68502025-1.67975708-.15668016-3.45425101-.51012145-5.10850202-.18947369-.81983806-.3825911-1.63603239-.56842106-2.45222672z" fill="#a5343f" transform="translate(15.303644 45.117409)"/><path d="m.92186235.05101215c1.18785425.07287449 2.34291498.38623481 3.51255061.59757085-2.38299596 1.38097166-3.72024292 4.04453441-3.72388664 6.75910931-.12024292.16396761-.36437247.48825911-.48825911.65222672-.02186235-2.56518219.52469635-5.0902834.63765182-7.65182186z" fill="#b0986e" transform="translate(8.016194 45.846154)"/><path d="m.87813765 1.55951417c.46275304-.52105263.9582996-1.00931174 1.43927126-1.51578947-.11295547 2.56153846-.65951417 5.08663967-.63765182 7.65182186l-.01093118.13846154c-.09109312-.05101215-.27327935-.15668016-.36437247-.20769231l-.15303644-.06923077c-.27692307-.74696356-.55748987-1.4902834-.87813765-2.21902834.49190284-1.1951417.81255061-2.47773279.6048583-3.77854251z" fill="#a73d5d" transform="translate(6.558704 46.210526)"/><path d="m4.07004049.28421053c.46639676.08380566.93643724.16396761 1.40647773.24412955.20040486.03643725.60121457.11295547.80161943.14939271-1.96761133 2.12793523-3.90242915 4.2923077-5.9319838 6.36558705.00364372-2.7145749 1.34089068-5.37813765 3.72388664-6.75910931z" fill="#b48562" transform="translate(8.380567 46.210526)"/><path d="m.71052632 6.67894737c2.02955465-2.07327935 3.96437247-4.23765182 5.9319838-6.36558705.21133603 1.69433199.42267207 3.38866397.65222672 5.08299596.04008097.37894736.08016195.76153846.12753037 1.14412955-2.33198381.15668016-4.59109312.81619433-6.9048583 1.08947368-.07651822-.04008097-.22955466-.12024291-.30607288-.16032388l.01093118-.13846154c.12388664-.16396761.36801619-.48825911.48825911-.65222672z" fill="#355d72" transform="translate(8.016194 46.574899)"/><path d="m1.00202429.08016194c1.05668016.80890689 1.96761134 1.7854251 2.7145749 2.88582996-.79068826.73603239-1.53765182 1.51578948-2.28461538 2.29554656-.42631579.27327935-.85263158.54655871-1.27894737.81983806.01821862-.34979757.06194332-1.05303644.08380567-1.40647773.21133603-1.53765183.47732793-3.0680162.76518218-4.59473685z" fill="#3d1537" transform="translate(18.218623 46.574899)"/><path d="m.18218624 1.76356275c.77975708-.50647773 1.54493927-1.03846153 2.33562753-1.52672064.26234817.76518218.43724696 1.55587044.61214574 2.34291498-.98744939-.26234818-1.96032388-.55748988-2.94777327-.81619434z" fill="#681353" transform="translate(2.550607 46.939271)"/><path d="m.0145749 1.89838057c.5611336-.57206478 1.06761133-1.19149798 1.59230769-1.79635628.20769231 1.30080972-.11295546 2.58340081-.6048583 3.77854251-.30242915-.64129554-.6048583-1.28259109-.94008097-1.90566801z" fill="#a25a64" transform="translate(5.82996 47.668016)"/><path d="m.76518219.21133603c.35344129 1.65425101 1.1951417 3.42874494.51012145 5.10850203-.38259109.04372469-.76153846.08744939-1.14048583.12753036-.04736842-.38259109-.08744939-.76518219-.12753036-1.14412955.31700405-1.35182187.61578947-2.71093118.75789474-4.09190284z" fill="#941e36" transform="translate(15.303644 47.668016)"/><path d="m.19676113 2.26275304c.80161944-.70688259 1.60688259-1.41012146 2.41578948-2.1097166.33522267.62307692.63765182 1.26437247.94008097 1.90566801.32064777.72874494.60121457 1.47206478.87813765 2.21902834-1.47935223-.52105263-2.91862348-1.151417-4.2340081-2.01497975z" fill="#265d9c" transform="translate(3.279352 49.489879)"/><path d="m1.43198381 1.61781377c.83441295-.44817814 1.68704453-.85627531 2.53238866-1.27894737-.46639676 1.06396761-.94008097 2.12429149-1.40647773 3.19190283 1.23522267.04008097 2.58704453.18947368 3.62914979-.6340081-.73238866.72145749-1.24979757 1.7854251-2.24089068 2.1680162-.43724697.05465587-.69959515.28421052-.78704454.68866397l-.06194332.2659919c-.25870445-.72510122-.51376518-1.45384616-.80161943-2.17165992-.05101215-.09838057-.16032389-.2951417-.21497976-.39352227-.63765182-.34615384-1.30080971-.65222672-1.92753036-1.01659919.42631579-.27327935.85263158-.5465587 1.27894737-.81983805z" fill="#372e35" transform="translate(18.218623 50.218623)"/><path d="m.265.79c.01-.03.035-.085.045-.11-.01.025-.035.08-.045.11z" fill="#454147" opacity=".47" transform="translate(25.506073 50.218623)"/><path d="m.98744939 1.83643725c.13846154-.50283401.24777328-1.01659919.34251012-1.5340081-.02186234.3534413-.06558704 1.05668016-.08380566 1.40647773.62672064.36437247 1.28987854.67044535 1.92753036 1.01659919.05465587.09838057.16396761.2951417.21497976.39352227-1.06032389-.0145749-2.12064778-.0145749-3.18097166.00728745.26963563-.42631579.5319838-.85263158.77975708-1.28987854z" fill="#712738" transform="translate(17.125506 50.947368)"/><path d="m.265.765c.015-.025.045-.07.06-.09-.015.02-.045.065-.06.09z" fill="#423e44" opacity=".47" transform="translate(25.1417 50.947368)"/><path d="m.69.275c.01.025.035.07.05.09-.015-.02-.04-.065-.05-.09z" fill="#4c4e6d" opacity=".56" transform="translate(1.45749 51.676113)"/><path d="m.36072875 1.14048583c.00364372-.41174089.20040485-.71781376.58663967-.92186235.18582996.60121458-.01093117.90728745-.58663967.92186235z" fill="#2f2734" opacity=".71" transform="translate(24.048583 51.676113)"/><path d="m1.59230769.34615385c.37894737-.04008098.75789474-.08380567 1.14048583-.12753037.51012146-.06558704 1.02024292-.13481781 1.5340081-.20404858-.24777328.43724696-.51012146.86356275-.77975709 1.28987854 1.06032389-.02186235 2.12064778-.02186235 3.18097166-.00728745.28785426.71781377.54291498 1.44655871.80161944 2.17165992-.39352227.18582996-.76882591.42995952-1.20607288.50647773-.49554656.05101215-.94372469.29149798-1.26072874.6777328-.29149798.3242915-.65587045.45546558-1.08947369.39716599-.38987854-.05465587-.72145749.06194332-.99838056.34979757l-.14574899.10202429c-.68866397.03643725-1.38097166.06558705-2.06963563.00728745-.47732793-.33157895-.45910931-1.02753036-.40080971-1.53765182.23319838-1.27165992.86720647-2.41578947 1.29352226-3.62550607z" fill="#291031" transform="translate(13.846154 52.769231)"/><path d="m.15303644 1.43562753c2.31376518-.27327935 4.57287449-.93279352 6.9048583-1.08947368-.42631579 1.2097166-1.06032389 2.35384615-1.29352227 3.62550607-.0582996.51012146-.07651822 1.20607287.40080972 1.53765182.68866396.0582996 1.38097166.0291498 2.06963562-.00728745-2.51052631.78340081-5.23238866.43724697-7.65910931-.48461538.13481782-.0582996.40445344-.17489879.53927126-.23319838 1.52307692.03279352 2.96963562.55748987 4.41983805.96194332l-.03279352-.26963563c-.08744939-.49554656.22226721-1.2097166-.30242915-1.5340081-1.62510121-.94008097-3.39230769-1.61052631-5.0465587-2.50688259z" fill="#513855" transform="translate(8.380567 52.769231)"/><path d="m.17854251.55020243c1.45384615-.23684211 2.93319838-.36801619 4.40526316-.21133603.09109312.05101214.27327935.15668016.36437247.2076923.07651822.04008098.22955465.12024292.30607287.16032389 1.65425101.89635628 3.42145749 1.56680162 5.04655869 2.50688259.5246964.3242915.2149798 1.03846154.3024292 1.5340081l.0327935.26963563c-1.45020244-.40445344-2.89676114-.9291498-4.41983807-.96194332-.59757085-1.07854251-1.08218623-2.21174089-1.53036437-3.35951417-.73603239.65587044-1.4902834 1.29352226-2.26275304 1.90931174-.79433198-.63036437-1.55951417-1.30445344-2.24453441-2.05506073z" fill="#247797" transform="translate(3.279352 53.497976)"/><path d="m.23684211 2.24089069c.77246963-.61578948 1.52672064-1.2534413 2.26275303-1.90931174.44817814 1.14777328.93279352 2.28097166 1.53036437 3.35951417-.13481781.05829959-.40445344.17489878-.53927125.23319838-.65587045-.12388664-1.24251012-.48461539-1.83279352-.77975709-.0145749-.00728745-.04736842-.02550607-.06194332-.03643724-.46275304-.27692308-.91093118-.57206478-1.35910931-.86720648z" fill="#283c72" transform="translate(5.465587 53.862348)"/><path d="m.24412956 1.01659919c.08744939-.40445344.34979757-.6340081.78704453-.68866397.06558704.57570851-.19676113.80526316-.78704453.68866397z" fill="#343738" opacity=".71" transform="translate(21.133603 54.955466)"/><path d="m.69.265c.02.015.065.04.085.05-.02-.01-.065-.035-.085-.05z" fill="#4b4f5d" opacity=".5" transform="translate(6.558704 56.777328)"/><path d="m.2659919 1.00931174c.31700405-.38623482.76518219-.62672065 1.26072875-.67773279.17125506.57935222-.83076923.95465587-1.26072875.67773279z" fill="#36293a" opacity=".69" transform="translate(18.582996 56.412955)"/><path d="m0 .6631579c.27692308-.28785426.60850202-.40445345.99838057-.34979758-.10931174.59028341-.44089069.70688259-.99838057.34979758z" fill="#3b3141" opacity=".6" transform="translate(16.761134 57.506073)"/></g></svg>