<svg height="90" viewBox="0 0 180 90" width="180" xmlns="http://www.w3.org/2000/svg"><g fill="#272c33" fill-rule="evenodd" transform="translate(0 24)"><path d="m42.1250816 21.0612245c0 11.6319388-9.4301632 21.0612245-21.062102 21.0612245-11.63281633 0-21.0629796-9.4292857-21.0629796-21.0612245 0-11.63193879 9.43016327-21.0612245 21.0629796-21.0612245 11.6319388 0 21.0612245 9.42928571 21.0612245 21.0612245zm-18.1679387 10.3463265c5.5364693 0 10.0400612-4.5035918 10.0400612-10.0391837 0-5.5373469-4.5035919-10.0418163-10.0400612-10.0418163h-3.3645307v3.3461021h3.3645307c3.6909795 0 6.6939591 3.0038571 6.6939591 6.6957142 0 3.6901021-3.0029796 6.6930817-6.6939591 6.6930817h-8.5894694v3.3469796h8.5894694zm-12.9851225.0140408h3.3469796v-20.0467755h-3.3469796zm4.3956531-16.7480612h4.0156734v-3.3469796h-4.0156734zm0 8.0620612h4.0156734v-3.3469796h-4.0156734z"/><text font-family="Roboto-Regular, Roboto" font-size="24" letter-spacing="-1"><tspan x="50" y="30">Mand Mobil</tspan> <tspan x="166.480469" y="30">e</tspan></text></g></svg>