<svg height="90" viewBox="0 0 180 90" width="180" xmlns="http://www.w3.org/2000/svg"><g fill="#ff7b81" fill-rule="evenodd" transform="translate(0 29)"><path d="m96.88.17777778c1.6133333.35111111 3.257778.24888889 4.897778.25333333 1.848889.02222222 3.057778 1.62666667 4.484444 2.56444445.017778.43555555.035556.87111111.057778 1.31111111-.688889.88888889-1.328889 1.81777777-1.964444 2.74666666.666666.14666667 1.333333.30222223 2 .45777778-.72.58222222-1.475556 1.12-2.275556 1.59111111-.337778 1.18666668-.608889 2.39111108-.871111 3.59555558-.342222-.0133334-1.022222-.04-1.364445-.0533334-.306666-.6844444-.613333-1.3644444-.915555-2.0488888.68.5377777 1.351111 1.0844444 2.035555 1.6177777.017778-1.0222222-.142222-2.04-.52-2.99555552.364445.20444444.724445.40888889 1.093334.61333333.004444-.31111111.013333-.93333333.017778-1.24444444.408888-.08 1.231111-.24444445 1.64-.32444445-.422223-.38666666-.848889-.76888889-1.271112-1.14666666.733334-1.16444445 1.502223-2.31555556 2.084445-3.56444445-1.097778-1.08888889-2.275556-2.27555555-3.813333-2.68444444-1.684445-.18222223-3.3911116.14666666-5.0800004-.09777778-.3422223.71555555-.6711112 1.44-.9955556 2.16888889.3022222.06666666.8977778.19111111 1.1955556.25333333-.0355556 1.36.36 2.66222222 1.5911111 3.4-.9288889.96444445-1.7066667 2.20444445-1.0133334 3.56888889-.2.2711111-.4.5377778-.6088889.8l.0533334-.5422222c-.5733334-.4088889-2.8666667-.2977778-2.1288889-1.4177778.5155555-.38666667 1.1022222-.06666667 1.6444444.04888889.3466667-.80888889.6977778-1.61777778 1.0533334-2.42222222-.76-1.17777778-1.0622223-2.65777778-2.2088889-3.55555556.2711111-1.00888889.6711111-1.98222222 1.1822222-2.89333333z"/><path d="m6.20444444.42666667c1.08444445-.08888889 2.17333334-.17777778 3.26222223-.25777778.12888889 1.31555555.25333333 2.63555555.37333333 3.95555555 3.4266667.07555556 6.8533333.15555556 10.2844444.21777778.3733334-1.30222222.76-2.60444444 1.1511112-3.90666666.9244444.20444444 1.8488888.41333333 2.7733333.63111111-.1644445 1.12888889-.3377778 2.25777777-.5111111 3.39111111 1.7911111.07555555 3.5777778.15111111 5.3688889.22666666-.0533334.92888889-.1066667 1.85333334-.1688889 2.78222223-1.9733334.00888889-3.9466667-.00888889-5.92-.01777778-.2888889 1.17333333-.5777778 2.35111111-.8666667 3.52000001-1.0577778-.1866667-2.1111111-.3822222-3.1644444-.5911111.1733333-.98666669.3466666-1.97333336.52-2.96444447-3.0711111-.03555555-6.1422223-.09333333-9.2133334-.19111111.0844445 1.22666667.1688889 2.45777778.2533334 3.68444448-1.02222226.1066666-2.04000003.2044444-3.05777781.2977777-.18666667-1.35999996-.36888889-2.7244444-.55555556-4.0844444-2.11111111-.09333333-4.22222222-.18222222-6.33333333-.26666667-.05333333-.93333333-.09777778-1.86666666-.13777778-2.8 2.06666667.00444445 4.13333334.02222223 6.2.03555556-.08888889-1.22222222-.17777778-2.44-.25777778-3.66222222z"/><path d="m88.4266667.39555556c1.0933333-.02222223 2.1866666-.02666667 3.28-.00888889.0133333.58222222.0266666 1.16888889.0444444 1.75111111 1.2622222.04444444 2.5244445.08444444 3.7866667.12444444-.0222222.36888889-.04.73777778-.0533334 1.10666667.56.52444444 1.0533334 1.11111111 1.48 1.74666667-1.7688888.08444444-3.5377777.04-5.3066666.00444444-.0088889.28888889-.0266667.86222222-.04 1.15111111 1.6888889.08888889 3.3733333.22666667 5.0533333.42222222-.0133333.67555556-.0222222 1.35555556-.04 2.03111111-.5022222-.22666666-1.0088889-.45333333-1.5111111-.67555555-.24.51111111-.4355556 1.03555555-.6266667 1.56888889-.9911111.01777778-1.9822222.03555555-2.9733333.05333333-.0488889.32-.1422222.96444449-.1911111 1.28444449-1.28-.1022223-3.0977778.3733333-3.5955556-1.24888893-1.8533333-.07555556-3.7066666-.12-5.5555555-.25777778.0355555-.98666667.08-1.97333333.1333333-2.95555556 1.9333333-.08 3.8666667-.13777777 5.8044445-.2.0088888-.33333333.0266666-.99111111.0355555-1.32-2.5244444-.06222222-5.0444444-.13333333-7.5644444-.27555555.0577777-1.00444445.1333333-2.00888889.2311111-3.00888889 2.5022222.09333333 5.0088889.19111111 7.5111111.29777778.0266667-.4.0755555-1.19111111.0977778-1.59111111z"/><path d="m132.435556 2.41777778c1.111111-.6 2.222222-1.41777778 3.546666-1.37777778 1.648889.06666667 3.288889.22666667 4.937778.24444444 1.08-.07111111 1.684444.92888889 2.355556 1.59555556-.515556.23555556-1.026667.46666667-1.537778.69777778.071111 1.96888889-.088889 3.98222222-1.168889 5.69333333.897778.04888889 1.795555.10666667 2.693333.16888889.031111.9244444.057778 1.8533333.08 2.7822222-1.413333.1155556-2.822222.1866667-4.235555.24.435555 4.84.8 9.6888889.8 14.5511111-1.675556.4622223-3.404445.6622223-5.137778.7377778-.084445-.8266667-.168889-1.6577778-.248889-2.4844444.577778-.1422223 1.155556-.2888889 1.737778-.4311111-.071111-1.8444445-.155556-3.6888889-.253334-5.5333334-2.502222 1.4355556-4.813333 3.1688889-7.373333 4.4977778-.52-.7466667-1.031111-1.4933333-1.537778-2.2444444 2.662223-2.2622223 5.688889-4.0311112 8.728889-5.7288889-.031111-1.12-.066666-2.24-.102222-3.3555556-2.613333-.0044444-5.226667-.0222222-7.831111-.2044444 0-.9911111.022222-1.9822223.062222-2.96888892 1.502222-.05333334 3.008889-.09777778 4.515556-.12444445-.431111-1.05777777-.804445-2.13777777-1.128889-3.23111111-.417778.08444445-1.253334.25777778-1.666667.34222222.075556-.96888888-.035555-2.00444444.377778-2.91111111.475555-.82666666 1.595555-.68 2.386667-.95555555zm1.955555-.48c-3.128889 1.26222222-2.995555 6.35555555-.04 7.75111111 1.431111.64888891 3.155556.52444441 4.577778-.10666667 2.168889-1.03555555 2.755555-4.08888889 1.586667-6.06666666-1.284445-1.92444445-4.066667-2.43111112-6.124445-1.57777778zm5.342222-.35111111c.497778.63555555 1.013334 1.25777777 1.533334 1.88444444.364444-.38666667.746666-.76444444 1.088889-1.16888889-.826667-.39111111-1.733334-.56-2.622223-.71555555zm-9.528889 4.32444444c1.408889-.42222222 1.564445-1.89777778 1.897778-3.09333333-1.537778.31555555-1.831111 1.75111111-1.897778 3.09333333z" fill-rule="nonzero"/><path d="m49.6933333 1.75555556c1.44-.67111112 3.0444445-.17777778 4.52.09333333 1.5333334-.47555556 3.1911111-.07555556 4.1111111 1.29777778-.4666666.37777777-.96.73333333-1.4311111 1.10666666-.0888889 1.48.0933334 3.07555556-.6311111 4.43555556-.5733333 1.09777778-1.7111111 1.69777781-2.7022222 2.35111111-.0177778.8177778-.0355556 1.6355556-.0488889 2.4533333 3.7511111.1688889 7.5022222.3644445 11.2444445.64-.08.9822223-.1644445 1.9644445-.2533334 2.9422223-3.68-.0088889-7.3644444-.08-11.04-.1822223-.0533333 3.96-.0533333 7.9244445-.1777778 11.8844445-1.0577777-.0444445-2.1155555-.0977778-3.1688888-.16-.3688889-3.92-.5244445-7.8577778-.4577778-11.7955556-3.5866667-.1688889-7.1777778-.3466666-10.7644445-.6044444.1244445-1.0177778.2533334-2.0355556.3911111-3.0533334 3.5022223.0177778 7 .08 10.5022223.1822223.04-.7555556.08-1.5066667.12-2.2622223-1.3377778-.6577777-2.4-1.70666662-3.0666667-3.03999996-.3466667.94222223-.7155556 1.87111112-1.0933333 2.79555556-1.6311111-.3066667-3.1911111-.90666667-4.6044445-1.77333333.3377778-1.06666667.68-2.12888889 1.0266667-3.19111111 1.6444444.44 3.1244444 1.29333333 4.7111111 1.89333333-.0666667-.33777778-.1955556-1.01777778-.2622222-1.35555556-.3777778.08-.76.12444445-1.1422222.12444445-1.0977778-.66666667-.6088889-2.33777778.1466666-3.09333334 1.3733334-.52444444 2.7466667-1.05333333 4.0711111-1.68888888zm-.2222222.64c-3.0044444 1.38222222-2.9333333 6.30666666-.0355555 7.76444444 1.3422222.6 2.9333333.5288889 4.3066666.0577778 2.7422222-.9777778 3.5155556-5.14666669 1.28-7.02222224-1.5022222-1.25777778-3.7644444-1.62222223-5.5511111-.8zm5.4444445-.33777778c.48.60444444.9644444 1.20888889 1.4488888 1.80888889.4533334-.35555556.9066667-.71111111 1.36-1.07111111-.9288888-.26666667-1.8666666-.51555556-2.8088888-.73777778zm-9.5866667 4.24c1.4355555-.34222222 1.6133333-1.81777778 1.9511111-3-1.52.26666666-1.8444444 1.68-1.9511111 3z" fill-rule="nonzero"/><path d="m102.857778 2.76444444c.835555-.23111111 1.186666 1.16.32 1.32444445-.826667.22666667-1.182222-1.17333333-.32-1.32444445z"/><path d="m157.906667 4.30666667c6.946666-.35555556 13.942222-1.64888889 20.888889-.58222223.826666 7.91555556 1.186666 15.89777776.782222 23.85333336-2.2.2133333-4.417778.2311111-6.622222.0888889-.053334-.7511111-.097778-1.4977778-.142223-2.2444445 1.28-.0844444 2.564445-.1688889 3.844445-.2622222-.017778-6.1066667-.253334-12.2133333-.702222-18.30666667-5.502223.01333334-11.004445.17777778-16.497778.43555556-.066667 1.52888889.057778 3.23111111-.928889 4.52444441-.684445 1.0266667-1.897778 1.4444445-2.968889 1.9288889.093333 2.1377778.2 4.28.177778 6.4222222.235555-.08.706666-.24.946666-.32.582223-.8 1.2-1.5733333 1.817778-2.3466666-.742222-.7288889-1.48-1.4622222-2.213333-2.2.586667-.7066667 1.182222-1.4133334 1.786667-2.1155556.84.7155556 1.68 1.4311111 2.52 2.1511111.808888-.8044444 1.622222-1.6 2.44-2.3911111.72.4933334 1.444444.9866667 2.164444 1.4888889-.773333.9955556-1.555556 1.9822222-2.351111 2.9555556.8.7511111 1.6 1.5022222 2.395555 2.2577777-.573333.7244445-1.155555 1.4444445-1.746666 2.1511112-.906667-.6888889-1.808889-1.3866667-2.706667-2.0844445-.951111.8666667-1.911111 1.72-2.897778 2.5511111-.506666-.6666666-1.013333-1.3333333-1.493333-2.0222222-.208889.2666667-.413333.5333333-.613333.8.048889 1.7333333.062222 3.4711111.071111 5.2044444-1.013334.0266667-2.022222.0488889-3.031111.0666667-.284445-4.2177778-.475556-8.4444444-.626667-12.6711111-1.773333-.9555556-2.768889-2.7333333-3.053333-4.68444444-.537778.12444444-1.075556.24444444-1.613334.36.017778-.84444445-.08-1.72.151111-2.54666667.217778-.91555556 1.293334-.95555556 2.004445-1.28 1.235555-.39111111 2.315555-1.21777778 3.617778-1.41777778 1.537777-.11111111 3.057777.32444445 4.6.23555556zm-4.875556.35111111c-2.902222.52444444-4.115555 4.29333333-2.533333 6.62666662 2.031111 3.2266667 8.164444 2.0755556 8.382222-1.93777773.631111-3.24444445-2.973333-5.50222223-5.848889-4.68888889zm4.502222-.01777778c.44.53777778.88 1.08 1.324445 1.61333333.537778-.20888889 1.071111-.41777777 1.608889-.63111111-.897778-.53333333-1.893334-.86666666-2.933334-.98222222zm-9.688889 4.03555556c.355556-.06666667 1.066667-.2 1.422223-.27111112.164444-.84444444.328889-1.69333333.471111-2.54666666-1.337778.36444444-1.697778 1.59555555-1.893334 2.81777778z" fill-rule="nonzero"/><path d="m117.595556 5.06222222c1.044444-.06666666 2.084444-.11111111 3.133333-.13333333.128889 1.51555555.231111 3.03555555.333333 4.55111111 1.315556.04888889 2.648889.01777778 3.951111.25333333.133334.90222227.12 1.81777777.155556 2.72888887-1.324445.12-2.648889.2044445-3.977778.2755556.048889.9066666.093333 1.8133333.137778 2.72 1.546667.6844444 3.093333 1.3688889 4.64 2.0622222-.395556.8666667-.795556 1.7333333-1.204445 2.5955556-1.12-.3644445-2.231111-.7466667-3.337777-1.1466667.031111 2.24.044444 4.4755555.035555 6.7111111-1.071111.0355556-2.133333.0622222-3.2.0844444-.137778-2.4222222-.262222-4.8444444-.368889-7.2711111-1.328889.8844445-2.688889 1.7244445-4.075555 2.5155556-.595556-.8311111-1.177778-1.6622222-1.751111-2.5022222 1.857777-1.48 3.777777-2.8755556 5.697777-4.2711111-.022222-.5244445-.044444-1.0488889-.066666-1.5733334-1.604445-.0888889-3.204445-.2-4.8-.3555555-.031111-.9066667-.048889-1.8133334-.057778-2.71555559 1.595556-.01333333 3.191111-.02222222 4.786667-.04-.013334-1.49333333-.026667-2.99111111-.031111-4.48888889z"/><path d="m138.32 4.98666667c.724444-.20444445.96.04888889.706667.76888889-.724445.20444444-.96-.05333334-.706667-.76888889z"/><path d="m53.4755556 5.47111111c.7288888-.2.9688888.05777778.7066666.76888889-.7288889.2-.9644444-.05333333-.7066666-.76888889z"/><path d="m133.866667 5.43111111c.702222-.24444444 1.048889.92444445.315555 1.08444445-.702222.24444444-1.044444-.92-.315555-1.08444445z"/><path d="m49.04 5.72888889c.8355556-.20888889 1.1466667 1.19111111.2977778 1.34666667-.8444445.22666666-1.1288889-1.17777778-.2977778-1.34666667z"/><path d="m57.3244444 7.91111111c1.5022223-.75111111 3.0355556-1.44888889 4.5911112-2.08888889.5155555 1 1.0044444 2.00888889 1.4755555 3.03111111-1.3866667.83555556-2.8666667 1.51111107-4.4044444 2.01333337-.5733334-.97333337-1.1244445-1.96000003-1.6622223-2.95555559z"/><path d="m134.817778 7.28444444c.853333-.56 1.928889-.48444444 2.902222-.64444444-.582222.39111111-1.262222.58666667-1.92.78666667.035556.42666666.071111.85333333.111111 1.27555555-.373333.03555556-1.12.10222222-1.493333.13777778.111111-.52.106666-1.09333333.4-1.55555556z" fill-rule="nonzero"/><path d="m50.24 7.53777778c1.0133333-.46222222 2.4222222-.53333334 3.2666667.30666666.0311111.44444445.0133333.88888889 0 1.33333334-1.0844445.07111111-2.2266667.51555555-3.2933334.18222222-.8933333-.26222222-.7511111-1.51111111.0266667-1.82222222zm1.1733333.15555555c-.3155555.46222223-.2133333.80444445.2977778 1.02666667.84-.00888889.4177778-1.49333333-.2977778-1.02666667z" fill-rule="nonzero"/><path d="m136.733333 8.6c.048889-.65777778 1.195556-.71111111 1.586667-.31111111-.04.66666667-1.213333.75555555-1.586667.31111111z"/><path d="m156.097778 8.01777778c.715555-.24444445.968889-.00444445.76.72444444-.72.24444445-.973334.00444445-.76-.72444444z"/><path d="m151.342222 8.52888889c.56-.63555556 1.662222.32888889.986667.92444444-.577778.62666667-1.653333-.31555555-.986667-.92444444z"/><path d="m152.2 11.8444444c-.133333-2.47999996 3.053333-2.53777773 4.368889-1.08-1.115556-.1911111-2.226667-.3777777-3.351111-.4488888-.128889.28-.391111.84-.52 1.1244444.573333-.0266667 1.146666-.0444444 1.724444-.0622222.693334-.0266667 1.382222-.0355556 2.075556-.0266667-1.324445.7244445-2.853334.5111111-4.297778.4933333z"/><path d="m98.3555556 11.2533333c.6177777-.44 1.5288888-.3244444 2.2088884-.0977777-.106666.7022222-1.9199996.6933333-2.2088884.0977777z"/><path d="m14.4888889 12.8133333c1.9422222-1.36 4.3511111-1.7288889 6.6133333-.9866666 1.6311111-.44 3.2888889.0311111 4.2577778 1.4666666-.5422222.2622223-1.0844444.52-1.6266667.7777778-.0044444 1.12-.0133333 2.2444445-.0311111 3.3688889 1.36-.1244444 2.72-.2444444 4.08-.36.0666667.9555556.1288889 1.9155556.1911111 2.8711111-2.5733333.4577778-5.1688889.7688889-7.7688889.9644445.2 1.76.3822223 3.52.5466667 5.28 1.7511111.0622222 3.4977778.1511111 5.2444445.2844444.0311111.8577778.0577777 1.7155556.08 2.5733333-2.7822223.1244445-5.5688889.0977778-8.3466667-.0888889-.3555556-2.6044444-.5955556-5.2222222-.8222222-7.84-1.9377778-.8622222-3.2-2.6088888-3.5111111-4.6977777-.5244445.1244444-1.0488889.2444444-1.5733334.3688889.0177778-.9644445-.16-2 .3022222-2.8888889.4044445-.9111111 1.5555556-.8177778 2.3644445-1.0933334zm2.5111111-.6755555c-3.0044444.8266666-3.7422222 5.0311111-1.6888889 7.16 2.4622222 2.6266666 7.9422222 1 7.8977778-2.8488889.3911111-3.2444445-3.4044445-5.3111111-6.2088889-4.3111111zm4.8622222-.1822222c.4355556.6088888.88 1.2133333 1.3333334 1.8133333.52-.2622222 1.04-.5288889 1.56-.7911111-.9288889-.4355556-1.8977778-.7777778-2.8933334-1.0222222zm-9.6711111 4.1288888c.3377778-.0977777 1.0133333-.2888888 1.3511111-.3822222.1777778-.8177778.3466667-1.64.5111111-2.4622222-1.3511111.3777778-1.6666666 1.6311111-1.8622222 2.8444444z" fill-rule="nonzero"/><path d="m77.3244444 11.7644444c6.6844445-.12 13.3688889-.4444444 20.0488889-.3422222.9955556 1 2.4977778.4 3.7199997.3422222.16 1.4888889 1.591111 1.5111112 2.657778 1.0311112-.035555.3866666-.106667 1.1644444-.142222 1.5511111-5.2044446.2088889-10.4133334.3422222-15.6177779.4755555-.6977778 1.0133334-1.4488889 1.9955556-2.2088889 2.96.9377778.2577778 1.8755556.5111111 2.8133334.7688889.8355555-.9511111 1.6755555-1.9066667 2.5111111-2.8577778.9422222.3911111 1.88.7866667 2.8177777 1.2-1.2666666 1.5866667-2.5733333 3.1377778-3.8666666 4.6977778 1.6844444.0844445 3.3688889.1288889 5.0533333.1511111-.0177778-.6133333-.0311111-1.2266666-.0444444-1.84.8444444-.0755555 1.6844444-.1555555 2.5333333-.2355555.4044444 1.5066666.7466667 3.0266666 1.0266667 4.5644444-4.5777778.68-9.4 1.0177778-13.8488889-.5111111.6088889-.8844444 1.2266666-1.76 1.8577778-2.6311111-1.8933334-.5777778-3.7511112-1.2622222-5.5333334-2.1244445.9955556-1.3733333 2.0222222-2.72 3.0533334-4.0622222-2.1911112.0311111-4.3866667.0711111-6.5777778.1022222-.0888889-1.08-.1733334-2.16-.2533334-3.24z"/><path d="m173.102222 12.2133333c.697778.52 1.395556 1.04 2.093334 1.5688889-.764445 1.24-1.546667 2.4622222-2.355556 3.6755556.684444.7377778 1.368889 1.4755555 2.048889 2.2222222-.582222.72-1.182222 1.4311111-1.791111 2.1288889-.755556-.6311111-1.497778-1.2666667-2.24-1.9022222-.857778 1-1.72 1.9911111-2.6 2.9688889-.648889-.5955556-1.293334-1.1955556-1.924445-1.8044445.777778-1.1822222 1.568889-2.3511111 2.364445-3.5244444-.688889-.7866667-1.364445-1.5822223-2.04-2.3822223.568889-.72 1.142222-1.4355555 1.724444-2.1511111.733334.7155556 1.462222 1.44 2.191111 2.16.848889-.9822222 1.688889-1.9688889 2.528889-2.96z"/><path d="m.07555556 18.68c3.39555555-1.4977778 6.80888888-2.96 10.24444444-4.3644444.4311111.8888888.8488889 1.7866666 1.2577778 2.6888888-3.28888891 1.8355556-6.7777778 3.2755556-10.3377778 4.5066667-.40444444-.9377778-.79555556-1.88-1.16444444-2.8311111z"/><path d="m20.5555556 15.2266667c.7688888-.2488889 1.12 1.04.3244444 1.2088889-.7688889.2488888-1.1155556-1.04-.3244444-1.2088889z"/><path d="m15.7066667 16c.72-.2488889.9688889-.0133333.7511111.7155556-.7244445.2533333-.9733334.0133333-.7511111-.7155556z"/><path d="m16.8311111 19.1422222c-.8977778-.7955555.3288889-2.1244444 1.2933333-1.7288889.0577778.48-.2666666.7555556-.9688888.8355556-.0311112.16-.0933334.48-.1244445.64.6044445.0666667 1.2133333.1333333 1.8222222.2044444.2933334-.6622222.0355556-2.1244444 1.1733334-1.72.3022222.5466667.3688889 1.1822223.5377777 1.7777778-1.2088888.08-2.6888888.8311111-3.7333333-.0088889z" fill-rule="nonzero"/><path d="m42.8888889 20.4222222c1.3955555-.28 2.7066667.2666667 3.9422222.8444445-1.4666667 1.9688889-2.2755555 4.7644444-4.7244444 5.7511111-2.0177778.8488889-4.2577778-1.4222222-3.5777778-3.4311111.3555555-.9111111 1.4488889-.8533334 2.2311111-1.0755556-.3288889.2711111-.9911111.8177778-1.32 1.0888889.3777778.4977778.7066667 1.1244444 1.4 1.2044444 1.24-.9377777 1.6222222-2.5111111 2.2177778-3.8622222.3955555.0888889 1.1866666.2622222 1.5777778.3511111-.4355556-.2177777-1.3066667-.6533333-1.7466667-.8711111z"/><path d="m4.53777778 21.6c.88-.1511111 1.76444444-.2977778 2.64444444-.4488889.72444445 2.6177778 1.25777778 5.2844445 1.56444445 7.9822222-.95555556.16-1.91555556.3111111-2.88.4533334-.59111111-2.6355556-1.03111111-5.3022223-1.32888889-7.9866667z"/><path d="m57.1288889 23.6888889c.3066667-.9422222.6177778-1.88.9377778-2.8177778 1.9155555.4577778 3.7644444 1.1422222 5.5066666 2.0577778-.3155555.8977778-.6444444 1.7955555-.9777777 2.6933333-1.9377778-.2711111-3.7911112-.9288889-5.4666667-1.9333333z"/><path d="m80.5288889 24.6933333c.9822222.3511111 1.96.7155556 2.9377778 1.0844445-.6222223 1.1511111-1.2577778 2.2933333-1.9155556 3.4266666-.9511111-.2666666-1.8933333-.5422222-2.8355555-.8266666.5333333-1.2622222 1.1422222-2.4888889 1.8133333-3.6844445z"/><path d="m101.417778 25.9288889c.244444-.9333333 1.16-1.6266667 2.106666-1.1422222 1.751112 1.0533333 1.506667 4.3777777-.613333 4.8488889-1.52.3733333-3.3466666.2222222-4.5155554-.9155556-.2666667-.92-.1511112-1.8977778-.1955556-2.84-.0533333 1-.1111111 2.0044444-.1644444 3.0044444-.7066667-.48-1.4088889-.9555555-2.1155556-1.4355555.4888889-.7644445.9822222-1.5288889 1.48-2.2888889 1.7377778.7155556 3.488889 2.4622222 5.475556 1.7111111.026666-.5422222-.008889-1.0844444-.026667-1.6266667-.36.1733334-1.071111.5111112-1.431111.6844445z"/><path d="m88.3866667 25.4577778c1.0488889-.0577778 2.1022222-.1111111 3.1555555-.1644445.6755556 1.9066667 1.1955556 3.8666667 1.5822222 5.8533334-1.8311111.1777777-3.6711111.1733333-5.5022222.0577777-.12-.68-.24-1.3511111-.3555555-2.0266666.7288889-.0622222 1.4622222-.12 2.1955555-.1777778-.3733333-1.1777778-.7333333-2.3555556-1.0755555-3.5422222z"/></g></svg>