<svg height="90" viewBox="0 0 180 90" width="180" xmlns="http://www.w3.org/2000/svg"><g fill="#6190e8" transform="translate(0 14)"><path d="m4.37142857 7.80857143c4.81714286-6.18 13.53428573-9.17142857 21.06000003-6.75428572 5.4428571 1.56 10.0714285 5.59714286 12.4628571 10.71428569 2.9571429 6.3685715 2.2542857 14.3142857-1.9457143 19.98-5.3914285 7.7657143-16.5942857 10.4485715-24.9428571 6.0771429-6.1457143-2.9914286-10.12285716-9.3085714-11.0057143-15.9857143v-3.3428571c.6-3.8314286 1.90285714-7.6457143 4.37142857-10.68857147zm12.42000003.55714286c-4.2085715 1.09714285-7.56000003 4.61142861-8.67428574 8.79428571-1.87714286 6.6 3.14571424 14.1857143 9.99428574 14.9057143 7.1314285 1.3885714 14.4-4.9971429 13.8942857-12.2485714.1885714-7.5514286-8.0228572-13.68000004-15.2142857-11.45142861z"/><path d="m59.4514286 1.27714286c10.0628571-3.72857143 22.14 2.67428571 25.0885714 12.90857144 2.3228571 6.9085714.18 14.8885714-4.9457143 19.9885714-6.6857143 6.7028572-13.3714286 13.4228572-20.1085714 20.0828572 8.6571428-.0685715 17.3142857-.0428572 25.9628571-.0171429-.0257143 2.4857143-.0428571 4.98-.0428571 7.4742857h-37.9714286c-.0257143-2.0142857-.06-4.0371428-.1114286-6.0514286 7.8771429-8.0485714 15.9-15.9685714 23.8628572-23.94 2.9571428-2.8114285 6.1457143-5.9571428 6.5571428-10.2514285.9771429-7.1057143-5.4685714-13.96285717-12.6-13.52571431-6.3857142.17142857-11.7257142 5.87142861-11.7085714 12.22285711-2.5885714 0-5.1771428 0-7.7657143-.0342857.2057143-8.3485714 5.6657143-16.39714284 13.7828572-18.85714284z"/><path d="m94.0371429 27.9257143c5.0228571-.3085714 10.0971431-.4028572 15.1114281.0685714l-.994285 1.1828572c-4.414286.2742857-8.8714289.2228571-13.2857146.0257142z"/><path d="m97.3628571 37.4571429c3.2399999-.9685715 6.0942859 3.7885714 3.6685719 6.1971428-1.3971433 2.2542857-5.1000004 1.7057143-6.0857147-.66-1.3028572-2.0742857.2828571-4.8257143 2.4171428-5.5371428zm-.1971428 1.2171428c-2.4857143 1.2085714-1.44 6 1.5 5.4857143 3.5142857-.6514286 1.8514287-7.3971429-1.5-5.4857143z"/><path d="m102.942857 37.4914286c2.468572-.4028572 5.16-.0428572 6.068572 2.6485714-1.234286 1.6885714-3.205715 2.0828571-5.177143 2.2028571.042857.6085715.12 1.8171429.162857 2.4257143l-1.114286.0942857c.094286-2.4514285.094286-4.9114285.06-7.3714285zm.805714.8314285c.085715.6771429.248572 2.04.334286 2.7257143 1.2.78 2.76.0342857 3.685714-.8657143-.394285-2.0057142-2.442857-1.8085714-4.02-1.86z"/><path d="m109.637143 37.4914286c1.911428.0771428 4.208571-.7885715 5.76.72-1.98.4628571-5.485714-.8228572-5.065714 2.4514285 1.457142.0342858 2.914285.0514286 4.38.06 0 .1971429.008571.5914286.017142.7885715-1.448571.0085714-2.897142.0257143-4.337142.06.085714.6.248571 1.8.334285 2.4 1.422857.1371428 2.854286.12 4.285715.1542857l-.008572.8914286c-1.834286-.0257143-3.651428-.0771429-5.477143-.1542858.042857-2.46.162857-4.9114285.111429-7.3714285z"/><path d="m116.725714 37.26c.308572.1714286.925715.5142857 1.234286.6857143 1.097143 1.92 2.228571 3.8142857 3.54 5.58-.008571-1.98-.085714-3.9685714-.145714-5.9485714l1.148571-.0342858c-.034286 2.6571429 0 5.3228572-.334286 7.9628572-1.928571-1.9371429-3.214285-4.38-4.885714-6.5142857-.077143 2.1257143-.017143 4.26-.171428 6.3857143-1.32-2.5285715-.437143-5.4171429-.385715-8.1171429z"/><path d="m131.614286 37.3628571c1.842857-.4371428 3.137143 1.3885715 4.26 2.4857143l-1.225715.3342857c.591429.1885715 1.774286.5571429 2.374286.7457143-.051428-.8657143-.154286-2.6057143-.205714-3.48 2.022857.06 4.722857-.6342857 5.897143 1.56 1.088571 1.2857143-1.037143 2.1257143-1.705715 2.9314286.814286 1.0285714 1.62 2.0742857 2.357143 3.1628571-.394285-.1285714-1.191428-.3942857-1.585714-.5228571-1.054286-1.3285714-1.98-3.0942857-3.917143-3.1457143-.094286 1.3285714-.094286 2.7085714-.677143 3.9428572-.3-1.5171429-.805714-2.9828572-1.662857-4.2771429.9 3.5571429-4.234286 5.4-6.111428 2.6742857-2.04-2.1085714-.557143-5.8542857 2.202857-6.4114286zm-.428572 1.0971429c-2.528571 1.4228571-1.671428 6.4371429 1.56 5.6571429 3.377143-1.0114286 1.877143-6.8142858-1.56-5.6571429zm6.711429-.0514286c-.085714.6171429-.257143 1.86-.334286 2.4771429 1.174286-.4371429 4.397143 1.0028571 3.994286-1.26.034286-2.1-2.442857-.9771429-3.66-1.2171429z"/><path d="m146.648571 37.5085714c1.825715-.0942857 3.651429-.1285714 5.477143-.1457143-.085714.2571429-.257143.7714286-.342857 1.0285715-1.962857.1028571-4.971428-.8142857-4.354286 2.3142857 1.397143.0085714 2.794286.0085714 4.191429 0 0 .2057143-.008571.6085714-.017143.8142857-1.405714.0085714-2.802857.0257143-4.2.06.068572.5828571.214286 1.74.282857 2.3142857 1.628572.36 3.574286-.2228571 4.928572.9685714-1.997143.1628572-4.011429.1028572-6.008572-.0428571.085715-2.4342857.085715-4.8771429.042857-7.3114286z"/><path d="m153.548571 37.2942857c.325715.1371429.977143.42 1.302858.5657143 1.045714 1.9028571 2.194285 3.7628571 3.608571 5.4171429-.034286-2.0571429-.111429-4.1142858-.025714-6.1628572 2.1 2.0828572.548571 5.4942857.848571 8.1171429-2.331428-1.3714286-3.24-4.14-4.894286-6.1542857-.18 2.1428571.025715 4.3628571-.66 6.4371428-.334285-2.7257143 0-5.4771428-.18-8.22z"/><path d="m167.074286 37.5085714c1.954285.0428572 4.225714-.7371428 5.871428.6857143-2.014285.4628572-5.417143-.7971428-5.254285 2.4342857 1.482857.06 2.982857.0857143 4.474285.1114286 0 .1885714.008572.5742857.008572.7628571-1.482857.0171429-2.965715.0514286-4.44.1114286-.454286 3.4885714 3.214285 2.1942857 5.331428 2.7085714-1.834285 1.1057143-4.02.5657143-6.034285.5057143 0-2.4342857.008571-4.8771428.042857-7.32z"/><path d="m174.094286 37.1571429c2.151428.0857142 4.242857.66 5.905714 2.1v3.8228571c-1.397143 1.9714286-3.805714 1.9885714-5.965714 2.04-.282857-2.6485714-.274286-5.3228571.06-7.9628571zm.574285 1.2771428c0 1.9285714-.008571 3.8571429-.008571 5.7857143 1.345714-.36 3.565714.2742857 4.028571-1.5685714 1.011429-1.4828572-.3-3.0514286-1.071428-4.2857143-.737143.0171428-2.211429.0514286-2.948572.0685714z"/><path d="m144.36 36.9942857c1.44 2.4942857.582857 5.5628572.608571 8.2971429-1.731428-2.3057143-.411428-5.6314286-.608571-8.2971429z"/><path d="m159.711429 37.7142857c2.28-.2142857 4.825714-.8228571 6.934285.3857143-.771428.0942857-2.322857.3-3.102857.3942857-.051428 2.3228572.137143 4.68-.325714 6.9685714-.711429-2.2028571-.437143-4.5428571-.334286-6.8142857-1.071428-.2742857-2.125714-.5828571-3.171428-.9342857z"/><path d="m115.937143 53.1942857c1.294286-.2314286 2.614286-.2142857 3.925714-.2657143.017143.72.051429 2.16.068572 2.88.514285.1114286 1.542857.3257143 2.057142.4371429-.008571 1.8171428-.025714 3.6428571-.042857 5.4685714h-8.262857c-.051428-1.8171428-.094286-3.6257143-.12-5.4428571.454286-.1114286 1.371429-.3342857 1.825714-.4457143.137143-.6514286.411429-1.9714286.548572-2.6314286zm.797143.66c-.042857.7114286-.111429 2.1342857-.154286 2.8457143-.462857.0771429-1.388571.2314286-1.851429.3171429-.008571.8314285-.025714 2.4857142-.042857 3.3171428 2.1.0085714 4.2.0085714 6.3 0-.008571-.8314286-.025714-2.4771428-.034285-3.3085714-.48-.0771429-1.44-.2314286-1.92-.3085714-.06-.9514286-.128572-1.9028572-.188572-2.8542858-.522857 0-1.585714 0-2.108571-.0085714z"/><path d="m132.78 53.9314286c1.414286-.24 3.094286.0771428 4.114286-1.1828572 1.525714 1.3114286 4.697143.3685715 4.74 3.1114286-.445715-.3428571-1.345715-1.02-1.8-1.3628571-2.588572-.0942858-5.391429-.6171429-7.551429 1.1742857.12-.4371429.368572-1.3028572.497143-1.74z"/><path d="m151.251429 53.0828571c2.005714-.4028571 3.685714.6 4.8 2.22.505714-.9857142 1.02-1.9714285 1.56-2.9485714 1.165714 1.2942857 2.374285 2.5371429 3.591428 3.78-2.091428.0342857-4.191428.0257143-6.282857-.0257143-.025714 1.5257143-.102857 3.0514286-.137143 4.5771429 1.5-.1971429 3-.4028572 4.491429-.6257143-.385715-.2657143-1.157143-.7971429-1.542857-1.0628571 1.011428-.4971429 1.997142-1.0542858 2.948571-1.6628572-.342857.5657143-1.02 1.6885714-1.354286 2.2457143.205715.42.608572 1.2685714.805715 1.6885714.231428.1114286.694285.3342857.925714.4457143h-5.888572c-.042857 0-.137142-.0085714-.18-.0085714l.077143.0085714h-3.18c.66-.4885714 1.988572-1.4742857 2.648572-1.9628571-.908572-.0428572-2.725715-.1285715-3.634286-.1714286.891429-.2828571 2.674286-.8485714 3.565714-1.1314286-2.1-.6942857-3.06-2.2285714-2.88-4.6028571.428572.8657143 1.294286 2.6057143 1.731429 3.4714286.548571-.8914286 1.08-1.8 1.628571-2.7-.925714-.3857143-2.768571-1.1571429-3.694285-1.5342858z"/><path d="m175.568571 52.74c.24.2057143.72.6171429.96.8228571 1.157143.1028572 2.314286.2142858 3.471429.3685715v1.5514285c-2.228571-1.2257142-4.782857-1.3114285-7.26-1.2685714-.428571.48-1.285714 1.44-1.714286 1.92-.917143-2.9142857 2.837143-2.4257143 4.542857-3.3942857z"/><path d="m94.5 53.3228571c1.1057143-.0857142 2.2114286-.18 3.3171429-.2828571.0171428 1.2428571.0257142 2.4857143.0257142 3.7285714.4028572.0342857 1.2171429.1114286 1.62.1457143.0428572-1.2514286.0857143-2.4942857.1371429-3.7457143.985714.0171429 1.98.0428572 2.974286.0685715-.017143 2.8285714-.017143 5.6485714-.025715 8.4771428h-.925714c-1.7742856-1.4571428-4.3114284-1.4485714-6.0942856 0h-.9342857c-.06-2.7942857-.06-5.5885714-.0942857-8.3914286zm1.1228571.2314286c-.1885714 2.2114286-.1628571 4.4314286-.1714285 6.6514286 2.1.0257143 4.2085714.0257143 6.3171424.0085714-.008571-2.2371428.017143-4.4828571-.18-6.7114286-1.8599996.7714286-1.251428 3.0257143-1.6971424 4.5771429-.9-.06-1.7914286-.1542857-2.6828572-.2657143-.5228571-1.44.2657143-3.5657143-1.5857143-4.26z"/><path d="m0 54.24c13.2428571-.0514286 26.4857143-.0085714 39.7285714-.0257143-.0085714 2.4942857-.0085714 4.9971429-.0085714 7.5h-39.72z"/><path d="m137.348571 55.2085714 1.294286.12c-.128571.6685715-.385714 2.0057143-.505714 2.6742857 1.302857.1371429 2.614286.3 3.9.5485715-1.397143.3685714-2.802857.7114285-4.208572 1.0285714 1.405715.5742857 2.794286 1.2428571 4.037143 2.1342857h-2.065714c-.84-1.5514286-3.891429-2.4171428-4.062857 0h-3.634286c1.594286-.7628571 3.145714-1.6371428 4.551429-2.7257143-1.2.0257143-3.6.0942857-4.8.12.642857-.2828571 1.928571-.8485714 2.571428-1.1314285-.24-.4885715-.702857-1.4485715-.934285-1.9285715 1.242857.8914286 2.46 1.8085715 3.711428 2.7.034286-.8828571.102857-2.6571428.145714-3.54z"/><path d="m173.048571 56.2285714c.462858-.1457143 1.388572-.4457143 1.851429-.5914285-.025714.9-.505714 1.6285714-1.431429 2.1857142-1.26 1.0628572-1.217142-1.1571428-.42-1.5942857z"/><path d="m174.368571 58.0114286c1.5-.18 2.331429-1.3714286 2.914286-2.6057143.368572.4457143 1.114286 1.3371428 1.482857 1.7828571.111429.7714286.231429 1.5342857.334286 2.3057143-1.277143.1628572-2.52.4371429-3.745714.8142857 1.542857.1542857 3.094285.3 4.645714.42v.9857143h-9.651429c.394286-.2914286 1.191429-.8828571 1.594286-1.1828571.711429.0342857 2.142857.1028571 2.862857.1457143l-.017143-.6771429c-1.208571-.1457143-2.417142-.3-3.625714-.4714286.934286-.06 2.794286-.1885714 3.72-.2485714zm2.494286.3171428-.18.6771429c1.611429 1.2428571 1.842857-1.8514286.18-.6771429z"/></g></svg>