<svg height="90" viewBox="0 0 180 90" width="180" xmlns="http://www.w3.org/2000/svg"><g fill="none" fill-rule="evenodd"><path d="m7.11767578 31.9140625h2.79736328v8.2924805c0 1.217454-.39981696 2.1831019-1.19946289 2.8969726-.79964592.7138708-1.79988006 1.0708008-3.00073242 1.0708008-1.31153 0-2.34773383-.3154265-3.10864258-.9462891-.76090875-.6308625-1.12752292-1.5633076-1.09985351-2.7973632l.01660156-.0498047h2.73925781c0 .5865914.13557807 1.0057767.40673828 1.2575683.27116021.2517917.61978954.3776856 1.04589844.3776856.38183785 0 .71109888-.1577133.98779297-.4731445.27669409-.3154313.41503906-.7609021.41503906-1.3364258zm14.60937502 0v7.9189453c0 1.3779366-.4579219 2.4459598-1.3737793 3.2041016-.9158575.7581418-2.1153084 1.137207-3.5983887 1.137207-1.499682 0-2.708817-.3790652-3.6274414-1.137207s-1.3779297-1.826165-1.3779297-3.2041016v-7.9189453h2.8139649v7.9189453c0 .7415402.190916 1.2907697.5727539 1.6477051.3818378.3569354.9213832.5354004 1.6186523.5354004.6917352 0 1.2243634-.1770816 1.5979004-.53125.373537-.3541685.5603027-.9047814.5603027-1.6518555v-7.9189453zm8.2592773 8.8818359c0-.4261089-.1411118-.7553699-.4233398-.9877929-.282228-.2324231-.7885706-.4786771-1.519043-.7387696-1.5273514-.4814477-2.6590132-.9974744-3.3950195-1.5480957-.7360063-.5506212-1.1040039-1.3461048-1.1040039-2.3864746 0-1.0127004.4385535-1.8317026 1.3156738-2.4570312.8771203-.6253287 1.9907973-.9379883 3.3410645-.9379883 1.3391994 0 2.436275.344479 3.2912597 1.0334473.8549848.6889682 1.2686362 1.5757595 1.2409668 2.6604004l-.0166015.0498046h-2.7226563c0-.4814477-.1632471-.8729639-.4897461-1.1745605s-.7775036-.4523926-1.3530273-.4523926c-.564456 0-1.0071599.1245105-1.328125.3735352-.3209652.2490247-.4814453.5561505-.4814453.9213867 0 .3541684.1618636.6377756.4855957.8508301.323732.2130544.9310665.4800602 1.8220214.8010254 1.3724027.4095072 2.4058397.9130829 3.1003418 1.5107421.6945022.5976593 1.0417481 1.4194284 1.0417481 2.4653321 0 1.0625053-.4136515 1.8939586-1.2409668 2.4943847-.8273153.6004262-1.924391.9006348-3.2912598.9006348-1.3724027 0-2.5594025-.344479-3.5610351-1.0334473-1.0016326-.6889682-1.4886069-1.6809017-1.4609375-2.97583l.0166015-.0498047h2.7309571c0 .6972691.1881491 1.195311.5644531 1.4941406s.9462852.4482422 1.7099609.4482422c.5810576 0 1.0140774-.1162098 1.2990723-.3486328.2849949-.2324231.4274902-.536782.4274902-.913086zm12.75-6.7236328h-3.1875v9.9277344h-2.8139648v-9.9277344h-3.1625977v-2.1582031h9.1640625zm50.0703125 0h-3.1875v9.9277344h-2.8139648v-9.9277344h-3.1625977v-2.1582031h9.1640625zm8.6909184 4.7563477h-4.7397465v3.0131836h5.5864255v2.1582031h-8.4003903v-12.0859375h8.4169923v2.1582031h-5.6030275v2.5981446h4.7397465zm5.802246-6.9145508 2.706054 8.4584961h.049805l2.739258-8.4584961h3.702148v12.0859375h-2.813965v-2.996582l.265625-5.5200196-.049804-.0083007-2.913574 8.5249023h-1.892579l-2.880371-8.4501953-.049804.0083008.265625 5.4453125v2.996582h-2.813965v-12.0859375zm13.903808 7.9438477v4.1420898h-2.813965v-12.0859375h4.905762c1.433276 0 2.570471.3666142 3.411621 1.0998535.84115.7332394 1.261719 1.69197 1.261719 2.8762207 0 1.1897846-.420569 2.1485153-1.261719 2.8762207-.84115.7277055-1.978345 1.0915528-3.411621 1.0915528zm0-2.1582032h2.091797c.608727 0 1.072183-.1673974 1.390381-.5021972.318198-.3347999.477295-.7650527.477295-1.2907715 0-.5367866-.159097-.9767236-.477295-1.3198242-.318198-.3431007-.781654-.5146485-1.390381-.5146485h-2.091797zm11.15625 4.1420899h5.20459v2.1582031h-8.018555v-12.0859375h2.813965zm12.974121-.190918h-3.810058l-.680664 2.3491211h-2.822266l3.901367-12.0859375h3.013184l3.909668 12.0859375h-2.822266zm-3.1875-2.1582031h2.564942l-1.261719-4.324707h-.049805zm15.248536-5.4204102h-3.1875v9.9277344h-2.813965v-9.9277344h-3.162598v-2.1582031h9.164063zm8.690918 4.7563477h-4.739747v3.0131836h5.586426v2.1582031h-8.40039v-12.0859375h8.416992v2.1582031h-5.603028v2.5981446h4.739747zm8.533203 1.9672851c0-.4261089-.141112-.7553699-.42334-.9877929-.282228-.2324231-.788571-.4786771-1.519043-.7387696-1.527352-.4814477-2.659013-.9974744-3.39502-1.5480957-.736006-.5506212-1.104004-1.3461048-1.104004-2.3864746 0-1.0127004.438554-1.8317026 1.315674-2.4570312.87712-.6253287 1.990797-.9379883 3.341065-.9379883 1.339199 0 2.436275.344479 3.291259 1.0334473.854985.6889682 1.268637 1.5757595 1.240967 2.6604004l-.016601.0498046h-2.722657c0-.4814477-.163247-.8729639-.489746-1.1745605s-.777503-.4523926-1.353027-.4523926c-.564456 0-1.00716.1245105-1.328125.3735352s-.481445.5561505-.481445.9213867c0 .3541684.161863.6377756.485595.8508301.323732.2130544.931067.4800602 1.822022.8010254 1.372403.4095072 2.405839.9130829 3.100342 1.5107421.694502.5976593 1.041748 1.4194284 1.041748 2.4653321 0 1.0625053-.413652 1.8939586-1.240967 2.4943847-.827315.6004262-1.924391.9006348-3.29126.9006348-1.372403 0-2.559402-.344479-3.561035-1.0334473-1.001633-.6889682-1.488607-1.6809017-1.460938-2.97583l.016602-.0498047h2.730957c0 .6972691.188149 1.195311.564453 1.4941406s.946285.4482422 1.709961.4482422c.581058 0 1.014077-.1162098 1.299072-.3486328.284995-.2324231.427491-.536782.427491-.913086z" fill="#263240"/><path d="m51.5268555 39.1357422h-4.8393555v4.8642578h-2.8139648v-12.0859375h8.5v2.1582031h-5.6860352v2.9052735h4.8393555zm4.930664.2324219v4.6318359h-2.8139648v-12.0859375h4.6484375c1.4000721 0 2.5095988.3237272 3.3286133.9711914s1.2285156 1.532872 1.2285156 2.65625c0 .6253287-.1646305 1.1621071-.4938965 1.6103516-.329266.4482444-.8148568.8134751-1.4567871 1.0957031.7415402.2102875 1.2741683.5603003 1.5979004 1.0500488.3237321.4897486.4855957 1.0998499.4855957 1.8303223v.7636719c0 .3154312.0470373.6751282.1411133 1.0791015.094076.4039734.257323.6917309.4897461.8632813v.1660156h-2.8886719c-.2213553-.1715503-.3666175-.4759093-.435791-.9130859-.0691735-.4371767-.1037598-.841144-.1037598-1.2119141v-.7304688c0-.5755237-.1521795-1.0154607-.456543-1.3198242s-.7498343-.4565429-1.3364257-.4565429zm0-2.1582032h1.8510743c.5644559 0 .9960922-.1286608 1.2949218-.3859863s.4482422-.6267066.4482422-1.1081543c0-.4925155-.1535629-.8895655-.4606933-1.1911621-.3071305-.3015966-.7401502-.4523926-1.2990723-.4523926h-1.8344727zm15.9624024 1.6186524h-4.7397461v3.0131836h5.5864258v2.1582031h-8.4003907v-12.0859375h8.4169922v2.1582031h-5.6030273v2.5981446h4.7397461zm9.6704101 0h-4.7397461v3.0131836h5.5864258v2.1582031h-8.4003906v-12.0859375h8.4169922v2.1582031h-5.6030274v2.5981446h4.7397461z" fill="#fe9143"/><path d="m31.9707031 57.6699219h-3.4570312v3.3300781h-.5810547v-7.109375h4.5361328v.4980469h-3.9550781v2.7783203h3.4570312zm2.2949219.1171875v3.2128906h-.5810547v-7.1044922h2.4072266c.7617225 0 1.3460266.1668278 1.7529297.5004883.406903.3336605.6103515.8211231.6103515 1.4624023 0 .3776061-.1090484.7153306-.3271484 1.0131836-.2181001.2978531-.5257142.5151361-.9228516.6518555.4394553.1106776.7560212.3084296.9497071.5932617.1936858.2848322.2905273.6420877.2905273 1.0717774v.6689453c0 .2213552.0260414.419921.078125.5957031s.1383458.3190099.2587891.4296875v.1171875h-.5957032c-.1204433-.1171881-.2050778-.2815745-.2539062-.4931641s-.0732422-.4313139-.0732422-.6591797v-.649414c0-.4362001-.1407864-.7804349-.4223633-1.0327149-.2815769-.2522799-.6746394-.3784179-1.1791992-.3784179zm0-.4980469h1.7529297c.6412792 0 1.1100245-.1293932 1.40625-.3881836.2962254-.2587904.4443359-.607908.4443359-1.0473633 0-.4687523-.1472967-.829263-.4418945-1.0815429-.2945978-.25228-.7397431-.378418-1.3354492-.378418h-1.8261719zm10.0195312.2685547h-3.4228515v2.9492187h3.9208984v.4931641h-4.5019531v-7.109375h4.4775391v.4980469h-3.8964844v2.6708984h3.4228515zm5.7617188 0h-3.4228516v2.9492187h3.9208985v.4931641h-4.5019531v-7.109375h4.477539v.4980469h-3.8964844v2.6708984h3.4228516zm9.0869141 1.2207031.0097656.0292969c-.0618493.7128942-.315753 1.2735982-.7617188 1.6821289-.4459657.4085307-1.0432905.612793-1.7919921.612793-.7910196 0-1.4290341-.2856417-1.9140626-.8569336-.4850284-.571292-.727539-1.3110306-.727539-2.2192383v-1.1572266c0-.9049524.2425106-1.6446911.727539-2.2192383.4850285-.5745471 1.123043-.8618164 1.9140626-.8618164.7552121 0 1.3541644.2001933 1.796875.600586.4427105.4003926.6949866.963538.7568359 1.6894531l-.0097656.0292969h-.546875c-.0781254-.5891957-.2807601-1.0400375-.6079102-1.3525391s-.7901988-.46875-1.3891601-.46875c-.621748 0-1.1206036.240883-1.4965821.7226563-.3759784.4817732-.5639648 1.098629-.5639648 1.8505859v1.1669922c0 .7617225.1879864 1.3826473.5639648 1.862793.3759785.4801456.8748341.7202148 1.4965821.7202148.5989613 0 1.0628238-.1529933 1.3916015-.4589844s.5305986-.7633433.6054688-1.3720703zm5.5810547.4785156c0-.3873717-.1448554-.7039375-.4345704-.949707s-.7942672-.4630524-1.5136718-.6518555c-.7779987-.1953134-1.3671855-.4492171-1.7675782-.7617187-.4003926-.3125016-.6005859-.7340468-.6005859-1.2646485 0-.5436225.2237933-.9863264.6713867-1.328125.4475934-.3417985 1.0229457-.5126953 1.7260742-.5126953.7324256 0 1.32324.2034485 1.772461.6103516s.6673177.9033174.6542968 1.4892578l-.0146484.0292969h-.5371094c0-.4752628-.1684553-.8658839-.5053711-1.171875-.3369157-.3059911-.7934541-.4589844-1.3696289-.4589844-.5696643 0-1.0148096.1269519-1.3354492.3808594s-.480957.5696596-.480957.9472656c0 .3580747.1481105.6567371.4443359.8959961.2962255.239259.8072881.4500316 1.5332031.6323242.7649778.1953135 1.3468405.4589827 1.7456055.7910157.398765.3320329.5981445.769854.5981445 1.3134765 0 .5664091-.2319312 1.0172509-.6958007 1.3525391-.4638695.3352881-1.0554977.5029297-1.7749024.5029297-.7096389 0-1.3289361-.1782209-1.8579101-.534668s-.7853191-.8764614-.769043-1.5600586l.0097656-.0292969h.5371094c0 .5533882.2067037.9635404.6201172 1.2304688s.9000623.4003906 1.4599609.4003906c.5631539 0 1.0180647-.1236967 1.3647461-.3710938.3466814-.247397.5200196-.5745422.5200196-.9814453zm6.0107421 0c0-.3873717-.1448553-.7039375-.4345703-.949707s-.7942672-.4630524-1.5136718-.6518555c-.7779987-.1953134-1.3671855-.4492171-1.7675782-.7617187-.4003926-.3125016-.6005859-.7340468-.6005859-1.2646485 0-.5436225.2237933-.9863264.6713867-1.328125.4475934-.3417985 1.0229457-.5126953 1.7260742-.5126953.7324256 0 1.32324.2034485 1.772461.6103516s.6673177.9033174.6542968 1.4892578l-.0146484.0292969h-.5371094c0-.4752628-.1684553-.8658839-.5053711-1.171875-.3369157-.3059911-.7934541-.4589844-1.3696289-.4589844-.5696643 0-1.0148096.1269519-1.3354492.3808594s-.480957.5696596-.480957.9472656c0 .3580747.1481105.6567371.4443359.8959961.2962255.239259.807288.4500316 1.5332031.6323242.7649778.1953135 1.3468405.4589827 1.7456055.7910157.398765.3320329.5981445.769854.5981445 1.3134765 0 .5664091-.2319312 1.0172509-.6958007 1.3525391-.4638696.3352881-1.0554977.5029297-1.7749024.5029297-.709639 0-1.3289361-.1782209-1.8579101-.534668s-.7853191-.8764614-.769043-1.5600586l.0097656-.0292969h.5371094c0 .5533882.2067036.9635404.6201172 1.2304688.4134135.2669284.9000623.4003906 1.4599609.4003906.5631539 0 1.0180647-.1236967 1.3647461-.3710938.3466814-.247397.5200195-.5745422.5200195-.9814453zm5.6152344-.2685547.2148438 1.0888672.0292968.0048828.2685547-1.09375 1.5039063-5.0976562h.5517578l1.5039062 5.0976562.2587891 1.0986329.0292969-.0048829.2294922-1.09375 1.2841797-5.0976562h.5957031l-1.8261719 7.109375h-.5517578l-1.5966797-5.4541016-.1855469-.7470703h-.0292968l-.1806641.7470703-1.6113281 5.4541016h-.5566407l-1.8261718-7.109375h.6005859zm11.71875-1.430664h-3.4228515v2.9492187h3.9208984v.4931641h-4.5019531v-7.109375h4.477539v.4980469h-3.8964843v2.6708984h3.4228515zm1.7578125 3.4423828v-7.109375h2.0751953c.738936 0 1.3142883.1554346 1.7260742.4663086.411786.3108739.6176758.7788055.6176758 1.4038086 0 .3645851-.1033518.6819648-.3100586.9521484-.2067067.2701837-.4874656.4573563-.8422851.5615235.4329448.0781254.7845038.2815738 1.0546875.6103515.2701836.3287777.4052734.7080057.4052734 1.1376953 0 .6347688-.2058899 1.1230452-.6176758 1.4648438s-.9627244.5126953-1.652832.5126953zm.5810547-3.4277344v2.9345703h1.875c.5240912 0 .9358709-.1293932 1.2353516-.3881836.2994806-.2587903.4492187-.6209286.4492187-1.0864257 0-.4264345-.1359036-.7763659-.4077148-1.0498047-.2718113-.2734389-.6665013-.4101563-1.1840821-.4101563zm0-.493164h1.6357422c.5143255 0 .9122707-.1131174 1.1938476-.3393555.281577-.2262381.4223633-.5590798.4223633-.9985352 0-.449221-.1497381-.7869454-.4492187-1.0131836-.2994807-.2262381-.7356742-.3393554-1.3085938-.3393554h-1.4941406zm12.8125005-2.6904297h-2.44629v6.6113281h-.585937v-6.6113281h-2.4462891v-.4980469h5.4785161zm5.161132 3.1689453h-3.422851v2.9492187h3.920898v.4931641h-4.501953v-7.109375h4.477539v.4980469h-3.896484v2.6708984h3.422851zm2.524414-3.6669922 2.612305 6.2597656h.029297l2.62207-6.2597656h.771485v7.109375h-.581055v-3.1396484l.048828-3.1103516-.029297-.0097656-2.641601 6.2597656h-.405274l-2.636719-6.2304688-.029296.0048829.053711 3.0859375v3.1396484h-.581055v-7.109375zm8.481446 4.1552734v2.9541016h-.581055v-7.109375h2.446289c.745446 0 1.322426.189614 1.730957.5688477.408531.3792336.612793.8813445.612793 1.5063476 0 .6315136-.204262 1.1360658-.612793 1.5136719-.408531.377606-.985511.5664062-1.730957.5664062zm0-.4980468h1.865234c.58594 0 1.026203-.1489243 1.320801-.4467774.294598-.297853.441894-.673012.441894-1.1254883 0-.4557314-.146483-.8341456-.439453-1.1352539-.29297-.3011082-.734046-.4516601-1.323242-.4516601h-1.865234zm6.191406 2.9589843h3.515625v.4931641h-4.101563v-7.109375h.585938zm8.59375-1.4892578h-3.256836l-.732422 1.9824219h-.605469l2.700196-7.109375h.551757l2.680665 7.109375h-.605469zm-3.061524-.5224609h2.871094l-1.416015-3.8476563h-.029297zm9.624024-4.1064453h-2.446289v6.6113281h-.585938v-6.6113281h-2.446289v-.4980469h5.478516zm5.161133 3.1689453h-3.422852v2.9492187h3.920899v.4931641h-4.501954v-7.109375h4.47754v.4980469h-3.896485v2.6708984h3.422852zm5.825195 1.6992187c0-.3873717-.144855-.7039375-.43457-.949707s-.794267-.4630524-1.513672-.6518555c-.777999-.1953134-1.367186-.4492171-1.767578-.7617187-.400393-.3125016-.600586-.7340468-.600586-1.2646485 0-.5436225.223793-.9863264.671387-1.328125.447593-.3417985 1.022945-.5126953 1.726074-.5126953.732425 0 1.32324.2034485 1.772461.6103516s.667317.9033174.654297 1.4892578l-.014649.0292969h-.537109c0-.4752628-.168456-.8658839-.505371-1.171875-.336916-.3059911-.793454-.4589844-1.369629-.4589844-.569665 0-1.01481.1269519-1.335449.3808594-.32064.2539075-.480958.5696596-.480958.9472656 0 .3580747.148111.6567371.444336.8959961.296226.239259.807288.4500316 1.533204.6323242.764977.1953135 1.34684.4589827 1.745605.7910157.398765.3320329.598145.769854.598145 1.3134765 0 .5664091-.231932 1.0172509-.695801 1.3525391-.46387.3352881-1.055498.5029297-1.774903.5029297-.709639 0-1.328936-.1782209-1.85791-.534668s-.785319-.8764614-.769043-1.5600586l.009766-.0292969h.537109c0 .5533882.206704.9635404.620118 1.2304688.413413.2669284.900062.4003906 1.45996.4003906.563154 0 1.018065-.1236967 1.364747-.3710938.346681-.247397.520019-.5745422.520019-.9814453z" fill="#9b9b9b"/></g></svg>