<svg height="90" viewBox="0 0 180 90" width="180" xmlns="http://www.w3.org/2000/svg"><g fill="#3936df" transform="translate(0 33)"><path d="m0 0 9.75649297 9.453861 9.66843333-9.453861 9.6684332 9.453861 9.756493-9.453861v18.8223938h-38.8498525zm0 20.0772202h38.8498525v4.182754h-38.8498525z"/><path d="m47.6481081 6.26378378h1.9443243v7.92000002c0 1.1416216.2497298 1.98.7848649 2.532973.5351351.5529729 1.3735135.8383783 2.532973.8383783 1.1416216 0 1.98-.2854054 2.5151351-.8383783.5172973-.552973.7848649-1.3913514.7848649-2.532973v-7.92000002h1.9443243v7.88432432c0 1.6589189-.4637838 2.9254054-1.3735135 3.7994595-.9097297.8562162-2.1940541 1.3021621-3.8708108 1.3021621-1.6945946 0-2.9789189-.4281081-3.8708108-1.2843243-.9275676-.8918919-1.3913514-2.1583784-1.3913514-3.8172973zm13.0394595 0h1.9264865v12.73621622h-1.9264865zm14.8589189-.24972973c1.4805405 0 2.64.30324325 3.4783784.94540541.8918919.66 1.3913513 1.67675676 1.5162162 3.06810814h-1.9264865c-.1783784-.82054057-.4994595-1.42702706-.9989189-1.78378382-.4994595-.37459459-1.212973-.55297297-2.1762162-.55297297-.8383784 0-1.4805406.12486487-1.9264865.3745946-.552973.2854054-.8205406.74918918-.8205406 1.39135135 0 .57081084.3032433 1.01675674.9454054 1.35567564.2854054.1605406 1.0167568.4281081 2.2118919.7848649 1.7124325.5351351 2.8362162.9454054 3.3356757 1.2486486 1.0881081.66 1.6410811 1.5697298 1.6410811 2.7470271 0 1.1416216-.445946 2.0335135-1.3378379 2.6935135-.8918918.6421621-2.1405405.9632432-3.7459459.9632432-1.5518919 0-2.7648649-.3210811-3.6389189-.9275675-1.0524324-.7491892-1.6232433-1.9264865-1.7302703-3.5318919h1.9264865c.1427027.9989189.4994595 1.7302702 1.0702703 2.1583783.5172973.3924325 1.3021621.5886487 2.3724324.5886487.9632432 0 1.7302703-.1783784 2.3010811-.4994595.5708108-.321081.8562162-.767027.8562162-1.3378378 0-.7135135-.4102703-1.2664865-1.212973-1.6767568-.2854054-.1427027-1.1237838-.4281081-2.5329729-.8562162-1.5697298-.4994594-2.532973-.8383784-2.9254055-1.0524324-.981081-.5886487-1.4627027-1.4448649-1.4627027-2.55081082 0-1.12378378.4637838-1.99783783 1.4091892-2.64.8918919-.60648648 2.0156757-.90972973 3.3713514-.90972973zm9.7037838.78486487v2.97891892h2.1048648v1.56972976h-2.1048648v5.3513513c0 .2497297.0535135.4281081.1605405.552973.107027.107027.2675676.1783784.4994595.1783784h1.2129729v1.5697297h-1.5162162c-.7848648 0-1.3735135-.2140541-1.7302702-.6243243-.3567568-.3924325-.5172973-.9454054-.5172973-1.6767568v-5.3513513h-1.7124325v-1.56972976h1.7124325v-2.19405406zm7.8664865 2.72918919c1.3913513 0 2.5151351.46378378 3.3535135 1.39135139.8205405.9097297 1.2486486 2.0691891 1.2486486 3.4783783 0 1.3913514-.4102703 2.5508108-1.2308108 3.4427027-.8562162.9275676-1.98 1.4091892-3.3713513 1.4091892-1.3913514 0-2.5151352-.4816216-3.3713514-1.4091892-.8205405-.8918919-1.2308108-2.0513513-1.2308108-3.4427027 0-1.4091892.4102703-2.5686486 1.2486486-3.4783783.8383784-.92756761 1.9621622-1.39135139 3.3535136-1.39135139zm0 1.55189189c-.8740541 0-1.5518919.3389189-2.0335136 1.0345946-.4281081.5886486-.6243243 1.3556757-.6243243 2.2832432 0 .9275676.1962162 1.6767568.6243243 2.2654054.4816217.6778379 1.1594595 1.0345946 2.0335136 1.0345946.874054 0 1.5518918-.3567567 2.0513513-1.0345946.4281081-.6064864.6421622-1.3556756.6421622-2.2654054 0-.9275675-.2140541-1.6945946-.6421622-2.2832432-.4994595-.6956757-1.1772973-1.0345946-2.0513513-1.0345946zm10.6848652-1.55189189c.463783 0 .874054.07135135 1.195135.23189189v1.8908108c-.463784-.1427027-.90973-.1962162-1.337838-.1962162-.570811 0-1.088108.2318919-1.534054.6956757-.481622.4994594-.713514 1.1594594-.713514 1.9621621v4.8875676h-1.8908105v-9.22216216h1.8908105v1.39135136c.231892-.4994595.535135-.8740541.891892-1.1237838.428108-.35675675.927568-.51729729 1.498379-.51729729zm6.261081 0c1.498378 0 2.657838.49945949 3.442702 1.53405409.713514.9275675 1.088109 2.2118919 1.105946 3.8529729h-6.992432c.071351.8918919.303243 1.5875676.731351 2.0691892.428108.4637838 1.016757.7135135 1.765946.7135135.66 0 1.195135-.1605405 1.605406-.4637837.321081-.2497298.588648-.66.838378-1.1951352h1.890811c-.214054.8562162-.624325 1.5875676-1.266487 2.1583784-.802702.6956757-1.819459 1.0524324-3.05027 1.0524324-1.355676 0-2.443784-.4281081-3.228649-1.2664865-.856216-.8918918-1.284324-2.087027-1.284324-3.6032432 0-1.3735135.392433-2.5151351 1.212973-3.4427027.784865-.94540541 1.872973-1.40918919 3.228649-1.40918919zm.053513 1.55189189c-.713513 0-1.266486.1962162-1.694594.6243243-.392433.4102703-.66.9989189-.767027 1.7837838h4.976756c-.178378-1.6054054-1.016756-2.4081081-2.515135-2.4081081zm12.218919-4.81621622h4.637838c2.051351 0 3.603243.57081081 4.673513 1.73027027.998919 1.07027027 1.498379 2.62216215 1.498379 4.63783785 0 1.9978378-.517297 3.5497297-1.534054 4.6556757-1.07027 1.1416216-2.622162 1.7124324-4.673514 1.7124324h-4.602162zm1.944324 1.65891892v9.4183784h2.301082c1.605405 0 2.80054-.3924325 3.549729-1.1594595.731352-.767027 1.105946-1.9443243 1.105946-3.5497297 0-1.6410811-.374594-2.81837839-1.088108-3.56756758-.749189-.76702702-1.926486-1.14162162-3.531892-1.14162162zm14.573514 1.60540541c1.498378 0 2.657838.49945949 3.442703 1.53405409.713513.9275675 1.088108 2.2118919 1.105946 3.8529729h-6.992433c.071352.8918919.303243 1.5875676.731352 2.0691892.428108.4637838 1.016756.7135135 1.765945.7135135.66 0 1.195136-.1605405 1.605406-.4637837.321081-.2497298.588649-.66.838378-1.1951352h1.890811c-.214054.8562162-.624324 1.5875676-1.266486 2.1583784-.802703.6956757-1.81946 1.0524324-3.050271 1.0524324-1.355675 0-2.443783-.4281081-3.228648-1.2664865-.856217-.8918918-1.284325-2.087027-1.284325-3.6032432 0-1.3735135.392433-2.5151351 1.212973-3.4427027.784865-.94540541 1.872973-1.40918919 3.228649-1.40918919zm.053513 1.55189189c-.713513 0-1.266486.1962162-1.694594.6243243-.392433.4102703-.66.9989189-.767027 1.7837838h4.976757c-.178379-1.6054054-1.016757-2.4081081-2.515136-2.4081081zm9.543244-1.55189189c2.39027 0 3.71027.96324329 3.924324 2.90756759h-1.837297c-.142703-.4994595-.356757-.8383784-.66-1.0345946-.321081-.2140541-.820541-.3210811-1.462703-.3210811-.570811 0-.998919.0713514-1.284324.2497297-.338919.1783784-.49946.4637838-.49946.8205406 0 .3210811.24973.5886486.749189.8205405.321082.1427027.927568.3210811 1.855136.552973 1.052432.2497297 1.837297.552973 2.336756.874054.731352.4637838 1.105946 1.105946 1.105946 1.9264865 0 1.9443243-1.373513 2.9254054-4.102702 2.9254054-2.532973 0-3.888649-1.0881081-4.102703-3.2286486h1.855135c.107027.6243243.338919 1.0702703.66 1.32.321081.2318919.820541.3567567 1.534054.3567567 1.462703 0 2.211892-.4281081 2.211892-1.2486486 0-.445946-.285405-.8027027-.820541-1.0524324-.285405-.1427027-.909729-.3210811-1.855135-.5351352-1.088108-.2497297-1.855135-.5172973-2.283243-.8027027-.713513-.4459459-1.07027-1.0702703-1.07027-1.8551351 0-.8383784.338919-1.4983784 1.034594-1.9621622.695676-.4816216 1.605406-.71351349 2.711352-.71351349zm7.170811-3.4427027c.374594 0 .695675.10702702.945405.35675675.24973.23189189.374595.53513514.374595.90972973 0 .3745946-.142703.67783784-.392433.92756757-.24973.23189189-.570811.35675676-.927567.35675676-.374595 0-.677838-.12486487-.927568-.35675676-.24973-.24972973-.374595-.57081081-.374595-.92756757 0-.37459459.124865-.67783784.374595-.90972973.24973-.24972973.552973-.35675675.927568-.35675675zm-.945406 3.69243243h1.890811v9.22216216h-1.890811zm8.276757-.24972973c1.212973 0 2.14054.48162159 2.818378 1.48054049v-1.23081076h1.890811v8.61567566c0 2.9254054-1.444865 4.3881081-4.298919 4.3881081-1.284324 0-2.265405-.2497297-2.943243-.7313513-.677838-.4994595-1.088108-1.2486487-1.266487-2.2654054h1.890811c.107027.5351351.321081.9275675.677838 1.1594594.338919.2140541.891892.3389189 1.641081.3389189 1.605406 0 2.408108-.874054 2.408108-2.6043243v-1.427027c-.677838 1.0167567-1.605405 1.534054-2.818378 1.534054-1.248649 0-2.265406-.4281081-3.032433-1.2664864-.784864-.8383784-1.159459-1.9443244-1.159459-3.3356757 0-1.3913514.374595-2.4972973 1.159459-3.3535135.767027-.87405408 1.783784-1.30216219 3.032433-1.30216219zm.285405 1.53405409c-.802702 0-1.427027.2675675-1.855135.8383783-.463784.5351352-.677838 1.3021622-.677838 2.2832433 0 .8918919.178379 1.6054054.535135 2.1227027.410271.6064865 1.070271.9275676 1.997838.9275676.802703 0 1.427027-.2675676 1.890811-.8027027.428108-.552973.66-1.3021622.66-2.2475676 0-.9632433-.231892-1.7302703-.66-2.2832433-.463784-.5708108-1.088108-.8383783-1.890811-.8383783zm11.237838-1.53405409c2.283243 0 3.442703 1.24864869 3.442703 3.78162159v5.6902703h-1.890811v-5.5297297c0-1.5697298-.731351-2.3545946-2.158378-2.3545946-.535135 0-1.016757.1783784-1.40919.5708108-.428108.4281081-.695675 1.0167567-.767027 1.7659459v5.5475676h-1.89081v-9.22216216h1.89081v1.14162166c.356757-.4637838.767027-.8027027 1.230811-1.03459464.463784-.24972972.981081-.35675675 1.551892-.35675675z"/></g></svg>