<svg height="90" viewBox="0 0 180 90" width="180" xmlns="http://www.w3.org/2000/svg"><path d="m13.7456008 22h.8245349c.2664656.2815485.8044244.8496732 1.0708899 1.1312217-.3770739 1.7697336-1.9155354 2.5389643-3.5897435 2.5741579-1.2116642 2.2674711-1.9054802 4.7762695-1.9356461 7.3504273 1.488185-.6887883 2.8707893-1.5937657 4.017094-2.7752639 1.4932127 1.387632 3.5193565 1.7998994 5.4399196 2.2373052 1.7144293-2.1769734 3.9064856-3.9617899 6.4806435-5.0125692 1.4278532-.4725993 2.4685772-2.1769733 4.1075918-1.7295123.8195073.1256913 1.2066365.9854198 1.7647058 1.503268-.8245349.5731523-1.6239316 1.4932127-2.730015 1.3775767-.7290096-.1960785-1.3675214-.6133736-2.0261438-.9602816-2.5339367 1.1010558-4.6706888 2.9009553-6.4353947 5.0075415 4.1628959 1.6993464 5.6510809 7.2146807 3.5595777 11.0105581-1.4328809 2.5037707-4.2885872 3.655103-6.9984917 4.13273.4725993.8195073.894922 1.6742081 1.271996 2.5439919 2.1065862-1.1764706 4.1528406-2.5389643 6.4957265-3.207642.08547.3569633.2614379 1.0759175.3469079 1.4328808.824535.5832077 1.6490699 1.2066365 2.1166416 2.1417798-1.5837104-.0553041-2.9663148-.8044243-4.162896-1.7848165-2.1367521 1.1362494-4.6153846 1.9155355-6.0935143 3.9668175 2.3227753 1.7998995 3.1875314 4.7662142 2.9311212 7.6068376 2.4836601 2.0261438 4.9673202 4.0522876 7.4610357 6.0683761 1.1764706-1.0708899 2.3931624-2.1015586 3.7807943-2.8808446-.8446455 1.6943187-2.036199 3.192559-3.3785822 4.5198592h-.4022121c-2.6194068-2.1367521-5.2136752-4.3036702-7.7928608-6.4906988-.9150326 1.6088486-2.1618904 3.5696329-4.2785319 3.4489693-2.066365.1206636-3.3132227-1.7647059-4.2282554-3.323278-2.57415785 2.1166415-5.07290094 4.3388637-7.71744594 6.3599798-1.60884866-.8647561-2.56913021-2.6596279-3.64504776-4.1126194v-.4022121c1.30718954.8496732 2.528909 1.82001 3.69532428 2.8506787 2.47360483-1.9105078 4.85671192-3.9316239 7.29512322-5.8873806-.3016592-2.9260935.5731523-6.0130719 3.0216189-7.8230266-1.5485169-1.850176-3.9819005-2.413273-6.07843141-3.3936652-1.05077928.925088-2.19205631 1.8753142-3.66013072 1.9859226-.06535947-1.4781297 2.0361991-2.0965309 2.17697336-3.6902967 2.16691805.7591755 4.23831067 1.749623 6.27450977 2.7953746.3117145-.8496732.6586225-1.6842634 1.040724-2.5037707-2.7149321-.1809955-5.69130215-1.0256411-7.2699849-3.4288588-2.26244344-3.539467-1.6792358-9.2106586 2.43841126-11.1362493.20110608-1.4680744.32679738-2.9612871.80945198-4.3690297.58823526-1.8753142 1.78481646-3.4891905 2.31774766-5.3846154.2111613-.8496732 1.0306686-1.2770236 1.6842634-1.7496229zm-1.4228255 12.4534942c-1.7647059.3670186-3.81598797 1.1965812-4.34389144 3.107089-.52790347 1.7848165.87983912 3.5093012 2.51382604 4.0472599 2.2775264.7993967 4.7611865.6737054 7.0990448.231272 1.4077425-.2815485 2.8657616-.8345902 3.8109602-1.9708396 1.15636-1.2820513.8496732-3.569633-.6586224-4.4544997-2.513826-1.4881851-5.6259427-1.3624937-8.4213172-.9602816zm3.2528909 9.2961287c-2.0512821.2413273-4.0522876-.3770739-6.07340376-.5882353.09552539.2262444.28154852.6787331.37204626.9100051 3.0216189 1.1312217 6.4705882 1.0356963 9.4620412-.1407743.7290096-.3418803 1.7647059-.6435395 1.7043741-1.6842634-1.8149824.5178481-3.5495224 1.3976872-5.4650578 1.5032679zm-2.5741579-4.5550528c.0854701-1.1563599.7541478-2.4434389 2.0713927-2.4484665 1.2870789-.1659125 1.9808949 1.0306686 2.4233283 2.0311714-1.503268.1055807-3.006536.1860231-4.494721.4172951zm27.0186023.1206637h1.3172449v3.207642h2.4283559v7.3453997c-.8345902 0-1.6691805 0-2.4987431 0v3.5093012c.5882353-.1659125 1.1764706-.3318251 1.7647059-.4977376-.1307189-.4273504-.4022122-1.2820513-.5329311-1.7094017l1.1865259-.2262443.0603318 1.2317747c.3519357-.447461.6837607-.910005.9954751-1.3826043 1.9306184 0 3.8612368-.0050277 5.7918552 0 0 .2966315.0050277.8898944.0050277 1.1915535-2.0110609-.0301659-4.032177.115636-6.0281549-.1407742-.1206636.3217697-.2362996.6435395-.346908.9703368.3117145.8999498.5731524 1.8099548.8295626 2.7249875-.2916038.0804424-.8798391.2413273-1.1714429.3217697-.1508296-.6284565-.3016591-1.256913-.4524887-1.8803419-2.0412267.5279035-4.0824535 1.055807-6.1186526 1.5887381-.0804424-.3117144-.2463549-.9351433-.3267974-1.2468577 1.025641-.2061338 2.0512821-.4122675 3.0769231-.6184012 0-1.2770237 0-2.559075 0-3.8360986-.809452 0-1.618904 0-2.4233283 0 0-2.4484666 0-4.8969331 0-7.3453997.8144796 0 1.6289593-.0050276 2.4434389 0 0-1.0708899-.0050276-2.1367521 0-3.207642zm-1.3021619 4.3589743c-.0050276 1.6792358-.0050276 3.3584716-.0050276 5.0377074h1.3423831c0-1.6792358-.0050277-3.3534439 0-5.0276521-.3318251-.0050276-1.0055304-.0100553-1.3373555-.0100553zm2.4937155.0050277v5.0326797c.4725992-.0050276.9401709 0 1.4127702 0 0-1.6792358 0-3.3584716 0-5.0326797-.3519357 0-1.0558069 0-1.4127702 0zm16.8878833-1.3926596c0-.925088 0-1.8451483 0-2.7702363.3167421 0 .9502263 0 1.2669683.0050276v2.7652087h2.3730518c-.0050276 2.4434389-.0050276 4.8868778 0 7.3303167-.794369 0-1.5837104 0-2.3730518 0v3.5947713c.3670186-.0955254 1.1010558-.2916039 1.4680744-.3871293-.1709401-.5580693-.3418803-1.1111111-.5077928-1.6691805.2564102-.0754147.7692308-.2312719 1.025641-.3117144.4122675 1.2267471.7893414 2.4635495 1.1613876 3.700352 1.3725491-1.0206134 2.5992962-2.2222223 3.6349925-3.584716-1.6792358-2.7953745-2.8054299-5.8773253-3.5997989-9.0296631.2714932-.1558572.824535-.4675717 1.1010558-.6184012.6988437 2.9512317 1.6792358 5.8572146 3.207642 8.4917043 1.5434892-2.961287 2.31272-6.2493715 2.7249875-9.5475113l1.2267471.2614379c-.462544 3.6400201-1.3323278 7.2800403-3.1322273 10.5128205 1.171443 1.4680745 2.5389643 2.7652087 4.0723982 3.8562092-.1960784.2765209-.5832076.8295626-.7742584 1.1060835-1.5233786-1.0910005-2.860734-2.3931624-4.0271493-3.8562092-1.1865259 1.4680744-2.5741579 2.760181-4.1628959 3.7807944-.4424334-.2765209-.8949221-.5429864-1.3574661-.7893414-.0804424-.3016591-.246355-.8999497-.3267974-1.2016089-1.7797888.4424334-3.55455.8798392-5.3343389 1.3172449-.0754147-.3117144-.231272-.9351433-.3066867-1.2468577.8798391-.1558572 1.7596782-.3117145 2.6395173-.4675717 0-1.3071895 0-2.6093514 0-3.9115133-.7893414 0-1.5786827 0-2.3730518 0 .0050277-2.4434389.0050277-4.8868778.0050277-7.3303167zm-1.2317747 1.1563599v5.0125692h1.3071895c-.0050277-1.6691805 0-3.3433887-.0050277-5.0125692-.432378 0-.8697838 0-1.3021618 0zm2.4434389 0v5.0125692c.3267973 0 .9803921 0 1.3071895.0050276-.0050276-1.6742081-.0050276-3.3484163-.0050276-5.0175968-.4323781 0-.8697839 0-1.3021619 0zm6.2393162-3.5495223c.8496732 1.0507793 1.6641528 2.1266968 2.428356 3.2428356-.2413273.1709401-.7290096.5128205-.9703369.6837607-.7591755-1.1161388-1.5535445-2.2021117-2.3831071-3.2629462.231272-.1659126.693816-.4977376.925088-.6636501zm7.5766717 5.1282051c2.9160382-1.3675214 5.5756662-3.1975867 7.8733032-5.4550025.231272-.0050277.6887883-.0050277.9200603-.0050277 2.1568627 2.3177476 4.811463 4.0975365 7.7275013 5.3242836-.2513827.3569633-.5027653.7139266-.7541479 1.0708899-.8898944-.447461-1.7747611-.8898944-2.6646556-1.3373555 0 .2513826-.0050276.7491202-.0050276.9954752-1.3675214 0-2.7400704 0-4.1075918 0v2.6043237h6.44545c0 .3066868-.0050276.9100051-.0050276 1.2166918-2.1468075 0-4.2936149 0-6.4404224 0v4.8315737h2.0110609c.5429864-1.2669683 1.0859728-2.5339367 1.6289592-3.800905.3016592.1106084.9049774.3217697 1.2066365.4273504-.462544 1.1412771-.9602815 2.2674711-1.488185 3.3735546 1.2368024 0 2.4736048 0 3.7154349-.0050277 0 .4172952.0050277.8345903.0100553 1.2518854-5.1633987 0-10.3217697 0-15.4801408 0 0-.3117144 0-.9351433 0-1.2468577h3.7456008c-.4826546-1.0859729-.9703368-2.1669181-1.4479638-3.2478633.3016592-.1055807.9049774-.316742 1.2066365-.4223227.5580694 1.2016088 1.0658623 2.4233283 1.5233786 3.670186.5178482 0 1.5485169 0 2.066365-.0050277 0-1.6088486 0-3.2176973 0-4.826546-2.1518351 0-4.3086978 0-6.4605329 0 0-.3016591 0-.910005 0-1.2166918h6.4605329c0-.8647561 0-1.7345399 0-2.6043237-1.3675213 0-2.7400703 0-4.1075917 0 0-.261438 0-.7843138 0-1.0457517-1.2016089.4474611-2.6546003 2.2171946-3.5796883.4524887zm3.785822-.57818c3.0015083-.0050276 6.0030166-.0100553 9.0045249 0-1.6289593-1.0457516-3.1322272-2.2624434-4.4544997-3.670186-1.3976873 1.3675214-2.9210659 2.5892408-4.5500252 3.670186zm53.0417294-4.942182c1.825038-.8647561 1.845148 1.5183509 2.503771 2.6043238.910005.0100553 1.82001.0201106 2.735043.0251383 0 .3117144-.010056.9301156-.010056 1.24183-1.468074 0-2.931121 0-4.394168 0-.005027.8999497-.010055 1.7998995-.015083 2.6998492 1.151333-.0050277 2.302665-.0050277 3.453997-.0050277-.050276 2.6847663.060332 5.3846154-.271493 8.0542987-.125691 1.8149824-3.453997 2.3931624-3.861237.5228758.824535-.2614379 2.483661.3066868 2.639518-.9653092.336852-2.1166415.191051-4.2785319.261438-6.4152841-.759176 0-1.518351 0-2.272499 0-.241327 3.0115636-.779286 6.0734038-2.362997 8.6978381-.346908-.2916038-.688788-.5832076-1.035696-.8697838 2.136752-3.5042735 2.22725-7.7375565 2.267471-11.7144293-.633484-.0050277-1.266968-.0050277-1.900452-.0050277 0-.3117144 0-.9401709 0-1.2518853h3.453997c-.402212-.8697839-.804425-1.7445953-1.191554-2.6194068zm7.596782-.1709402c.316743.0603319.955254.1709402 1.271996.2262444-.201106.8597285-.397184 1.719457-.59829 2.5842132h5.339366v1.2468577c-.331825 0-.990447.0050276-1.322272.0050276-.135747 2.7249875-.789342 5.4298643-2.116642 7.8280543 1.13625 1.4580191 2.48366 2.7249875 4.037205 3.7305179-.186023.2765208-.568125.8245349-.754148 1.0960281-1.543489-1.0206133-2.895927-2.2875817-4.037205-3.7405731-1.196581 1.4228255-2.614379 2.6244344-4.167923 3.6349924-.186023-.2966314-.553042-.8898944-.739065-1.1865259 1.578683-.9602815 2.996481-2.1468074 4.157868-3.5897435-.854701-1.5937658-1.553544-3.2579186-2.141779-4.9673203-.341881.4725993-.683761.9401709-1.025641 1.4127702-.256411-.3167421-.517849-.6284565-.769231-.9401709 1.533434-2.182001 2.39819-4.7310206 2.865761-7.3403721zm.276521 4.0623429c-.150829.3569633-.452488 1.0708899-.59829 1.4278532.542986 1.7898442 1.226747 3.5294118 2.096531 5.1835093.975364-2.0864756 1.483157-4.3237808 1.64907-6.6113625-1.05078-.0050276-2.096531-.0050276-3.147311 0zm26.546003 2.0261438c2.569131-1.3172448 4.157869-3.7757667 5.907492-5.9577677.34188.0553042 1.030668.1608849 1.377576.216189-1.417798 2.066365-3.071895 3.9517346-4.937154 5.6259427 3.293112-.1508295 6.586224-.3720462 9.874309-.6636501-.708899-.9150326-1.412771-1.8250377-2.116642-2.7350427.296631-.1407742.884867-.4172951 1.181498-.5580694 1.573655 1.9105078 3.011564 3.9215687 4.338864 6.0080443-.316742.1558572-.950226.4575163-1.266968.6133735-.447461-.7189542-.894922-1.4379085-1.337356-2.1518351-4.258421.3519357-8.52187.6033183-12.790347.7742585-.055304-.2916039-.17094-.8798392-.231272-1.171443zm-119.6229258-5.2287582c2.4585219-.0050276 4.9170438-.0050276 7.3755656-.0050276-.331825 2.3831071-.66365 4.7662142-.9954751 7.1493213.6334842 0 1.2669683 0 1.9004525.0050276-.0854701 2.3680241.0754148 4.8064354-.57818 7.1141277-.7893414 1.6138763-3.0216189 1.402715-4.5299145 1.271996-.1709402-.2966315-.5077929-.8949221-.6737054-1.1965812 1.2820513-.0653595 2.7702363.3016591 3.8964304-.5178482.8597285-1.6641528.5178481-3.655103.6636501-5.4650578-2.2322776 0-4.4595274.0050277-6.6867773 0 .3418803-2.0864756.6887883-4.1729512 1.0306687-6.2594268.4122674.0201106.8295625.0452488 1.2468577.0703871-.3016592 1.6591252-.6033183 3.3182504-.8999498 4.9773756h3.3283057c.2865762-1.9708397.57818-3.9467069.8647562-5.9175465-1.9758673 0-3.9517346 0-5.9276018.0050276-.0050277-.3117144-.0100553-.925088-.015083-1.2317748zm47.8632479-.0251382h5.28909c-.0351936 4.7963801.0603318 9.5927602-.0452489 14.3891403.0251383 1.5635998-1.8099547 1.3675213-2.8858723 1.4328808-.0955254-.2865762-.2815485-.8647562-.3720462-1.1513323.66365-.0201106 1.3273001-.0502765 1.9959778-.0904978.1508296-1.6540975.1106084-3.3132227.1106084-4.9673202-.9803922 0-1.9557567 0-2.9361488 0-.1709402 2.1266968-.5027652 4.248366-1.2770237 6.2443439-.2463549-.2262444-.7340372-.6787331-.9803921-.9049774 1.7144293-4.7963801.9150327-9.9698341 1.1010558-14.9522373zm1.1764706 1.1764706v3.0618401h2.9160382c0-1.0206134 0-2.0412267 0-3.0568125-.9753645-.0050276-1.9457014-.0050276-2.9160382-.0050276zm0 7.2599296h2.9160382c0-1.0055304 0-2.0110608 0-3.0216189-.9753645 0-1.9457014 0-2.9160382 0zm5.6309703-8.4514832c2.443439 0 4.891905-.0050276 7.340372 0-.186023 1.7144294.316742 3.7657114-.889894 5.188537-.904978.4022122-1.920563.3519356-2.885873.447461-.110608-.2664655-.331825-.7993967-.442433-1.0658622.81448-.0854701 1.644042-.115636 2.448467-.3066868.542986-.9150327.387129-2.0412267.527903-3.0568125-1.623932-.0201106-3.247863-.0150829-4.866767-.0100553-.005028 1.8250377-.005028 3.6551031 0 5.4801408 2.086475.0100553 4.177979-.0251383 6.264454.0351936-.221216 2.066365-.889894 4.0472599-1.885369 5.8622423.92006.7642031 1.890397 1.4731021 2.880844 2.1518351-.175967.2714932-.517848.809452-.693816 1.0759175-1.010558-.6837606-1.985922-1.4177978-2.916038-2.2121669-.869784.8195073-1.799899 1.5686275-2.785319 2.2423329-.175968-.2564103-.527904-.7692308-.703871-1.0206134.910005-.6636501 1.789844-1.372549 2.614379-2.1417798-1.171443-1.5786828-1.855204-3.4137758-2.619407-5.1985923-.326797 2.7802916-.08547 5.5907492-.155857 8.3810961-.306687 0-.9250882.0050276-1.231775.0050276 0-5.28909 0-10.5731523 0-15.8572147zm2.755153 7.8431373c.497738 1.3524384 1.166416 2.629462 1.990951 3.8109603.613373-1.2267471 1.106083-2.5037708 1.513323-3.815988-1.166415 0-2.337858 0-3.504274.0050277zm44.374058-7.7878331h14.62544v1.2669683c-2.242333 0-4.489694 0-6.732027 0v6.8376069h7.420815v1.2518853c-2.473605 0-4.94721 0-7.420815 0v6.4052288c-.447461 0-.894922 0-1.337355.0050276-.005028-2.1367521-.005028-4.2735042-.005028-6.4102564-2.423328 0-4.851684 0-7.28004 0 .005028-.3117144.005028-.9401709.010055-1.2518853 2.423329.0050276 4.846657 0 7.275013 0-.005028-2.2775264-.005028-4.5600805-.005028-6.8376069-2.182001 0-4.364002 0-6.55103 0 0-.3167421 0-.9502262 0-1.2669683zm-35.927602.2714932h14.097536c0 .3167421 0 .9502263.005028 1.2669683-1.010558 0-2.021116 0-3.026647 0v4.7963801h3.966818v1.2468578c-1.322273 0-2.644545 0-3.966818 0v8.019105c-.326797 0-.990447 0-1.317244 0-.005028-2.6747109-.005028-5.3443941 0-8.019105-1.739568 0-3.479136 0-5.218703-.0050277-.221217 3.2126697-1.47813 6.561086-4.459528 8.1749623-.246355-.3670186-.487682-.7290096-.729009-1.0960282 2.513826-1.4680744 3.695324-4.2584213 3.871292-7.0688788-1.402715-.0050276-2.800402-.0050276-4.19809-.0050276 0-.3117145 0-.9351433 0-1.2468578 1.417798 0 2.840624 0 4.263449-.0050276.010056-1.5987934.005028-3.1975867.005028-4.7913525-1.096028 0-2.197084 0-3.293112 0 0-.316742 0-.9502262 0-1.2669683zm4.635495 1.2669683c0 1.5987934 0 3.1975868-.005028 4.8014078 1.704374-.0100553 3.413776-.0050277 5.128206-.0050277-.005028-1.5987933-.005028-3.1975867 0-4.7963801-1.709402 0-3.418804 0-5.123178 0zm32.297637 1.4781298c.397185-.2011061.799397-.3971846 1.201609-.593263.653595 1.3826043 1.302162 2.7652087 1.955757 4.147813-.30166.1458019-.89995.4424334-1.201609.5932629-.598291-1.4077426-1.246858-2.7953745-1.955757-4.1478129zm11.488185-.6787331c.392157.1860232.784314.3770739 1.181498.5630971-.623429 1.4429361-1.342383 2.8406234-2.141779 4.1880341-.291604-.1458019-.87984-.432378-1.171443-.5781799.784313-1.3524385 1.49824-2.7450981 2.131724-4.1729513zm6.857718 5.9125189h12.086475v7.5465058c-.326797 0-.975364.0100553-1.302162.0150829-.010055-.231272-.02011-.6887883-.030166-.9150327-3.142282-.0050276-6.284565-.0050276-9.42182 0-.010055.2262444-.02011.6837607-.030166.9150327-.326797-.0050276-.975364-.0150829-1.302161-.0150829-.005028-2.5188537 0-5.0326798 0-7.5465058zm1.317244 1.2518853v4.1427854h9.451986c-.005027-1.3826044-.005027-2.7652087 0-4.1427854-3.152338 0-6.299648 0-9.451986 0z" fill="#141a26"/></svg>