<svg height="90" viewBox="0 0 180 90" width="180" xmlns="http://www.w3.org/2000/svg"><g fill="none" fill-rule="evenodd" transform="translate(5 16)"><path d="m8.34725275 9.26593407c7.18021975-7.43736264 18.17802195-9.13846154 28.04835165-8.05054945l-.0395604 2.23516483c-.1186814 2.70989011-.2175825 5.4-.2769231 8.10989015l-1.7406594-.5736264c-7.4175824-3.67912089-16.654945-2.19560441-21.9164835 4.3912088-5.97362635 5.8351648-4.01538459 14.6175824-3.58021976 22.0153846-1.83956044 1.3450549-3.65934066 2.6901099-5.4989011 4.0153846-4.76703296-10.4637363-3.54065934-23.9538461 5.00439561-32.14285713z" fill="#8de82d"/><path d="m36.356044 3.45054945.5340659-2.21538461c6.7648352 2.47252747 12.9362637 6.36923076 17.4065934 12.08571426-2.2945055 2.5912088-4.6483517 5.1626374-6.9824176 7.7142857-3.421978-3.5208791-7.1604395-6.7252747-11.2351648-9.4747252.0593406-2.70989015.1582417-5.40000004.2769231-8.10989015z" fill="#74cd16"/><path d="m63.7912088 2.95604396h12.2043956c0 12.60000004-1.0879121 25.21978024-.5340659 37.80000004.3956044 6.6263736 8.189011 8.1098901 13.5296703 7.7934065 5.0835165-.0395604 12.4615382-.098901 14.0835162-6.1912087.969231-13.0945055-.296703-26.2285715.098901-39.34285718 3.956044-.03956044 7.912088-.05934066 11.868132-.07912088-.652747 12.48131866-1.325274 24.94285716-1.127472 37.44395606.158241 5.4791209-1.8 11.7494505-7.516484 13.6285714-11.1560438 3.4417583-23.5384613 3.4417583-34.6945053.0395604-5.6967033-1.7604395-6.9824176-8.3670329-7.0615385-13.5494505.0989011-12.5208791-.0989011-25.0417582-.8505494-37.54285714z" fill="#a1a1a1"/><path d="m122.934066 3.01538462c3.065934-.03956044 6.112088-.05934066 9.178022-.0989011 4.984615 6.23076923 9.771428 12.61978018 14.835165 18.77142858 5.142857-6.210989 9.791209-12.79780221 15.210989-18.7912088 2.789011.03956044 5.578022.05934066 8.386813.0989011-.395604 2.9076923.474725 6.32967033-1.701099 8.7230769-4.846154 6.2901099-10.443956 11.9472528-15.408791 18.1186813 5.637362 6.8835165 11.630769 13.4901099 17.228571 20.3934066 0 1.523077-.03956 4.5692308-.03956 6.0923077-2.986813.0395605-5.973627.0593407-8.94066.1186813-5.281318-5.9538461-9.810989-12.5208791-15.112087-18.454945-4.865934 6.0923077-9.593407 12.2835165-14.498902 18.3560439-3.046153 0-6.092307 0-9.138461-.0197802.454945-2.610989-.336264-5.7362637 1.562637-7.9120879 4.984616-6.4087912 10.76044-12.1450549 15.784616-18.5142857-4.786814-6.7648352-10.76044-12.5208791-15.824176-19.0285714-1.879121-2.15604399-1.068132-5.26153849-1.523077-7.85274728z" fill="#a1a1a1"/><path d="m12.421978 15.378022c5.2615385-6.58681321 14.4989011-8.07032969 21.9164835-4.3912088-10.1076923-2.05714287-21.421978 5.043956-22.3912088 15.6263736-1.4241758 10.1274725 7.4769231 19.6417583 17.4659341 19.9186813 4.7472528.2175824 9.4747253-.7714285 13.9054945-2.432967 3.421978-.7318681 1.2659341-5.1626374 1.7604396-7.4967033-3.1648352-.0197802-6.3098901-.0197802-9.4747253-.0197802 0-2.6505495 0-5.2813187 0-7.9120879 6.9032967 0 13.8065934 0 20.7296703.0197802-.276923 8.6241758-.1978022 17.2879121.8307693 25.8923077-8.5252748-4.2527473-16.6747253 2.3142857-25.378022 1.8593406-11.3934066.7516484-22.82637364-4.9846153-28.44395606-15.032967 1.83956044-1.3252747 3.65934066-2.6703297 5.4989011-4.0153846-.43516483-7.3978022-2.39340659-16.1802198 3.58021976-22.0153846z" fill="#6bc30d"/></g></svg>