<svg height="90" viewBox="0 0 180 90" width="180" xmlns="http://www.w3.org/2000/svg"><g fill="#60c0e1" fill-rule="evenodd" transform="translate(0 34)"><path d="m28.6717678.68390501c3.7044855-.58416886 7.8316623-.41319261 10.9519789 1.92823219 5.4997361 3.63324539 7.3709763 11.6216359 4.046438 17.316095-2.1562005 4.0179419-6.4875989 6.4353562-10.9329815 6.9530343-6.4638523.1329815-12.8564644-4.6638523-13.8015831-11.2084433-1.2538259-6.56358837 3.2960422-13.4026385 9.7361477-14.98891819zm1.9567282 7.20949868c-2.0849604.6934037-3.8042216 2.63113461-3.9989445 4.85382591-.5699209 3.153562 2.0042216 6.3783641 5.2005277 6.5065963 3.4005277.2754617 6.1503957-3.2248022 5.6184696-6.4781003-.2754617-3.19630607-3.6237467-5.90343009-6.8200528-4.88232191z" fill-rule="nonzero"/><path d="m0 .86912929c5.40949868-.05699209 10.8189974-.04274407 16.2332454-.01424802.0379947 2.27493403.0474934 4.55461741.0094987 6.82955145-2.873351.04274406-5.7467019.04274406-8.62005281.00474934v2.67862794c2.63588391-.0617414 5.27176781-.0474934 7.90765171.0237467-.1234828 2.0944591.4084433 4.3883905-.3039578 6.3546174-2.512401.2707124-5.0485488.0332454-7.57044852.0237467-.08548813 3.0775726-.03324539 6.1598945-.08073879 9.2374671-2.52664908-.0237467-5.04854881-.0189974-7.57519789-.0427441z"/><path d="m48.3530343.86912929c2.0469657.04274406 4.1271768-.26121372 6.1503958.13298153 2.7166227 2.52189973 5.0722955 5.41899736 7.6511873 8.08812665.1044855-2.74511874.0332454-5.49023747.0664908-8.2353562 2.4031662-.03324539 4.8063324-.03799473 7.2094987.01424802-.0142481 8.59155673.1519789 17.18786281-.0902375 25.77941951-4.6211082-4.744591-9.1424802-9.5794195-13.7255937-14.3620053-.1092348 4.5688655.0189974 9.1377309-.0759894 13.7065963-2.4126649-.0094986-4.8253298.0379948-7.2379947-.0902374.0807387-8.3445911-.0237467-16.68918208.0522427-25.03377311z"/><path d="m73.0401055.84538259c6.0459103-.00949868 12.09657-.02374671 18.1472296.00949868.0047493 2.40791556.0094987 4.81108179 0 7.21899736-1.7810026-.00474934-3.5620053.00474934-5.3430079.0237467-.0332454 5.96042217.0047493 11.92084437-.0189974 17.88126647-2.4744063.0189974-4.9440633.0094987-7.4184696 0-.1234829-5.9651715.0094986-11.930343-.0617415-17.90026383-1.7715039.00474934-3.5382585.00474934-5.3097625 0-.0189974-2.40791557-.014248-4.82058048.0047493-7.23324538z"/><path d="m100.795251.92137203c4.934564-.18047493 9.873878-.0712401 14.808443-.06174142.023747 1.61477572.018997 3.22955145-.004749 4.84432717-3.201056.01899737-6.402111-.03799472-9.598417.03799473.023746 1.68601583-.07599 3.38627968.094987 5.06754619 2.916094.6269129 6.079155-.0189974 9.090237.3372031-.023747 1.5387863-.056992 3.0775726-.085488 4.6163589-3.02533.0474934-6.04591-.0094987-9.07124.0474934-.028496 3.391029.056992 6.7868074-.066491 10.1778364-1.714512-.0189974-3.424274-.0189974-5.138786 0-.028496-8.3540897.037994-16.71292876-.028496-25.06701847z"/><path d="m120.74723.90237467c3.747229-.11873351 7.503957-.08548813 11.251187-.03799472 4.150923-.03324538 7.898153 3.50026385 8.092876 7.65118733.375198 3.26754622-1.329815 6.30237472-3.552507 8.55356202 2.868602 1.9852243 3.951451 5.5757256 3.547758 8.9335092-1.700264-.0189973-3.405278-.0189973-5.105541 0-.023747-2.2369393-.474934-4.7398417-2.384169-6.1646438-1.833246-1.5957783-4.383641-1.173087-6.611082-1.2015831-.033245 2.4506596.018997 4.9013193-.075989 7.3519789-1.714512.0047493-3.424275-.0047493-5.138787-.014248-.018997-8.3540897.014248-16.71292878-.023746-25.07176783zm5.205277 12.94195253c2.621635-.0569921 6.069657.8406332 7.869657-1.6575198 1.766754-2.1989446.389445-5.80369394-2.298681-6.44010555-1.795251-.32295515-3.633246-.16147758-5.447494-.21372032-.223219 2.7641161-.07124 5.53773087-.123482 8.31134567z" fill-rule="nonzero"/><path d="m144.764644.85013193c4.96781-.02374671 9.93562-.02849605 14.908179 0 .023747 1.61952506.023747 3.23430079-.004749 4.84907651-3.229552.01424802-6.463852-.01899736-9.688654.01899736-.037995 1.57203167-.037995 3.13931399-.00475 4.7113457 3.039578.0379947 6.083905-.0094987 9.123483.0237467.014248 1.5815303.009499 3.1630606.009499 4.7493403-3.049077.0047494-6.098153-.014248-9.14723 0-.018997 1.9757256-.033245 3.9467019-.014248 5.9176781 3.229552.1519789 6.463852-.0902374 9.693404.1044855.631662 1.4295515.170976 3.1915567.275462 4.7493404-5.039051.0379947-10.078101-.014248-15.112401.0189973-.123483-8.3825857-.061742-16.76517146-.037995-25.14300787z"/><path d="m164.811609.85488127c4.920317-.0237467 9.835884-.04274407 14.756201 0 .389446 1.59577836.508179 3.24854881.085488 4.85382585-3.201055-.00474934-6.40686-.01424802-9.612665.00474934-.004749 1.57203167-.009498 3.14881267-.004749 4.72084434 3.039578.0332454 6.074406 0 9.113984.0094987.014248 1.5862797.014248 3.16781.009499 4.7540897-3.044327.014248-6.083905-.014248-9.123483.0094987-.033245 1.9994723-.009499 3.9989446.07124 5.9936675 3.139314-.0569921 6.278628-.0712401 9.417942 0-.004749 1.5672823 0 3.1345647 0 4.701847-4.920317.1092348-9.840633.0949868-14.756201 0 .07599-8.3493404-.009498-16.69868076.042744-25.04802113z"/></g></svg>