<svg height="90" viewBox="0 0 180 90" width="180" xmlns="http://www.w3.org/2000/svg"><g fill="none" transform="translate(0 30)"><path d="m130.142927 8.72780488v3.56487802h-2.341464v-5.90195119h3.320488c-.316097-1.04341464-1.413658-4.67121951-1.437073-4.76048781-.00959-.0384096-.00179-.07909343.021327-.11123179.023117-.03213835.059208-.05247353.098673-.05559748h2.468781s1.267317 4.19268293 1.486829 4.92731708h3.566341c-.421463-1.04341464-1.886341-4.67121951-1.917073-4.75317073-.012338-.04011289-.005265-.08368489.019128-.11783521s.063316-.05497253.105262-.05631114h2.521464s1.700488 4.21756098 1.99317 4.92731708h3.317561c.317561-.67609756 2.367805-4.92731708 2.367805-4.92731708h2.574147c.044845.00029072.08646.02338001.110441.06127566.023981.03789564.027031.08538933.008095.12604142-.036585.08487805-1.779512 3.69951219-2.281463 4.74h5.318049v5.90195119h-2.341464v-3.56487802zm-26.57122-3.25756098v-2.34146341h18.439025v2.34146341zm6.692195 8.8331707-3.951219 10.3902439h13.520488l-2.15122-5.6634146c-.016203-.0400397-.011254-.0855362.013179-.1211557s.065096-.0566177.108285-.0559175h2.539024l3.040976 7.9931708c.018998.0402342.016142.0873829-.007573.1250303s-.065007.0605838-.109501.0608233h-20.388292c-.043867.0017054-.085518-.019309-.110212-.0556057-.024693-.0362966-.028946-.0827545-.011252-.1229309l4.779513-12.5502439h-6.560488v-2.3414634h23.641463v2.3414634zm41.443903 3.8282927v2.3414634h-10.224878v6.9804878h-5.165854l-.796097-2.1614634c-.014072-.0402662-.008003-.0848362.016321-.1198747s.063961-.0563052.106605-.0571984h3.190244v-4.6478049h-11.297561v-2.3414634h11.297561v-.7639025l4.475122-3.5897561h-11.356097v-2.3414634h15.092195v2.3458537l-5.420488 4.3551219zm9.706829-6.0351219c1.527726 3.3544133 1.871857 7.1279917.976098 10.7034146h-3.654147l-.645365-1.9536585c-.011956-.0396089-.004605-.0825337.019849-.115907.024455-.0333733.06317-.0533157.104541-.0538491h2.21561c.3568-2.8326007-.1599-5.7066145-1.480976-8.237561l1.674146-8.16146342h-3.570731v23.38097562h-2.341464v-25.5087805h8.297561v2.12634146zm4.536586-5.68975613v2.92682927h-2.341464v-5.26829269h6.067317v-2.37512195h2.552195v2.3795122h6.117073v5.26829268h-2.341463v-2.92682927h-10.053658zm-1.356586 5.62829273v-2.1248781h12.741951v2.1263415zm9.687805 13.0726829h4.62v2.3414634h-7.170732v-10.7663415h-2.628292c-.245854 4.1795122-1.678537 6.8780488-4.208781 11.0034147h-2.82c-.048331.0002026-.0928-.0263749-.115513-.0690374-.022712-.0426625-.019933-.0943941.00722-.1343773 2.436586-3.3658536 4.292196-6.12 4.584879-10.7985366h-3.259025v-2.1321951h15.065854v2.1307317h-4.078537v8.4307317z" fill="#272d3b"/><path d="m103.571707 5.4702439h18.446342v-2.33707317h-18.446342zm6.692195 8.8331707h14.351708v-2.3414634h-23.64v2.3414634h6.557561c-1.353659 3.5502439-4.753171 12.4770732-4.779512 12.5502439-.017695.0401764-.013442.0866343.011251.1229309.024694.0362967.066345.0573111.110212.0556057h20.392683c.044493-.0002395.085786-.0231759.109501-.0608233s.02657-.0847961.007572-.1250303c-.019024-.0556098-3.040976-7.9931708-3.040976-7.9931708h-2.539024c-.042912.0000233-.08306.0211828-.107334.05657-.024273.0353873-.029559.0804605-.014129.1205032l2.151219 5.6634146h-13.517561z" fill="#00a4ff"/><g fill="#272d3b" transform="translate(48.405253 1.626016)"><path d="m48.8893058 1.13821138h-14.3602251v2.11382114h4.3564728v7.80487808h-5.163227v2.1138211h5.163227v12.8455285h2.4202626v-12.8455285h5.4859287v12.3577236h4.3564728v-2.1138212h-1.9362101v-22.27642272zm-7.7448405 9.59349592v-7.47967478h5.6472795v7.80487808h-5.4859287v-.3252033z"/><path d="m8.87429644 20h11.45590996v2.1138211h-11.45590996z"/><path d="m.96810507 16.097561c0 3.7398374-.16135085 6.8292683-.96810507 9.2682927 0 .1626016 0 .1626016.16135084.1626016h2.09756098c.80675422-3.5772358.80675422-6.5040651.80675422-8.6178862h2.9043152v6.504065h-1.93621013c-.16135085 0-.16135085 0-.16135085.1626017l.64540338 1.9512195h3.71106942v-24.39024392h-7.09943715zm2.25891182-.9756098v-4.8780488h2.90431519v5.2032521h-2.90431519zm2.90431519-11.86991868v5.04065041h-2.90431519v-5.04065041z"/><path d="m21.1369606 9.75609756h2.7429644v-1.95121951h-8.2288931c.1613508-.65040651.3227017-1.46341464.8067542-1.95121951h7.0994372v-1.95121952h-1.9362102c.1613509-1.13821138.8067543-2.60162601.8067543-2.60162601 0-.16260163 0-.16260163-.1613509-.16260163h-1.7748593l-.8067542 2.76422764h-2.5816135c.1613508-1.13821138.3227017-2.43902439.6454034-3.57723577 0-.16260162 0-.16260162-.1613509-.16260162h-1.9362101c-.1613508 1.46341463-.3227017 2.76422764-.8067542 3.90243902h-1.4521576l-.8067542-2.76422764h-1.7748593c-.1613509 0-.1613509 0-.1613509.16260162 0 .16260163.3227017 1.46341464.8067542 2.60162602h-1.93621009v1.95121951h4.51782369c-.1613509.65040651-.3227017 1.46341464-.8067543 1.95121951h-4.35647276v1.95121952h3.38836776c-1.4521576 1.95121951-2.74296439 2.76422761-3.38836776 3.25203251v2.1138211c0 .1626017.16135084.1626017.32270168 0 .64540338-.1626016 1.45215758-.8130081 1.93621018-1.4634146h7.9061913v2.9268293h-6.1313321l.1613509-1.7886179c0-.1626016 0-.1626016-.1613509-.1626016h-1.9362101l-.1613508 3.5772357c0 .1626017 0 .1626017.1613508.1626017h10.6491557v5.203252h-4.6791745c-.1613508 0-.1613508 0-.1613508.1626016l.6454034 1.9512195h6.7767354v-9.105691h-2.5816135v-3.902439c.9681051.8130081 1.9362102 1.6260162 2.9043152 1.9512195.1613509.1626016.3227017.1626016.3227017 0v-2.1138212c-.968105-.3252032-2.4202626-1.1382114-3.7110694-2.92682924zm-2.5816135 0c.3227017.81300814.9681051 1.62601624 1.6135084 2.11382114h-6.9380863c.6454034-.6504065.9681051-1.4634146 1.6135085-2.11382114z"/><path d="m35.8198874 18.5365854-3.8724202 2.9268292v-13.65853655h-5.163227v2.43902435h2.9043151v13.1707317c-.8067542.6504066-1.4521576.8130082-1.4521576.8130082l1.4521576 1.7886179 6.292683-4.7154472-.1613509-2.7642276c.4840526 0 .3227017-.1626017 0 0z"/><path d="m30.011257 5.69105691h2.2589119c.3227016 0 .3227016-.16260163.3227016-.16260163l-3.2270168-5.0406504h-2.4202627l-.1613508.16260162c.1613508.16260163 3.2270168 5.04065041 3.2270168 5.04065041z"/></g><path d="m36.30394 23.902439c-.6454034.6504065-1.9362102 1.6260163-4.195122 1.6260163h-13.8761726c4.195122-4.0650407 7.7448405-7.4796748 8.0675422-7.8048781.3227017-.3252032 1.1294559-1.1382113 1.9362101-1.7886179 1.6135085-1.4634146 2.9043152-1.6260162 4.0337712-1.6260162 1.6135084 0 2.9043152.6504065 4.0337711 1.6260162 2.2589118 2.1138212 2.2589118 5.8536586 0 7.9674797zm2.7429643-10.5691057c-1.6135084-1.7886179-4.0337711-2.9268292-6.6153846-2.9268292-2.2589118 0-4.195122.8130081-5.9699812 2.1138211-.6454034.6504065-1.6135085 1.300813-2.4202627 2.2764228-.6454034.6504065-14.52157599 14.3089431-14.52157599 14.3089431.80675419.1626016 1.77485929.1626016 2.58161349.1626016h17.587242c1.2908068 0 2.2589119 0 3.2270169-.1626016 2.097561-.1626017 4.195122-.9756098 5.9699813-2.6016261 3.7110694-3.5772357 3.7110694-9.5934959.1613508-13.1707317z" fill="#00a3ff"/><path d="m16.4577861 12.3577236c-1.7748593-1.300813-3.5497186-1.9512195-5.6472795-1.9512195-2.58161354 0-5.00187621 1.1382113-6.61538465 2.9268292-3.54971857 3.7398374-3.54971857 9.593496.16135085 13.3333334 1.61350844 1.4634146 3.22701688 2.2764227 5.16322701 2.4390244l3.71106939-3.5772358h-2.0975609c-2.09756102-.1626016-3.38836777-.8130081-4.195122-1.6260163-2.25891182-2.2764227-2.25891182-5.8536585-.16135084-8.1300813 1.12945591-1.1382114 2.42026266-1.6260162 4.03377114-1.6260162.968105 0 2.4202626.1626016 3.8724202 1.6260162.6454034.6504065 2.4202627 1.9512195 3.0656661 2.601626h.1613508l2.4202627-2.4390244v-.1626016c-1.1294559-1.1382114-2.9043152-2.601626-3.8724203-3.4146341" fill="#00c8dc"/><path d="m33.3996248 8.29268293c-1.7748593-4.87804878-6.4540338-8.29268293-11.7786117-8.29268293-6.2926829 0-11.2945591 4.71544715-12.26266413 10.5691057.48405253 0 .96810503-.1626016 1.61350843-.1626016s1.4521576.1626016 2.097561.1626016c.8067542-4.06504066 4.3564728-6.99186993 8.5515947-6.99186993 3.5497186 0 6.6153846 2.11382114 8.0675422 5.20325203 0 0 .1613509.16260163.1613509 0 1.1294559-.16260162 2.4202627-.48780487 3.5497186-.48780487 0 .16260162 0 .16260162 0 0" fill="#006eff"/></g></svg>