<svg height="90" viewBox="0 0 180 90" width="180" xmlns="http://www.w3.org/2000/svg"><g fill-rule="evenodd" transform="translate(0 29)"><path d="m41.7238494 12.2384937c0-.6401673.9037657-1.2803347 2.6736401-1.2803347 2.2594143 0 4.4435147 1.6945607 4.4435147 1.6945607l2.6736402-2.5606695s-1.9958159-2.97489539-6.8158996-2.97489539c-3.8410042 0-7.3054394 2.07112971-7.3054394 5.15899579 0 6.0251046 9.8284519 4.1422594 9.8284519 6.4016737 0 .7154811-.9790795 1.167364-2.5983263 1.167364-2.5230126 0-4.5188285-1.6945607-4.5188285-1.6945607l-2.6359833 2.5606695c.5648536 1.0543933 3.0502093 2.9748954 6.9665272 2.9748954 3.0878662 0 7.1171549-1.6945607 7.1171549-5.083682 0-5.8368201-9.8284519-4.1046026-9.8284519-6.3640168zm75.3138076-5.08368198c-2.146444 0-4.14226 1.46861924-5.046025 2.56066945-.97908-1.58158996-2.711297-2.56066945-5.083682-2.56066945-1.882845 0-3.313808 1.0920502-4.217573 2.0334728l-1.355649-1.65690377h-2.711297v15.70292885h4.179916v-8.0585774c0-2.4853556 1.46862-3.8033473 2.937239-3.8033473 1.506276 0 2.974895.790795 2.974895 3.5020921v8.3974895h4.217573v-8.0585774c0-2.4853556 1.46862-3.8410042 2.937239-3.8410042 1.506276 0 2.974895.790795 2.974895 3.5020921v8.3974895h4.217574v-9.9414226c0-3.42677821-2.146444-6.17573218-6.025105-6.17573218zm-104.6861926 1.35564853c-.8284518-.79079498-2.44769871-1.35564853-3.80334725-1.35564853-4.55648535 0-8.24686192 3.69037658-8.24686192 8.24686188 0 4.5564854 3.69037657 8.246862 8.24686192 8.246862 1.80753135 0 3.50209205-.790795 4.48117155-1.5439331l.9414226 1.1297071h2.8619247v-22.82008366l-4.4435147 1.0167364zm-3.80334725 10.88284515c-2.22175732 0-4.0292887-1.8075313-4.0292887-4.0292887 0-2.2217573 1.80753138-4.0292887 4.0292887-4.0292887 1.61924685 0 3.01255235.9414226 3.65271965 2.3347281v3.3891213c-.6401673 1.3933054-2.0334728 2.334728-3.65271965 2.334728zm125.35983285-12.27615059c-4.556486 0-8.246862 3.69037659-8.246862 8.24686189 0 4.5564854 3.690376 8.246862 8.246862 8.246862 4.556485 0 8.246862-3.6903766 8.246862-8.246862 0-4.5188284-3.690377-8.24686189-8.246862-8.24686189zm0 12.27615059c-2.221758 0-4.029289-1.8075313-4.029289-4.0292887 0-2.2217573 1.807531-4.0292887 4.029289-4.0292887 2.221757 0 4.029288 1.8075314 4.029288 4.0292887 0 2.2217574-1.807531 4.0292887-4.029288 4.0292887zm37.468619-12.27615059c-4.556485 0-8.246862 3.69037659-8.246862 8.24686189 0 4.5564854 3.690377 8.246862 8.246862 8.246862s8.246862-3.6903766 8.246862-8.246862c0-4.5188284-3.690377-8.24686189-8.246862-8.24686189zm0 12.27615059c-2.221757 0-4.029289-1.8075313-4.029289-4.0292887 0-2.2217573 1.807532-4.0292887 4.029289-4.0292887s4.029289 1.8075314 4.029289 4.0292887c0 2.2217574-1.807532 4.0292887-4.029289 4.0292887zm-117.1129707-11.86192465h4.2175732v15.70292885h-4.2175732z" fill-rule="nonzero"/><circle cx="56.410042" cy="2.635983" r="2.560669"/><path d="m69.2887029 27.1129707c-1.8075314 0-3.5774058-.4895397-5.1213389-1.4686192l-2.1464435 3.4644351c2.1841004 1.3556485 4.707113 2.0711297 7.2677824 2.0711297 2.5606695 0 5.083682-.7154812 7.2677825-2.0711297l-2.1464436-3.4644351c-1.543933.9790795-3.3138075 1.4686192-5.1213389 1.4686192zm86.8744771-18.60251045c-.828452-.79079498-2.447699-1.35564853-3.803347-1.35564853-4.556486 0-8.246862 3.69037658-8.246862 8.24686188 0 4.5564854 3.690376 8.246862 8.246862 8.246862 1.807531 0 3.502092-.790795 4.481171-1.5439331l.941423 1.1297071h2.861924v-22.82008366l-4.443514.9790795zm-3.803347 10.88284515c-2.221758 0-4.029289-1.8075313-4.029289-4.0292887 0-2.2217573 1.807531-4.0292887 4.029289-4.0292887 1.619246 0 3.012552.9414226 3.652719 2.3347281v3.3891213c-.640167 1.3933054-2.033473 2.334728-3.652719 2.334728zm-63.0753142-12.23849368c-2.2970711 0-4.0292887 1.16736401-4.8200837 2.14644351l-1.4309623-1.73221757h-2.7112971v15.70292884h4.2175733v-8.0962343c0-2.6359832 1.6945606-3.8033473 3.4267782-3.8033473 1.6569038 0 3.1631799.790795 3.1631799 3.5020921v8.3974895h4.2175732v-9.9037657c0-3.46443511-2.1464435-6.21338908-6.0627615-6.21338908zm-11.7489539 2.37238493v-2.37238493h-8.246862c-4.5564853 0-8.2468619 3.69037658-8.2468619 8.24686188 0 4.5564854 3.6903766 8.246862 8.2468619 8.246862 4.5564854 0 8.246862-3.6903766 8.246862-8.246862 0-1.7322175-.5271967-3.3514644-1.4686193-4.669456zm-8.246862 9.86610875c-2.2217573 0-4.0292887-1.8075313-4.0292887-4.0292887 0-2.2217573 1.8075314-4.0292887 4.0292887-4.0292887 2.2217574 0 4.0292887 1.8075314 4.0292887 4.0292887 0 2.2217574-1.8075313 4.0292887-4.0292887 4.0292887zm-41.8368201-12.27615059c-4.5188284 0-8.1338912 3.42677829-8.1338912 8.28451879 0 4.9707113 3.6527197 8.2845189 8.5857741 8.2845189 3.502092 0 6.3640167-2.4853557 6.3640167-2.4853557l-2.4100418-3.0125523s-1.8451883 1.58159-4.1046025 1.58159c-2.9372385 0-3.8786611-1.8075314-4.1046025-2.8242678h11.7489539c0-.1129707.0376569-1.0167364.0376569-1.167364 0-4.2175732-2.2594142-8.66108789-7.9832636-8.66108789zm-3.8033472 6.70292889c.1882845-.9414226 1.3933054-3.0878661 3.8033472-3.0878661 2.4853557 0 3.539749 2.0711297 3.6150628 3.0878661z" fill-rule="nonzero"/></g></svg>