<svg height="90" viewBox="0 0 180 90" width="180" xmlns="http://www.w3.org/2000/svg"><g fill="#e4644e" transform="translate(43 21)"><path d="m2.54037037 11.6603704c2.77259259-3.39888892 4.91185185-7.26222225 6.53740741-11.32962966 1.47777782 1.21037037 2.95555552 2.4137037 4.44740742 3.58888889-1.1962963.74592593-2.3785185 1.52703704-3.52555557 2.34333333 2.58259257.09851852 5.16518517.07740741 7.75481477.07037037.8162963-.77407407 1.6396297-1.54814814 2.455926-2.32222222 1.14 1.37222222 2.287037 2.75148148 3.2581481 4.25740741 1.1611111-2.62481482 2.5825926-5.12296296 3.8422222-7.69851852 1.4074074 1.05555556 2.8148149 2.10407407 4.2362963 3.13851852-1.2033333.81629629-2.3855555 1.68185185-3.5396296 2.57555555 3.412963.08444445 6.832963.03518519 10.2459259.0562963.8233334-.78111111 1.6537037-1.55518518 2.4770371-2.3362963 1.2103703 1.48481482 2.4277777 2.9625926 3.6451852 4.44037037-4.2081482-.01407407-8.4092593.03518519-12.6103704-.03518518 1.3933333.72481481 3.9618518.78814815 3.8211111 2.89925924.2674074 1.5340741-1.4637037 2.3503704-2.4911111 3.1103704-.9288889-2.0196296-1.7170371-4.1096296-2.9133333-5.99555557-1.0133334.01407408-2.0196297.02814815-3.025926.04222223-2.1111111 2.20962964-4.384074 4.27148144-6.8822222 6.03074074-1.1188889-2.4559259 1.9140741-4.0462963 2.842963-6.03074074-3.1596297-.04925926-6.3122223.03518518-9.4648148-.09148149 1.4144444.57703704 3.42 1.02037037 3.5466666 2.89925923.3448148 1.7170371-1.3440741 2.7866667-2.8077778 3.0822223-.8514814-2.0337037-1.724074-4.0674075-2.9344444-5.91814819-.6192593 0-1.87185186.00703703-2.49814815.01407407-2.63888889 2.60370372-5.10888889 5.46074072-8.34592593 7.36074072-.54888889-1.7662963 1.02740741-2.8992592 1.92814815-4.1518518z"/><path d="m58.3651852.2462963c2.5685185 1.16111111 5.2144444 2.47703703 7.1425926 4.58111111 1.4637037 2.08296296-.2603704 4.55296296-2.0688889 5.71407409-1.322963-2.06888891-2.1322222-4.41222224-3.5325926-6.42481483-.7881482-1.15407408-1.6959259-2.36444445-1.5411111-3.87037037z"/><path d="m88.9833333 4.40518519c.5066667-.72481482 1.0062963-1.4425926 1.512963-2.16037038 1.2807407.99222223 2.5614815 1.98444445 3.8351852 2.97666667-.5137037.52074074-1.0274074 1.04148148-1.5411111 1.56222222.0211111 10.64-.0070371 21.272963.0211111 31.912963-.0633334 1.9281481.0844444 4.1166666-1.2244445 5.707037-1.0062963 1.14-2.5192592 1.5762963-3.8562963 2.1955556-.9148148-2.66-3.5537037-3.5466667-5.8759259-4.552963-.1618518-.38-.4785185-1.147037-.6403704-1.5340741 2.5825926.0844445 5.1581482.3588889 7.7477778.2744445.3448148-11.4211111.0492593-22.8562963.1477778-34.28444448-6.2488889.21814815-12.5611111-.50666666-18.7607407.53481482-.7037037-.87962963-1.4144445-1.75925926-2.1251852-2.63185185 6.9174074-.00703704 13.8418518 0 20.7592592 0z"/><path d="m54.7059259 7.12148148c1.7311111.87259259 3.4551852 1.75222222 5.1792593 2.64592593-.4644445.56296299-.9288889 1.12592589-1.3933333 1.68888889 0 11.1255556.014074 22.2511111-.0070371 33.3766667-1.2666667.5137037-2.5262963 1.0274074-3.7859259 1.5481481.2603704-13.0888889.2814815-26.1777778.007037-39.25962962z"/><path d="m77.2948148 9.42259259c1.512963.98518521 3.032963 1.97037041 4.5740741 2.90629631-2.2448148 1.6959259-3.8562963 4.0181481-5.6366667 6.1574074 1.0907408-.007037 2.1885185-.007037 3.2862963-.0140741.5137037-.6825926 1.0344445-1.3722222 1.5481482-2.0548148 1.0696296.9148148 2.1322222 1.8366667 3.2018518 2.7514815-.3377778.3377778-1.0062963 1.0062963-1.337037 1.3440741-.0070371 2.7655555.0703704 5.524074.197037 8.2825926-1.1681481.3166666-2.3362963.6262963-3.5114815.9429629 0-.4433333-.007037-1.33-.014074-1.7733333-.7037037 0-1.4074074 0-2.1040741 0 .1548148 2.9274074-.4081482 5.9603704.3518518 8.8244444 1.6466667.6966667 3.8211112.8585185 5.4325926.0914815.76-2.0618518.6685186-4.3066667.8725926-6.46.5981482.007037 1.1962963.0140741 1.7944445.0211111.0351852 2.462963.0985185 5.0877778 1.7874074 7.0581482-1.1892593 2.2307407-3.6381482 2.9696296-6.0166667 2.6529629-2.4066667-.2814814-5.9955555.8374074-7.3185185-1.8859259-.8514815-3.4762963-.2251852-7.1214815-.4574074-10.6681481-.3448148.19-1.0414815.5629629-1.3862963.7529629-.9077778 2.5755556-1.1259259 5.4325926-2.667037 7.782963-2.3925926 3.9548148-6.832963 6.0659259-11.0903704 7.4029629.4925926-2.2096296 2.8992592-2.8781481 4.37-4.2996296 3.5396296-2.7655555 5.2285185-7.2340741 5.6437037-11.597037-1.6185185 1.2244444-3.3074074 2.2659259-5.2074074 2.9907407.1266666-4.5951852.2533333-9.1974074-.0492593-13.7855555 2.0266667 1.2666666 4.3207408 1.8718518 6.7062963 1.7381481-.2251852-.1196296-.6755555-.3659259-.9007407-.4925926-.9640741-2.7022222-2.4488889-5.1651852-3.7718519-7.7055555 2.4559259-.47851855 4.362963 1.6466666 6.0096297 3.1455555 1.4355555 1.4777778.1759259 3.4622222-.4855556 4.9751852.7811111-.0140741 2.3292593-.0351852 3.1103704-.0492593 1.2455555-2.9344444 2.294074-5.9392592 3.0681481-9.03555551zm-10.0911111 11.16074071c-.007037 1.7592593-.007037 3.5185186-.007037 5.2848148 4.1377777-.007037 8.2755555-.007037 12.4133333 0 0-1.7662962 0-3.5255555 0-5.2918518-4.1377778.007037-8.2755556.007037-12.4062963.007037z"/><path d="m8.23333333 11.6181481c2.32925927 1.2314815 5.02444447 2.2448149 6.62888887 4.4262963 1.2737037 2.0055556-.4362963 4.172963-2.3011111 4.9611112-1.1611111-2.7303704-2.5403704-5.3411112-4.22222221-7.775926-.02814815-.4081481-.07740741-1.2103703-.10555556-1.6114815z"/><path d="m36.9937037 14.7637037c.6544444-.6262963 1.3159259-1.2455556 1.9703704-1.8718518 1.1048148 1.154074 2.1955555 2.3151851 3.3003703 3.4692592-.6051851.4433333-1.2103703.8937037-1.8155555 1.3440741.0281481 7.4662963-.007037 14.9325926.0281481 22.3988889-.0562963 1.4988889.0914815 3.1737037-.8514814 4.4403703-.9288889 1.0133334-2.2870371 1.4355556-3.4762963 2.0548149-1.6255556-2.5544445-4.4474074-3.6874074-7.2974074-4.2574074 0-.4292593 0-1.2877778-.0070371-1.7170371 2.6388889.3588889 5.2848148.6122222 7.9448148.5488889.1548148-8.0925926.0281482-16.1922222.0703704-24.2848148-5.9462963.1759259-11.9559259-.4714815-17.8459259.5981481-.7248148-.9007407-1.4425926-1.8085185-2.1674074-2.7092592 6.7203703-.0140741 13.4337037.0211111 20.147037-.0140741z"/><path d="m4.72185185 16.0233333c1.80148148.7951852 3.58888889 1.6044445 5.38333335 2.4137037-.52777779.6966667-1.05555557 1.3933334-1.58333335 2.09.04925926 8.352963.02111111 16.712963.28148148 25.072963-1.35111111.5066667-2.70222222 1.0203704-4.06037037 1.52-.02111111-10.3655556.45037037-20.7381481-.02111111-31.0966667z"/><path d="m15.207037 19.7248148c1.1540741.6262963 2.2940741 1.3018519 3.5185186 1.7944445 2.47.2955555 4.9751851.0633333 7.4592592.1196296.4574074-.7107408.9218519-1.4214815 1.3862963-2.1322222 1.2807408 1.1188889 2.5614815 2.2448148 3.8492593 3.3637037-.6544445.57-1.3088889 1.14-1.9633334 1.717037.0422223 4.6233333.0211111 9.2607407.365926 13.877037-1.3440741.4503704-2.6881482.9007408-4.0322223 1.3581482-.007037-.4996296-.014074-1.5059259-.0211111-2.0055556-2.1603703 0-4.3137037.0070371-6.474074-.014074.0774074 2.3925926-2.4488889 2.4559259-4.0814815 3.1807407.0703703-7.0862963.2111111-14.1725926-.0070371-21.2588889zm3.792963 4.0181482v4.757037h6.7766667c0-1.5833333 0-3.1666667 0-4.757037-2.2588889 0-4.5177778 0-6.7766667 0zm0 6.8681481v5.1018519c2.2588889 0 4.5177778 0 6.7766667.007037 0-1.71 0-3.412963 0-5.1159259-2.2588889.007037-4.5177778.007037-6.7766667.007037z"/></g></svg>