<svg height="90" viewBox="0 0 181 90" width="181" xmlns="http://www.w3.org/2000/svg"><g fill="none" fill-rule="nonzero" transform="translate(1)"><path d="m57.0561702 24.7961702h2.052766v3.5655319c.9229787.0038298 1.8497872.0038298 2.7765957.0038298-.0038298 3.0370213-.0038298 6.0702128 0 9.1072341-.9689362 0-1.9378723 0-2.9068085 0 0 1.2063829 0 2.4089361.0038298 3.6153191.5285106-.1531915 1.0570213-.3025532 1.5855319-.4519149-.1761702-.5668085-.3523404-1.1374468-.5285106-1.7080851.5361702-.1723404 1.0723404-.3446808 1.6123404-.5131915.6280851 1.8 1.1412766 3.6382979 1.5855319 5.4957447-.593617.1570213-1.187234.3102128-1.7808511.467234-.1455319-.6740425-.2948936-1.3519149-.4404255-2.0297872-2.2787234.7046809-4.5919149 1.2906383-6.9280851 1.7731915-.1646808-.647234-.3255319-1.2944681-.486383-1.9417021 1.1412766-.2106383 2.2825532-.4174468 3.4276596-.6204256.0038298-1.3595744.0038298-2.7229787 0-4.0825532-.9306383-.0038297-1.8612766-.0038297-2.7919149-.0038297 0-3.0370213-.0038298-6.0740426 0-9.1072341h2.8187234c0-1.1910638 0-2.3821276 0-3.5693617zm-1.0991489 5.3578724c-.0076596 1.8421276-.0038298 3.6804255-.0038298 5.5225531h1.1834042c0-1.834468 0-3.6689361 0-5.507234-.394468-.0038298-.7851063-.0114894-1.1795744-.0153191zm2.9182978.0076595v5.5148936h1.2714894c0-1.8382978 0-3.6765957 0-5.5148936-.3178723 0-.953617 0-1.2714894 0zm19.3365958-5.1970212h1.9493617v3.1212765c.9038298 0 1.8076596 0 2.7114894.0038298v9.0842554c-.9038298 0-1.8076596 0-2.7114894 0v3.7225531c.4021277-.1148936.8042553-.2297872 1.2102128-.3446808-.1723405-.5706383-.3408511-1.1374468-.5131915-1.7080851.5246808-.1646809 1.0493617-.3293617 1.5778723-.4940426.4710638 1.2982979.8731915 2.6157447 1.2331915 3.9485107 1.5089362-1.0608511 2.8148936-2.3782979 3.8910638-3.8719149-1.907234-3.2285107-3.1710638-6.7825532-4.0940425-10.4017021.5706383-.3293618 1.1412766-.6587235 1.7157447-.9842554.7506383 3.3051064 1.8038297 6.5680851 3.4774468 9.5323405 1.6659574-3.3395745 2.4931915-7.02 2.9374468-10.7080851.6357447.1340425 1.2753191.2719148 1.9148936.4059574-.5208511 4.2395745-1.5357447 8.4791489-3.6076596 12.2438298 1.2868085 1.6812766 2.826383 3.1710638 4.6148936 4.3161702-.3982978.5821277-.7965957 1.1680851-1.1910638 1.7502128-1.7425532-1.1872341-3.2821277-2.6540426-4.5459574-4.339149-1.3251064 1.7272341-2.9642554 3.2017022-4.8485107 4.2893617-.4059574-.7046808-.9612766-1.1527659-1.8076596-.7851064-.1034042-.4863829-.2029787-.9727659-.3025531-1.4591489-2.0029788.5782979-4.0289362 1.0838298-6.066383 1.5165958-.1570213-.6587234-.3102128-1.3136171-.4634043-1.9685107.972766-.1646808 1.9455319-.3293617 2.9182979-.4940425 0-1.386383 0-2.7765958 0-4.1668085-.9038298 0-1.8076596 0-2.7114894 0 .0038298-3.0293617 0-6.0587235.0038298-9.0880852h2.7076596c0-1.0378723 0-2.0795744 0-3.1212765zm-.9689362 4.8868085c-.0038298 1.8421276-.0038298 3.6842553-.0038298 5.5263829.3676596 0 .7353192 0 1.1029788.0038298 0-1.8382978 0-3.6727659-.0038298-5.507234-.2719149-.0076596-.8234043-.0153192-1.0953192-.0229787zm2.8148936.0114893c-.0038297 1.8382979-.0038297 3.6765958 0 5.5148936h1.099149c0-1.8382978 0-3.6765957 0-5.5148936-.2757447 0-.8234043 0-1.099149 0zm27.6012767-4.0442553c.570638-.3255319 1.141277-.6548936 1.715745-.9804255 1.145106 3.6574468 3.217021 7.0276595 6.139149 9.5323404-.482554.5591489-.961277 1.1144681-1.44 1.6697872-3.07532-2.7038298-5.250639-6.3076595-6.414894-10.2217021zm12.982979-.0651064c.551489-.3485106 1.102978-.6970213 1.658298-1.0455319.907659.9497872 1.777021 1.9455319 2.581276 2.9910638-.233617.1761702-.700851.5285107-.934468.7046809 1.700426.0076596 3.400851.0038298 5.105106.0038298.754469-1.1757447 1.44383-2.393617 2.048937-3.6497873.651063.2221277 1.302127.4519149 1.957021.6817022-.54 1.0225532-1.137447 2.0106383-1.784681 2.9680851h4.68v1.9685106c-5.993617-.0038298-11.991064 0-17.984681-.0038298 0-.6548936 0-1.3097872 0-1.9646808 1.654468 0 3.308936.0038298 4.963404 0-.727659-.919149-1.493617-1.8-2.290212-2.6540426zm51.150638-.9574468h2.075745v6.2617021h5.250638c0 .6702128 0 1.3404256.00383 2.0106383-1.754043 0-3.504256 0-5.254468 0v11.5238298c-.693192 0-1.386383 0-2.075745 0 0-3.8412766 0-7.6825532 0-11.5238298-1.849787 0-3.699575 0-5.549362 0-.00383-.6702127-.00383-1.3404255 0-2.0106383h5.549362c0-2.087234-.00383-4.174468 0-6.2617021zm-70.02383.2106383c.620426.252766 1.244681.5055319 1.865107.7582979-1.290639 3.7531915-3.094469 7.433617-5.966809 10.2370213-.5323404-.4595745-1.0646808-.9229788-1.5970212-1.386383 2.6923404-2.6540426 4.5421272-6.0319149 5.6987232-9.6089362zm39.351064.1302128c1.202553.953617 2.351489 1.98 3.41234 3.0944681-.451914.467234-.907659.934468-1.359574 1.4017021-1.030213-1.1680851-2.190638-2.2174468-3.42-3.1748936.455745-.4404256.90766-.8808511 1.367234-1.3212766zm19.876596 1.2293617c.463404-.4595745.926808-.919149 1.394042-1.3787234 1.233192.9727659 2.405107 2.0182978 3.492766 3.1557447-.455744.4710638-.907659.9382978-1.359574 1.4093617-1.072341-1.1719149-2.267234-2.2212766-3.527234-3.186383zm-98.2225534 1.1451064c-.0038298-.6434043-.0038298-1.2829788-.0038298-1.926383h8.9195744c-.3791489 2.8110638-.7659574 5.6182979-1.1412766 8.4255319h2.1370213c-.1034042 2.9604255.1340426 6.0280851-.7544681 8.892766-1.1757447 1.7731914-3.6651064 1.4285106-5.507234 1.3634042-.2068085-.6893617-.413617-1.3748936-.6204255-2.0604255 1.44.1302127 3.3051063.5438298 4.4157446-.6434043.7008511-1.7846808.4634043-3.7838298.5668085-5.6680851-2.5851063-.0038298-5.1740425-.0038298-7.7591489-.0038298.3829787-2.4357447.7621277-4.8753191 1.1412766-7.3110638.6434043.0344681 1.2868085.072766 1.9302128.107234-.3255319 1.7731915-.6510639 3.5502128-.972766 5.3234043h3.4276596c.3102128-2.1676596.6242553-4.3353192.9344681-6.4991489-2.2404256 0-4.4770213 0-6.713617 0zm23.1931914-1.1144681c.4672341-.3408511.9306383-.6855319 1.4017022-1.026383 1.007234 1.1910638 1.9493617 2.4357447 2.7842553 3.7531915-.5055319.3523404-1.0110638.7046808-1.512766 1.0608511-.8195744-1.3136171-1.7234042-2.5659575-2.6731915-3.7876596zm61.487234-.8731915c2.497021-.0038298 4.997872-.0038298 7.498723 0 .114894 1.6889362-.245106 3.4468085.19149 5.093617.808085.1723404 1.639149.1148936 2.462553.1340426-.00766.6165957-.00766 1.2293617-.00766 1.8459574-1.371063-.1225532-3.067659.3868085-4.166808-.666383-.850213-1.3289361-.333192-3.0217021-.471064-4.5038298-1.156596-.0038297-2.317021 0-3.473617-.0114893.172341 2.447234-1.210213 4.7221276-3.362553 5.8442553-.451915-.5170213-.9-1.0378723-1.351915-1.5548936 1.053192-.6089362 2.236596-1.3365958 2.546809-2.6042553.225957-1.1795745.111063-2.3859575.134042-3.5770213zm-30.117447 9.053617c2.332341-.9229787 4.557447-2.1561702 6.399575-3.8757447.421276.4825532.842553.9651064 1.267659 1.4476596-1.309787 1.1565957-2.730638 2.1714894-4.231915 3.06 4.358298-.0038298 8.716596 0 13.078724-.0038298-1.520426-1.0761702-3.113617-2.0374468-4.783404-2.8646808.34468-.5246809.693191-1.0531915 1.037872-1.5778724 2.278723 1.1144681 4.454042 2.412766 6.48383 3.9370213-.382979.5859574-.762128 1.1757447-1.145107 1.7655319-.501702-.3944681-1.003404-.7927659-1.501276-1.1910638-.00383 2.2365957 0 4.4731915 0 6.7097872h2.454893v1.9455319c-6.28851.0038298-12.580851 0-18.869361 0-.00383-.647234-.00383-1.2944681-.00383-1.9455319h2.604255c.00383-2.1523404.00383-4.3046808 0-6.4570213-.639574.306383-1.282979.612766-1.922553.919149-.291064-.6242553-.582128-1.2485107-.869362-1.8689362zm4.722128 2.5544681v4.8523404h2.029787c0-1.6161702 0-3.2323404.00383-4.8523404-.681702 0-1.359575 0-2.033617 0zm3.898723 0c-.003829 1.62-.003829 3.2361702 0 4.8523404h2.114043c0-1.6161702 0-3.2323404 0-4.8523404-.704681 0-1.409362 0-2.114043 0zm3.979149 0v4.8523404h2.056596c0-1.6161702 0-3.2323404 0-4.8523404-.689362 0-1.371064 0-2.056596 0zm8.47149-5.9017021h4.748936c0 3.0140425-.00766 6.0242553.00383 9.0382978.71617-.6242553 1.417021-1.2676595 2.117872-1.9110638.18.7123404.36 1.4246809.54383 2.1331915-1.390213 1.2408511-2.845532 2.3974468-4.388936 3.4391489-.241277-.5821276-.474894-1.1642553-.708511-1.7463829.210638-.4825532.505532-.9689362.474894-1.5204256.022978-2.4970213-.00383-4.9902127.003829-7.487234-.930638 0-1.861276 0-2.791915 0-.003829-.6472341-.003829-1.2982979-.003829-1.9455319zm21.186383-.0421277c1.627659 0 3.259149-.0038298 4.890638 0 .00383 3.0370213-.00383 6.0740426.00383 9.1110638.71234-.6204255 1.417021-1.2561702 2.114042-1.8995744.17617.6855319.352341 1.3748936.528511 2.0604255-1.371064 1.26-2.834043 2.412766-4.377447 3.4544681-.222128-.5629787-.494042-1.1144681-.639574-1.7042553.126383-.5361702.448085-1.0302128.436595-1.5970213.022979-2.4931915-.003829-4.986383.00383-7.4795745-.988085 0-1.97617 0-2.964255 0 0-.6510638 0-1.2982979.00383-1.9455319zm-61.314894 10.7655319c3.224681-2.4204255 4.534468-6.4531915 6.322979-9.9114893.647234.2297872 1.298298.4595744 1.949361.6893617-1.489787 3.1365957-3.159574 6.1965957-5.162553 9.0382978 2.918298-.2297872 5.825107-.5476595 8.724256-.9612766-.670213-1.313617-1.397873-2.6004255-2.179149-3.8527659.597446-.2029787 1.198723-.4097873 1.8-.612766 1.493617 2.3553192 2.818723 4.806383 3.95617 7.3531915-.628085.2834043-1.25617.5706383-1.884255.8540426-.291064-.6702128-.578298-1.3404256-.865532-2.0106383-4.082554.6012766-8.191915 1.007234-12.3089366 1.2829787-.1148936-.6242553-.233617-1.2485106-.3523404-1.8689362zm47.69234-8.1804255c3.43149.0038298 6.866809-.0076596 10.302128.0076596.283404 2.6425532-1.374894 4.9404255-3.079149 6.7748936 1.554894.9574468 3.201702 1.7425532 4.909787 2.3782979-.36.5821276-.72 1.1642553-1.08 1.7502127-1.868936-.7774468-3.665106-1.727234-5.315744-2.9029787-1.853617 1.2944681-3.944681 2.1868085-6.089362 2.88-.386809-.5591489-.769787-1.1221277-1.148936-1.6851064 1.960851-.6434042 3.887234-1.4208511 5.645106-2.52-1.286808-1.3557447-2.366808-2.9221276-2.952766-4.7106383-.402127-.0038298-.796595-.0038298-1.191064-.0076596-.003829-.6548936 0-1.3097872 0-1.9646808zm3.06 1.9838298c.601277 1.3442553 1.466809 2.5506383 2.53532 3.5617021 1.07234-1.0417021 1.97617-2.2404255 2.669361-3.5655319-1.734893-.0153192-3.469787-.0229787-5.204681.0038298zm-86.4919145 2.3591489c2.3706383 0 4.7412766 0 7.1157447-.0038298v1.8842553c-2.3706383 0-4.7451064 0-7.1157447 0 0-.6280851 0-1.2561702 0-1.8804255zm6.1659575 16.2268085c1.1987234-.3293617 1.8804255 1.0570213 2.7306383 1.6429787-.1148936.1110639-.3446809.3293617-.4595745.4365958-.7506383-.6970213-1.5395745-1.3557447-2.2710638-2.0795745zm6.4531915-.3446808h.6817021v3.6c1.0838298-.0038298 2.1676596-.0076596 3.2553191.0153191-.0229787.1531915-.0689361.4634043-.0957446.6204256-1.0531915-.0076596-2.106383-.0038298-3.1595745-.0038298-.0076596 2.1638298.0191489 4.3276595-.0191489 6.4953191-.1685107-.0076596-.4978724-.0191489-.6625532-.0268085 0-2.1561702 0-4.3123404 0-6.4723404-1.1451064-.233617-2.8378724.5821276-3.5846809-.5438298 1.1910638-.1225532 2.3897873-.0842553 3.5846809-.0842553 0-1.2025532 0-2.4012766 0-3.6zm26.1574465.0382978c.160851-.0114893.482553-.034468.643405-.0459574-.00766.9880851-.042128 1.9761702-.084256 2.9680851 1.673617-.0076596 3.351064-.0038298 5.024681-.0038298-.072766 2.0987234.080426 4.2548936-.486383 6.3-.36383 1.4744681-2.443404 1.746383-3.492766.8578724.934468-.2642554 2.362979.2221276 2.822553-.9038298.601277-1.8.37149-3.7531915.486383-5.6221277-1.470638-.0038298-2.945106 0-4.415744 0-.352341 2.1561702-.968937 4.4808511-2.7842557 5.8825532-.6740426.4519149-1.4361702 1.3902128-2.3017021.827234.9765957-.7468085 2.0948936-1.3480851 2.8455319-2.3438297 1.0072339-1.2331915 1.3021279-2.845532 1.5893619-4.3659575-1.3021279-.0038298-2.6004257 0-3.8987236-.0038298.0114893-.160851.0306383-.4825532.0421276-.6434042.3638298.0076595 1.0876596.0306383 1.4514894.0382978.2412766-.1953191.4825532-.3906383.7276596-.5859574-.5821277-.5438298-1.0914894-1.152766-1.6468085-1.7234043.1340425-.0842553.4021276-.2527659.5361702-.3370212.520851.5591489 1.0302127 1.133617 1.5587234 1.6889361-.0689362.2489362-.199149.7468085-.2680851.9957447.394468-.0229787 1.179574-.0689362 1.574043-.0919149.034468-.9651064.068936-1.926383.076595-2.8876596zm25.648085 2.1331915c.72766-.72.857873-2.0642553 1.98766-2.3055319-.145532.3982979-.294894.7965958-.444255 1.1910638 2.527659-.0153191 5.059149-.0038297 7.590638-.0076595l.00383.6204255c-2.7.0114894-5.39617-.0229787-8.092341.0191489-.183829.3982979-.367659.7965958-.455744 1.225532 2.527659-.2259575 5.066808-.0612766 7.602127-.1110639-.026808.8923405-.053617 1.7846809-.084255 2.6731915.635745.0880851 1.459149-.1570213 1.838298.5323404-.620426.0689362-1.240851.1187234-1.865107.1531915-.042127.7353192-.080425 1.4706383-.118723 2.2097873.455745-.0038298.919149-.0038298 1.378723-.0038298l.030639.6012766c-.451915-.0076596-.9-.0153192-1.344256-.0268085-.229787.6893617-.490212 1.6046808-1.367234 1.6506383-.834893.034468-1.949361.413617-2.52-.4212766 1.187234-.1838298 2.784256.3217021 3.331915-1.1221277-2.435744-.1838298-4.879149-.0421277-7.318723-.0842553.145532-.9497872.291064-1.8957447.436596-2.8417021-.666383 0-1.332766 0-1.999149 0-.015319-.1493617-.049788-.4480851-.068936-.5974468.70468-.0076596 1.409361-.0114894 2.117872-.0114894.053617-.773617.114893-1.5472341.187659-2.3170213-.796595-.18-1.344255.5285107-1.930212.9268085-.279575-.8731915.742978-1.3021276 1.102978-1.9531915zm1.44 1.2293617c-.045957.7046809-.091915 1.4093617-.134042 2.1140426 1.118298-.0689362 2.305532.1914894 3.381702-.1761702-.068936-.8042553-1.516596-.8272341-1.995319-1.5242553 1.06851.1263829 2.424255.4212766 2.902979 1.5165957.520851.3753192 1.26.1034043 1.868936.2029787.022978-.7123404.045957-1.420851.072766-2.1331915-2.033617 0-4.067234 0-6.097022 0zm-.513191 4.9710639c2.129362-.0038298 4.262553.0038298 6.391915-.0038298.042127-.7468085.080425-1.493617.122553-2.2442553-2.064255 0-4.128511 0-6.192766 0-.103404.7506383-.210638 1.4974468-.321702 2.2480851zm26.249362-3.7953192c2.121702-1.1642553 4.032766-2.6655319 5.518723-4.5880851l.436596.0421277c1.424681 1.9646808 3.450638 3.3051064 5.507234 4.5306383-.229787.0995744-.463404.1838298-.697021.2527659-2.002979-.9306383-3.737873-2.393617-5.05149-4.1629787-1.271489 1.6314894-2.811064 3.0829787-4.653191 4.0519149-.352341.3523404-.72766.0574468-1.060851-.126383zm19.79617-4.553617c.164681.0038298.497872.0076596.662553.0076596-.685532 4.0710638 1.834468 7.8893617 5.139574 10.0263829.042128.9574469-.961276.0382979-1.290638-.1761702-1.97617-1.4170212-3.381702-3.5042553-4.14383-5.794468-.827234 2.7191489-2.742127 5.0361702-5.200851 6.4340425-.953617-.126383.103405-.8578723.398298-1.0685106 1.845958-1.2446809 3.404681-3.0293617 4.025107-5.2008511.440425-1.3634043.390638-2.8110638.409787-4.2280851zm-117.1378725 2.5429787c-.8157447-.6319149-2.2557447-1.2102127-2.1906383-2.4204255.8617021.647234 2.0297872 1.2217021 2.1906383 2.4204255zm2.1331915-2.0451064c1.2868085.0038298 2.5774468.0038298 3.8642553 0 0 .9995745.0038298 1.999149.053617 2.9948937.5285106.034468 1.0570213.0612765 1.5855319.0842553-.0038298.1991489-.0114893.3982978-.0153191.593617-.6778724-.0880851-1.4514894.0919149-2.0565958-.2795745-.4097872-.8578723-.1455319-1.8727659-.2221276-2.7919149-.8425532 0-1.6812766 0-2.52-.0038298 0 1.4131915-.6625532 2.7114894-1.9072341 3.4046809-.0995745-.1110638-.2948936-.3293617-.3944681-.4404255 1.26-.7582979 1.7617022-2.1331915 1.6123405-3.5617022zm52.847234.7736171c.264255-.4136171.677872-.5974469 1.171915-.5093617 2.757447.0153191 5.511064-.0497873 8.264681.0421276-.850213 1.5970213-2.646383 2.3514894-4.032766 3.4161702-.099575 1.999149.222127 4.0557447-.164681 6.0204256-.877021.4863829-2.493192.6740425-3.113617-.2987234.857872-.0114894 1.719574.0076595 2.577447-.0344681.114893-1.9953192.038298-3.9982979.057447-5.9974468 1.25617-.7736171 2.466383-1.6123405 3.611489-2.539149-2.791915-.0612766-5.58766.1110639-8.371915-.0995744zm47.776596 2.3476595c.149361-.0957446.451915-.2948936.601276-.3906383.042128 2.4204256.068937 4.8485107-.003829 7.272766-.145532.0765957-.436596.2297872-.582128.3102128-.057447-2.3974469-.061277-4.7948937-.015319-7.1923405zm-105.9548939.0382979h2.412766c0 1.7923404.0038298 3.5808511-.0038298 5.3731915.5744681-.4634043 1.1489362-.9229787 1.7693617-1.3251064-.1187234 1.3519149-1.6123404 1.853617-2.5774468 2.52.2642553-1.9723404.126383-3.9638298.1570213-5.9476596-.5859575 0-1.1719149 0-1.7578724 0zm14.3923405-.0229787h2.4970212c0 1.7846808.0153192 3.5693617-.0114893 5.3578723.593617-.4748936 1.1948936-.9459574 1.8612766-1.3174468-.2987234 1.2829787-1.6314894 1.8497872-2.6119149 2.5391489.1953191-1.98.1034042-3.9753191.1225532-5.9591489-.6204256-.0038298-1.2370213-.0038298-1.8536171 0zm-10.3365958 1.6276596c1.9455319-.5438298 4.032766-.126383 6.0357447-.2336171-.2565958 1.4055319-1.1259575 2.5736171-2.0948936 3.5846809 1.0685106.6242553 2.2097872 1.1144681 3.3089361 1.6851064-1.3557446.6548936-2.627234-.8234043-3.8106383-1.3442554-1.133617.72-2.3514893 1.2868086-3.6268085 1.7080852-.0995744-.126383-.2910638-.379149-.3906383-.505532 1.1987234-.4289361 2.3629788-.934468 3.4582979-1.5893617-1.1834042-.9268085-1.493617-2.6387234-2.88-3.3051063zm1.4706383.3753191c.4825532.9574468 1.1259575 1.8229787 1.9034043 2.5621277.7582978-.7659575 1.4170212-1.6238298 1.9378723-2.5697873-1.2829787-.0114893-2.5621277-.0153191-3.8412766.0076596zm80.9080849-.7276596h10.842128l.015319.6280851c-3.619149.0038298-7.242128 0-10.861277.0038298zm-38.014468.6395745c.130213-.0765957.394468-.233617.528511-.3102128.601276.8770213 1.888085 1.62 1.899574 2.7153192-.107234.0114893-.321702.0306383-.428936.0382979-.666383-.8157447-1.305957-1.6544681-1.999149-2.4434043zm27.570638.9497872c1.034043.0765958 1.934043.6089362 2.830213 1.0761702-.042127.1378724-.122553.4136171-.160851.5553192-.9-.5285106-1.949362-.8502128-2.669362-1.6314894zm-45.3753187 3.2744681c-.3485107.5055319-.7276596.9957447-1.0302128 1.5280851 1.4208511-.0153191 2.2825532-2.6961702.6931915-2.9948936-.9114894.2680851-.3982979 1.3748936.3370213 1.4668085z" fill="#333"/><path d="m0 24.026383.24510638-.7008511c6.67531915-.0995745 13.35446812-.0153191 20.03361702-.0421276-2.2404255 2.2442553-4.4808511 4.4923404-6.7289362 6.7289361-2.2365957-.0076595-4.47319146-.0038298-6.7097872-.0038298 0 2.2404256-.00382979 4.4808511 0 6.7212766-2.29404255 2.2136171-4.42340426 4.5995745-6.84 6.679149zm22.733617-.7429787h20.1676596c0 6.7212766.0038298 13.4463829 0 20.1676595-2.213617-2.2863829-4.5842553-4.4310638-6.6982979-6.8055319-.0689361-2.2097872 0-4.4234042-.0229787-6.6370213-2.2404255 0-4.4808511 0-6.7212766 0-2.2442553-2.2404255-4.4846808-4.480851-6.7251064-6.7251063zm-22.733617 22.607234c2.35914894 2.16 4.54978723 4.4923404 6.83617021 6.7289362.00382979 2.2404255 0 4.4846808 0 6.7289361 2.25574468.072766 4.53063829-.1455319 6.77106379.1072341 2.2940426 2.1331915 4.4348937 4.427234 6.6714894 6.6178723-6.7595745-.0114893-13.51914893.0229787-20.2787234-.0191489zm36.18 6.7365957c2.2365957-2.2442553 4.4808511-4.4846808 6.7212766-6.7212766.0038298 6.7212766 0 13.446383 0 20.1676596-6.7212766 0-13.446383 0-20.1676596 0 2.2404256-2.2442553 4.4808511-4.4846808 6.7212766-6.7251064h6.7251064c0-2.2404255 0-4.480851 0-6.7212766z" fill="#4285f4"/></g></svg>