<svg height="90" viewBox="0 0 180 90" width="180" xmlns="http://www.w3.org/2000/svg"><g fill="#3b5998" fill-rule="evenodd" transform="translate(0 19)"><path d="m112.709924.02626108h10.446658c-.957217 5.86147281-2.150783 11.68749312-2.942554 17.58441842 4.207025-4.8451691 8.343145-9.73760805 12.739249-14.39369734 3.746143.05908743 7.480468.05908743 11.226611.10635737-4.786081 5.0578838-9.796695 9.89123537-14.523689 14.99638907 3.155268 6.5941569 6.286902 13.1883139 9.359448 19.8061057-4.006127.0118175-8.024072.0118175-12.0302.023635-2.505307-6.1214575-4.502462-12.4438122-7.303206-18.4352774-1.063574 6.133275-2.11533 12.2783675-3.226174 18.4116424-3.497975.0118175-6.984134.0118175-10.470292-.0118174 2.221688-12.703797 4.443375-25.4075939 6.724149-38.08775582z"/><path d="m10.8904694 5.52139184c4.7978991-3.16708612 10.978444-3.24980852 16.4853923-2.48167196 4.2779297.56723931 8.1658825 4.20702484 7.8822628 8.73312182-.4726994 8.8749316-3.4507057 17.4544261-3.7343254 26.3648101-3.0489113.0118175-6.1214575.2245322-9.1467338-.3190721.04727-.8981289.1181749-2.6825692.1536273-3.5806981-3.1670861 2.6352993-7.0314038 4.8097166-11.2975161 4.4906445-3.47434074-.1772623-7.77590546-1.0635737-9.30036109-4.6206368-2.06805997-5.2942335 1.1344786-11.2738812 5.44786081-14.4173323 4.34883468-3.3561659 10.08031518-3.3798009 15.30364368-3.8761353 3.698873.2836197 3.4034359-6.38144216.2718022-7.18503118-3.4743407-1.52445563-6.2159974 1.70171788-7.3977459 4.58518438-3.3207134.1181749-6.64142686.1418098-9.96214029.0945399 1.18174855-2.9189189 2.50530693-6.03873511 5.29423349-7.78772296zm2.9071015 18.21074516c-2.3162272 1.654448-3.2498086 5.6014881-.8981289 7.6222781 2.5407593 1.7608054 6.2278148.8390415 8.0122551-1.5717255 1.7135354-2.3398622 2.1271474-5.306051 2.9189189-8.0240727-3.3679833.2599847-7.1377612-.1063574-10.0330451 1.9735201z" fill-rule="nonzero"/><path d="m44.9366451 5.2259547c6.0032827-2.76529161 13.6255608-3.89977022 19.5815735-.46088193 2.7771091 1.63081299 3.0016413 5.06970128 3.4743408 7.91771533-2.9898239.0472699-5.9796477.0590874-8.981289.0236349-1.8435278-4.52609692-8.6385819-4.33701716-10.0212277.4963344 4.7388117 3.675238 11.5456833 3.3798009 15.7408907 7.9058978 2.7534741 2.7062042 2.5053069 7.2441186.4017945 10.2693949-2.895284 4.5970019-8.4731371 6.3696247-13.5782909 7.0904913-4.5260969.5081519-9.5367108.0709049-13.3537586-2.6234818-2.5289419-1.7253528-2.4698545-5.0342488-2.9189189-7.740453 3.0961812-.0236349 6.1923624-.0236349 9.2767261 0 1.1344786 1.6899005 2.0916949 4.0415801 4.502462 4.0533976 3.285261 1.0990261 8.6622169-2.2216873 5.8851078-5.8260204-4.5851844-3.0489113-11.2147938-2.1389649-14.9373017-6.6886968-3.5452457-4.8806215-.1299923-12.07747017 4.9278914-14.4173323z"/><path d="m82.1026371 7.36491958c2.5525768-1.93806763 5.2115111-4.05339753 8.4849545-4.53791444 5.3651385-.76813655 11.6874934 1.630813 13.6964654 7.01958639 3.178904 8.50858957.200898 18.75434947-6.3696243 24.85217197-5.5660357 5.0697013-16.2844951 6.0741876-20.44425-1.2881059-.8626764 5.7905679-2.0326075 11.5338659-2.9189189 17.3362513-3.4270708.0945398-6.8541416.1181748-10.2693949.0945398 2.4934895-15.7408907 5.9560127-31.3399715 7.8940803-47.15176712 3.4507058-.11817485 6.913229-.15362731 10.3639348-.12999234-.1063574.95721633-.3308896 2.8598315-.4372469 3.80523034zm4.1006674 2.74165662c-5.8023854 3.651603-7.6695481 11.852938-6.1805449 18.2343801 1.3117409 5.0815188 8.7922092 4.9278915 11.3802385.9808513 3.1552687-4.6324543 4.1597549-10.7302768 3.2970785-16.2017726-.7445016-3.76977786-5.5187657-4.50246196-8.4967721-3.0134588z" fill-rule="nonzero"/><path d="m146.578838 3.66604661c3.438888-.09453988 6.877777-.11817485 10.316665-.09453988-1.146296 6.68869677-2.44622 13.36557607-3.545246 20.07790787-.378159 2.7534741-.815406 6.6177919 2.1626 8.13043 4.337017 1.8553452 8.993106-1.9617026 9.77306-6.2278148 1.548091-7.2795711 2.576212-14.677317 3.994311-21.99234056 3.486158.01181749 6.984134.01181749 10.470292.01181749-2.008973 11.41569097-4.195208 22.79592957-5.826021 34.27070797-3.356165.5790568-6.783236.2836196-10.174855.2836196 0-.9335813 0-2.7889265-.011817-3.7225079-3.828865 3.0370938-8.744939 5.2469636-13.708283 3.9470402-4.218843-.6026918-8.437685-4.1243025-7.764088-8.7449393 1.016303-8.7094868 3.072546-17.2653463 4.313382-25.93938069z"/></g></svg>