<svg height="90" viewBox="0 0 180 90" width="180" xmlns="http://www.w3.org/2000/svg"><g fill-rule="evenodd" transform="translate(0 32)"><path d="m7.00239521 13.7065868 10.12455089-10.11377243c1.4239378-1.41635516 3.7245652-1.41635516 5.148503 0l.7868263.78682635 1.5772456-1.57724551-.7868264-.79041916c-2.2972235-2.29230905-6.0165489-2.29230905-8.3137724 0l-10.11736531 10.11736525z"/><path d="m20.5185629 6.92335329-1.5772455-1.57724551-10.12814375 10.12814372c-1.42469624 1.423704-3.73378089 1.4228997-5.15748496-.0017965-1.42370408-1.4246962-1.42289983-3.7337808.00179634-5.1574849l8.73772457-8.73772459-1.5772455-1.57724551-8.73772458 8.73772455c-1.51373967 1.47864015-2.11584327 3.65681845-1.57645238 5.70299585s2.13701128 3.6444885 4.18295533 4.1847637c2.04594406.5402753 4.22438237-.0608867 5.70367673-1.5739871zm10.0814371 1.81437126c-2.29804-2.29033408-6.0157325-2.29033408-8.3137725 0l-10.1281437 10.12814375 1.5772455 1.5772455 10.1281438-10.1281437c1.0433225-1.04125183 2.6108961-1.35201866 3.9725487-.78754604 1.3616526.56447264 2.2495871 1.89316954 2.2502057 3.36718674.003735.9701351-.385017 1.9005483-1.0778443 2.5796407l-8.7269461 8.7377245 1.5808383 1.5772456 8.7377246-8.7377246c2.292309-2.2972235 2.292309-6.0165489 0-8.31377245z" fill-rule="nonzero"/><path d="m25.6778443 12.0826347-10.1281437 10.1245509c-1.4260019 1.4215405-3.7332795 1.4215405-5.1592814 0l-.78682639-.7904191-1.5772455 1.5772455.78682634.7904191c2.29803995 2.2903341 6.01573245 2.2903341 8.31377245 0l10.1281437-10.1317365z"/><path d="m41.5688623 15.6179641c.1036187.6007372.430976 1.139914.9161676 1.508982.5565826.3850354 1.2246303.5757257 1.9005988.542515.6434273.0410133 1.2803875-.1488009 1.7964072-.5353294.4168007-.3467431.6501616-.8665014.6323354-1.4083832.0072331-.2501376-.0509743-.4978287-.1688623-.7185629-.1180916-.2003342-.2802811-.3711246-.4742515-.4994012-.2313621-.1536134-.4828426-.2745174-.7473054-.3592814l-.9988024-.3017964-.9520958-.2586826c-.5278221-.1398554-1.0414295-.3286993-1.5341317-.5640719-.422991-.2000196-.8140534-.4615349-1.1604791-.7760479-.3089744-.286891-.5538435-.6358294-.7185629-1.0239521-.17573-.4269874-.2613518-.8856755-.251497-1.34730539-.0050924-.51147095.1054442-1.01748251.3233533-1.48023952.2100719-.45035301.5211166-.84622819.9089821-1.15688623.4266659-.34149406.9143669-.59875636 1.4371257-.75808383.6108892-.19356964 1.2490804-.28699308 1.8898204-.27664671 1.3197604 0 2.3652694.31137724 3.1365269.93413174.7721896.62182374 1.2616526 1.52823678 1.3580838 2.51497006l-2.1556886.1760479c-.1066735-.49461062-.383933-.9359365-.7832335-1.24670659-.4840702-.32359872-1.0606701-.48005033-1.6419162-.44550898-.5484777-.03224246-1.0910231.12785287-1.5341317.45269461-.3588726.27969089-.5641008.71280237-.5532934 1.16766467-.0088524.23912477.0470043.47620547.1616766.68622757.1155684.1938662.2741396.3585836.4634731.4814371.2307814.1501157.4794134.2708109.7401197.3592814.291018.1077845.6215569.2227545.988024.3413174l.9125748.2838323c.5676647.1796408 1.0814372.3664671 1.5413174.5604791.4229151.179878.8165028.4220858 1.1676647.7185629.3164914.2679197.5693217.6029813.7401197.9808383.1848429.4458887.2730104.9259121.2586827 1.4083832.0059811.5639745-.1169029 1.121868-.3592815 1.6311377-.2337931.4891521-.575256.9190513-.9988024 1.2574851-.4551548.3598894-.9728001.6327189-1.5269461.8047904-.6313817.1963738-1.2897353.2921563-1.9508982.2838323-1.169289.0435651-2.322804-.2806254-3.2982036-.9269461-.9207358-.6663368-1.5170736-1.6906807-1.6419161-2.8203593zm16.6886227-9.37724554c.90375-.01169642 1.8009896.15432342 2.6407186.48862276.7669454.30717383 1.4591401.77517096 2.0299401 1.37245509.5727716.60901713 1.0164019 1.32762504 1.3041916 2.11257489.3159899.8628337.4730176 1.7757851.4634731 2.6946107.0129024.9356868-.1542021 1.865129-.4922156 2.7377246-.3150907.793093-.7909424 1.5123753-1.3976048 2.1125748l1.7101797 2.0011976v.6215569h-2.1556887l-1.1964071-1.4622754c-.4334275.2073832-.8874069.3687446-1.3544911.4814371-.5041901.1078006-1.0185531.1608029-1.5341317.1580838-.9140896.005506-1.8201941-.1703417-2.6658683-.5173652-.7626003-.3091355-1.4499443-.7783918-2.0155688-1.3760479-.5657936-.6062618-1.0022049-1.3213897-1.2826348-2.1017964-.3098366-.8543072-.4643658-1.7571471-.4562874-2.6658683-.0089863-.9146483.145538-1.8235434.4562874-2.6838323.2821798-.78307597.7224433-1.49972707 1.2934132-2.10538926.5693692-.59743283 1.2587219-1.067613 2.0227545-1.37964072.8348122-.33826561 1.7293381-.50446169 2.6299401-.48862276zm-.017964 1.92574851c-.5931792-.00914587-1.1809852.11356937-1.7209581.35928143-.4961136.22917697-.9344391.56682263-1.2826348.98802396-.3621013.44166697-.635381.94918654-.8047904 1.49461074-.1874173.6072763-.2795297 1.2399432-.2730539 1.8754491-.0062827.6410113.0895272 1.2789354.2838324 1.8898204.1740261.5503897.4494154 1.0633937.811976 1.5125748.3476272.4263236.785759.7699564 1.2826347 1.0059881.5394016.2474524 1.1276062.3702509 1.7209581.3592814.5928513.0057623 1.179932-.1168015 1.7209581-.3592814.4951339-.2242858.9334927-.5570456 1.2826347-.9736527.3667879-.4423295.642714-.9526707.8119761-1.5017964.1965429-.6252604.2935361-1.2775394.2874251-1.9329342.0054881-.645936-.0915258-1.2886536-.2874251-1.9041916-.1717417-.5459045-.4474656-1.05343156-.8119761-1.49461076-.352826-.41665472-.7932334-.75033387-1.2898203-.97724551-.5454054-.23883355-1.1364954-.3553347-1.7317365-.34131736zm14.9245509 9.57485033c.8085478.0497584 1.5977021-.2606423 2.1556886-.8479042.5101796-.5628743.7652694-1.4275449.7652694-2.594012v-7.81077845h2.2383234v7.88263475c.0176787.8075617-.1038581 1.6121355-.3592814 2.3784431-.2063815.6137991-.5547517 1.1702066-1.0167665 1.6239521-.4583501.433941-1.0139686.7517893-1.6203593.9269461-1.4106504.3901203-2.9007269.3901203-4.3113772 0-.6042134-.1752992-1.1574648-.4932031-1.6131737-.9269461-.4608566-.4546751-.8090429-1.0107888-1.0167665-1.6239521-.2552837-.7663411-.3768169-1.5708906-.3592814-2.3784431v-7.88263475h2.245509v7.81077845c0 1.1640719.2562874 2.0287425.7688623 2.594012.549961.5792119 1.3256966.8889811 2.1233533.8479042zm7.4011976.9413173 4.5449101-12.17964069h3.3700599l4.4946108 12.17964069v.6107785h-2.2095808l-1.2862276-3.6574851h-5.5437126l-1.3005988 3.6574851h-2.0838323zm4.0455089-4.9580838h4.2287426l-.697006-2.0335329c-.2730539-.794012-.4922156-1.4371258-.6610779-1.94371261-.1688622-.50658683-.3125748-.93772455-.445509-1.31856288h-.5497006l-.2155688.60718563c-.0718563.20119761-.1508982.42754491-.2407186.67544911-.0898203.24790419-.1868263.53532935-.2946108.85868265-.1077844.3233533-.2371257.6934132-.3916167 1.1209581zm20.9173656 5.5688623h-2.155689l-3.9053891-5.0299401h-1.4371258v5.0299401h-2.2131736v-12.80481018l4.1568862.00001973c.6227693-.00109433 1.2447863.04333543 1.8610783.13293414.572649.08303843 1.119167.29427662 1.598802.61796407 1.010778.66586826 1.516168 1.66946108 1.516168 3.01077844.010055.5198286-.078955 1.0368182-.262276 1.5233533-.155288.4096406-.388306.7853971-.686227 1.1065868-.284173.3018635-.618448.5522656-.988024.7401198-.370419.1893951-.762528.3329672-1.167665.4275449l3.682635 4.6347305zm-7.5053895-6.9556886h1.9437126c.7047489.0375183 1.4058019-.1243591 2.0227549-.4670659.50605-.3381753.789279-.9238818.740119-1.5305389.059985-.60346748-.232133-1.18770401-.750898-1.50179645-.6237-.31009733-1.316179-.45601256-2.0119759-.42395209h-1.9437126zm10.3580835-5.84910185h8.292216v1.96167665h-6.107785v3.3520958h5.669462v1.9257485h-5.658683v3.5928144h6.222754v1.9724551h-8.417964zm13.376048 9.12934135c.103619.6007372.430976 1.139914.916168 1.508982.556814.3845449 1.224692.5751868 1.900599.542515.643427.0410133 1.280387-.1488009 1.796407-.5353294.416801-.3467431.650161-.8665014.632335-1.4083832.007233-.2501376-.050974-.4978287-.168862-.7185629-.118092-.2003342-.280281-.3711246-.474252-.4994012-.231362-.1536134-.482842-.2745174-.747305-.3592814l-.998802-.3017964-.962875-.2658683c-.527822-.1398553-1.041429-.3286993-1.534131-.5640718-.422991-.2000196-.814054-.461535-1.160479-.7760479-.308975-.2868911-.553844-.6358295-.718563-1.0239521-.358656-.913583-.33274-1.93335843.071856-2.82754494.211273-.44961355.522119-.84523632.908982-1.15688623.426666-.34149406.914367-.59875636 1.437126-.75808383.610889-.19356964 1.24908-.28699308 1.88982-.27664671 1.319761 0 2.366467.31137725 3.14012.93413174.771164.62220405 1.259362 1.52867285 1.354491 2.51497006l-2.155689.1760479c-.104799-.49358742-.379427-.9347717-.776048-1.24670659-.483848-.32408606-1.060615-.48058302-1.641916-.44550898-.548478-.03224246-1.091023.12785288-1.534131.45269461-.357525.28043358-.561365.71342847-.549701 1.16766467-.009952.23879434.044659.475855.158084.6862275.115568.1938663.274139.3585836.463473.4814372.230781.1501157.479413.2708109.74012.3592814.291018.1077844.621556.2227545.991616.3413174l.908982.2838323c.57006.1796407 1.083833.3664671 1.541318.5604791.422915.179878.816503.4220858 1.167664.7185628.316492.2679198.569322.6029814.74012.9808384.184843.4458887.273011.9259121.258683 1.4083832.005981.5639745-.116903 1.121868-.359282 1.6311377-.232612.4898891-.57427.9200349-.998802 1.257485-.455932.3569945-.973477.6273355-1.526946.7976048-.632623.1963387-1.292153.2921161-1.954491.2838324-1.169231.0430797-2.322601-.2810698-3.298204-.9269461-.914555-.6644625-1.50776-1.6826892-1.63473-2.8059881zm10.785629-9.12934135h4.670659c.739988-.01910622 1.478054.08407739 2.184431.30538923.536764.16545033 1.028417.45183798 1.437126.83712574.359188.34944478.627992.78101048.783233 1.25748503.164679.50316902.245991 1.02987579.240719 1.55928145.014711.5965491-.097975 1.1893758-.330539 1.7389221-.209999.4805292-.537391.900579-.952096 1.2215569-.453793.3359382-.96882.580027-1.516168.7185629-.65828.1688826-1.336031.2498261-2.015569.2407186h-2.263473v4.9257485h-2.231137zm2.231138 5.95688625h2.137724c.361577.0026883.722558-.0298 1.077845-.097006.302392-.0566026.592072-.1673629.855089-.3269461.242076-.1514133.439297-.3647593.571258-.6179641.144668-.2972715.214947-.6252402.20479-.9556886.010682-.3385774-.059523-.67482168-.20479-.98083833-.128112-.25645848-.322968-.47365404-.564072-.62874252-.258571-.16071109-.544939-.27160261-.844311-.3269461-.355213-.06773195-.716246-.1002249-1.077845-.09700599h-2.173652zm7.702994 6.2371257 4.548503-12.17964069h3.37006l4.491018 12.17964069v.6107785h-2.191617l-1.282635-3.6574851h-5.565269l-1.282635 3.6574851h-2.087425zm4.049102-4.9580838h4.225149l-.697006-2.0335329c-.273054-.794012-.492215-1.4371258-.657485-1.94371261l-.445509-1.31856288h-.567664l-.215569.60718563c-.071857.20119761-.150899.42754491-.240719.67544911-.08982.24790419-.186826.53532935-.294611.85868265-.107784.3233533-.237125.6934132-.391616 1.1209581zm21.948502 2.1808383c-.202933.50096-.46852.9741894-.790419 1.4083833-.333833.4451253-.735065.8354469-1.189221 1.1568862-.492298.3458044-1.036966.6102533-1.613174.7832335-.661845.1982041-1.349874.2951096-2.040718.2874252-.892127.0135406-1.777515-.156444-2.601198-.4994012-.754207-.3146993-1.433638-.7847918-1.994012-1.3796408-.562989-.6084457-.996867-1.3246493-1.275449-2.1053892-.304769-.849221-.456815-1.7456843-.449102-2.6479042-.008092-.9022501.143965-1.7987797.449102-2.6479042.279117-.78423888.715596-1.50314581 1.282635-2.11257481.563734-.60118791 1.246493-1.07838481 2.00479-1.4011976.826319-.34747183 1.715672-.51995977 2.611976-.50658683 1.24676-.04432704 2.476684.29829457 3.520958.98083833.928186.63233932 1.631475 1.54321765 2.008383 2.6011976l-2.267065.44550901c-.28225-.6222756-.729576-1.15533966-1.293414-1.54131739-.595937-.38586519-1.295144-.58134246-2.00479-.56047904-.581958-.01273928-1.158882.11027222-1.68503.35928143-.484637.23774063-.91045.58010899-1.246707 1.00239521-.353147.44984944-.616603.96334329-.776047 1.51257489-.183449.6043874-.2743 1.233074-.269462 1.8646706-.00537.6356976.087956 1.2683775.276647 1.8754491.168999.543778.441005 1.0499777.801198 1.491018.351456.4141709.789225.7464828 1.282634.9736527.537207.2463975 1.122837.369171 1.713773.3592814.734329.0295158 1.457904-.1838948 2.058683-.6071856.529518-.3878916.960297-.8949793 1.257485-1.4802395zm3.014372-9.41676645h8.292215v1.96167665h-6.107784v3.3520958h5.680239v1.9257485h-5.669461v3.5928144h6.222755v1.9724551h-8.417964z" fill-rule="nonzero"/></g></svg>