<svg height="90" viewBox="0 0 180 90" width="180" xmlns="http://www.w3.org/2000/svg"><g fill="none"><g transform="translate(0 20)"><path d="m7.26967778 36.1623849c-6.02897071-11.2286628 9.02750642-35.32241359 22.58471582-36.14062623 13.5572093-.81821263 25.6151508 21.63911283 18.0869122 33.68598823s-34.6426573 13.6833007-40.67162802 2.454638z" fill="#fe840e"/><path d="m28.4783662 24.8017089c4.5598352 5.2662704 11.7881071 8.8561157 12.5498336 13.1557921.7617266 4.2996763-4.9430922 9.3091836-10.8254828 11.0147452-5.8823904 1.7055616-11.9423526.9167015-17.0146224-1.8608011-5.07226975-2.7775026-9.15684707-7.5436477-11.41533981-13.1457524-2.25849275-5.6021048-2.69090089-12.8496931.67394305-17.8432146 3.36484396-4.9935215 10.52693996-7.73297624 15.05368716-5.6313558 4.5267473 2.1016205 6.418146 9.0443161 10.9779812 14.3105866" fill="#c62168"/><path d="m38.6000706 31.5649524c0 5.984-5.2068571 8.5874286-10.8411428 8.5874286h-13.3668572v-30.4251429h13.1725715c2.8754285 0 5.8285714.9325714 7.6937143 2.8365714 1.2822857 1.3211429 2.0205714 3.2251429 2.0205714 5.2068572 0 3.0697143-1.9428572 5.3234285-4.8571429 6.528v.1165714c3.8857143.6217143 6.1782857 3.4971429 6.1782857 7.1497143zm-8.9371428-12.5508572c0-1.8651428-1.36-2.72-3.4971429-2.72h-4.352v5.4788572h4.4297143c2.2148572 0 3.4194286-1.0491429 3.4194286-2.7588572zm1.2822857 11.6571429c0-1.9428571-1.632-2.8365714-3.4971429-2.8365714h-5.6342857v5.712h5.6731429c1.9428571 0 3.4582857-.9325715 3.4582857-2.8754286z" fill="#fff"/></g><path d="m55 36.35h8.15c1.75 0 3.1.4 4.1 1.25.95.8 1.425 1.875 1.425 3.25 0 1-.25 1.85-.75 2.55-.5.65-1.175 1.15-2.075 1.475 1.175.225 2.075.7 2.675 1.425s.9 1.7.9 2.9c0 1.8-.625 3.1-1.85 3.95-1.05.7-2.525 1.05-4.425 1.05h-8.15zm2.725 2.25v5.325h4.7c1.25 0 2.15-.225 2.7-.65.55-.45.825-1.15.825-2.1 0-.9-.275-1.55-.825-1.95-.55-.425-1.45-.625-2.65-.625zm0 7.55v5.8h5.05c1.15 0 2.05-.2 2.7-.55.8-.475 1.225-1.225 1.225-2.25 0-1.05-.325-1.825-.95-2.3s-1.6-.7-2.9-.7zm14.5-10.15h2.65v18.2h-2.65zm11.9 4.925c1.95 0 3.525.65 4.7 1.95 1.15 1.275 1.75 2.9 1.75 4.875 0 1.95-.575 3.575-1.725 4.825-1.2 1.3-2.775 1.975-4.725 1.975s-3.525-.675-4.725-1.975c-1.15-1.25-1.725-2.875-1.725-4.825 0-1.975.575-3.6 1.75-4.875 1.175-1.3 2.75-1.95 4.7-1.95zm0 2.175c-1.225 0-2.175.475-2.85 1.45-.6.825-.875 1.9-.875 3.2s.275 2.35.875 3.175c.675.95 1.625 1.45 2.85 1.45s2.175-.5 2.875-1.45c.6-.85.9-1.9.9-3.175 0-1.3-.3-2.375-.9-3.2-.7-.975-1.65-1.45-2.875-1.45zm8.975-7.1h2.65v7.2c1.05-1.525 2.35-2.275 3.95-2.275 1.85 0 3.3.675 4.375 2.025.975 1.25 1.475 2.825 1.475 4.725 0 1.975-.5 3.6-1.5 4.85-1.1 1.35-2.575 2.025-4.475 2.025-1.775 0-3.1-.65-4-1.9v1.55h-2.475zm6 7.075c-1 0-1.8.375-2.4 1.175-.7.85-1.025 1.975-1.025 3.375v.225c0 1.3.275 2.35.825 3.175.625.9 1.525 1.375 2.675 1.375 1.3 0 2.25-.475 2.875-1.4.5-.8.775-1.9.775-3.325s-.275-2.525-.825-3.275c-.625-.9-1.6-1.325-2.9-1.325zm15.15-2.15c1.9 0 3.275.725 4.075 2.175.575-.8 1.2-1.375 1.85-1.7.6-.325 1.325-.475 2.2-.475 1.325 0 2.425.425 3.3 1.325.85.875 1.3 2.025 1.3 3.475v8.475h-2.65v-8.025c0-1.05-.225-1.825-.675-2.3-.45-.5-1.2-.725-2.2-.725-.75 0-1.35.275-1.85.825s-.75 1.325-.75 2.275v7.95h-2.65v-8c0-2.05-.9-3.05-2.65-3.05-.85 0-1.55.325-2.05.975-.55.625-.8 1.4-.8 2.3v7.775h-2.65v-12.925h2.65v1.425c1.05-1.2 2.25-1.775 3.55-1.775zm21.55 0c1.9 0 3.3.475 4.2 1.425.775.825 1.175 2.025 1.175 3.6v8.25h-2.45v-1.825c-.5.65-1.125 1.175-1.875 1.55-.85.4-1.85.625-3 .625-1.35 0-2.4-.35-3.15-1.025-.825-.675-1.225-1.55-1.225-2.625 0-1.45.575-2.575 1.725-3.35 1.05-.75 2.55-1.125 4.45-1.175l2.9-.075v-.525c0-1.8-.975-2.7-2.925-2.7-.825 0-1.5.15-2 .45-.6.35-.975.875-1.125 1.6l-2.625-.225c.275-1.4.975-2.45 2.075-3.1.95-.6 2.25-.875 3.85-.875zm2.75 7.3-2.725.075c-2.425.05-3.625.9-3.625 2.5 0 .5.2.9.625 1.225.4.325.95.5 1.625.5 1.125 0 2.075-.35 2.875-1.025s1.225-1.525 1.225-2.525zm5.65-12.225h2.65v10.6l5.6-5.325h3.425l-5.725 5.325 6.225 7.6h-3.4l-4.65-5.9-1.475 1.375v4.525h-2.65zm19.15 4.925c2.1 0 3.725.7 4.825 2.15 1 1.3 1.525 3.1 1.55 5.4h-9.8c.1 1.25.425 2.225 1.025 2.9.6.65 1.425 1 2.475 1 .925 0 1.675-.225 2.25-.65.45-.35.825-.925 1.175-1.675h2.65c-.3 1.2-.875 2.225-1.775 3.025-1.125.975-2.55 1.475-4.275 1.475-1.9 0-3.425-.6-4.525-1.775-1.2-1.25-1.8-2.925-1.8-5.05 0-1.925.55-3.525 1.7-4.825 1.1-1.325 2.625-1.975 4.525-1.975zm.075 2.175c-1 0-1.775.275-2.375.875-.55.575-.925 1.4-1.075 2.5h6.975c-.25-2.25-1.425-3.375-3.525-3.375zm14.55-2.175c.65 0 1.225.1 1.675.325v2.65c-.65-.2-1.275-.275-1.875-.275-.8 0-1.525.325-2.15.975-.675.7-1 1.625-1 2.75v6.85h-2.65v-12.925h2.65v1.95c.325-.7.75-1.225 1.25-1.575.6-.5 1.3-.725 2.1-.725z" fill="#000"/></g></svg>