<svg height="90" viewBox="0 0 180 90" width="180" xmlns="http://www.w3.org/2000/svg"><g fill="#3074e6" fill-rule="evenodd" transform="translate(0 20)"><path d="m19.0358491 2.87169811c-.5396227-1.18679245.435849-2.67924528 1.7150943-2.74528302 1.1792453-.13584905 2.2641509.96603774 2.2 2.13396227.0867924.61320755-.3490566 1.0735849-.6735849 1.53396226-.0962264.6.0735849 1.21886793.3037736 1.77358491 2.0075471.02641509 4.0509434-.0245283 6 .53207547-.1113208.66981132-.209434 1.34339623-.354717 2.00754717-.8679245.03962264-1.6886793-.30188679-2.5490566-.31509434-1.7981132-.08490566-3.6226415-.1245283-5.3924528.25660377-1.7396227.2509434-3.3773585.91509434-5 1.55849057-.3452831-.62641509-.6792453-1.26226415-.9113208-1.93962264.745283-.28679245 1.4886793-.57924528 2.2301887-.87358491 1.1396226-.45094339 2.3641509-.60566037 3.5377358-.93962264-.0056603-.58113207.0377359-1.17735849-.1075471-1.74716981-.2981132-.43773585-.854717-.68490566-.9981132-1.23584906z"/><path d="m35.5981132 9.12264151c.0849057-.00377359.2528302-.01320755.3358491-.01886793.4773585.36037736.9603773.71320755 1.445283 1.06226412.8754717.6113208 1.5679245 1.4433963 2.445283 2.054717.4622642-.4283019 1.0660377-.7867924 1.2264151-1.4396226.2188679-.7811321.9849057-1.34528304 1.7962264-1.31509436.8754717-.02830189 1.6264151.79811316 1.5943396 1.65849056.0886793 1.090566-1.0471698 1.9566038-2.081132 1.8056604-.3301887.3962264-1.3075472.7622641-.8415095 1.3773585.9339623 1.2773585 1.7924529 2.6226415 2.4037736 4.0886792-.6716981.2830189-1.3113207.7056604-2.054717.7716981-1.0622641-2.1773585-2.4075471-4.2471698-4.2150943-5.8792453-.890566-1.0056603-2.0867925-1.6471698-3.0924528-2.5207547.3509434-.545283.6981132-1.0924528 1.0377358-1.64528299z"/><path d="m58.3792453 9.92264151c2.4641509-.79622642 5.2094339-.56226415 7.5886792.40943399-.035849 1.681132-.0641509 3.3622641-.1 5.045283-1.5075471-.554717-3.2094339-1.1603774-4.7886792-.5188679-.7905661.2641509-1.4283019.9377358-1.5509434 1.7754717-.1509434 1.1301886-.0528302 2.2754717-.0792453 3.4113207 2.1735849.0018868 4.345283-.0018868 6.5188679.0018868 0 1.6509434 0 3.3018868-.0018868 4.9528302-2.1716981.0018868-4.345283 0-6.5169811.0018868-.0018868 5.2509434 0 10.5018868-.0018868 15.7528302-1.8471698 0-3.6962264 0-5.5433962 0-.0037736-5.2528302.0018868-10.5037736-.0037736-15.754717-1.2962264 0-2.5924528.0018868-3.8886792-.0018868 0-1.6509434-.0018868-3.3 0-4.9509434 1.2962264 0 2.5924528-.0018868 3.8867924 0 .0358491-1.7924528-.1264151-3.6283019.3867925-5.3716981.545283-2.0830189 2-4.045283 4.0943396-4.75283019z"/><path d="m152.50566 9.67924528c1.764151-.36981132 3.649057.81509432 4.164151 2.52075472.318868 1.154717.143397 2.5132075-.690566 3.4150943-.949056 1.0905661-2.581132 1.4698114-3.937736 1.0113208-1.315094-.4018868-2.335849-1.6396226-2.386792-3.0283019-.218868-1.7830189 1.09434-3.5698113 2.850943-3.91886792z"/><path d="m21.2264151 10.1471698c3.3962264-.50377357 6.9528302-.0698113 10.0754717 1.3811321 4.1603774 1.8849056 7.5075472 5.4792453 9.1150943 9.7509434.5754717 1.7 1.1320755 3.5188679.9301887 5.3188679-2.8301887 2.4811321-6.4377358 3.864151-10.0226415 4.8584906-2.5358491.645283-5.1283019 1.1207547-7.7415094 1.290566-2.1207547.2981132-4.2698114.1490566-6.4056604.2018868-2.9339623-.3132075-5.9528302-.3528302-8.75849058-1.3773585-.59056603-.2320755-1.23962264-.4415094-1.69433962-.8981132-1.16981132-5.1226415.34905661-10.7433962 3.8566038-14.6433962 2.7132075-3.1264151 6.5471698-5.2622642 10.645283-5.8830189zm-4.7075472 8.0943396c-2.3396226.4716981-4.2094339 2.7415095-4.1301887 5.1471698-.1132075 2.6528302 2.1528302 5.0811321 4.773585 5.2849057 2.9509433.3716981 6.0283018-2.2320755 5.8018867-5.2754717.0622642-1.945283-1.1622641-3.7660377-2.8377358-4.6792453-1.0867925-.6226415-2.3981132-.6415094-3.6075472-.4773585zm13.9433963.164151c-1.7207548.3943396-3.109434 2.0528302-3 3.8509434-.0528302 1.7094339 1.2339622 3.3396226 2.9037735 3.6962264.9.0981132 1.8735849.1490566 2.709434-.2622642 1.2849057-.6075471 2.2811321-1.9566037 2.1528302-3.4245283.1132075-2.4056603-2.4132076-4.535849-4.7660377-3.8603773z" fill-rule="nonzero"/><path d="m159.654717 9.95283019c1.881132 0 3.760377-.00188679 5.641509 0 .009434 5.85660381-.01132 11.71132071.009434 17.56603771 2.430189-2.2773585 4.832076-4.5849056 7.24151-6.8830188.3-.2622642.575472-.6716982 1.032075-.5924529 2.133963.0037736 4.269812.0018868 6.405661.0037736-3.330189 3.2509434-6.692453 6.4698113-10.013208 9.7301887 3.345283 3.6509434 6.675472 7.3169811 10.013208 10.9754717-2.267925.0056604-4.535849-.0018868-6.803774.0037736-2.628302-2.7830189-5.254717-5.5679246-7.884906-8.3509434.001887 2.7830188.001887 5.5660377 0 8.3490566-1.881132 0-3.762264.0018868-5.641509-.0018868.001887-10.2660377-.001887-20.5320755 0-30.80000001z"/><path d="m7.52075472 12.8169811c.17735849-.1867924.3245283-.435849.58490566-.5150943.60188679.3660377 1.03396226.9471698 1.49622641 1.4660377-2.03773585 2.2792453-3.69811321 4.9320755-4.5735849 7.8792453-.2.7-.3018868 1.4358491-.63207547 2.0943396-.68301887-.1396226-1.37358491-.2547169-2.04339623-.4509434.21698113-.790566.34339623-1.6037735.5735849-2.390566.27358491-.8471698.66226416-1.6509434.94150944-2.4943396-.50377359-.2622642-.99811321-.6660378-1.6-.6056604-.6264151.0396226-1.32075472-.0830189-1.7264151-.609434-.79622641-.8113207-.43018867-2.4.67358491-2.7301886.97358491-.3415095 2.05471698.3283018 2.32075472 1.2981132.4245283.2320754.84339622.5037736 1.32075471.6132075.43962265-.4641509.7264151-1.0433962 1.08679246-1.5660377.45471698-.7169812 1.04150943-1.3320755 1.57735849-1.9886793z"/><path d="m77.7283019 19.6075472c1.6056604-.3018868 3.3528302-.1132076 4.6830189.9-.9660378 1.4962264-1.9339623 2.9924528-2.9150944 4.4792453-1.5301887-.3132076-3.3490566-.2358491-4.5245283.9226415-.9830189.8792452-1.3056604 2.2471698-1.3150943 3.5188679-.009434 3.7754717 0 7.5509434-.0037736 11.3264151-1.8811321 0-3.7622642.0018868-5.6433962-.0018868.0018868-6.9018868 0-13.8037736 0-20.7056604 1.8150943-.0018868 3.6320754 0 5.4471698 0 .0018868.7396227.0056604 1.4792453-.0037736 2.2207547.9792453-1.4264151 2.545283-2.4528302 4.2754717-2.6603773z"/><g fill-rule="nonzero"><path d="m84.0415094 22.5245283c1.7792453-1.8735849 4.3509434-2.8679245 6.9132076-2.9320755 2.854717-.1415094 5.8830188.7735849 7.8283019 2.9471698 2.4433961 2.5735849 3.1471701 6.3377359 2.7924531 9.7716982-4.8981135.0037735-9.7981135-.0056604-14.6962267.0037735.2660377 1.6245283 1.2735849 3.1584906 2.8283019 3.7981132 2.581132 1.0566038 5.5830188.2132076 7.6830188-1.4886792 1.1056604 1.1735849 2.2 2.3603774 3.307547 3.5358491-2.8452828 2.6433962-6.9471696 3.581132-10.7320753 3.0735849-2.4245283-.318868-4.7283019-1.5132076-6.3396226-3.3584906-2.0018868-2.2150943-2.7603774-5.3283019-2.5320755-8.254717.1132076-2.6094339 1.0716981-5.235849 2.9471698-7.0962264zm5.5358491 2.1471698c-1.5320755.6-2.3943396 2.1792453-2.7037736 3.7207547 3.054717.0056604 6.1075472.0037736 9.1622642.0018868-.3018868-1.3283019-.9113208-2.7245283-2.1566038-3.4150943-1.2792453-.7867925-2.9169811-.809434-4.3018868-.3075472z"/><path d="m106.428302 22.2754717c1.95283-1.9584906 4.798113-2.8037736 7.520755-2.6867925 2.603773.054717 5.266037 1.0509434 7.003773 3.0433963 2.377359 2.5754717 3.058491 6.2867924 2.705661 9.6792453-4.898114.0018867-9.796227-.0037736-14.696227.0037735.269811 1.6301887 1.279245 3.1735849 2.84717 3.8037736 2.577358 1.0471698 5.567924.2037736 7.664151-1.4943396 1.107547 1.1754717 2.201887 2.3603774 3.307547 3.5358491-2.924528 2.7150943-7.167924 3.6339622-11.043396 3.0264151-2.309434-.3754717-4.488679-1.5566038-6.003774-3.3490567-1.95849-2.2301886-2.683019-5.3226415-2.456604-8.2320754.111321-2.7150944 1.145284-5.4490566 3.150944-7.3301887zm4.183019 3.0509434c-.932076.7584906-1.386793 1.9283019-1.65283 3.0660377 3.05283.0056604 6.107547.0037736 9.162264.0018868-.258491-1.0735849-.666038-2.1754717-1.5-2.9377358-1.64151-1.4471698-4.303774-1.4962264-6.009434-.1301887z"/><path d="m135.818868 19.7849057c2.941509-.609434 6.192453.1320754 8.415094 2.2 2.132076 1.8641509 3.350944 4.6339622 3.498113 7.4415094.2 2.5811321-.322641 5.2867924-1.81132 7.4396226-1.5 2.2584906-3.932076 3.9754717-6.656604 4.3018868-2.009434.2622642-4.181132.0169812-5.907547-1.1132075-.615095-.3811321-1.128302-.8962264-1.624529-1.4132076.003774 3.5660378 0 7.1301887.001887 10.6962264-1.850943 0-3.7.0113208-5.549056-.0056603.009434-9.7622642 0-19.5245283.003773-29.2849057 1.816981 0 3.632076-.0018868 5.44717 0 0 .7849057.003774 1.5698113-.001887 2.354717 1.04717-1.3113208 2.518868-2.309434 4.184906-2.6169811zm-.258491 5.0528301c-1.996226.3377359-3.537735 2.0716982-3.945283 4.0113208-.401886 1.9188679-.092452 4.1188679 1.277359 5.6018868 1.841509 2.0471698 5.349056 2.1754717 7.369811.3245283 2.6-2.2735849 2.458491-6.845283-.150943-9.0603774-1.292453-.9566037-2.99434-1.2528301-4.550944-.8773585z"/></g><path d="m150.5 20.0622642c1.850943-.0358491 3.701887-.0075472 5.55283-.0150944.003774 6.9018868.001887 13.8037736.001887 20.7075472-1.849057 0-3.696226 0-5.545283 0-.007547-6.8981132.013208-13.7962264-.009434-20.6924528z"/><path d="m28.4433962 34.3c4.2698113-.8037736 8.4981132-2.1433962 12.2245283-4.4169811.0075472.2396226-.0037736.4849056-.0962264.7094339-2.1471698 6.8207547-8.9037736 11.9018868-16.0566038 12.0396227-1.0018868.1830188-2.0056603-.0566038-3.0113207-.0660378-3.3735849-.3679245-6.5924528-1.7943396-9.2339623-3.9094339-1.5622641-1.3584906-3.06226413-2.8924529-3.92830187-4.7981132 1.00566038.1773585 1.96792457.545283 2.98113207.6849056 5.6679245.8905661 11.4754717.7320755 17.1207547-.2433962z"/></g></svg>