<svg height="90" viewBox="0 0 180 90" width="180" xmlns="http://www.w3.org/2000/svg"><g fill="none"><g fill="#085586" transform="translate(20 22)"><path d="m.28466667 0h22.76866663c-2.0253333 12.8146667-4.3306666 25.5873333-6.4866666 38.3833333 1.6706666 0 3.3413333-.0046666 5.012 0 2.2166666-12.782 4.3353333-25.5826666 6.58-38.35999997 4.844.02333334 9.6926666.07 14.5366666-.02333333h.4853334c-2.5246667 15.0126667-5.138 30.0113333-7.6673334 45.024-.1073333.5506667-.2286666 1.0966667-.3733333 1.6426667h-34.94866667c2.044-13.1086667 4.42866667-26.1706667 6.62666667-39.2606667-2.27266667-2.38933333-4.22333333-5.054-6.53333333-7.406z"/><path d="m48.2906667 0h13.3186666c-.2053333 2.324-.6813333 4.61066667-1.0826666 6.902-4.4893334-.02333333-8.9833334.00466667-13.4726667-.014.434-2.29133333.7326667-4.61066667 1.2366667-6.888z"/><path d="m66.696.06533333c4.5546667-.03733333 9.1093333-.00933333 13.6686667-.014-.4433334 2.282-.7513334 4.58266667-1.2086667 6.86-4.5313333-.03266666-9.0626667-.028-13.594 0 .3686667-2.282.8166667-4.55466666 1.134-6.846z"/><path d="m85.3626667.06066667c4.55-.02333334 9.0953333-.01866667 13.6453333 0-.4293333 2.27733333-.742 4.578-1.1993333 6.85066666-4.5406667-.07466666-9.086.06066667-13.6266667-.07.4806667-2.24466666.8166667-4.51733333 1.1806667-6.78066666z"/><path d="m104.034.06533333c11.988667-.03733333 23.972667-.00933333 35.961333-.01866666-.681333 5.292-1.75 10.52333333-2.580666 15.79200003-9.734667-.028-19.469334-.0466667-29.199334.0046666-.522666.5086667-.345333 1.4746667-.546 2.1653334 9.8-.042 19.604667.0046666 29.404667-.0233334-.378 2.184-.788667 4.3633334-1.134 6.5566667-12.012.014-24.024 0-36.036.0046667.816667-5.1753334 1.75-10.332 2.622667-15.5026667 9.184.02333333 18.368-.00933333 27.552.01866667.14-.72333334.28-1.44666667.415333-2.17466667-9.212-.00466667-18.424.03266667-27.631333-.01866667.452666-2.25866666.816666-4.53133333 1.171333-6.804z"/><path d="m46.676 9.06266667c4.55-.028 9.1-.00466667 13.6546667-.00933334-2.2026667 12.52999997-4.2373334 25.08799997-6.482 37.61333337h-13.566c2.1093333-12.5393334 4.2933333-25.0646667 6.3933333-37.60400003z"/><path d="m65.1933333 9.04866667c4.536.00466666 9.072.00466666 13.608 0-2.114 12.54400003-4.27 25.07866663-6.4166666 37.61800003h-13.5566667c2.0206667-12.5533334 4.2606667-25.074 6.3653333-37.61800003z"/><path d="m83.8553333 9.044c4.536.014 9.0766667.00933333 13.6126667.00466667-2.142 12.53933333-4.2653333 25.08333333-6.4306667 37.61800003h-13.5473333c2.0066667-12.558 4.2513333-25.0786667 6.3653333-37.6226667z"/></g><g fill="#16ace4" transform="translate(115.666667 48.133333)"><path d="m3.878.182c4.27933333.06066667 8.5586667-.06533333 12.838.06066667 1.498.07466666 3.3926667 1.26466666 2.94 2.99133333-1.064 5.76333333-2.016 11.55-3.1686667 17.2993333h-16.28666663c1.18533333-6.79 2.38-13.57999997 3.67733333-20.3513333z"/><path d="m26.32.21c4.522-.04666667 9.0486667 0 13.5706667-.01866667-1.316 6.77133334-2.3753334 13.58933337-3.7566667 20.34199997h-17.332c.9146667-5.712 2.044-11.3913333 3.024-17.0893333.2613333-2.11866667 2.5853333-3.16866667 4.494-3.234z"/></g></g></svg>