<svg height="90" viewBox="0 0 180 90" width="180" xmlns="http://www.w3.org/2000/svg"><g fill="none" fill-rule="evenodd"><path d="m0 28h33v33h-33z"/><g transform="translate(3.4375 29.375)"><path d="m18.90625 3.609375v22.6875c0 2.5385937 1.7514063 3.953125 3.609375 3.953125 1.71875 0 3.609375-1.203125 3.609375-3.953125v-22.515625c0-2.3271875-1.71875-3.78125-3.609375-3.78125s-3.609375 1.60359375-3.609375 3.609375z" fill="#f9ab00"/><g fill="#e37400"><path d="m9.453125 15.125v11.171875c0 2.5385937 1.7514063 3.953125 3.609375 3.953125 1.71875 0 3.609375-1.203125 3.609375-3.953125v-11c0-2.3271875-1.71875-3.78125-3.609375-3.78125s-3.609375 1.6035937-3.609375 3.609375z"/><circle cx="3.609375" cy="26.640625" r="3.609375"/></g></g><text fill="#333" font-family="PingFangSC-Semibold, PingFang SC" font-size="20" font-weight="500" letter-spacing="-1"><tspan x="34" y="51">Google Analytic</tspan> <tspan x="169.44" y="51">s</tspan></text></g></svg>