<svg height="90" viewBox="0 0 180 90" width="180" xmlns="http://www.w3.org/2000/svg"><g fill="#f06373" fill-rule="evenodd" transform="translate(0 20)"><path d="m18.216996 3.40790514c-.3343873-1.28063241.3166008-2.82450593 1.7252965-3.02371542 1.6826087-.35928853 3.144664 1.75019763 2.1628458 3.18379447-.66166 1.21660079-2.2517786 1.26996047-3.315415.57628458-4.7596838 3.39011858-9.49446638 6.81581033-14.2328063 10.23794463.37351778 1.3909091-.43043479 2.6822135-1.74308301 3.1482214 2.18063241 6.8086956 4.37905139 13.6102767 6.54189724 20.4260869.78260867.1743083 1.67549407.3877471 2.08102767 1.1632411.8075099 1.2130435-.0924901 3.0023716-1.50474309 3.1873518-1.35177866.2490119-2.68221344-1.0743083-2.43675889-2.4260869.06047431-.672332.62964427-1.1169961 1.01383399-1.6150198-2.24110672-6.9474308-4.43952569-13.9090909-6.7055336-20.8458498-1.01383399-.6011858-1.86758893-1.8142292-1.25573122-3.0023715.58339921-1.3375494 2.30513834-1.5509882 3.43280632-.7754941 4.76324111-3.3865613 9.49446639-6.8193676 14.23636359-10.23438736z"/><path d="m17.9750988 10.8996047c2.4438735-.3948616 5.0549407-.3023715 7.3245059.7683795 1.9992095.9391304 3.5288538 2.870751 3.9166008 5.0513834-.0604743 1.3019763-1.9245059 1.7608696-2.813834.9818182-.6581027-.9035573-.843083-2.1237154-1.7288537-2.8778656-2.0703557-1.8071147-5.3003953-1.753755-7.701581-.6652174-2.1913044.9924901-2.7960475 4.2011857-1.1916996 5.9549407 1.2806324 1.2521739 3.1482213 1.5083004 4.8237154 1.8747035 2.5505929.5335969 5.2897233.9996048 7.3671936 2.7 2.1237155 1.7786562 2.483004 4.9375494 1.7501977 7.4739131-.8003953 2.689328-3.4007905 4.432411-6.0652174 4.9090909-2.7782609.4802371-5.7664032.3841897-8.3667984-.8003953-2.2660079-1.0351778-3.7209487-3.3332015-4.226087-5.7094861-.2241107-1.4976285 2.0347826-2.1735178 2.9418972-1.1525692.5478261 1.0280632.7328064 2.2411067 1.4976285 3.155336 1.1134387 1.4371541 3.0130435 1.9387351 4.7525692 2.0063241 1.8498023.056917 3.873913-.2418973 5.2897233-1.5367589 1.9280632-1.7395257 1.7750988-5.4853755-.6936759-6.6664032-3.2513834-1.6043478-7.1466403-1.3197628-10.2948617-3.1944664-3.656917-2.1094862-3.8205533-8.043083-.5513834-10.5758893 1.1347826-.9249012 2.5434783-1.4442688 3.9699605-1.696838z"/><path d="m32.4711462 12.1233202c.0177866-1.5225297 2.8743083-1.5758894 2.8920949-.0355732.0853755 4.9055336.0071146 9.8146245.0355731 14.7237155 2.6679842-2.6395257 5.3003953-5.3252965 7.9932807-7.9434783.7790513-.9355731 2.2873517-.341502 2.529249.7541502.2703557.6901186-.3450593 1.2272727-.7790514 1.6648221-1.7146245 1.5972332-3.4256917 3.1980237-5.1367589 4.7952569 2.1343873 2.8778657 4.3150198 5.7166008 6.4351779 8.6015811.8750988.9177865-.1209487 2.4403162-1.2806324 2.3300395-.7826087.0462451-1.241502-.6687747-1.6470356-1.2166008-1.8604743-2.6288538-3.7422925-5.2434783-5.6134388-7.8652174-.8359683.8003953-1.6719367 1.6043478-2.5043478 2.4083004-.0320158 1.8675889.0747036 3.7387352-.046245 5.6027668-.0924902 1.1347826-1.6470356 1.3233202-2.4332016.8039526-.5869565-.4304348-.4446641-1.2450593-.4873518-1.8747036.0426877-7.5806324-.0498024-15.1683794.0426877-22.7490118z"/><path d="m94.0802372 12.4541502c-.23834-1.515415 2.1130434-2.0205534 2.803162-.8501976.2952569 1.2023715.0960474 2.4652174.1458498 3.6924901-.0640316 2.2909091.170751 4.603162-.1956522 6.8762846.7505929-1.5225297 1.8960475-2.9525692 3.5395262-3.553755 1.995652-.7256917 4.368379-.7079051 6.243083.3592886 1.789328 1.0458498 2.532806 3.1980237 2.568379 5.1758893.035573 1.9067194.056917 3.8134387 0 5.7201581.113834 1.572332-2.639526 1.8-2.906324.3379447-.234783-2.2268775.163636-4.4928854-.245455-6.7055336-.22411-1.2770751-1.223715-2.4225297-2.543478-2.6003953-3.212253-.6296443-6.3747035 2.244664-6.4422924 5.4213439-.0782609 3.1909091.0604743 6.3889328-.056917 9.5762846-.067589 1.5652174-2.8956522 1.4549407-2.8885376-.0924901-.0711462-7.7833993-.0249012-15.5739131-.0213438-23.3573123z"/><g fill-rule="nonzero"><path d="m114.57747 11.7498024c.544269.0142292 1.092095.0249012 1.643479.0391304 1.326877 3.6533597 2.678656 7.3031621 3.977075 10.970751-.451779.0035573-.9.0106719-1.348222.0142292-.433992-1.1027668-.828853-2.2197628-1.220158-3.3332015-1.490514-.0284585-2.981027-.0142293-4.471541-.0249012-.458894 1.0992095-.853755 2.2233201-1.23083 3.3545454-.469565-.0071146-.935573-.0106719-1.401581-.0142292 1.305533-3.6818182 2.660869-7.3529644 4.051778-11.0063241zm-1.028063 6.4529644c1.1917.1067194 2.386957.0996047 3.585771.0711462-.51581-1.6612648-1.152569-3.2798419-1.711067-4.9233201-.803953 1.5438735-1.216601 3.2478261-1.874704 4.8521739z"/><path d="m120.83834 11.7711462c1.8.1351779 3.678261-.2596837 5.432016.2774704 2.180632.6794466 2.59328 3.8988142.946245 5.3217391-1.497629 1.127668-3.461265.6972332-5.200791.7683795v4.6280632c-.298814 0-.903557-.0035573-1.205929-.0035573.003558-3.6640316-.046245-7.3280632.028459-10.9920949zm1.181028 1.2094862c-.003558 1.3375494-.007115 2.6750988.007114 4.0162055 1.743083.0391305 4.03755.4162056 4.93755-1.5189723 0-.3628458 0-.7221344.003557-1.0849802-.914229-1.9209486-3.240712-1.3766799-4.948221-1.412253z"/><path d="m129.731621 11.7747036c1.8.1316205 3.674703-.2632411 5.424901.2703557 2.184189.6758893 2.603952 3.8988142.956917 5.3252964-1.497629 1.127668-3.464822.6972332-5.204348.7683795v4.6280632c-.298814 0-.903557-.0035573-1.205929-.0035573.003557-3.6640316-.046245-7.3280632.028459-10.9885375zm1.17747 1.2059288c0 1.3375494-.003557 2.6750988.010672 4.0162055 1.743083.0391305 4.033992.4162056 4.937549-1.5189723 0-.3628458 0-.7221344.007115-1.0814229-.917787-1.9245059-3.244269-1.3802372-4.955336-1.4158103z"/></g><path d="m67.7312253 14.3217391c.1529644-1.4335968 2.7462451-1.3837944 2.860079.0426878.1209487 1.401581.0213439 2.8102767.0498024 4.2118577 1.458498.0249012 2.9241107-.0604743 4.3826087.0391304 1.2877471.0177866 1.4193676 2.2126482.2169961 2.4901186-1.5225297.1743083-3.0664032.0284585-4.5996048.0711462.0035573 3.6177866-.0071146 7.2320159 0 10.8462451-.0355731.9213439.2312253 2.141502 1.2664032 2.3905138 1.1134387.3664032 2.1343873-.3379446 3.1695652-.615415 1.4300395.0853755 1.6932806 2.4865613.2881423 2.8743083-1.9743083.843083-4.5498024.9640316-6.2893281-.4517786-1.1027668-.9498024-1.3837944-2.4794467-1.3944664-3.8632411-.0106719-3.7280633.0035573-7.4525692-.0035573-11.1806325-1.0102767-.0213438-2.0383399.0924902-3.0379447-.0924901-.9035573-.3735178-.9035573-1.9067193-.0818181-2.3727272 1.0173913-.2525692 2.0845849-.1031621 3.1233201-.1351779.0249012-1.4193676-.0747035-2.8422925.0498024-4.2545455z"/><path d="m50.0264822 20.5399209c2.1166008-2.3300395 5.7023716-2.9988142 8.612253-1.9316205 3.2762846 1.1561265 5.115415 4.7490119 5.0833992 8.0822134-.0035573.796838-.6474308 1.572332-1.4833992 1.5367589-3.9094862.0853755-7.826087.0035573-11.7391305.0355731.113834 1.5794467.3557313 3.2442688 1.3411068 4.5462451 1.401581 1.9600791 4.2260869 2.5007905 6.3960474 1.6363636 1.2557312-.5051383 1.9067194-1.7466403 2.6039526-2.8173913.6936759-1.1241106 2.9667984-.3166007 2.6359683 1.0316206-.7932806 1.9885375-2.4545454 3.6675889-4.5426877 4.2581028-2.7711463.7897233-6.0011858.4339921-8.2671937-1.4407115-2.0525692-1.7075099-2.9490118-4.4288538-3.041502-7.029249-.1173913-2.7853755.4624506-5.7948617 2.4011858-7.9079052zm1.7324111 2.0632412c-.672332.9604743-.9142293 2.1237154-1.1774704 3.2442687 3.4114625-.0284585 6.8300396.113834 10.2379447-.0818182-.2098814-1.5509881-.739921-3.1553359-1.9671937-4.1976284-2.0632411-1.7395257-5.6205533-1.2450593-7.0932806 1.0351779z" fill-rule="nonzero"/><path d="m82.344664 18.4162055c1.6719368-.4482213 3.4719368-.4339921 5.1367589.0462451 2.1557313.6047431 3.9343874 2.4616601 4.4110672 4.6494071-.1351778 1.1063241-1.6114624 1.5865613-2.4865612 1.0280632-.7434783-.9498023-1.0067194-2.3122529-2.152174-2.916996-2.301581-1.287747-5.5814229-.3343874-6.6913043 2.1059289-1.2664032 2.6644268-1.2664032 5.9300395-.1209486 8.6335968 1.0849802 2.6359684 4.6245059 3.5750988 7.0150197 2.1913043 1.1098815-.6367589 1.3660079-1.9778656 2.0596838-2.9561264.8324111-.7754941 2.8387352-.1067194 2.5577075 1.1774703-.5833992 1.9778656-2.0454545 3.7565218-4.0233201 4.4466403-3.0699605 1.0636364-6.8869565.5798419-9.1280633-1.9351778-2.3727272-2.6964427-2.7177865-6.6201581-2.0667984-10.0173913.5229249-2.9169961 2.5505929-5.6561265 5.4889328-6.4529645z"/><path d="m113.104743 26.2814229c1.401581-.8679842 3.318972-.8608695 4.752569-.0675889.949803.5335968 1.277075 1.6256917 1.511858 2.6146245-.2917 0-.878656 0-1.170356 0-.298814-2.073913-2.966798-2.8387352-4.5-1.5901186-.764822.558498-.686561 1.8249012.081818 2.3478261 1.526087 1.1205534 3.656917 1.070751 5.086957 2.36917 1.255731 1.2166008.864427 3.5857707-.643874 4.4288537-1.728853.9818182-4.186956.8110672-5.567193-.7043478-.629645-.626087-.814625-1.5189723-1.031621-2.3442688.2917 0 .878656-.0035573 1.173913-.0035573.284585.9177866.686561 1.913834 1.629249 2.3300395 1.629249.9426878 4.667194-.2276679 3.93083-2.4260869-1.145454-1.6505929-3.475494-1.46917-5.033597-2.539921-1.607905-.8395257-1.782213-3.4434782-.220553-4.4146245z"/><path d="m124.683794 25.872332c1.981423-.5727273 4.386166.1280633 5.41423 2.0027668 1.195257 2.2304348 1.163241 5.2043478-.288143 7.313834-1.910276 2.6893281-6.716205 2.2375494-7.947035-.8857707-1.28419-2.8956522-.640316-7.4418973 2.820948-8.4308301zm.327273.9924901c-1.355336.4233202-2.209091 1.753755-2.458103 3.098419-.3166 1.7181818-.103162 3.7031621 1.159684 5.0086957 1.312648 1.3802371 3.777866 1.2664031 4.962451-.2169961 1.333992-1.6754941 1.41581-4.1442688.544269-6.0474308-.690119-1.5581028-2.589724-2.4225297-4.208301-1.8426878z" fill-rule="nonzero"/><path d="m153.672332 26.6193676c1.625692-1.344664 4.162055-1.3197629 5.830435-.0604743.814624.5940711 1.173913 1.5687747 1.586561 2.4474308-.298814 0-.896443.0035573-1.198814.0071146-.53004-1.2343873-1.575889-2.358498-3.013044-2.3549407-2.088142-.2881423-3.735178 1.6648222-3.962845 3.5893281-.369961 2.187747.473122 5.0869565 2.895652 5.6490118 1.945849.5229249 3.63913-1.1205533 4.098023-2.8956521.295257.0035573.878657.0106719 1.173913.0106719-.373517 1.1667984-.853755 2.3905138-1.89249 3.1197629-2.088142 1.5865612-5.542292.9142292-6.72332-1.4869566-1.280632-2.5399209-1.077865-6.1079051 1.205929-8.0252964z"/><path d="m173.177075 26.2778656c1.351779-.8288537 3.151779-.8395257 4.571146-.1671937 1.04585.5051384 1.458498 1.6577075 1.682609 2.7177866-.2917 0-.882213 0-1.173913-.0035573-.284585-2.0561265-2.920553-2.8245059-4.46087-1.6114625-.811067.5620554-.725691 1.8853755.092491 2.4047431 1.472727 1.0422925 3.447035 1.0565218 4.880632 2.1877471 1.437154 1.1490118 1.102767 3.6818181-.462451 4.5675889-1.789328 1.0280632-4.375494.8075099-5.720158-.8501976-.540711-.6083004-.690118-1.4264823-.889328-2.1877471.2917 0 .875099 0 1.166799-.0035573.281027 1.0316206.832411 2.0988142 1.913834 2.4616601 1.170355.3628458 2.735573.1743083 3.464822-.9177866.455336-.6758893.401976-1.7359684-.305929-2.2268774-1.526087-1.1312253-3.671146-1.0600791-5.094071-2.3762846-1.116996-1.0565218-1.003162-3.1660079.334387-3.9948617z"/><path d="m132.581028 25.9256917h1.149012c.017786 2.4047431-.028459 4.8094862.014229 7.2106719-.081818 1.6434783 1.568774 3.1090909 3.190909 2.8102767 1.266403-.1422925 2.433201-1.1988142 2.465217-2.5150197.078261-2.5007906.003558-5.0051384.028459-7.5059289h1.156126c-.028458 2.5114625.056917 5.0229249-.035573 7.53083-.088933 2.2695653-2.51502 3.8596838-4.660079 3.4826087-1.714624-.2205533-3.208696-1.7075098-3.26917-3.4683794-.099605-2.5114625-.007115-5.0300395-.03913-7.5450593z"/><path d="m142.210672 25.9256917c1.949407.1245059 3.994862-.3059289 5.883794.3130435 2.166404.889328 2.344269 4.1122529.398419 5.3501976 1.949407.9996047.9 3.4221344 1.490514 5.1083004-.313043-.0071146-.946245-.0177866-1.262846-.0249012-.373517-1.4086956.494467-3.4683794-1.006719-4.3577075-1.398024-.4624506-2.909881-.1743083-4.35415-.2490119v4.6173914c-.288142 0-.864427 0-1.149012 0-.003557-3.5857708-.003557-7.1715415 0-10.7573123zm1.149012 1.0422925v4.0873518c1.366008-.056917 2.781818.1814229 4.11581-.1992095 1.579447-.5976285 1.636364-3.144664.007115-3.713834-1.344664-.3379447-2.75336-.1245059-4.122925-.1743083z" fill-rule="nonzero"/><path d="m162.672332 25.9256917h7.207115c-.003558.2596838-.010672.7826087-.010672 1.0422925-2.016996-.0071146-4.033992-.0035573-6.047431-.0035573v3.6355731c1.899605 0 3.799209 0 5.698814.0035573 0 .2596838-.003557.7790514-.003557 1.0387352-1.899605 0-3.795652 0-5.695257 0v4.0019763h6.321344v1.0387352c-2.490119 0-4.980237 0-7.470356 0 0-3.5857708 0-7.1715415 0-10.7573123z"/><path d="m107.160474 32.8233202c1.543874-.5584981 3.23004 1.1276679 2.66087 2.6679841-.412648 1.4762846-2.486561 2.0312253-3.528854.8679842-1.170356-1.0387351-.611858-3.1268774.867984-3.5359683z"/></g></svg>