<svg height="90" viewBox="0 0 180 90" width="180" xmlns="http://www.w3.org/2000/svg"><g fill="none" fill-rule="evenodd" transform="translate(0 17)"><path d="m38.516 1.60584348c2.298-.47206957 4.641-.73533913 6.987-.70205218 3.51 0 7.017.00605218 10.524-.02723478.435.06354783 1.074-.11801739 1.269.4176.255.49627826.237 1.07426087.27 1.61895652.015 4.63293913.027 9.27495656-.264 13.90184346-.459 2.3966609-.957 4.7993739-1.761 7.1082783-.294.8382261-.717 1.6280348-.927 2.4965217-.021.4872.249.9320348.378 1.3950261l-.465-.0030261c-.843-1.2467478-.156-2.7325565.408-3.9369391.735-1.494887.9-3.1713391 1.281-4.7751652.81-3.4104.804-6.9448696.768-10.43092177-.036-2.40573913.096-4.81753043-.084-7.22024347-3.603-.12709566-7.209-.04539131-10.815-.04539131-1.755.03631305-3.528.00907826-5.247.41457392-2.796.51443478-5.562 1.2285913-8.136 2.46626086-1.182-.00907826-2.352-.22695652-3.492-.54166956-.93-.35102609-1.851-.73533913-2.751-1.16504348 1.566-.00907826 2.994.68994783 4.44 1.19227826.588.24208696 1.23.15735652 1.806-.07867826 1.914-.75349565 3.789-1.64921739 5.811-2.08497391z" fill="#fad0d3"/><path d="m1.589 2.61050435c-.054-.62942609.18-1.49791305.987-1.31029565 5.712 0 11.424-.05749566 17.136.01513043 2.235.2330087 4.557.32984348 6.642 1.26490435-1.902.19366956-3.711-.52956522-5.58-.71113044-3.078-.30260869-6.18-.03933913-9.231.36010435-.726.03933913-.966.77165218-1.275 1.30726957.513.70507826.792 1.54330434.729 2.42692174-.018 6.854087.012 13.7051478-.015 20.5592348-.024 1.6098782.639 3.1259478.639 4.7388522-.33.3237913-.753.5870608-.951 1.0197913-.075.629426.228 1.2164869.414 1.8005217.159-.2965565.318-.593113.483-.8836174-.009.3994435-.015.801913-.018 1.2043826-.489.2360348-1.218.4750957-1.086 1.1771478.237 1.9639305-.246 4.0065392.489 5.8978435-2.877-2.9292522-4.59-6.7330435-6.318-10.406713-2.163-5.044487-3.141-10.5549913-3.048-16.041287.018-4.1396869.006-8.2793739.003-12.41906085z" fill="#f9b8bf"/><path d="m40.838 1.81766957c1.719-.40549566 3.492-.37826087 5.247-.41457392 3.606 0 7.212-.08170435 10.815.04539131.18 2.40271304.048 4.81450434.084 7.22024347.036 3.48605217.042 7.02052177-.768 10.43092177-.381 1.6038261-.546 3.2802782-1.281 4.7751652-.564 1.2043826-1.251 2.6901913-.408 3.9369391l.099.2148522c.6 2.9685913 1.593 5.8766609 1.836 8.9057739-.882-1.6704-1.293-3.5132869-1.497-5.3803826-.492-1.5856696-1.173-3.1198957-1.182-4.8175304.09-3.2560696 1.911-6.1036174 2.277-9.3082435.408-4.6208348.39-9.26890436.312-13.90486958.012-.83217391-.711-1.67645217-1.569-1.61290435-4.653-.0907826-9.318.13314783-13.965-.0907826z" fill="#e397a0"/><path d="m11.543 2.22921739c3.051-.39944348 6.153-.66271304 9.231-.36010435 1.869.18156522 3.678.9048 5.58.71113044l.105-.00302609c.9.42970435 1.821.81401739 2.751 1.16504348-1.326.34194783-2.748.52956522-4.044-.05446957-.66.1634087-1.332.27537392-1.998.42365218.306.96532174.477 1.96393043-.129 2.85662609.624-.00605218 1.239.12104347 1.728.53864347-1.041.49627826-1.887 1.28911305-2.745 2.03958261.141.11801739.423.348.564.46601735-.207.0938087-.411.1906435-.615.2905044-.045.2753739-.093.5507478-.138.8291478-1.455 1.3950261-2.466 3.1683131-3.687 4.7600348-.723.8926957-1.005 2.0244522-.933 3.1622609-.906 1.4222608-1.263 3.098713-1.836 4.6722782-.63 2.1969392-1.233 4.4422957-1.221 6.7481739-.045 4.6329392-.099 9.2658783.012 13.8988174-.174.0151305-.519.0514435-.69.0696-.957-.8745391-1.785-1.9064347-2.526-2.9655652-.735-1.8913043-.252-3.933913-.489-5.8978435-.132-.7020521.597-.941113 1.086-1.1771478.003-.4024696.009-.8049391.018-1.2043826-.165.2905044-.324.5870609-.483.8836174-.186-.5840348-.489-1.1710957-.414-1.8005217.198-.4327305.621-.696.951-1.0197913 0-1.6129044-.663-3.128974-.639-4.7388522.027-6.854087-.003-13.7051478.015-20.5592348.063-.8836174-.216-1.72184348-.729-2.42692174.309-.53561739.549-1.26793044 1.275-1.30726957z" fill="#f8afb6"/><path d="m32.702 4.28393043c2.574-1.23766956 5.34-1.95182608 8.136-2.46626086 4.647.22393043 9.312 0 13.965.0907826.858-.06354782 1.581.78073044 1.569 1.61290435.078 4.63596522.096 9.28403478-.312 13.90486958-.366 3.2046261-2.187 6.0521739-2.277 9.3082435l-.081-.3964174c-.15-1.7853913-1.323-3.132-2.253-4.5633392-1.875-3.3286956-4.341-6.2912347-7.101-8.9088-1.179-1.1529391-2.379-2.3089043-3.807-3.14713039-1.014-.5568-1.521-1.68855652-2.514-2.26956522-1.659-.95926956-3.273-2.14852174-5.226-2.38455652-1.116-.25116522-2.133.39036522-3.114.82006956-.201.0242087-.603.07262609-.804.09683479.96-1.18622609 2.478-1.26793044 3.819-1.69763479z" fill="#f27e87"/><path d="m23.168 4.11144348c.666-.14827826 1.338-.26024348 1.998-.42365218 1.296.58403479 2.718.3964174 4.044.05446957 1.14.31471304 2.31.5325913 3.492.54166956-1.341.42970435-2.859.5114087-3.819 1.69763479-1.122.98953043-2.271 1.95182608-3.567 2.70532174-1.638 1.22253913-2.928 2.84754784-4.278 4.37269564-1.614 1.7672348-2.397 4.0912696-3.825 5.9946783-.072-1.1378087.21-2.2695652.933-3.1622609 1.221-1.5917217 2.232-3.3650087 3.687-4.7600348.045-.2784.093-.5537739.138-.8291478.204-.0998609.408-.1966957.615-.2905044-.141-.11801735-.423-.34799996-.564-.46601735.858-.75046956 1.704-1.54330435 2.745-2.03958261-.489-.4176-1.104-.54469565-1.728-.53864347.606-.89269566.435-1.89130435.129-2.85662609z" fill="#f6a2a9"/><path d="m29.687 5.88473043c.981-.42970434 1.998-1.07123478 3.114-.82006956 1.953.23603478 3.567 1.42528696 5.226 2.38455652.993.5810087 1.5 1.71276522 2.514 2.26956522 1.428.83822609 2.628 1.99419129 3.807 3.14713039 2.76 2.6175653 5.226 5.5801044 7.101 8.9088.93 1.4313392 2.103 2.7779479 2.253 4.5633392-.171.9501913-.363 1.9306435-.924 2.7325565-1.479 2.2786435-3.261 4.3394087-5.136 6.2851826-1.068.9501913-2.31 1.6855304-3.33 2.6992696-1.752 1.7218434-4.098 2.5570434-6.195 3.7462956-2.346.696-4.614 1.7218435-7.077 1.9427478.231-.1724869.456-.3449739.684-.5204869-2.049-.2239304-4.113-.2632696-6.168-.4327304-.021-.2572174-.039-.5114087-.057-.7686261-.552-.0574957-1.098-.1180174-1.647-.1815652.645-.901774 1.572-1.5009392 2.7-1.5100174-.318-.8563826-.768-1.6825044-.888-2.5963826.171-1.0228174.747-1.9639305.669-3.0291131-.084-6.4122783.078-12.8275826-.069-19.2368348-.462-.1180174-.924-.2330087-1.383-.3510261.42-1.2800347.885-2.6024347 1.923-3.516313.666-.5507478.354-1.4555478.231-2.17273044-.204.30866087-.402.62034784-.6.93203474-.258-.0998608-.519-.1966956-.774-.2935304.234-1.19833043 1.434-1.70368695 2.295-2.3875826.699-.46601739 1.227-1.12873043 1.731-1.79446957z" fill="#ed4c59"/><path d="m25.316 8.68688696c1.296-.75349566 2.445-1.71579131 3.567-2.70532174.201-.0242087.603-.07262609.804-.09683479-.504.66573914-1.032 1.32845218-1.731 1.79446957-.861.68389565-2.061 1.18925217-2.295 2.3875826.255.0968348.516.1936696.774.2935304.198-.3116869.396-.62337387.6-.93203474.123.71718264.435 1.62198264-.231 2.17273044-1.038.9138783-1.503 2.2362783-1.923 3.516313.459.1180174.921.2330087 1.383.3510261.147 6.4092522-.015 12.8245565.069 19.2368348.078 1.0651826-.498 2.0062957-.669 3.0291131.12.9138782.57 1.74.888 2.5963826-1.128.0090782-2.055.6082434-2.7 1.5100174.549.0635478 1.095.1240695 1.647.1815652.018.2572174.036.5114087.057.7686261 2.055.1694608 4.119.2088 6.168.4327304-.228.175513-.453.348-.684.5204869-1.062.2269566-2.124.4993044-3.216.5356174-3.753.0756522-7.509-.0756521-11.259.0574957-.798-.0726261-1.602-.0665739-2.397.036313-.111-4.6329391-.057-9.2658782-.012-13.8988174-.012-2.3058782.591-4.5512347 1.221-6.7481739.573-1.5735652.93-3.2500174 1.836-4.6722782 1.428-1.9034087 2.211-4.2274435 3.825-5.9946783 1.35-1.5251478 2.64-3.15015651 4.278-4.37269564z" fill="#ee5461"/><path d="m53.702 26.3380522.081.3964174c.009 1.6976347.69 3.2318608 1.182 4.8175304.204 1.8670957.615 3.7099826 1.497 5.3803826.219 1.1589913.342 2.3361391.348 3.5193391.096 5.1171131.045 10.2402783.048 15.3604174-2.769.3843131-5.565.0605218-8.346.0907826-1.686-.0847304-3.438.1936696-5.052-.4176-.54-.1845913-1.095-.3268174-1.65-.453913-.096-.4781217-.315-.9683478-.168-1.4585739.681-2.3724522.093-4.8447652-.129-7.2444522-.243-.1028869-.489-.2027478-.732-.3026087.879-.2481391 1.725-.6021913 2.526-1.0500522-.519-.8775652-1.464-1.3224-2.106-2.0849739.597-.3086608 1.218-.5779826 1.842-.8291478.024-.3964174.051-.7898087.075-1.1801739-1.722.0453913-3.285.9290087-5.001.9199304 2.097-1.1892522 4.443-2.0244522 6.195-3.7462956 1.02-1.0137392 2.262-1.7490783 3.33-2.6992696 1.875-1.9457739 3.657-4.0065391 5.136-6.2851826.561-.801913.753-1.7823652.924-2.7325565z" fill="#f48790"/><path d="m54.626 28.0266087c.636.1936696.678.8987478.879 1.425287.606 2.0184 1.275 4.0368 1.434 6.1550608.663 2.4632348.354 5.0293565.507 7.550087.255 3.9520695-.054 7.9101913.18 11.8652869-.009.8654609-.147 2.3542957-1.323 2.2483826-4.596.033287-9.195-.0302608-13.791-.0181565-2.091.0635478-4.14-.4115478-6.204-.6566608-1.974-.5628522-4.14-.6445566-5.931-1.7248696.276.0121043.831.0393391 1.11.0514435 5.199 1.6734261 10.704 1.7490782 16.11 1.6946087 3.087-.0363131 6.177.0998608 9.261-.0514435 0-.1906435 0-.5658783 0-.7534957-.003-5.1201391.048-10.2433043-.048-15.3604174-.006-1.1832-.129-2.3603478-.348-3.5193391-.243-3.029113-1.236-5.9371826-1.836-8.9057739z" fill="#f8cccf"/><path d="m38.117 41.8013565c1.716.0090783 3.279-.8745391 5.001-.9199304-.024.3903652-.051.7837565-.075 1.1801739-.624.2511652-1.245.520487-1.842.8291478.642.7625739 1.587 1.2074087 2.106 2.0849739-.801.4478609-1.647.8019131-2.526 1.0500522.243.0998609.489.1997218.732.3026087.222 2.399687.81 4.872.129 7.2444522-.147.4902261.072.9804522.168 1.4585739.555.1270956 1.11.2693217 1.65.453913 1.614.6112696 3.366.3328696 5.052.4176 2.781-.0302608 5.577.2935305 8.346-.0907826v.7534957c-3.084.1513043-6.174.0151304-9.261.0514435-5.406.0544695-10.911-.0211826-16.11-1.6946087-.498-.7474435-1.362-.9865044-2.169-1.2195131.354-.2239304.708-.453913 1.059-.6838956-.603-.2209044-1.182-.0181566-1.725.2602434-.201-.1452521-.399-.2905043-.6-.4327304.522-.4206261 1.047-.8382261 1.572-1.2528-.276-.1422261-.552-.2814261-.828-.4145739.438-.5023304.99-.9471652 1.248-1.5796174.198-.7383652-.552-1.219513-.858-1.7944696-.618-.7292869.093-1.7732869-.489-2.5358608-.216-.659687-.972-.5446957-1.506-.5749565-2.691.0514434-5.382-.0272348-8.073-.0121044-.867.0211826-1.719-.1301217-2.553-.3449739 3.75-.1331478 7.506.0181565 11.259-.0574957 1.092-.036313 2.154-.3086608 3.216-.5356174 2.463-.2209043 4.731-1.2467478 7.077-1.9427478z" fill="#f5979f"/><path d="m13.478 44.4431304c.171-.0181565.516-.0544695.69-.0696.795-.1028869 1.599-.1089391 2.397-.036313.834.2148522 1.686.3661565 2.553.3449739 2.691-.0151304 5.382.0635478 8.073.0121044.534.0302608 1.29-.0847305 1.506.5749565.582.7625739-.129 1.8065739.489 2.5358608.306.5749566 1.056 1.0561044.858 1.7944696-.258.6324522-.81 1.077287-1.248 1.5796174.276.1331478.552.2723478.828.4145739-.525.4145739-1.05.8321739-1.572 1.2528.201.1422261.399.2874783.6.4327304.543-.2784 1.122-.4811478 1.725-.2602434-.351.2299826-.705.4599652-1.059.6838956.807.2330087 1.671.4720696 2.169 1.2195131-.279-.0121044-.834-.0393392-1.11-.0514435-.486-.0242087-.969-.0635478-1.452-.0938087-.147-.2632696-.294-.5265391-.441-.7867826-3.543-.5628522-6.429-2.9292522-9.432-4.7418783-2.013-1.4010782-3.936-2.9746435-5.574-4.8054261z" fill="#f6a5ac"/><path d="m104.352 45.06h-6.5159999c-2.268 0-3.384-1.224-3.384-3.6v-5.652c-1.584.756-3.168 1.476-4.788 2.124l-1.44-2.16c2.232-.9 4.284-1.836 6.228-2.808v-10.512h2.628v9.072c3.9239999-2.304 7.1279999-4.824 9.6479999-7.56l1.8 1.836c-3.24 3.312-7.056 6.156-11.4479999 8.604v6.516c0 1.188.468 1.8 1.476 1.8h5.3279999c.936 0 1.62-.288 2.052-.792.504-.612.828-2.412 1.008-5.364l2.484.756c-.288 3.672-.864 5.94-1.656 6.732-.72.648-1.872 1.008-3.42 1.008zm-21.3119999-13.248c-1.584 1.728-3.312 3.384-5.22 4.932l-.756-2.592c4.176-3.528 7.2-7.524 9.108-12.024l2.34 1.08c-.792 1.8-1.728 3.528-2.808 5.184v17.316h-2.664zm-5.256-15.948h7.776v-3.348h2.556v3.348h10.404v-3.348h2.5559999v3.348h7.776v2.448h-7.776v3.168h-2.5559999v-3.168h-10.404v3.168h-2.556v-3.168h-7.776zm53.4119999 20.412c.504 2.448 1.008 5.22 1.44 8.388l-1.476.324c-.072-.792-.18-1.548-.252-2.268-1.44.54-3.024 1.008-4.752 1.404l-.324-2.052c.72-.288 1.08-.792 1.08-1.584v-23.112l-1.98.216v11.52c-.144 6.408-1.188 11.844-3.132 16.38l-1.8-1.872c1.872-4.068 2.844-8.892 2.916-14.508v-13.464c4.14-.36 7.38-1.008 9.756-1.98l1.62 1.836c-.612.216-1.26.468-1.908.684.108 11.052 1.656 20.196 4.608 27.396l-1.62 1.584c-2.952-7.632-4.536-17.136-4.68-28.512-.648.144-1.296.252-1.944.396v24.516c.648-.216 1.296-.468 1.908-.72-.216-1.44-.432-2.844-.648-4.176zm-14.292-23.616c.396 1.224.756 2.592 1.116 4.176h3.636v2.304h-9.72v-2.304h3.636c-.36-1.368-.72-2.628-1.152-3.78zm-1.332 16.272h-3.816v-2.34h5.58c.648-2.016 1.116-4.14 1.44-6.372l2.088.288c-.324 2.16-.792 4.212-1.44 6.084h2.268v2.34h-3.744c-.036 1.584-.108 3.024-.18 4.32h3.132v2.268h-3.312l-.216 1.692c-.576 3.384-1.836 6.156-3.744 8.316l-1.656-2.052c1.512-1.8 2.52-4.104 3.024-6.84.072-.36.108-.756.18-1.116h-2.844v-2.268h3.06c.072-1.332.144-2.772.18-4.32zm22.86-.036h-4.068v-2.376h5.796c.648-2.052 1.152-4.176 1.44-6.408l2.088.288c-.324 2.16-.792 4.212-1.44 6.12h2.52v2.376h-3.996v4.572h3.42v2.304h-3.42v9.54h-2.34v-9.54h-3.204v-2.304h3.204zm1.368-16.344c.396 1.26.756 2.7 1.116 4.284h3.78v2.304h-10.404v-2.304h4.176c-.36-1.44-.72-2.736-1.152-3.888zm-2.772 7.668c.648 1.476 1.224 3.024 1.692 4.68l-1.836.792c-.54-1.8-1.116-3.348-1.764-4.716zm-22.716-.072c.684 1.584 1.296 3.24 1.8 5.04l-1.908.828c-.576-1.944-1.188-3.636-1.836-5.076zm47.544 17.28c-1.152-1.836-2.304-3.564-3.42-5.184-1.296 3.528-2.88 6.552-4.716 9.072l-1.656-2.016c1.872-2.664 3.42-5.832 4.644-9.468-1.728-2.304-3.42-4.392-5.076-6.3l1.62-1.548c1.332 1.404 2.772 3.096 4.284 5.112.684-2.52 1.26-5.256 1.692-8.136l2.376.432c-.576 3.708-1.332 7.092-2.268 10.152 1.368 1.872 2.808 3.924 4.248 6.156zm10.548 1.656c-1.224-2.124-2.448-4.104-3.636-5.976-1.44 3.528-3.132 6.552-5.076 9.072l-1.656-1.98c2.016-2.736 3.708-5.94 5.04-9.612-1.656-2.448-3.276-4.68-4.932-6.696l1.62-1.548c1.296 1.476 2.736 3.276 4.248 5.436.792-2.7 1.404-5.616 1.908-8.712l2.448.432c-.648 3.996-1.512 7.596-2.592 10.836 1.368 2.088 2.844 4.428 4.392 7.02zm1.656 6.3h-3.636l-.684-2.52 3.456.108c1.008 0 1.512-.504 1.512-1.476v-24.948h-23.616v28.98h-2.556v-31.464h28.728v28.008c0 2.196-1.08 3.312-3.204 3.312z" fill="#272e2e"/></g></svg>