<svg height="90" viewBox="0 0 180 90" width="180" xmlns="http://www.w3.org/2000/svg"><g fill="none" fill-rule="evenodd" transform="translate(0 13)"><path d="m34.7832524 48.1340216c-.3110992-.1396358-.6649315-.1499462-.9836337-.0286623s-.5761588.3642237-.7157146.6753587l-4.9218161 10.9529291c-.1880382.4190805-.1382159.9066441.1306995 1.2790302.2689153.3723861.7160689.5730204 1.1730224.5263259.4569534-.0466944.8542846-.3336237 1.0423228-.7527042l4.9186692-10.9529292c.2911778-.6469847.003152-1.4075419-.6435495-1.6993482zm4.8919201 5.0319591c-.6435049-.2886848-1.3992124-.0013328-1.6883339.641976l-2.6261225 5.8485903c-.2889437.6430629-.0018735 1.3986035.6411893 1.6875473.6430629.2889437 1.3986035.0018735 1.6875473-.6411893l2.6276959-5.8485903c.2886848-.643505.0013328-1.3992126-.6419761-1.688334zm.6687251-52.32419235c-.7945299-.35569573-1.6426419-.57689612-2.5096857-.65456379-.4671144-.08649308-.9410711-.13072905-1.4161235-.13217156h-28.51915524c-4.35544722 0-7.88623482 3.5307876-7.88623482 7.88623483 0 4.35544727 3.5307876 7.88623487 7.88623482 7.88623487h15.51442044c.1307713.0056116.259359.0354909.3792064.0881143.5221779.2347191.7553215.8482178.5208188 1.3704929-.0090303.0173215-.0190108.0341308-.029896.050351l-15.9471248 35.522673c-.29580924.6622802-.49860993 1.3622868-.60263923 2.0801282 1.5295762.0399138 2.86179603 1.054621 3.30670473 2.5186062.4449087 1.4639853-.0974383 3.048378-1.34616029 3.9326234.72900739.8023933 1.61616179 1.4452588 2.60566729 1.8881647 3.9730915 1.7838632 8.6400396.0093662 10.424243-3.9635725l21.5832966-48.0490726c.8570784-1.90790033.9209735-4.07816747.1776238-6.0331862-.7433498-1.95501873-2.2330274-3.53457651-4.1411963-4.39105675zm-32.14915195 12.60035285c-3.08843963 0-5.59211463-2.503675-5.59211463-5.59211467 0-3.08843962 2.503675-5.59211462 5.59211463-5.59211462 3.08843965 0 5.59211465 2.503675 5.59211465 5.59211462 0 3.08843967-2.503675 5.59211467-5.59211465 5.59211467z" fill="#65d481" fill-rule="nonzero"/><path d="m66.3839997 16h14.499c0-.7695.0405-1.6605.0405-2.673h3.8475c0 1.1745-.0405 2.0655-.0405 2.673h13.851v3.6045h-14.904c-.2025.3645-.405.729-.6075 1.053 5.346 1.134 10.287 2.511 14.823 4.131l-2.106 3.24c-4.86-2.025-9.882-3.6045-14.985-4.8195-2.7135 2.268-6.642 3.888-11.745 4.9005l-2.0655-3.402c6.48-.891 10.692-2.592 12.636-5.103h-13.2435zm-1.944 12.5955h36.0450003v3.6855h-4.9410003v14.0535c0 2.754-1.5795 4.131-4.698 4.131h-3.9285l-.81-3.645c1.215.162 2.349.243 3.4425.243 1.4175 0 2.1465-.567 2.1465-1.62v-13.1625h-27.2565zm4.941 6.5205h16.2v10.773h-16.2zm12.555 7.452v-4.212h-8.9505v4.212zm34.6950003-17.6175 3.24.486c-.648 5.508-1.944 9.558-3.807 12.1095l-2.916-2.106c1.782-2.511 2.9565-6.0345 3.483-10.4895zm5.2245-3.9285h-6.7635v-3.6045h10.0035c-.486-1.3365-.972-2.5515-1.539-3.6855l3.888-.648c.567 1.296 1.0935 2.7135 1.5795 4.3335h9.72v3.6045h-5.9535v20.331c0 2.268-1.0935 3.402-3.2805 3.402h-3.1995l-.81-3.483c.9315.162 1.8225.243 2.7135.243.729 0 1.134-.3645 1.134-1.0935v-19.3995h-3.7665v5.022c-.081 8.3025-2.3085 14.3775-6.6825 18.2655l-2.8755-2.511c3.807-3.2805 5.751-8.5455 5.832-15.7545zm-15.1875-7.533c2.592 2.187 4.8195 4.3335 6.642 6.4395l-2.673 2.673c-1.5795-2.025-3.807-4.2525-6.642-6.6015zm23.3685 36.369c-2.268 0-4.698-.0405-7.29-.081-2.673-.0405-4.86-.2835-6.561-.6885-1.6605-.486-3.1185-1.458-4.3335-2.835-.567-.6885-1.053-1.0125-1.539-1.0125-.81 0-2.2275 1.8225-4.212 5.4675l-2.835-2.6325c1.944-3.24 3.726-5.265 5.3055-6.1155v-11.502h-5.2245v-3.564h8.829v15.3495c.2025.162.405.3645.6075.6075.972 1.053 1.944 1.863 2.997 2.43 1.215.567 3.0375.9315 5.4675 1.0125 2.3085.0405 5.0625.081 8.262.081 1.9845 0 4.0095-.0405 6.075-.081 2.025-.081 3.6045-.162 4.7385-.243l-.9315 3.807zm6.7635-24.3c1.134 3.645 2.106 7.857 2.997 12.636l-3.321.8505c-.729-4.293-1.6605-8.4645-2.7945-12.474zm26.5545-1.0935h-.4455v6.642h-3.888v-6.642h-.405c-2.5515 3.483-7.128 6.48-13.7295 9.0315l-2.187-3.564c5.4675-1.62 9.396-3.4425 11.7855-5.4675h-11.016v-3.6045h15.552v-2.6325c-3.564.162-7.371.2835-11.421.2835l-1.0935-3.2805c10.3275 0 19.035-.6885 26.1225-1.9845l1.863 3.24c-3.3615.648-7.209 1.1745-11.583 1.4985v2.8755h14.985v3.6045h-10.449c2.673 2.1465 6.5205 3.888 11.502 5.184l-1.7415 3.564c-6.4395-2.268-11.0565-5.184-13.851-8.748zm-9.072 11.6235h-5.3055v-3.6045h21.2625v1.8225l-1.215 3.6045h7.128v1.782c-.486 4.6575-1.134 7.4925-1.944 8.5455-.567.891-1.4175 1.4175-2.592 1.6605-1.4985.162-3.888.2835-7.209.3645l-1.053-3.6045c2.268.081 4.2525.1215 5.9535.1215.6075 0 1.0935-.2025 1.458-.5265.5265-.405 1.053-1.9845 1.539-4.7385h-8.0595l1.701-5.427h-8.019c-.729 6.642-4.941 11.4615-12.636 14.499l-2.106-3.3615c6.723-2.187 10.4085-5.913 11.097-11.1375z" fill="#272e2e"/></g></svg>