<?xml version="1.0" encoding="UTF-8"?>
<svg width="180px" height="90px" viewBox="0 0 180 90" version="1.1" xmlns="http://www.w3.org/2000/svg" xmlns:xlink="http://www.w3.org/1999/xlink">
    <!-- Generator: Sketch 55.2 (78181) - https://sketchapp.com -->
    <title>logo_techantfin</title>
    <desc>Created with Sketch.</desc>
    <defs>
        <linearGradient x1="50.03367%" y1="-35.9413203%" x2="50.03367%" y2="97.799511%" id="linearGradient-1">
            <stop stop-color="#0097E0" offset="0%"></stop>
            <stop stop-color="#00AAEB" offset="25%"></stop>
            <stop stop-color="#00B9EF" offset="100%"></stop>
        </linearGradient>
        <linearGradient x1="50%" y1="13.484252%" x2="50%" y2="282.677165%" id="linearGradient-2">
            <stop stop-color="#0097E0" offset="0%"></stop>
            <stop stop-color="#00AAEB" offset="25%"></stop>
            <stop stop-color="#00B9EF" offset="100%"></stop>
        </linearGradient>
        <linearGradient x1="49.3047098%" y1="96.3526028%" x2="50.8927634%" y2="2.9688948%" id="linearGradient-3">
            <stop stop-color="#00A0E9" offset="0%"></stop>
            <stop stop-color="#00B9EF" offset="100%"></stop>
        </linearGradient>
        <linearGradient x1="50.0000005%" y1="95.775069%" x2="50.0000005%" y2="4.11743287%" id="linearGradient-4">
            <stop stop-color="#00A0E9" offset="0%"></stop>
            <stop stop-color="#0FA6EA" offset="24%"></stop>
            <stop stop-color="#36B7EE" offset="70%"></stop>
            <stop stop-color="#54C3F1" offset="100%"></stop>
        </linearGradient>
        <linearGradient x1="-1.24441056%" y1="44.2774759%" x2="101.110045%" y2="52.3249226%" id="linearGradient-5">
            <stop stop-color="#FFFFFF" stop-opacity="0.95" offset="0%"></stop>
            <stop stop-color="#FFFFFF" stop-opacity="0.74" offset="14%"></stop>
            <stop stop-color="#FFFFFF" stop-opacity="0.52" offset="31%"></stop>
            <stop stop-color="#FFFFFF" stop-opacity="0.33" offset="47%"></stop>
            <stop stop-color="#FFFFFF" stop-opacity="0.19" offset="63%"></stop>
            <stop stop-color="#FFFFFF" stop-opacity="0.08" offset="77%"></stop>
            <stop stop-color="#FFFFFF" stop-opacity="0.02" offset="90%"></stop>
            <stop stop-color="#FFFFFF" stop-opacity="0" offset="100%"></stop>
        </linearGradient>
        <radialGradient cx="53.2194189%" cy="-8.93300617%" fx="53.2194189%" fy="-8.93300617%" r="122.465853%" gradientTransform="translate(0.532194,-0.089330),scale(0.500000,1.000000),rotate(0.923608),translate(-0.532194,0.089330)" id="radialGradient-6">
            <stop stop-color="#BAE3F9" offset="0%"></stop>
            <stop stop-color="#1B95D4" stop-opacity="0" offset="100%"></stop>
        </radialGradient>
        <radialGradient cx="53.2194189%" cy="-8.93300617%" fx="53.2194189%" fy="-8.93300617%" r="105.581451%" gradientTransform="translate(0.532194,-0.089330),scale(0.579985,1.000000),rotate(1.071325),translate(-0.532194,0.089330)" id="radialGradient-7">
            <stop stop-color="#BAE3F9" offset="0%"></stop>
            <stop stop-color="#1B95D4" stop-opacity="0" offset="100%"></stop>
        </radialGradient>
    </defs>
    <g id="logo_techantfin" stroke="none" stroke-width="1" fill="none" fill-rule="evenodd">
        <g id="bZhocxqQAEbEAhDgKdvq" transform="translate(0.000000, 22.000000)" fill-rule="nonzero">
            <rect id="Rectangle-path" fill="#3E3A39" x="105.061224" y="15.9871208" width="1.05882353" height="22.9140557"></rect>
            <path d="M18.9061224,37.7732507 C18.9061224,37.7732507 24.0183673,42.0274923 27.0061224,44.4611145 C27.0061224,44.4611145 27.3183674,44.7001858 27.5265306,44.4611145 C27.5265306,44.4611145 30.1653061,41.9232817 30.7163265,42.0091022 C30.7163265,42.0091022 30.8816327,42.0091022 30.6489796,42.4627244 C29.9467551,43.6761032 29.095202,44.7964379 28.1142858,45.7974613 C27.9441957,45.9867332 27.7057424,46.1002773 27.4517619,46.1129345 C27.1977814,46.1255917 26.9492455,46.036317 26.7612245,45.8648916 C26.7612245,45.8648916 18.4959183,38.9195665 18.1469388,38.619195 C18.0162462,38.5167902 17.9326724,38.3656517 17.9153593,38.2003969 C17.8980464,38.035142 17.9484776,37.8699297 18.055102,37.7426006 C18.300581,37.5212737 18.6771604,37.5348366 18.9061224,37.7732507 Z" id="Shape" fill="#3E3A39"></path>
            <path d="M11.8653061,37.7732507 C11.8653061,37.7732507 6.73469388,42.0274923 3.77142857,44.4611145 C3.77142857,44.4611145 3.45918367,44.7001858 3.2510204,44.4611145 C3.2510204,44.4611145 0.612244898,41.9232817 0.0551020408,42.0091022 C0.0551020408,42.0091022 -0.104081633,42.0091022 0.12244898,42.4627244 C0.824673485,43.6761032 1.67622658,44.7964379 2.65714286,45.7974613 C2.82723286,45.9867332 3.06568613,46.1002773 3.31966666,46.1129345 C3.5736472,46.1255917 3.82218302,46.036317 4.01020409,45.8648916 C4.01020409,45.8648916 12.2816326,38.9195665 12.6244898,38.619195 C12.7551824,38.5167902 12.8387562,38.3656517 12.8560692,38.2003969 C12.8733822,38.035142 12.822951,37.8699297 12.7163265,37.7426006 C12.4708475,37.5212737 12.0942682,37.5348366 11.8653061,37.7732507 Z" id="Shape" fill="#3E3A39"></path>
            <path d="M17.8285714,29.7367801 C17.8285714,29.7367801 18.4040817,29.1237771 22.9591837,26.9598762 C23.0888543,26.8904988 23.2499047,26.9301504 23.3326531,27.0518267 C23.3326531,27.0518267 24.7469387,28.6640247 26.3938775,28.5782043 C26.5815924,28.5563759 26.7394182,28.4270858 26.7979592,28.2471826 C27.0183673,27.6954799 25.5061224,27.0211765 25.5061224,27.0211765 C25.1074927,26.8593629 24.8596907,26.4574265 24.8938776,26.0281115 C24.9262187,25.7738648 24.8325016,25.5198284 24.6428571,25.347678 C24.1040816,24.9185758 22.3102041,26.0648916 22.3102041,26.0648916 C19.5918368,27.5360991 17.3877551,28.8111455 17.3877551,28.8111455 C17.3877551,28.8111455 16.7755102,29.099257 17.0265306,29.5835294 C17.0265306,29.5957894 17.222449,30.0371518 17.8285714,29.7367801 Z" id="Shape" fill="#3E3A39"></path>
            <path d="M13.0469387,29.9268111 C13.0469387,29.9268111 12.4346939,29.3751084 7.7510204,27.4747988 C7.61884301,27.4111706 7.46004986,27.4623708 7.38979592,27.5912694 C7.38979592,27.5912694 6.07959183,29.289288 4.41428572,29.3138081 C4.22556992,29.299517 4.06042116,29.1814076 3.98571428,29.0073065 C3.73469387,28.4678638 5.21020408,27.72 5.21020408,27.72 C5.60417749,27.5391686 5.83130394,27.1193389 5.76734694,26.6901548 C5.72153504,26.4380761 5.80153197,26.1794804 5.98163266,25.9974613 C6.48979592,25.537709 8.35102041,26.5614242 8.35102041,26.5614242 C11.1428571,27.8364706 13.4326531,28.9827864 13.4326531,28.9827864 C13.4326531,28.9827864 14.044898,29.2341176 13.8428571,29.7306502 C13.8367347,29.7367801 13.677551,30.1842724 13.0469387,29.9268111 Z" id="Shape" fill="#3E3A39"></path>
            <path d="M19.8367347,37.0131269 C19.8367347,40.4582043 17.8040816,43.2780186 15.3061224,43.2780186 C12.8081632,43.2780186 10.744898,40.4582043 10.744898,37.0131269 C10.744898,33.5680495 12.777551,30.7421052 15.3061224,30.7421052 C17.8346939,30.7421052 19.8367347,33.5496595 19.8367347,37.0131269 Z" id="Shape" fill="url(#linearGradient-1)"></path>
            <path d="M18.055102,28.510774 C18.055102,30.2333127 16.8306122,31.6248297 15.3489796,31.6248297 C13.867347,31.6248297 12.6428572,30.2333127 12.6428572,28.510774 C12.6428572,26.7882353 13.867347,25.3967183 15.3489796,25.3967183 C16.8306122,25.3967183 18.055102,26.7882353 18.055102,28.510774 Z" id="Shape" fill="url(#linearGradient-2)"></path>
            <path d="M9.06734694,14.062291 C9.06734694,14.062291 7.53061225,8.30006192 11.8591836,2.45201238 L12.2081633,3.00371518 C12.2081633,3.00371518 9.22653061,6.74303405 10.0163265,13.1243963 L9.06734694,14.062291 Z" id="Shape" fill="#3E3A39"></path>
            <path d="M14.8653061,0.410712074 C15.3857143,1.02371517 15.1285714,2.09647059 14.289796,2.81368421 C13.4510204,3.53089783 12.3489796,3.61671826 11.8408163,3.00371518 C11.332653,2.39071208 11.5714285,1.31795665 12.4102041,0.600743034 C13.2489796,-0.116470588 14.3387755,-0.202291022 14.8653061,0.410712074 Z" id="Shape" fill="#3E3A39"></path>
            <path d="M18.1285715,12.4194427 C18.1285715,12.4194427 20.3387755,6.90241486 27.3122449,4.80594427 L27.2387755,5.45572756 C27.2387755,5.45572756 22.610204,6.68173375 19.4510204,12.2355418 L18.1285715,12.4194427 Z" id="Shape" fill="#3E3A39"></path>
            <path d="M31.0408163,4.90402477 C31.0897959,5.71318885 30.244898,6.42427244 29.1428571,6.49783282 C28.0408163,6.57139319 27.110204,5.97678018 27.055102,5.17374613 C27,4.37071208 27.8510204,3.65962848 28.9530612,3.58606812 C30.055102,3.51250774 30.9857143,4.08873065 31.0408163,4.90402477 Z" id="Shape" fill="#3E3A39"></path>
            <path d="M5.04489796,17.3786378 C5.34489796,10.4210526 11.2836734,11.9351703 13.8795918,7.96904025 C16.0102041,11.5612384 24.0061225,8.27554179 24.7836734,17.3050774 C25.2061224,22.2642724 21.5571428,25.6296595 15.1163265,25.9790712 C9.43469388,26.2855728 4.76326531,23.8703405 5.04489796,17.3786378 Z" id="Shape" fill="url(#linearGradient-3)"></path>
            <path d="M20.9693878,19.9471208 C20.6632653,20.1555418 14.2836735,25.5009288 5.1,19.1502167 C5.13054038,19.4427936 5.17755396,19.7334108 5.24081632,20.0206812 L5.27755102,20.198452 C6.29387755,24.5752941 10.3530612,26.2304025 15.1163265,25.9729412 C19.0591836,25.7583901 21.9489796,24.4159133 23.5040816,22.2949226 C24.2510204,20.8421052 22.7448979,18.7578948 20.9693878,19.9471208 Z" id="Shape" fill="url(#linearGradient-4)"></path>
            <path d="M14.6938775,19.81226 C7.41428571,20.2904025 7.64693877,15.9380805 7.64693877,15.9380805 C7.76938775,11.8554799 14.222449,11.7390093 14.222449,11.7390093 C14.222449,11.7390093 21.7469388,11.2363468 21.8020408,15.6009288 C21.8020408,15.5764086 22.0408163,19.4321982 14.6938775,19.81226 Z" id="Shape" fill="#008CD6"></path>
            <path d="M14.6938775,20.0881115 C7.2367347,20.4436532 7.64081633,16.2016718 7.64081633,16.2016718 C7.76326531,12.1252012 14.1979592,12.1068111 14.1979592,12.1068111 C14.1979592,12.1068111 21.7040816,11.4938081 21.7653061,15.8645201 C21.7836735,15.8645201 22.1204082,19.7509597 14.6938775,20.0881115 Z" id="Shape" fill="#FFFFFF"></path>
            <path d="M19.6346939,21.2895975 C15.8204082,23.956161 10.5612245,22.5156037 9.83877551,22.0926316 C9.11632654,21.6696595 9.48979591,20.9647059 10.1204082,21.1486068 C13.2653175,22.0088028 16.6102163,21.7576788 19.5918368,20.4375233" id="Shape" fill="url(#linearGradient-5)"></path>
            <path d="M14.7306122,14.6691641 C13.5946896,14.7760357 12.7579031,15.7808756 12.8571428,16.9188855 C12.8571428,16.9188855 12.8571428,17.1089165 13.132653,17.0843963 C14.342842,16.8526684 15.5744175,16.7519651 16.8061225,16.7840247 C16.8602761,16.7841308 16.9120582,16.7617895 16.9491732,16.722306 C16.9862883,16.6828224 17.0054256,16.6297184 17.0020408,16.5756037 C16.9586432,16.0190716 16.6934404,15.503423 16.26617,15.1448095 C15.8388998,14.7861959 15.2854951,14.6147765 14.7306122,14.6691641 Z" id="Shape" fill="#3E3A39"></path>
            <g id="Group" opacity="0.2" transform="translate(12.857143, 14.712074)" fill="url(#radialGradient-7)">
                <path d="M1.89795919,0.0674303405 C0.992057478,0.139108475 0.315326714,0.931891427 0.385714285,1.83900929 C0.385714285,1.83900929 0.385714285,1.99226006 0.606122449,1.97386997 C1.56787171,1.78705868 2.54724691,1.70688481 3.52653061,1.73479876 C3.5693384,1.73493615 3.61024746,1.71711831 3.63933157,1.68566858 C3.66841567,1.65421885 3.6830167,1.61201155 3.67959184,1.56928792 C3.59854756,0.663671095 2.80303854,-0.0069167813 1.89795919,0.0674303405 Z" id="Shape"></path>
            </g>
            <path d="M36.0489796,33.0347369 L33.7653061,38.1042724 L34.7693878,38.1042724 L35.455102,36.5962848 L37.3469387,36.5962848 L38.0142858,38.1042724 L39.0122449,38.1042724 L36.7653061,33.0347369 L36.0489796,33.0347369 Z M35.8346939,35.7748607 L36.3734694,34.5488545 L36.3734694,34.4998142 L36.9489796,35.7809907 L35.8346939,35.7748607 Z" id="Shape" fill="#3E3A39"></path>
            <path d="M53.7551021,34.5856346 C53.7371214,34.3892444 53.8091953,34.195306 53.9510204,34.058452 C54.0891868,33.9468848 54.2635396,33.89015 54.4408163,33.8990712 L56.3755102,33.8990712 L56.3755102,33.1021672 L54.4408163,33.1021672 C54.0111183,33.0829772 53.5897393,33.2250681 53.2591836,33.5006192 C52.9570425,33.7854219 52.7957482,34.189157 52.8183673,34.6040247 L52.8183673,38.1226625 L53.7551021,38.1226625 L53.7551021,35.9955418 L56.4244898,35.9955418 L56.4244898,35.1802477 L53.7551021,35.1802477 L53.7551021,34.5856346 Z" id="Shape" fill="#3E3A39"></path>
            <path d="M87.1714285,33.0347369 L84.8877551,38.1042724 L85.8918367,38.1042724 L86.5836735,36.5962848 L88.4816327,36.5962848 L89.1489796,38.1042724 L90.1469388,38.1042724 L87.9061225,33.0347369 L87.1714285,33.0347369 Z M86.9387755,35.7748607 C87.122449,35.3702787 87.3061224,34.9718267 87.4836735,34.5488545 L87.4836735,34.4998142 L88.0591837,35.7809907 L86.9387755,35.7748607 Z" id="Shape" fill="#3E3A39"></path>
            <path d="M92.0571428,36.9211765 L92.0571428,33.059257 L91.1142858,33.059257 L91.1142858,36.9211765 C91.1142858,38.1471826 92.277551,38.1471826 92.6571428,38.1471826 L94.5857143,38.1471826 L94.5857143,37.3502787 L92.6571428,37.3502787 C92.155102,37.3502787 92.0571428,37.2031579 92.0571428,36.9211765 Z" id="Shape" fill="#3E3A39"></path>
            <path d="M43.5734694,33.249288 C43.5734694,33.8132507 43.5734694,34.4262539 43.5734694,35.1741176 L43.5734694,36.5472446 L40.8612245,33.0408669 L40.0897959,33.0408669 L40.0897959,38.1042724 L41.0204082,38.1042724 L41.0204082,35.3273684 L41.0204082,34.7143654 L41.0693878,34.7756656 L43.6346939,38.0981424 L44.5102041,38.0981424 L44.5102041,33.065387 L43.5734694,33.065387 L43.5734694,33.249288 Z" id="Shape" fill="#3E3A39"></path>
            <polygon id="Shape" fill="#3E3A39" points="45.789796 33.9848916 47.4795918 33.9848916 47.4795918 38.1104025 48.4163265 38.1104025 48.4163265 33.9848916 50.1428572 33.9848916 50.1428572 33.1695975 45.789796 33.1695975"></polygon>
            <path d="M67.8795918,33.0347369 L65.589796,38.1042724 L66.6,38.1042724 L67.2857142,36.5962848 L69.1836735,36.5962848 L69.8510204,38.1042724 L70.8551021,38.1042724 L68.6081632,33.0347369 L67.8795918,33.0347369 Z M67.6591836,35.7748607 L67.6591836,35.7380805 L68.2040816,34.5427244 L68.2040816,34.4936842 L68.7795918,35.7748607 L67.6591836,35.7748607 Z" id="Shape" fill="#3E3A39"></path>
            <rect id="Rectangle-path" fill="#3E3A39" x="57.722449" y="33.1266873" width="1.05882353" height="4.97758514"></rect>
            <path d="M81.2632654,37.3196285 C80.9755102,37.3196285 80.6510204,37.3625387 80.3081632,37.3625387 C79.5122449,37.3625387 79.0836735,37.2338081 78.9122449,36.9824767 C78.7279353,36.5748258 78.6399437,36.1301274 78.655102,35.6829102 C78.6498177,35.2639083 78.7246314,34.8477618 78.8755102,34.456904 C79.0346939,34.1136223 79.4877551,33.9542414 80.277551,33.9542414 C80.577551,33.9542414 80.889796,33.9542414 81.3,33.9971518 L81.5755102,33.9971518 L81.5755102,33.1818576 L81.3918367,33.1818576 C80.9693877,33.1512074 80.6204082,33.1389473 80.2836735,33.1389473 C79.4938775,33.1389473 78.4040816,33.2431579 78.0061225,34.1504025 C77.799773,34.6407577 77.6996113,35.1693474 77.7122449,35.7013003 C77.7110249,36.2687961 77.8343396,36.8296311 78.0734694,37.3441486 C78.3795919,37.9203715 79.0959184,38.1900929 80.3142858,38.1900929 C80.6387755,38.1900929 80.9816327,38.1900929 81.2877551,38.1533127 L81.5816326,38.1533127 L81.5816326,37.2951084 L81.2632654,37.3196285 Z" id="Shape" fill="#3E3A39"></path>
            <path d="M75.3979592,33.249288 C75.3979592,33.862291 75.3979592,34.5365944 75.3979592,35.1863777 L75.3979592,36.5717647 L72.6918368,33.0408669 L71.9204081,33.0408669 L71.9204081,38.1042724 L72.8571428,38.1042724 L72.8571428,36.0445821 C72.8571428,35.62774 72.8571428,35.2108978 72.8571428,34.8185758 L72.8571428,34.7450154 L75.4714285,38.1226625 L76.3408164,38.1226625 L76.3408164,33.065387 L75.4040816,33.065387 L75.3979592,33.249288 Z" id="Shape" fill="#3E3A39"></path>
            <path d="M63.5938776,33.249288 C63.5938776,33.5128792 63.5938776,33.7764706 63.5938776,34.040062 L63.5938776,36.5717647 L60.8816326,33.0408669 L60.1040816,33.0408669 L60.1040816,38.1042724 L61.0530612,38.1042724 L61.0530612,34.7204953 L63.6734694,38.0981424 L64.5428572,38.0981424 L64.5428572,33.065387 L63.6061225,33.065387 L63.5938776,33.249288 Z" id="Shape" fill="#3E3A39"></path>
            <rect id="Rectangle-path" fill="#3E3A39" x="82.910204" y="33.1266873" width="1.05882353" height="4.97145511"></rect>
            <polygon id="Shape" fill="#3E3A39" points="61.2918367 20.2904025 60.7897959 16.6920743 59.522449 16.6920743 60.0244898 20.2904025"></polygon>
            <path d="M46.2428571,18.2061919 L46.0714286,22.8527554 L42.5387755,22.8527554 C42.3061224,22.8527554 42.1653061,22.766935 42.189796,22.5646439 L42.5448979,18.9601858 L41.3204081,18.9601858 L40.9653061,22.6811145 C40.9123253,23.0602436 41.0498144,23.4411014 41.3326531,23.6986997 C41.624868,23.9508293 42.0082604,24.0706492 42.3918367,24.0297213 L46.6346939,24.0297213 C46.8673469,24.0297213 46.9897959,24.1278018 46.9897959,24.3239629 L46.9897959,26.2365325 L40.7448979,26.2365325 L40.9836734,27.4134984 L46.9959184,27.4134984 L46.9959184,29.6754799 C46.9959184,29.902291 46.8918367,30.0126316 46.689796,30.0126316 L41.6693878,30.0126316 L41.9142857,31.1895975 L46.8122449,31.1895975 C47.1985426,31.2262791 47.5825661,31.0995944 47.8714286,30.8401858 C48.1261935,30.5659265 48.2510588,30.1953318 48.2142857,29.8226006 L48.2142857,24.2074923 C48.2495181,23.8315749 48.1173451,23.459238 47.8530612,23.1899071 C47.6975862,23.0452398 47.5044554,22.9474924 47.2959183,22.9079257 L47.4612245,18.0958514 C47.4973853,17.719121 47.3677241,17.3453239 47.1061224,17.0721362 C46.8124881,16.8225772 46.4302221,16.7031094 46.0469388,16.7411145 L40.5367347,16.7411145 L40.5367347,17.9119505 L45.9183673,17.9119505 C46.1204082,17.9119505 46.2428571,18.010031 46.2428571,18.2061919 Z" id="Shape" fill="#3E3A39"></path>
            <path d="M91.744898,28.9766563 C92.2653061,29.6816099 92.8530612,30.4294737 93.5204081,31.1895975 L95.1244898,31.1895975 C95.1244898,31.1895975 93.8693878,29.7674303 92.5040816,27.8548607 C93.3473375,26.665347 94.0693176,25.3941562 94.6591836,24.0603715 C94.7676352,23.7347669 94.7100073,23.3766287 94.5049084,23.1016024 C94.2998094,22.8265761 93.9732252,22.6695073 93.6306123,22.6811145 L88.4877551,22.6811145 L88.4877551,18.2245821 C88.4877551,18.028421 88.6040817,17.9303405 88.8428572,17.9303405 L92.6693877,17.9303405 C92.9020408,17.9303405 93.0244898,18.028421 93.0244898,18.2245821 L93.0244898,20.0635914 C93.0244898,20.2904025 92.9265306,20.4068731 92.7183673,20.4068731 L90.3367347,20.4068731 L90.3367347,21.583839 L92.8346939,21.583839 C93.2209915,21.6205206 93.605015,21.4938359 93.8938775,21.2344272 C94.1507645,20.9614385 94.2759648,20.5898495 94.2367346,20.2168421 L94.2367346,18.1142414 C94.2728956,17.7375112 94.1432344,17.3637141 93.8816327,17.0905263 C93.5857743,16.8406252 93.2015103,16.7212231 92.8163265,16.7595047 L88.6897959,16.7595047 C88.3064395,16.7207799 87.923898,16.8403338 87.6306122,17.0905263 C87.3739312,17.3542745 87.2443484,17.7166607 87.2755102,18.0835914 L87.2755102,31.1895975 L88.5,31.1895975 L88.5,23.74774 L93.0612245,23.74774 C93.1425827,23.7487366 93.2175098,23.7922159 93.2588179,23.8624013 C93.3001259,23.9325865 93.3018124,24.0192791 93.2632653,24.0910217 C92.8486301,25.0261084 92.348543,25.9208133 91.7693877,26.7637152 C91.260281,26.007803 90.7902745,25.2262169 90.3612245,24.4220434 L89.0020408,24.4220434 C89.5797535,25.633301 90.2511881,26.7974692 91.010204,27.9039009 L90.9244898,28.0326316 C89.9816327,29.3873684 89.0877551,30.7175851 88.677551,31.1895975 L90.1959184,31.1895975 C90.7714285,30.496904 91.2183674,29.7183901 91.6653061,29.111517 L91.744898,28.9766563 Z" id="Shape" fill="#3E3A39"></path>
            <polygon id="Shape" fill="#3E3A39" points="65.8836735 31.1895975 79.1877551 31.1895975 79.1877551 30.0187616 76.6469388 30.0187616 77.0020409 27.2234675 75.6857143 27.2234675 75.3306122 30.0187616 73.1387755 30.0187616 73.1387755 25.72774 78.3244898 25.72774 78.3244898 24.556904 73.1387755 24.556904 73.1387755 21.9639009 76.7755102 21.9639009 76.7755102 20.786935 68.2469388 20.786935 68.2469388 21.9639009 71.8836735 21.9639009 71.8836735 24.556904 66.6979592 24.556904 66.6979592 25.72774 71.8836735 25.72774 71.8836735 30.0187616 69.667347 30.0187616 69.3122449 27.2234675 67.9959183 27.2234675 68.3510204 30.0187616 65.8836735 30.0187616"></polygon>
            <path d="M69.5816327,18.3349226 C69.7897959,18.022291 69.9734694,17.9364706 70.567347,17.9364706 L74.4489796,17.9364706 C75.0612245,17.9364706 75.232653,18.022291 75.4346939,18.3349226 C76.0469387,19.2176471 77.2714285,21.1608669 77.7918367,21.9639009 L79.4632654,21.9639009 C78.8816326,21.0995665 77.344898,18.6659443 76.7571428,17.80774 C76.3535285,17.142845 75.6236534,16.7470063 74.8469388,16.7717647 L74.4795918,16.7717647 L74.1857143,16.1158514 C74.9877551,15.84 75.5020408,15.2024767 75.3551021,14.6323839 C75.2081633,14.062291 74.3265306,13.7373994 73.432653,13.9826006 C72.8503609,14.1014195 72.3593199,14.4906415 72.110204,15.0308359 C71.9905066,14.8001892 71.7572753,14.6507364 71.4979591,14.638514 C71.5346372,14.5277963 71.5532434,14.4118812 71.5530613,14.2952322 C71.542468,13.7601025 71.1596327,13.3052422 70.6346939,13.2040867 L70.6346939,12.2968421 C70.6347824,12.2328782 70.6085971,12.1716921 70.5622807,12.127637 C70.5159643,12.0835819 70.4535923,12.0605344 70.3897959,12.0639009 C70.3253935,12.0638797 70.2637134,12.0899072 70.2187541,12.1360765 C70.1737948,12.1822457 70.1493691,12.2446412 70.1510204,12.3091022 L70.1510204,13.2224767 C70.0132826,13.2572019 69.8841011,13.3197865 69.7714286,13.4063777 L69.1591837,12.7504644 C69.1113136,12.6956917 69.0420796,12.6643861 68.9693878,12.6646439 C68.9110961,12.6672767 68.8552342,12.6887887 68.8102041,12.7259443 C68.7161189,12.8233672 68.7161189,12.9779331 68.8102041,13.0753561 L69.422449,13.7864396 C69.3335113,13.954473 69.2872525,14.1418427 69.2877551,14.3320124 C69.3008478,14.9450423 69.795829,15.4379283 70.4081632,15.447678 C70.5061271,15.4473398 70.6033595,15.4307692 70.6959183,15.3986378 C70.7047923,15.5955481 70.7879361,15.781758 70.9285714,15.9196904 L70.4938775,16.7717647 L70.1510204,16.7717647 C69.3761578,16.747945 68.6485436,17.1438263 68.2469388,17.80774 C67.6346939,18.6659443 66.122449,21.0995665 65.5346939,21.9639009 L67.2122449,21.9639009 C67.7755102,21.1608669 69,19.2176471 69.5816327,18.3349226 Z M73.689796,16.232322 L73.9346939,16.7717647 L73.322449,16.7717647 L73.255102,16.2445821 C73.400029,16.2557471 73.5457265,16.2516379 73.689796,16.232322 Z M72.7408164,16.1403715 L72.8204081,16.7533746 L72.2081632,16.7533746 L72.3,15.8767801 C72.4240187,15.9983543 72.5751036,16.0886972 72.7408164,16.1403715 Z M71.4061224,16.1403715 L71.4734694,16.1403715 C71.5936497,16.1390053 71.7115549,16.1073844 71.8163265,16.048421 L71.7367346,16.7901548 L71.0693877,16.7901548 L71.4061224,16.1403715 Z" id="Shape" fill="#3E3A39"></path>
            <path d="M41.1,31.1895975 L40.4877551,27.9590712 L39.2632653,27.9590712 L39.5326531,29.3812384 L37.5857142,29.491579 L37.5857142,26.3591331 L38.5714285,26.3591331 C38.9548583,26.3985847 39.3376793,26.2789435 39.6306123,26.0281115 C39.8944402,25.7559918 40.0263842,25.3820606 39.9918367,25.0043963 L39.9918367,19.5486688 C40.0245556,19.1730691 39.8927463,18.8017562 39.6306123,18.5310835 C39.3376793,18.2802515 38.9548583,18.1606103 38.5714285,18.200062 L37.5734694,18.200062 L37.5734694,16.6920743 L36.3489796,16.6920743 L36.3489796,18.200062 L35.3632654,18.200062 C34.9798356,18.1606103 34.5970146,18.2802515 34.3040816,18.5310835 C34.0390657,18.7999555 33.9067676,19.1726449 33.9428572,19.5486688 L33.9428572,24.9737461 C33.9009338,25.3488935 34.0263813,25.7234592 34.2857143,25.9974613 C34.5786473,26.2482933 34.9614683,26.3679347 35.3448979,26.328483 L36.3367347,26.328483 L36.3367347,29.5590093 L33.6734694,29.71226 L33.6734694,30.883096 L39.7959184,30.5398142 L39.9183674,31.1895975 L41.1,31.1895975 Z M37.5734694,19.3708978 L38.4122449,19.3708978 C38.6510204,19.3708978 38.7673469,19.4689783 38.7673469,19.6651393 L38.7673469,24.8634056 C38.7673469,25.0595665 38.6510204,25.1576471 38.4122449,25.1576471 L37.5734694,25.1576471 L37.5734694,19.3708978 Z M36.3489796,25.1576471 L35.5102041,25.1576471 C35.2714286,25.1576471 35.155102,25.0595665 35.155102,24.8634056 L35.155102,19.6651393 C35.155102,19.4689783 35.2714286,19.3708978 35.5102041,19.3708978 L36.3489796,19.3708978 L36.3489796,25.1576471 Z" id="Shape" fill="#3E3A39"></path>
            <path d="M85.2367346,29.6754799 C85.2367346,29.902291 85.132653,30.0126316 84.9306122,30.0126316 L83.4183673,30.0126316 L83.4183673,31.1895975 L85.0469387,31.1895975 C85.4332364,31.2262791 85.81726,31.0995944 86.1061225,30.8401858 C86.3630095,30.5671969 86.4882096,30.1956081 86.4489796,29.8226006 L86.4489796,18.0468111 C86.4835271,17.6691469 86.351583,17.2952156 86.0877551,17.023096 C85.7934355,16.7747862 85.4117086,16.6554868 85.0285714,16.6920743 L82.5795918,16.6920743 C82.1946952,16.6565795 81.8114833,16.7756546 81.5142857,17.023096 C81.252684,17.2962836 81.1230228,17.6700809 81.1591836,18.0468111 L81.1591836,28.0448916 C81.1591836,30.3436532 80.7428572,31.1099071 80.7,31.1895975 L81.8693877,31.1895975 C81.9183673,31.1895975 82.377551,30.9198762 82.377551,28.0448916 L82.377551,26.4449536 L85.2183673,26.4449536 L85.2367346,29.6754799 Z M82.3959183,18.1571518 C82.3959183,17.9609907 82.5122449,17.8629102 82.7510204,17.8629102 L84.8755102,17.8629102 C85.1142857,17.8629102 85.2367346,17.9609907 85.2367346,18.1571518 L85.2367346,20.7378948 L82.3959183,20.7378948 L82.3959183,18.1571518 Z M82.3959183,25.2925077 L82.3959183,21.8964706 L85.2367346,21.8964706 L85.2367346,25.2925077 L82.3959183,25.2925077 Z" id="Shape" fill="#3E3A39"></path>
            <path d="M58.0040817,31.1895975 L60.4530612,27.5728792 L62.9020408,31.1895975 L64.2857143,31.1895975 L61.2244898,26.4326935 C61.8045042,25.5302904 62.3122145,24.5833039 62.7428572,23.6006192 C63.541543,21.5542929 63.9966653,19.389785 64.0897959,17.1947369 L62.8653061,17.1947369 C62.7682962,19.2025851 62.3550374,21.1824768 61.6408163,23.0611765 C61.3129813,23.8184727 60.9324541,24.5517923 60.5020408,25.2557276 C60.0763678,24.5491212 59.6960083,23.8161247 59.3632653,23.0611765 C58.6490441,21.1824768 58.2357855,19.2025851 58.1387755,17.1947369 L56.9142858,17.1947369 C56.9760691,19.3842568 57.3980573,21.5485886 58.1632653,23.6006192 C58.593908,24.5833039 59.1016182,25.5302904 59.6816327,26.4326935 L56.5836735,31.1895975 L58.0040817,31.1895975 Z" id="Shape" fill="#3E3A39"></path>
            <path d="M54.6979592,27.9590712 L54.9795919,29.4241486 L53.9020408,29.4854489 L53.9020408,26.3591331 L54.9,26.3591331 C55.2833565,26.3978579 55.665898,26.278304 55.9591836,26.0281115 C56.2338885,25.7499283 56.36882,25.3626456 56.3265306,24.9737461 L56.3265306,19.5486688 C56.3592495,19.1730691 56.2274401,18.8017562 55.9653061,18.5310835 C55.6720204,18.2808911 55.2894789,18.1613372 54.9061224,18.200062 L53.877551,18.200062 L53.877551,16.6920743 L52.6530613,16.6920743 L52.6530613,18.200062 L51.6918367,18.200062 C51.3084803,18.1613372 50.9259387,18.2808911 50.6326531,18.5310835 C50.3705191,18.8017562 50.2387096,19.1730691 50.2714285,19.5486688 L50.2714285,24.9737461 C50.2368811,25.3514104 50.3688252,25.7253416 50.6326531,25.9974613 C50.9259387,26.2476538 51.3084803,26.3672077 51.6918367,26.328483 L52.6836734,26.328483 L52.6836734,29.5590093 L49.9897959,29.71226 L49.9897959,30.883096 L55.2,30.5949846 L55.3163266,31.2079876 L56.5408164,31.2079876 L55.9285715,27.9774613 L54.6979592,27.9590712 Z M53.877551,19.3708978 L54.722449,19.3708978 C54.955102,19.3708978 55.077551,19.4689783 55.077551,19.6651393 L55.077551,24.8634056 C55.077551,25.0595665 54.955102,25.1576471 54.722449,25.1576471 L53.877551,25.1576471 L53.877551,19.3708978 Z M51.844898,25.1331269 C51.6122449,25.1331269 51.4897959,25.0350464 51.4897959,24.8388855 L51.4897959,19.6651393 C51.4897959,19.4689783 51.6122449,19.3708978 51.844898,19.3708978 L52.6836734,19.3708978 L52.6836734,25.1331269 L51.844898,25.1331269 Z" id="Shape" fill="#3E3A39"></path>
            <path d="M130.267347,22.4175233 C129.422449,22.0803715 128.687755,21.76774 128.057143,21.4673684 L128.057143,22.6933746 L124.15102,22.6933746 L124.15102,24.6488545 L129.57551,24.6488545 L129.57551,25.9729412 L124.15102,25.9729412 L124.15102,29.6693498 L130.518367,29.6693498 L130.518367,30.9321362 L116.216327,30.9321362 L116.216327,29.6693498 L122.638775,29.6693498 L122.638775,25.948421 L117.159184,25.948421 L117.159184,24.6243344 L122.638775,24.6243344 L122.638775,22.6811145 L118.542857,22.6811145 L118.542857,21.6573994 C117.930613,21.9516409 117.281632,22.2704025 116.528572,22.6075541 C116.277551,22.1845821 116.002041,21.7432199 115.708163,21.2834675 C119.153062,19.8939938 121.589796,18.230712 123.018368,16.2936223 L124.720409,16.4223529 L124.340816,16.9250154 C126.13929,18.8920079 128.453894,20.3130784 131.020409,21.0260062 C130.736571,21.471274 130.484909,21.9362996 130.267347,22.4175233 Z M119.804081,29.3567183 C119.738118,29.2394162 119.65331,29.1337922 119.553061,29.0440867 C119.052272,28.3528676 118.504007,27.6974116 117.912245,27.0824767 L119.051021,26.3897833 C119.510204,26.8556656 120.122449,27.529969 120.887755,28.4126935 C120.844898,28.3697833 120.887755,28.4126935 121.016326,28.6027244 L119.804081,29.3567183 Z M123.477551,17.9364706 C122.185375,19.3304022 120.673439,20.5025164 119.00204,21.4060681 L127.959184,21.4060681 C126.258575,20.5368782 124.732975,19.3606072 123.459184,17.9364706 L123.477551,17.9364706 Z M126.734694,29.3567183 L125.602041,28.6027244 C126.144898,28.0510217 126.838776,27.3133746 127.683673,26.3897833 L128.877551,27.0824767 C128.62653,27.339938 128.265306,27.6954799 127.806122,28.2226625 C127.346939,28.7498452 126.991837,29.105387 126.734694,29.3567183 Z" id="Shape" fill="#3E3A39"></path>
            <path d="M132.159184,18.1878018 L132.159184,17.0537461 L139.904082,17.0537461 L139.904082,18.1878018 L132.159184,18.1878018 Z M132.410204,31.3734984 L132.410204,23.6803096 L139.720408,23.6803096 L139.720408,29.6693498 C139.820447,30.0937595 139.708369,30.5403772 139.419851,30.8670378 C139.131334,31.1936986 138.702326,31.3596987 138.269388,31.3121982 L137.259183,31.3121982 C137.213077,30.9067556 137.129034,30.5065457 137.008164,30.1168421 C137.319413,30.1704819 137.635455,30.1910295 137.951021,30.1781424 C138.416327,30.2210527 138.62449,30.0065016 138.563265,29.5651393 L138.563265,24.753065 L133.52449,24.753065 L133.52449,31.3734984 L132.410204,31.3734984 Z M132.973469,22.6688545 L132.973469,19.199257 L139.15102,19.199257 L139.15102,22.6811145 L132.973469,22.6688545 Z M133.983673,28.2839629 L133.983673,27.2112074 L136.126531,27.2112074 C136.463266,26.536904 136.8,25.7829102 137.136734,24.943096 L138.079591,25.3170278 C137.951021,25.6112694 137.742857,26.0342414 137.467347,26.5798142 C137.376311,26.7905515 137.27202,26.9952966 137.155102,27.1928174 L138.159183,27.1928174 L138.159183,28.2655728 L136.585714,28.2655728 L136.585714,30.9137461 L135.514285,30.9137461 L135.514285,28.2839629 L133.983673,28.2839629 Z M134.993878,27.0579566 C134.908163,26.8904024 134.761225,26.596161 134.553061,26.1752322 C134.400209,25.8934793 134.230513,25.6212197 134.044898,25.359938 L134.92653,24.9798762 C135.27968,25.515165 135.575206,26.0864013 135.808163,26.6840247 L134.993878,27.0579566 Z M134.17347,20.2291022 L134.17347,21.6757894 L137.951021,21.6757894 L137.951021,20.2291022 L134.17347,20.2291022 Z M140.35102,31.0179566 L140.093877,29.68774 C140.638775,29.68774 141.526531,29.6509597 142.744898,29.5651393 C141.863266,29.6509597 141.92449,29.6509597 142.934694,29.5651393 L142.934694,26.0097213 L141.710204,26.0097213 L141.710204,26.9721362 L140.638775,26.9721362 L140.638775,19.2605573 L142.910204,19.2605573 L142.910204,16.4836532 L144.134694,16.4836532 L144.134694,19.2605573 L146.406122,19.2605573 L146.406122,26.0035914 L144.07347,26.0035914 L144.07347,29.4854489 L145.585714,29.3567183 C145.542857,29.1482972 145.481633,28.8295356 145.395918,28.4126935 C145.273469,27.8671208 145.163265,27.4625387 145.083673,27.1866873 L146.142858,26.9721362 C146.228572,27.2663777 146.357142,27.6893498 146.522449,28.2349226 C146.859184,29.497709 147.091837,30.4601238 147.214285,31.1344272 L146.142858,31.3857586 L145.959184,30.4417337 C143.185714,30.680805 141.312245,30.8708359 140.35102,30.9995665 L140.35102,31.0179566 Z M141.734694,20.4804335 L141.734694,24.7714552 L143.057143,24.7714552 L143.057143,20.4804335 L141.734694,20.4804335 Z M145.328572,20.4804335 L144.067346,20.4804335 L144.067346,24.7714552 L145.328572,24.7714552 L145.328572,20.4804335 Z" id="Shape" fill="#3E3A39"></path>
            <path d="M148.542857,18.819195 C148.502096,18.3702602 148.415941,17.9266255 148.285714,17.4951084 C150.163666,17.4435064 152.036632,17.2756315 153.893878,16.9924459 L154.212245,18.3165325 C153.459952,18.4395797 152.701791,18.5234695 151.940816,18.5678638 L151.940816,20.9647059 L154.083673,20.9647059 L154.083673,22.3562229 L151.940816,22.3562229 L151.940816,24.1216718 L152.381632,23.6128792 C152.499966,23.68235 152.607273,23.7691278 152.7,23.8703405 C153.538776,24.538514 154.126531,25.0227864 154.463266,25.3170278 L153.520409,26.3897833 C153.391837,26.2671826 153.183673,26.0526316 152.908163,25.7767801 C152.485715,25.4028482 152.17347,25.1086068 151.959184,24.8940557 L151.959184,31.5022291 L150.57551,31.5022291 L150.57551,24.8756656 C150.052343,26.2634531 149.352701,27.577936 148.493878,28.7866254 L147.991837,27.1499071 C149.071174,25.7010089 149.89908,24.0804492 150.440816,22.3562229 L148.163266,22.3562229 L148.163266,20.9647059 L150.557143,20.9647059 L150.557143,18.6965944 L148.542857,18.819195 Z M153.893878,27.9713312 L153.771428,26.5798142 L159.50204,26.0097213 L159.50204,16.4836532 L160.953061,16.4836532 L160.953061,25.8871208 L163.22449,25.6970898 L163.285715,27.0824767 L160.953061,27.2725077 L160.953061,31.5022291 L159.50204,31.5022291 L159.50204,27.4012384 L153.893878,27.9713312 Z M157.108163,24.943096 L154.52449,22.7301548 L155.406122,21.7861301 C155.912245,22.1661919 156.606122,22.713808 157.487755,23.4289783 C157.279592,23.3002477 157.487755,23.4657586 158.057142,23.9316409 L157.108163,24.943096 Z M157.959183,21.1547369 C157.751021,20.989226 157.457143,20.7378948 157.077551,20.394613 C156.318368,19.7264396 155.730613,19.2176471 155.314285,18.8804953 L156.195918,17.9364706 C156.906123,18.4820434 157.812245,19.2176471 158.902041,20.1432817 L157.959183,21.1547369 Z" id="Shape" fill="#3E3A39"></path>
            <path d="M164.295918,20.6520743 L164.295918,19.3279876 L166.181633,19.3279876 L166.181633,16.4836532 L167.571429,16.4836532 L167.571429,19.3279876 L169.206122,19.3279876 L169.206122,20.6520743 L167.571429,20.6520743 L167.571429,23.6128792 C168.167006,23.4990769 168.755696,23.351722 169.334694,23.171517 L169.334694,24.6243344 C169.169968,24.6769045 169.00234,24.7198865 168.832653,24.753065 L167.571429,25.0656966 L167.571429,29.5467493 C167.612245,30.7237152 167.085715,31.3121982 165.991837,31.3121982 L164.608163,31.3121982 C164.530906,30.8447494 164.42665,30.3821779 164.295918,29.9268111 L165.428571,29.9268111 C165.973469,29.9635914 166.22449,29.71226 166.181633,29.1666873 L166.181633,25.3844582 L164.228572,25.948421 L164.106123,24.3730031 C164.332522,24.3098785 164.564025,24.2668025 164.797959,24.2442724 C165.410204,24.1216718 165.844898,24.0174613 166.181633,23.9316409 L166.181633,20.6520743 L164.295918,20.6520743 Z M169.904082,20.0819814 L169.904082,18.7578948 L173.620408,18.7578948 L173.620408,16.4223529 L175.102041,16.4223529 L175.102041,18.7578948 L179.197959,18.7578948 L179.197959,20.0819814 L175.102041,20.0819814 L175.102041,22.4175233 L178.438775,22.4175233 L178.438775,23.7416099 C177.779731,25.4468476 176.770164,26.9944005 175.47551,28.2839629 C176.667355,29.1222628 178.020617,29.7026526 179.44898,29.9881115 C179.363265,30.1536223 179.234694,30.4049536 179.069387,30.7421052 C178.904082,31.079257 178.714285,31.3121982 178.628572,31.4409288 C177.131164,30.8453711 175.695719,30.1041748 174.342857,29.2279876 C172.816522,30.181382 171.190504,30.9645636 169.493878,31.5635294 C169.408164,31.3980186 169.236735,31.1037771 168.985714,30.680805 C168.869237,30.5428801 168.764774,30.3952196 168.673469,30.2394427 C170.273734,29.8014909 171.794617,29.1125216 173.179591,28.1981424 C171.961384,26.9192678 171.03587,25.3901732 170.467347,23.7170898 L170.595918,23.6557894 L170.02653,23.6557894 L170.02653,22.4175233 L173.620408,22.4175233 L173.620408,20.0819814 L169.904082,20.0819814 Z M176.895918,23.6803096 L171.918367,23.6803096 C172.475962,25.0600824 173.288071,26.3223861 174.312245,27.4012384 C175.431623,26.3621933 176.31304,25.0928036 176.895918,23.6803096 Z" id="Shape" fill="#3E3A39"></path>
            <polygon id="Shape" fill="#3E3A39" points="116.228572 38.1778328 116.228572 34.4017337 118.353061 34.4017337 118.353061 34.8247059 116.748979 34.8247059 116.748979 36.1181424 118.285715 36.1181424 118.285715 36.5472446 116.748979 36.5472446 116.748979 38.1778328"></polygon>
            <polygon id="Shape" fill="#3E3A39" points="119.583673 38.1778328 119.057143 38.1778328 119.057143 34.4017337 119.583673 34.4017337"></polygon>
            <polygon id="Shape" fill="#3E3A39" points="123.128571 38.1778328 121.016326 35.2108978 121.016326 38.1778328 120.514286 38.1778328 120.514286 34.4017337 121.016326 34.4017337 123.128571 37.3931889 123.128571 34.4017337 123.62449 34.4017337 123.62449 38.1778328"></polygon>
            <path d="M127.75102,38.1778328 L127.218367,38.1778328 L126.87551,37.2644582 L125.112245,37.2644582 L124.769388,38.1778328 L124.236735,38.1778328 L125.736735,34.4017337 L126.251021,34.4017337 L127.75102,38.1778328 Z M125.30204,36.8476161 L126.734694,36.8476161 L126.006122,34.8737461 L125.30204,36.8476161 Z" id="Shape" fill="#3E3A39"></path>
            <polygon id="Shape" fill="#3E3A39" points="130.977551 38.1778328 128.859184 35.2108978 128.859184 38.1778328 128.363266 38.1778328 128.363266 34.4017337 128.859184 34.4017337 130.977551 37.3931889 130.977551 34.4017337 131.47347 34.4017337 131.47347 38.1778328"></polygon>
            <path d="M134.130613,34.3281733 C134.309042,34.3277058 134.487204,34.3420583 134.663266,34.3710835 C134.82165,34.4010633 134.977283,34.4441206 135.128572,34.4998142 L135.042857,34.9043963 C134.906313,34.8596418 134.767308,34.8228005 134.626531,34.7940557 C134.483523,34.7646179 134.337833,34.7502362 134.191837,34.7511455 C133.785625,34.7281639 133.387624,34.8720645 133.089796,35.1495975 C132.568712,35.8156257 132.568712,36.7516808 133.089796,37.417709 C133.387624,37.6952419 133.785625,37.8391426 134.191837,37.816161 C134.337676,37.8140238 134.483082,37.7996703 134.626531,37.7732507 C134.767308,37.744506 134.906313,37.7076648 135.042857,37.6629102 L135.128572,38.0613622 C134.979146,38.1226817 134.822936,38.1658984 134.663266,38.1900929 C134.487361,38.2210613 134.309208,38.2374635 134.130613,38.2391331 C133.846203,38.2440462 133.563509,38.1940972 133.297959,38.0920124 C133.066552,38.0011677 132.857644,37.8610258 132.685715,37.6813003 C132.517816,37.5045963 132.386701,37.2962188 132.3,37.0682972 C132.128302,36.5593254 132.128302,36.0079811 132.3,35.4990093 C132.387842,35.2716601 132.518825,35.0634937 132.685715,34.8860062 C132.859556,34.7100838 133.068057,34.572303 133.297959,34.4814242 C133.563097,34.3772462 133.845805,34.3252135 134.130613,34.3281733 Z" id="Shape" fill="#3E3A39"></path>
            <polygon id="Shape" fill="#3E3A39" points="136.383674 38.1778328 135.863265 38.1778328 135.863265 34.4017337 136.383674 34.4017337"></polygon>
            <path d="M140.534694,38.1778328 L140.002041,38.1778328 L139.659184,37.2644582 L137.895918,37.2644582 L137.559184,38.1778328 L137.026531,38.1778328 L138.526531,34.4017337 L139.034694,34.4017337 L140.534694,38.1778328 Z M138.085715,36.8476161 L139.536735,36.8476161 L138.814286,34.8737461 L138.085715,36.8476161 Z" id="Shape" fill="#3E3A39"></path>
            <polygon id="Shape" fill="#3E3A39" points="141.673469 34.4017337 141.673469 37.7548607 143.265306 37.7548607 143.265306 38.1778328 141.165306 38.1778328 141.165306 34.4017337"></polygon>
            <polygon id="Shape" fill="#3E3A39" points="147.226531 34.4017337 147.226531 34.8247059 146.118367 34.8247059 146.118367 38.1778328 145.59796 38.1778328 145.59796 34.8247059 144.489796 34.8247059 144.489796 34.4017337"></polygon>
            <polygon id="Shape" fill="#3E3A39" points="147.808164 34.4017337 149.908163 34.4017337 149.908163 34.8247059 148.328571 34.8247059 148.328571 36.050712 149.840817 36.050712 149.840817 36.4798142 148.328571 36.4798142 148.328571 37.7732507 149.926531 37.7732507 149.926531 38.1962229 147.808164 38.1962229"></polygon>
            <path d="M152.44898,34.3281733 C152.629432,34.3279466 152.809608,34.3422967 152.987755,34.3710835 C153.144353,34.4001605 153.29803,34.4432433 153.446939,34.4998142 L153.367347,34.9043963 C153.230803,34.8596418 153.091797,34.8228005 152.95102,34.7940557 C152.807966,34.7649223 152.662308,34.7505438 152.516326,34.7511455 C152.108242,34.7279025 151.708247,34.8717248 151.408164,35.1495975 C150.887081,35.8156257 150.887081,36.7516808 151.408164,37.417709 C151.708247,37.6955816 152.108242,37.839404 152.516326,37.816161 C152.662148,37.8137166 152.807529,37.7993657 152.95102,37.7732507 C153.091797,37.744506 153.230803,37.7076648 153.367347,37.6629102 L153.446939,38.0613622 C153.299935,38.123554 153.14564,38.16681 152.987755,38.1900929 C152.809757,38.2208025 152.629591,38.2372017 152.44898,38.2391331 C152.166612,38.2434119 151.886041,38.193471 151.622449,38.0920124 C151.390198,38.0027929 151.180955,37.8624268 151.010204,37.6813003 C150.840689,37.5058618 150.709353,37.2971328 150.62449,37.0682972 C150.444717,36.5606852 150.444717,36.0066214 150.62449,35.4990093 C150.709983,35.2704862 150.841243,35.0618793 151.010204,34.8860062 C151.182985,34.7087923 151.391778,34.5708178 151.622449,34.4814242 C151.885631,34.3778721 152.166215,34.3258478 152.44898,34.3281733 Z" id="Shape" fill="#3E3A39"></path>
            <polygon id="Shape" fill="#3E3A39" points="156.606122 38.1778328 156.606122 36.4798142 154.671428 36.4798142 154.671428 38.1778328 154.151021 38.1778328 154.151021 34.4017337 154.671428 34.4017337 154.671428 36.038452 156.606122 36.038452 156.606122 34.4017337 157.126531 34.4017337 157.126531 38.1778328"></polygon>
            <polygon id="Shape" fill="#3E3A39" points="160.640817 38.1778328 158.528572 35.2108978 158.528572 38.1778328 158.032653 38.1778328 158.032653 34.4017337 158.528572 34.4017337 160.640817 37.3931889 160.640817 34.4017337 161.142857 34.4017337 161.142857 38.1778328"></polygon>
            <path d="M163.689796,38.2452631 C163.420051,38.2504084 163.152486,38.1959918 162.906122,38.0858824 C162.684285,37.9881251 162.485952,37.8438947 162.32449,37.6629102 C162.169823,37.4819345 162.04948,37.2741896 161.969387,37.0499071 C161.890576,36.8085336 161.851292,36.5559818 161.853061,36.3020434 C161.850857,36.0480729 161.890151,35.795451 161.969387,35.5541796 C162.04948,35.3298971 162.169823,35.1221522 162.32449,34.9411765 C162.485952,34.760192 162.684285,34.6159616 162.906122,34.5182043 C163.151843,34.4061026 163.419865,34.3515932 163.689796,34.3588235 C163.961598,34.3527715 164.231352,34.407208 164.479592,34.5182043 C164.700518,34.6144838 164.897151,34.7589992 165.055102,34.9411765 C165.213911,35.1191789 165.334747,35.3277738 165.410204,35.5541796 C165.491412,35.7951306 165.532773,36.0477433 165.532654,36.3020434 C165.532339,36.5563079 165.49099,36.8088511 165.410204,37.0499071 C165.334747,37.2763129 165.213911,37.4849078 165.055102,37.6629102 C164.897151,37.8450875 164.700518,37.9896029 164.479592,38.0858824 C164.230581,38.1944458 163.961367,38.2487731 163.689796,38.2452631 Z M163.689796,37.828421 C163.888394,37.8313444 164.085099,37.7894405 164.265306,37.7058204 C164.429255,37.6342024 164.575542,37.5274901 164.693878,37.3931889 C164.807406,37.2468526 164.892548,37.080516 164.944898,36.9027864 C165.002744,36.7036383 165.031613,36.4971802 165.030612,36.2897833 C165.032134,36.0823516 165.003256,35.8758184 164.944898,35.6767801 C164.893811,35.5004124 164.808514,35.3358534 164.693878,35.1925077 C164.584866,35.0515797 164.444371,34.9382052 164.283674,34.861486 C164.103466,34.7778661 163.906761,34.7359622 163.708163,34.7388855 C163.511543,34.73604 163.316845,34.7779621 163.138775,34.861486 C162.97634,34.9381711 162.833844,35.0514702 162.722449,35.1925077 C162.609857,35.3362706 162.526642,35.5008251 162.477551,35.6767801 C162.416138,35.8751468 162.387193,36.0821572 162.391837,36.2897833 C162.387617,36.4973843 162.416554,36.704327 162.477551,36.9027864 C162.527907,37.0801218 162.61097,37.2464532 162.722449,37.3931889 C162.835984,37.5305026 162.97806,37.6413756 163.138775,37.7180805 C163.312198,37.7947057 163.500279,37.8323683 163.689796,37.828421 Z" id="Shape" fill="#3E3A39"></path>
            <polygon id="Shape" fill="#3E3A39" points="166.763265 34.4017337 166.763265 37.7548607 168.367346 37.7548607 168.367346 38.1778328 166.273469 38.1778328 166.273469 34.4017337"></polygon>
            <path d="M170.418367,38.2452631 C170.146797,38.2487731 169.877582,38.1944458 169.628572,38.0858824 C169.407645,37.9896029 169.211013,37.8450875 169.053061,37.6629102 C168.894252,37.4849078 168.773417,37.2763129 168.697959,37.0499071 C168.617173,36.8088511 168.575824,36.5563079 168.57551,36.3020434 C168.57539,36.0477433 168.61675,35.7951306 168.697959,35.5541796 C168.773417,35.3277738 168.894252,35.1191789 169.053061,34.9411765 C169.211013,34.7589992 169.407645,34.6144838 169.628572,34.5182043 C169.876812,34.407208 170.146566,34.3527715 170.418367,34.3588235 C170.688298,34.3515932 170.956319,34.4061026 171.20204,34.5182043 C171.423878,34.6159616 171.62221,34.760192 171.783673,34.9411765 C171.938428,35.1210422 172.056935,35.3292074 172.132653,35.5541796 C172.216842,35.7943781 172.258287,36.0475035 172.255102,36.3020434 C172.257786,36.5565453 172.216355,36.8095844 172.132653,37.0499071 C172.056935,37.2748793 171.938428,37.4830445 171.783673,37.6629102 C171.62221,37.8438947 171.423878,37.9881251 171.20204,38.0858824 C170.955678,38.1959918 170.688113,38.2504084 170.418367,38.2452631 Z M170.418367,37.828421 C170.614988,37.8312665 170.809685,37.7893444 170.987755,37.7058204 C171.156107,37.6357661 171.306709,37.5289567 171.428572,37.3931889 C171.540051,37.2464532 171.623113,37.0801218 171.673469,36.9027864 C171.734467,36.704327 171.763402,36.4973843 171.759184,36.2897833 C171.763828,36.0821572 171.734883,35.8751468 171.673469,35.6767801 C171.624379,35.5008251 171.541164,35.3362706 171.428572,35.1925077 C171.317177,35.0514702 171.17468,34.9381711 171.012245,34.861486 C170.834174,34.7779621 170.639478,34.73604 170.442858,34.7388855 C170.244259,34.7359622 170.047554,34.7778661 169.867347,34.861486 C169.706649,34.9382052 169.566155,35.0515797 169.457143,35.1925077 C169.342507,35.3358534 169.257209,35.5004124 169.206122,35.6767801 C169.147765,35.8758184 169.118887,36.0823516 169.120408,36.2897833 C169.119408,36.4971802 169.148275,36.7036383 169.206122,36.9027864 C169.258471,37.080516 169.343614,37.2468526 169.457143,37.3931889 C169.568912,37.5298021 169.708838,37.6406272 169.867347,37.7180805 C170.041004,37.7939586 170.22892,37.8315882 170.418367,37.828421 Z" id="Shape" fill="#3E3A39"></path>
            <path d="M174.777551,34.3281733 C174.982621,34.3279349 175.187373,34.3443353 175.389796,34.3772136 C175.570861,34.4080538 175.746281,34.465911 175.910204,34.5488545 L175.82449,34.9595665 C175.661332,34.8956228 175.493486,34.8443869 175.322449,34.8063158 C175.147246,34.769762 174.968763,34.7512754 174.789796,34.7511455 C174.381137,34.7269752 173.981172,34.8760355 173.687755,35.1618576 C173.402458,35.4800948 173.256855,35.8997729 173.283674,36.3265635 C173.234897,36.7412597 173.379845,37.1553061 173.676529,37.4487648 C173.973215,37.7422236 174.388482,37.8823012 174.80204,37.828421 C174.924317,37.8376291 175.047112,37.8376291 175.169388,37.828421 C175.275102,37.8174512 175.379609,37.7969343 175.481633,37.7671208 L175.481633,36.5411145 L175.959183,36.5411145 L175.959183,38.0061919 C175.78194,38.0781256 175.597068,38.1295428 175.408163,38.1594427 C175.188172,38.201114 174.964708,38.2216407 174.740816,38.220743 C174.456816,38.2274599 174.174163,38.1795991 173.908164,38.0797523 C173.68,37.9939983 173.471681,37.8625947 173.295918,37.6935604 C173.123709,37.5202548 172.991982,37.3109053 172.910204,37.0805573 C172.816431,36.8319456 172.770721,36.56775 172.77551,36.3020434 C172.771322,36.0263975 172.816954,35.7522653 172.910204,35.4928792 C173.089554,35.0128074 173.466486,34.6331751 173.944898,34.450774 C174.212664,34.3594315 174.494857,34.3178813 174.777551,34.3281733 Z" id="Shape" fill="#3E3A39"></path>
            <polygon id="Shape" fill="#3E3A39" points="178.806122 34.4017337 179.387755 34.4017337 178.163265 36.6882353 178.163265 38.1778328 177.642858 38.1778328 177.642858 36.6882353 176.418367 34.4017337 176.938776 34.4017337 177.887755 36.2039629"></polygon>
        </g>
    </g>
</svg>