<svg height="90" viewBox="0 0 180 90" width="180" xmlns="http://www.w3.org/2000/svg"><g fill-rule="evenodd" transform="translate(0 35)"><path d="m.63529412 0h15.52941178v4.12941176c-1.7529412-.02352941-3.5058824-.05882352-5.2588235-.08235294 0 4.92941177-.0117648 9.84705878 0 14.77647058-1.68235299 0-3.35294122 0-5.02352946 0 0-4.917647 0-9.83529411 0-14.76470587-1.76470588.01176471-3.52941176.02352941-5.28235294.04705882.01176471-1.03529411.02352941-3.08235294.03529412-4.10588235z"/><path d="m71.7764706 5.72941176c-.4941177-6.72941176 10.5764706-7.74117647 12.717647-1.89411764-2.2588235-.74117647-4.4588235-1.77647059-6.8235294-2.12941177-2.4117647-.23529411-5.3058823 2.71764706-3.1647058 4.81176471 3.3411764 2.12941176 9.2941176 1.8 10.2117647 6.51764704.2470588 7.2705883-11.6 7.682353-13.7529412 1.5529412 3.1764706 1.0352941 6.5647059 3.6705882 9.9882353 1.8941176 1.9529412-.7647058 2.5529412-3.9058823.5529412-4.9764705-3.1058824-2.07058828-8.3529412-1.69411769-9.7294118-5.77647064z"/><path d="m17.6470588 2.35294118c4.0235294.0117647 8.0588236 0 12.082353 0 0 .95294117-.0117647 2.88235294-.0117647 3.83529411-2.5647059.01176471-5.1176471.01176471-7.682353.01176471v2.89411765h7.3764706v3.84705885c-2.4588235 0-4.9176471 0-7.3647059 0-.0117647.5058823-.0235294 1.5294117-.0352941 2.0352941 2.5647059 0 5.1294118 0 7.6941177.0117647.0117647.9529412.0352941 2.8823529.0470588 3.8352941-4.0352941 0-8.0705883 0-12.1058824 0 0-5.4941176 0-10.97647058 0-16.47058822z"/><path d="m36.5647059 2.34117647c1.8352941 0 3.6705882.02352941 5.4941176.05882353 2.0235294 5.49411765 4.0705883 10.9647059 6.1529412 16.4235294-1.6235294 0-3.2588235 0-4.8823529.0117647-.282353-.517647-.8352942-1.5411765-1.1176471-2.0588235-2.0235294 0-4.0470588 0-6.0588235 0-.1764706.5058823-.5176471 1.5411765-.6941177 2.0470588-1.7058823 0-3.4117647 0-5.117647 0 2.0352941-5.5058823 4.1411764-10.98823528 6.2235294-16.48235293zm.8470588 10.61176473c.9294118-.0117647 2.7882353-.0117647 3.7176471-.0117647-.6117647-1.8705883-1.2235294-3.7411765-1.8588236-5.61176474-.6352941 1.87058824-1.2470588 3.74117644-1.8588235 5.62352944z" fill-rule="nonzero"/><path d="m49.7176471 2.36470588c1.9411764-.0117647 3.8823529-.0117647 5.8352941-.0117647 1.1529412 3.03529411 2.2705882 6.09411764 3.4117647 9.14117642 1.1647059-3.04705878 2.2705882-6.10588231 3.4470588-9.14117642h5.8235294v16.47058822c-1.0941176 0-3.2941176 0-4.3882353 0 0-3.3529412 0-6.7058823-.0235294-10.05882352-1.2705882 3.35294122-2.3058823 6.83529412-4.0117647 10.02352942-.4117647 0-1.2588235.0117647-1.6823529.0117647-1.7294118-3.1764706-2.7411765-6.6705882-4-10.04705882-.0117647 3.35294122-.0117647 6.71764702-.0117647 10.07058822-1.4705883 0-2.9294118 0-4.4-.0117647.0117647-5.4823529.0117647-10.96470588 0-16.44705882z"/><path d="m88.7647059 1.61176471c4.917647 3.51764705 7.4117647 9.28235289 11.2117647 13.83529409.0352944-4.3647059.0117647-8.72941174.0235294-13.09411762h1.882353c-.023529 5.74117647.058823 11.48235292-.070588 17.22352942-4.8823532-3.6588235-7.4000003-9.4705882-11.2235297-14.08235295-.0117647 4.44705882.0117647 8.88235295 0 13.32941175-.4705882 0-1.4117647 0-1.8823529 0 .0117647-5.7411765-.0588236-11.48235293.0588235-17.21176469z"/><path d="m106.352941 2.35294118h1.882353v16.47058822c-.470588 0-1.411765 0-1.882353 0 0-5.4941176 0-10.97647058 0-16.47058822z"/><path d="m112.235294 2.28235294c2.529412.05882353 5.070588-.05882353 7.576471.30588235 4.57647.70588236 5 8.14117651.97647 9.85882351-2.164706.6117647-4.447059.482353-6.670588.6588236v5.717647c-.470588 0-1.411765 0-1.882353 0-.011765-5.517647 0-11.0235294 0-16.54117646zm1.894118 1.54117647c-.02353 2.54117647-.02353 5.08235294 0 7.63529409 1.917647-.1058823 3.847059-.1294117 5.752941-.4235294 2.352941-1.32941175 2.470588-5.41176469.023529-6.67058822-1.894117-.4117647-3.847058-.4117647-5.77647-.54117647z" fill-rule="nonzero"/><path d="m127.058824 2.28235294c2.682352.09411765 5.411764-.15294118 8.058823.43529412 4.388235 1.10588235 4.4 8.61176474.094118 9.85882354-2.058824.4235294-4.188236.4-6.282353.5411765 0 1.9058823.011764 3.8117647.011764 5.7058823-.470588 0-1.411764 0-1.882352 0 0-5.517647 0-11.0235294 0-16.54117646zm1.882352 1.55294118v7.67058828c2.294118-.4117648 5.094118.2823529 6.976471-1.3764706.823529-1.84705886 1-4.97647062-1.305882-5.81176474-1.870589-.37647059-3.776471-.36470588-5.670589-.48235294z" fill-rule="nonzero"/><path d="m141.176471 2.35294118c3.870588-.01176471 7.764705-.08235294 11.623529.23529411-2.788235 2.24705883-6.482353 1.27058824-9.752941 1.41176471v6.1058824c2.905882.0117647 5.811765.0352941 8.729412.0588235l-.011765 1.5882353c-2.905882.0117647-5.811765.0235294-8.717647.0235294v5.4c3.270588.1411765 6.97647-.8470588 9.752941 1.4117647-3.870588.3176471-7.752941.2470588-11.623529.2352941 0-5.4941176 0-10.97647058 0-16.47058822z"/><path d="m152.917647 2.6c4.282353-.35294118 8.576471-.27058824 12.870588-.18823529l.047059 1.52941176c-1.717647.03529412-3.435294.05882353-5.141176.08235294.011764 4.92941177.011764 9.87058819.011764 14.79999999-.470588 0-1.411764 0-1.882353 0 0-4.8588235 0-9.71764705 0-14.57647058-2.047058-.22352941-4.188235-.31764706-5.905882-1.64705882z"/><path d="m170.341176 3.23529412c3.188236-1.87058824 7.764706-.75294118 9.482353 2.6117647-3.070588-1.2117647-9.211764-3.87058823-9.894117 1.32941177 2.423529 2.03529412 5.717647 2.35294117 8.364706 4.00000001 2.094117 1.6235294 1.552941 5.1529412-.541177 6.5411765-3.458823 2.1411764-8.858823 1.3058823-10.623529-2.6705883 2.670588.682353 5.282353 2.7529412 8.152941 1.9529412 1.905882-.4117647 2.282353-2.6588235 3.023529-4.1411765-3.2-1.1764706-6.823529-1.7529411-9.482353-4.03529409-1.435294-1.83529412-.305882-4.50588235 1.517647-5.58823529z"/></g></svg>