<svg height="90" viewBox="0 0 180 90" width="180" xmlns="http://www.w3.org/2000/svg"><path d="m0 33h20.002649c.2741722 2.4437086.4172185 4.9112583.202649 7.3549669-2.3125828 3.1589404-5.3046357 5.8172185-8.3443708 8.2728477-2.07417223 1.6331126-4.88741727-.0238411-5.16158945-2.5033113 1.09668874-2.4437086 3.26622516-4.1125828 5.01854305-6.0556291-.4410596-.3933775-1.3350993-1.1682119-1.77615895-1.5496689-2.02649006 2.3245033-5.37615894 4.184106-5.56688741 7.581457-.22649007 4.1483443 5.00662251 7.1046357 8.45165566 4.8754966 2.8013245-1.9311258 5.018543-4.5417218 7.4622516-6.8781457-.0119205 3.0039736-.0119205 6.0198676-.1430463 9.0238411-6.6993378.2264901-13.42251659.2503311-20.13377487-.0476821l-.01192053 6.6516556v-14.2092715c2.8013245-2.9682119 5.57880795-6.0437086 8.90463576-8.4278146 2.10993374-1.2993377 5.05430464.5364239 4.78013244 3.0278146-1.5735099 2.4437086-3.6596026 4.4940397-5.19735098 6.9735099 3.37350998-.0834437 5.78145698-2.8251655 7.27152318-5.5430463 1.7642384-4.1602649-3.0039735-8.6543047-7.11655629-7.0688742-3.46887418 1.7284768-5.9602649 4.8993377-8.64238411 7.605298zm25.1403974 1.7284768c.5960264.0238411 1.7761589.0596027 2.3602649.0834437 1.0013245 4.3629139 2.0622516 8.7019868 2.8966887 13.1006623.9536424-4.3986755 2.0145695-8.7854305 3.0754967-13.1602649.7271523.0119205 2.1695364.0357616 2.8966887.0476821 1.0609272 4.3986755 2.2291391 8.7615894 3.1231788 13.1960265.9655629-4.2556291 1.597351-8.6304636 3.0516557-12.7549669l2.1695364-1.0370861c-1.0728477 5.5311258-2.3245033 11.0741722-4.0529801 16.4264901-.5364239.2384106-1.6092716.6913907-2.1456954.9178808-1.4185431-4.6966888-2.5390729-9.4768212-3.5880795-14.2688742-1.0847682 4.6490066-1.9668874 9.3695364-3.4688742 13.9112583l-2.1099337-.0834437c-1.7046358-5.3642384-2.7774835-10.9192053-4.207947-16.378808zm33.1867549.1430464c.5602649-.0476821 1.6688742-.1430464 2.2291391-.202649.0119205 1.7403973.0238411 3.4807947.0119205 5.221192 1.8715232-.405298 3.9218543-1.6331126 5.7695364-.4887417 3.6238411 2.1099338 3.7192053 7.8675497 1.0609272 10.7761589-1.7403974 1.9192053-4.410596 1.0490067-6.5205298.4291391-.8463576.2503311-1.6927152.4768212-2.5390729.6913907-.0119205-5.4715231 0-10.9549668-.0119205-16.42649zm3.1470199 6.9854304c-1.9192053 2.3602649-1.1682119 8.2847683 2.8370861 7.5218543 5.0900662-1.1324503 2.0503311-11.8728476-2.8370861-7.5218543zm10.4900662-7.1046357c3.6953642.2860927 8.4516556-.9655629 11.1218543 2.3483444 2.5033113 3.6834437 2.3125828 9.4529801-1.0490066 12.5523178-2.8728477 2.1695365-6.7470199 1.2278146-10.0728477 1.4900663-.0119205-5.4596027-.0119205-10.9311259 0-16.3907285zm2.3721854 2.0622516c-.0715231 4.0887418-.0715231 8.1774835-.0119205 12.2662252 2.4437086-.2980132 5.7695364.2622517 7.176159-2.3125828 1.2516556-2.7298013 1.3350993-6.4490066-.7271524-8.821192-1.8596026-1.3350994-4.3033112-.8582782-6.4370861-1.1324504zm36.8701992-2.0384106c1.764238-1.4423841 3.588079 1.6331126 1.978807 2.8728477-1.680794 1.3708609-3.647682-1.6807947-1.978807-2.8728477zm37.764238 16.6768212c-8.880795-.1788079-9.536424-15.4609271-1.001325-16.9033112 3.921855-1.0251656 7.319206 1.9549669 8.201325 5.6145695-3.003974 0-4.112583-4.0410596-7.140397-3.5880795-6.246358.6317881-6.198676 11.8370861-.131126 12.7311259 3.933775.7271523 3.993377-4.8635762 7.629139-4.9470199-.750994 3.6357616-3.290066 7.605298-7.557616 7.0927152zm9.488742-16.5814569c.560265-.0476821 1.668874-.1549669 2.217218-.202649.083444 5.4834437.035762 10.9549669.047682 16.4384106-.560265 0-1.692715 0-2.25298 0-.01192-5.4119206 0-10.8238411-.01192-16.2357616zm-109.5258282 16.2834437c-6.1033112-1.9072848-4.4940397-13.2794702 2.3721855-12.194702 3.4450331.202649 4.1602649 3.9933775 4.7920529 6.6635762-3.0397351.1311258-6.0913907.1311258-9.1311258.2384106.9655629 1.418543 1.8238411 4.1960264 4.1125828 3.4688741 1.6450331-.8225165 3.1470199-2.02649 5.0900662-2.002649-1.3470198 2.6701987-4.0768212 5.0543047-7.2357616 3.8264901zm-1.9668874-7.2c2.3364239.0476821 4.6847682.0357616 7.0211921-.0238411-1.1562914-1.1801324-1.9072848-3.82649-4.0410596-3.0754967-1.57351.2503312-2.0145696 2.1099338-2.9801325 3.0993378zm43.5933775 7.2834437c-6.0317881-1.4543046-5.2569536-12.4092715 1.2516556-12.3139073 3.8741722-.3695364 5.0543047 3.7430464 5.5549669 6.7350993-3.0278146.0953643-6.0556291.0953643-9.0834437.2026491 1.0847682 1.2993377 1.5615894 3.7549668 3.6476821 3.6357615 1.8238411-.834437 3.5046358-1.9549668 5.3880795-2.6940397-.786755 2.9443709-3.5403974 5.4953642-6.7589404 4.4344371zm-2.2768212-7.2953642c2.3125828.0476821 4.6370861.0476821 6.9615894 0-.5364238-.7390729-1.597351-2.2052981-2.1218543-2.9443709-2.3364238-1.0370861-3.7311258 1.2993377-4.8397351 2.9443709zm10.9311258-1.5496689c.6198676-5.2331126 9.5483445-4.3390729 9.4410595.9417218-2.47947-1.2754967-4.94702-3.1947019-7.87947-1.9549668 1.919205 3.3854304 8.880795 1.9788079 7.974834 6.9973509-.715231 5.3284769-12.2662248 3.1350994-8.8807943-1.9907284 1.5019863 2.1814569 4.6370863 4.6013245 6.8543043 1.823841-.619867-3.5880794-7.5099335-1.4900662-7.5099335-5.8172185zm12.1350995-3.7668874c.476821.2741722 1.430463.810596 1.907285 1.0728476.309933 3.8026491.083443 7.6052981.131125 11.4079471-.560264 0-1.680794 0-2.241059 0 0-4.1602649-.119205-8.3324504.202649-12.4807947zm6.103311 10.6331125c-4.05298-4.029139.059603-12.9576158 6.06755-9.7390728.715232-.0834437 2.133775-.2384106 2.837086-.3218543-.202649 4.5536424.45298 9.202649-.369537 13.7086093-2.312582 3.5761589-9.190728 2.9801324-9.965562-1.6927153 2.348344.5602649 4.792053 3.0874173 7.271523 1.5615894.345695-.7033112 1.049006-2.0980132 1.394702-2.7894039-2.360265.2980132-5.4 1.5496688-7.235762-.7271524zm2.038411-7.7960264c-2.276821 1.9788079-1.609272 7.5337748 2.02649 7.1165563 4.792053-.4291391 2.777483-10.1324504-2.02649-7.1165563zm9.953642-2.0145696c3.051656.5960265 7.283444-2.0145695 9.309934 1.2754967.846358 3.3735099.298013 6.9258278.429139 10.3708609-.739073.0119206-1.490066.0119206-2.229139.0238411 0-3.3139073.023841-6.615894-.286093-9.9059603-1.478146.1668875-3.909934-.6794702-4.50596 1.2516557-.750993 2.8013245-.21457 5.7814569-.357616 8.6423841h-2.324503c0-3.8860927.01192-7.7721855-.035762-11.6582782zm34.378808-.1788079c.560265-.0119206 1.680795-.0476821 2.24106-.0596027.01192 4.1364239.071523 8.2847682-.095365 12.4211921l-2.014569-1.0251656c-.333775-3.7668874-.071523-7.5576159-.131126-11.3364238zm5.376159.0596026c3.945695-.0953642 9.345695-1.418543 10.8 3.6238411v4.3509934c-.989404 3.7192053-4.684768 4.7443708-8.058278 3.6119205-.429139 1.7403973-.846358 3.4927152-1.454305 5.1854305-2.586755-5.1615894-.774834-11.2291391-1.287417-16.7721855zm3.051656 2.6344371c-1.835762 2.4913907-1.049007 8.010596 2.908609 7.5099338 5.149669-1.3589404 2.03841-12.0397351-2.908609-7.5099338z" fill="#1a1717" fill-rule="evenodd"/></svg>