<svg height="90" viewBox="0 0 180 90" width="180" xmlns="http://www.w3.org/2000/svg"><g fill="#424243" fill-rule="evenodd" transform="translate(0 13)"><path d="m5.70887574 11.0236686c2.30059172-3.88757393 5.99644966-6.65680469 8.59526626-10.32071002 1.2035503 2.23668639 2.6094675 4.37751479 4.3775148 6.22011834 7.5727811 7.99881658 11.4497041 19.61893488 9.3940828 30.53609468-1.3952662 7.6260355-5.9857988 14.5491124-12.4295858 18.8733728-.660355-10.7573965-.4260355-21.5680474-1.4591716-32.3147929-1.033136 10.7680473-.4047337 21.6-.7668639 32.3893491-7.26390528-5.5810651-12.59999996-13.8887574-13.4201183-23.1337278v-3.791716c.46863905-6.4757396 2.2260355-12.9408284 5.70887574-18.4579882z"/><path d="m54.2449704 16.2106509c6.6781065.5538461 14.6130178-1.7573965 20.1940829 2.9928994 6.528994 6.8698225 6.4970414 19.4272189-.47929 25.9881657-5.5597633 4.3881657-13.2071006 2.1088757-19.7147929 2.6733728 0-10.5443787 0-21.0994083 0-31.6544379zm3.0568047 2.747929c-.0106508 8.7443787-.0106508 17.4781065 0 26.2224852 5.027219-.3621302 11.0982249 1.1822485 15.2307693-2.4497042 4.6757396-5.5597633 4.7076923-14.304142.8733728-20.3218934-3.7171598-5.0698225-10.7467456-3.0568048-16.1041421-3.4508876z" fill-rule="nonzero"/><path d="m128.52426 17.3076923c.947929.0852071 1.895858.1810651 2.833136.2769231-.063905.9692308-.202366 2.8970414-.276923 3.8662722-.617751 0-1.874556.0106509-2.492307.0106509-.031953-1.3846154-.042604-2.7692308-.063906-4.1538462z"/><path d="m85.7502959 29.1940828c3.4402366-4.164497 10.608284-4.3455621 14.0698224-.1171597 2.0556217 2.1940828 2.5029587 5.2615384 2.9289937 8.1053254-5.64497.0426036-11.2792895 0-16.9242599.0319527.468639 2.3112426.4899408 4.9633136 2.2579881 6.7420118 1.9065089 2.0769231 5.123077 2.4390533 7.7112426 1.608284 2.6840237-.6177514 3.5147929-4.547929 6.6568052-3.8556213-1.597634 7.583432-12.8982253 8.9467456-17.1159768 2.939645-3.0355029-4.5159763-3.1420118-11.1834319.4153847-15.4544379zm.1171597 5.7727811c4.6863906-.0106509 9.3940829.2449704 14.0698225-.2130177-1.1076923-2.7905326-2.6733728-6.2307693-6.1881657-6.347929-4.1431952-.7881657-7.0721893 2.9396449-7.8816568 6.5609467z" fill-rule="nonzero"/><path d="m107.499408 32.9538462c-1.128994-8.5207101 13.207101-9.4366864 15.443787-2.0556213-3.00355 1.4059171-4.153846-2.5029586-6.912426-2.5349113-2.396449-.4579882-6.12426.3940828-5.985799 3.4295858.35148 3.8556213 5.368048 3.2165681 8.041421 4.4627219 4.100591.7775148 5.911242 6.2414201 3.216568 9.383432-4.015385 4.633136-12.578699 3.3017751-15.060355-2.3431953.479289-.4047337 1.459171-1.2035503 1.949112-1.608284 1.491124 2.364497 3.759763 4.7183432 6.848521 4.2923077 2.950296.2449704 6.273372-2.8544379 4.55858-5.8047338-3.131361-3.695858-10.885208-1.4591716-12.099409-7.2213017z"/><path d="m128.566864 26.4781065h2.588166v21.3976331c-.649705 0-1.949113 0-2.588166 0-.010651-7.1360946-.010651-14.2615384 0-21.3976331z"/><path d="m138.695858 30.0781065c3.067456-5.2402367 11.449704-5.3573964 14.751479-.2662722-.031952-.8307692-.117159-2.4923077-.159763-3.3230769h2.588166c-.021302 7.5195266.042603 15.0390533 0 22.5585799-.031953 2.8650887-.47929 6.1775148-2.960947 8.0094674-5.463905 3.7278107-15.294675 1.7893491-15.997633-5.7834319.692307-.1384616 2.055621-.4153846 2.747929-.5538462.575148 5.4639054 7.263905 7.4236687 11.449704 4.6118343 3.024852-2.8011834 1.874556-7.4236686 2.375148-11.076923-2.705326 4.8781065-10.128994 5.4106509-13.728994 1.2781065-3.47219-4.2177515-3.685207-10.7573965-1.065089-15.4544379zm4.484024-.8733728c-4.217752 2.7798817-4.217752 8.9893491-2.439054 13.2177515 1.906509 4.6224852 9.660355 4.7609468 11.534912.0639053 1.278106-3.3550296 1.331361-7.2745562.085207-10.6508875-1.373965-3.5254438-6.11361-4.4201184-9.181065-2.6307693z" fill-rule="nonzero"/><path d="m162.852071 26.4781065c.671006 0 2.013018.0106509 2.684024.0106509-.042604.8307692-.138462 2.4923077-.191716 3.3337278 2.790532-4.7928994 11.055621-5.304142 13.452071.0639053.915976 5.9218935.213017 11.9822486.426035 17.9573965-.585799.0213018-1.768047.0639053-2.353846.0745562-.24497-5.5810651.447337-11.2366864-.447337-16.764497-1.863906-4.6011835-9.585799-3.0461539-10.491124 1.5656804-.937279 4.9846154-.23432 10.1183432-.436687 15.156213-.660355 0-1.981065 0-2.64142-.0106508-.010651-7.1254438 0-14.2615385 0-21.3869823z"/><path d="m14.4319527 56.4710059c1.4698224 1.5017752.7668639 4.8674556.4473372 6.9656805-1.2035503-1.6934911-1.1822485-4.8781065-.4473372-6.9656805z"/></g></svg>