<svg height="90" viewBox="0 0 180 90" width="180" xmlns="http://www.w3.org/2000/svg"><path d="m25.0274081 30.7553236 3.0921905 5.3594889c.5247384.9096771-.1312273 2.0465178-1.1807041 2.0465178l-14.7299998.0001705c-.9743194 0-1.8745041-.5201566-2.36140823-1.3643452l-9.33298204-16.1763585c-.48707453-.8443591-.48707453-1.8845017 0-2.7286904l9.33298204-16.1761879c.48690413-.84435912 1.38708883-1.36434517 2.36140823-1.36434517h18.6657938c.9739786 0 1.8743337.51998605 2.3614082 1.36434517l9.332982 16.1761879c.4869042.8441887.4869042 1.8843313 0 2.7286904l-7.365085 12.7653251c-.5247385.9096771-1.8366698.9096771-2.3615787 0l-3.1140048-5.3973496c-.2892112-.5013968-.2268356-1.1274607.1467359-1.5696791 1.6055735-1.9005328 2.5737577-4.3577185 2.5737577-7.0412149 0-6.1990728-5.1643876-11.19104118-11.4225625-10.9029938-5.5877231.25734961-10.1230722 4.7960143-10.380073 10.387783-.2876774 6.2621738 4.7006613 11.4299722 10.8954381 11.4299722.6948225 0 1.373966-.0665118 2.0324881-.1916905.5762068-.1094887 1.1599122.1461555 1.4532136.6543741zm-3.4857188-16.9035886c3.0120908 0 5.4535987 2.4433716 5.4535987 5.4573807 0 3.0141795-2.4415079 5.4573807-5.4535987 5.4573807-3.0119203 0-5.4535987-2.4432012-5.4535987-5.4573807 0-3.0140091 2.4416784-5.4573807 5.4535987-5.4573807zm31.1190353 13.0540546h-3.2883496c-.0484007 0-.0877688-.039225-.0877688-.0878297v-14.502307c0-.0484343.0393681-.0876592.0877688-.0876592h3.2883496c.0484007 0 .0875984.0392249.0875984.0876592v14.502307c0 .0486047-.0391977.0878297-.0875984.0878297zm-3.8500703-19.4279342c0-1.22791063.9934071-2.22183608 2.1913242-2.22183608 1.2270597 0 2.2202963.99392545 2.2202963 2.22183608 0 1.2279107-.9932366 2.19267326-2.2202963 2.19267326-1.1979171 0-2.1913242-.96476256-2.1913242-2.19267326zm14.8404352 7.5228287c-2.1383223 0-4.0356632 1.5974777-4.0356632 4.5511144 0 2.9536368 1.8973409 4.6113162 4.0959933 4.6113162 2.2337603 0 3.2915878-1.5214154 3.6493098-2.6311396.0148268-.0463878.0625461-.0678762.1083907-.0513336l2.906938 1.0553211c.0453335.0165426.0710675.065659.056411.1115351-.719705 2.2678828-2.9118811 4.7102312-6.7210495 4.7102312-4.3069794 0-7.5897049-3.3453744-7.5897049-7.8059304 0-4.5209282 3.2827255-7.7759147 7.4993798-7.7759147 3.9008571 0 6.0647424 2.4159142 6.6954853 4.7426343.0121003.0450234-.0136336.0922639-.0574332.108295l-2.9670984 1.0848249c-.0473779.0172249-.0969718-.0076744-.1104351-.0561087-.3532912-1.272593-1.3519812-2.6548452-3.5305236-2.6548452zm16.053179 9.2226323c2.1684871 0 4.0961637-1.5973071 4.0961637-4.6715179 0-3.0441951-1.9276766-4.6113161-4.0961637-4.6113161-2.1383217 0-4.0961637 1.567121-4.0961637 4.6113161 0 3.0441952 1.957842 4.6715179 4.0961637 4.6715179zm0-12.4474326c4.3971345 0 7.6200405 3.2851726 7.6200405 7.7759147 0 4.5209283-3.222906 7.8059304-7.6200405 7.8059304-4.3671395 0-7.5898758-3.2850021-7.5898758-7.8059304 0-4.4907421 3.2227363-7.7759147 7.5898758-7.7759147zm14.4868033 6.6607331v8.381343c0 .0486047-.0391978.0878297-.0874282.0878297h-3.3186853c-.0482303 0-.087598-.039225-.087598-.0878297v-14.502307c0-.0484343.0393677-.0876592.087598-.0876592h3.2283602c.0484008 0 .0874283.0392249.0874283.0876592 0 .5878622.6762461.9091654 1.1377565.5453969.9330766-.7348704 2.0940116-1.0549798 3.1992176-1.0549798 3.5842071 0 5.3008981 2.5919147 5.3008981 5.816715v9.1951749c0 .0486047-.039198.0878297-.087598.0878297h-3.318345c-.048571 0-.087769-.039225-.087769-.0878297v-8.5923049c0-1.8084395-.8132676-3.2549864-3.0117497-3.2549864-1.9878369 0-3.0420855 1.5369348-3.0420855 3.4659483zm12.5758282 4.4695948 2.870809-.7964365c.050445-.0139845.098505.019783.104981.0717987.159688 1.2853837 1.150028 2.4034645 2.971189 2.4034645 1.445715 0 2.198653-.7836457 2.198653-1.6878655 0-.7836457-.541952-1.3863452-1.716691-1.6274932l-2.168487-.4821255c-2.590289-.5726839-3.945509-2.2605494-3.945509-4.2799508 0-2.5617286 2.349138-4.7317196 5.391224-4.7317196 4.024585 0 5.37418 2.5607053 5.648565 4.0222601.00852.045535-.021133.0864654-.065444.0992561l-2.782017.7954133c-.049083.0139845-.095779-.0122792-.104812-.0624189-.150825-.8467467-.805598-2.1118357-2.696292-2.1118357-1.2349 0-2.108328.7836457-2.108328 1.6878655 0 .7834752.572117 1.3561591 1.47571 1.5369348l2.228818.4522805c2.770939.6026994 4.216484 2.2903944 4.216484 4.4603854 0 2.2303633-1.807016 4.701704-5.541709 4.701704-4.18291 0-5.823762-2.6901476-6.044632-4.3551604-.005965-.0445117.02403-.0844188.067488-.0963568zm21.189958-7.9055276c-2.138322 0-4.035834 1.5974777-4.035834 4.5511144 0 2.9536368 1.897512 4.6113162 4.095994 4.6113162 2.23376 0 3.291587-1.5214154 3.649309-2.6311396.014998-.0463878.062546-.0678762.108561-.0513336l2.906768 1.0553211c.045333.0165426.071067.065659.056411.1115351-.719705 2.2678828-2.911711 4.7102312-6.721049 4.7102312-4.306809 0-7.589705-3.3453744-7.589705-7.8059304 0-4.5209282 3.282896-7.7759147 7.49955-7.7759147 3.900686 0 6.064743 2.4159142 6.695315 4.7426343.0121.0450234-.013634.0922639-.057433.108295l-2.967099 1.0848249c-.047208.0172249-.096972-.0076744-.110265-.0561087-.353461-1.272593-1.351981-2.6548452-3.530523-2.6548452zm16.053008 9.2226323c2.168487 0 4.096165-1.5973071 4.096165-4.6715179 0-3.0441951-1.927678-4.6113161-4.096165-4.6113161-2.138321 0-4.095993 1.567121-4.095993 4.6113161 0 3.0441952 1.957672 4.6715179 4.095993 4.6715179zm0-12.4474326c4.397305 0 7.620041 3.2851726 7.620041 7.7759147 0 4.5209283-3.222736 7.8059304-7.620041 7.8059304-4.367139 0-7.589705-3.2850021-7.589705-7.8059304 0-4.4907421 3.222566-7.7759147 7.589705-7.7759147zm20.475707 15.1196732c-.094415-.5309008-.705559-.802235-1.145256-.4899705-.849057.6030406-1.98937.9221268-3.129684.9221268-3.493882 0-5.541878-2.5920852-5.541878-5.8470718v-9.1649886c0-.0484343.039198-.0876592.087598-.0876592h3.318515c.0484 0 .087769.0392249.087769.0876592v8.5322736c0 1.8080984.843262 3.3453743 2.951419 3.3453743 2.018002 0 3.072081-1.3563296 3.072081-3.2853431v-8.5923048c0-.0484343.039198-.0876592.087598-.0876592h3.318685c.04823 0 .087428.0392249.087428.0876592v11.9076635c0 1.1370112.080441 2.0327038.14026 2.5861163.005454.051504-.034767.0963569-.086746.0963569h-3.245914c-.000682-.0034109-.001363-.0066512-.001875-.0102326zm12.139541-19.07064624v4.31542374c0 .0482637.039027.0876592.087598.0876592h2.866718c.048401 0 .087428.0392249.087428.0876592v2.9289079c0 .0484343-.039027.0878297-.087428.0878297h-2.866718c-.048571 0-.087598.0390544-.087598.0874887v6.7238341c0 1.2961279.572116 1.8384551 1.867175 1.8384551.481962 0 1.054249-.0903879 1.204734-.120574v2.8339155c0 .0359846-.014997.0661707-.04823.0794731-.253763.1016437-.909729.3117529-2.090091.3117529-2.71061 0-4.397135-1.6276638-4.397135-4.3703387v-7.296518c0-.0484343-.039368-.0874887-.087599-.0874887h-2.535582c-.048401 0-.087769-.0393954-.087769-.0878297v-3.0165671h.753108c1.566205 0 2.258812-.9946076 2.258812-2.29056502v-2.11251792c0-.04843427.039368-.08765922.087769-.08765922h2.987039c.048401 0 .087769.03922495.087769.08765922z" fill="#577ee8" transform="translate(0 26)"/></svg>