<svg height="90" viewBox="0 0 180 90" width="180" xmlns="http://www.w3.org/2000/svg"><g fill="none" fill-rule="evenodd"><g transform="translate(0 20)"><path d="m47.2217228 49.9803371c1.523221 0 2.7582397-1.235206 2.7582397-2.758427v-44.46348313c0-1.52378278-1.2352059-2.75842697-2.7582397-2.75842697h-44.46329583c-1.52378278 0-2.75842697 1.23483146-2.75842697 2.75842697v44.46329583c0 1.5234083 1.23464419 2.758427 2.75842697 2.758427h44.46329583z" fill="#485a96"/><path d="m34.4853933 49.9803371v-19.3550562h6.4966292l.9726591-7.5430712h-7.4694756v-4.8159176c0-2.1838951.606367-3.6720973 3.7382022-3.6720973l3.9941948-.0018727v-6.74644195c-.690824-.0917603-3.061985-.29719101-5.8202247-.29719101-5.7589888 0-9.7016854 3.51516856-9.7016854 9.97078656v5.562734h-6.5132959v7.5430712h6.5132959v19.3548689h7.7897004z" fill="#fff"/></g><path d="m69 29.35h9.1c4.025 0 7.07 1.12 9.17 3.395 1.96 2.1 2.94 5.145 2.94 9.1 0 3.92-1.015 6.965-3.01 9.135-2.1 2.24-5.145 3.36-9.17 3.36h-9.03zm3.815 3.255v18.48h4.515c3.15 0 5.495-.77 6.965-2.275 1.435-1.505 2.17-3.815 2.17-6.965 0-3.22-.735-5.53-2.135-7-1.47-1.505-3.78-2.24-6.93-2.24zm28.595 3.15c2.94 0 5.215.98 6.755 3.01 1.4 1.82 2.135 4.34 2.17 7.56h-13.72c.14 1.75.595 3.115 1.435 4.06.84.91 1.995 1.4 3.465 1.4 1.295 0 2.345-.315 3.15-.91.63-.49 1.155-1.295 1.645-2.345h3.71c-.42 1.68-1.225 3.115-2.485 4.235-1.575 1.365-3.57 2.065-5.985 2.065-2.66 0-4.795-.84-6.335-2.485-1.68-1.75-2.52-4.095-2.52-7.07 0-2.695.77-4.935 2.38-6.755 1.54-1.855 3.675-2.765 6.335-2.765zm.105 3.045c-1.4 0-2.485.385-3.325 1.225-.77.805-1.295 1.96-1.505 3.5h9.765c-.35-3.15-1.995-4.725-4.935-4.725zm18.725-3.045c4.69 0 7.28 1.89 7.7 5.705h-3.605c-.28-.98-.7-1.645-1.295-2.03-.63-.42-1.61-.63-2.87-.63-1.12 0-1.96.14-2.52.49-.665.35-.98.91-.98 1.61 0 .63.49 1.155 1.47 1.61.63.28 1.82.63 3.64 1.085 2.065.49 3.605 1.085 4.585 1.715 1.435.91 2.17 2.17 2.17 3.78 0 3.815-2.695 5.74-8.05 5.74-4.97 0-7.63-2.135-8.05-6.335h3.64c.21 1.225.665 2.1 1.295 2.59.63.455 1.61.7 3.01.7 2.87 0 4.34-.84 4.34-2.45 0-.875-.56-1.575-1.61-2.065-.56-.28-1.785-.63-3.64-1.05-2.135-.49-3.64-1.015-4.48-1.575-1.4-.875-2.1-2.1-2.1-3.64 0-1.645.665-2.94 2.03-3.85 1.365-.945 3.15-1.4 5.32-1.4zm14.07-6.755c.735 0 1.365.21 1.855.7.49.455.735 1.05.735 1.785s-.28 1.33-.77 1.82c-.49.455-1.12.7-1.82.7-.735 0-1.33-.245-1.82-.7-.49-.49-.735-1.12-.735-1.82 0-.735.245-1.33.735-1.785.49-.49 1.085-.7 1.82-.7zm-1.855 7.245h3.71v18.095h-3.71zm16.24-.49c2.38 0 4.2.945 5.53 2.905v-2.415h3.71v16.905c0 5.74-2.835 8.61-8.435 8.61-2.52 0-4.445-.49-5.775-1.435-1.33-.98-2.135-2.45-2.485-4.445h3.71c.21 1.05.63 1.82 1.33 2.275.665.42 1.75.665 3.22.665 3.15 0 4.725-1.715 4.725-5.11v-2.8c-1.33 1.995-3.15 3.01-5.53 3.01-2.45 0-4.445-.84-5.95-2.485-1.54-1.645-2.275-3.815-2.275-6.545s.735-4.9 2.275-6.58c1.505-1.715 3.5-2.555 5.95-2.555zm.56 3.01c-1.575 0-2.8.525-3.64 1.645-.91 1.05-1.33 2.555-1.33 4.48 0 1.75.35 3.15 1.05 4.165.805 1.19 2.1 1.82 3.92 1.82 1.575 0 2.8-.525 3.71-1.575.84-1.085 1.295-2.555 1.295-4.41 0-1.89-.455-3.395-1.295-4.48-.91-1.12-2.135-1.645-3.71-1.645zm22.05-3.01c4.48 0 6.755 2.45 6.755 7.42v11.165h-3.71v-10.85c0-3.08-1.435-4.62-4.235-4.62-1.05 0-1.995.35-2.765 1.12-.84.84-1.365 1.995-1.505 3.465v10.885h-3.71v-18.095h3.71v2.24c.7-.91 1.505-1.575 2.415-2.03.91-.49 1.925-.7 3.045-.7z" fill="#313645"/></g></svg>