<svg height="90" viewBox="0 0 180 90" width="180" xmlns="http://www.w3.org/2000/svg"><g fill="none"><path d="m10.7503896.10298581c1.4783447-.42523173 3.0463867 1.04314658 2.755701 2.54640718-.1993274 1.54146502-2.1560578 2.48827004-3.45833 1.57468625-.50994582.5082848-1.00992531 1.02653597-1.51987117 1.53648183-.19932738-.24085391-.42190961-.46177508-.65445821-.66940776.50662374-.54648921 1.04812977-1.05809614 1.568042-1.59129686-.76076614-1.22254122-.10464687-3.03642031 1.30891638-3.39687064zm36.4486712 2.91682389c.4302149-.00830531.8604298-.00996637 1.2906447-.00332213.0182717 5.53465672.0016611 11.06931343.0083053 16.60397013.079731.2624477-.2342096.3023132-.3886883.3986548-1.8022517.8056148-3.9151219.9401607-5.7788328.2624477-1.2856615-.48503-2.3470798-1.5115659-2.8636699-2.7856001-.5448282-1.3404765-.6112706-2.8470593-.3355344-4.2573004.3654335-1.6029243 1.4251907-3.0380814 2.8802805-3.81711922 1.5647199-.86209089 3.4500246-.94016077 5.1775285-.64116971.0016611-1.92018703-.0182717-3.84037405.0099664-5.76056107zm-5.4648922 8.1441842c-1.3936305 1.3670536-1.7275038 3.5563326-1.1328439 5.3668895.3687557 1.2574235 1.3986138 2.2822985 2.6444099 2.6792921 1.2773562.3969937 2.6875974.3322123 3.9416988-.1245796 0-2.9799442-.0049832-5.9582273.001661-8.9365105-1.812218-.61293168-4.029735-.33055124-5.4549258 1.0149085zm22.5173489-8.16245588c.4302149.00664425.8620909.01162743 1.2939669.02989911.0332212 2.03978344-.0033221 4.07956689.0116274 6.11935034 1.0614183-.46841933 2.2324666-.56974408 3.38026-.4999795 1.5514314.07474777 3.0646584.9002953 3.9001723 2.22250023 1.0846731 1.7142154 1.1760315 3.9433598.5082848 5.8270035-.513268 1.5298376-1.7108933 2.8005496-3.1925601 3.4317529-1.8603888.8238865-3.9832253.6876795-5.8901239.1013248-.1328849-.5365229-.0647814-1.0929784-.0764088-1.6378066.0033221-4.649311 0-9.29862193 0-13.94793289.0083053-.54815028-.0465097-1.1029448.0647814-1.64611189zm1.3172217 7.34853578c-.0215938 2.9666558-.0149495 5.9316504-.0083053 8.8983062 1.8238455.4949963 3.9848864.2541424 5.3685506-1.134505 1.0846731-1.0132475 1.5215323-2.5381019 1.5065827-3.9865475-.0531539-1.5115659-.7740546-3.1078459-2.1776515-3.812136-1.4650562-.74249443-3.2041875-.53652281-4.6891765.0348823zm53.2885118-7.24056679c.362112-.21427692.862091-.0514929 1.279018-.09966368.093019 4.30713231.009966 8.61924777.038204 12.92970227.036543 1.0398244-.12458 2.1012427.116274 3.1244565.295669.5381839.955111.3903495 1.458412.3753999 0 .3720778.001661.7424945.004983 1.1145722-.911922.3272291-2.267348.2508203-2.674309-.785682-.308957-.9069396-.23587-1.8853048-.244176-2.8271266.018272-4.6111065-.029899-9.22387416.021594-13.83165859zm-20.9974774 1.57468625c.7408334-.26576983 1.5198712-.42024855 2.3022314-.50496268 1.380342-.04484866 2.805533-.09966369 4.122754.3920105.038205.47838569.039866.95843245.006644 1.43681814-1.132843-.52157329-2.390267-.65611926-3.624436-.57472725-2.0530715.03322122-4.1094656 1.03151915-5.2821749 2.74075137-1.2989501 1.91022066-1.5231934 4.40513496-.9052785 6.59773606.4252317 1.5829915 1.5165491 2.9633336 2.9566893 3.7456935 2.0464277 1.0614183 4.5413421 1.2242023 6.7007221.4102822.114613.3455008.137868.7175785.079731 1.0763678-.059798.3355344-.470081.3421787-.724223.4484866-2.518169.5581166-5.3369905.3139406-7.5096588-1.1677262-1.6726889-1.1145722-2.7008859-3.001538-3.0214708-4.9582684-.2906857-2.0530719-.2092937-4.2556394.8056148-6.11436715.8936511-1.60292429 2.3487409-2.92180707 4.0928554-3.52809449zm54.7917724.1378681c1.626179-.69598475 3.430092-.74581659 5.169223-.62123698.5631.06312033 1.121217.18769994 1.644451.41194324-.001661.4650972-.006644.9301944-.024916 1.39363054-1.338815-.62788122-2.847059-.66110245-4.292182-.53320072-1.777336.22092117-3.501518 1.12786072-4.544665 2.6062054-1.365392 1.91354278-1.604585 4.46493316-.976704 6.69241656.425232 1.5863136 1.519872 2.9683168 2.964995 3.7490156 2.043106 1.0564351 4.534698 1.2225413 6.689094.4069601.122919.350484.137869.7325281.081392 1.0979616-.083053.3156017-.473402.3222459-.722561.4268928-2.209212.4900131-4.617751.3604503-6.662518-.6644246-1.629501-.8056148-2.905196-2.2756542-3.483246-3.9965138-.528217-1.4368181-.584693-2.9932327-.485029-4.5047986.197666-2.7922443 2.046427-5.40177182 4.642666-6.46485114zm10.9846 1.19264211c1.56638-1.38864736 3.734066-1.92350915 5.79046-1.85706669 1.008264-.01162743 2.058055.03654335 2.983266.48004676-.004983.45346977-.006644.9086006-.023255 1.36207038-1.493294-.64449184-3.154355-.68767944-4.743991-.47174145-1.494956.31061849-2.943401 1.04979083-3.900173 2.26402674-.792326.93683865-1.215897 2.12283652-1.445123 3.31547859-.186039 1.782319-.023255 3.6809122.92355 5.243971.968399 1.6162128 2.720819 2.6394266 4.556292 2.9417398 1.480005.3039743 3.028115.1328849 4.449983-.3587893.018272.4235707.023255.8488024.021594 1.2723731-1.579669.5963211-3.338733.6345255-4.989828.3554672-1.988291-.3205849-3.886884-1.4019359-5.016406-3.0928964-.795648-1.1909811-1.237491-2.6078665-1.305594-4.0363793-.380383-2.702547.539845-5.6708638 2.699225-7.41830043zm-133.3699455-1.61621278c.5647609.00166106 1.2109138-.1594619 1.7275039.06145927 1.8853047 4.97654007 3.6393856 10.00623414 5.5080797 14.99107944.1229185.3139407.2092937.6411698.2757362.9733821-.4567919.0033221-.9135838.0033221-1.3720367.0083053-.7142565-1.891949-1.4351571-3.7872201-2.0730047-5.7074071-2.1261587-.0514929-4.2556394-.0365434-6.3817981-.0083054-.6411697 1.9218481-1.3487819 3.8221024-2.0646993 5.7173735-.4435034-.0033221-.8870068-.0066442-1.3305103-.0215938.2292265-.8006316.5547946-1.568042.8388361-2.3487409 1.5813305-4.300488 3.1543556-8.60429821 4.7340251-12.90478627.0963415-.24251497.1112911-.50496268.1378681-.76076614zm-1.8786605 9.06275121c1.8404561-.0066442 3.6809121-.0033221 5.5230293-.0016611-.9318555-2.5846116-1.9201871-5.15095148-2.7507178-7.77044537-.8554466 2.6145107-1.8172012 5.19413907-2.7723115 7.77210647zm-21.8313305-7.06117218c.22424329.22922648.45346977.45513084.68435731.67937413-1.06307932 1.09962267-2.13778607 2.18761792-3.21581494 3.27062995.41692642.8089369.31061849 1.7806579-.21095481 2.5165081 1.06474039 1.1012837 2.1710073 2.1593799 3.23906981 3.2573415-.21427693.1793946-.42190961.3704167-.61957592.5697441-1.13118284-1.0879953-2.2141949-2.2274834-3.35368304-3.3071734-.80893692.2574646-1.82550652.2823805-2.41186121-.433537-.94514396-.8820236-.88202363-2.5613567.1594619-3.34205562.74249446-.65113608 1.79892953-.44018128 2.64773193-.1461734 1.03484128-1.01490854 2.04310557-2.05307194 3.08126897-3.06465836zm48.6757444 2.33213026c1.2657288-.21593798 2.6277992-.11793536 3.7556599.54316709 1.405258.82056433 2.2789763 2.34541873 2.5347798 3.92674923.2923468 1.9284923.0730867 4.0612952-1.162743 5.6426257-1.8172013 2.405217-5.8751743 2.4899311-7.8235994.2059716-1.6793331-1.9866294-1.8985932-4.9466409-.8969732-7.2937207.6411697-1.4932943 1.9816463-2.69756381 3.5928759-3.02479292zm.946805 1.11291117c-1.0630793.05315396-2.0945985.55479455-2.7424124 1.40858005-1.0298581 1.3371545-1.2275244 3.1560168-.8986343 4.7722296.2989911 1.3620703 1.187659 2.6726478 2.5314577 3.1693052 1.2640677.5381839 2.8188212.2458371 3.8104749-.7042901.8953121-.8139201 1.3039332-2.0231728 1.4185465-3.1992043.10963-1.5314986-.2242433-3.2008654-1.3022722-4.351981-.7159175-.7707325-1.7873021-1.09962264-2.8171602-1.09463945zm21.2964687.0215938c1.187659-1.16938726 3.0115044-1.47668362 4.5911738-1.07636782 1.4401403.35214503 2.5364409 1.60458537 2.9234682 3.00652117.2890247.837175.2275654 1.7358092.1694282 2.6045444-.6793741.2142769-1.4002748.162784-2.1012427.1810557-2.0381224.0033221-4.0762447.0033221-6.1143671-.0016611.0249159 1.244135.2558034 2.5729842 1.1311828 3.5164671 1.0796899 1.2524403 2.9101796 1.5663809 4.4649332 1.2308465.6561192-.0880363 1.2408128-.4185875 1.8720162-.59466-.0083053.4102822.1744114.9218891-.1046469 1.2690509-.9899926.5332008-2.1328029.6959848-3.2423919.727545-1.4633951-.0182717-3.001538-.5049627-3.9865475-1.6344845-1.0464687-1.1710483-1.4235296-2.7789558-1.4683783-4.3121155.0465098-1.7773357.539845-3.6559962 1.865372-4.91674185zm.7806989.95677135c-.7009679.7059511-1.0763678 1.6660447-1.2291855 2.6361045 2.2922648-.001661 4.5845296.0116275 6.8767944-.0083053.054815-1.4401402-.7358502-3.054692-2.2042285-3.46165201-1.1826758-.4136043-2.5763063-.06312033-3.4433804.83385281zm31.6149825-2.09958162c.98667-.13620704 2.031478-.16278402 2.974961.2109548 1.29895.4435034 2.317181 1.52153232 2.842076 2.77231152.737511 1.7673694.757444 3.8088139.122919 5.6110656-.45347 1.245796-1.358749 2.3437577-2.571324 2.9101796-1.390308.6278812-3.028115.621237-4.435034.0481708-1.317221-.568083-2.277315-1.7673694-2.73909-3.1045238-.687679-1.9849685-.543167-4.2888607.541506-6.1060619.705951-1.18931999 1.905238-2.06636042 3.263986-2.34209662zm.961754 1.11457222c-1.830489.01827168-3.315478 1.5431261-3.657657 3.2756132-.368755 1.3039332-.214277 2.7125133.317263 3.9500041.473402 1.0298581 1.352104 1.9135427 2.461693 2.2291444 1.480006.5099459 3.222459-.136207 4.079567-1.4318349.687679-.9351776.842158-2.1244976.918567-3.2490362-.089698-1.3006111-.396994-2.6826142-1.332171-3.6510131-.699307-.7823599-1.76737-1.1012837-2.787262-1.1228775zm16.481052-1.11457222c1.028197-.14783447 2.117853-.15447872 3.094557.2541424 1.363732.51326798 2.386946 1.71919862 2.857026 3.07960792.632865 1.8005906.591338 3.8470183-.157801 5.6060823-.614592 1.4617341-1.948425 2.6410877-3.528094 2.9151629-1.382003.298991-2.91018.0681035-4.094517-.7242228-1.318882-.9019564-2.071343-2.4384382-2.305553-3.9882085-.289025-1.9002543.107969-3.9782422 1.357087-5.4815028.702629-.85046344 1.699266-1.43349601 2.777295-1.66106142zm.966738 1.11457222c-1.370376.03156017-2.639427.8787015-3.234087 2.1062259-.569744 1.1760315-.802293 2.5547125-.504963 3.838713.247499 1.5564146 1.297289 3.0646583 2.858687 3.5114839 1.481667.5082848 3.222459-.1411902 4.077906-1.4368182.682696-.9318554.835514-2.1145312.915245-3.2340866-.086375-1.3454598-.420249-2.7789558-1.418547-3.7523378-.697645-.7209006-1.717537-1.00494215-2.694241-1.0331802zm9.257095.7806989c1.018231-1.16440409 2.494914-2.11785336 4.102822-1.97167995.001661.42689279.003322.85212452.004983 1.27901731-.795648.13786814-1.626179.22590434-2.323825.66940774-.631203.4019769-1.270712.8687352-1.631162 1.541465-.058137 2.7590231-.016611 5.5213683-.044849 8.2803913-.455131.0149496-.910261.0132885-1.363731-.0049832-.019933-3.8619678.043187-7.7255967-.071426-11.58590351.380383-.00166107.762427-.00166107 1.144471-.01162743.292347.55313345.132885 1.20593064.182717 1.80391274zm-129.87507158 7.3070092c.21593798-.1710893.4219096-.3604503.60960955-.5630998.54981133.4916742 1.06307932 1.0198917 1.57302518 1.5530925.53320075-.4335371 1.24745715-.6145928 1.92184805-.4667583.8836847.2358707 1.5746863 1.053113 1.6594004 1.9666967.1411902 1.3288492-1.1145722 2.6809532-2.4766426 2.4467435-1.49495529-.1661061-2.43843819-2.0331392-1.70424903-3.3387334-.51160692-.5481503-1.05643508-1.0647404-1.58299155-1.5979412z" fill="#202020" transform="translate(7.319744 33.520466)"/><path d="m3.4849069 1.82052334c2.02981708-1.59295792 4.84365515-2.09459848 7.3103314-1.36040932 1.3404766.3272291 2.5048806 1.10626692 3.5563325 1.97334099.2325486.20763268.4551309.42855385.6544582.66940776 1.458412 1.76404725 2.3088754 4.07126158 2.1012428 6.37349274-.1295628 1.95839139-1.0630794 3.78057579-2.3570462 5.22902139-.1877.2026495-.3936716.3920105-.6096096.5630998-1.3736978 1.1328439-3.0463867 1.9467641-4.84365513 2.053072-2.8171602.2657698-5.7074071-.9800263-7.45152161-3.2058486-1.18931999-1.4982774-1.84710032-3.4018538-1.83879501-5.31373554-.01661062-2.69756377 1.27735624-5.39678861 3.47826265-6.98144122zm3.52809449.3920105c-3.09455746.66110245-5.42004347 3.75732097-5.20410548 6.91499877.09800262 3.03974239 2.50488065 5.80707079 5.49811336 6.33196619 1.94842507.3222459 4.09949963-.0880362 5.60442133-1.4235296.1976663-.1993274.405299-.3903495.6195759-.5697441 2.3935895-2.3636904 2.3836231-6.55288739.1876999-9.04447955-.2308875-.22424329-.460114-.45014765-.6843573-.67937413-1.5846526-1.48831105-3.92176605-2.0115454-6.02134771-1.52983758z" fill="#e65ff7" transform="translate(.841604 36.178164)"/></g></svg>