<svg height="90" viewBox="0 0 180 90" width="180" xmlns="http://www.w3.org/2000/svg"><g fill="none" fill-rule="evenodd" transform="translate(0 17)"><path d="m45.6723471.01232722v-.01232722h3.205077l1.1710858.23421717c.7807444.15205624 1.4895595.35132574 2.1264453.59787013.6369474.24654438 1.2533084.53420004 1.8490829.86290534.5958361.3287053 1.1361998.66363584 1.6210909 1.00466836.4807616.33696454.9122143.69445389 1.2943581 1.07246807.3779525.3821438.967625.48076155 1.7688943.29585326.8012692-.18490829 1.6641746-.4417459 2.588716-.7704512s1.8388513-.69852187 2.7428063-1.10944972c.9040166-.41092786 1.4546735-.67183345 1.651909-.78277842.1931059-.11501296.2958532-.17664905.3081805-.18490829l.0122655-.01849083.0616361-.03081805.0616361-.03081805.0616361-.03081804.0616361-.03081805.0123272-.01849083.0184909-.01232722.0185524-.01232722.0122656-.01849083.0616361-.01849083.0616361-.01232721-.0122656.09245414-.0185524.09245414-.0308181.09245415-.030818.09245414-.0308181.0616361-.030818.06163609-.0308181.09245415c-.0205248.06163609-.0410496.14379701-.0616361.24654438-.0205248.10274737-.2157263.51361359-.5855429 1.23272192s-.8320873 1.44844825-1.3868121 2.1880814c-.5547249.73963315-1.0518817 1.298426-1.4915319 1.67650181-.4437799.3821438-.7375992.649213-.8814578.80126925-.1437971.15612423-.3184121.29992124-.5239069.43145267l-.3081804.20339912-.0616361.03081805-.0616361.03081804-.0122656.01849083-.0185525.01232722-.0184908.01232722-.0123272.01849083-.0616361.03081805-.0616361.03081805-.0122656.01849082-.0185525.01232722-.0184908.01232722-.0123272.01849083-.0122656.01849083-.0185525.01232722-.0184908.01232722-.0123272.01849083h.3081805l1.7258107-.36981658c1.150561-.24654438 2.2497175-.54443163 3.2975311-.89372339l1.6641746-.55472486.1849083-.0616361.0924541-.03081805.0616361-.03081804.0616361-.03081805.0616361-.03081805.0616361-.03081805.1232722-.01849083.1232722-.01232722v.1232722l-.0308181.01232721-.030818.01849083-.0122656.01849083-.0185525.01232722-.0184908.01232722-.0123272.01849083-.0122656.01849083-.0185525.01232722-.0184908.01232722-.0123272.01849083-.0122656.01849082-.0185525.01232722-.030818.0616361-.0308181.0616361-.0184908.01232721c-.0081976.01232722-.2691032.36155734-.7827784 1.04781364-.5136136.69032427-.790976 1.03955439-.8320873 1.04781363-.0410496.01232722-.0986177.07396331-.1725811.18490828-.0698337.11501296-.5054159.5732157-1.3066852 1.3744849-.8012692.8012693-1.58602 1.5141524-2.3544372 2.1387726-.7724852.6286881-1.1628882 1.4011733-1.1710858 2.3175172-.0123273.9122142-.0596022 1.9436326-.1418247 3.094132-.0821609 1.150561-.2362512 2.3935145-.4622707 3.7289838-.225958 1.3354693-.5752497 2.8455536-1.0478137 4.530253-.4725023 1.6846995-1.0478136 3.3283492-1.7258106 4.9308877-.6779971 1.6025385-1.3868122 3.0406935-2.1264453 4.3145267-.7396332 1.2738332-1.4176303 2.3524649-2.0339912 3.2358951-.616361.8834301-1.2429535 1.7155174-1.8799009 2.4962619-.6368858.7807444-1.442223 1.6601066-2.4160734 2.6380249-.9779799.9738503-1.5121183 1.5080503-1.6025385 1.6025385-.0944881.0904201-.4971567.4273846-1.2081291 1.0108319-.7067195.5875769-1.4669391 1.1751538-2.2805355 1.7627924-.8094669.5835089-1.5532296 1.0704341-2.2312267 1.4607754-.6779971.3903414-1.4956615.8361553-2.4531166 1.3375033-.9532639.505416-1.9846823.9738503-3.094132 1.405303-1.1094498.4314527-2.2805356.8320873-3.5132575 1.2019039s-2.4243326.6574722-3.5748936.8629053c-1.1504993.2054331-2.4551506.3801098-3.9138921.5239068l-2.1880814.2157264v.030818h-4.0063462v-.030818l-.5239068-.0308181c-.3492301-.0205248-.6368858-.0411112-.8629054-.0616361-.2259579-.0205248-1.0786316-.1335654-2.5578979-.3389985s-2.6400589-.4109278-3.4824395-.616361c-.8423188-.2054331-2.0956272-.5958361-3.7598018-1.1710858-1.66417459-.5752497-3.08796841-1.1567246-4.27138145-1.7443015-1.17928342-.5835089-1.91891657-.9533255-2.21889945-1.1094497-.29585326-.1520563-.62868818-.3410325-.99850476-.5670521l-.55472486-.3389985-.01226558-.0184909-.01855247-.0123272-.01849083-.0123272-.01232722-.0184908-.06163609-.0308181-.0616361-.030818-.01226558-.0184908-.01855247-.0123273-.01849082-.0123272-.01232722-.0184908-.01226559-.0184908-.01855246-.0123273h-.03081805v-.1232722l.0616361.0123273.06163609.0184908.27736243.030818c.18490829.0205249.68829029.0513429 1.51008435.0924542.82185571.0411113 1.69499264.0411113 2.61953408 0s1.86966933-.1335654 2.83526041-.2773624c.96565272-.1437971 2.10592049-.3903414 3.42080334-.7396332 1.3149445-.3492918 2.5230119-.7642876 3.6242641-1.2450491 1.0971225-.4848296 1.8778053-.8464485 2.3421716-1.0847953.4601751-.2342172 1.1628266-.6697995 2.1078929-1.3066853l1.4176302-.9553594.0123272-.0184909.0184908-.0123272.0185525-.0123272.0122656-.0184908.0123272-.0184909.0184908-.0123272.0185525-.0123272.0122656-.0184908.061636-.0184909.0616361-.0123272.0123273-.0616361.0184908-.0616361.0185525-.0123272.0122655-.0184908-.4930887-.0308181c-.3287053-.0205248-.647179-.0411112-.9553595-.0616361-.3081805-.0205248-.790976-.1129789-1.4484483-.2773624-.6574106-.1643835-1.3662257-.4109278-2.1264453-.7396331-.760158-.3287053-1.4997911-.7191084-2.2188994-1.1710859-.7190467-.4519775-1.2388856-.8280193-1.5593933-1.1279405-.316378-.2959149-.7273059-.7149787-1.2327219-1.2573764-.5012863-.5464656-.93686864-1.1074157-1.30668521-1.6826654-.36981658-.5752497-.72317631-1.2389472-1.06007922-1.9908459l-.51164123-1.1217769-.03081805-.0924542-.03081804-.0924541-.01849083-.0616361-.01232722-.0616361.09245414.0123272.09245415.0184908.67799705.0924542c.45203913.0616361 1.16085423.0821609 2.12644536.0616361.9656527-.0205249 1.6333565-.0616361 2.0031731-.1232722.3698165-.0616361.5958361-.1027474.677997-.1232722l.1232722-.0308181.1540903-.030818.1540902-.0308181.0123272-.0184908.0184908-.0123272.0185525-.0123272.0122656-.0184909-.1232722-.030818-.1232722-.0308181-.1232722-.030818-.1232722-.0308181-.1232722-.030818c-.0821609-.0205248-.2259579-.0616361-.4314526-.1232722-.2054331-.0616361-.760158-.2876557-1.6641746-.677997-.903955-.3903414-1.62306334-.7704512-2.15726339-1.1402678-.53552426-.3708886-1.04614533-.7765029-1.52857518-1.2142311-.48076154-.4437799-1.00873634-1.0149616-1.58404766-1.7134835-.57524968-.6985219-1.08886327-1.5100843-1.5409024-2.4346258-.45197749-.9245414-.79097602-1.8079716-1.01699558-2.6503521-.2251107-.8374254-.37362793-1.6935812-.44371826-2.557898l-.11100661-1.294358.0616361.0123272.0616361.0184909.06163609.030818.0616361.0308181.06163609.030818.0616361.0308181.95535949.4314526c.63694741.2876557 1.42792343.5342001 2.37298969.7396332.9451279.2054331 1.51008435.3184737 1.69499264.3389985l.27736243.030818h.55472486l-.01226558-.0184908-.01855246-.0123272-.01849083-.0123272-.01232722-.0184908-.01226559-.0184909-.01855246-.0123272-.01849083-.0123272-.01232722-.0184908-.06163609-.0308181-.0616361-.030818-.01226558-.0184909-.01855247-.0123272-.01849083-.0123272-.01232722-.0184908-.06163609-.0308181-.0616361-.030818-.01226558-.0184909c-.01232722-.0082592-.18903791-.139729-.53013206-.394471-.33696454-.2588716-.69032428-.5937405-1.06014085-1.0046683-.36981658-.4109279-.73963315-.8423806-1.10944973-1.2943581-.37049747-.453013-.70049121-.9376914-.98617753-1.4484482-.28759403-.5136136-.59170652-1.1670178-.91221422-1.9600279-.31637808-.788942-.55675886-1.5840476-.72114233-2.3853169-.16432183-.8012692-.25677597-1.5922452-.27736243-2.37298966-.02052482-.78074443 0-1.44844825.0616361-2.00317312.06163609-.55472486.18490829-1.18137905.36981657-1.87990092.18490829-.69852188.45203913-1.43815503.80126925-2.21889946l.52390682-1.17108582.03081804-.09245414.03081805-.09245415.01855247-.01232722.01226558-.01849083.01232722-.01849082.01849083-.01232722.01855246.01232722.01226559.01849082.01232722.01849083.01849082.01232722.01855247.01232722.01226558.01849083.01232722.01849083.01849083.01232722.03081805.06163609.03081805.0616361.01855246.01232722.01226558.01849083.8320873.92454144c.55472486.61636096 1.2121971 1.30465124 1.97235507 2.06480921.76021961.76015797 1.18137905 1.15462899 1.26353996 1.18341304.08222256.03285204.18490829.12734018.30818048.28352604.1232722.15205625.53420005.51570922 1.23272192 1.0909589.6985835.57524969 1.6128317 1.24301515 2.7428063 2.0031731 1.1300362.760158 2.3832829 1.5100844 3.7598018 2.2497175 1.3765806.7396332 2.8558469 1.407337 4.4377989 2.0031731 1.5820137.5958362 2.6914634.9861776 3.3283492 1.1710859.6369474.1849082 1.7258107.4211594 3.2667131.7088151 1.5409024.2876556 2.7017566.4725639 3.4824394.5547248.7807444.0821609 1.3149445.1294358 1.6025385.141763l.4314527.0123273-.0122656-.0924542-.0185525-.0924541-.1232722-.7704512c-.0821609-.5136136-.1232722-1.2327219-.1232722-2.1572634 0-.9245414.0719294-1.7771535.2157264-2.557898.1438586-.7807444.359585-1.5717204.647179-2.37298965.2876556-.80126925.5691477-1.44438027.8444145-1.9292098.2794581-.48076155.645145-1.02932281 1.0971225-1.64568376.4520391-.61636096 1.0375821-1.25324674 1.7566287-1.91071898.7191084-.65747223 1.5409024-1.24301514 2.4654439-1.75662873.9245414-.51361359 1.7772152-.90401662 2.557898-1.17108582.7807444-.26706921 1.4382166-.4417459 1.972355-.52390682.5342001-.08216092.8012693-.1294358.8012693-.14176302z" fill="#5da8dc" stroke="#5da8dc" stroke-width="1.126634"/><path d="m81.3440507 17.0977215h8.2936709c3.6577398 0 6.4435347 1.0313821 8.3574683 3.0941772 1.7863381 1.9139337 2.6794941 4.678463 2.6794941 8.2936709 0 3.5514102-.9144217 6.3265723-2.7432916 8.3255696-1.9139336 2.0415292-4.6997285 3.0622785-8.3574683 3.0622785h-8.2298734zm3.476962 2.9665823v16.8425316h4.1149367c2.8921664 0 5.0080946-.6911323 6.3478481-2.0734177 1.3184876-1.3822854 1.9777215-3.4982136 1.9777215-6.3478481 0-2.8921663-.6486011-5.0187274-1.9458228-6.3797468-1.3397535-1.3610195-3.4450489-2.041519-6.3159493-2.041519zm25.7194933 2.8708861c2.722039 0 4.774171.9144212 6.156456 2.7432911 1.297222 1.6800084 1.956456 3.9766943 1.977722 6.8901266h-12.504304c.127595 1.6374765.56354 2.8708819 1.307848 3.7002532.786839.8506371 1.839487 1.2759493 3.157975 1.2759493 1.169626 0 2.126578-.2764529 2.870886-.8293671.531648-.4040526 1.03139-1.1164506 1.49924-2.1372152h3.381266c-.404053 1.5736788-1.158982 2.8602482-2.26481 3.8597469-1.446083 1.2546898-3.264293 1.8820253-5.454684 1.8820253-2.445582 0-4.370119-.7549292-5.773671-2.2648101-1.531146-1.5949447-2.296708-3.7427713-2.296708-6.4435443 0-2.4668478.72303-4.5189792 2.169113-6.1564557 1.403552-1.6800084 3.32809-2.52 5.773671-2.52zm.095697 2.7751898c-1.275956 0-2.286073.3721482-3.03038 1.1164557-.723042.7655735-1.180252 1.828854-1.371646 3.1898735h8.899747c-.318989-2.8709005-1.818214-4.3063292-4.497721-4.3063292zm16.72405-2.7751898c4.295718 0 6.634935 1.7331472 7.017722 5.1994936h-3.28557c-.255191-.893169-.648605-1.5098717-1.180253-1.8501265-.57418-.3827868-1.44607-.5741773-2.615696-.5741773-1.063297 0-1.828859.1488593-2.296709.4465823-.595446.318989-.893165.808098-.893165 1.4673418 0 .5529142.446578 1.0420232 1.339747 1.4673418.552914.2339252 1.658726.5635421 3.317468.9888607 1.850136.4465845 3.243034.967592 4.178735 1.563038 1.318487.8293712 1.977721 1.9777142 1.977721 3.4450633 0 3.4876124-2.445545 5.2313924-7.336709 5.2313924-4.508377 0-6.953922-1.9245377-7.336709-5.7736709h3.317469c.191393 1.1058283.584807 1.8926559 1.180253 2.3605063.595446.4253186 1.509867.6379747 2.743291.6379747 2.636975 0 3.955443-.7442963 3.955443-2.2329114 0-.8081053-.489109-1.4354408-1.467342-1.8820253-.510382-.2551911-1.616194-.5741753-3.317468-.956962-1.956465-.4465845-3.317465-.9250607-4.083038-1.435443-1.275956-.8081054-1.913924-1.9139171-1.913924-3.3174684 0-1.509881.616703-2.6794895 1.850127-3.5088608 1.233423-.8506371 2.84961-1.2759493 4.848607-1.2759493zm12.481519-6.1564557c.701776 0 1.265314.2126561 1.690633.6379747.446585.4040526.669873.9463257.669873 1.6268354 0 .6379779-.233921 1.1908837-.701772 1.6587342-.46785.4253186-1.020756.6379747-1.658734.6379747s-1.190884-.2126561-1.658734-.6379747c-.446585-.4465845-.669873-.9994904-.669873-1.6587342 0-.6805097.223288-1.2227828.669873-1.6268354.425319-.4253186.978224-.6379747 1.658734-.6379747zm-1.690633 6.603038h3.381266v16.4916455h-3.381266zm14.459241-.4465823c2.169125 0 3.849108.8825228 5.04 2.6475949v-2.2010126h3.381266v15.4070886c0 5.2314185-2.562506 7.8470886-7.687595 7.8470886-2.275455 0-4.029868-.435945-5.263292-1.3078481-1.190892-.8719031-1.945821-2.2222694-2.26481-4.0511393h3.381266c.191394.9782328.59544 1.6693651 1.212152 2.0734177.637978.4040527 1.616196.606076 2.934684.606076 2.8709 0 4.306329-1.5523895 4.306329-4.6572152v-2.5518987c-1.212158 1.8288699-2.892141 2.7432911-5.04 2.7432911-2.232923 0-4.0405-.7549291-5.422785-2.2648101-1.382285-1.4673491-2.073418-3.4556837-2.073418-5.9650633 0-2.4881137.691133-4.4870811 2.073418-5.996962 1.361019-1.5524129 3.168596-2.3286076 5.422785-2.3286076zm.510379 2.7432911c-1.467349 0-2.57316.4997419-3.317468 1.4992405-.808105.9357009-1.212152 2.2966999-1.212152 4.083038 0 1.5949447.318984 2.8602485.956962 3.7959494.744308 1.1058283 1.935182 1.6587341 3.572658 1.6587341 1.424818 0 2.551895-.4784762 3.381266-1.435443.78684-1.0207646 1.180253-2.360498 1.180253-4.0192405 0-1.7012743-.393413-3.0622734-1.180253-4.083038-.808105-.9994986-1.935182-1.4992405-3.381266-1.4992405zm19.754431-2.7432911c4.104324 0 6.156456 2.2541546 6.156456 6.7625316v10.1756962h-3.381266v-9.8886076c0-2.8071026-1.28657-4.2106329-3.859747-4.2106329-.999499 0-1.83949.3402498-2.52 1.0207595-.786839.7868394-1.24405 1.8394871-1.371646 3.1579747v9.9205063h-3.381266v-16.4916455h3.381266v2.0415189c.616712-.8081053 1.350376-1.424808 2.201013-1.8501265.786839-.4253186 1.711893-.6379747 2.77519-.6379747z" fill="#313645"/></g></svg>