<svg height="90" viewBox="0 0 180 90" width="180" xmlns="http://www.w3.org/2000/svg"><g fill="none"><path d="m25.758 0h.4294286c-.0102857 5.65714286.018 11.3142857-.0128572 16.9714286.0488572 3.006-1.0645714 5.9785714-2.9622857 8.2928571-2.8208571 3.4354286-7.4931428 5.2714286-11.8954286 4.5874286-3.32228567-.4628572-6.44657139-2.2731429-8.47028567-4.9525714-.03857143-.0462858-.11571429-.144-.15428572-.1928572-1.77942857-2.3785714-2.66657142-5.3614286-2.54571428-8.3237143 1.72542857-.8048571 3.45857143-1.5942857 5.17371428-2.4197143-.57342857-1.7588571-1.25742857-3.5254285-2.47114285-4.95514281 2.46857143-3.20142858 6.47742857-5.13771429 10.52228574-5.02971429 2.6382857.00257143 5.2174285.92057143 7.3851428 2.39657143.0411429-1.47857143.252-3.042 1.1571429-4.26342857.8948571-1.23685715 2.3837143-1.85142857 3.8442857-2.11114286zm-14.3048571 9.44742857c-3.4971429.77914283-6.22028576 4.18371433-5.99400004 7.79657143.00771428 4.2042857 4.01914285 7.7657143 8.17714284 7.4468571 2.0854286-.1774285 4.1245714-1.152 5.4514286-2.7874285 1.512-1.764 2.1291428-4.2377143 1.6405714-6.5082857-.4602857-2.1985715-1.9311428-4.1631429-3.9188571-5.2122858-1.62-.88714281-3.5614286-1.11857139-5.3562857-.73542853z" fill="#f58e00" transform="translate(42.171429 20)"/><path d="m1.38857143 7.31057143c1.63285714-3.47657143 4.88571428-6.12 8.604-7.06371429.24685717 2.58428572-.49885714 5.28428572-2.304 7.19228572-1.46057143 1.50428571-2.33485714 3.57685714-2.25 5.68542854.06171428 3.0137143 2.088 5.8628572 4.90371427 6.9274286 2.7797143 1.152 6.1688572.4268571 8.2722857-1.71 2.5354286-2.4788571 3.0368572-6.7551429.9951429-9.68657143-1.0028572-1.30885714-2.1574286-2.55342857-2.7617143-4.11685714-.4654286-1.386-.5528571-2.85942857-.5837143-4.30971429 3.0625714.78685715 5.7934286 2.664 7.6191429 5.24571429l.018.02314286c-1.6277143 2.36828571-2.6357143 5.22257141-2.4402857 8.12314281.0308571 2.4865715.9694285 4.8445715 2.2525714 6.9428572-1.7588572 2.3091428-4.2377143 4.1117143-7.0662857 4.8471428-3.0754286.8691429-6.4722857.5477143-9.32400003-.8948571-2.83371428-1.404-5.11971428-3.8828571-6.26914286-6.8322857-1.32685714-3.3042857-1.224-7.164.33428572-10.37314287z" fill="#2c8cda" transform="translate(.257143 23.857143)"/><path d="m.22628571 5.47457143c2.304-3.09857143 5.95542858-5.15057143 9.82799999-5.34857143 4.2197143-.27771429 8.478 1.67914286 11.052 5.02457143 1.2137143 1.42971428 1.8977143 3.19628571 2.4711429 4.95514287-1.7151429.8254286-3.4482857 1.6148571-5.1737143 2.4197143-3.6797143 1.6482857-7.3105714 3.4045714-10.99542859 5.0348571-.24685714-1.1905714-.46028571-2.4428571-.11057142-3.6385714.45257142-1.5685714 1.68428571-2.8491429 3.18085711-3.4688572 1.998-.87942853 3.9908572-1.76657139 5.9734286-2.67428567-1.7074286-1.61485714-4.0525714-2.62028572-6.4311429-2.32457143-3.8108571.29314286-7.03542853 3.83142857-6.91714281 7.6628571-.09771429 3.5202858 2.59457142 6.8117143 6.02228571 7.524 1.5994286.3214286 3.3222857.2108572 4.8085714-.4988571.8048572-.378 1.5994286-.8794286 2.52-.9 1.6405715-.0411429 3.1705715.702 4.4948572 1.6071429.0385714.0488571.1157143.1465714.1542857.1928571-2.6742857 3.6437143-7.3722857 5.5825714-11.83885716 4.9937143-3.672-.4037143-7.06371428-2.4968572-9.18514285-5.5028572 1.95942857-2.6948571 2.85171428-6.1611428 2.37857142-9.4628571-.288-1.998-1.06457142-3.91885714-2.214-5.57228571z" fill="#d84446" transform="translate(23.914286 23.857143)"/><path d="m.11828571 8.22085714c-.19542857-2.90057143.81257143-5.75485714 2.44028572-8.12314285 1.14942857 1.65342857 1.926 3.57428571 2.214 5.57228571.47314286 3.30171429-.41914286 6.768-2.37857143 9.4628571l-.02314286.0308572c-1.28314285-2.0982857-2.22171428-4.4562857-2.25257143-6.94285716z" fill="#6f4b8e" transform="translate(21.6 29.257143)"/><g fill="#333" transform="translate(0 24.144173)"><path d="m97.8068571.75439805c.0077143-.58114286.6788572-.79457143 1.1674286-.74828571 3.0960003.00514285 6.1920003-.018 9.2880003.01028571.532285-.02571429 1.033714.36 1.046571.91542857.023143 1.82571429.012857 3.654.005143 5.47971429.028286.49114285-.254571.97971428-.758571 1.07742857-1.460572.054-2.921143 0-4.381715.02314286 0 .54257142 0 1.08257142-.005143 1.62514285 1.877143.00771429 3.754286-.018 5.634.01542857.09.162.27.486.36.65057143-.231428.18-.403714.54000001-.740571.51428571-1.751143.0257143-3.502286-.0051428-5.253429.0102857.005143.6454286.007715 1.2934286.002572 1.9414286 2.064857.018 4.132286-.0334286 6.194571.0231429.756.036.704572 1.3062857-.059143 1.2188571-4.533428.0231429-9.069428.0102857-13.6028567.0051429-.3651429.0694285-.8357143-.2982858-.684-.684-.018-.4525715.5502857-.5811429.8974286-.5631429 1.9517142-.0077143 3.9034281.0077143 5.8551431-.0025714.002571-.6531429.002571-1.3037143.005143-1.9542857-1.697143.0025714-3.3968576.0462857-5.091429-.0154286-.5194286-.126-.4705714-.75085716-.2417143-1.11085716 1.7717143-.11828572 3.5537143-.01542858 5.3280003-.05142858.002571-.54.005143-1.07742857.007714-1.61742857-1.344857-.02828571-2.692286.018-4.0371429-.018-.5785714.03085715-1.0157142-.51942857-.9488571-1.07228571.0025714-1.89-.0257143-3.78257143.0128571-5.67257143zm1.3371429.60942857c-.0745714.58628572-.0411429 1.18028572-.0462857 1.76914286 1.2239997-.018 2.4505717-.01285714 3.6771427-.00257143 0-.63 0-1.25742857-.005143-1.88742857-1.206.04371428-2.437714-.12857143-3.625714.12085714zm5.04-.126c-.007714.63257143-.007714 1.26257143-.007714 1.89514286 1.285714-.02057143 2.571428-.00771429 3.859714-.01285714-.015429-.57857143.056571-1.16742858-.072-1.73828572-1.234286-.29314286-2.525143-.07714286-3.78-.144zm-.015429 3.04971429c.007715.64028571.007715 1.278.010286 1.91571428 1.247143.00514286 2.494286.018 3.738857-.01028571.120857-.62742857.128572-1.26514286.110572-1.90028572-1.288286-.00257142-2.574.00257143-3.859715-.00514285zm-5.0811424.00257143c.0077143.63257142.0077143 1.26514285.0642857 1.89514285 1.2059997.04114286 2.4145717.02057143 3.6231427.01542857 0-.63514285 0-1.27285714 0-1.908-1.229143 0-2.458286 0-3.6874284-.00257142z"/><path d="m81.1568571 1.24554091c-.0437142-.43457143.1234286-.92057143.5657143-1.08257143.8717143-.06428572 1.7485715-.00771429 2.6228572-.01542857.5245714-.04885715 1.2162857.22371428 1.2162857.84085714-.0925714 1.12628571-.7945714 2.07514286-1.1571429 3.12428571-.4654285.78685715.3754286 1.46314286.6248572 2.16514286.6634285 1.16742857.684 2.844-.4191429 3.75171428-.6685714.5322857-1.5428571.2777143-2.2834286.0771429.018 1.1725714.0257143 2.3451428.0102858 3.5151428.0745714.4962857-.4165715.7842857-.8511429.6351429-.4371429-.2571429-.3188571-.7637143-.3342857-1.1828572.0128571-3.94199996 0-7.88399996.0051428-11.82857139zm1.2111429 7.71171428c.6454286.23142857 1.5737143.32142857 1.8282857-.504.288-1.35-.774-2.44542857-1.2831428-3.59228571.2108571-1.20857143.8691428-2.28342857 1.2471428-3.44314286-.5837143-.03342857-1.17-.03857143-1.7511428-.00514286-.1362858 2.50971429-.0617143 5.03228572-.0411429 7.54457143z"/><path d="m86.6725714 1.68268376c-.8537143.10542858-.8537143-1.48114285 0-1.36028571 2.6434286-.01028571 5.2868572-.00771428 7.9302857-.00257143.5734286-.11571428 1.0362858.648.6377143 1.09028572-.1928571.29057142-.6068571.24428571-.8948571.36.0025714 3.34542857 0 6.68828571 0 10.03114286.0051428.666-.0462857 1.4528571-.63 1.8848571-.9282857.6274286-2.1214286.4062858-3.1602857.2674286-.5168572-.1311428-1.152-.1594286-1.5042857-.6145714-.2185715-.4474286.1877142-.9797143.6788571-.8768572.9282857.1594286 1.8771429.468 2.8234286.2417143.3882857-.0977143.5014285-.5451428.4757143-.8974285.0051428-3.37114291-.0025715-6.74485719.0025714-10.11600005-2.1188572-.00257143-4.2402857.018-6.3591429-.00771429z"/><path d="m134.277429.33525519c2.100857-.03342857 4.204285-.03085714 6.302571-.00257142.663429.07457142.493714 1.27028571-.146571 1.22399999-1.987715.02571429-3.978.01285715-5.968286.00514286-.750857.13371429-.897429-1.152-.187714-1.22657143z"/><path d="m144.828.26582662c.560571-.00514285 1.123714-.00514285 1.686857 0-.015428 2.55342857-.020571 5.10942857 0 7.66542857.074572 1.06971429.133714 2.37085711 1.113429 3.04714291 1.203428.7868571 2.833714.756 4.111714.162 1.157143-.5837143 1.270286-2.05200005 1.334571-3.19114291.007715-2.56114285 0-5.12228571 0-7.68085714.560572-.00771428 1.123715-.00771428 1.689429-.00771428 0 2.55857142.005143 5.11971428 0 7.67828571-.036 1.36285714-.203143 2.88771432-1.242 3.88285712-.936.9462857-2.311714 1.2908572-3.607714 1.2368572-1.370572.0462857-2.882572-.2005715-3.867429-1.2368572-.961714-.9488571-1.157143-2.37857141-1.200857-3.66685712-.025714-2.63057143.010286-5.26114286-.018-7.88914286z"/><path d="m157.536.26068377c3.049714.00257142 6.096857 0 9.146571.00257142 0 .50142858-.002571 1.00542857-.005142 1.50685715-2.478858.04885714-4.960286.01028571-7.439143.02057142.002571 1.26771429-.002572 2.53285715.005143 3.798 2.329714-.01285714 4.659428 0 6.991714-.00514285-.002572.504-.005143 1.00542857-.002572 1.50942857-2.329714-.01285714-4.662.01028571-6.991714-.01285714-.005143 1.42457142.007714 2.84657142-.010286 4.26857146 2.586858.0051428 5.176286 0 7.765715.0025714-.005143.5065714-.005143 1.0131429-.002572 1.5197143-3.152571-.0025714-6.305143.0025714-9.455143 0-.002571-4.20428574.002572-8.40857145-.002571-12.61028573z"/><path d="m169.254.26582662c1.869429.01028572 3.741429-.04628571 5.610857.03857143 1.380857.036 2.759143.666 3.579429 1.8 1.314 1.75885714 1.437428 4.11428571 1.108285 6.21-.336857 1.90542855-1.550571 3.87257145-3.553714 4.31228575-2.214.4731428-4.5.1491428-6.744857.2442857.023143-4.20171431.018-8.40342859 0-12.60514288zm1.686857 1.52742857c-.018 3.186-.002571 6.372-.007714 9.55800001 1.134-.0102857 2.268.0205714 3.402-.0102857.995143-.0565714 2.090571-.3677143 2.676857-1.242 1.000286-1.45028574 1.051714-3.33000002.833143-5.01942859-.169714-1.45285715-1.177714-2.97-2.710286-3.19114286-1.391143-.17742857-2.797714-.06685714-4.194-.09514286z"/><path d="m112.752.61811234c.084857-.04371429.252-.13628572.334286-.18 3.975428-.02828572 7.950857-.02314286 11.926285-.00257143.725143-.00257143.779143.78428571.776572 1.32942857-.005143 3.60771428 0 7.21542857-.002572 10.82571432.054.486-.231428 1.1082857-.802285 1.0697143-3.859715.018-7.719429.0102857-11.581715.0051428-.581142.0411429-.977142-.5477143-.892285-1.0851428-.010286-3.60257148.007714-7.20514291-.007715-10.80771434.048858-.37285714-.113142-.90257142.249429-1.15457142zm1.074857 1.10314285c-.151714 1.38342857-.041143 2.77714286-.074571 4.16314286.056571 2.17285714-.110572 4.36114285.079714 6.52114285 3.489429.0951429 6.996857.036 10.488857.0308572.048857-.0874286.144-.2597143.190286-.3445715.056571-3.01628569 0-6.03514284.028286-9.05142855.023142-.46028571-.056572-.91285714-.226286-1.33971429-3.494572 0-6.991714-.03857142-10.486286.02057143z"/><path d="m128.021143 1.50782662c-.033429-.41914286.066857-.93857143.527143-1.07742857 1.118571-.09 2.247428-.054 3.371143-.02828571.444857-.018.866571.38571428.750857.84857142-.221143 1.25228572-.866572 2.38371429-1.337143 3.55371429.606857 1.21371429 1.267714 2.51485714 1.172571 3.91114286-.133714 1.26257143-1.566 1.79742859-2.676857 1.64571429-.640286-.0077143-.367714-.78942858-.336857-1.16228572.622286-.10285714 1.686857.108 1.833429-.75085714.128571-1.30628572-.624858-2.48142858-1.152-3.62057143.439714-1.03371429.794571-2.10085715 1.077428-3.186-.653143-.08228572-1.311428-.08485715-1.964571-.05142857-.126 4.11942857-.010286 8.24657142-.056572 12.36857146-.408857.2031428-1.110857.324-1.182857-.2957143-.056571-4.05000002-.005143-8.10257145-.025714-12.15514288z"/><path d="m86.5362857 3.21268376c1.3937143-.20057142 2.826-.04371428 4.2351429-.08742857.4422857-.06428571 1.0414285.15171429.9822857.69685715.0154286 1.87457142.0334286 3.75171428-.0077143 5.62628571-.0051429.51171429-.4782857.77914285-.9462857.74571425-1.3011429.0102858-2.6048572.0334286-3.906-.018-.3522857-.036-.8922857-.24685711-.8485714-.67628568-.0102858-1.81028571-.0025715-3.62057143-.0025715-5.43342857-.072-.38828571.1722857-.684.4937143-.85371429zm.8537143 1.224c-.1208571 1.48885715-.0874286 2.988-.0282857 4.47942858 1.0028571.13885714 2.016.08485714 3.0265714.07971428.3445714-1.48628571.1234286-3.03685714.1491429-4.55142857-1.0465715-.09771429-2.1008572-.08485714-3.1474286-.00771429z"/><path d="m115.189714 4.10754091c-.27-.35485715-.308571-.99.226286-1.11085715 2.630571-.04628571 5.263714-.02828571 7.896857-.00257142.087429.38057142.272572.84085714-.09 1.14428571-1.229143.11828571-2.471143.01028571-3.702857.05142857 0 .58628572.002571 1.17514286.002571 1.76142857 1.146858.04371429 2.311715-.09771428 3.450858.07457143.372857.28028572.164571.702.087428 1.06971429-1.175143.08485714-2.352857.01285714-3.528.05657143-.018.92314285-.010286 1.84628571-.010286 2.76942857 1.314.04114285 2.633143-.05914286 3.947143.036.612.20314289.36 1.26771429-.285428 1.14685719-2.666572.0102857-5.333143.0051428-7.999715.0025714-.645428.144-.954-.7251429-.514285-1.12114288 1.175143-.12857143 2.365714-.02314286 3.546-.05657143 0-.93085714.005143-1.85914285-.010286-2.79-.897429-.02828571-1.802571.054-2.697429-.04114285-.390857-.27257143-.36-1.08771429.208286-1.12371429.835714-.05914286 1.671429-.01028571 2.507143-.02314286-.007714-.58628571-.005143-1.17514285-.002571-1.76142857-1.010572-.03857143-2.031429.07971429-3.031715-.08228571z"/><path d="m132.963429 5.60411234c-.730286-.18257143-.470572-1.29857143.239142-1.19057143 2.949429.02057143 5.904-.07457143 8.848286.054-.048857.41142857.231429 1.08-.380571 1.16228571-1.267715.07971429-2.538.00514286-3.805715.03342857.002572 2.22171429-.018 4.44085711.020572 6.66257141 0 .6042857-.159429 1.3782857-.851143 1.53-.982286.1645715-2.028857.1414286-2.990571-.1285714-.583715-.3497143-.154286-1.2882857.473142-1.2471429.699429.0257143 1.406572.1311429 2.103429-.0282857-.007714-2.2628571-.007714-4.52828569 0-6.79114284-1.218857-.04114285-2.450571.08485715-3.656571-.05657142z"/><path d="m134.164286 6.82811234c.421714-.53742858 1.285714-.018 1.118571.59142857-.426857 1.836-1.355143 3.52799999-2.445428 5.05285719-.352286.5734285-1.036286.2417142-1.396286-.1311429.473143-.9411429 1.17-1.7485714 1.627714-2.70000001.491143-.88457143.717429-1.87971428 1.095429-2.81314285z"/><path d="m138.980571 6.80754091c.375429-.486.956572-.04371429 1.139143.38314285.846 1.62514286 1.434857 3.38142854 1.854 5.16085714.198.7302857-1.221428 1.0388572-1.252285.2185714-.357429-1.9028571-1.316572-3.60257139-1.954286-5.39999996.054-.09.159428-.27257143.213428-.36257143z"/><path d="m120.160286 7.73582662c.380571-.44228571.987428.054 1.337143.32657143.480857.38828571 1.398857 1.03114286.676285 1.656-.910285.01028571-1.558285-.88457143-2.149714-1.48885714.033429-.12342857.102857-.37028572.136286-.49371429z"/><path d="m89.5294286 18.5101123c.27-.3214285.6248571.1208572.9205714.1774286-.1054286.3265714-.234 1.0337143-.7328571.7842857-.4834286.0128572-.6248572-.792-.1877143-.9617143z"/><path d="m143.318571 18.6746838c.326572-.1465715.753429-.4885715 1.038858-.0745715.416571.3317143-.146572.81-.36 1.0645715-.372858-.2211429-.614572-.5631429-.678858-.99z"/><path d="m87.2588571 18.5486838c.288-.0077143.5785715-.0154286.8691429-.0205715-.0051429 1.8514286-.0128571 3.7028572.0051429 5.5568572-.2931429.0051428-.5862858.0102857-.8768572.018.0102857-1.8514286.0051429-3.7028572.0025714-5.5542857z"/><path d="m159.981429 18.5435409c.210857-.0025714.635142-.0102857.848571-.0128571.010286 1.854 0 3.7105714.005143 5.5671428-.216-.0025714-.645429-.0077143-.861429-.0102857.007715-1.8488571-.002571-3.6951428.007715-5.544z"/><path d="m83.3348571 18.8495409h.9771429c.7714286 1.7485714 1.5248571 3.5022857 2.3194286 5.2405714-.3368572 0-.6711429.0025715-1.0054286.0025715-.1697143-.3831429-.3368571-.7662857-.5014286-1.1494286-.8717143-.0077143-1.7382857-.0051429-2.6074285-.0077143-.1645715.3882857-.3265715.774-.4911429 1.1622857-.3368571-.0051428-.6737143-.0128571-1.008-.018.7765714-1.7408571 1.548-3.4842857 2.3168571-5.2302857zm-.4191428 3.1988572c.6017143.0025714 1.206 0 1.8102857.0025714-.3034286-.6737143-.5708571-1.3628572-.8974286-2.0237143-.3394285.6582857-.6145714 1.3448571-.9128571 2.0211429z"/><path d="m91.4991429 18.5512552c.2211428-.0051429.6685714-.0154286.8897142-.0231429.0051429.7174286.0077143 1.4348572-.0128571 2.1522858.594-.6942858 1.656-.8485715 2.3991429-.3008572 1.3088571.8382857 1.0671428 3.1602857-.4114286 3.6797143-.6968572.3728571-1.4142857-.0617143-2.0057143-.4165714.0077143.1131428.018.3394285.0257143.4525714-.2211429-.0025714-.6634286-.0025714-.8845714-.0051429 0-1.8462857.0025714-3.6925714 0-5.5388571zm1.4734285 2.4094286c-.8408571.4885714-.8074285 1.9594285.1182857 2.3297143.7765715.3934285 1.746-.3702858 1.656-1.2085715.0462858-.882-.9874285-1.5865714-1.7742857-1.1211428z"/><path d="m101.093143 18.5461123c.213428-.0051428.637714-.0128571.851143-.0154285.007714.7148571.010285 1.4297143-.023143 2.1445714.642857-.6608571 1.704857-.8742857 2.468571-.2751429 1.280572.882 1.008 3.1911429-.504 3.672-.704571.3522858-1.391143-.0874285-1.972285-.4577142.007714.1182857.025714.36.033428.4808571-.213428-.0025714-.642857-.0025714-.856286-.0051429.002572-1.8462857-.002571-3.6951428.002572-5.544zm1.085143 2.7822858c-.624857.8254285-.023143 1.9671428.936 2.1445714.784285-.18 1.452857-.9385714 1.144285-1.7691429-.190285-.936-1.602-1.2137143-2.080285-.3754285z"/><path d="m112.903714 18.8392552c.306.0077143.612.0128571.920572.0205714-.005143 1.7434286.012857 3.4894286-.010286 5.2328572-.231429-.0025715-.696857-.0102857-.928286-.0154286.064286-1.7434286.036-3.492.018-5.238z"/><path d="m120.196286 18.8546838c.288-.0025715.576-.0051429.869143-.0051429-.007715.4165714-.012858.8331429-.015429 1.2522857.36 0 .725143 0 1.087714.0025715-.018.2442857-.036.4911428-.054.738-.344571 0-.689143 0-1.031143 0 0 .8022857-.005142 1.6045714.030858 2.4068571.401142.1131429.807428.0822857 1.216285-.0128571.169715.3368571.290572.6968571-.169714.7971428-.704571.432-1.748571-.0411428-1.879714-.8537143-.110572-.774-.038572-1.5582857-.054-2.3374285-.118286 0-.354857.0025714-.473143.0025714-.007714-.2442857-.015429-.4885714-.020572-.7328572.123429-.0077142.370286-.018.493715-.0257142-.002572-.4114286-.002572-.8202858 0-1.2317143z"/><path d="m140.487429 18.8469695c.288.0025714.581142.0051428.874285.0077143-.007714.414-.010285.8305714-.012857 1.2471428h1.069714c-.012857.1851429-.033428.558-.043714.7457143-.344571-.0051428-.684-.0051428-1.023428-.0077143.025714.7482857-.074572 1.512.061714 2.2525715.195428.504.735428.2648571 1.085143.0925714.105428.2365714.213428.4705714.324.7071428-.609429.2365715-1.319143.4911429-1.877143.0077143-.812572-.792-.326572-2.0494285-.45-3.0445714-.131143-.0077143-.388286-.0231429-.516857-.0308571-.005143-.1774286-.015429-.5322858-.020572-.7097143.133715-.0051429.401143-.018.534857-.0257143-.005142-.414-.005142-.828-.005142-1.242z"/><path d="m170.079429 18.8495409c1.231714.0051429 2.466 0 3.702857.0025714-.005143.2828572-.007715.5657143-.007715.8485715-.938571.0051428-1.877142 0-2.813142.0051428 0 .4602857.005142.9231429.012857 1.386.838285 0 1.676571.0025715 2.517428-.018.005143.2057143.015429.6171429.023143.8228572-.848571-.0025715-1.697143 0-2.543143 0-.007714.45-.007714.9025714-.007714 1.3525714h2.939143c-.005143.2108571-.020572.6325714-.028286.8434286-1.265143 0-2.530286 0-3.795428 0 0-1.7485715.005142-3.4971429 0-5.2431429z"/><path d="m164.244857 18.8495409c.228857 0 .689143.0025714.920572.0025714.023142 1.1597143-.108 2.3322858.074571 3.4817143.249429 1.224 2.165143 1.2882857 2.476286.072.182571-1.1777143.023143-2.3862857.082285-3.5742857.236572.0077143.707143.0205714.943715.0257143-.069429 1.2908571.154285 2.6125714-.146572 3.8802857-.514285 1.7897143-3.384 1.9465714-4.114285.2468572-.465429-1.3217143-.138858-2.7617143-.236572-4.1348572z"/><path d="m174.965143 24.0901123c.002571-1.746.005143-3.492 0-5.2405714 1.172571.0514286 2.43-.1825714 3.525428.36 1.784572.8948572 1.614858 3.996-.275142 4.6697143-1.038858.3677143-2.170286.1594286-3.250286.2108571zm.956571-4.3868571c-.005143 1.1802857 0 2.3631429-.005143 3.546.820286-.0051429 1.782.1234286 2.427429-.5091429.619714-.6917142.619714-1.89-.030857-2.5637142-.666-.5605715-1.581429-.4808572-2.391429-.4731429z"/><path d="m89.3957143 20.0812552c.2982857.0128571.5965714.0257143.8974286.0385714-.0025715 1.3191429 0 2.6357143-.0025715 3.9522857-.2237143.0077143-.6685714.0205715-.8922857.0282858-.0077143-1.3422858-.0025714-2.682-.0025714-4.0191429z"/><path d="m96.6522857 20.5441123c.9437143-.6557142 2.7514286-.8305714 3.1885714.4962858.0771429 1.0131428.0102858 2.0314285.0308572 3.0471428-.1954286.0025714-.5914286.0077143-.7894286.0102857l-.0051428-.3908571c-.5451429.3471428-1.2034286.6737143-1.8488572.3857143-.8742857-.18-1.2702857-1.4657143-.5708571-2.0494286.7045714-.5528571 1.6611428-.288 2.484-.378-.1671429-.4114286-.3677143-.8974286-.8871429-.9282857-.4808571.0694286-.9334286.2597143-1.3834286.432-.054-.1568572-.1645714-.468-.2185714-.6248572zm.4422857 2.5997143c.4448572.1388572.9257143.4525715 1.3885715.1722857.4808571-.09.4602857-.6531428.6042857-1.0105714-.738-.0102857-1.9491429-.2442857-1.9928572.8382857z"/><path d="m106.166571 20.5466838c.938572-.5502857 2.491715-.8665715 3.147429.2391428.306 1.0902857.09 2.2628572.128571 3.384-.331714-.072-.699428-.0925714-.907714-.4011428-.542571.3214285-1.193143.6171428-1.810286.2931428-.825428-.2417143-1.167428-1.3885714-.527142-2.0005714.709714-.5708571 1.681714-.3137143 2.52-.3985714-.154286-.468-.439715-.8357143-.928286-.972-.444857.144-.887143.3008571-1.319143.4731428-.077143-.1542857-.228857-.4628571-.303429-.6171428zm.702 1.9645714c-.462857.6917143.560572 1.1211429 1.100572.8562857.511714-.1002857.576-.6608571.722571-1.0697143-.606857.0257143-1.280571-.1337143-1.823143.2134286z"/><path d="m116.028 20.6546838c.704571-.7842857 2.229429-.8871429 2.687143.2082857.303428 1.0388571.066857 2.1574286.138857 3.2297143-.221143 0-.666-.0025715-.887143-.0025715-.041143-.9437142.118286-1.9105714-.100286-2.8362857-.429428-.8151428-1.918285-.3445714-1.807714.5708572-.025714.756-.002571 1.512-.002571 2.2654285-.306 0-.612.0025715-.918.0025715.005143-1.332.010285-2.6665715-.002572-3.9985715.231429 0 .691715.0025715.920572.0025715-.007715.1388571-.020572.4191428-.028286.558z"/><path d="m123.693429 20.4798266c.882-.7148571 2.412-.54 3.024.45.295714.4577143.205714 1.0285715.257142 1.5454286-1.095428.0334286-2.190857-.018-3.283714.0488571.491143 1.0182858 1.758857 1.1185715 2.584286.4525715.108.162.321428.4834285.429428.6428571-.745714.4268572-1.650857.7868572-2.491714.4191429-1.434857-.486-1.697143-2.6717143-.519428-3.5588572zm.023142 1.2522857c.825429.0591429 1.653429.054 2.478858.0102858-.280286-1.2574286-2.134286-1.188-2.478858-.0102858z"/><path d="m127.913143 20.0966838h.874286c-.010286.1594285-.025715.4757143-.036.6325714.388285-.306.804857-.5734286 1.249714-.7894286.025714.2211429.079714.6634286.105428.8845715-.414.1748571-.969428.234-1.144285.7148571-.326572.81-.136286 1.7074286-.182572 2.556-.290571-.0025714-.578571-.0077143-.866571-.0102857-.007714-1.3294286-.005143-2.6588572 0-3.9882857z"/><path d="m131.785714 20.6598266c.750857-.7971428 2.332286-.8871428 2.769429.2751429.241714 1.0285714.074571 2.106.115714 3.1551428-.298286 0-.594 0-.889714-.0025714-.012857-.8562857.030857-1.7125714-.020572-2.5688571-.156857-.9848572-1.694571-.8382857-1.89.0514285-.100285.8357143-.033428 1.6817143-.030857 2.5225715-.293143 0-.586285 0-.879428 0 .038571-1.3217143-.012857-2.646.025714-3.9702857.210857-.0128572.63-.0411429.840857-.054-.010286.1465714-.030857.4422857-.041143.5914285z"/><path d="m135.889714 20.5389695c.861429-.5554286 2.198572-.7765714 2.977715.0231428.550285 1.08.182571 2.3605715.290571 3.5254286-.195429.0025714-.583714.0102857-.776571.0154286l.018-.396c-.907715.7688571-2.841429.6274286-2.828572-.8382857.012857-1.4142857 1.8-1.1905715 2.779714-1.1905715-.084857-.2417142-.167142-.4834285-.249428-.7251428-.205714-.0565714-.614572-.1748572-.820286-.234-.378.1542857-.753428.3085714-1.126286.4654286-.066857-.162-.198-.4834286-.264857-.6454286zm.768857 1.908c-.586285.3754286.072 1.116.606858.9848571.658285.036 1.072285-.5245714 1.044-1.1417143-.547715.0437143-1.152-.126-1.650858.1568572z"/><path d="m143.526857 20.1043981c.280286-.0051429.563143-.0077143.846-.0128572.007714 1.332.005143 2.664.002572 3.996-.288.0025714-.573429.0051429-.853715.0077143 0-1.3294286-.007714-2.6614286.005143-3.9908571z"/><path d="m146.669143 20.1763981c.789428-.2545715 1.776857-.162 2.350286.4988571 1.020857.9771429.601714 2.9417143-.766286 3.3737143-1.146857.4834286-2.61-.2442857-2.859429-1.4734286-.234-.9745714.329143-2.0622857 1.275429-2.3991428zm.267428.7714285c-.928285.3934286-.943714 1.8591429-.048857 2.304.804857.4705715 1.915715-.2314285 1.825715-1.1597143.061714-.9051428-.974572-1.5582857-1.776858-1.1442857z"/><path d="m150.57 20.0966838h.869143c-.002572.1465714-.010286.4345714-.015429.5811428.766286-.9822857 2.764286-.7971428 2.808.6222857.048857.9308572.002572 1.8617143.033429 2.7925715-.288 0-.573429-.0025715-.856286-.0025715-.028286-.918.097714-1.854-.09-2.7617142-.336857-.8022858-1.666286-.5502858-1.818.2597142-.146571.8228572-.028286 1.6688572-.059143 2.4994286-.290571.0025714-.581143.0051429-.866571.0077143.002571-1.3345714.007714-2.6665714-.005143-3.9985714z"/><path d="m155.502 20.5723981c.884571-.648 2.491714-.8511429 3.119143.2314285.285428 1.062.069428 2.1934286.136286 3.2862857-.195429 0-.588858.0051429-.786858.0051429-.005142-.1002857-.012857-.3008571-.018-.4011429-.550285.3394286-1.208571.6968572-1.856571.3908572-.956571-.1954286-1.293429-1.6302857-.426857-2.1548572.725143-.3882857 1.584-.1877142 2.370857-.27-.169714-.414-.447429-.756-.835714-.9771428-.493715.1362857-.977143.2931428-1.450286.4885714-.061714-.1491428-.190286-.45-.252-.5991428zm.460286 2.2808571c.455143 1.0414286 2.064857.5477143 2.031428-.5451429-.686571.0231429-1.674-.2494285-2.031428.5451429z"/><path d="m136.848857 36.0909695c.421714.306.848572.612 1.270286.9231428-.108.126-.321429.3754286-.426857.4988572h2.278285l-.336857-.3394286c.419143-.3291428.835715-.666 1.252286-.9977143.123429.126.365143.378.486.504-.390857.2828572-.784286.5631429-1.182857.8331429h2.849143c.002571.1594286.002571.4757143.002571.6351428-1.244571 0-2.491714-.0025714-3.736286 0v.7174286c1.074858 0 2.147143 0 3.222-.0025714 0 .2134286 0 .4268571.005143.6402857-1.077428 0-2.152285 0-3.227143 0v.8382857c1.288286 0 2.574-.0051428 3.862286.0051429 0 .1594285-.002571.4782857-.005143.6377143-2.831143-.018-5.659714-.0051429-8.488285-.0077143 0-.1594286 0-.4757143.002571-.6351429h3.924c0-.2082857 0-.6274286 0-.8382857-1.072286 0-2.142-.0025714-3.214286.0025714 0-.1594285 0-.4834285 0-.6428571 1.072286.0051428 2.147143.0025714 3.219429.0025714-.002572-.18-.010286-.5425714-.012857-.7225714-1.242.0077143-2.484 0-3.723429.0077143.005143-.1594286.012857-.4782857.015429-.6377143.918 0 1.838571.0025714 2.756571-.0051429-.385714-.306-.776571-.6042857-1.162286-.9025714.120858-.1722857.244286-.3445714.370286-.5142857z"/><path d="m14.0245714 36.2529695c.1671429.0385714.504.1131428.6737143.1517143-.2082857.8897143-.7714286 1.6971428-.7457143 2.6305714.0025715 1.9311429.0025715 3.8648571.0025715 5.7985714-.2185715 0-.4345715 0-.6531429 0 .0102857-1.6714285-.0205714-3.3402857.0205714-5.0117143-.2905714.4808572-.5991428.9514286-.9334285 1.4014286-.0437143-.1851428-.1311429-.558-.1722858-.7431428.756-1.3371429 1.4554286-2.7205715 1.8077143-4.2274286z"/><path d="m17.1591429 36.2272552h.6531428c0 .5991429 0 1.1982857-.0025714 1.8h2.772c-.0077143.1594286-.0205714.4808571-.0257143.6402857-.7328571-.0077143-1.4657143-.0077143-2.196-.0051428.5014286 1.4862857 1.2085714 2.9751428 2.4891429 3.9471428-.1568572.216-.3162858.4268572-.4808572.6377143-1.3911428-1.152-2.0905714-2.8671429-2.5611428-4.5642857.0051428 1.2162857.0051428 2.43.0051428 3.6462857.4268572 0 .8562857 0 1.2831429.0025714v.648c-.4294286 0-.8562857.0025715-1.2831429.0025715v1.8514285c-.162 0-.4911428 0-.6531428 0 0-.6171428 0-1.2342857 0-1.8514285-.4062858 0-.81-.0025715-1.2162858 0 0-.1645715 0-.4885715 0-.6531429h1.2162858c.0025714-1.1931429-.0051429-2.3888571.0102857-3.582-.4911429 1.728-1.3217143 3.3891429-2.6588572 4.6182857-.1517143-.1928571-.3034285-.3857143-.4525714-.576 1.206-1.1108571 2.0211429-2.5688571 2.5097143-4.122-.6814286-.0077143-1.3628572-.0077143-2.0417143-.0025714.0025714-.1594286.0128571-.4782857.018-.6377143h2.6177143c-.0025714-.6017143-.0025714-1.2008571-.0025714-1.8z"/><path d="m30.0651429 36.3018266c.1337142-.0385714.4037142-.1105714.54-.1491428.36 1.368 1.4991428 2.3502857 2.6151428 3.132-.1105714.1542857-.3317143.4654285-.4397143.6222857-.9617143-.7842857-1.8257143-1.692-2.4685714-2.7565714-.6608571 1.0877142-1.4837143 2.0802857-2.4865714 2.8722857-.1028572-.144-.3085715-.4294286-.4088572-.5734286 1.1417143-.8074286 1.9722857-1.9414286 2.6485715-3.1474286z"/><path d="m37.1442857 36.6489695c.1902857-.1234286.3805714-.2417143.5734286-.3625714.3805714.5374285.7585714 1.0774285 1.1494286 1.6097142-.1568572.1105715-.4705715.3317143-.6274286.4422858-.36-.5682858-.7225714-1.134-1.0954286-1.6894286z"/><path d="m41.0682857 36.1012552c.1825714.036.5502857.1105714.7328572.1465714-.1337143.3317143-.2648572.6634286-.3934286.9977143 1.1725714.0205714 2.3477143.0077143 3.5202857.0102857.0051429.1594286.0102857.4782857.0128571.6402857-1.26-.0102857-2.52-.0025714-3.78-.0077142-.2905714.6737142-.5837142 1.3474285-.9077142 2.0082857.576-.0025715 1.152-.0025715 1.728-.0025715 0-.5168571 0-1.0311428-.0025715-1.548.1774286.0025715.5297143.0051429.7071429.0051429v1.5428571c.7277143 0 1.4554286 0 2.1857143-.0025714v.6428572c-.7302857-.0025715-1.458-.0025715-2.1857143-.0025715v1.1622857c.8151428 0 1.6277143 0 2.4428571-.0025714v.6428572c-.8151428-.0051429-1.6302857-.0025715-2.4428571-.0025715v1.4194286c-.1748572 0-.5297143.0051429-.7045714.0077143 0-.4757143 0-.9514286 0-1.4271429-.9642858 0-1.9311429 0-2.8954286 0 0-.1594285 0-.4782857 0-.6377143h2.8954286c0-.3882857 0-.7765714 0-1.1622857-.8614286 0-1.7202858.0102857-2.5791429-.0205714.108-.954.6891429-1.7485714 1.044-2.6202857-.4114286 0-.8228571 0-1.2342857.0025714.0051428-.1594286.0128571-.4782857.0154286-.6377143h1.4631428c.1234286-.3857143.252-.7714285.378-1.1545714z"/><path d="m50.2071429 36.2915409h.6428571c-.0025714.5554286-.0025714 1.1108572-.0025714 1.6688572.3188571-.0025715.6377143-.0025715.9565714-.0025715 0 .216.0025714.4345715.0025714.6531429-.3188571 0-.6402857-.0025714-.9591428-.0025714v1.7922857c.2442857-.0874286.4885714-.1748572.7354285-.2622857.0308572.1774285.09.5297142.1208572.7045714-.2854286.0951428-.5708572.1902857-.8562857.2828571-.0385715 1.0748572.0977143 2.1625715-.0925715 3.2245715-.288.576-1.0028571.3857142-1.5222857.4654285-.0591428-.2545714-.1182857-.5091428-.1748571-.7637143.3677143.0051429.738.0051429 1.1057143-.0025714.0668571-.9.0462857-1.8025714.0437143-2.7051428-.3805715.108-.7611429.2185714-1.1417143.3317142-.0154286-.1928571-.0462857-.5785714-.0617143-.774.4011428-.1002857.8022857-.2031428 1.206-.306 0-.6608571 0-1.3242857 0-1.9851428-.3651429-.0025714-.7302857 0-1.0954286 0 0-.1645714 0-.4885714 0-.6531429h1.0954286c0-.5554285 0-1.1108571-.0025714-1.6662857z"/><path d="m54.0565714 36.4303981c.1388572-.0745715.414-.2237143.5528572-.2982858.1722857.3677143.3471428.7405715.5168571 1.1108572.738.018 1.476.0128571 2.2165714.0128571v.6325715c-1.782.0077142-3.5614285-.0051429-5.3434285.0077142.0051428-.162.0102857-.4808571.0154285-.6402857h2.4274286c-.1337143-.2751428-.2802857-.5425714-.3857143-.8254285z"/><path d="m67.8857143 36.2941123c.1774286 0 .5297143-.0025714.7071428-.0051428-.0025714.7277143-.0025714 1.4554286-.0025714 2.1831428h1.2162857v.6531429c-.4062857 0-.8125714-.0025714-1.2162857-.0025714 0 1.1751428-.0025714 2.3528571.0025714 3.5305714-.1774285 0-.5297142.0025714-.7071428.0051429 0-.1465715 0-.4371429 0-.5837143-.7714286 0-1.5428572 0-2.3142857 0v.648c-.1594286.0025714-.4757143.0025714-.6351429.0025714.0025714-1.2008571-.0051428-2.4017143.0051429-3.6051429-.5605715.0051429-1.1237143.0051429-1.6842857.0051429v4.698c2.1214285-.0077143 4.2402857.0077143 6.3617142-.0102857 0 .1594286.0025715.4808571.0051429.6402857-2.358.0051429-4.716 0-7.0714286.0025714 0-1.7768571-.0025714-3.5537143 0-5.3305714-.3882857 0-.774-.0025714-1.1622857-.0051429-.1414286-.8408571.6197143-.6505714 1.1648572-.6634285-.0025715-.5965715-.0025715-1.1931429-.0025715-1.7897143.234.0025714.468.0051428.7045715.0077143v1.7974285c.5605714 0 1.1237142 0 1.6842857.0051429-.0051429-.7328571-.0051429-1.4631429-.0102857-2.1908571.1594285.0025714.4808571.0077142.6402857.0128571v2.1754286c.7714285-.0025715 1.5428571-.0025715 2.3142857-.0025715 0-.7251428 0-1.4502857 0-2.178zm-2.3142857 2.8285715v2.3142857h2.3142857c0-.7714286 0-1.5428572 0-2.3142857-.7714286.0025714-1.5428572.0025714-2.3142857 0z"/><path d="m102.857143 36.2941123h.771428v2.5714286h2.386286v.6377143c-.797143 0-1.591714 0-2.386286 0v4.1142857c.943715-.0025714 1.884858-.0025714 2.828572-.0025714v.6531428c-1.926 0-3.852-.0025714-5.778 0 0-.162 0-.4911428 0-.6531428.725143 0 1.450286 0 2.178.0025714 0-2.4428571 0-4.8831428 0-7.3234286z"/><path d="m113.824286 36.3969695c.164571-.0797143.496285-.2365714.663428-.3137143.172286.3497143.347143.6994286.524572 1.0491429 1.239428.0051428 2.478857.0077142 3.720857-.0051429 0 .1594286.005143.4782857.007714.6377143-2.833714.0102857-5.662286.0102857-8.493428.0051428-.002572-.1594285-.002572-.4757142-.005143-.6351428 1.321714.0025714 2.643428-.0025714 3.965143.0025714-.128572-.2468571-.257143-.4937143-.383143-.7405714z"/><path d="m160.74 36.2066838c.177429-.0257143.532286-.0797143.709714-.1054286-.138857.3008571-.275143.5991429-.414.8974286h2.440286v.5862857c-.637714.0025714-1.275429-.0488572-1.908.0334286.316286.27.624857.5502857.928286.8382857l-.491143.1131428c.306.1491429.614571.3677143.982286.3008572 1.362857.0102857 2.728285-.0437143 4.093714-.0025715-.038572 1.7228572.051428 3.4534286-.041143 5.1737143-.154286 1.0285715-1.388571.7662857-2.124.8074286-.030857-.18-.09-.5348571-.118286-.7148571.524572-.0308572 1.216286.3008571 1.602-.198.09-1.4965715.012857-3.0034286.038572-4.5025715-1.396286-.0025714-2.787429 0-4.181143-.0025714-.200572-.5271429-.588857-.9411429-.920572-1.3808571l-.167142.2494285c.064285-.2031428.187714-.6094285.252-.8125714-.979715-.108-1.293429.8871429-1.872 1.4322857-.169715-.1542857-.336858-.306-.504-.4602857.689142-.6531429 1.208571-1.4425714 1.694571-2.2525714z"/><path d="m164.502 36.2169695c.18-.0308572.537429-.0951429.714857-.126-.138857.3008571-.277714.6042857-.416571.9077143h2.718c.002571.1465714.002571.4371428.002571.5837143-1.023428 0-2.044286-.0102858-3.065143 0-.262285.3908571-.534857.774-.804857 1.1571428-.144-.0874286-.429428-.2648571-.573428-.3522857.560571-.666.954-1.4451429 1.424571-2.1702857z"/><path d="m173.180571 36.5615409c.172286-.1311428.344572-.2622857.522-.3934286.421715.4345715.871715.8614286 1.146858 1.4117143.565714 0 1.136571 0 1.707428-.0102857.308572-.468.619714-.936.933429-1.404.228857.1234286.460285.2468572.691714.3728572-.277714.3471428-.558.6917142-.833143 1.0388571.581143.0025714 1.164857 0 1.748572 0-.010286 1.4091429-.012858 2.8182857.002571 4.2274286-.118286.0102857-.357429.036-.478286.0488571-.074571-.1002857-.221143-.3034286-.293143-.4062857-.776571-.0334286-1.553142 0-2.329714-.0102857.002572.3188571.005143.6402857.007714.9617143h3.924c.002572.1594285.007715.4808571.010286.6402857-1.311428-.0102857-2.622857-.0077143-3.934286-.0025714-.002571.6248571-.002571 1.2497142.005143 1.8771428-.162-.0051428-.480857-.0102857-.640285-.0154286-.002572-.6222857 0-1.2445714 0-1.8668571-1.311429.0025714-2.620286 0-3.929143.0025714.002571-.1594285.002571-.4757143.005143-.6351428h3.924c-.002572-.3214286-.002572-.6402857-.002572-.9617143-.822857.0025714-1.648286.0025714-2.471143 0l.043715.3857143c-.164572 0-.491143-.0051429-.655715-.0077143 0-1.4117143-.002571-2.8234286 0-4.2351429h1.833429c-.313714-.342-.624857-.6814285-.938572-1.0182857zm-.262285 1.656c.002571.2442857.005143.7302857.005143.972.815142.0051429 1.630285.0025714 2.448.0025714 0-.2442857 0-.7302857 0-.9745714-.817715 0-1.638 0-2.453143 0zm3.085714 0c.002571.2442857.005143.7302857.005143.972.815143.0051429 1.630286.0025714 2.448.0025714 0-.2442857 0-.7302857 0-.9745714-.820286 0-1.638 0-2.453143 0zm-3.083143 1.6097143c-.005143.3214286-.005143.6428571-.005143.9642857.817715-.0051428 1.635429-.0051428 2.455715-.0025714-.002572-.3214286-.002572-.6428572 0-.9617143-.817715 0-1.635429 0-2.450572 0zm3.085714 0c-.002571.3214286-.005142.6428571-.007714.9642857.817714-.0051428 1.638-.0051428 2.458286-.0025714-.002572-.3214286-.002572-.6428572 0-.9617143-.817714 0-1.635429 0-2.450572 0z"/><path d="m98.6708571 36.8829695c.1774286-.1542857.3574286-.3085714.54-.4628572.4885715.486.9745719.9745715 1.4631429 1.4605715-.185143.1774285-.370286.3548571-.552857.5348571-.4680001-.5245714-.9565716-1.0311428-1.4502859-1.5325714z"/><path d="m125.105143 36.3532552c.177428.0051429.529714.0128571.707143.0154286-.002572 2.4171428 0 4.8317143 0 7.2462857.511714 0 1.026 0 1.540285.0025714.012858-2.4094286-.025714-4.8214286.015429-7.2282857.169714-.0154286.509143-.0437143.678857-.0565714.020572 2.4274285.005143 4.8548571.010286 7.2848571.941143-.0025714 1.884857-.0025714 2.828571-.0025714v.6531428c-2.851714-.0025714-5.703428 0-8.552571-.0025714 0-.162 0-.486 0-.648.925714-.0025714 1.854-.0051428 2.779714.0025714-.012857-2.4222857.002572-4.8445714-.007714-7.2668571z"/><path d="m.90771429 36.7415409h7.06371428c-.02828571 2.4017143.05657143 4.8111429-.036 7.2102857-.17742857 1.0825715-1.53514286.6891429-2.304.7714286-.03085714-.1748571-.09257143-.5194286-.12342857-.6917143.55542857.0051429 1.14171429.1362857 1.674-.0771428.13885714-.6582858.07714286-1.3345715.09257143-2.0005715-.85885714-.0025714-1.71771429 0-2.57657143 0 0 .8974286-.00257143 1.7948572.00257143 2.6922857-.16457143 0-.49371429 0-.65828572 0 .00514286-.8974285.00257143-1.7948571.00257143-2.6922857-.83571428 0-1.674 0-2.51228571-.0025714-.12342857 1.0671429-.46542857 2.0982857-1.06457143 2.9931429-.11828571-.1697143-.35228571-.5065715-.468-.6737143v-.3702857l.00514286.3651428c1.33714285-2.2757143.78171428-5.0168571.90257143-7.524zm.69942857.63c.00514285.5374286.00514285 1.0774286.00514285 1.6148572h2.43257143c0-.5374286 0-1.0774286.00514286-1.6148572-.81514286.0051429-1.62771429.0051429-2.44285714 0zm3.08571428 0c.00514286.5374286.00514286 1.0774286.00514286 1.6148572h2.56885714c0-.5374286 0-1.0748572 0-1.6097143-.85885714 0-1.71514285.0025714-2.574-.0051429zm-3.06771428 2.2628572c-.01028572.558-.03085715 1.116-.07457143 1.674.83314286-.0102858 1.66371428-.0077143 2.49428571-.0077143 0-.5528572 0-1.1082857 0-1.6611429-.80485714 0-1.61228571 0-2.41971428-.0051428zm3.07285714.0051428v1.6611429h2.56885714c0-.5528572 0-1.1082857 0-1.6611429-.85628571 0-1.71257143 0-2.56885714 0z"/><path d="m24.6857143 36.7415409h2.6511428c-.1234285 1.1597143-.1697142 2.3245714-.3008571 3.4817143.1362857.0565714.4062857.1697143.54.2237143-.0025714 1.1545714-.0128571 2.322-.1542857 3.4688571-.2057143.9745715-1.368.8228572-2.1162857.7894286-.0591429-.1697143-.1774286-.5091429-.2365715-.6788571.5374286-.0205715 1.1545715.216 1.6405715-.1054286.3625714-.9462857.1722857-2.0031429.2211428-2.9957143-.684 0-1.368 0-2.052-.0025714.1054286-1.0028572.2005715-2.0082857.2751429-3.0137143.1517143-.0025714.4551428-.0051429.6068571-.0077143-.0668571.8177143-.1388571 1.6354286-.2031428 2.4531429.2237143-.0102858.666-.0282858.8897143-.0385715.0617142-1.0002857.1568571-1.998.2134285-2.9982857-.6582857.0077143-1.3165714.0077143-1.9748571.0077143 0-.1465714 0-.4371429 0-.5837143z"/><path d="m74.3142857 36.6206838c2.2705714-.0025715 4.5411429.0077143 6.8091429-.0025715-.018 1.4477143.018 2.8954286-.0205715 4.3431429-.7457142-.4371429-1.5891428-.4988571-2.4351428-.4217143.9874286.7714286 2.142 1.2882857 3.3608571 1.5634286-.1131428.1722857-.342.522-.4551428.6942857-.6608572-.2494286-1.3037143-.5374286-1.9234286-.8742857-.0025714.972-.0051429 1.9465714 0 2.9185714-.1748571-.0025714-.5271429-.0051428-.7045714-.0077143-.0051429-1.0208571-.0025715-2.0417143-.0025715-3.0625714.108-.0051429.3214286-.0128571.4294286-.018-.5502857-.3985714-1.0671428-.8382857-1.566-1.296-.5425714.3471429-1.0414286.756-1.5711428 1.116.09.0591429.2725714.1722857.3651428.2314286-.1157143.5862857-.1311428 1.2137143-.414 1.7537143-.3857143.6222857-1.026 1.0157142-1.6482857 1.3654285-.1697143-.2057143-.342-.4114285-.5117143-.6145714.5014286-.2828571 1.044-.5322857 1.4271429-.9745714.3548571-.4294286.3522857-1.0234286.4577143-1.5428572-.6454286.3805715-1.3088572.7302857-1.9774286 1.0645715-.1774286-.2082858-.3522857-.414-.5271429-.6222858 1.1802857-.414 2.3142857-.9565714 3.3274286-1.6971428-.4834286-.0051429-.9642857-.0051429-1.4451429-.0051429-.3111428.1594286-.63.3008572-.9565714.4191429-.0411428-1.4425714-.0077143-2.8877143-.018-4.3302857zm.6325714.6351428v1.0285715h2.4531429c0-.3445715 0-.6865715 0-1.0285715-.8177143 0-1.6354286 0-2.4531429 0zm3.0857143 0v1.0285715h2.4531429c0-.3445715 0-.6865715 0-1.0285715-.8177143 0-1.6354286 0-2.4531429 0zm-3.0805714 1.6662857c0 .2417143-.0025714.7277143-.0051429.972h2.4531429c0-.2442857 0-.7302857 0-.9745714-.8151429 0-1.6328571-.0025714-2.448.0025714zm3.0857143 0c0 .2417143-.0025714.7277143-.0051429.972h2.4531429c0-.2442857 0-.7302857 0-.9745714-.8151429 0-1.6328572-.0025714-2.448.0025714z"/><path d="m147.078 36.7415409h8.349429c.005142.1594286.012857.4782857.018.6377143-1.285715-.0051429-2.568858-.0051429-3.852 0-.151715.4937143-.295715.99-.437143 1.4862857 1.254857-.0025714 2.512285.0025714 3.769714-.0051428-.030857 1.7434285.025714 3.4868571-.023143 5.2302857-.144.9565714-1.342286.6377143-2.016.6994285-.002571-.1285714-.010286-.3831428-.015428-.5117142-.208286.0154285-.624858.0488571-.833143.0668571-.002572-1.6148571 0-3.2271429 0-4.842-.537429 0-1.074857 0-1.609715 0v4.8085714c-.159428.0051429-.478285.0154286-.637714.018.007714-1.6071428.002572-3.2168571.002572-4.8265714-.522 0-1.041429 0-1.558286 0 0 1.7794286-.005143 3.5588571.002571 5.3408571-.177428-.0051428-.529714-.0128571-.707143-.0154285 0-1.9902857.002572-3.978-.002571-5.9657143.984857.0025714 1.969714.0025714 2.957143.0025714.100286-.4988571.210857-.9977143.329143-1.494-1.239429.0077143-2.478857-.0025714-3.715715.0102857-.005142-.162-.015428-.4808571-.020571-.6402857zm5.598 2.7617143c-.007714 1.5197143.018 3.0368571-.015429 4.5565714.504.0051429 1.010572.0128572 1.519715.0025715.221143-1.5068572.054-3.042.105428-4.5591429-.537428 0-1.074857 0-1.609714 0z"/><path d="m164.872286 38.0169695c.126-.1054286.380571-.3137143.506571-.4191429.27.3137143.542572.6325715.786857.972-.354857.0154286-.707143.0231429-1.059428.0205715l.277714-.18z"/><path d="m56.0211429 37.9655409c.162.09.4885714.2725714.6505714.3625714-.3111429.3497143-.6222857.6994286-.9334286 1.0491429.5991429.0025714 1.1982857.0025714 1.8 0 0 .162-.0025714.4834286-.0025714.6428571-1.9491429-.0051428-3.9008572 0-5.85-.0025714 0-.1568571 0-.4731428-.0025714-.63.5065714-.0205714 1.026.0437143 1.5248571-.09.3857143-.3651428-.3265714-.6788571-.4577143-1.0182857.594-.4474286.9205714.1542857 1.2188572.5888571-.0591429.0951429-.1748572.288-.234.3831429.1825714.3471429.9128571.0257143 1.2882857.1311429.3368571-.468.6711428-.9411429.9977143-1.4168572z"/><path d="m112.309714 38.0503981c.612-.486.946286.1954285 1.326857.5862857-.123428.0874285-.370285.2648571-.493714.3522857.671143-.0025714 1.342286-.0025714 2.016-.0051429.267429-.3805714.529714-.7611428.786857-1.1494285.162.1002857.483429.3008571.645429.4011428-.236572.252-.468.504-.702.756.712286-.0051428 1.424571-.0051428 2.139428-.0051428-.028285 1.7254285.056572 3.4534285-.041142 5.1762857-.303429.8717143-1.365429.594-2.075143.6017143-.061715-.18-.187715-.5425715-.249429-.7225715.519429-.0385714 1.108286.1722857 1.599429-.0925714.306-.9205714.028285-1.9517143.146571-2.9108571-.149143.1414285-.444857.4217142-.594.5605714-.198-.1568572-.390857-.3137143-.586286-.468-.002571.8048571 0 1.6097143 0 2.4171428-.928285-.0025714-1.859142.0051429-2.787428-.0128571-.020572.1234286-.066857.3702857-.087429.4937143-.149143-.0077143-.442285-.0205714-.588857-.0282857 0-.9514286 0-1.9002857 0-2.8517143-.267428.2082857-.532286.4165714-.797143.6248571l-.172285-.45c-.519429 1.116-.159429 2.394-.259715 3.582-.159428 0-.480857 0-.642857.0025715.005143-1.9748572 0-3.9497143.002572-5.9245715.699428.0025715 1.401428.0025715 2.103428.0051429-.231428-.3111429-.462857-.6248572-.689143-.9385714zm-.771428 1.5865714c-.002572.5528571-.010286 1.1031428-.025715 1.656.712286-.468 1.334572-1.0568572 1.987715-1.602.092571.1285714.277714.3831428.367714.5117143-.357429.2982857-.714857.5991428-1.067143.9025714 1.139143.0128571 2.278286.0051429 3.417429.0077143-.447429-.3265714-.889715-.6531429-1.321715-.9951429.280286-.6582857.702-.2057143 1.023429-.0334285.416571.27.807429.576 1.17.918.331714-.3805715.324-.8794286.344571-1.3551429-1.964571-.0077143-3.931714-.0077143-5.896285-.0102857zm1.861714 2.0597143c-.002571.4268571 0 .8537143 0 1.2831428h2.190857c.002572-.4294285.005143-.8588571.010286-1.2857143-.735429.0025715-1.468286.0025715-2.201143.0025715z"/><path d="m122.675143 38.3486838c.164571-.0617143.493714-.18.658286-.2391429.426857 1.1777143.974571 2.3168572 1.306285 3.5305714-.154285.1105715-.462857.3291429-.619714.4397143-.424286-1.2522857-.858857-2.502-1.344857-3.7311428z"/><path d="m129.828857 38.1481123c.174857.0745715.524572.2211429.699429.2957143-.478286 1.2085715-.930857 2.4325715-1.535143 3.5845715-.159429-.0411429-.473143-.126-.632572-.1671429.524572-1.224 1.054286-2.448 1.468286-3.7131429z"/><path d="m160.578 38.4001123c.349714.3008572.694286.6068572 1.028571.9282858-.154285.1671428-.306.3342857-.455142.504-.303429-.3497143-.619715-.6865715-.941143-1.0157143.09-.1054286.275143-.3111429.367714-.4165715z"/><path d="m36.7045714 39.3129695h1.6791429c0 1.296-.0025714 2.592 0 3.888.3368571.2468571.6582857.5554286 1.08.648 1.9517143.3471428 3.9342857.0154286 5.8988571.1234286-.2417143.2648571-.3934285.7431428-.8408571.6582857-1.6277143.0282857-3.258.054-4.8831429-.0771429-.684-.0488571-1.206-.5271428-1.7022857-.9514286-.3034286.3805715-.6197143.7534286-.9308571 1.1314286-.0977143-.1877143-.288-.5657143-.3831429-.7534286.3574286-.3548571.8305714-.6248571 1.0877143-1.062.0565714-.9925714.0051429-1.9851428.0231429-2.9777142-.3445715.0025714-.6891429.0077142-1.0311429.0102857 0-.1594286 0-.4782857.0025714-.6377143z"/><path d="m97.8402857 39.1895409c.6428572.0025714 1.2857143.0025714 1.9311429.0051429 0 1.278-.0025715 2.5585714 0 3.8365714.4782854-.3548571.9514284-.7174286 1.4297144-1.0722857.038571.1928571.115714.576.154286.7688571-.727715.5065715-1.4580004 1.0157143-2.0751433 1.6585715-.126-.1208572-.378-.3625715-.504-.4808572.5631429-1.2805714.18-2.7257143.2905714-4.0782857-.4037142 0-.8074285 0-1.2111428 0-.0025714-.1594286-.0102857-.4782857-.0154286-.6377143z"/><path d="m28.5222857 39.5006838c1.206.0025714 2.4145714-.0025715 3.6205714.0025714v.6505714c-.72.0025715-1.4425714.0025715-2.1625714-.0257143.1002857.18.2982857.5451429.396.7251429.0925714.6402857.2828572 1.2574286.4268572 1.8874286-.1542858.0385714-.4654286.1157143-.6222858.1568571-.1774285-.7688571-.3677142-1.5351428-.576-2.2937143l.4782858-.0051428c-.1722858-.1542857-.3445715-.3085715-.5168572-.4628572-.3368571.0102857-.6737143.018-1.0105714.0257143-.0102857-.1645714-.0257143-.4962857-.0334286-.6608571z"/><path d="m159.685714 39.7603981c.159429-.0025715.475715-.0025715.635143-.0051429 0 1.6971429-.005143 3.3917143.002572 5.0888571-.159429-.0051428-.478286-.0128571-.637715-.0154285 0-1.6894286 0-3.3788572 0-5.0682857z"/><path d="m53.4111429 41.0461123c.2725714-.4808571.5091428-1.1108571 1.1777142-.702-.1388571.2365715-.2802857.4705715-.4217142.7071429 1.1005714-.0128571 2.1985714-.0051429 3.2965714-.0077143 0 .1645714-.0025714.4937143-.0025714.6582857-.3574286-.0051428-.7148572-.0128571-1.0722858-.018-.2905714.5837143-.6248571 1.1468572-1.0131428 1.674.6968571.2674286 1.4091428.5194286 2.07.8742857-.0822857.1542858-.252.4654286-.3342857.6222858-.756-.3882858-1.5222857-.7482858-2.2911429-1.1057143-.954.5888571-2.0288571.9514285-3.1268571 1.1571428-.0771429-.1542857-.2314286-.4654285-.3085715-.6197143.9462858-.1722857 1.8822858-.4165714 2.754-.8331428-.5785714-.2828572-1.1725714-.5297143-1.7614285-.7868572.2288571-.324.4602857-.6454285.6891428-.9694285-.4834285-.0025715-.9642857-.0025715-1.4451428-.0025715-.0025715-.162-.0051429-.486-.0051429-.6505714.5965714 0 1.1957143 0 1.7948572.0025714zm.3805714.6454286c-.1774286.2545714-.3522857.5117143-.5271429.7688572.4885715.1954285.9771429.3985714 1.4657143.6042857.3651429-.4191429.6968572-.8665715.9668572-1.3525715-.6351429-.018-1.2702858-.018-1.9054286-.0205714z"/><path d="m161.552571 43.8849695c-.002571-1.224.002572-2.448-.002571-3.6694286 1.218857.0102857 2.440286.0077143 3.659143.0025714-.007714 1.0928572-.005143 2.1857143-.002572 3.2785715-1.036285-.0025715-2.072571 0-3.108857-.0025715l.051429.3754286c-.149143.0025714-.447429.0102857-.596572.0154286zm.570858-3.1628572c-.005143.3008572-.005143.6017143-.002572.9051429h2.453143c-.005143-.3034286-.005143-.6068571-.005143-.9102857-.817714.0025714-1.632857 0-2.445428.0051428zm-.002572 1.4194286v.8382857h2.450572c0-.2108571 0-.63 0-.8382857-.817715 0-1.635429 0-2.450572 0z"/><path d="m31.9191429 40.5883981c.1594285.0565714.4757142.1697142.6351428.2288571-.3368571 1.008-.6865714 2.0134286-1.0748571 3.006.5014285-.0025714 1.0028571-.0025714 1.5042857-.0025714 0 .1594285 0 .4757143-.0025714.6351428-1.7742858 0-3.5485715 0-5.3228572 0-.0051428-.1594285-.0154286-.4782857-.018-.6377143 1.0491429.0051429 2.0982857.0051429 3.15 0 .4371429-1.0542857.8022857-2.1368571 1.1288572-3.2297142z"/><path d="m28.1211429 41.0306838c.1568571-.0385715.4654285-.1182857.6222857-.1594286.2237143.7122857.4628571 1.4194286.6994285 2.1265714-.1645714.0565715-.4937142.1697143-.6582857.2262857-.2082857-.7354285-.4191428-1.4708571-.6634285-2.1934285z"/><path d="m138.474 41.8278266c.066857-.4911428.349714-.7354285.851143-.738-.023143.1825715-.069429.5502857-.092572.7354286 1.285715-.0205714 2.571429-.0051429 3.859715-.0102857v.6531428c-1.211143.0025715-2.419715-.0154285-3.628286.0154286.918 1.1185714 2.365714 1.5222857 3.749143 1.6662857-.123429.1774286-.370286.5348572-.493714.7122857-1.437429-.3137142-2.923715-.8948571-3.759429-2.178-.81 1.3834286-2.394 1.9517143-3.882857 2.2422858-.151714-.2108572-.300857-.4217143-.45-.63 1.378286-.2185715 2.864571-.6017143 3.720857-1.8077143-1.180286-.0411429-2.360571-.018-3.538286-.018 0-.1645715 0-.4937143 0-.6582857 1.221429.0102857 2.442857-.0077143 3.664286.0154285z"/><path d="m24.4877143 42.2726838c.7328571-.1594286 1.4631428-.3471429 2.1908571-.5425715 0 .162 0 .486.0025715.6454286-.6942858.1774286-1.386.3497143-2.0777143.5348572-.0282857-.1594286-.0874286-.4782858-.1157143-.6377143z"/></g></g></svg>