<svg height="90" viewBox="0 0 180 90" width="180" xmlns="http://www.w3.org/2000/svg"><g fill="none" fill-rule="evenodd"><g fill="#5886b2" transform="translate(.320142 9.160071)"><path d="m27.5082259.14606492c5.4164073-.50622499 10.9608715.50822588 15.8550467 2.87727879 5.7045353 2.76122721 10.5867052 7.35126719 13.4059582 13.05380169 2.8872832 5.638506 3.8437083 12.1934193 2.9052912 18.4421965-.6522899 4.4319698-2.2790129 8.7058693-4.6780791 12.4835483-.5542464.7983548-1.356603 1.4506447-2.3010227 1.7187639-1.5106714.4582036-3.2454424-.1020454-4.2438862-1.3145843-1.1144953-1.3285905-1.228546-3.3855047-.2621165-4.8261449 3.1734104-4.9842153 4.3459315-11.1789685 3.2634504-16.9835483-.7743441-4.1938639-2.7472209-8.2076478-5.8265896-11.186972-3.5715873-3.5255669-8.3977323-5.75855934-13.3979546-6.18875053-4.9662072-.45820365-10.0804802.80435749-14.2163184 3.59959983-5.1122721 3.343486-8.65584701 8.9439751-9.56625163 14.9766563-.56224989 3.9957759-.14206314 8.1716318 1.4746554 11.8892841 1.10649173 2.6831925 2.77923523 5.1202757 4.82814583 7.1731881 5.6705202 5.6665184 11.3450423 11.3330369 17.0195643 16.9975545.8503779.8403735 1.8128057 1.7007559 2.0909293 2.9192974.524233 1.9288573-.6422855 4.1118275-2.5111161 4.7921299-1.4666518.4942196-3.2374388.1960871-4.3099155-.9704313-6.0046687-5.9986661-12.0073366-12.0033349-18.01000445-18.0080036-3.16340596-3.1013784-5.60449088-6.9290796-7.11716318-11.0909293-2.1289462-5.8205869-2.39506448-12.3014673-.76233882-18.2781236 1.54068475-5.7565585 4.86816363-11.0128946 9.38417075-14.89662073 4.7140951-4.09982214 10.7547799-6.64095153 16.9755447-7.17919075z"/><path d="m28.3125834 16.3812806c2.9253001-.4101823 5.9926634.1280569 8.5758114 1.5746998 3.3234771 1.7627835 5.8045799 4.9802135 6.7810138 8.5998222.6582926 2.5271231.6382837 5.2463317-.1820809 7.735438-.4602045 1.4206313-1.788795 2.5231213-3.271454 2.7052023-1.6687416.2501111-3.4595376-.6662962-4.1758559-2.2069809-.4842152-.9304135-.5302357-2.0228991-.2581147-3.0253446.3261449-1.2305469.3261449-2.5631392-.1920854-3.741663-.8203646-2.1629613-3.0453535-3.7096487-5.368386-3.6596265-2.4410849-.0520231-4.7741218 1.6467319-5.4984437 3.9737661-.6943086 2.0489107-.1120498 4.4299689 1.4206314 5.9506448 5.5644731 5.5724766 11.1429524 11.1309471 16.7114273 16.6994219.9284126.9664296 2.0949311 1.8488217 2.4550911 3.2054247.5042241 1.6927523-.288128 3.6216096-1.7747888 4.5440195-1.5506892.9544242-3.75767.7223211-5.0202312-.6122721-5.7045353-5.6985327-11.403068-11.4050689-17.1076033-17.1056025-.5982659-.5982659-1.2045354-1.1885282-1.75478-1.8328146-2.3350377-2.7252112-3.5675855-6.3748332-3.2974655-9.9604268.1860827-3.2674522 1.626723-6.4308582 3.903735-8.7718986 2.1269453-2.2129836 5.006225-3.6836372 8.0535794-4.0718097z"/></g><g fill="#444" transform="translate(71.151623 13.762116)"><path d="m15.5128946.14406403c1.3025789-.46220543 2.8992886.4481992 3.0693642 1.84081814.2261005 1.2885727-.850378 2.5951534-2.1549578 2.63517119-1.2685638.13405958-2.4991107-.94842152-2.5051134-2.22698978-.0440195-.99644286.6462873-1.94886616 1.590707-2.24899955z"/><path d="m2.27701201 7.07314362c2.855269-2.59315251 7.6554024-2.2029791 10.37461089.40818141-.6843041 1.03045798-1.3806136 2.05091152-2.0649177 3.08136947-1.05446865-1.58870606-3.36949755-2.09493105-5.02423299-1.20053354-1.97487772 1.10649174-2.22698977 4.31391734-.39817697 5.67452204 1.65873722 1.246554 4.23188084.758337 5.42040906-.9184082.7023122.9424188 1.4126278 1.8808359 2.1169409 2.8232548-1.3085816 1.4066251-3.15740331 2.3510449-5.10026681 2.3710538-2.05291241.1580702-4.23588261-.4902179-5.66051578-2.0249-2.7092041-2.7092041-2.55513562-7.6894175.3361494-10.21453978z"/><path d="m14.3883948 5.61449533c1.2585594-.00200089 2.5171188 0 3.777679-.00200089-.0040018 4.48199196-.0020009 8.96398396 0 13.44797686-1.2605602-.0140062-2.5191196-.0040018-3.777679-.0080035 0-4.4799911 0-8.9579814 0-13.43797247z"/><path d="m19.7447755 5.60449088c3.6536238-.00600266 7.3072476 0 10.9608715-.00200088v3.32547799c-1.1925301.00200089-2.3850601 0-3.5775901.00200089-.0020009 3.37550022.0020009 6.75300132-.0020009 10.12850152-1.2625611 0-2.5231214.0020009-3.7856825 0-.0020009-3.3775011.0020009-6.7530013-.0020009-10.12850152-1.1985327-.00200089-2.3950645 0-3.5935971-.00200089 0-1.10849267.0020008-2.21498444 0-3.32347711z"/><path d="m32.3163628 5.60249c1.9048466.03001333 3.8156959-.07203202 5.7165407.07803468 1.2625612.14406403 2.657181.35215651 3.5795909 1.31258337 1.0604714 1.156514 1.1965318 2.91529568.7903513 4.37194305-.3441529 1.2445532-1.4706536 2.0829258-2.6731881 2.4070698 1.2305469 1.7607826 2.4630947 3.5215652 3.6896399 5.2863495-1.4906626 0-2.9813251 0-4.4699867 0-.9524233-1.5726989-1.8928413-3.1514006-2.8452646-4.7240996-.0020008 1.5746999 0 3.1493998-.0020008 4.7240996-1.2625612 0-2.5231214 0-3.7856826 0-.0020009-4.4859937 0-8.9699866 0-13.4559804zm3.7876834 3.06936416c0 1.07447754-.0020008 2.14895504.0020009 3.22143174.6783015-.0420187 1.4226323.0240107 2.0289018-.3421521.7003112-.4722098.6722988-1.5226767.3281458-2.20497995-.5042241-.77834594-1.5586927-.64428635-2.3590485-.67429969z" fill-rule="nonzero"/><path d="m44.8319253 5.61249444c1.2585594.00200089 2.5191196.00200089 3.7796799 0-.0060027 4.47999106-.0020009 8.96198306-.0040018 13.44197426-1.2585594-.0020009-2.5151179-.0020009-3.7736772 0-.0020009-4.4799912.0020009-8.9619832-.0020009-13.44197426z"/><path d="m49.8241441 5.60249h4.3679413c.7863495 1.17252112 1.5606936 2.3510449 2.3450422 3.52556691.7823477-1.17452201 1.5586928-2.3510449 2.3390396-3.52556691h4.3719431c-1.4626501 2.11694086-2.9232993 4.23388172-4.3839485 6.3528235 1.6127168 2.367052 3.235438 4.7321031 4.8461539 7.1031569-1.4526456.0020009-2.9032904 0-4.355936 0-.9464206-1.4126278-1.8768341-2.837261-2.8212539-4.2518897-.9404179 1.4186305-1.8768341 2.8412628-2.8252556 4.2558915-1.4506448-.0080035-2.8992886-.0020009-4.3499333-.0040018 1.6147176-2.3630502 3.2174299-4.734104 4.8481547-7.083148-1.4426412-2.13694979-2.9253001-4.2458871-4.3819475-6.3728324z"/><path d="m64.7067586 5.72654513c1.0924855-.53823922 2.5431302.46020454 2.3570475 1.68674967-.108048 1.20453535-1.6667407 1.87083148-2.619164 1.138506-1.0424634-.64028457-.868386-2.37705647.2621165-2.82525567zm-.0080036.3361494c-.8223655.42018675-.904402 1.69075145-.1520676 2.22498888.8303691.7103157 2.3250334.04802135 2.2489996-1.07847932.036016-1.03846154-1.2425523-1.71876389-2.096932-1.14650956z" fill-rule="nonzero"/><path d="m64.7387728 6.29879947c.4121832.03801689.8743886-.09004002 1.2585593.10404624.3601601.28412628.146065.75833704-.1280569 1.01445087.1360605.27012005.2881281.5402401.3301468.84637616-.452201-.25211205-.5742553-.9324144-1.1585149-.9324144-.0040018.19808804-.0100045.59426411-.0120054.79235215l-.288128.01400623c-.0040018-.61427301-.0040018-1.22654513-.0020009-1.83881725zm.2961316.22610049c0 .15206758.0020009.45420186.0020009.60626945.2781236-.02601156.5582481-.04802134.8363717-.10004447.1900845-.59026233-.4802134-.43019119-.8383726-.50622498z" fill-rule="nonzero"/><path d="m46.0964873 20.096932c1.302579-.4001779 2.8112495.5442419 2.9593153 1.9108492.234104 1.3886172-1.048466 2.7332148-2.4410849 2.6011561-1.3145843-.0120053-2.4310805-1.3205869-2.1949756-2.6251667.1140507-.8903958.8183637-1.6507337 1.6767452-1.8868386z"/><path d="m66.1293908 25.7874611c1.6007115-.0020009 3.199422 0 4.8001334 0 .0020009 11.8212539.0020009 23.6425078 0 35.4637617-1.2505558.0020009-2.4991107-.0020009-3.7496665.0020009-.2641174-.7183193-.5222321-1.4386394-.776345-2.1569587-1.7827924 1.3886172-3.9197421 2.349044-6.1847488 2.5531347-2.8312583.2841263-5.982659-.2821254-8.0455758-2.38506-1.9628724-2.0309026-2.6811917-4.9041796-2.9653179-7.6353935-.3321477-3.7856825-.0940418-7.8134727 1.8188083-11.1889729 1.3846154-2.547132 3.9077368-4.4919964 6.7830147-5.0002223 2.8352601-.4842152 5.818586.0580258 8.3196976 1.4706536-.0020008-3.7076478 0-7.4152957 0-11.1229435zm-8.9379724 14.6084927c-1.9728768 1.5206758-2.747221 4.083815-3.0153401 6.4628723-.1900845 2.4430859-.1680747 4.9862161.7003112 7.3092486.5502446 1.5086705 1.7327701 2.855269 3.3214762 3.2814584 2.7732326.7763451 5.7045354-.342152 7.933526-1.9928857-.0060026-4.8561583 0-9.7123166-.0040017-14.5684749-1.6907515-.9144064-3.5555803-1.6287239-5.5024456-1.6407292-1.2425522-.0700311-2.4550911.4061805-3.433526 1.1485105z" fill-rule="nonzero"/><path d="m77.9126278 25.9035127c1.6607381-.4261894 3.433526 1.0104491 3.3915074 2.7172076.0880391 1.4006225-1.0644731 2.7272121-2.4650956 2.819253-1.536683.236105-3.0993775-1.0524677-3.1433971-2.6051578-.108048-1.3445976.9124055-2.6411739 2.2169853-2.9313028z"/><g fill-rule="nonzero"><path d="m.07203201 28.4605163c3.03935083.0041347 6.07670076.0021338 9.11605158.0021338 2.69119611-.0220098 5.52045351.1040462 7.92952421 1.4406403 2.3510449 1.1885282 3.7316585 3.7356602 4.0377946 6.2867941.3221432 2.8792797-.0240107 6.0066696-1.7647843 8.4117385-1.7467764 2.4070698-4.6980881 3.6736328-7.6053802 3.8937306-2.2069809.1480658-4.42396622.0460204-6.63494888.0740329.00400178 4.227879 0 8.457759.00200089 12.685638-1.69275234-.0040017-3.38550467-.0080035-5.07625612.0020009-.00400178-10.9308581.00400178-21.8637172-.00400178-32.7967091zm5.0802579 4.2540235v11.6051578c1.61871943-.0020008 3.23743886.0060027 4.85615829-.0020008 1.4206314-.0120054 2.891285-.362161 4.0197866-1.2605603 1.426634-1.0724767 2.1229435-2.8872832 2.1429524-4.6340596.0820365-1.5366829-.2761227-3.2394397-1.4806581-4.2959093-1.0764784-1.0444642-2.6311694-1.3766118-4.083815-1.4066251-1.81880836-.0160072-3.63561583-.0020009-5.45442419-.0060027z"/><path d="m32.7005336 35.3597154c2.6751889-.2441085 5.5224544-.072032 7.9195198 1.2505558 2.2349933 1.1585149 3.939751 3.2194309 4.8121387 5.5644731 1.0584704 2.7492219 1.1845264 5.7565585.9384171 8.6638506-.2861272 2.9473099-1.3706092 5.9226323-3.5455759 8.0055581-2.1049355 2.0609159-5.1222765 2.9353045-8.0175633 2.8992885-2.8092486.054024-5.7425523-.7323254-7.8514896-2.6591818-2.1729657-1.952868-3.3734993-4.7921299-3.7296576-7.6534015-.3941752-3.0653624-.2421076-6.2627835.8303691-9.1840819.776345-2.0168964 2.0809248-3.8677189 3.8717207-5.1062694 1.4386394-.9264117 3.073366-1.5566919 4.772121-1.7807915zm.1920853 4.1978657c-1.5746998.3521566-2.8612716 1.5266786-3.5975989 2.9333037-1.0564695 2.0629169-1.2325478 4.445976-1.1785238 6.7269898.09004 2.1309471.4902179 4.3699422 1.788795 6.1207203 1.9948867 2.8132504 6.5168964 3.0793686 9.0080036.8003557 1.5887061-1.5306803 2.240996-3.7616718 2.4190751-5.9046242.1140507-2.132948.1140507-4.3259227-.5562472-6.3788351-.4562027-1.3746109-1.2365496-2.7132058-2.4730991-3.5195642-1.5606937-1.0824811-3.6076034-1.2005336-5.4104047-.778346z"/><path d="m94.7501112 35.3457092c2.6651845-.2220987 5.5004448-.0380169 7.8795018 1.3025789 2.279013 1.2025345 3.991774 3.3494887 4.832148 5.7705647.978435 2.6871943 1.094486 5.60249.846376 8.4277457-.296132 3.1534015-1.546687 6.3568252-4.023788 8.4297465-2.148955 1.8348155-5.0562476 2.5391285-7.8334819 2.4650956-2.9253002.0120054-5.9686528-.9484215-8.0195643-3.107381-2.1409515-2.1769676-3.1574033-5.2243219-3.3775011-8.2216541-.3101378-3.7996887.18008-7.9195198 2.529124-11.0529124 1.662739-2.3030236 4.3879502-3.6576256 7.1671855-4.0137839zm.722321 4.083815c-2.0249.2200979-3.7116496 1.7127613-4.4739884 3.5555803-.9344153 2.2189862-1.0504669 4.698088-.8843931 7.0731436.18008 2.2349933.8223655 4.6020454 2.5311249 6.162739 1.7187639 1.5506892 4.3119164 1.7607826 6.4388617 1.0284571 1.7087597-.6482881 2.9192977-2.1889729 3.5255667-3.8717208.792352-2.2189862.822366-4.6300578.632281-6.9530902-.218097-2.0849267-.868386-4.2919075-2.49911-5.7125389-1.4266345-1.2525567-3.44153-1.572699-5.2703428-1.2825701z"/></g><path d="m76.1078257 61.2572254c.0020009-8.5137839-.0020009-17.0275678.0020009-25.5413517 1.6007114 0 3.199422 0 4.8001334.0020009.0020009 8.511783 0 17.023566 0 25.5353491-1.6007114 0-3.2014229-.0080036-4.8021343.0040017z"/></g></g></svg>