<svg height="90" viewBox="0 0 180 90" width="180" xmlns="http://www.w3.org/2000/svg" xmlns:xlink="http://www.w3.org/1999/xlink"><mask id="a" fill="#fff"><path d="m0 25.9h137.755102v-25.9h-137.755102z" fill="#fff" fill-rule="evenodd"/></mask><g fill="none"><path d="m.54489796 1.0915c5.04489796-1.4615 10.68367344-.56733333 15.01836734 2.41733333 3.5938776 2.3865 6.1163265 6.1605 7.3346939 10.29216667-1.4510204-.148-3.1897959.0555-4.2367347-1.2025-2.2163265-2.3001667-3.6857143-5.22316667-6.0244898-7.4185-3.11632654-3.145-7.68367348-4.92716667-12.09183674-4.0885z" fill="#f5f5f5" transform="translate(12.857143 27)"/><path d="m.42857143 3.7185c1.85510204-1.4615 3.96734694-2.59616667 6.23877551-3.24366667 4.40816326-.83866666 8.97551016.9435 12.09183676 4.0885 2.3387755 2.19533334 3.8081632 5.11833334 6.0244898 7.41849997 1.0469387 1.258 2.7857143 1.0545 4.2367347 1.2025.2571428 1.3443334.4591836 2.6948334.6183673 4.0515-1.8183673 1.1716667-4.0836735 2.2261667-6.177551 1.0236667-5.6142857-2.8613333-7.1938776-9.94066667-12.5571429-13.172-2.99999997-2.38033333-6.96122446-1.93016667-10.47551017-1.369z" fill="#c6e2ff" transform="translate(6.734694 27.616667)"/><path d="m7.16326531.63516667c3.51428569-.56116667 7.47551019-1.01133334 10.47551019 1.369 5.3632653 3.23133333 6.9428572 10.31066663 12.5571429 13.17200003 2.0938775 1.2025 4.3591836.148 6.177551-1.0236667-.0857143 1.2395-.1102041 2.4851667-.3183674 3.7123333-.9795918 2.0411667-2.5408163 4.0206667-4.8734693 4.477-4.3836735 1.0545-8.4979592-1.9055-11.1061225-5.1923333-2.9755102-4.1316667-6.0306122-9.33016667-11.54081632-10.0825-3.84489796-.54883333-6.80204082 2.6455-8.07551021 5.957.55714286-4.78533333 2.91428572-9.41033333 6.70408164-12.38883333z" fill="#97c2ff" transform="translate(0 30.7)"/><path d="m.45918367 6.24066667c1.27346939-3.3115 4.23061225-6.50583334 8.07551021-5.957 5.51020412.75233333 8.56530612 5.95083333 11.54081632 10.08250003-2.3020408 1.3505-4.5795918 2.7318333-6.844898 4.1255-1.8795918-2.4111667-4.35306118-5.28483337-7.73265302-4.8346667-2.24693877.28983333-3.11632653 2.627-4.16938775 4.3105-.63673469-2.5098333-1.15102041-5.13066667-.86938776-7.72683333z" fill="#4e8df5" transform="translate(0 37.483333)"/><path d="m.10408163 4.7175c1.05306123-1.6835 1.92244898-4.02066667 4.16938776-4.3105 3.37959183-.45016667 5.85306121 2.4235 7.73265301 4.83466667 2.7551021 3.61366666 6.5632654 6.96833333 11.2714286 7.32600003 2.9693878.296 5.6081633-1.332 8.0571429-2.77500003-4.6897959 6.38250003-13.7938776 8.81216663-21.0306123 5.66716663-4.73877548-1.9116666-8.36938772-5.99399997-10.19999997-10.7423333z" fill="#2c64dc" transform="translate(1.22449 46.733333)"/><path d="m.37346939 4.625c2.26530612-1.39366667 4.54285714-2.775 6.84489796-4.1255 2.60816326 3.28683333 6.72244895 6.24683333 11.10612245 5.19233333 2.3326531-.45633333 3.8938775-2.43583333 4.8734694-4.477-.5020408 2.87983334-1.6530612 5.68566667-3.4959184 7.96116667-2.4489796 1.443-5.0877551 3.071-8.0571428 2.775-4.70816331-.3576667-8.51632657-3.71233333-11.27142861-7.326z" fill="#4687f4" transform="translate(12.857143 47.35)"/><g fill="#333" transform="translate(42.244898 33.55)"><path d="m86.787551 4.111625v5.658225h7.2110204v2.14415h-7.2110204v5.658225h7.9953061v2.193175h-10.2517347v-17.847875h10.2517347v2.1941zm18.001837 10.394225s-.956939-.79735-2.869898-.79735c-2.3785716 0-3.3107145 1.295925-3.3107145 2.41795 0 1.295925 1.3242857 1.94435 2.5016325 1.94435 1.790816 0 3.67898-1.57065 3.67898-3.56495zm-8.5353064 1.57065c0-2.766675 2.4520408-4.2624 5.2732654-4.2624 1.618163 0 2.79551.4736 3.262041.7474v-.348725c0-1.84445-1.447347-2.966475-3.139898-2.966475-1.250817 0-2.452041.62345-2.8689798 1.769525l-2.0608163-.89725c.4169388-1.122025 1.8642857-2.966475 4.8811221-2.966475 2.943368 0 5.346735 1.7945 5.346735 5.2355v7.3778h-2.158163v-1.6946h-.098266c-.662142 1.022125-1.889081 2.0942-3.948979 2.0942-2.452041 0-4.4880614-1.545675-4.4880614-4.0885zm23.6424494-.024975v-6.40655h-2.10949v-2.093275h2.10949v-3.7407h2.256428v3.739775h2.943368v2.093275h-2.943368v6.231725c0 1.371775.563878 1.9943 1.619082 1.9943.416939 0 .710816-.04995 1.02949-.198875l.785204 1.969325c-.514286.22385-1.055204.32375-1.814694.32375-2.526429 0-3.87551-1.4208-3.87551-3.91275zm-8.485715-6.50645h.098266c.539081-1.47075 2.158163-2.293075 3.801122-2.293075.465612 0 .587755.024975.809082.04995v2.243125c-.465613-.049025-.465613-.049025-.907347-.049025-2.10949 0-3.702857 1.3209-3.702857 3.589v6.68035h-2.257347v-12.2137h2.158163v1.993375zm17.85398-1.993375-.098265 1.6946h.098265c.637347-1.122025 2.158163-2.0942 3.802041-2.0942 3.064592 0 4.585408 2.119175 4.585408 5.1356v7.4777h-2.256429v-7.128975c0-2.542825-1.250816-3.390125-2.967245-3.390125-1.962551 0-3.163775 1.8944-3.163775 3.76475v6.75435h-2.256429v-17.847875h2.256429v5.63325zm-129.264796 2.6233c0-5.608275 4.58632653-10.175 10.0414286-10.175 3.0168367 0 5.1648979 1.216375 6.7821428 2.8046l-1.9065306 1.961c-1.1589796-1.1174-2.727551-1.985975-4.8765306-1.985975-3.98204081 0-7.09530612 3.3004-7.09530612 7.395375s3.11326531 7.395375 7.09622452 7.395375c2.582449 0 4.0545918-1.066525 4.9959183-2.035.772347-.79365 1.2792858-1.9351 1.4730613-3.499275h-6.4689796v-2.779625h9.0991836c.1026116.57346176.1511949 1.1554066.1451021 1.738075 0 2.084025-.5546939 4.664775-2.3418367 6.501825-1.7375511 1.8611-3.9581633 2.853625-6.902449 2.853625-5.45510207 0-10.0414286-4.5658-10.0414286-10.175zm27.5510204 7.62385c-1.9405102 0-3.6146939-1.61875-3.6146939-3.92385 0-2.331 1.6741837-3.924775 3.6146939-3.924775s3.6146939 1.5947 3.6146939 3.924775c0 2.3051-1.6741837 3.92385-3.6146939 3.92385zm0-10.39885c-3.5421428 0-6.4285714 2.722275-6.4285714 6.475 0 3.72775 2.8864286 6.475 6.4285714 6.475 3.5421429 0 6.4285714-2.74725 6.4285714-6.475 0-3.752725-2.8864285-6.475-6.4285714-6.475zm13.7755102 10.39885c-1.9405102 0-3.6146939-1.61875-3.6146939-3.92385 0-2.331 1.6741837-3.924775 3.6146939-3.924775s3.6146939 1.5947 3.6146939 3.924775c0 2.3051-1.6741837 3.92385-3.6146939 3.92385zm0-10.39885c-3.5421428 0-6.4285714 2.722275-6.4285714 6.475 0 3.72775 2.8864286 6.475 6.4285714 6.475 3.5412245 0 6.4285714-2.74725 6.4285714-6.475 0-3.752725-2.8873469-6.475-6.4285714-6.475zm14.029898 10.253625c-2.0332653 0-3.735-1.6206-3.735-3.845225 0-2.248675 1.7017347-3.89425 3.735-3.89425 2.0066326 0 3.582551 1.645575 3.582551 3.89425 0 2.224625-1.5759184 3.845225-3.582551 3.845225zm3.3795918-9.866975v1.0397h-.1019388c-.6612245-.74925-1.9313265-1.42635-3.5320408-1.42635-3.3538775 0-6.4285714 2.805525-6.4285714 6.4084 0 3.57975 3.0746939 6.3603 6.4285714 6.3603 1.6007143 0 2.8717347-.6771 3.5320408-1.451325h.1010204v.91945c0 2.442-1.3720408 3.7481-3.5816326 3.7481-1.8045918 0-2.9222449-1.233025-3.3795918-2.272725l-2.5668368 1.01565c.7365306 1.69275 2.6935714 3.77215 5.9455102 3.77215 3.4558163 0 6.3780612-1.934175 6.3780612-6.65075v-11.461675h-2.7955102z"/><path d="m62.9081633 19.425h2.755102v-18.5h-2.755102zm10.3343877-9.522875c1.1286735 0 2.0846939.56425 2.4033674 1.3727l-5.7857143 2.404075c-.0734694-2.502125 1.9368367-3.776775 3.3823469-3.776775zm.2204082 7.89765c-1.4455102 0-2.475-.6623-3.1371429-1.96285l8.6537755-3.57975-.2938775-.7363c-.54-1.447625-2.1820408-4.120875-5.5405102-4.120875-3.3336735 0-6.1043878 2.624225-6.1043878 6.475 0 3.6297 2.7459184 6.475 6.4230613 6.475 2.9663265 0 4.6818367-1.81485 5.392653-2.86935l-2.2059184-1.471675c-.7346938 1.079475-1.7403061 1.7908-3.1867346 1.7908z" mask="url(#a)"/></g></g></svg>