<svg height="90" viewBox="0 0 180 90" width="180" xmlns="http://www.w3.org/2000/svg"><g fill="none" transform="translate(0 19)"><g fill="#377ce7"><path d="m24.3165138.82540454h.8339449c12.9055046-.06577151 24.4155963 11.41954956 24.3910429 24.31679726v.8504588c.057581 12.8972477-11.4277401 24.3990825-24.316731 24.3745952h-.8422018c-12.9055046.0657717-24.41559632-11.4278063-24.38267992-24.3333108v-.8669725c-.04117328-12.880734 11.42763402-24.36605507 24.31662492-24.34156796zm-12.740367 24.79569636c0 6.5724771 5.812844 12.5091743 12.3688073 12.6990826 4.5330276.1155963 9.0577982.0165137 13.5908257.0412844.0082569-8.6614679 0-17.3146789.0082569-25.9678899-1.733945-.0082569-3.459633-.0082569-5.193578-.0082569 0 .6192661 0 1.8577982-.0082569 2.4853211-2.5100917-1.593578-5.4165137-2.6504587-8.4302752-2.4522936-6.7541284.140367-12.6330275 6.4568808-12.3357798 13.2027523z"/><path d="m20.4853211 18.7678899c4.1119266-2.7908257 10.3376147-.3220183 11.5431193 4.4669725.6357798 3.2449541.1981651 6.5889908.3055046 9.8834862-4.3266056-.3385321-9.5036698 1.1972477-13.0541285-2.0477064-3.7073394-3.2366972-3.1045871-9.8669725 1.2055046-12.3027523z"/></g><path d="m.01651376 13.2357798c-.29724771-6.74587154 5.58165138-13.0623853 12.33577984-13.20275228 3.0137614-.19816513 5.9201835.8587156 8.4302752 2.45229358.0082569-.62752293.0082569-1.86605504.0082569-2.4853211 1.7339449 0 3.459633 0 5.193578.00825688-.0082569 8.65321101 0 17.30642202-.0082569 25.96788992-4.5330275-.0247707-9.0577982.0743119-13.5908257-.0412844-6.5559633-.1899083-12.36880734-6.1266055-12.36880734-12.6990826zm8.90917431-6.85321099c-4.31009174 2.43577981-4.91284403 9.06605509-1.20550458 12.30275229 3.55045871 3.2449541 8.72752291 1.7091743 13.05412841 2.0477064-.1073394-3.2944954.3302753-6.6385321-.3055046-9.8834862-1.2055045-4.78899084-7.4311926-7.25779818-11.54311923-4.46697249z" fill="#fff" transform="translate(11.559633 12.385321)"/><path d="m64.6810731 15.990315h3.9135688l8.0331148 21.009685h-3.6781661l-1.9126464-5.2671339h-8.7981734l-1.9126464 5.2671339h-3.6781661zm-1.4124158 12.9177195h6.7384004l-3.2956369-9.210128h-.1177013zm13.8004794-12.9177195h17.2138175v2.9425329h-6.885527v18.0671521h-3.4427635v-18.0671521h-6.885527zm29.5136053 0h3.442763v13.0942715c0 1.8243704.411955 3.1485102 1.265289 4.0312701.82391.8533345 2.177475 1.2947144 4.03127 1.2947144 1.824371 0 3.177936-.4413799 4.031271-1.2947144.823909-.8827599 1.265289-2.2068997 1.265289-4.0312701v-13.0942715h3.442763v13.0354208c0 2.7365556-.765058 4.825754-2.295175 6.2675951-1.530118 1.4124158-3.678167 2.1186237-6.444148 2.1186237-2.795406 0-4.943455-.7062079-6.414721-2.0891984-1.559543-1.4712664-2.324601-3.5604648-2.324601-6.2970204zm21.598191 0h3.442764v21.009685h-3.442764zm20.774283 0h4.354948l-9.239553 9.0041507 10.622544 12.0055343h-4.649202l-8.297943-9.7397839-2.560004 2.5011529v7.238631h-3.442763v-21.009685h3.442763v9.9163359zm7.797712 0h3.442763v21.009685h-3.442763zm5.943916 0h17.213818v2.9425329h-6.885527v18.0671521h-3.442764v-18.0671521h-6.885527z" fill="#377ce7"/></g></svg>