<svg height="90" viewBox="0 0 180 90" width="180" xmlns="http://www.w3.org/2000/svg"><path d="m165.694211 11.4373684c.762631-1.75421051 2.003684-3.03157893 4.255263-3.18631577 4.725789-.32368421-.243158 3.91578947-.243158 3.91578947l-1.08 5.4c-.107369.6742105-.27 1.321579-.431053 1.9168421 2.834211-1.2694737 6.344211-3.6994737 10.286842-8.8294737.647369-.54.459474 1.4842106.241579 1.8347369-2.428421 3.6473684-7.747895 7.6152631-11.257895 9.3157894-1.836315 4.7257895-4.59 5.6163158-7.343684 5.6163158-1.673684 0-4.05-.54-3.618947-2.8894737.325263-1.8631578 3.51-2.4836842 6.966316-3.4010526.271579-.81.486315-1.7826316.729473-3.0505263.198948-1.1131579.363158-2.2957895.582632-3.4421053-3.295263 2.9463158-9.464211 8.3810527-11.084211 9.9205264-2.351052 2.2152631-3.808421 2.8626315-4.942105 2.8626315-1.782631 0-2.592631-1.2963158-1.053158-4.1036842.284211-.5257895 1.218948-2.28 2.455263-4.59-2.418947 2.4268421-4.878947 4.8773684-5.883157 5.8310527-2.351053 2.2152631-3.835264 2.8626315-4.942106 2.8626315-1.782631 0-2.592631-1.2963158-1.053158-4.1036842 1.106842-2.0257895 1.89-3.5905263 3.132632-5.8578947 1.106842-2.0810526 1.457368-3.2684211.538421-3.2684211-1.564737 0-8.774211 6.75-12.284211 13.23l.053685-.0805263-.053685.0805263h-4.266315l1.648421-3.0726315c-2.420527 1.858421-4.987895 3.0726315-7.536316 3.0726315-4.96579 0-6.963158-2.8752631-6.086842-6.81-1.730526 1.7226316-3.268421 3.2431579-4.008948 3.9473685-2.351052 2.2152631-3.808421 2.8626315-4.942105 2.8626315-1.781052 0-2.591052-1.2963158-1.051579-4.1036842.83947-1.5493108 1.674736-3.1008954 2.50579-4.6547368-2.447369 2.4473684-4.948421 4.9326316-5.9605266 5.8957895-2.3242105 2.2152631-3.808421 2.8626315-4.9421052 2.8626315-1.5126316 0-2.3226316-.9173684-1.5931579-2.9163158-1.5931579 1.5931579-3.51 2.9163158-5.3731579 2.9163158-2.6589474 0-3.9742106-2.2673684-3.0378948-5.7363158-1.2726315 1.2631579-2.3463158 2.3210527-2.9289473 2.8736843-2.3226316 2.2152631-3.8068421 2.8626315-4.9405264 2.8626315-1.5126315 0-2.3226315-.9173684-1.5931578-2.9163158-1.5931579 1.5931579-3.51 2.9163158-5.3731579 2.9163158-2.6589474 0-3.9710527-2.2594737-3.0442106-5.7205263-1.2663158 1.2568421-2.3368421 2.3068421-2.9242105 2.8578948-2.3210526 2.2152631-3.8352632 2.8626315-4.9421053 2.8626315-1.7810526 0-2.5642105-1.2963158-1.0531579-4.1036842 1.1084211-2.0257895 2.5926316-4.9689473 3.9157895-7.1826316.8131579-1.3563157.571579-1.978421.1026316-2.3257894-2.5752632 2.6068421-8.9778947 9.0505263-10.7668421 10.7494737-2.3494737 2.2152631-3.8084211 2.8626315-4.9421053 2.8626315-1.4842105 0-2.2942105-.8905263-1.6468421-2.7805263-2.16 1.6468421-4.6168421 2.7805263-7.2631579 2.7805263-4.0421052 0-7.4005263-2.8736842-7.23-7.6878947-2.0747368 2.07-4.0247368 4.0042105-4.89 4.8252632-2.3494737 2.2152631-3.808421 2.8626315-4.9421052 2.8626315-1.7826316 0-2.5926316-1.2947368-1.0531579-4.1052631.8288939-1.5293368 1.6536338-3.0609214 2.4742105-4.5947369-2.4284211 2.4284211-4.8978947 4.8821053-5.9021053 5.8373685-2.3494736 2.2152631-3.808421 2.8626315-4.9421052 2.8626315-1.78105266 0-2.59263161-1.2947368-1.0531579-4.1052631.1894737-.3773684.5668421-1.051579 1.0531579-1.9421053-2.88947371 3.1847369-6.23684213 6.0473684-7.99105266 6.0473684-2.7 0-3.26842105-2.8894737-1.72894737-5.7236842 1.10684211-2.0242105 6.53210527-12.17684208 6.53210527-12.17684208l4.29315786-.02684211s-3.86052628 7.18105259-5.0210526 9.36789469c-.40578947.7294737-1.21578947 2.43.35052632 2.43 1.51263157 0 6.07421048-4.8047368 7.69421048-7.6136842 1.2426316-2.3494736 2.2152632-4.15736838 2.2152632-4.15736838l4.2915789-.02684211s-3.8605263 7.18105259-5.0210526 9.36789469c-.4057895.7294737-1.1336842 2.2152632-.9189474 2.43.2163158.2431579.8652632-.3505263 1.5663158-.9442105.6947369-.5842105 4.6673685-4.3373684 7.471579-7.0263158l2.0336842-3.80052628 4.2915789-.02684211s-3.8605263 7.18105259-5.0210526 9.36789469c-.4057895.7294737-1.1336842 2.2152632-.9189474 2.431579.2163158.2415789.8652632-.3521053 1.5663158-.9473684.4421053-.3710527 2.2089474-2.0242106 4.1589474-3.8684211.5668421-1.798421 1.5615789-3.7752631 3.0773684-5.9052631 5.5342105-7.77473688 12.121579-9.77368425 15.2005263-9.77368425 6.0489474 0 5.6431579 7.34526316 1.1889474 10.31368425-1.2963158.8652631-3.0789474-.9157895-3.0789474-.9157895 4.0768421-3.13263159 4.6452632-6.99473685 1.9452632-6.99473685-2.1063158 0-6.9947368 2.83578947-10.7210526 8.88315785-3.7247369 6.0489474-3.8052632 11.0163158.7578947 11.0163158 3.8068421 0 6.9915789-3.0773684 9.2068421-5.8042105h-3.2952632c-.2147368 0-.4042105-.1357895-.5131578-.3252632-.1076893-.1928254-.1076893-.4277009 0-.6205263l1.0263157-1.7005263c.1894737-.3505263.5668421-.54.9726316-.54h5.8326316l2.1047368-.0268421c-.8484898 1.5959764-1.7032332 3.1886202-2.5642105 4.7778947-.3789474.7294737-1.1068421 2.2152632-.8905263 2.43.2147368.2431579.8636842-.3505263 1.5378947-.9442105.7452632-.6110526 5.0589474-4.6831579 7.8726316-7.3847368-1.35-.9994737-2.7347368-3.08368423-1.0136842-5.25157897 1.5647368-1.94368421 3.9142105-1.56631579 5.2373684-.70263158 1.4131579.90631579.1689474 2.68105263-1.4226316 4.41473685.0034036.0489028.0060356.0978563.0078948.1468421.1522938.1620064.3292082.2989551.5242105.4057895 2.0778947 1.1889473 4.7510526-.1878948 2.9431579 3.268421-.6757895 1.2963158-.8652632 1.4305263-2.0257895 3.6173684-.4042105.7294737-1.1068421 2.2152632-.8905263 2.43.2163158.2431579.8636842-.3505263 1.5394737-.9442105.4673684-.3836842 2.3384211-2.1331579 4.3594737-4.05 3.568421-5.0778947 6.7657895-6.80368419 9.0047368-6.80368419 1.5394737 0 2.6731579 1.42894739 2.9968421 3.02368419.9457895-1.7557895 1.5931579-2.99684208 1.5931579-2.99684208l4.2931579-.02684211s-3.8605263 7.18105259-5.0226316 9.36789469c-.4042105.7294737-1.1336842 2.2152632-.9173684 2.43.2431579.2431579.8636842-.3505263 1.5663158-.9442105.4673684-.3836842 2.3384211-2.1331579 4.3594737-4.05 3.568421-5.0778947 6.7657895-6.80368419 9.0047368-6.80368419 1.5394737 0 2.6731579 1.40210529 2.9968421 2.99684209 3.0789472-5.77894735 6.2368422-11.69210525 6.2368422-11.69210525h4.266316s-8.477369 15.87631575-9.637895 18.06315785c-.405789.7294737-1.1352632 2.2152632-.9189474 2.43.2431579.2431579.8636844-.3505263 1.5663154-.9442105.715264-.5889473 4.721053-4.3768421 7.520527-7.0689473 1.146316-2.1394737 2.01-3.75789478 2.01-3.75789478l4.293158-.02684211s-3.860527 7.18105259-5.021053 9.36789469c-.405789.7294737-1.135263 2.2152632-.918947 2.431579.216315.2415789.863684-.3521053 1.566315-.9473684.502106-.421579 2.711053-2.4947369 4.956316-4.6263158 2.935263-4.321579 6.393158-6.22578949 8.651053-6.22578949 3.915789 0 6.345789 3.72631579 2.485263 8.55789469-2.322632 2.8894737-4.995789 4.1589474-7.345263 3.4294737-.593684-.1626315-1.051579-.4594737-1.430526-.81-.459474 2.16.486315 3.5368421 2.807368 3.5368421 2.829474 0 6.088421-2.3336842 9.375789-5.7994736l4.773158-8.88789478h4.267895l-4.400526 8.20736838c5.425263-7.0736842 9.341052-8.23421049 10.610526-8.23421049 2.104737 0 3.753158 1.18736839 1.700526 5.10315789-.734942 1.4325648-1.490812 2.854296-2.267368 4.2647368-.378947.7294737-1.108421 2.2152632-.892105 2.43.216315.2431579.863684-.3505263 1.539473-.9442105.710527-.5826316 4.667369-4.3136842 7.473158-7.0026316l.923684-1.7178947h-3.132631c.461053-.8652632.729474-1.35.729474-1.35h3.105789c2.671579-4.99578947 3.508421-6.45315789 3.508421-6.45315789h4.294737s-1.026316 1.75421053-3.51 6.45315789l3.211579-.028421-.727895 1.378421h-3.213158c-1.782631 3.3473684-3.402631 6.3710526-3.860526 7.2347368-.40579.7294737-1.135263 2.2152632-.918947 2.43.216315.2431579.863684-.3505263 1.566315-.9442105.88579-.7452631 8.07-6.6268421 10.675264-8.91zm-92.5121057 11.7173684c1.4052631 0 3.9410526-2.3763157 5.668421-5.2910526 1.7557895-2.9163158 2.0257895-5.2926316.6489474-5.2926316-1.4036842 0-3.9410526 2.3763158-5.6968421 5.2926316-1.7273684 2.9147369-1.9973684 5.2910526-.6205263 5.2910526zm17.8736842 0c1.4052631 0 3.9426316-2.3763157 5.67-5.2910526 1.7557894-2.9163158 2.0257894-5.2926316.6473684-5.2926316-1.4036842 0-3.9410526 2.3763158-5.6968421 5.2926316-1.7273684 2.9147369-1.9973684 5.2910526-.6205263 5.2910526zm33.8857895-10.5836842c-1.405263 0-3.942632 2.3494737-5.698421 5.2926316-.053684.1342105-.134211.2431579-.214737.3773684 1.323158 1.0263158 2.834211 0 4.103684-1.0531579 1.727369-1.4573684 3.186316-4.6168421 1.809474-4.6168421zm34.56 12.5273685c-.189474.9994736 1.160526.7831578 1.834737-.1342106.325263-.4326316.675789-.81 1.026316-1.35-1.566316.4863158-2.753685.9173684-2.861053 1.4842106zm-128.9810527-19.06105268c-1.6452631 0-2.4015789-1.32315789-1.6736842-2.97.7578947-1.6468421 2.6747368-2.9968421 4.321579-2.9968421 1.6736842 0 2.4031578 1.35 1.6736842 2.9968421-.7294737 1.64684211-2.6731579 2.96842105-4.32 2.96842105zm83.9178947 0-.001579-.00157895c-1.645263 0-2.401579-1.32157894-1.673684-2.96842105.756316-1.6468421 2.673158-2.9968421 4.321579-2.9968421 1.673684 0 2.401579 1.35 1.673684 2.9968421-.729474 1.64684211-2.673158 2.97-4.32 2.97z" transform="translate(1 31)"/></svg>