<svg height="90" viewBox="0 0 180 90" width="180" xmlns="http://www.w3.org/2000/svg"><g fill="none" fill-rule="evenodd" transform="translate(0 14)"><path d="m0 3.87096774v54.19354836c0 2.1290323 1.74193548 3.8709678 3.87096774 3.8709678h54.19354836c2.1290323 0 3.8709678-1.7419355 3.8709678-3.8709678v-54.19354836c0-2.12903226-1.7419355-3.87096774-3.8709678-3.87096774h-54.19354836c-2.12903226 0-3.87096774 1.74193548-3.87096774 3.87096774z" fill="#f36"/><g fill-rule="nonzero"><path d="m119.419355 45.483871h5.612903v-23.4193549h-5.612903zm51.870968-24c-3.870968 0-6 1.9354838-7.548388 4.0645161v-3.6774194h-5.612903v23.4193549h5.612903v-13.3548387c0-3.6774194 2.322581-5.8064516 5.419355-5.8064516 3.290323 0 5.225807 2.1290322 5.225807 5.8064516v13.3548387h5.612903v-14.9032258c0-5.2258065-3.096774-8.9032258-8.709677-8.9032258zm-29.612904 19.9354838c-4.258064 0-7.354838-3.4838709-7.354838-7.5483871 0-4.0645161 2.903225-7.5483871 7.354838-7.5483871s7.548387 3.483871 7.548387 7.5483871c-.193548 4.2580646-3.096774 7.5483871-7.548387 7.5483871zm0-19.9354838c-7.548387 0-12.967742 5.6129032-12.967742 12.3870967 0 6.7741936 5.419355 12.1935484 12.967742 12.1935484s13.161291-5.6129032 13.161291-12.1935484c-.193549-6.7741935-5.612904-12.3870967-13.161291-12.3870967zm-69.2903222 17.8064516-6.5806452-17.2258065h-6l10.0645161 23.6129033h5.0322581l10.0645161-23.6129033h-5.8064516zm35.6129032-7.5483871c-2.903226-.967742-5.419355-1.5483871-5.419355-3.2903226 0-1.3548387 1.16129-2.3225806 3.483871-2.3225806.967742 0 2.322581.1935483 3.483871.5806451.193548 0 .193548 0 .387097.1935484.967742.1935484 3.290322.5806452 5.225806-2.3225806-2.516129-1.7419355-6-2.7096775-8.903225-2.7096775-4.83871 0-8.7096779 2.7096775-8.7096779 7.1612904s4.0645159 6 7.5483869 6.9677419c2.903226.7741935 5.419355 1.5483871 5.419355 3.2903226 0 1.5483871-1.354839 2.516129-3.870968 2.516129-1.548387 0-3.290322-.3870968-5.032258-1.1612903-.580645-.1935484-3.096774-.9677419-5.4193546 1.9354839 3.0967742 2.3225806 6.7741936 3.4838709 10.2580646 3.4838709 5.032258 0 9.096774-2.516129 9.096774-7.3548387.193548-4.4516129-3.870968-6-7.548387-6.9677419zm-20.3225806 13.7419355h5.6129032v-23.4193549h-5.6129032z" fill="#f36"/><path d="m13.7419355 38.1290323c-.1935484.9677419-.3870968 1.9354838-.3870968 2.7096774 0 3.0967742 1.7419355 5.2258064 5.2258065 5.2258064 2.9032258 0 5.2258064-1.7419355 6.9677419-4.6451613l-.9677419 4.4516129h5.8064516l3.2903226-13.9354838c.7741935-3.483871 2.516129-5.4193549 4.8387096-5.4193549 1.9354839 0 3.0967742 1.1612904 3.0967742 3.2903226 0 .5806452 0 1.1612903-.1935484 1.9354839l-1.7419354 6.3870968c-.1935484.9677419-.3870968 1.7419354-.3870968 2.7096774 0 3.0967742 1.7419355 5.2258064 5.2258064 5.2258064 3.0967742 0 5.4193549-2.1290322 6.7741936-6.9677419l-2.3225807-.9677419c-1.1612903 3.2903225-2.1290322 3.8709677-2.9032258 3.8709677-.7741935 0-1.1612903-.5806452-1.1612903-1.5483871 0-.5806452.1935484-.9677419.1935484-1.7419355l1.7419355-6.1935484c.3870968-1.5483871.5806451-2.7096774.5806451-3.8709677 0-4.6451613-2.7096774-7.1612903-6-7.1612903-3.0967742 0-6.1935483 2.9032258-7.7419354 5.8064516l1.1612903-5.4193549h-8.9032258l-1.1612904 4.8387097h4.2580646l-2.5161291 10.6451613c-1.9354838 4.6451613-5.6129032 4.6451613-6.1935484 4.6451613-.7741935-.1935484-1.1612903-.3870968-1.1612903-1.5483871 0-.5806452.1935484-1.3548387.3870968-2.516129l3.8709677-16.0645162h-9.8709677l-1.1612903 4.8387097h4.0645161zm5.6129032-26.5161291c2.1290323 0 3.8709678 1.7419355 3.8709678 3.8709678 0 2.1290322-1.7419355 3.8709677-3.8709678 3.8709677-2.1290322 0-3.8709677-1.7419355-3.8709677-3.8709677 0-2.1290323 1.7419355-3.8709678 3.8709677-3.8709678z" fill="#fff"/></g></g></svg>