<svg height="90" viewBox="0 0 180 90" width="180" xmlns="http://www.w3.org/2000/svg"><g fill="none" fill-rule="evenodd"><path d="m4.80582524 0h2.59223301c1.24660194.10485437 2.67378645.30291262 3.13398055 1.66601942.1456311.34951456.431068 1.04854369.5766991 1.39805825-3.44271848-1.39805825-7.18252431-2.39417476-10.92815538-1.85242718l.59417476-.46019418c1.31650486-.36699029 2.67378641-.57669903 4.03106796-.75145631z" fill="#f77c34" opacity=".97" transform="translate(3.495146 25)"/><g fill="#ff8135" transform="translate(0 25.582524)"><path d="m0 1.21165049c1.49126214.03495145 2.86601942-.64660195 4.26990291-1.04271845l-.59417475.46019417-.9262136.72815534c4.11844661-.6 8.28932044.22718447 11.94757284 2.19029127 2.4466019 1.34563106 4.5145631 3.30291262 6.2446602 5.48737864-2.4932039-.73980583-4.5961165-2.27766991-6.7689321-3.62912622-2.4058252.18058253-4.38058249-1.50291262-6.66407764-1.98058252 3.28543694 1.33398058 6.65825244 2.96504854 8.86601944 5.8368932.8563107 1.12427188.3087378 2.54563108.1339806 3.79223298-1.2-.7165048-2.4291262-1.3805825-3.5825243-2.161165-1.8407767-1.22912623-2.9184466-3.24466021-4.53786409-4.70679613-2.0737864-1.88737864-4.77669902-2.91262136-7.4330097-3.67572816 2.37669902 1.33980583 5.12621359 2.05631068 7.18834951 3.92621359 1.42718447 1.14174758 2.20194178 2.84854369 2.90097088 4.4912621-.9495146.0349515-1.89320389-.0058252-2.83106797-.1106796-1.33980582-1.32815531-2.34174757-2.94757279-3.61165048-4.33398055.40194175-.14563107 1.20582524-.44854369 1.60776699-.6-1.21747573.15145631-2.43495146.44271844-3.66990291.38446602-1.14174758-1.40970874-1.57864078-3.23300971-2.53980583-4.75339806z"/><path d="m17.8368932 12.6116505c.7398058-1.3048544 1.7883495-2.376699 3.3378641-2.64466021.5650485.76893201 1.1242718 1.54951461 1.6601942 2.34174761 1.2757281 3.8679611-.5883496 8.2834951 1.6135922 11.9067961l-.431068-1.4271845c1.2524272-.2504854 2.5223301-.4194175 3.8038835-.4194175 1.7009709-1.0485437 2.7669903-3.3669903 1.5262136-5.1728155-.8446602-1.5087379-3.6058252-2.6912621-1.9048544-4.631068.0815534 1.0951457.4951457 2.0796117 1.1766991 2.9184466.1514563.0291263.4543689.0932039.6.1223301.8679611 1.6194175 2.1087378 3.3786408 1.5669903 5.3242719-.6116505 2.2485437-3.0058253 3.5300971-5.2368932 3.4019417-.3436894.3786408-.6932039.7456311-1.0601942 1.1067962 1.7650485-.1922331 3.5417476-.2912622 5.2427184-.838835 1.631068-.5592233 3.838835-.238835 4.3456311 1.6834951-.8854369.5825243-1.8466019.7980583-2.7669903.1805826.5533981-.1689321 1.6718447-.5067961 2.231068-.6815534-1.8116505-1.8582525-4.0368932.0174757-5.8368932.8097087-1.3747573.792233-2.9766991.5126214-4.462136.3436893 3.3844661.3902913 3.2737865 4.9281554 6.454369 5.662136-.1572816-2.0038835-3.5009709-3.0349515-2.3242719-5.1436894.8679612-.0058252 1.6834952.2796117 2.4699029.623301-1.0601941-.3378641-1.6019417-.0291262-1.6310679.9320388 1.0427184 1.2757282 2.3242718 2.4116505 2.8019417 4.054369-.3728155 0-1.1126213-.0058253-1.4854369-.0058253-.4776699-.0699029-.9553398-.145631-1.4271844-.2271844-.3786408-.1165049-1.1300971-.3553398-1.5087379-.4718447-.7631068-.8504854-1.5378641-1.6951456-2.3242718-2.5281553 1.1009708 2.761165 3.1048543 6.792233-.1456311 8.9009708.1398058-1.4621359.2330097-2.9242718.2330097-4.392233l-.5067961-.3203883-.5650486-.4019418c-1.4155339-2.2601941-3.0116504-4.8233009-2.5223301-7.6427184-.5009708 3.3145631-1.9864077 6.815534-5.0970873 8.4407767-1.2699029.5359223-3.1281554.7747573-3.8563107-.6990291-1.246602-2.8368932 1.4388349-5.6796117 3.9728155-6.5359224-.4135922.4485437-1.2466019 1.3456311-1.6601942 1.7941748l.2446602.6058252-.9669902-.3320388c.1165048.3320388.3553398.9902913.4718446 1.3165048l-1.0368932-.1048543c.4718447.9029126.4601942 2.4582524 1.7300971 2.6446602 2.2660194-1.1009709 3.6058252-3.838835 3.1339806-6.3145631l.5825243.3145631c.0524271-1.5320389.3262135-3.0407767.8796116-4.4737864-.984466 2.0970873-2.9941748 3.2097087-5.2368932 3.4543689-.0640777-2.3009709-.4543689-4.584466-.4019418-6.8854369.0873787-.1048544.2679612-.3145631.3553399-.4194175.168932.2621359.5009708.792233.6699029 1.0601942l.0524272.384466.0466019.3728156-.7572816-.023301c.262136 1.0660194.2271845 2.9126213 1.7941748 2.8951456 1.992233-.9262136 2.6038835-3.3436893 2.5281553-5.3650485-.4776699-.3145631-1.2233009-2.0446602.0116505-1.5436894.7747573.2563107 1.5378641.5475729 2.2776699.9029127.3029126-.9203884-.3495145-2.592233.9378641-2.7902913.3320388 1.5786408.2504854 3.2038835.4252427 4.8058253.1339806-1.8524272-.0582524-3.7106797.1048544-5.5572816-.9320388-.3786408-1.9572816-.1048544-2.9300971-.1281553.5067961.6990291.9436893 1.4388349 1.3165049 2.2194174-.407767.046602-1.2116505.1398059-1.6135923.1864078-.3262136-.5475728-.5184466-1.1417476-.5650485-1.7825243-.6058253-.6116505-1.0660194-1.3398058-1.5029126-2.0737864.2912621.0699029.8737864.2038835 1.1650485.2679612z"/><path d="m23.9708738 21.3320388.4427184-.1864077c.2097088.168932.623301.5009708.8330097.6699029.0116505 1.2757281-1.9805825.5126213-1.2757281-.4834952z"/></g><path d="m1.34563107.62912621c3.74563107-.54174757 7.48543689.45436894 10.92815533 1.85242719-.1456311-.34951457-.431068-1.04854369-.576699-1.39805825.3436893.53009708.6873786 1.06019417 1.0427184 1.58446602-.0932039.22135922-.2796116.65825242-.3728155.87961165-3.65825244-1.9631068-7.82912622-2.79029127-11.94757282-2.19029127z" fill="#763c19" opacity=".46" transform="translate(2.330097 25.582524)"/><path d="m.30291262.29708738c2.98252427 1.33980582 5.40582524 3.81553398 8.67378641 4.54951456-1.3223301.55339806-2.82524272 1.03689321-3.36699029 2.54563107-.43106796-1.02524272-.45436893-2.20776699-1.10097088-3.13398058-1.27572815-1.45048544-2.9592233-2.4815534-4.20582524-3.96116505z" fill="#f57c33" opacity=".96" transform="translate(12.23301 30.242718)"/><g fill="#082935" transform="translate(43.106796 38.398058)"><path d="m.23883495.59417476c3.99029126-.05825243 7.98640777-.01747573 11.97669905-.02912622v2.31844661c-1.5203884 0-3.04077672 0-4.56116507 0v12.84466015c-.94368932 0-1.8815534 0-2.82524272-.0058252.00582525-4.2757282.00582525-8.55728156.00582525-12.83883495-1.5262136 0-3.05242719 0-4.57864078 0-.00582524-.7631068-.01165049-1.5262136-.01747573-2.28932039z"/><path d="m13.584466.57669903c.9378641-.00582524 1.8757282-.01165049 2.8194175-.01747573.0058252 2.72038835-.0116505 5.4407767 0 8.16116505.0291262 1.25242718.0407767 2.65631065.9378641 3.64660195 1.607767 1.8466019 5.2310679 1.1825243 5.7728155-1.3281553.4718447-3.46019422.1048544-6.98446607.2213592-10.47378646h2.8252427c-.1398058 3.67572816.3262136 7.4038835-.337864 11.03883496-.9553398 3.8737864-6.0524272 5.4582524-9.2854369 3.3961165-1.8291262-.9669903-2.784466-3.023301-2.8834952-5.02135922-.168932-3.13398059-.0174757-6.26796117-.0699029-9.40194175z"/><g fill-rule="nonzero"><path d="m29.0038835.57087379c3.0582524.16893204 6.6-.61747573 9.215534 1.38058252 2.3708738 2.25436893 1.0252427 6.37864078-1.9689321 7.31650486 1.7475729 1.99805823 3.0757282 4.31650483 4.6019418 6.48349513-1.2640777-.192233-3.0524272.5009709-3.792233-.8912621-1.1766991-1.584466-2.0446602-3.4019418-3.3669903-4.88155342-.4601942-.07572816-1.392233-.21553398-1.8582524-.29126214-.0174758 2.00970876-.0116505 4.01941746 0 6.02912626-.9436894.0058252-1.8873787.0116504-2.831068.0174757 0-5.0563107 0-10.11262138 0-15.16310681zm2.8252427 2.13203883c-.0058252 1.71262136-.0116505 3.41941748 0 5.13203884 1.2640777-.1223301 2.6563107.07572815 3.792233-.58834952 1.4271845-.87961165 1.4679612-3.38446602-.1048543-4.12427184-1.1650486-.47766991-2.4582525-.3262136-3.6873787-.41941748z"/><path d="m42.8912621.57087379c3.1398059.20388349 6.6932039-.65242719 9.4893204 1.14757281 2.1961165 1.73009709 1.3805825 5.2776699-1.1650485 6.20970874.9436893.43106796 2.0970874.78058252 2.545631 1.81747573 1.0427185 2.21359223-.4660194 4.98640773-2.7786407 5.59223303-2.6504855.6524272-5.4.3087378-8.0912622.3902912 0-5.0563106 0-10.10679608 0-15.15728151zm2.8252428 2.1553398c-.0058253 1.47961165-.0058253 2.95339806 0 4.43300971 1.2524271-.04660194 2.5398058.04660194 3.768932-.25631068 1.8407767-.43106796 1.8757281-3.58834951 0-3.97281553-1.2407767-.25631068-2.5165049-.16893204-3.768932-.2038835zm0 6.34368932c-.0058253 1.49126209-.0058253 2.97669899-.0058253 4.46796119 1.4446602-.0407767 2.9242719.1106796 4.3339806-.2737864 1.6601942-.6291262 1.7533981-3.38446605 0-3.95533984-1.415534-.33786407-2.8893204-.20388349-4.3281553-.23883495z"/><path d="m60.2446602.92621359c4.631068-2.00970874 10.4563107 1.56699029 10.5495146 6.65242719.5475728 4.61359222-3.815534 8.95922332-8.4349515 8.26019422-4.4912621-.2563107-7.7941748-5.038835-6.7281553-9.3611651.4893203-2.4815534 2.3009708-4.56699029 4.6135922-5.55145631zm.6466019 2.42330097c-3.3961165 1.85825243-3.3961165 7.78252424.0349515 9.60582524 1.9747573.9029126 4.6543689.5533981 5.9708738-1.2815534 1.3339806-2.06796116 1.3339806-4.96310679.0174757-7.0368932-1.3165048-1.86407767-4.0427184-2.22524271-6.023301-1.28737864z"/></g><path d="m74.3009709 1.49708738c2.2718446-1.72427185 5.545631-1.14174757 7.7184466.4776699-.2504855.46019418-.7631068 1.38058253-1.0135923 1.8407767-1.3339805-.48349515-2.6854369-1.38058252-4.1592233-1.01941748-1.368932.08737865-2.1087378 2.0446602-1.0077669 2.91262136 1.7592233 1.26407767 4.3048543 1.22330097 5.7145631 3.01747573 1.4388349 2.10291261.4951456 5.33009711-1.7592233 6.46601941-2.5747573 1.3456311-5.7145631.5300971-7.8640777-1.2524272.4893204-.576699.7631068-1.4038835 1.4854369-1.7417475 1.4504854.6349514 2.9359223 1.7650485 4.6194175 1.2524271 1.4912621-.2155339 2.1320388-2.376699.9553398-3.3262136-1.5495146-1.10097083-3.6757282-1.0834951-5.1262136-2.37087374-1.7708738-1.63689321-1.5087379-4.85825243.4368932-6.25631068z"/><path d="m86.4815534 1.95145631c3.3087379-2.67961165 8.8427184-1.76504854 11.0271845 1.91067961 2.2951456 3.30873787 1.3572815 8.19611648-1.7359224 10.68349518 1.2699029 1.392233 2.5514563 2.7728155 3.815534 4.1708738-1.1126213-.046602-2.2543689.0640776-3.3436893-.215534-1.0893204-.7689321-1.8990291-1.8640777-2.8194175-2.8194175-2.2427184.3320388-4.753398.3436893-6.6291262-1.1242718-4.3339806-2.6504855-4.4854369-9.73398063-.3145631-12.60582529zm2.4116505 1.37475728c-2.6737864 1.37475728-3.0932039 5.06796117-1.9631068 7.59029131.9495146 2.2893203 3.8621359 3.0058252 6.0466019 2.2019417 3.8737864-1.5902913 3.8854369-8.26019417.0699029-9.92621359-1.3398058-.4776699-2.8543689-.46019418-4.153398.13398058z" fill-rule="nonzero"/><path d="m100.963107.57087379c.937864 0 1.875728-.00582525 2.819417-.00582525.040777 3.13980583-.087378 6.27961165.058253 9.41941748.005825 1.54368928 1.060194 3.17475728 2.685437 3.35533978 1.858252.4834952 3.937864-.8621359 4.066019-2.8135922.273786-3.30873787.052427-6.64077671.12233-9.96116506h2.825243c-.145631 3.68737864.337864 7.43300971-.343689 11.07961166-.990292 3.8621359-6.09903 5.423301-9.320389 3.3262136-1.829126-.9728155-2.75534-3.046602-2.848544-5.04466021-.157281-3.11650485-.017475-6.23883495-.064077-9.3553398z"/><path d="m116.63301.56504854h2.831068v15.16310676c-.949515 0-1.893204 0-2.831068 0 0-5.0563106 0-10.10679608 0-15.16310676z"/><path d="m123.279612.57087379c3.582524.20970873 7.730097-.82718447 10.730097 1.71262136 3.739806 2.8776699 3.6 9.33786405-.34369 11.97669905-2.976699 2.2718446-6.937864 1.2291262-10.386407 1.4679611 0-5.0563106 0-10.10679608 0-15.15728151zm2.842718 2.22524271c-.005825 3.56504855-.005825 7.13592233 0 10.7009709 2.184466-.0582524 4.823301.3087378 6.448544-1.5029126 1.671844-2.17281558 1.671844-5.53398063-.005825-7.70097092-1.625243-1.80582524-4.264078-1.43883495-6.442719-1.49708738z" fill-rule="nonzero"/></g><path d="m.06990291.08737864c1.73592233 2.21941748 4.70097088 3.40194175 5.28932039 6.44854369-.76893204-.63495146-2.31262136-1.90485437-3.0815534-2.53398058 1.45631068 1.53203883 2.5631068 3.32621359 3.17475728 5.34757281l.04660195.11067961c-1.42135923.43106797-3.56504855.43689321-4.01941748 2.20776703-.6407767 2.4 1.0368932 4.537864 1.99223301 6.5883495.14563107-1.4912622.30291262-2.976699.54757282-4.4563107-.05242719 2.015534-.13398059 4.031068-.1631068 6.0524272-.08737864-.1398058-.26796117-.4194175-.35533981-.5533981-1.88155339-2.1495145-3.69320388-5.0854369-2.62718446-8.0271844.5184466-1.57281557 2.36504854-1.73592237 3.69320388-2.17864082-.57087379-2.01553398-1.88737864-3.6407767-3.27961165-5.14951456-.41359223-1.28737864-.79223301-2.58058252-1.21747573-3.85631068z" fill="#fd7f34" transform="translate(1.747573 40.145631)"/><path d="m1.84660194.05825243c.09320389.30873786.28543689.93203883.37864078 1.24660194-.08737864.10485437-.26796117.31456311-.35533981.41941747-.05242718 2.30097088.33786408 4.58446602.40194175 6.8854369-2.95339806-1.8815534-2.81359223-6.26213592-.42524272-8.55145631z" fill="#ce682b" opacity=".81" transform="translate(11.650485 43.058252)"/><path d="m.4776699 1.30485437c.48932039-.41941748 1.02524272-.75145631 1.62524272-.99029126.7223301.65242718.93203884 1.45631068.62330097 2.42912621l-.62912621-.19805825c-.23883495-.04660194-.71067961-.13398058-.94951456-.18058253-.16893204-.26796116-.50097088-.79805825-.66990292-1.06019417z" fill="#c56329" opacity=".77" transform="translate(13.398058 43.058252)"/><path d="m.56504854.03495146c.23883496.04660194.71067962.13398058.94951457.18058252l-.02912622.53009709c-.22135922-.0815534-.65242718-.2446602-.86796116-.32621359z" fill="#e0712e" opacity=".88" transform="translate(13.980583 45.38835)"/><path d="m3.1223301.02912621c.29126213.20970874.86796116.62330097 1.1592233.82718447-.30291262.05825243-.91456311.1631068-1.22330097.21553398.9961165.74563107 1.98640776 1.49708738 2.94174757 2.28349515l-1.42718447-.39611651c-.46019417-.16893204-1.38640776-.50097087-1.84660194-.66990291-.02330097 2.84271844-.66990291 5.84854369.45436893 8.56893201 1.69514564 2.6213593 5.27184466 3.792233 8.20194178 2.7262136 1.4912621-.5475728 2.6271844-1.7067961 3.7747573-2.7553398-2.7728156 1.9572816-6.36699034 3.1980583-9.66990296 1.8116505-.50679612-.361165-1.78834951-.6873786-1.22912621-1.4912621 2.04466019.0466019 4.08349514 1.1009708 6.13398057.361165 3.1747573-.815534 4.7184466-3.94368931 6.1106796-6.59999999.3436893 1.04271845 1.031068 2.13203884.4427185 3.23300971-1.0368932 3.35533978-3.6349515 6.41359228-7.24660197 7.00194178h-1.9223301c-2.72038835-.3611651-5.28932039-1.9572816-6.25048544-4.6135923.02912622-2.02135919.11067961-4.03689317.1631068-6.05242715.11650485-.76893204.24466019-1.53786408.38446602-2.30097087-.38446602-.27378641-1.15339806-.81553398-1.53786408-1.08932039.73398058-.06990291 2.19029126-.2038835 2.92427184-.27378641l-.29126213-.67572815z" fill="#f57b33" opacity=".96" transform="translate(4.07767 49.466019)"/><path d="m1.36893204.27378641c.96699029.63495145 1.81747573 1.42718446 2.66213592 2.21359223-.09902913.23883495-.29708738.71067961-.3961165.94951456-.65242719-.36116504-1.30485437-.72233009-1.97475729-1.06019417l1.42718447.3961165c-.95533981-.78640776-1.94563107-1.53786407-2.94174757-2.28349514.30873786-.05242719.92038835-.15728156 1.22330097-.21553398z" fill="#582d12" opacity=".35" transform="translate(6.990291 50.048544)"/><path d="m2.46990291.79223301c.47184466.0815534.94951457.15728155 1.42718447.22718447l1.56699029.2737864c-1.49126214 1.91067962-3.8038835.73980583-5.09708738-.74563106.52427185.06407767 1.57864078.18640776 2.10291262.24466019z" fill="#7f401b" opacity=".5" transform="translate(25.631068 57.621359)"/><path d="m2.89514563.41359223.56504854.40194175c.46019418 1.2815534.17475729 2.67378641-.01165048 3.97864078-2.14368932.99029126-2.77281553-2.43495146-3.04660194-3.72815534l1.24660194 1.5961165c.32038835.19805825.94951456.6 1.26990291.8038835 0-1.01941748-.01165048-2.03300971-.02330097-3.05242719z" fill="#c26228" opacity=".76" transform="translate(20.38835 58.786408)"/></g></svg>