<svg height="90" viewBox="0 0 180 90" width="180" xmlns="http://www.w3.org/2000/svg"><g fill="none"><path d="m9.15315789.45736842c4.09315791-1.00157895 8.84631581.41684211 11.52684211 3.69947369-6.5247368 2.48368421-13.46631579 4.13947368-20.46 4.33052631 1.35473684-3.94842105 4.76473684-7.27736842 8.93315789-8.03z" fill="#cbebe3" transform="translate(19.684211 32.736842)"/><g fill="#68d6df" transform="translate(3.473684 35.631579)"><path d="m40.3352632.17368421c2.9352631-.10421053 5.8531579.18526316 8.7189473.78157895-1.4126316.04631579-2.2636842 1.37789473-3.3752631 2.08421052l-.1157895.07526316c-1.8931579-.37052631-3.4621053-1.5168421-5.2336842-2.18842105z"/><path d="m36.8905263 1.26210526.0694737-.02315789c1.2678947 1.44736842 2.1247368 3.20736842 2.6573684 5.04842105-7.4105263 3.23052632-15.4405263 4.79947368-23.4763158 5.36684208-.6426315-1.98578945-.2257894-4.09315787.2778948-6.06157892h.0115789c6.9936842-.19105263 13.9352632-1.84684211 20.46-4.33052632z"/><path d="m.36473684 10.2357895c2.31578948-1.84105266 5.17578948-2.73842108 7.74052632-4.13947371.12736842.22578947.39368421.67157895.5268421.89736842-1.52842105 1.32-2.82526315 2.88894737-4.40578947 4.14526319-1.26789474-.3763158-2.55894737-.671579-3.86157895-.9031579z"/></g><path d="m49.1526316 2.46052632c1.1115789-.70631579 1.9626316-2.03789474 3.3752631-2.08421053 1.2852632.45736842 2.6573685.82789474 3.74 1.68473684-1.2157894 2.24631579-2.9757894 4.17421053-5.0773684 5.62736842-5.2626316 3.70526315-11.4689474 5.78947365-17.6810526 7.26000005-6.9821053 1.65-14.2247369 2.1189473-21.3747369 1.5457894-4.07578943-.3821052-8.14578943-1.3778947-11.70631575-3.4505263.82789474-1.4068421 2.10157895-2.4489474 3.41-3.38684209 1.30263158.23157894 2.59368421.52684209 3.86157895.90315789-.34157895.5673684-.97842105 1.2273684-.61368421 1.9394737.61947368 1.1636842 2.04947368 1.4705263 3.25368421 1.6152631 3.2710526.6947369 6.7331579.7178948 9.9694737-.1157894.11-1.0073685-.6021053-1.9221053-.6947369-2.9236842 8.0357895-.5673685 16.0657895-2.13631583 23.4763158-5.36684215.8047369.84526316.121579 2.73842106 1.5052632 2.99894737 2.0842105-.78157895 4.3421053-1.69631579 5.6852631-3.56052631.7873685-.99578948-.3068421-2.16526316-1.1289473-2.68631579z" fill="#00bfdc" transform="translate(0 36.210526)"/><path d="m56.2678947.32421053c.4689474.4168421.9321053.83368421 1.3952632 1.26210526.428421 1.60947368-.9494737 2.69789474-1.8352632 3.87315789-3.52 3.01052632-7.8389473 5.09473682-12.32 6.22947372-1.4647368.5615789-2.0378947 2.1710526-3.1263158 3.1842105-3.2710526 3.8442105-9.1647368 5.3263158-13.738421 3.068421-1.2042105-.4978947-2.2-1.4936842-3.531579-1.6615789-6.7678947.6136842-13.85999995 1.2621053-20.37315785-1.1347368-1.44157894-.5673685-3.14947368-2.1652632-2.31-3.8384211 3.56052632 2.0726316 7.63052632 3.0684211 11.70631575 3.4505263 7.15.5731579 14.3926316.1042105 21.3747369-1.5457895 6.2121052-1.4705263 12.418421-3.55473679 17.6810526-7.25999995 2.101579-1.4531579 3.861579-3.38105263 5.0773684-5.62736842z" fill="#587acd" transform="translate(0 37.947368)"/><g fill="#ee84d5" transform="translate(132.907574 18.644317)"><path d="m2.41618939.27061321c.95788487-.25557914 1.96087193-.13960205 2.94023403-.15893157 12.60284388.00214773 25.20568778.00644318 37.80853168-.00214772.9449985-.02362496 1.9308038.2512837 2.5944504.95573714.6980103.66149896.972919 1.64300879.9514417 2.58156413-.0021477 4.01409598-.0128863 8.02604421.0064432 12.03799251.0042955.8204305-.0408067 1.6924064-.5068628 2.3968599-.5820332.9686234-1.7052928 1.5313271-2.824257 1.5119976-12.8133208.0107386-25.6287893-.0064432-38.44211017.0085909-1.08245285-.0171818-2.26799644.1331589-3.23017675-.4789424-1.04594154-.6056582-1.60864521-1.8234176-1.55709983-3.0089612.00859089-4.2267207-.00429545-8.45558905.00644317-12.68445742-.04295448-1.39816826.89560087-2.77056384 2.25296237-3.15930187zm3.97758468 4.66915177c.00429545 3.07768836-.01503407 6.15537672.01073862 9.23306512 1.73321319-.0021478 3.46857411.0064431 5.20393501.0085909 1.0309075.0171817 2.1369853-.2298065 2.8865409-.9815099.6529081-.6722376.7302262-1.7289177.4660561-2.590155-.2040337-.6056581-.7495556-.987953-1.2070208-1.39387282.5863286-.46820381 1.1726572-1.09319147 1.0781574-1.91147427.085909-1.47548633-1.501259-2.28947369-2.777007-2.34316679-1.8857016-.06657944-3.77569864 0-5.66140023-.02147724zm19.76335543.32215859c-.0085909.67438531-.0107387 1.35091834-.0107387 2.02745137-.3328972.01073862-.6636467.02362496-.9922484.0365113-.0042955.68727165-.0064432 1.3745433-.0042955 2.06181495.3307495.00429545.6636467.0085909.9986917.01288635.0708748 1.26500936-.2341019 2.64599586.3307494 3.82509626 1.0566802 1.4819295 3.1593019 1.2800435 4.6712995.7194875-.1911474-.7667374-.3844425-1.5334748-.5669991-2.30236-.3930334.0751703-.7882146.1481929-1.1812481.2169201-.0665795-.8182828-.0923521-1.6408611-.1030908-2.46343931h1.6236793c.0021477-.69586255.0021477-1.39387281.0042955-2.08973536-.5347833-.00214772-1.0695666-.00429545-1.6022021-.00644317-.0085909-.67438531-.0171818-1.34877062-.0343636-2.02315592-1.0437938-.02147724-2.0897353-.02147724-3.1335291-.01503407zm6.4324331 2.18638294c.2298064.75170336.4767947 1.49696356.7431124 2.23578058 1.0695665-.32645403 2.3002123-.79465784 3.3203812-.07302261-1.0717142.10953392-2.1885307.0085909-3.2108473.40591982-1.7611336.5949195-1.6494519 3.5566308.0751704 4.1322208.9449985.4080675 2.0059741.2040338 2.9058704-.2190678.062284.062284.1825566.1847042.2426928.2469882 1.011578-.0021477 2.0231559-.0021477 3.0368816-.0021477-.0300681-1.649452.0536931-3.2989039-.0279204-4.94406045-.0408067-.96647576-.6700898-1.8685198-1.5936111-2.18208749-1.7976449-.68941937-3.7305964-.10738619-5.49173.39947665zm-14.1341711-.35437445c-2.6395527.96003259-2.940234 5.18031004-.6035104 6.62572824 1.8491903 1.0781574 4.3963908.786067 5.8826158-.7860669-.5218969-.5283401-1.0480893-1.050237-1.5721339-1.5742817.6421694 0 1.2886343-.0021477 1.9329515-.0042954-.0128863-1.0803051-.0279204-2.25940556-.7280784-3.1528587-1.088896-1.51199763-3.2709835-1.67522465-4.9118446-1.10822554z"/><path d="m9.64542806 7.25286363c.65076034.05154538 1.30152074.12027254 1.94798554.22765874-.139602.287795-.2534314.59277179-.4467265.84835094-.498272.07946578-1.0029871.06872716-1.50125904.08590896-.00214772-.38659031-.00214772-.77318061 0-1.16191864z"/><path d="m19.3466969 9.67979165c.3221586-.24054508.5734423-.70874889 1.0309075-.66579441.249136.19759059.4574652.43598795.6808285.66364668-.5712946.01288635-1.1425891.01503407-1.711736.00214773z"/><path d="m9.64542806 10.6441197c.68512394.0493976 1.44112274-.0773181 2.05537174.3028291-.0257726.1481929-.0794657.4467265-.1073862.5949195-.5927718.3328972-1.2972252.2598746-1.95013326.3092722 0-.4016244 0-.8053964.00214772-1.2070208z"/><path d="m19.4734127 11.419448c.7839192-.0665794 1.5742816-.0665794 2.3603485-.0107386-.4596129.1954429-.9149304.5240446-1.438975.4531697-.3286017-.0987953-.6228399-.2856472-.9213735-.4424311z"/><path d="m35.2785129 11.3936753c.4832379-.0171818.9664757-.0300681 1.4540091-.0343636-.3071245.3371927-.6185445.6700899-.9342599.9943962-.148193-.0902044-.4445789-.2749087-.5927718-.3672608.0171818-.1481929.0536931-.4445788.0730226-.5927718z"/></g><g transform="translate(58.596327 23.36931)"><g fill="#fff"><path d="m80.7050212.21477239c1.8857016.02147724 3.7756987-.0451022 5.6614002.02147724 1.275748.0536931 2.862916.86768046 2.7770071 2.34316678.0944998.81828281-.4918288 1.44327047-1.0781574 1.91147428.4574651.40591982 1.002987.78821467 1.2070208 1.39387281.26417.86123729.186852 1.91791745-.4660561 2.59015503-.7495556.75170337-1.8556334.99869162-2.8865409.98150983-1.7353609-.00214772-3.4707219-.01073862-5.2039351-.0085909-.0257726-3.07768835-.0064431-6.15537671-.0107386-9.23306507zm3.251654 2.31309865c-.0021477.38873802-.0021477.77532833 0 1.16191863.498272-.01718179 1.0029871-.00644317 1.501259-.08590896.1932952-.25557914.3071246-.56055593.4467266-.84835094-.6464649-.10738619-1.2972252-.17611336-1.9479856-.22765873zm0 3.39125605c-.0021477.40162437-.0021477.80539646-.0021477 1.20702083.6529081-.04939765 1.3573615.02362496 1.9501333-.30927224.0279204-.14819295.0816135-.44672657.1073862-.59491952-.614249-.38014713-1.3702478-.25343142-2.0553718-.30282907z"/><path d="m100.468377.53693098c1.043793-.00644317 2.089735-.00644317 3.133529.01503406.017182.67438531.025772 1.34877062.034363 2.02315592.532636.00214773 1.067419.00429545 1.602202.00644318-.002147.69586254-.002147 1.39387281-.004295 2.08973536-.541226 0-1.082453 0-1.623679 0 .010738.82257825.036511 1.64515651.10309 2.46343932.393034-.06872717.788215-.14174978 1.181249-.21692012.182556.76888516.375851 1.5356226.566999 2.30236003-1.511998.56055594-3.61462.76244199-4.6713-.71948751-.564851-1.17910042-.259874-2.56008689-.330749-3.82509628-.335045-.00429544-.6679424-.00859089-.9986919-.01288634-.0021477-.68727165 0-1.3745433.0042955-2.06181495.3286017-.01288634.6593514-.02577269.9922484-.03651131 0-.67653303.002148-1.35306606.010739-2.02745136z"/><path d="m106.90081 2.72331391c1.761133-.50686284 3.694085-1.08889602 5.49173-.39947664.923521.31356769 1.552804 1.21561173 1.593611 2.18208749.081613 1.64515651-.002148 3.29460847.02792 4.94406043-1.013725 0-2.025303 0-3.036881.00214772-.060137-.06228399-.180409-.18470425-.242693-.24698825-.899896.42310161-1.960872.62713538-2.905871.21906784-1.724622-.57559001-1.836303-3.53730127-.07517-4.13222079 1.022317-.39732893 2.139133-.2963859 3.210847-.40591982-1.020169-.72163524-2.250814-.25343142-3.320381.07302261-.266318-.73881702-.513306-1.48407722-.743112-2.23578059zm2.68895 3.94536882c-.019329.14819295-.055841.44457885-.073023.5927718.148193.09235213.444579.27705638.592772.36726079.315716-.32430631.627136-.65720352.93426-.99439617-.487533.00429544-.970771.01718179-1.454009.03436358z"/><path d="m92.7666387 2.36893947c1.6408611-.56699911 3.8229485-.4037721 4.9118446 1.10822553.700158.89345315.715192 2.07255357.7280784 3.1528587-.6443172.00214772-1.2907821.00429545-1.9329515.00429545.5240446.52404463 1.0502369 1.04594154 1.5721339 1.57428162-1.486225 1.5721339-4.0334255 1.86422433-5.8826158.78606695-2.3367236-1.44541819-2.0360423-5.66569567.6035104-6.62572825zm.8913054 2.58585958c.5691468.01288635 1.1404414.01073862 1.711736-.00214772-.2233633-.22765874-.4316925-.46605609-.6808285-.66364669-.4574652-.04295448-.7087489.42524933-1.0309075.66579441zm.1267157 1.73965637c.2985336.15678384.5927718.34363582.9213736.44243112.5240446.07087489.9793621-.25772687 1.438975-.45316974-.786067-.05584082-1.5764294-.05584082-2.3603486.01073862z"/></g><path d="m22.7852029 18.685198h3.6296534c.0021477 3.7950281.0021477 7.5879085 0 11.3829367-1.2091685 0-2.4183371 0-3.6296534-.0021477-.0021477-3.7928805 0-7.5857609 0-11.380789zm27.716377.4982719c2.201417-.5197492 4.5467315.0107387 6.4904217 1.1039301-.4295448.9986916-.9084872 1.975906-1.3723956 2.9595636-1.1211119-.536931-2.2615533-1.097487-3.5029377-1.2886344-.3457835-.0665794-.6249876.2448405-.9299644.3479313 1.4475659 1.0867483 3.5265626.8998963 4.8259356 2.2314851 1.5506566 1.5656908.8698282 4.6068678-1.2327935 5.3306508-2.6696209.9707712-5.7387183.2770564-8.028192-1.3122593.4445788-.9858053.9299644-1.9544288 1.4174978-2.9209046 1.0996346.7108967 2.2508146 1.4368273 3.5652217 1.6537475.4682038.0472499 1.065271.1224202 1.3487706-.3565222-.4810902-.6271354-1.3079639-.7366693-2.0145651-.949294-1.0717142-.2899427-2.2465192-.6035104-2.9745976-1.5077022-.8483509-1.1597709-.7345215-2.8414387.1030908-3.9732892.5669991-.7130443 1.4282364-1.1318505 2.3045077-1.3187025zm-46.95139228.2684655c2.42907574-.9192258 5.3456848-.2684655 7.12400018 1.6387134-.70015798.8956008-1.44112273 1.7589858-2.18208747 2.6223709-.78821468-.7302262-1.69455417-1.6924065-2.88868866-1.4153501-1.49266811.3393404-1.9587242 2.2379283-1.36165695 3.4943468.31356769.7023057 1.02661202 1.2048731 1.79334946 1.2607139.94714624-.0987953 1.71817912-.7130443 2.41404167-1.314407.75599881.777476 1.52273625 1.5485089 2.23148515 2.3710872-1.3466229 1.4346796-3.2688358 2.3990076-5.27051448 2.2293374-1.62797472-.0214772-3.20655179-.8483509-4.17302755-2.1498716-1.05238471-1.3358843-1.35306606-3.1614496-1.01372568-4.8044584.32215858-1.7761677 1.69240643-3.2452108 3.32682433-3.9324825zm11.16172118 2.1563148c1.6859632-.3178631 3.616767-.1310111 4.9462081 1.050237 1.9050311 1.8191222 1.6838156 5.5132073-.6636467 6.8727165-1.5291794.8676805-3.4513923.9342599-5.0836625.3135677-1.4046114-.5176015-2.4720302-1.8942925-2.5235755-3.4062901-.0300682-.8397601-.0644318-1.7310655.3157154-2.5063938.5240446-1.2284981 1.7289177-2.0467809 3.0089612-2.3238373zm.9621803 2.8586205c-.2663178.4080676-.6636467.8011011-.661499 1.3187025-.0794658.6271354.373704 1.1189642.6958626 1.6000543.4789424-.1095339 1.1211118-.1116816 1.329441-.6572035.4166585-.7731806.1009431-1.6752246-.4746469-2.2679964-.2963859.0021477-.5927718.0042954-.8891577.0064431zm15.9940999-2.854325c1.4475659-.272761 3.0390293-.186852 4.3276637.5841809 2.5579391 1.501259 2.5450528 5.841809-.023625 7.3280339-1.5334749.8741237-3.4621309.9449986-5.0986965.3178632-1.3337366-.4961242-2.3667918-1.7589859-2.5042461-3.1872223-.0601363-.9707712-.100943-2.0059741.3779994-2.8865409.5541128-1.1425891 1.7052928-1.8878493 2.9209045-2.1563148zm.9729189 2.854325c-.3092722.4488743-.738817.9063395-.6614989 1.4969636-.0085909.5584082.4188061.9815098.6980102 1.423941.4767947-.1116817 1.1168165-.1159771 1.3251457-.6572036.4209539-.7731806.1052385-1.6795201-.4724993-2.2701441-.2963859.0021477-.5927718.0042954-.8891577.0064431zm7.0939321-2.9080181c1.2113163-.0021478 2.4204848-.0064432 3.6318011.0064431-.0064432.2856473-.0128863.5712946-.0193295.8590896.7044534-.6400217 1.6043498-.9986916 2.5579392-1.0008393.0128863 1.0738619.0085909 2.1455761.0064431 3.2194381-.7839192.0966476-1.7482472.0343636-2.2959168.7151921-.2620223.2834995-.2319542.6915671-.2534314 1.0480892-.0128864 1.2199072.0107386 2.4419621.0021477 3.6618693-1.2091686 0-2.4204848 0-3.6296534 0-.0021477-2.8371433-.0021477-5.6721388 0-8.5092821zm18.9214476.0042954c1.2091686-.0107386 2.4204848-.0064432 3.6318011-.0042954-.0042954.1481929-.015034.4445788-.0193295.5927718 1.6537474-1.2435322 4.3233682-.7345216 5.3263553 1.1017823.8483509 1.6064975.8741236 3.648983.0193295 5.2597759-1.0137257 1.8427471-3.6919374 2.278735-5.3370939 1.0352029.0085909 1.1705095.0064432 2.3431668.0042955 3.515824-1.2048732 0-2.4097463.0107387-3.6124716-.015034-.0365114-3.827244-.0128864-7.6566358-.0128864-11.4860275zm4.3448455 2.9187568c-1.1447369.738817-.7259307 2.8328478.7108966 2.9101659.3951812-.4617606.88701-.9578849.7817715-1.625827.0837612-.8075442-.6507604-1.6773724-1.4926681-1.2843389zm6.8490915-2.2271897c1.8556335-.6443172 3.8616076-1.0309075 5.8160363-.6550558 1.2177595.2598746 2.3002123 1.2521231 2.3710872 2.5450529.1589316 1.9651673.0343636 3.9453688.0579886 5.9169793-1.1919868.0107386-2.3839736.0064432-3.5759603.0042955.0064432-.1331589.0193295-.4037721.0236249-.5390787-1.0738619.8032487-2.5686777 1.0201688-3.7971758.4596129-1.789054-.7882147-1.8964402-3.8036191-.1310112-4.675595 1.2220549-.614249 2.6288141-.3006813 3.9389257-.4553174-.3479313-.2319542-.6550558-.6314309-1.1146687-.6078059-.9407031-.0279204-1.8277131.3350449-2.7340526.5326355-.3049768-.8354646-.5798854-1.6816678-.8547941-2.5257233zm2.9166091 4.8366743c.0859089.26417.2147724.5090105.3393403.7602942.3286018-.0493976.6572036-.0987953.987953-.1481929.2018861-.3157154.3930335-.6357263.5777378-.9621803-.6357263.0451022-1.4046115-.1567839-1.9050311.350079zm9.2352128-5.2082305c1.6773723-.7066012 3.8186531-.5541128 5.2060827.6980103.4574652.4059198.7431125.9600325 1.0695665 1.4711908-.9707712.4252494-1.9479856.8311692-2.9209045 1.2478276-.3865903-.365113-.8547941-1.1404414-1.4583045-.6829762-.8977486.6636467-.6593513 1.9716106.0472499 2.6825072.1675225-.0042955.5004197-.0150341.6679421-.0193295.2190679-.3006814.4316925-.6035105.6443172-.9084873 1.0158734.4338403 2.0253037.8891577 3.0154044 1.3831342-1.0996347 2.61378-4.7035154 3.1700405-6.9307051 1.7267701-1.2091685-.7925102-1.7954972-2.2959169-1.6752246-3.7091192-.0987953-1.6086452.8204305-3.2666881 2.3345759-3.889528zm9.9095981-.210477c1.8105312-.4875333 4.0785277-.1589315 5.2232645 1.4647477.801101 1.0373507.8590896 2.388269.8590896 3.6425398-.7796238.0064432-1.5592476.0021477-2.3367236-.0085909.6443171.6013627 1.2714525 1.2220549 1.8985879 1.8448948-.9149304.9364077-2.1455762 1.5549521-3.4599832 1.6279747-1.4776341.0923522-3.1335292-.2298064-4.1579935-1.3831341-1.0717142-1.174805-1.2156117-2.9294955-.8419078-4.4135727.3522268-1.3509183 1.4733386-2.4247803 2.8156661-2.7748593zm.5541127 3.2258813c.6464649.023625 1.2929298.0279205 1.9393947.0085909-.2040337-.3307494-.4188061-.6550557-.6357262-.9772143-.5669992.1202725-.9901008.5004196-1.3036685.9686234zm.1267158 1.9157698c.4531697.2963859.9149303.8139873 1.5141453.6572035.5047151-.1438975.9471462-.4381357 1.4067592-.6829762-.972919-.0107386-1.9479856-.0193295-2.9209045.0257727z" fill="#4ba6b0"/></g></g></svg>