<svg height="90" viewBox="0 0 180 90" width="180" xmlns="http://www.w3.org/2000/svg"><g fill="none" fill-rule="evenodd" transform="translate(0 27)"><path d="m23.1069767 4.2c-.9209302-.50232558-3.516279-.16744186-6.6139534.75348837-5.4418605 3.68372093-10.04651167 9.20930233-10.38139539 18.00000003-.08372093.2511628-.58604651 0-.66976744-.083721-1.50697675-2.8465116-2.09302326-5.7767441-.83720931-10.0465116.25116279-.4186046-.50232558-.8372093-.66976744-.7534884-.25116279.2511628-1.42325581 1.5069768-2.17674419 2.7627907-3.68372093 6.4465117-1.25581395 14.6511628 5.19069768 18.2511628 6.44651159 3.6 14.65116279 1.255814 18.25116279-5.1906976 4.1860465-7.5348838.3348837-22.35348842-2.0930233-23.6930233z" fill="#81b441"/><path d="m46.2139535 7.71627907c-7.7023256 0-13.227907 5.69302323-13.227907 13.56279073 0 7.9534883 5.5255814 13.4790697 13.4790698 13.4790697 4.0186046 0 7.2-1.2558139 9.7116279-3.8511628.7534884-.8372093.8372093-1.5906976.8372093-1.9255814 0-1.2558139-.9209302-2.1767441-2.2604651-2.1767441-.6697675 0-1.255814.2511628-1.8418605.8372093-1.4232558 1.3395348-3.3488372 2.6790697-6.4465116 2.6790697-4.3534884 0-7.8697675-3.2651162-8.1209303-7.4511628h17.3302326c1.8418605 0 2.7627907-.9209302 2.7627907-2.6790697 0-.5023256 0-.9209303-.0837209-1.6744186-.8372093-6.7813954-5.4418605-10.80000003-12.1395349-10.80000003zm0 4.26976743c4.1860465 0 6.8651163 2.6790698 6.9488372 6.9488372h-14.8186047c.5023256-4.0186046 3.7674419-6.9488372 7.8697675-6.9488372zm28.8837209-4.26976743c-3.5162791 0-6.9488372 2.00930233-8.2883721 4.77209303v-1.7581395c0-2.67906981-2.0930232-2.76279074-2.5116279-2.76279074-1.2558139 0-2.5116279.75348837-2.5116279 2.76279074v20.7627907c0 2.7627907 2.1767442 2.9302325 2.5953488 2.9302325.4186047 0 2.6790698-.1674418 2.6790698-2.9302325v-11.1348838c0-4.8558139 2.7627907-8.2046511 6.6976744-8.2046511 3.7674419 0 5.6930233 2.5116279 5.6930233 7.6186046v11.7209303c0 2.7627907 2.1767442 2.9302325 2.6790698 2.9302325.5023255 0 2.5953488-.1674418 2.5953488-2.9302325v-13.3953489c-.0837209-4.9395349-2.5953488-10.38139533-9.627907-10.38139533zm33.4046516.33488372c-1.255814 0-2.093024.66976744-2.595349 2.09302321l-7.2000003 18.1674419-7.2-18.1674419c-.5860465-1.42325577-1.4232558-2.09302321-2.6790697-2.09302321-1.4232558 0-2.6790698 1.17209302-2.6790698 2.51162791 0 .3348837 0 .7534884.3348837 1.5069767l8.2883721 19.5906977c1.0046512 2.3441861 2.5953489 2.8465116 3.7674419 2.8465116s2.8465121-.5023255 3.7674421-2.8465116l8.372093-19.6744186c.251163-.6697674.334883-1.172093.334883-1.4232558.083721-1.50697675-1.004651-2.51162791-2.511627-2.51162791zm15.32093-.33488372c-3.348837 0-6.530233.92093023-8.874419 2.67906973-.753488.5860465-1.172093 1.255814-1.172093 2.0930233 0 1.172093.92093 2.0930232 2.009303 2.0930232.502325 0 1.088372-.1674418 1.590697-.5860465 2.009303-1.3395348 3.851163-1.9255814 5.944186-1.9255814 3.934884 0 6.111628 2.0093024 6.111628 5.4418605v.5860465c-8.790698 0-17.665116 1.0883721-17.665116 8.7069768 0 5.4418604 4.688372 7.9534883 9.293023 7.9534883 3.683721 0 6.613954-1.4232558 8.539535-4.2697674v1.3395349c0 2.0093023 1.339535 2.6790697 2.511628 2.6790697.251163 0 2.344186-.0837209 2.344186-2.6790697v-13.9813954c.083721-6.3627907-3.851163-10.13023253-10.632558-10.13023253zm4.604651 14.23255813h1.088372v1.255814c0 4.4372093-2.846512 7.2837209-7.2 7.2837209-1.172093 0-5.106977-.2511628-5.106977-3.8511628 0-4.1860465 6.362791-4.6883721 11.218605-4.6883721zm19.84186-9.1255814c2.344186 0 2.427907-1.7581395 2.427907-2.1767442 0-1.08837207-.669767-2.17674416-2.427907-2.17674416h-4.772093v-4.85581395c0-2.17674419-1.423255-2.93023256-2.595348-2.93023256-.418605 0-2.595349.16744186-2.595349 2.93023256v22.77209301c0 5.2744186 2.595349 8.0372093 7.534883 8.0372093 1.255814 0 2.511628-.2511628 3.348838-.5860465.92093-.5023256 1.423255-1.255814 1.423255-2.0930233 0-1.2558139-.92093-2.0930232-2.093023-2.0930232-.251163 0-.586046.0837209-.92093.1674419-.418605.0837209-.753488.1674418-1.088372.1674418-2.009302 0-2.930233-1.3395349-2.930233-4.1023256v-13.0604651zm17.497675-5.10697673c-7.953489 0-13.730233 5.69302323-13.730233 13.47906973 0 3.7674419 1.423256 7.283721 3.934884 9.7116279 2.511628 2.427907 6.027907 3.8511628 9.795349 3.8511628 7.869767 0 13.813953-5.8604651 13.813953-13.5627907 0-7.7860465-5.860465-13.47906973-13.813953-13.47906973zm0 22.52093023c-5.441861 0-8.372093-4.6046512-8.372093-9.0418605 0-6.1953488 4.353488-9.0418604 8.372093-9.0418604s8.372093 2.8465116 8.372093 9.0418604c-.083721 6.1953489-4.353488 9.0418605-8.372093 9.0418605z" fill="#000" fill-rule="nonzero"/></g></svg>