<svg height="90" viewBox="0 0 180 90" width="180" xmlns="http://www.w3.org/2000/svg"><g fill="none" fill-rule="nonzero"><g><path d="m28.8082596 1.5026087c6.3579941-1.77763976 13.1912684-2.00571429 19.6030678-.36223603.4909735.10956522.9774632.24372671 1.4684366.35776398l-.0179351.08944099c.7039528.11850932 1.3720354.37341615 2.0558112.57465838l-.0560472.10509317c.2735103.0536646.5470207.10956522.820531.17217392.3811209.18782608.7689675.37118012 1.1478466.57018633.0717404-.02459627.2174631-.07602484.2892035-.10062112l-.0022418.21913044c.7330973.23701863 1.4213569.58807453 2.1051327.93913043 2.4705605 1.25217392 4.7752212 2.82186336 6.8848378 4.61515528l.0403539.03801242c1.7262537 1.50260871 3.3314455 3.14832301 4.7505605 4.94161491 1.1657817 1.5160248 2.2844838 3.0812422 3.1588201 4.7850932l.2084955.0849689c-.0201769.0536646-.058289.1654659-.078466.2213665.5133923.7334161.919174 1.5406211 1.2240708 2.3813664l.1726253.0335404c-.0044837.0737888-.0179351.2168944-.0246607.2884472.2040118.3957764.3856047.804969.5268436 1.2298137l.0762242.0201242c.1120944.3398758.2264307.6797516.3317994 1.0218634.1031269.2236024.2040118.4472049.3026549.6708074.0493215.2638509.0986431.5277019.1479646.7915528l.1502065-.0380124c.0156932.1453416.0470796.4337888.0627728.5791304.4304425 1.1537888.7061947 2.3567702.9303835 3.5664596 1.1119764 5.216646 1.0110915 10.6770187-.219705 15.8645963-.0739823.2929193-.138997.5880745-.2129793.8832298-.1277877.4896895-.2645428.9793789-.381121 1.4735404l-.0941593-.0245963c-.0874336.4628572-.2152212.9190062-.3317994 1.3773913l-.1165782-.0536646c-.0605309.266087-.11882.53441-.1771091.802733-.1434808.3309316-.280236.6663354-.3990561 1.0106832l-.078466.0178882c-.1748673.5209938-.3900885 1.0263354-.5851328 1.5383851l-.2219469.0290683c.0313865.1028571.0919174.3085714.121062.4114286l-.1928024.0223602c-.1838348.5277019-.4551032 1.0218634-.7689675 1.4847205.0022418.0357764.0067256.1050932.0089675.1408696-.9460767 1.6278261-1.9414749 3.2332919-3.0960472 4.7247205-.2981711.3711801-.6097935.7334161-.9258997 1.0911801-.0358702.0693168-.1120944.2057143-.1502065.2750311-.3250737.3331677-.6523894.6640993-1.0155752.9570186-.0336283 1.3975155.5492625 2.7145342.7510324 4.0829814.2421239 1.0218633.4932154 2.0459627.6748083 3.0812422.0941593.3108074.1748673.6238509.2645428.9391304.0650147.355528.1165782.715528.159174 1.075528.0336283.0872049.1031269.2593789.1367552.3465838.0762242.3108075.1614159.623851.2533333.9346584-.5492625-.3376397-1.1321534-.6126708-1.7329793-.8452174-.0224189-.0536646-.0650148-.1587577-.0874337-.2124223-.0941593.0335403-.2847197.1028571-.3811209.1363975l-.0269027-.2124224c-.5941003-.1922981-1.159056-.456149-1.699351-.7624845l-.280236.0581367c-.0156932-.087205-.0515634-.2616149-.0672566-.3510559-.1031269.0424845-.3071387.1274534-.4102655.1699379l-.0022419-.2370187c-.5223599-.1677018-1.0267847-.3823602-1.5356932-.5858385-.0179351-.0559006-.0515634-.1654658-.0694985-.2213664-.0986431.0313043-.300413.091677-.3990561.1207453l-.0358702-.357764c-.1165782.0424845-.3474926.1274535-.4618289.172174l.0582891-.2347827c-.4551033-.1252173-.881062-.3264596-1.2958112-.543354-.0672567.0156522-.2040118.0469565-.2712685.0626087l-.0156932-.2258385c-.399056-.1185093-.7824189-.2929193-1.1926843-.3667081-.3743953.0939131-.7308555.2549069-1.0962832.3778882l-.0112095.2258385c-.1031268-.0290683-.3071386-.089441-.4102655-.1207453l-.0448377.2437267c-.3743953.1185093-.7487906.2370186-1.1299115.3331677l.0493215.2280745c-.0762242-.0178882-.2286725-.0514285-.3048967-.0693167-.2779941.1073292-.5559882.2079503-.8362242.2996273l.020177.0715528c-.6479056.1922981-1.2913275.4047205-1.9369912.6014907-5.3670796 1.5406211-11.0368141 1.7709316-16.5720354 1.2477018-3.0130973-.277267-6.0172271-.7356521-8.9496165-1.4891925-.8227729-.183354-1.6298525-.4315528-2.4436578-.6439752-.2286726-.096149-.4551033-.1945341-.6792921-.2951552-.1457227-.0111802-.4349262-.0380125-.5806489-.0491926l.020177-.1363975c-.2623009-.0626087-.5246018-.1274534-.7846608-.1990062-.3474926-.1296895-.6949852-.2549069-1.0469616-.3689441l.0336283-.0760249c-.2847198-.1050931-.5671977-.2079503-.8474337-.3108074-.0672566.0156522-.2017699.0514286-.2712684.0670807v-.2101863c-.5223599-.1677019-1.0290265-.3778882-1.5356932-.5813665-.020177-.0559006-.0560472-.1677018-.0739823-.2236025-.0964012.0245963-.2892036.0782609-.3856047.1028572l-.040354-.3219876c-.1031269.0223603-.3093805.0715528-.4125074.0939131l-.0313864-.3152795c-.100885.0201242-.3048968.0626086-.4057817.0827329l-.0448378-.2951553c-.0762242.0089441-.2264307.0245963-.3026549.0335404-.5828908-.3667081-1.1904424-.6931677-1.780059-1.0486957-.3676696-.2258385-.7353392-.451677-1.098525-.6864596-1.3361652-.898882-2.6499115-1.8424845-3.8313865-2.9403727-.0650147-.0424845-.1928023-.1274534-.2578171-.1699379-.94159288-.8541615-1.84058994-1.7575155-2.70147489-2.6944099-.04259587-.0626087-.12554572-.1922981-.16814159-.2549068-.39457228-.4404969-.79362832-.8787578-1.15233039-1.346087-.22643068-.3018634-.45510324-.6014907-.67929203-.9055901-.15020649-.2124223-.30265487-.4248447-.45286136-.637267-.83622419-1.2342858-1.63433628-2.5043479-2.24637168-3.866087-.02241888-.0178882-.06949853-.0536646-.09191741-.0715528-.26005899-.6238509-.55374631-1.2298137-.81156342-1.8514286-.15020649-.3778882-.29817109-.7535403-.4438938-1.1314285-.07622419-.2258385-.15244838-.4516771-.22643068-.6775156-.07622419-.2258385-.15244838-.449441-.22643068-.6752795-.36542773-1.2499379-.7218879-2.5088198-.88778761-3.8034782-.9819469-5.491677-.19728614-11.1868323 1.69710914-16.4012423l.09864307.0402485c.06053098-.272795.12554573-.5433541.19728614-.809441.22643068-.4606211.40578171-.9413665.60530973-1.4131677.01793511-.0156522.05380531-.0447205.07174042-.0603727.45734513-1.1247205.99539823-2.2226087 1.65451327-3.244472 0-.0357764 0-.1118013 0-.1475777 1.03126844-1.6971428 2.0939233-3.3741615 3.31575221-4.9438509.26902655-.3488199.54926254-.6886957.8160472-1.0397516l.04035398-.0335403c.57616519-.713292 1.21734518-1.3729193 1.79126848-2.0862112.8900295-.901118 1.7531563-1.8335404 2.7328613-2.6407454.5290856-.44049685 1.0245428-.92347821 1.5670797-1.34832293.8855457-.70434783 1.7867846-1.39080746 2.7261357-2.02583851 1.1007669-.7378882 2.2149852-1.46906833 3.4166371-2.03925466l.0470797-.22136646c.0964011.0447205.2869616.13192546.3811209.17440994l-.0269026-.25043479c.459587-.21242236.919174-.42037267 1.3944542-.59925465.0044838-.05590063.0156933-.17217392.020177-.23031056l.3856047.17217391.0694986-.35329193c.0672566.01341615.2017699.03801243.2690265.05142858.4102655-.20571429.8317404-.40024845 1.2711505-.53888199l-.0246608-.10062112c.3833628-.10732919.7622419-.22360248 1.1500885-.31751553l-.0179351-.09167702c.9012389-.27726708 1.7755752-.65068323 2.7082006-.80720497zm35.4846018 18.449441c.2286725 6.5224845.4618289 13.047205.6949852 19.5696894.9976401-.2459627 1.9952802-.4963975 2.9951622-.7468323-.2353982-6.5224844-.4618289-13.0449689-.6972271-19.5674534-.999882.2459627-1.9952802.4941615-2.9929203.7445963zm-12.4447198 3.1036025c.239882 6.5202484.4775221 13.0427329.719646 19.5629813 3.2955752-.8183851 6.5911505-1.6434782 9.8867257-2.4640993-.0313865-.9055901-.0627729-1.8111802-.0986431-2.7167702-2.2889675.5679503-4.5779351 1.1448447-6.8691445 1.710559-.0739823-2.0325466-.1502065-4.0650932-.2264307-6.0976398 2.138761-.5366459 4.279764-1.0688198 6.4207669-1.6032298-.0403539-.903354-.0807079-1.8067081-.1233038-2.7100621-2.1320354.5299379-4.2640708 1.0643478-6.3961062 1.5942857-.0650147-1.7619876-.1277876-3.5239751-.1883186-5.2859627 2.2867257-.5724224 4.5756932-1.1448447 6.8646608-1.712795-.0313864-.9145342-.0672566-1.8290684-.100885-2.7436025-3.2978171.8183851-6.5933923 1.6434782-9.8889675 2.4663354zm-13.7584661 3.4300621c.0358702.9234782.0717404 1.8469565.1098525 2.7704348 2.540059-.630559 5.0778761-1.2700621 7.6179351-1.8983851-2.3696755 5.3172671-4.7371091 10.6367702-7.1179941 15.9495652-.4057817.8832298-.1434808 1.8737888-.1277876 2.8039751 3.9905605-.995031 7.9833628-1.9900621 11.9739233-2.9850931-.0336283-.9145342-.0672566-1.8290683-.1053687-2.7436025-2.739587.6819876-5.4746903 1.3684472-8.2142773 2.0459627 2.3651917-5.2703105 4.719174-10.5473292 7.0978171-15.8131677.4685546-.9279503.2084956-1.9878261.1928024-2.9783851-3.8089676.9480746-7.6156932 1.9006212-11.4269027 2.8486957zm-5.1428908 1.2834782c.1412389 4.0829814.2892035 8.1659628.4349262 12.2489441.0291446 1.341615-.0044838 2.7771429-.7286136 3.96-.739823 1.1962733-2.158938 1.793292-3.5152802 1.9274535-.8541593.1028571-1.7912684-.1654659-2.3225959-.8698137-.699469-.9145342-.7577581-2.1219876-.8205309-3.2265839-.1502065-4.0650931-.2892036-8.1301863-.441652-12.1952795-1.0066076.2504348-2.0132153.5008696-3.0175811.7535404.1389971 4.0427329.2667847 8.0854659.4147493 12.1259627.0762242 1.7888199.499941 3.7252174 1.8562832 4.9997516 1.1904425 1.1180124 2.9413569 1.3773913 4.5084366 1.1314286 2.1880825-.3398758 4.4277286-1.2924224 5.7369911-3.150559 1.2061357-1.6971429 1.4460177-3.8526708 1.3742773-5.8762733-.1479646-4.1947826-.3071387-8.3873292-.459587-12.5798758-1.0088496.2481988-2.0132154.4986335-3.019823.7513043zm-24.36259591 6.0775156c.02466077.9145341.05156342 1.8313043.08070797 2.7480745 1.60967554-.4002484 3.21935104-.8049689 4.82902654-1.2029814.2152212 5.6057143.4237168 11.2114286.6411799 16.8149069 1.0066077-.2481988 2.0132154-.5008696 3.0198231-.7535404-.1995281-5.6079503-.4035399-11.2159006-.600826-16.826087 1.6164012-.4047205 3.2350442-.8049689 4.8536873-1.2096894-.0358702-.9145342-.0717404-1.8290683-.1076106-2.7413665-4.23941 1.0554038-8.4765782 2.1130435-12.71598821 3.1706833z" fill="#92c674" transform="translate(0 9)"/><g fill="#fff" transform="translate(8.519174 28.006211)"><path d="m55.7736873.94583851c.9976401-.25043478 1.9930384-.49863354 2.9929204-.74459627.2353982 6.52248447.4618289 13.04496896.6972271 19.56745346-.999882.2504347-1.9975221.5008695-2.9951622.7468323-.2331564-6.5224845-.4663127-13.04720502-.6949853-19.56968949z"/><path d="m43.3289676 4.04944099c3.2955752-.82285714 6.5911504-1.64795031 9.8889675-2.4663354.0336283.91453416.0694985 1.82906832.100885 2.74360248-2.2889676.56795032-4.5779351 1.14037268-6.8646608 1.71279504.060531 1.76198757.1233038 3.52397515.1883186 5.28596269 2.1320354-.5299378 4.2640708-1.0643478 6.3961062-1.59428568.0425958.90335408.0829498 1.80670808.1233038 2.71006208-2.1410029.53441-4.2820059 1.0665839-6.420767 1.6032298.0762242 2.0325466.1524484 4.0650932.2264307 6.0976398 2.2912095-.5657143 4.580177-1.1426087 6.8691446-1.710559.0358702.9055901.0672566 1.8111801.098643 2.7167702-3.2955752.8206211-6.5911504 1.6457143-9.8867256 2.4640994-.2421239-6.5202485-.479764-13.042733-.719646-19.56298141z"/><path d="m29.5705015 7.47950311c3.8112094-.94807454 7.6179351-1.90062112 11.4269026-2.84869566.0156932.99055901.2757522 2.05043479-.1928023 2.9783851-2.3786431 5.26583855-4.7326254 10.54285715-7.0978171 15.81316765 2.739587-.6775155 5.4746902-1.3639751 8.2142772-2.0459627.0381121.9145342.0717405 1.8290683.1053688 2.7436025-3.9905605.9950311-7.9833629 1.9900621-11.9739233 2.9850932-.0156932-.9301864-.2779941-1.9207454.1277876-2.8039752 2.3808849-5.312795 4.7483186-10.6322981 7.1179941-15.9495652-2.540059.62832298-5.0778761 1.26782608-7.6179351 1.8983851-.0381121-.92347827-.0739823-1.84695653-.1098525-2.77043479z"/><path d="m24.4276106 8.76298137c1.0066077-.25267081 2.0109735-.50310559 3.019823-.75130435.1524484 4.19254658.3116224 8.38509318.459587 12.57987578.0717405 2.0236025-.1681415 4.1791304-1.3742772 5.8762733-1.3092626 1.8581366-3.5489086 2.8106832-5.7369912 3.150559-1.5670796.2459627-3.3179941-.0134162-4.5084366-1.1314286-1.3563421-1.2745341-1.780059-3.2109317-1.8562832-4.9997515-.1479646-4.0404969-.2757522-8.0832298-.4147492-12.1259628 1.0043658-.2526708 2.0109734-.5031056 3.0175811-.7535403.1524484 4.0650931.2914454 8.1301863.4416519 12.1952795.0627729 1.1045962.121062 2.3120497.820531 3.2265838.5313274.7043478 1.4684366.9726708 2.3225959.8698137 1.3563422-.1341615 2.7754572-.7311801 3.5152802-1.9274534.7241298-1.1828572.7577581-2.6183851.7286136-3.96-.1457227-4.0829814-.2936873-8.1659628-.4349263-12.24894413z"/><path d="m.06501475 14.8404969c4.23941003-1.0576398 8.47657817-2.1152795 12.71598815-3.1706832.0358703.9122981.0717405 1.8268323.1076107 2.7413664-1.6186431.4047205-3.23728617.804969-4.85368735 1.2096895.19728614 5.6101863.40129794 11.2181366.60082596 16.8260869-1.00660767.2526708-2.01321534.5053416-3.01982301.7535404-.21746312-5.6034783-.4259587-11.2091926-.64117994-16.8149068-1.60967551.3980124-3.21935103.8027329-4.82902655 1.2029813-.02914454-.9167702-.05604719-1.8335403-.08070796-2.7480745z"/></g></g><path d="m90.144 44.936v1.408h6.272v-1.408zm6.272-2.304v-1.408h-6.272v1.408zm-6.272 6.016v3.744h-2.784v-13.664h11.84v11.04c0 1.728-.992 2.624-2.944 2.624h-2.432l-.672-2.528 2.272.128c.64 0 .992-.288.992-.864v-.48zm19.808-7.456h-5.28c-2.08 0-3.104-1.024-3.104-3.072v-7.232h2.88v2.88c3.232-.704 5.888-1.44 7.936-2.208l.896 2.464c-2.56.832-5.504 1.568-8.832 2.272v1.216c0 .704.352 1.056 1.12 1.056h3.904c.608 0 1.056-.128 1.344-.352.352-.256.608-1.056.736-2.336l2.624.864c-.256 2.144-.736 3.424-1.376 3.872-.64.384-1.568.576-2.848.576zm-5.504 5.792v1.472c0 .64.32.96 1.024.96h4.256c.544 0 .96-.128 1.216-.384.32-.256.544-1.056.608-2.4l2.72.864c-.224 2.272-.672 3.616-1.312 4.064-.576.384-1.504.608-2.72.608h-5.632c-2.048 0-3.04-1.056-3.04-3.136v-6.912h2.88v2.336c3.008-.448 5.664-1.184 8-2.208l.896 2.464c-2.752 1.088-5.728 1.824-8.896 2.272zm-14.88 6.08 2.432 1.184c-1.152 2.4-2.496 4.48-4.032 6.208l-2.464-1.76c1.6-1.568 2.944-3.456 4.064-5.632zm7.712.448c.576 1.888 1.12 3.904 1.568 6.08l-2.976.704c-.384-2.368-.832-4.416-1.408-6.176zm6.496-.128c.832 1.92 1.568 4.032 2.208 6.304l-2.944.704c-.576-2.432-1.28-4.544-2.08-6.4zm6.144-.512c1.92 2.24 3.424 4.224 4.48 5.92l-2.432 1.728c-1.088-1.856-2.56-3.936-4.416-6.208zm-12.896-21.248c1.664 1.984 2.944 3.68 3.84 5.152l-2.24 1.536c-.288-.48-.576-.96-.896-1.408-3.072.448-6.752.768-11.04.992l-.704-2.24c.448-.16.864-.384 1.184-.704 1.664-1.536 2.976-3.072 3.872-4.544l2.752.832c-1.088 1.728-2.272 3.136-3.616 4.256 1.92-.128 3.968-.352 6.112-.64-.448-.64-.928-1.248-1.44-1.856zm20.896 12.544h13.216v-4.096c2.528-1.472 4.96-3.2 7.296-5.248h-17.152v-2.848h21.248v2.848c-2.432 2.4-5.216 4.672-8.352 6.784v2.56h11.904v2.976h-11.904v9.792c0 2.08-1.056 3.136-3.136 3.136h-5.6l-.832-2.944c1.6.064 3.36.096 5.216.096.864 0 1.312-.416 1.312-1.248v-8.832h-13.216zm45.248-11.968h3.04v25.696h-3.04zm9.568-1.28h3.04v29.28h-3.04zm-19.072.128h3.04v12.48c-.064 7.744-1.856 13.376-5.376 16.928l-2.336-2.08c3.072-3.072 4.608-8.032 4.672-14.848z" fill="#545454"/></g></svg>