<svg height="90" viewBox="0 0 180 90" width="180" xmlns="http://www.w3.org/2000/svg"><g fill="none" fill-rule="evenodd"><path d="m7.65 0h.37702703c4.28108107 1.14324324 8.73243247 2.43243243 12.19864867 5.33918919 4.6459459 3.67297297 6.5310811 10.72702701 3.7945946 16.06621621-1.3986487 2.8216216-4.2689189 4.3662162-6.7256757 6.1054054 1.4837838-4.1351351 2.0067568-8.8175676-.9608108-12.454054-.2797297 3.1378378-.5716216 6.6648648-4.0135135 7.9175675-.9121622-.5472973-2.73648652-1.654054-3.64864868-2.2013513.08513514 2.4567567.20675676 4.9135135.36486487 7.3824324-3.98918919-1.3013513-8.34324325-3.9891892-8.31891892-8.7324324-.31621622-5.1567568 4.98648648-7.4189189 7.66216216-10.95810814 1.95810807-2.63918918.49864865-5.88648648-.72972973-8.46486486z" fill="#e72c42" transform="translate(97.297297 2)"/><g fill="#1a1919" transform="translate(0 16.594595)"><path d="m0 2.96756757c2.57837838-2.68783784 7.04189189-2.12837838 10.277027-1.10675676 1.9702703 5.58243243.4378379 11.93108109.8635135 17.80540539 5.5581081-2.1648648 12.4054054-3.3445946 17.622973.2675676 4.6094595 3.6243243 3.5635135 10.1310811 3.7216216 15.2878378-.3283783 5.7527027.6932433 11.6513514-.6324324 17.3067568-2.9797297 1.1310811-7.3702703 1.6783784-9.9243243-.3040541-1.9216216-7.7594594.5959459-16.1391892-1.2405406-23.9716216-2.2986486-3.077027-6.5189189-.8513513-9.4986486-.1824324-.0608108 6.4824324.0121622 12.9527027.0121622 19.4351351-.2310811 1.7148649.2797297 3.8675676-1.0337838 5.2418919-3.28378382 1.2040541-7.00540544.8391892-10.1675676-.5837838z"/><path d="m78.0689189 12.3810811c2.5540541-1.8851352 6.0567568-2.78513515 9.2067568-2.44459461 2.554054 1.95810811 1.0702702 5.82567571 1.5202702 8.58648651 2.6635136.3527027 5.9837838-.7783784 8.1486487 1.2162162.5716216 2.3351351 1.1067568 5.4-.4986487 7.4189189-2.3594594 1.1675676-5.1567567.4864865-7.6864864.7175676.0972973 4.877027-.2918919 9.7905405.2067567 14.6554054.5837838 3.8189189 5.7405406 1.7391892 7.6743243 4.1837838 1.045946 2.6635135.6810811 7.2486486-3.0162162 7.4067567-5.6675675.7418919-13.5-.3648648-15.3121621-6.7986486-1.3986487-6.3364865-.4621622-12.9040541-.7418919-19.3378379-1.8121622-.377027-4.2081081.2432433-5.5094595-1.4229729-.5472973-1.7756757-.7175676-3.8310811.1094595-5.545946 1.5202702-1.2405405 3.5513513-1.5202703 5.3391892-2.1891892.1216216-2.1405405-.145946-4.3783784.5594594-6.4459459z"/><path d="m45.4621622 19.0581081c5.5824324-1.9824324 12.15-2.0554054 17.5256756.6081081 5.5824325 2.9675676 6.9810811 9.8878379 6.9932433 15.677027.1094594 6.0810811-.9486487 13.4513514-6.75 16.7594595-5.6189189 2.8945946-12.6851352 2.8459459-18.4621622.4378378-6.4459459-3.0405405-7.7472973-10.9459459-7.5527027-17.331081-.0851351-6.2027027 1.872973-13.6702703 8.245946-16.1513514zm5.777027 7.9540541c-4.1716216 3.1986486-2.8094595 9.7054054-2.395946 14.2905405.1945946 4.7675676 7.9783784 5.5945946 9.2067568 1.0702703 1.1067568-4.1837838 1.1189189-8.7445946-.0364865-12.9283784-.754054-2.8581081-4.3662162-3.4175676-6.7743243-2.4324324z" fill-rule="nonzero"/><path d="m106.297297 18.972973c2.760811-.6445946 5.752703-.6932433 8.513514.0243243 1.727027 1.1310811 1.07027 3.5391892 1.301351 5.2783784-.206757 12.1864865.304054 24.4094594-.255405 36.5837838-.547298 7.6256756-9.121622 12.15-16.0783786 10.4716216-2.9554054-1.2405406-2.1527027-5.4486487-1.4594595-7.9054054 2.2621621-1.5689189 6.5554051-1.4108108 6.5310811-5.0351352.389189-11.8094594 0-23.631081.145946-35.4527027.121622-1.3864864-.097297-3.1378378 1.301351-3.9648648z"/><path d="m123.895946 20.8216216c1.313513-2.0310811 4.074324-2.0554054 6.19054-2.6027027 5.801352-.8148648 12.393244-1.3135135 17.55 1.9945946 4.366217 3.1013514 4.013514 9.0608108 4.037838 13.8040541-.218919 5.9229729.401352 11.8945946-.328378 17.7689189-1.885135 2.8094594-6.324324 1.7635135-8.148649-.6932433-4.694594 3.1256757-10.921621 4.3418919-16.2 1.9337838-7.552702-3.4297297-7.759459-16.4554054.158108-19.5689189 4.451352-1.654054 9.267568-1.6905405 13.925676-2.2986486-.535135-1.3013514.10946-3.4662163-1.471622-4.0864865-4.682432-1.5081081-9.413513 1.0337838-14.132432.7783784-2.663513-1.1918919-2.237838-4.7310811-1.581081-7.0297298zm10.362162 17.622973c-3.15 1.0702703-3.393243 6.3972973-.377027 7.7472973 2.310811 1.204054 4.828378-.2189189 7.017568-1.0216216-.060811-2.6513514-.060811-5.2905406-.072973-7.9297298-2.201352.3405406-4.43919.522973-6.567568 1.2040541z" fill-rule="nonzero"/><path d="m157.5 20.7608108c.401351-2.8337838 3.952703-1.9459459 5.971622-2.2256757.51081.5594595 1.52027 1.6662163 2.018919 2.2256757 3.977027-2.1405405 8.866216-4.3297297 13.317567-2.3594594 1.277027 2.2378378 1.435135 5.8135135-.291892 7.8445945-3.308108.7054055-6.689189 1.045946-9.924324 2.0554055-.425676 7.8081081.364865 15.6648648-.401351 23.4364864-1.544595 2.6270271-5.33919 1.3986487-7.844595 1.5567568-2.663514.2675676-3.235135-2.5540541-3.028378-4.5972973.109459-9.3040541-.255406-18.6445946.182432-27.9364865z"/></g></g></svg>