<svg height="90" viewBox="0 0 180 90" width="180" xmlns="http://www.w3.org/2000/svg"><g fill="none" fill-rule="evenodd" transform="translate(0 35)"><g fill="#8b8b8b" transform="translate(0 .835443)"><path d="m17.9796136 0h.4696869c.5918054 6.24683544.1502998 12.5218521.2818121 18.787475h-18.7311126v-18.29900065c3.4568954 2.29207195 5.61745503 6.18107928 9.41252498 7.98467688 3.33477682-2.254497 5.93684212-5.45776149 8.56708862-8.47315123z"/><path d="m22.1034644 0h18.7217188c-.0563624 4.03930713.3757495 8.13497668-.4321119 12.1179214-.9111926 3.5884077-4.2271819 5.9462358-7.7122585 6.6695536h-2.5738841c-3.400533-.8172551-6.6601599-3.1093271-7.5431712-6.6507661-.8266489-3.99233848-.394537-8.09740177-.4602931-12.1367089z"/><path d="m44.2069287 0h9.3373751v18.787475h-9.3373751c0-6.2656229 0-12.52185208 0-18.787475z"/></g><path d="m66.5772152 1.6556962h2.3240506l6.0607595 13.8759494h.0683544l6.0379747-13.8759494h2.3240507v16.2683544h-1.8683545v-12.94177212h-.0683544l-5.6278481 12.94177212h-1.6860759l-5.6278481-12.94177212h-.0683545v12.94177212h-1.8683544zm24.9949367 4.16962026c1.6860759 0 2.9164557.43291139 3.7367089 1.32151898.6835443.77468355 1.0481012 1.84556962 1.0481012 3.21265826v7.5645569h-1.7088607v-1.9822784c-.4556962.6379746-1.0708861 1.1620253-1.8 1.5721519-.8658228.478481-1.8455697.7291139-2.9392405.7291139-1.1848102 0-2.1189874-.2962026-2.8253165-.8886076-.7291139-.6151899-1.0936709-1.4126582-1.0936709-2.3696203 0-1.3443038.5240507-2.3468354 1.6177215-3.0303797.9569621-.6379747 2.3240507-.9797469 4.1012659-1.0025317l2.8253164-.0455696v-.6151899c0-1.98227844-1.0253164-2.96202528-3.0759494-2.96202528-.8658227 0-1.5721519.15949367-2.1189873.52405064-.6151899.36455696-1.0025316.93417721-1.1848101 1.68607595l-1.8-.13670886c.2506329-1.23037975.8658228-2.16455697 1.8227848-2.75696203.8658228-.54683544 1.9822785-.82025316 3.3949367-.82025316zm2.9620253 6.44810124-2.7113924.0455696c-2.643038.0455697-3.964557.9113924-3.964557 2.6202532 0 .5468354.2050633.9797468.6607595 1.3443038.4556962.3417722 1.0481013.5240506 1.7772152.5240506 1.1164557 0 2.0962026-.3645569 2.9620253-1.0936708.843038-.7063292 1.2759494-1.5265823 1.2759494-2.4379747zm7.7924048-9.93417719v3.80506329h2.916456v1.52658228h-2.916456v7.49620252c0 .4329114.068355.7518987.250633.9341772.159494.1822785.455696.2962026.865823.2962026h1.503797v1.5265822h-1.777215c-.956962 0-1.663291-.2506329-2.073417-.7518987-.387342-.4556962-.569621-1.1164557-.569621-2.0050633v-7.49620252h-2.36962v-1.52658228h2.36962v-3.05316456zm9.797469 3.48607595c1.891139 0 3.326582.63797468 4.283544 1.91392405.865823 1.1392405 1.321519 2.75696199 1.367089 4.80759489h-9.296203c.091139 1.321519.432911 2.3468355 1.070886 3.0759494s1.526582 1.0936709 2.643038 1.0936709c.956962 0 1.75443-.2506329 2.346836-.7291139.501265-.4101266.888607-1.0253165 1.18481-1.8455696h1.822784c-.273417 1.1392405-.797468 2.0506329-1.594936 2.7797468-.979747.8658228-2.232912 1.321519-3.759494 1.321519-1.686076 0-3.053164-.5696203-4.055696-1.6632912-1.048101-1.1392405-1.549367-2.6430379-1.549367-4.556962 0-1.7316456.478481-3.18987341 1.481012-4.35189872 1.002532-1.23037975 2.346836-1.84556962 4.055697-1.84556962zm.045569 1.52658227c-1.048101 0-1.891139.34177216-2.529114 1.02531646-.637974.6835443-1.002531 1.59493671-1.116455 2.75696201h7.359493c-.227848-2.52911391-1.481012-3.78227847-3.713924-3.78227847zm12.918988-1.52658227c.637974 0 1.18481.09113924 1.617721.27341772v1.82278481c-.592405-.18227848-1.18481-.25063291-1.75443-.25063291-.911393 0-1.686076.38734177-2.301266 1.20759493-.637975.77468355-.934177 1.70886079-.934177 2.80253169v6.2430379h-1.8v-11.7797468h1.8v2.05063291c.318987-.6835443.729114-1.23037975 1.230379-1.61772152.61519-.50126582 1.321519-.75189873 2.141773-.75189873zm4.648101-4.12405064c.387342 0 .706329.11392405.979747.38734177.273417.22784811.410126.54683545.410126.95696203 0 .38734177-.136709.70632911-.410126.97974684-.273418.25063291-.592405.38734177-.979747.38734177s-.706329-.13670886-.979747-.38734177c-.273418-.27341773-.387342-.59240507-.387342-.97974684 0-.41012658.113924-.72911392.387342-.95696203.273418-.27341772.592405-.38734177.979747-.38734177zm-.911393 4.44303798h1.822785v11.7797468h-1.822785zm10.367089-.31898734c1.686076 0 2.916456.43291139 3.736709 1.32151898.683544.77468355 1.048101 1.84556962 1.048101 3.21265826v7.5645569h-1.708861v-1.9822784c-.455696.6379746-1.070886 1.1620253-1.8 1.5721519-.865822.478481-1.845569.7291139-2.93924.7291139-1.18481 0-2.118987-.2962026-2.825317-.8886076-.729113-.6151899-1.09367-1.4126582-1.09367-2.3696203 0-1.3443038.52405-2.3468354 1.617721-3.0303797.956962-.6379747 2.324051-.9797469 4.101266-1.0025317l2.825316-.0455696v-.6151899c0-1.98227844-1.025316-2.96202528-3.075949-2.96202528-.865823 0-1.572152.15949367-2.118987.52405064-.61519.36455696-1.002532.93417721-1.18481 1.68607595l-1.8-.13670886c.250632-1.23037975.865822-2.16455697 1.822784-2.75696203.865823-.54683544 1.982279-.82025316 3.394937-.82025316zm2.962025 6.44810124-2.711392.0455696c-2.643038.0455697-3.964557.9113924-3.964557 2.6202532 0 .5468354.205063.9797468.66076 1.3443038.455696.3417722 1.048101.5240506 1.777215.5240506 1.116455 0 2.096202-.3645569 2.962025-1.0936708.843038-.7063292 1.275949-1.5265823 1.275949-2.4379747zm5.012659-10.93670884h1.8v16.58734174h-1.8zm12.805063.31898734h1.868354v10.0481013c0 1.5949367.341772 2.8025316 1.070886 3.6227848.751899.843038 1.936709 1.2759493 3.554431 1.2759493 1.594936 0 2.779747-.4329113 3.55443-1.2759493.706329-.8202532 1.070886-2.0278481 1.070886-3.6227848v-10.0481013h1.868355v10.0253165c0 2.1189873-.546836 3.7367088-1.617722 4.8531645-1.116456 1.1392405-2.734177 1.7088608-4.875949 1.7088608s-3.759494-.5696203-4.853165-1.686076c-1.093671-1.1392405-1.640506-2.756962-1.640506-4.8759493zm16.405063 0h1.84557v16.2683544h-1.84557z" fill="#272e2e"/></g></svg>