<svg height="90" viewBox="0 0 180 90" width="180" xmlns="http://www.w3.org/2000/svg"><g fill="#f34" fill-rule="evenodd" transform="translate(0 26)"><path d="m16.2 0h.6573913c2.3165217 1.56521739 7.2.57913044 7.0121739 4.53913043-.0313043 8.38956527-.0782609 16.79478257-.0313043 25.18434787-1.1269566 4.2730434-5.1026087 6.6365217-9.0626087 7.8417391h-6.27652177c-3.13043478-1.1895652-6.08869565-2.8330435-8.49913043-5.1652174v-.5321739c1.59652174-1.8313044 3.25565217-3.6156522 4.88347826-5.4 2.45739131 2.0660869 5.52521744 4.5860869 8.93739134 3.0991304 2.8173913-1.4713043 2.4886956-4.9773913 2.5356521-7.653913-.1252174-7.3095652.1565218-14.61913046-.1565217-21.9130435z"/><path d="m32.5095652 0h91.5339128c3.881739 1.62782609 8.342609 2.23826087 11.441739 5.35304348 8.013913 6.93391302 7.622609 21.03652172-.79826 27.46956522-3.16174 2.786087-7.434783 3.3652174-11.269566 4.7426087h-90.751304c-.2347827-12.5217391.0469565-25.0434783-.1565218-37.5652174zm8.1234783 7.93565217c-.0626087 7.23130433-.0313044 14.46260873-.0156522 21.69391303 27.1721739.0156522 54.3286957.0156522 81.4852177 0 5.963478.4069565 11.191304-5.0086956 10.753043-10.9252174.281739-5.7913043-4.773913-11.09739128-10.627826-10.75304345-27.2034782-.04695652-54.3913043-.03130435-81.5947825-.01565218z" fill-rule="nonzero"/><path d="m163.095652 0h5.493913c4.382609.28173913 8.06087 3.27130435 11.410435 5.1026087v.40695652c-2.535652.68869565-2.958261 4.30434782-4.946087 5.85391308-3.897391-2.58260873-8.686956-5.40000004-13.429565-3.146087-8.624348 3.4591304-8.624348 17.5930435-.062609 21.0991304 4.773913 2.2226087 9.813913-.2347826 13.507826-3.3026087 1.533913 1.6278261 3.208696 3.0991305 4.930435 4.5234783v1.4869565c-3.678261 2.0034783-6.996522 5.04-11.441739 5.5408696h-6.777391c-8.624348-1.8313044-15.464348-9.8139131-15.073044-18.7826087-.344348-9.31304348 7.137391-17.82782609 16.387826-18.7826087z"/></g></svg>