<svg height="90" viewBox="0 0 180 90" width="180" xmlns="http://www.w3.org/2000/svg"><g fill="#313439" fill-rule="evenodd" transform="translate(0 18)"><path d="m92.3527559 8.45433071c.1346457-2.96929134 1.0133858-5.94566929 3.2244095-8.04330709 1.2614173.65196851 2.515748 1.33228347 3.7488189 2.03385827-1.8992126 2.53700787-3.2740158 5.41417323-4.3086615 8.40472441-.9-.7866142-1.7858267-1.58740158-2.6645669-2.39527559z"/><path d="m22.1031496 5.83228346c1.3748032-.92125984 2.7708661-1.80708661 4.2023622-2.63622047.1984252 1.31102362.4393701 2.61496063.4464567 3.94015748.3259843 1.9488189-2.0622047 2.43779528-2.8133858 3.91181103-2.0692914 4.0677165-3.6779528 8.3551181-5.492126 12.5433071.7086614.9708661 1.4102362 1.9417323 2.1047244 2.919685-1.1834646.2338583-2.3669291.4606299-3.5503937.680315-1.9559055 5.0173228-3.911811 10.0984252-4.4929134 15.4913386-1.5944882-1.1125985-3.58582676-1.9629922-4.48582676-3.7913386-.00708661-3.7417323 1.8992126-7.1433071 3.13228346-10.5944882-2.57952755.5314961-5.15905511 1.0700787-7.7527559 1.5661417-.36850393-1.5661417-.72283464-3.1322834-1.06299212-4.7055118 3.53622047.0496063 7.0511811-.3755905 10.54488192-.8787401 2.1755905-4.96063 4.5070866-9.8574804 7.1574803-14.58425201-6.0023622.92834641-12.9897638.45354331-17.73779529 4.91102361-.8503937-1.6582677-1.69370079-3.323622-2.30314961-5.08818897v-1.28976377c6.97322835-2.87007875 14.7259843-2.13307087 22.1031496-2.3952756z"/><path d="m75.4511811 4.77637795c1.5732283.58110236 3.1181102 1.21889764 4.6559055 1.88503937-2.8346457 5.27952758-4.7551181 10.97716538-6.7535433 16.61102358 1.580315-2.4874015 2.9125984-5.2937007 5.3433071-7.0866141 2.7566929.7440945 4.7480315 3.2102362 4.6488189 6.1086614.9141732-.1204725 1.8283464-.2409449 2.7425197-.3685039.8503937-2.1826772 1.7716535-4.3370079 2.8488189-6.4204725 1.5661417.6094488 3.1110236 1.2755906 4.627559 1.9913386-3.0685039 6.0448819-5.3503937 12.4937008-6.5834645 19.1692913 2.0267716-2.7141732 4.1102362-5.435433 5.5700787-8.5110236 2.1401575-4.4362205 3.2385827-10.303937 8.0929129-12.6283464 2.78504 1.2614173 6.647245 3.5291338 5.938583 7.1291338-.538583 2.8204725-2.253543 5.5204725-4.790551 6.9307087-1.388976.935433-2.9551181 0-4.372441-.3543307-.6307086 2.9338582-2.0905511 6.0661417-.7086614 9.0070866 4.6204724-2.6291339 8.2629924-6.6330709 11.3669294-10.8779528-1.325197-4.6700787 1.006299-10.5448819 5.966929-11.7708661 2.969291.6944882 6.073228 2.7496063 6.67559 5.9598425.956693-.2622047 1.913386-.5173228 2.877166-.7724409 1.885039-5.4283465 3.784252-10.8779528 6.406299-16.00157485 1.580315.58110236 3.13937 1.23307087 4.677165 1.93464567-2.891338 5.25826768-4.755118 10.97716538-6.781889 16.59685038 1.502362-2.6433071 3.217322-5.1732283 5.322047-7.384252 1.33937.8858268 2.834646 1.6299213 3.840945 2.9267717.595275 1.0417323.566929 2.3031496.822047 3.4582677.814961-.127559 1.622835-.2551181 2.444882-.3826771.85748-2.1826772 1.814173-4.3299213 2.841732-6.4417323 1.573228.6165354 3.11811 1.2897637 4.634646 2.0267716-3.033071 6.3496063-5.527559 13.0393701-6.689764 19.9984252 2.23937-3.011811 3.940158-6.3779527 5.683465-9.6874016 2.012598-3.7133858 3.004724-7.8661417 4.981889-11.6007874 1.679528.5811024 3.330709 1.2543308 4.93937 2.0125985-2.855905 5.4992126-4.804724 11.4519685-5.75433 17.5677165 2.806299-3.6425197 5.924409-7.3700787 6.73937-12.0472441.843307-3.7984252 3.429921-7.2850394 7.270866-8.4330709 1.084252.8574804 2.175591 1.7220473 3.281102 2.5653544 1.452756.5385827 2.728347 1.4102362 3.762992 2.5795275 2.707087-.6448819 5.414174-1.3677165 7.979528-2.4874015v.1913385c-2.133071 2.9055119-5.385827 4.6062993-8.695276 5.8181103-1.289763 4.188189-3.791338 9.0070866-8.829921 9.0708661-.361417.311811-.729921.6307087-1.084252.9425197 2.636221 1.6015748 5.435433 3.1251969 7.476378 5.5062992 1.105512 1.2968504 2.005512 3.2102362.907087 4.8047244-2.097638 3.4937008-5.520473 6.4984252-9.595276 7.3275591-4.620472.8858268-9.155905-3.784252-8.007874-8.3692914 1.105512-2.8771653 4.329921-3.8763779 6.966142-4.8472441-.864567-1.1480314-2.211024-2.1543307-2.381102-3.6779527-.06378-1.7858268 1.814173-2.5086614 2.969291-3.4653543-.737008-.7440945-1.466929-1.5023622-2.189764-2.26063-1.707874 4.372441-3.649606 8.8370079-7.107874 12.1393701-1.459842-1.2685039-3.330709-2.388189-3.933071-4.3440945-.184252-1.2968504-.099212-2.607874-.092126-3.911811-.949606 2.7212598-1.948819 5.492126-3.692126 7.8165354-1.700787 2.5511811-5.173228-.3259842-5.456693-2.5724409-.574015-4.5425197.98504-9 2.154331-13.3370079-.545669.184252-1.637008.5598425-2.182677.7440945-1.785827 6.1228347-3.529134 13.5212599-9.680315 16.696063-1.452756-.7086614-2.898425-1.4314961-4.329921-2.1826772-.070867.5669292-.226772 1.7078741-.297638 2.2748032-1.38189-1.580315-3.734646-3.0472441-3.437008-5.4212599.595276-4.8826771 2.133071-9.5811023 3.543307-14.2724409-3.004724 1.3535433-5.307874 3.6708661-7.490551 6.0590551-.651969-1.9062992-1.027559-3.8834646-1.112599-5.8889764.574016-.127559 1.722048-.3685039 2.296063-.4889763-.035433-1.0913386-.077952-2.1755906-.127559-3.2598426-1.970078 1.303937-4.188189 3.0897638-3.918897 5.7472441.524409 3.5929134 3.380315 6.3566929 3.911811 9.9496063-.722835 3.4866142-3.649607 6.9944882-7.433859 7.0440945-2.61496-.7086614-3.281102-3.7559055-4.266141-5.9031496-1.877953 2.1897638-3.507874 5.0740158-6.4417325 5.9102362-3.9188977-.2905511-7.511811-4.0889763-6.576378-8.1425196-1.1976378 3.1889763-3.0755905 6.0874015-5.435433 8.53937-1.6370079-1.4173228-4.0181103-2.8417323-3.876378-5.3149606.1275591-4.1669291 1.4740158-8.1496063 2.5724409-12.1251969-.8220472.2480315-1.6370078.5031497-2.4590551.7582678-1.1692913 4.5070866-2.6007874 9.0425197-5.2370078 12.9259842-1.1196851 1.5519685-2.5157481 3.196063-4.5212599 3.507874-1.5307086-.3472441-2.8913386-1.1622047-4.2803149-1.8566929-.0637796.5598425-.2055119 1.672441-.276378 2.2322835-2.203937-1.892126-4.2590551-4.3299213-3.3661417-7.4692914-1.8 2.6929134-3.6779528 5.9314961-6.9519685 6.9448819-3.8409449-.2976378-7.5118111-4.0251968-6.5196851-8.0362204-1.431496 2.5015748-3.1110236 4.9110236-5.307874 6.796063-.8362205.6590551-1.8496063 1.4385826-2.9834646 1.1763779-3.3732283-.6377953-6.2858267-3.692126-6.1086614-7.2496063-1.3322834 2.6858268-2.6291338 5.676378-5.2015748 7.4055118-2.4803149-1.0488189-5.3149606-3.5291338-4.2732283-6.519685.9637795-4.592126 2.9409449-8.8937008 4.4645669-13.3086614-.7228346-.8787402-1.4527559-1.7503937-2.1826772-2.6220473-3.1889763 7.2779528-6.5834645 14.6551181-7.6535433 22.6062992-1.523622-1.2826771-3.9685039-2.792126-2.9976378-5.1448819 1.856693-6.4913385 4.9535433-12.5291338 7.6535433-18.6944881-.6661417-2.6929134.0992126-5.7401575 2.3952756-7.4267717 1.5944882.3685039 2.9480315 1.3393701 4.3440945 2.1401575-.6874016 1.1125984-1.431496 2.203937-1.9629921 3.4086614 1.1763779 2.5866142 4.5566929 3.9543307 4.7834646 7.015748-1.1055118 4.5-3.1889764 8.7448819-3.9330709 13.3582677 2.6007874-3.3944881 5.2299213-6.8881889 6.5055118-11.0338582 1.5236221-3.7700788 3.0401575-8.3480315 7.0228347-10.1622047 2.7779527 1.2614173 6.6401574 3.5220472 5.9456692 7.1149606-.5811023 3.5149606-3.13937 6.4771653-6.4629921 7.7031496-.8787401-.4322835-1.7574803-.8645669-2.6362205-1.2968504-.5669291 2.1330709-1.1834645 4.2661417-1.4244094 6.4629921-.2338583 1.0062992.0708661 1.8212599.9070866 2.4519685 3.692126-1.892126 6.7181102-4.9606299 9.184252-8.2559055 2.1614173-4.2519685 2.9409449-9.3330709 6.4984252-12.784252.8362205-.7228346 1.9842519-1.9062992 3.103937-1.0062992 2.4023622 1.4031496 5.7755905 3.4795276 4.996063 6.76063-.680315 4.03937-4.6913386 9.1204724-9.1629921 6.5551181-.6307087 2.9338582-2.076378 6.0590551-.7228347 9.0070866 3.4582677-1.9629921 6.3992126-4.7055118 8.9503937-7.7385827 1.9204724-2.2322835 2.3314961-5.2511811 3.2385827-7.9582677 1.9488189-6.0519685 4.0677165-12.0826772 6.9590551-17.76614175zm-31.8685039 23.03858265c3.3803149-1.6015748 5.0669291-5.307874 5.0527559-8.9149606-2.7708662 2.2181102-3.8409449 5.7259843-5.0527559 8.9149606zm14.1732283 0c3.3732284-1.6086614 5.088189-5.3149606 5.0314961-8.9362204-2.7283465 2.2606299-3.8338583 5.7401574-5.0314961 8.9362204zm40.3937008 0c3.3732287-1.6015748 5.0811027-5.3149606 5.0385827-8.9291338-2.74252 2.2464567-3.8338583 5.7330708-5.0385827 8.9291338zm64.3606297-1.5307086c-.177165 1.1692913-.722834 2.7779527.510236 3.5503937 2.820473-.1913386 3.68504-3.3590551 4.889764-5.4-.39685-.2409449-1.197638-.7228347-1.594488-.9637796.099213-1.523622.226772-3.0401574.361417-4.5566929-1.941732 2.0834646-3.592913 4.5354331-4.166929 7.3700788zm-93.1818895 11.1543307c.4251968.1913386 1.2826771.5811023 1.7149606.7724409 3.6708661-2.9905512 4.9322835-7.8590551 6.4984252-12.1322834-.2409449-1.2259843-.4535433-2.4590552-.6519685-3.692126-2.7283465 4.9110236-5.4992126 9.8149606-7.5614173 15.0519685zm54.5669295 0c.425196.1913386 1.282677.5811023 1.707874.7724409 1.282677-1.0133858 2.395275-2.2393701 3.07559-3.7488189 1.807087-3.7559055 4.216536-7.7952756 2.827559-12.0968504-2.792126 4.8826772-5.527559 9.8291339-7.611023 15.0732284zm-17.822835-3.3448819c1.488189 1.8354331 3.366142 3.6850394 5.924409 3.5433071-.510236-3.068504-2.048031-5.7968504-3.259842-8.6173229-.807874 1.7362205-1.686614 3.4299213-2.664567 5.0740158zm50.952756 10.5874016c1.325197 3.4582677 6.158268 3.1181102 8.355118.715748-.559843-2.3952756-2.069291-4.3370079-3.947244-5.8677165-1.977165 1.0984252-4.733858 2.4519685-4.407874 5.1519685z" fill-rule="nonzero"/></g></svg>