<svg height="90" viewBox="0 0 180 90" width="180" xmlns="http://www.w3.org/2000/svg"><g fill="none" fill-rule="evenodd"><path d="m33.8505495 9.98901099c4.3714285-6.18461539 11.9670329-9.9956044 19.5758241-9.25054945 10.3516484.61318681 19.0087912 9.59999996 20.0505495 19.78681316 6.1186813 1.0153846 11.3406593 6.1186813 12.0593406 12.3428572 1.523077 8.3472527-5.6901099 17.0637362-14.3010989 16.4901099-13.9450549.0131868-27.8967033.0527472-41.8417582.0131868-1.2593407-2.3868132-2.3406593-5.0307693-1.9714286-7.7868132.6725275-5.7758242 6.4285715-10.2395605 12.1714286-9.7714286 5.9142857.2901099 11.0307692 3.9692308 14.9010989 8.2021978.810989-5.3274725 2.3604396-10.9318681 6.2505494-14.8681319 1.8461539-1.9582417 4.5956044-2.3010989 7.1076924-2.6967032-2.7362638-.5472528-5.756044-.5802198-8.1494506 1.054945-3.5868132 2.4989011-5.3538462 6.7120879-6.7384615 10.7010989-3.6461539-4.767033-9.3758242-7.8395604-15.3362638-8.3736264-8.7296703-.9098901-17.3802198 6.8637363-17.1494505 15.6989011-.1054945 2.756044.7186813 5.4197803 1.8857143 7.8857143-2.8681319-.1516483-5.7428572.0197802-8.6175825-.1252747-6.57362633-.4483517-12.29010984-5.8945055-13.42417578-12.3296703-.63296703-3.7582418-.14505494-7.7802198 1.87252748-11.0703297 3.01318681-5.3406593 9.4879121-8.4395604 15.5340659-7.2989011.7252748-3.9230769 3.3296704-7.5692308 7.1472528-8.96703297 2.8879121-1.21978022 6.1516483-.85054945 8.9736264.36263736z" fill="#e4e7f2" transform="translate(0 20)"/><g fill="#777d8f" transform="translate(105.494505 20.659341)"><path d="m62.8087912.44835165h3.5406593c-.3758241 2.14285714-.7582417 4.28571428-1.1406593 6.42857143 1.4505495-.15164835 3.0725275.19120879 4.3978022-.53406594.6065934-1.47032967.7714286-3.07912088 1.1010989-4.62197802 1.0747253-.00659341 2.156044-.01318681 3.2373626-.01978022-.6395604 2.52527473-.3098901 6.6-3.6263736 7.22637363-5.5978022.32307692-11.221978.03296703-16.832967.13186813.4351648-2.44615385.8637362-4.89230769 1.2989011-7.33846154 1.0879121-.00659341 2.1758242-.01318681 3.2637362-.01978022-.2967032 1.70769231-.6065934 3.41538462-.9164835 5.11648352h4.5428572c.389011-2.12307693.7582417-4.24615385 1.1340659-6.36923077z"/><path d="m5.7956044 2.55164835h26.4989011c-.1516484.85054945-.2967033 1.6945055-.4483517 2.54505495-8.8351648 0-17.676923.01318681-26.51868127-.00659341.15164835-.84395604.30989011-1.69450549.46813187-2.53846154z"/><path d="m42.567033 2.68351648c3.4021978 0 6.8043956-.0065934 10.2065934.00659341-.145055.7978022-.2901099 1.6021978-.4351649 2.40659341-1.087912 0-2.1692307.0065934-3.2505494.01318681-.5010989 2.77582418-1.0021978 5.55164839-1.4835165 8.33406589.9428571 0 1.8923077.0065935 2.8351648.0131869-.1384615.7846153-.2835164 1.5692307-.421978 2.3538461-.9494505.0065934-1.8923077.0131868-2.8351648.0197802-.5934066 3.3494506-1.1868132 6.6989011-1.7736264 10.0549451 1.2065934-.3758242 2.4131868-.7516484 3.6197802-1.1274725-.1714285.8703296-.3494505 1.7340659-.5208791 2.6043956-3.5406593 1.410989-7.2725275 2.2813186-11.0637363 2.6241758.1714286-.9494506.3428572-1.8989011.5208792-2.8483517 1.2593406-.1516483 2.5120879-.2967033 3.7780219-.4351648.6-3.632967 1.2527473-7.2593407 1.912088-10.8791209-1.0021978 0-2.0109891 0-3.0131869 0 .1582418-.7912088.3098902-1.5824176.4681319-2.3670329.9824176-.0065934 1.9648352-.0065934 2.9538462-.0131869.4879121-2.7824175.9824175-5.55824171 1.4703296-8.3406593-1.1340659 0-2.2615384 0-3.3956044 0 .1384616-.8043956.2835165-1.60879121.4285715-2.41978022z"/><path d="m51.5010989 13.8461538c.1384615-.7516483.2835165-1.5032967.4285714-2.2483516h21.9296704c-.0923077.5604396-.2769231 1.6879121-.3758242 2.2483516-3.3362638 0-6.6791209 0-10.0153846 0-.3824176 1.0879121-.7714286 2.1758242-1.1604396 3.2571429 3.1582418-.0131868 6.3098901 0 9.4615385-.0065934-.7252748 3.989011-1.3714286 8.0043956-2.1428572 11.9868132-.2571428 1.3384615-.8835165 2.7956044-2.221978 3.3494505-1.2791209.4549451-2.6703297.3428572-3.9956044.4681319-.0395604-.3494505-.1120879-1.0483516-.1450549-1.3912088-.9032967 0-1.8 0-2.6967033 0 .7120879-3.9956044 1.4175824-7.9912088 2.1296703-11.9868132-.9494506-.0065934-1.8989011-.0065934-2.8483517-.0065934-.7054945 4.0021978-1.410989 8.0043956-2.1032967 12.0065934-.9560439-.0065934-1.9054945-.0131868-2.854945-.0197802.7252747-3.9956044 1.4307692-7.9912088 2.1362637-11.9934066-.9428571.0065934-1.8923077.0065934-2.8285714.0065934-.8241758 4.5098901-1.6021978 9.0263736-2.4065934 13.5362638-.9956044 0-1.9846154 0-2.9802198 0 .9626374-5.3142858 1.8791209-10.6417583 2.8285714-15.956044h7.134066c.4417582-1.0747253.8769231-2.156044 1.3054945-3.2373626-2.8549451-.0197803-5.7164835-.0131869-8.578022-.0131869zm13.8857143 5.6769231c-.6395605 3.7120879-1.3384616 7.4175824-1.9582418 11.1362638.9494506-.178022 1.8923077-.3956044 2.8285715-.6527473 1.1538461-3.389011 1.3714285-7.0087912 2.1032967-10.4901099-.989011 0-1.9846154 0-2.9736264.0065934z" fill-rule="nonzero"/><path d="m1.03516484 12.5736264c10.85934066-.0065934 21.72527476.0065934 32.59120876-.0065934-.1450549.8505494-.2967033 1.7010989-.4417582 2.5516483-5.9142857.0131868-11.8285714-.0197802-17.7428572.0197802-2.8483516 4.6549451-6.43516479 8.8351649-10.64835161 12.3032967 6.36263741-.0197802 12.73846151-.1450549 19.05494501-1.021978-.5142857-1.8923077-1.0813186-3.7714286-1.6945054-5.6307692 1.0813186-.0065934 2.1626373-.0065934 3.2505494 0 1.4835165 3.5208791 2.4923077 7.2263736 3.1648352 10.9846154-1.2791209 0-2.5648352.0065934-3.8439561.0131868-.1252747-.8967033-.2505494-1.7934066-.3758242-2.6835165-7.9318681.8307692-15.91648347 1.167033-23.89450544 1.1472528.17142857-.9494506.34285714-1.8923077.52087912-2.8417583 3.83736263-3.6461538 7.31208791-7.7076923 10.00219782-12.2835165-3.46813189-.0131868-6.93626376-.0065934-10.40439563-.0065934.15164836-.843956.30329671-1.6945055.46153847-2.5450549z"/><path d="m47.2549451 37.9978022c1.5164835-1.1538462 3.5076923-.8703297 5.2813186-.7582418.0065934.356044.0131868 1.0681319.0131868 1.4241759-1.5824175-.1120879-3.454945-.6989011-4.7736263.5208791-1.5824176 1.2791209-2.5054945 3.9824176-1.0351649 5.6769231 1.3582418 1.3582417 3.4021978.3362637 5.0439561.4021978-1.556044 2.0901099-5.2483517 2.2285714-6.7384616.0131868-1.2065934-2.5252747-.0989011-5.7824176 2.2087913-7.2791209z"/><path d="m56.3472527 37.3516484c1.8725275-.6659341 4.5164836-.2241759 5.2285715 1.8857142.843956 2.8879121-.7186813 6.5604396-3.745055 7.4175825-1.6615384.4153846-3.9692307.2703296-4.7868132-1.5032967-1.3054945-2.8549451.2835165-6.7846154 3.3032967-7.8zm.6065935 1.1208791c-2.5846154.7912088-3.956044 4.7340659-1.9318682 6.7120879 3.6395605 2.0571428 6.9758242-3.6791209 4.4637363-6.389011-.745055-.4813187-1.6945055-.4945055-2.5318681-.3230769z" fill-rule="nonzero"/><path d="m72.1054945 37.2725275c.4351648-.0131868 1.3120879-.0329671 1.7472528-.0461539-.534066 3.1318682-1.0945055 6.2505495-1.6417583 9.3824176-.3494505.0131868-1.0483516.0395604-1.3912088.0527473.4087912-2.3802198.8307693-4.7604396 1.2659341-7.134066-1.5494506 2.610989-3.0593407 5.2483517-4.9252747 7.6549451-.8373627-2.5516484-1.4835165-5.156044-2.123077-7.7604396-.4087912 2.3868132-.8175824 4.7802198-1.232967 7.167033-.3362637.0263736-1.021978.0725275-1.3648352.0923077.5538462-3.1252747 1.1142858-6.2505495 1.6417583-9.3824176.4483516-.0197802 1.3516483-.0527473 1.8-.0725275.6197802 2.4329671 1.232967 4.8659341 1.8065934 7.3186813 1.4373626-2.4527472 2.9274725-4.8593406 4.4175824-7.2725274z"/><path d="m41.8087912 45.2505495c.3164835.0395604.956044.1120879 1.2725275.1516483-.389011.8505495-.8637363 2.0571429-1.9384616 1.1472527-.0857142-.7450549.1318682-1.1802197.6659341-1.298901z"/></g><g fill="#eb757c" opacity=".98" transform="translate(106.153846 56.923077)"><path d="m26.9010989 1.77362637c1.6285714-1.25934066 3.778022-.94285714 5.6769231-.72527472 0 2.16923077-2.1956044.88351648-3.5010989 1.14725275-2.5912088.49450549-4.378022 4.14065934-2.6901099 6.32307692 1.2461538 1.36483516 3.1582417.59340659 4.6813187.27692308-.1120879.36923076-.323077 1.11428571-.4285715 1.4901099-1.7868131.1978022-3.8835164.7318681-5.3802197-.58021979-2.0307693-2.4-.8043956-6.29010989 1.6417582-7.93186814z"/><path d="m.14505495.68571429c2.45934065.11208791 2.2087912 3.01318681 2.97362637 4.71428571 1.39120879-1.69450549 2.16923077-4.37142857 4.62197802-4.72087912-1.66153846 3.25054945-4.81318681 5.82197802-4.85274725 9.73846152-.32967033-.0065934-.9956044-.032967-1.32527473-.0461538 1.18021978-3.34945058-.6-6.50109893-1.41758241-9.68571431z"/><path d="m8.6967033.98241758c1.767033.15164835 4.1604396-.58021978 5.367033 1.11428572.6461538 1.76043956-.6725275 3.21758241-1.9912088 4.15384615.7252747 1.37802198 1.3846154 2.78901099 2.043956 4.20000005-.4285714-.0329671-1.2923077-.0989011-1.7208791-.1318682-.7252747-1.58901097-1.2131868-3.63296701-3.1912088-4.03516482-.27692307 1.36483517-.53406593 2.72967033-.78461538 4.10109892-.34285714.0065934-1.02857143.0131868-1.37142857.0197802.52747253-3.14505494 1.09450549-6.28351648 1.64835165-9.42197802zm1.3846154.87692308c-.30989013 1.18021978-.56043958 2.38021978-.79120881 3.58021978 1.45714281-.09230769 3.85054941-.67912088 3.22417581-2.65714286-.7912088-.36923077-1.6153846-.63956044-2.432967-.92307692z" fill-rule="nonzero"/><path d="m15.9494505 4.30549451c.3824176-1.40439561.0791209-3.50769231 2.0241759-3.64615385-.2901099 2.39340659-.9296704 4.74065934-1.1010989 7.14725275.1516483 1.99120879 3.0923077 1.99780219 3.8901099.45494505 1.2791208-2.57142857.6065934-5.79560439 2.5054945-8.11648351.5802197 2.62417582-.2637363 5.29450549-.9032967 7.83296703-.7186814 2.77582422-5.3010989 3.74505492-6.7516484 1.14065934-.3560439-1.6021978.1120879-3.23076923.3362637-4.81318681z"/><path d="m34.021978.93626374c2.0043956.15824175 4.4505495-.37582418 6.0131868 1.22637362 1.8593407 1.87252748.9296704 5.0967033-.8241758 6.71208791-1.8131868 1.80000003-4.5296703 1.54285713-6.8637363 1.53626373.5604396-3.15824175 1.1076924-6.31648351 1.6747253-9.47472526zm1.2461539 1.03516483c-.4747253 2.46593407-.9098901 4.93846154-1.3252748 7.41758242 2.8021978.17142857 5.8879121-1.63516484 5.6175825-4.76043956-.0065934-2.27472528-2.6505495-2.36703297-4.2923077-2.65714286z" fill-rule="nonzero"/></g></g></svg>