<svg height="90" viewBox="0 0 180 90" width="180" xmlns="http://www.w3.org/2000/svg" xmlns:xlink="http://www.w3.org/1999/xlink"><linearGradient id="a" x1="50%" x2="50%" y1="0%" y2="100%"><stop offset="0" stop-color="#6faeff"/><stop offset="1" stop-color="#3c76ff"/></linearGradient><g fill="none" transform="translate(0 29)"><path d="m24.28125 31.28125h-5.55625l-8.75-15.35625-5.25 6.3v9.05625h-4.725v-31.15h4.725v15.6625l12.73125-15.6625h5.775l-10.10625 12.20625zm8.0270834 0h-4.4625v-22.18125h4.4625zm.13125-26.55625h-4.725v-4.725h4.725zm37.0541666-.35h-15.18125v9.49375h12.95v4.24375h-12.95v13.16875h-4.725v-31.15h19.90625zm20.7583334 15.79375c0 3.7625-.525 6.5625-2.625 8.75-1.44375 1.4875-3.63125 2.625-6.65 2.625s-5.1625-1.1375-6.60625-2.625c-2.1-2.1875-2.625-4.9875-2.625-8.75 0-3.71875.525-6.51875 2.625-8.70625 1.44375-1.4875 3.5875-2.625 6.60625-2.625s5.20625 1.1375 6.65 2.625c2.1 2.1875 2.625 4.9875 2.625 8.70625zm-4.4625 0c0-2.40625-.175-4.725-1.53125-6.08125-.83125-.83125-1.96875-1.26875-3.28125-1.26875s-2.40625.4375-3.2375 1.26875c-1.35625 1.35625-1.53125 3.675-1.53125 6.08125s.175 4.725 1.53125 6.08125c.83125.83125 1.925 1.3125 3.2375 1.3125s2.45-.48125 3.28125-1.3125c1.35625-1.35625 1.53125-3.675 1.53125-6.08125zm18.7895836 11.1125h-2.75625c-4.2437504 0-6.0812504-2.84375-6.0812504-6.125v-25.025h4.4625004v24.7625c0 1.70625.6125 2.58125 2.40625 2.58125h1.96875zm21.589583 0h-4.375v-2.3625c-1.6625 2.0125-3.45625 2.625-5.8625 2.625-2.23125 0-4.2-.74375-5.425-1.96875-2.23125-2.23125-2.49375-6.0375-2.49375-9.40625s.2625-7.13125 2.49375-9.3625c1.225-1.225 3.15-1.96875 5.38125-1.96875 2.3625 0 4.2.56875 5.81875 2.49375v-11.2h4.4625zm-4.4625-11.1125c0-3.9375-.56875-7.35-4.59375-7.35s-4.6375 3.4125-4.6375 7.35.6125 7.39375 4.6375 7.39375 4.59375-3.45625 4.59375-7.39375zm28.808333 1.3125h-14.39375c0 3.80625 2.0125 6.2125 5.64375 6.2125 2.49375 0 3.80625-.7 5.38125-2.275l2.84375 2.66875c-2.275 2.275-4.41875 3.45625-8.3125 3.45625-5.55625 0-9.975-2.93125-9.975-11.375 0-7.175 3.71875-11.33125 9.40625-11.33125 5.95 0 9.40625 4.375 9.40625 10.675zm-4.41875-3.10625c-.04375-1.35625-.175-2.0125-.6125-3.01875-.7-1.6625-2.275-2.8-4.375-2.8s-3.71875 1.1375-4.41875 2.8c-.4375 1.00625-.525 1.6625-.56875 3.01875zm25.483334-7.4375-3.36875 3.36875c-1.00625-1.00625-1.79375-1.4875-3.325-1.4875-2.40625 0-4.41875 1.925-4.41875 4.9875v13.475h-4.4625v-22.18125h4.375v2.40625c1.1375-1.575 3.4125-2.66875 5.90625-2.66875 2.14375 0 3.7625.56875 5.29375 2.1z" fill="url(#a)"/><path d="m180 31.28125h-5.3375v-5.3375h5.3375z" fill="#ff4040"/></g></svg>