<svg height="90" viewBox="0 0 180 90" width="180" xmlns="http://www.w3.org/2000/svg"><g fill="#88ce7f" fill-rule="evenodd" transform="translate(0 18)"><path d="m.20606061.05208845c8.84520884-.0029484 17.68746929-.0029484 26.52972969 0 .0678133 3.68255528-.1385749 7.37395578.123833 11.04766585.3331695-4.2958231 3.2520884-8.19066339 7.1528255-9.94496315 2.5090909-1.19705159 5.3572482-1.22063882 8.0727273-1.04078624 4.1100737.35085996 7.9105651 2.95135136 9.7945946 6.61031941 1.185258 2.1936118 1.5036855 4.72628998 1.397543 7.18525798.0737101 3.4142506-1.3031941 6.8461917-3.797543 9.1931204-1.9872236 1.9990172-4.7056511 3.1194103-7.4742015 3.4791155 3.4054054.4009828 6.6486487 2.1169533 8.7272727 4.8707617 1.9223588 2.4530712 2.7154791 5.6314496 2.5474202 8.7125307.1297297 3.4997543-1.2235872 7.0525798-3.7886978 9.461425-2.4648649 2.4707617-6.0176904 3.6707617-9.4761671 3.4997543-3.3228501.1592138-6.7400491-.9228501-9.1872236-3.2137592-2.2909091-2.0461916-3.8063882-4.9769042-3.9773955-8.0609336-.2388207 3.7503685-.0560197 7.5095823-.1149878 11.2658476-8.8422604.0029484-17.68746925.0029484-26.52972969 0-.00294841-17.6904177-.00294841-35.377887 0-53.06535625zm3.53513513 3.53513514c-.0029484 15.33169531-.0029484 30.66339071 0 45.99508601 6.48648646.0029484 12.97297296.0029484 19.45945946 0 .0029484-15.3316953.0029484-30.6633907 0-45.99508601-6.4864865-.00294841-12.972973-.00294841-19.45945946 0zm34.26044226.06781327c-2.780344.32727272-5.3189189 2.09336609-6.651597 4.54348894-1.1616708 1.9990172-1.1646192 4.37543-1.0496315 6.6162162.1621622 3.0427519 2.0786241 5.8879607 4.7882064 7.2619165 2.0402948 1.1144963 4.434398 1.0496314 6.6869779.9257985 3.0250614-.2624079 5.8054054-2.2496314 7.0997543-4.9886978 1.0142506-1.9990172.9287469-4.3017199.8167076-6.4746929-.2742015-3.08402944-2.3351351-5.90565107-5.15086-7.16756753-2.034398-.96707617-4.3518427-.85208845-6.5395577-.71646191zm-11.1479115 11.66093364c-.153317 1.5862408-.1179362 3.1813268-.1179362 4.7734644.0530713 5.8437346-.1031941 11.6904177.0855037 17.5282555.3007371-2.6388206 1.4211302-5.1891892 3.2727273-7.1027027 2.019656-2.2378378 4.9002457-3.5410319 7.8633907-3.9213759-1.4122851-.2800983-2.8452089-.5513514-4.1395578-1.2058968-3.8653562-1.822113-6.7400491-5.7641278-6.9641277-10.0717445zm11.1479115 14.8746929c-2.6447174.3095823-5.0653563 1.9223587-6.4481572 4.1867322-1.2117937 1.8840295-1.3886978 4.1867322-1.2796069 6.3685503-.0265357 2.8216217 1.4211302 5.5695332 3.7149877 7.1970516 1.8810811 1.4122851 4.2987715 1.7808354 6.5985258 1.6452089 3.2756757.1356265 6.5071253-1.7159705 8.0638821-4.5995086 1.1734643-2.004914 1.1734643-4.390172 1.061425-6.6398035-.1651106-3.0427518-2.0815725-5.8791154-4.785258-7.2560196-2.1169533-1.1469288-4.5995086-1.0555283-6.9257985-.9022113z" fill-rule="nonzero"/><path d="m89.769697 15.0004914c2.4501228-2.6034398 6.4068796-3.24914 9.7798525-2.4796069 3.5764125.7783784 6.5749385 3.9302212 6.8108105 7.6422605-1.250122.0117936-2.500245.0501228-3.74742-.0265357-.421621-1.5685503-1.362162-3.0486486-2.8422602-3.797543-2.1759214-1.214742-5.1331696-.8963145-6.8963145.8992629-1.9076167 1.8810811-2.4176904 4.7027027-2.3439804 7.2825553.0206389 2.2407863.6044226 4.5847666 2.1346438 6.2859951 2.3056511 2.5562654 6.9140049 2.3823096 9.0132673-.3449631.445209-.5985258.704669-1.3061425.981819-1.9931204 1.226535-.0058968 2.456019-.0088452 3.685503.0117936-.16511 2.4324324-1.595086 4.6879607-3.647174 5.9823096-1.872236 1.2353808-4.1690419 1.6511056-6.3832925 1.5154791-2.8746929.0029484-5.7582309-1.3798526-7.4152334-3.753317-1.7955774-2.4619164-2.3321867-5.6108108-2.246683-8.597543.044226-3.0958231.8815724-6.3714987 3.1164619-8.627027z"/><path d="m120.061589 12.3410319c3.122359-.3980344 6.622113.2388207 8.907125 2.5474202 1.866339 1.7454545 2.830467 4.2339066 3.193121 6.7164619.309582 3.3670762.159213 6.9995086-1.713023 9.9331695-1.424078 2.3764128-3.980344 3.9626536-6.704668 4.345946-2.541523.2742015-5.257002.1385749-7.512531-1.1882064-2.809828-1.5980344-4.481572-4.6791155-4.917936-7.8191646-.480589-3.555774-.188697-7.4594595 1.895823-10.4963145 1.527273-2.2968059 4.121868-3.7651106 6.852089-4.0393121zm.22113 3.4142507c-2.765602.5778869-4.611302 3.1783783-5.062408 5.8437346-.492383 2.9985258-.280098 6.4068796 1.724816 8.8452088 2.17887 2.7744472 6.855037 2.9248158 9.240295.3449632 1.721867-1.822113 2.27027-4.419656 2.296806-6.8520885-.100246-2.3292383-.636855-4.8206388-2.343981-6.5218673-1.471253-1.5685504-3.794594-2.1110565-5.855528-1.6599508z" fill-rule="nonzero"/><path d="m168.837019 12.4206388c3.025061-.5601965 6.533661-.1179361 8.774447 2.1759214 1.179361 1.0968059 1.730713 2.6918919 1.830958 4.2692875-1.220639.0265356-2.444226.0235872-3.661916.0176904-.265356-.8550369-.586732-1.7542998-1.32973-2.3115479-1.807371-1.368059-4.493366-1.3886978-6.400983-.212285-1.341523.7754299-1.854545 2.8864864-.666339 4.0186732 1.073219.9847666 2.556266 1.2914005 3.924325 1.654054 2.355773.6044226 4.920884 1.0260443 6.813759 2.6830467 1.727764 1.5685504 1.895823 4.1690418 1.391646 6.3095823-.686978 2.6653563-3.287469 4.3341524-5.876167 4.7734644-2.665356.3832924-5.578379.3714988-7.978379-1.0054054-2.043243-1.0555283-3.343488-3.2461917-3.402457-5.5341523 1.23833-.0147421 2.479607-.0117937 3.720885-.0176905.250614 1.0437347.801966 2.0373465 1.751351 2.5945946 1.630467.958231 3.691401 1.2353809 5.492875.6044226 1.323833-.3980344 2.582801-1.471253 2.727273-2.9159705.056019-1.2471744-.88747-2.2850123-1.969533-2.7656019-2.945455-1.353317-6.504177-1.1911548-9.134153-3.2579853-2.016707-1.5272727-2.293857-4.3990172-1.657002-6.6810811.769533-2.4501228 3.216707-3.980344 5.64914-4.3990172z"/><path d="m77.1888616 12.7773956c1.244226-.0117936 2.4884521-.0117936 3.7326781 0 .0117936 7.5479115.014742 15.0958231 0 22.6407862-1.2471744.0176904-2.4914005.014742-3.7356265.0058968-.0029484-7.5508599-.0117936-15.0987715.0029484-22.646683z"/><path d="m138.02326 12.7773956c1.138083-.014742 2.279115-.0029484 3.423095-.0265356 3.871254 5.3955773 7.639312 10.8678132 11.507617 16.2692874.029484-5.4162162-.005897-10.829484.017691-16.2427518 1.223587-.014742 2.453071-.014742 3.679606 0 .017691 7.5479115.011794 15.0958231.002949 22.6437346-1.158723.0206388-2.317445.0176904-3.476167.014742-3.829976-5.4044226-7.648157-10.814742-11.472236-16.2250614-.023587 5.4044226.011794 10.8088452-.014742 16.2132678-1.226536.0176904-2.450123.0176904-3.67371-.0058968-.002949-7.5449631-.014742-15.0928747.005897-22.6407862z"/></g></svg>