<svg height="90" viewBox="0 0 180 90" width="180" xmlns="http://www.w3.org/2000/svg"><g fill="none" transform="translate(0 25)"><path d="m27.2268908 27.3333333h13.6134453v13.6666667h-13.6134453z" fill="#ff46fb"/><path d="m13.6134454 27.3333333h13.6134454v13.6666667h-13.6134454z" fill="#ca41fc"/><path d="m0 27.3333333h13.6134454v13.6666667h-13.6134454z" fill="#8b48fe"/><path d="m40.8403361 13.6666667v13.6666666h-13.6134453v-13.6666666z" fill="#81e650"/><path d="m27.2268908 13.6666667v13.6666666h-13.6134454v-13.6666666z" fill="#00d267"/><path d="m13.6134454 13.6666667v13.6666666h-13.6134454v-13.6666666z" fill="#00c0ff"/><path d="m27.2268908 0h13.6134453v13.6666667h-13.6134453z" fill="#ffd200"/><path d="m13.6134454 0h13.6134454v13.6666667h-13.6134454z" fill="#ff8e00"/><path d="m0 0h13.6134454v13.6666667h-13.6134454z" fill="#ff5400"/><path d="m180 9.357635c-.184414-.04083053-.399562-.08191785-.645445-.12326194-.225906-.04083054-.487159-.07164599-.783757-.0924465-.297366-.0202868-.620089-.03081545-.968168-.03081545-1.106478 0-2.039302.15407739-2.796932.46223218-.758399.30815494-1.378487.73469251-1.859499 1.27884251-.481778.5446638-.829859 1.1763811-1.045007 1.8951523-.215148.7192847-.322723 1.4896718-.322723 2.3111612v.8012025h-2.028544v3.8827509h2.028544v11.2784668h5.286509v-11.2784668h2.581782v-3.8827509h-2.581782v-.4622321c0-.6571403.179033-1.1247652.537872-1.4021045.358068-.2773394.783754-.4160091 1.275523-.4160091.204391 0 .384195.0105287.537871.0308155.153677.0208005.291988.041344.41493.061631.122941.0208004.245884.0413441.368826.0616309zm-23.036011 12.1875235c.194657-.4622323.430297-.8368972.706916-1.1247652.276619-.2873544.578852-.4930477.906698-.6163097.327589-.1232619.634944-.1848928.922065-.1848928.348335 0 .763265.0616309 1.244788.1848928.481267.123262.875962.3289553 1.183317.6163097v5.485156c-.28712.4314168-.640579.7241639-1.060374.8782413-.420053.1540774-.834982.2311161-1.244789.2311161-.368826 0-.727407-.0665101-1.075744-.2003007-.348592-.133277-.660813-.3438493-.937432-.6317173-.276619-.2873545-.50227-.6725479-.676181-1.1555806-.174168-.4825192-.261253-1.0731492-.261253-1.7718903 0-.6779407.097074-1.2480271.291989-1.7102593zm-5.1482 5.2848553c.368826 1.0068958.865461 1.8489289 1.490672 2.5268695.624956.6779406 1.357231 1.1863962 2.19759 1.5253665.840104.3389703 1.741423.5084554 2.704725.5084554.676182 0 1.403333-.1594701 2.182222-.47764.778633-.3181699 1.434068-.7444507 1.967073-1.2788425v1.3866968h4.794741v-21.44757621h-5.28651v6.99511461c-.471533-.4722472-.983536-.8112175-1.536775-1.0169108-.553239-.2051798-1.260157-.3081548-2.120751-.3081548-.778888 0-1.578013.169485-2.39737.5084554-.819614.3389702-1.567511.8474258-2.243692 1.5253664-.676181.6779407-1.229421 1.5204873-1.659718 2.5268695-.430297 1.0068959-.645445 2.1778843-.645445 3.5129652 0 1.3355943.184412 2.5065827.553238 3.512965zm-12.447371-6.1014657c.34808-.4106162.737653-.6982274 1.16795-.8628334.430297-.1640925.850093-.2465239 1.260156-.2465239.368826 0 .722285.0616309 1.060375.1848928.338091.123262.634945.3235626.89133.6009019.255873.2773394.465899.6422461.630078 1.0939497.163667.4522173.245884.9966241.245884 1.6332206 0 .7395717-.097585 1.3558812-.291987 1.848929-.194914.4930478-.435676.8936491-.722285 1.2018039-.287121.3081548-.604721.5238632-.952801.6471251-.348592.123262-.676181.1848929-.983536.1848929-.348592 0-.743031-.0616309-1.183317-.1848929-.440799-.1232619-.814492-.3284417-1.121847-.6163097zm.061471 9.3370914c.512003.5138482 1.070365.8628335 1.675086 1.0477263.604209.184893 1.224042.2773394 1.859499.2773394.819357 0 1.649216-.1694851 2.489576-.5084554.839848-.3389703 1.598247-.8523049 2.274428-1.5407741.676182-.6879557 1.229421-1.5561819 1.659718-2.6039084.430297-1.0477264.645446-2.2698171.645446-3.6670424 0-1.2734498-.174424-2.398215-.522504-3.3742954-.348592-.9755668-.824992-1.7921771-1.429201-2.449831-.604722-.6571401-1.311638-1.1555806-2.120751-1.4945508-.809625-.3389704-1.665096-.5084554-2.566415-.5084554-.778889 0-1.57289.1594701-2.382003.47764-.809624.3186834-1.501173.7449642-2.074647 1.2788425v-1.3866968h-4.79474v20.8312664h5.286508zm-14.13808.95528h5.286508v-21.44757621h-5.286508zm-8.851828 0h5.286508v-21.44757621h-5.286508zm-18.8557261-4.1909057c.358325 1.0068958.8500931 1.8489289 1.4753048 2.5268695.6246993.6779406 1.3523623 1.1863962 2.1822213 1.5253665s1.726056.5084554 2.689358.5084554c.676181 0 1.403332-.1540774 2.182221-.4622322.778377-.3081548 1.434068-.729043 1.967073-1.2634347v1.3558812h4.79474v-15.4077415h-4.733269v1.4791431c-.594476-.6779406-1.239922-1.1555806-1.936337-1.4329199-.696928-.2773393-1.413834-.4160089-2.151486-.4160089-.778889 0-1.582879.169485-2.412738.5084554-.829859.3389702-1.582879.8474258-2.2590604 1.5253664-.6761813.6779407-1.2347994 1.5204873-1.6750856 2.5268695-.4407985 1.0068959-.6608135 2.1778843-.6608135 3.5129652 0 1.3355943.1790343 2.5065827.5378714 3.512965zm5.1481991-5.2848553c.184413-.4622323.414929-.8368972.691549-1.1247652.276619-.2873544.573473-.4930477.89133-.6163097.317344-.1232619.619576-.1848928.906697-.1848928.34808 0 .763009.0567519 1.244789.1694852.481267.1132468.875962.3340912 1.183317.6625328v5.4543405c-.287121.4314168-.640579.7241639-1.060375.8782413-.420309.1540774-.835238.2311161-1.244789.2311161-.368826 0-.722284-.0665101-1.060375-.2003007-.338091-.133277-.645446-.3438493-.922065-.6317173-.27662-.2873545-.497147-.6725479-.660814-1.1555806-.164179-.4825192-.245884-1.0731492-.245884-1.7718903 0-.6779407.092207-1.2480271.27662-1.7102593zm-31.1350765 9.475761h5.2865085v-10.1074784c.2253939-.3900726.5173813-.6828198.8759621-.8782412.358325-.194908.7017943-.2927472 1.0296398-.2927472.5734735 0 1.014272.1540774 1.3216272.4622322.3073551.3081549.4610326.95528.4610326 1.9413755v8.8748591h5.2865085v-10.1074784c.2253939-.3900726.5173813-.6828198.8759621-.8782412.358325-.194908.7017943-.2927472 1.0296398-.2927472.5734735 0 1.014272.1540774 1.3216272.4622322.3073551.3081549.4610326.95528.4610326 1.9413755v8.8748591h5.2865085v-9.7376927c0-1.9308467-.410063-3.4205185-1.2294206-4.468245-.8196136-1.0477264-2.0697806-1.5715895-3.7497327-1.5715895-1.0450074 0-1.9568277.2465237-2.7354608.7395715-.7788892.4930478-1.4035884 1.0685268-1.8748664 1.7256671-.8605944-1.6432357-2.3156649-2.4652386-4.364443-2.4652386-1.0450074 0-1.9363373.2262369-2.6739897.6779406-.7376524.4522171-1.3421176.9760803-1.8133954 1.5715895h-.1229421l-.184413-1.8797444h-4.4873852zm-18.656201-2.1262684c.5324928.4727609 1.1779386.8936491 1.9363374 1.2634348.6554348.3081549 1.469926.590887 2.4434734.8474258.9730351.256539 2.125617.3851935 3.4577454.3851935 1.4340679 0 2.6893575-.1800137 3.7651004-.5392709 1.0757431-.3592572 1.967073-.8474258 2.6739898-1.4637354.7069169-.6163097 1.2342871-1.3350809 1.582879-2.1570838.3480796-.8214895.5225037-1.6948516.5225037-2.6193161 0-1.7256671-.4869018-3.0761556-1.4599369-4.0522359-.9735474-.9755669-2.3002971-1.7102594-3.9802491-2.2033071-.9220654-.2668108-1.7058211-.4930477-2.3512669-.6779406-.6454458-.184893-1.1679495-.3643931-1.5675112-.539271-.3995616-.1743642-.6866826-.3592572-.8605944-.5546787-.1744241-.1949079-.2612519-.4362959-.2612519-.7241639 0-.5338781.2458841-.9706877.7376524-1.3096579.4917682-.3389704 1.1679496-.5084555 2.0285439-.5084555.5939639 0 1.1933064.1132469 1.7980276.3389703.604209.2262371 1.1625708.4727608 1.6750856.7395716.5939638.3289552 1.1679495.6884691 1.7211887 1.0785419l2.3358992-4.7455844c-.6761813-.4314168-1.4138337-.8214894-2.2129571-1.1709883-.6761813-.28735441-1.4704383-.55467867-2.3820024-.80120256-.9120764-.24652388-1.890234-.36978583-2.9352416-.36978583-1.3523627 0-2.5356799.19028556-3.549952.57008648-1.0142718.38031431-1.8594986.88363401-2.5356798 1.50995861-.6761813.6268382-1.1833174 1.3458662-1.5214079 2.1570838-.3380907.8117312-.5071361 1.6486284-.5071361 2.5114618 0 1.6232057.4249186 2.9428786 1.2755239 3.9597896.8500931 1.016911 2.0539007 1.7618752 3.6114229 2.2341225 1.0450075.3081548 1.9209696.5600714 2.6278865.7549793.7069169.1954215 1.2755239.3851937 1.705821.5700865.4302972.1848928.7376524.3751785.9220654.5700865.1844132.1954215.2766198.4468245.2766198.7549793 0 .5138481-.2973662.9349931-.8913301 1.2634347-.594476.3289553-1.3935993.4930478-2.3973701.4930478-.655947 0-1.2860251-.1232619-1.8902341-.3697858-.6047212-.2465239-1.1425927-.5238633-1.6136145-.832018-.5532393-.3489854-1.0862442-.7495866-1.5982467-1.2018039z" fill="#212121"/></g></svg>