<svg height="90" viewBox="0 0 180 90" width="180" xmlns="http://www.w3.org/2000/svg" xmlns:xlink="http://www.w3.org/1999/xlink"><mask id="a" fill="#fff"/><mask id="b" fill="#fff"><path d="m33.8672269 11.987395-11.7983193-10.67142861c-2.0820088.92274991-3.8242881 2.47203023-4.9840337 4.43193277-.001757.0201298-.001757.0403744 0 .0605042 0 0 0 0-.0378151-.0605042-.4159664-.7184874-4.5378151-7.48739496-11.91932771-4.00084034-7.27563025 3.4184874-6.37563025 12.62268908.01512605 18.74117648 5.86890756 5.6117647 10.53529416 9.5369748 11.89663866 10.0134454 1.3613445-.4764706 6.0504202-4.4016807 11.9042017-10.0134454 2.4655755-2.2673016 4.1805993-5.2329735 4.9159664-8.5008403z" fill="#fff" fill-rule="evenodd"/></mask><g fill="none" fill-rule="nonzero" transform="translate(0 29)"><path d="m33.8672269 11.987395-11.7983193-10.67142861c-2.0820088.92274991-3.8242881 2.47203023-4.9840337 4.43193277-.001757.0201298-.001757.0403744 0 .0605042 0 0 0 0-.0378151-.0605042-.4159664-.7184874-4.5378151-7.48739496-11.91932771-4.00084034-7.27563025 3.4184874-6.37563025 12.62268908.01512605 18.74117648 5.86890756 5.6117647 10.53529416 9.5369748 11.89663866 10.0134454 1.3613445-.4764706 6.0504202-4.4016807 11.9042017-10.0134454 2.4655755-2.2673016 4.1805993-5.2329735 4.9159664-8.5008403z" fill="#eb3656"/><path d="m31.9689076 14.2336134c-5.687395 0-10.0815126-3.9857142-10.0815126-10.32352937h2.0344537c.0041608 4.44376868 3.6032961 8.04628647 8.0470589 8.05462187.8396839-.0031934 1.6738548-.1358444 2.4731092-.3932773l.6957983 2.1554622c-1.0232844.3336665-2.092599.5046548-3.1689075.5067226z" fill="#8e243f" mask="url(#a)"/><path d="m22.0689076 1.31596639c-.1360089.63653569-.2069618 1.28524812-.2118736 1.93613445-.0100436 2.94125129 1.3929942 5.70842304 3.7716397 7.43848326 2.3786455 1.73006 5.4434493 2.2124835 8.2385532 1.2968109z" fill="#f49d9a" mask="url(#b)"/><path d="m47.2303361 8.64672269c2.2257984 0 3.9819328.71470588 5.2684034 2.16453781 1.2252101 1.3681513 1.8378151 3.1855462 1.8378151 5.4317647s-.612605 4.0431933-1.8378151 5.4113445c-1.2864706 1.4294118-3.042605 2.1441177-5.2684034 2.1441177-2.2462185 0-4.0023529-.7351261-5.2684033-2.1645378-1.2252101-1.3885714-1.817395-3.1855462-1.817395-5.3909244 0-2.2257983.5921849-4.0227731 1.817395-5.4113445 1.2660504-1.47025213 3.0221848-2.18495801 5.2684033-2.18495801zm0 2.10327731c-1.5110924 0-2.675042.5105042-3.5122689 1.5315126-.7963865.9801681-1.1843697 2.2870588-1.1843697 3.9615126 0 1.6540336.3879832 2.9609244 1.1843697 3.9410924.8168067 1.0005883 2.0011765 1.5110925 3.5122689 1.5110925 1.5110925 0 2.6750421-.490084 3.4918488-1.4498319.7963865-.9597479 1.2047899-2.2870589 1.2047899-4.002353s-.4084034-3.0630252-1.2047899-4.0431933c-.8168067-.980168-1.9807563-1.4498319-3.4918488-1.4498319zm13.9953782 1.9194958c2.6342017 0 3.9615126 1.4294118 3.9615126 4.3290756v6.5140336h-2.3278992v-6.3098319c0-1.7357143-.7963865-2.5933613-2.3891596-2.5933613-.5717647 0-1.0822689.2042016-1.5110925.612605-.490084.4492437-.7759664 1.1026891-.857647 1.939916v6.3506722h-2.3278992v-10.5572268h2.3278992v1.22521c.4084033-.490084.8780672-.8780672 1.3885714-1.1231092.5309244-.2654622 1.1026891-.3879832 1.7357143-.3879832zm10.2993277 0c1.7357143 0 3.0630252.5717647 3.9819328 1.7561345.8372269 1.0618487 1.2660504 2.552521 1.2660504 4.4515966h-7.902605c.0816806.9801681.3471428 1.7357143.7963865 2.2462185s1.1026891.7759664 1.939916.7759664c.7147059 0 1.2864706-.1633614 1.7357143-.4900841.3471428-.2654622.6534453-.6942857.9393277-1.2864706h2.3278991c-.245042.9801681-.735126 1.817395-1.4702521 2.4708404-.9393277.7963865-2.1032773 1.2047899-3.5122689 1.2047899-1.5723529 0-2.8179832-.490084-3.7368907-1.4498319-.9801681-1.0005883-1.4702521-2.3687395-1.4702521-4.124874 0-1.5723529.4492437-2.8792437 1.3885714-3.9410924.8984874-1.0822689 2.1441177-1.6131933 3.7164706-1.6131933zm.0612605 1.8990756c-.7759664 0-1.3681513.2042017-1.817395.6534454-.4288235.4288235-.7147058 1.0618487-.857647 1.8990756h5.4317647c-.2042017-1.7152941-1.1231093-2.552521-2.7567227-2.552521zm12.8185714-5.63596636h6.0443698c3.5122689 0 5.2888235 1.49067226 5.2888235 4.47201676 0 3.0017648-1.7765546 4.5128572-5.3296639 4.5128572h-3.6143697v5.595126h-2.3891597zm2.3891597 2.04201676v4.9008404h3.4714285c1.0618488 0 1.8378152-.2042017 2.3278992-.5717647.490084-.3879832.7351261-1.0210084.7351261-1.8990757 0-.8780672-.2654622-1.4906722-.7555463-1.8582352-.490084-.3879832-1.2660504-.5717648-2.307479-.5717648zm14.9755464 1.694874c1.551933 0 2.715882.3879832 3.451008 1.1639496.653446.6738655.980168 1.6540336.980168 2.9405042v6.7386554h-2.164538v-1.3885714c-.408403.5309244-.918907.9189076-1.511092 1.2047899-.673866.3063026-1.470252.4696639-2.38916.4696639-1.1026887 0-1.9603358-.2858824-2.593361-.8372269-.6534454-.5717647-.9801681-1.2864706-.9801681-2.1645378 0-1.1843698.4492437-2.1032773 1.3885715-2.7363025.857647-.6126051 2.0624366-.9393278 3.6143696-.9801681l2.307479-.0612605v-.4084034c0-1.3885714-.755546-2.0624369-2.266639-2.0624369-.653445 0-1.163949.1021008-1.551932.3471428-.449244.2654622-.7555465.6738656-.8780676 1.2252101l-2.3074789-.1837815c.2246218-1.1639496.7963865-2.0215966 1.7152941-2.552521.7759664-.4900841 1.8378154-.7147059 3.1855464-.7147059zm2.103277 6.0239496-2.144118.0612605c-1.8582348.0408403-2.7771424.6942857-2.7771424 1.9603361 0 .367563.1429412.6738656.4696639.9189076.3267226.245042.7351265.3879832 1.2456305.3879832.898487 0 1.654033-.2654622 2.266638-.7759664.612605-.5309244.939328-1.2047899.939328-2.0215967zm8.563614-6.0239496c1.30689 0 2.348319.5105042 3.124285 1.5723529v-1.2864705h2.327899v9.8833613c0 3.3284874-1.654033 5.0029412-4.9621 5.0029412-1.490673 0-2.613782-.2858824-3.389748-.8168068-.775967-.5717647-1.266051-1.4294117-1.470252-2.6137815h2.327899c.122521.5921849.367563 1.0005883.755546 1.2456303.367563.2246218.959748.3471428 1.776555.3471428 1.756134 0 2.634201-.9393277 2.634201-2.8179831v-1.5519328c-.775966 1.0822689-1.817395 1.6336134-3.124285 1.6336134-1.429412 0-2.593362-.490084-3.471429-1.4294117-.898487-.9597479-1.327311-2.2462185-1.327311-3.8389916s.428824-2.8792437 1.327311-3.8594118c.878067-.9801681 2.042017-1.4702521 3.471429-1.4702521zm.367563 1.8786555c-.878068 0-1.551933.3063025-2.042017.9189075-.490084.5921849-.735126 1.4294118-.735126 2.5321009 0 1.0005882.183781 1.7765546.571764 2.3483193.449244.6738655 1.16395 1.0210084 2.184958 1.0210084.898488 0 1.592774-.3063025 2.082858-.8780672.469663-.6126051.714705-1.4294118.714705-2.4912605 0-1.0822689-.245042-1.9194958-.714705-2.5321009-.490084-.612605-1.18437-.9189075-2.062437-.9189075zm11.422437-1.8786555c1.735714 0 3.063025.5717647 3.981932 1.7561345.837227 1.0618487 1.266051 2.552521 1.266051 4.4515966h-7.902605c.08168.9801681.347143 1.7357143.796386 2.2462185.449244.5105042 1.102689.7759664 1.939916.7759664.714706 0 1.286471-.1633614 1.735714-.4900841.347143-.2654622.653446-.6942857.939328-1.2864706h2.327899c-.245042.9801681-.735126 1.817395-1.470252 2.4708404-.939327.7963865-2.103277 1.2047899-3.512269 1.2047899-1.572353 0-2.817983-.490084-3.73689-1.4498319-.980168-1.0005883-1.470252-2.3687395-1.470252-4.124874 0-1.5723529.449243-2.8792437 1.388571-3.9410924.898487-1.0822689 2.144118-1.6131933 3.716471-1.6131933zm.06126 1.8990756c-.775966 0-1.368151.2042017-1.817395.6534454-.428823.4288235-.714706 1.0618487-.857647 1.8990756h5.431765c-.204202-1.7152941-1.12311-2.552521-2.756723-2.552521zm12.818571-5.63596636h2.36874v12.53798316h7.882185v2.0420168h-10.250925zm16.180337 3.73689076c1.592773 0 2.879243.5105042 3.859411 1.5723529.959748 1.0414286 1.449832 2.3687395 1.449832 4.002353 0 1.6131933-.490084 2.9405042-1.429412 3.9615126-.980168 1.0618487-2.287058 1.5927731-3.879831 1.5927731-1.613194 0-2.899664-.5309244-3.879832-1.5927731-.959748-1.0210084-1.429412-2.3483193-1.429412-3.9615126 0-1.6336135.469664-2.9609244 1.449832-4.002353.959748-1.0618487 2.246218-1.5723529 3.859412-1.5723529zm0 1.8990756c-.980169 0-1.715295.3675631-2.246219 1.1435294-.449244.6534454-.673865 1.5110925-.673865 2.5321009s.224621 1.8582353.673865 2.5116807c.530924.7555462 1.26605 1.1435294 2.246219 1.1435294.959747 0 1.715294-.3879832 2.246218-1.1435294.449244-.6738656.694286-1.5110925.694286-2.5116807 0-1.0210084-.245042-1.8786555-.694286-2.5321009-.530924-.7759663-1.286471-1.1435294-2.246218-1.1435294zm5.623109-1.6131932h2.532101l2.5321 7.657563 2.532101-7.657563h2.532101l-3.900252 10.5572268h-2.327899zm15.343109-.2858824c1.735714 0 3.063025.5717647 3.981933 1.7561345.837227 1.0618487 1.26605 2.552521 1.26605 4.4515966h-7.902605c.081681.9801681.347143 1.7357143.796387 2.2462185.449243.5105042 1.102689.7759664 1.939916.7759664.714706 0 1.28647-.1633614 1.735714-.4900841.347143-.2654622.653445-.6942857.939328-1.2864706h2.327899c-.245042.9801681-.735126 1.817395-1.470252 2.4708404-.939328.7963865-2.103278 1.2047899-3.512269 1.2047899-1.572353 0-2.817983-.490084-3.736891-1.4498319-.980168-1.0005883-1.470252-2.3687395-1.470252-4.124874 0-1.5723529.449244-2.8792437 1.388571-3.9410924.898488-1.0822689 2.144118-1.6131933 3.716471-1.6131933zm.061261 1.8990756c-.775967 0-1.368152.2042017-1.817395.6534454-.428824.4288235-.714706 1.0618487-.857647 1.8990756h5.431764c-.204201-1.7152941-1.123109-2.552521-2.756722-2.552521z" fill="#333"/></g></svg>