<svg height="90" viewBox="0 0 180 90" width="180" xmlns="http://www.w3.org/2000/svg"><g fill="none" fill-rule="evenodd"><path d="m11.9169474 6.96031579 3.3157894 9.61863161h2.2348421l5.6169474-15.16642108h-3.1376842l-3.6388421 10.32631578-3.5052632-10.45894736h-1.6370526l-3.70705262 10.45894736-3.38778947-10.32631578h-3.13768421l5.27589473 15.16642108h2.2291579zm18.9397894 6.45821051c-.4633829.8269536-1.3489874 1.3267502-2.296421 1.296-.7730343.0345676-1.5134167-.3141812-1.9790526-.9322105-.3224313-.492484-.4876213-1.07131-.4736843-1.6597895h7.3676843v-.2273684c.0746577-1.3879001-.3441623-2.75745487-1.1823158-3.86621053-.9604471-1.1055256-2.3808545-1.70086402-3.8425263-1.61052632-1.3730257-.061975-2.7118967.43894684-3.7070527 1.38694737-1.0101451 1.02783087-1.5528446 2.42603578-1.5006316 3.86621048-.0693652 1.4449756.4952777 2.8482793 1.5461053 3.8425264 1.0187582.9543524 2.3809701 1.4547986 3.7752632 1.3869473 2.1098972.1382918 4.0674356-1.1024015 4.8429473-3.0694737zm-4.662-3.070421c.1888268-1.14041922 1.1750539-1.97677783 2.331-1.97677783 1.1559462 0 2.1421733.83635861 2.331 1.97677783zm12.1869474-10.3481053h-2.7738947v16.5789474h2.7738947v-1.2732632c.7132221 1.0226665 1.8912037 1.6201933 3.1376842 1.591579 2.9112632 0 4.9121053-2.2509474 4.9121053-5.2531579 0-2.97852635-1.9326316-5.22947372-4.8438948-5.22947372-1.2664825-.03411447-2.4674356.56210339-3.2058947 1.59157895zm2.455579 8.86831579c1.1329997-.02349486 2.1673506.64158343 2.6161582 1.68216601.4488076 1.0405826.2226437 2.2493261-.5720307 3.0572451-.7946743.8079189-1.9995148 1.0540297-3.047373.622482-1.0478583-.4315477-1.7299413-1.4547651-1.7251756-2.5879984-.0259007-.7352125.2517664-1.4487083.7678251-1.97300955.5160587-.52430127 1.2250653-.81323867 1.960596-.79899042zm15.8257894 2.13726311h3.9097895c-.1947396.9157726-.7009598 1.7357019-1.432421 2.3201053-.8726865.609182-1.9153492.927451-2.9794737.9094737-1.2500403.0364244-2.4623791-.4304898-3.3650527-1.296-1.0131166-1.0166089-1.5568901-2.409342-1.5006315-3.84347369-.0366817-1.48206154.5104112-2.91920108 1.5233684-4.00168421.9568288-.87419299 2.2092732-1.35350683 3.5052631-1.34147368.7390717-.00287085 1.4695004.15894323 2.1382106.47368421.7644863.4002625 1.3846044 1.02965587 1.7734736 1.8l2.5692632-1.38694737c-.6659543-1.17482112-1.6514561-2.13667087-2.8421053-2.77389474-1.0844215-.55173474-2.2888941-.82550811-3.5052631-.79673684-2.227785-.08352951-4.3913112.75589944-5.9797895 2.32010526-1.4779793 1.4987883-2.2824101 3.53449078-2.2282105 5.63873684-.0596768 2.17043412.7507699 4.27466192 2.2509474 5.84431582 3.1180433 2.7141739 7.7541451 2.7335246 10.8947368.0454737 2.0917895-2.0690527 2.2282105-5.25315794 2.2282105-6.27631583v-.18189474h-6.9574737v2.54652627zm9.2756842 5.5733685h2.7738948v-4.7302106c-.0716531-.7672725.1208652-1.5360086.5456842-2.17894733.4567248-.5372475 1.1374359-.83138192 1.8416842-.79578947.460346-.02541839.9161277.10252034 1.296.36378947l.3637895-2.592c-.3775035-.14530347-.7778456-.22229234-1.1823158-.22736842-.575736-.01523748-1.1438002.13466836-1.6370526.432-.53087.32960532-.9577984.80251062-1.231579 1.36421053v-1.47789474h-2.7738947v9.84221056zm15.5065264-8.57273687c-.6973724-1.05267283-1.8994566-1.65803899-3.1604211-1.59157895-1.3543754.00758969-2.6458841.57245512-3.5708753 1.56178893-.9249913.98933381-1.4018619 2.31585639-1.3184931 3.66768479-.0707385 1.3741465.4283438 2.716642 1.3795444 3.7108753.9512007.9942333 2.2703147 1.5521899 3.6462451 1.5422826 1.2146945.0250828 2.3569635-.5761114 3.024-1.591579v1.2732632h2.7738947v-9.84600003h-2.7738947zm-2.455579.864c1.1329997-.02349486 2.1673507.64158342 2.6161583 1.68216597.4488075 1.0405826.2226437 2.2493262-.5720307 3.0572451s-1.9995148 1.0540298-3.0473731.6224821c-1.0478582-.4315478-1.7299412-1.4547652-1.7251755-2.5879984-.0267121-.7356129.250628-1.4497726.7668084-1.97455599s1.2256588-.81388918 1.9616126-.79933878zm15.415579-.864c-.6973724-1.05267283-1.8994566-1.65803899-3.1604211-1.59157895-1.3543754.00758969-2.6458841.57245512-3.5708753 1.56178893-.9249913.98933381-1.4018619 2.31585639-1.3184931 3.66768479-.0706871 1.373319.4277602 2.7150606 1.3779196 3.7091425.9501595.994082 2.2680228 1.5526126 3.643133 1.5440154 1.2146946.0250828 2.3569636-.5761114 3.024-1.591579v1.2732632h2.7738948v-16.5789474h-2.7738948v8.00431579zm-2.455579.864c1.1329231-.02310778 2.1669873.64222245 2.6154941 1.68284267.4485069 1.0406201.2221022 2.2492119-.5726531 3.0569326s-1.9995254 1.0536517-3.0472665.6220415c-1.0477411-.4316101-1.7297161-1.4547733-1.7249429-2.587922-.0267234-.7357806.2507443-1.4500926.7671336-1.97490614.5163894-.52481358 1.2261181-.81380307 1.9622348-.79898863zm7.8631579-2.13726316v9.84600003h2.7738949v-9.84600003zm-.2728421-4.16084211c.0005231.91655291.743868 1.6591907 1.660421 1.65884199.916553-.00034872 1.659332-.74355192 1.659158-1.66010496-.000175-.91655305-.743236-1.65947372-1.65979-1.65947387-.91378.00673025-1.6523041.74694295-1.6569469 1.66073684zm12.803684 10.84642104c-.464808.828336-1.352818 1.3282529-2.302105 1.296-.771886.0341289-1.510933-.3146588-1.975263-.9322105-.322431-.492484-.487621-1.07131-.473684-1.6597895h7.369579v-.2273684c.072064-1.3878801-.347224-2.75677042-1.184211-3.86621053-.961013-1.10698494-2.383271-1.70251193-3.846316-1.61052632-1.371784-.06126192-2.709212.43963194-3.703263 1.38694737-1.010145 1.02783087-1.552845 2.42603578-1.500632 3.86621048-.069365 1.4449756.495278 2.8482793 1.546106 3.8425264 1.017536.9538571 2.378388 1.4543062 3.771473 1.3869473 2.111435.1371081 4.070507-1.1026177 4.850527-3.0694737zm-4.663895-3.070421c.18887-1.14091178 1.175509-1.97764731 2.331948-1.97764731s2.143078.83673553 2.331947 1.97764731zm9.413053 6.2308421h2.77579v-5.0210527c-.049401-.6659169.102426-1.3313146.435789-1.9098947.369714-.57589217 1.02223-.90650008 1.705263-.864.48218-.01390974.949766.16629867 1.297895.50021053.400876.56038438.585908 1.24668237.521053 1.93263157v5.3621053h2.775789v-6.1853685c.08052-.98772317-.195036-1.97165876-.776842-2.77389469-.747157-.80687894-1.809543-1.24705966-2.908421-1.20505263-1.220101-.01753265-2.366929.58081229-3.050526 1.59157895v-1.27326316h-2.77579zm16.825263-7.48421056v-2.36842105h-1.90421v-3.36505263h-2.77579v3.36505263h-1.089473v2.36842105h1.089473v7.48421056h2.77579v-7.48421056zm8.185263-1.63705263c-.893178-.69977384-2.001428-1.06807446-3.135789-1.04210526-.910782-.06124056-1.815527.18714706-2.567368.7048421-.650971.55701203-1.024952 1.37146008-1.023158 2.22821053-.012001.70365722.257412 1.38298762.748421 1.88715792.603862.5516141 1.326807.9565284 2.112631 1.1832631l.634737.2273685c.481945.100381.838172.5092679.871579 1.000421-.025572.328457-.187784.6311149-.447137.8342747-.259353.2031599-.592049.2881798-.917073.2343569-.856641-.055215-1.650698-.4677119-2.188422-1.1368421l-1.449473 1.6825263c.971551 1.0783712 2.366956 1.6766987 3.817895 1.6370526 1.083802.05371 2.14532-.3205431 2.955789-1.0421052.710144-.6351796 1.107978-1.5484695 1.089474-2.5010527.003027-.5843454-.172124-1.1557334-.502106-1.638-.678949-.7029967-1.548074-1.1928671-2.501052-1.4096842l-.653684-.2046316c-.471971-.04187-.846644-.41494917-.890527-.8867368.024014-.25315043.154217-.48425534.358295-.63595921.204078-.15170386.4629-.20978551.712232-.15983026.603237.00027891 1.181995.23859125 1.610526.66315789z" fill="#2673e7" transform="translate(36.947368 35.684211)"/><path d="m10.2743586 0h8.7508717c4.0060361.23402961 7.7000329 2.80835526 9.3703618 6.44269737-3.1020395 1.11967105-6.2637335 2.28064145-8.8839474 4.34101973-2.0879111 1.5234868-3.7307072 3.5563322-5.1440625 5.6993092-1.2022697-1.2986349-2.5605592-2.4871381-4.1574671-3.2855921-3.26264799-1.7024506-6.51152957-3.44161183-9.86595392-4.96509867 1.14261514-4.48786185 5.30467106-7.94324014 9.93019742-8.23233553z" fill="#4fc2ff" transform="translate(0 30)"/><path d="m5.28631579 4.359375c2.62021382-2.06037829 5.78190791-3.22134868 8.88394741-4.34101974.523125 1.22980263.8305756 2.53761513.9728289 3.8637829v8.70498354c-.247796 5.4377467-4.9788651 10.1412829-10.41661184 10.3569572h-1.11967105c1.5097204-4.5383388-.64702303-9.3474177-3.46455592-12.8853947 1.41335526-2.14297696 3.05615132-4.17582236 5.1440625-5.6993092z" fill="#4b92fc" transform="translate(14.225329 36.424342)"/><path d="m.34416118.43134868c3.35442435 1.52348685 6.60330593 3.26264803 9.86595392 4.96509869 1.5969079.79845395 2.9551974 1.98695724 4.1574671 3.2855921 2.8175329 3.53797693 4.9742764 8.34705593 3.464556 12.88539473h-7.498125c-5.42856912-.2569737-10.11375004-4.9834539-10.3340132-10.412023v-8.36082238c.08259868-.79386514.19273026-1.58314145.34416118-2.36324014z" fill="#96dbff" transform="translate(0 37.800987)"/></g></svg>