<svg height="90" viewBox="0 0 180 90" width="180" xmlns="http://www.w3.org/2000/svg"><g fill="none"><path d="m61.8 16.69c1.81-1.33 3.88-2.91 6.27-2.07 3.55 1.67 5.2 5.77 5.41 9.48.45 5.91-2.69 11.56-6.99 15.39-4.88 2.69-10.9 2.33-16.17 1.1 2.95 1.82 6.13 3.63 9.73 3.48 4.44.18 8.48-2 11.89-4.63 4.57 7.4 7.17 17.22 2.8 25.3-1.91 4.02-7.41 6.7-11.33 3.85-3.14-2.66-1.23-8.01 2.5-9.01.01 1.61.04 3.22.07 4.83 1.1-.65 3.45-.6 3.35-2.38.36-4.35-1.32-8.78-4.3-11.94-9.74 3.34-16.09 13.47-15.41 23.66-2.84-.1-5.67.05-8.49.29-.93-3.38-2.12-7.08-5.27-9.04-7.16-4.32-18.23-.14-19.44 8.54-4.34 1.23-8.88 2.38-13.42 1.73v-.58c3.9-15.64 12.62-31.11 27.35-38.78 2.22 4.43 4.51 8.83 6.74 13.26 1.15 2.16 1.7 4.74 3.54 6.48-3.47-8.72-7.44-18.77-3.35-28 6.51-1.27 13.41-2.16 19.85-.08 3.28.99 6.07 3.04 8.81 5.03 2.95-3.97 4.68-9.74 1.58-14.14-1.04-2.24-3.73-1.73-5.72-1.77z" fill="#d5012d"/><g fill="#333"><path d="m155.62 32.8c1.23-.19 2.46-.38 3.69-.56.45 1.27.92 2.54 1.39 3.8h10.57c-.39 5.29.86 10.87-.71 15.96.75.76 1.51 1.52 2.27 2.28-2.04 1.7-4.23 3.21-6.63 4.36 2.92 1.82 6.19 2.91 9.5 3.79-.39.81-1.18 2.43-1.57 3.24-7.88-1.93-14.84-6.97-18.69-14.16-1.85.04-3.69.06-5.54.07v9.97c2.86-.8 5.72-1.61 8.56-2.49.23.8.69 2.42.92 3.22-4.26 1.35-8.6 2.43-12.95 3.4-.17-.72-.49-2.16-.65-2.88.78-1.51.65-3.23.67-4.87-.04-7.29 0-14.59-.02-21.88 3.56-.02 7.12-.01 10.68-.02-.5-1.07-.99-2.15-1.49-3.23zm-5.72 6.34v3.12c6 .01 12 .01 17.99 0 0-.78 0-2.34 0-3.12-6 0-11.99 0-17.99 0zm0 6.12v3.2c6 0 12 0 18-.01 0-.79-.01-2.39-.01-3.19-6 0-12 0-17.99 0zm9.14 6.33c1.27 1.85 2.73 3.57 4.35 5.12 2.6-1.37 5.04-3.03 7.14-5.09-3.83-.09-7.66-.07-11.49-.03z"/><path d="m116.19 32.88c.96.59 1.92 1.18 2.88 1.78-1.26 1.83-2.57 3.63-3.94 5.38 2.54 7 2.97 14.85 1.35 22.09-.73 3.58-4.9 3.19-7.68 3.19-.35-1.06-.69-2.13-1.03-3.2 1.86-.2 5.17 1.09 5.75-1.53.79-3.17.57-6.48.54-9.71-1.73 2.1-3.64 4.06-5.76 5.78-.49-.73-1.47-2.19-1.96-2.92 2.81-2.05 5.39-4.42 7.29-7.36-.37-1.31-.73-2.63-1.07-3.94-1.49 1.04-2.95 2.12-4.47 3.12-.42-.74-1.28-2.23-1.71-2.97 1.51-1.04 3.02-2.07 4.55-3.1-1.24-1.43-2.48-2.85-3.73-4.28.67-.52 2.02-1.56 2.69-2.08 1.12 1.31 2.24 2.63 3.36 3.95.98-1.4 1.96-2.8 2.94-4.2z"/><path d="m119.83 33.71c5.64-.01 11.28 0 16.92-.01-.71 4.74-1.44 9.48-2.15 14.22 1.02 0 3.05.01 4.06.01-.16 4.74.12 9.62-1.21 14.23-1.83 4.02-7.26 3.02-10.86 3.06-.38-1.17-.74-2.34-1.1-3.51 2.89.1 6.74 1.08 8.93-1.4 1.05-2.92.79-6.1.93-9.14-4.94-.01-9.89 0-14.83-.01.71-4.07 1.43-8.14 2.16-12.2.83.04 2.48.13 3.31.17-.6 2.93-1.2 5.86-1.8 8.79 2.31.01 4.62 0 6.94.01.6-3.65 1.18-7.3 1.76-10.94-4.35-.01-8.71 0-13.06-.01 0-.81 0-2.45 0-3.27z"/><path d="m118.86 54.88c4.73-.01 9.46-.01 14.18 0v3.19c-4.72.01-9.45.01-14.18 0 0-.8 0-2.39 0-3.19z"/></g></g></svg>