<svg height="90" viewBox="0 0 180 90" width="180" xmlns="http://www.w3.org/2000/svg"><g fill="none" transform="translate(0 11)"><g fill="#ffd401" transform="translate(0 5.538462)"><path d="m9.21842308 1.3993007c.38838461.04153846.77676923.08307692 1.16896152.12839161 3.8571923 3.99524475 7.9314231 7.78657342 11.7619616 11.81202799 2.832923 2.7490909 5.5211538 5.6379021 8.3921538 8.3492307.0456923-.16993.1370769-.5060139.1827692-.675944.9823846 1.1290909 1.6982308 2.4923077 1.4355 4.0292308v.0981818c-.5254615.3776224-1.0242692.8118881-1.3288846 1.3896503-.9481154.1963637-1.4659615-.6646154-2.0523461-1.215944-5.2051154-5.0979021-10.3683462-10.2411189-15.5696539-15.339021-.0647308 1.9220979-.0304615 3.847972-.0152308 5.7738461-.1523076 12.8467133-.1523076 25.6934266-.0418846 38.5401399-1.9990384.0264336-4.00188458-.033986-6.00092305.0264336-.77676923-1.0837762-.4455-2.446993-.495-3.678042.48738462-.1812587.97857693-.354965 1.46976923-.5173426.22846154 0 .68157693-.0075525.90623077-.0113287.27796154-1.1328671.14088462-2.3034965.15992308-3.4514685.01142308-15.086014-.01523077-30.172028.02665385-45.258042zm47.63042312 4.95440559c.8338846-.70237762 1.4316923-1.98251748 2.7072692-1.79370629-.0190385 16.5813986.0190384 33.159021-.0190385 49.7404196-1.7248846-.0075525-3.4459615-.0151049-5.1670384 0l-.1599231-.1246154c-.1865769-.1472727-.5597308-.4418182-.7501154-.5890909.0114231-.9478322.0190385-1.8956643.0190385-2.8434965.1256538-.1586014.3807692-.4833567.5102307-.6457343.495.0151049.99.0302098 1.4888077.0377623.0266539-12.2878322.0951923-24.5832168-.0342692-36.871049-1.2489231 1.2801399-2.5283077 2.5338462-3.8267308 3.7611189-1.4240769 1.3783217-2.8291154 2.7717482-4.2265384 4.1765035-5.4906923 5.433986-11.0004231 10.8490909-16.5139616 16.2604196-.2551154-.0113287-.7729615-.0377623-1.0280769-.0490909-1.0775769-1.1102098-2.178-2.1939861-3.2784231-3.2739861.0571154-1.1517482-.6054231-2.1184615-.9328846-3.1758042.6168462-.4002797 1.2184615-.8194405 1.7896154-1.2763636.8871923.8383217 1.7439231 1.7106294 2.6196923 2.564056.2132308-.0377623.6435-.1057343.8567308-.1434966.297-.3738461.605423-.743916.9366923-1.0875524 8.2893461-8.2699301 16.6396154-16.4794406 25.0089231-24.66629371z"/><path d="m50.4671538 1.53902098c.2589231-.04153846.7729616-.12461539 1.028077-.16615385.0761538 1.59356644.2627307 3.27398602-.0685385 4.82223777-6.0085385 6.0230769-12.0970385 11.9781818-18.117 17.9899301-.3388846.3436363-.7234615.6268531-1.1499231.8572028.2627308-1.5369231-.4531154-2.9001399-1.4355-4.0292308l-.0456923-.067972c6.6520385-6.412028 13.2583846-12.87314689 19.7885769-19.40601402zm-49.19919226 52.69342662c.06092308-16.6002798-.08376923-33.2081119.07234615-49.80839166 1.65634616.48335665 2.53211539 2.10335665 3.82673077 3.11538462.0495 14.15328674.03046154 28.30657344.01142308 42.45986014.98238461-.0037762 1.97238461-.0113287 2.94715384.1208392-.4911923.1623776-.98238461.3360839-1.46976923.5173426.0495 1.231049-.28176923 2.5942658.495 3.678042-1.96096153-.0566434-3.92573077.0226573-5.88288461-.0830769zm11.92569226-38.4834966c1.0623462.5815385 1.770577 1.586014 2.6539616 2.3827973 3.9447692 3.78 7.8095769 7.6468531 11.7886154 11.3890909l-.2094231.1661538c-.5711539.4569231-1.1727692.8760839-1.7896154 1.2763636.3274615 1.0573427.99 2.024056.9328846 3.1758042-.5216538-.3096503-1.0052307-.6683916-1.4088461-1.1177622-3.9295385-4.0405594-8.0723077-7.880979-11.8952308-12.0197203-.1523077 11.0945455.0799615 22.1966434-.1142308 33.2874126-.110423-12.8467133-.110423-25.6934266.0418846-38.5401399zm38.4234231 1.2763637c-.0114231 10.9888112-.0456923 21.9776224.0152308 32.9664336.7843846.0377622 1.5687692.0755244 2.3569615.1057342-.1294615.1623776-.3845769.4871329-.5102307.6457343 0 .9478322-.0076154 1.8956643-.0190385 2.8434965.1903846.1472727.5635385.4418182.7501154.5890909-2.2389231.0944056-4.6035.4116084-6.7776923-.219021.4569231-2.7906294.1599231-5.6227972.2513077-8.4323077.0913846-1.6388811-.2627308-3.2702098-.0913846-4.9053147.2931923-3.2777622-.137077-6.5555244 0-9.8332867-.3198462-3.1909091.2703461-6.4195804-.2018077-9.5840559 1.397423-1.4047553 2.8024615-2.7981818 4.2265384-4.1765035z"/></g><g fill="#333"><path d="m75.2261538 39.6778462h3.6041539l6.3927692 14.7323076h.1052308l6.3664615-14.7323076h3.6041539v18.7836923h-3.078v-12.9433847h-.1052308l-5.5246154 12.9433847h-2.6570769l-5.5246154-12.9433847h-.1052308v12.9433847h-3.078zm29.6750772 4.8143076c1.999384 0 3.498923.4998462 4.446 1.4995385.841846.8681539 1.262769 2.1309231 1.262769 3.7883077v8.6815385h-2.788615v-1.7889231c-.526154.684-1.183847 1.1838461-1.94677 1.5521538-.868153.3946154-1.894153.605077-3.078.605077-1.420615 0-2.525538-.3683077-3.3410765-1.0786154-.8418462-.7366154-1.2627693-1.6573846-1.2627693-2.7886154 0-1.5258462.5787693-2.7096923 1.7889231-3.5252308 1.1049227-.7892308 2.6570767-1.2101538 4.6564617-1.2627692l2.972769-.0789231v-.5261538c0-1.7889231-.973385-2.657077-2.920154-2.657077-.841846 0-1.499538.1315385-1.999384.4472308-.57877.342-.973385.8681539-1.131231 1.5784615l-2.9727694-.2367692c.2893846-1.4995384 1.026-2.6044615 2.2098464-3.2884615.999692-.6313846 2.367692-.9207693 4.104-.9207693zm2.709692 7.7607693-2.762308.0789231c-2.394.0526153-3.577846.8944615-3.577846 2.5255384 0 .4735385.184154.8681539.605077 1.1838462s.947077.4998461 1.604769.4998461c1.157539 0 2.130923-.342 2.920154-.9996923.789231-.684 1.210154-1.5521538 1.210154-2.6044615zm12.259385-7.7607693c1.762615 0 3.156923.3946154 4.20923 1.1838462 1.078616.8418462 1.762616 2.1046154 2.025693 3.8146154h-2.972769c-.184154-.8681539-.552462-1.4995385-1.078616-1.9204616-.552461-.420923-1.289077-.6313846-2.183538-.6313846-1.104923 0-1.973077.3946154-2.604462 1.2364616-.631384.8155384-.947077 1.9730769-.947077 3.4463077 0 1.4995384.289385 2.6833846.920769 3.5252307.57877.8155385 1.446924 1.2364616 2.604462 1.2364616 1.999385 0 3.104308-.9996923 3.341077-2.9727693h2.972769c-.315692 1.8415385-1.026 3.2095385-2.104615 4.104-1.052308.8681539-2.472923 1.3153847-4.235539 1.3153847-2.104615 0-3.735692-.684-4.89323-2.052-1.131231-1.3153847-1.683693-3.0253847-1.683693-5.13 0-2.052.552462-3.7356924 1.657385-5.0247693 1.183846-1.4206154 2.841231-2.1309231 4.972154-2.1309231zm8.65523-5.1826153h2.999077v7.3661538c.499847-.7629231 1.131231-1.3153846 1.867847-1.6836923.657692-.342 1.420615-.4998462 2.288769-.4998462 1.657384 0 2.893846.4735385 3.709384 1.4469231.762923.9207693 1.157539 2.2887693 1.157539 4.104v8.4184616h-2.999077v-7.8923077c0-1.1575385-.236769-2.052-.684-2.657077-.526154-.6576923-1.289077-.9733846-2.315077-.9733846-.947077 0-1.683692.3683077-2.209846 1.1049231-.552462.7366154-.815539 1.6573846-.815539 2.8149231v7.6029231h-2.999077zm17.205231 0c.578769 0 1.078616.1841538 1.473231.5524615.368308.3683077.578769.8418462.578769 1.4206154s-.210461 1.0786154-.605077 1.4469231c-.394615.3683077-.868154.5524615-1.446923.5524615s-1.052307-.1841538-1.446923-.5524615c-.394615-.3946154-.578769-.8681539-.578769-1.4469231s.184154-1.0523077.578769-1.4206154c.394616-.3683077.868154-.5524615 1.446923-.5524615zm-1.499538 5.550923h2.999077v13.601077h-2.999077zm13.732615-.3683077c3.393692 0 5.103692 1.8415385 5.103692 5.5772308v8.3921539h-2.999076v-8.129077c0-2.2361538-1.026-3.3410769-3.078-3.3410769-.736616 0-1.394308.2630769-1.94677.7892308-.631384.5787692-.999692 1.4206154-1.104923 2.4992308v8.1816923h-2.999077v-13.601077h2.999077v1.5784616c.526154-.6313846 1.131231-1.1312308 1.788923-1.4469231.684-.342 1.420616-.4998462 2.236154-.4998462zm14.048308 0c2.236154 0 3.946154.7366154 5.13 2.2624616 1.078615 1.368 1.631077 3.2884615 1.631077 5.7350769h-10.181077c.105231 1.2627692.447231 2.2361539 1.026 2.8938462s1.420615.9996923 2.499231.9996923c.920769 0 1.657384-.2104616 2.236153-.6313846.447231-.342.841847-.8944616 1.210154-1.6573847h2.999077c-.315692 1.2627693-.947077 2.3413847-1.894154 3.1832308-1.210153 1.026-2.709692 1.5521539-4.524923 1.5521539-2.025692 0-3.630461-.6313847-4.814307-1.8678462-1.26277-1.2890769-1.894154-3.0516923-1.894154-5.3141538 0-2.0256924.578769-3.7093847 1.788923-5.0773847 1.157538-1.3943077 2.762308-2.0783077 4.788-2.0783077zm.078923 2.4466154c-.999692 0-1.762615.263077-2.341385.8418462-.552461.5524615-.920769 1.368-1.104923 2.4466154h6.997846c-.263077-2.2098462-1.446923-3.2884616-3.551538-3.2884616z"/><path d="m75.2261538 9.21630769h3.6041539l6.3927692 14.73230771h.1052308l6.3664615-14.73230771h3.6041539v18.78369231h-3.078v-12.9433846h-.1052308l-5.5246154 12.9433846h-2.6570769l-5.5246154-12.9433846h-.1052308v12.9433846h-3.078zm29.6750772 4.81430771c1.999384 0 3.498923.4998461 4.446 1.4995384.841846.8681539 1.262769 2.1309231 1.262769 3.7883077v8.6815385h-2.788615v-1.7889231c-.526154.684-1.183847 1.1838462-1.94677 1.5521539-.868153.3946154-1.894153.6050769-3.078.6050769-1.420615 0-2.525538-.3683077-3.3410765-1.0786154-.8418462-.7366154-1.2627693-1.6573846-1.2627693-2.7886154 0-1.5258461.5787693-2.7096923 1.7889231-3.5252307 1.1049227-.7892308 2.6570767-1.2101539 4.6564617-1.2627693l2.972769-.0789231v-.5261538c0-1.7889231-.973385-2.6570769-2.920154-2.6570769-.841846 0-1.499538.1315384-1.999384.4472307-.57877.342-.973385.8681539-1.131231 1.5784616l-2.9727694-.2367692c.2893846-1.4995385 1.026-2.6044616 2.2098464-3.2884616.999692-.6313846 2.367692-.9207692 4.104-.9207692zm2.709692 7.7607692-2.762308.0789231c-2.394.0526154-3.577846.8944615-3.577846 2.5255385 0 .4735384.184154.8681538.605077 1.1838461s.947077.4998462 1.604769.4998462c1.157539 0 2.130923-.342 2.920154-.9996923.789231-.684 1.210154-1.5521539 1.210154-2.6044616zm13.180154-7.7607692c3.393692 0 5.103692 1.8415384 5.103692 5.5772308v8.3921538h-2.999077v-8.1290769c0-2.2361539-1.026-3.3410769-3.078-3.3410769-.736615 0-1.394307.2630769-1.946769.7892307-.631385.5787693-.999692 1.4206154-1.104923 2.4992308v8.1816923h-2.999077v-13.6010769h2.999077v1.5784615c.526154-.6313846 1.131231-1.1312308 1.788923-1.4469231.684-.342 1.420615-.4998461 2.236154-.4998461zm6.813692.3683077h3.262154l3.262154 9.8653846 3.262154-9.8653846h3.262154l-5.02477 13.6010769h-2.999077zm19.888616-.3683077c3.577846 0 5.550923 1.4206154 5.866615 4.3144615h-2.920154c-.210461-.684-.526154-1.1838461-.947077-1.4469231-.447231-.2893846-1.131231-.420923-2.052-.420923-.789231 0-1.394307.1052307-1.788923.342-.473538.2367692-.684.6050769-.684 1.1312307 0 .4209231.342.8155385 1.078616 1.1312308.44723.1841539 1.341692.4472308 2.709692.7892308 1.525846.3683077 2.683384.7892307 3.42 1.2890769 1.078615.684 1.631077 1.6573846 1.631077 2.8675385 0 2.8938461-2.052 4.3407692-6.129693 4.3407692-3.788307 0-5.814-1.6047692-6.103384-4.788h2.920154c.157846.8681538.473538 1.4732308.920769 1.8415385.447231.3156923 1.157538.4998461 2.157231.4998461 2.104615 0 3.156923-.5787692 3.156923-1.6836923 0-.6313846-.394616-1.1312308-1.183846-1.4995385-.420923-.2104615-1.315385-.4472307-2.683385-.762923-1.604769-.3683077-2.736-.7629231-3.393692-1.1838462-1.052308-.6576923-1.578462-1.5784615-1.578462-2.7623077 0-1.2627692.499846-2.2361538 1.552154-2.9201538 1.026-.7366154 2.367692-1.0786154 4.051385-1.0786154z"/></g></g></svg>