<svg height="90" viewBox="0 0 180 90" width="180" xmlns="http://www.w3.org/2000/svg"><path d="m165.968936 26.4765957h3.42766v-10.0187234c0-.3612766.038298-.6740425.121276-.9727659.080426-.2974468.204256-.5834043.386809-.8859575l3.418723-5.65531911c1.621277-2.68978724 3.24766-5.37829788 4.872766-8.06680851l.531064-.87702128h-4.365957l-.185107.30893617c-2.165106 3.58085106-4.327659 7.16425532-6.494042 10.74893613-2.165107-3.58468081-4.32766-7.16808507-6.495319-10.75148932l-.186383-.30638298h-4.362128l.529787.87702128c2.07355 3.42922477 4.145465 6.85943793 6.215745 10.29063832l1.069787 1.7719149c.357447.5897872.714894 1.1795744 1.065957 1.7744681.063887.106107.120197.2165948.168511.3306383.095495.2133303.166171.4369232.210638.6663829.049979.2457186.073518.4960804.070213.7468085zm-12.695745-.0025531h-3.979148l-.140426-.3446809c-.874468-2.1906383-1.74383-4.3838298-2.614468-6.5770213l-.95234-2.4c-.506809-1.2740425-1.663405-2.0897872-2.961703-2.0897872h-8.348936v11.4127659h-3.425106v-26.4753191h13.341702c.612766 0 1.225532.01276596 1.833191.08553191.316596.03829788.630639.0919149.939575.16595745.90158.21184351 1.750128.60635555 2.493191 1.15914894.264256.19787234.517022.41617021.748086.65361702.47234.47744681.873191 1.03021277 1.197446 1.63021277.335745.62425531.587234 1.29957446.759575 1.99659574.330708 1.36007651.366401 2.77519343.104681 4.15021277-.065238.3365202-.148334.6693311-.248937.9970213-.072765.227234-.153191.4506383-.24.6702127-.131218.3274201-.286095.6448546-.463404.9497873-.253271.4338811-.557563.8358891-.906383 1.1974468-.313825.318372-.665865.5966595-1.048085.8285106-.227234.1404256-.460851.2655319-.700851.3817021l2.375745 5.9834043zm-18.993191-15.319149h9.957447c.520851 0 1.042979 0 1.56383-.0459574 1.988936 0 2.786808-1.34042556 2.927234-3.09191492.16468-2.05531915-.48383-3.86680851-2.725532-4.04680851-.485107-.05106383-.972766-.06382979-1.457873-.06382979l-10.265106.00255319v7.24468083zm-10.56766 15.3204255h3.625532l-10.465532-26.4753191h-2.175319c-.380425 0-.760851.00382979-1.141276.0293617-.363364.02057745-.724509.07009608-1.08.14808511-.36.08297872-.712341.20425532-1.046809.36893617-.361133.1792616-.698608.40267303-1.004681.66510638-.3129.26862683-.59621.56991062-.845106.89872341-.239786.31798796-.454883.65386252-.643404 1.00468085-.182324.33782492-.349302.68370898-.500426 1.03659574-.142979.3319149-.275745.66638298-.40851 1.00340426l-8.4523409 21.31914898h3.9804259l.137872-.3459575c1.280425-3.2297872 2.559574-6.4595745 3.842553-9.6906383 1.313041-3.3246426 2.629212-6.64804833 3.948511-9.97021276.077872-.19148936.155744-.38680851.237447-.57829787.076501-.17838672.156087-.35543457.238723-.53106383.083144-.17178443.173435-.34001652.270638-.50425532.070213-.11489362.145532-.22723404.229788-.3306383l.003829-.00382978.00383-.00510639c.074302-.09479712.159097-.18087724.252766-.25659574l.019149-.01659575.019149-.01659574s.030638-.02425532.071489-.05106383c.051064-.0306383.089362-.05106383.090639-.05106383l.017872-.00765957c.051919-.02448613.10472-.04705458.158298-.06765958.049278-.01824784.100131-.03192251.151915-.04085106l.031915-.00510639.031914-.01021276c.031915-.00893617.094469-.02170213.190213-.03319149l.01149-.0012766.010212-.00255319c.077873-.01276596.18-.02297872.278298-.0293617.13149-.00510638.268085-.01148936.395745-.01276596h.237447c1.574042 3.97659575 3.145532 7.95574464 4.718298 11.93361704 1.355744 3.4289362 2.708936 6.8553191 4.065957 10.2817021l.137872.3485106zm-35.5608506 0h3.4263829v-22.56510633h8.6195747v-3.91021277h-20.6655321v3.91021277h8.6195745zm-21.666383-26.4753191c-.8706383 0-1.7412766.06-2.6004255.20425532-.7815167.12788512-1.5477176.33622674-2.286383.62170213-.693777.26959599-1.3529048.62101655-1.9634043 1.04680851-.5994284.42143838-1.1440441.91588086-1.6212766 1.47191489-.490717.57614714-.9131018 1.20715404-1.2587234 1.88042553-.3711707.7252043-.6704698 1.48499655-.893617 2.26851064-.2489362.86170213-.42 1.74893617-.5323404 2.64255318-.1212562.9992166-.1809433 2.0049449-.1787234 3.0114894l-.0012766.1442553c0 .9548936.0497872 1.9889362.1723404 3.0025532.1097872.9076596.2770213 1.7987234.5234043 2.6680851.2234042.7889362.5131914 1.5612766.8834042 2.2889362.3446809.6765957.7595745 1.3161702 1.2459575 1.8868085.4761702.5591489 1.0212765 1.0519149 1.6110638 1.4680851.6127659.4289361 1.2765957.7748936 1.9659574 1.0429787.7397887.2844344 1.5067717.4923282 2.2889362.6204255.645461.1090502 1.2976173.1738819 1.9519149.1940426.1991489.006383.372766.0076596.5387234.0076596.9829787.0063829 1.6953191.0038297 2.4485106.0038297h7.0008511v-.66c0-.6663829.0012766-1.9225531.0051064-2.5876595l.0038298-.6638298h-4.6723405c-1.5357446 0-3.0191489.0025532-4.8127659-.0025532-.12 0-.2425532 0-.3995745-.0051064-.178905-.0061287-.3576658-.015918-.5361702-.0293617-.325069-.0238923-.6488321-.0630847-.9702128-.1174468-.5456599-.0890022-1.0807851-.2335844-1.5970212-.4314894-.218644-.0855491-.4325653-.1827086-.6408511-.2910638-.1912242-.1040257-.3762191-.2191147-.5540426-.3446808l-.0038297-.0012766-.0025532-.0025532c-.1682309-.1153658-.3274162-.2433968-.4761702-.3829788-.3144096-.2823809-.5900012-.6051923-.8195745-.96l-.0025532-.0038297-.0025532-.0051064c-.127155-.1928235-.244744-.3917875-.3523404-.5961702-.2453046-.4970108-.4436141-1.0158635-.5923404-1.5497873-.087481-.3149607-.1632775-.6330507-.2272341-.953617-.0712574-.3577813-.1295931-.7180152-.1748936-1.08-.047234-.3919149-.0740426-.8042553-.1021277-1.2114894-.0243691-.4945107-.0358624-.989572-.0344681-1.4846808-.0001919-.8301467.0475471-1.6596121.1429788-2.4842553.0919149-.68297874.2170212-1.36085109.4059574-2.02085109.1531915-.53106382.3472341-1.0493617.5974468-1.53574468.2012464-.39953977.4512371-.7725962.7442553-1.11063829.0025532 0 .0038298-.0025532.0038298-.00382979.0025532 0 .0025532-.0012766.0025532-.00255319.1314894-.15702128.2668085-.29872341.42-.42893617l.0051064-.00510639c.112971-.10595072.2323448-.20486046.3574468-.29617021.195017-.14544297.3992769-.27806268.6114894-.39702128.2308391-.12879946.4716061-.23893756.72-.3293617l.006383-.00255319.0076595-.00255319c.24-.09957447.4876596-.17617021.7378724-.24255319.280851-.07531915.5668085-.13531915.8502127-.18255319.319149-.05361702.6382979-.0906383.9740426-.11617022.3156461-.02332055.6320071-.03566842.9485106-.03702127 1.7782979-.00510639 3.2629788-.00382979 4.7987234-.00255319h4.6646809v-3.91021277zm-35.0808511 26.4753191h20.0272341v-3.9102127h-16.3595745v-7.5012766h13.4731915v-3.6548936h-13.4731915v-7.49872343h16.3595745v-3.91021277h-20.0272341zm-20.5774468 0h1.8217021c.4697873 0 .9395745-.0063829 1.4080851-.0510638.2259575-.0217021.4506383-.0523404.6740426-.0970213.6996683-.1371507 1.3596849-.4294251 1.9314894-.8553191.4147548-.3104173.7831412-.6783738 1.0940425-1.092766.1502831-.1954033.2900554-.3986697.4187234-.6089361.1292474-.2118031.2501902-.4285634.3625532-.6497873.1072341-.2080851.2080851-.4187234.3025532-.6331915.0944681-.214468.1838298-.4314893.2731915-.6485106.2782979-.6855319.546383-1.3748936.8170213-2.0642553l.8170212-2.0642553c.546383-1.3748937 1.0902128-2.7510639 1.6353192-4.1272341l1.2676596-3.1978723 1.2676595-3.19914895 1.2689362-3.19787234 1.2689362-3.19787234.3140425-.79021277h-3.9855319l-.1378723.34723404c-1.2778724 3.22340426-2.5557447 6.44680851-3.8310639 9.67148936l-3.9765957 10.0302128c-.0804255.2029787-.1608511.4046808-.246383.6051064-.1320395.3080718-.280333.6089203-.4442553.9012765-.0595208.1017254-.1238488.2005606-.192766.2961703-.0943606.1332303-.2035736.2552919-.3255319.3638297-.0625532.0446809-.0982978.072766-.0982978.072766l-.0089362.0051064-.0076596.0051064-.0765957.0446808-.1072341.0510639-.0638298.0255319-.0089361.0025532c-.2385742.0578672-.4808491.0992416-.7251064.1238297h-.006383l-.0076596.0012766c-.2039383.0140645-.4083546.0200266-.6127659.0178724l-8.92468087-22.5651064h-3.98170213l.31276596.79021277c3.33957447 8.44468085 6.67659574 16.88936173 10.02255314 25.33659573l.1378724.3485106z" fill="#575669" transform="translate(0 32)"/></svg>