<svg height="90" viewBox="0 0 180 90" width="180" xmlns="http://www.w3.org/2000/svg"><g fill="none"><path d="m37.5783582 0h.5910448c-.6447761.60447761-1.1552239 1.55149254-2.1223881 1.61865672l-.1074627-.91343284c-8.3216418.00671642-16.7440298 2.59925373-23.0037313 8.20746269-8.21417911 7.09253733-12.58656717 18.27537313-11.55895523 29.05522383.30223881 2.7402986.87313433 5.447015 1.75970149 8.0597015.55074627 1.6253732 1.24925374 3.197015 2.02835821 4.7283582 5.84328363 11.538806 18.86641793 19.0410448 31.81567163 17.7716418l-.4231343 1.0813433c-9.3962687.8462687-18.9604478-2.7604477-25.7843284-9.2082089-5.80970146-5.3664179-9.46343281-12.7880597-10.7731343-20.5455224v-9.7320896c.85298508-4.822388 2.41791045-9.5708955 5.07761194-13.7149253 5.28582086-8.5701493 14.48731346-14.56119407 24.45447766-15.958209 2.6664179-.45 5.3731343-.16791045 8.0462686-.45z" fill="#676767" opacity=".4" transform="translate(0 10)"/><path d="m22.338806 0h1.6119403c9.080597.20149254 17.9597015 4.13731343 24.252985 10.6791045-3.2910447 2.0350746-7.0455223 3.0626865-10.4776119 4.8156716-8.0932836 3.888806-16.5358209 7.0455224-24.5552239 11.0753732-.1410448 1.8201492-.6447761 3.5731343-1.141791 5.3194029-.1746269-1.3970149-.3492538-2.7873134-.6313433-4.1641791-1.59179105-7.361194-5.56791045-14.2052238-11.26343284-19.12835817 6.1119403-5.32611941 14.09104474-8.44253732 22.20447764-8.59701493z" fill="#047bb7" transform="translate(79.925373 10)"/><path d="m23.2186567 2.04179104c1.7126866-.6380597 3.4858209-1.11492537 5.2858209-1.41716417 1.2291045.42985074 2.4917911.80597014 3.8149254.79925373-5.4335821 8.23432836-10.7328358 16.5492537-16.2067164 24.7567164-4.130597 5.7895523-7.71716421 11.9485075-11.90149257 17.6977612-.96044776 1.2089552-1.24925373 2.7402985-1.57164179 4.2044776-.91343284-2.3843283-1.67910448-4.8358209-2.05522388-7.361194 1.32313433-2.1022388.94701492-4.6410448.88656716-6.9917911 6.27313433-9.2149253 12.37164178-18.5574626 18.60447758-27.8059701.9067165-1.4238806 2.8947762-2.06865672 3.1432836-3.88208956z" fill="#cb751a" opacity=".8" transform="translate(22.164179 10)"/><path d="m.29552239.62462687c4.21119403-.73208956 8.55-.68507463 12.77462691-.04701493-.7455224.28208955-1.4977612.55074627-2.2567165.79253731-2.23656713-.18134328-4.47985071-.22835821-6.70298504.05373135-1.32313433.00671641-2.58582089-.36940299-3.81492537-.79925373z" fill="#e16b20" opacity=".89" transform="translate(50.373134 10)"/><path d="m36.5776119.57761194c1.7261194.29552239 3.4119403.75223881 5.077612 1.29626866-4.4529851 5.37313433-7.7171642 11.5858209-11.8074627 17.2141791-8.6507463 12.9291045-17.3283582 25.8447761-25.78432836 38.8880597-1.26268657-1.4641791-2.42462687-3.0089552-3.45223881-4.6410448.36940299-1.2156716.73208955-2.4514925 1.47089552-3.5059701 5.61492538-8.1268657 10.96791045-16.4216418 16.37462685-24.6828358 5.2858209-7.9253732 10.8402985-15.67611945 15.8641791-23.77611945.7589552-.24179104 1.5111941-.51044776 2.2567164-.79253731z" fill="#cc4520" opacity=".8" transform="translate(26.865672 10)"/><path d="m12.2641791 8.24104478c6.2597015-5.60820896 14.6820896-8.20074627 23.0037313-8.20746269l.1074627.91343284c-4.6544776.70522388-8.919403 2.87462686-12.7477612 5.52089552-1.0947761-.98731344-2.1358209.45671642-2.9753731 1.03432836-1.6522388 1.69253731-4.0164179 3.19701489-4.0701492 5.82313429-3.5731344 5.0507463-6.09179109 10.9208956-6.66268661 17.1268657-3.57985075.3962687-4.86940299 4.4328358-7.10597015 6.7298508-.27537314.0268656-.82611941.0873134-1.10820896.1141791-1.02761194-10.7798508 3.34477612-21.9626866 11.55895522-29.05522392z" fill="#cba714" opacity=".8" transform="translate(.671642 10.671642)"/><path d="m30.3044776.75223881c2.2231343-.28208956 4.4664179-.23507463 6.7029851-.05373135-5.0238806 8.1-10.5783582 15.85074624-15.8641791 23.77611944-5.4067164 8.261194-10.7597015 16.5559701-16.37462688 24.6828358-.73880597 1.0544776-1.10149254 2.2902985-1.47089553 3.5059701-1.00074626-1.6925373-1.9141791-3.4388059-2.67313432-5.2522388.32238806-1.4641791.61119403-2.9955224 1.57164179-4.2044776 4.18432835-5.7492537 7.77089552-11.9082089 11.90149254-17.6977612 5.4738806-8.2074627 10.7731343-16.52238804 16.2067164-24.75671639z" fill="#cb5c1d" opacity=".8" transform="translate(24.179104 10.671642)"/><path d="m37.6253731.53059702c2.827612.98731343 5.5074627 2.3641791 8.0328359 3.9761194-6.1119403 7.12611938-10.5313433 15.55522388-16.0858209 23.11791048-.5574627.7858209-1.5380597 1.0007462-2.377612 1.3365671-3.922388-1.9477612-7.8783582 2.7671642-6.4880597 6.5350747-5.3597015 8.1873134-11.10895521 16.1395522-16.11940297 24.5552238-.27537313 0-.8261194.0134329-1.10149253.0134329-1.20895523-1.0746269-2.37089553-2.2164179-3.45223881-3.4320896 8.45597015-13.0432836 17.13358211-25.9589552 25.78432831-38.8880597 4.0902986-5.6283582 7.3544777-11.84104476 11.8074627-17.21417908z" fill="#cc2c23" opacity=".8" transform="translate(30.895522 11.343284)"/><path d="m2.92164179 16.3746269c3.98955224-7.54925377 10.89402981-13.51343287 18.95373131-16.34776123-.2485074 1.81343284-2.2365671 2.45820896-3.1432835 3.88208955-6.2328359 9.24850748-12.33134333 18.59104478-18.60447766 27.80597018-.32238806-3.5664179.69179105-7.0522388 1.86044776-10.3701493.55074627-1.6052239 1.53134329-3.230597.93358209-4.9701492z" fill="#cb8d18" opacity=".8" transform="translate(23.507463 12.014925)"/><path d="m42.3.47686567c1.1350746.83283582 2.2634328 1.67238806 3.2977612 2.61268657-2.7940299 3.15671642-5.7559702 6.25298507-7.65 10.06791046-2.1492537 3.7947761-3.1432836 8.0529851-4.05 12.2708955-4.8358209 8.9597015-11.1895522 16.9723881-16.5895522 25.5895522-2.6597015 3.5731344-4.5671642 7.7238806-7.86492542 10.7865672-3.37835821-1.4238806-6.54179104-3.3649254-9.31567164-5.769403.27537314 0 .8261194-.0134328 1.10149254-.0134328 5.01044776-8.4156717 10.75970152-16.3679105 16.11940302-24.5552239.8664179 1.5514925 2.2432835 3.1365672 4.1776119 3.1567164 2.780597.2955224 5.158209-2.330597 5.0507463-5.0238806.0671642-1.9410447-1.1552239-3.6604477-2.7402985-4.6679104.8395522-.3358209 1.8201492-.5507463 2.3776119-1.3365672 5.5544776-7.5626865 9.9738806-15.99179103 16.0858209-23.11791043z" fill="#cc1326" opacity=".8" transform="translate(34.253731 15.373134)"/><path d="m4.20447761 1.45746269c.83955224-.57761194 1.88059702-2.02164179 2.97537314-1.03432836-2.65298508 1.95447761-4.97686568 4.30522388-7.04552239 6.85746268.05373134-2.6261194 2.41791045-4.13059701 4.07014925-5.82313432z" fill="#dbb416" opacity=".86" transform="translate(16.119403 16.716418)"/><path d="m.34253731.38955224c6.15895523.09402985 12.32462689-.02686567 18.48358209.06044776 5.4470149.22164179 11.3171642 2.64626866 13.7552239 7.83134328 2.5455224 5.52089552 2.7268657 12.48582092-.5104478 17.76492542-2.5589552 4.0298507-7.65 5.0977612-12.0962686 5.1783582 5.7358209 8.5567164 11.1492537 17.3283582 16.8246268 25.9253731-.2619403.1544776-.7791044.4634328-1.0343283.6179104-5.6753732-8.9059701-11.4649254-17.7447761-17.2141791-26.6104477-5.7089553.0201492-11.41791048.0067164-17.13358212.0067164.06716418 8.6843284.04701492 17.3619403.02014925 26.0395522-.24850746.1544777-.7522388.4634329-1.00074627.6179105-.18134328-19.1350746 0-38.2902985-.09402985-57.43208956zm1.08134329 1.15522388c.05373134 9.42313428.05373134 18.84626868 0 28.27611938 6.46119403-.0067164 12.9223881.0067164 19.3768657-.0067164 4.661194-.0671642 9.8664179-2.1761194 11.5925373-6.8440298 1.5985074-4.7417911 1.3298507-10.2358209-.9537314-14.71567169-2.4044776-4.50671642-7.6768656-6.54179104-12.552985-6.68955224-5.8231344-.06716418-11.63955227-.01343283-17.4626866-.02014925z" fill="#7c7c7c" opacity=".49" transform="translate(143.059701 17.38806)"/><path d="m12.0156716.40298508c.0537314.03358208.1544777.10074626.208209.13432835 5.6955224 4.92313433 9.6716418 11.76716417 11.2634328 19.12835817-.4567164 1.3432836-.852985 2.7134329-1.2425373 4.0835821-3.1365671 1.6522388-6.4141791 2.9955224-9.6044776 4.5402985-.2955224-.8865671-.6447761-1.7597015-.9335821-2.6462686-.1208955 1.6186567-.4365671 3.2238806-.8126865 4.8022388-.1074627-2.8141791-.0738806-5.6350746-.1074627-8.4492537l-.79925377.0134328c-.0402985 3.2373134-.02014925 6.4746269-.04701492 9.7119403-.96716418-2.1626866-.64477612-4.5940299-.86641791-6.8977612-.18134329 1.7395522-.47686567 3.4723881-.56417911 5.2253731-2.75373134 1.1686567-6.13880597 1.8873135-7.26716418 5.0507463-1.02089552-4.0365672-1.07462686-8.2208955-.92686567-12.358209.90671642-4.2179104 1.90074627-8.4761194 4.05-12.2708955 1.89402985-3.81492535 4.85597015-6.91119401 7.64999996-10.06791042z" fill="#cd194d" transform="translate(67.835821 18.059701)"/><path d="m36.7858209.60447761c1.6925373 1.78656717 3.2037313 3.73432836 4.5134328 5.80970149-7.6768656 4.2514925-15.9850746 7.2134328-23.9238806 10.9276119-1.0343283.3962687-1.7059701 1.2962687-2.4044776 2.0955224-2.5388059.047015-4.9701492 1.5313433-5.66865669 4.0634329-1.20223881-2.0686567-3.51940299-.530597-5.0977612.1544776-1.18880597.45-1.92089552 1.4910448-2.65298507 2.4649254-.32238806-1.1485075-.67164179-2.2835821-.93358209-3.438806 0-.2149254-.00671642-.6514926-.00671642-.8664179.49701493-1.7462687 1.00074627-3.4992538 1.14179104-5.319403 8.01940299-4.0298508 16.46194033-7.18656718 24.55522393-11.07537315 3.4320895-1.75298507 7.1865671-2.78059701 10.4776119-4.81567164z" fill="#206da8" transform="translate(91.343284 20.074627)"/><g fill="#3e5e98" transform="translate(51.044776 26.119403)"><path d="m57.6738806 11.2970149c7.938806-3.71417908 16.2470149-6.67611938 23.9238806-10.92761191 1.1082089 1.79328358 2.0485075 3.68731343 2.8410448 5.64179104-5.3059702 2.8880597-11.0820896 4.77537317-16.4820896 7.48208957-2.861194 1.5313433-6.3402985 2.0619403-8.6171642 4.5268657-.4231343-2.216418-2.25-3.5597015-4.0701492-4.627612.6985074-.7992537 1.3701492-1.6992537 2.4044776-2.0955224z"/><path d="m.55746269 20.7201493c-1.39029851-3.7679105 2.56567164-8.4828359 6.4880597-6.5350747 1.58507462 1.0074627 2.80746268 2.7268657 2.74029851 4.6679105.10746268 2.6932836-2.27014926 5.319403-5.05074627 5.0238806-1.93432836-.0201493-3.31119403-1.6052239-4.17761194-3.1567164zm2.8880597-5.9440299c-2.87462687 1.2559702-3.45223881 5.6955224-.94029851 7.6164179 1.96791045 1.9208955 5.46044776.8261194 6.36044776-1.6656716 1.61194026-3.1902985-1.94104477-7.8716418-5.42014925-5.9507463z"/></g><path d="m4.26492537.25522388c.5977612 1.73955224-.38283582 3.36492537-.93358209 4.97014925-1.16865671 3.31791045-2.18283582 6.80373137-1.86044776 10.37014927.06044776 2.3507463.43656717 4.8895522-.88656716 6.991791-1.24253732-7.5828358-.03358209-15.58208952 3.68059701-22.33208952z" fill="#d09018" opacity=".82" transform="translate(22.164179 28.134328)"/><path d="m46.1552239.6380597c.6649254 1.75970149 1.2156716 3.55970149 1.6320895 5.39328358-8.9731343 3.80820896-17.8992537 7.74402982-26.7850746 11.74029852-2.9485075 1.8201492-6.4410448 2.330597-9.5238806 3.8552239-2.89477611 1.3902985-5.98432835 2.3641791-8.73805969 4.0298507-.79925373.4097015-1.59179105 1.0410448-2.55895523.8395523.18805971-.4365672.55746269-1.316418.74552239-1.7597015 2.16940299-3.2171642 6.05149254-4.2111941 9.36940303-5.7895523 1.1888059-.5977612 2.5320895-.6514925 3.8149253-.3895522 1.6858209.3089552 3.6537314.5843283 4.9634329-.7925373 1.6388059-1.1686567 1.9410447-3.2507463 1.9813432-5.1179105 2.2768657-2.4649253 5.7559702-2.99552236 8.6171642-4.52686565 5.4-2.70671641 11.1761194-4.59402985 16.4820896-7.48208955z" fill="#5e4f88" transform="translate(89.328358 31.492537)"/><path d="m25.0320896 12.3985075c8.8858208-3.99626869 17.8119403-7.93208959 26.7850746-11.74029854.3425373 1.73955223.5977612 3.49925373.7320895 5.26567164-14.1783582 5.9440298-28.0880597 12.5059701-42.2261194 18.5507463-3.3850746 1.35-6.59552236 3.5126865-10.19552236 4.1171641 1.69253731-2.2902985 2.97537313-4.8492537 4.08358209-7.4686567.96716418.2014926 1.75970149-.4298507 2.55895522-.8395522 2.75373135-1.6656717 5.84328355-2.6395522 8.73805975-4.0298508 3.0828358-1.5246268 6.5753731-2.0350746 9.5238806-3.8552238z" fill="#7a4179" transform="translate(85.298507 36.865672)"/><path d="m21.5731343 4.27164179c.3895523-1.37014925.7858209-2.74029851 1.2425373-4.08358209.2820896 1.37686567.4567165 2.76716418.6313433 4.16417911 0 .21492537.0067164.65149253.0067164.86641791.1141791 4.5402985-.2149253 9.14776118-1.7059701 13.47313428-.1880597.4432836-.5574627 1.3231344-.7455224 1.7597015-1.1082089 2.619403-2.3910448 5.1783582-4.0835821 7.4686568-1.6791045 2.0082089-3.2507463 4.1641791-5.3597015 5.7425373-.0335821.080597-.1141791.241791-.1477612.322388-4.92985072-5.2052239-9.2753731-11.2365671-10.84029848-18.3626865 1.12835821-3.1634329 4.51343284-3.8820896 7.26716418-5.0507463.08731343-1.75298508.38283582-3.4858209.56417911-5.22537314.22164179 2.30373134-.10074627 4.73507464.86641791 6.89776124l.1880597.4097014c2.12238808.1343284 4.25820898.2552239 6.37388058-.0671641.0604478-.2283582.1880597-.6783582.2552239-.9067165-1.9746269-.0067164-3.9492537-.1208955-5.9238806-.1276119l.0604478-.5843284c.3761194-1.57835816.691791-3.18358204.8126865-4.80223876.288806.88656717.6380597 1.75970149.9335821 2.64626866 3.1902985-1.54477612 6.4679105-2.8880597 9.6044776-4.54029851z" fill="#db1146" transform="translate(68.507463 37.537313)"/><path d="m.57089552 4.69477612c.69850747-2.53208955 3.12985075-4.01641791 5.66865672-4.06343284 1.82014925 1.06791045 3.64701492 2.41119403 4.07014926 4.62761194-.0402985 1.86716418-.34253732 3.94925374-1.98134329 5.11791048-1.30970149 1.3768656-3.27761194 1.1014925-4.96343284.7925373-2.25-1.37014927-3.19701492-3.92238807-2.79402985-6.47462688zm2.00149254 4.17761194-.14104478.51716418c1.40373135.83283586 3.16343284 1.14850746 4.70149254.49029851 1.75298508-.94029851 2.26343284-3.05597015 2.25671642-4.89626866l-.34925373-.19477612c-.37611941-1.94104478-2.31044776-3.39179104-4.29850747-2.98880597-3.17014925.30895522-4.5402985 5.0238806-2.16940298 7.07238806z" fill="#844e6a" transform="translate(100.074627 38.880597)"/><path d="m.58432836.51716418.79925373-.01343284c.03358209 2.81417911 0 5.63507463.10746269 8.44925373l-.06044777.58432836c1.97462687.00671642 3.94925374.12089553 5.9238806.12761194-.06716418.22835821-.19477612.67835823-.25522388.90671643-2.11567164.3223881-4.25149254.2014925-6.3738806.0671642l-.1880597-.4097015c.02686567-3.23731346.00671642-6.47462689.04701493-9.71194032z" fill="#e05279" transform="translate(77.238806 39.552239)"/><path d="m1.14179104 6.95820896c2.23656717-2.29701493 3.52611941-6.33358209 7.10597015-6.72985075-.39626865 3.29776119-.17462686 6.62910448.34925374 9.89328359-.70522389.1276119-1.40373135.2619403-2.10895523.4029851-1.31641791 1.7664179-2.70671642 3.552985-4.69477612 4.6074627-.88656716-2.6126866-1.45746268-5.31940303-1.75970149-8.05970154.28208955-.02686567.83283582-.08731343 1.10820895-.1141791z" fill="#cb711b" opacity=".8" transform="translate(1.343284 40.895522)"/><path d="m2.7738806.67164179c3.47910447-1.92089552 7.03208955 2.76044776 5.42014925 5.95074627-.9 2.49179104-4.39253731 3.58656714-6.36044776 1.66567164-2.5119403-1.92089552-1.93432836-6.36044776.94029851-7.61641791z" fill="#cc1c25" opacity=".8" transform="translate(51.716418 40.223881)"/><g fill="#cc0028" opacity=".8" transform="translate(4.701493 40.223881)"><path d="m46.8604478 26.1671642c5.4-8.6171642 11.7537313-16.62985077 16.5895522-25.58955226-.1477612 4.13731343-.0940299 8.32164179.9268657 12.35820896 1.5649253 7.1261194 5.9104477 13.1574627 10.8402985 18.3626866-4.7552239 3.7813432-10.2962687 6.7298507-16.3477612 7.7104477-2.0014926-1.1149253-4.3052239-.5507462-6.4746269-.611194-2.1761194.0537313-4.4664179-.5037313-6.4746268.5910448-2.377612-.3962687-4.6947762-1.1216418-6.9246269-2.0350747 3.2977612-3.0626865 5.2052239-7.2134328 7.8649254-10.7865671z"/><path d="m6.54850746 15.7768657c3.78805974 11.3641791 14.01044774 20.3037313 25.87164184 22.2649253.2820895.5574627.611194 1.0880597 1.0007462 1.5850747h-.3828358c-.1880597-.3291045-.5708955-.9940299-.7589552-1.3231344-12.9492538 1.269403-25.97238808-6.2328358-31.81567166-17.7716417.60447761-.0537314 1.21567164-.0873135 1.82686567-.0940299 1.2761194-1.6791045 2.72014925-3.2171642 4.25820895-4.661194z"/></g><path d="m1.22910448 7.52910448c-2.37089552-2.04850747-1.00074627-6.76343284 2.16940298-7.07238806 1.9880597-.40298508 3.92238806 1.04776119 4.29850747 2.98880597-2.19626866-.55074627-4.15746269.71865671-6.05149254 1.65895522-.16791045.79925373-.30223881 1.6119403-.41641791 2.42462687z" fill="#405d97" transform="translate(101.41791 40.223881)"/><path d="m5.54776119 1.49104478c1.57835821-.68507463 3.89552239-2.22313433 5.09776121-.15447762-.4029851 2.55223881.5440298 5.10447762 2.7940298 6.47462687-1.2828358-.2619403-2.6261194-.20820896-3.81492533.38955224-3.31791045 1.57835821-7.2 2.57238803-9.36940299 5.78955223 1.49104478-4.32537313 1.82014925-8.93283581 1.70597015-13.47313432.2619403 1.15522388.61119403 2.29029851.93358209 3.43880597.73208955-.9738806 1.4641791-2.01492537 2.65298507-2.46492537z" fill="#475a94" transform="translate(90 42.238806)"/><path d="m.9738806 2.41791045c1.89402985-.94029851 3.85522388-2.20970149 6.05149253-1.65895523l.34925374.19477612c.00671641 1.84029851-.50373135 3.95597015-2.25671642 4.89626866-1.5380597.65820896-3.2977612.34253731-4.70149254-.49029851l.14104478-.51716418c.1141791-.81268656.24850746-1.62537313.41641791-2.42462686z" fill="#53548e" transform="translate(102.089552 42.910448)"/><path d="m15.6962687 19.1014925c14.1380597-6.0447761 28.0477612-12.60671638 42.2261194-18.55074623.1343283 2.29701492.033582 4.60746269-.2686568 6.89104477-5.7895522 2.00820896-11.25 4.82238806-16.8783582 7.22014926-12.4589552 5.7895522-25.1597015 11.041791-37.69253728 16.6634328-1.02089552-.7455224-1.98134328-1.5582089-2.94179104-2.3641791 2.10895522-1.5783582 3.68059701-3.7343283 5.35970149-5.7425373 3.6-.6044776 6.81044773-2.7671642 10.19552243-4.1171642z" fill="#9a3168" transform="translate(79.925373 42.238806)"/><path d="m38.088806 7.2738806c5.6283582-2.3977612 11.0888059-5.2119403 16.8783582-7.22014926-.45 3.12313433-1.2828358 6.19925373-2.538806 9.10746269-3.4119403.85298507-6.541791 2.47164177-9.7320895 3.91567167-8.9328359 3.7343283-17.7044777 7.8514925-26.5902986 11.6865671-2.5656716 1.0410448-5.1044776 2.1358209-7.56940294 3.3917911-2.8880597-1.0477612-5.62164179-2.4783582-8.1402985-4.2179105 12.53283584-5.6216418 25.23358204-10.8738806 37.69253734-16.6634328z" fill="#bd2056" transform="translate(82.61194 49.626866)"/><path d="m5.14477612.45c.70522388-.14104478 1.40373134-.27537313 2.10895522-.40298507.3358209 1.68582089.79253732 3.34477611 1.3097015 4.98358208-1.53805971 1.44402986-2.98208956 2.98208956-4.25820896 4.66119403-.61119403.00671642-1.22238806.04029851-1.82686567.09402986-.77910448-1.53134329-1.47761194-3.10298508-2.02835821-4.72835821 1.9880597-1.05447762 3.37835821-2.84104478 4.69477612-4.60746269z" fill="#cc3822" opacity=".8" transform="translate(2.686567 50.970149)"/><path d="m34.6365672 4.34552239c3.1902985-1.44402985 6.3201492-3.06268657 9.7320895-3.91567164-1.4440298 3.28432835-3.3582089 6.38059701-5.7358209 9.07388059-3.4253731.80597016-6.4141791 2.73358206-9.6716418 3.98955226-4.5873134 1.8335821-9.0470149 3.9828358-13.6141791 5.8701492-1.0544776.2619403-1.5783582 1.1552239-1.9074627 2.1223881l-.2619403.0067164h-2.1626865c-3.58656719-.1880597-7.15970152-.8395522-10.53805973-2.0686567 2.46492537-1.2559702 5.00373134-2.3507463 7.56940299-3.391791 8.88582094-3.8350747 17.65746264-7.95223885 26.59029854-11.68656721z" fill="#dd1145" transform="translate(90.671642 58.358209)"/><path d="m15.5283582 4.09029851c3.2574627-1.25597015 6.2462687-3.18358209 9.6716418-3.98955224-6.2529851 7.26716418-15.60895522 11.71343283-25.19328358 11.98208953.32910448-.9671642.85298507-1.8604477 1.90746268-2.12238804 4.56716418-1.88731343 9.0268657-4.03656716 13.6141791-5.87014925z" fill="#f0083b" transform="translate(104.104478 67.761194)"/><path d="m.24850746.70522388c2.00820896-1.09477612 4.29850747-.53731343 6.47462687-.59104478 2.16940298.06044777 4.47313437-.50373134 6.47462687.61119403-4.2716418.7119403-8.67761195.71865672-12.94925374-.02014925z" fill="#e2002d" opacity=".89" transform="translate(50.373134 78.507463)"/></g></svg>