<svg height="90" viewBox="0 0 180 90" width="180" xmlns="http://www.w3.org/2000/svg"><path d="m171.207692 21h1.353147c3.908392.2643357 7.093007 3.5937063 7.357343 7.4769231v.7048951c-.239161 2.3979021-1.315385 4.7769231-3.367133 6.1426573-2.36014 1.8062937-5.582518 1.6363637-8.244755.6797203-1.422378.3965035-2.825874.8244755-4.235665 1.2398601.459441-1.2713286.906294-2.548951 1.34056-3.8328671-.906294-1.8944056-1.648951-4.0216783-1.095105-6.1363636.579021-3.3482518 3.574825-5.8783217 6.891608-6.2748252zm-3.052447 6.7153846c-.069231.8874126-.151049 1.7748252-.251748 2.6622378.50979-.5034965 1.095104-.9 1.74965-1.1895105-.056644-.2328671-.16993-.6986014-.226574-.9251748l1.359441-.1195805c-.018881.5097903-.056643 1.5293707-.075524 2.0391609.780419.0188811 1.567132.0314685 2.353846.0377622.012587-.9566433 0-1.906993-.031469-2.8636363-.195105.5601398-.579021 1.6741258-.774126 2.2342657-.232867-.4405594-.704895-1.3153846-.944056-1.7559441-1.051049-.062937-2.108391-.1195804-3.15944-.1195804zm7.936363-.2391608c-.251748.4216783-.742657 1.2776224-.994405 1.7055944.39021.4531468.780419.9062937 1.176923 1.3594405.081818-.8181818.157343-1.6363636.232867-2.4608391-.100699-.151049-.314685-.4531469-.415385-.6041958zm-1.925874.8055944c-.012587.2580419-.037762.7741259-.050349 1.0321678l.472028.0062937c.018881-.2643356.050349-.7867133.062937-1.0447552zm-119.7566431 1.7433566c2.6370629 2.3853147 5.186014 4.8587413 7.8167832 7.2503497-.1321678 2.4608391-.1195804 4.9216783-.1006993 7.3888112-2.6433566-2.2972028-5.0853147-4.8146854-7.6846154-7.1622378.0566434-2.4923077.0503497-4.9846154-.0314685-7.4769231zm26.8048951.0062937c2.227972 1.9825175 4.3867133 4.0405595 6.5706294 6.0671329-.044056 8.3958042-.0818182 16.7853147.0251748 25.1811189h-.3461538c-2.0265735-1.9951049-4.0846154-3.9587413-6.2244756-5.827972.0188812-8.4776224.0566434-16.9489511-.0251748-25.4202798zm-74.64335663 5.5384616c5.94125873 0 11.88251753.1132867 17.81748253-.0755245-2.0832168 2.0895105-4.2671329 4.0657343-6.3881119 6.1048951-5.9979021.0062937-11.9958042-.0062937-18 .0125874 2.10839161-2.1020979 4.33006993-4.0909091 6.57062937-6.041958zm24.52657343.0692307c5.4566434.0188812 10.906993-.0188811 16.3636364.0188812-2.1587413 1.96993-4.2734266 3.9776223-6.3755245 5.9979021-3.3293706-.0062938-6.6587413 0-9.9881119 0 .0125874 3.0650349.0314685 6.1300699-.0251748 9.1951049 3.6251748 3.5370629 7.476923 6.834965 11.0517482 10.4286713h-6.3188811c-2.3538461 1.0636363-3.6755245-.6671329-5.0979021-1.8881119-1.9825175-1.906993-3.9965035-3.7825175-6.0230769-5.6391608.1321678-3.9713287-.0692308-7.9426574.0818182-11.9139861 1.7622377-2.3664335 4.241958-4.1160839 6.3314685-6.1993007zm72.2013982 4.2104895c1.611189-1.4601398 3.190909-2.9517482 4.789511-4.4244755 2.593007 2.5678322 5.255245 5.079021 7.942657 7.5524476-2.681119 2.3223776-5.192307 4.8335664-7.823077 7.2125874-1.913286.0062937-3.826573.0062937-5.733566-.0125874 0-2.0391609 0-4.0783217 0-6.1237762 1.806294-.0125875 3.606294.0062937 5.418881 0-1.485315-1.4475525-3.014685-2.8573427-4.594406-4.2041959zm46.208392-4.1475524c3.637762 0 7.281818-.0125874 10.91958.0062937-.075524 2.120979-.062937 4.2419581.025175 6.3629371-2.681119.0188811-5.355944.0188811-8.030769 0-2.02028 1.7685314-4.021678 3.555944-5.922378 5.4566433-1.560839-1.5230769-3.121678-3.0461538-4.751748-4.5 2.64965-2.3727272 5.173427-4.8776223 7.76014-7.3258741zm-25.03007 4.3174825c1.573427-1.4160839 3.109091-2.8762238 4.61958-4.3615384 2.662238 2.4608391 5.343357 4.8965035 7.961539 7.4013986-.094406 2.7-.05035 5.4062937-.05035 8.1125874 1.453846 1.3531468 2.86993 2.7503496 4.399301 4.0216783-1.541958 1.5482517-3.146853 3.0335664-4.745455 4.5188811-1.988811-1.9762238-4.090909-3.8391608-6.098601-5.7902098.069231-2.6811189.031469-5.3622377.062937-8.0370629-2.058042-1.951049-4.053147-3.965035-6.148951-5.8657343zm-57.3734265 5.7083916c2.3538462-2.2027972 4.7265734-4.3867133 7.0615385-6.6146853 1.5734265 1.5167832 3.1720279 3.0083916 4.7832167 4.4811189-1.9762237 1.7307692-3.8832167 3.5433566-5.7776223 5.3622378.0440559 2.1587412.0377622 4.3174825 0 6.4762237 1.8.0188812 3.6062937.0188812 5.4062937.0251749-.0377623 1.9447552-.0377623 3.8832167-.0314686 5.8216783h-5.248951c-2.1461538-1.8566434-4.0972028-3.9146853-6.1867133-5.8342658 0-3.2412587.0062937-6.4762237-.0062937-9.7174825zm-17.5405594-.0062937c1.5923077-1.4664335 3.1594405-2.9580419 4.7202797-4.4685314 2.6811189 2.4230769 5.3055944 4.9027972 7.9300699 7.3825174-.0566433 4.2104895-.0755245 8.4272728.0188811 12.644056h-.2265734c-2.1713287-1.8125874-4.1601399-3.8202797-6.2370629-5.7398602.0125874-1.3468531.0251748-2.7.0503496-4.0468531-2.0769231-1.9321678-4.1664335-3.8517483-6.255944-5.7713287zm-41.50699304-2.6937063c2.27832164 1.9699301 4.44335664 4.0657343 6.64615384 6.1237763-.0755245 4.027972-.1006993 8.055944.0314685 12.083916-2.2846154-2.0076923-4.4055944-4.1853146-6.60209787-6.2748251.06293706-3.9776224.14475525-7.9615385-.07552447-11.9328672zm84.84545454 1.0195804c2.165035-.0062937 4.3237762-.0062937 6.4888112.0062938-.0692308 2.3664335-.0755245 4.7328671-.0692308 7.0993007 2.051748 1.9384615 4.090909 3.8895104 6.224476 5.7398601-1.56084 1.4727273-3.065035 3.0020979-4.707693 4.3867133h-.113286c-2.624476-2.4356644-5.2048956-4.9153846-7.8419585-7.3384616.0566433-3.2979021.0377622-6.5958042.0188811-9.8937063zm24.4258744 0c2.177622-.0062937 4.355244-.0062937 6.532867.0188812-.069231 2.3790209-.062937 4.7580419-.062937 7.1433566 2.032867 1.9573427 4.05944 3.9272727 6.167832 5.8090909-1.504196 1.4349651-2.970629 2.9076923-4.544056 4.2608392h-.371329c-2.511188-2.4986014-5.192307-4.820979-7.734965-7.3006993.056644-3.3104895.044056-6.620979.012588-9.9314686zm32.148251 6.193007c1.604896-1.5041958 3.197203-3.0335664 4.726574-4.6195804 3.014685 2.9391609 5.972727 5.9349651 9.069231 8.7923077-2.498602 2.227972-4.858742 4.606993-7.325874 6.8664336h-11.007693c-.006293-1.9825175-.006293-3.965035-.050349-5.9475525 3.335664-.0377622 6.677622.0188812 10.01958-.0314685-1.862937-1.6300699-3.656643-3.3356643-5.431469-5.0601399zm-114.803496-2.3853146c3.3797203-.0125875 6.7594405-.0377623 10.1391608-.0503497-.0377622 3.279021-.0503496 6.5643357.0251748 9.8433566-3.341958-3.3104895-6.7531468-6.5580419-10.1643356-9.7930069z" fill="#1a1a1a"/></svg>