<svg height="90" viewBox="0 0 180 90" width="180" xmlns="http://www.w3.org/2000/svg"><g fill="none" fill-rule="evenodd" transform="translate(0 20)"><path d="m.34951456 28.7825243c-1.22330097-13.054369 8.65048544-25.90776702 21.56504854-28.11844663 13.1417476-2.78737864 27.3582524 6.07281553 30.6786408 19.08349513 4.3776699 13.884466-5.1029126 30.0932039-19.3805825 33.0291262-.0174758-8.3009708-.0087379-16.6019417-.0087379-24.9029126 2.9708738-.1048544 6.0029126.0611651 8.9126214-.6553398.7165048-1.4679612.3320388-2.3941748-1.1446602-2.761165-2.5951457-.6815534-5.3126214-.454369-7.9689321-.5592233.2446602-2.4553399-.0174757-5.0592233.9873787-7.3660195 2.507767-1.9572815 6.107767-1.3631068 9.0174757-2.4466019-2.0009709-4.0631068-7.7592233-3.5213592-10.8087379-1.0572816-2.9184466 2.2718447-2.953398 6.2912622-2.9883495 9.6553398.0873787 10.2495146.0611651 20.4902913.0524272 30.7398059-2.9796117.2708738-5.9679612-.0873787-8.9126214-.5417476-.1398058-10.0660194.2184466-20.1407767-.2708737-30.1980583-1.2320389.5242719-2.5252428.9611651-3.6611651 1.6776699-.6640777 2.3067962-.5504854 4.7533981-.576699 7.1300971.1223301 6.6145631.0699029 13.2378641.1223301 19.8524272-8.70291265-4.0980582-15.13398061-12.8359223-15.61456314-22.561165zm17.34466024-17.8252427c-3.5563107.3233009-2.9883496 6.2475728.6116504 5.9504854 3.8970874-.2271845 3.3291263-6.7281553-.6116504-5.9504854z" fill="#a7d48c" fill-rule="nonzero"/><g fill="#81a56a" transform="translate(8.737864 10.485437)"><path d="m8.95631068.47184466c3.94077672-.7776699 4.50873782 5.72330097.61165049 5.95048544-3.6.29708738-4.16796117-5.62718447-.61165049-5.95048544z"/><path d="m7.68058252 13.8757282c1.13592233-.7165049 2.42912618-1.1533981 3.66116508-1.6776699.4893204 10.0572815.1310679 20.1320388.2708738 30.1980582-.0349515 3.6611651.2621359 7.6631068-1.81747577 10.8873786-1.23203883 2.062136-3.28543689 3.4165049-5.42621359 4.3864078h-4.10679612c-.76893204-4.3427184 4.99805825-4.1504854 6.26504855-7.5320388 1.09223301-2.9621359.60291262-6.1951457.69902912-9.2796117-.05242718-6.6145631 0-13.2378641-.12233009-19.8524272.02621359-2.376699-.08737865-4.8233009.57669902-7.130097z"/></g><path d="m32.1990291 13.0281553c3.0495146-2.4640776 8.807767-3.0058252 10.8087379 1.0572816-2.9097087 1.0834951-6.5097087.4893204-9.0174757 2.4466019-1.0048544 2.3067962-.7427185 4.9106796-.9873787 7.3660195 2.6563107.1048543 5.3737864-.1223301 7.9689321.5592233 1.476699.3669902 1.861165 1.2932038 1.1446602 2.761165-2.9097088.7165049-5.9417476.5504854-8.9126214.6553398 0 8.3009709-.0087379 16.6019418.0087379 24.9029126-1.3106797.2533981-2.6300971.4631068-3.9495146.646602.0087379-10.2495146.0349515-20.4902913-.0524272-30.7398059.0349515-3.3640776.0699029-7.3834951 2.9883495-9.6553398z" fill="#fefdfe"/><g fill="#808080" transform="translate(65.834951 13.485437)"><path d="m4.26893204 1.80582524c.74271845-1.14466019 2.61262136-2.07961165 3.17184466-.28834951.85631068 1.14466019-1.10097087 1.52038835-1.63398058 2.22815534-.38446602-.48932039-1.15339806-1.4592233-1.53786408-1.93980583z"/><path d="m47.661165.1368932c3.346602.48932039 1.6689321 4.35145631 2.0446602 6.67572816 1.607767.05242718 3.215534.1223301 4.8145631.3407767-.5155339 2.50776699-2.9708737 1.72135922-4.8233009 1.85242718.2970874 3.61747576-.6378641 7.43592236.5679611 10.92233006 1.2495146.1572816 2.507767.2359224 3.7747573.2533981-.1485437.5504854-.4368932 1.6514563-.5854369 2.2019417-2.2281553.069903-5.0504854-.2097087-5.7757281-2.761165-.2446602-6.4834951-.1485437-12.99320389-.0174758-19.4854369z"/><path d="m61.0563107 3.19514563c.8126213-2.73495145 3.9932039-2.95339806 6.3524272-2.43786408-.0349515.64660195-.0699029 1.30194175-.1048544 1.94854369-1.4417476.13106796-3.3815534-.56796116-4.1417476 1.12718447-.0699029.74271845-.2097087 2.2368932-.2796116 2.97961165 1.5815534.03495146 3.1631068.11359223 4.7446602.23592233.0524272 2.68252427-2.8048544 1.8-4.6223301 1.97475728-.0436894 4.28155343.1572815 8.56310683-.0873787 12.83592233-.4543689.2097087-1.3543689.6203884-1.8.8213592-.3320388-6.4834951-.2796116-13.00194172-.061165-19.48543687z"/><path d="m108.240777.86213592c.436893-.13980582 1.301941-.4368932 1.730097-.58543689.550485 2.15825243.428155 4.40388349.480582 6.61456311 1.240777-.00873787 2.472816-.01747573 3.713593-.0262136v2.10582525c-1.258253 0-2.507767-.00873787-3.757282-.00873787.069903 3.58252428-.235922 7.19999998.218447 10.77378638 1.170873.2796117 2.350485.515534 3.538835.7165049v2.0621359c-1.502913-.2621359-3.136894-.1660194-4.508738-.9262136-1.948544-1.4330097-1.476699-4.115534-1.572816-6.2126213.131068-4.8320389-.183495-9.68155344.157282-14.51359228z"/><path d="m5.04660194 7.10097087c.4631068-.25339805 1.38932039-.76893204 1.85242719-1.02233009.39320388 5.71456312.12233009 11.44660192.19223301 17.16990292.34951456 3.0582524-3.21553398 6.9815534-6.16893204 4.5699029 1.44174757-1.3281553 4.07184466-2.0533981 4.00194174-4.4213592.2446602-5.4262136-.07864077-10.8699029.1223301-16.29611653z"/><path d="m14.3786408 6.19223301c.4980582.2184466 1.4854369.65533981 1.9747573.86504854.4980582 3.76601945-.262136 7.61941745.3757281 11.35922335.9524272 2.630097 4.2378641 1.6165048 6.3349515 1.5291262.0961165-4.5611651-.1135923-9.1398059.1660194-13.70097091.5067961.20097088 1.5291262.60291263 2.0359223.8038835.3495146 4.55242721.2271845 9.15728151.0524272 13.71844661-3.1019417 2.4291262-9.5330097 2.4466019-10.8349515-2.0533981-.6553398-4.1242718-.3669902-8.3708738-.1048543-12.52135919z"/><path d="m32.5184466 8.07961165c2.4902913-2.37669903 6.7980583-2.06213592 9.1135922.41067961-2.4029126 1.33689321-5.0854369-.5592233-7.6019417.53300971.0699029.96990291-.2621359 2.07087383.2883495 2.95339803 2.0271845 1.3368932 4.8757282 1.5728156 6.2825243 3.7398059 1.7126213 2.5601941-.4019418 6.3087378-3.3640777 6.5184466-2.315534.4106796-4.5961165-.4281554-6.4223301-1.8174758 2.7699029-1.4330097 6.0728155.8912622 8.5718447-1.5116505-.4631068-3.4776699-4.3514563-3.5388349-6.6495146-5.2601941-1.5029126-1.4330097-1.5116505-3.99320392-.2184466-5.56601945z"/><path d="m75.1417476 7.03106796c2.953398-1.41553398 7.3398058-.16601942 8.1961165 3.25048544.7165048 2.7349515.6203883 5.6796116 0 8.423301-1.3805825 4.2990291-8.0650486 4.9019417-10.4417476 1.1796116-1.3281553-2.1407767-.7951456-4.7621359-.8912621-7.1475728-.1223301-2.2805825.8388349-4.86699029 3.1368932-5.70582524zm.3932039 1.77378641c-2.0970874 2.91844663-1.4067962 6.70194173-.9873787 10.02233013.5504855.3757281 1.6514563 1.1184466 2.2106796 1.4941747 1.7563107-.1310679 4.0980583-.2621359 4.5524272-2.4029126.2446602-2.2718447.0961165-4.5699029.1223301-6.8592233-.3582524-.5504854-1.0747573-1.64271845-1.4330097-2.19320388-1.4854369-.22718447-2.9796117-.20097088-4.4650485-.06116505z" fill-rule="nonzero"/><path d="m90.284466 7.41553398c2.3067961-.47184466 4.7184466-1.39805825 7.0951457-.69902913 2.3592233.44563107 3.9058253 2.84854369 3.8621363 5.16407765 0 3.3116505.166019 6.6407767-.122331 9.9349515-.471844.2271844-1.4330092.6640777-1.9048539.8912621-.3495146-4.0718446.2970874-8.1961165-.4281553-12.2242718-1.0485437-2.63883498-4.3427185-1.84368935-6.5359224-1.57281556-.0349514 4.30776696.1135923 8.61553396-.0436893 12.90582526-.4631068.2359223-1.3893204.707767-1.8524272.9436893-.3320388-5.1029126-.2271844-10.2320388-.0699029-15.34368932z"/></g></g></svg>