<svg height="90" viewBox="0 0 180 90" width="180" xmlns="http://www.w3.org/2000/svg"><g fill="#666" fill-rule="evenodd" opacity=".89" transform="translate(0 23)"><path d="m13.656 1.5c1.56-.216 3.12-.36 4.692-.504-2.256 4.488-.924 9.612-1.476 14.4-4.032-3.504.456-9.948-3.216-13.896z"/><path d="m4.608 5.604c1.524.54 3.024 1.284 3.768 2.808 2.496 3.744 4.98 7.5 7.596 11.16 3.552-4.44 7.116-8.868 10.548-13.416.54.072 1.632.192 2.172.252-3.876 4.968-7.788 9.912-11.628 14.904 3.504 5.496 7.464 10.692 10.692 16.368-1.572-.408-3.12-1.08-3.828-2.64-2.64-4.056-5.352-8.064-8.136-12.036-3.276 3.912-6.348 7.98-9.444 12.024-.876 1.536-2.496 2.208-4.116 2.64 3.852-5.64 8.316-10.848 12.384-16.332-3.264-5.28-7.248-10.14-10.008-15.732z"/><path d="m1.716 14.4 1.776-1.728c.828 5.064 1.524 10.164 1.392 15.3-.78-1.164-1.464-2.376-2.052-3.648-.588.864-1.788 2.58-2.376 3.432.12-4.464.516-8.94 1.26-13.356z"/><path d="m28.8 13.14c.852.036 2.58.096 3.444.132-1.188 2.064-2.448 4.644-.48 6.708-1.296 2.304-.216 5.76-2.892 7.152-.168-4.656-.036-9.324-.072-13.992z"/><path d="m56.76 13.536c.456-.012 1.368-.048 1.824-.06.048 4.704.036 9.42.012 14.136-.456-.012-1.392-.036-1.848-.036.012-4.68 0-9.36.012-14.04z"/><path d="m61.584 14.112c.372-.36 1.116-1.08 1.5-1.452.564 4.956.276 9.96.312 14.928-.492 0-1.5 0-1.992 0 .084-4.488-.288-9.012.18-13.476z"/><path d="m63.912 14.592c4.752-.648 9.744.648 14.28-1.344-.036 1.788-.096 3.576-.18 5.352 2.016-.816 5.784-1.56 6.18 1.536.024 2.76 1.212 6.384-1.404 8.316-.744-3.024 1.356-7.656-2.052-9.252-.636.372-1.92 1.116-2.556 1.488 0 2.592-.012 5.172-.132 7.764-3.492-3.444-.732-9.348-1.392-13.68-1.944.576-3.888 1.092-5.868 1.476-.012 4.02.084 8.028-.168 12.036-.408-.336-1.212-1.032-1.608-1.38-.264-3.516-.048-7.044-.06-10.56-1.728-.42-3.54-.708-5.04-1.752z"/><path d="m171.048 14.52c.372-.504 1.128-1.512 1.512-2.016.372 3.084.24 6.192.24 9.288 1.776-1.728 3.372-4.02 6.072-4.236-1.284 1.56-2.64 3.036-4.008 4.524 1.416 1.98 2.856 3.948 4.2 5.988-3.18-.252-4.392-3.468-6.264-5.532 0 1.44-.024 4.308-.036 5.748-.432-.336-1.308-1.02-1.752-1.356-.204-4.128-.216-8.28.036-12.408z"/><path d="m48.528 13.836c1.188.396 1.98 1.152 2.4 2.28 1.548 3.96 2.988 7.956 4.224 12.024-2.148-.3-2.796-2.232-3.552-3.96-1.62 0-3.24-.012-4.86-.012-.744 1.68-1.368 3.516-3.324 4.056.648-2.58 1.524-5.088 2.256-7.644 1.092 2.364 3.384 2.592 5.784 2.232-.78-2.148-1.596-4.272-2.448-6.384l-1.188 5.04c-.504-.84-1.008-1.68-1.5-2.52.732-1.704 1.464-3.408 2.208-5.112z"/><path d="m98.004 26.928c-.312-4.164-.084-8.352-.024-12.528 2.304 0 4.596-.012 6.9 0l-.096 1.536c-1.668 0-3.336 0-5.004 0-.012 1.488-.012 2.976-.024 4.464h4.86l-.168 1.548c-1.548-.012-3.084-.012-4.632-.024-.036 2.148-.084 4.296-.18 6.432-.408-.36-1.224-1.068-1.632-1.428z"/><path d="m134.544 18.96c-.756-1.92.756-3.264 1.86-4.596 1.08.012 3.228.024 4.308.036.312.552.936 1.632 1.236 2.184-2.268-.588-4.728-1.428-6.192 1.116 2.004 2.22 6.228 2.868 6.552 6.276-.084 4.596-6.972 5.16-8.892 1.524 2.1.372 7.944 2.004 6.792-2.148-1.812-1.56-4.248-2.4-5.664-4.392z"/><path d="m143.388 18.576c1.044-1.212 1.992-2.484 3-3.708.024.684.096 2.052.132 2.736.948.3 2.856.888 3.816 1.176-.972.228-2.928.684-3.9.9.108 1.944.192 3.888.288 5.832 1.2.708 2.4 1.428 3.588 2.16-1.632-.012-3.252-.06-4.884-.132-1.008-2.904.588-6.828-2.04-8.964z"/><path d="m87.708 19.368c1.656-2.28 6.36-2.256 7.128.828.288.924.54 1.86.768 2.808-2.472.12-4.944.156-7.416.3.828 3.924 4.428 2.94 7.38 2.76-1.536 2.124-4.2 1.896-6.48 1.464-2.712-1.692-2.796-5.592-1.38-8.16zm1.668 2.088c1.56.792 2.76.528 3.6-.78-.336-2.22-5.004-1.356-3.6.78z" fill-rule="nonzero"/><path d="m107.064 18.324c2.184-.096 4.356-.312 6.528-.456-1.356.972-2.796 1.836-4.14 2.832-.396 2.292-.264 4.62-.336 6.936-.492-.024-1.464-.072-1.956-.096 0-3.072 0-6.144-.096-9.216z"/><g fill-rule="nonzero"><path d="m115.596 27.192c-3.648-2.58-1.92-10.548 3.312-9.3 2.628-.06 2.988 3.168 3.756 5.016-2.652.192-5.304.312-7.944.576 1.416 3.24 4.416 3.144 7.32 2.472-.216.444-.648 1.32-.864 1.764-1.848-.096-3.876.336-5.58-.528zm.6-5.676c1.164 1.164 4.908.3 3.372-1.704-1.104-1.464-4.74-.168-3.372 1.704z"/><path d="m124.236 24.708c-.912-2.832.54-7.272 4.14-6.852 3.144-.624 4.02 2.82 4.476 5.148-2.484.108-4.956.156-7.428.288.888 3.78 4.368 3.06 7.368 2.796-2.172 2.736-7.752 2.424-8.556-1.38zm2.352-3.264c1.044.948 4.704.312 3.192-1.524-1.02-1.272-4.44-.228-3.192 1.524z"/><path d="m150.66 22.776c-.924-5.868 9.528-7.008 8.964-.648 1.008-.108 2.028-.216 3.048-.336l-1.26-1.02c1.416-2.484 3.912-3.228 6.576-3.024.336.624.984 1.86 1.308 2.484-1.356-.408-2.712-.792-4.068-1.176-1.14 1.704-2.724 4.248-1.116 6.144 1.092 2.316 3.708.252 5.412.096-.408.624-1.212 1.896-1.608 2.52-3.984.924-6.036-2.376-8.232-4.992 1.164 6.732-10.236 6.408-9.024-.048zm3.324-3.396c-2.136 1.788-2.232 6.444.996 6.996 4.68.372 3.756-8.844-.996-6.996z"/></g><path d="m14.616 28.824c1.068-.024 2.1.3 3.144.528-4.86 2.664.672 7.536-.828 11.424-.228 2.316-3.156.768-4.38.456.768-.408 2.304-1.212 3.072-1.62-.744-3.48-3.396-7.38-1.008-10.788z"/></g></svg>