<svg height="90" viewBox="0 0 180 90" width="180" xmlns="http://www.w3.org/2000/svg"><path d="m24.2222222 54.2222222c8.4444445 0 15.1111111-6.6666666 15.1111111-16.2222222v-38h9.1111111v61.3333333h-9.1111111v-5.7777777c-4.2222222 4.2222222-9.7777777 6.6666666-16.2222222 6.6666666-13.1111111.2222222-23.1111111-9.3333333-23.1111111-23.7777778v-38.4444444h9.11111111v38c0 9.7777778 6.66666669 16.2222222 15.11111109 16.2222222zm31.1111111-54.2222222h8.8888889v22.4444444c4-4.2222222 9.5555556-6.6666666 15.7777778-6.6666666 13.1111111 0 23.555556 10.4444444 23.555556 23.3333333s-10.4444449 23.3333333-23.555556 23.3333333c-6.2222222 0-12-2.4444444-16-6.6666666v5.5555555h-8.6666667zm24.2222223 54.6666667c8.4444444 0 15.3333333-6.8888889 15.3333333-15.5555556s-6.8888889-15.5555555-15.3333333-15.5555555c-8.4444445 0-15.3333334 6.8888888-15.3333334 15.5555555s6.6666667 15.5555556 15.3333334 15.5555556zm50.6666664-38.8888889c12.888889 0 22.444445 10 22.444445 23.3333333v2.8888889h-36.444445c1.333334 7.3333333 7.333334 12.6666667 14.888889 12.6666667 5.111111 0 9.555556-2 12.888889-6.6666667l6.444444 4.6666667c-4.444444 6-11.111111 9.5555555-19.333333 9.5555555-13.333333 0-23.777778-10-23.777778-23.3333333-.222222-12.4444445 9.777778-23.1111111 22.888889-23.1111111zm-14 19.1111111h27.333334c-1.555556-6.8888889-7.111112-11.3333333-13.555556-11.3333333-6.666667 0-12 4.4444444-13.777778 11.3333333zm60-10.2222222c-5.777778 0-10 4.4444444-10 11.3333333v25.3333333h-8.888889v-44.6666666h8.666667v5.5555555c2.222222-3.5555555 5.777778-5.7777778 10.666667-5.7777778h3.333333v8.2222223z" transform="translate(0 13)"/></svg>