<svg height="90" viewBox="0 0 180 90" width="180" xmlns="http://www.w3.org/2000/svg"><g fill="none" fill-rule="evenodd"><path d="m1.00723404.0306383c7.2306383-.04212766 14.46127656.00382979 21.68808506-.02297873 3.7340426 4.68382979 7.4221277 9.39829788 11.1025532 14.12042553 3.8412766-4.65319148 7.5331915-9.42893616 11.3323405-14.11659574 7.0276595.00382979 14.0553191.01531915 21.0829787-.00765957-14.7676596 18.79276591-29.7344681 37.42468081-44.6514894 56.09489361-.3370212.6089362-1.1144681.3217021-1.6659574.3982979-6.6293617-.0306383-13.26255321.0229787-19.89191491-.0268085 7.61361702-9.4940426 15.18127661-19.0302128 22.81021281-28.5089362-7.3110639-9.2757447-14.51106388-18.63957447-21.80680856-27.9306383z" fill="#5fc6ff" transform="translate(0 16)"/><path d="m.82723404 13.8408511c3.68425532-4.56893621 7.30723405-9.18765961 10.97999996-13.76425536 7.2842554 9.21446809 14.5378724 18.45574466 21.8642554 27.63957446-7.7821277.0497872-15.5680851 0-23.3540426.0229787-3.25531914-4.2127659-6.56425531-8.3834042-9.8387234-12.5846808-.57063829-.4365958.11872341-.9268085.34851064-1.313617z" fill="#2f77a0" transform="translate(37.148936 44.723404)"/><g fill="#999" transform="translate(73.531915 47.787234)"><path d="m19.5702128.23744681c2.5812766-.00382979 5.1625532-.00765958 7.7476595 0 .0229788 7.3493617-.053617 14.70255319.0382979 22.05191489 1.6046809-.0191489 3.2093617-.0153191 4.8140426-.0038298-.3561702 1.0034043-.7544681 1.9914894-1.1604256 2.9757447-3.8106383 0-7.6251063.0038298-11.4395744 0-.0038298-8.3412766 0-16.6825532 0-25.02382979z"/><path d="m34.1808511 1.7693617c2.5582978.02297873 5.1127659.00765958 7.6710638.01148936 0 1.60085107.0153191 3.20170213-.0229787 4.8025532-2.5429788-.01531915-5.0897873.00382978-7.632766-.01531915.0114894-1.59702128.0306383-3.19787234-.0153191-4.79872341z"/><path d="m92.573617 5.05914894c2.5965958.00382978 5.1931915-.01531915 7.793617.01148936-.00383 1.57021276-.00383 3.14042553-.011489 4.71446808 1.918723.00382979 3.837446-.01914893 5.75617.01914894-.402128.99191488-.762128 1.99531918-1.106809 3.01021278-1.551063 0-3.098297 0-4.645532 0 .030639 3.1557447-.045957 6.3114893.042128 9.4634042 1.351915-.0191489 2.70383-.0421276 4.055745.0421277-.325532.9765957-.635745 1.9608511-.953617 2.9412766-3.6459577 0-7.2919151.0038298-10.9340428 0 0-4.1438298.0114894-8.2914894-.0076595-12.4353192-1.4208511-.0153191-2.8417022-.0114893-4.2587234-.0153191 0-1.0110638 0-2.0182979-.0076596-3.02553192 1.4246808-.00382978 2.8493617-.00382978 4.2740425 0 .0038298-1.57404255-.0038298-3.15191489.0038298-4.72595744z"/><path d="m34.1693617 8.6093617c2.573617-.01914893 5.1510638-.01531915 7.7246809-.00382979-.0382979 5.54936169-.0038298 11.10255319-.019149 16.65574469-2.5697872.0038298-5.1357447 0-7.7017021 0 .0114894-5.5493617.0114894-11.1025532-.0038298-16.6519149z"/><path d="m43.7821277 8.59404255c6.3689361.02297873 12.7378723-.03063829 19.1068085.02680851-.0038298 3.19021274 0 6.37659574 0 9.56680854-3.259149.0497872-6.5182979.0114893-9.7774468.0229787-.5438298-.7468085-1.0876596-1.4974468-1.6276596-2.2442553-.1034043 2.1140425-.0497872 4.2357447-.0382979 6.353617 3.9178724-.0114894 7.8319149-.0421277 11.7497872.0153191-.2412765.9689362-.5017021 1.9378724-.7391489 2.9068086-6.2234042.0382978-12.4429787.0191489-18.666383.0114893-.0153191-5.5531915 0-11.106383-.0076595-16.65957445zm7.6634042 2.97957445c-.0229787 1.206383-.0229787 2.4089362-.0114893 3.6153192 1.5970212-.0038298 3.1940425-.0076596 4.7910638.0038298.0076596-1.1987234.0038298-2.4012766.0076596-3.6-1.5970213.0076595-3.1940426.0153191-4.7872341-.019149z" fill-rule="nonzero"/><path d="m65.1638298 8.55957447c2.6080851-.00765958 5.22-.0306383 7.8280851.01148936-.0114894 1.35574468-.0459575 2.71531917.0114894 4.07106387.8042553-1.2906383 1.3097872-2.73446813 2.0029787-4.08638302 3.7953191-.01148936 7.5944681-.00765957 11.393617-.00382979.0038298 5.56851061 0 11.13319151 0 16.69787231-2.5544681.0268085-5.1051064.0076596-7.6595745.0114894.0076596-4.1170213 0-8.2340426.0038298-12.3510638-1.926383-.0076596-3.8527659.0344681-5.7791489-.0306383.0306383 4.1246808-.0038298 8.2531915.0191489 12.3817021-2.6004255 0-5.200851.0038298-7.7974468-.0038298-.0191489-5.5646808.0268085-11.1331915-.0229787-16.69787233z"/><path d="m.18 8.64382979c5.82510638-.01148936 11.6540426-.0306383 17.4791489.01148936.019149.99957447-.0076595 2.00297875-.0957446 2.99872345-3.5846809-.0382979-7.1770213-.019149-10.76170217-.0114894-.02297873 3.4889362.04212766 6.9778723-.03446809 10.4668085 3.59617026.3561702 7.23829786.0574468 10.85361706.1570213-.3102128.9765957-.6012766 1.9570213-.865532 2.9451064-5.5148936.1148936-11.03744676.0191489-16.55617016.0497872-.02297873-5.5378723.01531915-11.0757447-.01914894-16.61744681z"/></g></g></svg>