<svg height="90" viewBox="0 0 180 90" width="180" xmlns="http://www.w3.org/2000/svg"><g fill="#f98611" fill-rule="evenodd" transform="translate(0 20)"><path d="m2.84433962 0h3.3643868c1.24174528.85966981 2.40919811 1.81485849 3.54481132 2.80188679.05306603.96580189.1485849 2.88679246.20165094 3.84198113-1.09316038 1.1143868-2.19693396 2.21816038-3.29009434 3.32193397-.93396226-.05306604-2.80188679-.16981132-3.73584906-.22287736-1.02948113-1.09316038-2.01650943-2.21816038-2.92924528-3.41745283v-3.49174528c1.37971698-.31839623 2.51533019-1.45400944 2.84433962-2.83372642z"/><path d="m49.9988208 5.94339623c1.2735849.11674528 2.557783.23349056 3.8419811.37146226 7.4398585 2.84433962 15.548349.53066038 23.2641509 1.57075472 1.1568397.27594339 2.143868.85966981 2.9716981 1.75117924.8278302 7.73702835.456368 15.58018865.3183963 23.34905665.254717 2.7382075-2.6533019 4.0754717-4.9988208 3.8101415-2.3349056.2971698-3.5129717-2.1014151-5.0518868-3.3962264 2.0483491-.1379717 4.0966981-.2653302 6.1450472-.3820755-.1061321-7.2382076-.2228774-14.4658019-.2653302-21.7040095-8.0448113-.106132-16.1002358-.0212264-24.1450472.0106133-.870283 1.432783-1.740566 2.865566-2.6214622 4.298349 4.7228773.0212264 9.4563679-.0955189 14.1792453 0 1.8679245.1061321 4.0011792.0106132 5.4551886 1.4221698.6898585 4.5212264.7429246 9.201651-.0318396 13.7122642-.7747641 1.6556603-2.7275943 1.485849-4.245283 1.6132075-4.7228774.1698113-9.4457547.0106132-14.1686321.0530661-.0212264 3.3219339-.0849056 6.6650943.4351415 9.9551886 10.2523585.9870283 20.6002359.1485849 30.8950472.4669812-.9339623 1.0719339-1.8679245 2.1438679-2.8125 3.2158019-8.7028302.0106132-17.4162736.0106132-26.1191038.1485849-1.6768868-.0955189-3.5129717.1591981-5.0200471-.7216982-2.1757076-1.5070754-1.7193397-4.4257075-1.8573114-6.7075471.1167453-6.7924529.0530661-13.5849057.0849057-20.3773585-.7323113-.0212264-2.196934-.0742925-2.9292453-.0955189 2.2075472-4.1285377 4.446934-8.235849 6.6757076-12.36438677zm1.1037735 13.51061317c.0849057 2.9398585.0742925 5.8903302-.0318396 8.8301887 4.754717-.053066 9.509434-.0212264 14.264151-.0424528.0106132-2.9186321 0-5.8372642-.0212265-8.7558962-4.7334905-.0212265-9.4669811.0318396-14.2110849-.0318397z" fill-rule="nonzero"/><path d="m91.995283 8.09787736c.9127359-2.29245283 3.6509434-1.9634434 5.6568396-2.06957547 9.1910374.06367924 18.3820754-.04245283 27.5731134.05306603 2.016509-.23349056 3.67217.91273585 4.935141 2.34551887-.063679 10.65566041-.010613 21.31132071-.084905 31.96698111.137971 2.3667453-.82783 5.6674529-3.788915 5.4658019-9.551887.4775944-19.135614.2334906-28.6981136.3290094-2.5683962.2334906-5.7841981-.7535377-5.9115566-3.7995283-.5943396-7.0896226-.0636793-14.2216981-.2122642-21.3325471.201651-4.2983491-.5412735-8.745283.5306604-12.95872644zm4.0754717 1.78301887c.0424528 6.65448117-.0318396 13.29834907.0212264 19.95283017 4.3089619-1.7193396 8.4162739-3.8950472 12.2794809-6.4740566-1.517688-1.4752358-3.035377-2.9398585-4.531839-4.4257075-1.284198 1.3797169-2.557783 2.7594339-3.8525947 4.1179245.0530657-1.9209906-.0212264-3.8525943.2653297-5.7629717 1.560142-2.5683962 3.778302-4.6698113 5.68868-6.9728774 1.793632.0106132 3.587264.0318397 5.380896.0424529-.573113.6474056-1.71934 1.9316037-2.292453 2.5790094 3.990566.3290094 8.426887-.9233491 12.120283.9551887.880896 4.2346698-4.128538 6.4634434-6.505896 9.2865566 3.523585 2.3773585 7.185141 4.5318396 11.005896 6.3891509-.095519-6.4316037.212264-12.8738207-.137972-19.2948113-.275943-.2122641-.838443-.63679245-1.114386-.83844339-9.424529-.16981132-18.923349-.52004717-28.3266513.44575472zm9.1591983 6.24056607c2.260613 1.1356132 4.160377 2.8443396 6.45283 3.9162735 2.154481-.6474056 3.576651-2.5896226 5.264151-3.9693396-3.90566.0106132-7.811321.0530661-11.716981.0530661zm-9.1485851 15.5058962c.0106132 3.5448113-.0212264 7.0896226-.0424528 10.6238207 9.7853769.9870283 19.6662739.4988208 29.4834909.4457548.169811-3.6933963.180424-7.3974057.169811-11.0908019-5.518868.4669811-9.987028-3.0247642-14.317217-5.8903302-4.616745 2.9929245-9.424528 6.6438679-15.2936321 5.9115566z" fill-rule="nonzero"/><path d="m140.009434 8.60731132c.509434-2.5259434 3.332547-2.54716981 5.391509-2.55778302 8.490566-.03183962 16.981132.05306604 25.471699-.03183962 2.292452.1379717 5.073113-.32900943 6.75 1.66627358.021226.11674529.074292.35023585.095518.47759434 1.273585 6.4209906.201651 12.9693396.445755 19.4540094-.106132 5.2216982.445755 10.4964623-.329009 15.6757076-.870283 3.428066-5.232312 2.4198113-7.864387 2.9716981-1.262972-1.0825472-2.525944-2.1650943-3.799528-3.2370283 2.462264-.1591981 4.956367-.1804245 7.397405-.6049528.658019-10.9846698.053066-22.0330189.116746-33.03891513-9.764151-.39268868-19.517689.11674528-29.271227.50943396.413915 12.07783017.010613 24.15566037.169811 36.23349057-1.613207.0212264-3.226415.0424528-4.829009.0742925-.03184-9.3820755-.074292-18.7535378-.063679-28.1356133.053066-3.1521226-.212264-6.3360849.318396-9.45636788z"/><path d="m0 14.7523585c1.22051887-1.4221698 2.63207547-2.6426887 4.13915094-3.7464623 2.20754717.6155661 4.13915095 1.8466981 5.91155656 3.268868-.09551882 6.803066-.49882071 13.6273584-.0212264 20.4198113.2971698 3.7889151 4.446934 6.2087264 8.0023585 5.5188679 4.6485849-.3820755 7.514151-6.2511792 5.1261793-10.2099057-1.8785378-4.0648585-7.3125-3.1839622-10.2948114-5.7948113-.9339622-1.5919811-.6898584-3.5660377-.9658018-5.3384434.9764151-.8278302 1.9528301-1.6662736 2.918632-2.504717 3.4068397.1804246 6.8136793.5200472 10.071934 1.5707548 2.4516509 2.0165094 4.8290094 4.1391509 6.9941038 6.4740566 1.485849 3.9162735 2.3136792 8.2040094 1.5070754 12.3643868-1.2629717 5.6037735-5.4764151 10.5070754-10.9209905 12.3856132-5.4233491 1.793632-11.6108491.8278301-16.22759436-2.5365566-3.21580189-2.9292453-5.43396227-6.8242925-6.24056604-11.1014151z"/><path d="m144.711085 10.9740566c1.443396.6792453 4.043632.0742925 4.606132 2.0377359 1.082547 2.4410377 1.804245 5.0094339 2.653302 7.5353773.870283-2.865566 1.708726-5.7523585 2.525943-8.6391509 2.992925-.0955189 5.985849-.1273585 8.989387-.0106132.721698 2.9504717 1.538915 5.8797169 2.387972 8.8089622 1.082547-2.8761792 2.090802-5.7735849 3.035377-8.692217 1.39033-.0212264 2.770047-.0424528 4.160377-.0636792-1.262971 4.9563679-3.512971 9.615566-4.839622 14.5507075 1.071934 4.2134434 3.205189 8.0660378 4.775943 12.1096699-1.114387 0-3.34316.0106132-4.457547.0106132-.965802-2.3136793-1.920991-4.6273585-2.886792-6.9410378-1.252359 2.3667453-2.536557 4.7334906-3.863208 7.0683963-1.974057-.0212265-3.948113-.0212265-5.92217-.0318397-1.220519-2.3349056-2.441037-4.6698113-3.661556-7.0153302-.838444 2.3349057-1.708727 4.6485849-2.557783 6.9834906-1.623821.0318396-3.258255.053066-4.882076.0636793 1.485849-4.0966982 3.735849-7.9386793 4.680425-12.2158019-1.093161-5.317217-3.884434-10.1462264-4.744104-15.5589623zm13.096698 2.9716981c-.509434 4.0542453-2.122641 7.8325472-3.152123 11.7488208.456368 3.067217 2.31368 5.7735849 3.96934 8.3419811 2.568396-1.5919811 3.566038-4.9139151 4.606132-7.620283-.350236-4.3408019-3.10967-8.1933962-2.738207-12.6721698-.902123.0636792-1.793633.1379717-2.685142.2016509z" fill-rule="nonzero"/><path d="m105.813679 30.5766509c3.215802.9021227 6.45283 1.7405661 9.700472 2.5365566.084906.9021227.244104 2.7169812.318396 3.6191038-3.34316-.7853773-6.686321-1.6025943-10.018868-2.4304245 0-.9339623 0-2.7912736 0-3.7252359z"/><path d="m102.693396 37.8042453c5.285378.0955189 10.581368.1591981 15.866746.1804245.010613.8596698.010613 2.5790094.021226 3.4492925-5.285377.106132-10.560142.2122641-15.845519.2334905-.010613-.9658019-.03184-2.8974056-.042453-3.8632075z"/></g></svg>