<svg height="90" viewBox="0 0 180 90" width="180" xmlns="http://www.w3.org/2000/svg"><path d="m17.5 53.6591797h.0966797l2.1108398-10.9570313h4.5761719l-4.4311523 17.4345704h-3.9316407l-3.2387695-10.0546876h-.0966797l-3.23876951 10.0546876h-3.91552735l-4.43115234-17.4345704h4.57617188l2.1430664 10.9086914h.09667969l3.25488283-10.9086914h3.1420898zm8.3950195-2.4008789c0-2.5996224.7250904-4.7292398 2.175293-6.388916 1.4502026-1.6596763 3.4589715-2.489502 6.0263672-2.489502 2.5781379 0 4.5976489.8271402 6.0585937 2.4814453 1.4609448 1.6543052 2.1914063 3.7866081 2.1914063 6.3969727v.3383789c0 2.6211068-.7277759 4.7560953-2.1833496 6.4050293s-3.4670282 2.4733887-6.0344239 2.4733887c-2.5781378 0-4.5949634-.8244547-6.0505371-2.4733887-1.4555736-1.648934-2.1833496-3.7839225-2.1833496-6.4050293zm4.6889649.3383789c0 1.5898517.2792941 2.8654737.8378906 3.8269043s1.4609313 1.4421387 2.7070312 1.4421387c1.2138733 0 2.1027804-.4833936 2.6667481-1.4501954.5639677-.9668017.8459473-2.2397382.8459473-3.8188476v-.3383789c0-1.5468828-.2846652-2.8090772-.8540039-3.7866211-.5693388-.977544-1.4663025-1.4663086-2.690918-1.4663086-1.2138733 0-2.1027804.4914502-2.6667481 1.4743652-.5639676.9829151-.8459472 2.242424-.8459472 3.7785645zm23.8315429-4.8500977-1.7241211-.0483398c-.6982456 0-1.2729469.1450181-1.724121.4350586-.4511742.2900405-.7949207.6982395-1.03125 1.2246094v11.7788086h-4.6889649v-17.4345704h4.3666992l.2094727 2.578125c.4082052-.9130905.9372526-1.6247533 1.5871582-2.1350097.6499056-.5102565 1.3991657-.7653809 2.2478027-.7653809.2363293 0 .4538565.0187987.6525879.0563965.1987315.0375978.4001455.0832517.6042481.1369629zm1.7241211 4.8178711c0-2.7500137.5935-4.9682533 1.7805176-6.6547851 1.1870177-1.6865319 2.8600966-2.5297852 5.0192871-2.5297852.8701216 0 1.6542934.1879864 2.3525391.5639649.6982457.3759784 1.3105442.9130824 1.836914 1.6113281v-9.5551758h4.7211915v25.1367188h-4.0122071l-.402832-2.1430665c-.5478543.8056681-1.1977502 1.4206522-1.949707 1.8449707-.7519569.4243186-1.6113233.6364747-2.578125.6364747-2.137706 0-3.8000429-.7841719-4.9870606-2.3525391-1.1870176-1.5683672-1.7805176-3.6415887-1.7805176-6.2197266zm4.6889649.3383789c0 1.5253983.2578099 2.7258257.7734375 3.6013184.5156276.8754926 1.3535098 1.3132324 2.5136719 1.3132324.6767612 0 1.2675756-.1369615 1.7724609-.4108887.5048853-.2739271.9184554-.6740696 1.2407226-1.2004394v-7.4282227c-.3222672-.5478543-.7331517-.974852-1.232666-1.2810058-.4995142-.3061539-1.082272-.4592285-1.748291-.4592285-1.1494198 0-1.9899876.5102488-2.5217285 1.5307617s-.7976074 2.3525308-.7976074 3.9960937zm19.0297851-9.2006836.1933594 2.3041993c.5585966-.8378949 1.2595173-1.4851052 2.1027832-1.9416504.843266-.4565453 1.8181097-.6848145 2.9245606-.6848145 1.117193 0 2.0732382.2470679 2.868164.741211.7949259.494143 1.3964824 1.2407176 1.8046875 2.239746.5371121-.9345749 1.2353473-1.6650364 2.0947266-2.1914062s1.8691348-.7895508 3.0292969-.7895508c1.7187586 0 3.0749462.6096131 4.0686035 1.8288574.9936573 1.2192444 1.4904789 3.0803098 1.4904789 5.583252v10.3447266h-4.7050785v-10.3608399c0-1.3964914-.2148416-2.3686496-.6445313-2.9165039-.4296896-.5478543-1.0688434-.8217773-1.9174804-.8217773-.666019 0-1.2434058.1477036-1.7321778.4431152s-.8781724.7062962-1.1682129 1.232666c0 .2041026.0053711.3786614.0161133.5236816.0107422.1450203.0161133.2927239.0161133.4431153v11.456543h-4.6889649v-10.3608399c0-1.3642646-.2148416-2.3283663-.6445312-2.892334-.4296897-.5639676-1.0742145-.8459472-1.9335938-.8459472-.6337922 0-1.1896948.1208484-1.6677246.3625488-.4780297.2417004-.8728011.5827615-1.1843261 1.0231933v12.713379h-4.6889649v-17.4345704zm34.4663086 17.4345704c-.171876-.397463-.319579-.8164041-.443115-1.256836s-.212158-.8915992-.265869-1.3535156c-.483401.848637-1.122555 1.5522433-1.917481 2.1108398-.794926.5585966-1.740229.8378907-2.835937.8378907-1.826181 0-3.233394-.469966-4.22168-1.4099122-.988286-.9399461-1.482422-2.2209391-1.482422-3.8430175 0-1.7080164.657953-3.0319778 1.973877-3.9719239 1.315925-.9399461 3.236071-1.4099121 5.760498-1.4099121h2.642578v-1.3857422c0-.8378948-.220212-1.4877906-.660644-1.949707s-1.095699-.6928711-1.965821-.6928711c-.762699 0-1.350828.1853009-1.764404.5559082s-.620361.8781706-.620361 1.5227051h-4.527832l-.032227-.0966797c-.075196-1.471687.566644-2.741938 1.925537-3.810791 1.358894-1.068853 3.134023-1.6032715 5.32544-1.6032715 2.094737 0 3.7893.5263619 5.08374 1.5791016 1.29444 1.0527396 1.94165 2.5620019 1.94165 4.527832v7.2026367c0 .8164104.061767 1.5844691.185303 2.3041992.123536.7197302.319579 1.4340785.588135 2.1430665zm-4.302246-3.1420899c.81641 0 1.546872-.2040995 2.191406-.6123047.644535-.4082051 1.08496-.8808567 1.321289-1.4179687v-2.4653321h-2.642578c-.999028 0-1.753659.2470679-2.263916.741211-.510256.4941431-.765381 1.1010706-.765381 1.8208008 0 .5908232.190672 1.0607892.572022 1.4099121.381349.3491228.910397.5236816 1.587158.5236816zm20.915039-10.2480469-1.724121-.0483398c-.698246 0-1.272947.1450181-1.724121.4350586s-.794921.6982395-1.03125 1.2246094v11.7788086h-4.688965v-17.4345704h4.366699l.209473 2.578125c.408205-.9130905.937252-1.6247533 1.587158-2.1350097.649906-.5102565 1.399166-.7653809 2.247803-.7653809.236329 0 .453856.0187987.652588.0563965.198731.0375978.400145.0832517.604248.1369629zm8.34668 6.0908203h-1.192383v7.2993165h-4.705078v-25.1367188h4.705078v14.2602539h1.047363l4.17334-6.5581055h5.446289l-5.671875 7.9438477 6.445313 9.4907227h-5.414063zm16.999511 7.2993165h-4.705078v-4.125h4.705078zm9.32959 0h-4.705078v-17.4345704h4.705078zm0-21.6079102h-4.705078v-3.5288086h4.705078zm9.506836-.0966797v4.2700195h2.948731v3.3032227h-2.948731v8.878418c0 .6767612.142333 1.1601548.427002 1.4501953.28467.2900405.657957.4350586 1.119873.4350586.247072 0 .461913-.0134276.644531-.0402832.182619-.0268556.392089-.0725095.628418-.1369629l.386719 3.3999023c-.472658.1611336-.931882.281982-1.377685.3625488-.445803.0805669-.931883.1208497-1.458252.1208497-1.622079 0-2.870846-.4457964-3.746338-1.3374024-.875493-.891606-1.313233-2.3041895-1.313233-4.237793v-8.8945312h-2.545898v-3.3032227h2.545898v-4.2700195z" fill="#36f" fill-rule="evenodd"/></svg>