<svg height="90" viewBox="0 0 180 90" width="180" xmlns="http://www.w3.org/2000/svg"><g fill="#282828" fill-rule="evenodd" transform="translate(0 29)"><path d="m132.45 5.85h-6.6l2.55-.75c-.15-.3-.3-.75-.45-1.2s-.45-.9-.75-1.35-.6-.9-.9-1.2l-3.15.75c.3.3.45.75.75 1.2s.45.9.6 1.2c.15.45.3.75.45 1.2h-5.7v3.6h13.2z"/><path d="m114.75 20.4c-.75.9-1.8 2.25-4.05 2.4l-9-.45v-11.85c0-4.2.75-5.4 1.65-6.15 1.05-.75 2.4-1.35 3-3.45 0-.15 0-.45 0-.6-.15-.15-.3-.15-.45.15-.75 1.05-1.35 1.5-2.85 1.2-4.5-1.05-9.45-1.8-9.45 6.6v.9c0 .6-.45.9-.9 0 0-.15-.15-.3-.15-.3-1.05-2.25-2.4-4.05-4.65-5.55-2.4-1.5-5.1-2.4-8.25-2.4s-6.15.9-8.55 2.7c-1.5 1.2-2.55 2.85-3.15 4.2-.15.3-.45.75-.6.3-.45-1.05.75-3 1.2-4.5.15-.45.15-.75 0-1.2-.15-.9-.6-.45-.6-.15-.45 1.95-2.7.75-3.75.15-1.8-1.05-3.75-1.65-6-1.65-4.2 0-7.95 1.65-10.8 4.5-2.7 2.7-4.5 6.6-4.5 10.8s1.5 8.1 4.2 10.95c2.7 2.7 6.75 4.2 10.95 4.2 3.15 0 9.9-1.95 9.15-6 0-.3-.15-.9-.15-1.05.15-.3.3-.15.45 0 .3.45.6 1.05.9 1.5 1.95 3 6.45 5.55 11.25 5.55 2.55 0 5.1-.6 7.2-1.8 2.55-1.35 4.35-3.6 5.55-6.15 0-.15.15-.15.15-.3.3-.75.9-.9.9.15v6c0 1.8 1.65 2.4 4.35 2.25h11.85c3 0 4.35-1.05 4.65-3.3.3-1.8 0-3.15.15-4.35.15-1.8.75-2.7.75-2.85.6-.6.15-.9-.45-.45zm-52.2.15c-1.2 1.2-2.7 1.8-4.5 1.8s-3.3-.75-4.5-1.8c-1.2-1.2-1.8-2.7-1.8-4.5s.75-3.3 1.8-4.5c1.2-1.2 2.7-1.8 4.5-1.8s3.3.75 4.5 1.8c1.2 1.2 1.8 2.7 1.8 4.5.15 1.8-.6 3.45-1.8 4.5zm21.75 0c-1.2 1.2-2.7 1.8-4.5 1.8s-3.3-.75-4.5-1.8c-1.2-1.2-1.8-2.7-1.8-4.5s.75-3.3 1.8-4.5c1.2-1.2 2.7-1.8 4.5-1.8s3.3.75 4.5 1.8c1.2 1.2 1.8 2.7 1.8 4.5s-.6 3.45-1.8 4.5z" fill-rule="nonzero"/><path d="m44.7 25.5c-1.8-1.35-2.55-1.95-1.65-3.9.3-.6-.15-.9-.6-.6-2.1 1.65-4.5 2.1-7.05 1.2-6.9-2.25-4.65-13.35 2.7-12.45 2.85.3 5.25-.45 6.6-3.3.75-1.5 1.05-3 1.35-5.85.15-.6-.6-.6-.75-.3-.45 1.2-.9 1.5-1.5 1.65-1.35.3-2.7-.3-4.2-.6-2.25-.3-4.05-.3-6.15.3-2.55.75-4.8 1.95-6.6 3.75-2.7 2.7-4.35 6.6-4.35 10.8 0 1.8.15 3.45.6 4.95.45 1.8.15 1.65-1.2 1.8h-10.35l9.3-10.2c2.7-2.7 2.7-4.05 2.7-7.5 0-1.05-.15-2.25.15-3.3.15-.45-.15-.6-.6-.45-1.05.3-2.85.3-5.85.3h-13.5c-.75 0-1.05-.45-.75-1.05 0-.15 0-.6-.3-.6-1.95.9-2.4 4.95-2.25 7.5 0 1.35.75 2.1 1.8 2.1h10.65l-10.95 11.7c-.75.9-1.5 2.1-1.5 3.75v3.3c0 1.5.9 2.4 2.55 2.7h18.3c1.8-.3 3-1.2 2.85-3.3v-2.25c.15-.6.6-.6.9-.3.45.6.75 1.05 1.35 1.5 2.7 2.7 6.6 4.5 10.8 4.5 1.35 0 3-.3 4.65-1.05s3.3-1.95 3.6-3.3c.15-.45-.15-.9-.75-1.5z"/><path d="m121.65 24.6 3.15-.75c-.3-4.2-.75-8.4-1.5-12.45l-3 .6c.6 4.2 1.2 8.4 1.35 12.6z"/><path d="m147.9 4.8c-.3.3-.75.75-1.8.9h-2.4-2.85v-4.5h-3.75v12.9h-2.55c-1.5 0-2.4.3-2.4 1.65v13.2c0 1.5.9 1.95 2.4 1.95h9.9c2.1 0 2.85-1.05 2.7-2.4v-12.75c0-1.35-1.2-1.8-2.55-1.8h-3.9v-4.8h2.85 2.1c1.2 0 1.65-.45 1.8-1.5.15-.75-.15-1.35 0-1.8.3-.6.6-1.2.45-1.05zm-4.65 12.9c.15 0 .45 0 .45.45v9c0 .15-.15.3-.3.3h-7.2c-.15 0-.3 0-.3-.3v-9c0-.3.15-.45.45-.45z" fill-rule="nonzero"/><path d="m174 13.2v-3.9h2.85.3c1.05 0 1.5-.45 1.65-1.35.15-.75 0-1.2 0-1.65 0-.6.3-1.05.3-1.05-.3.3-.6.75-1.65.75h-.6-2.85v-4.8h-3.3v4.8h-2.1c.15-1.05.45-2.1.6-3.15l-3.15-.6c-.15.9-.3 1.65-.45 2.55s-.3 1.65-.6 2.4c-.15.75-.45 1.5-.75 2.25s-.6 1.35-.9 1.8c1.05.45 1.8 1.05 2.7 1.65.3-.45.6-1.05.75-1.65.3-.6.45-1.35.6-1.95h3v3.9h-6.45v3.3h15.3v-3.3z"/><path d="m160.95 8.25v-2.7h3.3v-3.15h-13.65v3.15h3v2.7c-2.1 0-2.85.15-2.85 1.65v19.2c0 1.2.45 1.65 2.7 1.65h7.8c1.5 0 2.55-.3 2.55-1.65v-17.85-1.5c-.15-1.2-.6-1.5-2.85-1.5zm-1.05 3.15h.75c.3 0 .3 0 .3.3v5.85s0 0-.15 0c0 0 0 0-.15 0h-.6c-.15 0-.15 0-.3 0 0 0 0-.15 0-.45v-5.7zm-3.6-5.85h1.8v2.7h-1.8zm-3 6.15c0-.15.15-.3.3-.3h.75v3.3 1.35c0 .45-.15.9-.3 1.5-.15.45-.45.9-.75 1.35zm0 7.8 1.2 1.5c1.05-1.2 1.8-2.4 1.95-4.05.15-.75.15-1.35.15-1.95v-3.6h1.05v6.15c0 1.8.45 2.25 2.25 2.25h1.05v2.1h-7.8v-2.4zm7.35 7.8h-7.2c-.3 0-.3-.15-.3-.3v-2.4h7.8v2.4c.15.15 0 .3-.3.3z" fill-rule="nonzero"/><path d="m176.55 18.3h-8.55c-1.65 0-2.55.45-2.55 1.8v8.7c0 1.05.15 1.8 2.7 1.8h7.8c1.8.15 2.7-.3 2.85-1.8v-8.55c0-1.65-1.2-1.95-2.25-1.95zm-1.35 9.15h-6.15c-.15 0-.3 0-.3-.3v-5.1c0-.3 0-.45.3-.45h6.15c.3 0 .45 0 .45.3v5.25c-.15.15-.3.3-.45.3z" fill-rule="nonzero"/><path d="m128.7 25.05c.9-4.35 1.5-8.85 2.25-13.35l-3.45-.75c-.3 4.95-.9 10.05-1.8 14.85-1.2.3-2.4.6-3.6.9-1.05.3-2.1.45-3 .6l.9 3.9c1.05-.3 2.4-.6 3.6-1.05 1.35-.3 2.7-.75 4.05-1.2s2.85-.75 4.2-1.2l-.45-3.6z"/></g></svg>