<svg height="90" viewBox="0 0 180 90" width="180" xmlns="http://www.w3.org/2000/svg"><g fill="#333" transform="translate(0 24)"><path d="m.54216868.05421687h9.10843373l1.73493979 15.23493973v.2168675c0 .7048193.4337349 5.4759036.6506024 14.3674699h.3253012c.1084337-4.7710844.3795181-9.433735.9216867-14.1506024l1.6265061-15.61445786h8.8373494v40.49999996h-5.5301205l.1084337-21.0903614s0-.2168675 0-.5421687c0-.9216867.0542169-4.9337349.2710843-12.1445783h-.3253012c-.2710843 5.4759036-.5963855 8.9457831-.813253 10.4096386l-2.7108433 23.4216867h-5.746988c-1.62650602-13.9879518-2.81927711-25.2108434-3.30722892-33.77710843h-.3253012c.1626506 6.45180723.27108434 10.19277113.27108434 11.16867473v22.6084337h-5.15060241v-40.60843373z"/><path d="m33.8313253 40.5542169c-.1084337-.4879518-.1626506-1.1385542-.1626506-1.7891567 0-.2168674 0-.4337349 0-.6506024h-.1084337c-1.0301205 1.9518073-2.1686747 2.873494-4.0662651 2.873494-3.1987952 0-3.7951807-2.0060241-3.7951807-5.6927711v-6.939759c0-3.1987952.4879518-4.8795181 3.3072289-6.6144578 2.7650602-1.7349398 4.5-2.2228916 4.5-5.3132531v-3.0903614c0-1.246988-.3253012-1.7891566-1.246988-1.7891566-.9759036 0-1.192771.5963855-1.192771 1.7891566v6.560241h-5.4216868v-6.0180723c0-4.22891569 2.060241-6.28915665 6.560241-6.28915665 4.7710843 0 6.6144578 2.06024096 6.6144578 6.28915665v22.9337349c0 1.246988.0542169 2.439759.2168675 3.686747h-5.2048193zm-2.7650602-5.9638555c0 1.1927711.2710843 1.7891567 1.2469879 1.7891567.9216868 0 1.246988-.5421687 1.246988-1.7891567v-10.8433734c-2.060241 1.3554216-2.4939759 2.3313253-2.4939759 4.4457831z"/><path d="m41.0421687 8.13253012h5.313253v2.49397588h.1084337c.813253-1.89759034 2.1144579-2.87349395 4.0120482-2.87349395 3.1987952 0 3.8493976 2.00602409 3.8493976 5.69277105v11.5481928h-5.3674699v-10.8433735c0-1.1927711-.2710843-1.8433735-1.2469879-1.8433735-.9216868 0-1.246988.5963856-1.246988 1.8433735v26.4578313h-5.4216867z"/><path d="m56.2228916.05421687h5.4216867v22.87951803h.2710844l2.7650602-14.80120478h5.5301205l-3.3072289 14.53012048 3.6867469 17.8915663h-5.5843373l-3.0903614-17.0240964h-.2710844v17.0240964h-5.4216867z"/><path d="m72.2168675.05421687h9.1084337l1.7349398 15.23493973v.2168675c0 .7048193.4337349 5.4759036.6506024 14.3674699h.3253012c.1084337-4.7710844.3795181-9.433735.9216867-14.1506024l1.626506-15.61445786h8.8373494v40.49999996h-5.5301204l.1084337-21.0903614s0-.2168675 0-.5421687c0-.9216867.0542169-4.9337349.2710843-12.1445783h-.3253012c-.2710843 5.4759036-.5963855 8.9457831-.813253 10.4096386l-2.7108434 23.4216867h-5.6385542c-1.626506-13.9879518-2.8192771-25.2108434-3.3072289-33.77710843h-.3253012c.1626506 6.45180723.2710843 10.19277113.2710843 11.16867473v22.6084337h-5.1506024z"/><path d="m105.506024 40.5542169c-.108434-.4879518-.162651-1.1385542-.162651-1.7891567 0-.2168674 0-.4337349 0-.6506024h-.108433c-1.030121 1.9518073-2.168675 2.873494-4.066265 2.873494-3.1987955 0-3.795181-2.0060241-3.795181-5.6927711v-6.939759c0-3.1987952.4879518-4.8795181 3.307229-6.6144578 2.76506-1.7349398 4.5-2.2228916 4.5-5.3132531v-3.0903614c0-1.246988-.325301-1.7891566-1.246988-1.7891566-.975904 0-1.192771.5963855-1.192771 1.7891566v6.560241h-5.4216869v-6.0180723c0-4.22891569 2.060241-6.28915665 6.5602409-6.28915665 4.771084 0 6.614458 2.06024096 6.614458 6.28915665v22.9337349c0 1.246988.054217 2.439759.216867 3.686747h-5.204819zm-2.76506-5.9638555c0 1.1927711.271084 1.7891567 1.246988 1.7891567.921687 0 1.246988-.5421687 1.246988-1.7891567v-10.8433734c-2.060241 1.3554216-2.493976 2.3313253-2.493976 4.4457831z"/><path d="m112.771084.05421687h5.421687v22.87951803h.271084l2.765061-14.80120478h5.53012l-3.307229 14.53012048 3.686747 17.8915663h-5.584337l-3.090362-17.0240964h-.271084v17.0240964h-5.421687z"/><path d="m134.945783 37.1385542c.975904 0 1.246988-.6506024 1.246988-1.8433735v-7.5903614h5.475904v7.1024096c0 4.1746988-2.222892 6.2349398-6.668675 6.2349398s-6.668675-2.060241-6.668675-6.2349398v-20.9277108c0-4.17469882 2.222892-6.28915665 6.668675-6.28915665s6.668675 2.11445783 6.668675 6.28915665v11.2228915h-7.915663v10.1927711c-.054217 1.246988.325301 1.8433735 1.192771 1.8433735zm1.246988-23.8554217c0-1.2469879-.325301-1.7891566-1.246988-1.7891566-.975903 0-1.246988.5963855-1.246988 1.7891566v7.9156627h2.493976z"/><path d="m143.620482 8.13253012h5.313253v2.49397588h.108434c.813253-1.89759034 2.114458-2.87349395 4.012048-2.87349395 3.198795 0 3.849397 2.00602409 3.849397 5.69277105v11.5481928h-5.367469v-10.8433735c0-1.1927711-.271085-1.8433735-1.246988-1.8433735-.921687 0-1.246988.5963856-1.246988 1.8433735v26.4578313h-5.421687z"/><path d="m161.945783.21686747v3.46987952h1.789157v2.11445783h-1.789157v6.56024098c0 .4879518.054217.813253.216868 1.0301205.16265.2168674.433735.3253012.867469.3253012h.379519c.108433 0 .216867 0 .325301-.0542169v2.1686747c-.325301 0-.650603 0-.975904.0542169-.325301 0-.650602.0542168-1.03012.0542168-.596386 0-1.084338-.0542168-1.463856-.1084337-.379518-.1084337-.650602-.2710843-.86747-.4879518-.216867-.2710843-.325301-.5963855-.433735-.9759036-.054216-.3795181-.108433-.9216868-.108433-1.5180723v-6.93975905h-1.572289v-2.11445783h1.572289v-3.57831325z"/><path d="m167.801205 3.68674699v1.24698795h.054217c.379518-.54216867.813253-.97590361 1.301205-1.19277108.487951-.21686747 1.084337-.37951808 1.734939-.37951808.70482 0 1.301205.16265061 1.789157.48795181.487952.32530121.813253.81325301.975904 1.46385542h.054216c.216868-.65060241.650603-1.13855421 1.138555-1.46385542.542168-.3253012 1.138554-.48795181 1.89759-.48795181 1.03012 0 1.789157.32530121 2.277108.92168675.487952.59638554.70482 1.51807229.70482 2.71084337v8.7831325h-3.090362v-8.45783129c0-.48795181-.108434-.92168675-.271084-1.19277109-.162651-.27108433-.487952-.37951807-.921687-.37951807-.487952 0-.86747.1626506-1.192771.48795181-.271084.3253012-.433735.86746988-.433735 1.57228916v7.96987948h-3.036144v-8.45783129c0-.48795181-.108434-.92168675-.271085-1.19277109-.16265-.27108433-.487952-.37951807-.921687-.37951807-.487951 0-.867469.1626506-1.192771.48795181-.271084.3253012-.433735.86746988-.433735 1.57228916v7.96987948h-3.144578v-12.09036141z"/></g></svg>