<svg height="90" viewBox="0 0 180 90" width="180" xmlns="http://www.w3.org/2000/svg"><path d="m175.235475 32.249352s.351119-.0089966 1.017735 0c.666616.0089965.848113.5092371.848113.5092371s1.337643 2.4604645 1.696224 3.0554233c.31923.5296067-.063439.5199312-.151472.5112742.000848-.0011882-.01815-.0020369-.01815-.0020369s.007294.0010185.01815.0020369c-.003901.005432-.378598.0178234-4.258712-.0020369-5.410956-.7343201-5.597541-5.6016094-5.597541-5.6016094v-8.6570328h-3.053204v-3.225169c0-.4396415.508867-.5092373.508867-.5092373h2.544337v-3.2251691c0-.5260419.508867-.6789829.508867-.6789829s1.790875-.5119532 2.832865-.8100266c.427618-.1222171.559584.1310437.559584.1310437s.169623-.0899653.169623.2987524v4.4541282h4.410184c.429315 0 .508867.5092373.508867.5092373v3.2251691h-4.919051v7.4688125c0 2.1708783 2.374714 2.5461862 2.374714 2.5461862zm-13.060929 3.7344062h-2.71396c-.532445 0-.508868-.6789829-.508868-.6789829v-12.5611849c0-.763007-1.017734-1.0184744-1.017734-1.0184744h-5.597542c-.83505 0-.848112 1.0184744-.848112 1.0184744v12.7309305c0 .4992223-.508867.5092373-.508867.5092373h-2.71396c-.596731 0-.508867-.6789829-.508867-.6789829v-15.7863539c0-1.2680007 1.526602-1.5277116 1.526602-1.5277116h11.873573c1.185661 0 1.526602 1.5277116 1.526602 1.5277116v15.6166081c0 .88794-.508867.8487287-.508867.8487287zm-19.336961-7.129321h-10.516593v2.546186c0 .9174757 1.187358 1.1882202 1.187358 1.1882202h8.481123c.603516 0 1.017735.5092373 1.017735.5092373s.740062 1.5397635 1.017734 2.2066946c.277673.6669309-.508867.6789829-.508867.6789829h-12.721685c-1.532031 0-1.865847-1.8672031-1.865847-1.8672031v-14.428388c0-.8297171 1.187357-1.1882202 1.187357-1.1882202h12.721685c1.278445 0 1.526602 1.5277117 1.526602 1.5277117v7.2990669c0 1.2315053-1.526602 1.5277117-1.526602 1.5277117zm-1.865847-6.1108468s-.106862-.8487286-.848112-.8487286h-6.954522s-.848112.227629-.848112.8487286v1.8672033s.024426.8487286.848112.8487286h6.954522s.848112-.2096359.848112-1.0184744zm-15.944512 13.2401678h-2.713959c-.358073 0-.508867-.5092373-.508867-.5092373v-12.7309305c0-.7894874-1.017735-1.0184744-1.017735-1.0184744h-2.544337c-.709871 0-.848113 1.0184744-.848113 1.0184744v12.7309305c0 .4223275-.508868.5092373-.508868.5092373h-2.713958c-.377411 0-.508868-.5092373-.508868-.5092373v-12.7309305c0-.8071409-1.017734-1.0184744-1.017734-1.0184744h-2.544337c-.776363 0-.848114 1.0184744-.848114 1.0184744v12.7309305c0 .544884-.508867.5092373-.508867.5092373h-2.713959c-.508359 0-.508867-.5092373-.508867-.5092373v-16.1258453c0-.9341107 1.356979-1.3579658 1.356979-1.3579658h16.962247c1.36156 0 1.696224 1.6974573 1.696224 1.6974573v15.7863538c0 .5863018-.508867.5092373-.508867.5092373zm-24.595257-7.129321h-10.5165937v2.546186c0 .9174757 1.1873577 1.1882202 1.1873577 1.1882202h8.4811229c.6035181 0 1.0177351.5092373 1.0177351.5092373s.739893 1.5397635 1.017734 2.2066946c.277673.6669309-.508867.6789829-.508867.6789829h-12.7216836c-1.5320306 0-1.865848-1.8672031-1.865848-1.8672031v-14.428388c0-.8297171 1.1873577-1.1882202 1.1873577-1.1882202h12.7216849c1.278444 0 1.526602 1.5277117 1.526602 1.5277117v7.2990669c0 1.2315053-1.526602 1.5277117-1.526602 1.5277117zm-1.8658479-6.1108468s-.1068621-.8487286-.8481119-.8487286h-6.9545207s-.8481132.227629-.8481132.8487286v1.8672033s.0244258.8487286.8481132.8487286h6.9545207s.8481119-.2096359.8481119-1.0184744zm-14.5875316 13.2401678h-6.4456533s-4.7168618-.2227064-5.088674-4.9226264c-.0149264-4.8267201 0-19.8602517 0-19.8602517h3.0532044s1.0177348-.0185023 1.0177348 1.0184745v17.8233026s.3546801 1.4744116 2.3747141 2.036949c2.2824407-.0115427 2.7139598 0 2.7139598 0s.8845805-.2834754 1.5266022.8487287c.6420206 1.1322041 1.3569793 2.3764404 1.3569793 2.3764404s.1021131.6789829-.5088673.6789829zm-32.7371351-1.0184744v-22.4064377c0-.9935219.8481119-1.1882202.8481119-1.1882202h15.9445122c.8917052 0 .5088674 1.0184744.5088674 1.0184744s-.4969948 1.377317-.8481132 2.0369489c-.3511183.659632-1.0177348.6789829-1.0177348.6789829h-10.3469695c-.9634562 0-1.0177348.8487288-1.0177348.8487288v5.6016093h11.7039501c.686631 0 .3392445.8487288.3392445.8487288s-.8766086 1.8699191-1.1873577 2.3764403c-.3107478.5065214-1.0177347.5092373-1.0177347.5092373h-9.8381022v5.9411008c0 .8096873.8481119 1.0184746.8481119 1.0184746h10.8558382c.7872177 0 1.0177348.5092371 1.0177348.5092371s1.0750673 1.6786156 1.5266022 2.3764404c.4517038.6978247-.1696229.8487287-.1696229.8487287h-17.1318686c-.7074962 0-1.0177348-1.0184744-1.0177348-1.0184744zm-10.0430273-1.4093989c-.0117049 1.9442677-1.0216368 2.3779681-1.0216368 2.3779681s-17.4276903 10.0703358-18.5607683 10.7012807c-1.122731.4819081-1.8731408 0-1.8731408 0s-18.23560238-10.5760084-18.90120095-11.040942c-.6657681-.4649336-.68120372-1.1890689-.68120372-1.1890689s.0183192-20.9422109 0-21.9119683c-.01831931-.9699272 1.19193695-1.6986456 1.19193695-1.6986456l18.22016672-10.5313653c1.1217133-.59207313 2.2137427 0 2.2137427 0s16.095815 9.35587603 17.8795645 10.3614497c1.7482993.831245 1.5325397 2.5478836 1.5325397 2.5478836s.0108555 18.5764646 0 20.383408zm-7.2745785-21.0185965c-3.7306766-2.1472836-12.5191558-7.23948611-12.5191558-7.23948611s-.8574414-.46340593-1.7381213 0l-14.30511049 8.24183471s-.95022505.5705154-.93580717 1.3294485c.01441787.7589333 0 17.1485634 0 17.1485634s.01204323.5667811.53481957.9305463c.52260682.3637651 14.83976059 8.6407371 14.83976059 8.6407371s.5892685.377175 1.4706268 0c.8896698-.4937904 14.5726052-8.3749153 14.5726052-8.3749153s.792985-.3394915.8021446-1.8610923c.0025444-.4387928.0035621-2.1420216.0037316-4.2820061l-16.1095543 9.7615683v-3.7344062c0-1.5338225 1.1873573-2.5461862 1.1873573-2.5461862l14.2491351-8.5862488c.5377033-.5615189.6486363-1.4610015.6715354-1.801172-.0005088-1.5597937-.0011874-2.9223426-.0016962-3.7854997l-16.1063316 9.7595313v-3.904152c0-1.5338225 1.0177348-2.2066947 1.0177348-2.2066947z" fill="#409eff" transform="translate(0 22)"/></svg>