<svg height="90" viewBox="0 0 180 90" width="180" xmlns="http://www.w3.org/2000/svg" xmlns:xlink="http://www.w3.org/1999/xlink"><mask id="a" fill="#fff"><path d="m15.0179104.59104478h7.1462687l14.7761194 38.36417912h-7.2l-3.6-10.1552239h-15.3134328l-3.60000003 10.1552239h-6.93134328zm-2.3641791 23.10447762h11.7134329l-5.7492538-16.4955224h-.161194z" fill="#fff" fill-rule="evenodd"/></mask><mask id="b" fill="#fff"><path d="m.10746269 1.10149254h5.80298507v4.08358209l.10746269.10746268c.93136567-1.54027612 2.14925373-2.74923134 3.65373134-3.62686567s3.17014921-1.31641791 4.99701491-1.31641791c3.0448209 0 5.4447985.78803731 7.2 2.36417911 1.7552015 1.57614179 2.6328358 3.94025373 2.6328358 7.09253731v19.07462685h-6.1253731v-17.4626866c-.0716642-2.18505219-.5373134-3.77012682-1.3970149-4.75522383-.8597015-.98509702-2.2029851-1.47761194-4.0298508-1.47761194-1.0388283 0-1.9701268.1880597-2.7940298.5641791s-1.52241047.8955-2.09552241 1.55820896c-.57311194.66270895-1.02089552 1.44181343-1.34328358 2.33731343-.32238806.89549998-.48358209 1.84479848-.48358209 2.84776118v16.3880597h-6.12537313z" fill="#fff" fill-rule="evenodd"/></mask><mask id="c" fill="#fff"><path d="m.61791045 8.48955224h4.62089552v-8.32835821h6.12537313v8.32835821h5.5343284v4.56716416h-5.5343284v14.8298508c0 .6447761.0268657 1.2000224.080597 1.6656716.0537314.4656493.1791269.8597015.3761194 1.1820896.1969926.322388.4925149.5641791.8865672.7253731.3940522.161194.9313657.241791 1.6119403.241791.4298507 0 .8597015-.0089328 1.2895522-.0268656.4298508-.0179329.8597015-.080597 1.2895523-.1880597v4.7283582c-.6805747.0716642-1.3432836.1432612-1.9880597.2149253-.6447762.0716642-1.3074851.1074627-1.9880597.1074627-1.6119403 0-2.9104254-.1522612-3.89552243-.4567164-.98509701-.3044552-1.75520149-.7522388-2.31044776-1.3432836-.55524627-.5910447-.93136567-1.3343507-1.12835821-2.2298507s-.31345522-1.9163955-.34925373-3.0626866v-16.3880597h-4.62089552z" fill="#fff" fill-rule="evenodd"/></mask><mask id="d" fill="#fff"/><mask id="e" fill="#fff"/><mask id="f" fill="#fff"/><mask id="g" fill="#fff"/><mask id="h" fill="#fff"/><mask id="i" fill="#fff"/><mask id="j" fill="#fff"/><mask id="k" fill="#fff"/><mask id="l" fill="#fff"/><mask id="m" fill="#fff"/><g fill="none" fill-rule="evenodd"><g fill="#4d4d53"><path d="m-3.06268657-2.76716418h43.36119407v45.08059698h-43.36119407z" mask="url(#a)" transform="translate(0 16.360883)"/><path d="m-3.25074627-3.00895522h31.11044777v35.24776122h-31.11044777z" mask="url(#b)" transform="translate(39.626866 26.435509)"/><path d="m-2.74029851-3.19701493h22.99701491v43.09253733h-22.99701491z" mask="url(#c)" transform="translate(67.164179 19.04745)"/><path d="m-2.79402985-2.74029851h22.35223885v12.51940299h-22.35223885z" mask="url(#d)" transform="translate(87.313433 37.181778)"/></g><g transform="translate(23.507463 16.360883)"><path d="m-3.0358209-2.76716418h38.2029851v45.99402988h-38.2029851z" fill="#fff" mask="url(#e)" transform="translate(85.970149)"/><path d="m-12.0895522-3.35820896h45.6716418v12.76119403h-45.6716418z" fill="#b7e2e8" mask="url(#f)" transform="translate(90.671642 36.268657)"/><path d="m-8.05970149-3.35820896h45.67164179v12.76119403h-45.67164179z" fill="#b7e2e8" mask="url(#g)" transform="translate(86.641791 30.223881)"/><path d="m2.64223881 49.1071642-2.64223881 6.7137313h.82746269l.71462686-1.880597h3.08417911l.71462686 1.880597h.83686567l-2.6422388-6.7137313zm-.85567165 4.1843283 1.28820896-3.3568656h.03761194l1.26940298 3.3568656zm15.82925374-4.3159701c-.6958209 0-1.269403.1504477-1.7113433.4513433-.4983582.3197015-.7428358.7804477-.7428358 1.3634328 0 .5641791.2538806.9967164.7710448 1.2976119.2162686.1128359.7334328.3008956 1.5420895.5453732.7522388.2162686 1.2317911.3761194 1.4198508.4889552.4419403.2350746.6676119.5641791.6676119.9873134 0 .3573135-.1692537.639403-.5077612.8462687s-.7898507.3102985-1.3352239.3102985c-.601791 0-1.0531343-.1316418-1.3634328-.3761194-.3385075-.2726866-.5453731-.7052239-.611194-1.288209h-.7616418c.0564179.8274627.3479104 1.4386568.8744776 1.8429851.4513433.3385075 1.0719403.5077612 1.861791.5077612.7992538 0 1.4292538-.1692537 1.899403-.4983582.4701493-.3385075.7052239-.8086567.7052239-1.3916418 0-.611194-.2820896-1.0813433-.8368657-1.4198507-.2820895-.1692538-.8650746-.3855224-1.7489552-.648806-.648806-.1880597-1.0625373-.3291045-1.231791-.4231343-.3855224-.2068657-.5735821-.4795523-.5735821-.8180597 0-.3855224.1598507-.667612.4795522-.8556717.2820896-.1692537.6676119-.2444776 1.1659702-.2444776.5453731 0 .9685074.1128358 1.2694029.3573134.2914926.2350747.4795523.5923881.5641791 1.0813433h.7616418c-.0658209-.7052239-.3197015-1.241194-.7710447-1.5985074-.4325374-.3479105-1.0343284-.5171642-1.7865672-.5171642zm6.8991045.1504477c-.1598508 0-.2914926.047015-.4043284.1598508-.1128358.0940298-.1598507.2256716-.1598507.3949254 0 .1598507.0470149.2914925.1598507.4043283.1128358.1034329.2444776.1598508.4043284.1598508.1598507 0 .2914925-.0564179.4043283-.1598508.1128359-.1128358.1692538-.2444776.1692538-.4043283 0-.1692538-.0564179-.3008956-.1692538-.3949254-.1128358-.1128358-.2444776-.1598508-.4043283-.1598508zm-.3761194 1.8335821v4.8613433h.7522388v-4.8613433zm6.1468656-1.5702985-.7428358.3102985v1.26h-.9779104v.63h.9779104v3.0935821c0 .3667164.0752239.639403.2350746.8274627.1692538.2068657.4607463.3102985.8556717.3102985h.7334328v-.63h-.620597c-.1692537 0-.2914925-.0470149-.3573134-.1222388-.0752239-.0752239-.1034329-.2068657-.1034329-.3855224v-3.0935821h1.2035821v-.63h-1.2035821zm6.7298508 1.4386567c-.7052239 0-1.26.2538806-1.6737314.7616418-.4137313.4795523-.611194 1.0813433-.611194 1.7959702 0 .7898507.2068657 1.4104477.639403 1.880597.4137313.4513433.9779104.6864179 1.6737313.6864179.63 0 1.1471642-.1880597 1.5514926-.5453731.3291045-.3008955.5453731-.6770149.6582089-1.1471642h-.7522388c-.1222388.3385075-.2820895.5923881-.4889552.7616418-.2444776.1974627-.5735821.3008955-.9685075.3008955-.4607462 0-.8274626-.1504477-1.0907462-.4513433-.2632836-.3008955-.4043284-.7240298-.4419403-1.269403h3.8364179c-.018806-.8462686-.2068657-1.5138806-.5641791-1.9840298-.3949254-.5265672-.9873135-.7898508-1.7677612-.7898508zm.018806.63c.9214925 0 1.4386567.5171642 1.5326865 1.5608956h-3.0371642c.047015-.4795523.1974627-.8556717.4607463-1.1377612.2632836-.2820896.611194-.4231344 1.0437314-.4231344zm8.0086567-.63c-.5453732 0-1.0061194.2538806-1.3728358.7804478v-.648806h-.7522389v4.8613433h.7522389v-2.9619403c0-.3855224.1128358-.7146268.3385074-.9779104.2256717-.2820896.5077612-.4137314.8556717-.4137314.7428358 0 1.1189552.4231344 1.1189552 1.288209v3.0653731h.7522388v-3.0465671c0-.3949254.1034328-.7052239.3291045-.9497015.2068656-.2444776.4795522-.3573135.7992537-.3573135.4137313 0 .7146269.1034329.9026866.3291045.1786567.2068657.2726865.5265672.2726865.9591045v3.0653731h.7522388v-3.1876119c0-.5547761-.1598507-.9967164-.4607462-1.3258209-.3197015-.3197015-.7240299-.4795523-1.2317911-.4795523-.3385074 0-.620597.0752239-.8556716.2256717-.2632836.1410448-.4889552.3761194-.6770149.6958209-.2726866-.620597-.7804478-.9214926-1.5232836-.9214926zm10.7167164 0c-.5829851 0-1.0437314.1128359-1.4010448.3385075-.3949254.2444776-.648806.63-.7522388 1.1377612l.7428358.0564179c.0752239-.3102985.2350747-.5453731.4889553-.6958209.2256716-.1504477.5171641-.2162686.8744776-.2162686.8462686 0 1.269403.4043283 1.269403 1.222388v.2538806l-1.1659702.018806c-.7334328.009403-1.2976119.1504478-1.6925373.4137313-.4513433.2820896-.667612.6958209-.667612 1.250597 0 .3949254.1504478.7240299.4513433.9779105.2914926.2444776.677015.3667164 1.1659702.3667164.4513433 0 .8556716-.1034328 1.2129851-.3008955.3008955-.1692537.5547761-.3855224.7428358-.648806v.8180597h.7052239v-3.121791c0-.5641791-.1504478-1.0061194-.4325374-1.3258209-.3385074-.3667164-.8462686-.5453732-1.5420895-.5453732zm1.2223881 2.6610448v.4137314c0 .3761194-.1786568.7146268-.5265672 1.0061194-.3573134.3008955-.7616418.4513433-1.2223881.4513433-.3008955 0-.5453731-.0752239-.7334328-.2162687-.1880597-.1504478-.2726866-.3291045-.2726866-.5547761 0-.7052239.5453732-1.0625373 1.6361194-1.0813433zm6.9273134-2.6610448c-.7334329 0-1.269403.3102986-1.6173134.9308956v-.7992538h-.7052239v6.7231344h.7522388v-2.7456717c.3761194.677015.9120895 1.0155224 1.6079104 1.0155224s1.2317911-.2632836 1.6267164-.7710448c.3573135-.4701492.5453732-1.0625373.5453732-1.7771641 0-.7334329-.1880597-1.3258209-.5547761-1.7959702-.4043284-.5265672-.9591045-.7804478-1.6549254-.7804478zm-.0940299.6205971c.5171642 0 .9120896.1880597 1.1847762.582985.2256716.3385075.3479104.7992538.3479104 1.3728359 0 .582985-.1222388 1.0437313-.3667164 1.3822388-.2726866.3573134-.667612.5453731-1.1941791.5453731-.4513433 0-.7992538-.1786567-1.0625373-.5171642-.2820896-.3479104-.4137314-.7992537-.4137314-1.3634328v-.0940299c0-.5453731.1222388-.9967164.3667164-1.3352238.2632836-.3855224.648806-.5735821 1.1377612-.5735821zm11.3628359-2.3413433v.6676119h2.3695522v6.0461194h.7616418v-6.0461194h2.3695522v-.6676119zm10.932985 1.7207462c-.7052239 0-1.26.2538806-1.6737313.7616418-.4137314.4795523-.611194 1.0813433-.611194 1.7959702 0 .7898507.2068656 1.4104477.6394029 1.880597.4137314.4513433.9779105.6864179 1.6737314.6864179.63 0 1.1471642-.1880597 1.5514925-.5453731.3291045-.3008955.5453732-.6770149.658209-1.1471642h-.7522388c-.1222388.3385075-.2820896.5923881-.4889553.7616418-.2444776.1974627-.573582.3008955-.9685074.3008955-.4607463 0-.8274627-.1504477-1.0907463-.4513433-.2632836-.3008955-.4043283-.7240298-.4419403-1.269403h3.8364179c-.0188059-.8462686-.2068656-1.5138806-.5641791-1.9840298-.3949253-.5265672-.9873134-.7898508-1.7677612-.7898508zm.018806.63c.9214925 0 1.4386567.5171642 1.5326866 1.5608956h-3.0371642c.0470149-.4795523.1974627-.8556717.4607463-1.1377612.2632835-.2820896.611194-.4231344 1.0437313-.4231344zm8.0086567-.63c-.5453731 0-1.0061194.2538806-1.3728358.7804478v-.648806h-.7522388v4.8613433h.7522388v-2.9619403c0-.3855224.1128358-.7146268.3385075-.9779104.2256716-.2820896.5077612-.4137314.8556716-.4137314.7428358 0 1.1189552.4231344 1.1189552 1.288209v3.0653731h.7522388v-3.0465671c0-.3949254.1034329-.7052239.3291045-.9497015.2068657-.2444776.4795522-.3573135.7992537-.3573135.4137314 0 .7146269.1034329.9026866.3291045.1786567.2068657.2726866.5265672.2726866.9591045v3.0653731h.7522388v-3.1876119c0-.5547761-.1598508-.9967164-.4607463-1.3258209-.3197015-.3197015-.7240298-.4795523-1.231791-.4795523-.3385075 0-.620597.0752239-.8556717.2256717-.2632836.1410448-.4889552.3761194-.6770149.6958209-.2726866-.620597-.7804478-.9214926-1.5232836-.9214926zm10.9235823 0c-.733433 0-1.269403.3102986-1.617314.9308956v-.7992538h-.705224v6.7231344h.752239v-2.7456717c.37612.677015.91209 1.0155224 1.607911 1.0155224s1.231791-.2632836 1.626716-.7710448c.357314-.4701492.545373-1.0625373.545373-1.7771641 0-.7334329-.188059-1.3258209-.554776-1.7959702-.404328-.5265672-.959104-.7804478-1.654925-.7804478zm-.09403.6205971c.517164 0 .91209.1880597 1.184776.582985.225672.3385075.347911.7992538.347911 1.3728359 0 .582985-.122239 1.0437313-.366717 1.3822388-.272686.3573134-.667612.5453731-1.194179.5453731-.451343 0-.799254-.1786567-1.062537-.5171642-.28209-.3479104-.413732-.7992537-.413732-1.3634328v-.0940299c0-.5453731.122239-.9967164.366717-1.3352238.263283-.3855224.648806-.5735821 1.137761-.5735821zm6.118657-2.4729851v6.8453731h.742835v-6.8453731zm6.861492 1.852388c-.582985 0-1.043731.1128359-1.401045.3385075-.394925.2444776-.648806.63-.752238 1.1377612l.742835.0564179c.075224-.3102985.235075-.5453731.488956-.6958209.225671-.1504477.517164-.2162686.874477-.2162686.846269 0 1.269403.4043283 1.269403 1.222388v.2538806l-1.16597.018806c-.733433.009403-1.297612.1504478-1.692537.4137313-.451343.2820896-.667612.6958209-.667612 1.250597 0 .3949254.150448.7240299.451343.9779105.291493.2444776.677015.3667164 1.16597.3667164.451344 0 .855672-.1034328 1.212985-.3008955.300896-.1692537.554776-.3855224.742836-.648806v.8180597h.705224v-3.121791c0-.5641791-.150448-1.0061194-.432537-1.3258209-.338508-.3667164-.846269-.5453732-1.54209-.5453732zm1.222388 2.6610448v.4137314c0 .3761194-.178656.7146268-.526567 1.0061194-.357313.3008955-.761642.4513433-1.222388.4513433-.300895 0-.545373-.0752239-.733433-.2162687-.188059-.1504478-.272686-.3291045-.272686-.5547761 0-.7052239.545373-1.0625373 1.636119-1.0813433zm5.902388-4.0997015-.742835.3102985v1.26h-.977911v.63h.977911v3.0935821c0 .3667164.075223.639403.235074.8274627.169254.2068657.460746.3102985.855672.3102985h.733433v-.63h-.620597c-.169254 0-.291493-.0470149-.357314-.1222388-.075224-.0752239-.103433-.2068657-.103433-.3855224v-3.0935821h1.203582v-.63h-1.203582zm6.729851 1.4386567c-.705224 0-1.26.2538806-1.673731.7616418-.413732.4795523-.611194 1.0813433-.611194 1.7959702 0 .7898507.206865 1.4104477.639403 1.880597.413731.4513433.97791.6864179 1.673731.6864179.63 0 1.147164-.1880597 1.551493-.5453731.329104-.3008955.545373-.6770149.658209-1.1471642h-.752239c-.122239.3385075-.28209.5923881-.488956.7616418-.244477.1974627-.573582.3008955-.968507.3008955-.460746 0-.827463-.1504477-1.090746-.4513433-.263284-.3008955-.404329-.7240298-.441941-1.269403h3.836418c-.018806-.8462686-.206865-1.5138806-.564179-1.9840298-.394925-.5265672-.987313-.7898508-1.767761-.7898508zm.018806.63c.921493 0 1.438657.5171642 1.532687 1.5608956h-3.037165c.047015-.4795523.197463-.8556717.460747-1.1377612.263283-.2820896.611194-.4231344 1.043731-.4231344z" fill="#b1bdc8" fill-rule="nonzero"/><path d="m-7.3880597-3.35820896h45.6716418v12.76119403h-45.6716418z" fill="#f5a623" mask="url(#h)" transform="translate(85.970149 24.179104)"/><path d="m-7.3880597-3.35820896h45.6716418v12.76119403h-45.6716418z" fill="#70c19a" mask="url(#i)" transform="translate(85.970149 18.134328)"/><path d="m-7.3880597-3.35820896h45.6716418v12.76119403h-45.6716418z" fill="#a7d7ba" mask="url(#j)" transform="translate(85.970149 12.089552)"/><path d="m-7.3880597-3.35820896h45.6716418v12.76119403h-45.6716418z" fill="#fa907f" mask="url(#k)" transform="translate(85.970149 6.044776)"/><path d="m-7.3880597-3.35820896h45.6716418v12.76119403h-45.6716418z" fill="#ed6243" mask="url(#l)" transform="translate(85.970149)"/></g><path d="m-2.98208955-2.76716418h41.85671645v45.08059698h-41.85671645z" fill="#4d4d53" mask="url(#m)" transform="translate(144.402985 16.360883)"/></g></svg>