<svg height="90" viewBox="0 0 180 90" width="180" xmlns="http://www.w3.org/2000/svg"><g fill="none" transform="translate(0 24)"><path d="m15.3992395 0c-7.87072239 0-15.3992395 14.5437262-15.3992395 25.6653992 0 8.5209126 6.878327 15.3992396 15.3992395 15.3992396 8.5209126 0 15.3992396-6.878327 15.3992396-15.3992396 0-11.121673-7.5285171-25.6653992-15.3992396-25.6653992zm0 33.365019c-4.243346 0-7.69961973-3.4562738-7.69961973-7.6996198 0-5.7148289 3.90114073-12.8326996 7.69961973-12.8326996 3.7984791 0 7.6996198 7.1178707 7.6996198 12.8326996 0 4.243346-3.4562737 7.6996198-7.6996198 7.6996198z" fill="#00bc87"/><path d="m58.3802281 32.9885932h-3.1825095l-.2737642-1.8479088c-1.2319392 1.5057034-3.0114069 2.2243346-5.3041825 2.2243346-2.121673 0-3.7642586-.5475285-4.9961978-1.6768061-1.2319391-1.1292775-1.8136882-2.5665399-1.8136882-4.3802281s.6159696-3.2851711 1.8821293-4.4144487c1.2661597-1.1634981 2.9429658-1.7452471 5.0304183-1.7452471 2.0190114 0 3.5589353.581749 4.6882129 1.7110266v-1.6425856c0-1.608365-.4106464-2.8060836-1.1977186-3.6273764-.7870723-.8212928-1.9163499-1.2319392-3.3536122-1.2319392-.8897339 0-1.7452472.1026616-2.5665399.3079848-.8212928.2053232-1.4030419.4106464-1.7452472.6159696l-.581749.3079848-1.026616-3.1140684c.1711027-.1368822.4448669-.2737643.7528517-.4790875.3079848-.1711026 1.0608365-.4106464 2.1901141-.7186312 1.1292775-.3079848 2.3612167-.4448669 3.6273764-.4448669 2.4638783 0 4.3802281.6844107 5.78327 2.0874525 1.4030418 1.4030418 2.0874524 3.3878327 2.0874524 5.9885931zm-4.8593156-3.4904943c.7186312-.6159696 1.0950571-1.4030419 1.0950571-2.3612168s-.3764259-1.7452471-1.0950571-2.3612167c-.7186311-.6159696-1.7110266-.9239544-2.9087452-.9239544-1.1634981 0-2.0874525.3079848-2.8060836.9239544-.7186312.6159696-1.0950571 1.4030418-1.0950571 2.3612167s.3764259 1.7452472 1.0950571 2.3612168c.7186311.6159695 1.6425855.9239543 2.8060836.9239543 1.1977186 0 2.1558935-.3079848 2.9087452-.9239543zm7.6311788-16.2889734h4.243346l4.3460076 14.0988593 4.3460076-14.0988593h4.0038023l-6.6730038 19.7452471h-3.661597zm19.5399239 7.460076c0-2.3954372.7528517-4.3117871 2.2243346-5.7148289 1.4714829-1.4372623 3.3878327-2.121673 5.7148289-2.121673 2.3612167 0 4.2775665.6844107 5.7148289 2.0874525s2.1558935 3.2851711 2.1558935 5.6463878v4.9277567c0 2.4296578-.7528517 4.3117871-2.2243346 5.7490494-1.4714828 1.4030418-3.3878327 2.121673-5.7490494 2.121673s-4.243346-.6844106-5.6806084-2.0532319c-1.4372623-1.3688213-2.121673-3.2509506-2.121673-5.6806084v-4.9619772zm3.9353612 4.8250951c0 1.3688213.3764259 2.4296578 1.0950571 3.1825095.7186311.7870722 1.676806 1.1634981 2.8745247 1.1634981 1.1977186 0 2.121673-.3764259 2.8403042-1.1634981.7186311-.7870723 1.095057-1.8479088 1.095057-3.1825095v-4.8250951c0-1.3346007-.3764259-2.3954372-1.095057-3.1825095-.7186312-.7870722-1.6768061-1.1634981-2.8403042-1.1634981-1.1977187 0-2.1558936.3764259-2.8745247 1.1634981-.7186312.7870723-1.0950571 1.8479088-1.0950571 3.1825095zm28.3688216-.1026616h3.798479v.4106464c0 2.2927756-.718631 4.1064638-2.121673 5.4752851-1.437263 1.3688213-3.285171 2.053232-5.543726 2.053232-2.292776 0-4.106464-.6844107-5.509506-2.0190114-1.403042-1.3346008-2.087453-3.1825095-2.087453-5.5437263v-5.2699619c0-2.3269962.718632-4.2091255 2.155894-5.5779468s3.285171-2.0874525 5.543726-2.0874525 4.072244.6844107 5.475285 2.0190114c1.403042 1.3346008 2.087453 3.148289 2.087453 5.4752852v.3422053h-3.798479v-.2395437c0-1.2319392-.342206-2.2243346-1.026616-2.9771863-.684411-.7528517-1.574145-1.1292776-2.703422-1.1292776-1.163498 0-2.087453.3764259-2.737643 1.1292776-.684411.7528517-1.026616 1.7452471-1.026616 3.0456274v5.2015209c0 1.3003802.342205 2.2927756 1.026616 3.0456273.684411.7528518 1.608365 1.1292776 2.737643 1.1292776 1.129277 0 2.019011-.3764258 2.703422-1.095057.68441-.7186312 1.026616-1.7110266 1.026616-2.9429658zm8.897338-4.7224335c0-2.3954372.752852-4.3117871 2.224335-5.7148289 1.471483-1.4372623 3.387832-2.121673 5.714829-2.121673 2.361216 0 4.277566.6844107 5.714829 2.0874525 1.437262 1.4030418 2.155893 3.2851711 2.155893 5.6463878v4.9277567c0 2.4296578-.752852 4.3117871-2.224335 5.7490494-1.471482 1.4030418-3.387832 2.121673-5.749049 2.121673s-4.243346-.6844106-5.680608-2.0532319c-1.437263-1.3688213-2.121673-3.2509506-2.121673-5.6806084v-4.9619772zm3.935361 4.8250951c0 1.3688213.376426 2.4296578 1.095057 3.1825095.718632.7870722 1.676806 1.1634981 2.874525 1.1634981s2.121673-.3764259 2.840304-1.1634981c.718631-.7870723 1.095057-1.8479088 1.095057-3.1825095v-4.8250951c0-1.3346007-.376426-2.3954372-1.095057-3.1825095-.718631-.7870722-1.676806-1.1634981-2.840304-1.1634981-1.197719 0-2.155893.3764259-2.874525 1.1634981-.718631.7870723-1.095057 1.8479088-1.095057 3.1825095zm32.74905 7.4942966h-3.456274l-.205323-2.3269962c-1.163498 1.8136882-2.942966 2.703422-5.304183 2.703422-2.121673 0-3.798479-.6501901-4.996197-1.9163498-1.197719-1.2661597-1.813689-3.0456274-1.813689-5.338403v-5.8859316c0-2.3269962.61597-4.1064639 1.88213-5.4410646 1.231939-1.3003803 2.942965-1.9505704 5.064638-1.9505704s3.764259.7528517 4.893537 2.2243346v-9.06844104h3.969581v27.00000004zm-3.969582-12.3193917c0-1.3346007-.376426-2.3954372-1.095057-3.1825095-.718631-.7870722-1.676806-1.1634981-2.840304-1.1634981-1.197719 0-2.155894.3764259-2.874525 1.1634981-.718631.7870723-1.095057 1.8479088-1.095057 3.1825095v4.8250951c0 1.3688213.376426 2.4296578 1.095057 3.1825095.718631.7870722 1.676806 1.1634981 2.874525 1.1634981 1.197718 0 2.121673-.3764259 2.840304-1.1634981.718631-.7870723 1.095057-1.8479088 1.095057-3.1825095zm24.980989 6.0570342c-.034221.1711027-.068441.4106464-.102662.7186312s-.239544.8212928-.547529 1.5741445c-.307984.7528517-.718631 1.4372624-1.197718 2.0190114-.513308.5817491-1.26616 1.1292776-2.292776 1.608365-1.026616.4790875-2.224334.7186312-3.593156.7186312-2.361216 0-4.243346-.6844106-5.680608-2.0532319s-2.121673-3.2509506-2.121673-5.6806084v-4.9619772c0-2.3954372.752852-4.3117871 2.224335-5.7148289 1.471482-1.4372623 3.387832-2.121673 5.714828-2.121673 2.326997 0 4.174905.6844107 5.577947 2.0874525s2.121673 3.2851711 2.121673 5.6463878v2.8403042h-11.703422v2.0874525c0 1.3688213.376426 2.4296578 1.095057 3.1825095.718631.7870722 1.676806 1.1634981 2.874525 1.1634981.684411 0 1.30038-.1368821 1.813688-.4106464s.923954-.5817491 1.163498-.9923954c.239544-.3764259.444867-.7528518.61597-1.1292776.171102-.3764259.273764-.6844107.273764-.9923954l.034221-.3764259zm-11.634981-5.920152h7.904943v-.513308c0-1.3346008-.376426-2.3954373-1.095057-3.1825095-.718632-.7870723-1.676807-1.1634981-2.840305-1.1634981-1.197718 0-2.155893.3764258-2.874524 1.1634981-.718632.7870722-1.095057 1.8479087-1.095057 3.1825095z" fill="#6b6b6b"/></g></svg>