<svg height="90" viewBox="0 0 180 90" width="180" xmlns="http://www.w3.org/2000/svg"><g fill-rule="evenodd" transform="translate(0 16)"><path d="m44.19375 2.98125c3.69375-3.075 8.79375-1.809375 13.2-2.025-.346875 4.33125-2.896875 8.709375-7.275 9.928125-3.28125.69375-6.684375.271875-10.021875.328125.459375-3.075 1.471875-6.31875 4.096875-8.23125z"/><path d="m7.959375 1.678125c5.71875-.16875 11.25 4.55625 10.9125 10.471875-.91875 7.3125-3.09375 14.409375-4.246875 21.684375-.35625 2.475.73125 4.8375 1.10625 7.246875l1.3875-.740625-1.396875 3.01875 2.203125-2.240625c.09375.459375.271875 1.396875.365625 1.865625.459375-.159375 1.3875-.478125 1.85625-.6375l-.35625 1.265625c2.409375-.05625 4.828125-.075 7.246875-.046875l-.46875-1.33125c.54375.16875 1.6125.515625 2.146875.684375l-.225-.946875c.95625-.4875 1.921875-.975 2.8875-1.453125l.1125-.253125c1.884375-2.090625 3.703125-4.3875 4.33125-7.190625 1.425-6 2.56875-12.05625 3.890625-18.075h10.715625c-1.125 5.3625-2.2875 10.715625-3.375 16.078125-2.15625 12.984375-14.053125 23.840625-27.290625 24.24375-6.1125.2625-12.4875-2.465625-15.8625-7.6875-3.075-4.5375-3.5625-10.36875-2.3625-15.61875 2.146875-10.115625 4.265625-20.23125 6.421875-30.3375z"/><path d="m142.44375 18.721875c1.21875-5.615625 2.45625-11.23125 3.646875-16.846875h12.3c-.2625 1.246875-.525 2.484375-.778125 3.73125 5.765625.065625 11.540625-.065625 17.30625.084375-.50625 3.515625-2.5875 7.05-6.225 7.996875-4.246875.8625-8.634375.2625-12.9375.45-.346875 1.528125-.675 3.065625-1.003125 4.59375 8.11875.046875 16.2375 0 24.35625.028125-1.125 4.809375-1.996875 9.69375-3.20625 14.49375-1.040625 4.3875-5.503125 7.33125-9.928125 7.059375-13.4625 0-26.925 0-40.3875 0 1.0875-4.81875 2.00625-9.675 3.1875-14.475.88125-3.69375 4.228125-6.534375 7.96875-6.965625 1.89375-.196875 3.796875-.13125 5.7-.15zm-3.3 15.95625c5.86875-.09375 11.765625.24375 17.625-.16875 4.35-1.1625 4.115625-6.515625 5.053125-10.05-5.86875.0375-11.746875-.196875-17.60625.084375-4.415625 1.125-4.115625 6.6-5.071875 10.134375z" fill-rule="nonzero"/><path d="m59.803125 35.596875c.309375-5.56875 4.6125-10.9125 10.415625-11.128125 14.465625-.234375 28.95-.01875 43.415625-.103125-.35625 5.56875-4.603125 10.9125-10.415625 11.165625-14.465625.20625-28.940625.065625-43.415625.065625z"/><path d="m166.125 44.19375c4.36875-1.10625 8.578125 3.646875 7.0125 7.85625-1.2 4.209375-7.153125 5.634375-10.115625 2.4-3.421875-3.15-1.51875-9.5625 3.103125-10.25625z"/><path d="m122.615625 55.29375c.2625-5.090625 4.096875-10.21875 9.50625-10.265625 7.584375-.084375 15.178125-.009375 22.7625-.009375-.309375 4.753125-3.553125 9.6-8.559375 10.18125-7.89375.253125-15.80625.05625-23.709375.09375z"/></g></svg>