<svg height="90" viewBox="0 0 180 90" width="180" xmlns="http://www.w3.org/2000/svg"><g fill-rule="evenodd" transform="translate(0 16)"><path d="m32.1221477 17.661745c0 6.1489933 4.4305369 10.7969798 10.6369127 14.0164429 5.2369128 2.7181208 7.0399329 4.9137584 7.0399329 8.2449665 0 3.624161-3.0775168 6.6110738-8.3204698 6.6261745-4.8533557.0151006-10.0932886-2.0295302-12.9171141-3.5516779l-3.3221477 9.1781879c2.8389262 2.1291947 8.707047 3.9744967 15.0463088 3.9744967 12.9412751 0 22.8291946-6.547651 22.8291946-18.404698 0-6.8255034-5.2248322-11.271141-11.138255-14.4332215-4.5543624-2.3798658-6.9191275-4.4577181-6.9191275-7.4627517 0-3.6513423 3.3221476-6.21543621 8.1543624-6.21543621 3.5007772.00697477 6.9523718.82464811 10.0842282 2.38892621l3.240604-9.30503359c-2.3557047-1.42852349-6.9916108-2.71812081-12.6392618-2.71812081-12.7177852 0-21.7751677 7.30268456-21.7751677 17.661745z"/><path d="m0 54.990604h12.8597315l9.6916108-53.77348991h-12.85973156z"/><path d="m179.78255 1.21409396h-15.272818l-13.318792 15.20033554-7.40537-15.21241608h-13.632885l12.276845 25.21510068-25.112416 28.664094h15.272819l15.29698-17.459396 8.489597 17.4442953h13.632886l-13.361074-27.4439597z"/><path d="m109.884564 1.20805369-5.991947 31.40939601c-2.382885 12.6422818-7.9036908 14.1040268-11.8479861 14.1040268-4.6751678 0-7.3540269-2.7362416-7.3540269-7.5080537.004573-2.0802417.2068245-4.1553416.6040269-6.1973154l6.0855704-31.80805371h-11.7785234l-5.8288591 30.66946311c-.4368841 2.5042955-.6782167 5.0387928-.7218121 7.5805369 0 5.5147651 1.5583893 9.8607382 4.6328859 12.9110738 3.0744967 3.0503356 7.5352349 4.6177853 12.9865772 4.6177853h.2234899c13.7144293 0 21.5697983-7.6348994 24.7228193-24.0312081l6.058389-31.74765101z"/></g></svg>