<svg height="90" viewBox="0 0 180 90" width="180" xmlns="http://www.w3.org/2000/svg"><path d="m179.1875 25.15625c-.40625-2.015625-1.03125-4-1.828125-5.90625-.78125-1.859375-1.765625-3.65625-2.890625-5.34375-1.125-1.671875-2.421875-3.234375-3.84375-4.65625s-2.984375-2.71875-4.65625-3.84375c-1.6875-1.140625-3.46875-2.109375-5.34375-2.890625-1.890625-.796875-3.875-1.421875-5.90625-1.828125-2.078125-.421875-4.203125-.640625-6.328125-.640625s-4.265625.21875-6.328125.640625c-2.015625.40625-4 1.03125-5.90625 1.828125-1.859375.78125-3.65625 1.765625-5.34375 2.890625-.640625.421875-1.25.890625-1.859375 1.359375-.609375-.46875-1.21875-.921875-1.859375-1.359375-1.6875-1.140625-3.46875-2.109375-5.34375-2.890625-1.890625-.796875-3.875-1.421875-5.90625-1.828125-2.0625-.421875-4.203125-.640625-6.328125-.640625s-4.265625.21875-6.328125.640625c-2.015625.40625-4 1.03125-5.90625 1.828125-1.859375.78125-3.65625 1.765625-5.34375 2.890625-.671875.453125-1.328125.9375-1.96875 1.4375-.640625-.5-1.296875-.984375-1.953125-1.4375-1.6875-1.140625-3.46875-2.109375-5.34375-2.890625-1.890625-.796875-3.875-1.421875-5.90625-1.828125-2.0625-.421875-4.203125-.640625-6.328125-.640625s-4.265625.21875-6.328125.640625c-2.015625.40625-4 1.03125-5.90625 1.828125-1.859375.78125-3.65625 1.765625-5.34375 2.890625-.671875.453125-1.3125.921875-1.9375 1.421875-.625-.5-1.28125-.96875-1.9375-1.421875-1.6875-1.140625-3.46875-2.109375-5.34375-2.890625-1.890625-.796875-3.875-1.421875-5.90625-1.828125-2.0625-.421875-4.203125-.640625-6.328125-.640625s-4.265625.21875-6.328125.640625c-2.015625.40625-4 1.03125-5.90625 1.828125-1.859375.78125-3.65625 1.765625-5.34375 2.890625-1.671875 1.125-3.234375 2.421875-4.65625 3.84375-1.359375 1.4375-2.65625 3-3.78125 4.65625-1.140625 1.6875-2.109375 3.484375-2.890625 5.34375-.796875 1.890625-1.421875 3.875-1.828125 5.90625-.421875 2.0625-.640625 4.203125-.640625 6.328125s.21875 4.265625.640625 6.328125c.40625 2.015625 1.03125 4 1.828125 5.890625.78125 1.859375 1.765625 3.65625 2.890625 5.34375 1.125 1.65625 2.421875 3.234375 3.84375 4.65625s2.984375 2.71875 4.65625 3.84375c1.6875 1.140625 3.46875 2.109375 5.34375 2.890625 1.890625.796875 3.875 1.421875 5.90625 1.828125 2.0625.421875 4.203125.640625 6.328125.640625s4.265625-.21875 6.328125-.640625c2.015625-.40625 4-1.03125 5.90625-1.828125 1.859375-.78125 3.65625-1.765625 5.34375-2.890625.65625-.453125 1.3125-.921875 1.9375-1.421875.625.5 1.28125.96875 1.9375 1.421875 1.6875 1.140625 3.46875 2.109375 5.34375 2.890625 1.890625.796875 3.875 1.421875 5.890625 1.828125 2.0625.421875 4.203125.640625 6.328125.640625s4.265625-.21875 6.328125-.640625c2.015625-.40625 4-1.03125 5.90625-1.828125 1.859375-.78125 3.65625-1.765625 5.34375-2.890625.671875-.453125 1.328125-.9375 1.96875-1.4375.640625.5 1.296875.984375 1.96875 1.4375 1.6875 1.140625 3.46875 2.109375 5.34375 2.890625 1.890625.796875 3.875 1.421875 5.90625 1.828125 2.0625.421875 4.203125.640625 6.328125.640625s4.265625-.21875 6.328125-.640625c2.015625-.40625 4-1.03125 5.90625-1.828125 1.859375-.78125 3.65625-1.765625 5.34375-2.890625.640625-.421875 1.25-.890625 1.859375-1.359375.609375.46875 1.21875.921875 1.859375 1.359375 1.6875 1.140625 3.46875 2.109375 5.34375 2.890625 1.890625.796875 3.875 1.421875 5.890625 1.828125 2.0625.421875 4.203125.640625 6.328125.640625s4.265625-.21875 6.328125-.640625c2.015625-.40625 4-1.03125 5.90625-1.828125 1.859375-.78125 3.65625-1.765625 5.34375-2.890625 1.671875-1.125 3.234375-2.421875 4.65625-3.84375s2.71875-2.984375 3.84375-4.65625c1.140625-1.6875 2.109375-3.46875 2.890625-5.34375.796875-1.890625 1.421875-3.875 1.828125-5.90625.421875-2.078125.640625-4.203125.640625-6.328125-.046875-2.109375-.265625-4.25-.6875-6.3125zm-161.4375-13.984375c1.3125-.890625 2.71875-1.640625 4.171875-2.25 1.484375-.625 3.03125-1.109375 4.59375-1.421875 1.609375-.328125 3.28125-.5 4.9375-.5s3.328125.171875 4.9375.5c1.578125.328125 3.125.796875 4.59375 1.421875 1.453125.609375 2.859375 1.375 4.15625 2.265625.28125.1875.5625.390625.84375.59375-.5625.6875-1.09375 1.40625-1.578125 2.140625-1.140625 1.6875-2.109375 3.46875-2.890625 5.34375-.796875 1.890625-1.421875 3.875-1.828125 5.90625-.421875 2.0625-.640625 4.203125-.640625 6.328125s.21875 4.265625.640625 6.328125c.40625 2.015625 1.03125 4 1.828125 5.890625.78125 1.859375 1.765625 3.65625 2.890625 5.34375.5.734375 1.03125 1.453125 1.59375 2.140625-.28125.203125-.5625.40625-.859375.609375-1.3125.890625-2.703125 1.640625-4.15625 2.265625-1.484375.625-3.03125 1.109375-4.59375 1.421875-1.609375.328125-3.28125.5-4.9375.5s-3.328125-.171875-4.9375-.5c-1.578125-.328125-3.125-.796875-4.59375-1.421875-1.453125-.609375-2.84375-1.375-4.15625-2.265625-1.296875-.875-2.515625-1.890625-3.625-2.984375-1.109375-1.109375-2.109375-2.328125-2.984375-3.625-.890625-1.3125-1.640625-2.703125-2.265625-4.15625-.625-1.484375-1.109375-3.03125-1.421875-4.59375-.328125-1.609375-.5-3.28125-.5-4.9375s.171875-3.328125.5-4.9375c.328125-1.578125.796875-3.125 1.421875-4.59375.609375-1.453125 1.375-2.859375 2.265625-4.15625.875-1.296875 1.890625-2.515625 2.984375-3.625 1.09375-1.140625 2.3125-2.15625 3.609375-3.03125zm32.40625 34.015625c-.890625-1.3125-1.640625-2.703125-2.265625-4.15625-.625-1.484375-1.109375-3.03125-1.421875-4.59375-.328125-1.609375-.5-3.28125-.5-4.9375s.171875-3.328125.5-4.9375c.328125-1.578125.796875-3.125 1.421875-4.59375.609375-1.453125 1.375-2.859375 2.265625-4.15625.25-.375.53125-.75.8125-1.125.28125.375.546875.75.8125 1.125.890625 1.3125 1.640625 2.703125 2.265625 4.15625.625 1.484375 1.109375 3.03125 1.421875 4.59375.328125 1.609375.5 3.28125.5 4.9375s-.171875 3.328125-.5 4.9375c-.328125 1.578125-.796875 3.125-1.421875 4.59375-.609375 1.453125-1.375 2.859375-2.265625 4.15625-.25.375-.53125.75-.8125 1.125-.28125-.359375-.5625-.734375-.8125-1.125zm7.359375 3.875c1.140625-1.6875 2.109375-3.46875 2.890625-5.34375.796875-1.890625 1.421875-3.875 1.828125-5.90625.421875-2.078125.640625-4.203125.640625-6.328125s-.21875-4.265625-.640625-6.328125c-.40625-2.015625-1.03125-4-1.828125-5.90625-.78125-1.859375-1.765625-3.65625-2.890625-5.34375-.5-.734375-1.03125-1.453125-1.59375-2.140625.28125-.203125.5625-.40625.84375-.59375 1.3125-.890625 2.703125-1.640625 4.15625-2.265625 1.484375-.625 3.03125-1.109375 4.59375-1.421875 1.609375-.328125 3.28125-.5 4.9375-.5s3.328125.171875 4.9375.5c1.578125.328125 3.125.796875 4.59375 1.421875 1.453125.609375 2.859375 1.375 4.15625 2.265625.296875.203125.59375.40625.875.625-.546875.6875-1.078125 1.390625-1.5625 2.109375-1.140625 1.6875-2.109375 3.46875-2.890625 5.34375-.796875 1.890625-1.421875 3.875-1.828125 5.90625-.421875 2.0625-.640625 4.203125-.640625 6.328125s.21875 4.265625.640625 6.328125c.40625 2.015625 1.03125 4 1.828125 5.890625.78125 1.859375 1.765625 3.65625 2.890625 5.34375.5.734375 1.015625 1.4375 1.578125 2.125-.296875.21875-.578125.421875-.890625.625-1.3125.890625-2.703125 1.640625-4.15625 2.265625-1.484375.625-3.03125 1.109375-4.59375 1.421875-1.609375.328125-3.28125.5-4.9375.5s-3.328125-.171875-4.9375-.5c-1.578125-.328125-3.125-.796875-4.59375-1.421875-1.453125-.609375-2.84375-1.375-4.15625-2.265625-.28125-.1875-.578125-.390625-.84375-.609375.5625-.671875 1.09375-1.390625 1.59375-2.125zm31.703125-3.875c-.890625-1.3125-1.640625-2.703125-2.265625-4.15625-.625-1.484375-1.109375-3.03125-1.421875-4.59375-.328125-1.609375-.5-3.28125-.5-4.9375s.171875-3.328125.5-4.9375c.328125-1.578125.796875-3.125 1.421875-4.59375.609375-1.453125 1.375-2.859375 2.265625-4.15625.25-.375.515625-.734375.78125-1.09375.265625.359375.53125.71875.78125 1.09375.890625 1.3125 1.640625 2.703125 2.265625 4.15625.625 1.484375 1.109375 3.03125 1.421875 4.59375.328125 1.609375.5 3.28125.5 4.9375s-.171875 3.328125-.5 4.9375c-.328125 1.578125-.796875 3.125-1.421875 4.59375-.609375 1.453125-1.375 2.859375-2.265625 4.15625-.25.375-.515625.734375-.78125 1.09375-.265625-.359375-.53125-.71875-.78125-1.09375zm7.3125 3.875c1.140625-1.6875 2.109375-3.46875 2.890625-5.34375.796875-1.890625 1.421875-3.875 1.828125-5.90625.421875-2.078125.640625-4.203125.640625-6.328125s-.21875-4.265625-.640625-6.328125c-.40625-2.015625-1.03125-4-1.828125-5.90625-.78125-1.859375-1.765625-3.65625-2.890625-5.34375-.484375-.734375-1.015625-1.4375-1.5625-2.125.28125-.21875.578125-.421875.875-.625 1.3125-.890625 2.703125-1.640625 4.15625-2.265625 1.484375-.625 3.03125-1.109375 4.59375-1.421875 1.609375-.328125 3.28125-.5 4.9375-.5s3.328125.171875 4.9375.5c1.578125.328125 3.125.796875 4.59375 1.421875 1.453125.609375 2.859375 1.375 4.15625 2.265625.25.171875.5.34375.734375.515625-.578125.71875-1.125 1.453125-1.640625 2.21875-1.140625 1.6875-2.109375 3.46875-2.890625 5.34375-.796875 1.890625-1.421875 3.875-1.828125 5.90625-.421875 2.0625-.640625 4.203125-.640625 6.328125s.21875 4.265625.640625 6.328125c.40625 2.015625 1.03125 4 1.828125 5.890625.78125 1.859375 1.765625 3.65625 2.890625 5.34375.515625.765625 1.0625 1.5 1.65625 2.21875-.25.1875-.5.359375-.75.53125-1.3125.890625-2.703125 1.640625-4.15625 2.265625-1.484375.625-3.03125 1.109375-4.59375 1.421875-1.609375.328125-3.28125.5-4.9375.5s-3.328125-.171875-4.9375-.5c-1.578125-.328125-3.125-.796875-4.59375-1.421875-1.453125-.609375-2.84375-1.375-4.15625-2.265625-.296875-.203125-.59375-.40625-.875-.625.546875-.65625 1.0625-1.375 1.5625-2.09375zm31.546875-3.875c-.890625-1.3125-1.640625-2.703125-2.265625-4.15625-.625-1.484375-1.109375-3.03125-1.421875-4.59375-.328125-1.609375-.5-3.28125-.5-4.9375s.171875-3.328125.5-4.9375c.328125-1.578125.796875-3.125 1.421875-4.59375.609375-1.453125 1.375-2.859375 2.265625-4.15625.28125-.421875.578125-.828125.890625-1.234375.3125.40625.609375.8125.890625 1.234375.890625 1.3125 1.640625 2.703125 2.265625 4.15625.625 1.484375 1.109375 3.03125 1.421875 4.59375.328125 1.609375.5 3.28125.5 4.9375s-.171875 3.328125-.5 4.9375c-.328125 1.578125-.796875 3.125-1.421875 4.59375-.609375 1.453125-1.375 2.859375-2.265625 4.15625-.28125.421875-.578125.828125-.890625 1.234375-.3125-.40625-.609375-.8125-.890625-1.234375zm7.515625 3.875c1.140625-1.6875 2.109375-3.46875 2.890625-5.34375.796875-1.890625 1.421875-3.875 1.828125-5.90625.421875-2.078125.640625-4.203125.640625-6.328125s-.21875-4.265625-.640625-6.328125c-.40625-2.015625-1.03125-4-1.828125-5.90625-.78125-1.859375-1.765625-3.65625-2.890625-5.34375-.515625-.765625-1.0625-1.5-1.640625-2.21875.25-.171875.5-.359375.75-.53125 1.3125-.890625 2.703125-1.640625 4.15625-2.265625 1.484375-.625 3.03125-1.109375 4.59375-1.421875 1.609375-.328125 3.28125-.5 4.9375-.5s3.328125.171875 4.9375.5c1.578125.328125 3.125.796875 4.59375 1.421875 1.453125.609375 2.859375 1.375 4.15625 2.265625 1.296875.875 2.515625 1.890625 3.625 3s2.109375 2.328125 2.984375 3.625c.890625 1.3125 1.640625 2.703125 2.265625 4.15625.625 1.484375 1.109375 3.03125 1.421875 4.59375.328125 1.609375.5 3.28125.5 4.9375s-.171875 3.328125-.5 4.9375c-.328125 1.578125-.796875 3.125-1.421875 4.59375-.609375 1.453125-1.375 2.859375-2.265625 4.15625-.875 1.296875-1.890625 2.515625-2.984375 3.625s-2.328125 2.109375-3.625 2.984375c-1.3125.890625-2.703125 1.640625-4.15625 2.265625-1.484375.625-3.03125 1.109375-4.59375 1.421875-1.609375.328125-3.28125.5-4.9375.5s-3.328125-.171875-4.9375-.5c-1.578125-.328125-3.125-.796875-4.59375-1.421875-1.453125-.609375-2.84375-1.375-4.15625-2.265625-.25-.171875-.5-.34375-.75-.53125.578125-.671875 1.125-1.40625 1.640625-2.171875z" fill="#333" transform="translate(0 14)"/></svg>