<svg height="90" viewBox="0 0 180 90" width="180" xmlns="http://www.w3.org/2000/svg"><path d="m12.7857427 33.110506c2.5924038 0 4.7910249.68912 6.5630478 2.0673601 1.7720229 1.37824 2.8221105 3.2487086 3.1502629 5.5785906h-2.5924039c-.3281524-1.7063924-1.1813486-3.019002-2.4939581-3.9378287-1.2797944-.8860114-2.8221106-1.3126095-4.659764-1.3126095-2.7236648 0-4.8238401.9516419-6.30052586 2.8549258-1.37824003 1.7720229-2.06736005 4.1019048-2.06736005 7.0224611s.65630478 5.2504382 2.03454481 6.9568307c1.44387052 1.8048381 3.51123058 2.7236648 6.2677106 2.7236648 1.8704687 0 3.4456001-.4922286 4.7582097-1.4766858 1.37824-1.0500876 2.329882-2.5924038 2.7892953-4.6269487h2.5924039c-.5250438 2.7236649-1.7392077 4.8566554-3.6753068 6.3661564-1.8048381 1.4110553-3.9706439 2.1329905-6.4646021 2.1329905-3.64249148 0-6.43178679-1.2141638-8.36788589-3.6096762-1.77202291-2.1658058-2.62521912-4.9879164-2.62521912-8.4663317s.88601145-6.3333411 2.6908496-8.5647774c1.96891434-2.4939581 4.79102489-3.708122 8.40070121-3.708122zm21.0345682 6.4646021c2.5267734 0 4.5613182.8531962 6.0708192 2.6252191 1.4438705 1.6735772 2.1658057 3.7737525 2.1658057 6.3333411 0 2.5267734-.7219352 4.6269487-2.1329905 6.2677107-1.5423162 1.7720229-3.576861 2.6580343-6.1036344 2.6580343-2.5595887 0-4.5613183-.8860114-6.0708193-2.6580343-1.4438705-1.640762-2.1658057-3.7409373-2.1658057-6.2677107 0-2.5595886.7219352-4.6597639 2.1658057-6.3333411 1.509501-1.7720229 3.5112306-2.6252191 6.0708193-2.6252191zm0 2.198621c-1.8048382 0-3.2158935.68912-4.2003506 2.0673601-.9188267 1.246979-1.3454248 2.7892953-1.3454248 4.6925791 0 1.8704687.4265981 3.4127849 1.3454248 4.659764.9844571 1.37824 2.3955124 2.06736 4.2003506 2.06736 1.7720229 0 3.1830781-.68912 4.2331658-2.06736.8860114-1.2469791 1.3454248-2.8221106 1.3454248-4.659764 0-1.9032838-.4594134-3.4456001-1.3454248-4.6925791-1.0500877-1.3782401-2.4611429-2.0673601-4.2331658-2.0673601zm12.1744536-8.6632231h2.5924039v23.889494h-2.5924039zm14.7668576 6.4646021c2.5267734 0 4.5613182.8531962 6.0708192 2.6252191 1.4438705 1.6735772 2.1658057 3.7737525 2.1658057 6.3333411 0 2.5267734-.7219352 4.6269487-2.1329905 6.2677107-1.5423162 1.7720229-3.576861 2.6580343-6.1036344 2.6580343-2.5595887 0-4.5613183-.8860114-6.0708192-2.6580343-1.4438706-1.640762-2.1658058-3.7409373-2.1658058-6.2677107 0-2.5595886.7219352-4.6597639 2.1658058-6.3333411 1.5095009-1.7720229 3.5112305-2.6252191 6.0708192-2.6252191zm0 2.198621c-1.8048382 0-3.2158935.68912-4.2003506 2.0673601-.9188267 1.246979-1.3454248 2.7892953-1.3454248 4.6925791 0 1.8704687.4265981 3.4127849 1.3454248 4.659764.9844571 1.37824 2.3955124 2.06736 4.2003506 2.06736 1.7720229 0 3.1830781-.68912 4.2331658-2.06736.8860114-1.2469791 1.3454248-2.8221106 1.3454248-4.659764 0-1.9032838-.4594134-3.4456001-1.3454248-4.6925791-1.0500877-1.3782401-2.4611429-2.0673601-4.2331658-2.0673601zm19.0984691-2.198621c.9188266 0 1.7063924.131261 2.3298819.3937829v2.6252191c-.8531962-.2625219-1.7063924-.3609676-2.5267734-.3609676-1.3126095 0-2.4283277.557859-3.3143391 1.7392076-.9188267 1.1157181-1.3454248 2.4611429-1.3454248 4.0362744v8.9913755h-2.5924039v-16.9654786h2.5924039v2.9533716c.4594133-.9844572 1.0500876-1.772023 1.7720229-2.329882.8860114-.7219353 1.9032838-1.0829029 3.0846325-1.0829029zm25.8912238-6.4646021c2.592404 0 4.791025.68912 6.563048 2.0673601 1.772022 1.37824 2.82211 3.2487086 3.150262 5.5785906h-2.592403c-.328153-1.7063924-1.181349-3.019002-2.493959-3.9378287-1.279794-.8860114-2.82211-1.3126095-4.659764-1.3126095-2.723664 0-4.82384.9516419-6.3005254 2.8549258-1.37824 1.7720229-2.0673601 4.1019048-2.0673601 7.0224611s.6563048 5.2504382 2.0345448 6.9568307c1.4438707 1.8048381 3.5112307 2.7236648 6.2677107 2.7236648 1.870469 0 3.4456-.4922286 4.75821-1.4766858 1.37824-1.0500876 2.329882-2.5924038 2.789295-4.6269487h2.592404c-.525044 2.7236649-1.739208 4.8566554-3.675307 6.3661564-1.804838 1.4110553-3.970644 2.1329905-6.464602 2.1329905-3.642492 0-6.4317868-1.2141638-8.3678859-3.6096762-1.772023-2.1658058-2.6252192-4.9879164-2.6252192-8.4663317s.8860115-6.3333411 2.6908496-8.5647774c1.9689144-2.4939581 4.7910245-3.708122 8.4007015-3.708122zm13.979292 0h2.592403v23.889494h-2.592403zm14.569966 6.4646021c2.428327 0 4.20035.6234895 5.381699 1.9032839.984457 1.1157181 1.509501 2.6580343 1.509501 4.6269487v10.8946593h-2.461143v-2.8549258c-.656305.9188267-1.542316 1.6735772-2.592404 2.2642515-1.246979.68912-2.658034 1.0500876-4.233166 1.0500876-1.706392 0-3.051817-.4265981-4.069089-1.2797943-1.050088-.8860114-1.575132-2.0345448-1.575132-3.4127848 0-1.9360991.754751-3.3799696 2.329882-4.3644268 1.37824-.9188267 3.347154-1.4110553 5.906743-1.4438705l4.06909-.0656305v-.8860115c0-2.8549258-1.476686-4.265981-4.430058-4.265981-1.246979 0-2.264251.2297066-3.051817.7547505-.886011.5250438-1.44387 1.3454248-1.706392 2.4283277l-2.592404-.1968915c.360968-1.7720229 1.246979-3.1174477 2.625219-3.9706439 1.246979-.7875657 2.854926-1.1813486 4.889471-1.1813486zm4.265981 9.2867126-3.905014.0656305c-3.806567.0656305-5.709851 1.3126096-5.709851 3.7737525 0 .7875657.295337 1.4110553.951642 1.9360991.656304.4922286 1.509501.7547505 2.559588.7547505 1.607947 0 3.019002-.5250438 4.265981-1.5751315 1.214164-1.0172724 1.837654-2.198621 1.837654-3.5112306zm8.860114-15.2262709c.557859 0 1.017273.1640762 1.411056.5578591.393782.3281524.590674.7875657.590674 1.37824 0 .5578591-.196892 1.0172725-.590674 1.4110553-.393783.3609676-.853197.5578591-1.411056.5578591s-1.017272-.1968915-1.411055-.5578591c-.393783-.3937828-.557859-.8531962-.557859-1.4110553 0-.5906743.164076-1.0500876.557859-1.37824.393783-.3937829.853196-.5578591 1.411055-.5578591zm-1.312609 6.3989716h2.625219v16.9654786h-2.625219zm14.963749-.4594133c2.592404 0 4.364426 1.0500876 5.316068 3.2158934.656305-1.1157181 1.443871-1.9360991 2.362698-2.4283277.820381-.5250438 1.804838-.7875657 2.986186-.7875657 1.772023 0 3.183078.5578591 4.298797 1.6735772 1.050087 1.1485334 1.607946 2.6908496 1.607946 4.6269487v11.124366h-2.625219v-10.6977679c0-1.509501-.328152-2.6252191-.951642-3.3471544-.656304-.7875657-1.706392-1.1485334-3.150263-1.1485334-1.115718 0-2.06736.3937829-2.789295 1.2469791-.787566.8531962-1.148533 1.9360991-1.148533 3.3143392v10.6321374h-2.625219v-10.6977679c0-3.019002-1.31261-4.4956878-3.905014-4.4956878-1.214164 0-2.198621.4594134-2.986187 1.4438706-.787565.9188267-1.181348 2.06736-1.181348 3.4127848v10.3368003h-2.625219v-16.9654786h2.625219v2.2642515c1.279794-1.8376533 2.887741-2.7236648 4.791025-2.7236648z" fill="#272e2e" fill-rule="evenodd"/></svg>