<svg height="90" viewBox="0 0 180 90" width="180" xmlns="http://www.w3.org/2000/svg"><path d="m90.4821429 31.3392857c0 .6428572 0 .8035714.4821428 1.125l2.4107143 2.25v.1607143h-10.4464286v-4.3392857c-1.125 2.8928571-3.8571428 4.8214286-6.9107143 4.8214286-5.3035714 0-9.3214285-4.1785715-9.3214285-12.0535715 0-7.2321428 4.1785714-12.2142857 10.125-12.2142857 2.5714285-.1607143 4.9821428 1.2857143 6.1071428 3.8571429v-9.80357146c0-.48214285-.1607143-.96428571-.4821428-1.125l-2.25-2.25v-.16071428l10.4464285-1.28571429v31.01785713zm-7.7142858-1.2857143v-14.7857143c-.8035714-.9642857-1.9285714-1.4464285-3.0535714-1.4464285-2.5714286 0-4.9821428 2.25-4.9821428 9.1607143 0 6.4285714 2.0892857 8.6785714 4.8214285 8.6785714 1.2857143.1607143 2.5714286-.4821429 3.2142857-1.6071429zm14.625 4.9821429v-19.9285714c0-.4821429-.1607142-.9642858-.4821428-1.125l-2.25-2.4107143v-.1607143h10.4464287v20.0892857c0 .6428571 0 .8035714.482143 1.125l2.25 2.25v.1607143zm-.3214285-30.85714287c0-2.25 1.7678571-4.17857143 4.1785714-4.17857143 2.25 0 4.178571 1.92857143 4.178571 4.17857143s-1.928571 4.33928571-4.178571 4.33928571c-2.4107143 0-4.1785714-1.92857143-4.1785714-4.33928571zm36.1607144 27.16071427c0 .6428572 0 .8035714.482143 1.125l2.410714 2.25v.1607143h-10.446429v-5.1428571c-.964285 3.2142857-3.857142 5.4642857-7.232142 5.4642857-4.660715 0-7.071429-3.375-7.071429-9.9642857 0-3.0535715 0-6.5892858.160714-10.4464286 0-.4821429-.160714-.8035714-.482143-1.125l-2.25-2.4107143v.1607143h10.125v12.8571428c0 4.1785715.642858 7.0714286 3.214286 7.0714286 1.446429-.1607143 2.732143-.9642857 3.375-2.0892857v-13.9821429c0-.4821428-.160714-.9642857-.482143-1.125l-2.25-2.4107142v-.3214286h10.446429zm35.357143 3.6964286c0-.8035714.160714-10.4464286.160714-12.6964286 0-4.1785714-.642857-7.2321428-3.535714-7.2321428-1.446429 0-2.892857.8035714-3.696429 2.0892857.321429 1.2857143.482143 2.7321428.482143 4.0178571 0 2.8928572-.160714 6.75-.160714 10.4464286 0 .4821428.160714.8035714.482143 1.125l2.410714 2.25v.1607143h-10.446429c0-.6428572.160715-10.4464286.160715-12.6964286 0-4.3392857-.642858-7.2321429-3.535715-7.2321429-1.446428 0-2.732143.8035715-3.535714 2.0892858v14.4642857c0 .6428571 0 .8035714.482143 1.125l2.25 2.25v.1607143h-10.446429v-20.0892858c0-.4821428-.160714-.9642857-.482143-1.125l-2.25-2.4107142v-.3214286h10.446429v4.9821428c.964286-3.375 4.017857-5.625 7.392857-5.4642857 3.535714 0 5.785714 1.9285715 6.75 5.625 1.125-3.375 4.339286-5.7857143 7.875-5.625 4.660714 0 7.232143 3.5357143 7.232143 9.9642857 0 3.0535715-.160714 6.75-.160714 10.4464286-.160715.4821429.160714.9642857.482143 1.125l2.25 2.25v.1607143h-10.607143zm-130.8214289-3.2142857 3.0535715 3.0535714v.1607143h-15.75v-.1607143l3.2142857-3.0535714c.3214286-.3214286.4821428-.6428572.4821428-1.125v-18.9642857c0-.8035715 0-1.92857147.1607143-2.89285719l-10.6071428 26.51785719h-.1607143l-10.92857144-24.4285715c-.16071429-.6428571-.32142857-.6428571-.48214286-.96428569v16.07142859c-.16071429 1.125 0 2.0892857.48214286 3.0535714l4.33928574 5.7857143v.1607143h-11.5714286v-.1607143l4.33928571-5.9464286c.48214286-.9642857.64285715-2.0892857.48214286-3.0535714v-17.67857143c0-.80357143-.16071428-1.76785714-.80357143-2.41071428l-2.89285714-4.01785715v-.16071428h11.25l9.3214286 20.73214284 8.1964285-20.73214284h10.9285715v.16071428l-3.0535715 3.53571429c-.3214285.32142857-.4821428.80357143-.4821428 1.125v24.42857147c0 .3214285.1607143.8035714.4821428.9642857zm12.2142858-9.4821429c0 6.1071429 3.0535714 8.5178572 6.75 8.5178572 3.0535714.1607142 5.7857142-1.6071429 7.0714285-4.3392858h.1607143c-1.2857143 5.9464286-4.9821428 8.8392858-10.4464286 8.8392858-5.9464285 0-11.5714285-3.5357143-11.5714285-11.8928572 0-8.8392857 5.625-12.2142857 11.7321428-12.2142857 4.9821429 0 10.2857143 2.4107143 10.2857143 9.9642857v1.2857143h-13.9821428zm0-1.2857143h6.9107142v-1.2857143c0-6.2678571-1.2857142-7.875-3.2142857-7.875-2.25.1607143-3.6964285 2.5714286-3.6964285 9.1607143z" transform="translate(0 27)"/></svg>