<svg height="90" viewBox="0 0 180 90" width="180" xmlns="http://www.w3.org/2000/svg"><g fill="none"><path d="m27.4082073 0c-15.1433261 0-27.4082073 12.2648812-27.4082073 27.4082073 0 12.8806912 8.83827214 23.5710584 20.7625918 26.5847949-.1376242-.3428942-.20527-.8234126-.20527-1.3015983v-4.6605616h-3.4266091c-1.8497624 0-3.5642332-.8210799-4.3176673-2.3302807-.8910584-1.6444925-1.0286825-4.1800432-3.28898492-5.7568899-.68578834-.5481641-.13762419-1.0963283.61580992-1.0286825 1.4392225.41054 2.6031966 1.3715767 3.6995248 2.8084665 1.0963283 1.4392225 1.5768467 1.7821167 3.6318791 1.7821167.9587041 0 2.4655724-.0676458 3.837149-.2752484.7534342-1.9197408 2.0550324-3.6318791 3.6318791-4.452959-9.1811663-1.0963283-13.5664795-5.6192656-13.5664795-11.7866955 0-2.6731749 1.1639741-5.2087257 3.0837149-7.4013822-.6158099-2.1250108-1.4392225-6.510324.2752484-8.2224622 4.1123974 0 6.5779697 2.6731749 7.1937797 3.3566306 2.0550324-.6857883 4.3176674-1.0963283 6.6456155-1.0963283 2.3979266 0 4.5905832.41054 6.6456156 1.0963283.6158099-.6857883 3.0837149-3.3566306 7.1937797-3.3566306 1.6444924 1.6444924.8910583 6.0974514.20527 8.2224622 1.9197408 2.1250108 3.0160691 4.7282073 3.0160691 7.4013822 0 6.1674299-4.3176674 10.6903672-13.4288553 11.6490713 2.5355507 1.3015983 4.3176674 5.0011231 4.3176674 7.7419439v6.2420734c0 .20527-.0676458.41054-.0676458.6158099 10.6880345-3.6995248 18.3623326-13.8393952 18.3623326-25.8313607 0-15.1433261-12.2648812-27.4082073-27.4082074-27.4082073z" fill="#000" transform="translate(0 18)"/><path d="m20.9221992 12.4692946h-9.0424233c-.2333383.0001236-.4224656.1892509-.4225892.4225892v4.421054c.000123.2334475.1891422.4227673.4225892.4232614h3.5274772v5.4925394s-.7920747.2702241-2.9818755.2702241c-2.58348548 0-6.19252283-.9442158-6.19252283-8.8801992 0-7.93755188 3.7580415-8.98214939 7.28619083-8.98214939 3.0540249 0 4.3697428.5379834 5.2068548.79678008.263054.0806639.5063901-.18104564.5063901-.41474689l1.0087468-4.27137759c0-.10912033-.0369709-.24087137-.1615518-.33027386-.3399087-.24243983-2.4140913-1.40310373-7.6541079-1.40310373-6.03657262 0-12.22864731 2.56847303-12.22864731 14.91430708 0 12.3467303 7.08946058 14.1863153 13.06351871 14.1863153 4.9464896 0 7.9471867-2.1138423 7.9471867-2.1138423.1236846-.0685643.1371286-.2413195.1371286-.320639v-13.7883734c0-.2330291-.189112-.4223652-.4223651-.4223652zm46.6011037-10.97611618c.0009546-.11206959-.0427894-.21989961-.1215523-.29962978-.078763-.07973016-.1860511-.12478686-.298124-.12520009h-5.0916847c-.1122561.00041521-.2197495.04540739-.2988325.12507862-.0790829.07967122-.1232772.18749511-.1228604.29975125l.0013444 9.83942738h-7.9362075v-9.83942738c.0008348-.11211112-.0430094-.21993965-.1218435-.29965662-.078834-.07971698-.1861675-.12475936-.298281-.12517325h-5.0912365c-.2334268.00123437-.4216892.19140252-.4205726.42482987v26.64239008c0 .2348215.1888879.4259502.4205726.4259502h5.0912365c.232805 0 .4201245-.1913527.4201245-.4259502v-11.3960166h7.9362075l-.0138922 11.3960166c0 .2348215.1891121.4259502.4219171.4259502h5.1035601c.2332531 0 .4196764-.1913527.4201245-.4259502zm-36.993361 3.49633195c0-1.83353527-1.4698755-3.31506224-3.2832448-3.31506224-1.8115768 0-3.2825726 1.48152697-3.2825726 3.31506224 0 1.83129461 1.4709958 3.31663071 3.2825726 3.31663071 1.8133693 0 3.2832448-1.4853361 3.2832448-3.31663071zm-.3641079 17.52602493v-12.2981079c.0006209-.23344925-.187798-.42337146-.4212448-.42460582h-5.0753278c-.232805 0-.4411867.24019912-.4411867.47390042v17.6192365c0 .5180415.3226556.671751.7403153.671751h4.5727469c.5016847 0 .6246971-.246473.6246971-.6798174zm56.7069461-12.68260584h-5.052473c-.2316847 0-.4203486.19090454-.4203486.42595024v13.0635186s-1.2836763.9392863-3.1053361.9392863c-1.8216597 0-2.3049709-.8265809-2.3049709-2.6103734v-11.3924315c0-.2350457-.1884399-.42595024-.4201245-.42595024h-5.1279834c-.2312365 0-.4210208.19090454-.4210208.42595024v12.254863c0 5.2982739 2.952971 6.594498 7.0155187 6.594498 3.3325394 0 6.0193195-1.8409295 6.0193195-1.8409295s.1279419.9699834.185751 1.0851535c.0580332.114722.2088299.2305643.3717262.2305643l3.2624066-.0143402c.2312365 0 .4210208-.1913527.4210208-.425278l-.0017926-17.8843071c0-.2352697-.1888879-.42617424-.4216929-.42617424zm11.8161411 14.41262244c-1.7524233-.0533278-2.9410955-.8487635-2.9410955-.8487635v-8.4367718s1.1725394-.718805 2.6112697-.8474191c1.8194196-.1628963 3.5725146.3867386 3.5725146 4.7266805.000224 4.5767801-.790954 5.4799917-3.2426888 5.4062739zm1.9928468-15.0108797c-2.8696186 0-4.8214609 1.2803154-4.8214609 1.2803154v-9.02158511c0-.23526971-.1879917-.42505394-.4201245-.42505394h-5.1058009c-.1121764.00053344-.219543.04562303-.2984644.1253429-.0789214.07971986-.122928.18753488-.1223322.29971104v26.64216601c0 .2348215.1886639.4259502.4214688.4259502h3.5427137c.1593112 0 .280083-.0822324.3692614-.226083.0880581-.1431784.2151038-1.228332.2151038-1.228332s2.0878506 1.9785063 6.0401572 1.9785063c4.639967 0 7.30098-2.3535934 7.30098-10.5656266 0-8.2122573-4.249868-9.2853112-7.121502-9.2853112zm-55.8828302.55590871h-3.8192117l-.0058257-5.04575103c0-.19090457-.0983651-.28635685-.3190705-.28635685h-5.2046141c-.202332 0-.3110042.08917842-.3110042.28344398v5.21424897s-2.6081328.62940252-2.784473.68048962c-.180693.0523688-.3050087.2178795-.3049544.4060083v3.2765228c0 .2357179.1882158.425278.4210208.425278h2.6684066v7.8822075c0 5.8548548 4.1066888 6.4300332 6.8779419 6.4300332 1.2661992 0 2.780888-.4064564 3.0309461-.4992199.1512448-.0555685.2390788-.2121909.2390788-.3820332l.0042573-3.604332c0-.2352697-.1985228-.4250539-.4221411-.4250539-.2224979 0-.7918506.0905228-1.3780083.0905228-1.8758838 0-2.5115602-.8722904-2.5115602-2.001361l-.000224-7.4909875h3.8194357c.2328049 0 .4212448-.1897843.4212448-.425278v-4.1042241c.000536-.1121526-.0435797-.21990856-.1226108-.29948612-.079031-.07957755-.1864804-.12443473-.298634-.12467157z" fill="#121110" transform="translate(72 30.6)"/></g></svg>