<svg height="90" viewBox="0 0 180 90" width="180" xmlns="http://www.w3.org/2000/svg"><path d="m19.0583787 62.2585607c-2.0419794 2.4012165-5.0387282 3.6018067-8.9903364 3.6018067-3.27094841 0-5.76193678-.9500734-7.47303985-2.8502486s-2.57609523-4.7125814-2.59500245-8.437303v-19.9659205h5.24672627v19.824117c0 4.6511752 1.89069326 6.9767279 5.67213653 6.9767279 4.0083298 0 6.6742073-1.4936476 7.9977124-4.4809878v-22.3198571h5.2467263v30.6862585h-4.9914801zm15.8861838-27.6516654.170164 3.8570528c2.3444949-2.9495257 5.4074179-4.4242665 9.1888612-4.4242665 6.4851751 0 9.7560745 3.6584915 9.8127961 10.9755842v20.277888h-5.2467262v-20.3062487c-.0189072-2.2121443-.5246677-3.847594-1.5172965-4.9063981-.9926289-1.0588041-2.5382706-1.5881982-4.6369716-1.5881982-1.7016495 0-3.1952972.4537664-4.4809879 1.3613127-1.2856907.9075464-2.2877581 2.0986832-3.0062323 3.573446v21.8660863h-5.2467263v-30.6862585zm25.7557013 30.6862585v-41.2931538h11.6562405c3.5923711 0 6.7687357.7940912 9.5291893 2.3822973 2.7604536 1.5882062 4.8922102 3.8475846 6.3953339 6.7782032 1.5031237 2.9306185 2.2641277 6.2960525 2.283035 10.0964029v2.6375435c0 3.8948865-.7515506 7.3075879-2.2546743 10.2382064s-3.6490605 5.1805435-6.4378749 6.7498424c-2.7888144 1.569299-6.0360801 2.3728436-9.7418945 2.4106581zm5.445251-36.812166v32.3595388h5.7288579c4.197402 0 7.4635746-1.3045784 9.7986158-3.9137742s3.5025443-6.3244081 3.5025443-11.1457482v-2.410658c0-4.6889897-1.1013288-8.3333009-3.3040195-10.9330431-2.2026907-2.5997423-5.3270613-3.9185008-9.3732056-3.9563153zm44.5021122 10.8337808c-.794103-.1323506-1.654368-.1985248-2.580822-.1985248-3.441113 0-5.776119 1.4652873-7.005088 4.3959058v21.7810042h-5.2467267v-30.6862585h5.1049227l.085082 3.5450853c1.720557-2.7415464 4.159551-4.112299 7.317056-4.112299 1.02099 0 1.796174.1323485 2.325576.3970496zm21.615042 25.9783852c-.302516-.605031-.548306-1.6827261-.737378-3.2331179-2.439031 2.533567-5.350698 3.8003315-8.73509 3.8003315-3.025155 0-5.50669-.8555387-7.444679-2.5666418-1.93799-1.711103-2.90697-3.8806735-2.90697-6.5087766 0-3.1953195 1.21477-5.6768544 3.644348-7.4446792 2.429577-1.7678247 5.847005-2.6517238 10.252386-2.6517238h5.104923v-2.410658c0-1.834-.548301-3.2945605-1.644919-4.3817254-1.096619-1.087165-2.713162-1.6307393-4.849677-1.6307393-1.871815 0-3.44109.4726733-4.707873 1.4180341-1.266784.9453608-1.900166 2.0892303-1.900166 3.4316426h-5.275087c0-1.5314845.543574-3.010952 1.630739-4.4384468s2.561906-2.557184 4.424267-3.3891016c1.86236-.8319175 3.909036-1.24787 6.140087-1.24787 3.53565 0 6.305515.8838991 8.30968 2.6517238s3.044047 4.2020923 3.119675 7.3028758v14.1236199c0 2.8171752.359232 5.0576467 1.077706 6.7214817v.453771zm-8.70673-3.9988563c1.644928 0 3.20475-.425406 4.679513-1.2762307s2.543005-1.9568803 3.204757-3.3181999v-6.2960715h-4.112299c-6.428453 0-9.642632 1.8812398-9.642632 5.6437759 0 1.6449278.548301 2.9305992 1.64492 3.8570528 1.096618.9264536 2.505185 1.3896734 4.225741 1.3896734zm45.298313-3.2331178 5.899022-23.4542844h5.246726l-8.933615 30.6862585h-4.254102l-7.45886-23.2557597-7.260335 23.2557597h-4.254102l-8.905254-30.6862585h5.218365l6.040826 22.9721528 7.146892-22.9721528h4.225741z" fill="#2b3b4d" fill-rule="evenodd"/></svg>