<svg height="90" viewBox="0 0 180 90" width="180" xmlns="http://www.w3.org/2000/svg"><g fill="#333" transform="translate(0 17)"><path d="m165.02159.21970505c.608633-.69496403 1.221583.44028777 1.571223.89784172-1.631654 3.18129497-3.530935 6.23309353-4.877698 9.55251803-.846043 2.0935251-1.942446 4.1956834-1.843165 6.5179856.254676.1510791.764029.4532374 1.018705.6043165 1.847482-1.0532374 2.961151-2.9438849 3.828777-4.8172662 1.204317-2.6676259 2.840288-5.27482011 5.279137-6.96690645 1.964029-1.36402877 5.119424-.85035971 6.22446 1.36402878.548202.8676259-.509352 1.38561151-1.031655 1.87769784-1.096402-.88920863-2.322302-2.49064748-3.906474-1.59280575-2.387051 1.57553957-4.079137 4.17410068-4.864749 6.90215828-.388489.8330935.12518 1.5884892.461871 2.3266187 2.866187-1.152518 4.130935-4.1913669 5.576978-6.6863309.280576-.54388493.889209-.75971227 1.368346-1.09208637.228777.47913669.997122.91942447.630216 1.52805757-.643166 1.713669-1.933813 3.6-1.156835 5.4647482.733813.3366906 1.105036-.552518 1.579856-.9194245 1.178417-1.2129496 1.666187-2.8920863 2.719425-4.1913669.673381-.4834532 1.31223.1122302 1.838849.5093525-1.299281 2.5381295-2.55108 5.6158274-5.382734 6.7553957-1.402878.5697842-2.52518-.5309352-3.323741-1.523741-1.143885.8719425-2.248921 2.1021583-3.794245 2.1194245-1.031655.0906475-1.81295-.6690648-2.62446-1.1697842-1.10072.9798561-2.296403 2.2014388-3.897842 2.076259-1.057554.1338129-1.847482-.6086331-2.594245-1.2172662-1.135251.8978417-2.283453 2.1107914-3.850359 2.0589928-1.08777.1381295-1.899281-.6776978-2.676259-1.2906475-1.230216.9712231-2.520864 2.2877698-4.230216 2.0805756-1.048921.0258993-1.838849-.6906475-2.646043-1.238849-.893526.7597123-1.722303 1.7007195-2.913669 1.9683454-1.398562.2935252-2.766907-.9280576-2.823022-2.305036-.228777-2.0374101.733813-3.9107914 1.372662-5.7798561-.625899-.0172662-1.333813-.4402878-1.907914-.0992806-1.277698 1.933813-1.558273 4.5107914-3.418705 6.0388489-1.044604 1.0230216-2.775539.7381295-3.69928 1.9079137-1.165468 1.3640288-2.870504 2.3482014-4.717986 2.1280576-1.333813.0215827-2.313669-.9971223-3.146763-1.8992806-1.584172 1.8043165-3.539568 3.189928-5.469064 4.571223-1.528058 2.5467626-3.26331 5.3223022-6.233094 6.323741-1.523741.6302158-3.794245.7079137-4.66187-.9755396-.785612-1.9553956.638849-4.0964028 2.503597-4.7309352 2.046043-.7035971 4.217266-1.0618705 6.168345-2.028777.582734-.1942446.789928-.781295 1.057554-1.2733813-1.161151.505036-2.218705 1.4978417-3.565468 1.3856115-.992805-.0258993-1.696403-.7942446-2.51223-1.2517985-1.748201 1.4028777-3.798561 2.7280575-6.151079 2.5122302-1.510791.1467626-2.766906-.7208633-3.833094-1.6705036-1.0532369 1.1913669-2.2402873 2.4258993-3.8848916 2.7107913-1.1223022.2978418-2.0244604-.5827338-2.905036-1.1223021-.9280575.7985611-1.8690647 1.6877698-3.0992806 1.9683453-1.247482.2330935-2.1280575-.8201439-2.8316546-1.666187-1.1223022.8503597-2.1928058 2.0071942-3.6690648 2.1539568-1.2258993.1683453-2.0892086-.8374101-2.9438849-1.5366906-1.9510791 1.8992805-5.03741 3.418705-7.6532374 1.9294964-.9841726-.4964029-1.066187-2.5856116-2.4388489-1.9035972-.5697842 1.4503597-.6647482 3.1208633-1.7223022 4.3467626-1.1438848 1.5453238-3.7165467 2.4086331-5.266187.9841727-1.3942446-1.2604317-1.0920863-3.371223-.3971223-4.9165468.8330935-1.3726618 2.3697842-2.0503597 3.8330935-2.5381295-.418705-.8546762-.8719424-1.7007194-1.4589928-2.4517985-.876259 1.6446043-1.9510791 3.2158273-2.6115108 4.9553956-1.6143885 1.7611511-3.1294964 3.6690648-5.1323741 5.0201439-1.6273381.9841727-2.2230216 2.905036-3.3798561 4.3208633-1.5798561 2.2877698-4.3294964 3.8417267-7.1482014 3.5784173-1.3769785-.0906475-2.6935252-1.4460432-2.2532374-2.8705036.5827338-1.7223021 2.2230215-2.8230216 3.9194244-3.2719424 2.0158274-.5827338 4.0057554-1.2820144 5.8532374-2.2920864.047482-.1769784.1467626-.5395683.1942446-.7208633-1.6791367 1.1352518-4.0920863 1.6618705-5.5985611-.0647482-1.9510792 1.523741-4.3726619 2.9309353-6.9410072 2.3913669-1.1741007-.0820144-2.076259-.8633093-2.9179856-1.6014388-1.0273382 1.2302158-2.2143885 2.4302158-3.8719425 2.6935252-.876259-.3841727-1.9035971-.8374101-2.076259-1.9035972-.7381295-2.1625899.7381295-4.2 1.0920864-6.276259-.5223022-.2417266-1.0791367-.3884892-1.6618705-.4402877-.8892087 1.5366906-1.3424461 3.3496403-2.5510792 4.6834532-.6776978.3021583-1.1007194-.3841726-1.5151079-.7726619 1.0834532-2.3956834 2.1107914-4.8215827 3.2330935-7.2043165.2460432-.6517986.7985612-1.0834532 1.3122303-1.5194245 1.2604316.5266187.923741 1.752518.647482 2.8057554 1.1697841.0820144 2.3179856-.1812949 3.4273381-.5266187.4100719.3410072 1.2215827.8503597.6690647 1.4503597-1.3812949 2.0935252-2.8791366 4.476259-2.6244604 7.0791367.2158273.0561151.6561151.1683454.8719425.2201439 1.4589928-1.4417266 2.6589928-3.2071942 3.2244604-5.1971223.8417266-2.4863309 2.2705036-5.0071942 4.6230216-6.3366906 1.0964028-.505036 2.4733813-.9453238 3.5956834-.2589928.9884892.5395683 1.5194245 1.6834532 1.3985612 2.7884892-.4143885 3.5654676-3.9755396 7.1870503-7.7438849 5.8489208-.7035971 1.4805756 1.0143885 2.5683454 2.3093525 2.4820144 2.6330935-.1683453 4.7741007-2.2359712 5.8446043-4.523741.9323741-2.4388489 1.9856115-4.8431655 3.3582734-7.0705036.4100719-1.018705 2.3352518-.505036 1.8172662.6258993-1.3294964 2.9741007-3.3323741 5.8489209-3.418705 9.2115108.8633093.6906475 1.9769784-.0215827 2.63741-.6561151 2.5856115-2.7021583 3.8071943-6.3107914 5.2920864-9.6604317.2546762-1.1395683 2.1064748-1.0100719 1.9985611.228777-.9755396 3.0733813-2.2273381 6.0906475-2.8402878 9.2633094 2.0892087-1.2992806 3.0215828-3.6949641 4.1741008-5.7539569 1.4417266-2.5683453 2.9007194-5.2618705 5.2100719-7.1568345.3798561.3539568.7553957.7122302 1.1223022 1.0791367-.5482015 1.1093525-1.5237411 2.1625899-1.3553957 3.4920863.1338129 1.8 1.4071942 3.2071943 2.4992805 4.5410072.6129497-.4446043 1.4071943-.8158273 1.5884893-1.6273381.8417266-2.4949641 2.1971223-4.9510792 4.3683453-6.5179856 1.2690647-.8892087 3.3410072-1.381295 4.3553957.1294964 1.0100719 1.7050359-.0086331 3.9453237-1.4978418 5.0201439-.5827338.4143884-1.3985611-.0992806-1.4676259-.7467626.4057554-1.0877698 1.5669065-2.0028777.9496403-3.2460432-2.4388489.8892086-3.8589928 3.3323741-4.5841726 5.6935252-.323741 1.1827338-.505036 3.0086331.9798561 3.4489208 2.6892086.3971223 4.7956834-2.0028777 6-4.1266187 1.476259-2.9093525 3.0604316-6.0431654 5.9913669-7.7395683 2.0244604-1.1697842 4.8561151-.371223 5.9309352 1.7179856.2805756.9539568-.6604316 1.3856115-1.3683453 1.6834532-.8028777-.7640287-1.6014388-1.8517985-2.8316547-1.8086331-2.3741007.7683454-3.7683453 3.0517986-4.9294964 5.1021583-.6258992 1.3553957-1.5021582 3.1726619-.1985611 4.4244604 2.952518-1.3683453 4.1223021-4.5798561 5.7884892-7.1266187.4834532-.8028777 1.4244604-.1942446 1.9553957.2071943-.6561151 1.5928057-1.5453238 3.1251798-1.7266187 4.8690647-.1553957.5611511.1035971 1.4719425.8460431 1.2561151 1.9251799-1.3942446 2.9093526-3.6776978 3.5827338-5.8834532 1.5539569-4.1223022 3.6345324-8.0417266 5.9741003-11.76258992.530936-.83309353 1.510792-.24172662 1.981295.31510791-2.5122298 4.76978421-5.5079132 9.43165471-6.6906471 14.75827341-.2762589.7251798-.0561151 1.8258993.8589929 1.9208633 2.4776978-1.1913669 3.6388492-3.9323741 4.4460432-6.4014389 1.092086-2.5553956 2.88777-5.3223021 5.784173-5.9654676 1.532374-.4230216 3.284892.6258993 3.46187 2.2402878.297842 3.9625899-3.811511 8.1453237-7.856115 6.6258993-.038849.8201438.107914 1.7482014.906475 2.1669064 1.976978.7683454 4.195683-.1035971 5.581295-1.5928057 1.942446-1.7352518 2.404316-4.4374101 3.902158-6.4834533 1.243166-1.7525179 2.741007-3.561151 4.873381-4.2086331 1.907914-.5654676 4.105036.4230216 4.955396 2.2187051.306475.8071942-.552518 1.8992806-1.402878 1.5194244-.93669-.7208633-1.756834-2.0589928-3.138129-1.6920863-1.778417.6906475-2.917986 2.3395684-3.928058 3.8719425-.833093 1.3510791-1.66187 2.8402877-1.553957 4.484892.004317.6992806.919425 1.105036 1.437411.6733813 2.4-1.618705 3.535251-4.4028777 5.054676-6.7467626.565467-.8201438 1.441726-.3669064 1.78705.3884893-.25036 1.9683453-.966906 3.8287769-1.398561 5.7582733 1.955396-.7079136 2.844604-2.8273381 3.673381-4.5755395 1.148202-2.7323741 2.646043-5.7194245 5.52518-6.9496403 1.260432-.6043166 3.211511-1.00143887 3.846043.6345324-.979856 1.3079136-2.827338.7812949-3.997122 1.8043165-1.709353 1.2431655-2.741007 3.2028777-3.267626 5.2143885-.263309 1.1568345-.198561 2.7928057 1.117986 3.2719424 1.217266.3064749 2.266187-.4834532 3.11223-1.2388489-.802878-.9798561-1.843166-1.989928-1.756835-3.3669065-.250359-2.3525179 2.184173-4.9769784 4.566907-3.9496402 1.821583 1.0359712 1.165467 3.3064748 1.023021 4.9942446.427339-.3021583.884893-.6086331 1.044605-1.1395684 1.018705-2.1841726 1.929496-4.4158273 2.98705-6.5784173.341007-.58273376.6-1.46762585 1.424461-1.4719424 1.376978.07769784.58705 1.8258993.69928 2.6848921 1.096403-.1251799 2.171223-.3884892 3.271943-.5179856.71223-.0561151 1.117985.9064748.625899 1.4115108-1.243166 1.9122302-2.438849 3.9755395-2.607194 6.3021582.189928.3971223.397122.7899281.621582 1.1741008 3.133813-2.5079137 3.815828-6.7251799 6.297842-9.7122303.461871-.86330931 1.376978-.0561151 1.894964.2546763-1.122302 2.4258993-3.004316 4.6402878-3.211511 7.3899281-.064748 1.1741007 1.601439 1.5366906 2.313669.7467626 1.748202-1.4848921 2.810072-3.6215828 3.617267-5.7323741 1.381295-3.87625904 3.427338-7.45899285 5.477697-11.01151084.25036-.54820144.811511-.80719424 1.277698-1.13956834.258993.20287769.776979.60863309 1.035971.81151079-2.309352 4.96402877-5.61151 9.59136689-6.682014 15.04748199-.384173.8330935.384173 2.0158274 1.320863 1.5410072 1.640288-.9280575 2.576979-2.7064748 3.38849-4.3381295 1.761151-4.82589926 4.066187-9.47913667 6.897841-13.76978415zm-34.372662 18.20719425c.669065-.9928058 1.165468-2.2705036.444605-3.3755396-1.415828.6258993-1.545324 2.3697842-.444605 3.3755396zm-27.358273.8892086c.461871.3884892.932374.7640288 1.411511 1.1309353 1.882014-.686331 3.073381-2.3956835 3.71223-4.2215828-.418705-.3971223-.798561-1.0230215-1.463309-.971223-1.8259.6302158-2.991367 2.3309353-3.660432 4.0618705zm-60.4834532 7.4546763c.4791367.3625899.971223.7165467 1.4719425 1.0489208 1.8820144-.8158273 3.3366906-2.5683453 3.4446043-4.6705036-.3280576-.1208633-.9755396-.3669064-1.3035971-.4877697-1.8258993.6258992-2.9956835 2.3568345-3.6129497 4.1093525zm22.4805756 2.9223021c-.4187051.915108.5007194 1.9424461 1.4460431 1.6748202 1.2043166-.5913669 1.6402878-1.9424461 2.0071943-3.1294964-1.152518-1.2561151-3.2935252-.0776979-3.4532374 1.4546762zm43.8992806.0129497c-.694964.6517985-.604317 1.1741007.276259 1.571223 1.942446-.0517986 3.703597-1.3510791 4.640288-3.0086331-1.657554.3496403-3.479137.457554-4.916547 1.4374101zm-61.6661871 8.4086331c.7381295.8633093 1.9942446.6820144 2.9136691.2417266 1.1827338-.5827338 2.3568345-1.3726619 2.8791366-2.6417266-1.9942446.6-4.2302158.8978417-5.7928057 2.4z"/><path d="m149.54677 8.23553238c-.776978-1.09208633.85036-1.98129496 1.424461-2.75827338.345323.44892087 1.18705.66906475 1.04892 1.36402878-.271942.96258993-1.471942 2.33956835-2.473381 1.3942446z"/><path d="m19.6834608 13.6916475c2.5424461-1.0661871 5.4388489-2.0330935 8.1669065-1.1395684 2.2705036.7251799 3.5438849 3.2460432 3.2589928 5.533813-.5611511 4.7611511-4.8302158 8.8748201-9.6776978 8.9741007-1.705036.0215827-3.6776979-.1381295-4.9553957-1.3942446-.505036-.8071942.3928057-1.3467626.9107913-1.7956834 1.7697842.8503597 3.828777 1.3165467 5.7366907.6258992 2.6330935-.7640287 4.6791367-3.0043165 5.4302158-5.6115108.2805756-1.2647482.3410072-2.8705035-.7812949-3.7597122-1.381295-1.1223021-3.2892087-.6-4.8431655-.189928-4.4071943 1.3510791-8.2316547 4.2604316-11.123741 7.8-2.40863312 3.1122302-4.42446045 6.83741-4.41582736 10.8647482-.0647482 2.3007194 1.43309353 4.5582733 3.66043166 5.2273381 3.2201439.9755396 6.6992806-.3884892 9.0345324-2.6503597 2.4388489-2.4604317 4.3726618-5.3913669 5.7280575-8.5769784.5093525-1.1784173 1.8561151-.5741008 2.352518.2805755-1.3079137 3.6431655-2.4992806 7.3251799-3.7122302 11.0028777 2.6158273-1.1309353 5.6719424-2.1669065 8.4129496-.8374101.7640288.2589928 1.8043166 1.1956835 1.0273382 1.9683454-.7510792 1.0057553-1.9467626.0561151-2.8661871-.1467626-2.7625899-.5654677-5.305036 1.0143884-7.666187 2.2230215-2.2014389 5.9179857-4.4892087 12.1553957-9.2158274 16.5669065-1.9683453 1.9899281-4.62733811 3-7.27338127 3.7122302l.22014388.3798561c-.7942446.0043166-1.58848921.0129497-2.38273381.0215828l.17697842-.3410072c-1.37697842-.5611511-2.94388489-1.0446043-3.75107914-2.4-.65611511-1.1741007-1.4028777-2.4863309-1.04028777-3.8848921.59136691-1.8820144 1.6057554-3.6388489 3.05179856-4.9899281 2.55539569-2.5640287 5.90503597-4.0402877 9.02589933-5.7625899 3.0215827-1.6402878 6.1165467-3.1553957 9.0863309-4.8820144.647482-1.0273381.8935252-2.2575539 1.3035971-3.3884892-2.0460432 1.8561151-4.3553957 3.5913669-7.1438849 4.0748202-3.4834532.876259-7.72230214-.4316547-9.43165466-3.7553957-1.68345324-3.0992806-.97122302-6.828777.29352518-9.9453238 2.52086331-6.0604316 7.45467628-11.0633093 13.40287768-13.8043165zm-8.9482014 35.0892086c-2.71942448 1.428777-5.51654678 3.0431655-7.28201441 5.6330936-.82446043 1.1741007-1.23453237 2.8273381-.48345323 4.1309352.72517985 1.3683453 2.51654676 1.6920863 3.90647482 1.3381295 2.53381295-.3884892 4.77410072-1.847482 6.48345322-3.7165468 3.2503597-3.4964028 5.171223-7.9683453 6.8460432-12.371223-3.2028777 1.5755396-6.3151079 3.3280576-9.4705036 4.9856115z"/><path d="m122.956842 26.5894892c17.995684-1.9251798 35.969784-4.1482014 53.965468-6.0345324 1.385611.3928058 1.06187 2.210072-.293525 2.3093526-16.372662 1.8690647-32.753957 3.6863309-49.130936 5.5467626-1.528057.1467625-3.077698.4920863-4.605755.2762589-.979856-.5266187-.539568-1.4892086.064748-2.0978417z"/></g></svg>