<svg height="90" viewBox="0 0 180 90" width="180" xmlns="http://www.w3.org/2000/svg"><path d="m24.3692308 38.4923077v5.8153846h-24.3692308v-38.21538461h6.92307692v32.40000001zm27.6923077-8.5846154c.0006941 2.1710573-.3740582 4.3258828-1.1076923 6.3692308-.6079608 1.7344716-1.5486248 3.3336003-2.7692308 4.7076923-1.2433636 1.3190721-2.7539325 2.3575882-4.4307692 3.0461538-1.8384401.7759171-3.820437 1.1534403-5.8153847 1.1076923-1.9019061.0074615-3.7857257-.3693024-5.5384615-1.1076923-1.6768368-.6885656-3.1874057-1.7270817-4.4307692-3.0461538-1.2206061-1.374092-2.16127-2.9732207-2.7692308-4.7076923-.7447632-2.0403902-1.1198607-4.1972003-1.1076923-6.3692308-.0181788-2.1725281.3571035-4.3304014 1.1076923-6.3692308.6013504-1.7375308 1.5427391-3.3378916 2.7692308-4.7076923 1.2433635-1.3190721 2.7539324-2.3575882 4.4307692-3.0461538 1.7527358-.7383898 3.6365554-1.1151538 5.5384615-1.1076923 1.9011747 0 3.7835311.3764713 5.5384616 1.1076923 1.6809937.6808606 3.1931111 1.7204413 4.4307692 3.0461538 1.2149464 1.3782019 2.154928 2.9761707 2.7692308 4.7076923.7505888 2.0388294 1.1258711 4.1967027 1.1076923 6.3692308zm-6.923077 0c.1208174-2.4567445-.5594535-4.8862835-1.9384615-6.9230769-1.2177341-1.6692493-3.1985322-2.6075221-5.2615385-2.4923077-2.0630063-.1152144-4.0438044.8230584-5.2615384 2.4923077-1.379008 2.0367934-2.0592789 4.4663324-1.9384616 6.9230769-.1011866 2.4544985.5773963 4.878009 1.9384616 6.9230769 1.217734 1.6692493 3.1985321 2.6075221 5.2615384 2.4923077 2.0630063.1152144 4.0438044-.8230584 5.2615385-2.4923077 1.3610653-2.0450679 2.0396482-4.4685784 1.9384615-6.9230769zm15.7846154-.8307692c-.2062574 2.2943305.4890187 4.578809 1.9384616 6.3692307 1.2315203 1.2725015 2.9372182 1.9748477 4.7076923 1.9384616l3.0461538-.5538462 2.2153846-1.1076923v-14.9538461h-4.4307692c-2.1399851-.1106611-4.2020431.817265-5.5384615 2.4923077-1.258276 1.6777013-1.9384616 3.7182579-1.9384616 5.8153846zm18.8307693 12.4615384c.350316 3.7767885-.964337 7.5184932-3.6 10.2461539-3.0539652 2.4265181-6.9101916 3.6130493-10.8 3.3230769l-5.2615385-.5538461-4.7076923-1.1076924 1.1076923-5.8153846 3.8769231 1.1076923 4.7076923.5538462c2.0809173.2251489 4.1675146-.3710217 5.8153846-1.6615385 1.2149964-1.3627872 1.8158632-3.1653877 1.6615385-4.9846154v-1.1076923l-2.7692308 1.1076923-3.8769231.5538462c-1.6984325.0311909-3.388106-.2504213-4.9846154-.8307692-1.4565846-.5421321-2.7790006-1.3922567-3.8769231-2.4923077-1.1400232-1.280301-1.9901634-2.7916614-2.4923076-4.4307693-.6297673-1.9668548-.9109206-4.0286458-.8307693-6.0923076.0240354-1.9885522.3990234-3.9572389 1.1076923-5.8153847.5995982-1.6560203 1.5434185-3.1661327 2.7692308-4.4307692 1.2488016-1.3127127 2.7579228-2.3502336 4.4307692-3.0461538 1.9415957-.7541986 4.0094963-1.1301806 6.0923077-1.1076923l6.0923077.5538461 4.9846154 1.1076923zm31.2923078-11.6307692c.000694 2.1710573-.374058 4.3258828-1.107692 6.3692308-.607961 1.7344716-1.548625 3.3336003-2.769231 4.7076923-1.243364 1.3190721-2.753933 2.3575882-4.430769 3.0461538-1.83844.7759171-3.8204374 1.1534403-5.8153851 1.1076923-1.9019061.0074615-3.7857257-.3693024-5.5384615-1.1076923-1.6768368-.6885656-3.1874057-1.7270817-4.4307692-3.0461538-1.2206061-1.374092-2.16127-2.9732207-2.7692308-4.7076923-.7447633-2.0403902-1.1198607-4.1972003-1.1076923-6.3692308-.0181788-2.1725281.3571035-4.3304014 1.1076923-6.3692308.6079608-1.7344715 1.5486247-3.3336003 2.7692308-4.7076923 1.2433635-1.3190721 2.7539324-2.3575882 4.4307692-3.0461538 1.7527358-.7383898 3.6365554-1.1151538 5.5384615-1.1076923 1.9011747 0 3.7835311.3764713 5.5384611 1.1076923 1.685329.6727796 3.199105 1.7135007 4.43077 3.0461538 1.214946 1.3782019 2.154928 2.9761707 2.76923 4.7076923.750589 2.0388294 1.125872 4.1967027 1.107693 6.3692308zm-6.923077 0c.202736-2.4261483-.37976-4.8532122-1.661539-6.9230769-1.262579-1.5277585-3.1411195-2.4123088-5.1230765-2.4123088-1.9819569 0-3.8604972.8845503-5.1230769 2.4123088-1.379008 2.0367934-2.0592789 4.4663324-1.9384615 6.9230769-.1011867 2.4544985.5773962 4.878009 1.9384615 6.9230769 1.2625797 1.5277585 3.14112 2.4123088 5.1230769 2.4123088 1.981957 0 3.8604975-.8845503 5.1230765-2.4123088 1.361066-2.0450679 2.039649-4.4685784 1.938462-6.9230769zm6.646154 24.9230769h-1.938462l-2.215384-.5538461.830769-5.5384616h3.046154c1.275501.1652091 2.542251-.3626033 3.323077-1.3846153.687191-1.2699823.976645-2.7172505.830769-4.1538462v-27.6923077h6.646154v28.2461539c.194495 3.0242513-.799084 6.0049883-2.769231 8.3076923-2.101238 1.937865-4.900395 2.9375641-7.753846 2.7692307zm11.076923-47.90769228c.093305 1.12842078-.311356 2.2412393-1.107692 3.04615385-.754118.69932083-1.740856 1.09401583-2.769231 1.10769233-1.123491.0585088-2.222667-.3411914-3.046154-1.10769233-.796337-.80491455-1.200998-1.91773307-1.107692-3.04615385-.093306-1.12842077.311355-2.24123929 1.107692-3.04615384.823487-.76650093 1.922663-1.16620117 3.046154-1.10769231 1.028375.01367651 2.015113.40837147 2.769231 1.10769231.796336.80491455 1.200997 1.91773307 1.107692 3.04615384zm31.015384 22.98461538c.000695 2.1710573-.374058 4.3258828-1.107692 6.3692308-.60135 1.7375308-1.542739 3.3378916-2.769231 4.7076923-1.243363 1.3190721-2.753932 2.3575882-4.430769 3.0461538-1.83844.7759171-3.820437 1.1534403-5.815384 1.1076923-1.901907.0074615-3.785726-.3693024-5.538462-1.1076923-1.676837-.6885656-3.187406-1.7270817-4.430769-3.0461538-1.214947-1.3782019-2.154928-2.9761707-2.769231-4.7076923-.744763-2.0403902-1.119861-4.1972003-1.107692-6.3692308-.018179-2.1725281.357103-4.3304014 1.107692-6.3692308.607961-1.7344715 1.548625-3.3336003 2.769231-4.7076923 1.243363-1.3190721 2.753932-2.3575882 4.430769-3.0461538 1.752736-.7383898 3.636555-1.1151538 5.538462-1.1076923 1.901174 0 3.783531.3764713 5.538461 1.1076923 1.680994.6808606 3.193111 1.7204413 4.430769 3.0461538 1.214947 1.3782019 2.154928 2.9761707 2.769231 4.7076923.750589 2.0388294 1.125871 4.1967027 1.107692 6.3692308zm-6.923076 0c.120817-2.4567445-.559454-4.8862835-1.938462-6.9230769-1.26258-1.5277585-3.14112-2.4123088-5.123077-2.4123088s-3.860497.8845503-5.123077 2.4123088c-1.379008 2.0367934-2.059279 4.4663324-1.938461 6.9230769-.101187 2.4544985.577396 4.878009 1.938461 6.9230769 1.26258 1.5277585 3.14112 2.4123088 5.123077 2.4123088s3.860497-.8845503 5.123077-2.4123088c1.361065-2.0450679 2.039648-4.4685784 1.938462-6.9230769zm34.061538-14.4c-2.752733 10.2190125-6.270352 20.2164548-10.523077 29.9076923l-2.215385 4.1538462c-.667942 1.1383698-1.508745 2.1660177-2.492307 3.0461538l-3.323077 1.6615385-4.153846.5538461h-3.046154l-2.215385-.8307692 1.107693-5.2615385 3.876923.8307693c1.508357.069162 2.988657-.4242711 4.153846-1.3846154 1.114413-1.0862655 1.966743-2.4121123 2.492307-3.8769231-2.030769-4.2461538-3.96923-8.7692308-5.815384-13.5692308-2.030913-4.9769375-3.787396-10.0614929-5.261539-15.2307692h7.2l1.384616 4.9846154 1.661538 5.5384615 1.938462 5.5384616 2.215384 5.2615384c1.107693-3.3230769 2.215385-6.8307692 3.323077-10.5230769l2.769231-10.8z" fill="#343434" transform="translate(0 17)"/></svg>