<?xml version="1.0" encoding="UTF-8"?>
<svg width="180px" height="90px" viewBox="0 0 180 90" version="1.1" xmlns="http://www.w3.org/2000/svg" xmlns:xlink="http://www.w3.org/1999/xlink">
    <!-- Generator: Sketch 55.2 (78181) - https://sketchapp.com -->
    <title>logo_uxant</title>
    <desc>Created with Sketch.</desc>
    <defs>
        <path d="M15.0179104,0.591044776 L22.1641791,0.591044776 L36.9402985,38.9552239 L29.7402985,38.9552239 L26.1402985,28.8 L10.8268657,28.8 L7.22686567,38.9552239 L0.295522388,38.9552239 L15.0179104,0.591044776 Z M12.6537313,23.6955224 L24.3671642,23.6955224 L18.6179104,7.2 L18.4567164,7.2 L12.6537313,23.6955224 Z" id="path-1"></path>
        <path d="M0.107462687,1.10149254 L5.91044776,1.10149254 L5.91044776,5.18507463 L6.01791045,5.29253731 C6.94927612,3.75226119 8.16716418,2.54330597 9.67164179,1.66567164 C11.1761194,0.788037313 12.841791,0.349253731 14.6686567,0.349253731 C17.7134776,0.349253731 20.1134552,1.13729104 21.8686567,2.71343284 C23.6238582,4.28957463 24.5014925,6.65368657 24.5014925,9.80597015 L24.5014925,28.880597 L18.3761194,28.880597 L18.3761194,11.4179104 C18.3044552,9.23285821 17.838806,7.64778358 16.9791045,6.66268657 C16.119403,5.67758955 14.7761194,5.18507463 12.9492537,5.18507463 C11.9104254,5.18507463 10.9791269,5.37313433 10.1552239,5.74925373 C9.3313209,6.12537313 8.63281343,6.64475373 8.05970149,7.30746269 C7.48658955,7.97017164 7.03880597,8.74927612 6.71641791,9.64477612 C6.39402985,10.5402761 6.23283582,11.4895746 6.23283582,12.4925373 L6.23283582,28.880597 L0.107462687,28.880597 L0.107462687,1.10149254 L0.107462687,1.10149254 Z" id="path-3"></path>
        <path d="M0.617910448,8.48955224 L5.23880597,8.48955224 L5.23880597,0.16119403 L11.3641791,0.16119403 L11.3641791,8.48955224 L16.8985075,8.48955224 L16.8985075,13.0567164 L11.3641791,13.0567164 L11.3641791,27.8865672 C11.3641791,28.5313433 11.3910448,29.0865896 11.4447761,29.5522388 C11.4985075,30.0178881 11.623903,30.4119403 11.8208955,30.7343284 C12.0178881,31.0567164 12.3134104,31.2985075 12.7074627,31.4597015 C13.1015149,31.6208955 13.6388284,31.7014925 14.319403,31.7014925 C14.7492537,31.7014925 15.1791045,31.6925597 15.6089552,31.6746269 C16.038806,31.656694 16.4686567,31.5940299 16.8985075,31.4865672 L16.8985075,36.2149254 C16.2179328,36.2865896 15.5552239,36.3581866 14.9104478,36.4298507 C14.2656716,36.5015149 13.6029627,36.5373134 12.9223881,36.5373134 C11.3104478,36.5373134 10.0119627,36.3850522 9.02686567,36.080597 C8.04176866,35.7761418 7.27166418,35.3283582 6.71641791,34.7373134 C6.16117164,34.1462687 5.78505224,33.4029627 5.5880597,32.5074627 C5.39106716,31.6119627 5.27460448,30.5910672 5.23880597,29.4447761 L5.23880597,13.0567164 L0.617910448,13.0567164 L0.617910448,8.48955224 L0.617910448,8.48955224 Z" id="path-5"></path>
        <polygon id="path-7" points="0.564179104 0.617910448 16.2 0.617910448 16.2 6.42089552 0.564179104 6.42089552"></polygon>
        <path d="M0.32238806,0.591044776 L7.03880597,0.591044776 L7.03880597,22.9432836 C7.03880597,24.2328358 7.10147015,25.5403209 7.22686567,26.8656716 C7.35226119,28.1910224 7.71044776,29.3821119 8.30149254,30.438806 C8.89253731,31.4955 9.78803731,32.3642015 10.9880597,33.0447761 C12.1880821,33.7253507 13.8806194,34.0656716 16.0656716,34.0656716 C18.2507239,34.0656716 19.9432612,33.7253507 21.1432836,33.0447761 C22.343306,32.3642015 23.238806,31.4955 23.8298507,30.438806 C24.4208955,29.3821119 24.7790821,28.1910224 24.9044776,26.8656716 C25.0298731,25.5403209 25.0925373,24.2328358 25.0925373,22.9432836 L25.0925373,0.591044776 L31.8089552,0.591044776 L31.8089552,25.1462687 C31.8089552,27.6179104 31.4328358,29.7671642 30.680597,31.5940299 C29.9283582,33.4208955 28.8626642,34.9522388 27.4835821,36.1880597 C26.1045,37.4238806 24.4477612,38.3462463 22.5134328,38.9552239 C20.5791045,39.5642015 18.4298507,39.8686567 16.0656716,39.8686567 C13.7014925,39.8686567 11.5522388,39.5642015 9.61791045,38.9552239 C7.68358209,38.3462463 6.02684328,37.4238806 4.64776119,36.1880597 C3.2686791,34.9522388 2.20298507,33.4208955 1.45074627,31.5940299 C0.698507463,29.7671642 0.32238806,27.6179104 0.32238806,25.1462687 L0.32238806,0.591044776 L0.32238806,0.591044776 Z" id="path-9"></path>
        <path d="M22.6912499,-1.13686838e-13 C21.3304411,1.19540057 19.7039836,2.09090201 17.8119403,2.68656716 C15.8776119,3.29554478 13.7283582,3.6 11.3641791,3.6 C9,3.6 6.85074627,3.29554478 4.91641791,2.68656716 C3.02437463,2.09090201 1.39791714,1.19540057 0.0371083168,-1.13686838e-13 L22.6912499,-1.13686838e-13 L22.6912499,-1.13686838e-13 L22.6912499,-1.13686838e-13 Z" id="path-11"></path>
        <path d="M7.5138116,-5.68434189e-14 C7.55143905,0.0722490938 7.59011877,0.143890899 7.62985075,0.214925373 C8.22089552,1.2716194 9.11639552,2.1403209 10.3164179,2.82089552 C11.5164403,3.50147015 13.2089776,3.84179104 15.3940299,3.84179104 C17.5790821,3.84179104 19.2716194,3.50147015 20.4716418,2.82089552 C21.6716642,2.1403209 22.5671642,1.2716194 23.158209,0.214925373 C23.1979409,0.143890899 23.2366206,0.0722490938 23.2742481,-5.68434189e-14 L30.4853133,-5.68434189e-14 C30.3481644,0.475262479 30.1893783,0.931978901 30.0089552,1.37014925 C29.2567164,3.19701493 28.1910224,4.72835821 26.8119403,5.9641791 C26.7817931,5.99119457 26.7515132,6.01806024 26.7211006,6.04477612 L4.06695906,6.04477612 C4.03654649,6.01806024 4.0062666,5.99119457 3.9761194,5.9641791 C2.59703731,4.72835821 1.53134328,3.19701493 0.779104478,1.37014925 C0.59868139,0.931978901 0.439895374,0.475262479 0.302746431,-5.68434189e-14 L7.5138116,-5.68434189e-14 L7.5138116,-5.68434189e-14 L7.5138116,-5.68434189e-14 Z" id="path-13"></path>
        <path d="M7.05782331,-5.90822826e-08 C7.08501036,0.887199334 7.14135076,1.78272884 7.22686567,2.68656716 C7.34383169,3.92282344 7.66334277,5.04226277 8.18545339,6.04477612 L0.974388224,6.04477612 C0.539721447,4.53852457 0.32238806,2.84598725 0.32238806,0.967164179 L0.32238806,-5.90822826e-08 L7.05782344,-5.90822826e-08 L7.05782331,-5.90822826e-08 L7.05782331,-5.90822826e-08 Z M23.9458899,6.04477612 C24.4680005,5.04226277 24.7875116,3.92282344 24.9044776,2.68656716 C24.9899925,1.78272884 25.0463329,0.887199334 25.07352,-5.90823963e-08 L31.8089552,-5.90823963e-08 L31.8089552,0.967164179 C31.8089552,2.84598725 31.5916218,4.53852457 31.1569551,6.04477612 L23.9458899,6.04477612 L23.9458899,6.04477612 L23.9458899,6.04477612 Z" id="path-15"></path>
        <path d="M7.03880597,0 L7.03880597,4.80895522 C7.03880597,5.21908234 7.04514432,5.63102334 7.05782331,6.04477612 L0.32238806,6.04477612 L0.32238806,0 L7.03880597,0 L7.03880597,0 Z M25.0735198,6.04477612 C25.086199,5.63102334 25.0925373,5.21908234 25.0925373,4.80895522 L25.0925373,0 L31.8089552,0 L31.8089552,6.04477612 L25.0735198,6.04477612 L25.0735198,6.04477612 L25.0735198,6.04477612 Z" id="path-17"></path>
        <path d="M7.03880597,-5.68434189e-14 L7.03880597,6.04477612 L0.32238806,6.04477612 L0.32238806,-5.68434189e-14 L7.03880597,-5.68434189e-14 L7.03880597,-5.68434189e-14 Z M25.0925373,6.04477612 L25.0925373,-5.68434189e-14 L31.8089552,-5.68434189e-14 L31.8089552,6.04477612 L25.0925373,6.04477612 L25.0925373,6.04477612 L25.0925373,6.04477612 Z" id="path-19"></path>
        <path d="M7.03880597,-5.68434189e-14 L7.03880597,6.04477612 L0.32238806,6.04477612 L0.32238806,-5.68434189e-14 L7.03880597,-5.68434189e-14 L7.03880597,-5.68434189e-14 L7.03880597,-5.68434189e-14 Z M25.0925373,6.04477612 L25.0925373,-3.91919855e-23 L31.8089552,-3.91919855e-23 L31.8089552,6.04477612 L25.0925373,6.04477612 L25.0925373,6.04477612 L25.0925373,6.04477612 Z" id="path-21"></path>
        <path d="M7.03880597,6.04477612 L7.03880597,0.591044776 L0.32238806,0.591044776 L0.32238806,6.04477612 L7.03880597,6.04477612 L7.03880597,6.04477612 L7.03880597,6.04477612 Z M25.0925373,6.04477612 L25.0925373,0.591044776 L31.8089552,0.591044776 L31.8089552,6.04477612 L25.0925373,6.04477612 L25.0925373,6.04477612 L25.0925373,6.04477612 Z" id="path-23"></path>
        <polygon id="path-25" points="1.28955224 0.591044776 9.29552239 0.591044776 18 14.1313433 27.080597 0.591044776 34.6029851 0.591044776 21.9223881 19.0746269 35.5164179 38.9552239 27.3492537 38.9552239 17.7850746 24.2865672 8.05970149 38.9552239 0.376119403 38.9552239 13.9701493 19.0746269"></polygon>
    </defs>
    <g id="logo_uxant" stroke="none" stroke-width="1" fill="none" fill-rule="evenodd">
        <g id="rsMrkeBBgzXEeYg" transform="translate(0.000000, 16.000000)">
            <g id="Group-9" transform="translate(0.000000, 0.360883)">
                <g id="Fill-7-Clipped">
                    <mask id="mask-2" fill="white">
                        <use xlink:href="#path-1"></use>
                    </mask>
                    <g id="合并形状"></g>
                    <polygon id="Fill-7" fill="#4D4D53" mask="url(#mask-2)" points="-3.06268657 -2.76716418 40.2985075 -2.76716418 40.2985075 42.3134328 -3.06268657 42.3134328"></polygon>
                </g>
            </g>
            <g id="Group-15" transform="translate(39.626866, 10.435509)">
                <g id="Fill-13-Clipped">
                    <mask id="mask-4" fill="white">
                        <use xlink:href="#path-3"></use>
                    </mask>
                    <g id="path-7"></g>
                    <polygon id="Fill-13" fill="#4D4D53" mask="url(#mask-4)" points="-3.25074627 -3.00895522 27.8597015 -3.00895522 27.8597015 32.238806 -3.25074627 32.238806"></polygon>
                </g>
            </g>
            <g id="Group-18" transform="translate(67.164179, 3.047450)">
                <g id="Fill-16-Clipped">
                    <mask id="mask-6" fill="white">
                        <use xlink:href="#path-5"></use>
                    </mask>
                    <g id="path-9"></g>
                    <polygon id="Fill-16" fill="#4D4D53" mask="url(#mask-6)" points="-2.74029851 -3.19701493 20.2567164 -3.19701493 20.2567164 39.8955224 -2.74029851 39.8955224"></polygon>
                </g>
            </g>
            <g id="Group-21" transform="translate(87.313433, 21.181778)">
                <g id="Fill-19-Clipped">
                    <mask id="mask-8" fill="white">
                        <use xlink:href="#path-7"></use>
                    </mask>
                    <g id="path-11"></g>
                    <polygon id="Fill-19" fill="#4D4D53" mask="url(#mask-8)" points="-2.79402985 -2.74029851 19.558209 -2.74029851 19.558209 9.77910448 -2.79402985 9.77910448"></polygon>
                </g>
            </g>
            <g id="Group-46" transform="translate(23.507463, 0.360883)">
                <g id="Group-24" transform="translate(85.970149, 0.000000)">
                    <g id="Fill-22-Clipped">
                        <mask id="mask-10" fill="white">
                            <use xlink:href="#path-9"></use>
                        </mask>
                        <g id="path-13"></g>
                        <polygon id="Fill-22" fill="#FFFFFF" mask="url(#mask-10)" points="-3.0358209 -2.76716418 35.1671642 -2.76716418 35.1671642 43.2268657 -3.0358209 43.2268657"></polygon>
                    </g>
                </g>
                <g id="Group-27" transform="translate(90.671642, 36.268657)">
                    <g id="Fill-25-Clipped">
                        <mask id="mask-12" fill="white">
                            <use xlink:href="#path-11"></use>
                        </mask>
                        <g id="path-15"></g>
                        <polygon id="Fill-25" fill="#B7E2E8" mask="url(#mask-12)" points="-12.0895522 -3.35820896 33.5820896 -3.35820896 33.5820896 9.40298507 -12.0895522 9.40298507"></polygon>
                    </g>
                </g>
                <g id="Group-30" transform="translate(86.641791, 30.223881)">
                    <g id="Fill-28-Clipped">
                        <mask id="mask-14" fill="white">
                            <use xlink:href="#path-13"></use>
                        </mask>
                        <g id="path-17"></g>
                        <polygon id="Fill-28" fill="#B7E2E8" mask="url(#mask-14)" points="-8.05970149 -3.35820896 37.6119403 -3.35820896 37.6119403 9.40298507 -8.05970149 9.40298507"></polygon>
                    </g>
                </g>
                <path d="M2.64223881,49.1071642 L0,55.8208955 L0.827462687,55.8208955 L1.54208955,53.9402985 L4.62626866,53.9402985 L5.34089552,55.8208955 L6.17776119,55.8208955 L3.53552239,49.1071642 L2.64223881,49.1071642 Z M1.78656716,53.2914925 L3.07477612,49.9346269 L3.11238806,49.9346269 L4.38179104,53.2914925 L1.78656716,53.2914925 Z M17.6158209,48.9755224 C16.92,48.9755224 16.3464179,49.1259701 15.9044776,49.4268657 C15.4061194,49.7465672 15.1616418,50.2073134 15.1616418,50.7902985 C15.1616418,51.3544776 15.4155224,51.7870149 15.9326866,52.0879104 C16.1489552,52.2007463 16.6661194,52.388806 17.4747761,52.6332836 C18.2270149,52.8495522 18.7065672,53.009403 18.8946269,53.1222388 C19.3365672,53.3573134 19.5622388,53.6864179 19.5622388,54.1095522 C19.5622388,54.4668657 19.3929851,54.7489552 19.0544776,54.9558209 C18.7159701,55.1626866 18.2646269,55.2661194 17.7192537,55.2661194 C17.1174627,55.2661194 16.6661194,55.1344776 16.3558209,54.89 C16.0173134,54.6173134 15.8104478,54.1847761 15.7446269,53.601791 L14.9829851,53.601791 C15.039403,54.4292537 15.3308955,55.0404478 15.8574627,55.4447761 C16.308806,55.7832836 16.929403,55.9525373 17.7192537,55.9525373 C18.5185075,55.9525373 19.1485075,55.7832836 19.6186567,55.4541791 C20.088806,55.1156716 20.3238806,54.6455224 20.3238806,54.0625373 C20.3238806,53.4513433 20.041791,52.981194 19.4870149,52.6426866 C19.2049254,52.4734328 18.6219403,52.2571642 17.7380597,51.9938806 C17.0892537,51.8058209 16.6755224,51.6647761 16.5062687,51.5707463 C16.1207463,51.3638806 15.9326866,51.091194 15.9326866,50.7526866 C15.9326866,50.3671642 16.0925373,50.0850746 16.4122388,49.8970149 C16.6943284,49.7277612 17.0798507,49.6525373 17.578209,49.6525373 C18.1235821,49.6525373 18.5467164,49.7653731 18.8476119,50.0098507 C19.1391045,50.2449254 19.3271642,50.6022388 19.411791,51.091194 L20.1734328,51.091194 C20.1076119,50.3859701 19.8537313,49.85 19.4023881,49.4926866 C18.9698507,49.1447761 18.3680597,48.9755224 17.6158209,48.9755224 L17.6158209,48.9755224 Z M24.5149254,49.1259701 C24.3550746,49.1259701 24.2234328,49.1729851 24.110597,49.2858209 C23.9977612,49.3798507 23.9507463,49.5114925 23.9507463,49.6807463 C23.9507463,49.840597 23.9977612,49.9722388 24.110597,50.0850746 C24.2234328,50.1885075 24.3550746,50.2449254 24.5149254,50.2449254 C24.6747761,50.2449254 24.8064179,50.1885075 24.9192537,50.0850746 C25.0320896,49.9722388 25.0885075,49.840597 25.0885075,49.6807463 C25.0885075,49.5114925 25.0320896,49.3798507 24.9192537,49.2858209 C24.8064179,49.1729851 24.6747761,49.1259701 24.5149254,49.1259701 L24.5149254,49.1259701 Z M24.138806,50.9595522 L24.138806,55.8208955 L24.8910448,55.8208955 L24.8910448,50.9595522 L24.138806,50.9595522 Z M30.2856716,49.3892537 L29.5428358,49.6995522 L29.5428358,50.9595522 L28.5649254,50.9595522 L28.5649254,51.5895522 L29.5428358,51.5895522 L29.5428358,54.6831343 C29.5428358,55.0498507 29.6180597,55.3225373 29.7779104,55.510597 C29.9471642,55.7174627 30.2386567,55.8208955 30.6335821,55.8208955 L31.3670149,55.8208955 L31.3670149,55.1908955 L30.7464179,55.1908955 C30.5771642,55.1908955 30.4549254,55.1438806 30.3891045,55.0686567 C30.3138806,54.9934328 30.2856716,54.861791 30.2856716,54.6831343 L30.2856716,51.5895522 L31.4892537,51.5895522 L31.4892537,50.9595522 L30.2856716,50.9595522 L30.2856716,49.3892537 Z M37.0155224,50.8279104 C36.3102985,50.8279104 35.7555224,51.081791 35.341791,51.5895522 C34.9280597,52.0691045 34.730597,52.6708955 34.730597,53.3855224 C34.730597,54.1753731 34.9374627,54.7959701 35.37,55.2661194 C35.7837313,55.7174627 36.3479104,55.9525373 37.0437313,55.9525373 C37.6737313,55.9525373 38.1908955,55.7644776 38.5952239,55.4071642 C38.9243284,55.1062687 39.140597,54.7301493 39.2534328,54.26 L38.501194,54.26 C38.3789552,54.5985075 38.2191045,54.8523881 38.0122388,55.0216418 C37.7677612,55.2191045 37.4386567,55.3225373 37.0437313,55.3225373 C36.5829851,55.3225373 36.2162687,55.1720896 35.9529851,54.871194 C35.6897015,54.5702985 35.5486567,54.1471642 35.5110448,53.601791 L39.3474627,53.601791 C39.3286567,52.7555224 39.140597,52.0879104 38.7832836,51.6177612 C38.3883582,51.091194 37.7959701,50.8279104 37.0155224,50.8279104 L37.0155224,50.8279104 Z M37.0343284,51.4579104 C37.9558209,51.4579104 38.4729851,51.9750746 38.5670149,53.018806 L35.5298507,53.018806 C35.5768657,52.5392537 35.7273134,52.1631343 35.990597,51.8810448 C36.2538806,51.5989552 36.601791,51.4579104 37.0343284,51.4579104 L37.0343284,51.4579104 Z M45.0429851,50.8279104 C44.4976119,50.8279104 44.0368657,51.081791 43.6701493,51.6083582 L43.6701493,50.9595522 L42.9179104,50.9595522 L42.9179104,55.8208955 L43.6701493,55.8208955 L43.6701493,52.8589552 C43.6701493,52.4734328 43.7829851,52.1443284 44.0086567,51.8810448 C44.2343284,51.5989552 44.5164179,51.4673134 44.8643284,51.4673134 C45.6071642,51.4673134 45.9832836,51.8904478 45.9832836,52.7555224 L45.9832836,55.8208955 L46.7355224,55.8208955 L46.7355224,52.7743284 C46.7355224,52.379403 46.8389552,52.0691045 47.0646269,51.8246269 C47.2714925,51.5801493 47.5441791,51.4673134 47.8638806,51.4673134 C48.2776119,51.4673134 48.5785075,51.5707463 48.7665672,51.7964179 C48.9452239,52.0032836 49.0392537,52.3229851 49.0392537,52.7555224 L49.0392537,55.8208955 L49.7914925,55.8208955 L49.7914925,52.6332836 C49.7914925,52.0785075 49.6316418,51.6365672 49.3307463,51.3074627 C49.0110448,50.9877612 48.6067164,50.8279104 48.0989552,50.8279104 C47.7604478,50.8279104 47.4783582,50.9031343 47.2432836,51.0535821 C46.98,51.1946269 46.7543284,51.4297015 46.5662687,51.749403 C46.2935821,51.128806 45.7858209,50.8279104 45.0429851,50.8279104 L45.0429851,50.8279104 Z M55.7597015,50.8279104 C55.1767164,50.8279104 54.7159701,50.9407463 54.3586567,51.1664179 C53.9637313,51.4108955 53.7098507,51.7964179 53.6064179,52.3041791 L54.3492537,52.360597 C54.4244776,52.0502985 54.5843284,51.8152239 54.838209,51.6647761 C55.0638806,51.5143284 55.3553731,51.4485075 55.7126866,51.4485075 C56.5589552,51.4485075 56.9820896,51.8528358 56.9820896,52.6708955 L56.9820896,52.9247761 L55.8161194,52.9435821 C55.0826866,52.9529851 54.5185075,53.0940299 54.1235821,53.3573134 C53.6722388,53.639403 53.4559701,54.0531343 53.4559701,54.6079104 C53.4559701,55.0028358 53.6064179,55.3319403 53.9073134,55.5858209 C54.198806,55.8302985 54.5843284,55.9525373 55.0732836,55.9525373 C55.5246269,55.9525373 55.9289552,55.8491045 56.2862687,55.6516418 C56.5871642,55.4823881 56.8410448,55.2661194 57.0291045,55.0028358 L57.0291045,55.8208955 L57.7343284,55.8208955 L57.7343284,52.6991045 C57.7343284,52.1349254 57.5838806,51.6929851 57.301791,51.3732836 C56.9632836,51.0065672 56.4555224,50.8279104 55.7597015,50.8279104 L55.7597015,50.8279104 Z M56.9820896,53.4889552 L56.9820896,53.9026866 C56.9820896,54.278806 56.8034328,54.6173134 56.4555224,54.908806 C56.098209,55.2097015 55.6938806,55.3601493 55.2331343,55.3601493 C54.9322388,55.3601493 54.6877612,55.2849254 54.4997015,55.1438806 C54.3116418,54.9934328 54.2270149,54.8147761 54.2270149,54.5891045 C54.2270149,53.8838806 54.7723881,53.5265672 55.8631343,53.5077612 L56.9820896,53.4889552 Z M63.909403,50.8279104 C63.1759701,50.8279104 62.64,51.138209 62.2920896,51.758806 L62.2920896,50.9595522 L61.5868657,50.9595522 L61.5868657,57.6826866 L62.3391045,57.6826866 L62.3391045,54.9370149 C62.7152239,55.6140299 63.251194,55.9525373 63.9470149,55.9525373 C64.6428358,55.9525373 65.178806,55.6892537 65.5737313,55.1814925 C65.9310448,54.7113433 66.1191045,54.1189552 66.1191045,53.4043284 C66.1191045,52.6708955 65.9310448,52.0785075 65.5643284,51.6083582 C65.16,51.081791 64.6052239,50.8279104 63.909403,50.8279104 L63.909403,50.8279104 Z M63.8153731,51.4485075 C64.3325373,51.4485075 64.7274627,51.6365672 65.0001493,52.0314925 C65.2258209,52.37 65.3480597,52.8307463 65.3480597,53.4043284 C65.3480597,53.9873134 65.2258209,54.4480597 64.9813433,54.7865672 C64.7086567,55.1438806 64.3137313,55.3319403 63.7871642,55.3319403 C63.3358209,55.3319403 62.9879104,55.1532836 62.7246269,54.8147761 C62.4425373,54.4668657 62.3108955,54.0155224 62.3108955,53.4513433 L62.3108955,53.3573134 C62.3108955,52.8119403 62.4331343,52.360597 62.6776119,52.0220896 C62.9408955,51.6365672 63.3264179,51.4485075 63.8153731,51.4485075 L63.8153731,51.4485075 Z M75.178209,49.1071642 L75.178209,49.7747761 L77.5477612,49.7747761 L77.5477612,55.8208955 L78.309403,55.8208955 L78.309403,49.7747761 L80.6789552,49.7747761 L80.6789552,49.1071642 L75.178209,49.1071642 Z M86.111194,50.8279104 C85.4059701,50.8279104 84.851194,51.081791 84.4374627,51.5895522 C84.0237313,52.0691045 83.8262687,52.6708955 83.8262687,53.3855224 C83.8262687,54.1753731 84.0331343,54.7959701 84.4656716,55.2661194 C84.879403,55.7174627 85.4435821,55.9525373 86.139403,55.9525373 C86.769403,55.9525373 87.2865672,55.7644776 87.6908955,55.4071642 C88.02,55.1062687 88.2362687,54.7301493 88.3491045,54.26 L87.5968657,54.26 C87.4746269,54.5985075 87.3147761,54.8523881 87.1079104,55.0216418 C86.8634328,55.2191045 86.5343284,55.3225373 86.139403,55.3225373 C85.6786567,55.3225373 85.3119403,55.1720896 85.0486567,54.871194 C84.7853731,54.5702985 84.6443284,54.1471642 84.6067164,53.601791 L88.4431343,53.601791 C88.4243284,52.7555224 88.2362687,52.0879104 87.8789552,51.6177612 C87.4840299,51.091194 86.8916418,50.8279104 86.111194,50.8279104 L86.111194,50.8279104 Z M86.13,51.4579104 C87.0514925,51.4579104 87.5686567,51.9750746 87.6626866,53.018806 L84.6255224,53.018806 C84.6725373,52.5392537 84.8229851,52.1631343 85.0862687,51.8810448 C85.3495522,51.5989552 85.6974627,51.4579104 86.13,51.4579104 L86.13,51.4579104 Z M94.1386567,50.8279104 C93.5932836,50.8279104 93.1325373,51.081791 92.7658209,51.6083582 L92.7658209,50.9595522 L92.0135821,50.9595522 L92.0135821,55.8208955 L92.7658209,55.8208955 L92.7658209,52.8589552 C92.7658209,52.4734328 92.8786567,52.1443284 93.1043284,51.8810448 C93.33,51.5989552 93.6120896,51.4673134 93.96,51.4673134 C94.7028358,51.4673134 95.0789552,51.8904478 95.0789552,52.7555224 L95.0789552,55.8208955 L95.831194,55.8208955 L95.831194,52.7743284 C95.831194,52.379403 95.9346269,52.0691045 96.1602985,51.8246269 C96.3671642,51.5801493 96.6398507,51.4673134 96.9595522,51.4673134 C97.3732836,51.4673134 97.6741791,51.5707463 97.8622388,51.7964179 C98.0408955,52.0032836 98.1349254,52.3229851 98.1349254,52.7555224 L98.1349254,55.8208955 L98.8871642,55.8208955 L98.8871642,52.6332836 C98.8871642,52.0785075 98.7273134,51.6365672 98.4264179,51.3074627 C98.1067164,50.9877612 97.7023881,50.8279104 97.1946269,50.8279104 C96.8561194,50.8279104 96.5740299,50.9031343 96.3389552,51.0535821 C96.0756716,51.1946269 95.85,51.4297015 95.6619403,51.749403 C95.3892537,51.128806 94.8814925,50.8279104 94.1386567,50.8279104 L94.1386567,50.8279104 Z M105.062239,50.8279104 C104.328806,50.8279104 103.792836,51.138209 103.444925,51.758806 L103.444925,50.9595522 L102.739701,50.9595522 L102.739701,57.6826866 L103.49194,57.6826866 L103.49194,54.9370149 C103.86806,55.6140299 104.40403,55.9525373 105.099851,55.9525373 C105.795672,55.9525373 106.331642,55.6892537 106.726567,55.1814925 C107.083881,54.7113433 107.27194,54.1189552 107.27194,53.4043284 C107.27194,52.6708955 107.083881,52.0785075 106.717164,51.6083582 C106.312836,51.081791 105.75806,50.8279104 105.062239,50.8279104 L105.062239,50.8279104 Z M104.968209,51.4485075 C105.485373,51.4485075 105.880299,51.6365672 106.152985,52.0314925 C106.378657,52.37 106.500896,52.8307463 106.500896,53.4043284 C106.500896,53.9873134 106.378657,54.4480597 106.134179,54.7865672 C105.861493,55.1438806 105.466567,55.3319403 104.94,55.3319403 C104.488657,55.3319403 104.140746,55.1532836 103.877463,54.8147761 C103.595373,54.4668657 103.463731,54.0155224 103.463731,53.4513433 L103.463731,53.3573134 C103.463731,52.8119403 103.58597,52.360597 103.830448,52.0220896 C104.093731,51.6365672 104.479254,51.4485075 104.968209,51.4485075 L104.968209,51.4485075 Z M111.086866,48.9755224 L111.086866,55.8208955 L111.829701,55.8208955 L111.829701,48.9755224 L111.086866,48.9755224 Z M117.948358,50.8279104 C117.365373,50.8279104 116.904627,50.9407463 116.547313,51.1664179 C116.152388,51.4108955 115.898507,51.7964179 115.795075,52.3041791 L116.53791,52.360597 C116.613134,52.0502985 116.772985,51.8152239 117.026866,51.6647761 C117.252537,51.5143284 117.54403,51.4485075 117.901343,51.4485075 C118.747612,51.4485075 119.170746,51.8528358 119.170746,52.6708955 L119.170746,52.9247761 L118.004776,52.9435821 C117.271343,52.9529851 116.707164,53.0940299 116.312239,53.3573134 C115.860896,53.639403 115.644627,54.0531343 115.644627,54.6079104 C115.644627,55.0028358 115.795075,55.3319403 116.09597,55.5858209 C116.387463,55.8302985 116.772985,55.9525373 117.26194,55.9525373 C117.713284,55.9525373 118.117612,55.8491045 118.474925,55.6516418 C118.775821,55.4823881 119.029701,55.2661194 119.217761,55.0028358 L119.217761,55.8208955 L119.922985,55.8208955 L119.922985,52.6991045 C119.922985,52.1349254 119.772537,51.6929851 119.490448,51.3732836 C119.15194,51.0065672 118.644179,50.8279104 117.948358,50.8279104 L117.948358,50.8279104 Z M119.170746,53.4889552 L119.170746,53.9026866 C119.170746,54.278806 118.99209,54.6173134 118.644179,54.908806 C118.286866,55.2097015 117.882537,55.3601493 117.421791,55.3601493 C117.120896,55.3601493 116.876418,55.2849254 116.688358,55.1438806 C116.500299,54.9934328 116.415672,54.8147761 116.415672,54.5891045 C116.415672,53.8838806 116.961045,53.5265672 118.051791,53.5077612 L119.170746,53.4889552 Z M125.073134,49.3892537 L124.330299,49.6995522 L124.330299,50.9595522 L123.352388,50.9595522 L123.352388,51.5895522 L124.330299,51.5895522 L124.330299,54.6831343 C124.330299,55.0498507 124.405522,55.3225373 124.565373,55.510597 C124.734627,55.7174627 125.026119,55.8208955 125.421045,55.8208955 L126.154478,55.8208955 L126.154478,55.1908955 L125.533881,55.1908955 C125.364627,55.1908955 125.242388,55.1438806 125.176567,55.0686567 C125.101343,54.9934328 125.073134,54.861791 125.073134,54.6831343 L125.073134,51.5895522 L126.276716,51.5895522 L126.276716,50.9595522 L125.073134,50.9595522 L125.073134,49.3892537 Z M131.802985,50.8279104 C131.097761,50.8279104 130.542985,51.081791 130.129254,51.5895522 C129.715522,52.0691045 129.51806,52.6708955 129.51806,53.3855224 C129.51806,54.1753731 129.724925,54.7959701 130.157463,55.2661194 C130.571194,55.7174627 131.135373,55.9525373 131.831194,55.9525373 C132.461194,55.9525373 132.978358,55.7644776 133.382687,55.4071642 C133.711791,55.1062687 133.92806,54.7301493 134.040896,54.26 L133.288657,54.26 C133.166418,54.5985075 133.006567,54.8523881 132.799701,55.0216418 C132.555224,55.2191045 132.226119,55.3225373 131.831194,55.3225373 C131.370448,55.3225373 131.003731,55.1720896 130.740448,54.871194 C130.477164,54.5702985 130.336119,54.1471642 130.298507,53.601791 L134.134925,53.601791 C134.116119,52.7555224 133.92806,52.0879104 133.570746,51.6177612 C133.175821,51.091194 132.583433,50.8279104 131.802985,50.8279104 L131.802985,50.8279104 Z M131.821791,51.4579104 C132.743284,51.4579104 133.260448,51.9750746 133.354478,53.018806 L130.317313,53.018806 C130.364328,52.5392537 130.514776,52.1631343 130.77806,51.8810448 C131.041343,51.5989552 131.389254,51.4579104 131.821791,51.4579104 L131.821791,51.4579104 Z" id="A-Sitemap-Template" fill="#B1BDC8" fill-rule="nonzero"></path>
                <g id="Group-33" transform="translate(85.970149, 24.179104)">
                    <g id="Fill-31-Clipped">
                        <mask id="mask-16" fill="white">
                            <use xlink:href="#path-15"></use>
                        </mask>
                        <g id="path-19"></g>
                        <polygon id="Fill-31" fill="#F5A623" mask="url(#mask-16)" points="-7.3880597 -3.35820896 38.2835821 -3.35820896 38.2835821 9.40298507 -7.3880597 9.40298507"></polygon>
                    </g>
                </g>
                <g id="Group-36" transform="translate(85.970149, 18.134328)">
                    <g id="Fill-34-Clipped">
                        <mask id="mask-18" fill="white">
                            <use xlink:href="#path-17"></use>
                        </mask>
                        <g id="path-21"></g>
                        <polygon id="Fill-34" fill="#70C19A" mask="url(#mask-18)" points="-7.3880597 -3.35820896 38.2835821 -3.35820896 38.2835821 9.40298507 -7.3880597 9.40298507"></polygon>
                    </g>
                </g>
                <g id="Group-39" transform="translate(85.970149, 12.089552)">
                    <g id="Fill-37-Clipped">
                        <mask id="mask-20" fill="white">
                            <use xlink:href="#path-19"></use>
                        </mask>
                        <g id="path-23"></g>
                        <polygon id="Fill-37" fill="#A7D7BA" mask="url(#mask-20)" points="-7.3880597 -3.35820896 38.2835821 -3.35820896 38.2835821 9.40298507 -7.3880597 9.40298507"></polygon>
                    </g>
                </g>
                <g id="Group-42" transform="translate(85.970149, 6.044776)">
                    <g id="Fill-40-Clipped">
                        <mask id="mask-22" fill="white">
                            <use xlink:href="#path-21"></use>
                        </mask>
                        <g id="path-25"></g>
                        <polygon id="Fill-40" fill="#FA907F" mask="url(#mask-22)" points="-7.3880597 -3.35820896 38.2835821 -3.35820896 38.2835821 9.40298507 -7.3880597 9.40298507"></polygon>
                    </g>
                </g>
                <g id="Group-45" transform="translate(85.970149, 0.000000)">
                    <g id="Fill-43-Clipped">
                        <mask id="mask-24" fill="white">
                            <use xlink:href="#path-23"></use>
                        </mask>
                        <g id="path-27"></g>
                        <polygon id="Fill-43" fill="#ED6243" mask="url(#mask-24)" points="-7.3880597 -3.35820896 38.2835821 -3.35820896 38.2835821 9.40298507 -7.3880597 9.40298507"></polygon>
                    </g>
                </g>
            </g>
            <g id="Group-49" transform="translate(144.402985, 0.360883)">
                <g id="Fill-47-Clipped">
                    <mask id="mask-26" fill="white">
                        <use xlink:href="#path-25"></use>
                    </mask>
                    <g id="path-29"></g>
                    <polygon id="Fill-47" fill="#4D4D53" mask="url(#mask-26)" points="-2.98208955 -2.76716418 38.8746269 -2.76716418 38.8746269 42.3134328 -2.98208955 42.3134328"></polygon>
                </g>
            </g>
        </g>
    </g>
</svg>