<svg height="90" viewBox="0 0 180 90" width="180" xmlns="http://www.w3.org/2000/svg"><g fill="#4a90e2" fill-rule="evenodd" transform="translate(0 27)"><g fill-rule="nonzero" transform="translate(.071124 .128023)"><path d="m2.65007112.15618777c.30981508-.03584638.61706971-.05376956.92944524-.05120911 11.25576104.01280228 22.51152204-.00768136 33.76728304.01024182 1.6745377-.05376956 3.0443813 1.56443813 2.8549076 3.20056899-.0128023 9.39943103.0128022 18.79886203-.0128023 28.19829303.0460882 1.597724-1.4645804 2.9675676-3.0443812 2.8318634-11.3581793-.0051209-22.713798.0128023-34.06941681-.0102418-1.5029872.0332859-2.84978663-1.3263158-2.80881935-2.8267425-.02048364-9.4890469-.01024182-18.9780939-.00512091-28.46714083-.06657183-1.38008535 1.01650071-2.70640114 2.38890469-2.885633zm3.31322902 1.3826458v2.84978663c2.85234709.00256045 5.70469416 0 8.55704126 0 0-.94992888 0-1.89985775 0-2.84978663-2.8523471-.00256045-5.70469417-.00512091-8.55704126 0zm11.50412516 4.27339972c-4.7854907.01024182-9.57354194-.00256046-14.3590327.00512091v2.85234708h34.2384068c0-1.90241821 0-3.80483642-.0025604-5.70725462-6.1502134.00256045-12.3029872 0-18.4532006.00256045-.4762447.94736842-.9524893 1.8972973-1.4236131 2.84722618zm1.0472262 4.50896161c-3.9405405.742532-7.0463727 4.5806543-6.8184922 8.6082503-.0230441 4.4756757 4.0660029 8.4520626 8.5391181 8.3061167 4.3758179.1357041 8.3957326-3.6793741 8.5135135-8.0475107.2662873-3.2210526-1.569559-6.3934566-4.3578947-7.9604552-1.7641537-1.0139402-3.8944524-1.26998576-5.8762447-.9064011zm-15.40369844 18.3200569c-.00256046.9499289-.00256046 1.8998577-.00256046 2.8523471h34.2384068c0-.9524894 0-1.9024182 0-2.8523471-11.4119488-.0025605-22.8238976-.0025605-34.23584634 0z"/><path d="m18.7911807 13.1812233c3.251778-.9550498 6.9106685 1.6054054 7.1027027 4.9852063.4019914 3.1263158-2.2839261 6.1963016-5.4307255 6.2193456-3.0290185.2253201-5.8916074-2.4093883-5.9197724-5.4435277-.1869132-2.6116643 1.7257468-5.1388336 4.2477952-5.7610242zm-2.1123756 5.4460882c-.028165.6170697.742532.9217639 1.1957326.545377.3046942-.601707.2534851-1.3596017.7271693-1.8768137.5172119-.6810811 1.428734-.7322902 2.1891892-.9576102.1331436-.4173542.1997155-1.0753912-.3661451-1.1854908-1.9382646-.2893314-3.8150783 1.546515-3.745946 3.4745377z"/></g><path d="m57.2367568 8.10810811c1.7848737 0 3.1691842.36540175 4.1529729 1.09621621 1.0540594.78703097 1.6583776 2.00269448 1.812973 3.64702708h-2.4454054c-.2108119-.9275723-.5972945-1.5951331-1.1594595-2.0027028-.5340567-.4075696-1.3632376-.6113513-2.4875675-.6113513-.9556805 0-1.679457.1335122-2.1713514.4005405-.6183815.3091908-.9275675.8291856-.9275675 1.56 0 .6605439.3513478 1.1735117 1.054054 1.538919.337299.1827036 1.1945877.4918897 2.5718919.9275675 1.9816315.6043274 3.2956724 1.0962143 3.9421622 1.4756757 1.3070335.7729768 1.9605405 1.8551282 1.9605405 3.2464865 0 1.3491959-.5270218 2.4172933-1.5810811 3.2043243-1.0681134.7729768-2.5578283 1.1594595-4.4691892 1.1594595-1.8551444 0-3.3026975-.3583748-4.3427027-1.0751352-1.2789253-.8854098-1.967567-2.2837742-2.0659459-4.1951351h2.4454054c.1686495 1.1524382.576213 1.9675652 1.2227027 2.4454054.6043273.4356779 1.5178317.6535135 2.7405405.6535135 1.0962217 0 1.9675644-.1827009 2.6140541-.5481081.6464897-.3935155.9697297-.8924294.9697297-1.4967567 0-.8010851-.4708061-1.4335112-1.4124324-1.8972973-.337299-.1686495-1.314046-.4989165-2.9302703-.9908109-1.8691985-.5902732-3.0216194-1.0118906-3.4572973-1.2648648-1.1524382-.6886521-1.7286486-1.7005339-1.7286486-3.0356757 0-1.3491959.5621565-2.39621249 1.6864865-3.14108108 1.0400052-.73081446 2.3751269-1.09621621 4.0054054-1.09621621zm11.3898068.92756757v3.52054052h2.4243244v1.9816216h-2.4243244v6.1556757c0 .2670284.0562157.4637832.1686487.5902703.1264871.1264871.309188.1897297.5481081.1897297h1.4335135v1.9816216h-1.834054c-.9416264 0-1.6372951-.2529704-2.0870271-.7589189-.4216237-.4637861-.6324324-1.131347-.6324324-2.0027027v-6.1556757h-1.9605405v-1.9816216h1.9605405v-2.5297297zm9.0498069 3.22540542c1.6583867 0 2.9864815.5410757 3.9843244 1.6232432.9978428 1.0821676 1.4967567 2.4594511 1.4967567 4.1318919 0 1.6583867-.491887 3.0216163-1.4756757 4.0897297-1.0118969 1.0962217-2.3470187 1.6443244-4.0054054 1.6443244-1.6583866 0-2.9935084-.5481027-4.0054054-1.6443244-.9837887-1.0400052-1.4756756-2.4032348-1.4756756-4.0897297 0-1.700549.4989139-3.0778326 1.4967567-4.1318919.9837887-1.0821675 2.3118835-1.6232432 3.9843243-1.6232432zm0 1.9605405c-1.0118969 0-1.7848622.3935096-2.3189189 1.1805406-.4637861.6745979-.6956757 1.5459406-.6956757 2.614054 0 1.0540593.2318896 1.918375.6956757 2.592973.5481109.787031 1.3210761 1.1805405 2.3189189 1.1805405.9978429 0 1.7708081-.3935095 2.318919-1.1805405.4778402-.7167604.7167567-1.581076.7167567-2.592973 0-1.0540593-.2389165-1.9254019-.7167567-2.614054-.5340568-.787031-1.307022-1.1805406-2.318919-1.1805406zm12.2541313-1.9605405c1.4054124 0 2.5297255.316213 3.3729729.9486486.8713557.6886521 1.4124314 1.7075609 1.6232433 3.0567568h-2.3821622c-.1405412-.674598-.4286465-1.1875658-.8643243-1.5389189-.4356779-.337299-1.0189153-.505946-1.7497297-.505946-.899464 0-1.5951327.330267-2.0870271.9908108-.5059484.6464898-.7589189 1.5670211-.7589189 2.7616217 0 1.2227088.2459435 2.164321.7378378 2.8248648.4637862.6605439 1.1594549.9908108 2.0870271.9908108 1.588116 0 2.4805395-.7940461 2.6772973-2.3821621h2.3821621c-.2529742 1.475683-.8151307 2.5718883-1.6864865 3.2886486-.8573015.7027062-1.9886416 1.0540541-3.394054 1.0540541-1.6864949 0-2.9935089-.5481027-3.9210811-1.6443244-.8994639-1.0400052-1.3491892-2.4102617-1.3491892-4.1108108 0-1.6583866.4426983-3.0005354 1.3281081-4.0264865.9556805-1.138384 2.2837753-1.7075675 3.9843244-1.7075675zm6.7098068-4.15297299h2.4032433v8.76972969l4.4691891-4.3216216h3.098919l-4.827568 4.5113514 5.24919 6.3875675h-3.077838l-3.815676-4.8486486-1.0962161 1.032973v3.8156756h-2.4032433zm16.9552124 0c1.784874 0 3.169184.36540175 4.152973 1.09621621 1.054059.78703097 1.658378 2.00269448 1.812973 3.64702708h-2.445406c-.210811-.9275723-.597294-1.5951331-1.159459-2.0027028-.534057-.4075696-1.363238-.6113513-2.487568-.6113513-.95568 0-1.679457.1335122-2.171351.4005405-.618381.3091908-.927567.8291856-.927567 1.56 0 .6605439.351347 1.1735117 1.054054 1.538919.337299.1827036 1.194587.4918897 2.571891.9275675 1.981632.6043274 3.295673 1.0962143 3.942163 1.4756757 1.307033.7729768 1.96054 1.8551282 1.96054 3.2464865 0 1.3491959-.527022 2.4172933-1.581081 3.2043243-1.068113.7729768-2.557828 1.1594595-4.469189 1.1594595-1.855144 0-3.302698-.3583748-4.342703-1.0751352-1.278925-.8854098-1.967567-2.2837742-2.065946-4.1951351h2.445406c.168649 1.1524382.576213 1.9675652 1.222702 2.4454054.604328.4356779 1.517832.6535135 2.740541.6535135 1.096222 0 1.967564-.1827009 2.614054-.5481081.64649-.3935155.96973-.8924294.96973-1.4967567 0-.8010851-.470806-1.4335112-1.412433-1.8972973-.337299-.1686495-1.314046-.4989165-2.93027-.9908109-1.869199-.5902732-3.021619-1.0118906-3.457297-1.2648648-1.152438-.6886521-1.728649-1.7005339-1.728649-3.0356757 0-1.3491959.562157-2.39621249 1.686487-3.14108108 1.040005-.73081446 2.375127-1.09621621 4.005405-1.09621621zm13.60332 4.15297299c2.7265 0 4.08973 1.4897148 4.08973 4.4691892v6.7248648h-2.403243v-6.514054c0-1.7848738-.822154-2.6772973-2.466487-2.6772973-.590273 0-1.110268.2108087-1.56.6324324-.505948.4637861-.80108 1.131347-.885405 2.0027027v6.5562162h-2.403243v-10.8989189h2.403243v1.2648649c.435678-.5200026.913511-.9064852 1.433513-1.1594595.534057-.2670283 1.131349-.4005405 1.791892-.4005405zm11.347645 0c1.616224 0 2.80378.4005365 3.562703 1.2016216.674598.6886521 1.011892 1.7005339 1.011892 3.0356757v6.9567567h-2.234595v-1.4335135c-.421624.5481109-.948645.9697283-1.581081 1.2648649-.730814.3091907-1.545941.4637838-2.445405.4637838-1.12433 0-2.016754-.2881053-2.677298-.8643244-.674598-.5902732-1.011892-1.3772923-1.011892-2.361081 0-1.3632501.534049-2.3821588 1.602163-3.0567568.899464-.5762191 2.087019-.8643243 3.562702-.8643243l2.382162-.0210811v-.252973c0-1.4194665-.779992-2.1291892-2.34-2.1291892-.71676 0-1.278916.1335122-1.686486.4005406-.463786.2951366-.737837.7448618-.822162 1.3491892h-2.382162c.168649-1.3210877.723779-2.2837808 1.665405-2.8881081.801085-.5340568 1.932425-.8010811 3.394054-.8010811zm2.171351 6.1556757-2.213513.021081c-1.911361 0-2.867027.6745879-2.867027 2.0237838 0 .3794614.147566.7097283.442703.9908108.30919.2670284.751889.4005406 1.328108.4005406.997843 0 1.805943-.2670244 2.424324-.8010811.590273-.5481109.885405-1.2789144.885405-2.1924324zm10.230348-6.1556757c1.60217 0 2.867022.5691835 3.794594 1.7075675.843248 1.0540594 1.264865 2.417289 1.264865 4.0897298 0 1.588116-.41459 2.9162109-1.243783 3.9843243-.88541 1.1383841-2.115128 1.7075676-3.68919 1.7075676-1.264871 0-2.347022-.5972914-3.246486-1.7918919v5.6708108h-2.403243v-15.072973h2.234594v1.1594595c.758923-.9697346 1.855128-1.4545946 3.288649-1.4545946zm-.358379 1.9394594c-.95568 0-1.679457.3724287-2.171351 1.1172973-.449732.6324356-.674594 1.5037783-.674594 2.6140541v.1686486c0 1.1524382.281078 2.0729696.843243 2.7616217.505948.6324356 1.145401.9486486 1.918378.9486486 1.054059 0 1.841079-.3443209 2.361081-1.032973.449732-.6464897.674595-1.5529671.674595-2.7194594s-.203782-2.0729698-.611352-2.7194595c-.505948-.7589227-1.28594-1.1383784-2.34-1.1383784zm8.923321 6.0713514c.47784 0 .87135.1475661 1.18054.4427027.309191.3091907.463784.6886464.463784 1.1383784 0 .4778402-.16162.8643228-.484865 1.1594594-.30919.2951366-.695673.4427027-1.159459.4427027-.435678 0-.822161-.154593-1.15946-.4637837-.30919-.2951367-.463783-.6745923-.463783-1.1383784s.154593-.8432418.463783-1.1383784c.323245-.2951366.709728-.4427027 1.15946-.4427027zm5.571428-12.16378379c.477841 0 .87135.14756609 1.180541.4427027.309191.30919074.463784.6886464.463784 1.13837838 0 .47784021-.16162.86432281-.484865 1.15945941-.309191.2951367-.695673.4427028-1.15946.4427028-.449732 0-.836214-.1475661-1.159459-.4427028-.309191-.3091907-.463784-.6956733-.463784-1.15945941 0-.4637861.154593-.84324177.463784-1.13837838.323245-.29513661.709727-.4427027 1.159459-.4427027zm-1.201621 4.44810809h2.403243v10.8989189h-2.403243zm10.209266-.2951351c1.658387 0 2.986482.5410757 3.984324 1.6232432.997843 1.0821676 1.496757 2.4594511 1.496757 4.1318919 0 1.6583867-.491887 3.0216163-1.475675 4.0897297-1.011897 1.0962217-2.347019 1.6443244-4.005406 1.6443244s-2.993508-.5481027-4.005405-1.6443244c-.983789-1.0400052-1.475676-2.4032348-1.475676-4.0897297 0-1.700549.498914-3.0778326 1.496757-4.1318919.983789-1.0821675 2.311883-1.6232432 3.984324-1.6232432zm0 1.9605405c-1.011897 0-1.784862.3935096-2.318919 1.1805406-.463786.6745979-.695675 1.5459406-.695675 2.614054 0 1.0540593.231889 1.918375.695675 2.592973.548111.787031 1.321076 1.1805405 2.318919 1.1805405s1.770808-.3935095 2.318919-1.1805405c.47784-.7167604.716757-1.581076.716757-2.592973 0-1.0540593-.238917-1.9254019-.716757-2.614054-.534057-.787031-1.307022-1.1805406-2.318919-1.1805406z"/></g></svg>