<svg height="90" viewBox="0 0 180 90" width="180" xmlns="http://www.w3.org/2000/svg"><g fill="none" fill-rule="evenodd"><g fill="#444" transform="translate(0 23)"><path d="m62.9497207 0h5.1787709c-.0020112 14.3296089 0 28.6592179-.0020112 42.9888268-1.7255865-.0020112-3.4511731 0-5.1767597-.0020112 0-14.3296089 0-28.6572067 0-42.9868156z"/><path d="m122.027933 0h5.178771c-.002011 14.3296089.004022 28.6592179-.002011 42.9888268-1.727598-.0040223-3.453185.0060335-5.180782-.0060335.008044-14.3275978 0-28.6551955.004022-42.9827933z"/><path d="m132.385475 0h5.178771v6.18234637c-1.725587.00201117-3.451173 0-5.17676.00201117-.004022-2.06145251 0-4.12290503-.002011-6.18435754z"/><path d="m142.642458 0h5.178771c-.002011 5.33564246.006034 10.6732961-.004022 16.0089385.661676-1.2569832 1.582793-2.4013407 2.807597-3.1494972 2.341006-1.4279329 5.154637-1.8985474 7.863688-1.8 3.756871-.0020111 7.505698 1.6592179 9.921117 4.5553073 2.214302 2.5984358 3.358659 5.9530726 3.744804 9.3117318.337878 3.181676.070391 6.455866-.951285 9.4967598-.917094 2.729162-2.618547 5.2451397-5.013854 6.8782123-2.049386 1.4520671-4.535196 2.1901676-7.027039 2.3410056h-2.127822c-3.53162-.2715084-7.330726-1.6753073-9.219217-4.8589944.012067 1.3997765.004022 2.8015642.006033 4.2033519-1.725587.0020112-3.451173.0020112-5.17676.0020112-.004022-14.3296089 0-28.6592179-.002011-42.9888268zm12.296313 15.827933c-1.707486.3338547-3.242011 1.3032402-4.418548 2.5662569-1.958882 2.1439107-2.717095 5.0983241-2.886033 7.9340783-.12067 2.8981005.25743 5.9410055 1.761788 8.4730726 1.353519 2.3148603 3.813184 3.9519553 6.486033 4.2455866 2.19419.2272625 4.573408.0643575 6.453855-1.2087151 2.157989-1.3836872 3.42905-3.8011173 3.9781-6.2467039.627487-2.833743.717989-5.8263687-.062346-8.64-.623464-2.3651397-1.978994-4.6116201-4.068603-5.9510615-2.111732-1.4037989-4.802682-1.6230167-7.244246-1.1725139z" fill-rule="nonzero"/><path d="m3.88156425 15.5564246c2.56022346-2.9745252 6.51620115-4.5412291 10.40379885-4.4989944 3.5356425-.0945252 7.2965363.6576536 10.0518436 3.0067039 2.2867039 1.9186592 3.5758659 4.8147486 3.843352 7.7550838-1.787933.0020112-3.575866.0080447-5.3637989-.0040224-.4002235-1.9407821-1.3856983-3.8393296-3.0630168-4.9675977-1.8321788-1.2509498-4.169162-1.3595531-6.3070391-1.1302794-2.3470391.2654749-4.5593296 1.5747486-5.87463686 3.5436872-1.61497207 2.3611173-2.05340782 5.2934078-2.14391062 8.0909497-.02815642 2.9282682.50480447 5.9993296 2.22636872 8.4328492 1.44804469 2.0473743 3.90167596 3.3284916 6.41162016 3.3365363 2.1157541.0905028 4.3682681-.313743 6.0455865-1.6893855 1.7718436-1.4218994 2.6487151-3.658324 2.9483799-5.8565363h5.3094972c-.4786592 3.2802235-1.7356424 6.5865922-4.2294972 8.8652514-2.2102793 2.0855866-5.2572067 3.0067039-8.2357542 3.2017877h-2.6648044c-3.31843578-.2172067-6.69117321-1.3856983-9.04223466-3.8131844-2.70905028-2.6869273-3.91575419-6.5242458-4.19731844-10.2509497v-3.670391c.29564246-3.7086034 1.37564246-7.5117319 3.88156425-10.3515084z"/><path d="m32.4241341 16.7329609c2.2746368-3.1414525 5.9450279-5.1546369 9.7823463-5.5669274 3.1776537-.3097207 6.526257-.0844693 9.4122905 1.3917319 2.5924023 1.2630167 4.7664805 3.3727374 6.0777654 5.9450279 1.8 3.4290503 2.2324022 7.4232402 1.8884916 11.2364246-.3539664 3.6663687-1.7336313 7.3468156-4.4125139 9.9472625-2.4556425 2.4596649-5.8867039 3.7669274-9.3258101 3.9559777h-2.6406704c-3.9962011-.2111732-7.9803352-1.9890503-10.4621229-5.1888268-2.5642458-3.2198883-3.4833519-7.4513967-3.4189944-11.4958659.0905028-3.5939665.9472626-7.2864805 3.0992179-10.2248045zm10.4681564-.9834637c-1.9830168.3318436-3.8353073 1.3555307-5.1687151 2.8598883-1.8422346 2.0473743-2.7050279 4.8107262-2.8699441 7.5217877-.2172067 3.1414525.2916201 6.4699441 2.113743 9.104581 1.6592179 2.4093855 4.5412291 3.9358659 7.4735196 3.8875978 3.2922905.1065921 6.5363128-1.7839107 8.1130726-4.6699442 1.5606704-2.7392179 1.858324-6.0053631 1.5526257-9.0925139-.3056983-2.8478213-1.4601118-5.7318436-3.6884916-7.6163129-2.0393297-1.7637989-4.8871509-2.4435754-7.5258101-1.9950838z" fill-rule="nonzero"/><path d="m74.7774302 16.2623464c2.2907262-2.8981006 5.8143016-4.7162011 9.4706145-5.1043576 3.1696089-.2956424 6.5141899-.0724022 9.3881564 1.4138548 3.1072626 1.5003352 5.5468157 4.2596648 6.7595529 7.479553 1.224805 3.1313967 1.49028 6.5705028 1.158436 9.8969833-.388156 3.6261452-1.787933 7.2643575-4.470838 9.8105028-2.4415643 2.4234637-5.8424581 3.6884916-9.2413408 3.8835754h-2.6225699c-1.7255866-.1347486-3.4531843-.4505028-5.0540782-1.1242458-2.9202234-1.1886034-5.3879329-3.4290503-6.84-6.2286034-1.8020111-3.4069273-2.2223463-7.3789944-1.8945251-11.1740782.3157542-3.1675977 1.3293855-6.3472625 3.3465922-8.8531843zm10.3213407-.5490503c-2.7794413.3881564-5.2793296 2.1760894-6.6288268 4.6236871-1.556648 2.7311732-1.8482681 5.9812291-1.5646927 9.0583241.2594413 2.4536312 1.1141899 4.9153072 2.7915084 6.7675977 1.7094972 1.880447 4.239553 3.0147486 6.7897206 2.960447 3.0911732.0824581 6.1360894-1.590838 7.7792179-4.2013408 1.8020112-2.8116201 2.1499442-6.2969833 1.8362011-9.5550838-.3016759-2.6969833-1.3233519-5.4321788-3.3506145-7.3106146-1.9991061-1.9327374-4.9233519-2.7472625-7.652514-2.3430167z" fill-rule="nonzero"/><path d="m114.550391 12.3727374c1.928715-1.0940782 4.187263-1.3796648 6.371397-1.3655866v5.5327375c-3.081118-.0764246-6.465922.6656983-8.573632 3.0791061-2.190167 2.4777654-2.646703 5.9369833-2.731173 9.1206704-.0181 4.7483799-.002011 9.498771-.010056 14.249162-1.725586-.0020112-3.451173 0-5.174748 0 .002011-10.4098324-.010056-20.8176536.006033-31.227486 1.623017.0100558 3.248045-.0040224 4.873073.0100558-.002011 2.2223464-.014078 4.4446928.006033 6.6670392 1.21676-2.3953073 2.847822-4.71419 5.233073-6.0656984z"/><path d="m132.383464 11.7713966c1.725586-.0140782 3.453184-.0040223 5.178771-.0060335.002011 10.4078213.002011 20.8156425 0 31.2234637-1.725587-.0020112-3.451174 0-5.174749 0-.004022-10.40581.002011-20.8116201-.004022-31.2174302z"/></g><path d="m0 .10055866c2.2122905-.00201117 4.42458101.00402235 6.63687151-.00402235v6.69117319c-2.2122905-.00201118-4.42458101 0-6.63687151-.00201118 0-2.22837988 0-4.45675977 0-6.68513966z" fill="#77cc6d" transform="translate(173.363128 59.201117)"/></g></svg>