<svg height="90" viewBox="0 0 180 90" width="180" xmlns="http://www.w3.org/2000/svg"><g fill="none" fill-rule="evenodd" transform="translate(0 23)"><path d="m3.89462687 21.6349254-.03492538-.459403h-3.85970149l.02149254.5167164c.23731343 5.7492537 4.14179104 9.558806 11.08477616 9.558806 6.622388 0 11.1259701-3.4164179 11.1259701-8.5880597 0-2.7958209-.9770149-4.7749254-2.838806-6.1253732-1.4328358-1.0397015-3.1441791-1.6262686-5.9838806-2.2370149l-.6241791-.1325373-.6188059-.1289552c-5.15820899-1.0719403-6.79343287-2.0059702-6.79343287-4.78208957 0-2.8719403 2.3641791-4.70059702 6.33134327-4.70059702 3.8597015 0 6.298209 2.34 6.4119403 6.02417909l.0152239.4808955h3.8319403l-.0116418-.5068656c-.1334328-5.74298511-4.0137313-9.60805974-10.2859702-9.60805974-6.14776114 0-10.20716413 3.67343284-10.20716413 8.42865672 0 2.78865672.9761194 4.73014922 2.84059702 6.02686572 1.4202985.9886567 3.06626865 1.5134328 5.96955221 2.0955223.2964833.0596838.593202.1181917.8901493.1755224 2.7465671.5391045 3.9582089.8722388 5.0641791 1.5107463 1.3728358.7925373 2.0534328 1.9244776 2.0534328 3.6779104 0 3.0447762-2.5773134 4.779403-7.0907463 4.779403-4.31999995 0-7.00119398-2.1510447-7.29134323-6.0062686zm26.40358213-21.138806v-.4961194h-3.8086568v30.7773134h3.8086568v-5.8074627l4.0101492-3.9080597 7.160597 9.517612.1486567.1970149h4.738209l-.6044776-.7961194-8.7447761-11.5280597 8.0650746-8.0328358.8507463-.84895524h-5.1761194l-.1459702.14686567-10.3020895 10.38358207zm35.8567164 20.9435821h.4701492l.0295523-.4674627c.015703-.2523453.0276446-.5049107.0358209-.7576119.0035821-.1289553.0053731-.2462687.0053731-.3501493 0-6.2579104-4.1597015-10.86805969-10.3065672-10.86805969-6.1352238 0-10.5062686 4.90746269-10.5062686 11.10716419 0 6.3797015 4.1731343 11.1474627 10.5465671 11.1474627 4.818806 0 8.5423881-2.8495523 9.8838806-7.1713433l.2005971-.6456716h-3.9940299l-.118209.3313432c-.841791 2.3659702-3.1226865 3.9358209-5.9328358 3.9358209-3.6716418 0-6.2328358-2.5137313-6.6940298-6.2614925h16.3808955zm-16.4883582-2.9731343c.642985-3.4155224 3.0958209-5.6820896 6.4352238-5.6820896 3.4414926 0 5.8173135 2.1922388 6.3367165 5.6820896h-12.7710448zm29.3050746-5.5629851h.4952239v-3.36895523h-4.6414926v-5.74656717h-3.8086567v5.74656717h-3.8480597v3.36895523h3.8480597v11.8692537c0 3.8937314 2.0220896 6.0044776 5.7331343 6.0044776.6474627 0 1.2062687-.0385074 1.6746269-.1038806.2901493-.0402985.4898508-.082388.6-.1128358l.3635821-.1002985v-3.5274627l-.601791.1298508c-.1764598.0357373-.3538355.066793-.5319403.0931343-.3797766.0576366-.7630712.0890542-1.1471642.0940298-1.6262687 0-2.2817911-.762985-2.2817911-2.6749253v-11.6713433zm11.8137313 18.3474627c5.2307463 0 8.9238806-3.3537314 9.8516419-8.0991045l.116418-.5955224h-3.812239l-.0967164.3707463c-.7943283 3.0277612-2.9507463 4.7731343-6.0591045 4.7731343-3.8776119 0-6.5534328-3.0985075-6.5534328-7.5564179 0-4.4928358 2.6704478-7.5976119 6.5534328-7.5976119 3.1083582 0 5.2647762 1.7462686 6.0591045 4.7740298l.0967164.3707463h3.812239l-.116418-.5955224c-.9277613-4.7462687-4.6208956-8.09910449-9.8516419-8.09910449-6.0761194 0-10.3719403 4.94238809-10.3719403 11.14746269 0 6.1701493 4.3020896 11.1071642 10.3719403 11.1071642zm17.0794029-30.75582092v-.49522388h-3.800597v30.7773134h3.800597v-12.4504477c0-3.6411941 2.210149-5.7779105 5.562985-5.7779105 3.202388 0 4.810746 1.86 4.810746 5.3811941v12.8471641h3.800597v-13.4041791c0-4.9746268-3.070746-8.27999997-8.13582-8.27999997-2.605971 0-4.700597.95820897-6.038508 2.33194027v-10.9289552z" fill="#000" fill-rule="nonzero" transform="translate(56.762687 5.208358)"/><path d="m9.90716418 1.34059701 12.79701492-1.34059701 12.7979105 1.34059701 9.9080597 13.17940299-22.7050747 26.2002985-22.7050746-26.2002985z" fill="#fdb300"/><path d="m9.19701493 0 13.50805967 26.041791-22.7050746-26.041791z" fill="#ea6c00" transform="translate(0 14.678507)"/><path d="m9.1961194 0 13.5089552 26.041791-22.7050746-26.041791z" fill="#ea6c00" transform="matrix(-1 0 0 1 45.41194 14.678507)"/><path d="m0 0h26.9623881l-13.4811941 26.041791z" fill="#fdad00" transform="translate(8.991045 14.678507)"/><path d="m13.2447761 0-12.54805968 1.35492537-.69671642 13.32358213z" fill="#fdd231" transform="translate(8.991045)"/><path d="m13.2447761 0-12.54805968 1.35492537-.69671642 13.32358213z" fill="#fdd231" transform="matrix(-1 0 0 1 35.946269 0)"/><path d="m0 13.258209 9.93402985-13.258209-.71283582 13.258209z" fill="#fdad00" transform="matrix(-1 0 0 1 45.41194 1.420299)"/><path d="m0 13.258209 9.93313433-13.258209-.71283582 13.258209z" fill="#fdad00" transform="translate(0 1.420298)"/><path d="m13.481194 0-13.481194 14.6785075h26.9623881z" fill="#feeeb7" transform="translate(8.991045)"/></g></svg>