<svg height="90" viewBox="0 0 180 90" width="180" xmlns="http://www.w3.org/2000/svg" xmlns:xlink="http://www.w3.org/1999/xlink"><linearGradient id="a" x1="50%" x2="50%" y1="0%" y2="100%"><stop offset="0" stop-color="#2dc8f3"/><stop offset="1" stop-color="#1497e2"/></linearGradient><g fill="none" fill-rule="evenodd" transform="translate(3 14)"><path d="m75.8883334 22.072c2.054 0 3.796.546 5.2 1.638s2.236 2.574 2.496 4.42h-2.054c-.26-1.352-.936-2.392-1.976-3.12-1.014-.702-2.236-1.04-3.692-1.04-2.158 0-3.822.754-4.992 2.262-1.092 1.404-1.638 3.25-1.638 5.564s.52 4.16 1.612 5.512c1.144 1.43 2.782 2.158 4.966 2.158 1.482 0 2.73-.39 3.77-1.17 1.092-.832 1.846-2.054 2.21-3.666h2.054c-.416 2.158-1.378 3.848-2.912 5.044-1.43 1.118-3.146 1.69-5.122 1.69-2.886 0-5.096-.962-6.63-2.86-1.404-1.716-2.08-3.952-2.08-6.708s.702-5.018 2.132-6.786c1.56-1.976 3.796-2.938 6.656-2.938zm15.7993333 5.122c2.002 0 3.614.676 4.81 2.08 1.144 1.326 1.716 2.99 1.716 5.018 0 2.002-.572 3.666-1.69 4.966-1.222 1.404-2.834 2.106-4.836 2.106-2.028 0-3.614-.702-4.81-2.106-1.144-1.3-1.716-2.964-1.716-4.966 0-2.028.572-3.692 1.716-5.018 1.196-1.404 2.782-2.08 4.81-2.08zm0 1.742c-1.43 0-2.548.546-3.328 1.638-.728.988-1.066 2.21-1.066 3.718 0 1.482.338 2.704 1.066 3.692.78 1.092 1.898 1.638 3.328 1.638 1.404 0 2.522-.546 3.354-1.638.702-.988 1.066-2.236 1.066-3.692 0-1.508-.364-2.73-1.066-3.718-.832-1.092-1.95-1.638-3.354-1.638zm8.7793333-6.864h2.054v18.928h-2.054zm5.243333 0h2.054v18.928h-2.054zm10.365334 5.122c2.158 0 3.796.728 4.888 2.184.988 1.3 1.508 3.146 1.56 5.486h-10.608c.104 1.508.494 2.678 1.222 3.51s1.742 1.248 3.016 1.248c1.092 0 2.002-.286 2.678-.832.572-.468 1.014-1.17 1.352-2.106h2.08c-.312 1.3-.91 2.34-1.82 3.172-1.118.988-2.548 1.508-4.29 1.508-1.924 0-3.484-.65-4.628-1.898-1.196-1.3-1.768-3.016-1.768-5.2 0-1.976.546-3.64 1.69-4.966 1.144-1.404 2.678-2.106 4.628-2.106zm.052 1.742c-1.196 0-2.158.39-2.886 1.17s-1.144 1.82-1.274 3.146h8.398c-.26-2.886-1.69-4.316-4.238-4.316zm13.771333-1.742c1.664 0 2.99.39 4.004 1.17 1.04.806 1.664 2.028 1.898 3.666h-2.054c-.182-1.04-.598-1.82-1.248-2.34-.676-.52-1.534-.754-2.6-.754-1.3 0-2.34.494-3.094 1.482-.728.962-1.092 2.262-1.092 3.9s.338 2.938 1.066 3.874c.702.936 1.742 1.43 3.094 1.43 2.288 0 3.614-1.17 3.926-3.484h2.08c-.312 1.716-.962 3.042-2.002 3.926-1.014.858-2.34 1.3-4.004 1.3-2.028 0-3.588-.676-4.706-2.028-1.066-1.274-1.586-2.938-1.586-4.992s.52-3.718 1.586-5.018c1.144-1.43 2.73-2.132 4.732-2.132zm11.145333-3.978v4.342h3.328v1.742h-3.328v8.554c0 .494.078.858.286 1.066.182.208.52.338.988.338h1.716v1.742h-2.028c-1.092 0-1.898-.286-2.366-.858-.442-.52-.65-1.274-.65-2.288v-8.554h-2.704v-1.742h2.704v-3.484zm12.826667-.78h2.132v11.466c0 1.82.39 3.198 1.222 4.134.858.962 2.21 1.456 4.056 1.456 1.82 0 3.172-.494 4.056-1.456.806-.936 1.222-2.314 1.222-4.134v-11.466h2.132v11.44c0 2.418-.624 4.264-1.846 5.538-1.274 1.3-3.12 1.95-5.564 1.95s-4.29-.65-5.538-1.924c-1.248-1.3-1.872-3.146-1.872-5.564zm17.853333 0h2.106v18.564h-2.106z" fill="#272e2e"/><path d="m22.7715807 1.35305375c4.2895252-1.3327204 8.8596231-1.61653049 13.3120962-1.13200299 2.6287505.33237075 5.2391559.91401957 7.7157497 1.86904593 1.8625712.73704294 3.6496035 1.6586164 5.3384355 2.73558397 1.5496246 1.05538506 3.0906163 2.14206477 4.4416819 3.4467279.2600693.23848681.3960391.5935192.3323707.94639335-.0215825.43704596-.3938809.72409343-.6712163 1.01653649-.4046721.3906436-.7575463.8352434-1.192434 1.1935132-.2438824.2104295-.6053896.3032344-.8902788.1165456-.5676202-.3021552-1.0079035-.7866827-1.4956684-1.1956714-2.1453021-1.78811152-4.5517527-3.27838429-7.1481295-4.31434508-1.920844-.76186284-3.9150685-1.34674904-5.9556954-1.68127804-2.0978206-.38740617-4.2431228-.4219382-6.3679215-.32050037-5.4431107.33884551-10.754568 2.3902637-15.0354602 5.76576929-.5751741.4748154-1.1859593.9097031-1.698544 1.4557407-2.6395418 2.3719186-4.76002406 5.2952705-6.27943323 8.4970368-3.40787936 6.9484912-3.67658169 15.3505649-.74891332 22.5116439.7564672 1.8431469 1.69854405 3.610755 2.8122019 5.2639758.52121778.8611424 1.19998795 1.6078975 1.82588095 2.3924219.7284099.780208 1.4168922 1.6003437 2.2208409 2.3071711.7186978.7338055 1.5571786 1.329483 2.3611273 1.964009.8115026.5535915 1.5917106 1.1600602 2.4658025 1.6176096.9420769.5600663 1.9283979 1.0391982 2.9093233 1.5280422 2.3136457.9852418 4.7503119 1.7114935 7.2528047 2.0050157 4.5959969.6388425 9.4067398.1726602 13.6833154-1.6823571 3.0398975-1.3661733 5.8844732-3.1488892 8.4722169-5.2477889.3852479-.2870475.8212148-.6766119 1.3402743-.5395629.4489163.0766179.7014318.4920813 1.0132991.7791288.3701402.411147.8071862.7683376 1.1179744 1.2291243.0928048.3604281.0766179.7953158-.2071922 1.0694137-.8071861.7359638-1.587394 1.5053806-2.4647233 2.1604099-.6690581.5773324-1.4244461 1.0381191-2.1539352 1.5312796-2.0859502 1.3370369-4.3111077 2.4776729-6.6797889 3.2222697-2.9384596 1.0143783-6.0301551 1.5701281-9.133721 1.7007023-5.257501.2125878-10.5754331-.8395599-15.3052416-3.1596804-.7899201-.3323708-1.5118553-.7953157-2.2629268-1.2032253-.7143813-.3798523-1.3694107-.857905-2.04926-1.2938719-.7672585-.4758945-1.4481869-1.0715719-2.1690429-1.6111348-.4694197-.3474786-.8740919-.7704959-1.3025049-1.1665351-.94423508-.8255312-1.79242798-1.7557377-2.6373835-2.6805485-.39388093-.4985561-.79315749-.9938749-1.19027579-1.4891937-1.34782816-1.8215644-2.51760056-3.7758612-3.46399391-5.8348333-1.84746341-3.8945651-2.79709414-8.1938024-2.8747912-12.4995145-.05611454-2.5693986.162948-5.154984.73596381-7.6628725.17913489-.986321.51474302-1.9337935.78236623-2.8974528 1.40502183-4.1103903 3.5557196-7.984452 6.44130206-11.2401746.5762532-.5762532 1.08344233-1.21833309 1.67804067-1.77516202.48992313-.44352072.97013413-.89783269 1.45789903-1.34351166.6399216-.51258476 1.2841597-1.02085303 1.9327143-1.52372566.6151017-.43272946 1.2474695-.83848077 1.8679668-1.26365635 1.5172509-.93020646 3.1024868-1.74386734 4.7276503-2.46796077 1.0456729-.36906103 2.0622094-.82445213 3.139177-1.09855009zm-4.6639818 19.29692805c.1478402-.1489194.317263-.3075509.5438794-.2946014 1.0435147-.0118703 2.0891876-.0064747 3.1337814-.0032373.3809314-.0248199.7262517.351795.6906405.7262517.0043165 3.9949238 0 7.9887685.0010792 11.9836923.008633.8999909-.0334529 1.8021401.069064 2.6988937.1856097 1.3057422.9032283 2.5176005 1.9359517 3.3344988.9539473.6917196 2.1571726 1.0003496 3.3280241.8935162 1.7050188-.0615102 3.3269449-1.1546647 4.0132689-2.7172389.3798523-.7737332.5201387-1.6391921.5266135-2.4949389.0043165-4.5312493-.0010792-9.0624987.0021582-13.593748-.0215825-.3550324.1823723-.7834454.5730158-.8212148.5287717-.0334529 1.0607807-.0053956 1.5906315-.0107913.5374047.0021583 1.0758884-.008633 1.6143722.0010792.4338086-.017266.8201357.403593.7791289.8341642-.0032374 4.7233338.0075539 9.4477467-.0064748 14.1710804-.0852509 2.5251544-1.1773263 5.0405967-3.121911 6.6841054-.7931575.7478342-1.731997 1.3284039-2.7334257 1.7514212-2.0114906.7532298-4.2549932.8125817-6.3301521.291364-1.2712103-.3539533-2.4593278-1.0079036-3.4283828-1.903578-1.2237287-1.0219321-2.1895463-2.3632856-2.7312675-3.8643496-.4823692-1.2625772-.5676201-2.6319879-.5589871-3.971183-.0010792-4.3510354.0021582-8.7031498-.0021583-13.0541852-.0064747-.2190625.034532-.4359668.11115-.6410007zm22.7706341.5298508c-.0269782-.3776941.2201416-.8244522.6388425-.8201356.866538-.0258991 1.7341552-.0010792 2.6006932-.0118704.2568319.0043165.5201387-.0194243.7726541.0442441.2417242.1262577.4305712.3884853.4068304.6722954.0097122 5.9459833.0010792 11.8919666.0053957 17.8379499-.0021583 1.5064597.0064747 3.0139985-.0043165 4.5215373.0280572.3884853-.3787732.6798492-.7435177.6388425-.9744507.0021582-1.9499804.0032373-2.924431-.0010792-.3647446.0312947-.7499925-.2428033-.7445969-.6291303-.0226616-.9463934-.0032373-1.894945-.008633-2.8413383.0010792-6.4704385-.0021582-12.940877.0010792-19.4113154z" fill="url(#a)"/></g></svg>