<svg height="90" viewBox="0 0 180 90" width="180" xmlns="http://www.w3.org/2000/svg"><g fill="none" fill-rule="evenodd"><g fill="#0b2239" transform="translate(45.240642 34.737968)"><path d="m.19122995 2.78342246c0-1.21187166.95775401-2.17122995 2.17026738-2.17122995h11.04962567c1.0992513 0 1.973262.87529412 1.973262 1.97326204 0 1.10053475-.8740107 1.97294117-1.973262 1.97294117h-8.87935829v4.20032086h7.61037429c1.1002139 0 1.9735829.87401069 1.9735829 1.97326202 0 1.1005348-.8736898 1.9729412-1.9735829 1.9729412h-7.61037429v5.6387166c0 1.2105882-.95807487 2.1693048-2.17026738 2.1693048-1.21251337 0-2.17026738-.9590375-2.17026738-2.1693048z"/><path d="m16.9552941 2.61465241c0-1.21315508.957754-2.17122995 2.1702674-2.17122995 1.2115508 0 2.1699465.95775401 2.1699465 2.17122995v13.78299469h8.0339038c1.0992513 0 1.9729411.8746524 1.9729411 1.9742246 0 1.0989304-.8736898 1.973262-1.9729411 1.973262h-10.2038503c-1.2125134 0-2.1702674-.9580749-2.1702674-2.1715508z"/><path d="m32.3714439 17.5540107 6.8785026-15.53165776c.4787166-1.07197861 1.3524064-1.71882353 2.5366845-1.71882353h.2541177c1.1826738 0 2.02877.64716578 2.5074866 1.71882353l6.8788235 15.53165776c.1398931.3102674.2249198.5919786.2249198.8736898 0 1.155722-.9012834 2.0858824-2.0579679 2.0858824-1.0142246 0-1.6905882-.5919786-2.0852406-1.4935829l-1.3257754-3.0997861h-8.6820321l-1.38 3.2412834c-.3670589.8441711-1.0992514 1.3520856-2.0011765 1.3520856-1.1284492 0-2.002139-.9016043-2.002139-2.0294118 0-.3109091.1126203-.619893.2537968-.9301604zm12.2056684-5.4686631-2.7340107-6.51240642-2.735615 6.51240642z" fill-rule="nonzero"/><path d="m55.7852406 4.61614973h-4.1724064c-1.1002139 0-2.0018182-.90256684-2.0018182-2.00149732 0-1.10021391.9019252-2.00213904 2.0018182-2.00213904h12.6843851c1.0992513 0 2.0011764.90192513 2.0011764 2.00213904 0 1.09893048-.9019251 2.00149732-2.0011764 2.00149732h-4.1714439v13.72780747c0 1.2105883-.9593583 2.1693048-2.1702674 2.1693048-1.2125133 0-2.1702674-.9590374-2.1702674-2.1693048z"/></g><g fill="#69e781" transform="translate(112.941177 34.737968)"><path d="m.1973262 2.61465241c0-1.21315508.95775401-2.17122995 2.17122995-2.17122995 1.21090909 0 2.16930481.95775401 2.16930481 2.17122995v15.72962569c0 1.2105882-.95839572 2.1693048-2.16930481 2.1693048-1.21315508 0-2.17122995-.9590374-2.17122995-2.1693048z"/><path d="m7.10117647 10.535615v-.0574332c0-5.60887699 4.22823533-10.20352939 10.28823533-10.20352939 2.9582887 0 4.9601069.7886631 6.5958288 2.00149732.4498396.33818182.8460963.95775401.8460963 1.71882353 0 1.18459893-.957754 2.1144385-2.1436364 2.1144385-.5919786 0-.9853476-.22524064-1.2975401-.42320855-1.2115508-.90256685-2.479893-1.40951872-4.0305882-1.40951872-3.3253476 0-5.7211765 2.7628877-5.7211765 6.14566841v.0555081c0 3.3824599 2.3393583 6.2018181 5.7211765 6.2018181 1.8336898 0 3.0455615-.5634224 4.2863102-1.551016.3365775-.2804278.7886631-.4783957 1.2959358-.4783957 1.1002139 0 2.0294117.9025668 2.0294117 2.0008556 0 .6757219-.3388235 1.2128342-.7321925 1.551016-1.7772192 1.5510161-3.8618181 2.4811765-7.0196791 2.4811765-5.8058824.0003209-10.11818183-4.4823529-10.11818183-10.1477005z"/><path d="m25.9921925 10.535615v-.0574332c0-5.60887699 4.4245989-10.20352939 10.5131551-10.20352939 6.0901604 0 10.4573262 4.53786096 10.4573262 10.14802139v.055508c0 5.6095187-4.4229947 10.2054546-10.5141177 10.2054546-6.0875935 0-10.4563636-4.5381819-10.4563636-10.1480214zm16.4326203 0v-.0574332c0-3.38149731-2.4786096-6.2008556-5.9762567-6.2008556-3.4950802 0-5.9194652 2.7628877-5.9194652 6.1456685v.055508c0 3.3824599 2.4802139 6.2018182 5.9762567 6.2018182 3.4976471-.0003209 5.9194652-2.762246 5.9194652-6.1447059z" fill-rule="nonzero"/><path d="m49.4865241 2.66983957c0-1.21090909.9593583-2.16994652 2.1712299-2.16994652h.4495187c1.0434225 0 1.6629947.50791444 2.2552941 1.26834224l8.3720856 10.99411761v-10.1765775c0-1.18459893.9593583-2.14235294 2.1436364-2.14235294 1.1817112 0 2.1404278.95775401 2.1404278 2.14235294v15.7007487c0 1.2128342-.9583957 2.1705882-2.1702674 2.1705882h-.1398931c-1.0450267 0-1.6645989-.5072727-2.2568983-1.2683422l-8.6810696-11.38780753v10.57026733c0 1.1829947-.957754 2.1420321-2.1426738 2.1420321-1.1817112 0-2.1410695-.9590374-2.1410695-2.1420321v-15.70139033z"/></g><g transform="translate(0 28)"><path d="m15.5204278 18.0118717h4.0161497l3.5794653-5.9477006h-11.1847059l-3.68919786-6.11582885h18.55347596l3.5791444-5.94834225h-27.40010699c-1.07358289 0-2.06278075.57786096-2.59026738 1.51315508-.52748663.93272727-.511123 2.0797861.04299465 2.99775401l16.16470592 26.79176471c.5383957.8922995 1.5044919 1.4361497 2.5469518 1.4361497 1.0414974 0 2.0075936-.5438502 2.5459893-1.4361497l.9298396-1.5413904z" fill="#0b2239"/><g fill="#69e781" transform="translate(20.534759)"><path d="m9.48930481 5.94834225h.00994653v.00128342l6.94716576.00128342.8679145-1.44c.5541176-.91796791.5704812-2.06502674.0426737-2.99775401-.5268449-.93529412-1.5160427-1.51315508-2.5893048-1.51315508h-1.6986096z"/><path d="m7.79390374 8.7773262-7.56128342 12.5550802 3.46331551 5.7490909 11.04481287-18.3041711z"/></g></g></g></svg>