<svg height="90" viewBox="0 0 180 90" width="180" xmlns="http://www.w3.org/2000/svg"><g fill="none" fill-rule="evenodd" transform="translate(0 17)"><path d="m27.1111111 55.5296c-14.6555555 0-26.57777777-11.8496-26.57777777-26.4208v-2.2288c0-14.5712 11.92222227-26.4208 26.57777777-26.4208h125.7888889c14.655556 0 26.577778 11.8496 26.577778 26.4208v2.2288c0 14.5712-11.922222 26.4208-26.577778 26.4208z" fill="#3f444f"/><path d="m91.7333333 51.968h-65.0777777c-12.5777778 0-22.77777782-10.2816-22.77777782-22.9712v-2.0048c0-12.6784 10.20000002-22.96 22.77777782-22.96h61.4888888" fill="#fff"/><g fill="#5c6c7d" transform="translate(17.777778 13.44)"><path d="m10.4888889 18.2336v-2.1056c.0222222-.896.4111111-1.344 1.1777778-1.344.7666666 0 1.1444444.504 1.1444444 1.512 0 2.3856-.3 4.0544-.9111111 4.9952-.8222222 1.2768-2.16666667 1.904-4.04444444 1.904-1.73333334 0-2.95555556-.56-3.68888889-1.68-.54444445-.8176-.81111111-2.1952-.81111111-4.144v-7.896c0-.4592-.21111112-.6944-.63333334-.6944h-1.06666666c-.35555556 0-.65555556-.112-.88888889-.3472-.22414068-.21579498-.35186212-.51400256-.35395635-.82642711-.00209422-.31242454.1216179-.6123446.34284524-.83117289.23333333-.2464.48888888-.3584.76666666-.3584h1.27777778c.36666667 0 .55555556-.2128.55555556-.6272v-3.3824c0-.8288.42222222-1.2544 1.27777777-1.2544.77777778 0 1.17777778.4144 1.17777778 1.2544v3.5168c0 .3248.2.4928.58888889.4928h3.55555556c.82222224 0 1.24444444.3808 1.24444444 1.1536 0 .8176-.4444444 1.2208-1.33333333 1.2208h-3.58888889c-.3 0-.45555556.2352-.45555556.6944v8.0864c0 2.3072.75555556 3.4496 2.27777778 3.4496s2.3333333-.9296 2.3888889-2.7888zm9.2666667-5.0064v4.2784c0 1.0976.0111111 1.7472.0333333 1.9376.1111111.9856.4 1.4784.8777778 1.4784.1111111 0 .3777777-.0448.8111111-.1456.1111111-.0336.2777778-.056.4888889-.056.8222222 0 1.2444444.3584 1.2444444 1.0752 0 .3024-.1333333.56-.4111111.7728s-.6222222.3248-1.0333333.3248c-.3444445 0-.8777778-.0448-1.5888889-.1456s-1.2444445-.1456-1.5888889-.1456c-.5666667 0-1.2.0448-1.9.1344-.8555556.112-1.4222222.168-1.7.168-.8777778 0-1.3111111-.3696-1.3111111-1.0976 0-.7168.3666666-1.0752 1.1222222-1.0752.1777778 0 .4333333.0336.7777778.0896.3444444.056.6.0784.7777778.0784.5222222 0 .8444444-.6944.9555555-2.1056v-8.4112c-.1111111-1.3776-.4444444-2.072-.9888889-2.072-.1777778 0-.4222222.0448-.7444444.112-.3222222.0784-.5555556.112-.7111111.112-.7888889 0-1.1888889-.3472-1.1888889-1.0528 0-.7392.4777778-1.12 1.4333333-1.12.4111111 0 .7111111.0112.8777778.0336.7.0896 1.1444444.1344 1.3333333.1344.1777778 0 .4444445-.0224.8-.0784.3555556-.056.6222222-.0784.8-.0784.6333334 0 .9444445.4256.9444445 1.288 0 .0896-.0111111.224-.0222223.392-.0222222.1792-.0222222.3136-.0222222.392-.0222222.1792-.0333333.8624-.0555555 2.0384 0 .8848-.0111111 1.8032-.0111111 2.744zm-1.6888889-8.6128c-.5 0-.9333334-.1792-1.2888889-.5376-.3555556-.3584-.5333334-.7952-.5333334-1.2992s.1777778-.9296.5333334-1.288c.3555555-.3472.7888889-.5264 1.2888889-.5264s.9333333.1792 1.2888889.5264c.3555555.3472.5333333.784.5333333 1.288s-.1777778.9408-.5333333 1.2992c-.3666667.3584-.7888889.5376-1.2888889.5376zm11.5111111 2.7104v.9408c1.3-1.6688 3.0444444-2.4976 5.2222222-2.4976 1.1777778 0 2.2888889.3024 3.3222222.9072 1.0444445.6048 1.7555556 1.3552 2.1222222 2.2512.3.7504.4555556 1.7248.4555556 2.9232v6.2496c0 .9408.0111111 1.5008.0333333 1.68.1111111.7392.4 1.12.8777778 1.12.2573254-.0037099.5138449-.0299418.7666667-.0784.3111111-.056.5333333-.0896.6666666-.0896.2777778 0 .5222223.1008.7333334.2912.2111111.2016.3111111.4368.3111111.728 0 .3248-.1333333.6048-.3888889.8288-.2666667.2128-.5777778.3248-.9444444.3248-.3 0-.8-.0448-1.5-.1344s-1.3444445-.1344-1.9555556-.1344c-.5666667 0-1.0333333.0224-1.4.0672-1.0888889.1344-1.6666667.2016-1.7333333.2016-.8666667 0-1.3-.3808-1.3-1.1536 0-.672.3777777-1.0192 1.1333333-1.0192.1777778 0 .3777778.0224.6.0672.4222222.0896.6888889.1344.8.1344.5333333 0 .8222222-.6048.8666667-1.8144v-6.1824c0-1.1648-.0555556-1.96-.1666667-2.3968-.2-.8288-.6222222-1.4784-1.2666667-1.9376-.7111111-.504-1.5333333-.7504-2.4333333-.7504-1.7333333 0-2.9777778.6272-3.7333333 1.8704-.5222223.8512-.7777778 2.3184-.7777778 4.3792v4.368c0 .9632.0666667 1.624.2 1.9712s.3666667.5264.7222222.5264c.1777778 0 .4111111-.0448.7222222-.112.3-.0784.5555556-.112.7555556-.112.6777778 0 1.0111111.3696 1.0111111 1.0976 0 .7168-.4333333 1.0752-1.3 1.0752-.1777778 0-.7444444-.0672-1.7-.2016-.4777778-.0672-1.0111111-.1008-1.6-.1008-.4555556 0-1.0666667.0448-1.8222222.1344-.9555556.112-1.5.168-1.6333334.168-.9111111 0-1.3666666-.3696-1.3666666-1.12 0-.7056.3555555-1.0528 1.0666666-1.0528.1111112 0 .3111112.0336.6111112.1008s.5888888.1008.8777777.1008c.6666667 0 1.0111111-.6384 1.0333334-1.904v-8.7808c-.0444445-.7504-.1333334-1.2544-.2777778-1.5344-.1444445-.2688-.3888889-.4144-.7444445-.4144-.1555555 0-.3777777.0336-.6777777.1008s-.5222223.1008-.6777778.1008c-.8 0-1.2-.3584-1.2-1.064 0-.7392.4888889-1.0976 1.4666667-1.0976.1333333 0 .2333333.0112.3222222.0336l1.2111111.1344c.3444444 0 .6555555-.0336.9111111-.0784.5666667-.056.8555556-.0784.8777778-.0784.5888889-.0336.9.3024.9.9632z" fill-rule="nonzero"/><path d="m49.8333333 9.4864 3.7555556 11.1104 3.9777778-10.9536c.1111111-.3136.1666666-.5488.1666666-.728 0-.3696-.2444444-.56-.7444444-.56-.2555556 0-.4666667.0224-.6222222.0672-.3444445.0448-.5777778.0672-.6888889.0672-.7222222 0-1.0777778-.3472-1.0777778-1.0528 0-.7392.4666667-1.12 1.4-1.12.1333333 0 .3444444.0224.6555556.0672l1.1777777.168c.3.0448.6333334.0672.9777778.0672.3666667 0 .9111111-.0448 1.6333333-.1456.7222223-.1008 1.2555556-.1456 1.6333334-.1456.9333333 0 1.4.3696 1.4 1.0976 0 .7168-.3555556 1.064-1.0777778 1.064-.2222222 0-.3777778-.0224-.4888889-.0672-.1924808-.05326364-.3897547-.08703097-.5888889-.1008-.4111111 0-.8333333.56-1.2777778 1.68l-4.4333333 11.1776c-.9777778 2.4752-1.9 4.2784-2.7777778 5.3872-1.4777777 1.904-3.3333333 2.8672-5.5444444 2.8672-1.3222222 0-2.4444445-.3472-3.3444445-1.0192-.9-.6832-1.3555555-1.5008-1.3555555-2.464 0-.6832.2-1.232.5888889-1.6576s.9-.6384 1.5333333-.6384c.5 0 .9111111.1456 1.2444445.448.3222222.2912.4888888.6608.4888888 1.0976 0 .7056-.3222222 1.1536-.9444444 1.344.3222222.4816.9444444.728 1.8555556.728 1.1555555 0 2.1888888-.4368 3.1111111-1.2992.9222222-.8624 1.3888889-1.8368 1.3888889-2.912 0-.5488-.2888889-1.568-.8777778-3.0576l-3.5888889-9.1392-.3888889-1.0528c-.3666667-.9856-.7888889-1.4784-1.2777778-1.4784-.1333333 0-.3666666.0336-.7.0784-.3333333.056-.5555555.0784-.6666666.0784-.7666667 0-1.1444445-.3472-1.1444445-1.0528 0-.7392.5-1.12 1.5-1.12.3222222 0 .5777778.0112.7555556.0336l1.3.1904h.2666666c.1555556.0224.2777778.0336.3888889.0336.7777778 0 1.6222222-.0448 2.5111111-.1568.6777778-.0784 1.1222223-.112 1.3333334-.112.9111111 0 1.3666666.3584 1.3666666 1.0864s-.4111111 1.0864-1.2444444 1.0864c-.1333333 0-.3333333-.0224-.6222222-.0672-.2777778-.0448-.4888889-.0672-.6222223-.0672-.3 0-.4555555.1568-.4555555.4592.0222222.2016.0666667.4144.1444444.6832z"/></g><path d="m6.47777778 4.8496v1.064c1.23333333-1.7248 2.91111111-2.5984 5.05555552-2.5984 2.2 0 3.9555556.7616 5.2555556 2.296s1.9444444 3.6064 1.9444444 6.2272c0 2.8224-.6888889 5.0624-2.0666666 6.7424-1.3777778 1.68-3.2222223 2.52-5.5333334 2.52-1.91111108 0-3.46666663-.6832-4.65555552-2.0272v2.7664c0 .84.02222222 1.3888.06666666 1.6352.13333334.6832.45555556 1.0304.95555556 1.0304.15555556 0 .37777778-.0336.68888889-.1008s.53333333-.1008.68888889-.1008c.7 0 1.05555555.3696 1.05555555 1.0976s-.46666666 1.0976-1.37777777 1.0976c-.33333334 0-.82222223-.0448-1.47777778-.1344-.48888889-.0672-1.21111111-.1008-2.17777778-.1008-.52222222 0-.96666667.0224-1.32222222.0672-.87777778.112-1.45555556.168-1.74444445.168-.37777777 0-.7-.112-.95555555-.3472-.25555556-.2352-.38888889-.504-.38888889-.8064 0-.6944.36666667-1.0528 1.11111111-1.0528.13333333 0 .33333333.0336.62222222.0896.36666667.0784.64444445.112.81111111.112.41111111 0 .66666667-.2128.76666667-.6496s.15555556-1.6352.17777778-3.6064v-12.8464c-.02222222-1.0192-.3-1.5344-.85555556-1.5344-.15555555 0-.38888889.0336-.7.112-.32222222.0784-.55555555.112-.73333333.112-.81111111 0-1.21111111-.3696-1.21111111-1.0976 0-.7056.47777778-1.064 1.45555555-1.064.24444445 0 .51111111.0112.78888889.0336.55555556.0448.95555556.0672 1.22222222.0672.2 0 .48888889-.0224.85555556-.0448.36666667-.0336.64444444-.0448.82222222-.0448.57777778-.0112.85555556.3024.85555556.9184m.5 4.0656c-.2.8624-.31111111 1.9152-.33333334 3.1584 0 .0896-.01111111.2576-.03333333.4928v.4704c0 1.4896.12222222 2.5648.36666667 3.248.24444444.672.72222222 1.2768 1.44444444 1.8144.71111111.5264 1.59999998.7952 2.66666668.7952 1.5888889 0 2.8222222-.5824 3.6888889-1.7472.8777778-1.1648 1.3111111-2.8224 1.3111111-4.9728 0-4.4352-1.5666667-6.664-4.7-6.664-1.0555556 0-2.00000001.3248-2.83333334.9632-.83333334.6496-1.35555556 1.4672-1.57777778 2.4416m18.32222222-4.0096v.952c1.3222222-1.68 3.0777778-2.5312 5.2777778-2.5312 1.1888889 0 2.3111111.3024 3.3666666.9184 1.0555556.616 1.7777778 1.3664 2.1444445 2.2848.3111111.7504.4666667 1.7472.4666667 2.968v6.328c0 .952.0111111 1.5232.0333333 1.6912.1111111.7504.4111111 1.1312.8888889 1.1312.2573254-.0037099.5138449-.0299418.7666666-.0784.3222223-.056.5444445-.0784.6777778-.0784.2888889 0 .5333334.1008.7444445.3024s.3111111.448.3111111.728c0 .336-.1333334.616-.4.84-.2666667.224-.5888889.336-.9555556.336-.3111111 0-.8111111-.0448-1.5222222-.1344-.7-.0896-1.3666667-.1344-1.9777778-.1344-.5777778 0-1.0444444.0224-1.4222222.0672-1.1.1344-1.6777778.2016-1.7444444.2016-.8777778 0-1.3222223-.392-1.3222223-1.1648 0-.6832.3777778-1.0304 1.1444445-1.0304.1777778 0 .3777778.0224.6.0672.4222222.0896.7.1344.8111111.1344.5333333 0 .8333333-.6048.8777778-1.8368v-6.2608c0-1.176-.0555556-1.9824-.1666667-2.4304-.2-.84-.6222222-1.5008-1.2888889-1.96-.7235891-.50636912-1.5858614-.77260151-2.4666667-.7616-1.7555555 0-3.0111111.6272-3.7777777 1.8928-.5222223.8624-.7888889 2.3408-.7888889 4.424v4.424c0 .9744.0666666 1.6464.2 1.9936.1333333.3584.3777778.5376.7333333.5376.1777778 0 .4222222-.0448.7222222-.1232.3111111-.0784.5666667-.112.7555556-.112.6888889 0 1.0222222.3696 1.0222222 1.12 0 .7168-.4444444 1.0864-1.3222222 1.0864-.1777778 0-.7444445-.0672-1.7111111-.2016-.4888889-.0672-1.0222222-.1008-1.6222222-.1008-.4666667 0-1.0777778.0448-1.8555556.1344-.9666667.112-1.5111111.168-1.6444444.168-.9222223 0-1.3888889-.3808-1.3888889-1.1312 0-.7056.3555555-1.064 1.0777777-1.064.1111112 0 .3222223.0336.6222223.1008s.6.1008.8888889.1008c.6666666 0 1.0222222-.6496 1.0444444-1.9264v-8.8816c-.0444444-.7504-.1444444-1.2656-.2888889-1.5456-.1444444-.28-.4-.4144-.7555555-.4144-.1555556 0-.3888889.0336-.6888889.1008s-.5333334.1008-.6888889.1008c-.8111111 0-1.2111111-.3584-1.2111111-1.0752 0-.7392.5-1.12 1.4777777-1.12.1333334 0 .2444445.0112.3333334.0336l1.2222222.1344c.3555556 0 .6666667-.0336.9333333-.0784.5666667-.056.8666667-.0784.8888889-.0784.6555556-.0672.9777778.2688.9777778.952m24.0666667-1.5792c.5666666 0 1.2222222.0896 1.9444444.2688.1111111-2.1728 1.3666667-3.2592 3.7666667-3.2592 1.0111111 0 1.8555555.2688 2.5444444.7952.6777778.5376 1.0222222 1.2096 1.0222222 2.0272 0 .5264-.1666666.9856-.5111111 1.3664-.3444444.3808-.7444444.5712-1.2.5712-.3555555 0-.6555555-.1232-.9222222-.3696-.2504235-.21485772-.3929565-.53093907-.3888889-.8624 0-.3584.2444445-.7168.7222222-1.0976-.3555555-.448-.8111111-.6608-1.3555555-.6608-1.1666667 0-1.7555556.728-1.7777778 2.1952 1.6666667 1.1312 2.5111111 2.6544 2.5111111 4.5584 0 1.5344-.5777778 2.8-1.7222222 3.8304-1.1555556 1.0192-2.5888889 1.5344-4.3222222 1.5344-1.2222222 0-2.4777778-.2912-3.7888889-.8624-.3555556-.1568-.6555556-.2352-.8888889-.2352-.3111111 0-.5888889.1344-.8333333.4144-.2444445.28-.3666667.6048-.3666667.9856 0 1.1536 1.1666667 1.7248 3.4777778 1.7248h1.2c2.1 0 3.8.2016 5.1111111.5936 1.2111111.3808 2.1777778.9632 2.8888889 1.7584s1.0666666 1.6912 1.0666666 2.688c0 1.6128-.7444444 2.8896-2.2222222 3.8304-1.4888889.9408-3.5 1.4112-6.0222222 1.4112-2.5333333 0-4.5222222-.448-5.9555556-1.3328-1.4444444-.8848-2.1666666-2.1056-2.1666666-3.6624 0-1.792 1-3.0688 3-3.8304-1.8333334-.7056-2.7444445-1.7696-2.7444445-3.192 0-1.5568.9111111-2.6208 2.7444445-3.192-.5777778-.7728-.8555556-1.68-.8555556-2.7328 0-1.512.5777778-2.7664 1.7333334-3.7632 1.1222222-1.008 2.5666666-1.5008 4.3111111-1.5008m.1111111 15.1088c-1.7666667 0-3.1555556.2688-4.1777778.7952-1.0111111.5376-1.5222222 1.2544-1.5222222 2.1616s.5 1.624 1.4888889 2.1504c1 .5264 2.3333333.784 4.0111111.784 1.7666666 0 3.1666666-.2688 4.1888889-.7952 1.0222222-.5376 1.5333333-1.2432 1.5333333-2.128 0-.9296-.4888889-1.6576-1.4555556-2.184-.9666666-.5264-2.3222222-.784-4.0666666-.784m-.0111111-12.9136c-.9666667 0-1.7888889.2912-2.4777778.8624-.6777778.5824-1.0555556 1.2992-1.1222222 2.1616v.2016c0 .9744.3333333 1.7696.9888889 2.3632.6555555.5936 1.5222222.896 2.5777777.896 1.1 0 2-.3024 2.6888889-.896.6888889-.6048 1.0333334-1.3664 1.0333334-2.296 0-.952-.3444445-1.7472-1.0555556-2.3632-.7-.616-1.5777778-.9296-2.6333333-.9296" fill="#fff" fill-rule="nonzero" transform="translate(101.111111 15.68)"/></g></svg>