<svg height="90" viewBox="0 0 180 90" width="180" xmlns="http://www.w3.org/2000/svg"><path d="m1 32.392h7.28c3.2106827 0 5.6559916.9053243 7.336 2.716 1.5680078 1.6800084 2.352 4.1066508 2.352 7.28 0 3.1173489-.8026586 5.5533246-2.408 7.308-1.6800084 1.792009-4.1253173 2.688-7.336 2.688h-7.224zm3.052 2.604v14.784h3.612c2.5386794 0 4.3959941-.6066606 5.572-1.82 1.1573391-1.2133394 1.736-3.0706542 1.736-5.572 0-2.5386794-.5693276-4.4053274-1.708-5.6-1.1760059-1.1946726-3.0239874-1.792-5.544-1.792zm22.576 2.52c2.3893453 0 4.1906606.8026586 5.404 2.408 1.1386723 1.474674 1.7173332 3.4906539 1.736 6.048h-10.976c.1120005 1.4373405.4946634 2.5199964 1.148 3.248.6906701.7466704 1.6146609 1.12 2.772 1.12 1.0266718 0 1.8666634-.2426642 2.52-.728.466669-.3546684.9053313-.9799955 1.316-1.876h2.968c-.3546685 1.3813402-1.0173285 2.5106623-1.988 3.388-1.2693397 1.1013388-2.8653237 1.652-4.788 1.652-2.1466774 0-3.8359939-.66266-5.068-1.988-1.3440067-1.400007-2.016-3.2853215-2.016-5.656 0-2.1653442.6346603-3.9666595 1.904-5.404 1.2320061-1.474674 2.9213226-2.212 5.068-2.212zm.084 2.436c-1.1200056 0-2.0066634.3266634-2.66.98-.6346699.6720034-1.0359992 1.6053274-1.204 2.8h7.812c-.2800014-2.5200126-1.5959883-3.78-3.948-3.78zm14.68-2.436c3.7706855 0 5.8239983 1.5213181 6.16 4.564h-2.884c-.2240011-.7840039-.569331-1.3253318-1.036-1.624-.5040025-.3360017-1.2693282-.504-2.296-.504-.933338 0-1.6053313.1306654-2.016.392-.5226693.2800014-.784.7093304-.784 1.288 0 .4853358.3919961.9146648 1.176 1.288.4853357.2053344 1.4559927.4946648 2.912.868 1.6240081.392002 2.8466625.8493307 3.668 1.372 1.1573391.7280036 1.736 1.7359936 1.736 3.024 0 3.0613486-2.1466452 4.592-6.44 4.592-3.9573531 0-6.1039983-1.6893164-6.44-5.068h2.912c.1680008.9706715.5133307 1.6613313 1.036 2.072.5226693.3733352 1.3253279.56 2.408.56 2.3146782 0 3.472-.6533268 3.472-1.96 0-.7093369-.4293291-1.259998-1.288-1.652-.4480023-.2240011-1.4186592-.5039983-2.912-.84-1.7173419-.392002-2.9119967-.8119978-3.584-1.26-1.1200056-.7093369-1.68-1.6799938-1.68-2.912 0-1.32534.5413279-2.3519964 1.624-3.08 1.0826721-.7466704 2.5013245-1.12 4.256-1.12zm10.956-5.404c.616003 0 1.1106648.1866648 1.484.56.3920019.3546684.588.8306637.588 1.428 0 .5600028-.2053313 1.0453313-.616 1.456-.4106688.3733352-.8959972.56-1.456.56s-1.0453313-.1866648-1.456-.56c-.392002-.392002-.588-.8773304-.588-1.456 0-.5973363.195998-1.0733316.588-1.428.3733352-.3733352.8586636-.56 1.456-.56zm-1.484 5.796h2.968v14.476h-2.968zm12.692-.392c1.9040095 0 3.3786614.7746589 4.424 2.324v-1.932h2.968v13.524c0 4.592023-2.2493109 6.888-6.748 6.888-1.9973434 0-3.537328-.3826628-4.62-1.148-1.0453386-.7653372-1.7079986-1.9506586-1.988-3.556h2.968c.1680008.858671.5226639 1.4653316 1.064 1.82.5600028.3546684 1.4186608.532 2.576.532 2.5200126 0 3.78-1.362653 3.78-4.088v-2.24c-1.0640054 1.6053414-2.5386573 2.408-4.424 2.408-1.9600098 0-3.5466606-.66266-4.76-1.988-1.2133394-1.2880064-1.82-3.0333223-1.82-5.236 0-2.1840109.6066606-3.93866 1.82-5.264 1.1946726-1.3626735 2.7813234-2.044 4.76-2.044zm.448 2.408c-1.2880065 0-2.2586634.4386623-2.912 1.316-.7093369.8213374-1.064 2.0159922-1.064 3.584 0 1.400007.2799972 2.5106626.84 3.332.6533366.9706715 1.6986594 1.456 3.136 1.456 1.2506729 0 2.2399963-.4199958 2.968-1.26.6906701-.8960045 1.036-2.0719927 1.036-3.528 0-1.4933408-.3453299-2.6879955-1.036-3.584-.7093369-.8773377-1.6986604-1.316-2.968-1.316zm17.3399999-2.408c3.6026847 0 5.404 1.9786469 5.404 5.936v8.932h-2.968v-8.68c0-2.4640123-1.129322-3.696-3.388-3.696-.8773377 0-1.6146636.2986637-2.212.896-.6906701.6906701-1.0919994 1.6146609-1.204 2.772v8.708h-2.968v-14.476h2.968v1.792c.5413361-.7093369 1.1853296-1.2506648 1.932-1.624.6906702-.3733352 1.502662-.56 2.436-.56zm24.7960001-5.516c2.352012 0 4.171993.4946617 5.46 1.484 1.400007 1.0266718 2.193332 2.6319891 2.38 4.816h-3.024c-.280001-1.32534-.802663-2.258664-1.568-2.8-.765337-.5786696-1.903993-.868-3.416-.868-1.306673 0-2.314663.195998-3.024.588-.858671.4480022-1.288 1.175995-1.288 2.184 0 .8960045.494662 1.6053307 1.484 2.128.485336.2800014 1.642657.690664 3.472 1.232 2.76268.858671 4.507996 1.5119978 5.236 1.96 1.717342 1.0453386 2.576 2.4826575 2.576 4.312 0 1.7733422-.699993 3.1826614-2.1 4.228-1.400007 1.008005-3.359987 1.512-5.88 1.512-2.408012 0-4.311993-.4853285-5.712-1.456-1.642675-1.1760059-2.5479992-3.0239874-2.7160001-5.544h3.0240001c.224001 1.5866746.783995 2.7159966 1.68 3.388.821337.6160031 2.062658.924 3.724.924 1.474674 0 2.678662-.2613307 3.612-.784.896004-.5040025 1.344-1.2039955 1.344-2.1 0-1.1013388-.63466-1.9786634-1.904-2.632-.466669-.2240011-1.791989-.6719966-3.976-1.344-2.501346-.8026707-4.031997-1.3533318-4.592-1.652-1.5306744-.9146712-2.2960001-2.2493246-2.2960001-4.004s.737326-3.135995 2.2120001-4.144c1.400007-.9520048 3.163989-1.428 5.292-1.428zm14.932 1.232v4.676h3.304v2.464h-3.304v8.4c0 .3733352.083999.6626656.252.868.186668.1866676.447998.28.784.28h1.904v2.464h-2.38c-1.250673 0-2.155997-.3266634-2.716-.98-.541336-.5973363-.812-1.4746609-.812-2.632v-8.4h-2.688v-2.464h2.688v-3.444zm5.384 4.676h2.968v8.82c0 1.2506729.261331 2.146664.784 2.688.522669.5786696 1.353328.868 2.492.868.74667 0 1.46533-.3173302 2.156-.952.672003-.6533366 1.138665-1.5119947 1.4-2.576v-8.848h2.968v14.476h-2.968v-1.96c-1.232006 1.5680078-2.753324 2.352-4.564 2.352-3.490684 0-5.236-1.9506472-5.236-5.852zm26.272-5.908h2.968v20.384h-2.772v-1.736c-1.026672 1.4186738-2.51999 2.128-4.48 2.128-2.128011 0-3.798661-.7559924-5.012-2.268-1.120006-1.400007-1.68-3.2106556-1.68-5.432 0-2.1466774.550661-3.9106598 1.652-5.292 1.176006-1.5120076 2.809323-2.268 4.9-2.268 1.773342 0 3.247994.8493248 4.424 2.548zm-3.752 7.924c-1.474674 0-2.55733.4946617-3.248 1.484-.616003.8400042-.924 2.0626586-.924 3.668s.28933 2.8466623.868 3.724c.672003 1.0453386 1.745326 1.568 3.22 1.568 1.250673 0 2.249329-.5133282 2.996-1.54.616003-.933338.924-2.1186595.924-3.556v-.252c0-1.5493411-.37333-2.8093285-1.12-3.78-.709337-.8773377-1.614661-1.316-2.716-1.316zm11.88-7.812c.616003 0 1.110665.1866648 1.484.56.392002.3546684.588.8306637.588 1.428 0 .5600028-.205331 1.0453313-.616 1.456-.410669.3733352-.895997.56-1.456.56s-1.045331-.1866648-1.456-.56c-.392002-.392002-.588-.8773304-.588-1.456 0-.5973363.195998-1.0733316.588-1.428.373335-.3733352.858664-.56 1.456-.56zm-1.484 5.796h2.968v14.476h-2.968zm13.336-.392c2.202678 0 3.957327.7279927 5.264 2.184s1.96 3.2759891 1.96 5.46c0 2.2026777-.643994 4.003993-1.932 5.404-1.362674 1.474674-3.126656 2.212-5.292 2.212s-3.929327-.737326-5.292-2.212c-1.288007-1.400007-1.932-3.2013223-1.932-5.404 0-2.2213444.653327-4.0413262 1.96-5.46 1.32534-1.4560073 3.079989-2.184 5.264-2.184zm0 2.436c-1.38134 0-2.44533.5413279-3.192 1.624-.653337.8960045-.98 2.0906592-.98 3.584 0 1.474674.326663 2.6599955.98 3.556.765337 1.0826721 1.829326 1.624 3.192 1.624 1.344007 0 2.417329-.5413279 3.22-1.624.672003-.9520048 1.008-2.1373262 1.008-3.556 0-1.474674-.335997-2.6693288-1.008-3.584-.784004-1.0826721-1.857327-1.624-3.22-1.624z" fill="#313645" fill-rule="evenodd"/></svg>