<svg height="90" viewBox="0 0 180 90" width="180" xmlns="http://www.w3.org/2000/svg"><g fill="none" fill-rule="evenodd" transform="translate(20 15)"><path d="m26.158176.09665735c1.6971233-.15060564 3.4369555.12138365 4.9317727.96882133 6.1815746 3.54709993 12.3451665 7.12566968 18.5267412 10.67501742 2.4299208 1.4858258 4.228197 4.2237014 4.1068134 7.1346611.0044957 7.1953529-.0067436 14.3929536.0044957 21.5905543.1213836 2.8952248-1.6206965 5.6960401-4.084335 7.1414046-6.1860703 3.5628349-12.3698928 7.1279176-18.5514675 10.6952481-2.5760307 1.5240391-6.0129862 1.4273818-8.5215816-.1978104-6.0759259-3.5111344-12.1563475-7.0132774-18.23452127-10.5176683-2.5692872-1.4543559-4.24617982-4.3967854-4.11580479-7.352702.00674354-7.1189262.00224785-14.2356045 0-21.3545306-.0449569-2.8839856 1.66340554-5.6510832 4.12254833-7.1054391 5.80168883-3.34479383 11.60562543-6.69183552 17.40731423-10.04112505 1.3464593-.81147217 2.8030631-1.57798742 4.4080246-1.6364314zm-16.19572552 17.08587235c-1.2992546.2360237-2.25458886 1.5240391-2.14219659 2.8322851.00449569 3.4481947-.04270907 6.8986373.02472629 10.346832.21129746 5.1250873 3.88877242 9.897263 8.81829722 11.3426275 4.6305614 1.5442698 10.0950733.0269742 13.2622874-3.6954577 2.0882483-2.2433496 3.0885395-5.3116585 3.1807011-8.3395062.0314699-3.0008735-.0022478-6.001747.0179828-9.0026205-.0022478-.8361984-.0247263-1.7488236-.5552178-2.4434079-.8024808-1.1239226-2.4546471-1.409399-3.6572443-.8002329-.9643257.4585605-1.5240392 1.5397741-1.4948172 2.5850221-.013487 3.2189145.0044957 6.437829-.0067435 9.6567436.0044957 1.8252504-.7283019 3.6415094-2.0298043 4.9227812-1.5824831 1.6296879-4.0034126 2.4231773-6.235523 1.9511298-3.0278476-.55297-5.5117167-3.3358025-5.6128697-6.4310855-.058444-3.2908456-.0022479-6.5816911-.0269742-9.8725367-.0247263-.7305497-.1551013-1.5038085-.6226531-2.0904961-.6608666-.8744119-1.8769509-1.1981016-2.91995112-.9620778zm32.61174002.0247263c-1.36669.2854763-2.1421966 1.7016189-2.1264617 3.0188562-.0247263 5.9208246.0044957 11.8438971-.0134871 17.7669695 0 .7485325-.0314698 1.5150477.1955625 2.2366061.3326812 1.1891102 1.497065 2.1332052 2.7536106 2.0680177 1.5442697.0269741 2.8345329-1.4498603 2.8053109-2.9536688.0382134-6.1433613 0-12.2889704.0179828-18.4345795-.0202306-.8631726.0382134-1.8185069-.5035174-2.5535523-.6338923-1.0250174-1.9870952-1.467843-3.1290006-1.1486489z" fill="#5097d5" fill-rule="nonzero"/><path d="m87.9942319 14.3750052v3.90625h10.546875c2.1701501 0 3.2552081 1.1718633 3.2552081 3.515625v11.1979167c.086806 2.5173737-.998252 3.689237-3.2552081 3.515625h-10.546875v7.8125c-.086806.6944479-.5642317 1.0416666-1.4322916 1.0416666-.8680599-.0868059-1.3020834-.477427-1.3020834-1.171875v-7.6822916h-9.765625c-2.2569557.086806-3.3420143-1.041655-3.2552083-3.3854167v-11.328125c-.173612-2.4305677.9982513-3.602431 3.515625-3.515625h9.5052083v-3.90625c.8680599-1.3888958 1.7795091-1.3888958 2.734375 0zm-13.0208333 7.6822917v10.6770833c-.173612.7812539.1736068 1.0850703 1.0416667.9114583h9.2447916v-12.6302083h-9.375c-.6944479 0-.9982643.3472188-.9114583 1.0416667zm13.0208333-1.0416667v12.6302083h10.15625c.607642.086806.9114584-.2170104.9114584-.9114583v-10.8072917c0-.6076419-.3472188-.9114583-1.0416667-.9114583zm29.3907461 0h15.625c.607642.086806.954861.5208294 1.041667 1.3020833-.086806.7812539-.434025 1.171875-1.041667 1.171875h-7.291667v3.7760417h6.640625c.694448.086806 1.085069.5208294 1.171875 1.3020833-.086806.8680599-.477427 1.3020834-1.171875 1.3020834h-6.640625v5.859375h7.942709c.694448.086806 1.085069.5208294 1.171875 1.3020833-.086806.8680599-.477427 1.3020833-1.171875 1.3020833h-17.447917c-.86806 0-1.302083-.4340234-1.302083-1.3020833 0-.7812539.434023-1.2152773 1.302083-1.3020833h6.770833v-5.859375h-5.208333c-.781254 0-1.171875-.4340235-1.171875-1.3020834 0-.7812539.390621-1.2152773 1.171875-1.3020833h5.208333v-3.7760417h-5.598958c-.86806 0-1.345486-.3906211-1.432292-1.171875.086806-.7812539.564232-1.2152773 1.432292-1.3020833zm11.328125 10.0260417c1.041672.6944479 1.953121 1.4322877 2.734375 2.2135416.520836.607642.564238 1.2152748.130208 1.8229167-.607641.5208359-1.171872.4774336-1.692708-.1302083l-2.604167-2.0833334c-.607641-.4340299-.694446-.9982604-.260416-1.6927083.43403-.4340299.99826-.4774323 1.692708-.1302083zm-15.885417-15.4947917h24.21875c1.30209-.086806 1.953125.6944362 1.953125 2.34375v23.3072917c.086806 1.8229258-.694436 2.6909726-2.34375 2.6041666h-23.697916c-1.562508 0-2.300348-.8680468-2.213542-2.6041666v-23.3072917c-.173612-1.6493138.520826-2.430556 2.083333-2.34375zm.520834 3.90625v20.5729167c-.173612.8680599.303814 1.258681 1.432291 1.171875h20.3125c.954866.086806 1.38889-.3038151 1.302084-1.171875v-20.1822917c.086806-1.3020898-.39062-1.9097226-1.432292-1.8229167h-20.3125c-.954866 0-1.388889.4774258-1.302083 1.4322917z" fill="#333"/></g></svg>