<svg height="90" viewBox="0 0 180 90" width="180" xmlns="http://www.w3.org/2000/svg"><g fill="#0ec5a1" fill-rule="evenodd" transform="translate(0 7)"><path d="m19.9549669 0h8.8807947c-2.4437086 1.46622517-4.8158941 3.06357616-7.1880795 4.63708609.0119205 2.32450331.0238411 4.64900663.0238411 6.97350991 3.9576159-.0119205 7.9033112-.0119205 11.8609271 0-.3218543-3.87417216-.6556291-7.73642381-.9774834-11.610596h8.9284768c.3337748 3.86225166.6556291 7.73642384.9774835 11.5986755 2.02649 0 4.0410596.0119205 6.0675496.0119205 0-2.83708607 0-5.67417216 0-8.51125825h8.9642384v12.31390725c-4.8993377 0-9.7986755 0-14.6980132 0 .202649 2.4794702.405298 4.970861.607947 7.4503312 1.7284768-1.8596027 3.4450331-3.7072848 5.1615894-5.5668875 2.9443709.0238411 5.8768212.0357616 8.8211921.0476822-4.1483444 4.8635761-8.8807947 9.22649-12.778808 14.2927152-.6198675 3.2423841.2384106 6.6278146.3695364 9.9178808 4.1721855.0119205 8.3443709.0119205 12.5165563.0119205 0 .9298013 0 2.8013245.0119206 3.7311258-7.0450332 0-14.0781457 0-21.1231788 0-.0953643-1.1205298-.2860928-3.3615894-.381457-4.4821192-1.3589404 1.5019868-2.7298013 2.992053-4.0887417 4.4821192-2.9682119 0-5.9483444 0-8.9165563 0 4.0768212-4.4821192 8.1417218-8.9642384 12.2423841-13.410596-.4410596-5.4715232-.9178808-10.9549669-1.3589404-16.4384106-4.4463576.3576159-9.6437086-1.3470198-13.3986755 1.7165563 3.802649.2384106 7.6172185.1907285 11.4317881.1430464-3.4092715 3.1708609-6.8066225 6.3417218-10.2278146 9.4887417-.0357616 6.1629139-.0119205 12.3377483-.0238411 18.5006622-7.2119205 0-14.43576154 0-21.6596026 0v-3.7311258h12.7668874c0-2.1337748 0-4.2675497 0-6.389404-1.3231788 1.192053-2.6582781 2.384106-3.99337747 3.5642385-2.90860927-.0357616-5.82913907-.0476822-8.74966887-.0596027 4.24370861-3.9576159 8.46357616-7.9033113 12.73112584-11.8251656.0119205-3.8145695.0119205-7.629139.0119205-11.4437086-4.25562912 0-8.51125826 0-12.7668874 0v-3.802649c4.25562914 0 8.51125828 0 12.7549669-.0119205.0119205-.7629139.023841-2.31258278.023841-3.08741722-4.25562909-.01192053-8.52317876-.01192053-12.7788079-.01192053v-3.74304636c4.20794702-.08344371 8.47549669.39337748 12.6476821-.30993377 2.586755-1.21589404 4.8516556-3.00397351 7.3072848-4.44635762z"/><path d="m61.2834437 0h44.6662253v3.73112583c-11.9205299 0-23.8410597 0-35.7615895 0v37.83576157h39.6238415c0-13.8635761 0-27.7152318 0-41.5668874h21.683443c-.166887 11.0503311.059603 22.1006623-.01192 33.1509934 3.933775-1.8834437 7.867549-3.778808 11.801324-5.6622517-3.731126-6.007947-6.842384-12.421192-11.169536-18.03576157.429139-.64370861.858278-1.28741722 1.299338-1.9192053 2.336423.01192053 4.684768.02384106 7.033112.03576159 3.254305 5.53112588 6.53245 11.05033108 9.798676 16.59337748.750993-.3695364 2.241059-1.0966887 2.980132-1.4543046-2.992053-5.0543047-5.984106-10.0966888-8.964238-15.16291394 2.980132 0 5.948344.01192053 8.928476.01192053 2.336424 3.93377481 4.660928 7.87947021 6.997351 11.81324501 3.635762-1.7403973 7.283444-3.4807947 10.919206-5.2450331-.011921-3.4569536-.011921-6.9258278-.011921-10.38278144-11.884768.01192053-23.769536-.05960265-35.654304.03576159-.059603-1.26357616-.119206-2.51523179-.178808-3.77880795h44.737748v45.2980132c-7.438411 0-14.864901 0-22.303311 0 .01192-.9298013.01192-2.8013245.01192-3.7311258 4.458278 0 8.928477 0 13.386755-.0119205-.01192-7.7006623.011921-15.413245-.01192-23.1258278-2.968212 1.4304635-5.948345 2.8609271-8.916557 4.2913907 2.956292 5.0066225 5.924504 10.0013245 8.880795 15.0198676-2.980132 0-5.948344.0119205-8.916556.0119205-2.300662-3.8741722-4.601325-7.7602649-6.842384-11.6582782-1.037086.4887418-2.074172.9774835-3.111259 1.4662252 2.086093 3.3735099 4.112583 6.7708609 6.127153 10.192053-2.980133 0-5.960265 0-8.928477 0-1.370861-2.3125828-2.741722-4.6132451-4.112583-6.9258278-4.601324 2.205298-9.190728 4.410596-13.780132 6.6039735-.011921 2.6225165-.011921 5.2450331-.011921 7.8675496-2.992053 0-5.984106 0-8.964238 0 0-13.8516556-.011921-27.7033112 0-41.55496684-.941722 0-2.837086-.01192053-3.790729-.02384106-.01192 13.8635762-.01192 27.7152318 0 41.5788079-19.1443706 0-38.2887414 0-57.4331123 0 .0119205-15.1033112 0-30.1947019 0-45.2980132z"/><path d="m77.1377483 5.0781457c3.0158941-.05960265 6.0198676-.07152318 9.0357616-.08344371-.7033112 1.16821192-1.394702 2.33642384-2.0980132 3.50463576 8.1536424.01192053 16.2953643 0 24.4490063 0 .011921.92980132.047682 2.76556295.059603 3.68344375-4.792053 3.421192-9.6437086 6.7589404-14.4476822 10.1443708 4.8039736.0119205 9.6079472 0 14.4119202.0119205v3.8026491c-5.85298-.2384106-11.8966884.7748344-17.5827811-1.0251656-6.2701987 2.0622516-13.0291391.607947-19.5139073 1.0251656 0-.9536424 0-2.8490067 0-3.8026491 4.6251656-.0119205 9.2384106 0 13.8516557-.023841-4.5298014-1.978808-9.0953643-3.8860927-13.6132451-5.9245033 5.9721855-.8225166 11.7298013.6317881 16.9271523 3.5165563 3.6715232-2.5271523 7.3311259-5.0900663 10.978808-7.6649007-5.9125828-.0119205-11.8370861-.0119205-17.7615894 0-.3933775.5602649-1.192053 1.6927152-1.5854305 2.2529801-2.9086092-.023841-5.8291391-.0357616-8.7377483-.0476821 1.8953642-3.1112583 3.7907285-6.22251654 5.62649-9.3695364z"/><path d="m71.5231788 27.381457c12.3139073.8225165 24.6397351 1.6688741 36.9536422 2.5033112v3.7668874c-12.3139071-.8344371-24.6397349-1.6688741-36.9536422-2.5033112 0-.9417219 0-2.8251656 0-3.7668874z"/><path d="m71.3086093 33.6635762c12.3854304.7986755 24.7589404 1.6927152 37.1443707 2.4913907 0 .9536424.023841 2.8490066.035762 3.7907285-12.2543049-.9536424-24.5682122-1.4185431-36.7867552-2.6701987-.0953643-.9059603-.2980133-2.7059603-.3933775-3.6119205z"/><path d="m2.20529801 62.8092715c2.44370861-.5841059 4.91125828-1.0490066 7.36688742-1.6092715 3.06357617.6198675 6.19867547.8940397 9.22649007 1.6688742-3.7311258.7152318-8.1536424-.6675497-11.1576159 2.3006622 4.0887417.4172186 8.2251656.2264901 12.3019868.8225166-4.4821192 1.2039735-9.1549669.4529801-13.70860931 1.1443708 3.54039735 1.0728477 7.28344371.8225166 10.93112581.9536424-1.6331126 1.7880795-3.2781457 3.5523179-4.9350993 5.3165563.810596.4172186 2.4198675 1.2635762 3.2304636 1.6927152h-2.0384106c-3.0754967-1.4543046-6.12715236-2.9920529-8.88079475-5.018543 2.24105961.6198676 4.42251656 1.394702 6.60397355 2.1695364 1.1086092-1.0251655 2.2172185-2.0503311 3.3258278-3.0754967-3.0516557-.023841-6.09139075-.0357616-9.14304638-.0357616.19072848-.5960264.5602649-1.7880794.75099338-2.3841059-.9178808 0-2.77748345 0-3.70728477 0l.01192053-.8225166c2.13377483-.3218543 4.33907285-.607947 6.03178808-2.0980132-2.07417219-.3576159-4.13642384-.7033113-6.21059603-1.0251656z"/><path d="m20.0503311 60.6397351c1.6211921.7986755 3.1827815 1.7284768 4.6728477 2.7298013 1.6569537-.0953642 3.3019868-.1907285 4.9470199-.2860927-.3337749-.7271523-.989404-2.1814569-1.3231788-2.9086093 1.2754967.9774835 2.5271523 1.978808 3.7788079 2.9801325.9178808.0119205 2.7417219.023841 3.6476821.0357616l-.0119205 1.1801324c-1.597351 0-3.1827815 0-4.7682119 0v3.3615894c1.8476821.1549669 3.7072848.3576159 5.5549669.5960265-1.8357616.4410596-3.6953643.786755-5.5549669 1.1324504v4.3390728c2.1337748.1072848 4.2794702.2503311 6.413245.4172185l-1.8119205.8821192h-12.9576159c2.2529801-.7033112 4.5774834-1.1682119 6.9019867-1.5854304-.0119205-1.3827815-.0119205-2.7655629-.0119205-4.1483444-1.8119205-.1549669-3.6119205-.3456954-5.4-.5721854 1.8-.4887417 3.6238411-.8701987 5.4476821-1.2516556-.023841-.7748345-.0596026-2.3245034-.0834437-3.1112583-2.1337748-.0476821-4.2794702-.1311259-6.413245-.178808-1.0251656-1.192053-2.0503311-2.3841059-3.0278146-3.6119205z"/><path d="m37.2874172 61.605298c5.3284768-1.4066225 10.9072848-.6794702 16.3549669-.7986755v1.1801325c-1.9907285 0-3.9695364 0-5.9602649 0v4.4821192c2.2529801.2741722 4.5059603.5483443 6.7112583 1.0728477-2.2291391.3099337-4.4701987.4529801-6.7112583.5960264v5.5072848c2.8013245.2384106 5.602649.5960265 8.2847682 1.4543046h-19.2516556c.989404-.3933774 2.9682119-1.1682119 3.9456954-1.5496688 0-3.4092715-.0119206-6.8304636.4410596-10.2158941 1.2039735 3.3854305.9655629 7.0331126.9894039 10.57351.989404 0 2.9443709-.0119206 3.9337749-.0119206-.0119206-3.9337748-.0119206-7.8675496.0119205-11.8013245-2.9205298-.0476821-5.8529801-.0834437-8.7496689-.4887417z"/><path d="m56.0860927 75.0993377c1.0728477-5.0662251.1668874-10.4066225 1.8119205-15.3536423.2741722 1.9311258.5125828 3.8741721.6913908 5.8172185h1.0370861c.1311258-1.8834437.2860927-3.7788079.4529801-5.6622516.8701987 2.2887417 1.5854305 4.637086 2.4317881 6.9377483-1.0251656-.0238411-3.0874172-.0953642-4.1245033-.1311258l.023841 1.215894c.7033113.0119205 2.0980133.0476821 2.789404.0596027.0596026 2.3721854.1311258 4.7324503.2980132 7.1046357 1.57351-4.0887417 1.8357616-8.4754967 1.7165563-12.8145695 2.8251656-.3337749 5.6145696-.8701987 8.368212-1.57351l.0476821 1.1562914c-2.407947.6317881-4.8158941 1.2278146-7.2596027 1.6688742v1.978808c2.4556292.0596026 4.8993378.1192053 7.3549669.2145695-.9298013 2.2410596-1.9072848 4.4463576-2.9443708 6.6397351 1.3827814.9178808 2.7655629 1.8715232 4.1960264 2.7417218h-3.1827814c-.989404-1.6807947-2.205298-1.9907284-3.6596027-.9059602l.3576159.9059602h-7.2357616c.5483444-1.6092715 1.6092716-5.018543-.2860927-5.829139-1.1801324 1.621192-1.3112583 3.8741722-1.1205298 5.829139zm8.7735099-7.8913907c-.4410596 2.3364239-.9417218 4.6728477-1.4662251 7.0092715.8582781-.3814569 2.5748344-1.1443708 3.421192-1.5258278-.5483443-1.0847682-.8940397-2.229139-1.0251655-3.421192.5841059.4410596 1.7523179 1.3231788 2.3483443 1.7523179.5960265-1.4781457 1.192053-2.9562914 1.7880795-4.4344371-1.6927152.1907284-3.3735099.405298-5.0662252.6198675z" fill-rule="nonzero"/><path d="m75.3377483 60.9139073c1.2278146-.8225166 3.4927153.786755 2.8132451 2.2172185-1.2278146.8701987-3.4092715-.8463576-2.8132451-2.2172185z"/><path d="m81.1788079 60.8066225c2.1099338 0 4.2317881-.0119205 6.3417219-.0119205-.0238411 1.6092715-.0357616 3.218543-.0596026 4.8278146 2.634437.1192053 5.2688741.0834437 7.9152317 0-.0119205 2.4437086-.0119205 4.8874172-.0119205 7.3311258 1.2754967-.5245033 2.5509934-1.0609272 3.8264901-1.5854305-.405298.5721855-1.2397351 1.7046358-1.6569537 2.2768212-.8225165.3576159-2.4794702 1.0847682-3.3139073 1.4543046h-.631788c.1907284-2.7894039.2860927-5.5907284.3695364-8.3801324-2.610596-.1311258-5.2211921-.1192053-7.8437086-.1311258-.0596027-1.5377484-.1192053-3.0874172-.178808-4.6251656-.7748344.0119205-2.3245033.0357616-3.0993377.0476821-1.0251656 2.181457-2.4437086 4.1364239-4.2913907 5.6980133.834437-2.3125828 1.7761589-4.589404 2.634437-6.9019868z"/><path d="m92.4317881 60.9496689c1.6092715-.607947 3.6715232 1.7761589 2.8490066 3.2900662-1.5139073.381457-3.4331126-1.8357616-2.8490066-3.2900662z"/><path d="m101.455629 60.7470199c.405298.0357616 1.215894.1311258 1.621192.1788079-.059602 1.4185431-.119205 2.8370861-.178808 4.2675497 2.145696.3456953 4.291391.7033112 6.401325 1.215894-2.109934.2384106-4.219868.4291391-6.341722.5721855.023841 2.7059602.035761 5.4119205.047682 8.1178807h-1.513907c-.011921-2.7774834-.011921-5.5549668-.011921-8.3443708-1.6331124 0-3.2781455 0-4.9231786 0v-1.192053h4.9350996c-.011921-1.6092715-.023841-3.218543-.035762-4.815894z"/><path d="m109.096689 69.5443709c1.35894-3.37351 3.063576-6.6039735 5.066225-9.6437086-.870199 5.018543-1.275497 10.1086092-1.12053 15.1986754h-1.34702c.035762-2.4913907.083444-4.9708609.154967-7.4622516z"/><path d="m113.650331 68.5788079c1.263576-3.0397351 2.825166-5.9602649 4.696689-8.6662251-.083444.7867549-.238411 2.3721854-.321854 3.1708609 3.075496.0596027 6.198675.0834437 9.202649.8463576-2.431789.3576159-4.887418.5006623-7.343047.6317881.011921.5483444.023841 1.6450331.035762 2.181457 1.740397.0119205 3.492715.0119205 5.245033.0119205v1.192053c-1.752318 0-3.504636 0-5.245033.0119205-.011921.5364238-.035762 1.6211921-.047682 2.1576159 2.276821.1430463 4.565563.2980132 6.830463.607947-2.241059.5364239-4.541722.8225166-6.818543 1.1205298.011921.8225166.023841 2.4437086.023841 3.2543046h-1.57351c0-3.7788079 0-7.5576158-.059602-11.3364238-1.525828 1.6211921-3.015894 3.2781457-4.625166 4.815894z"/><g fill-rule="nonzero"><path d="m130.315232 60.794702h11.312583c.071523 1.9430463.143046 3.8980132.23841 5.8410596-3.754967-1.4900662-8.010596-1.5019868-11.789404-.0596027.095364-1.9311258.166888-3.8503311.238411-5.7814569zm1.680794 1.3708609-.941721.9536424.882119 1.0847682c2.682119-.2145695 6.806622 1.3708609 8.570861-.9536424-1.430464-2.5986755-5.876821-.8821192-8.511259-1.0847682z"/><path d="m152.344371 60.1033113c1.108609.9655629 2.217218 1.9549668 3.301987 2.9443708 2.443708.0715232 4.875496.1668874 7.307284.4172186-1.919205.4887417-3.874172.834437-5.817218 1.1682119 1.525828 1.621192 3.051655 3.218543 4.49404 4.9112583-1.34702-.6794702-2.68212-1.3827815-4.005298-2.1099338-.88212 1.4781457-1.764239 2.9562914-2.658279 4.4344371 2.670199 1.1443708 5.340398 2.2649006 8.08212 3.2304635h-3.6c-1.871524-.7629139-3.659603-1.7046357-5.590729-2.3006622-2.169536.5006622-4.184106 1.4900662-6.246357 2.3006622h-3.015895c2.717881-1.0966887 5.38808-2.3125827 8.046358-3.5523178-.917881-1.3470199-1.823841-2.6940398-2.741722-4.0410596-1.466225.6913907-2.93245 1.3708609-4.434437 1.9668874 1.668874-1.6569537 3.433113-3.2066225 5.197351-4.7682119-2.02649-.3576159-4.041059-.7390729-6.019867-1.2754967 2.908609-.3099338 5.829139-.2860927 8.749668-.2860927-.262251-.7629139-.786754-2.2768212-1.049006-3.0397351zm-1.382782 4.0410596c.286093.5364238.870199 1.6092715 1.156292 2.1456953-.464901-.0715232-1.394702-.202649-1.859603-.2622516 1.203974 1.6450331 2.407947 3.2900662 3.611921 4.9350993 1.215894-1.9430464 2.360265-3.9218543 3.456953-5.9245033-2.109933-.3576159-4.243708-.6437086-6.365563-.8940397z"/><path d="m165.468874 60.8066225c4.04106-.023841 8.09404-.0119205 12.14702-.0119205v5.9602649c-2.837086 0-5.674172 0-8.511258 0v1.192053c3.266225 0 6.52053 0 9.786755.0476821-.345696 2.3841059-.655629 4.7801324-1.275497 7.1046357h-5.924503c1.239735-.405298 3.719205-1.215894 4.95894-1.621192.202649-1.013245.596027-3.0516556.798676-4.0649007-2.01457-.0596026-4.017219-.1192053-6.031788-.2145695-.691391 1.192053-1.418544 2.3602649-2.062252 3.5761589-1.716556.2741722-3.421192.6317881-5.125828.9059603.381457-.5245033 1.156291-1.5615894 1.537748-2.0860927 1.299338.1072848 4.160265-.2741722 3.230464-2.2291391-1.549669-1.0728477-2.860927.9417219-3.230464 2.2291391-.69139-.1549669-2.074172-.4529801-2.765562-.5960265 1.382781-.989404 2.765562-1.978808 4.148344-2.9682119-1.57351-2.1099338-1.454305-4.7443709-1.680795-7.2238411zm1.418543 1.1801325v1.1920529h9.536424v-1.1920529c-3.182781 0-6.353642 0-9.536424 0zm0 2.3841059v1.192053h9.536424v-1.192053c-3.182781 0-6.353642 0-9.536424 0z"/></g><path d="m20.2768212 64.6211921c1.5735099-.7390729 4.0529801 1.4543046 3.2662252 3.0993377-1.6092716.8701987-4.1602649-1.418543-3.2662252-3.0993377z"/><path d="m73.3112583 65.5986755c1.0013245-.0238411 3.015894-.0715232 4.0172185-.0953642 0 1.9907284-.023841 3.9814569-.0357616 5.9721854.8105961-.2980133 2.4317881-.8940397 3.2423841-1.192053-1.2039735 1.0490066-3.6119205 3.1350993-4.815894 4.184106.0357616-2.3721855.0953642-4.7443709.1668874-7.1165563-.6437086-.4410596-1.9311258-1.3231788-2.5748344-1.7523179z"/><g fill-rule="nonzero"><path d="m78.6039735 67.9470199c3.4211921-.0119206 6.8543046-.0119206 10.2754967.1072847-1.1324503 1.5258279-2.3125828 3.0278146-3.5165563 4.5059603 1.9072848.8701987 3.8145695 1.7523179 5.7576159 2.5390728h-4.4463576c-1.3589404-1.3947019-3.7907285-2.1695364-5.4-.7152317l.3695364.7152317h-4.9112583c1.2993378-.6913907 2.5748345-1.418543 3.8503312-2.1576158.5483443-.0715232 1.6331125-.2384106 2.1814569-.3218544-1.4066225-1.5496688-2.7774834-3.1112582-4.1602649-4.6728476zm3.576159 2.1814569c.3814569 1.6211921 3.1470198 1.3827815 3.5165562-.1430463-.3814569-1.4781457-3.1589404-1.2635762-3.5165562.1430463z"/><path d="m128.741722 67.9470199h6.282119c-.01192 2.3841059-.01192 4.7682119-.01192 7.1523178h-1.370861c-.202649-1.8715231-3.909934-2.3125827-3.37351 0h-1.525828c0-2.3841059 0-4.7682119 0-7.1523178zm1.192053 1.1920529v3.5880795h3.731126c0-.8940397 0-2.6940397.01192-3.5880795-.941722 0-2.813245 0-3.743046 0z"/><path d="m136.764238 67.9112583c2.229139.0357616 4.446358.0715232 6.675497.1072847-.047682 2.3602649-.083444 4.7205298-.119205 7.0807947h-1.692715c-.21457-.3814569-.643709-1.1562913-.858279-1.5377483l-1.227814.0596027c-.321854.3695364-.989404 1.1086092-1.311258 1.4781456h-1.454305c0-2.3960264-.011921-4.7920529-.011921-7.1880794zm1.513908 1.2278145v3.6h3.576159c0-.9059602 0-2.7059602 0-3.6-.89404 0-2.68212 0-3.576159 0z"/></g><path d="m19.9430464 75.0993377c.9655629-2.431788 1.9788079-4.8993377 3.6715231-6.9377483-.4649006 2.3483444-1.0966887 4.6728477-1.8596026 6.9377483z"/><path d="m173.133775 69.9258278c.476821.5960265.965563 1.2039735 1.454304 1.8119205-1.692715 1.1443709-3.373509 2.3006623-5.113907 3.3615894h-1.478146c.345696-.5841059 1.013246-1.7403973 1.358941-2.3245033 2.02649.1192053 3.278146-.834437 3.778808-2.8490066z"/></g></svg>