<svg height="90" viewBox="0 0 180 90" width="180" xmlns="http://www.w3.org/2000/svg"><g fill="none"><path d="m1.81318681 0h15.87362639l.2307692.08241758c-.0296703 1.07142857-.0428571 2.13956044-.0362637 3.21098901.0857143 1.53626374-.178022 3.0989011.121978 4.61868132.0593407.15494506.1747253.46483517.2307692.61978022-1.0945055.06923077-2.1725274-.17142857-3.2637362-.15164835-2.6241759.28351648-5.28461541.26043956-7.91538465.08901099-2.34725274-.48461539-4.69120879.36593407-7.05494505.08571428v-6.67912087c.26373626-.8934066.95274725-1.54945055 1.81318681-1.87582418z" fill="#ff463c" transform="translate(0 26)"/><path d="m.11538462.08241758c1.75714285.94615385 3.01978022 2.57472528 4.55604395 3.82417583-1.38131868.0065934-2.8054945.28351648-4.15714286-.08901099-.1087912-.13186813-.32637362-.39230769-.43516483-.52417583-.00659341-1.07142857.00659341-2.13956044.03626374-3.21098901z" fill="#ff933f" transform="translate(17.802198 26)"/><path d="m.07912088.32637363c.10879121.13186813.32637363.39230769.43516483.52417582 1.35164836.37252747 2.77582418.0956044 4.15714286.08901099 1.05824176.94615385 2.08681319 1.92197802 3.15494506 2.86153846-1.71758242.82087912-3.68571429.28681319-5.51538462.40549451-.73186813.08241758-1.92857143-.27032967-2.10989011.73846154-.3-1.51978022-.03626373-3.08241759-.12197802-4.61868132z" fill="#ff8f58" transform="translate(17.802198 28.967033)"/><path d="m2.31098901.58021978c1.82967033-.11868132 3.7978022.41538462 5.51538462-.4054945.83076923.88351648 1.97142857 1.51978021 2.51538457 2.63736263-2.57142853.00659341-5.1395604.01318682-7.71098897.00659341-.82747253.02967033-1.57252747-.37912088-2.1989011-.88021978-.05604395-.15494506-.17142857-.46483517-.23076923-.61978022.18131868-1.00879121 1.37802198-.65604396 2.10989011-.73846154z" fill="#ff8b71" transform="translate(17.802198 32.593407)"/><path d="m0 .31318681c2.36373626.28021978 4.70769231-.57032967 7.05494505-.08571428 2.63076924.17142857 5.29120875.19450549 7.91538465-.08901099 1.0912088-.01978022 2.1692307.22087912 3.2637362.15164835.6263737.5010989 1.3714286.90989011 2.1989011.88021978 2.5714286.00659341 5.1395605 0 7.710989-.00659341.2736264 2.13626374.0395605 4.31868132.0956044 6.47472528-1.9813186.66593406-4.0483516-.08571429-6.0725274.11208791-.9098901.0956044-1.8032967-.19450549-2.7098901-.13846154-1.6384616.24395605-3.3.01978022-4.9417583.23076923-2.0604395-.24065934-4.1175824.11538462-6.17802196-.12527472-2.77582418.32967033-5.56153846.04615384-8.33736264-.04285715z" fill="#ff523c" transform="translate(0 34.241758)"/><g fill="#353b55" transform="translate(38.241758 34.571429)"><path d="m71.9076923.17802198c1.1076923-.03296703 2.2153846-.00989011 3.3263736-.01318681-.0032967 6.97582417 0 13.95164833-.0032967 20.93076923-1.0516483.0065934-2.1032967.0032967-3.1516483 0-.0098901-.6758242 0-1.3516484.0032967-2.0274725-1.8 2.8021978-6.0098901 3.0065934-8.5483517 1.1241758-3.5406593-2.6505495-3.4912088-8.7131868-.0461538-11.42967034 2.4494505-1.8989011 6.3989011-1.68131868 8.4098901.77472528.0263736-3.12197802.0065934-6.24065934.0098901-9.35934066zm-5.2087912 10.54285712c-2.5912088.9791209-3.2637363 4.7043956-1.2989011 6.6.778022.7054945 1.7736264 1.1901099 2.8483516 1.110989 2.2714286-.0032967 4.1175825-2.3373626 3.6824176-4.5494505-.1879121-2.4263736-2.9802197-4.11428573-5.2318681-3.1615385z"/><path d="m107.805495 3.95274725c3.745054-3.77802197 10.790109-4.1010989 14.360439.0923077-.791209.77142857-1.786813 1.31538461-2.630769 2.03406593-.764835-.63626374-1.496703-1.36813187-2.479121-1.65164835-2.38022-.71538462-5.162637.08241758-6.758242 2.0010989-2.307692 2.78901099-2.175824 7.26923077.237363 9.95274727 2.004395 2.2153846 5.818681 2.8351648 8.156044.7846154.451648-.2604396.669231-.9527473 1.203296-1.0054945.932968.6263736 1.829671 1.3054945 2.756044 1.9450549-3.115384 4.2098901-9.632967 4.4406593-13.694505 1.5263736-4.889011-3.5142857-5.228571-11.41978019-1.150549-15.67912085z"/><path d="m.02637363 1.48351648c1.27252747.02967033 2.54175824-.01648351 3.81428571.02967033 1.17362637 4.66813187 2.45274725 9.30989009 3.60989011 13.98461539.32637363-.2274725.32637363-.6593407.46483517-.9923077 1.32527472-4.3351648 2.70989008-8.65054945 4.02527468-12.98901098 1.1637363-.02637363 2.3307693-.05934066 3.4945055.01648351 1.3681319 4.67472528 2.8483517 9.31648347 4.2428572 13.98131867.0428571-.0560439.1351648-.1747253.1813187-.2340659 1.265934-4.5923077 2.4956044-9.19450551 3.7681318-13.7835165 1.1802198-.00329671 2.3604396-.00329671 3.5439561-.00329671-1.9219781 6.53076923-3.7912088 13.07472531-5.7164835 19.60219781-1.1043956.0065934-2.2087913.0032967-3.3098902 0-1.5164835-4.9417582-3.0263736-9.8868132-4.5098901-14.84175825-.0461538.05934066-.1351648.17802198-.1813186.23736264-1.5032967 4.86263741-2.9637363 9.74175821-4.4571429 14.60769231-1.05494506.0032967-2.10659341-.0098901-3.16153846.0098901-2.00769231-6.5142857-3.91318682-13.07472527-5.80879121-19.62527472z"/><path d="m122.884615 1.49340659c1.335165.00329671 2.673627-.0032967 4.012088 0 1.753846 4.81648352 3.464835 9.64945051 5.228572 14.45934071.046154.0527472.138461.1615384.184615.2175824 1.796703-4.8989011 3.626374-9.78461541 5.442857-14.6736264 1.256044-.00659341 2.508791-.00329671 3.764835-.00329671-2.653846 6.53736264-5.251648 13.09450551-7.945055 19.61538461-.998901-.0197802-1.994505-.0032967-2.986813-.0131868-2.578022-6.5307692-5.12967-13.06813187-7.701099-19.60219781z"/><path d="m33.6989011 7.68461538c2.343956-.5043956 4.9714286-.0032967 6.7879121 1.61868132 2.7032967 2.3967033 2.9406593 6.9659341.5901099 9.6824176-2.8186813 3.3197802-8.7 3.2340659-11.3736264-.2175824-2.2549451-2.845055-1.8230769-7.4868132 1.0879121-9.72197805.8406593-.68241759 1.8560439-1.12417583 2.9076923-1.36153847zm.3527473 3.04285712c-1.2296704.5472528-2.2252748 1.6912088-2.3703297 3.0593407-.4846154 2.2120879 1.3021978 4.589011 3.5835165 4.6417582 2.0538461.178022 3.9725274-1.5824176 4.0648351-3.6230769.4054945-2.7692308-2.6703296-5.21868131-5.2780219-4.078022z"/><path d="m48.8835165 9.96923077c1.3582417-2.8978022 5.6934066-3.30659341 7.7736264-1.00879121 1.0582417 1.13406594 1.1241758 2.76263734 1.2065934 4.22307694-.0065934 2.6373626 0 5.2747253-.0065934 7.9120879-1.1109891-.0461539-2.2483517.1054945-3.3461539-.0725275.0197802-2.6076923.0824176-5.2186813-.0395604-7.8197802-.0494506-1.2956044-.9164835-2.8549451-2.4-2.7296703-1.6813187-.1186813-3.0098901 1.4736263-2.9835165 3.0758241-.0791209 2.512088-.0164835 5.0274726-.0296703 7.5395605-1.1109891.0164835-2.2186814.0131868-3.3263737.0032967 0-4.4274725-.0065934-8.8549451.0032967-13.28241759 1.0483517-.00659341 2.0967033-.00659341 3.145055 0 .0065934.71868132 0 1.43736264.0032967 2.15934066z"/><path d="m80.3769231 9.5043956c2.3406593-2.27142857 6.454945-2.79230769 9.0791209-.71868131 2.0142857 1.61868131 2.432967 4.39120881 2.3703296 6.82417581-3.3560439.0098901-6.7087912.0131868-10.0648351-.0032967.0197802 1.2362637.843956 2.3868132 1.9846153 2.8417582 1.7967033.7945055 3.8274726.023077 5.0142858-1.4472527.8868131.478022 1.621978 1.1967033 2.4494505 1.7703297-2.5648352 3.3230769-8.0241758 3.510989-10.921978.5406593-2.578022-2.5912088-2.545055-7.2659341.089011-9.8076923zm1.3582417 3.6230769c2.2318682.0032967 4.4637363-.0164835 6.6956044.0098901.2208792-1.9780219-1.8230769-3.44505491-3.6725274-3.121978-1.6549451.0263736-2.9307693 1.5164835-3.023077 3.1120879z"/><path d="m98.1725275 9.94945055c.9197802-1.87252747 3.1285715-2.85164835 5.1428575-2.33076923.06923 1.08131868.052747 2.17252747.006593 3.25714288-1.081319-.267033-2.291209-.389011-3.316483.1351648-1.183517.5703297-1.8329675 1.9153846-1.8329675 3.1879121 0 2.2978022-.0032967 4.5956044.0032967 6.8934066-1.1076923.0131868-2.2153846.0065934-3.3230769.0032967-.0032968-4.4307692-.0065935-8.8582418 0-13.28571429 1.1076923.0032967 2.2153846-.02637363 3.3230769.01978022 0 .70549451-.0032967 1.41428571-.0032967 2.11978022z"/></g><path d="m0 .09230769c2.77582418.08901099 5.56153846.37252748 8.33736264.04285715 2.06043956.24065934 4.11758246-.11538462 6.17802196.12527472 1.6417583-.21098901 3.3032967.01318681 4.9417583-.23076923.9065934-.05604396 1.8.23406593 2.7098901.13846154 2.0241758-.1978022 4.0912088.55384615 6.0725274-.11208791-.0296703 1.95494505.0065934 3.91318681-.0197802 5.87142857-.7153846-.99230769-2.1527472-.8934066-3.2373626-.76483517-.7945055.16153846-1.6153846.52087912-2.4131868.13846154.4978022-.85384615.989011-1.71098901 1.4736263-2.56813187-1.0417582-.0065934-2.0868131-.04945055-3.1285714.02967033-1.1340659 2.0967033-2.3604395 4.14065934-3.5241758 6.22087912-1.2164835-2.08021978-2.3472528-4.2065934-3.6-6.26703296-1.0054945.0065934-2.0076923-.00329671-3.0098901.01318681.7087912 1.42417582 1.5758242 2.75934066 2.3472527 4.15054945-1.0120879.44175824-2.1197802.58351648-3.21098898.43186813-.35274726-.63956044-.71538462-1.27582417-1.06483517-1.91538461.55054945.0065934 1.10439561.01318681 1.65824175.02307692-.55714285-.8967033-.99890109-1.86593407-1.62857142-2.71318681-1.54615384.03296703-3.09230769.00989011-4.63846154.00989011.40219781.76813186.84395605 1.51318681 1.28241759 2.26153846-1.85274726.0989011-3.67252748.88351648-5.52527473.28351648z" fill="#ff5d3b" transform="translate(0 41.824176)"/><g fill="#fff" transform="translate(3.956044 44.461538)"><path d="m.28681319.07912088c1.54615384 0 3.09230769.02307692 4.63846154-.00989011.62967032.84725275 1.07142857 1.81648352 1.62857142 2.71318681-.55384615-.00989011-1.1076923-.01648351-1.65824175-.02307692.34945055.63956044.71208791 1.27582418 1.06483516 1.91538461.3989011.43846154.45494506 1.44725275 1.0978022 1.5.24725275-.41208791.45824176-.84395604.68241758-1.26593406.55384615.85384615 1.04175824 1.74725275 1.53956044 2.63736264-.75824176 1.38461538-1.58571429 2.72967035-2.35714286 4.10439565-1.79010989-3.10219785-3.55054945-6.21758247-5.35384615-9.30989016-.43846154-.74835165-.88021978-1.49340659-1.28241758-2.26153846z"/><path d="m6.82417582.09230769c1.00219781-.01648351 2.00439561-.0065934 3.00989011-.01318681 1.25274727 2.06043956 2.38351647 4.18681319 3.59999997 6.26703297 1.1637363-2.08021978 2.3901099-4.12417583 3.5241759-6.22087912 1.0417582-.07912088 2.0868131-.03626374 3.1285714-.02967033-.4846154.85714285-.9758242 1.71428571-1.4736264 2.56813186-1.7472527 2.97362638-3.4384615 5.98021978-5.1791209 8.95714284-1.4274725-2.45604394-2.8450549-4.91538459-4.26263733-7.37802196-.77142857-1.39120879-1.63846154-2.72637362-2.34725275-4.15054945z"/></g><path d="m0 .31648352c1.85274725.6 3.67252747-.18461539 5.52527473-.28351649 1.8032967 3.0923077 3.56373626 6.20769231 5.35384617 9.30989011.7714286-1.37472527 1.5989011-2.71978022 2.3571428-4.1043956-.4978022-.89010989-.9857142-1.78351649-1.5395604-2.63736264-.2241758.42197802-.4351648.85384615-.6824176 1.26593407-.6428571-.05274726-.6989011-1.06153846-1.09780218-1.5 1.09120878.15164835 2.19890108.00989011 3.21098898-.43186813 1.4175824 2.46263736 2.8351649 4.92197802 4.2626374 7.37802197 1.7406593-2.97692307 3.4318681-5.98351648 5.1791209-8.95714285.7978022.38241758 1.6186813.02307692 2.4131868-.13846154 1.0846154-.12857143 2.521978-.22747253 3.2373626.76483516-.0362637 3.08241758-.0098901 6.16483517-.0560439 9.24725272-1.2626374.0329671-2.5186814-.1153846-3.7747253-.26043953-.267033.25714283-.5340659.51098903-.7945055.77142853-.356044-.1483516-.6725275-.3725274-.9923077-.5835164-.1384615.032967-.2736264.065934-.4054945.1021978-.1087912-.0593407-.3230769-.1813187-.4285714-.2406594-.1153846.0659341-.3395605.2010989-.4516484.2703297-.1516483-.0428572-.3-.0824176-.4483516-.121978-.267033.1978022-.534066.389011-.8241759.5538461-.6362637-.1648351-1.143956-.75164833-1.8395604-.7087912-1.3516483.0230769-2.6901099.2538462-4.0450549.2208791-1.1736264-.0098901-2.3406594-.27362634-3.5208792-.1780219-2.4428571.2241758-4.91208787.2340659-7.35164831-.06593411-.26703297.26043951-.53076923.52087911-.78791209.78791211-.34945055-.1714286-.67252747-.389011-.98571429-.6197802-.12857143.0395604-.25714285.0824175-.38571428.1252747-.13516484-.0791209-.4021978-.2373627-.53406594-.31318683-.19780219.20109893-.39560439.40549453-.59340659.60659343z" fill="#ff6f3b" transform="translate(0 46.769231)"/><path d="m0 .68571429c.1978022-.2010989.3956044-.40549451.59340659-.60659341.13186814.07582418.3989011.23406593.53406594.31318681.12857143-.04285714.25714285-.08571428.38571428-.12527472.31318682.23076923.63626374.44835165.98571429.61978022.25714286-.26703297.52087912-.52747253.78791209-.78791209 2.43956044.3 4.90879121.29010989 7.35164831.06593407 1.1802198-.0956044 2.3472528.16813186 3.5208792.17802197 1.354945.03296704 2.6934066-.19780219 4.0450549-.22087912.6956044-.04285714 1.2032967.54395605 1.8395604.70879121.2901099-.16483516.5571429-.35604395.8241759-.55384615.1483516.03956044.2967033.07912088.4483516.12197802.1120879-.06923077.3362638-.2043956.4516484-.27032967.1054945.05934066.3197802.18131868.4285714.24065934.1318681-.03626374.267033-.06923077.4054945-.1021978.3197802.21098901.6362637.43516483.9923077.58351648.2604396-.26043956.5274725-.51428571.7945055-.77142857 1.2560439.14505494 2.5120879.29340659 3.7747253.26043956-.0197803 1.42087912.0362637 2.84175824-.0197803 4.25934066-.0692307 1.21318681-1.232967 2.22197802-2.4362637 2.15604395-7.2494505 0-14.4989011 0-21.74505494.00329671-.77142857-.01318681-1.55274725.05604395-2.31098901-.1021978-.84725275-.24725275-1.41758242-1.01538462-1.65164835-1.83296704z" fill="#ff7a3a" transform="translate(0 56.659341)"/></g></svg>