<svg height="90" viewBox="0 0 180 90" width="180" xmlns="http://www.w3.org/2000/svg"><g fill="none" fill-rule="evenodd" transform="translate(10 11)"><path d="m13.4759152.28516378c7.7109827.08863198 15.4181118.00385356 23.1290944.04238921 1.0173411.01156069 2.0346821-.02312139 3.0520232-.12716763-.805395.65895953-1.4026975 1.51445086-1.9961465 2.3583815-4.9865125 6.81310212-10 13.60693644-14.9788054 20.42389214 2.026975.512524 4.1579962.0770713 6.2312139.1849711 2.9402697.150289 5.8805395-.0539499 8.8208092-.1888247-.4816955.4547206-.955684.9171484-1.3834296 1.4219653-10.0809249 12.1348748-20.1734104 24.2620424-30.28131024 36.3737958-1.49132948 1.8420038-3.12524085 3.5761079-4.43545279 5.5568401.1194605-1.0944124.72061657-2.0346821 1.09826589-3.0481696 3.58381503-9.1175337 7.2177264-18.2157996 10.75144514-27.3526012-4.47013492.0077072-8.94412336-.123314-13.40655111.0693642.83236994-1.2447013 1.16377649-2.7206166 1.72254335-4.0924855 3.54142582-9.5452794 7.09441233-19.0828517 10.65895956-28.61657038.38921-.98651252.7745665-1.97302504 1.017341-3.00578034z" fill="#f8cf4b"/><path d="m58.8 19.44h4.36v17.76c0 2.5866796.5866608 4.479994 1.76 5.68 1.200006 1.2533396 3.0933204 1.88 5.68 1.88 2.5600128 0 4.439994-.6266604 5.64-1.88 1.1733392-1.2533396 1.76-3.146654 1.76-5.68v-17.76h4.36v17.68c0 3.7066852-1.0266564 6.5466568-3.08 8.52-2.0800104 1.9466764-4.9733148 2.92-8.68 2.92-3.7866856 0-6.67999-.9599904-8.68-2.88-2.0800104-2.00001-3.12-4.8533148-3.12-8.56zm29.24 0h4.32v28.56h-4.32zm42.04 0h4.28l-12.92 12.24 14.72 16.32h-4.4l-12.6-14.2-4.44 4.2v10h-3.28v-28.56h3.28v14.84zm11.2.08c.68 0 1.24.2 1.72.68.48.4.72.96.72 1.68 0 .68-.24 1.24-.72 1.72-.48.44-1.04.68-1.72.68s-1.24-.24-1.72-.68c-.48-.48-.68-1.04-.68-1.72 0-.72.2-1.28.68-1.68.48-.48 1.04-.68 1.72-.68zm-1.6 7.8h3.2v20.68h-3.2zm14.72-6.68v6.68h5.12v2.68h-5.12v13.16c0 .76.12 1.32.44 1.64.28.32.8.52 1.52.52h2.64v2.68h-3.12c-1.68 0-2.92-.44-3.64-1.32-.68-.8-1-1.96-1-3.52v-13.16h-4.16v-2.68h4.16v-5.36z" fill="#2b3b4d"/></g></svg>