<svg height="90" viewBox="0 0 180 90" width="180" xmlns="http://www.w3.org/2000/svg"><g fill="none" fill-rule="evenodd" transform="translate(0 23)"><circle cx="22.344828" cy="22.344828" fill="#000" r="22.344828"/><path d="m23.9093971 21.5407001c-.3277303-.4530967-.5608199-.788207-.7871748-1.1398611-.6067262-.9089955-.7848216-1.8985715-.6051274-3.0015572l.0131894-.0708119c.0644812-.3073119.1638071-.6051072.2961071-.8926662.1251382-.2706956.2780702-.5282394.4552227-.7687916.2276547-.3092148.4943942-.5895239.8097432-.8484317 1.0552981-.8377808 2.3038845-1.1035241 3.7015828-.9405371.9345282.1089764 1.7159499.343986 3.0642028.8444448l-.9379573 2.8454275c-2.2298655-.8277052-3.3312478-.9584414-4.1165307-.3431322-.1083394.0902559-.2038311.191276-.2825955.2982587-.0577727.0784485-.105755.1592524-.1420832.2378308-.0299816.0651673-.0525291.1293565-.0679734.1924983-.0475897.3213238-.0120331.4935528.1512905.7368084.1929192.300255.3996377.5976427.701577 1.0150823-.031212-.0431515.4269527.5874315.5531372.7640042.5431545.7600472.9064894 1.3338686 1.2144089 1.9642385.3986804.8161748.6503704 1.6438779.7458715 2.5540122.0336494.3594989.0397688.7186195.0171628 1.0765032-.0476082.7505474-.2215075 1.4868696-.5248161 2.19742-.138523.3247697-.3061225.63452-.5000771.9265247-.5528946.8330027-1.3106729 1.5086813-2.1978761 1.9831898-.3405841.1820922-.6978866.3332628-1.105262.4634515-2.7168957.784381-5.7491899-.0713178-7.6408737-2.2005863l2.0670027-2.0678574c1.1565789 1.301839 3.0933614 1.8520862 4.8085453 1.3652894.2061096-.0673894.4045873-.1519847.5922139-.2522987.4811828-.2573541.8773472-.6105969 1.1540334-1.0274581.0920052-.1385167.1702827-.283186.2344666-.4336662.1629077-.3816383.2534912-.7651854.2782834-1.1560359.0117506-.1860291.0087542-.3751927-.0088152-.5676068-.1009424-.9427064-.4839521-1.7249062-1.397773-3.0036348-.1180939-.1652511-.5678853-.7843096-.5431057-.7500511zm-3.0294563-6.1595866v7.4165559h1.7378266v3.0144856h-4.5785732v-10.4310415zm-4.2763022 6.6782497c0 1.1239845-.8583789 2.0351128-1.9175039 2.0351128-1.0592829 0-1.9176618-.9111283-1.9176618-2.0351128 0-1.1237333.8583789-2.0346942 1.9176618-2.0346942 1.059125 0 1.9175039.9109609 1.9175039 2.0346942z" fill="#fff" fill-rule="nonzero"/><path d="m62.5320582 31.325431h-2.9458513v-18.9116379h2.9458513zm10.6681034-3.5641163c0-.4525885-.1939635-.8283929-.5818965-1.1274246s-1.1112555-.5616907-2.1699892-.7879849c-1.5678958-.3313594-2.7539023-.8021252-3.558055-1.4123114-.8041527-.6101863-1.2062231-1.4405929-1.2062231-2.4912447 0-1.0991434.4647044-2.036634 1.3941272-2.8125.9294228-.7758659 2.1538178-1.1637931 3.673222-1.1637931 1.6002235 0 2.871089.3939886 3.8126347 1.1819774.9415456.7879889 1.3921069 1.7638681 1.3516972 2.927667l-.0242457.0727371h-2.8246229c0-.5414898-.2060863-1.0061942-.618265-1.3941272-.4121788-.3879329-.9779059-.5818965-1.6971983-.5818965-.7112105 0-1.2526921.1596159-1.6244612.4788524s-.5576509.7091841-.5576509 1.1698545.1757795.8263726.5273438 1.0971174c.3515642.2707449 1.0647845.511179 2.1396821.7213093 1.6487151.3394414 2.8710897.8182889 3.6671605 1.4365571s1.1941003 1.4607975 1.1941003 2.5276132c0 1.1799628-.4869294 2.1376579-1.4608028 2.8731142-.9738735.7354563-2.2568617 1.1031789-3.8490033 1.1031789-1.7052887 0-3.050911-.4364181-4.0369073-1.3092673s-1.4547416-1.8749943-1.40625-3.0064655l.0242457-.0727371h2.7397629c.0323278.7597021.3071095 1.3133065.8243535 1.6608298.5172439.3475233 1.1476256.5212823 1.8911638.5212823.759702 0 1.3456337-.1454727 1.7578125-.4364224.4121787-.2909497.618265-.6829178.618265-1.1759159zm8.7769397 3.5641163h-2.9337285v-2.8246228h2.9337285zm3.1640625-6.3766163c0-2.0851398.4566226-3.7701984 1.3698815-5.0552263.9132588-1.285028 2.1821039-1.9275324 3.8065732-1.9275324.7839479 0 1.4729227.1676977 2.0669451.5030981.5940223.3354004 1.0971154.8182889 1.5092942 1.44868l.2909482-1.7093212h2.4488147v13.1169181c0 1.6891249-.5212771 2.9943381-1.563847 3.9156789s-2.5215421 1.3820043-4.4369612 1.3820043c-.638473 0-1.3274478-.0909204-2.066945-.272764-.7394973-.1818436-1.4082675-.4222776-2.0063309-.7213093l.630388-2.3154633c.4849162.25054 1.0203365.4465241 1.6062769.587958s1.1900562.2121497 1.8123653.2121497c1.0668157 0 1.8467109-.2283112 2.3397091-.6849407.4929981-.4566294.7394935-1.1577269.7394935-2.1033136v-1.3456357c-.4121788.5253259-.8991082.9233553-1.4608028 1.1941002s-1.2062194.4061153-1.9335938.4061153c-1.6083054 0-2.8690687-.5859317-3.7823275-1.7578125-.9132589-1.1718809-1.3698815-2.7114668-1.3698815-4.6188039zm2.9458513.2545797c0 1.2042086.240434 2.1679651.7213093 2.8912985.4808752.7233333 1.2264227 1.0849946 2.2366648 1.0849946.6303911 0 1.1617705-.1313295 1.5941541-.3939925.4323836-.2626629.7819222-.6404878 1.0486261-1.1334859v-5.7462285c-.2747859-.4768343-.6283653-.8506183-1.0607489-1.1213631-.4323837-.2707449-.9516403-.4061153-1.5577856-.4061153-1.0102421 0-1.7598305.4242953-2.2487877 1.2728987-.4889572.8486033-.7334321 1.9477303-.7334321 3.2974138zm18.1842669-4.3399785-1.260776-.0484913c-.573817 0-1.052665.1212272-1.436557.3636853s-.680898.5859353-.891029 1.0304418v9.1163793h-2.945851v-13.1169181h2.691272l.193965 1.9032867c.331359-.6708008.757675-1.1961188 1.27896-1.5759699.521285-.379851 1.12136-.5697737 1.800243-.5697737.177802 0 .343479.0141432.497036.04243s.294989.0626345.4243.1030442zm9.952856 10.4620151c-.105065-.3313594-.191945-.654632-.260641-.9698276-.068697-.3151955-.115167-.6303863-.139413-.9455818-.404097.6142272-.935476 1.1294429-1.594154 1.5456627-.658678.4162197-1.396144.6243265-2.212419.6243265-1.365848 0-2.414463-.351559-3.145878-1.0546875-.731416-.7031285-1.097118-1.6689055-1.097118-2.8973599 0-1.2688641.501073-2.2568661 1.503233-2.9640356s2.412437-1.0607489 4.230873-1.0607489h2.291217v-1.1516703c0-.6869646-.202045-1.2244054-.606142-1.6123383-.404097-.387933-.981947-.5818966-1.733567-.5818966-.6708 0-1.2042.1616363-1.600215.4849138s-.59402.739491-.59402 1.248653h-2.836745l-.012123-.0727371c-.056574-1.0344879.40611-1.951774 1.388066-2.7518857.981955-.8001118 2.260902-1.2001617 3.83688-1.2001617 1.527486 0 2.759963.3879272 3.697468 1.1637931.937504.775866 1.40625 1.8911566 1.40625 3.3459052v5.8310884c0 .5414897.036368 1.0607464.109105 1.5577855.072738.4970392.189924.9839686.351563 1.4608028zm-3.612608-2.109375c.743538 0 1.412309-.1858817 2.006331-.5576508s.988011-.7960645 1.181977-1.2728987v-1.9396552h-2.339709c-.856685 0-1.527476.2121477-2.012392.6364493-.484916.4243017-.727371.9233539-.727371 1.4971714 0 .5010801.163657.8991095.490976 1.1941002.327318.2949907.794043.4424838 1.400188.4424838zm20.717942-4.0126616c0 1.9073371-.448541 3.446923-1.345636 4.6188039-.897095 1.1718808-2.145735 1.7578125-3.745959 1.7578125-.743538 0-1.402206-.13335-1.976024-.4000539-.573817-.2667039-1.066808-.658672-1.478987-1.175916v6.3644936h-2.945851v-18.1600216h2.485183l.290949 1.6487069c.42026-.6142272.927394-1.0829725 1.521417-1.40625.594022-.3232775 1.282997-.4849138 2.066945-.4849138 1.616387 0 2.87513.6404839 3.776266 1.9214709s1.351697 2.9680661 1.351697 5.0612878zm-2.933728-.2545797c0-1.3416016-.252557-2.4387081-.757678-3.2913524-.505121-.8526444-1.258751-1.2789601-2.260911-1.2789601-.614227 0-1.135504.1313295-1.563847.3939924-.428342.262663-.77182.6283651-1.030442 1.0971175v5.9280711c.258622.4606704.6021.8142498 1.030442 1.0607489.428343.2464991.957702.3697468 1.588093.3697468 1.00216 0 1.751748-.3697431 2.248788-1.1092403.497039-.7394973.745555-1.7113356.745555-2.9155442zm8.413254-5.0431035c.436424-.6142272.967804-1.0910543 1.594154-1.4304957.62635-.3394413 1.319366-.5091595 2.079068-.5091595 1.390093 0 2.475077.4384385 3.254984 1.3153287s1.169854 2.2285738 1.169854 4.0550916v7.9889547h-2.945851v-8.0132004c0-1.0344879-.206086-1.7820559-.618265-2.2427263s-1.030438-.6910021-1.854795-.6910021c-.573818 0-1.089034.1192067-1.545663.3576239-.45663.2384171-.834454.5677511-1.133486.9880118v9.6012931h-2.945851v-18.9116379h2.945851zm14.292834 11.4197198h-2.945851v-13.1169181h2.945851zm0-16.3294719h-2.945851v-2.582166h2.945851zm8.716325 14.2322198c.719293 0 1.325429-.2121477 1.818427-.6364494s.739494-.955681.739494-1.5941541h2.667025l.024246.0727371c.04041 1.2284544-.458642 2.2871723-1.497171 3.1761853-1.038529.8890131-2.28919 1.333513-3.752021 1.333513-1.931583 0-3.412575-.6222998-4.443022-1.8669181s-1.545663-2.8205724-1.545663-4.7279095v-.4242996c0-1.8992552.515216-3.4731888 1.545663-4.721848 1.030447-1.2486593 2.511439-1.8729796 4.443022-1.8729796 1.575978 0 2.854925.4586431 3.836881 1.3759429.981955.9172999 1.456762 2.0831018 1.424434 3.4974408l-.024246.072737h-2.679148c0-.7192924-.236394-1.3294695-.709187-1.8305495-.472793-.5010801-1.089032-.7516164-1.848734-.7516164-1.107225 0-1.891161.4020703-2.351832 1.206223-.46067.8041528-.691002 1.8123593-.691002 3.0246498v.4242996c0 1.2365363.230332 2.2528247.691002 3.0488955.460671.7960708 1.244607 1.1941002 2.351832 1.1941002zm14.983837-1.4668642c0-.4525885-.193964-.8283929-.581897-1.1274246s-1.111255-.5616907-2.169989-.7879849c-1.567896-.3313594-2.753902-.8021252-3.558055-1.4123114-.804153-.6101863-1.206223-1.4405929-1.206223-2.4912447 0-1.0991434.464704-2.036634 1.394127-2.8125.929423-.7758659 2.153818-1.1637931 3.673222-1.1637931 1.600223 0 2.871089.3939886 3.812635 1.1819774.941545.7879889 1.392106 1.7638681 1.351697 2.927667l-.024246.0727371h-2.824623c0-.5414898-.206086-1.0061942-.618265-1.3941272-.412179-.3879329-.977906-.5818965-1.697198-.5818965-.711211 0-1.252692.1596159-1.624461.4788524s-.557651.7091841-.557651 1.1698545.175779.8263726.527344 1.0971174c.351564.2707449 1.064784.511179 2.139682.7213093 1.648715.3394414 2.871089.8182889 3.66716 1.4365571s1.1941 1.4607975 1.1941 2.5276132c0 1.1799628-.486929 2.1376579-1.460802 2.8731142-.973874.7354563-2.256862 1.1031789-3.849004 1.1031789-1.705288 0-3.050911-.4364181-4.036907-1.3092673s-1.454742-1.8749943-1.40625-3.0064655l.024246-.0727371h2.739763c.032327.7597021.307109 1.3133065.824353 1.6608298s1.147626.5212823 1.891164.5212823c.759702 0 1.345634-.1454727 1.757812-.4364224.412179-.2909497.618266-.6829178.618266-1.1759159z" fill="#000"/></g></svg>