<svg height="90" viewBox="0 0 180 90" width="180" xmlns="http://www.w3.org/2000/svg"><g fill="none" fill-rule="evenodd"><path d="m.45374162.21221147h4.29728221c.00837677 9.50344378-.01256516 19.00269913.00837677 28.50195453-.07120254 1.9434103.73296723 4.0082837 2.46276991 5.0051192 1.99367089.5989389 4.39361509.6617647 6.12760609-.6408228 1.1099218-.8293001 1.5622673-2.2156553 1.7256143-3.5391847.2387379-1.9475986.1801005-3.9161392.1926657-5.8721146 0-7.815525 0-15.6352383 0-23.45495163 1.3444713 0 2.6889427 0 4.0376024.00418838-.0041884 8.50660834-.0041884 17.01321665 0 25.51982505-.0167536 2.2617274.1549702 4.5988458-.7036486 6.7432986-.6156925 2.4041325-2.5758563 4.4983246-5.0553797 4.9674236-3.2711281.707837-6.91921074.741344-9.91390546-.938198-1.65441176-.9340097-2.42926284-2.8439129-2.73501489-4.6365414-.18847729-2.0397431-.46909903-4.0752978-.44815711-6.1276061.00837677-8.5107967 0-17.02159341.00418838-25.53239013zm25.53239018.26805659c1.5329486-.00418839 3.0617089-.00418839 4.5946575-.00418839 1.6125279 4.39361504 3.2083023 8.79560685 4.8250186 13.18922193 1.8051936-4.39361508 3.5894453-8.79560689 5.3904505-13.18922193 1.3402829 0 2.6847543 0 4.0292256.00418839-2.4208861 5.65431869-4.8501489 11.30444904-7.2668466 16.96295604 2.7852755 6.6427774 5.5747394 13.2897431 8.3600149 19.9367089-1.6209047 0-3.2418094 0-4.8627141 0-1.9685406-5.1140171-3.9412695-10.2238459-5.9139985-15.337863-1.9769174 5.1098287-3.9412696 10.2280342-5.9181869 15.337863-1.4324274 0-2.8648548 0-4.2930938 0 2.6763775-6.4794304 5.3862621-12.9421072 8.0584512-19.4215376-2.3371184-5.8260425-4.6700484-11.6520849-7.0029784-17.47812734zm26.3575019.25967982c4.3224125.11727476 8.7579113-.40208489 12.9798026.76647431 2.4166977 1.17274758 4.3140358 3.48473567 4.8417722 6.14017126 1.047096 4.17581905.4188384 9.11392405-2.7559568 12.24683545-2.8522897 2.7433917-7.1202532 2.3957558-10.7725242 2.4083209-.0041884 5.1140171.0041884 10.2238459 0 15.337863-1.4324274.0041884-2.8648548.0041884-4.2972822.0041884 0-12.3012844-.0041884-24.6025689.0041884-36.90385332zm4.0292256 3.24180938c.087956 4.85014892.1759121 9.70029784.2638682 14.54625834 2.2407855-.054449 4.6072226.2513031 6.7349218-.6115041 2.7266381-1.428239 3.019825-4.9255398 2.8857967-7.6563663-.0041884-2.55910276-1.4031087-5.27317573-3.9287044-6.13179449-1.9643522-.3183172-3.9705882-.07120253-5.9558823-.14659345zm19.8780715-3.5014892c1.428239-.00418839 2.8606664-.00418839 4.2889054-.00418839.0041884 1.53294862.0041884 3.06589725 0 4.59884587-1.4324274 0-2.8606664 0-4.2889054 0-.0041884-1.53294862-.0041884-3.06589725 0-4.59465748zm17.7378071 9.28145942c2.169583-.98008191 5.1182055-.93819807 6.7893711.95914002 1.39892 1.4198622 1.8387 3.4847356 1.826135 5.4155808.004189 7.0783693-.004188 14.160927 0 21.2392963-1.357036.0041884-2.7140727.0041884-4.0711092.0041884-.0083768-6.9233991.0167535-13.8467982-.0083768-20.7701973-.0963328-1.3737901-.8209233-3.0365786-2.3077997-3.3339539-1.2355733-.2680566-2.714073-.0586373-3.5768801.9423865-1.2271966 1.4408041-1.6376582 3.400968-1.646035 5.2522338v17.9095309c-1.2565153 0-2.5130305 0-3.7695458-.0041884.0041884-9.0678518-.0041884-18.139892.0041884-27.2119322h3.4973008c0 1.1936895.0167535 2.387379 0 3.5810685.6994602-1.5748325 1.5999628-3.258563 3.2627513-3.98315342zm-17.7419955.40208492h3.7695458c-.0041884 9.0720402.0041883 18.1440804 0 27.2161206-1.2565153 0-2.5130306 0-3.7695458 0-.0041884-9.0720402.0041884-18.1440804 0-27.2161206z" fill="#1d1e1f" transform="translate(76.764706 26.911765)"/><path d="m2.5 17.5h55.882353v55.882353h-55.882353z" stroke="#0061e6" stroke-width="5"/></g></svg>