<svg height="90" viewBox="0 0 180 90" width="180" xmlns="http://www.w3.org/2000/svg"><g fill="none"><path d="m71 32.4989228h3.848833v25.4450629h-3.848833zm15.4309695 6.5216338c4.775404 0 7.4125674 1.9244165 7.8402155 5.8088869h-3.6706463c-.2850988-.9978456-.7127469-1.6749551-1.3185817-2.0669659-.6414722-.4276481-1.6393178-.6414722-2.9222622-.6414722-1.1403949 0-1.9956912.1425494-2.5658887.4989228-.6771095.3563734-.9978456.9265709-.9978456 1.6393178 0 .6414722.4989228 1.1760323 1.4967684 1.6393178.6414722.2850987 1.8531419.6414721 3.7062837 1.1047576 2.1026032.4989228 3.6706463 1.1047576 4.6684919 1.7462298 1.4611311.9265709 2.2095153 2.2095153 2.2095153 3.8488331 0 3.8844703-2.7440754 5.8445242-8.1965889 5.8445242-5.0605027 0-7.7689408-2.1738779-8.1965889-6.4503591h3.7062837c.2138241 1.247307.6771095 2.1382406 1.3185817 2.6371634.6414722.4632855 1.6393178.7127469 3.0648115.7127469 2.9222621 0 4.4190305-.8552963 4.4190305-2.494614 0-.8909336-.5701975-1.6036805-1.6393178-2.1026033-.5701974-.2850987-1.8175044-.6414722-3.7062836-1.0691203-2.1738779-.4989228-3.7062837-1.0334829-4.5615799-1.6036804-1.4254938-.8909336-2.1382406-2.1382406-2.1382406-3.7062837 0-1.6749551.6771095-2.9935368 2.0669659-3.9201077 1.3898564-.9622083 3.2073609-1.4254937 5.4168761-1.4254937zm20.1350985 0c2.779713 0 5.024866.9265709 6.699821 2.7797127 1.639318 1.8175045 2.494614 4.1339318 2.494614 6.9492819 0 2.7797128-.819659 5.0961401-2.458977 6.8780072-1.710592 1.8531418-3.955745 2.8153501-6.735458 2.8153501-2.779712 0-5.024865-.9622083-6.7354575-2.8153501-1.6393178-1.7818671-2.4589767-4.0982944-2.4589767-6.8780072 0-2.8153501.8196589-5.1317774 2.494614-6.9492819 1.6749552-1.8531418 3.9201082-2.7797127 6.6998202-2.7797127zm0 3.1004488c-1.746229 0-3.100449.6771095-4.062657 2.0669659-.855296 1.1760323-1.247307 2.7084381-1.247307 4.5615799s.392011 3.3499103 1.247307 4.5259426c.962208 1.354219 2.316428 2.0669659 4.062657 2.0669659 1.74623 0 3.100449-.7127469 4.098295-2.0669659.855296-1.2116697 1.282944-2.7084381 1.282944-4.5259426 0-1.8531418-.427648-3.3855476-1.282944-4.5615799-.997846-1.3898564-2.352065-2.0669659-4.098295-2.0669659zm13.15018-9.6220826h17.284111v3.3142729h-13.399641v7.4125673h12.651257v3.3142729h-12.651257v11.4039498h-3.88447zm20.776571-.4989228h3.777558v25.9439857h-3.777558zm16.785188 7.0205566c2.708438 0 4.70413.6771095 5.987074 2.0313285 1.104758 1.1760323 1.674955 2.8866248 1.674955 5.1317774v11.7603232h-3.492459v-2.601526c-.712747.9265709-1.603681 1.6749551-2.672801 2.2095152-1.21167.5701975-2.637164.8909336-4.276481.8909336-1.924417 0-3.421185-.4989228-4.490306-1.4611311-1.176032-.9622082-1.746229-2.2095152-1.746229-3.741921 0-2.0669659.819659-3.6706463 2.458976-4.7754039 1.496769-1.0691203 3.635009-1.6036805 6.343447-1.6749552l4.133932-.106912v-.7483842c0-2.5658887-1.389856-3.848833-4.169569-3.848833-1.176032 0-2.138241.213824-2.850987.6414721-.855297.4989228-1.389857 1.247307-1.603681 2.28079l-3.741921-.3207361c.392011-1.9956912 1.389856-3.4924596 2.9579-4.4190305 1.354219-.8552963 3.20736-1.247307 5.48815-1.247307zm3.920108 10.4061041-3.88447.1069121c-3.456823.0712746-5.167415 1.2829443-5.167415 3.5637343 0 .7127468.285099 1.2829443.890934 1.7462298.570197.4632854 1.354219.7127468 2.316427.7127468 1.60368 0 2.957899-.4989228 4.098294-1.461131 1.140395-.9622083 1.74623-2.173878 1.74623-3.5993717zm13.649103-15.8586176v5.9514363h4.205206v3.1360862h-4.205206v10.6912029c0 .4989228.106912.8552962.320736 1.1047576.213824.213824.53456.3563734.997845.3563734h2.42334v3.1360862h-3.029175c-1.568043 0-2.744075-.4276481-3.456822-1.247307-.712747-.7840215-1.033483-1.8887792-1.033483-3.3499102v-10.6912029h-3.421185v-3.1360862h3.421185v-4.3833932z" fill="#464c7b"/><g fill="#eec67c" transform="translate(11.861111 15)"><path d="m28.0382143 4.68097166c2.6675397-1.54493927 5.3181349-3.12753036 7.9989881-4.64696356 2.6748016 1.57530364 5.3907539 3.09716599 8.0498214 4.69068826-2.6505952 1.56680162-5.310873 3.12388664-7.9856746 4.64939271-2.6699603-1.59230769-5.3822817-3.11659919-8.0631349-4.69311741z"/><path d="m9.13063492 4.03967611.07503968.00121458c2.6869048 1.54372469 5.3629167 3.10931174 8.0486111 4.65546559-2.2899206 1.39676112-4.6318849 2.70971662-6.9411706 4.07611332-.37519843.2113361-.73587304.4506073-1.13648812.6145749-2.65301587-1.5291498-5.28424603-3.0983805-7.95904761-4.58744936l-.05567461-.08259109c.56642857-.39352227 1.22968254-.72510122 1.83484127-1.09554656 2.04301587-1.19635628 4.09208334-2.38178138 6.13388889-3.58178138z"/><path d="m.05446429 36.5805668c.42482142-.1870445.79638889-.5271255 1.23694444-.6534413.03146825.2781377-.03873016.5696356.04478175.8392713 2.47751984 1.3748987 4.90420635 2.8408906 7.36841269 4.2412955-.22269841.0935223-.43571428.2052632-.65720238.3024292-2.62638889-1.597166-5.31450396-3.0923077-7.96388889-4.6506073z"/></g><g fill="#00e1a1" transform="translate(18.275794 19.615385)"><path d="m13.5603968 4.7611336c2.6893254-1.56315789 5.3701786-3.13967611 8.0631349-4.69554656 2.6808532 1.57651822 5.3931746 3.10080972 8.063135 4.69311741-.003631 3.11174089-.0459921 6.22591095.022996 9.33522265l-.0907738.048583c-2.6929564 1.5303644-5.3483929 3.1348178-8.0570833 4.6360324l.0060515-.0995951c.0641469-3.0728745.0060516-6.1469636-.0145238-9.21862351-.0653571-.13238867-.2130158-.18582996-.327996-.26477733-2.5344048-1.43562753-5.0276587-2.94655871-7.5765873-4.35546559z"/><path d="m29.6213095 16.0469636c.9815675.479757 1.9195635 1.0955465 2.8829762 1.6311741 1.650873.9534412 3.2981151 1.91417 4.9501984 2.8663967.0338889 3.1020243-.0375198 6.2125506.0375199 9.3121458-2.191885 1.2862348-4.3898215 2.5615384-6.5950199 3.8222672-.0133135-.4712551-.0048412-.9437247-.0036309-1.4161944-.3885119-.3753036-.9561508-.5744939-1.4148611-.876923-.0096826-.8234818.0375198-1.6506073-.0387302-2.4704454.022996-1.9991903-.0350992-3.9947368-.0290476-5.991498.0544643-.0315789.1621825-.0935222.2166468-.1251012.0544643-.1846154.0169445-.3813765.0290476-.5708502-.0169444-2.059919.0326786-4.1222672-.0350992-6.1809716z"/><path d="m7.28853175 20.6222672c1.18490079.7190283 2.39521825 1.3979757 3.59585315 2.0902834.125873 1.434413.0447818 2.9137652.0714088 4.3663968-.0181548 1.671255.0181547 3.3449392-.0169445 5.0149797-.3981944.2307693-.7963889.4603239-1.19095237.6995952-2.24392858 1.3190283-4.51569445 2.5906882-6.74751985 3.9315789l-.12345238-.0097166c.00605159-3.0497976-.05688492-6.097166-.03994047-9.1469635.03994047-.2052632-.19849207-.2708502-.32799603-.3607288-.81212302-.4578947-1.61214286-.9388664-2.41942461-1.4052632 2.39884921-1.3943319 4.80980159-2.7680161 7.19775794-4.1805668.01331349-.3327935-.00242064-.6668016.00121032-.9995951z"/><path d="m13.4054762 41.302834c.4708135-.2793522.941627-.5623482 1.422123-.8271255.0060516.3510121-.0096825.7032389.0072619 1.0554656 2.6711706 1.5668016 5.3629167 3.0995951 8.0340873 4.6663968 2.2160913-1.2704454 4.4237103-2.5566802 6.6325397-3.8404859.0060516 2.7558705.0484127 5.5093118.0302579 8.2663968-2.7002182 1.5728745-5.3992262 3.1506073-8.1151785 4.694332l.0072619-.1117409c.0750396-.5890689-.0108929-1.1805668-.0024207-1.7708502.003631-2.3465587-.0024206-4.6931174.0024207-7.0396761-.0278373-.1627531.0605158-.4080972-.1186111-.502834-2.0938493-1.2206478-4.19375-2.4303644-6.2875993-3.648583-.5216468-.2793523-1.0094047-.6218624-1.5492063-.8672065z"/></g><g fill="#fae5c2" transform="translate(19.849206 19.615385)"><path d="m28.113254 4.75870445c2.6748016-1.52550607 5.3350793-3.08259109 7.9856746-4.64939271-.0048413 3.11417004.0798809 6.23927126.0012103 9.34979757-1.5843056.88178139-3.1383532 1.81578949-4.7141865 2.71457489-1.0735516.6534413-2.2064087 1.2291498-3.2497024 1.9202429-.0689881-3.1093117-.026627-6.22348176-.022996-9.33522265z"/><path d="m2.32501984 8.15708502c2.30928572-1.36639676 4.65125-2.67935223 6.94117064-4.07611336-.03025794 3.11295547.0556746 6.22226724.01936508 9.33643724-1.19821429.7008097-2.4049008 1.3870445-3.59948413 2.091498-1.47416667.8647773-2.97011905 1.6955465-4.42855159 2.5846154l-.05204365-.0303644c-.04357143-3.0959514-.03146825-6.1955466-.01694444-9.29149798.40061508-.16396761.76128968-.40323887 1.13648809-.6145749z"/><path d="m20.0259127 27.4518219c2.5973413-1.5182187 5.2043651-3.0242915 7.8113889-4.5279353-.0060516 1.9967612.0520436 3.9923077.0290476 5.991498.07625.8198381.0290476 1.6469636.0387302 2.4704454-.0096826.2101214.0024206.422672-.0121032.6327935-2.6711706 1.557085-5.3483929 3.1068826-8.0256151 4.6518218-.0302579-.0097166-.0919841-.0291498-.1222421-.0388664.0653572-.3036437.0375199-.6145749.0423612-.9218623-.0012104-2.4303644 0-4.8595142 0-7.2898785-.0048413-.3607288.0302579-.7275304-.0653572-1.0797571.0568849.0121457.1706548.0364372.2275397.048583z"/><path d="m1.42696429 36.7251012c2.23182539-1.3408907 4.50359127-2.6125506 6.74751984-3.9315789-.00605159 2.2955465.00121031 4.5910931-.00242064 6.8878542.00726191.5672065-.0278373 1.1404858.01815476 1.7052632-.25537698.0910931-.54706349.1178137-.69230158.3850202-.78791667.4275304-1.55162699.9048583-2.33349207 1.3469636-.4090873.0704453-.73829365.3825911-1.11107143.559919-.39335317.2696356-.88716269.4141701-1.20184523.7809717l-.1525.0157894c-.8799008.4603239-1.70170635 1.028745-2.59734127 1.4550608-.00484127-3.0789474-.05446429-6.1566802-.04236111-9.2356276.22148809-.0971659.43450396-.2089068.65720238-.3024291.2009127.0959514.36672619.2708502.58700396.3230769z"/></g><g fill="#dbac5e" transform="translate(11.861111 23.744939)"><path d="m1.21757937.05465587c2.67480158 1.48906883 5.30603174 3.0582996 7.95904761 4.58744939-.01452381 3.09595142-.02662698 6.19554654.01694445 9.29149794-.89321429-.5271255-1.7949008-1.0384615-2.68811508-1.565587-1.65450397-.9582996-3.30900794-1.9153846-4.96109127-2.87489879-.11740079-.08866397-.28321429-.11781377-.36309524-.24777328.00726191-1.06153846-.02541667-2.1242915.03025794-3.18461539.00242063-2.00161943-.00968254-4.00445344.00605159-6.00607287z"/><path d="m19.8153175 18.6315789c.2820039.1323887.5398015.3109312.8193849.4481782 1.2756746.7396761 2.5513492 1.4817814 3.8294444 2.2165992.0229961.0121457.0665675.0364372.0883532.048583 1.0227183.5927125 2.0369643 1.2012145 3.072996 1.7708502.0217857.0230769.0629365.0716599.0847223.0947368.095615.3522267.0605158.7190284.0653571 1.0797571 0 2.4303644-.0012103 4.8595142 0 7.2898785-.0048413.3072875.022996.6182187-.0423611.9218624-2.1507341-1.2412956-4.2905754-2.4995952-6.4485714-3.7275304-.1403969-.0850202-.2807937-.1700405-.4211905-.2538461-.354623-.2198381-.7237699-.4129555-1.0747619-.6340081-.0048413-1.7623482.0012103-3.5246964-.003631-5.28583.0750397-1.3178137.0169445-2.6477733.030258-3.9692308z"/><path d="m.0835119 27.9145749c2.64938493 1.5582996 5.3375 3.0534413 7.96388889 4.6506073-.01210317 3.0789474.03751984 6.1566801.04236111 9.2356275.89563493-.4263158 1.71744048-.9947368 2.5973413-1.4550607l.1525-.0157895c-.88716272.5684211-1.80942463 1.1004049-2.73773812 1.597166-2.66269841-1.5668016-5.33992064-3.1129555-8.01956349-4.6481781.00363095-.1688259.01089285-.3364373.00968254-.5040486-.00726191-2.9538462.00968254-5.9076923-.00847223-8.8603239z"/><path d="m12.0414484 39.5489879c.3727778-.177328.7019841-.4894737 1.1110714-.5599191-.7540277.4736842-1.5237896.931579-2.3129166 1.3408907.3146825-.3668016.808492-.511336 1.2018452-.7809716z"/></g><g fill="#00a764" transform="translate(13.071429 24.352227)"><path d="m18.8531151.10323887c2.5489286 1.40890688 5.0421825 2.91983805 7.5765873 4.35546558.1149801.07894737.2626389.13238867.327996.26477733.0205754 3.07165992.0786706 6.14574902.0145238 9.21862352-2.6639087-1.5012146-5.3060317-3.048583-7.9433135-4.59595145-.019365-.24777328-.0048412-.49797571-.0096825-.74574899.0048413-2.83360324-.0157341-5.66720648.0338889-8.49716599z"/><path d="m.0968254 19.0396761c1.44269841.8198381 2.87450397 1.6603239 4.30873016 2.4959514.32799603-.0716599.5894246-.3218623.88837301-.4700405.80728175.4663968 1.60730159.9473685 2.4194246 1.4052632.12950397.0898785.36793651.1554656.32799604.3607287-.01694445 3.0497976.04599206 6.097166.03994047 9.1469636-.22027778-.0522267-.38609127-.2271255-.58700397-.3230769-2.46420634-1.4004049-4.89089285-2.8663968-7.36841269-4.2412956-.08351191-.2696356-.0133135-.5611336-.04478175-.8392712.02662698-2.5105263-.00484127-5.0234818.01573413-7.5352227z"/><path d="m18.6727778 36.640081c.5398016.2453441 1.0275595.5878542 1.5492063.8672064 2.0938492 1.2182187 4.19375 2.4279353 6.2875992 3.648583.179127.0947369.0907738.340081.1186111.5028341-.0048412 2.3465587.0012104 4.6931174-.0024206 7.0396761-.0084722.5902834.0774603 1.1817813.0024206 1.7708502l-.0931944.008502c-2.6203373-1.548583-5.2673016-3.0534413-7.8961111-4.5874494.0169444-3.0838057.0423611-6.1663968.0338889-9.2502024z"/></g><g fill="#001167" transform="translate(0 29.696356)"><path d="m9.46589286 2.20688259c1.19821424-.70323887 2.39521824-1.41497976 3.60674604-2.09757085-.0556746 1.06032389-.022996 2.12307692-.0302579 3.18461539.0798809.12995951.2456944.15910931.3630952.24777327 1.6520833.95951417 3.3065873 1.9165992 4.9610913 2.87489879-.2868453.20526316-.6027381.3631579-.8992659.55263158-.0096826 3.07287453-.0278373 6.14939273.0096825 9.22226723-1.4342262-.8356276-2.8660317-1.6761134-4.3087301-2.4959514-1.223631-.7384616-2.5029365-1.4113361-3.69751987-2.1777328-.02904762-3.1032389.09924603-6.21133607-.00484127-9.31093121z"/><path d="m31.8519246 3.38380567c.0096825-.03279352.0290476-.09595142.0387302-.12753037.0048412.24777328-.0096826.49797571.0096825.74574899 2.6372817 1.54736842 5.2794048 3.09473684 7.9433135 4.59595142l-.0060516.09959514c-.0568849 1.95789475-.0048413 3.91943315-.0254167 5.87854255-.0254166.9097166.1174008 1.825506-.0133135 2.7315789-.0568849-.0121457-.1706547-.0364372-.2275396-.048583-.0217857-.0230769-.0629365-.0716599-.0847223-.0947368-1.0360317-.5696357-2.0502777-1.1781377-3.072996-1.7708502-.0217857-.0121458-.0653571-.0364373-.0883532-.048583-1.2780952-.7348178-2.5537698-1.4769231-3.8294444-2.2165992-.156131-.282996-.5494841-.3121458-.6741468-.6157895.0520436-3.04129554.0484127-6.08502024.0302579-9.12874493z"/><path d="m29.2315873 16.9979757c.5034921-.2890688.9973016-.5951417 1.5056349-.8732793.3122619.1591093.6063691.3497975.9089484.5246963.0048413 1.7611336-.0012103 3.5234818.003631 5.28583.3509921.2210526.7201389.41417 1.0747619.6340081-.6463095.4044534-1.3119841.7748988-1.9728175 1.1538461-.1161904.3740891-.0036309.78583-.0181547 1.1757085-.0048413 2.0769231.0217857 4.1538462-.0133135 6.2295547-.9210516-.4445344-1.8009524-1.0202429-2.699008-1.5279352.003631-2.2967612-.0036309-4.5923077.0024207-6.8878543.3945635-.2392712.7927579-.4688259 1.1909524-.6995951.0350992-1.6700405-.0012104-3.3437247.0169444-5.0149798z"/><path d="m47.7542857 21.3048583c.4587103.3024291 1.0263492.5016194 1.4148611.8769231-2.695377 1.5352226-5.3689682 3.11417-8.0461905 4.6821862-.0774603 1.4854251-.0096825 2.9842105-.0326785 4.4744939.0084722 1.5923077-.026627 3.1870446.0544643 4.7781377-2.6711707-1.5668016-5.3629167-3.0995952-8.0340873-4.6663968-.0169445-.3522267-.0012104-.7044534-.0072619-1.0554656-.0024207-.1773279-.0024207-.3546558.0024206-.5307692.0593055-2.3465587.0024206-4.694332.0399405-7.0408907 2.157996 1.2279352 4.2978373 2.4862348 6.4485714 3.7275304.0302579.0097166.0919841.0291498.1222421.0388664 2.6772222-1.5449393 5.3544444-3.0947369 8.025615-4.6518219.0145238-.2101214.0024207-.422672.0121032-.6327935z"/><path d="m49.2006151 27.7190283c1.723492-.9838056 3.4251984-2.002834 5.1462698-2.9902834l.0944048-.0024291c2.1471032 1.2740891 4.3414087 2.4813765 6.4691468 3.7797571-2.1592063 1.3068826-4.369246 2.5287449-6.5272421 3.8356275-.0278373 1.3639676-.0024206 2.7291498-.0108928 4.0931174-.0157341 1.102834.0750397 2.2080972-.003631 3.3109312-2.1483135-1.2230769-4.2748412-2.4874494-6.4267857-3.7068826-.0338889-1.2801619-.0108928-2.562753.0181548-3.8417004l-.182758.0789474c.4708135-.2902834 1.0021429-.5040486 1.4233334-.8647774.026627-1.2303643-.0205754-2.4619433 0-3.6923077z"/><path d="m.08835317 31.4635628c2.14710318-1.2631579 4.30267858-2.5105264 6.4534127-3.7663968 1.80942461 1.0287449 3.60674603 2.0854251 5.41132933 3.1263158.0012104.1676113-.0060515.3352227-.0096825.5040486 2.6796429 1.5352226 5.3568651 3.0813765 8.0195635 4.6481781-.0641468 3.088664-.0169445 6.1821862-.0242064 9.2720648-2.6372817-1.5910931-5.3411309-3.0838057-7.9856746-4.6639676-.0048412-.3-.0012103-.5987855.0012104-.8987855-.0363096-2.5032388.0617261-5.0064777.0242063-7.5097166-1.7428571.9449393-3.42640873 2.0028341-5.15595238 2.9732794-.11013889.0789474-.32073412.1238866-.28684523.3060729-.01694445 1.7842105.00121031 3.5696356-.00726191 5.3538461-.01331349.6157895.10650794 1.2364373-.01694444 1.8473684l-.06172619.0497976c-2.11079365-1.2473684-4.24821429-2.4497976-6.35658731-3.7008097-.04841269-2.51417.09198413-5.0307692-.00484127-7.5412955z"/></g><g fill="#082cb4" transform="translate(6.414683 33.704453)"><path d="m33.4229167 4.68947368c2.7086904-1.50121457 5.364127-3.10566801 8.0570833-4.63603238.0072619.63400809.0048413 1.26923076.0024206 1.90445344.0677778 2.05870445.0181548 4.12105263.0350992 6.18097166-.0121031.18947368.0254167.38623481-.0290476.5708502-.0544643.03157895-.1621825.09352227-.2166468.12510121-2.6070238 1.50364369-5.2140476 3.00971659-7.8113889 4.52793519l-.07625-.0631579c.1307143-.9060728-.0121032-1.8218623.0133135-2.7315789.0205754-1.95910932-.0314683-3.92064778.0254167-5.87854252z"/><path d="m14.6920437 4.00445344c1.4584325-.88906882 2.9543849-1.71983806 4.4285515-2.58461538.0217858 1.70404858.0484127 3.40809716.0290477 5.11336032-.003631.33279352.0121031.66680162-.0012104.99959514-2.3879563 1.41255061-4.7989087 2.78623478-7.1977579 4.18056678-.2989484.1481782-.560377.3983806-.888373.4700405-.0375199-3.07287448-.0193651-6.1493927-.0096826-9.2222672.2965278-.18947368.6124207-.34736842.8992659-.55263158.8932143.52712551 1.7949008 1.03846154 2.6881151 1.56558705z"/><path d="m25.215754 8.64777328c.0169444-.12024292.0798809-.16761134.1912301-.14331984.1246627.30364373.5180159.33279352.6741469.61578947-.2795834-.13724696-.537381-.31578947-.819385-.44817813z"/><path d="m29.9105754 11.3368421c.022996.0121458.0665675.0364373.0883532.048583-.0217857-.0121457-.0653572-.0364372-.0883532-.048583z"/><path d="m33.0719246 13.1562753c.0217857.0230769.0629365.0716599.0847222.0947368-.0217857-.0230769-.0629365-.0716599-.0847222-.0947368z"/><path d="m34.7082738 22.8558704c2.6772222-1.5680161 5.3508135-3.1469635 8.0461905-4.6821862-.0012103.4724696-.0096826.9449393.0036309 1.4161943-.0290476 1.3761134.0459921 2.7449393.0278373 4.1210527-.0205754 1.2303643.026627 2.4619433 0 3.6923077-.4211904.3607287-.9525198.5744939-1.4233333.8647773-2.2088294 1.2838057-4.4164484 2.5700405-6.6325397 3.8404858-.0810912-1.5910931-.045992-3.1858299-.0544643-4.7781376.0229961-1.4902834-.0447817-2.9890689.0326786-4.474494z"/><path d="m24.3370635 19.7149798c.6608333-.3789474 1.3265079-.7493928 1.9728175-1.1538462.1403968.0838057.2807936.1688259.4211904.2538462-.0375198 2.3465587.0193651 4.6943319-.0399404 7.0408906-.7963889.4591094-1.5891469.9255061-2.3891667 1.3761134l.0036309-.1117409c.0350992-2.0757085.0084723-4.1526316.0133135-6.2295546.0145238-.3898786-.0980357-.8016195.0181548-1.1757085z"/><path d="m47.9685119 28.3336032c2.157996-1.3068826 4.3680357-2.5287449 6.5272421-3.8356275-.0375199 2.51417.072619 5.0271255.0121031 7.5376518-2.1834127 1.2425102-4.3535119 2.5068826-6.5224008 3.7736842l-.0314682-.0716599c.0786706-1.102834-.0121032-2.2080971.0036309-3.3109312.0084723-1.3639676-.0169444-2.7291497.0108929-4.0931174z"/><path d="m20.9324405 27.6825911c.225119-.1226721.4478174-.259919.7056151-.3l-.0350993.1712551c.0157342 2.231174-.0290476 4.4647773.0326786 6.6923076-.0205754.7834009.0387302 1.5825911-.0290476 2.3562753-2.2826587 1.3226721-4.5665278 2.6404859-6.8467659 3.9680162-.4199801.2016195-.808492.5307693-1.2357341.6692308.0072619-3.0898785-.0399405-6.1834008.0242064-9.2720648.9283134-.4967611 1.8505753-1.0287449 2.737738-1.597166.789127-.4093117 1.5588889-.8672064 2.3129167-1.3408906.7818651-.4421053 1.5455754-.9194332 2.3334921-1.3469636z"/><path d="m.40787698 31.1404858c1.72954365-.9704453 3.41309524-2.0283401 5.15595239-2.9732793.03751984 2.5032388-.06051588 5.0064777-.02420635 7.5097166-1.78037699 1.005668-3.53775794 2.0526316-5.31450397 3.065587l-.14765873.031579.01936508-.1263158c.12345238-.6109312.00363095-1.231579.01694444-1.8473684.00847222-1.7842106-.00968254-3.5696357.00726191-5.3538462-.03388889-.1821862.17670634-.2271255.28684523-.3060729z"/></g></g></svg>