<svg height="90" viewBox="0 0 180 90" width="180" xmlns="http://www.w3.org/2000/svg"><g transform="translate(39 4)"><path d="m6.79727405 31.2036735 3.44435865-30.2372012h3.4443586l-5.12081637 39.3205539v39.320554h-3.4443586v-39.320554l-5.12081633-39.3205539h3.41387755z"/><path d="m36.595102 79.6075802h-3.4138775v-37.5831341h-6.8277551v37.5831341h-3.4139266l.000049-71.7523907c-.0035268-.92232817.1832518-1.83546795.5486589-2.68233236.3508006-.79770902.8353069-1.52962276 1.4326094-2.16415452.6251617-.61676885 1.3588496-1.11278319 2.1641545-1.46309038 1.6920354-.73245512 3.6116672-.73245512 5.3037026 0 .8361272.34353121 1.6010165.83967562 2.2555977 1.46309038.6167688.62516177 1.1127832 1.35884965 1.4630903 2.16415452.3654072.84686441.5521858 1.76000419.5486589 2.68233236zm-3.4138775-40.9970117v-30.755379c.0167045-.91851982-.3408155-1.80434509-.9904145-2.45394408-.649599-.649599-1.5354243-1.00711904-2.4539441-.99041452-.9076754-.01443858-1.7803002.35007556-2.4080029 1.00587464-.6402121.64833127-.9918704 1.52747714-.9753936 2.43848396v30.755379z"/><path d="m47.4641983 7.82470845c-.0257131-.90840977.1404696-1.81202822.4876967-2.65185131.3683706-.81924895.8850773-1.5633065 1.5240525-2.19463557.6084983-.62277829 1.3334609-1.11989548 2.1336735-1.46309037.8565474-.36868572 1.7803137-.55551487 2.7128134-.5486589.9535004-.02112936 1.9001226.16611458 2.7737755.5486589.8053049.35030718 1.5389928.84632152 2.1641545 1.46309037.6366456.62678346 1.1440923 1.37241946 1.4935715 2.19463557.3437978.8417632.5198211 1.74258812.5181778 2.65185131v17.09986885h-3.5662828v-17.09986885c.0235645-.91229126-.3291632-1.79411066-.9753936-2.43848396-.6427457-.62978674-1.5081535-.98033164-2.4080029-.97539359-.8972392-.0003399-1.7564724.36222584-2.3822463 1.00522293-.625774.64299708-.9648828 1.51175527-.9401881 2.40865462v27.43294465c-.0164768.9110068.3351815 1.7901527.9753936 2.4384839.6494783.6350753 1.5306608.9765335 2.438484.9449126.9125083-.0037336 1.8157396.1831418 2.6518513.5486589 1.6256358.7307449 2.926981 2.0320901 3.6577259 3.6577259.3437979.8417632.5198211 1.7425881.5181779 2.6518513v27.4329446c.0016432.9092632-.17438 1.8100881-.5181779 2.6518513-.3421613.8261894-.8505447 1.5732019-1.4935714 2.1946356-.6251618.6167689-1.3588497 1.1127832-2.1641545 1.4630904-.8361117.365517-1.739343.5523925-2.6518513.5486589-.9324997.0068559-1.856266-.1799732-2.7128135-.5486589-.8002126-.3431949-1.5251751-.8403121-2.1336734-1.4630904-.6239089-.6309618-1.1206291-1.3760421-1.4630904-2.1946356-.3681304-.8352779-.5551221-1.7390712-.5486589-2.6518513v-17.2827551h3.4443586v17.0998688c-.017817.9202563.3334343 1.8093611.9753936 2.468965.6380627.6557226 1.5242161 1.0101839 2.438484.9753936.9024468.0187517 1.7730054-.3338796 2.4080029-.9753936.6419593-.6596039.9932106-1.5487087.9753936-2.468965v-27.4329446c.0116977-.9011341-.3398587-1.7690389-.9753936-2.4080029-.6427458-.6297867-1.5081535-.9803316-2.4080029-.9753936-.9324997.006856-1.856266-.1799732-2.7128135-.5486589-.8077945-.3432613-1.5346526-.8520619-2.1336734-1.4935714-.6167689-.6251618-1.1127832-1.3588497-1.4630904-2.1641545-.3681304-.835278-.5551221-1.7390712-.5486589-2.6518513z"/><path d="m85.6443149 79.6075802h-3.3529155v-37.5831341h-6.8582361v37.5831341h-3.3834456l.0000491-71.7523907c-.0035269-.92232817.1832517-1.83546795.5486589-2.68233236.328487-.80967674.8155738-1.54548873 1.4326093-2.16415452.6251618-.61676885 1.3588496-1.11278319 2.1641545-1.46309038 1.6920354-.73245512 3.6116672-.73245512 5.3037026 0 .8053049.35030719 1.5389928.84632153 2.1641545 1.46309038 1.2898728 1.28027442 2.0048665 3.02925895 1.9812683 4.84648688zm-3.3529155-40.9970117v-30.755379c.0192553-.91750071-.3453501-1.80139241-1.0058746-2.43848396-.6409647-.64591467-1.5132756-1.00920478-2.4232435-1.00920478-.9099678 0-1.7822787.36329011-2.4232434 1.00920478-.6605246.63709155-1.0251299 1.52098325-1.0058746 2.43848396v30.755379z"/><path d="m96.5743732.9664723h3.3833965v78.6411079h-3.3833965z"/></g></svg>