<svg height="18" viewBox="0 0 214 18" width="214" xmlns="http://www.w3.org/2000/svg"><path d="m11.5224609 14h-2.56640621l-5.15917969-8.63085938-.05273438.00878907v8.62207031h-2.56640624v-12.796875h2.56640624l5.15917969 8.62207031.05273438-.00878906v-8.61328125h2.56640621zm5.0976563 0h-2.5664063v-12.796875h2.5664063zm12.6826172-12.796875v8.37597656c0 1.44141344-.4775343 2.56933184-1.4326172 3.38378904s-2.1943283 1.2216797-3.7177734 1.2216797c-1.5175858 0-2.749507-.4072225-3.6958008-1.2216797s-1.4194336-1.9423756-1.4194336-3.38378904v-8.37597656h2.5751953v8.37597656c0 .85547304.2285133 1.50878684.6855469 1.95996094.4570335.4511741 1.0751914.6767578 1.8544922.6767578.7910195 0 1.4179664-.2255837 1.8808593-.6767578.462893-.4511741.694336-1.1044879.694336-1.95996094v-8.37597656zm5.7304687 7.453125h-.9404297v5.34375h-2.5664062v-12.796875h2.5664062v5.22949219h.7207032l3.5068359-5.22949219h3.1728516l-4.4296875 5.95019531 4.7724609 6.84667969h-3.2695313zm10.7050781 5.34375h-2.5664062v-12.796875h2.5664062zm14.0273438-3.6210938.3867188 1.959961.0527343.008789.4833985-1.96875 2.7070312-9.1757812h.9931641l2.7070312 9.1757812.4658203 1.9775391.0527344-.0087891.413086-1.96875 2.3115234-9.1757812h1.0722656l-3.2871094 12.796875h-.993164l-2.8740235-9.81738281-.3339843-1.34472657h-.0527344l-.3251953 1.34472657-2.9003907 9.81738281h-1.0019531l-3.2871093-12.796875h1.0810546zm17.1650391 3.8056641c-1.1894591 0-2.1782188-.4394487-2.9663086-1.3183594-.7880899-.8789106-1.1821289-1.9921807-1.1821289-3.33984371v-.48339844c0-1.3593818.3911093-2.48730021 1.1733398-3.38378906.7822305-.89648886 1.7299749-1.34472657 2.8432617-1.34472657 1.1660215 0 2.0830045.36913694 2.7509766 1.10742188s1.0019531 1.7226501 1.0019531 2.953125v.89648438h-6.7148437v.25488281c0 1.07227101.2841768 1.96874641.852539 2.68945311s1.3154251 1.0810547 2.241211 1.0810547c.6562532 0 1.215818-.0908194 1.6787109-.2724609.4628929-.1816416.8583968-.4423812 1.1865234-.7822266l.4482422.7207031c-.3574236.3750019-.8100558.6723622-1.3579101.8920899-.5478543.2197276-1.1997033.3295898-1.9555664.3295898zm-.131836-8.9736328c-.7793007 0-1.4326145.29736031-1.9599609.89208984-.5273464.59472954-.8349605 1.34032755-.9228516 2.23681641l.0175782.04394531h5.5722656v-.26367187c0-.82617601-.2431617-1.51757534-.7294922-2.07421875-.4863306-.55664341-1.1455037-.83496094-1.9775391-.83496094zm13.5 4.29785156c0 1.42383524-.3222624 2.55907784-.9667969 3.40576174-.6445344.8466839-1.5322209 1.2700195-2.6630859 1.2700195-.6972691 0-1.297849-.1391588-1.8017578-.4174805s-.9111313-.67822-1.2216797-1.199707l-.1142578 1.4326172h-.9052734v-13.7109375h1.0546875v5.6953125c.3164078-.53320579.7207006-.94482277 1.2128906-1.23486328.4921899-.29004051 1.0781216-.4350586 1.7578125-.4350586 1.1425838 0 2.0361296.45556186 2.680664 1.36669922.6445345.91113737.9667969 2.1254807.9667969 3.64306641zm-1.0634765-.18457031c0-1.21289669-.2343727-2.19872667-.703125-2.95751953-.4687524-.75879286-1.1630814-1.1381836-2.0830078-1.1381836-.7324256 0-1.3227517.18163881-1.7709961.54492188-.4482445.36328307-.7807607.82909872-.9975586 1.39746094v4.29785156c.2343761.550784.5844703.9887679 1.0502929 1.3139648.4658227.325197 1.0444302.487793 1.7358399.487793.9199264 0 1.6113258-.3398403 2.0742187-1.0195312.462893-.6796909.694336-1.5937443.694336-2.74218754zm9.1142578 2.25878905c0-.4453147-.1831037-.8349593-.5493164-1.1689453-.3662128-.333986-1.0268507-.60644426-1.9819336-.81738281-1.1367245-.24609498-1.9760715-.57128704-2.5180664-.97558594s-.8129883-.97558225-.8129883-1.71386719c0-.72656613.3061493-1.34032952.918457-1.84130859.6123078-.50097907 1.4223583-.75146485 2.4301758-.75146485 1.072271 0 1.9218719.26513407 2.5488281.79541016.6269563.53027609.9257814 1.19384367.8964844 1.99072266l-.0175781.05273437h-.975586c0-.52148698-.2211892-.975584-.6635742-1.36230469-.442385-.38672068-1.0385704-.58007812-1.7885742-.58007812-.767582 0-1.3432598.16552569-1.7270508.49658203s-.5756836.71923606-.5756836 1.16455078c0 .43945532.1655257.80273294.4965821 1.08984375.3310563.28711081.9916942.53906142 1.9819336.75585938 1.130865.25195438 1.9775362.59618922 2.540039 1.03271484s.84375 1.02978142.84375 1.77978512c0 .7910196-.3207976 1.4311499-.9624023 1.9204102-.6416048.4892603-1.4897409.7338867-2.5444336.7338867-1.1543027 0-2.0610319-.2753879-2.7202149-.8261719s-.9711916-1.2070274-.9360351-1.96875l.0175781-.0527343h.9667969c.0410158.6855503.3207982 1.1835922.8393554 1.4941406.5185573.3105484 1.1293911.4658203 1.8325196.4658203.7617225 0 1.3623025-.1669905 1.8017578-.5009766.4394553-.333986.6591797-.7382788.6591797-1.2128906zm4.6494136 2.4169922h-1.045898v-9.50976562h1.045898zm0-12.234375h-1.045898v-1.4765625h1.045898zm4.561524.29003906v2.43457032h2.091797v.86132812h-2.091797v6.1962891c0 .6210968.112792 1.0620104.338379 1.3227539s.525877.3911133.900879.3911133c.169922 0 .335448-.0073242.496582-.0219727.161133-.0146485.347167-.0395506.558105-.074707l.158203.7822265c-.175782.0761723-.389647.1347654-.641601.1757813-.251955.0410158-.503905.0615234-.75586.0615234-.667972 0-1.187986-.2109354-1.560058-.6328125s-.558106-1.0898392-.558106-2.0039062v-6.1962891h-1.643554v-.86132812h1.643554v-2.43457032zm7.892578 12.12890624c-1.189459 0-2.178219-.4394487-2.966309-1.3183594-.788089-.8789106-1.182128-1.9921807-1.182128-3.33984371v-.48339844c0-1.3593818.391109-2.48730021 1.173339-3.38378906.782231-.89648886 1.729975-1.34472657 2.843262-1.34472657 1.166022 0 2.083005.36913694 2.750977 1.10742188s1.001953 1.7226501 1.001953 2.953125v.89648438h-6.714844v.25488281c0 1.07227101.284177 1.96874641.852539 2.68945311s1.315425 1.0810547 2.241211 1.0810547c.656253 0 1.215818-.0908194 1.678711-.2724609.462893-.1816416.858397-.4423812 1.186523-.7822266l.448243.7207031c-.357424.3750019-.810056.6723622-1.357911.8920899-.547854.2197276-1.199703.3295898-1.955566.3295898zm-.131836-8.9736328c-.779301 0-1.432614.29736031-1.959961.89208984-.527346.59472954-.83496 1.34032755-.922851 2.23681641l.017578.04394531h5.572265v-.26367187c0-.82617601-.243161-1.51757534-.729492-2.07421875-.48633-.55664341-1.145504-.83496094-1.977539-.83496094zm24.301758 8.7890625h-1.045899l-7.268554-11.00390625-.052735.00878906v10.99511719h-1.054687v-12.796875h1.054687l7.268555 10.9863281.052734-.008789v-10.9775391h1.045899zm9.087891 0c-.070313-.3222672-.120118-.6005848-.149415-.8349609-.029297-.2343762-.043945-.4716785-.043945-.7119141-.351564.4980494-.820309.9111312-1.40625 1.2392578-.58594.3281267-1.245113.4921875-1.977539.4921875-.925786 0-1.645017-.2460913-2.157715-.7382812-.512698-.49219-.769043-1.1513631-.769043-1.9775391 0-.8789106.379391-1.58202861 1.138184-2.109375s1.782708-.79101562 3.071777-.79101562h2.100586v-1.17773438c0-.6796909-.218259-1.21288869-.654785-1.59960938-.436526-.38672068-1.047359-.58007812-1.83252-.58007812-.732425 0-1.340329.18456847-1.82373.55371094s-.725098.82030983-.725098 1.35351562l-.966797-.00878906-.017578-.05273438c-.035156-.70898791.288571-1.34325892.971192-1.90283203.68262-.55957311 1.551264-.83935547 2.605957-.83935547 1.048833 0 1.892575.2665989 2.53125.79980469s.958008 1.29784658.958008 2.29394531v4.67578128c0 .333986.019042.6591781.057128.9755859.038087.3164078.101074.6298813.188965.9404297zm-3.454102-.7470703c.755863 0 1.423825-.1772443 2.003906-.5317383s.999022-.8071261 1.256836-1.3579102v-1.98632808h-2.118164c-.955083 0-1.718259.20361125-2.289551.61083985-.571292.40722863-.856933.91259463-.856933 1.51611323 0 .5156276.177244.9360336.531738 1.2612305.354494.325197.845212.487793 1.472168.487793zm9.817383-1.6347656.307617 1.1162109h.052734l.333985-1.1162109 2.583984-7.12792972h1.089844l-3.612305 9.50976562h-.84375l-3.621094-9.50976562h1.089844zm7.277343 2.3818359h-1.045898v-9.50976562h1.045898zm0-12.234375h-1.045898v-1.4765625h1.045898zm2.496094 7.55859375c0-1.51758571.323727-2.73192904.971192-3.64306641.647464-.91113736 1.548334-1.36669922 2.702636-1.36669922.673832 0 1.256834.14794774 1.749024.44384766s.899412.71337621 1.22168 1.25244141l.123046-1.52050781h.887696v9.38671872c0 1.2246155-.338376 2.1914027-1.015137 2.9003907-.676761.7089879-1.618646 1.0634765-2.825684 1.0634765-.457033 0-.943356-.0556635-1.458984-.1669922s-.966795-.2636709-1.353516-.4570312l.272461-.8876953c.375002.1875009.770506.3295893 1.186524.4262695.416017.0966802.861326.1450195 1.335937.1450195.925786 0 1.62451-.2665989 2.096192-.7998047s.707519-1.2744093.707519-2.2236328v-1.1953125c-.322267.4804712-.72949.8510729-1.22168 1.1118164-.492189.2607435-1.066402.3911133-1.722656.3911133-1.142584 0-2.037594-.4248004-2.685058-1.2744141-.647465-.8496136-.971192-1.9833913-.971192-3.40136714zm1.054688.18457031c0 1.14258384.234372 2.05517234.703125 2.73779294.468752.6826206 1.166011 1.0239258 2.091797 1.0239258.679691 0 1.246579-.1552719 1.700683-.4658203s.804198-.7382785 1.050293-1.2832031v-4.4121094c-.228517-.550784-.563962-1.00195137-1.006347-1.35351562-.442385-.35156426-1.018063-.52734376-1.727051-.52734376-.925786 0-1.625974.38085557-2.100586 1.14257813s-.711914 1.74608771-.711914 2.953125zm15.407226 4.49121094c-.070313-.3222672-.120117-.6005848-.149414-.8349609-.029297-.2343762-.043945-.4716785-.043945-.7119141-.351564.4980494-.82031.9111312-1.40625 1.2392578-.58594.3281267-1.245114.4921875-1.977539.4921875-.925786 0-1.645017-.2460913-2.157715-.7382812-.512698-.49219-.769043-1.1513631-.769043-1.9775391 0-.8789106.379391-1.58202861 1.138184-2.109375s1.782708-.79101562 3.071777-.79101562h2.100586v-1.17773438c0-.6796909-.21826-1.21288869-.654785-1.59960938-.436526-.38672068-1.04736-.58007812-1.83252-.58007812-.732425 0-1.340329.18456847-1.82373.55371094s-.725098.82030983-.725098 1.35351562l-.966797-.00878906-.017578-.05273438c-.035156-.70898791.288571-1.34325892.971192-1.90283203.68262-.55957311 1.551264-.83935547 2.605957-.83935547 1.048833 0 1.892574.2665989 2.53125.79980469.638675.53320579.958007 1.29784658.958007 2.29394531v4.67578128c0 .333986.019043.6591781.057129.9755859s.101074.6298813.188965.9404297zm-3.454101-.7470703c.755863 0 1.423825-.1772443 2.003906-.5317383s.999022-.8071261 1.256836-1.3579102v-1.98632808h-2.118164c-.955083 0-1.718259.20361125-2.289551.61083985-.571292.40722863-.856934.91259463-.856934 1.51611323 0 .5156276.177245.9360336.531739 1.2612305.354494.325197.845211.487793 1.472168.487793zm8.762695-11.19726564v2.43457032h2.091797v.86132812h-2.091797v6.1962891c0 .6210968.112792 1.0620104.338379 1.3227539s.525877.3911133.900879.3911133c.169923 0 .335448-.0073242.496582-.0219727s.347167-.0395506.558105-.074707l.158203.7822265c-.175782.0761723-.389647.1347654-.641601.1757813-.251954.0410158-.503905.0615234-.755859.0615234-.667973 0-1.187987-.2109354-1.560059-.6328125s-.558105-1.0898392-.558105-2.0039062v-6.1962891h-1.643555v-.86132812h1.643555v-2.43457032zm5.501953 11.94433594h-1.045898v-9.50976562h1.045898zm0-12.234375h-1.045898v-1.4765625h1.045898zm2.320313 7.33886719c0-1.40039763.383785-2.54882365 1.151367-3.4453125.767582-.89648886 1.784173-1.34472657 3.049805-1.34472657 1.27149 0 2.291011.44823771 3.058593 1.34472657.767582.89648885 1.151367 2.04491487 1.151367 3.4453125v.29003906c0 1.40625705-.38232 2.55614785-1.146972 3.44970705-.764652.8935591-1.779779 1.340332-3.04541 1.340332-1.27735 0-2.299801-.4467729-3.067383-1.340332-.767582-.8935592-1.151367-2.04345-1.151367-3.44970705zm1.054687.29003906c0 1.10156805.278318 2.02733995.834961 2.77734375.556644.7500037 1.333003 1.125 2.329102 1.125.97852 0 1.747555-.3749963 2.307129-1.125.559573-.7500038.839355-1.6757757.839355-2.77734375v-.29003906c0-1.0839898-.281247-2.00390247-.84375-2.75976563-.562503-.75586315-1.335933-1.13378906-2.320312-1.13378906-.98438 0-1.75488.37792591-2.311524 1.13378906-.556643.75586316-.834961 1.67577583-.834961 2.75976563zm10.485352-4.90429687.096679 1.66113281c.304689-.58594043.716306-1.03857262 1.234864-1.35791016.518557-.31933753 1.13232-.47900391 1.841308-.47900391 1.031255 0 1.816404.31493826 2.355469.94482422.539065.62988597.808594 1.61278629.808594 2.94873047v5.79199219h-1.054688v-5.78320312c0-1.0898492-.203611-1.86034931-.61084-2.31152344-.407228-.45117413-.985836-.67675782-1.735839-.67675782-.738285 0-1.34033.19482228-1.806153.58447266-.465822.38965039-.801268.90673506-1.006347 1.55126953v6.63574219h-1.054688v-9.50976562z" fill="#fff" fill-rule="evenodd"/></svg>