<svg height="90" viewBox="0 0 180 90" width="180" xmlns="http://www.w3.org/2000/svg"><g fill="none" transform="translate(30 11)"><g fill="#80e6ff"><path d="m.33 7.88c-.28-3.94 3.64-7.6 7.55-7.31 8.69-.01 17.39.01 26.08 0 9.17-.03 18.04 4.07 24.44 10.55-2.99 4.03-5.5 8.48-6.64 13.4-3.41-5.61-9.18-10.06-15.92-10.36-5.96-.12-11.92-.08-17.88-.03-2.04-.12-3.94 1.74-3.86 3.79-.08 11.96.14 23.94-.11 35.9-4.54-.12-9.08-.1-13.62-.09-.03-15.28.01-30.57-.04-45.85z"/><path d="m85.44 27.55c4.78-1.66 10.04 3.4 8.42 8.22-1.08 4.89-8.06 6.68-11.34 2.88-3.62-3.33-1.73-9.9 2.92-11.1z"/></g><g fill="#488eff"><path d="m54.06 32.98c.05-15.15 11.94-29.01 26.78-31.73 16.3-3.71 34.05 7.11 38.51 23.15 4.76 14.89-2.65 32.34-16.65 39.27-13.84 7.55-32.65 3.3-41.86-9.5-6.15 7.91-15.77 13.06-25.84 13.25-9.05.02-18.1.01-27.15.01-3.33.29-6.09-2.25-7.36-5.12-.35-2.84-.07-5.72-.12-8.58 4.54-.01 9.08-.03 13.62.09 7.37.1 14.75.16 22.11 0 10.32-.68 18.5-10.64 17.96-20.84zm28.32-18.32c-7.58 1.89-13.65 8.58-14.76 16.32-1.25 7.54 2.36 15.56 8.77 19.68 6.27 4.24 15.03 4.39 21.42.33 4.91-2.99 8.4-8.2 9.29-13.88 1.32-7.55-2.33-15.59-8.73-19.74-4.61-3.18-10.59-4.03-15.99-2.71z"/><path d="m27.23 27.4c3.8.21 8.41-1.19 11.47 1.78 2.75 2.46 2.75 7.18 0 9.64-3.06 2.97-7.67 1.57-11.47 1.78.15-4.4.15-8.8 0-13.2z"/></g></g></svg>