<svg height="90" viewBox="0 0 180 90" width="180" xmlns="http://www.w3.org/2000/svg"><g fill="#333" fill-rule="evenodd" transform="translate(9 21)"><path d="m150.916527.28023952c1.026108-.11101796 2.069461-.30179641 3.098802-.09808383 1.336527.11101796 2.581437.6445509 3.782156 1.20718563.447305.22742515.863353.51736527 1.336527.69520958.267305-.42682635.529222-.85688623.783593-1.29125749.533533-.01724551 1.067066-.01401197 1.601676-.00862275.156288.95389221.071138 1.92179641.093773 2.88215569.084072 2.18479042-.025868 4.37497006.126108 6.55760475-.54.0538923-1.081078.0398803-1.621078.0366467-.700599-2.10934127-1.263234-4.35341313-2.710779-6.1016766-.580958-.68982036-1.293413-1.25568863-2.080239-1.69329342-1.028264-.51952095-2.210659-.64239521-3.346707-.56371257-1.172694.05820359-2.300119.61868263-3.083712 1.48742515-.76527.77712575-1.114491 1.89269461-1.076767 2.96946108.046348 1.12526946.378324 2.27209581 1.120958 3.14083832 1.044431 1.26107784 2.612695 1.87221554 4.079641 2.49089824 2.053293.8126946 4.165868 1.5240718 6.070419 2.6622754.91509.5594012 1.8 1.2201198 2.433773 2.0985629 1.387185 1.7568862 1.640479 4.174491 1.230898 6.3172455-.379401 2.1071856-1.746108 3.9341317-3.485749 5.1359281-1.915329 1.3537725-4.323233 1.9153294-6.645988 1.765509-1.601676-.0463473-3.168862-.4699401-4.654131-1.0498203-.689821-.2241917-1.284791-.6520958-1.956288-.9194012-.330898.4462275-.568024.9495808-.874132 1.4108982-.54.0129341-1.08.0097006-1.618922.0107784.038803-.7943712-.106706-1.5801197-.089461-2.3734132-.081916-2.4596407-.075449-4.9214371-.226347-7.3767664.55509-.0582036 1.115569-.042036 1.673892-.0194012.571258 1.9605988 1.30527 3.9265868 2.604072 5.531497 1.11988 1.3958084 2.653653 2.5555688 4.438563 2.9069461.767425.1131736 1.548862.2403593 2.323832.111018 1.270779-.0668264 2.581437-.4817965 3.483593-1.4162875.783593-.8611976 1.18024-2.0306587 1.188862-3.1861078.1703-2.0295808-.860119-4.1270658-2.602994-5.191976-.821317-.5453892-1.768742-.8504192-2.677365-1.2136527-1.863593-.7329341-3.78-1.3677844-5.534731-2.3443114-1.711616-.9657485-3.225988-2.4811976-3.732574-4.4288623-.229581-.79437121-.313653-1.61676642-.302875-2.44239516-.101317-2.44347306 1.263234-4.8136527 3.261557-6.16742515.426827-.35137725.921557-.59928144 1.422755-.8245509.672575-.36754491 1.433533-.50443114 2.165389-.70706587z"/><path d="m96.5985629 4.87293413c2.1697006-2.69353293 5.4754491-4.41592814 8.9148501-4.71449102 1.782755-.04311377 3.637725-.08622754 5.324551.58311378.632695.24790419 1.289102.44191616 1.887305.76958083.377246.20371258.75018.41604791 1.137126.60251497.317964-.43113772.568024-.90646706.86012-1.35592814.533533-.01508982 1.067066-.01185629 1.601677-.00431138.026946 1.40119761.034491 2.80347306.059281 4.20467066.099162 1.21796407.067904 2.44131737.10024 3.66251497-.006467.77497006.053892 1.551018.004311 2.3249102-.538922.0247904-1.078922-.0064671-1.616767.0226347-.617604-2.34323352-1.353772-4.73281436-2.862754-6.67293412-.917246-1.15221557-2.212814-2.06299401-3.686228-2.30443114-1.677125-.36754491-3.409221.04526946-4.95485.71137725-1.279401.65856287-2.346467 1.69437126-3.124671 2.89832335-.8730534 1.33113773-1.402275 2.85413174-1.762275 4.3954491-.3147305 1.38934136-.4990419 2.81209586-.4958083 4.23700596-.1832336 3.3919761.5227544 6.9445509 2.5264673 9.7437126 1.408742 2.000479 3.619401 3.4846707 6.073652 3.7735329.716767.0474252 1.436767.0355689 2.154611.0118563 2.181557-.3104191 4.245629-1.4550898 5.594012-3.2108982.756647-.9215569 1.274012-2.0047904 1.726707-3.0988024.515209.2037126 1.014251.4462276 1.492814.7275449-.760958 1.9347306-1.857126 3.7821557-3.413533 5.1844312-1.702994 1.5262275-3.945988 2.3281437-6.188982 2.6137724-1.618922.0883833-3.266946.1487425-4.851377-.2554491-2.627785-.6585628-5.0324552-2.2009581-6.7085031-4.3329341-1.0789221-1.3634731-1.8937724-2.9252695-2.4488623-4.568982-.6887425-1.9746108-.8461077-4.0871857-.7857485-6.1641917.0334132-3.5159281 1.2007186-7.05449097 3.4426348-9.78359277z"/><path d="m128.172934.21988024c.604671-.04203593 1.206108-.16167665 1.816168-.12826347 1.090778.09377245 2.189102.25976048 3.204431.6908982.617605.2748503 1.26.5011976 1.838802.85688623.281318.17353293.575569.33197605.893533.43221557.270539-.41604791.486108-.87089821.796527-1.26.525988-.07329342 1.063833-.01724551 1.59521-.0194012.117485 1.16946108.016167 2.34431138.093772 3.5148503.025869.90107784-.021557 1.80215569.03018 2.70215569.042036 1.06275449-.063593 2.13305389.10994 3.18718564-.562635.1045509-1.139281.082994-1.704072.0183233-.574491-1.98970056-1.178084-4.02574846-2.398203-5.73089816-.639162-.83856288-1.452935-1.53808384-2.380959-2.03712575-1.143592-.56047905-2.458562-.64778443-3.707784-.50550899-1.243832.18-2.374491.92155689-3.091257 1.94443114-.674731.9948503-.786827 2.26994012-.55509 3.42431138.169221.98946108.658563 1.92610778 1.397964 2.60946108.837485.817006 1.916407 1.3149701 2.978084 1.771976 2.628862 1.1231138 5.452814 1.9142515 7.782036 3.6334132 1.098323.8256288 1.975688 1.9584431 2.430538 3.2594012.724312 2.3507785.511977 5.0453892-.826706 7.1417964-1.473413 2.2656288-3.985868 3.7552096-6.643832 4.1410779-2.657965.3977245-5.385988-.1444312-7.811138-1.2556887-.40527-.220958-.817006-.428982-1.233054-.6251497-.310419.4602396-.561557.9560479-.864431 1.4216767-.538922.0247904-1.078922.0280239-1.617844.0064671-.038803-1.7946108-.178923-3.5849102-.161677-5.3827545-.019401-.6467066-.029102-1.2923354-.03988-1.9390419-.105629-.8040719-.049581-1.6156887-.111018-2.4229941.489341-.0431137.982994-.0452694 1.475569-.0323353.233892-.0301796.250059.2532934.316886.408503.654251 2.2742515 1.662036 4.5474252 3.439401 6.168503.499042.5313772 1.137126.8913772 1.752575 1.2664671 1.016407.5680239 2.193413.7340119 3.340239.7814371 1.062755-.0657485 2.161078-.1627545 3.116048-.6768862 1.183473-.5917366 1.958443-1.8032336 2.179401-3.088024.07545-.6165269.139042-1.2438323.068982-1.8646706-.095928-1.2147306-.64455-2.3658683-1.441077-3.2766468-.596048-.6585628-1.367785-1.13497-2.169701-1.5003592-1.936886-.8180839-3.939521-1.4701797-5.855928-2.3356887-1.74503-.760958-3.427545-1.8862275-4.415928-3.5558083-.511976-.8504192-.766348-1.8291018-.908623-2.8034731-.052814-1.14467066-.123952-2.32491018.262994-3.42646706.770659-2.4348503 2.85521-4.29520958 5.237245-5.10359282.591737-.14335329 1.168384-.37401197 1.781677-.41065868z"/><path d="m1.53377246.7588024c5.73952095-.02802396 11.47904194-.00431138 17.21856284-.01185629 1.7525749.01401197 3.5062276-.03017964 5.2577246.02263473.006467 2.38095808.0355688 4.76299401-.014012 7.14287425-.4968862.0097006-.9937725.0097006-1.4906587-.00323353-.4397605-1.43137725-1.2265868-2.73125749-2.1675449-3.88670659-.3158084-.3988024-.7156886-.72-1.1123353-1.03473054-.6768862-.54-1.5887425-.53137724-2.4089821-.60143712-2.3033532-.07437126-4.6099401-.04742515-6.91329337-.02479042-.0269461 2.55449101-.00431137 5.10898203-.01185628 7.66347301.01077844 1.2653893-.02155689 2.5329342.01832335 3.7983234 1.2233533.0506587 2.4477844.0086227 3.6722156.0247904 1.0304191-.0312575 2.1147305-.2220359 2.9468263-.8752096.8213174-.6186826 1.1188024-1.6652694 1.3925749-2.6073054.1293413-.36646702.0183233-.82994008.2716167-1.13712571.4817964-.04419161.9679042-.00107784 1.4507785-.01077844-.0053892 3.73580835-.0053892 7.47053895.0010778 11.20526945-.4871856-.0097006-.9754491.034491-1.460479-.0107784-.1347306-.1131737-.1207186-.3017964-.1519761-.457006-.1002395-.8601198-.3783233-1.6911377-.7221557-2.4811976-.400958-.9528144-1.3505389-1.5822755-2.3410778-1.7870659-1.6566467-.3211976-3.3520958-.2069461-5.02922156-.2026347-.03017964.2651497-.05065868.5302994-.05065868.7976048.00431137 2.9435928.00215569 5.8871856.00107784 8.8307784.01077844.6704192.1142515 1.4044311.6046707 1.9056288.4386826.4214371 1.0444311.6003592 1.6275449.7146107.6068263.1088623 1.2071856.2694611 1.8280239.2845509-.0032335.4688623-.0010778.9377246-.0086227 1.4065869-4.13568866-.0053893-8.27137728.0010778-12.4070659-.0053893.00107784-.4688622.00323353-.9377245-.00538922-1.4055089.79005988-.0150899 1.56934132-.1530539 2.35077844-.2532935.55077844-.0625149 1.08431138-.366467 1.38934132-.8331736.29748503-.5152096.3502994-1.1263473.3502994-1.7094611-.00646707-6.7548503.00431138-13.5107784-.00538922-20.26562873.00862275-.77604791-.27269461-1.64155689-1.02287425-1.99401198-.96143713-.44622754-2.02203593-.63053892-3.06107785-.80299401.00754491-.46562874.00646707-.93125749.00323354-1.39580838z"/><path d="m50.0335329 9.17137725c1.8366467-.39233533 3.8047905-.34059881 5.5659881.34922155 1.5639521.5798802 2.8767664 1.779521 3.6086227 3.2766467.9388024 1.8517365 1.0605988 3.9837126 1.0045509 6.022994-.4526946.0592815-.9097006.0743713-1.3656287.062515-3.9438324-.0021557-7.8865869-.0010779-11.8304192-.0010779.0021557 2.1697006.3330539 4.4374851 1.5359282 6.2902994.9334131 1.4378444 2.5523353 2.3583234 4.2477844 2.5264671 1.5456287.1422755 3.2292215-.1465868 4.4471856-1.1683832.8342515-.7383234 1.4701797-1.6674252 2.0166467-2.6299401.4817964.2479042.9452695.525988 1.4087425.8062275-.817006 1.6275449-2.0888622 3.0211976-3.6172455 4.0074252-1.668503 1.0605988-3.7131736 1.31497-5.6511377 1.2007185-1.2470659-.1746108-2.5081437-.4526946-3.6129341-1.08-1.5348503-.8083832-2.7603593-2.1373653-3.5256288-3.6862275-.8816766-1.7439521-1.211497-3.7056288-1.2880239-5.642515.0043113-2.3798802.629461-4.7888623 1.9929341-6.7591617.5626347-.7868263 1.1867066-1.5531736 1.9897006-2.1082634.9129341-.68658687 1.9508982-1.22335334 3.0729341-1.46694615zm.422515 1.58982035c-.934491.3524551-1.7126946 1.0616767-2.2235928 1.9120958-.865509 1.3063473-1.1371258 2.9026347-1.2147305 4.4396407 3.0653892.0075449 6.1318562-.0075449 9.1972455.0075449-.0269461-1.3785628-.12503-2.7883832-.5982036-4.0947305-.422515-1.2028742-1.4162875-2.2720958-2.7118563-2.4962874-.8137725-.1131737-1.6868264-.1196407-2.4488623.2317365z" fill-rule="nonzero"/><path d="m69.7354491 9.24898204c1.8247904-.46023953 3.7994012-.45269461 5.5864671.16706586 1.5628742.51413174 2.928503 1.6135329 3.7228742 3.0589222 1.0918563 1.917485 1.239521 4.1928143 1.1694611 6.3506586-.6876647.0873054-1.3817964.0495809-2.0726946.0560479-3.7099401.0053893-7.4198803-.0107784-11.1298204.007545.0398803 1.8161676.2338922 3.6819161 1.0261078 5.3428742.5227545 1.1554491 1.3871856 2.1794012 2.5210779 2.7711377 1.6534131.9053893 3.7067065.9431138 5.4506586.277006 1.1726946-.4537724 2.0177246-1.4432335 2.7010779-2.4596407.2047904-.297485.3395209-.6477844.6068263-.8978443.4742515.2263473.9097006.5238323 1.3667066.7835928-.8180838 1.6156886-2.0802395 2.9985629-3.5924551 3.9901796-1.6932934 1.0821557-3.7735329 1.3440719-5.7427545 1.2114971-1.1619161-.1756887-2.34-.422515-3.3822754-.9862276-1.357006-.6822754-2.5092216-1.7568862-3.2917365-3.0567665-1.1144911-1.8032335-1.571497-3.9362874-1.6728144-6.0326946-.1228743-3.2281437 1.0379641-6.5759281 3.4458683-8.7876646.9657485-.7986827 2.062994-1.48095813 3.2874251-1.79568866zm.6564072 1.54347306c-1.357006.5335329-2.2861078 1.8043114-2.7786826 3.1343712-.4171258 1.0077845-.4828743 2.1071857-.5992815 3.1785629 3.0707785.0258683 6.1415569-.0075449 9.2123353.0161677-.0334131-1.551018-.1455089-3.1548503-.8062275-4.5819162-.4462275-.8676647-1.1845509-1.6501796-2.1492216-1.9153293-.9355688-.2554491-1.9875449-.242515-2.8789221.1681437z" fill-rule="nonzero"/><path d="m37.8097006 9.07760479c.7976048-.16275449 1.6491018.02263473 2.3346108.45161677.8633533.61221554 1.1845509 1.72670654 1.1446706 2.74095804-.0711377.7221557-.2856287 1.4755689-.8126946 2.0004791-.5518563.4785629-1.3397605.4710179-2.0155688.3341317-.6391617-.1002395-1.1759282-.5820359-1.4227545-1.1662275-.277006-.699521-.0075449-1.4432336.0409581-2.1578443-1.5736527.1616766-2.9845509 1.1134131-3.9352096 2.3486227-.1972455.2726946-.4559282.5550898-.4182036.9183234.0097006 3.7724551-.0097006 7.5438323.0107784 11.3152096-.0366467.6348503.2414372 1.2740119.7889821 1.6167664.8989221.5432336 1.9972455.4667066 3.0028742.6143713.0258683.4408383.0258683.8827545.0161677 1.3246706-3.5019162.0075449-7.0038324-.0021557-10.5057485.0064671-.0053892-.4451497-.0053892-.8892216.0021557-1.3343713.7372455-.0959281 1.5273054-.048503 2.1998802-.4117365.5820359-.394491.7264671-1.142515.7307784-1.8.0021557-3.9923353.0021557-7.9857485 0-11.9780838.0107785-.8191617-.2899401-1.6437126-.9140119-2.1901797-.6014372-.5626347-1.4658683-.6046706-2.2397605-.6887425.0064671-.4322155.0043114-.8644311.0021557-1.29664668 2.1039521-.18754491 4.2154491-.28670659 6.3237126-.44407185.2673053-.06682635.5831137.12071856.5777245.41281437.0258683.90431136-.0172455 1.80970056.020479 2.71293416.3179641-.3039521.5788024-.6607186.8827545-.9776048 1.1123354-1.1780839 2.5717366-2.08239523 4.1852695-2.35185631z"/><path d="m55.8776048 40.0257485c.5281437-.048503 1.0595209-.0657485 1.5898203-.0851497.0150899 1.9196407-.0237125 3.8403593.0204791 5.7610778.1875449.0926947.3794012.1789222.5734132.2608384-.0032336.068982-.0086228.2069461-.0107785.2759281-.6499401.0010779-1.2998802.0021557-1.9498203 0-.0043114-.0711377-.0129342-.214491-.0172455-.2856287.1907784-.0571258.3815568-.1185629.5701796-.1864671.0571257-1.4949701.0064671-2.991018.0280239-4.485988-.0150898-.2338922.0291018-.5033533-.1261077-.7005988-.1498204-.214491-.442994-.2047904-.6661078-.2823952-.0043114-.0916168-.0086228-.1821557-.0118563-.2716168z"/><path d="m18.9700599 41.4991617c.7426347-1.1856288 2.4445509-1.4917366 3.6215569-.7932934.0528143-.0819162.1045509-.1638324.1573652-.2446707.1196408-.0021557.2382036-.0032335.3578443-.0032335.0053893.6865868.0226348 1.3731736.0366468 2.0608383-.1228743.0032335-.2457485.0075449-.367545.0118563-.1487425-.5378443-.3039521-1.1166467-.7361676-1.502515-.4882635-.4516168-1.2901797-.374012-1.779521.034491-.5227545.4246707-.7167664 1.1123354-.7976048 1.7547306-.1023952.8665868.0549701 1.8291018.6682635 2.4876646.4548503.5076647 1.245988.7210779 1.8722156.4182036.5087425-.1994012.8094611-.677964 1.0368862-1.1468263.1131737.0560479.2263473.1131736.3405988.1713772-.2134132.4623952-.4699401.9366467-.9097006 1.2222755-.7814371.5033533-1.8420359.5141317-2.6493413.0635928-.6564072-.3578443-1.1069461-1.0250299-1.2772455-1.7439521-.2209581-.934491-.1099401-1.9789222.4257485-2.7905389z"/><path d="m24.022994 41.4991617c.1681437-.6316168.7717365-1.0746108 1.4065868-1.1500599.5443114-.1023952 1.0821557.0959281 1.5531737.3546108.0409581-.0603593.1207186-.1821557.1605988-.242515.1207186-.0021557.242515-.0021557.3643114-.0010778.0043113.6413173.0150898 1.2826347.0215569 1.9250299-.0873054.0010778-.2629941.0053892-.3513773.0064671-.1972455-.6176048-.4214371-1.3936527-1.1123353-1.6124551-.4958084-.1713773-1.1673054.0560479-1.2729341.6154491-.1013174.4623952.1778443.9269461.5992814 1.1155688.6844311.3589222 1.508982.5001198 2.0576048 1.0832336.3880239.4322155.3923353 1.0918563.2209581 1.6178443-.2328144.608982-.8439521 1.0164072-1.4766467 1.0994012-.6283833.1185629-1.2546108-.0894611-1.8215569-.3416767-.0377246.0679042-.1120958.2047905-.1498204.2726946-.117485-.0010778-.2338922-.0010778-.3502994 0-.0334132-.6628742-.0679042-1.3268263-.0679042-1.9907784.1196407-.0075449.2403593-.0150898.3621557-.0215569.1681437.4839521.3427545.9991617.7447904 1.3440719.4182036.3891018 1.0875449.4839521 1.5941318.2231137.4968862-.2748503.5486227-.9959281.2511377-1.4356886-.6122156-.7717365-1.8075449-.6704191-2.4445509-1.4292215-.3352096-.388024-.3869461-.948503-.2888623-1.4324551z"/><path d="m29.1977246 40.728503c.6941317-.5712575 1.7148503-.4817964 2.4456287-.0269461.0409581-.0603593.1239521-.18.165988-.2392815.0883833-.0010778.2651497-.0043113.353533-.0053892.0053892.6413174.020479 1.2837126.0334131 1.92503-.0905389.0032335-.2705389.0075449-.36.0107784-.1487425-.477485-.2996407-.9862275-.6628742-1.3473054-.4386827-.4473054-1.3138922-.4440718-1.6447904.131497-.2317366.4300599-.0355689 1.0013174.3783233 1.2449102.7038323.4311377 1.5952096.5432335 2.1901796 1.1511377.6100599.6984431.3966468 1.8937725-.3686227 2.3938922-.7911377.5669462-1.8603593.4214372-2.6827545.0032336-.0571257.0894611-.1153293.18-.1713772.2716167-.1153294-.0010778-.2306587-.0010778-.3449102-.0010778-.0150898-.6628742-.0312575-1.3257485-.076527-1.9875449.1261078-.0086228.2532934-.0150898.3815569-.0215569.1508982.457006.3104192.9388024.6736527 1.2761677.4063473.4376048 1.1037126.5594012 1.6383234.3017964.6348503-.3427545.5647904-1.3494611.0032335-1.7299401-.6283832-.4106587-1.4281437-.4925749-2.0112575-.9851497-.7049102-.5831138-.6682635-1.8150899.0592815-2.3658683z"/><path d="m78.1641916 41.1908982c.8267066-.9431138 2.3184431-1.1069461 3.3844312-.4850299.0517365-.0819162.1045509-.1638324.1584431-.2446707.1185628-.0021557.2382036-.0032335.3578443-.0032335.0053892.6865868.0226347 1.3742515.0366467 2.0608383-.1239521.0032335-.2457485.0075449-.3675449.0118563-.1498204-.5389222-.3061078-1.1198803-.7394012-1.5046707-.5076647-.4645509-1.342994-.3643114-1.8291018.0819162-.5033533.4473054-.6811976 1.1392814-.7534132 1.7838323-.0873054.8665869.0916168 1.828024.7264671 2.46503.4958084.5162874 1.3494611.6758084 1.9702994.2910179.4354491-.214491.677964-.657485.8892215-1.0713772.1131737.0560479.2263473.1131736.3405988.1713772-.2382036.5356887-.5647904 1.0778443-1.1123353 1.3419162-1.0821557.5518563-2.5447904.2392814-3.2497006-.768503-.8450299-1.2071856-.7760479-3.0071856.1875449-4.1302994z"/><path d="m82.9810778 41.4980838c.1681438-.6337724.7760479-1.0756886 1.4119761-1.1500598.5432335-.1002396 1.0789221.0991616 1.5488623.3556886.0398802-.0614372.1196407-.1821557.1595209-.2435928.1196407-.0010779.2414372-.0010779.3643114 0 .0043114.6413173.0150898 1.2826347.0215569 1.9250299-.0873054.0010778-.262994.0053892-.3513773.0064671-.1983233-.6208384-.4246706-1.4033533-1.1241916-1.6167665-.4936527-.1638323-1.1543712.0635928-1.26.6165269-.1045509.4656288.1789222.9344911.6046707 1.122036.6607185.3449102 1.4443114.4871856 1.9950898 1.0217964.4138922.3912575.4419162 1.0271856.3179641 1.5499401-.1886228.6725749-.8407186 1.1382036-1.516527 1.225509-.6283832.1185629-1.2556886-.0883833-1.8237125-.3427545-.0366467.068982-.111018.2058683-.1476647.2737724-.1185629-.0010778-.2349701-.0010778-.3513773 0-.034491-.6650299-.068982-1.3300598-.0679042-1.9961676.1207186-.0053892.2414372-.0097006.3643114-.0129341.1659881.4861077.3427545 1.0013173.748024 1.3451497.4160479.3837125 1.0756886.477485 1.5811976.2231137.4764072-.2543712.5518563-.9280239.3017964-1.3667066-.1724551-.3373652-.5313773-.5065868-.8665868-.6359281-.519521-.208024-1.0843114-.3664671-1.5089821-.7501796-.4279042-.3804791-.5130539-1.0142515-.4009581-1.5499402z"/><path d="m87.5942515 41.6047904c.1185629-.685509.7631138-1.1802395 1.4335329-1.2567664.5421557-.1002396 1.0778443.0991616 1.5477845.3556886.040958-.0614372.1207185-.1821557.1605988-.2435928.1207185 0 .2414371-.0010779.3643113 0 .0043114.6413173.0150899 1.2826347.0226348 1.9250299-.0883833.0010778-.2640719.0053892-.3524551.0064671-.1983234-.6186827-.4235928-1.3990419-1.1188024-1.6146108-.4958084-.1692216-1.1683832.062515-1.2664671.622994-.1013173.4623952.1821557.9247904.602515 1.1112575.6617964.345988 1.4475449.4882635 1.9994012 1.0250299.3966467.3729342.4343712.9743713.3341317 1.4788024-.1573652.705988-.8331736 1.2039521-1.5305389 1.2955689-.6294611.1196407-1.2578443-.0883833-1.8269461-.3416767-.0366467.0679042-.111018.2047905-.1476647.2726946-.1185628-.0010778-.2360479-.0010778-.3513772 0-.0204791-.6499401-.0937725-1.300958-.0517365-1.9508982.0970059-.0625149.2263473-.0560479.3384431-.0851497.1638323.4688623.3233533.9679042.6984431 1.3171258.41497.4268263 1.1123353.5464671 1.6426347.277006.5011976-.2716168.5550898-.9980839.256527-1.4389222-.2338923-.3675449-.6736527-.5011976-1.0562875-.6520958-.4936527-.1907784-1.0282634-.3697006-1.3882634-.7771257-.3158084-.3589222-.3729342-.8708982-.3104192-1.3268264z"/><path d="m125.437365 41.3827545c.151976-1.0401198 1.653413-1.4108982 2.374491-.7189222.399881.4332934.398803 1.1511378.044192 1.6113773-.215569.283473-.529222.4645509-.817006.6628742.420359.6014372.910778 1.1468264 1.383952 1.7051497.248982-.4440718.527066-.906467.546467-1.4292215-.104551-.2608383-.479641-.2479042-.709221-.345988-.001078-.0786827-.002156-.2349701-.002156-.3125749.732934 0 1.465868-.0010778 2.19988 0 .001078.0786826.002156.2371258.003234.3158084-.329821.0722156-.730779.1164072-.912935.4451497-.298562.5356886-.508742 1.1198802-.863353 1.6253892.212336.2220359.416048.457006.662874.6445509.307186.2295808.703833.2651497 1.0703.3319761.001078.0808383.002156.2414371.002156.3211976-.57018 0-1.14036 0-1.709462 0-.194012-.2209581-.385868-.4440719-.577724-.6661078-.253294.2166467-.495808.4548503-.798683.6014371-.639161.3147305-1.468024.2414371-2.014491-.2252695-.495808-.4397604-.554012-1.2039521-.328742-1.7946107.192934-.5108982.669341-.8180839 1.087545-1.1295809-.353533-.4753293-.753414-1.0120958-.641318-1.6426347zm.9-.3147305c-.310419.5712574.167066 1.1479041.487186 1.5941317.534611-.3007186.943114-.9549701.653174-1.5628743-.169222-.4807185-.935569-.4839521-1.14036-.0312574zm-.558323 3.0276646c-.162755.616527.101317 1.4486228.776048 1.6253892.482874.1422755.975449-.0883832 1.321437-.4214371-.518443-.6704191-1.076767-1.3095808-1.586587-1.986467-.217724.2241916-.458084.4591616-.510898.7825149z" fill-rule="nonzero"/><path d="m152.830778 40.957006c-.081916-.4063473.354611-.8019162.743713-.616527.315808.1099402.342755.4839521.310419.7674252-.108862 1.1231138-.233892 2.2440718-.353533 3.3671856-.122874-.0032335-.24467-.0043114-.363233-.0053892-.077605-1.1737725-.233893-2.3421557-.337366-3.5126946z"/><path d="m.10131737 40.4601198c1.51652694 0 3.03413173.0010778 4.55065868 0-.00215569.491497-.00107785.982994-.00107785 1.474491-.08083832-.0010779-.24251497-.0021557-.32335329-.0032336-.19185629-.3912574-.3794012-.8547305-.80083832-1.0465868-.55077845-.1422754-1.12742515-.0668263-1.68898204-.0840718 0 .760958-.00215569 1.5219161.00107785 2.2817964.40311377-.0194012.85257485.0765269 1.211497-.1552096.28778443-.1541317.30610779-.5152096.40095809-.7900599.08299401-.0010778.24790419-.0021557.3308982-.0021557-.00107785.7620359.00107784 1.5240719-.00215569 2.2871856-.08191617.0021557-.24790419.0064671-.32982036.0086228-.10131736-.3276647-.13257485-.7760479-.50874251-.9118563-.35568863-.1077844-.73616767-.0635928-1.10371258-.0754491.01185629.6790419-.02802395 1.3602395.01724551 2.0382036.03556886.3632335.50443114.3578443.77173653.4462276 0 .0776047.00215569.2338922.00215569.311497-.83640719-.0021557-1.67281438.0053892-2.50922156-.0053893-.00431138-.0797604-.01508982-.2392814-.02047904-.317964.30934131-.0258683.80299401-.0269461.82239521-.4473054.03880239-1.2891018.00107784-2.5814372.01832335-3.8705389-.0194012-.2166468.03233533-.5098204-.18323353-.6423953-.20479042-.1023952-.43221557-.1433532-.65101797-.2037125-.00107784-.0732934-.00323353-.2188024-.00431137-.2920958z"/><path d="m34.7841916 40.4622754c1.6738922-.0043113 3.3467066 0 5.0205988-.0032335-.0032335.5302994-.0021557 1.0605988-.0021557 1.5908982-.0743712 0-.2231137 0-.297485 0-.2317365-.4990419-.4807186-1.2265868-1.1371257-1.2341317-.2069462-.0194012-.4149701-.0161677-.6208384-.014012-.0107784 1.4205988.0010779 2.8401198-.006467 4.2607186.0140119.2198802-.0344911.5022754.1778443.6456287.2198802.1390419.4947305.1530539.7437125.2123353-.0043113.0797605-.0118562.2382036-.0161676.3179641-.9075449.0021557-1.8150898.0010779-2.7226347.0010779 0-.0819162.0010778-.2446707.0010778-.325509.311497-.0204791.6219162-.0808383.8902994-.2479042.0657485-1.6243114.0150898-3.2518563.028024-4.8783234-.3362875.0183234-.6865869-.0075449-1.0067066.1120958-.3794012.2791617-.5701797.7286228-.7512575 1.1479042-.076527.0010779-.2274252.0021557-.3028743.0032336 0-.5302994-.0010778-1.059521.0021557-1.5887426z"/><path d="m94.0214371 40.4676647c.8493413-.0118563 1.6986827-.0129342 2.5491018 0 .0021557.5162874-.7997605.2306587-.8180838.7329341-.0474252 1.031497-.0043114 2.0673054-.0194012 3.0998802.0129341.4968863-.0679042 1.0164072.1336527 1.4874252.560479.117485 1.1716168.1605988 1.7137724-.0592814.408503-.2899402.5313773-.817006.8245509-1.2017965.0743713-.0194012.222036-.0592814.2964072-.0797604-.0366467.5960479-.0614371 1.1942515-.1120958 1.7902994-1.5035928.0043113-3.0071856.0010778-4.5107784.0021557-.0021557-.0776048-.0053892-.2328144-.0075449-.3104192.2479042-.0474252.4925748-.1120958.7275449-.208024.0722155-1.474491.0312575-2.9554491.0258682-4.4320958.0269461-.5292215-.8073054-.3017964-.802994-.8213173z"/><path d="m132.694491 40.4644311c.661796-.0075449 1.323593-.0032335 1.986467-.0032335.532455 1.405509 1.057365 2.8142515 1.612455 4.2111377.337365-.7879042.627306-1.5941317.94527-2.3895808.231736-.602515.492574-1.1953294.642395-1.8247904.633772.0043113 1.267545.0021557 1.901317.0010778 0 .0732934-.002155.2188024-.002155.2920958-.234971.0668264-.514132.0635928-.700599.2328144-.137964.3330539-.08515.7016766-.093773 1.0530539.01509 1.114491-.021557 2.2300599.016168 3.3445509-.020479.4419162.478563.477485.797605.5432335-.003234.0776048-.009701.2338922-.012934.311497-.861198.0064671-1.721318.0010779-2.582515.0032336 0-.0808384.001077-.2414372.001077-.3222755.337366-.0312575.871977-.0452695.889222-.5022754.045269-1.3936527.019401-2.7926947.009701-4.1874252-.693054 1.6253892-1.293414 3.2906587-1.997246 4.9095808-.049581 0-.147665 0-.197245 0-.673653-1.6437125-1.234132-3.3337724-1.895929-4.9828742-.019401 1.1565269-.007544 2.3141317-.008622 3.4706587.01509.3438323.01509.7361676.245748 1.0164072.214491.1573652.486108.1983233.73509.2813173 0 .0786827.002156.2371258.002156.3168863-.779282 0-1.557485 0-2.335689 0-.001078-.0797605-.002156-.2382036-.003233-.3168863.305029-.082994.745868-.1002395.846107-.4710179.163833-.8051497.067905-1.634012.092695-2.4488623-.022635-.5734132.064671-1.1586826-.071138-1.7202395-.114251-.3697006-.530299-.442994-.849341-.5378443.006467-.0700599.019401-.2101797.026946-.2802396z"/><path d="m63.165988 40.9764072c.2597605 0 .519521 0 .7803593.0010778-.0032335.4149701-.0021557.8299401-.0010778 1.2459881h1.1640718c-.006467.1347305-.0118563.2683832-.0172455.4041916-.380479.0086227-.7598802.0075449-1.1382036.0237125-.0032335.7674252-.0097006 1.5337725 0 2.3011977.0075449.2888622.0463473.6553293.3502994.7879041.297485.0873054.6143713.0097006.9194012.0107785.0021557.3750898-.3837126.4451497-.671497.511976-.3330539.048503-.6984431.0786827-1.0099401-.0700598-.3168862-.1832336-.3697006-.5852695-.3847904-.9161677-.0129342-.8805988.0010778-1.7611976-.0043114-2.6417964-.2371258 0-.4742515.0010778-.7102994.0032335.0021557-.1379641.0064671-.2759281.0118563-.4117365.2360479-.0032335.4731736-.0043114.7113772-.0043114 0-.4149701 0-.831018 0-1.245988z"/><path d="m116.911617 40.977485c.256527-.0010778.513054-.0010778.771736-.0021557-.003233.4160479-.003233.8320958-.001078 1.2481438.378324 0 .757725 0 1.138204-.0010779-.003233.1034731-.007545.3093413-.009701.4128144-.370778 0-.740479 0-1.109101.0010778.008622.8461078-.019402 1.6922156.010778 2.5383234-.011856.2651497.154132.5507784.43006.5960479.268383.0280239.537844-.0129341.807305-.0258683.014012.3988024-.410658.4591617-.708143.5238324-.31042.0452694-.639162.0592814-.935569-.0538923-.314731-.1465868-.39988-.5270658-.400958-.8417964-.016168-.9118563.001078-1.8237125-.006467-2.7355688-.244671-.0021557-.487186-.0021557-.730779-.0021557.002156-.1013174.006467-.3061078.007545-.408503.245749-.0021557.490419-.0043114.738323-.0043114 0-.4160479 0-.831018-.002155-1.2449102z"/><path d="m4.95592814 42.2417964c.47532935-.0194012.95065869-.048503 1.42275449-.1023952.00431138.1897006.00646707.380479.0097006.5712575.34922156-.3158084.76526946-.6768862 1.27508982-.5863473.49580839.0905389.59173653.8310179.21341318 1.1155688-.21125749.048503-.49796407.0603593-.62622755-.1508982-.05173652-.1713772-.0657485-.3502994-.09592814-.5249101-.27377246.1789221-.63808383.3308982-.75556886.6617964-.02694611.7469461-.02047905 1.4971257-.00323354 2.2451497-.01401197.400958.46886228.4128143.75233533.4699401 0 .0743712-.00107784.2241916-.00107784.2985629-.70814371 0-1.41628743 0-2.12443114 0 0-.0711378-.00107784-.2134132-.00107784-.2834731.18323353-.0592814.36538922-.1185629.54754491-.1810778.05065868-.7070659.01616766-1.4173653.02910179-2.125509-.00862275-.2683833.02479042-.5464671-.05820359-.8051497-.10562874-.2263473-.37293413-.2576048-.58095808-.3276647-.00107785-.068982-.00215569-.2058683-.00323354-.2748503z"/><g fill-rule="nonzero"><path d="m9.15844311 42.4713772c.58634731-.4785628 1.50251499-.5001197 2.12874249-.0873053.5432336.3847904.6197605 1.1069461.6057485 1.7202395-.8773652.0043114-1.7536527-.0010779-2.63101793.0032335.02694611.4354491.05389221.9043114.32874251 1.2664671.32982036.4656287 1.01748502.5960479 1.51329342.331976.2522156-.1552096.4117365-.4117365.588503-.6402395.1077844.0668264.214491.1336527.3222754.2037126-.2640718.3977245-.5874251.7932934-1.0584431.948503-.72.2220359-1.61676644.0862275-2.097485-.5410779-.67473054-.9420359-.61113773-2.4337724.29964071-3.205509zm.52167665.1918563c-.29317365.2748503-.3794012.685509-.42898204 1.0681437.60682635.0053893 1.21257488.0097006 1.81940118-.0043113-.0506587-.3546108-.0603593-.7512575-.3028742-1.0379641-.2489821-.3481437-.80514973-.3147305-1.08754494-.0258683z"/><path d="m13.2111377 42.4207186c.6068264-.4386827 1.5208383-.4408384 2.1233533.0075449.4958084.3998802.5561677 1.0843114.5464671 1.6760479-.8773653.0043114-1.7536527-.0010779-2.631018.0032335.0269461.4354491.0538922.9043114.3298204 1.2664671.331976.4688623 1.0250299.5982036 1.5219161.3265868.2457485-.1562874.4041917-.4095808.5788024-.6348503.1077845.0668264.2144911.1336527.3222755.2037126-.2640719.3966467-.5863473.7932934-1.0573653.948503-.6973652.2134131-1.5564072.0980838-2.048982-.4817964-.7491018-.9528144-.6747306-2.5512575.3147305-3.3154491zm.4623952.2371257c-.297485.2748503-.3847904.6876647-.4343712 1.0735329.6068263.0053893 1.2125748.0097006 1.8183233-.0032335-.0495808-.3546108-.0592814-.7491018-.2996407-1.0358084-.2457485-.3492215-.7997605-.3201197-1.0843114-.034491z"/><path d="m41.4388024 42.1717365c.6251497-.1638323 1.4076647-.0776048 1.8258683.4677845.3308982.4117365.331976.9625149.3395209 1.4637125-.8784431.0086228-1.7568862-.0053892-2.6353293.0086228.0355688.428982.0635928.8913772.3308982 1.2513772.3201197.4699402 1.0045509.6046707 1.5025149.3524551.2683833-.1433533.4235929-.4160479.602515-.6510179.0808383.0506586.2414371.1508982.3222755.2015568-.2683833.4279042-.6262276.8374851-1.1317366.976527-.6154491.1487425-1.3343712.0862275-1.8194012-.3567665-.5583233-.497964-.6952095-1.3041916-.6208383-2.0155688.0668264-.7415569.5432336-1.4863473 1.2837126-1.6986827zm-.0614371.5044312c-.277006.277006-.3513773.677964-.4171258 1.0487425.6068264.0161676 1.2147306.014012 1.8215569.0021557-.0452695-.3621557-.0538922-.7717366-.3136527-1.0552096-.2619162-.3384431-.8126946-.2867066-1.0907784.0043114z"/></g><path d="m44.0741317 42.2417964c.4753294-.020479.9506587-.0506587 1.4249102-.1002395.0043114.1994012.0075449.3977245.0118563.5992814.3718563-.3524551.8223952-.6930539 1.3667066-.6348503.457006-.0334131.8094611.2931737 1.0584431.637006.3664671-.3341317.7997605-.6704191 1.3268264-.637006.5152095-.0474251 1.0250299.3373653 1.0897006.8558084.0797604.6219162.0280239 1.2513773.0388023 1.8754491.0118563.3028743-.0441916.6337725.1056288.9129341.1444311.1164072.3362874.1401198.5065868.2047905-.0010778.0711377-.0021557.2134131-.0032335.2845509-.6596407 0-1.3182036 0-1.9778443 0 0-.0732935 0-.2188024 0-.2920959.1746107-.0485029.3513772-.0959281.5249101-.1487425.0883833-.6402395.042036-1.2869461.0549701-1.9304191-.0172455-.3470659.0269461-.7404791-.2037126-1.031497-.4117365-.4516168-1.2050299-.1153294-1.4130539.3794012-.0366467.8320958-.0172455 1.668503-.0010778 2.5016766.1810778.0862276.3643114.1670659.5497006.2468264-.0010778.0679042-.0053892.2058682-.0075449.2748503-.637006 0-1.274012.0010778-1.9099401-.0021557-.0043114-.0711378-.0118563-.2134132-.0150899-.2856288.1897006-.0700599.4871857-.0711377.5324551-.3211976.0786827-.5098203.0150899-1.0304191.0366467-1.5445509-.0118562-.4214371.0517366-.9021557-.2263473-1.2567664-.4225149-.450539-1.1888622-.0862276-1.4152095.3988024-.0377246.740479-.0215569 1.4874251-.007545 2.2300598-.020479.3352096.3492216.4160479.5992815.4958084 0 .0711377-.0010779.2134132-.0010779.2845509-.657485.0010779-1.3138922.0010779-1.9713772.0010779 0-.0711378-.0010779-.2134132-.0010779-.2834731.1821557-.0592814.3653893-.1185629.547545-.1821557.0495808-.7070659.0161676-1.4152096.0291018-2.1222754-.0086228-.270539.0247904-.5497006-.0571258-.810539-.1217964-.2134131-.3837126-.2457485-.5917365-.3233532 0-.0689821-.0010779-.2069462-.0010779-.2759282z"/><g fill-rule="nonzero"><path d="m51.2665868 42.2407186c.4774851-.0194012.9538922-.0506587 1.4292216-.097006.0075449.1541317.0172455.3082634.0258682.463473.3373653-.2608383.7167665-.5313772 1.1673054-.5033533.7426348-.0226347 1.3656288.5734132 1.5779641 1.2513773.2640719.8698203.1217964 1.945509-.6122156 2.5501796-.5863473.5108982-1.4647904.5302994-2.1384431.1843114.0053892.4645509-.0032335.9301796.0291018 1.3947305.2435928.1153294.5033533.1929342.7663473.2586827.0010779.0668263.0043114.2015569.0064671.2694611-.7491018-.0043114-1.4971258 0-2.2462276-.0021557-.0010778-.0657485-.0053892-.1961677-.0075449-.2608384.2058683-.0592814.4397605-.0786826.6100599-.2241916.0959282-.3502994.0474252-.7178443.0582036-1.0746108-.0161677-1.1457485.0237126-2.2925748-.0183233-3.4361676-.0150899-.3405988-.3783234-.436527-.6499402-.491497 0-.0711378.0021557-.2123354.0021557-.2823952zm1.4529342.7728143c.006467.7167665-.007545 1.4356887.0021556 2.153533-.0172455.3858682.3265869.6876646.6704192.7922155.4009581.1304192.8396407-.1142515 1.0250299-.4742515.3653893-.7135329.3912575-1.6005988.0452695-2.3270658-.1627545-.3319761-.5108982-.5874252-.8902994-.5701797-.345988-.0334131-.602515.2295809-.8525748.4257485z"/><path d="m59.019521 42.5328144c.4958083-.4548503 1.2308982-.5022755 1.8614371-.3750898.4106587.089461.7189221.4526946.768503.8665868.0905389.8450299-.042036 1.7008383.0431138 2.5458682.0700598.2985629.4623952.2651497.6973652.339521-.0840718.4354491-.6165269.3934132-.9528144.3664671-.2845508-.0118563-.41497-.2867066-.5540119-.4904192-.457006.4559281-1.1662276.6865868-1.7805988.4257485-.7297006-.3330539-.6887425-1.5197605 0-1.8754491.5669461-.3017964 1.2071856-.4268263 1.7924551-.6887425-.0064671-.3772455-.0032336-.817006-.3233533-1.0789222-.2748503-.2457485-.6477845-.0937724-.9560479-.0129341.0118562.2263473.0388024.4537725.0291018.6822755-.1034731.3384431-.7189222.3977245-.8385629.0441916-.1325749-.2619162-.0021557-.5766467.2134132-.7491018zm.4882634 2.3087425c-.1950898.3233533-.0948503.8676647.3147306.962515.4138922.137964.768503-.1627545 1.0530539-.4214372.0021557-.4440718.0086227-.8870658.0086227-1.3311377-.5108982.1358084-1.0810778.3136527-1.3764072.7900599z"/><path d="m66.2863473 42.4702994c.5863473-.4785629 1.502515-.4990419 2.1287425-.0851497.5421557.3858683.616527 1.1058683.6035928 1.7191617-.8773652.0043114-1.7547305-.0010779-2.6310179.0032335.0269461.436527.0538922.9086228.331976 1.2707785.3341318.4656287 1.0261078.5928143 1.5219162.3211976.2446706-.1562875.4020359-.4095809.5766467-.6337725.1067066.0668264.2134132.1336527.3222754.2037126-.2640718.3977245-.5874251.7932934-1.0584431.948503-.72.2220359-1.6178443.0862275-2.0964072-.5410779-.6768862-.9431137-.6111377-2.4359281.3007186-3.2065868zm.525988.1864671c-.297485.2748503-.3869461.6887425-.4343712 1.0746107.6046706.0043114 1.211497.0086228 1.8172455-.0032335-.0495809-.3535329-.0582036-.7480239-.2985629-1.0347305-.2446707-.3502994-.7997605-.3211976-1.0843114-.0366467z"/></g><path d="m70.1547305 42.3441916c.4289821-.3201197.9980839-.2565269 1.4895809-.1562874.2263473.0603593.442994-.0517365.6477844-.1358084.0377246.4462276.0495808.8935329.0582036 1.3419162-.1002395.0010778-.1994012.0021557-.297485.0053892-.1433533-.4656287-.4893413-.9679042-1.0347306-.9409581-.3535329-.048503-.7792814.2597605-.6822754.6434731.0635928.36.4440718.4893413.7426347.6003592.4904192.1821557 1.0724551.3287426 1.3548503.8148503.3147306.5594012.0398803 1.3419162-.5270659 1.6232336-.5831137.2964072-1.2955688.2198802-1.8538922-.097006-.1045509.1552096-.2737724.2091018-.4473054.2446707-.0150898-.5087426-.034491-1.0164072-.0355688-1.5240719.3578443.0183233.4128143.3923353.5863473.6294611.2791617.4440718.8741317.7534131 1.3807185.497964.416048-.1476646.4817965-.7932934.1217965-1.0336526-.5098204-.3567665-1.20503-.3632336-1.662036-.8094611-.5130539-.4397605-.4031137-1.3526946.1584431-1.7040719z"/><path d="m99.2823952 42.7041916c.3007186-.3923353.8029938-.588503 1.2880238-.6014371.446228-.0215569.968982.0172455 1.27509.3901796.324431.4203593.242515.9840719.251138 1.4809581.012934.5561677-.066827 1.1231138.034491 1.6738922.14982.2166467.450539.194012.677964.262994-.08515.4354491-.618683.3923354-.95497.3653893-.283473-.0129342-.413892-.2867066-.551857-.4904192-.282395.2328144-.588503.4764072-.966826.5108982-.4429939.0754491-.975449-.0291018-1.2125747-.4483832-.2608384-.5001198-.1314971-1.2298204.3934131-1.5089821.5680236-.3039521 1.2104196-.428982 1.7978446-.691976-.006467-.3772455-.003234-.8180838-.324431-1.0789222-.274851-.2457485-.647785-.0937724-.95497-.0140119-.001078.2532934.074371.5184431-.001078.7652694-.1487428.2112575-.4602398.2392815-.6811979.1411976-.2123353-.1897006-.2338922-.5292215-.0700599-.7566467zm.6413174 2.1438324c-.2177246.3535329-.0506587.9474251.4149704.9765269.385868.0776048.687664-.2101796.95497-.4408383.002155-.4451497.0097-.8881437.0097-1.3322156-.513054.1368862-1.086467.3147305-1.3796404.796527z" fill-rule="nonzero"/><path d="m108.463473 42.2062275c.369701-.1250299.772814-.1293413 1.156527-.068982.718922.1293413 1.304192.7437126 1.433533 1.4572455.143353.7437126.023713 1.5941318-.506587 2.1664671-.75018.8245509-2.241916.77497-2.913413-.1271856-.802994-1.059521-.523832-2.9629941.82994-3.427545zm.337365.3104192c-.265149.1088623-.451616.3502994-.547545.6143713-.238203.6251497-.23497 1.3268263-.05497 1.9670658.097006.3438324.28994.699521.64024.8396408.361078.1605988.807305.0053892 1.027186-.3147306.36-.505509.407425-1.162994.353532-1.7633533-.045269-.4300599-.142275-.9-.480718-1.1996407-.245749-.2349701-.632695-.2619162-.937725-.1433533z" fill-rule="nonzero"/><path d="m111.524551 42.2461078c.473174-.0204791.946347-.0582036 1.419521-.097006.048503 1.0379641-.029102 2.0791617.040958 3.1160479.040958.388024.45485.6736527.833174.5421557.316886-.0441916.54-.2942515.752335-.5108982-.014012-.7329341.008623-1.4658683-.007545-2.1988024.010778-.1886228-.107784-.3405988-.197245-.4936527-.186468-.0172455-.370779-.0334132-.552935-.0495808 0-.076527.001078-.2317366.002156-.3093414.514132-.0194012 1.028264-.0463473 1.54024-.1056287.021556 1.0756886-.014012 2.1524551.015089 3.2281437-.016167.3449102.340599.4602395.612216.5302994.001078.062515.002156.1875449.002156.2511377-.466707.0215569-.931258.0679042-1.395809.1077845-.0097-.1778443-.01509-.3546108-.018323-.5302994-.41497.4171257-.998084.7102994-1.599521.5691018-.426826-.0441917-.693054-.4451497-.769581-.8342515-.117485-.8213174.016168-1.6566467-.076527-2.4779641-.025868-.311497-.353533-.3934132-.601437-.4537725 0-.0711377.001078-.2123353.001078-.283473z"/><path d="m119.851976 42.3571257c.483952-.3643113 1.137126-.2683832 1.685749-.1271856.157365-.0635928.31473-.1239521.47964-.18.011857.4656288.036647.9301797.033413 1.3958084-.339521-.0097006-.388024-.3567665-.545389-.5788024-.242515-.4009581-.82994-.5313772-1.226587-.2964072-.308263.1843114-.30503.6801198-.012934.8773653.538922.3589221 1.262156.3837126 1.731018.8611976.486108.4990419.301797 1.4033533-.265149 1.765509-.591737.3750898-1.373174.3039521-1.965988-.0312575-.11533.145509-.283474.2047904-.457006.2446707-.011857-.5076647-.024791-1.0153294-.025869-1.5219162.355689.0064671.410659.374012.575569.608982.27485.4451497.857964.768503 1.371018.525988.439761-.1433532.510898-.8202395.122874-1.0616766-.535688-.3502994-1.266467-.3578443-1.707305-.8601198-.441916-.4516167-.306108-1.2783233.206946-1.6221557z"/><path d="m141.664311 42.2051497c.368623-.1239521.770659-.1282635 1.153294-.0679042.718922.1293413 1.305269.7447904 1.433533 1.4594012.143353.7426347.023712 1.5919761-.505509 2.1632335-.75018.8256288-2.24515.7760479-2.915569-.1271856-.802994-1.0616766-.520599-2.9662275.834251-3.4275449zm.33521.3104192c-.267305.1088622-.453772.3535329-.549701.6186826-.236048.622994-.233892 1.3214371-.05497 1.9584431.095928.3470659.291018.7070659.645629.8461078.36.1584431.802994.0032335 1.022874-.3147305.361078-.5076647.407425-1.1673054.353533-1.7687426-.045269-.428982-.144431-.8967664-.480718-1.1953293-.246827-.2349701-.631617-.2619162-.936647-.1444311z" fill-rule="nonzero"/><path d="m144.828862 42.2407186c.465629-.0194012.932336-.0506587 1.396887-.097006.005389.1897006.0097.3783233.017245.5691018.36-.3492216.840719-.7286228 1.376407-.5626348.356767.1552096.376168.616527.258683.9366467-.120719.2338923-.420359.1972456-.631617.1433533-.227425-.1325748-.185389-.4332934-.252216-.6510179-.326586.1897006-.795449.3955688-.755568.8482634.005389.6844312-.022635 1.3720959.016167 2.056527-.010778.4041916.480719.3977245.764192.4537725 0 .0754491-.001078.2263473-.001078.3017964-.721078 0-1.442156 0-2.162156 0 .001078-.0732935.002156-.2188024.002156-.291018.147665-.0409581.306108-.062515.449461-.1261078.153054-.131497.142276-.3610778.15521-.5453892-.003234-.6865868.003233-1.3720958-.003234-2.0586826.003234-.2188024-.116407-.4095809-.212335-.596048-.142276-.0258682-.283473-.0506586-.422515-.0743712.001078-.076527.003233-.2306587.004311-.3071856z"/><path d="m149.530419 42.1846707c.626228-.18 1.417365-.1056288 1.851737.4354491.342754.4117365.345988.9732934.3697 1.480958-.882754.0129342-1.765509-.0043113-2.647185.0107785.050658.4182036.052814.8752096.316886 1.2287425.326587.5044311 1.06491.6445509 1.572575.3416766.23497-.1498203.378323-.3977245.543233-.6143712.080839.048503.243593.1476647.325509.1961677-.264072.41497-.605748.8170059-1.091856.9657485-.631617.1713772-1.382874.1067065-1.876527-.36-.517365-.4731737-.667186-1.2201198-.616527-1.8937725.042036-.7609581.496886-1.551018 1.252455-1.7913772zm-.032335.5022754c-.26515.2813174-.334132.6725749-.402036 1.0379641.604671.0161676 1.209341.0129341 1.81509.0053892-.04527-.3653892-.047425-.7835928-.316887-1.065988-.269461-.339521-.820239-.2716168-1.096167.0226347z" fill-rule="nonzero"/><path d="m102.70994 42.2191617c.644551-.0118563 1.291258-.014012 1.936886.0010778.01509.3104192-.275928.3589222-.502275.442994.324431.8223952.657485 1.6426348 1.011018 2.4531737.343832-.7803593.710299-1.5596407.934491-2.3852695-.232814-.131497-.560479-.1929341-.590659-.5130539.543234-.0097006 1.086467-.0140119 1.629701.0043114-.121797.3686228-.580958.4505389-.70491.8191617-.525988 1.177006-.971138 2.3906587-1.511138 3.5611976-.256527.5033533-.517365 1.0756886-1.043353 1.3462275-.313653.0991617-.729701.1056288-.953893-.1724551-.227425-.2619161-.038802-.7954491.344911-.7318562.302874-.0043114.459161.2953293.648862.4828742.339521-.3977245.602515-.8536527.810539-1.3332934-.434371-1.0789222-.869821-2.1578443-1.327904-3.2270659-.114252-.3632335-.649941-.3362874-.682276-.7480239z"/><path d="m73.3796407 45.7997605c-.1056287-.4095809.3556886-.7555689.7275449-.5960479.4882635.1153293.5561677.7178443.4785629 1.1306587-.1541317.5992814-.651018 1.0228742-1.1468263 1.349461-.0549701-.0776048-.1627545-.2317365-.2166468-.3093413.4117366-.2716167.7641917-.6316167.9377246-1.1015569-.2888623-.0808383-.7361677-.0851497-.7803593-.4731736z"/><path d="m153.295329 45.1713772c.349222-.0506586.704911.2791617.638084.6391617-.017245.5087425-.785748.66503-1.042275.2522156-.231737-.3330539-.010779-.8536527.404191-.8913773z"/></g></svg>