<svg height="90" viewBox="0 0 180 90" width="180" xmlns="http://www.w3.org/2000/svg" xmlns:xlink="http://www.w3.org/1999/xlink"><linearGradient id="a"><stop offset="0" stop-color="#3b9fff"/><stop offset="1" stop-color="#397eff"/></linearGradient><linearGradient id="b" x1="51.666667%" x2="51.666667%" xlink:href="#a" y1="20.185185%" y2="115%"/><linearGradient id="c" x1="50%" x2="50%" xlink:href="#a" y1="0%" y2="94.156598%"/><mask id="d" fill="#fff"/><mask id="e" fill="#fff"/><mask id="f" fill="#fff"/><mask id="g" fill="#fff"/><mask id="h" fill="#fff"/><mask id="i" fill="#fff"/><mask id="j" fill="#fff"/><mask id="k" fill="#fff"/><mask id="l" fill="#fff"/><mask id="m" fill="#fff"/><mask id="n" fill="#fff"/><mask id="o" fill="#fff"/><mask id="p" fill="#fff"/><mask id="q" fill="#fff"/><mask id="r" fill="#fff"/><g fill="none" transform="translate(0 25)"><path d="m-403.435688 351.128992h780.843266v-439.9295955h-780.843266z" fill="url(#b)" mask="url(#d)"/><path d="m5.5208059 0c-3.050169 0-5.5208059 2.48763892-5.5208059 5.55614785v28.39989945c0 3.0693236 2.47185697 5.5561478 5.5208059 5.5561478h28.2152834c3.050169 0 5.5203992-2.4876389 5.5203992-5.5561478v-28.39989945c0-3.06973095-2.4714502-5.55614785-5.5203992-5.55614785z" fill="url(#c)" mask="url(#e)"/><path d="m11.4295934-3.18794166 12.3714855 12.39135026-18.6751682 18.7051547-12.37107882-12.3913503z" fill="#fff" mask="url(#f)" transform="translate(10.573919 7.739502)"/><path d="m16.1647164-2.51863766 7.6445369 7.65681166-18.6772016 18.7071913-7.64453692-7.6568117z" fill="#ebf4ff" mask="url(#g)" transform="translate(10.573919 11.812925)"/><g fill="#23314f"><path d="m44.5137599 12.2854413h24.3167607v-2.0668544h-24.3167607z"/><path d="m49.7100277 22.4258185h15.2471848v-2.0664471h-15.2471848z"/><path d="m80.888042 19.9675082h12.8204703v-2.0668545h-12.8204703z"/><path d="m80.888042 24.2694493h12.8204703v-2.066447h-12.8204703z"/><path d="m49.7100277 27.342439h15.2471848v-2.0668544h-15.2471848z"/><path d="m-1.95210817 18.2191953h15.59246397v-20.24205676h-15.59246397z" mask="url(#h)" transform="translate(43.515744 6.517475)"/><path d="m-1.83823519 19.6485592h20.70048029v-21.62213225h-20.70048029z" mask="url(#i)" transform="translate(49.209393 15.071662)"/><path d="m81.4994179 7.51061655 1.7967529 3.35894395 1.8081401-.9800654-1.7967528-3.35853658z"/><path d="m88.835237 10.0013513 1.7756051 1.0387226 2.0037577-3.47096301-1.7751984-1.03790797z"/><path d="m78.7484501 11.6707619h16.9121705v-2.06685444h-16.9121705z"/><path d="m84.8617209 13.3118215 1.9537349.6366758 1.0939939-3.4004928-1.9537349-.63667586z"/><path d="m-1.77316492 17.3303746h18.84231742v-19.11086743h-18.84231742z" mask="url(#j)" transform="translate(79.711084 13.034951)"/><path d="m72.6351794 8.81097511 2.6987895 4.60052299 1.7682846-1.0505356-2.6987895-4.60052297z"/><path d="m-1.89273154 19.4204476h29.74402814v-21.39361331h-29.74402814z" mask="url(#k)" transform="translate(71.5773 15.071662)"/><path d="m72.0238848 30.7986562 1.5340317 1.3735581 3.5243686-3.9858436-1.5344383-1.3743727z"/><path d="m102.590198 10.7489464h17.782892v-2.06685437h-17.782892z"/><path d="m99.5335218 18.7385567h23.5505582v-2.0664471h-23.5505582z"/><path d="m-1.93136702 16.5026553h23.02796262v-18.46156403h-23.02796262z" mask="url(#l)" transform="translate(101.265611 17.515715)"/><path d="m114.816413 23.0771587 6.594873 9.5256977 1.685321-1.1812924-6.594873-9.5261051z"/><path d="m-1.67515282 10.9399899h9.56410994v-12.65612266h-9.56410994z" mask="url(#m)" transform="translate(126.073652 6.517475)"/><path d="m-1.85409607 10.9399899h9.56410995v-12.65612266h-9.56410995z" mask="url(#n)" transform="translate(137.867639 6.517475)"/><path d="m129.794452 11.3632185h8.551454v-2.0668544h-8.551454z"/><path d="m142.021156 11.3632185h9.580378v-2.0668544h-9.580378z"/><path d="m131.934125 10.4368816 1.942754 4.4416595 1.879718-.8326075-1.943161-4.44206687z"/><path d="m144.160666 10.1864883 1.770319 3.7365502 1.85369-.8900428-1.770319-3.73655013z"/><path d="m-1.67230599 6.24822228h25.53235469v-8.02138295h-25.53235469z" mask="url(#o)" transform="translate(127.29372 14.256978)"/><path d="m126.126482 25.0271465.129327 2.0631885 25.157387-1.5959668-.128514-2.0627811z"/><path d="m127.960609 20.5842243.142341 2.0619663 20.732202-1.4546191-.142341-2.0615589z"/><path d="m-1.85612951 18.1002514h19.06355621v-20.06608494h-19.06355621z" mask="url(#p)" transform="translate(136.647572 16.293689)"/><path d="m155.469961 8.91729143 3.984741 3.99480507 1.449033-1.4643953-3.984334-3.99480505z"/><path d="m-1.6983341 26.8336686h19.2974025v-28.84960524h-19.2974025z" mask="url(#q)" transform="translate(163.08237 7.739502)"/><path d="m-1.71948194 19.5601659h12.49999924v-21.33332657h-12.49999924z" mask="url(#r)" transform="translate(153.321829 14.256978)"/></g></g></svg>