<svg height="90" viewBox="0 0 180 90" width="180" xmlns="http://www.w3.org/2000/svg" xmlns:xlink="http://www.w3.org/1999/xlink"><linearGradient id="a" x1=".004298%" x2="100.131009%" y1="49.993176%" y2="49.993176%"><stop offset="0" stop-color="#6500ff"/><stop offset=".16" stop-color="#6a09ff"/><stop offset=".43" stop-color="#7623ff"/><stop offset=".77" stop-color="#8a4cff"/><stop offset=".99" stop-color="#996bff"/></linearGradient><linearGradient id="b" x1="50.003983%" x2="50.003983%" y1="100.012034%" y2=".000028%"><stop offset="0" stop-color="#6500ff"/><stop offset=".16" stop-color="#6909ff"/><stop offset=".43" stop-color="#7523ff"/><stop offset=".77" stop-color="#894cff"/><stop offset=".99" stop-color="#976bff"/></linearGradient><linearGradient id="c"><stop offset="0" stop-color="#ff6e06"/><stop offset=".28" stop-color="#ff770c"/><stop offset=".75" stop-color="#ff911c"/><stop offset="1" stop-color="#ffa126"/></linearGradient><linearGradient id="d" x1="49.853684%" x2="49.853684%" xlink:href="#c" y1="100.255233%" y2="0%"/><linearGradient id="e" x1="57351%" x2="57351%" xlink:href="#c" y1="59860%" y2="35023%"/><g fill="none"><g fill="#000" transform="translate(76.595745 25.659574)"><path d="m16.7371277 2.47308511c-.422774-1.07998472-1.4640965-1.79061305-2.623883-1.79061305-1.1597866 0-2.201109.71062833-2.623883 1.79061305l-11.31414893 28.59414889c.40541142 1.0394108 1.42111042 1.7111756 2.53627659 1.6774469 1.11422463.0286941 2.12614378-.6463019 2.52765958-1.6860639l2.87234042-7.7265957h11.92595744l2.8723404 7.7265957c.4183955 1.0534956 1.437207 1.7450933 2.5707447 1.7450933 1.1335378 0 2.1523492-.6915977 2.5707447-1.7450933zm-7.40202132 17.29723399 4.66755322-12.54063825h.1292553l4.6675532 12.54063825z"/><path d="m45.2221277 9.32074468c-3.6478724 0-6.2301064 1.32702132-7.660532 3.86329792h-.0861702v-3.62489366c-.3380348-.95030958-1.2375296-1.58505678-2.2461702-1.58505678-1.0086405 0-1.9081354.6347472-2.2461702 1.58505678v21.51957446c.2838278 1.0669607 1.2498162 1.8095762 2.353883 1.8095762s2.0700551-.7426155 2.353883-1.8095762v-12.4257447c0-3.3893617 2.3438298-5.6470213 5.9026595-5.6470213 3.4468085 0 5.3167022 1.8239362 5.3167022 5.0926596v12.9801064c.2838278 1.0669607 1.2498162 1.8095762 2.3538829 1.8095762 1.1040668 0 2.0700552-.7426155 2.353885-1.8095762v-13.787234c.0028704-4.960532-3.1882998-7.97074472-8.395853-7.97074472z"/><path d="m71.1651064 29.1398936c-.3044681.0402128-1.1058511.1005319-1.6056383.1005319-1.9761702 0-2.8867021-.8617021-2.8867021-2.7344681v-12.0379787h4.5153191c.5580645-.3810567.8918698-1.0131846.8918698-1.6889361 0-.6757516-.3338053-1.3078795-.8918698-1.6889362v-.0229787h-4.5153191v-4.81978727h-.0172341c-.4580644-.86482029-1.3565723-1.40567458-2.3352128-1.40567458-.9786404 0-1.8771483.54085429-2.3352127 1.40567458v4.83414897h-3.2572341v.0315957c-.5508011.3821297-.8793501 1.0099424-.8793501 1.6803192 0 .6703767.328549 1.2981894.8793501 1.6803191h3.2572341v12.4602128c0 4.1620212 1.8239362 5.805 6.5345745 5.805.8875857.0084161 1.7740704-.0646564 2.6482978-.2182979.5508152-.3853496.8788952-1.0152712.8788952-1.6875s-.32808-1.3021504-.8788952-1.6875z"/><path d="m103.229043 1.99340426c-.415384-1.0652807-1.441705-1.76667351-2.585107-1.76667351-1.1434012 0-2.1697227.70139281-2.5851062 1.76667351l-8.5710638 23.59914894h-.1292554l-8.530851-23.59914894h.017234c-.4352993-1.07457888-1.4788461-1.77776738-2.6382447-1.77776738-1.1593985 0-2.2029453.7031885-2.6382446 1.77776738l11.1762766 28.59414894c.1953191 1.1834042 1.3126595 2.0939362 2.6655319 2.0939362 1.3528723 0 2.4673404-.9076596 2.6655319-2.0939362z"/></g><g transform="translate(0 18)"><path d="m3.75595426.00726499c-.05487151 0-.10974301 0-.1679068.00418156-.09090379.00243924-.1351668.00557541-.17942982.00940851-.09090377.00836312-.14467785.0148097-.19808611.02247589-.0806611.01254469-.12236344.01968819-.16406579.02770284-.09931741.01933972-.15089662.03031632-.20192712.04286101-.06200479.01568085-.10809685.02822553-.15364021.04129291-.08651407.02665745-.12309506.03850521-.15967606.05070143-.08962346.03101324-.13608132.04843641-.18217339.06690498-.08120981.03362672-.11303529.04721679-.14486076.06115533l-.05487151.02456667c-.03658099.01742317-.07316199.03484634-.10974299.05226951l-.05980994.03136171c-.03017932.01620355-.06035865.0324071-.08998926.04913334l-.05926122.03449788-.07407653.04547448-.0548715.03554327c-.036581.02404397-.073162.04861064-.109743.07370001l-.06419966.04861065-.05816379.04338369-.06255351.04861065-.0548715.04547448c-.036581.02961939-.07151586.05993571-.10480457.09094895l-.04499463.04077022c-.02158279.01986242-.04279977.04007329-.06365094.06063264l-.03895877.03867944c-.04462882.04495178-.0879773.09094895-.13004545.13799151-.03347162.03815674-.05432279.06220072-.07462525.08676739l-.02963061.03606596c-.02030245.02508937-.04060491.05226952-.05980993.0752681-.05340826.07126077-.09108669.12353029-.12730189.17614826l-.02085117.03083902c-.0182905.02752861-.036581.05540568-.0548715.08363122l-.01975374.0324071-.01536402.02613475 7.24633045 4.24015565 1.53420717 1.63655847c-.16038936-.24261413-.17411919-.54793879-.03609712-.8027294.13802208-.25479061.40721076-.42104646.70772428-.43710346h24.6899807c.0872456.00627235.1744912.0104539.2633831.0104539 1.8404288-.0260648 3.3195705-1.45199012 3.3249725-3.20533248.0053724-1.75334236-1.4649818-3.187491-3.3052187-3.22381764z" fill="url(#a)"/><path d="m43.5520317 21.6673788-12.2418808 21.0839679c-.1453243.2470527-.407968.4026694-.6956349.4121646-.2876668.0094952-.5601102-.1284597-.7215899-.3653852l-7.7787852-13.3944388c-.0637899-.1525271-.1389799-.3000882-.2249391-.4414449l-12.9410306-22.33894053c-.74428822-1.33837464-.74754434-2.96252883-.00862839-4.30384381.73891595-1.34131499 2.11707959-2.21295759 3.65199379-2.30976446l-8.7861449-.00806538c-.54953272-.01644519-1.09560736.09186404-1.59674354.31670043-.08146835.03727996-.14581392.06882455-.20925829.10216143-.16978581.09373759-.20943855.11793372-.2487308.143026l-.19033313.12904602c-.09787016.0733053-.12778995.09696374-.15734926.12098064-.07552044.06308916-.1025564.08674759-.12923187.11076449-.06813061.06183455-.10273664.09517144-.13626122.12904602-.06632821.06721146-.096248.0991145-.12544684.13173447-.05082759.05645763-.08381146.09570913-.1162546.13549832-.05947911.07258838-.08975938.11237757-.11949893.15270445-.03730962.05054302-.06758989.09517143-.09732944.14033754-.05190904.07957837-.08056715.12581986-.10814382.17367443-.74321422 1.14132758-.72770254 2.52688905-.05569407 3.63802224l.31848356.5527471 26.56661155 45.7575661c.2609437.481239.6287546.897008 1.0754903 1.215721.0729971.0514392.1326565.0910491.1935775.129046.1685241.0966052.2094385.1186506.2508936.1397999l.2054733.0973221c.1133709.0476753.1494187.0616554.1854666.075277.0928235.0327991.1268889.0442698.1611343.0553822.0881374.0274222.1340984.0403269.1806003.0526938.0922827.0227622.1349994.0326198.1778965.0419398.0740786.0155932.1249062.0241962.1757338.0322616.0930037.0134423.1427498.0204323.1930366.0252716.063805.0053768.1178768.0091407.1719488.0123668.0946258 0 .1486976.0043016.2027696.0043016.0746192 0 .1200397 0 .1649193-.0032262.0962481-.0026884.1454536-.0064523.1962812-.0118291.063264-.005377.1173359-.012367.1670821-.0198946.0897593-.0139801.1357206-.0220454.1811409-.0311861.0708342-.0139801.1200397-.0258094.169245-.0376386.0870559-.0227622.1268889-.0340537.1665416-.0462414.0789449-.0241961.1243654-.0397892.1697857-.0559199.0868757-.0315446.119499-.0444493.1519422-.0580707.0881372-.0371009.1292318-.0553824.1697858-.0731261l.1362611-.0682869c.1092254-.0591461.1389648-.0758144.1676229-.0930207.1658206-.1046706.2087177-.1338852.2508938-.1639959.0400132-.0286769.087957-.0647024.1438313-.108076.0818288-.0645231.1605935-.1324515.2362942-.2037853.0980504-.0928413.1739314-.1720612.2460271-.2548658.0816488-.0935583.1523026-.1831736.2189913-.2763736.0674098-.0942752.1301331-.1917768.1881702-.2925042l.7191565-1.2243242.1568086-.2688459 14.7064785-25.3252804c.6405913-1.0180124.6749774-2.3015768.0898001-3.3520605-.5851772-1.0504836-1.6976783-1.7023027-2.9053245-1.7022416-1.2137561.0028769-2.3314052.6616704-2.9139354 1.7211512z" fill="url(#b)"/><path d="m57.7219981 0h-12.3681801c-1.7910912.03508532-3.2261584 1.62223031-3.2261584 3.56804276s1.4350672 3.53295743 3.2261584 3.56804276c.0865281 0 .1714538-.00464135.2563795-.01160339h5.6002923c.4103066.06115935.7161032.4418659.7162606.89172059.0000561.10200999-.0160234.20327213-.047537.2993675l-2.9526386 5.55512348c-.8688891 1.7302615-.281931 3.8980115 1.3110078 4.841805 1.5929389.9437935 3.5886444.3062354 4.4575335-1.4240262l6.1082445-11.49025798c.0559051-.1048173.1073591-.21272883.1543619-.3237346l.0058755-.01450425c.0288427-.06923357.0559049-.13943408.0811869-.21060155l.0042728-.01102322c.0112167-.0324895.0224334-.06555916.0331158-.09862881l.0160237-.05105493c.0142433-.04602679.0275965-.09263373.0400594-.13982086.0074776-.0266878.0144212-.05395577.021365-.08064357.0069436-.02668779.0122848-.05163508.0181601-.07716255.0058754-.02552747.0144214-.06671951.021365-.10036934.0048072-.02378694.0096143-.0475739.0138872-.07136085.00819-.04525322.0156677-.09089324.0224332-.13692002.0028488-.0189522.0055193-.03829119.0080119-.05801695.0064095-.04873423.0122848-.09804866.017092-.14736307 0-.00696204 0-.0133439 0-.02030594.0053412-.05801694.0090802-.11603389.0117507-.17056983 0-.01469764 0-.02958865 0-.04467307 0-.05801695.0042741-.1160339.0042741-.17405087.0014744-2.13408347-1.5898866-3.86548853-3.5545977-3.86741024z" fill="url(#d)"/><path d="m38.0830981 14.1889493c-.2863412-.4855847-.8156988-.784694-1.3885782-.784694h-12.1122847c-.5728622-.0001451-1.1022673.2988772-1.3887134.7843831-.2864461.485506-.2863945 1.0837004.000135 1.5691591l6.0566938 10.2663225c.2863708.4853844.8155856.7843906 1.3883027.7843906s1.1019316-.2990062 1.3883024-.7843906l6.0561424-10.2657828c.2863656-.4854033.2863656-1.0834449 0-1.5688482z" fill="url(#e)"/></g></g></svg>