<svg height="90" viewBox="0 0 180 90" width="180" xmlns="http://www.w3.org/2000/svg"><path d="m2 42.945h40.455v3.24h-40.455zm72.315 5.085c-.9.27-1.845.54-2.745.765.72 2.205 1.125 4.545 1.17 7.02 0 3.555-.495 6.03-1.44 7.38-1.08 1.53-3.6 2.34-7.47 2.34h-1.53l-1.08-2.835h2.16c2.655-.045 4.32-.45 4.995-1.215.81-.99 1.215-2.88 1.215-5.67-.045-.81-.09-1.53-.18-2.25-5.04 3.96-11.61 7.155-19.755 9.63l-1.62-2.79c8.91-2.61 15.84-5.895 20.745-9.945-.36-1.17-.765-2.295-1.305-3.375-4.23 3.33-9.99 6.03-17.28 8.1l-1.62-2.79c7.56-1.98 13.41-4.5 17.505-7.65-.54-.855-1.17-1.62-1.8-2.34-.36.18-.675.315-.99.495-3.105 1.44-7.2 2.88-12.24 4.32l-1.665-2.655c4.32-.945 8.235-2.16 11.7-3.645 1.62-.72 3.195-1.44 4.635-2.25h-11.925v-3.015h26.955v3.015h-10.305c-1.26.855-2.475 1.665-3.69 2.385 1.575 1.62 2.835 3.375 3.78 5.265 4.185-1.17 8.145-2.97 11.925-5.445l2.205 2.205c-2.385 1.575-4.95 2.925-7.74 4.005 2.115 5.67 5.58 10.17 10.35 13.545l-2.295 2.655c-4.95-4.005-8.505-9.09-10.665-15.255zm-6.525-24.03c.54 1.26 1.035 2.7 1.53 4.275h16.92v7.83h-3.195v-4.815h-31.59v4.815h-3.195v-7.83h17.82c-.495-1.35-1.035-2.61-1.575-3.69zm27.045 3.375h15.885v-3.15h3.24v3.15h15.705v2.655h-15.705v3.06h13.815v2.565h-13.815v3.06h17.685v2.745h-20.385c-2.655 2.07-5.31 3.735-8.01 4.995 4.005-.135 8.01-.27 11.97-.45 1.89-1.035 3.78-2.115 5.625-3.24l2.52 1.62c-6.525 3.78-13.095 6.66-19.665 8.73 5.4-.18 11.97-.585 19.71-1.215-1.035-1.08-2.115-2.16-3.285-3.24l2.205-1.395c3.465 3.195 6.12 5.985 7.92 8.37l-2.295 1.575c-.81-1.08-1.665-2.115-2.565-3.15-4.275.315-8.055.585-11.295.765v7.2c0 2.385-1.215 3.6-3.555 3.6h-4.275l-.63-2.88c1.35.09 2.61.18 3.87.18.945 0 1.44-.54 1.44-1.62v-6.3c-4.635.225-8.235.36-10.755.36l-3.78.135-.63-2.7 1.755.18c4.5-1.17 8.955-2.79 13.365-4.815-3.78.135-7.785.27-12.015.45l-.585-2.385c.63-.09 1.26-.225 1.845-.495 2.07-.72 4.545-2.16 7.335-4.275h-14.58v-2.745h17.82v-3.06h-13.995v-2.565h13.995v-3.06h-15.885zm10.125 29.205 1.845 2.07c-3.51 2.52-7.875 4.59-13.095 6.255l-1.305-2.7c5.085-1.44 9.27-3.285 12.555-5.625zm14.175-.135c4.68 1.71 9 3.735 12.915 6.12l-1.62 2.475c-4.185-2.655-8.46-4.77-12.87-6.3zm48.195-20.115h-11.475v-3.105h12.915v-8.91h3.24v8.91h5.175v3.105h-5.175v24.57c0 2.745-1.35 4.14-3.96 4.14h-4.905l-.72-3.15c1.575.09 3.105.18 4.545.18 1.17 0 1.8-.675 1.8-1.98v-21.15c-3.15 8.415-8.1 15.39-14.76 20.925l-1.71-2.925c6.93-5.31 11.97-12.195 15.03-20.61zm-29.97-3.195h7.245v-8.775h3.24v8.775h5.985v3.105h-5.985v2.655c2.295 2.16 4.635 4.59 7.02 7.335l-1.89 2.79c-1.98-2.79-3.69-5.04-5.13-6.75v23.13h-3.24v-23.58c-1.665 4.86-3.915 9.27-6.705 13.185l-1.44-3.645c3.735-4.41 6.39-9.45 8.01-15.12h-7.11z" fill="#2b3b4d"/></svg>