<svg height="60" viewBox="0 0 69 60" width="69" xmlns="http://www.w3.org/2000/svg"><g fill="none"><path d="m24.0392157 1.3772549c2.3168627-1.26117647 6.0705882-1.2627451 8.3921568 0l19.8431373 10.7921569c2.3168627 1.2611764 4.1960784 4.4188235 4.1960784 7.0494117v21.1858824c0 2.6321568-1.8745098 5.785098-4.1960784 7.0478431l-19.8431373 10.7921569c-2.3168627 1.2611765-6.0705882 1.2643137-8.3921568 0l-19.84313727-10.7921569c-2.31686274-1.2611765-4.19607843-4.4188235-4.19607843-7.0478431v-21.1858824c0-2.6321568 1.8745098-5.785098 4.19607843-7.0494117z" fill="#353535"/><ellipse cx="55.683137" cy="13.498039" fill="#2f8be6" rx="13.330196" ry="13.498039"/><g fill="#fff"><path d="m36.412549 36.7796078v-14.1003921c0-1.2768628.9662745-2.2870588 2.1866667-2.2870588 1.2203921 0 2.185098 1.010196 2.185098 2.2870588v14.1019608c0 1.2752941-.9647059 2.2854902-2.185098 2.2854902-1.2203922 0-2.1866667-1.0101961-2.1866667-2.2870589zm-3.4117647-6.9505882c0 6.2980392-3.3788235 9.3866667-8.7137255 9.3866667-5.3380392 0-8.6007843-3.1184314-8.6007843-9.2392157v-7.2972549c0-1.2768628.9647059-2.2870588 2.185098-2.2870588 1.2203922 0 2.1866667 1.010196 2.1866667 2.2870588v7.1796078c0 3.3866667 1.6156863 5.1388236 4.2854902 5.1388236 2.6666667 0 4.2854902-1.6941177 4.2854902-4.9913726v-7.3254902c0-1.2784314.9647059-2.2886274 2.185098-2.2886274 1.2203922 0 2.1866667 1.010196 2.1866667 2.2870588z"/><path d="m55.6862745 18.8235294c-2.2509804 0-3.9215686-1.2203921-3.9215686-3.0807843v-.0313726c0-1.2956862.5662745-2.0580392 1.6407843-2.5756862-.7843137-.5035294-1.292549-1.1905883-1.292549-2.3341177v-.0313725c0-1.62980394 1.4243137-2.92705885 3.5733333-2.92705885s3.5733333 1.28156863 3.5733333 2.92862745v.0313726c0 1.1419607-.5082353 1.8290196-1.292549 2.332549 1.0305883.5647059 1.6407843 1.2501961 1.6407843 2.5160784v.0313726c0 1.9796078-1.6705882 3.1403921-3.9215686 3.1403921zm0-6.4658823c.8862745 0 1.452549-.5490196 1.452549-1.2972549v-.0313726c0-.6541176-.5380392-1.24862744-1.452549-1.24862744s-1.452549.58039214-1.452549 1.23450984v.0313725c0 .7466667.5662745 1.3113726 1.452549 1.3113726zm0 4.5286274c1.1043137 0 1.7568628-.5803921 1.7568628-1.3270588v-.0298039c0-.8235294-.7403922-1.3113726-1.7568628-1.3113726s-1.7568627.4878432-1.7568627 1.3113726v.0313725c0 .7309804.652549 1.3254902 1.7568627 1.3254902z"/></g></g></svg>