<svg height="90" viewBox="0 0 180 90" width="180" xmlns="http://www.w3.org/2000/svg"><path d="m86.617209 16h10.0959145c.1696042 19.0938647.017853 38.1877293.0803388 57.2726675-3.3920844 0-6.7930954.0357061-10.1851798-.0535593 0-19.0760116-.0267796-38.1430966.0089265-57.2191082zm20.584597 10.6047271c3.329598-.92836 6.65027-1.8477934 9.979869-2.7672268.098192 3.3563783.089265 6.7127566.080339 10.0691348 3.159994 0 6.311062-.0089265 9.471057 0 .026779 2.5172837.035706 5.0345674.017853 7.5429246-3.159995-.0178531-6.311063.0178531-9.462131-.0446327-.017853 6.123605-.062485 12.2561366 0 18.3797416.071413 1.9995445.446327 4.4364894 2.383386 5.5076739 2.06203.9819192 4.400783.46418 6.569932.2231635.107118 2.5619164.187457 5.1238328.20531 7.6857492-4.731065.9997722-10.122694 1.7853076-14.425285-.9729927-3.588468-2.2941202-4.650726-6.8020219-4.766771-10.7921844-.178531-6.6681238.035706-13.3451742-.124972-20.0222246-1.85672.0357062-3.71344.0178531-5.570159 0-.008927-2.5083571 0-5.0077878.008926-7.5072184 1.874573 0 3.749146 0 5.614792-.0089265 0-2.4280183.008927-4.8649632.017854-7.2929815zm-89.7206334 11.051054c6.8823608-5.3023636 16.5408749-5.7129843 24.5211998-2.8921983-.5623719 2.5262102-1.2318623 5.0167143-1.5889238 7.5786307-4.4275628-1.4996584-9.5960283-2.338753-13.8986196-.0267796-8.1588556 4.2936647-8.1767087 18.1387251.0357062 22.3877571 4.3382974 2.2316345 9.5335425 1.4907319 13.9521788-.0981919.4998861 2.5262103 1.0979642 5.0524205 1.3568338 7.6232634-7.5339981 2.3030468-16.2909318 2.9725372-23.2447048-1.3479072-11.20280517-6.9716261-11.37240939-25.3245882-1.1336704-33.2245742zm34.5367754-1.0711846c6.6770503-4.8024774 17.0139813-5.0256409 23.1643659.7766088 4.927449 4.8828163 6.1860908 12.4257408 5.1506124 19.0670851-8.8908318-.0178531-17.7905901-.0089266-26.6814219-.0089266.2231634 3.8473379 2.4547979 7.5697042 6.1860908 8.9086849 5.5166004 2.008471 11.6402055.9819192 17.1210998-.6605638.5177392 2.2941202 1.0354784 4.5882405 1.544291 6.8823607-6.9269934 2.570843-14.7466406 3.4456437-21.9057241 1.3211277-5.6683516-1.6514096-10.2476655-6.3556951-11.7562505-12.0686793-2.3119733-8.4802111-.1249715-18.7814359 7.1769366-24.2176975zm6.3467684 4.579314c-2.838639 1.6960422-4.1508401 5.0345674-4.6507262 8.1588557 5.8111762.0714123 11.6223524.0267796 17.4335286.0267796-.1963839-2.3119734-.5891515-4.7399917-2.0709568-6.6145646-2.4369449-3.2224802-7.4001-3.6420275-10.7118456-1.5710707zm72.6173866-7.2572754h11.265291c2.883271 4.4364894 5.802249 8.8551257 8.373092 13.4790723 2.517284-4.5436078 5.302364-8.9354645 7.926766-13.4255131 3.704513-.0715305 7.417953-.133898 11.131393.0446327-4.40971 6.2396501-8.783714 12.4971532-13.238056 18.701097 4.35615 6.9537731 9.051509 13.6843827 13.559411 20.5399639-3.874117.0357061-7.757161.0714123-11.631279-.0178531-2.78508-4.7756978-6.03434-9.292526-8.382019-14.3092404-2.669035 4.8560367-5.498747 9.6317345-8.346313 14.3895792-3.722366-.0624857-7.444733.0089266-11.167099-.1249715 4.58824-6.6770504 9.23004-13.3094681 13.809354-19.995445-4.445416-6.4271073-8.935464-12.809582-13.300541-19.281322z" fill="#333"/></svg>