<svg height="90" viewBox="0 0 180 90" width="180" xmlns="http://www.w3.org/2000/svg"><g fill="none"><g fill="#00bdff" transform="translate(3.365185 27)"><path d="m37.0439551 0h1.837391c2.4431242.70879518 4.0987952 3.5439759 2.7931034 5.89771084-3.8834233 7.67638556-8.0629829 15.20566266-12.0069796 22.86198796-.9624429 1.8187952-1.9383465 4.0120482-4.1257167 4.5937952-2.3152472.8024096-4.8458662-.2407229-6.2659742-2.1263856 1.5277939-3.0759036 3.1700041-6.0916265 4.7583714-9.1340964 3.2911508-6.3925301 6.6024927-12.77837345 9.9003739-19.16421682.5855422-1.37746988 1.729705-2.37379518 3.1094308-2.92879518z"/><path d="m10.284005 12.871988c1.9383465-3.12939764 7.0332364-2.87530125 8.8840881.2206626-1.5950977 2.9488554-3.1498131 5.9244578-4.5968426 8.9468675-1.7431657 3.3233132-3.2574989 6.7803614-5.25641876 9.9565662-2.18737017 3.0424699-7.28899044 2.3938555-8.95139177-.8625903 2.16044869-2.9421687 3.68151225-6.265482 5.33718321-9.4951807 1.52779394-2.9154217 2.86040715-5.9512049 4.58338182-8.7663253z"/></g><g fill="#6a6a6a" transform="translate(50.477773 30.343373)"><path d="m48.0884919 1.02307229c2.0662235-.6686747 3.4594101 1.41759036 4.8660573 2.52090361 3.1363523 2.96891567 7.1409223 4.67403615 10.9503116 6.5730723 1.1845451.501506.5720815 1.9324699-.0201911 2.668012-5.8890735-1.477771-10.4186124-5.83084333-15.2981304-9.18090357-4.3007063 4.05885542-9.2677192 7.78337347-15.0827587 9.30126507.0403823-1.0096988-.7066888-2.5142169.5922726-3.0290964 2.8267553-1.41759036 5.7813876-2.64126506 8.2985459-4.59379518 1.9719983-1.31728916 3.5199834-3.24307229 5.6938928-4.25945783z"/><path d="m74.4244287 1.60481928c0-1.15012048 1.8979643-1.24373494 2.1267969-.14710844.2759452 1.99265061.1076859 4.01873494.1346074 6.02475904 2.167179.02006024 4.3545492-.15379518 6.5149979.15379518.6528459.68204819.6528459 1.35072289.0067304 2.01271084-1.655671.24740964-3.3988367.04012049-4.9199003.8358434 1.9518072.8024096 3.9305359 2.1464458 4.8324055 4.1190361-.2692148.2607832-.800914.7890362-1.0701288 1.056506-1.7768176-.9562048-3.1632738-2.4473494-4.7045285-3.7111445.0471126-.9160844.0807645-1.825482.0874948-2.7415663-1.0970502 2.246747-.1547985 4.9749398-1.3326132 7.161506-.3970918-.0200602-1.1980058-.0735542-1.5950976-.0936144-.2221022-1.5580121-.1884504-3.1360844-.18172-4.7074699-2.0998754 2.0461446-4.2266722 4.2995783-7.0197757 5.3895181l-.8345658-.1738555c-.0336518-.3410241-.1009555-1.029759-.1346074-1.3707831 2.1537183-1.8656024 4.677607-3.3233132 6.5149979-5.55668674-1.9518072-.06686747-3.9238055.10698795-5.8554217-.19391566-.9489821-.63524097-.9624428-1.30391567-.0403822-1.98596386 2.4296635-.41457831 4.9199003-.13373494 7.3764853-.19391566.0134607-1.95921687-.1211467-3.92512048.0942251-5.8776506z"/><path d="m86.5996676.98295181c.6259244-.54162651 1.2316577-.50819277 1.8306606.1003012.2288326 1.53795181-.0471126 3.08259036-.1884503 4.61385542 2.6786871.0133735 5.3842958-.23403614 8.0293311.2407229 1.2787702 1.9792771-1.3864562 2.16650602-2.712339 2.28686747.0471126 5.4764458-.4643956 11.0866265-2.7931035 16.121747 1.7431658 2.0662048 4.1122559 3.3968675 6.2054009 5.0551807-.0538429.3543976-.1480681 1.056506-.1951807 1.4109036-3.1094308.3477109-5.1891151-2.775-7.4235978-4.4734337-1.9518073 1.9725903-4.0516826 3.858253-6.5688409 5.0886144h-.800914l-1.2181969-1.1233735c2.4902368-1.8455421 5.0881595-3.5974698 7.1274615-5.9645783-1.5277939-3.7713253-2.3960116-7.7900602-2.4229331-11.8556024-.8480266.5483133-1.7229746 1.2103012-2.8065642.8826506.0336519-1.7987349 1.2787703-3.2296988 1.9450769-4.82114455 1.2114665-2.36042169 1.2585791-5.06186747 1.9921894-7.56271084zm.8884088 7.04114458c-.1480681.3276506-.4509347.9829518-.5990029 1.31060241 1.3999169 3.9919879.8480266 8.4119277 2.5238887 12.3637952 1.6758621-4.3463856 1.7768176-9.0739157 1.8508517-13.66771087-1.2653095-.00668674-2.5238887-.00668674-3.7757375-.00668674z"/><path d="m104.960116 1.35072289c.282676 1.99933735.148068 4.02542169.161529 6.04481928 1.198006.29421687 3.378646-.40120482 3.614209 1.33066265-.289406 1.74524098-2.36909 1.02307229-3.614209 1.31728918 0 1.8321687 0 3.6576506-.040382 5.4831325 1.103781-.5148795 2.18064-1.1701807 3.445949-1.2370482l-.417283 2.2266868c.625925-.4145784.625925-.4145784 1.346074-.9495181.491317-3.6309036-.329788-8.49885543.329788-12.10301206.18172-.16716867.5317-.51487952.706689-.68873494 4.17283-.62186747 8.446614-.08692771 12.659826-.28753012 1.527794.07355422 4.199751-.38114458 4.354549 1.79204819-.114416 2.07957832.935521 5.18891566-1.043207 6.53963853-4.859327.3276506-9.738845.0334338-14.604903.1270482.067304 2.748253-.275945 6.4192771-.686497 9.1407832.262484.4279518.794183-.0735543 1.070128.3477108 1.507603-1.7118072 3.923806-.9762651 5.922726-1.1568072-.006731-.9896386-.006731-1.9859639-.006731-2.9756024-1.709514 0-3.419027.0668674-5.121811-.0869278-1.487412.4145784-1.359535-2.5677108.026922-2.2668072 1.622019-.2206626 3.264229-.1136747 4.892978-.1136747.289406-.9027108.215372-2.8886747 1.702784-2.3604217 1.083589.0869277.740341 1.6583133 1.164354 2.380482 2.113336-.0066868 4.246863-.1471085 6.353469.0936144.834566.3543976 1.09032 2.1130121-.020191 2.22-2.17391.2875301-4.374741.0936145-6.55538.1203615-.006731 1.003012-.006731 2.0060241-.006731 3.0090361 2.140258.3343374 5.512173-.9695783 6.683257 1.4443374.262485 2.8151204.437474 5.7506024-.134607 8.5322891-1.352804 1.7920482-4.078604.7489157-6.023681 1.0364458-2.873868-.3543976-6.279435.8024096-8.789863-.8090964-1.031767-2.612489-.343249-6.1956774-.087495-9.0672289.034858-.3913715-.857316.0071646-1.070128-.3477108-.437474 2.748253-1.211467 5.5968072-3.028667 7.7833734-.538429 1.3106025-3.432488.1203615-2.214291-1.0364457 2.301786-3.3233133 3.237307-7.295241 3.526713-11.2671687-.336518.2340361-1.009555.7087952-1.346074.9495181-.942251.7489156-1.951807 1.4042168-2.968093 2.032771-.154798 3.383494.249024 6.8004217-.235563 10.1571687-.55862 2.8351807-7.0197753 1.8722892-5.357374-1.029759.975904-.0601807 1.965268-.0936145 2.954632-.1003012.067304-2.6345783.033652-5.2691566.080765-7.903735-1.123972.3744579-2.234483 1.0297591-3.4661406.8625904-1.7364354-2.2801807 1.9585376-2.9354819 3.4392186-3.6442771-.00673-2.2868675-.00673-4.5670482-.00673-6.8472289-1.26531-.34102412-3.6074782.5416265-3.7353553-1.3774699.3365185-1.73186747 2.5171583-.98963856 3.7420853-1.28385543.006731-1.97259036-.114416-3.95855421.094226-5.93114457.612463-.7823494 1.581636-.69542169 2.308516-.10030121zm7.026506 6.89403615c4.287246-.02674699 8.581222-.0133735 12.868467-.00668675.060574-1.06987952.094225-2.14644578.114417-3.2163253-4.320898-.07355422-8.641795-.08692771-12.962693.00668674-.01346 1.06987952-.020191 2.14644579-.020191 3.21632531zm2.645036 13.75463856c-.222103 1.9324699-.134608 3.8783132-.121147 5.8174699 3.405567-.0668675 6.838056.2407229 10.223432-.160482.302866-1.9458433.148068-3.9184337.067303-5.8776506-3.385376.1136747-6.811134-.2942168-10.169588.2206627z"/><path d="m1.3124221 1.94584337c5.04777732-.4413253 10.1359369-.08024096 15.2039053-.18054217.437474 1.52457832-.2086415 2.45403615-1.8306606 2.59445784-.0067304 2.62789156-.0067304 5.25578313 0 7.89036146 1.1172414.2674699 2.4363939.4680723 2.4431242 1.9190964-.747071.2607831-1.5008724.501506-2.2614042.7154819-.2422933 1.056506-.3499792 3.1494578-1.9585376 2.3537349-.3903615-.6419277-.6999585-1.3239759-.928791-2.0394578-3.72189451.1604819-7.54474453 1.5914458-11.19933531.8759639-.90859992-1.8589157 1.34607395-1.9190964 2.56427088-2.2935543-.03365185-3.2096385-.02692148-6.41927707 0-9.62891562-.56535106-.04680723-1.69605318-.14042169-2.25467387-.18722892.05384296-.50819277.16825924-1.51120482.2221022-2.01939759zm4.48242626 2.17319277c-.00673037.44801205-.02019111 1.34403615-.02692148 1.78536145 2.16044869.03343374 4.32089742.03343374 6.48134612.04012048-.0134608-.62186747-.0201912-1.25042168-.0336519-1.8789759-2.1402576.02674699-4.28051516.03343373-6.42077274.05349397zm.01346074 3.65765061v1.75192771h6.4275031c0-.4413253.0067304-1.31728916.0067304-1.75192771-2.146988 0-4.29397592 0-6.4342335 0zm0 3.55066265v2.246747c2.05276277-.2741566 4.14590777-.3276506 6.1650187-.8291566.127877-.3477109.3903614-1.0498193.5182385-1.3975302-2.2277524-.0267469-4.45550481-.0200602-6.6832572-.0200602z"/><path d="m17.8422102 4.33301205c-1.238388-.71548193-.2894059-2.28686747.9085999-2.13975904 2.9680931-.12704819 5.9496469-.13373494 8.9244703 0 .9759036-.03343373 2.1402576.68204819 1.7768176 1.81210844-.4509347 2.56771084-1.8104694 4.85457831-3.1228915 7.06789155 1.0499377.8224699 2.1604487 1.5914458 3.0555878 2.5877711.8614874.7556024.5115082 3.0224096-.9759036 2.2668072-1.3931865-.7890361-2.584462-1.8856626-3.8497715-2.8619277-2.4700457 1.4844578-5.370835 4.1792169-8.3793103 3.1093374.0134607-.3276506.0538429-.9829518.0740341-1.3106024 1.7498961-1.1701808 3.7622767-1.8923494 5.4515995-3.1628314-.982634-1.95921684-5.1487329-1.75861443-4.2064811-4.48012045 2.3960116-.76228916 4.3612796 1.57138554 6.4948068 2.35373494 1.0768591-1.59144579 2.0123805-3.26981928 2.7325301-5.04849398-2.9546323-.16048193-5.9361861.14042169-8.8840881-.19391566z"/><path d="m67.7613627 2.74156627c1.4806813-2.15313254 3.2776901.82246987 4.3410885 1.96590361 1.1778147.80240964-.1346074 1.73855422-.5990029 2.53427711-1.2787703-1.42427711-3.2642294-2.58777109-3.7420856-4.50018072z"/><path d="m77.8434566 5.6503012c1.366265-1.35740963 2.6315746-2.84186747 4.2334026-3.94518072.5990029.33433735 1.5008724 1.0096988.9153302 1.75861446-.8143747 1.2103012-1.8643124 2.28018072-3.0892397 3.07590361-.8076443.76897591-1.5008724-.45469879-2.0594931-.88933735z"/><path d="m38.8140424 12.8118072c.4105525-.7021084.1749896-2.4740964 1.4604902-2.2333735 5.8756128-.0334337 11.7646863-.1805421 17.6335688.0735543 1.2114665-.2407229 1.4133776 2.748253-.0673037 2.2601204-6.3400083.1203615-12.7002078.2340362-19.0267553-.1003012z"/><path d="m16.819194 17.2785542c3.075779-.1136747 6.1111758-1.6583132 9.1667636-1.0698795.1009556.3142771.3163274.9562048.4172829 1.2771687-2.658496 1.8789759-6.1111757 1.6716867-9.1869547 2.1865662.9557125 1.0297591 1.9316162 2.0595181 2.9142501 3.0692169 2.9075198-1.1768675 5.404487-3.1160241 8.244703-4.44.2826755.4546988.8614873 1.3574096 1.1508932 1.8054217-2.167179 2.0127108-4.933361 3.1828916-7.5110926 4.5603614 2.6517657 1.9257832 5.8419609 2.8218073 8.7023681 4.3463856-.1951808.6218675.0471125 2.2668072-1.110511 1.7051205-4.8189448-.9562049-8.9783133-3.9986747-12.4242626-7.3687952.0269215 2.6880723.1346074 5.3962048-.1951807 8.0775903h-2.0258413c-.3028667-3.8448795-.1884504-7.6964457-.1884504-11.548012-3.1363523.1604819-6.30635645.6285542-9.43597838.1404217-.00673037-.4881325-.02692148-1.4710844-.04038222-1.9592169 3.81611965-.5750602 7.7197341.026747 11.522393-.7823494z"/><path d="m39.2178646 16.3557831c5.9967594-.2340361 12.0069796-.0468072 18.0104694-.1003012 1.5816369-.1203614 3.6142086.6553012 3.6074782 2.5075301.1413378 3.1026507.1547985 6.2253615-.0067304 9.3280121-.0067303 1.4844578-1.5749065 2.300241-2.9075197 2.1865663-5.6131284.0735542-11.2262567-.0133735-16.8393851.0334337-1.4604903-.053494-3.6209389.1404217-4.1728293-1.5981325-.3567096-3.2965663-.2288325-6.6466265-.1009555-9.9565663-.0471126-1.3239759 1.1508932-2.3203012 2.4094724-2.4005422zm.7066888 2.6947591-.4240133.1203614c-.3028666 2.6412651-.2759452 5.3293374-.0471126 7.9772892.7066888.8692771 1.9450769.6018072 2.9277108.7021084 4.5093478-.026747 9.0186955 0 13.5213129-.0066867.8412962-.1404217 2.5440798.2540963 2.3892812-1.1233735-.1682592-2.4941567.7739926-5.5433133-.6057332-7.7031326-5.8958039-.2674698-11.8791026-.3343373-17.7614458.0334338z"/><path d="m72.5466556 19.0371687c.7807229-1.0364458 1.2114665-2.8351807 2.8805982-2.5075301.5047778.7756626.6461155 1.6315662.4240133 2.5743975 2.4498546.3075904 5.8352306-1.0096988 7.6726216.9963253-.1211467 2.5944579-2.2075613 4.5269278-3.7555464 6.4393374.6999585.7689759 2.8873287 1.0230723 2.0864147 2.4473494-1.4537599.9093976-3.001745-.4012048-4.4151226-.7890362-2.8267553 1.243735-5.734275 2.4807832-8.8369755 2.8351808-1.0970503.2474096-2.2681346-1.1969277-1.0701288-1.9592169 2.2277524-.7823494 4.5699211-1.1768675 6.7976735-1.9458434-1.9518073-.7689759-3.8968841-1.5780723-5.7813876-2.5142168.7672621-1.083253 1.5614457-2.1397591 2.3758205-3.1828916-1.4537599-.3677711-4.4016618.8425301-4.5026174-1.3640964 1.2249273-1.9659036 4.1728293-.635241 6.1246365-1.029759zm1.4604902 2.3604217c-.6057333.7756626-1.2181969 1.5446385-1.8239302 2.3269879 1.6287495.6686747 3.2709597 1.3172892 4.8929788 2.0060241 1.3999169-1.2704819 2.6113835-2.721506 3.694973-4.2594578-2.2546738-.0869277-4.5093477-.080241-6.7640216-.0735542z"/><path d="m8.99177399 20.9161446c.88167844-.7221687 1.58163691-.5616868 2.11336851.474759.006698 1.0297591-1.0365093 1.5178916-1.71627669 2.0862651-2.05276278 1.3707831-4.32762775 2.5008433-6.77748235 2.9421686-.28267552-.2540963-.83456584-.7689759-1.110511-1.029759 1.76335687-2.3470482 5.19584545-2.6613253 7.49090153-4.4734337z"/><path d="m11.6839219 24.1659036c.2759452-.1270482.8278355-.3677711 1.1037806-.4948193 2.4902368 1.1166868-.3499792 2.8886747-1.6220191 3.5239157-2.90078934 1.3640964-5.82176981 3.6242169-9.14657247 3.4169277-.1346074-.3142771-.41728293-.9428313-.55862069-1.2571084 1.26530951-1.1166868 3.00174491-1.3975301 4.50934773-2.0595181 2.05949315-.7489157 3.82958039-2.0461446 5.71408393-3.1293976z"/></g><g fill="#009de2" transform="translate(0 39.704819)"><path d="m22.5332779.38783133c1.4874118 3.06921686 3.203656 6.01807228 4.8660574 9.00036144-1.5883673 3.04246993-3.2305775 6.05819273-4.7583714 9.13409643-1.5008725-3.0959639-3.0825094-6.1518073-4.7045285-9.1875904 1.4470295-3.02240964 3.0017449-5.99801205 4.5968425-8.94686747z"/><path d="m.74707104 10.6185542c-.61246364-2.62789155 2.01238056-5.23572287 4.65741587-4.73421685 1.78354799.13373494 2.69887827 1.79204819 3.66132115 3.04915663-1.65567096 3.22969882-3.17673452 6.55301202-5.33718322 9.49518072-.90859991-2.6345783-2.24794349-5.1153614-2.9815538-7.8101205z"/></g></g></svg>