<svg height="90" viewBox="0 0 180 90" width="180" xmlns="http://www.w3.org/2000/svg"><g fill="none" fill-rule="evenodd"><path d="m1.76307692 13.0615385c6.46153846-4.0615385 12.93230768-8.10461542 19.37538458-12.19384619.0092308 2.85230769.0276923 5.69538461.0276923 8.53846154 1.8646154 1.19076925 3.72 2.38153845 5.5846154 3.56307695-.036923 6.9230769.0646154 13.8461538-.0184615 20.7784615-7.8830769 4.9107692-15.7015385 9.9230769-23.6123077 14.7876923-.97846154-1.6892308-1.97538462-3.3692308-2.89846154-5.0861538 6.92307692-4.5138462 13.97538464-8.8338462 20.95384614-13.2553846-.0092308-1.6615385-.0092308-3.323077-.0184615-4.9846154-4.3938462 2.6676923-8.6676923 5.5107692-13.06153848 8.1692307-.31384616-.0923077-.94153847-.276923-1.25538462-.3784615-.34153846-2.0861538-.56307692-4.1907692-.78461538-6.3046154-1.58769231-.9969231-3.18461539-1.9846154-4.80923077-2.9353846.46153846-.1846154.92307692-.3692308 1.38461538-.5446154 1.08.9876923 2.19692308 1.9476923 3.33230769 2.88 6.74769228-4.2461538 13.51384618-8.4553846 20.23384618-12.7569231-1.8461539-1.1815384-3.6923077-2.3723077-5.5292308-3.56307688-5.4 3.47999998-10.84615384 6.88615388-16.29230768 10.30153848-.88615385-2.3353846-1.75384616-4.6707693-2.6123077-7.0153846z" fill="#f6ca08" transform="translate(30.461538 17)"/><g fill="#f19827" transform="translate(0 18.846154)"><path d="m.03692308.83076923c2.76 1.76307692 5.4276923 3.76615385 8.52 4.93846154-.36.26769231-.72923077.52615385-1.08923077.78461538-2.04923077-1.56923077-4.24615385-2.9076923-6.43384616-4.28307692.01846154 11.63999997-.06461538 23.28923077.03692308 34.92923077 7.73538462 4.7261538 15.41538457 9.5538462 23.10461537 14.3446154 0-1.9107692.0092308-3.8215385.0092308-5.7323077-5.4646154-3.5538462-10.9661539-7.0523077-16.47692309-10.5507692-.00923077-7.2461539-.00923077-14.5015385-.01846154-21.7569231 5.49230773 3.4892308 10.97538463 6.9969231 16.47692303 10.4676923-.0092307-2.3169231-.0092307-4.6338462-.0461538-6.9507692-5.0215385-2.7876923-9.4061538-6.803077-14.82461538-8.80615388.13846153-.6923077.29538461-1.38461539.46153846-2.07692308.65538462 1.43076923 2.05846152 2.19692308 3.29538462 3.01846154 3.7569231 2.32615382 7.4861538 4.68923072 11.2061538 7.07076922 2.6584616-1.6615385 5.3076923-3.3507692 7.9661539-5.0123077.8584615 2.3446154 1.7261538 4.68 2.6123077 7.0153846-1.5692308.9969231-3.0276923 2.16-4.4030769 3.4153846.0276923 2.1323077.0461538 4.2738462.0738461 6.4153847 2.04 1.2646153 4.08 2.5384615 6.1384615 3.7938461-.036923-2.3353846-.0646153-4.6707692-.1292307-7.0061538.2215384 2.1138461.4430769 4.2184615.7846154 6.3046154.3138461.1015384.9415384.2861538 1.2553846.3784615-2.8615385 2.4369231-5.5384616-1.5323077-8.0953846-2.6307692.0830769 4.236923-.203077 8.4830769.2215384 12.7015384.9230769 1.7169231 1.92 3.3969231 2.8984616 5.0861539l.0553846.0923077c-3.1753846 1.9107692-6.2953846 3.9138461-9.4338462 5.88-7.9569231-5.2707693-16.27384613-10.0707693-24.02769228-15.6092308-.20307693-12.0646154-.06461539-24.1476923-.13846154-36.22153847zm8.51076923 33.93230767c5.21538459 3.2953846 10.41230769 6.6092308 15.62769229 9.8953846-.0184615-6.5630769-.0092308-13.1353846-.0092308-19.7076923-5.1876923 3.2953846-10.4030769 6.563077-15.61846149 9.8123077z" fill-rule="nonzero"/><path d="m115.052308 17.3907692c3.12-.2215384 3.184615-4.44 5.787692-5.5384615-.036923.9692308-.092308 1.9476923-.184615 2.9169231 3.923077.0276923 7.846153-.12 11.76.156923-1.144616 2.003077-2.27077 4.2738462-4.578462 5.16.498462-1.3846153 1.070769-2.7415384 1.716923-4.0615384-1.892308.0830769-3.775384.1476923-5.658461.2676923.876923 5.0123077 6.655384 4.8923077 9.72923 7.8-3.72923-.0923077-7.144615-1.8276923-10.107692-3.9692308-2.76 2.3446154-6.212308 3.7938462-9.821538 4.1076923 2.852307-3.12 9.046153-2.8523077 9.396923-8.0492307-1.227693-.0276923-2.446154-.0461539-3.664616-.0646154-1.107692 1.4307692-2.215384 2.8615384-3.350769 4.2646154l-.378461-1.2646154c-.36.1292307-1.089231.4061538-1.449231.5446154-1.2 1.4123077-2.418462 2.8061538-3.747693 4.0892307l-.72.1938462c-4.043076.1661538-.803076 5.3076923-2.787692 7.4676923-4.347692 5.4184615-15.2215383 4.1261538-17.3261537-2.8892308-1.6523077-5.0030769-.0553846-11.8430769 5.2892308-13.8646154 5.0307692-2.2338461 11.7230769.5815385 12.9599999 6.1384616-2.178461-.5630769-2.981538-2.8523077-4.661538-4.1076923-2.243077-1.5138462-5.2707696-1.9569231-7.7446158-.6923077-5.4646154 2.4646154-6.4984615 10.5507692-2.7046154 14.8892307 3.0646154 2.9169231 8.3076922 3.2307693 11.7415382.7938462 2.215385-1.4307692 1.19077-4.4123077 1.569231-6.5815385-2.778461-.036923-5.566154.1015385-8.316923-.36 3.701538-1.8 8.095385-.2861538 11.981538-1.6892307l-.673846-.2676923c1.781539-1.6707693 3.341539-3.5538462 5.076923-5.28-1.883077-1.2369231-3.812307-2.5384616-5.123077-4.4215385 2.658462-.6923077 4.8 2.2892308 5.99077 4.3107692z"/><path d="m133.375385 14.2338462c.166153-.3507693.48923-1.0615385.655384-1.4123077 2.141539 1.5230769 4.2 3.1753846 6 5.1138461-2.824615.1753846-4.587692-2.2430769-6.655384-3.7015384z"/><path d="m74.5938462 14.6861538c4.9476923-2.3261538 11.8153846.6461539 12.5076923 6.36-2.8707693-1.9938461-4.5876923-5.916923-8.6307693-5.8061538-6.7384615.1015385-9.756923 8.5476923-6.9507692 13.9292308 1.7169231 3.9692307 6.9692308 5.0676923 10.6615385 3.3784615 2.6123077-1.0338461 2.8061538-4.6615385 5.6030769-5.4184615-.7753846 2.4553846-1.7353846 5.1876923-4.1538462 6.4984615-4.5784615 2.2246154-11.3538461 1.1723077-13.5692307-3.8676923-2.1507693-5.1138462-1.1907693-12.7661538 4.5323077-15.0738462z"/><path d="m140.187692 14.1138462c5.51077 0 11.021539-.0092308 16.541539.0092307 0 .3230769.009231.9692308.009231 1.2923077-2.224616.0184616-4.458462-.0923077-6.683077.1015385-.35077.6830769-1.043077 2.04-1.393847 2.7138461 2.132308.0738462 4.273847.1015385 6.415385.1476923v8.9353847c-.784615.6646153-1.541538 1.3476923-2.298461 2.04 1.763076 1.6707692 4.08923 3.2215384 4.44 5.8338461-2.16-1.2553846-3.923077-3.0369231-5.501539-4.9384615l-.535385.2492307c.221539-.7107692.683077-2.1138461.904616-2.8153846l-1.883077.1661539c.018461 2.7507692.073846 5.52-.415385 8.2430769-2.132307.0369231-4.366154.2584615-6.36923-.6646154 1.698461-.3876923 3.443076-.5723077 5.178461-.8123077.018462-2.2430769.018462-4.4861538.018462-6.7292308l-2.501539-.2030769c.175385.6923077.526154 2.0676923.710769 2.76l-.433846-.7476923c-1.753846 2.0769231-3.590769 6.4615385-6.895384 4.5323077-.48 1.2184615-1.366154 1.9661539-2.649231 2.2615385 4.098461-6.7846154 3.350769-14.8153846 3.341538-22.3753846zm.71077 17.076923c.341538.5815385.692307 1.163077 1.052307 1.7353846.941539-1.2923076 1.993846-2.4923076 3.147693-3.6-.572308-.7292307-1.181539-1.4492307-1.781539-2.16.027692-2.9261538.027692-5.8523076.027692-8.7876923 1.31077-.0461538 2.63077-.0923077 3.95077-.156923.175384-.6923077.516923-2.0861539.692307-2.7876923-2.104615-.0092308-4.20923-.0092308-6.313846 0-.009231 5.2615384.212308 10.56-.775384 15.756923zm4.024615-11.6584615v2.8892308h8.538461c.018462-.7292308.064616-2.1692308.092308-2.8892308-2.88 0-5.76 0-8.630769 0zm0 4.2v2.8984615c2.88-.0092307 5.769231-.0092307 8.649231-.0184615-.046154-.96-.083077-1.92-.129231-2.8707692-2.843077-.0092308-5.676923-.0092308-8.52-.0092308z" fill-rule="nonzero"/><path d="m158.353846 14.3538462c6.941539-.0461539 13.892308-.0184616 20.843077-.0184616.046154 6.7384616.046154 13.4861539-.009231 20.2246154-2.427692 1.8923077-6.027692 2.1046154-8.658461.5353846 2.206154-.4984615 4.495384-.3415384 6.692307-.8953846 1.163077-6.0461538.156924-12.3507692.498462-18.4984615-5.963077-.0184616-11.926154-.0092308-17.88-.0092308-.092308 7.0430769.193846 14.0953846-.138462 21.1292308-.332307-.443077-.978461-1.32-1.301538-1.763077-.184615-6.8953846-.027692-13.8092307-.046154-20.7046153z"/><path d="m168 16.6523077c1.670769 2.1230769 3.36 4.2369231 4.809231 6.5261538 1.144615-2.2430769 1.338461-5.3261538 3.96-6.4615384-.489231 2.9169231-1.846154 5.5753846-3.12 8.2246154 1.135384 2.5753846 3.950769 4.8830769 3.073846 7.956923-1.467692-1.92-2.695385-4.0061538-3.858462-6.1107692-1.375384 2.3630769-2.723077 4.7446154-4.44 6.8861539-.110769-.6461539-.323077-1.9476924-.424615-2.5938462-.941538-1.4953846-1.836923-3.0092308-2.732308-4.5323077-1.513846 2.4553846-2.612307 5.3538462-5.196923 6.9230769.646154-3.2953846 2.806154-5.9538461 4.273846-8.8984615-1.393846-2.3446154-2.833846-4.6892308-3.766153-7.2646154 2.732307.3784615 3.221538 3.5446154 4.633846 5.4184615.932307-2.0307692 1.836923-4.0615384 2.787692-6.0738461zm-1.846154 7.9661538c1.015385 1.7907693 2.012308 3.5907693 3.027692 5.3815385.858462-1.6338462 1.735385-3.2584615 2.593847-4.8830769-1.098462-1.8830769-2.206154-3.7476923-3.286154-5.6307693-.766154 1.7169231-1.541539 3.4338462-2.335385 5.1323077z" fill-rule="nonzero"/><path d="m132.295385 19.0615385c2.206153 1.2184615 4.2 2.7784615 6.110769 4.4123077-.424616.2215384-1.264616.6553846-1.689231.8676923-1.716923-1.5415385-3.858461-2.8615385-4.421538-5.28z"/><path d="m112.172308 24.8307692c5.907692-.0923077 11.815384-.0553846 17.723077-.036923-.396923 2.6676923 1.098461 6.1753846-1.338462 8.1230769-.267692-2.2984616-.276923-4.6153846-.286154-6.9323077-4.864615-.0646154-9.729231.0461538-14.593846-.0184616.009231 2.1138462 0 4.2369231-.036923 6.3507693l-1.421538-.0276923c-.046154-2.483077-.046154-4.9661539-.046154-7.4584616z"/><path d="m136.043077 26.16c.396923.1015385 1.2.3138462 1.596923.4153846-1.006154 3.1846154-1.892308 6.3969231-2.944615 9.5630769-4.984616.683077-9.12-2.8430769-13.67077-4.2461538-3.396923 2.8615385-7.781538 3.9046154-12.036923 4.68l-.184615-1.32c3.350769-.8307692 6.876923-1.4861539 9.775385-3.48 1.753846-1.0707692 1.56-3.4338462 2.243076-5.1415385.23077.083077.683077.24.913847.3138462.193846 1.2276923.276923 2.4738461.230769 3.72 3.766154 1.5969231 7.578461 3.0738461 11.261538 4.8461538.84-3.1476923 1.781539-6.2676923 2.815385-9.3507692z"/><path d="m69.2953846 40.8461538c1.3938462 1.1538462 1.7538462 2.9538462 2.3815385 4.56-.3784616.3046154-1.1353846.9138462-1.5046154 1.2276924-.2676923-1.9384616-.6646154-3.8492308-.8769231-5.7876924z"/><path d="m72.3784615 45.0184615c.6-1.4030769 1.1815385-2.8246153 1.9661539-4.1446153.84 2.1692307 1.3661538 4.4492307 1.9569231 6.7015384.4615384-1.92.9046153-3.8307692 1.3107692-5.76 1.1815385-.0553846 2.3538461-.12 3.5261538-.2030769.4707693 1.9476923.96 3.8861538 1.4769231 5.8246154.5446154-2.0123077.9507692-4.0615385 1.6892308-6.0184616 2.28.3323077 1.44 4.1353847 2.5846154 5.6215385.7661538-2.1230769.84-4.6984615 2.76-6.2123077-.5815385 3.0184615-.9876923 6.2769231-2.9446154 8.7692308-.72-1.7815385-1.3476923-3.6-2.0030769-5.4092308-.6184616 1.7907692-1.2184616 3.6-1.9384616 5.3538462-1.5969231-1.7353847-2.04-4.1076923-2.3723077-6.36-.6646154-.0092308-1.3292307-.0092308-1.9938461-.0092308-.3876923 2.2338461-.6276923 4.7538461-2.4461539 6.3692308-.6738461-1.8738462-1.2276923-3.7938462-1.8-5.6953847-.1846154.6276924-.5538461 1.883077-.7476923 2.5015385-.2584615-.3323077-.7661538-.9969231-1.0246154-1.3292308z"/><path d="m90.3230769 40.8738462c2.3723077 1.3476923 2.0307693 4.3753846 2.8984616 6.5723076.6738461-2.2061538.9323077-4.6430769 2.316923-6.5723076.8769231 2.16 1.403077 4.4307692 2.0215385 6.6738461.4707692-2.0123077.9323077-4.0246154 1.4215385-6.0276923.3230769.0369231.9784615.12 1.3107695.1661538-.8769234 2.6584616-1.0707695 5.7415385-3.0830772 7.8738462-.7107693-1.9107692-1.283077-3.8769231-1.8461539-5.8246154-.96 1.6430769-.4061538 4.9846154-2.7415384 5.3446154-1.0892308-2.6307692-1.7446154-5.4184615-2.2984616-8.2061538z"/><path d="m105.609231 46.7353846c-1.218462-2.8430769 1.356923-5.4092308 4.135384-5.4830769.313847.4246154.96 1.2646154 1.283077 1.68-.941538-.2030769-1.883077-.36-2.833846-.4707692-1.901538 1.3015384-2.16 4.1815384-.156923 5.5107692 1.144615-.1107692 2.28-.2492308 3.415385-.4153846-1.596923 1.8461538-5.233846 1.9569231-5.843077-.8215385z"/><path d="m113.270769 48.1384615c-1.772307-1.7815384-1.236923-5.4553846 1.135385-6.48 1.523077-.0923077 3.036923.0184616 4.56.0184616-.212308 2.7692307.341538 5.6861538-.526154 8.3538461-1.393846 2.5569231-4.707692 1.763077-6.489231.1292308 2.4.4892308 5.003077 1.1630769 6.341539-1.56-1.633846-.1661538-3.729231 1.0246154-5.021539-.4615385zm1.246154-5.5292307c-1.172308 1.5138461-1.2 3.636923-.12 5.2061538 4.061539 1.92 4.421539-6.9876923.12-5.2061538z" fill-rule="nonzero"/><path d="m123.018462 41.8430769c1.966153-1.0430769 4.818461.1846154 4.947692 2.5292308.692308 2.4923077-1.633846 5.2984615-4.264616 4.5323077-3.24-.6184616-3.563076-5.7507692-.683076-7.0615385zm.72923.6276923c-1.790769 1.2923077-1.966154 4.3661539.073846 5.5107693 3.987693 1.1907692 3.941539-6.7661539-.073846-5.5107693z" fill-rule="nonzero"/><path d="m129.083077 40.8738462c2.372308 1.3292307 2.04 4.3753846 2.907692 6.5723076.710769-2.196923.867693-4.7076923 2.4-6.5630769.84 2.2338462 1.338462 4.5692308 1.901539 6.8861539.461538-2.1046154.950769-4.1907693 1.467692-6.2769231.323077.0553846.969231.1569231 1.292308.2123077-1.153846 2.3630769-.581539 6.3507692-3.267693 7.4307692-.673846-1.7538461-1.116923-3.5907692-1.652307-5.3815384-.978462 1.596923-.406154 5.0861538-2.76 5.28-1.089231-2.6215385-1.716923-5.4-2.289231-8.16z"/><path d="m140.686154 41.7230769c1.670769.0184616 3.341538-.1569231 5.012308.0461539 1.615384 2.0123077.830769 4.7907692 1.061538 7.1630769-.341538-.0184615-1.033846-.0461539-1.384615-.0646154-.036923-2.0953846.110769-4.2276923-.415385-6.2769231-3.886154-1.0892307-2.861538 4.08-3.036923 6.3784616-.295385-.0276923-.895385-.0738462-1.2-.1015385.018461-2.3815385.009231-4.7630769-.036923-7.1446154z"/><path d="m152.704615 46.7723077c-1.246153-2.8430769 1.32-5.4369231 4.098462-5.5107692.332308.4153846.987692 1.2646153 1.310769 1.6892307-.941538-.2123077-1.883077-.3784615-2.833846-.4892307-1.956923 1.3107692-2.113846 4.1907692-.156923 5.5661538 1.024615-.1661538 2.030769-.3876923 3.027692-.6646154-.332307.4523077-1.006154 1.3569231-1.338461 1.8092308-1.523077-.4430769-3.83077-.3784615-4.107693-2.4z"/><path d="m161.409231 49.1907692c-2.492308-2.0492307-2.750769-5.6861538-.046154-7.6707692.784615-.0092308 2.363077-.0092308 3.147692-.0092308 1.412308 1.44 2.529231 3.5815385 1.449231 5.5476923-.673846 1.9107693-2.944615 1.763077-4.550769 2.1323077zm.129231-6.4615384c-1.163077 1.5323077-1.375385 4.836923.987692 5.2523077 3.987692.7015384 3.046154-7.5876923-.987692-5.2523077z" fill-rule="nonzero"/><path d="m168.655385 41.7138462c1.836923-.0738462 3.683077-.0276924 5.483077.36 1.504615-.5815385 3.027692-.5169231 4.467692.2215384.027692 2.1876923.046154 4.3753846.064615 6.5723077-.304615.0184615-.913846.0738462-1.209231.0923077-.507692-2.1230769 1.209231-6.6830769-2.132307-6.5353846-1.606154 1.9938461-.6 4.8738461-1.218462 7.2184615-2.510769-1.9846154.821539-7.6984615-3.470769-7.2369231-.96 2.2984616-.683077 4.8553847-1.126154 7.2646154-1.550769-2.3538461-.803077-5.3261538-.858461-7.956923z"/><path d="m70.8646154 46.6707692c.4984615.0646154 1.5046154.1846154 2.0030769.2492308 1.3661539 2.6769231-3.5630769 2.1969231-2.0030769-.2492308z"/><path d="m101.926154 47.2153846c1.467692-.48 1.956923.0553846 1.467692 1.5784616-1.467692.4615384-1.956923-.0646154-1.467692-1.5784616z"/><path d="m149.003077 47.2061538c1.476923-.4615384 1.956923.0738462 1.458461 1.5876924-1.467692.4615384-1.956923-.0738462-1.458461-1.5876924z"/></g><path d="m1.52307692 1.09846154c.17538462-.10153846.52615385-.28615385.70153846-.38769231.25846154.33230769.76615385.99692308 1.02461539 1.32923077l.6.80307692-1.13538462-.23076923c-.49846153-.06461538-1.50461538-.18461538-2.00307692-.24923077l-.69230769-.03692307c.36923077-.31384616 1.12615384-.92307693 1.50461538-1.22769231z" fill="#826d4f" opacity=".52" transform="translate(70.153846 63.153846)"/></g></svg>