<svg height="90" viewBox="0 0 180 90" width="180" xmlns="http://www.w3.org/2000/svg"><g fill="none" fill-rule="evenodd" transform="translate(0 17)"><path d="m3.55263158 0h49.73684212c1.9620642 0 3.5526316 1.59056734 3.5526316 3.55263158v49.73684212c0 1.9620642-1.5905674 3.5526316-3.5526316 3.5526316h-49.73684212c-1.96206424 0-3.55263158-1.5905674-3.55263158-3.5526316v-49.73684212c0-1.96206424 1.59056734-3.55263158 3.55263158-3.55263158z" fill="#05a081"/><path d="m23.0921053 37.3026316h6.8619079v-6.6647369h2.0729605c3.0647443 0 5.5492105-2.4844661 5.5492105-5.5492105 0-3.0647443-2.4844662-5.5492105-5.5492105-5.5492105h-8.9348684zm10.4145394 3.5526316h-13.967171v-24.8684213l12.4875.0000002c4.739671-.0009166 8.6867414 3.6356627 9.073283 8.3595454.3865417 4.7238827-2.9168404 8.9537457-7.593612 9.7233493z" fill="#fff" fill-rule="nonzero"/><path d="m72.8397747 15.9802105h10.656c6.216031 0 9.324 2.6279737 9.324 7.884 0 5.3040265-3.1319687 7.956-9.396 7.956h-6.372v9.864h-4.212zm4.212 3.6v8.64h6.12c1.8480092 0 3.2159955-.3359966 4.104-1.008.8640043-.6960035 1.296-1.8119923 1.296-3.348 0-1.5120075-.4439956-2.6039966-1.332-3.276-.8400042-.6720033-2.1959907-1.008-4.068-1.008zm26.5422853 2.988c3.072016 0 5.411992 1.0319897 7.02 3.096 1.488008 1.8960095 2.232 4.5119833 2.232 7.848h-13.9319997c.1440007 1.7520088.611996 3.0719956 1.4039997 3.96.792004.9120046 1.931993 1.368 3.42 1.368 1.248007 0 2.267996-.2879971 3.06-.864.600003-.4560023 1.151998-1.2119947 1.656-2.268h4.104c-.432002 1.7520088-1.295993 3.2039943-2.592 4.356-1.680008 1.4160071-3.743987 2.124-6.192 2.124-2.760013 0-4.9559915-.8519915-6.5879997-2.556-1.7280086-1.7760089-2.592-4.1999846-2.592-7.272 0-2.7840139.8159918-5.0999907 2.448-6.948 1.5840079-1.8960095 3.7679857-2.844 6.5519997-2.844zm.108 3.348c-1.368007 0-2.435996.3839962-3.204 1.152-.7440034.7440037-1.2479984 1.8599926-1.5119997 3.348h9.5759997c-.360001-3.000015-1.979985-4.5-4.86-4.5zm10.846286-2.844h4.788l3.888 5.688 3.852-5.688h4.788l-6.408 8.712 7.236 9.9h-4.824l-4.644-6.876-4.68 6.876h-4.824l7.236-9.9zm28.018286-.504c3.072015 0 5.411992 1.0319897 7.02 3.096 1.488007 1.8960095 2.232 4.5119833 2.232 7.848h-13.932c.144 1.7520088.611996 3.0719956 1.404 3.96.792004.9120046 1.931992 1.368 3.42 1.368 1.248006 0 2.267996-.2879971 3.06-.864.600003-.4560023 1.151997-1.2119947 1.656-2.268h4.104c-.432003 1.7520088-1.295994 3.2039943-2.592 4.356-1.680009 1.4160071-3.743988 2.124-6.192 2.124-2.760014 0-4.955992-.8519915-6.588-2.556-1.728009-1.7760089-2.592-4.1999846-2.592-7.272 0-2.7840139.815991-5.0999907 2.448-6.948 1.584007-1.8960095 3.767986-2.844 6.552-2.844zm.108 3.348c-1.368007 0-2.435997.3839962-3.204 1.152-.744004.7440037-1.247999 1.8599926-1.512 3.348h9.576c-.360002-3.000015-1.979986-4.5-4.86-4.5zm12.358285-10.44h4.104v26.208h-4.104zm15.418286 7.092c4.920024 0 7.595998 1.9679803 8.028 5.904h-3.996c-.288002-.9600048-.719997-1.6199982-1.296-1.98-.600003-.3840019-1.535994-.576-2.808-.576-1.104006 0-1.919998.1559985-2.448.468-.624003.3120016-.936.8279964-.936 1.548 0 .600003.491995 1.1159979 1.476 1.548.624003.2640013 1.859991.6239977 3.708 1.08 2.160011.5280027 3.719995 1.1159968 4.68 1.764 1.488007.9360047 2.232 2.2439916 2.232 3.924 0 3.9600198-2.795972 5.94-8.388 5.94-5.160026 0-7.943998-2.1839781-8.352-6.552h3.996c.216001 1.1520058.635997 1.9919974 1.26 2.52.648003.4560023 1.631993.684 2.952.684 2.880014 0 4.32-.7679923 4.32-2.304 0-.8640043-.539995-1.5479975-1.62-2.052-.480003-.2400012-1.70399-.5879977-3.672-1.044-2.184011-.5040025-3.731996-1.0439971-4.644-1.62-1.440007-.9120045-2.16-2.1719919-2.16-3.78 0-1.7520087.707993-3.0839954 2.124-3.996 1.368007-.9840049 3.215988-1.476 5.544-1.476z" fill="#313645"/></g></svg>