<svg height="90" viewBox="0 0 180 90" width="180" xmlns="http://www.w3.org/2000/svg" xmlns:xlink="http://www.w3.org/1999/xlink"><linearGradient id="a" x1="98.91054%" x2="1.08946%" y1="48.91054%" y2="48.91054%"><stop offset="0" stop-color="#0095ff"/><stop offset="1" stop-color="#06f"/></linearGradient><path d="m15.2539535 51.2500224h-4.1860465l-1.24744188-5.6846512c-.06139535-.24-.15627907-.7116279-.28465117-1.4148837-.12837209-.7032558-.22046511-1.2893023-.27627907-1.7581395-.03348837.3851163-.1116279.8651163-.2344186 1.44s-.22604651 1.0995349-.30976744 1.5739535c-.10604651.48-.53860465 2.4334884-1.29767442 5.8604651h-4.18604651l-3.23162791-13.0353488h3.40744186l1.42325581 6.4967441c.32372093 1.44.54418605 2.5869768.66139535 3.4409303.07813954-.6027907.21767442-1.4232558.41860465-2.4613954.20093024-1.0381395.38511628-1.8893023.55255814-2.5534883l1.15534884-4.9227907h3.26511625l1.1134884 4.9227907c.1897674.7869767.3823256 1.6967441.5776744 2.7293023.1953489 1.0325581.3265116 1.8027907.3934884 2.3106977.0781395-.6586047.2902326-1.8.6362791-3.4241861l1.4651162-6.5386046h3.4074419zm15.8483721-6.5218605c.1373845 1.8211001-.4424749 3.6237719-1.615814 5.0232559-1.2737231 1.1997794-2.9938688 1.8076048-4.7386046 1.6744186-1.7425633.1158948-3.4534246-.5070654-4.7134884-1.7162791-1.196805-1.3891854-1.7983514-3.1938245-1.6744186-5.0232558-.1205065-1.8148419.4779572-3.6042184 1.6660465-4.9813954 1.2753743-1.197069 2.9942872-1.8044587 4.7386047-1.6744186 1.7421861-.1328876 3.459638.47506 4.7302325 1.6744186 1.0716279 1.1497675 1.6074419 2.8241861 1.6074419 5.0232558zm-8.9916279 0c0 2.5172093.8790697 3.775814 2.6372093 3.775814.7783669.0561318 1.5309539-.2917026 1.9925581-.9209302.4934952-.8665442.7179061-1.8603637.6446512-2.8548838.0758019-1.0037451-.151706-2.0071132-.6530233-2.88-.4500661-.6256876-1.189778-.9765767-1.9590697-.9293023-1.7748838-.0055814-2.6623256 1.2641861-2.6623256 3.8093023zm13.6967442 1.7832559v4.7386046h-3.5330233v-13.0186046h4.2781395c3.5386047 0 5.307907 1.2837209 5.307907 3.8511627.0046168 1.4876431-.8498209 2.8443075-2.1934884 3.4827907l3.8093024 5.667907h-4.0018605l-2.7711628-4.7386046h-.8958139zm0-2.6455814h.6613953c1.2334884.0167441 1.8502326-.5330233 1.8502326-1.6493024 0-.8986046-.6055814-1.3479069-1.8167442-1.3479069h-.6948837v3.0223255zm7.9451162 7.384186v-13.0186046h3.5330233v10.1804651h5.0232558v2.8381395zm20.8297675-6.7813953c.1216981 1.8514619-.5301052 3.670448-1.8 5.0232558-1.3742759 1.2302524-3.181738 1.8628641-5.0232558 1.7581395h-4.2697675v-13.0186046h4.5209303c1.7644463-.1146357 3.5047333.4584588 4.8558139 1.5990697 1.2082382 1.2299839 1.83284 2.9179321 1.7162791 4.6381396zm-3.6669768.1255814c.0735412-.9400256-.1776515-1.876827-.7116279-2.6539535-.5523294-.5972898-1.3494087-.9062352-2.16-.8372093h-1.0213953v7.292093h.7451163c.8889543.0761713 1.7624026-.2676328 2.3609302-.9293023.582117-.8394592.8597934-1.8526826.7869767-2.8716279zm14.1320931-6.3627907h1.6744186l-4.7218605 13.0186046h-1.5237209l-4.6883721-13.0186046h1.6074418l3.0055814 8.4223255c.337575.9221053.6171898 1.8644072.8372093 2.8213954.217653-.9740561.4972919-1.9332175.8372093-2.8716279zm9.8958139 13.0186046h-7.2837209v-13.0186046h7.2837209v1.3479069h-5.7683721v4.1860465h5.3832558v1.3395349h-5.3832558v4.7888372h5.7683721zm7.3925582-11.8465116c-1.2911147-.0607697-2.5404895.4654448-3.3990698 1.4316279-.8792083 1.1007594-1.3231688 2.4862738-1.2474419 3.8930232-.0890895 1.417062.3393082 2.8182793 1.2055814 3.9432559.8728465.9567397 2.1314529 1.4675677 3.4241861 1.3897674 1.0580783-.0201416 2.108555-.1834865 3.1227907-.4855814v1.3227907c-1.0774067.3664737-2.2111704.5393727-3.3488372.5106977-1.668475.1026336-3.2975533-.5342993-4.4539535-1.7413954-1.1226766-1.3924051-1.6840939-3.1542999-1.5739535-4.9395349-.027662-1.2176165.2303997-2.4247722.7534884-3.5246511.4739859-.9799176 1.2326338-1.7940051 2.1767441-2.335814 1.0226387-.5702098 2.178175-.8590939 3.3488372-.8372093 1.2383414-.0285013 2.4668206.226358 3.591628.7451163l-.6446512 1.2976744c-.9238484-.4379507-1.9329561-.6666436-2.9553488-.6697674zm9.979535 11.8465116h-1.523721v-11.6706977h-4.135814v-1.3479069h9.795349v1.3479069h-4.135814zm16.074418-6.5218605c.101536 1.7792349-.465844 3.5321412-1.590697 4.9144186-1.12991 1.219385-2.743733 1.8728915-4.403721 1.7832559-1.671654.1018202-3.302563-.5419594-4.453954-1.7581396-1.134787-1.3879227-1.710959-3.1492782-1.615814-4.9395349-.111645-1.7802967.45018-3.5374919 1.573954-4.9227907 1.165109-1.2336794 2.819195-1.884266 4.512558-1.7748837 1.657516-.0894657 3.268711.5642192 4.395349 1.7832558 1.122578 1.383096 1.687025 3.1361685 1.582325 4.9144186zm-10.389767 0c-.101033 1.4275014.298635 2.8455813 1.130233 4.0102326.868901.8732283 2.049984 1.3641682 3.28186 1.3641682s2.412959-.4909399 3.28186-1.3641682c.809872-1.1733396 1.19393-2.5884467 1.088373-4.0102326.098944-1.415739-.291175-2.8225304-1.105117-3.9851162-.814938-.9398325-2.024132-1.442113-3.265116-1.3562791-1.254538-.0839867-2.476761.4203736-3.306977 1.3646512-.819661 1.156713-1.210455 2.5629784-1.105116 3.9767441zm13.546047 1.1051163v5.4083721h-1.523721v-13.0102325h3.583255c1.252674-.0955227 2.501524.2284713 3.549768.9209302.795256.6895083 1.220071 1.7127852 1.146977 2.7627907.06345 1.640179-1.034985 3.0989292-2.628838 3.4911628l3.549768 5.8604651h-1.8l-3.164651-5.4083721h-2.729303zm0-1.2976744h2.084651c.835243.0647255 1.666982-.1631887 2.352558-.6446512.529023-.4881428.806452-1.1909627.753488-1.9088372.065618-.7068975-.218961-1.4011442-.76186-1.8586046-.739861-.4370452-1.596298-.6358088-2.453024-.5693023h-1.975813zm9.895813 6.7144186v-13.0186046h3.533024v10.1804651h5.023256v2.8381395zm21.482791-6.5218605c.137385 1.8211001-.442475 3.6237719-1.615814 5.0232559-2.736754 2.2840407-6.715339 2.2840407-9.452093 0-1.196805-1.3891854-1.798351-3.1938245-1.674418-5.0232559-.131756-1.8289759.467416-3.6355245 1.666046-5.0232558 2.746978-2.2732081 6.721859-2.2732081 9.468837 0 1.071628 1.1497675 1.607442 2.8241861 1.607442 5.0232558zm-8.991628 0c0 2.5172093.87907 3.775814 2.63721 3.775814.778367.0561318 1.530954-.2917026 1.992558-.9209302.493495-.8665442.717906-1.8603637.644651-2.8548838.075802-1.0037451-.151706-2.0071132-.653023-2.88-.450066-.6256876-1.189778-.9765767-1.95907-.9293023-1.774884-.0055814-2.662326 1.2641861-2.662326 3.8093023zm15.68093-1.0967441h5.642791v7.0158139c-1.619994.5357619-3.317029.8016307-5.023256.7869768-1.733784.1088786-3.432149-.5242034-4.671628-1.7413954-1.185055-1.3760293-1.785873-3.1604582-1.674418-4.9730232-.10355-1.822547.56148-3.60507 1.833488-4.9144187 1.372596-1.2346948 3.179665-1.8731925 5.023256-1.7748837.781854-.0029952 1.561889.0755694 2.327442.2344186.654467.1302678 1.294023.3266228 1.908837.5860465l-1.113488 2.7627907c-.973913-.4661612-2.043253-.6983772-3.122791-.6781395-.910393-.0524622-1.794021.3182911-2.394419 1.0046512-.610204.824729-.90698 1.8397036-.837209 2.8632558-.067646.9860045.200919 1.9658241.761861 2.7795349.539988.650757 1.357769 1.0052323 2.20186.9544186.486913.0042039.972754-.0463462 1.448372-.1506977v-2.0427907h-2.335814v-2.7125581zm19.548838 1.0967441c.137384 1.8211001-.442475 3.6237719-1.615814 5.0232559-2.736755 2.2840407-6.715339 2.2840407-9.452093 0-1.196805-1.3891854-1.798352-3.1938245-1.674419-5.0232559-.131756-1.8289759.467416-3.6355245 1.666047-5.0232558 2.746977-2.2732081 6.721859-2.2732081 9.468837 0 1.071628 1.1497675 1.607442 2.8241861 1.607442 5.0232558zm-8.991628 0c0 2.5172093.87907 3.775814 2.637209 3.775814.778367.0561318 1.530954-.2917026 1.992558-.9209302.493495-.8665442.717906-1.8603637.644651-2.8548838.075802-1.0037451-.151706-2.0071132-.653023-2.88-.450066-.6256876-1.189778-.9765767-1.95907-.9293023-1.774883-.0055814-2.662325 1.2641861-2.662325 3.8093023z" fill="url(#a)" fill-rule="evenodd"/></svg>