<svg height="90" viewBox="0 0 180 90" width="180" xmlns="http://www.w3.org/2000/svg" xmlns:xlink="http://www.w3.org/1999/xlink"><linearGradient id="a"><stop offset="0" stop-color="#34c2eb"/><stop offset="1" stop-color="#1a7fc3"/></linearGradient><linearGradient id="b" x1="99.998799%" x2="-.003293%" xlink:href="#a" y1="49.997753%" y2="49.997753%"/><linearGradient id="c" x1="100.003864%" x2=".005089%" xlink:href="#a" y1="50.00954%" y2="50.00954%"/><g fill="none" transform="translate(0 35)"><g fill="#313130"><path d="m129.673055 3.09267193v-1.19729425c-.000009-1.04362638.843644-1.89090819 1.887261-1.89537768h1.765501v1.19729425c0 1.04678819-.848589 1.89537768-1.895377 1.89537768z"/><path d="m66.0277339 16.7276212v-6.83472379c0-.82390079-.1758737-1.44487035-.5276212-1.86290868-.3801949-.43130188-.937909-.66337084-1.5118376-.62908681-.5832459-.03008139-1.149736.20038045-1.546336.62908681-.3747463.41803833-.5621195 1.03900789-.5621195 1.86290868v6.83472379h-3.4843292v-6.83472379c0-.82390079-.1758737-1.44487035-.5276212-1.86290868-.3800124-.43155668-.9378568-.66367986-1.5118376-.62908681-.5832459-.03008139-1.149736.20038045-1.546336.62908681-.3747463.41803833-.5621195 1.03900789-.5621195 1.86290868v6.83472379h-3.4822999v-12.28342729h3.4843292v1.75535513c.2009112-.26386466.4192092-.514026.6534386-.74881623.2395912-.24025024.5050148-.45326967.7914318-.63517475.303003-.19018059.6307788-.33767968.9740699-.43833145 1.1043511-.30139641 2.2815339-.17832072 3.2996617.34498309.5883555.338683 1.0629595.84436225 1.3636979 1.45298759.4853891-.60581563 1.0914545-1.10407463 1.7797069-1.46313416.6985428-.33996852 1.4676758-.50965066 2.2444194-.49515219 1.297407 0 2.3120631.38151071 3.0439684 1.14453213s1.1019166 1.88455468 1.1100338 3.36459977v8.00157836z"/><path d="m79.7316798 16.7276212v-1.3271702c-.4316439.4763983-.9538704.8620319-1.5361894 1.1343855-.6847971.3006914-1.4278244.445554-2.1754228.4241263-.5550048.0034755-1.1072761-.0779623-1.637655-.2414882-.490958-.1486376-.9470905-.3943005-1.3413754-.7224351-.3847473-.3229509-.6943268-.7260277-.9071026-1.1810598-.2316712-.5092167-.345433-1.0641523-.3328072-1.6234498v-.0466742c-.0150003-.6010837.1107845-1.1973452.3673055-1.74115.2357697-.4813018.5837603-.8988906 1.0146562-1.2175873.4692172-.33707702.9980452-.58221082 1.5585118-.7224352.6550336-.16702933 1.329-.24820545 2.0049605-.24148816.5490376-.00636033 1.0974234.03984814 1.6376551.13799324.4641154.09570696.9211096.22317714 1.3677564.38151071v-.20293123c0-.73325818-.2218714-1.29064262-.6656144-1.67215333-.4437429-.38151071-1.1012401-.57429538-1.9724915-.578354-.5964047-.0074908-1.1918364.05035113-1.7756483.17249154-.5520799.1259662-1.0945784.29075011-1.6234498.49312289l-.8624577-2.6583991c.6823388-.29368469 1.3874951-.53122533 2.1084554-.7102593.8717671-.19882659 1.7643805-.29149485 2.6583991-.27598647 1.9102593 0 3.3003382.46606539 4.1702368 1.39819617.8698985.93213077 1.3055242 2.23089064 1.3068771 3.89627959v7.12491545zm.0689966-4.9576099c-.3261484-.1448212-.6660931-.256323-1.0146561-.3328072-.3952762-.0860886-.7988473-.1282832-1.2033822-.1258174-.7481398 0-1.3359639.145434-1.7634724.4363021-.4232615.2757944-.6682025.7556316-.643292 1.260203v.0466742c-.0201636.4320048.1780664.8452381.5276212 1.0998872.4035067.2755769.8857416.4123407 1.3738444.389628.8252537 0 1.4861331-.1988726 1.9826382-.5966178.4835055-.3702649.7604061-.949719.7447576-1.5585119z"/><path d="m93.8698985 16.7276212v-6.83472379c0-.82390079-.1833145-1.44487035-.5499436-1.86290868-.3990401-.43256855-.9710014-.66343834-1.5585118-.62908681-.5969242-.03013019-1.1777351.19923463-1.5930102.62908681-.3882751.41803833-.583089 1.03900789-.5844419 1.86290868v6.83472379h-3.4822999v-12.28342729h3.4843292v1.75535513c.2009112-.26386466.4192091-.514026.6534386-.74881623.2395912-.24025024.5050148-.45326967.7914317-.63517475.2994688-.18868706.6230159-.33612625.9618941-.43833145.3869114-.11226343.7883815-.16629433 1.1912063-.16031567 1.329876 0 2.3573844.40586245 3.0825253 1.21758737.725141.81172491 1.0877114 1.92717024 1.0877114 3.34633596v7.94678693z"/><path d="m107.35062 17.0259301c-.194495.5524791-.439736 1.0857595-.732582 1.5930101-.231676.3980313-.52403.7574829-.866516 1.065389-.308433.272695-.671718.4761343-1.065389.5966178-.446241.1294178-.909268.1916563-1.373844.1846674-.573838.0096792-1.14583-.0676356-1.696505-.2293123-.487562-.1494753-.956619-.353709-1.398197-.6087936l1.168884-2.5204059c.235154.1413861.484845.2570468.744758.3449831.238995.0865656.490613.133187.744757.1379932.252427.0135839.503375-.0463335.722436-.1724915.216215-.1641581.386128-.3816183.493123-.6311161l-4.8135292-12.34227739h3.6892902l2.796392 8.36482529 2.680721-8.36482529h3.620294z"/><path d="m126.56009 13.3244645c-.282612.7373122-.702682 1.4142437-1.23788 1.994814-.497954.5282267-1.10347.9434378-1.775649 1.2175873-.669445.2721001-1.385835.4100001-2.108455.4058625-.803199.0317662-1.599761-.1570226-2.303269-.545885-.573684-.3394445-1.088396-.7698563-1.524014-1.2744081v5.2559188h-3.484329v-15.93416009h3.484329v1.74926719c.419578-.56829124.944562-1.05056062 1.546336-1.4205186.69311-.39376676 1.48234-.58633067 2.278918-.55603156.714579-.00252845 1.422692.13537096 2.084103.40586245.675323.27489818 1.284669.68988986 1.787825 1.21758738.54195.57692851.966518 1.25375611 1.250056 1.99278466.331487.87179939.493352 1.79890577.476888 2.73145437v.0466742c.015182.9263251-.145968 1.8470846-.474859 2.7131905zm-3.013529-2.7598647c.005192-.4762112-.076647-.94936543-.241488-1.39616688-.146821-.39953131-.368608-.7673399-.653438-1.08365276-.265877-.29323246-.589122-.52875955-.949718-.69199549-.737975-.32322544-1.577471-.32322544-2.315446 0-.358837.1612245-.679155.3971389-.939571.69199549-.278424.31881873-.495799.6861539-.641263 1.08365276-.164841.44680145-.24668.91995568-.241488 1.39616688v.0466742c-.005375.4762258.07647.9494129.241488 1.3961668.145464.3974989.362839.764834.641263 1.0836528.529843.5999188 1.293883.9404792 2.09425.9334836.399096.0035476.794283-.078812 1.158737-.2414881.360802-.1628837.684114-.3984599.949718-.6919955.283125-.3129869.504798-.6764756.653439-1.0714769.166806-.4504985.248685-.928008.241488-1.4083427z"/><path d="m129.754228 16.7276212v-12.28342729h3.484329v12.28342729z"/><path d="m144.081172 16.7276212-2.47779-3.8252537-2.475761 3.8252537h-3.652762l4.30823-6.2340474-4.139797-6.04937989h3.735964l2.291093 3.57564825 2.313417-3.57564825h3.652762l-4.164149 5.98241259 4.330552 6.3010147z"/><path d="m161.344532 11.3641488c0 .1237881-.020293.2678692-.034498.4363022h-8.547464c.116948.7058504.487923 1.3445913 1.043067 1.7959413.566035.4182939 1.256905.6328498 1.960316.6087937.534491.0088141 1.065054-.0927389 1.558511-.2983089.522348-.2418093 1.002069-.566649 1.420519-.961894l1.992785 1.7634724c-.570235.7098333-1.290198 1.2849722-2.108456 1.6843292-.911057.4238634-1.907504.6321798-2.912063.6087937-.872797.0079572-1.739367-.1475985-2.554904-.4586246-.759105-.2905054-1.449989-.7347435-2.029312-1.3048478-.577323-.5713828-1.033536-1.2532858-1.341376-2.0049606-.329641-.8186801-.49313-1.6947571-.480947-2.5772266v-.0466742c-.004374-.84499828.146968-1.6835717.446449-2.47373163.283566-.74991373.707866-1.43871125 1.250056-2.02931229 1.124191-1.22214357 2.716889-1.90588882 4.377227-1.87914318.916547-.02259983 1.826047.16554849 2.658399.54994363.723902.34834514 1.361535.85290681 1.866967 1.47733934.502644.63136824.87635 1.35533742 1.099888 2.13077791.238544.81461277.358156 1.65941422.355129 2.50823002v.0466741c-.008117.1582864-.012176.3043969-.020293.4241263zm-4.204735-3.63246898c-.454403-.48637148-1.09844-.7502119-1.763472-.72243518-.666079-.02724702-1.312107.23116428-1.775649.71025931-.478249.53097319-.785812 1.19346987-.88275 1.90146561h5.247801c-.073196-.69944666-.361796-1.35890124-.82593-1.88726043z"/><path d="m164.106426 16.7276212v-16.7276212h3.484329v16.7276212z"/><path d="m179.517024 14.7693348c-.228479.4806578-.570438.8985308-.996393 1.2175874-.451208.3322242-.960507.5772381-1.501691.7224352-.600971.1643452-1.221621.2455965-1.844645.2414881-1.916557-.01344-3.773652-.6669946-5.276212-1.8568207l1.489516-2.2910936c.614397.4573398 1.289113.8274779 2.00496 1.0998873.595844.2313985 1.227873.3557435 1.866967.3673055.50327 0 .874634-.0832018 1.112064-.2516347.225046-.1459623.359202-.3974091.355129-.6656144v-.0466742c.001379-.181402-.072022-.3553627-.202931-.480947-.162821-.1533863-.353674-.273961-.562119-.3551297-.265469-.1092875-.536405-.2047924-.811725-.286133-.30575-.0919955-.626381-.1914318-.961894-.2983089-.437833-.1234304-.868675-.2704317-1.290643-.4403608-.426354-.1701331-.825069-.4026598-1.183089-.6899662-.353905-.2858812-.64596-.6407649-.858399-1.04306649-.234662-.46852463-.349035-.98808367-.332807-1.51183765v-.04261556c-.029068-1.11228708.45696-2.17570709 1.317023-2.88162345.4188-.34375407.901622-.60102905 1.420519-.75693348.568137-.17367322 1.159243-.26056026 1.753326-.25772266.805385.00400132 1.60541.13129357 2.372266.37745208.780904.24328339 1.524035.59435828 2.207892 1.04306652l-1.3292 2.40676437c-.569456-.33213663-1.167846-.6119737-1.787824-.83607666-.490263-.18911759-1.008942-.2940883-1.53416-.31048478-.338146-.02376052-.675069.06082562-.961894.24148816-.202506.13628393-.323567.36470174-.322661.60879369v.04667418c.000529.17102346.074426.33359677.202931.4464487.164657.14829673.349887.27201133.549944.36730553.256935.12662396.521218.23775835.791432.33280721.298985.10687712.616234.21375423.951747.32063135.427509.13528748.863134.29966178 1.306877.49312288.425395.18058399.825758.41520886 1.191207.69808346.353253.2785538.648938.6231748.870575 1.0146561.240749.4419058.359802.9398286.344983 1.4428411v.0324689c.01745.6126729-.102508 1.2214783-.351071 1.7817362z"/></g><path d="m18.5195039.92739572 1.3961669 1.39616685c.0962879.09595415.15041.22629638.15041.36223224 0 .13593587-.0541221.2662781-.15041.36223225l-17.0746336 17.06651634c-.09595414.0962879-.22629638.15041-.36223224.15041s-.26627809-.0541221-.36223224-.15041l-1.38804961-1.3961668c-.97048307-.9714078-.97048307-2.5453905 0-3.5167982l14.27418259-14.27418268c.9714078-.97048308 2.5453905-.97048308 3.5167982 0z" fill="url(#b)"/><g fill="url(#c)"><path d="m30.1697858.89492672 1.3941375 1.39413754c.199193.19961998.199193.5228152 0 .72243518l-17.0462232 17.04622326c-.19962.1991929-.5228152.1991929-.7224352 0l-1.3961668-1.3880496c-.4658192-.4658178-.7275137-1.0976031-.7275137-1.7563698 0-.6587668.2616945-1.2905521.7275137-1.7563698l14.2579481-14.26200678c.4658178-.46581914 1.097603-.72751373 1.7563698-.72751373s1.2905521.26169459 1.7563698.72751373z"/><path d="m42.0189402.89492672 1.3941376 1.39413754c.1991929.19961998.1991929.5228152 0 .72243518l-17.0462232 17.04622326c-.19962.1991929-.5228152.1991929-.7224352 0l-1.3961669-1.3880496c-.4658191-.4658178-.7275137-1.0976031-.7275137-1.7563698 0-.6587668.2616946-1.2905521.7275137-1.7563698l14.2579482-14.26200678c.4658177-.46581914 1.097603-.72751373 1.7563698-.72751373.6587667 0 1.290552.26169459 1.7563697.72751373z"/></g></g></svg>