<svg height="90" viewBox="0 0 180 90" width="180" xmlns="http://www.w3.org/2000/svg"><g fill="none" fill-rule="evenodd"><g fill="#3685bd" transform="translate(0 23)"><path d="m.19741936 11.1193548c3.36193548-3.88451609 7.26387096-7.32193545 10.82903224-11.03806448 3.6348387 3.60580645 7.2116129 7.28129033 10.8929032 10.84064518l-.4180645.4587097-.116129.116129c-2.6012903 2.2587097-4.9122581 4.8135484-7.3916129 7.2-.9348387-.9348387-1.8696774-1.863871-2.8103226-2.7870968-.0116129 5.707742 0 11.4212903-.0058064 17.1290323-3.68709682 3.6638709-7.33935488 7.3567742-11.03225811 11.0090322.03483871-10.9741935-.08709677-21.9541935.05225807-32.9283871z"/><path d="m85.5348387 6.62516129c.2787097.01741936.8477419.05806452 1.1264516.08129032 0 .71419355 0 1.4283871.0058065 2.1483871.54-.00580645 1.6141935-.0116129 2.1541935-.0116129.0058065.24967742.0174194.76064516.0232258 1.01032258-.7606451.0232258-1.5154838.04645161-2.2703226.06967742.0812904.76064519.1625807 1.52709679.2496775 2.28774189 1.3993548-1.0974193 2.5548387-2.45612899 3.5535484-3.92516125.2380645.15096774.72.45290323.9580645.60387097-.8070968 1.03354839-1.6316129 2.05548388-2.4851613 3.04838708.8245161-.0174193 1.6490322-.0348387 2.4735484-.0464516l-.0290323 1.0103226c-1.1148387.0116129-2.223871.0348387-3.3329032.063871-.6270968.6387096-1.2658065 1.2541935-1.9103226 1.8754838 1.3645161-.0348387 2.7290323-.0406451 4.0935484-.0464516-.0058065 2.5548387.0406452 5.1096774-.0464516 7.6645161-.5516129-.3948387-1.1148387-.7606451-1.7012903-1.0974193-1.0567742-.0058065-2.1135484-.0174194-3.1703226 0-.2961291.603871-.7722581 1.0393548-1.3993549 1.2716129-.1045161-1.916129-.0870967-3.8322581-.052258-5.7483871-.7606452.3251613-1.44.1451613-1.9916129-.4470968 1.6374193-1.0858064 3.2109677-2.2529032 4.7032258-3.5245161-1.4922581.0058064-2.9845162.0058064-4.4767742.0116129v-1.0219355c1.1670968-.0058064 2.3283871-.0058064 3.4954839-.0058064-.0058065-.6619355-.011613-1.323871-.0232259-1.9858065-1.0509677-.24967742-2.9380645.5632258-3.112258-1.00451613 1.0335484-.03483871 2.0670968-.05806451 3.1064516-.07548387.0174193-.7316129.0348387-1.46903225.0580645-2.20645161zm-.6212903 9.19161291c.0058064.5806452.0116129 1.1670968.0174193 1.7477419 1.3412904-.0058064 2.6825807-.0058064 4.0180646-.0058064.0290322-.5690323.052258-1.1380645.0812903-1.7012903-1.3761291-.0116129-2.7464516-.0406452-4.1167742-.0406452zm.0058064 2.7696774c-.0058064.4296774-.0058064 1.2948387-.0058064 1.7245161 1.3470968.0058065 2.7.0116129 4.0529032.0116129 0-.5806451.0116129-1.1612903.0174194-1.7419354-1.3529033 0-2.7116129 0-4.0645162.0058064z" fill-rule="nonzero"/><path d="m150.648387 6.42774194c.307742.10451612.911613.30774193 1.213548.41225806-.952258 1.79419355-1.991612 3.5303226-3.094838 5.2316129.644516-.0116129 1.289032-.0290323 1.939355-.0406452.656129-.9058064 1.050967-2.74064512 2.514193-1.7012903-1.230968 1.9683871-2.578064 3.8554839-4.000645 5.6903226 1.219355-.1916129 2.450323-.3716129 3.687097-.5225806-.127742.2729032-.389032.8303225-.516774 1.1032258-1.602581.4296774-3.263226.5980645-4.912258.772258.08129-1.7651613 1.625806-2.8741935 2.479354-4.2851613-.80129-.2903225-3.065806.8535484-2.525806-.8245161 1.010322-1.9741935 2.34-3.78580645 3.216774-5.83548386z"/><path d="m56.6709677 6.81677419c.3541936 0 1.0625807.00580646 1.4167742.00580646-1.1148387 5.44645165 2.1890323 11.16580645 6.9154839 13.81354835-.2903226.4819355-.5748387.9696775-.8651613 1.4574194-3.6580645-1.8406452-5.7193548-5.6670968-6.9154839-9.423871-1.1554838 3.8670968-3.4374193 7.5135484-7.0083871 9.5632258-.2380645-.2845161-.708387-.8535484-.9464516-1.1438709 5.0225807-2.8858065 7.2058065-8.7329033 7.4032258-14.27225811z"/><path d="m71.2335484 14.9051613c1.2716129-2.4619355 1.44-5.26064517 1.8987097-7.94322582.3367742-.06967742 1.016129-.20903225 1.3529032-.27870967-1.1322581 5.51032259 2.1483871 11.29935479 6.9445161 13.97612899-.3193548.487742-.6445161.9754839-.9638709 1.4632258-3.5767742-1.9451612-5.58-5.6903225-6.8980646-9.3890322-1.0567742 3.8496774-3.4025806 7.3451613-6.8167742 9.4703226-.3832258-.3483871-.772258-.6967742-1.1496774-1.0451613 2.3574194-1.567742 4.5-3.6 5.6322581-6.2535484z"/><g fill-rule="nonzero"><path d="m100.736129 7.11290323c3.629032-.01161291 7.258065 0 10.887097-.00580646.005806 2.25290323.011613 4.50580643.005806 6.76451613-2.868387-1.0974194-5.986451-.5341935-8.976774-.6503226-.632903.2322581-1.26.4819355-1.875484.7548387-.058064-2.2877419-.034839-4.57548384-.040645-6.86322577zm1.335484 1.20193548c-.08129.30774194-.243871.92322581-.325161 1.23677419 2.909032.05225807 5.812258.01741936 8.72129.01741936 0-.32516129-.011613-.97548387-.017419-1.30064516-2.792904.05225806-5.585807-.07548387-8.37871.04645161zm-.150968 2.43290319c-.011613.3193549-.023226.963871-.034839 1.2890323 2.845162.0174193 5.696129.0058064 8.541291.0174193.017419-.4354838.040645-.8709677.063871-1.3064516-2.862581-.0058064-5.719355 0-8.570323 0z"/><path d="m121.436129 6.91548387c1.318065-.72580645 1.8.63290323 2.42129 1.52129032 2.154194-.02903225 4.308387-.0232258 6.468387-.0232258l.075484 1.12645161c-1.492258.05806452-3.129677-.21483871-4.331613.8825806l1.050968.1451613c-.615484.8245162-1.225161 1.6548387-1.829032 2.4851613 1.544516.0116129 3.089032.0058065 4.639355.0116129l-.01742 1.1670968c-4.099354 0-8.204516 0-12.303871 0 .01742 2.7116129.029033 5.7658065-1.968387 7.8677419-.284516-.1103225-.847742-.3425806-1.126451-.4529032 1.950967-2.4387097 1.805806-5.6380645 1.770967-8.576129 1.033549-.1741936 2.612904.3716129 3.327097-.36-.319355-1.08-1.230968-1.9916129-.853548-3.19935486-1.265807.05806452-2.525807.08129032-3.785807.09870968.005807-.30193548.029033-.9116129.034839-1.21354839 2.403871.02903226 4.807742.02322581 7.211613.01741936-.197419-.37741936-.592258-1.12064516-.783871-1.49806452zm-2.351613 2.61870968c.545807.73741935 1.17871 1.41096775 1.712903 2.15999995.029033.2496775.092904.7490323.121936.9987097.870968.4993549 1.910322.3367742 2.874193.4354839.743226-1.1612903 1.428387-2.3516129 2.003226-3.60580645-2.235484.08709677-4.476774.09290322-6.712258.0116129z"/><path d="m133.589032 7.22903226c3.658065.05225806 7.327742.00580645 10.991613.02903226-.034839 2.21806451.168387 4.45935488-.232258 6.65419358-1.608387-1.2483871-3.692903-.7548387-5.568387-.8593549-1.689677.0580645-3.553548-.296129-4.981935.8593549-.447097-2.2006452-.220646-4.45935487-.209033-6.68322584zm1.271613 1.19032258c-.005806 1.16129032-.005806 2.32258066 0 3.48387096 2.79871-.0058064 5.603226-.0058064 8.413549 0-.005807-1.1612903-.005807-2.32258064-.005807-3.48387096-2.804516.00580645-5.609032.00580645-8.407742 0z"/></g><path d="m153.580645 7.25806452c2.560645-.00580646 5.12129 0 7.681936-.01161291.005806.31935484.017419.95225807.023225 1.27161291-.772258.89419354-1.550322 1.78838708-2.345806 2.65935488 1.393548.8419354 2.804516 1.6490322 4.215484 2.456129-.197419.2554839-.586452.7606451-.783871 1.016129-1.44-.9174193-2.891613-1.8058064-4.372258-2.6477419-1.527097.952258-3.025161 2.0090322-4.755484 2.5490322-.284516-.1916129-.853548-.5748387-1.138065-.7606451 2.914839-1.2367742 5.719355-2.8335484 7.722581-5.34774195-2.090322-.02903226-4.174839-.01741936-6.259355-.02322581.005807-.29032258.011613-.87096774.011613-1.16129032z"/><path d="m91.8812903 7.5483871c1.9335484 0 3.8729032-.00580645 5.8122581.00580645-.2380645 1.91032258-1.1496774 3.62322585-1.9974194 5.31870965 1.6548387 1.6316129 3.0716129 4.4070968 1.4980645 6.543871-1.068387.8767742-3.9019354 1.4109677-4.0354838-.6212903 1.0858064-.1219355 2.8335484.5632258 3.3387097-.8535484.4993548-1.9741936-1.0393549-3.4896774-2.2819355-4.7670968.6851613-1.4864516 1.3703226-2.9729032 2.0496774-4.45935483-1.0741936-.00580645-2.1483871-.00580645-3.2167742-.00580645.0058064 4.61032258 0 9.21483868-.0174194 13.81935488-.2787096-.0929033-.8245161-.2787097-1.1032258-.3716129-.1219354-4.8658065 0-9.7374194-.0464516-14.6090323z"/><path d="m169.83871 7.40322581h8.709677c.005807 2.78129029 0 5.56258069 0 8.34387099-1.213548-.4412903-2.479355-.6967742-3.768387-.7316129 0 .5283871-.005806 1.5851613-.005806 2.1135484 1.352903-.0058065 2.711612-.0058065 4.064516-.0058065-.005807.296129-.029033.8883871-.034839 1.1845161-1.34129-.0116129-2.682581-.0174193-4.018065-.0174193-.005806.5748387-.011612 1.7303226-.017419 2.3051613 1.596774.0058064 3.193548.0232258 4.796129.0174193l.005807 1.1612903c-3.646452-.052258-7.29871.1161291-10.939355-.0696774-.052258-.2729032-.150968-.8187096-.203226-1.0916129 1.736129-.0116129 3.472258-.0058064 5.214193-.0058064-.040645-.7780645-.069677-1.5619355-.08129-2.34-1.347097.0174193-2.694193.0290322-4.04129.0290322.017419-.296129.063871-.8941935.087097-1.1903225 1.329677.0174193 2.665161.0174193 4.006451.0232258 0-.5283871 0-1.5851613-.005806-2.1135484-1.289032.0348387-2.560645.2845161-3.768387.7316129-.005807-2.7812903-.005807-5.5625807 0-8.34387099zm1.167096 1.14967742c0 .72-.005806 1.44580645-.005806 2.16580647.847742.0232258 1.695484.0406451 2.549032.052258.034839-.7258064.063871-1.45161286.09871-2.18322576-.882581 0-1.759355-.02322581-2.641936-.03483871zm3.721936.04064516c.034839.72580645.08129 1.45741931.127742 2.18903221.841935-.0232258 1.683871-.0406451 2.531613-.0638709-.005807-.72000002-.005807-1.44580647-.005807-2.16580647-.888387 0-1.770967.05225806-2.653548.04064516zm-3.710323 3.32129031c-.017419.6677419-.029032 1.3296774-.034838 1.9916129.876774.0174194 1.759354.0232258 2.641935.0348387-.017419-.6851613-.034839-1.3703226-.052258-2.0612903-.853548.0116129-1.707097.0232258-2.554839.0348387zm3.832258-.0522581c-.040645.6967742-.075483 1.387742-.104516 2.0845162.882581-.0174194 1.770968-.0232258 2.665162-.0406452-.01742-.6619355-.029033-1.323871-.040646-1.98-.841935-.0232258-1.683871-.0406451-2.52-.063871z" fill-rule="nonzero"/><path d="m163.887097 7.98387097h5.353548l.046452 1.14387097c-.73742.0116129-1.469032.0232258-2.200645.03483871 0 1.29483875-.005807 2.59548385-.005807 3.89032255.679355.0058065 1.364516.0116129 2.043871.0174194l-.017419 1.1438709c-.679355.011613-1.352903.0232259-2.026452.0348388.005807 1.5038709 0 3.0019354-.011613 4.5.586452-.127742 1.759355-.3890323 2.345807-.5167742-.725807 2.0787096-3.541936 2.032258-5.365162 2.636129-.139354-.2264516-.418064-.6735484-.557419-.9.80129-.2787097 1.62-.54 2.432903-.8012903-.011613-1.6490323-.011613-3.2922581-.011613-4.9412903-.464516.0058064-1.399354.0058064-1.863871.0058064l-.040645-1.1554839c.476129-.0058064 1.434194-.0174193 1.910323-.0232258-.005807-1.3006451-.005807-2.6012903-.005807-3.90193546-.505161-.00580645-1.52129-.00580645-2.032258-.00580645z"/><path d="m98.5645161 14.516129h15.3870969v1.1612904c-2.287742 0-4.569678-.0116129-6.857419.0290322.011612.3948387.040645 1.1787097.052258 1.5677419 1.933548.3251613 4.494193-.8187096 5.969032.7664517-1.846452.836129-3.994839.232258-5.957419.3890322-.011613.7258065-.029033 1.4516129-.040646 2.1774194 2.444516.0116129 4.883226-.0580645 7.321936.0929032-.243871.2612903-.731613.7896774-.975484 1.0567742-3.930968-.2612903-9.023226 1.2367742-11.810323-2.4212903-.760645 1.0335484-1.527096 2.0729032-2.4851609 2.932258-.2670968-.1858064-.8070968-.5516129-1.0741936-.7374193 1.8580646-1.4167742 2.9612905-3.4780645 3.7509675-5.6264516 1.114839.4412903.435484 1.6316129.569033 2.4793548.696774 1.2541936 2.125161 1.7477419 3.373548 2.2645161.034839-1.6548387.034839-3.3096774.034839-4.9703225-2.421291 0-4.842581 0-7.2580649 0 0-.2903226 0-.8709678 0-1.1612904z"/><path d="m131.945806 14.9516129h5.963226c0 2.4909677-.011613 4.9819355.01742 7.4729032-.284517.0348387-.859355.1045162-1.143871.1393549-.01742-.307742-.058065-.9174194-.075484-1.2193549-1.190323 0-2.380645 0-3.570968 0-.011613.2845162-.029032.8593549-.034839 1.143871-.284516.0116129-.853548.0290323-1.138064.0406452-.023226-2.5258065-.01742-5.0516129-.01742-7.5774194zm1.172904 1.1612903c-.005807 1.3529033-.005807 2.7058065-.005807 4.0645162 1.207742 0 2.415484-.0058065 3.629032-.0058065-.005806-1.3529032-.005806-2.7058064-.005806-4.0529032-1.207742 0-2.415484 0-3.617419-.0058065z" fill-rule="nonzero"/><path d="m139.935484 14.9516129h6.096774c-.040645 2.4677419.127742 4.9470968-.092903 7.4148387-.255484.0754839-.772258.2206452-1.027742.296129-.017419-.3309677-.046452-.9987096-.063871-1.3296774-1.509677.2206452-3.989032-.8129032-4.145807 1.4980645-.174193-.1916129-.52258-.5632258-.690967-.7490322-.191613-2.3748387-.029033-4.7554839-.075484-7.1303226zm1.16129 1.1670968v4.0587097c1.254194 0 2.514194 0 3.774194-.0058065-.005807-1.3470968-.005807-2.7-.005807-4.0529032-1.26 0-2.514193 0-3.768387 0z" fill-rule="nonzero"/><path d="m153.522581 15.2651613c2.746451-.0406452 5.498709-.0406452 8.245161 0-.023226.2845161-.069677.8593548-.092903 1.143871-1.09742-.0058065-2.200645-.0058065-3.298065-.0058065-.005806 1.3064516 0 2.6129032 0 3.9193548 1.469032-.0058064 2.943871-.052258 4.41871.0464517-.005807.2670967-.017419.8012903-.023226 1.0683871-3.396774.1277419-6.805161.0058064-10.207742.0464516 0-.2903226 0-.8709678 0-1.1612904h4.494194c0-1.3064516 0-2.6129032 0-3.9193548-1.149678 0-2.299355 0-3.443226.0058065-.023226-.2845162-.069678-.8593549-.092903-1.143871z"/><path d="m147.547742 19.7651613c1.759355-.5806452 3.605806-.8709678 5.405806-1.3296774-.011613.5225806-.046451 1.2483871-.766451 1.2658064-1.573549.4993549-3.193549.8361291-4.807742 1.1729032.040645-.2729032.121935-.8303225.168387-1.1090322z"/><path d="m13.8425806 19.3470968c1.2774194.5225806 2.2006452 1.5677419 3.2225807 2.4619355 1.4225806 1.8987096 3.2109677 3.4664516 4.8541935 5.1619354-2.6535483.0348388-5.3129032.0116129-7.972258.0232258.0116129-2.5490322.0638709-5.1038709-.1045162-7.6470967z"/><path d="m121.749677 26.82c.18-.3367742.545807-1.0103226.725807-1.3470968.400645.4006452.795484.8187097 1.184516 1.2425807-.232258.9696774-1.724516 1.2890322-1.910323.1045161z"/><path d="m113.249032 25.8270968c.319355-.063871.958065-.1858065 1.27742-.2496774.017419 1.6838709.017419 3.3677419-.029033 5.0574193 1.143871-1.2541935 3.303871-1.98 4.604516-.5516129 1.213549 2.1309677.464517 4.7380645.650323 7.0780645-.325161 0-.98129 0-1.306452 0-.063871-1.8290322.191613-3.6987097-.16258-5.5045161-.383226-1.8754839-3.292258-1.3645161-3.6.3135484-.296129 1.7129032-.121936 3.4606451-.145161 5.1909677-.330968 0-.987097 0-1.312259 0 .029033-3.78-.052258-7.5541935.023226-11.3341935z"/><path d="m135.023226 29.2529032c.574839.2148387 1.126451.4993549 1.614193.8825807 1.393549-1.1903226 3.263226-.9870968 4.412904.4296774 1.167096-1.4632258 3.954193-1.8870968 4.819354.0754839.615484 2.1541935.214839 4.4477419.296129 6.6541935-.301935-.0580645-.917419-.1858064-1.225161-.2496774-.307742-2.0496774.348387-4.2445161-.528387-6.1896774-1.074193-.8419355-2.775484-.2032258-3.019355 1.1264516-.296129 1.7070968-.121935 3.4548387-.145161 5.1793548-.330968 0-.987097 0-1.318065 0-.052258-1.8929032.174194-3.8206451-.156774-5.696129-.615484-1.6258065-3.106451-1.1032258-3.361935.5109677-.214839 1.7245162-.081291 3.4722581-.092903 5.2083871-.336775-.0232258-1.010323-.0638709-1.347097-.0870967.046451-2.6129033 0-5.2316129.052258-7.8445162z"/><path d="m168.096774 29.4851613c.249678-.0174194.749032-.0464516.99871-.0580645.139355.18.418064.54.557419.72 1.422581-1.1729033 3.327097-1.027742 4.494194.4180645 1.167097-1.4690323 3.96-1.8870968 4.825161.0870968.603871 2.1135484.209032 4.3664516.301936 6.5380645-.336775-.0232258-1.004517-.0696774-1.335484-.0870968-.092904-2.0554839.406451-4.2503226-.406452-6.2012903-1.050968-.9348387-2.816129-.2496774-3.048387 1.0974193-.284516 1.7012904-.116129 3.4432258-.139355 5.1619355-.330968 0-.987097 0-1.318064 0-.052258-1.8929032.168387-3.8090322-.150968-5.6787097-.603871-1.6432258-3.094839-1.1264516-3.367742.487742-.214839 1.7245161-.08129 3.4664516-.09871 5.2025806-.330967-.0116129-.992903-.0290322-1.329677-.0406451.017419-2.5490323.011613-5.0980646.017419-7.6470968z"/><path d="m48.6174194 29.3283871c.3541935.0696774 1.0567741.2148387 1.4109677.2845161.7258064 1.9683871 1.0858064 4.0470968 1.7593548 6.0329033.6445162-2.0264517 1.0683871-4.1283871 1.8232258-6.12.2670968-.0290323.8070968-.0870968 1.0741936-.1161291.9290322 1.9509678 1.2367742 4.1283871 1.9916129 6.1490323.5922581-1.8987097.9290323-3.8787097 1.6432258-5.7425807.3251613-.1625806.9754839-.4819355 1.3064516-.6387096-.5806451 2.7058064-1.5154839 5.3187096-2.2819355 7.972258-.3716129 0-1.1032258 0-1.4690322 0-.5516129-1.9625806-1.1264516-3.9135484-1.6432258-5.876129-.6329033 2.0264516-1.2658065 4.0587097-1.9045162 6.0851613-.3483871-.1103226-1.0509677-.3251613-1.3993548-.4354839-.8825806-2.4967742-1.5735484-5.0574193-2.3109677-7.5948387z"/><path d="m59.9458065 29.2993548c.3541935.0812904 1.0625806.243871 1.4109677.3309678.7374193 2.0032258 1.1206452 4.1167742 1.7187097 6.1664516.7141935-2.0496774.9638709-4.3025807 1.9625806-6.2245161.2729032-.0058065.8245161-.0232258 1.0974194-.0290323.7664516 1.9567742 1.1729032 4.0296774 1.8232258 6.0270968.6503226-1.9625807 1.0045161-4.023871 1.7651613-5.9458065.3135484-.0754838.9464516-.2264516 1.26-.3077419-.7954839 2.6245161-1.3703226 5.3419355-2.4735484 7.856129-.2961291 0-.8941936.0058065-1.1903226.0116129-.7780645-1.8870967-1.1787097-3.9019355-1.8058065-5.8354838-.5980645 1.9335483-1.1845161 3.8670967-1.7825806 5.8006451-.3658064 0-1.0916129.0058065-1.4574194.0058065-.7780645-2.6187097-1.6258064-5.22-2.328387-7.8561291z"/><path d="m71.2451613 29.3167742c.36.0754839 1.0683871.2206452 1.4283871.296129.7316129 1.9741936 1.0916129 4.0645162 1.7535484 6.0619355.6445161-2.0380645 1.0741935-4.1516129 1.8348387-6.1548387.2787097-.0290323.8303226-.0870968 1.1090322-.116129.847742 1.9858064 1.2425807 4.1225806 1.8987097 6.1664516.6329032-1.8929032 1.0045161-3.8729032 1.6780645-5.7541936.3425807-.1393548 1.0219355-.4180645 1.3645162-.5574193-.6851613 2.6593548-1.5503226 5.272258-2.3341936 7.9025806-.3658064-.0058064-1.0916129-.0116129-1.4574193-.0174193-.5516129-1.9567742-1.1264517-3.907742-1.6432258-5.8761291-.6329033 2.0264516-1.26 4.0529033-1.9045162 6.0735484-.8303226-.0987097-1.672258-.3367742-1.7245161-1.3238709-.7025806-2.223871-1.3529032-4.4651613-2.0032258-6.7006452z"/><path d="m85.1980645 29.3283871c.3541936.0696774 1.0567742.2090323 1.4109678.2787097.7141935 1.9625806 1.0741935 4.0296774 1.7593548 5.9980645.656129-2.0148387 1.0741935-4.1051613 1.8290323-6.0851613.2729032-.0290323.8129032-.0870968 1.08-.1219355.9174193 2.0148387 1.2948387 4.2154839 1.9393548 6.3232258.5922581-1.9741935.9754839-4.012258 1.6896774-5.9516129.3367742-.1277419 1.0045161-.3890322 1.3412903-.5167742-.6793548 2.6593549-1.556129 5.2606452-2.3225806 7.8909678-.3658065.0058064-1.0974194.0116129-1.4632258.0116129-.5574194-1.9625807-1.1264516-3.9193549-1.6722581-5.8819355-.6270968 1.9103226-1.0393548 3.9135484-1.8870968 5.7483871-.3251612.0754839-.9754838.232258-1.3006451.3077419-.8187097-2.6651613-1.6664516-5.3187097-2.403871-8.0012903z"/><path d="m98.9070968 29.7870968c2.1948382-1.3064516 5.5625802-.0116129 5.7193552 2.7058064.667742 2.7522581-1.927742 5.527742-4.7322585 4.7612903-3.4664516-.54-4.0006451-5.9864516-.9870967-7.4670967zm.5980645 1.0625806c-1.9858065 1.3993549-1.26 5.6380645 1.5503227 5.3012903 2.084516-.0987096 2.630322-2.752258 1.869677-4.3316129-.470322-1.3470967-2.316774-1.7419354-3.4199997-.9696774z" fill-rule="nonzero"/><path d="m106.258065 31.9296774c-.481936-2.7 4.441935-3.78 5.051612-1.0974193-1.149677-.063871-3.100645-.9987097-3.675483.5516129.603871 1.6141935 3.083225 1.3587096 3.797419 2.9496774.917419 3.1064516-4.894839 4.3374193-5.405807 1.2367742 1.294839.2787097 3.646452 1.3935484 4.081936-.5283871-.894194-1.4748387-3.396774-1.2716129-3.849677-3.1122581z"/><path d="m121.935484 29.4677419h1.306451v7.6935484c-.325161 0-.98129 0-1.306451 0 0-2.5664516 0-5.1329032 0-7.6935484z"/><path d="m125.872258 29.3051613c.865161.0290322 1.352903.4645161 1.463226 1.3122581 1.074193-1.4690323 3.280645-1.7709678 4.68-.5748388 1.892903 2.0264517 1.428387 6.1664517-1.376129 7.1303226-1.27742.5341936-2.485161-.2264516-3.50129-.9232258.023225 1.5154839.029032 3.0251613.029032 4.5406452-.330968 0-.987097 0-1.312258 0 .005806-3.8264516-.023226-7.6587097.017419-11.4851613zm3.286452 1.1787097c-2.171613.3077419-2.386452 2.9845161-1.730323 4.6335484.894194 1.6141935 3.617419 1.2541935 4.023871-.5632259.72-1.6838709-.069677-4.436129-2.293548-4.0703225z" fill-rule="nonzero"/><path d="m153.104516 36.8012903c-2.647742-1.6258064-2.148387-6.2825806.824516-7.2464516 1.300645-.4587097 3.483871-.4935484 3.646452 1.3180645-1.004516-.1103226-2.067097-.6329032-3.06-.2090322-2.218065.772258-2.287742 4.5870967-.017419 5.3535484 1.045161.3774193 2.078709-.2380646 3.089032-.4587097-.319355 2.1135484-3.013549 2.096129-4.482581 1.2425806z"/><path d="m160.438065 29.7929032c2.189032-1.312258 5.574193-.0290322 5.730967 2.6883871.685162 2.7754839-1.950967 5.5625807-4.767097 4.7670968-3.425806-.5806452-3.94258-5.9632258-.96387-7.4554839zm.592258 1.0741936c-1.945162 1.4051613-1.242581 5.5858064 1.538709 5.2838709 2.125162-.0696774 2.676774-2.7929032 1.887097-4.3838709-.505161-1.3180645-2.34-1.683871-3.425806-.9z" fill-rule="nonzero"/><path d="m82.7070968 35.6864516c1.0451613-.7490322 2.1948387 1.0509678.9987097 1.4980645-.911613.6212904-1.7129033-.8187096-.9987097-1.4980645z"/><path d="m148.32 35.6922581c1.010323-.8245162 2.229677 1.1148387.934839 1.5154838-.830323.5980646-1.649033-.8883871-.934839-1.5154838z"/></g><path d="m7.56580645 11.3806452c3.93096775-3.60580649 7.58322585-7.50193552 11.38064515-11.24129036 3.6522581 3.65806451 7.316129 7.31032258 10.9625807 10.96838706-.0116129 10.98.0058064 21.96-.0058065 32.94-3.6929032-3.6580645-7.3625806-7.3509677-11.0380645-11.0264516-.0116129-5.6787097.0290322-11.3632258-.0174194-17.0419355-3.6754838 3.5070968-7.1941935 7.1651613-10.80580642 10.7303226-1.30064516-1.3645161-2.74645161-2.5896774-3.95419354-4.0412903-.93483871-1.5270968-1.98-3.4025806-3.97161291-3.6 2.33419355-2.6303226 5.01096774-4.9296774 7.33354839-7.5716129z" fill="#ee8d00" transform="translate(13.935484 23)"/></g></svg>