<svg height="90" viewBox="0 0 180 90" width="180" xmlns="http://www.w3.org/2000/svg"><g fill="none" fill-rule="evenodd" transform="translate(0 22)"><path d="m46.5517241 23.2768966c0 12.8265517-10.4482758 23.2748275-23.275862 23.2748275-12.8555173 0-23.2758621-10.4482758-23.2758621-23.2748275 0-12.8286207 10.4482759-23.2768966 23.2758621-23.2768966 12.8544827 0 23.275862 10.4482759 23.275862 23.2768966z" fill="#408d68"/><path d="m34.1348276 12.2172414h-17.3731035c-5.3668965 0-8.23862065 4.5455172-9.49137927 8.0244827-1.43896552 4.0024138-1.69655173 11.2955173-1.69655173 12.8275862 0 0-.00310344.8286207-.00310344.8348276 0 .2068966.20689655.4137931.4137931.3672414h3.27931034c.20586207 0 .36827587-.1655172.36827587-.3672414 0-.0724138 0-.7965517 0-.7965517 0-.9858621-.10344828-1.9613793.36827583-3.4468965.7975862-2.5293104 2.1310345-3.96 4.7865518-4.0613794h2.1403448v8.3037931c0 .2068966.2068965.4137932.4137931.4137932h3.6475862c.2006896 0 .3662069-.1655173.3662069-.3672414 0-.0724138.002069-3.6424138.002069-3.6424138 0-.3693104.0486206-.7334483.1686206-1.0551724.3444828-1.0789656 1.1482759-2.1579311 2.4693104-2.1579311 1.6448276 0 2.2758621 1.3448276 2.2758621 3.2348276 0 0-.0031035 3.5865517-.0031035 3.6206897 0 .2068965.2068966.4137931.4137931.4137931h3.807931c.2037931 0 .3693104-.1613793.3693104-.3672414 0-.0062069 0-3.8410345 0-3.8410345 0-.3662069.0734483-.7572414.1696552-1.0748276.3931034-1.0303448 1.0406896-1.9396551 2.2934482-1.9396551 1.7151725 0 2.3793104 1.3448275 2.3793104 3.6548275 0 0 0 3.2068966 0 3.2006897 0 .2068965.2068965.4137931.4137931.3672414h4.0613793c.2037931 0 .3765517-.1655173.3765517-.3672414 0-.0062069.002069-16.017931.002069-16.017931-.2617242-3.2886207-3.3134483-5.7713793-6.4168966-5.7610345zm-17.0875862 8.6286207h-.9703448c-1.0127587 0-1.6562069-.5575862-1.6562069-1.3955173 0-.9486207.6889655-1.3593103 1.6893103-1.3593103.4572414 0 .8275862 0 .9310345.0868965v2.6679311z" fill="#fff" fill-rule="nonzero"/><g fill="#000" transform="translate(53.793103 10.344828)"><path d="m.23482759 1.97068966c1.52275862-.29172414 3.72620689-.4862069 6.02689655-.4862069 3.14275862 0 5.27586206.51724138 6.72413796 1.74931034 1.1989655 1.03448276 1.8620689 2.48275862 1.8620689 4.44827587 0 2.81896553-1.9117241 4.73068963-3.985862 5.44344823v.0972414c1.587931.6206897 2.4827586 2.0689655 3 4.2124138.7127586 2.6896552 1.3448276 5.2758621 1.7586207 6.0910345h-4.082069c-.3237931-.6475862-.8751724-2.43-1.4575862-5.1506897-.64758622-2.8510344-1.65310347-3.7582758-3.92068967-3.8234482h-2.00793104v8.9751724h-3.95275862v-21.55655174zm3.95275862 9.62379314h2.36482758c2.68965518 0 4.34172411-1.4255173 4.34172411-3.59689659 0-2.36586207-1.65206893-3.49965518-4.24448273-3.49965518-1.26310345 0-2.07310345.09724138-2.46206896.19448276z" fill-rule="nonzero"/><path d="m23.7889655 23.8406897c-4.4389655 0-7.9055172-3.0455173-7.9055172-8.132069 0-5.1837931 3.4024138-8.35965518 8.1651724-8.35965518 4.6986207 0 7.862069 3.31034478 7.862069 8.06896548 0 5.7982759-4.082069 8.3906897-8.0668966 8.3906897h-.0548276zm.1293104-2.8831035c2.2675862 0 3.8555172-2.2044828 3.8555172-5.4103448 0-2.4631035-1.1017241-5.314138-3.8234483-5.314138-2.8189655 0-3.9527586 2.7537932-3.9527586 5.3782759 0 3 1.5517241 5.3793104 3.9310345 5.3462069z" fill-rule="nonzero"/><path d="m33.7034483 19.7906897c.8751724.5172413 2.5862069 1.137931 4.0344827 1.1668965 1.7493104 0 2.5272414-.7458621 2.5272414-1.7824138 0-1.0696552-.6486207-1.587931-2.5924138-2.3017241-3.0775862-1.0365517-4.3417241-2.7217242-4.3417241-4.6003449 0-2.7868965 2.3006896-4.92517237 5.9617241-4.92517237 1.7493104 0 3.3103448.41379311 4.2413793.93931035l-.81 2.79310342c-.6475862-.387931-1.9437931-.9072414-3.3372413-.9072414-1.4255173 0-2.2034483.7127587-2.2034483 1.6851725 0 1.0344827.7241379 1.4482758 2.7931034 2.1724138 2.884138 1.0344827 4.1379311 2.4827586 4.2413793 4.795862 0 2.8831035-2.2344827 4.9572414-6.4148276 4.9572414-1.9117241 0-3.6289655-.4541379-4.7948275-1.1006897z"/><path d="m49.2217241 16.7131034c.0972414 2.8965518 2.3793104 4.0344828 4.862069 4.082069 1.8465517 0 3.1417241-.2917241 4.3737931-.7117241l.5824138 2.6896551c-1.3593103.5824138-3.2389655 1.0044828-5.5075862 1.0044828-5.1186207 0-8.132069-3.1427586-8.132069-7.9706896 0-4.3737932 2.6565518-8.48896557 7.712069-8.48896557 5.1175862 0 6.8275862 4.24137927 6.8275862 7.67793107 0 .745862-.0641379 1.3293103-.1293103 1.6851724h-10.5889656zm6.9331035-2.7868965c.032069-1.4575862-.6155173-3.8555172-3.272069-3.8555172-2.4620689 0-3.4996552 2.2355172-3.6610345 3.8555172z" fill-rule="nonzero"/><path d="m61.8248276 12.4034483c0-1.8144828-.0641379-3.3372414-.1293104-4.69758623h3.4675862l.1944828 2.36482763h.0972414c.7127586-1.23103453 2.4310345-2.72172418 5.0555172-2.72172418 2.7537931 0 5.5862069 1.75862069 5.5862069 6.77068968v9.3641379h-3.9848276v-8.9089655c0-2.2686207-.8420689-3.9858621-3.0144827-3.9858621-1.5868966 0-2.6886207 1.1337931-3.1096552 2.3793104-.1293103.3227586-.1944828.81-.1944828 1.2631034v9.2989655h-3.9868965v-11.1268965z"/><path d="m79.8393103 23.4848276v-12.7975862h-2.1382758v-2.98034485h2.1382758v-.68068965c0-2.04103449.5503449-4.08206897 1.9117242-5.37827587 1.1658621-1.10172413 2.7537931-1.52275862 4.1151724-1.52275862 1.0696552 0 1.862069.20689656 2.4827586.38896552l-.2586207 3.07758621c-.4531034-.16137931-.9713793-.29172414-1.7172414-.29172414-1.975862 0-2.6244827 1.65206897-2.6244827 3.59689655v.81h3.4675862v2.98034485h-3.4344828v12.7975862z"/><path d="m91.8910345 16.7131034c.0972414 2.8965518 2.3793103 4.0344828 4.8620689 4.082069 1.8465518 0 3.1437932-.2917241 4.3748276-.7117241l.583448 2.6896551c-1.361379.5824138-3.2410342 1.0044828-5.5075859 1.0044828-5.1196552 0-8.132069-3.1427586-8.132069-7.9706896 0-4.3737932 2.6565518-8.48896557 7.71-8.48896557 5.1196549 0 6.8275859 4.24137927 6.8275859 7.67793107 0 .745862-.064138 1.3293103-.130344 1.6851724h-10.5879315zm6.9331034-2.7868965c.032069-1.4575862-.6155172-3.8555172-3.2720689-3.8555172-2.4631035 0-3.4996552 2.2355172-3.6610345 3.8555172z" fill-rule="nonzero"/><path d="m104.494138.44896552h3.985862v23.03586208h-3.985862z"/><path d="m126.071379.44896552v18.59689658c0 1.6551724.103449 3.4137931.103449 4.4389655h-3.531725l-.194482-2.4941379h-.065173c-.93931 1.7493103-2.851034 2.8510344-5.117586 2.8965517-3.791379 0-6.772759-3.2089655-6.772759-8.0679311-.032069-5.2810344 3.273104-8.42379306 7.063449-8.42379306 2.171379 0 3.724138.82758621 4.448276 2.04103448h.064138v-8.94206896h4.002413zm-3.983793 13.83413788c0-.3237931-.032069-.745862-.097241-1.0696551-.356897-1.5227586-1.62-2.7858621-3.434483-2.7858621-2.560345 0-3.984828 2.2675862-3.984828 5.1724138 0 2.8965517 1.448276 5.0689655 3.931035 5.0213793 1.62 0 3.045517-1.1006896 3.434483-2.8189655.097241-.3558621.12931-.7448276.12931-1.1658621v-2.3534483z" fill-rule="nonzero"/></g></g></svg>