<svg height="90" viewBox="0 0 180 90" width="180" xmlns="http://www.w3.org/2000/svg"><g fill-rule="evenodd" transform="translate(0 27)"><path d="m11.3924051 10.2531646v-10.2531646h13.670886v10.2531646zm13.670886 5.6962025h11.3924051v20.5063291h-36.4556962v-20.5063291h11.3924051v10.2531645h13.670886z" fill-rule="nonzero"/><path d="m55.8227848 4.97164557h3.4655696v13.18101263c0 1.8364649.4245527 3.1891096 1.2736709 4.0579747.8293713.8688651 2.182016 1.3032912 4.0579747 1.3032912 1.8364649 0 3.1891096-.4344261 4.0579747-1.3032912.8491182-.908359 1.2736709-2.2610037 1.2736709-4.0579747v-13.18101263h3.4655696v13.12177213c0 2.7448239-.7701189 4.8478408-2.3103798 6.3091139-1.5402608 1.4217793-3.7025177 2.1326583-6.4868354 2.1326583-2.8040647 0-4.9564482-.7010057-6.4572152-2.103038-1.5600078-1.4810201-2.34-3.5939103-2.34-6.3387342zm29.036311 5.42050633c3.8309052 0 5.7463291 2.0931436 5.7463291 6.2794937v9.4488607h-3.3767088v-9.1526582c0-2.5078606-1.1551784-3.7617722-3.4655697-3.7617722-.8293712 0-1.5599968.2961996-2.1918987.8886076-.7108896.6516489-1.125569 1.5896142-1.2440506 2.8139241v9.2118987h-3.3767089v-15.3136709h3.3767089v1.7772152c.6121549-.7306365 1.2835406-1.2736691 2.0141772-1.6291139.7503835-.3751917 1.5896156-.5627848 2.5177215-.5627848zm14.759349 0c4.0481212 0 6.2498712 1.6192243 6.6053162 4.8577215h-3.287848c-.236963-.7898773-.592403-1.3329099-1.066329-1.6291139-.493673-.315951-1.263792-.4739241-2.3103797-.4739241-.908359 0-1.5797447.1283532-2.0141772.3850633-.5134203.2567102-.7701266.6812629-.7701266 1.2736709 0 .4936734.4048061.9182261 1.2144304 1.2736709.5134202.2172163 1.5303721.5134159 3.0508861.8886076 1.777224.4344326 3.060755.9182252 3.850633 1.4513924 1.22431.7701304 1.836456 1.8463222 1.836456 3.2286076 0 3.2582441-2.300484 4.8873418-6.9015194 4.8873418-4.2455909 0-6.5362009-1.7969441-6.8718988-5.3908861h3.2878481c.1777224.9478528.5232886 1.6389852 1.0367089 2.0734177.5331672.3751918 1.3427794.5627848 2.4288607.5627848 2.3696325 0 3.5544305-.6318924 3.5544305-1.8956962 0-.7108896-.444299-1.2736688-1.332911-1.6883544-.394939-.1974693-1.402018-.4837956-3.0212663-.8589873-1.796971-.4146857-3.0706292-.858985-3.8210127-1.3329114-1.184816-.7503835-1.7772151-1.787082-1.7772151-3.1101266 0-1.4415262.5825258-2.5374646 1.7475949-3.2878481 1.1255752-.8096243 2.6460664-1.2144304 4.561519-1.2144304zm17.2178302 0c2.25115 0 4.028348.7997388 5.331645 2.3992405 1.184816 1.4810201 1.777216 3.396444 1.777216 5.7463291 0 2.2314036-.582526 4.0974609-1.747595 5.5982279-1.244057 1.5995016-2.971888 2.3992405-5.183545 2.3992405-1.777224 0-3.297715-.8392321-4.561519-2.5177215v7.9678481h-3.376709v-21.1784811h3.139747v1.629114c1.066335-1.3625385 2.606572-2.0437975 4.62076-2.0437975zm-.503545 2.7250633c-1.342791 0-2.359743.5232859-3.050886 1.5698734-.631902.888612-.947848 2.1129036-.947848 3.6729114v.236962c0 1.6192486.394933 2.9126534 1.18481 3.8802532.71089.888612 1.609362 1.3329114 2.695443 1.3329114 1.481021 0 2.586832-.4837926 3.317469-1.4513924.631902-.908359.947848-2.1820171.947848-3.8210127 0-1.6389955-.286326-2.9126537-.858987-3.8210126-.71089-1.0663345-1.806828-1.5994937-3.287849-1.5994937zm10.553273-8.56025317h3.376709v21.56354427h-3.376709zm13.870742 5.83518987c2.270897 0 3.939488.5627792 5.005823 1.6883544.947852.9675998 1.421772 2.3893577 1.421772 4.2653165v9.7746835h-3.139747v-2.0141772c-.592408.7701304-1.332907 1.3625296-2.221519 1.7772152-1.026841.4344326-2.172146.6516456-3.435949.6516456-1.579755 0-2.833667-.4048061-3.761773-1.2144304-.947852-.8293712-1.421772-1.935183-1.421772-3.3174684 0-1.9154526.750373-3.3470838 2.25114-4.2949367 1.263803-.8096243 2.932394-1.2144303 5.005822-1.2144303l3.347089-.0296203v-.355443c0-1.9944404-1.095938-2.9916456-3.287848-2.9916456-1.007094 0-1.796959.1875931-2.36962.5627848-.651649.4146856-1.036709 1.046578-1.15519 1.8956962h-3.347089c.236963-1.8562118 1.016956-3.2088565 2.34-4.0579747 1.125575-.7503835 2.71518-1.1255696 4.768861-1.1255696zm3.050886 8.6491139-3.110127.0296203c-2.685583 0-4.028354.9478386-4.028354 2.8435443 0 .5331672.20734.9972132.622025 1.3921519.434433.3751917 1.056452.5627848 1.866076.5627848 1.402033 0 2.537464-.3751861 3.406329-1.1255696.829372-.7701305 1.244051-1.7969556 1.244051-3.0805064zm12.389729-8.6491139c4.048121 0 6.249871 1.6192243 6.605316 4.8577215h-3.287848c-.236963-.7898773-.592403-1.3329099-1.066329-1.6291139-.493673-.315951-1.263792-.4739241-2.31038-.4739241-.908359 0-1.579745.1283532-2.014177.3850633-.51342.2567102-.770127.6812629-.770127 1.2736709 0 .4936734.404806.9182261 1.214431 1.2736709.51342.2172163 1.530372.5134159 3.050886.8886076 1.777224.4344326 3.060755.9182252 3.850633 1.4513924 1.22431.7701304 1.836455 1.8463222 1.836455 3.2286076 0 3.2582441-2.300483 4.8873418-6.901519 4.8873418-4.24559 0-6.5362-1.7969441-6.871898-5.3908861h3.287848c.177722.9478528.523288 1.6389852 1.036709 2.0734177.533167.3751918 1.342779.5627848 2.42886.5627848 2.369633 0 3.554431-.6318924 3.554431-1.8956962 0-.7108896-.4443-1.2736688-1.332912-1.6883544-.394938-.1974693-1.402017-.4837956-3.021265-.8589873-1.796971-.4146857-3.07063-.858985-3.821013-1.3329114-1.184816-.7503835-1.777215-1.787082-1.777215-3.1101266 0-1.4415262.582526-2.5374646 1.747595-3.2878481 1.125575-.8096243 2.646066-1.2144304 4.561519-1.2144304zm9.457323-5.83518987h3.376709v8.29367087c.552914-.8293712 1.25392-1.4612636 2.103038-1.8956962.730637-.3751917 1.589615-.5627848 2.576962-.5627848 1.875959 0 3.268097.5430325 4.176456 1.6291139.868865 1.0465875 1.303291 2.5868253 1.303291 4.6207595v9.478481h-3.376709v-8.8860759c0-1.3032977-.256706-2.3005029-.770126-2.9916456-.592408-.7306366-1.461261-1.0959494-2.606583-1.0959494-1.066334 0-1.895693.4146794-2.488101 1.2440507-.612155.8096243-.918228 1.8660694-.918228 3.1693671v8.5602531h-3.376709z"/></g></svg>