<svg height="90" viewBox="0 0 180 90" width="180" xmlns="http://www.w3.org/2000/svg"><g fill="none"><path d="m8.19465241 30.9176471c6.31443849-1.3572193 5.45454549-8.9005348 5.26524059-10.5497327-.3208556-2.544385-3.2983957-6.9914438-7.3572192-6.6320855-5.11122995.4524064-5.85561498 7.8352941-5.85561498 7.8352941-.69625668 3.4106952 1.64919786 10.7005348 7.94759359 9.3465241zm11.72085559-12.6577541c3.4812834 0 6.3016043-4.0139037 6.3016043-8.96791439 0-4.9540107-2.8203209-8.98395722-6.3016043-8.98395722s-6.2919786 4.03315508-6.2919786 8.98395722c0 4.95080209 2.8074866 8.96791439 6.2919786 8.96791439zm15.0160428.6c4.6588235.6032086 7.6524064-4.3700534 8.2524064-8.1368983.6-3.76684497-2.4032085-8.14331556-5.7016043-8.89090914-3.2983957-.74759358-7.4374331 4.5368984-7.8160427 7.98609626-.4427808 4.22245988.6096256 8.43529408 5.2652406 9.04171118zm18.4780749 6.3368984c0-1.8032085-1.4983958-7.2320855-7.0588236-7.2320855s-6.3080214 5.1336898-6.3080214 8.7433155c0 3.4588235.2951872 8.2877005 7.2096257 8.1336898s6.1572193-7.8481283 6.1572193-9.6449198zm-7.0588236 15.824599s-7.2096256-5.5796792-11.4128342-11.6021391c-5.7080214-8.8909091-13.8160428-5.2748663-16.5208556-.7540107-2.7048128 4.5208557-6.9048128 7.3796792-7.5080214 8.1336899-.6032085.7540107-8.71122994 5.1112299-6.91122994 13.1037433s8.11122994 7.8320856 8.11122994 7.8320856c3.372804.2291748 6.7610513-.0247277 10.0620321-.7540107 3.3294967-.7097049 6.7810208-.6062472 10.0620321.3016042 0 0 12.6192513 4.2224599 16.0716577-3.9112299 3.4524065-8.1336898-1.9540107-12.3593583-1.9540107-12.3593583z" fill="#2319dc" transform="translate(62.245989 12)"/><path d="m10.3347594 5.7657754h-4.31229951c-3.29197861 0-6.00641711 3.15721925-6.00641711 7.084492 0 3.9272727 2.69839572 7.084492 5.9486631 7.084492h8.22032082v-19.71336903h-3.8502673zm0 11.0887701h-3.38823534c-1.67486631 0-3.0802139-1.7518717-3.0802139-4.0042781s1.43101604-4.0042781 3.0802139-4.0042781h3.38823534zm15.0802139-11.0887701v11.0887701h-3.8502674c-.7700535 0-1.540107-.5903744-1.540107-1.2320856v-9.8566845h-3.8342246v10.626738c0 1.9764706 1.9604278 3.5294117 4.0042781 3.5294117h9.2406417v-14.1561497z" fill="#fff" transform="translate(72.834225 45.048128)"/><path d="m43.4342246 8.38074866h-13.5529412v4.62352944h11.8716578c1.5208556 0 2.7721925 1.0973262 2.7721925 2.4641711v1.5401069h-10.6395722c-3.2342246 0-5.6983957 2.9229947-5.6983957 6.6224599 0 3.6994653 2.6085561 6.6256685 5.3903743 6.6256685h17.0919786v-15.6032086c0-3.3882353-3.2470588-6.27272724-7.2352941-6.27272724zm1.0780749 17.24919784h-8.4032086c-.9240642 0-1.7614973-.9144385-1.7614973-2.002139-.0147517-.5264758.1843523-1.0364809.5519053-1.4137064.3675531-.3772255.8722155-.589507 1.3988968-.5884327l8.2139038-.000004zm-22.1775401-10.7807486s3.5294117-2.2877006 3.5294117-6.31443854c0-4.55935829-4.6684492-8.31336899-10.4534759-8.31336899h-15.4106952v30.34010693h17.4256684c5.2812835 0 9.3754011-3.7925133 9.3754011-8.4737968 0-5.0245989-4.4663101-7.2385026-4.4663101-7.2385026zm-16.17112304-8.77860966h10.61711234c1.633155 0 2.9390374 1.4117647 2.9390374 3.08342246 0 1.6716577-1.2 3.2342246-2.8877005 3.2342246h-10.66844924zm11.46417114 18.60962566h-11.46417114v-6.4395722h11.40320854c.8365801.0193194 1.6310329.3709691 2.2078077.9772448.5767747.6062758.8883904 1.4172681.8659891 2.2537713 0 1.4791443-1.1229946 3.2213903-3.0128342 3.2213903zm159.9080215-11.9839572c-1.125134 0-1.903743-.1700535-2.335829-.5101604l-1.687701-1.2834225 6.096257-5.85882353v-3.81818182h-19.337968v3.81818182h13.629947l-3.895187 3.56470588-2.983958-2.41925134h-6.096256l5.971123 4.96684489-1.187166.9176471c-.452622.4333606-1.061497.664872-1.687701.6417112h-3.62246v3.4363637h5.310161c.949733 0 1.988235-.3818182 3.115508-1.1454546l1.55615-1.2834224 2.079144 1.5272727c.797248.6618114 1.823417.982345 2.855615.8919786h4.414973v-3.4331551zm-19.206417-11.4449198h-7.536899v4.07486631h7.536899zm-17.268449 3.81818182h2.339037v1.28342246h-1.947594l-.770053 5.84598932c-.176471.5101604-.346524.7219251-.519786.6417112v-11.5893048h-6.737968v3.94652406h2.727273v1.14545455h-2.207487l-.641711 5.85561499c-.070899.1162839-.115778.2465413-.131551.3818182-.086631.6802139-.259893.9786096-.519786.8919786h-.952941c-.173262.0877005-.346524-.082353-.519786-.5101605v-.2534759l-.259893-.8919786h-3.234225v-.6417112h5.454545v-3.81818185h-.641711v-1.1486631h-3.64492v1.1486631h-1.167914v-1.78395722h2.335829c1.469519 0 2.334759-.55187166 2.595722-1.65561497l.391444-3.05454546h-3.766845l-.128343.89197861c-.171247.25298214-.492403.35739106-.779679.25347594h-10.267379v3.69304813h5.191443v1.65561497h-1.299465v-1.02032085h-3.619251v1.02032085h-.391444v3.68983955h5.322995v.6417113h-3.247059l-.388235 1.1454545c-.346524.855615-.649198 1.1946524-.908022 1.0171123h-.908021v2.5475936h2.204278c.693048 0 1.255615-.4278075 1.6877-1.2834225l.641712-1.5272727h.908021v3.4363636h-5.454545v12.9850268h12.192513c1.730481-.171123 2.682353-1.4438503 2.855615-3.8181818v-.9946525h1.427807c.77861-.0834224 1.254546-.4652406 1.427808-1.1454545l.641711-5.2203209v6.6224599c-.007995.2947777-.139297.5726786-.361938.7660406s-.516193.2844447-.809185.2510717h-2.075936v3.31123h4.049198c1.993583-.0855615 3.032086-1.2320856 3.115508-3.4395722v-1.1454546h.91123c.776471 0 1.251337-.5903743 1.427808-1.7807486l.779679-4.8385027v7.2609626c0 .5069518-.259893.7219251-.779679.6417112h-1.925134v3.4363636h3.24385c2.340107-.0834224 3.509091-1.3561497 3.506952-3.8181818v-24.70588233h-6.37861zm-17.785027 21.38823528h-1.427808v-1.2834224h1.427808zm0-4.5818182h-1.427808v-1.2834224h1.427808zm5.582888 3.9465241c0 .5069519-.176471.7219251-.519787.6417112h-.641711v-1.2834224h1.167915zm0-3.9465241h-1.167915v-1.2834224h1.167915zm7.392513-5.342246h-2.46738l-.516577 4.4566845c0 .340107-.131551.4684492-.391444.3818182v-4.3347593h-5.191444v-3.4363637h1.036364l.519786 1.6524064c.259893.6834225.82139 1.0203209 1.6877 1.0203209h3.375401c.605348.0855615 1.038503-.342246 1.299466-1.2834225l.641711-5.09197858zm7.142246 0h-1.947594l-.519786 3.9465241c-.086631.5967914-.304813.8919786-.641711.8919786v-5.226738h1.171123c.776471 0 1.204278-.3818181 1.283422-1.1454545l.641712-4.0716578zm-89.4866311 13.7262032h6.1604278v-21.87593578h-6.1604278zm103.2449201-4.1711229v-14.7593583h-6.619252v3.9208556h2.342246v12.859893c-.0877 1.4417113.605348 2.1625669 2.079145 2.1625669h4.411764v-3.4331551h-1.283422c-.715508.086631-1.017112-.1700535-.930481-.7636364zm15.060962-9.4203209h-4.674866v1.7807487h-7.26738v3.4395722h7.26738v2.8010695h-7.398931v3.3080214h7.398931v2.2909091h4.674866v-2.2909091h7.398931v-3.3208557h-7.398931v-2.8010695h7.398931v-3.4395722h-7.398931zm-118.3058821-10.75187166h6.1604278v-5.54438503h-6.1604278z" fill="#e10601" transform="translate(0 38.631016)"/></g></svg>