<svg height="90" viewBox="0 0 180 90" width="180" xmlns="http://www.w3.org/2000/svg"><path d="m66.2323944 1.64788732h-18.443662v37.77464788h18.1267606c11.7253521-.1267606 19.7746478-8.3661972 19.7746478-18.9507042 0-10.4577465-7.9225352-18.50704227-19.4577464-18.82394368zm-.3169014 31.30985918h-11.3450705v-24.78169016h11.471831c7.415493.19014084 12.2957747 5.38732396 12.2957747 12.42253516-.0633803 7.0985916-4.943662 12.2323944-12.4225352 12.359155zm-28.1408451-24.6549296v-6.65492958h-37.7746479v6.65492958h15.528169v24.528169h-15.528169v6.6549296h37.7746479v-6.6549296h-15.4647887v-24.528169zm94.3098591 0v-6.65492958h-38.1549295v37.83802818h38.1549295v-6.6549296h-31.309859v-8.9366197h24.401408v-6.6549296h-24.401408v-8.9366197zm26.809859-8.3028169c-11.471831 0-20.788732 9.19014085-20.788732 20.5352113 0 11.3450704 9.316901 20.5352112 20.788732 20.5352112s20.788733-9.1901408 20.788733-20.5352112c0-11.34507045-9.316902-20.5352113-20.788733-20.5352113zm0 34.0352113c-7.478873 0-13.62676-6.0211268-13.62676-13.4366198 0-7.4154929 6.084507-13.43661967 13.62676-13.43661967 7.478873 0 13.626761 6.02112677 13.626761 13.43661967 0 7.415493-6.147888 13.4366198-13.626761 13.4366198z" transform="translate(0 24)"/></svg>