<svg height="90" viewBox="0 0 180 90" width="180" xmlns="http://www.w3.org/2000/svg"><g fill="none" fill-rule="nonzero"><path d="m13.8315789 30.0252632c1.2063158.9221052 1.8821053 2.28 2.4189474 3.6694736 2.4568421-.5115789 4.9578948-.1705263 7.44-.0442105-1.2821052.7263158-2.7347368.991579-4.1810526 1.1747369 1.56.4357894 3.1642105.6631579 4.7747368.8463157-.8905263.3978948-1.8063158.7136843-2.7473684.9536843 1.9389474.1831579 3.6821053 1.0736842 5.2863158 2.1221052-1.0610526.0694737-2.1284211.0947369-3.1894737.1263158 3.1957895 3.8968421 4.2126316 9.0757895 3.9221053 14.0084211-4.6673684 6.72-14.2357895 9.1136842-21.51789476 5.3810526 3.05052631-4.471579 8.07789476-7.2 10.78736846-11.9305263 1.3389473-2.2294737 1.7621052-5.0652632.6-7.4589474-.991579 1.8757895-1.2757895 4.2631579-3.0568421 5.6336842-1.8126316 1.5410527-4.2631579 1.7305263-6.49894742 2.16-2.06526315.5242105-3.1768421 2.4884211-4.70526315 3.7768421-1.71789474.24-2.27368421-2.1031579-2.63368421-3.4231579 2.41894736-3.6568421 5.08421052-7.1621052 7.76842105-10.6294737 1.11157895-1.6357894 3.16421053-1.6736842 4.88210523-2.1473684.7705263-1.2568421.48-2.8231579.6505263-4.2189473zm-3.4547368 7.2631579c-.66947368.6-1.14315789 1.3705263-1.69263157 2.0715789 1.43368417-.4989474 2.93684207-.9536842 4.02947367-2.0652632-.7768421-.0568421-1.56-.0568421-2.3368421-.0063157z" fill="#0070ff"/><g fill="#333"><path d="m44.3178947 39.7326316c.9157895-1.7810527 1.4905264-4.6673684 3.871579-4.8631579-.1957895.448421-.6 1.3326316-.8021053 1.7747368 2.0021053.0063158 4.0168421-.1326316 6.0126316.0378948.1578947.1957894.4736842.5936842.6315789.7894736-1.2442105.0757895-2.4947368.0884211-3.7452631.1010527v2.7031579c1.7557895-.0631579 3.6315789.3473684 5.2610526-.5052632-.0063158-1.2631579-.2652631-3.24 1.3831579-3.6378947 1.8252632-.2589474 3.751579-.3410527 5.5452632.1389473 1.3705263.7452632.9473684 2.52 1.0673684 3.8021053-.1389474 1.4021053.4231579 3.5052632-1.2126316 4.2063158-1.768421.4105263-3.6505263.3473684-5.4315789.0757895-1.5536842-.3726316-1.3894737-2.2231579-1.3263158-3.4294737-1.7557895.4610526-3.5810527.2905263-5.3747369.2589474-2.0147368 1.4463157-3.4610526 4.2189473-6.2273684 4.08 1.3768421-1.4336843 2.911579-2.7094737 4.3894737-4.0421053-1.3578947-.0063158-2.7157895-.0126316-4.0673684-.0252632.0063158-.2273684.0189473-.6821052.0252631-.9094736 1.5157895-.0063158 3.031579-.0063158 4.5536842-.0063158 0-.9094737 0-1.8252632 0-2.7347369-.5115789.0063158-1.528421.0126316-2.0336842.0189474-.6189473.9663158-1.2821052 1.9578947-2.52 2.1663158zm12.6694737-2.1284211c-.1642105 1.9831579-.2526316 4.0231579.2526316 5.9684211 1.5978947.0252631 3.1957895.0189473 4.7873684-.1326316.0568421-2.1031579.4231579-4.2947368-.1642105-6.3410526-1.5284211-.0568421-3.8147368-.8652632-4.8757895.5052631z"/><path d="m69.9157895 36.0568421c.3536842-.9157895 1.2694737-1.0673684 2.1410526-1.1305263-.9789474 1.6926316-2.0526316 3.3221053-3.0378947 5.008421 1.6294737.031579 3.2526315.0252632 4.8821052.0568421.3789474-.3536842.7578948-.7010526 1.1431579-1.0421052-.5810526-.9094737-1.1242105-1.8442105-1.6294737-2.7978948 2.5705264.1894737 2.9242106 3.3978948 4.1810527 5.1536843l-1.1810527-.2526316c-.3031579-.3536842-.9157894-1.0610527-1.2189473-1.4147369-.0442106.3284211-.12.9789474-.1578948 1.3073685-2.5010526-.1705264-5.04.1831579-7.5094736-.391579.4294736-1.6673684 1.4526315-3.0821053 2.3873684-4.4968421z"/><path d="m78.5810526 35.2484211c.3157895-.0947369.9410527-.2905264 1.2568421-.3852632.0378948 1.2442105.0505264 2.488421.0568421 3.7389474 1.5094737-.0189474 3.031579.0757894 4.5347369-.0884211.9663158-.9726316.6189474-3.0505263 2.4378947-3.0568421-.3157895 1.2694737-.568421 2.5894737-1.2378947 3.7326316-1.8505263.6757895-3.8778948.2842105-5.8042105.3915789.0821052 1.0168421-.0252632 2.0842106.3663157 3.0442106 2.28.4926315 4.6421053.1452631 6.9536843.2273684-.0063158.2273684-.0189474.688421-.0252632.9221052-2.2736842-.0063157-4.5536842.1136843-6.8210526-.0505263-.9536842-.0315789-1.7178948-.8273684-1.7052632-1.7810526-.1073684-2.2294737-.0947368-4.4652632-.0126316-6.6947368z"/><path d="m94.1431579 35.0778947c.328421-.0063158.9915789-.0189473 1.32-.0252631.0252632 1.4842105.0315789 2.9747368.0315789 4.4589473.8336843.2021053 2.0905264-.1831578 2.4252632.9157895-.6063158.0378948-1.8252632.1136842-2.4315789.151579.0063157 1.9326315.0126315 3.8589473-.031579 5.7852631 1.0357895-.2968421 2.0905263-.4736842 3.1642105-.5305263-.7389473 1.0105263-1.9515789 1.3326316-3.088421 1.6547369-.0694737 2.4505263-.0505263 4.9010526-.0252632 7.3515789-.3157895.0884211-.96.2526316-1.2757895.3410526-.1831578-2.3936842-.1010526-4.8-.1073684-7.2-1.3452631.4484211-2.6968421.871579-4.08 1.1747369.6126316-1.7052632 2.671579-1.6231579 4.0736842-2.2484211.0063158-2.1221052 0-4.2442105.0063158-6.3663158-.5873684.0063158-1.7557894.0063158-2.3431579.0063158-.1073684 1.1747369-.2147368 2.3431579-.3031579 3.5178948-.3915789.0063157-.7831579.0126315-1.1747368.0252631.36-2.5073684.48-5.04.8715789-7.5347368.2652632-.1136842.8021053-.3410527 1.0736843-.4547369-.0884211 1.1684211-.2021053 2.3431579-.3094737 3.511579h2.1789473c0-1.5094737 0-3.0252632.0252632-4.5347369z"/><path d="m97.9515789 42.1263158c.7326316-2.3305263 1.3705264-4.7178947 2.4189471-6.9347369.322106-.0694736.966316-.208421 1.288421-.2778947-.341052 1.1684211-.726315 2.3242105-1.105263 3.48 2.469474.0505263 4.951579-.1452631 7.408421.1010526 1.124211.1073685 1.762106 1.231579 1.705263 2.2736843.069474 3.7768421.018948 7.5473684.025264 11.3242105-.025264.9157895.006315 2.1915789-1.029474 2.608421-1.174737.4673685-2.482105.271579-3.713684.3410527-.12-.2273685-.353685-.6757895-.467369-.9031579 1.231579-.0442106 2.469474-.0884211 3.707369-.1894737.221052-4.8378948.24-9.7010526-.018948-14.5326316-2.64-.1642105-5.28-.0821053-7.92-.0947368-.4673681 1.1873684-.5684207 2.9873684-2.2989471 2.8042105z"/><path d="m117.764211 35.1284211c.347368-.0189474 1.035789-.0631579 1.383157-.0884211.037895 2.5263158.018948 5.0526316.018948 7.5852632 1.427368 0 2.854737 0 4.275789.088421-.833684 1.5473684-2.886316.5873684-4.269473.8526316-.07579 3.7831579.132631 7.5663158-.094737 11.3368421l-1.256842.2463158c-.094737-3.8589474-.018948-7.7242105-.044211-11.5831579-1.458947-.3094737-3.663158.7768421-4.534737-.8652632 1.509474-.0821052 3.018948-.0757894 4.534737-.0757894 0-2.4947369.006316-4.9957895-.012631-7.4968421z"/><path d="m123.991579 35.3747368c.64421.1705264 1.547368.0189474 1.831579.8021053.978947 1.5347368 1.806316 3.1578947 2.621053 4.7810526-.353685-.0821052-1.061053-.2463158-1.414737-.328421-1.218948-1.6168421-2.071579-3.48-3.037895-5.2547369z"/><path d="m130.117895 35.0842105c.334737-.0063158 1.00421-.0189473 1.338947-.0252631.037895 4.3705263.018947 8.7473684.012632 13.1178947.543158-.0757895 1.635789-.2210526 2.185263-.2968421-.43579.84-1.162105 1.3073684-2.191579 1.3894737 0 1.8.094737 3.6-.056842 5.4-.271579.1831579-.808421.5557895-1.073684.7452631-.328421-1.9768421-.221053-3.9852631-.227369-5.9747368-2.122105.4042105-4.225263.8968421-6.366316 1.1684211.094737-.2147369.284211-.6505264.378948-.871579 1.957894-.6063158 4.010526-.8147368 6.006316-1.2568421-.031579-4.4652632-.025264-8.9305263-.006316-13.3957895z"/><path d="m136.983158 34.9452632c2.665263.0252631 3.726316 2.9747368 5.349474 4.6547368-2.671579-.0063158-3.713685-3.0063158-5.349474-4.6547368z"/><path d="m160.105263 34.9452632c2.810526-.0821053 4.092632 2.9621052 5.943158 4.6105263-2.842105.1642105-4.143158-2.9052632-5.943158-4.6105263z"/><path d="m172.376842 35.0842105c.341053-.0063158 1.016842-.0189473 1.357895-.0252631.025263 2.5326315.012631 5.0715789.018947 7.6042105 2.077895-.0378947 4.168421.1515789 6.246316-.031579v.1073685c-.498947.4168421-1.503158 1.2442105-2.002105 1.6547368l.069473-.8021053c-1.446315.0126316-2.88.0189474-4.32.0252632-.309473 4.0610526.738948 8.3431579-.701052 12.2336842-1.383158-3.9094737-.372632-8.1852631-.67579-12.2463158-2.065263-.208421-4.477894.6568421-6.221052-.7642105 2.065263-.2210526 4.143158-.1705263 6.221052-.1642105 0-2.5326316-.006315-5.0652632.006316-7.591579z"/><path d="m113.570526 36.1263158c.448421 0 .890527.0063158 1.338948.0126316.397894 1.5789473.833684 3.1452631 1.313684 4.7052631-.442105.0189474-.884211.0378948-1.32.0568421-.429474-1.5978947-.865263-3.1894737-1.332632-4.7747368z"/><path d="m122.204211 35.9494737c.290526.0631579.865263.1831579 1.149473.2463158-.928421 1.5536842-.423158 4.8757894-2.823158 4.8505263.543158-1.7052632 1.086316-3.4042105 1.673685-5.0968421z"/><path d="m145.155789 39.4989474c.082106-1.5094737-.36-4.2694737 2.008422-3.9978948 2.058947.1831579 4.692631-.7263158 6.347368.7831579.303158 1.68.050526 3.3978948.233684 5.0905263.618948.9094737 2.071579.2210527 2.949474.631579-.903158 1.2252631-2.608421.8021053-3.846316.5115789-1.263158-1.7052631-.018947-4.1242105-.84-6-1.730526-.2526315-3.530526-.2905263-5.248421.0442106-.277895 2.2673684.202105 5.0021052-2.267368 6.2336842-.473685.0757894-1.421053.2147368-1.894737.2905263.795789-1.2 2.646316-1.9452632 2.557894-3.5873684z"/><path d="m124.168421 42.0126316c.467368-.0505263.934737-.0947369 1.402105-.1389474.985263 1.8252632 2.077895 3.6 2.993685 5.4631579-.378948-.0757895-1.136843-.2273684-1.51579-.3031579-1.08-1.5978947-1.901053-3.36-2.88-5.0210526z"/><path d="m49.5094737 41.9052632c2.4694737-.1326316 4.0610526 1.9578947 5.7978947 3.3536842-2.4947368.2715789-4.08-1.9326316-5.7978947-3.3536842z"/><path d="m101.229474 42.0947368c.322105.0568421.96.1705264 1.282105.2210527-1.193684 4.1368421-1.932632 8.4126316-3.2778948 12.4926316l-1.1621053.448421c.8021053-4.44 2.0400001-8.7915789 3.1578951-13.1621053z"/><path d="m136.446316 41.9115789c1.408421.2210527 4.029473-.6505263 4.326316 1.351579.170526 3.2778947.018947 6.568421.063157 9.8526316 1.016843-1.0989474 2.021053-2.2231579 3.24-3.1073684-.511578 2.2294736-2.412631 4.1431578-4.522105 4.9326315-.221052-3.8842105.088421-7.7810526-.176842-11.6526315-.64421-.7768422-2.04-.2905264-2.955789-.511579z"/><path d="m159.044211 42.1642105c1.711578-.12 3.909473-.8210526 5.32421.4294737.6 3.5621053.082105 7.2631579.258947 10.8757895.827369-.6252632 1.629474-1.2821053 2.501053-1.8505263.498947-.0063158.246316.688421.423158.9726315-1.32.9663158-2.633684 1.9578948-4.136842 2.6210527-.397895-4.0547369-.063158-8.1410527-.208421-12.2084211-1.402105-.2021052-2.981053.1263158-4.162105-.84z"/><path d="m105.025263 42.4105263c.341053-.1010526 1.010526-.2968421 1.345263-.3915789-.978947 4.3073684-1.957894 8.6336842-3.246315 12.8526315l-1.181053.3031579c.896842-4.2821052 2.002105-8.5263157 3.082105-12.7642105z"/><path d="m68.3242105 43.9768421c.9726316-1.3642105 2.8421053-.9473684 4.2757895-1.0421053 1.2884211.0505264 3.3852632-.2147368 3.7452632 1.4463158.2021052 2.791579.1010526 5.5957895.0757894 8.3936842.3157895 2.3305264-3.0631579 2.9621053-4.4021052 1.5536843.9852631-.1578948 1.9578947-.3536843 2.9242105-.5873685.1642105-1.0105263.1452632-2.0463158.1894737-3.0694737-1.8757895-.0126315-3.7578948-.0063157-5.6336842-.0063157 0 1.5094736-.0126316 3.0252631-.1136842 4.5410526-.3284211-.0821053-.9726316-.2463158-1.2947369-.3284211.1642105-3.6252631-.2778947-7.3010526.2336842-10.9010526zm1.4147369.1768421c-.1705263.7010526-.2968421 1.4147369-.3663158 2.1347369 1.9452631.0189473 3.8905263.0252631 5.8421052-.0189474-.2526315-.8463158.1452632-2.4189474-1.1936842-2.3305263-1.4147368-.0378948-2.9305263-.2905263-4.2821052.2147368zm-.2526316 3.0694737c0 .6252632 0 1.8821053.0063158 2.5073684h5.5894737c0-.6252631 0-1.8757895 0-2.5010526-1.8631579-.0063158-3.7326316-.0063158-5.5957895-.0063158z"/><path d="m143.368421 44.5452632c3.378947.0315789 6.770526-.1705264 10.136842.1010526 1.686316.3031579 1.282105 2.4568421 1.27579 3.7010526.031579 2.0968421-2.501053 2.4505263-3.890527 3.4105263 1.976842 1.0231579 4.010527 1.9768421 5.829474 3.271579-2.690526.3410526-4.793684-1.6042105-7.08-2.6652632-2.343158 1.0421053-4.484211 2.9873684-7.212632 2.6968421 1.825264-1.3957894 3.972632-2.2610526 5.987369-3.328421-1.111579-.631579-2.317895-1.1368421-3.309474-1.9578948-.492631-.8210526-.322105-1.8947368-.517895-2.8105263.461053-.0189473.922106-.0378947 1.389474-.0505263-.48 2.4821053 1.945263 3.2336842 3.688421 4.1621053 1.206316-.6947369 2.602105-1.1621053 3.6-2.1663158.164211-1.0610526.48-2.4505263-.246316-3.3410526-3.202105-.3347369-6.442105-.031579-9.656842-.1642106z"/><path d="m78.5494737 44.8547368 1.3136842-.0694736c.0189474 1.3642105.0252632 2.7347368.0252632 4.0989473 1.5410526-.0126316 3.088421.0947369 4.6231578-.1136842.8463158-.9978947.5242106-3.24 2.3494737-2.9747368-.3157894 1.2505263-.6821052 2.4821052-1.1052631 3.6947368-1.9263158.4736842-3.9221053.3410526-5.88.3410526.1010526 1.351579-.271579 2.8294737.3726316 4.08 2.4189473.3978948 4.888421.0378948 7.3326315.2526316-.8526315 1.5157895-2.8168421.6757895-4.2126315.8968421-1.5221053-.1894737-3.7705264.5368421-4.6421053-1.1368421-.4042105-3-.0947369-6.0505263-.1768421-9.0694737z"/><path d="m115.155789 45.4863158c.265264-.1389474.79579-.4168421 1.061053-.5621053-.315789 2.7536842-.985263 5.4631579-1.698947 8.1347369-.290527.088421-.877895.2652631-1.168421.36.581052-2.6463158.985263-5.3494737 1.806315-7.9326316z"/><path d="m120.675789 45.0252632c.265264.1010526.79579.3157894 1.061053.4231579.79579 2.6842105 1.408421 5.4442105 1.749474 8.2231578-.757895-.2463157-1.206316-.72-1.357895-1.4273684-.536842-2.3936842-1.098947-4.7936842-1.452632-7.2189473z"/><path d="m46.9578947 46.6421053c1.0547369-.631579 2.3747369-.36 3.5494737-.4421053 3.3789474.0947368 6.7705263-.1452632 10.1368421.12 2.16.36 1.6105263 2.9557895 1.6989474 4.5221053-.0063158 1.4652631.2842105 3.928421-1.7810526 4.0863158-4.1494737.1642105-8.3242106.1389473-12.48.0189473-2.1663158-.0757895-2.0463158-2.5642105-1.9957895-4.1242105.1452631-1.3705263-.3473684-3.1768421.8715789-4.1810526zm.511579 3.48c4.4968421.0126315 8.9936842 0 13.4905263.0063158-.0063158-.8905264-.0189474-1.7810527-.0252632-2.671579-4.0547368-.6694737-8.2231579-.2147368-12.3221052-.2842105-1.5726316-.0631579-.9410527 1.9831579-1.1431579 2.9494737zm-.0126316.9410526c.1642105.9473684-.1894737 2.128421.5178947 2.8926316 4.2505264.2273684 8.5263158.0947368 12.7894737.0568421.1073684-.9789474.2021053-1.9578948.271579-2.9431579-4.5284211-.031579-9.0505263-.0252632-13.5789474-.0063158z"/></g></g></svg>