<svg height="90" viewBox="0 0 180 90" width="180" xmlns="http://www.w3.org/2000/svg"><g fill="none" fill-rule="evenodd"><g transform="translate(134.0625 23)"><path d="m41.7407812 0h-38.34843745c-1.83375 0-3.391875 1.4503125-3.391875 3.238125v38.5228125c0 1.7878125 1.558125 3.2390625 3.391875 3.2390625h38.34843745c1.8365625 0 3.2596875-1.45125 3.2596875-3.2390625v-38.5228125c0-1.7878125-1.423125-3.238125-3.2596875-3.238125" fill="#fff"/><path d="m41.7407813 0h-38.34843755c-1.83375 0-3.391875 1.4503125-3.391875 3.238125v38.5228125c0 1.7878125 1.558125 3.2390625 3.391875 3.2390625h38.34843755c1.8365624 0 3.2596874-1.45125 3.2596874-3.2390625v-38.5228125c0-1.7878125-1.423125-3.238125-3.2596874-3.238125zm-23.9282813 16.875h6.09375v3.061875c.8784375-1.760625 3.129375-3.343125 6.5109375-3.343125 6.481875 0 8.0203125 3.504375 8.0203125 9.9346875v11.9090625h-6.5625v-10.4446875c0-3.661875-.8784375-5.7271875-3.1125-5.7271875-3.0984375 0-4.3875 2.2265625-4.3875 5.7271875v10.4446875h-6.5625zm-11.25 21.5625v-21.5625h6.5625v21.5625zm7.5-28.59375c0 2.3296875-1.8890625 4.21875-4.21875 4.21875s-4.21875-1.8890625-4.21875-4.21875 1.8890625-4.21875 4.21875-4.21875 4.21875 1.8890625 4.21875 4.21875z" fill="#0073b0" fill-rule="nonzero"/></g><g fill="#000" transform="translate(0 28.625)"><path d="m127.5 32.8125h-5.625v-3.28125c-1.02375 1.558125-4.005938 3.5625-7.03125 3.5625-6.405 0-10.59375-4.0546875-10.59375-10.59375 0-6.005625 3.516562-11.53125 9.65625-11.53125 2.757188 0 5.52.53625 7.03125 2.625v-12.65625h6.5625zm-11.953125-16.03125c-3.336562 0-5.015625 2.0034375-5.015625 5.25 0 3.2475 1.679063 5.34375 5.015625 5.34375 3.3375 0 5.484375-2.09625 5.484375-5.34375 0-3.2465625-2.146875-5.25-5.484375-5.25z" fill-rule="nonzero"/><path d="m101.25 29.1796875c-2.135625 2.7140625-6.41625 3.9140625-10.546875 3.9140625-6.6721875 0-10.828125-4.636875-10.828125-11.53125 0-6.8953125 4.96875-10.59375 11.765625-10.59375 5.625 0 10.359375 3.9534375 10.359375 11.53125 0 1.171875-.1875 1.875-.1875 1.875h-15.5625l.1040625.628125c.3740625 2.0653125 2.589375 3.121875 5.169375 3.121875 2.17875 0 3.81-.94875 4.921875-2.4609375zm-5.859375-9.4921875c.0440625-2.2246875-1.74375-4.03125-4.145625-4.03125-2.9371875 0-4.8178125 1.940625-4.995 4.03125z" fill-rule="nonzero"/><path d="m59.0625.9375h6.5625v18.75l7.5-8.4375h8.203125l-9.140625 9.84375 8.7890625 11.71875h-7.8515625l-7.5-10.3125v10.3125h-6.5625z"/><path d="m34.6875 11.25h5.625v3.1640625c.8878125-1.6903125 3.7846875-3.4453125 7.03125-3.4453125 6.7621875 0 7.96875 3.9909375 7.96875 9.7734375v12.0703125h-6.5625v-10.6640625c0-2.49.1425-5.4609375-3.28125-5.4609375-3.46875 0-4.21875 2.65875-4.21875 5.4609375v10.6640625h-6.5625z"/><path d="m27.65625.1171875c2.1684375 0 4.1015625 1.935 4.1015625 4.1015625s-1.933125 4.1015625-4.1015625 4.1015625c-2.165625 0-4.1015625-1.935-4.1015625-4.1015625s1.9359375-4.1015625 4.1015625-4.1015625zm-3.28125 32.6953125h6.5625v-21.5625h-6.5625z" fill-rule="nonzero"/><path d="m0 .9375h6.5625v25.3125h14.0625v6.5625h-20.625z"/></g></g></svg>