<svg height="90" viewBox="0 0 180 90" width="180" xmlns="http://www.w3.org/2000/svg"><g fill="none" transform="translate(0 23)"><path d="m47.5037594 33.1578947v-20.6390977h6.2932331c3.1804511 0 5.6842105.9473684 7.6466165 2.8421053 1.8947369 1.8947368 2.8421053 4.3984962 2.8421053 7.443609s-.9473684 5.5488722-2.8421053 7.443609c-1.8947368 1.962406-4.4661654 2.9097744-7.6466165 2.9097744zm2.6390977-2.5714285h3.6541354c2.368421 0 4.2631579-.6766918 5.6842105-2.0300752 1.4210526-1.3533835 2.0977444-3.2481203 2.0977444-5.7518797 0-2.4360902-.6766918-4.3308271-2.0977444-5.7518797-1.4210526-1.3533835-3.3157895-2.0977444-5.6842105-2.0977444h-3.6541354zm22.6015038 3.0451127c-2.1654135 0-3.8571429-.7443609-5.2105263-2.1654135-1.3533835-1.4210526-2.0300752-3.2481203-2.0300752-5.4135338 0-2.0300752.6766917-3.8571429 1.962406-5.3458647s2.9774436-2.2330827 5.0075188-2.2330827c2.0977444 0 3.7894737.6766917 5.0075188 2.0300752 1.2857143 1.3533835 1.8947368 3.1804511 1.8947368 5.481203v.4736842h-11.1654135c.0676692 1.4210526.5413534 2.5714286 1.4210526 3.3834587.8796993.81203 1.8947369 1.2180451 3.0451128 1.2180451 1.8947369 0 3.1804512-.8120301 3.8571429-2.4360902l2.368421 1.0150375c-.4736842 1.0827068-1.2180451 2.0300752-2.3007518 2.7744361-1.0827068.7443609-2.3007519 1.2180451-3.8571429 1.2180451zm3.8571429-9.2706766c-.0676692-.8120301-.4060151-1.556391-1.0827068-2.3007519s-1.6917293-1.0827068-3.0451128-1.0827068c-1.0150376 0-1.8270677.3383459-2.5714286.9473684-.7443609.6090226-1.2180451 1.4210527-1.4887218 2.5037594h8.18797zm8.1879699 8.7969924-5.6842105-14.1428571h2.9097744l4.1278195 10.962406h.0676692l4.1954887-10.962406h2.8421053l-5.8195489 14.1428571zm15.2255643.4736842c-2.1654139 0-3.8571433-.7443609-5.2105267-2.1654135-1.3533835-1.4210526-2.0300752-3.2481203-2.0300752-5.4135338 0-2.0300752.6766917-3.8571429 1.962406-5.3458647s2.9774436-2.2330827 5.0075188-2.2330827c2.0977441 0 3.7894741.6766917 5.0075191 2.0300752 1.285714 1.3533835 1.894737 3.1804511 1.894737 5.481203v.4736842h-11.165414c.0676692 1.4210526.5413534 2.5714286 1.4210526 3.3834587.8796993.81203 1.8947369 1.2180451 3.0451128 1.2180451 1.8947366 0 3.1804516-.8120301 3.8571426-2.4360902l2.436091 1.1503759c-.473685 1.0827068-1.218046 2.0300752-2.300752 2.7744361-1.082707.7443609-2.368421 1.0827067-3.924812 1.0827067zm3.857142-9.2706766c-.067669-.8120301-.406015-1.556391-1.082706-2.3007519-.676692-.7443609-1.69173-1.0827068-3.0451131-1.0827068-1.0150376 0-1.8270677.3383459-2.5714286.9473684-.7443609.6090226-1.2180451 1.4210527-1.4887218 2.5037594h8.1879695zm7.105264 8.7969924h-2.639098v-20.6390977h2.639098zm3.789473-12.4511278c1.353384-1.4210526 3.112782-2.1654135 5.210527-2.1654135 2.097744 0 3.857142.7443609 5.210526 2.1654135 1.353383 1.4210526 2.030075 3.2481203 2.030075 5.4135339 0 2.1654135-.676692 3.924812-2.030075 5.4135338-1.353384 1.4210526-3.112782 2.1654135-5.210526 2.1654135-2.097745 0-3.857143-.7443609-5.210527-2.1654135-1.353383-1.4210526-2.030075-3.2481203-2.030075-5.4135338 0-2.1654136.676692-3.9924813 2.030075-5.4135339zm1.962406 9.0676692c.947369.9473684 2.030075 1.4210526 3.248121 1.4210526 1.218045 0 2.300751-.4736842 3.24812-1.4210526.947368-.9473684 1.353383-2.1654135 1.353383-3.7218045s-.473684-2.7744361-1.353383-3.7218045c-.947369-.9473685-2.030075-1.4210527-3.24812-1.4210527-1.218046 0-2.300752.4736842-3.248121 1.4210527-.947368.9473684-1.353383 2.1654135-1.353383 3.7218045s.473684 2.7744361 1.353383 3.7218045zm19.62406 3.8571428c-1.082706 0-2.030075-.2030075-2.909774-.6766917s-1.488722-1.0150376-1.894737-1.7593985h-.135338l.135338 1.962406v6.2255639h-2.639098v-20.368421h2.571429v1.962406h.135338c.406015-.6766917 1.082707-1.2857143 1.894737-1.7593985.879699-.4736842 1.827068-.6766917 2.909775-.6766917 1.827067 0 3.383458.7443609 4.736842 2.1654135 1.353383 1.4210526 1.962406 3.2481203 1.962406 5.3458647 0 2.1654135-.676692 3.924812-1.962406 5.3458646-1.421053 1.4887218-2.977444 2.2330827-4.804512 2.2330827zm-.406015-2.4360902c1.218046 0 2.300752-.4736842 3.180452-1.4210526.879699-.9473684 1.353383-2.1654135 1.353383-3.7218045s-.473684-2.7744361-1.353383-3.7218045c-.8797-.9473685-1.962406-1.4210527-3.180452-1.4210527-1.218045 0-2.300751.4736842-3.180451 1.3533835-.879699.9473684-1.285714 2.1654135-1.285714 3.7218045s.406015 2.7744361 1.285714 3.7218045c.81203 1.0150376 1.894737 1.4887218 3.180451 1.4887218zm15.293234 2.4360902c-2.165414 0-3.857143-.7443609-5.210527-2.1654135-1.353383-1.4210526-2.030075-3.2481203-2.030075-5.4135338 0-2.0300752.676692-3.8571429 1.962406-5.3458647s2.977444-2.2330827 5.007519-2.2330827c2.097744 0 3.789473.6766917 5.007519 2.0300752 1.285714 1.3533835 1.894736 3.1804511 1.894736 5.481203v.4736842h-11.165413c.067669 1.4210526.541353 2.5714286 1.421053 3.3834587.879699.81203 1.894736 1.2180451 3.045112 1.2180451 1.894737 0 3.180451-.8120301 3.857143-2.4360902l2.368421 1.0150375c-.473684 1.0827068-1.218045 2.0300752-2.300752 2.7744361-1.082706.7443609-2.300752 1.2180451-3.857142 1.2180451zm3.789473-9.2706766c-.067669-.8120301-.406015-1.556391-1.082707-2.3007519-.676691-.7443609-1.691729-1.0827068-3.045112-1.0827068-1.015038 0-1.827068.3383459-2.571429.9473684-.744361.6090226-1.218045 1.4210527-1.488722 2.5037594h8.18797zm7.105263 8.7969924h-2.639097v-14.1428571h2.571428v2.3007519h.135339c.270676-.7443609.81203-1.4210527 1.691729-1.8947369.81203-.4736842 1.62406-.7443609 2.43609-.7443609s1.421053.1353384 1.962406.3383459l-1.015038 2.5037594c-.338345-.1353384-.81203-.2030075-1.421052-.2030075-.947369 0-1.827068.406015-2.571429 1.1503759s-1.082706 1.7593985-1.082706 2.9774436v7.7142857zm12.112782.4736842c-1.556391 0-2.909774-.406015-3.924812-1.1503759-1.015037-.7443609-1.759398-1.7593985-2.233082-2.9097744l2.368421-1.0150376c.744361 1.7593985 2.030075 2.6390977 3.857142 2.6390977.812031 0 1.488722-.2030075 2.030076-.5413534.541353-.3383458.81203-.8796992.81203-1.4210526 0-.9473684-.676692-1.556391-1.962406-1.8947368l-2.842106-.6766918c-.879699-.2030075-1.759398-.6766917-2.571428-1.2857143-.81203-.6766917-1.218045-1.4887218-1.218045-2.6390977 0-1.2180451.541353-2.2330827 1.691729-3.0451128 1.082707-.8120301 2.43609-1.1503759 3.924812-1.1503759 1.218045 0 2.368421.2706767 3.31579.8796992 1.015037.5413534 1.691729 1.3533835 2.097744 2.4360903l-2.300752.9473684c-.541353-1.2180451-1.62406-1.8947369-3.24812-1.8947369-.81203 0-1.421053.1353384-1.962406.4736842-.541354.3383459-.81203.7443609-.81203 1.3533835 0 .8120301.609022 1.3533835 1.894737 1.6240602l2.774436.6766917c1.353383.3383458 2.300752.8120301 2.977443 1.556391.609023.7443609.947369 1.6240601.947369 2.5714285 0 1.2857143-.541354 2.3007519-1.556391 3.1804512-1.082707.8796992-2.436091 1.2857142-4.060151 1.2857142z" fill="#757575"/><path d="m2.63909774 14.6842105c-1.4887218 0-2.63909774 1.2180451-2.63909774 2.6390978v11.1654135c0 1.4887218 1.21804511 2.7067669 2.70676692 2.7067669 1.4887218 0 2.70676691-1.2180451 2.63909774-2.7067669v-11.1654135c0-1.4210527-1.21804511-2.6390978-2.70676692-2.6390978zm21.58646616-10.08270674 1.8947369-3.38345865c.0676691-.20300752.0676691-.40601503-.1353384-.47368421-.2030075-.06766917-.406015 0-.4736842.13533835l-1.8947368 3.45112782c-1.556391-.67669173-3.3834587-1.08270677-5.2105264-1.08270677-1.8947368 0-3.6541353.40601504-5.2105263 1.08270677l-1.8947368-3.45112782c-.0676692-.20300752-.3383459-.27067669-.4736842-.13533835-.2030075.06766918-.2706767.33834587-.1353384.47368421l1.8947369 3.38345865c-3.85714289 1.89473684-6.29323312 5.54887214-6.29323312 9.67669174h24.09022552c0-4.1278196-2.5037594-7.7819549-6.1578947-9.67669174zm-11.368421 5.27819549c-.5413534 0-1.0150376-.47368421-1.0150376-1.0150376 0-.54135338.4736842-1.01503759 1.0150376-1.01503759.5413533 0 1.0150376.47368421 1.0150376 1.01503759 0 .60902256-.4736843 1.0150376-1.0150376 1.0150376zm10.962406 0c-.5413534 0-1.0150376-.47368421-1.0150376-1.0150376 0-.54135338.4736842-1.01503759 1.0150376-1.01503759s1.0150376.47368421 1.0150376 1.01503759c0 .60902256-.4736842 1.0150376-1.0150376 1.0150376zm-17.45864664 5.27819545v17.3233083c0 1.556391 1.28571428 2.8421053 2.84210526 2.8421053h1.96240598v5.9548872c0 1.4887218 1.2180451 2.7067669 2.6390978 2.7067669 1.4887218 0 2.7067669-1.2180451 2.7067669-2.7067669v-5.9548872h3.5864662v5.9548872c0 1.4887218 1.2180451 2.7067669 2.6390977 2.6390977 1.4887218 0 2.7067669-1.2180451 2.7067669-2.7067669v-5.887218h1.962406c1.556391 0 2.8421053-1.2857143 2.8421053-2.8421053v-17.3233083zm30.31578944 2.1654136c0-1.4887218-1.2180451-2.6390978-2.6390977-2.6390978-1.4887218 0-2.6390978 1.2180451-2.6390978 2.7067669v11.1654136c0 1.4887218 1.2180452 2.6390977 2.6390978 2.6390977 1.4887218 0 2.6390977-1.2180451 2.6390977-2.7067669z" fill="#78c257"/></g></svg>