<svg height="90" viewBox="0 0 180 90" width="180" xmlns="http://www.w3.org/2000/svg"><g fill="none" transform="translate(0 19)"><path d="m1.20040102 1.1268798h50.52110948c0 16.8410382.0020052 33.6800713 0 50.5211095-16.8410382.0020051-33.6800713 0-50.52110948 0-.00200512-16.8410382-.00200512-33.6800713 0-50.5211095zm3.14804501 3.14804501c.0080205 14.74167319.00601537 29.48334629-.00200513 44.22501949 14.7436783-.0060154 29.4853515-.0060154 44.2270246 0-.0080205-14.7416732-.0060153-29.4833463 0-44.22501949-14.7416731.00802049-29.4833463.00601537-44.22501947 0zm21.56310567 9.52433999c3.148045-.1403587 6.3462182.9343879 8.7242955 3.0096914 3.7235156 3.0758606 5.3195945 8.4295422 3.9320485 13.0493484-.9183469 3.3024395-3.2743678 6.1777876-6.3361925 7.7217333-4.2729196 2.2778211-9.8672162 1.7364375-13.6107831-1.339423-2.7149381-2.1174112-4.4694218-5.4158405-4.7100367-8.8506182-.2726969-3.0999221.677732-6.3001003 2.6106717-8.7403365 2.211652-2.8974044 5.7506962-4.7100367 9.3899966-4.8503954zm-.3970145 3.2001782c-1.8627604.1804612-3.6653671.9343879-5.0970258 2.1394675-2.0271806 1.6682634-3.2904088 4.2207865-3.3826445 6.8454941-.1463741 2.8974045 1.1429208 5.8208756 3.3886599 7.6575693 1.8808065 1.5900635 4.4112732 2.3680517 6.861535 2.1434778 2.5284616-.2005124 4.9426312-1.4918124 6.5226691-3.4728751 1.5238944-1.8667707 2.2698006-4.3390888 2.051242-6.7372173-.1985073-2.5745795-1.5319149-5.0308567-3.5711262-6.6128997-1.888827-1.5038431-4.375181-2.2096469-6.7733095-1.9630166z" fill="#0da940"/><path d="m111.574468 4.24284282c2.221678-.26668152 4.653893.13033307 6.430433 1.57001225 1.726412 1.38754595 2.670826 3.5530801 2.877354 5.72462963.09424 1.7805503.118302 3.6152389-.509302 5.311574-.691768 2.0291857-2.26579 3.7656233-4.292971 4.5135346-1.965022.6877576-4.140581.7178345-6.133675.1343433-1.580038-.4872452-2.975604-1.5439456-3.865879-2.9375069-1.070737-1.6482121-1.459731-3.6573466-1.427649-5.5983068-.016041-2.1655342.517322-4.4293194 1.926925-6.12364936 1.215105-1.51186365 3.07987-2.40815417 4.994764-2.59463072zm.994542 2.7750919c-1.762504.03408711-3.324496 1.25320263-3.970146 2.86131224-.695778 1.65422744-.711819 3.54104934-.352902 5.27748694.384984 1.6822992 1.578033 3.2984293 3.308455 3.7415617 1.197059.2606662 2.542497.2105381 3.603208-.4631836 1.409602-.8481676 2.151498-2.4843489 2.356021-4.0663919.250641-1.9810628.028072-4.1746686-1.269244-5.77275263-.866213-1.10281831-2.295867-1.64620697-3.675392-1.57803275zm30.27136-2.81118414c2.113401-.17845605 4.397237.21454829 6.091567 1.57001226 1.656233 1.28929486 2.616687 3.31647544 2.863318 5.37373286.300768 1.7725298.148379 3.6032082-.324831 5.3316253-.627603 2.1454829-2.211652 4.0463406-4.327058 4.8423749-2.001114.741896-4.240837.7599421-6.278044.1563997-2.219672-.6837473-3.982176-2.550518-4.677954-4.746129-.687758-2.1174111-.701794-4.4212988-.2346-6.586833.451153-2.02317032 1.704356-3.88392558 3.506962-4.93260554 1.026624-.60554751 2.205637-.88225465 3.38064-1.00857748zm.81007 2.81118414c-.906316.05012811-1.834689.28873789-2.554528.86420853-1.084772.8361368-1.730422 2.13144705-1.952991 3.46284955-.401025 2.051242-.132338 4.3631502 1.154951 6.0634956 1.527905 2.0532471 4.930601 2.2096468 6.671049.3488916 1.271248-1.3113513 1.686309-3.2222346 1.626155-4.9987747-.032082-1.7725298-.607552-3.66737215-2.037206-4.81229807-.798039-.68374735-1.874791-.94641863-2.90743-.92837251zm-71.0696224-2.59463072c1.93695-.02005124 3.8739-.00401025 5.8128551-.01203075 1.5258995.02005125 3.1741116.11830233 4.4353348 1.08276708 1.5479559 1.07274145 2.3459953 2.99565556 2.2136571 4.85240057.1443689 2.3500056-1.4356689 4.6318369-3.6673722 5.3556868-1.8046118.5313579-3.7175003.3188147-5.5722402.3629274-.0160409 1.8386989.0100257 3.679403-.0160409 5.520107-1.0707364.0040102-2.1434778.0040102-3.2142142-.0020051-.0040102-5.7186143-.0200512-11.4392336.0080205-17.159853zm3.2162193 2.7249638c.0040102 2.06527793.0040102 4.1305559 0 6.1958338 1.4677509-.0842152 3.0317478.2626713 4.4152835-.3909992 1.9991088-.9664699 2.0692882-4.2889607.1162972-5.34165091-1.4015818-.72384984-3.0237273-.38698897-4.5315807-.46318369zm11.6638075-2.7169433c1.0927927-.03007687 2.1875905-.01804612 3.2823883-.01403587.0761947 2.37206193.0120308 4.74612899.0340871 7.11819097 2.6487691.0060153 5.2995433.0020051 7.9483124.0020051.0100256-2.3680517-.032082-4.73810852.0220563-7.1061602 1.0887825-.03007687 2.1795705-.02606662 3.2703575-.00200513.022056 5.71861423.016041 11.43722843.00401 17.15584273-1.096803.0040102-2.1936055.0060154-3.2904085-.0040103-.0200512-2.4201849 0-4.8403698-.0100256-7.2605547-2.6487691-.0020051-5.295533-.0020051-7.942297 0-.0100256 2.4201849.0080205 4.8423749-.0100256 7.2625599-1.1048234.0060153-2.2096469.0060153-3.3144703 0-.0060154-5.7166092-.0200512-11.4352234.0060154-17.1518325zm34.1151836-.00200513c4.455386-.03007686 8.910772-.01604099 13.364152-.00601537.014036.94641862.014036 1.89484237.002006 2.84326612-1.674279.01804612-3.346553.00200513-5.016821.0080205.018046 4.76618028.020051 9.53035538 0 14.29653558-1.072742.0240615-2.145483.0180461-3.216219.0120308-.010026-4.7701905.002005-9.540381-.006016-14.30856638-1.710371-.01002562-3.422747.02005124-5.133118-.01804612-.028071-.94240837-.030077-1.88481675.006016-2.82722513zm-44.3493376 26.60799823c1.53392-.435112 3.1821321-.5674502 4.7441239-.1924919 2.0632728.4351119 3.9500947 1.8186476 4.8343545 3.7555976.3508967.7398908.4752144 1.5559764.6195833 2.3560209-1.0647209.0441128-2.131447.0280718-3.1981731.0300769-.3168096-1.0807619-.8160855-2.1875905-1.8186476-2.7971483-1.6081096-1.13089-3.9922023-.9424083-5.3837585.4491479-1.2471873 1.2371616-1.7143812 3.0618246-1.6843043 4.7762058-.048123 1.646207.3188147 3.3786343 1.3915562 4.6699343 1.5880583 1.9289295 4.9446362 1.9610115 6.5627715.0541384.469199-.5233375.693773-1.1990643.9343879-1.8447143 1.066726-.0100256 2.1334521-.0220564 3.2001782.0260666-.2446252 1.5379303-.8361368 3.0798708-2.0131447 4.1465969-1.4356689 1.3815305-3.4788905 1.8968475-5.4258661 1.9209089-1.6702685-.0601537-3.4026958-.3709479-4.7701905-1.3955664-1.9269244-1.3454383-2.9294865-3.6573466-3.1741116-5.9371728-.1784561-2.0793138-.0661691-4.2568787.8381419-6.1717723.8341317-1.8046118 2.4181798-3.2823883 4.343099-3.8458282zm76.4413506-.3308455c1.995098-.2245739 4.136571.0942408 5.836916 1.2131001 1.423638.936393 2.436226 2.4101593 2.947533 4.0222792.699788 2.3660466.691768 4.9366158-.050128 7.2906316-.689763 2.0753036-2.295868 3.8779102-4.379192 4.6097806-1.918904.6697114-4.03431.6857524-5.985295.1443689-2.077309-.5955219-3.799711-2.2236827-4.603766-4.2167762-.545393-1.2532026-.697783-2.6206973-.771972-3.9721511-.018047-2.3881029.467194-4.9526567 2.163529-6.7472429 1.215105-1.4015818 3.017712-2.1675393 4.842375-2.3439902zm1.014592 2.7710816c-1.004567.0501282-2.033196.3529019-2.783112 1.04868-1.05269.9163418-1.61212 2.2718057-1.794586 3.6312799-.258661 1.3354128-.088226 2.7169433.302774 4.0062382.475214 1.5038432 1.650217 2.8613123 3.226244 3.2302551 1.341429.2706918 2.865323.128328 3.94809-.7819984 1.471761-1.1850284 2.059263-3.1520553 2.047232-4.9847388.044113-1.8607553-.473209-3.8879358-1.94096-5.1351231-.810071-.7378857-1.92893-1.0346441-3.005682-1.0145929zm-64.7995986-2.5846051c2.049237-.0120307 4.0984739-.0040102 6.149716-.0060153 1.6843043.0421076 3.5250083.1363484 4.8764616 1.275259 1.341429 1.0366492 1.902863 2.7891277 1.756489 4.439345.076195 1.9991088-1.235156 3.8678846-3.0598193 4.6278266 1.2351563 2.2617801 2.4642973 4.5275705 3.6773973 6.8013813-1.257212.0200513-2.51643.0100257-3.7736433.0100257-1.0968029-2.0993651-2.1936058-4.1987301-3.2984293-6.2940849-1.0105826 0-2.0211652-.0020051-3.0297427.0020051-.0080205 2.0953548.0100257 4.1907096-.0100256 6.2860644-1.1048234.0120307-2.2096469.0100256-3.3124652.0020051.0100257-5.714604-.0360922-11.429208.0240615-17.143812zm3.2984293 2.7069177c-.0060153 1.8607553.0020052 3.7215106-.0040102 5.5822658 1.3534588-.0300768 2.7229587.0942409 4.068397-.1283279.8421522-.128328 1.6121199-.7078089 1.9088783-1.5158739.4130555-1.1930489.1864765-2.7750919-.9885263-3.4528239-1.517879-.8561881-3.3325164-.3609224-4.9847388-.4852401zm12.1570683-2.0151498c.00802-.258661-.060154-.7158293.334856-.6857525 3.408711-.0340871 6.819427.0060154 10.228138-.0200512.220564.0380973.535368-.0681742.675727.1724407.080205.8982956.060154 1.8066169-.052133 2.7029074-2.622703-.0340871-5.24741-.0100256-7.870113-.0140359-.00401 1.4296536-.006015 2.8613123 0 4.2909658 2.476329.0060154 4.952657-.0040102 7.430991.0040103.00401.8902751.006015 1.7785451 0 2.6688203-2.478334.0180461-4.954662-.0020051-7.430991.0100256-.00401 1.5198842-.006015 3.0397683 0 4.5576473 2.644759.0280718 5.291523-.0401025 7.936282.0360923.020051.9083212.020051 1.8186476.006015 2.7269689-3.747577.0120307-7.497159.0120307-11.246741 0-.016041-5.4820096.00802-10.9660243-.012031-16.450039zm18.918347-.6897627c1.199064-.016041 2.398128-.0040103 3.599198-.0100257 2.085329 5.6965579 4.066392 11.4332183 6.109613 17.1458171-1.170992.016041-2.33998.0220564-3.508967-.0040102-.457169-1.4316587-.944414-2.8532918-1.395567-4.2869556-2.01916.0120308-4.040325-.0120307-6.059485.0140359-.441127 1.4356689-.934388 2.8552969-1.389551 4.2869556-1.124875.0020051-2.247744.0080205-3.372619-.0060154.804055-2.6227025 1.810627-5.181241 2.704913-7.7758717 1.098808-3.1219784 2.215662-6.2399465 3.312465-9.36393zm-.447143 10.2301437c1.481787.0040102 2.961568-.0100256 4.443355.0120307-.745906-2.2778211-1.477776-4.5576473-2.225688-6.8334633-.677732 2.2938621-1.477776 4.5476217-2.217667 6.8214326zm8.892726-10.2381642c4.226802-.0040103 8.453604.0080205 12.680405-.0080205.222569.0300768.515317-.048123.677732.1644202.0782.9003007.046118 1.808622-.040102 2.7069176-1.688315-.0240614-3.378634-.0100256-5.064944-.0100256-.006015 4.7661803.00401 9.5323605-.006015 14.3005459-1.064721.0040102-2.131447.0040102-3.196168-.0020052-.006016-4.7661802.002005-9.5323604-.004011-14.2985407-1.682299-.0080205-3.366603.0040103-5.048902-.0060154-.052134-.9484237-.054139-1.8988526.002005-2.8472763zm32.918124.0120307c2.005124-.0260666 4.012253-.0060154 6.017378-.0140359 1.549961.048123 3.210204.0822101 4.549627.9724853 2.684861 1.6963351 2.933496 5.8970703.868218 8.1748914-.473209.5373733-1.118859.872229-1.736437 1.2090899 1.181018 2.2738108 2.494374 4.4794475 3.607218 6.7873454-1.243177.0260666-2.484349.0120308-3.725521.0120308-1.072741-2.0953548-2.211652-4.1586276-3.252311-6.2720286-1.04066-.0360922-2.083324-.0220563-3.123984-.0200512-.010025 2.0973599.002006 4.1947198-.006015 6.2920798-1.066726.0040102-2.133452.0040102-3.198173 0-.006015-5.714604-.008021-11.4272029 0-17.1418069zm3.206194 2.6988972c-.010026 1.8607553-.008021 3.7215105-.002006 5.5822658 1.138911-.0120308 2.277822.0441127 3.416732-.0360922.713824-.0541384 1.487802-.1884817 2.009135-.7298653 1.321376-1.2451821.996546-3.8057257-.737886-4.5115294-1.489807-.5774758-3.132004-.2025176-4.685975-.3047789z" fill="#232323"/></g></svg>