<svg height="90" viewBox="0 0 180 90" width="180" xmlns="http://www.w3.org/2000/svg"><g fill="#e60012" fill-rule="evenodd" transform="translate(0 26)"><path d="m20.5346154 0h13.2192308c5.6153846.22307692 11.4884615 1.62692308 15.7538461 5.48846154 3.2653846 2.88461538 5.3538462 7.00384616 5.8961539 11.31538466-2.8884616.0461538-5.7769231.0192307-8.6653847.0192307-.6884615-2.3653846-2.15-4.5153846-4.2692307-5.8076923-2.7884616-1.73076922-6.1269231-2.42692306-9.3846154-2.36923075-3.9307692.02307692-7.8653846-.03461539-11.7961539.03076923-3.4384615.15384615-7.0615384.96153846-9.7115384 3.28846152-2.06923079 1.7923077-3.15384618 4.5615385-2.9269231 7.2846154-.17692308 3.1576923 1.7384615 6.1461538 4.4423077 7.6730769 2.7769231 1.5807693 6.0269231 2.2384616 9.2076923 2.2038462 11.0423077-.0038462 22.0884615-.0115385 33.1346154 0v8.95h-34.2269231c-.9230769-.0961539-1.9153846-.0076923-2.7538461-.4769231-4.9923077-.7307692-10.06538466-2.5307692-13.60769235-6.2730769-2.56153847-2.6153846-4.45-5.9884616-4.84615385-9.6653846v-5.1153847c.25769231-3.8538461 2.2-7.41538457 4.86538462-10.1461538 4.08846153-4.16538462 9.96923078-5.99230769 15.66923078-6.4z"/><path d="m62.3538462 0h34.1153846c4.3423072.20769231 8.7038462 1.20384615 12.4923072 3.38461538 4.419231 2.5 7.888462 6.90769232 8.684616 11.98461542.415384 3.9615384.315384 8.176923-1.680769 11.7384615-2.738462 5.5269231-8.5 8.9307692-14.403847 10.0769231-.903846.2038461-1.8769226.1961538-2.6923072.6730769-1.9153846.2423077-3.85.15-5.773077.1692308-3.9884615-.0807693-7.9923076.1769231-11.9692307-.1730769-1.6576923-.7115385-3.5423077-.6769231-5.2153846-1.3846154-5.4692308-1.6307693-10.4269231-5.473077-12.573077-10.8653846-.7615384-1.7615385-1.0846153-3.6846154-.9923077-5.6038462.0192308-6.6653846 0-13.33461538.0076924-20zm8.6230769 8.65384615c.0269231 3.78461535.0076923 7.56538465.0076923 11.34615385-.0692308 1.9730769.8846154 3.8615385 2.2692308 5.2230769 2.7307692 2.8153846 6.7884615 3.7538462 10.5807692 3.8769231 4.2384615.0384615 8.4807692.0307692 12.7192308.0076923 4.3769228-.1769231 9.2346158-1.6730769 11.6038458-5.65 1.153846-1.7038461.934616-3.8153846.923077-5.7615385.019231-2.3461538-1.353846-4.5-3.153846-5.9153846-2.846154-2.25769228-6.5576922-3.12692305-10.1346153-3.12692305-8.2730769-.0076923-16.5461539-.01153846-24.8153846 0z" fill-rule="nonzero"/><path d="m145.157692 0h13.23077c5.796153.21923077 11.86923 1.74230769 16.161538 5.86153846 2.953846 2.78461539 4.838462 6.60769234 5.45 10.60769234v.3461538c-2.880769.0230769-5.761538.0076923-8.638462.0115385-.803846-3.0461539-3.1-5.5653846-6.007692-6.7346154-4.580769-2.10384616-9.715384-1.28076924-14.584615-1.44615385-4.726923-.06538462-9.938462-.16923077-13.919231 2.79230765-4.619231 3.2384616-4.926923 10.973077-.511538 14.5115385 2.730769 2.2 6.330769 3.0538462 9.776923 3.1653846 11.296153.0153846 22.588461.0038462 33.884615.0076923v8.9538462h-34.169231c-.930769-.1-1.926923-.0038462-2.765384-.4807693-2.442308-.3807692-4.869231-.9461538-7.146154-1.9230769-4.926923-2.0076923-9.011539-6.1576923-10.707693-11.2230769-.8-2.2961538-.484615-4.7615385-.542307-7.1423077-.107693-4.1230769 2-7.98846153 4.807692-10.88076922 4.076923-4.18846154 9.973077-6.01923077 15.680769-6.42692308z"/></g></svg>