<svg height="90" viewBox="0 0 180 90" width="180" xmlns="http://www.w3.org/2000/svg"><path d="m176.196373 56.5290155c0-.2508808-.110984-.5148186-.332953-.6407253-.223835-.1324353-.473783-.1454923-.724664-.1454923h-1.29544v2.9723316h.362798v-1.3709844h.668705l.848704 1.3709844h.431814l-.898135-1.3709844c.529741-.0149223.939171-.2303627.939171-.8151296zm-1.433471.5288083h-.557721v-1.051088h.848705c.369326 0 .774093.0559585.774093.5157512.000933.605285-.648186.5353368-1.065077.5353368zm-15.520104-14.8989637 5.437306-5.8056995c.315233-.4262176.471917-.7246632.471917-.9802072 0-.4262176-.366529-.5968912-1.519275-.5968912h-1.371917v-3.665285h14.849534v3.665285h-1.951088c-2.253265 0-2.672021.3404145-5.815959 4.3041451l-8.601762 9.2891191v5.6686011c0 1.450259.732125 1.9604145 2.828705 1.9604145h3.247461v3.5365803h-20.79886v-3.5365803h3.247461c2.094715 0 2.828705-.5101555 2.828705-1.9604145v-5.6686011l-10.131295-11.2075647c-1.674094-1.9594819-1.442798-2.3856995-6.104146-2.3856995v-3.665285h18.809534v3.665285h-1.339274c-1.362591 0-1.939897.255544-1.939897.7666321 0 .4271503.418757.7675648.680829 1.1079793l5.125803 5.5865285c.609016.6332642 1.352332.7153368 2.046218-.078342zm-126.2023835-11.0490155h4.5373057v10.2273575h-4.1903627c-.3711917-2.0443524-1.6507772-2.8398964-2.8175129-3.9124353-2.1049741-1.9343005-6.6637306-3.5449741-10.4978239-3.5449741-4.948601 0-9.1249741 1.5351296-9.1249741 3.7921244 0 6.2654922 28.3010363 1.2795855 28.3010363 13.1260104 0 6.1787564-6.0621762 9.6304663-16.9489119 9.6304663-3.7688083 0-9.4719171-1.1695337-12.83689121-2.9564767-1.05481865-.6090155-1.50248704.5763731-1.70020725 2.0620725h-4.65202073v-10.5687046h4.20808291c.92797927 2.6850777 2.20663212 3.2381347 3.38269428 4.3041451 2.0406218 1.875544 6.8978238 3.24 11.3521244 3.1961658 6.7159585-.0662177 9.0251813-1.5341969 9.0251813-3.665285 0-2.1301555-2.2840414-2.6421762-9.6435233-3.7921244l-6.2487047-1.0231088c-7.05170981-1.0660103-12.1859067-2.6421761-12.1859067-8.266943 0-5.838342 6.49492228-9.5036269 16.7642487-9.5036269 4.3274611 0 7.9479793.5782383 11.4230052 2.5423834.962487.6258031 1.865285.7004145 1.8531606-1.6470466zm88.5488085 17.123316.089533-11.3670466c0-1.4912953-.775958-2.0023834-2.992849-2.0023834h-2.604871v-3.5365803h16.573057v3.5365803h-2.16c-2.218756 0-2.994715.5120207-2.994715 2.0023834v22.8842487l-6.486528-.0512953-21.00684-19.8923316v14.4466321c0 1.4493264.775959 2.0023834 2.99285 2.0023834h2.883731v3.4946114h-17.2119174v-3.4946114h2.8520207c2.2168912 0 2.9928497-.5539896 2.9928497-2.0023834v-17.3872539c0-1.4912953-.7759585-2.0023834-2.9928497-2.0023834h-2.8520207v-3.5365803h14.8812434zm-55.513679-18.2331606c-13.2080829 0-21.4759585 5.8392746-21.4759585 15.2132642 0 9.206114 8.1531606 15.0006218 21.073057 15.0006218 13.7229015 0 21.7053886-5.7096373 21.7053886-15.4688083.0009326-8.7780311-8.6129534-14.7450777-21.3024871-14.7450777zm-.3003108 26.5075648c-7.3109845 0-11.5134715-4.2192746-11.5134715-11.506943 0-7.1160622 4.3852849-11.3353368 11.8790673-11.3353368 7.1888083 0 11.3912954 4.3050777 11.3912954 11.634715 0 7.1589637-4.2640415 11.2075648-11.7568912 11.2075648z"/></svg>