<svg height="90" viewBox="0 0 180 90" width="180" xmlns="http://www.w3.org/2000/svg"><g fill-rule="evenodd" transform="translate(0 28)"><g fill-rule="nonzero"><path d="m26.4572519 1.71068702c2.5625954-1.11984732 5.4206107-1.8961832 8.2270992-1.41526717 1.528626.27137404 2.8545802 1.54580152 2.9885497 3.1259542.3984732 3.09847328-1.6248092 5.79503816-3.6412214 7.91106865-3.929771 3.867939-8.8694657 6.6606871-14.1217557 8.2854962-2.9335878.9240458-6.0423664 1.2057252-9.0961832.8725191-.92404584 2.9679389-1.51488554 6.3687023-.0206107 9.2576336 1.0374046 2.0919847 3.390458 3.2358779 5.6645038 3.2290076 3.5862595.0068703 7.0316794-1.4633587 9.9137404-3.5244274.5152672-.3332062 1.6316794-1.1164123 1.5045802.0790076-2.2534351 2.3770992-5.4137405 3.8129771-8.5774809 4.5377862-3.2874046.7282443-7.3064886.1751909-9.42938933-2.7034351-2.34618321-3.2393129-1.83778626-7.5881679-.66641221-11.1778626-2.76526718-.6767175-5.6129771-1.8171755-7.40954199-4.1290076-2.06450382-2.5694656-2.08167939-6.41679389-.36412214-9.17175572 1.44618321-2.31870229 3.96068703-3.77862595 6.57137405-4.40381679 2.83740462-.65954199 6.08358782-.58740458 8.49503812 1.24351145-.0721374.18206107-.2164122.5461832-.2885496.72824427-2.2946565-.94465649-4.8469465-1.4221374-7.30305341-.87251908-2.5110687.52900763-4.95 1.94427481-6.26564885 4.20458015-1.45648855 2.46297712-1.17137405 5.86717562.79694656 7.97290072 1.60076336 1.8 3.94351145 2.6622138 6.21755726 3.239313 1.71068704-3.8816794 4.19770994-7.4061068 7.19656484-10.39465647 2.7755726-2.82366412 5.99771-5.24885496 9.6080153-6.89427481zm-.6973282 1.73473283c-6.3721374 3.49694656-11.5591603 9.14770995-14.4824428 15.80496185 6.5061069.7179389 12.8267176-2.0748092 18.1030535-5.6473283 2.8270992-2.0576336 5.7229007-4.53778622 6.7740458-8.00038164.5290076-1.55954199-.0446565-3.72366413-1.8480917-4.08778626-2.9645038-.52213741-5.9324427.61832061-8.5465648 1.93053435z"/><path d="m114.681298 4.78167939c1.023664-.45343512 2.425191-.6629771 3.277099.23015267.75229.84503817.518702 2.10572519-.041221 2.9851145-1.013359 1.67633588-2.414886 3.07786264-3.830153 4.41755724-2.435496 2.2637405-5.015267 4.3660306-7.64313 6.4030535-.728244.5255725-1.250382 1.2709923-1.734733 2.0129771 2.009542-1.4599237 3.88855-3.2496184 6.296565-4.0293894 1.064886-.422519 2.53168.1889313 2.638168 1.4152672.29542 1.9683206-.882824 3.7167939-1.982061 5.2248092 1.446183-.5290077 2.930153-1.0958016 4.084351-2.1503817.690458-.6114504 1.027099-1.4977099 1.508015-2.2637405.948092-1.4221374.985878-3.3767175 2.442367-4.4587786 1.810305-1.6866412 5.537404-2.0438931 6.688168.5564886 1.082061 2.7377862-.532443 5.4893129-2.164122 7.6122137 1.082061-.2610687 2.215649-.4946565 3.122519-1.1816794.992748-.6698473 1.408397-1.8412214 2.023282-2.8167939.721374-1.1645038.800382-2.6622137 1.772519-3.6824427 1.432443-1.6076336 3.964122-2.3908397 5.942748-1.35 1.401527.8003816 1.765649 2.6141221 1.525191 4.1015267-.185496 1.5973282-1.099236 2.9679389-1.95458 4.2835878 1.851527-.4671756 3.555344-1.4599237 4.771374-2.9438932 1.435878-1.501145 2.184733-3.4935114 3.507252-5.070229.346947-.7179389 1.617939-.2095419 1.332824.5496184-.60458 1.1782442-1.940839 2.2706106-1.456488 3.7408397.508397 1.6041984 1.20229 3.1671755 1.301908 4.8778625 1.63168-.7660305 3.654962-1.5217557 4.287023-3.390458.776336-2.1057252 1.889313-4.0568702 3.053817-5.9667939-1.466794-.2232824-2.926718-.0377862-4.379771.1751909.133969-.3709924.171756-.8725191.608015-1.0236641 1.384351-.6217558 2.957634-.2541985 4.414122-.14771 1.487405-1.982061 2.823665-4.12557249 4.6271-5.83969462.192366.01717557.583969.05839694.776336.07557252.261068.83473282-.45 1.4221374-.88626 2.03015267-1.064886 1.27442743-2.071374 2.60038163-3.022901 3.96412213 1.35687.178626 2.720611.3022901 4.077481.508397-.340076.2541984-.511832.8175572-.975572.8484732-1.274428.0652672-2.535115-.1923664-3.795802-.3332061-1.875572 3.0984733-4.012214 6.4614504-3.806107 10.229771.013741 1.4805344 1.398092 2.2328244 2.301527 3.1740458-.965267-.0549618-2.033588-.1889313-2.679389-.9996183-1.085497-1.1026718-1.064886-2.730916-1.03397-4.170229-1.167939.810687-2.456107 1.4221374-3.816412 1.8412214-.920611 2.0061068-3.390458 3.3767175-5.503053 2.3358778-1.119848-.4259542-1.267558-2.2774809-.082443-2.7068702 1.466794-.3984733 3.01603-.178626 4.51374-.3709924-.01374-1.8137404-.841603-3.4385496-1.422137-5.1148855-1.679771 2.6141222-4.417557 4.6854962-7.632825 4.7129771-1.65229 1.3019084-3.74771 2.820229-5.956488 2.0267176-1.19542-.3812977-1.63855-1.6419847-1.854962-2.7515267-1.387786 1.051145-3.108779 1.2641221-4.785114 1.3980916-1.604199.841603-3.397329 2.1160305-5.290077 1.3534351-1.236641-.3641221-1.676336-1.6557252-1.851527-2.7996183-1.559542 1.2400763-3.479771 1.7931297-5.369084 2.2946565-1.52519.9377862-2.981679 2.1435114-4.81603 2.3908397-1.068321.1374045-2.600382.271374-3.112214-.9343512-.350381-.8381679.343512-1.6729008 1.147328-1.8549618 1.954581-.5736641 4.02252-.4431298 6.032062-.6011451 1.277862-1.4461832 2.693129-3.2290076 2.308396-5.2900763-.508396-.5187023-1.226335-.1992366-1.793129.0206107-2.751527 1.2503817-4.908779 3.4282443-7.062596 5.4927481-.271374-.3984733-.539313-.7969466-.807252-1.198855-1.937404 1.4599237-4.2011447 2.7549619-6.701908 2.7240458-1.439313.0480916-3.0400764-.7041984-3.5209924-2.1435114-.5942748-1.7141222.1751908-3.5519084 1.2194657-4.919084 1.3328244-1.6969466 3.1328244-3.1156489 5.2316793-3.7064885 1.0099237-.267939 2.4354964-.2026718 2.9164124.9034351.45 1.1198473-.44313 2.1572519-1.264122 2.8064885-2.1022904 1.6282443-4.6339697 2.5385496-7.0385499 3.6068702.271374.8450382.5564885 1.9064886 1.559542 2.1263359 1.9030534.4019084 3.8816794-.2335878 5.5442749-1.1541984 1.260687-.7419848 2.593511-1.5973283 3.222137-2.9782443 1.724428-3.5587786 3.606871-7.0557252 5.904962-10.28129773 1.394657-1.87557252 2.919847-3.8129771 5.087405-4.82633588zm-1.518321 2.60038168c-2.864885 2.96793893-4.884733 6.61946563-6.918321 10.17824423 3.074428-2.4938931 6.183207-4.9774809 8.879771-7.89045797.711069-.79351145 1.408397-1.62824428 1.861833-2.6038168.206106-.50152671.422519-1.34656488-.343512-1.43931297-1.374046-.14427481-2.531679.88625954-3.479771 1.75534351zm6.358397 8.96221373c1.439313-.5152672 3.29084-1.9751908 4.702672-.6801527-1.885878.4809161-3.929771 1.1335878-5.046183 2.8614504.120229 1.8961832 1.707252 3.2221374 3.338931 3.9194657 1.494275-1.49771 2.868321-3.3835878 2.868321-5.5923664.02061-1.1507634-.820993-2.4389313-2.085115-2.3530535-1.508015-.1133588-2.730916.9068702-3.778626 1.8446565zm11.943893-.0103053c1.367176-.5908397 2.768702-1.4049619 4.321374-1.1782443.024046.1477099.068703.4465649.092748.5942748-1.879007.4053435-3.627481 1.2778626-4.877862 2.7721374.298855.7694657.529007 1.6041985 1.133588 2.2019084.721374.7557252 1.769083 1.0339695 2.724045 1.3740458 1.243512-1.4908397 2.497329-3.2221374 2.462977-5.2522901.017176-1.1198473-.779771-2.3736641-2.002671-2.3427481-1.528626-.1442748-2.792748.8759542-3.854199 1.8309161zm-37.6282441 4.05c2.5248092-1.1267176 5.6438931-1.9958016 6.9801531-4.6614504-3.1087791-.4706107-5.5992371 2.1812977-6.9801531 4.6614504zm24.0767171 3.2461832c1.054581 1.020229 2.535115.1030534 3.648092-.329771-1.408397-.8416031-2.610687-1.9889313-3.383588-3.448855-.350381 1.1919848-1.064885 2.6209924-.264504 3.778626zm11.967939.0446565c1.322519 1.0580152 2.895802-.1614504 4.135878-.7557252-1.621374-.5599237-3.077862-1.559542-3.90916-3.0950382-.367557 1.2125954-1.071756 2.6896947-.226718 3.8507634zm-26.357633 1.7965648c1.614504 1.2400764 3.582824-.0240458 5.087404-.8175572-1.717557.0618321-3.527862-.0274809-5.087404.8175572zm36.769465-.4637404c1.133588 1.5423664 3.112214.659542 4.159924-.4740458-1.401527-.0206107-2.823664 0-4.159924.4740458z"/><path d="m77.2007634 7.44732824c.3709923-.64236641 1.5286259-.52557251 1.2709923.3778626-1.2332061 1.82748092-2.7480916 3.45229006-3.9709923 5.29007636 1.3568702.1889313 2.7206106.3160305 4.0774809.5187023-.3572519.3469465-.6389313.9412213-1.2332061.8622137-1.1919848-.0068702-2.3667939-.209542-3.5484733-.3538168-1.8824428 3.1087786-4.019084 6.478626-3.7820611 10.260687-.0103053 1.4461832 1.3259542 2.2122138 2.2946565 3.0229008-.8038168.0377863-1.7038168.0790076-2.3187023-.5324427-1.3396946-1.0545802-1.5251908-2.878626-1.4255725-4.4587787-1.2881679 1.0958016-2.8545802 2.4217557-4.6751908 1.9992367-1.2538168-.2748092-1.6419848-1.6076336-1.978626-2.669084-1.4152672 1.4736641-2.9129771 2.9782443-4.829771 3.7820611-.8553435.3263358-1.9580153.4019084-2.6828244-.2473283-.6698473-.6080152-.4774809-1.5973282-.5564886-2.3977099-2.2190839 1.8480916-5.1183206 3.5209924-8.1068702 2.7858779-1.4770992-.3435115-2.2534351-1.7828245-2.4698473-3.177481-1.5698474 1.2984733-3.2496183 2.8374046-5.3931298 2.9576336-1.1919847.1167939-2.3255725-.9377862-2.1125954-2.160687.3091603-2.2706107 2.3049618-3.7442748 3.2083969-5.760687-.6767175-.4740458-1.3637404-.9377863-2.0645038-1.3774809-1.2503817 1.532061-2.3805343 3.1706107-3.7339695 4.620229-.3125954.480916-.8793893.3950381-1.3706106.3572519 1.4564885-2.0816794 3.2255725-3.9641222 4.3866412-6.2450382.5427481-1.0717557.8072519-2.339313 1.7038168-3.1980916.5839694-.1408397 1.0099236.3538168 1.470229.6148855-.6080153.9240458-1.2950382 1.7862596-1.9374046 2.6793893.930916.6835878 1.9717557 1.2091603 2.8854962 1.9167939.1923664 2.789313-3.9400763 4.3385496-3.0125954 7.2755725 1.8377862.6526718 3.5381679-.8656488 4.8812977-1.9442748 1.6591603-1.2469465 2.2637404-3.3732824 3.8370229-4.7026717 1.4290076-1.2812977 3.1980916-2.4354962 5.1835878-2.4389313.9412213-.0515267 1.9683206.6938931 1.8927481 1.7072519-.089313 1.0099236-.869084 1.7793893-1.6557252 2.3324427-2.0198474 1.3946565-4.3729008 2.188168-6.7053435 2.8820611.0480916 1.1164122.4774809 2.4114504 1.7450381 2.6038168 2.6209924.3366412 5.128626-1.0339695 7.0866412-2.6587786 1.3637405-1.0614504 2.0713741-2.7068703 3.3458016-3.8576336 1.8171755-1.6935115 4.1152671-3.1431298 6.6744275-3.1774809 1.1095419-.0309161 2.55229.601145 2.5625954 1.8824427.1339694.7351145-.5049619 1.198855-.9755725 1.6351145-.2129771-.8072519.1477099-2.2019084-1.0064886-2.3736641-2.0885496-.1442748-4.0259542.989313-5.5923664 2.2671756-1.5938931 1.4049618-3.1122138 3.2015267-3.3492367 5.3862595-.1545801.779771.7145039 1.051145 1.3053436.8003817 1.6488549-.5667939 2.9473282-1.8137405 4.1324427-3.0469466.989313-1.0064885 1.6763359-2.3015267 2.8305344-3.1465649.1408397.1408397.4293893.4225191.570229.5633588-.2885497 1.229771-1.1645038 2.5248092-.5049619 3.7889313.4259542.9790076 1.7038168.8656489 2.4870229.4122138 1.4324428-.8106871 2.8717558-1.9167939 3.3904581-3.5519084.7660305-1.9854962 1.8137404-3.8404581 2.9232824-5.6473283-1.5045802-.2438931-3.0125954-.0927481-4.4931298.209542.3057252-.4980916.5358779-1.1954199 1.2125954-1.2812977 1.2984733-.2816794 2.638168-.058397 3.9435115.0480916 1.3396946-1.8480916 2.6347328-3.74770993 4.1839695-5.43435116zm-31.9912214 13.30419846c2.5557252-.8519084 5.671374-1.679771 6.8839695-4.3625954-2.998855-.5255725-5.4549619 2.0198473-6.8839695 4.3625954z"/></g><path d="m81.2438931 10.1438931c.3950382-.34694654.9961832-.20267173 1.3087787.1854962.1064885.9618321-.6114504 2.2122138-1.7141222 1.9408397-.7522901-.5942748-.1854962-1.6385496.4053435-2.1263359z"/><path d="m172.422137 12.0057252c.412214-.6732825 1.298474-.240458 1.508016.3812977-.305726 1.0133588-1.161069 1.7450382-1.738168 2.6072519.999618.7454199 2.184733 1.2503817 3.053817 2.160687-.487787 2.4870229-3.287405 3.8919848-3.387023 6.5198474.206106.8622137 1.226336.8038168 1.892748.5805343 2.195038-.7316794 3.727099-2.5694656 5.324427-4.1358779.182061.1202291.546183.3606871.728244.4809161-1.641984 1.9545801-3.60687 3.809542-6.045801 4.6786259-1.264122.5530535-3.177481-.0137404-3.218702-1.5973282.01374-2.4698473 2.311832-3.9984733 3.180916-6.148855-.666413-.4740458-1.34313-.9343511-2.026718-1.3877862-2.528244 3.2427481-5.001527 6.780916-8.776717 8.6770992-1.837787.9687023-4.221756 1.5561069-6.13168.4774809-1.669465-.9824427-1.772519-3.2908397-1.003053-4.8847328 1.123282-2.3152672 3.229007-4.1358779 5.630152-5.0290076 1.164504-.4293894 2.885497-.5255726 3.510687.7935114.309161 1.0374046-.357251 2.0164122-1.143893 2.6278626-2.064504 1.6591603-4.64771 2.4526718-7.141603 3.2152672.116794.9274809.267939 2.0988549 1.298474 2.4526717 1.545801.539313 3.232442-.0103053 4.67519-.6286259 3.400764-1.590458 5.647329-4.7473283 7.694657-7.7667939.889695-1.260687 1.157633-2.8614504 2.11603-4.0740458zm-15.3 8.7526717c1.988932-.5977099 3.991603-1.3362595 5.657634-2.6072519.625191-.4396946.875954-1.1782442 1.112977-1.8687023-2.974809-.2438931-5.331298 2.1366413-6.770611 4.4759542z" fill-rule="nonzero"/><path d="m90.8725191 12.7030534c1.0030534.659542 1.7038168 1.7862596 1.3912214 3.0160306-.6354962 3.5038168-3.270229 6.2862595-6.0629771 8.3129771-1.2194657.7591603-2.7446565 1.8103053-4.2148855 1.1267175-.9412214-.4156488-1.0099237-1.5148855-1.0751909-2.4045801-1.3534351 1.0648855-2.820229 2.1778626-4.589313 2.3633588-1.1061068.1648854-2.4389313-.5358779-2.5454198-1.7347329-.1717557-1.6385496.6801527-3.1362595 1.4633588-4.5068702.8484733-1.3637405 1.7347328-2.7687023 3.0435114-3.7442748.6389313.0618321.8244275.3469466.5496183.8587786-1.3259542 2.1572519-3.3492366 4.0706107-3.6996183 6.6950382-.2198473.869084.7213741 1.5835878 1.5251909 1.3465649 1.9751908-.3950382 3.6-1.7896947 4.9465649-3.2152672 1.2160305-1.9374046 2.1744274-4.1221374 3.9538167-5.6370229.3435115.1374046.6801527.2885496 1.0133588.4568702-1.5767175 2.4251909-3.720229 4.7198473-4.1599236 7.6809161-.120229 1.0786259 1.2125954.8690839 1.7931297.4603053 2.638168-1.4942748 4.8332061-3.8473282 6.1316794-6.5919847.7213741-1.3912214.539313-2.9782443.5358779-4.4828245z"/></g></svg>