<svg height="90" viewBox="0 0 180 90" width="180" xmlns="http://www.w3.org/2000/svg"><g fill="#00b4f8" fill-rule="evenodd" transform="translate(0 14)"><path d="m48.072426.203697h13.67678v61.545508h-13.67678z"/><path d="m147.214528.20369672c-16.994126 0-30.758204 13.76407828-30.758204 30.75820448s13.764078 30.7291049 30.758204 30.7291049 30.758205-13.7640783 30.758205-30.7582045-13.734979-30.72910488-30.758205-30.72910488zm0 47.83962928c-9.428248 0-17.081425-7.6531767-17.081425-17.0814248s7.653177-17.0814248 17.081425-17.0814248 17.081425 7.6531767 17.081425 17.0814248-7.624077 17.0814248-17.081425 17.0814248z" fill-rule="nonzero"/><path d="m.20369672.20369672v13.67677968 34.1628496 13.6767796h13.67677968 23.9489141v-13.6767796h-23.9489141v-10.243035h20.5151694v-13.6476801h-20.5151694v-10.2721345h23.9489141v-13.67677968h-23.9489141z"/><path d="m112.906181 50.1966913-3.230048-5.58711c-2.851754 2.1533653-6.430996 3.4628442-10.301234 3.4628442-9.4282481 0-17.0814248-7.6531767-17.0814248-17.0814248s7.6531767-17.0814248 17.0814248-17.0814248c3.870238 0 7.44948 1.2803794 10.301234 3.4628442l3.230048-5.58711c.174597-.3200948.378294-.6692892.581991-.989384l3.05545-5.29611471c-4.91782-3.31734655-10.795926-5.23791561-17.168723-5.23791561-16.9941262 0-30.7582045 13.76407822-30.7582045 30.75820442s13.7640783 30.7582045 30.7582045 30.7582045c6.372797 0 12.250903-1.9205691 17.168723-5.2379156l-3.05545-5.2961147c-.174598-.3782939-.407394-.7274883-.581991-1.0475831z"/></g></svg>