<svg height="90" viewBox="0 0 180 90" width="180" xmlns="http://www.w3.org/2000/svg" xmlns:xlink="http://www.w3.org/1999/xlink"><linearGradient id="a"><stop offset="0" stop-color="#505d70"/><stop offset="1" stop-color="#28313c"/></linearGradient><linearGradient id="b" x1="50.001774%" x2="50.001774%" xlink:href="#a" y1=".001864%" y2="99.998929%"/><linearGradient id="c" x1="50.001611%" x2="50.001611%" xlink:href="#a" y1=".001864%" y2="99.998929%"/><linearGradient id="d" x1="50.000806%" x2="50.000806%" xlink:href="#a" y1=".000302%" y2="100.000722%"/><linearGradient id="e" x1="49.998152%" x2="49.998152%" xlink:href="#a" y1="-.000829%" y2="100.000725%"/><linearGradient id="f" x1="49.999567%" x2="49.999567%" xlink:href="#a" y1="-.000829%" y2="100.000725%"/><linearGradient id="g" x1="50.001126%" x2="50.001126%" xlink:href="#a" y1="-.000829%" y2="100.000725%"/><linearGradient id="h" x1="49.999972%" x2="49.999972%" xlink:href="#a" y1="-.000829%" y2="100.000725%"/><linearGradient id="i" x1="30.317679%" x2="69.066309%" xlink:href="#a" y1="12.093324%" y2="88.126648%"/><linearGradient id="j" x1="50.001885%" x2="50.001885%" xlink:href="#a" y1=".000114%" y2="100.000681%"/><linearGradient id="k" x1="50.000437%" x2="50.000437%" xlink:href="#a" y1=".000485%" y2="99.999022%"/><linearGradient id="l" x1="49.999737%" x2="49.999737%" xlink:href="#a" y1=".000567%" y2="100.000469%"/><linearGradient id="m" x1="50.002741%" x2="50.002741%" xlink:href="#a" y1=".000567%" y2="100.000469%"/><mask id="n" fill="#fff"/><mask id="o" fill="#fff"/><mask id="p" fill="#fff"/><mask id="q" fill="#fff"/><mask id="r" fill="#fff"/><mask id="s" fill="#fff"/><mask id="t" fill="#fff"/><mask id="u" fill="#fff"/><mask id="v" fill="#fff"/><mask id="w" fill="#fff"/><mask id="x" fill="#fff"/><mask id="y" fill="#fff"/><g fill="none" fill-rule="nonzero"><path d="m1.33744186 3.81732559v-3.21104652h-1.19930232v-.4294186h2.88523256v.4294186h-1.20418605v3.21104652z" fill="url(#b)" mask="url(#n)" transform="translate(170.930233 31.093489)"/><path d="m2.84058139.17686047-.87209302 2.53290698c-.08790697.25674418-.15209303.4510465-.19360466.58325581-.03627905-.11930233-.09453487-.29825582-.17372092-.53860466l-.86162791-2.57755813h-.72523255v3.64046512h.46430232v-3.09906978l1.05313954 3.09906978h.43465116l1.05767441-3.04709303v3.04709303h.46430234v-3.64046512z" fill="url(#c)" mask="url(#o)" transform="translate(174.418605 31.093489)"/><path d="m3.82186046.67674419c-.72488372.30139534-1.36709302.72802325-1.90813953 1.26941859-.4077907.40674419-.73569767.83162792-.97534884 1.26244187-.24383721.43813954-.42488372.93453489-.53930232 1.47558139-.10988372.5155814-.1772093 1.12011629-.19953489 1.79546513-.02197674.63837209-.03348837 1.41593023-.03348837 2.30999999 0 .8933721.01151163 1.67023254.03348837 2.30860464.02232559.6756977.08930233 1.2798837.19883721 1.7947675.11511628.5431395.29651163 1.0402325.54 1.4766279.24034884.4322092.56860466.8567441.97534884 1.2624418.54139536.542093 1.18360466.968721 1.9077907 1.2690699.72662791.3027906 1.55197675.4559301 2.45302325.4559301.90174419 0 1.72360465-.1534884 2.44290698-.4566279.71686047-.3003489 1.35523254-.7273256 1.89662794-1.2687209.4053488-.4056976.7329069-.8302325.9746511-1.262093.2424419-.4343024.4241861-.9313954.54-1.4766279.1077907-.5096512.1782558-1.1110466.2096512-1.7870931.0293023-.649186.0439535-1.42883718.0439535-2.31627904 0-.89023256-.0146512-1.66988371-.0443023-2.31872092-.0310466-.67534884-.1015117-1.27639536-.2093024-1.7867442-.1154651-.54279069-.2975581-1.04023256-.5406976-1.47802326-.24-.42837208-.567907-.85255813-.9746512-1.2610465-.54-.53895349-1.17802326-.96593023-1.8955814-1.26732558-.72069767-.30348837-1.54255814-.45697675-2.44325582-.45697675-.89965117 0-1.72465116.15313954-2.45267442.45593024m.2605814 12.93697671c-.1922093-.1915116-.34639534-.4018604-.45837209-.6258139-.11511629-.2309303-.2044186-.5169768-.26511628-.8504651-.06558139-.3596512-.10988373-.8103489-.13116279-1.3395349-.02127907-.5595349-.03244187-1.23523258-.03244187-2.00825584 0-.7744186.0111628-1.45011627.03244187-2.00790698.02093023-.52988372.0655814-.98127907.13151163-1.34232557.06034884-.33279071.14930232-.61813953.26476744-.84872094.1116279-.22325582.26616279-.43395348.45906976-.62755813.59686047-.59686047 1.31372093-.88639535 2.19139535-.88639535.87767442 0 1.59418604.28953488 2.19069768.88604651.19325582.19430233.34813953.40569767.4594186.62755813.11476745.22883721.20372093.5155814.26511629.85046513.06558139.35930232.10988371.81034883.13151163 1.33953488.02093023.55639535.03209301 1.23209301.03209301 2.00930232 0 .77651163-.01116278 1.45186044-.03209301 2.00686044-.02197675.5319768-.06627908.9830233-.13151163 1.3409303-.06139536.3348837-.15069768.621279-.26546513.8508139-.11093023.2225582-.26546511.4332558-.45872093.6261628-.59651162.5972093-1.31337209.8874419-2.19104651.8874419-.87767442 0-1.59488371-.2909302-2.19209302-.8881396" fill="url(#d)" mask="url(#p)" transform="translate(62.441861 36.674884)"/><path d="m.34116279.13360465v16.87465115h3.02895349v-6.8351163h6.79255812v-2.85593019h-6.79255812v-4.3283721h7.96848832v-2.85523256z" fill="url(#e)" mask="url(#q)" transform="translate(76.744185 37.023721)"/><path d="m6.22674419.13360465-6.18418605 16.80383725-.02616279.0708139h3.23511628l1.24081396-3.5047674h5.79837211l1.2401163 3.5047674h3.2347674l-6.1733721-16.84011627-.01290697-.03453488zm1.17313952 5.11290697 1.90674419 5.44569768h-3.82744185z" fill="url(#f)" mask="url(#r)" transform="translate(86.860465 37.023721)"/><path d="m9.31046511.13360465-6.23372092 7.67511628v-7.67511628h-3.02965117v16.87465115h3.02965117v-4.7504651l2.47430232-2.98465116 4.4138372 7.70825576.01534884.0268605h3.55709305l-5.93755816-10.13616277 5.41883726-6.65232559.0701162-.08616279z" fill="url(#g)" mask="url(#s)" transform="translate(153.488372 37.023721)"/><path d="m4.95627907.13360465c-2.70837209 0-4.91162791 2.20325581-4.91162791 4.91127907v7.05209298c0 2.7083722 2.20325582 4.9112791 4.91162791 4.9112791h6.08581393v-2.8552325l-5.91523254-.0059303c-1.13023256 0-2.04976744-.9198837-2.04976744-2.0501163l-.00348837-7.05279066-.00034883-.0544186c.02860464-1.1033721.95058139-2.00093023 2.05499999-2.00093023h5.91383719v-2.85523256z" fill="url(#h)" mask="url(#t)" transform="translate(140.232558 37.023721)"/><path d="m18.7922093.47023256-4.6315116 2.65255813-13.6112791 7.83383721c-.34011627.1960465-.5494186.5581395-.5494186.9502326v10.1818605c0 .3931395.21069767.7566278.5522093.9516279l18.4908139 10.5732558c.3380233.1929069.7524419.1925581 1.0897676-.0006978l13.204186-7.5753488c.274186-.1573256.6160465.0404652.6160465.3565117v3.6331395c0 .3927907-.2103489.7555814-.5511628.9509302l-13.2704652 7.6063954c-.3373256.1939535-.752093.1939535-1.0890697.0006977l-18.42697676-10.536628c-.27453489-.1566278-.61534884.0415117-.61534884.3572093v4.5819768c0 .3934883.21069767.7566279.5522093.9516279l18.4915117 10.5673256c.3373255.192907.7513952.1925581 1.088372-.0006977l18.4430233-10.5666279c.3408139-.195.5515115-.5577907.5515115-.9509303v-15.4817441c0-.3156977-.3418603-.5138372-.6156976-.3568604l-18.4036047 10.5226744c-.3369767.1932557-.7510465.1932557-1.0887208 0l-13.23662795-7.5683721c-.34360466-.1967442-.55500001-.5637209-.55186047-.9600001l.03139535-4.1536046c.00209302-.3143024.3422093-.51.61534884-.3537209l13.16860473 7.5376743c.3380232.1936048.7534883.1932559 1.0908139-.0010464l18.1684883-10.4434884c.2752326-.1580233.2752326-.5546512 0-.7130233l-13.8945348-7.98104647-4.5324419-2.56848837c-.1677907-.09488372-.3540697-.14232558-.5406977-.14232558-.1880232 0-.3760464.04813954-.5448837.14511628m.3697675 15.84662794-8.316628-4.7605814c-.2752325-.1573256-.2759302-.5546512-.0010465-.7130233l7.8289535-4.51081394c.3376744-.19465117.7534883-.19534883 1.0918605-.00139535l8.3295349 4.76790699c.2759303.1576744.2759303.5546511.0006976.7130232l-7.8432557 4.5038373c-.1688372.0973255-.3575582.1458139-.5459303.1458139-.1876744 0-.3756977-.0481395-.544186-.1447674" fill="url(#i)" mask="url(#u)" transform="translate(0 22.023721)"/><path d="m.06593023.00837209v2.85906977l4.54534884-.00348837v14.14430231h3.03v-14.14430231h4.48360463v-2.8555814z" fill="url(#j)" mask="url(#v)" transform="translate(114.418605 37.023721)"/><path d="m9.70255814.12209302h-3.30627906-.00034885v.00069768l-6.14511628 16.9154651h3.30732559l1.29209301-3.5574418h6.39837205l1.2920931 3.5574418h3.3073255l-6.14476739-16.9154651.00034885-.00069768zm-1.6527907 4.55232559 2.20081396 6.05965119h-4.40232559z" fill="url(#k)" mask="url(#w)" transform="translate(124.186047 37.023721)"/><path d="m6.00523256.27976744-.31186046.00034884-.495.00034884c-2.74569768 0-4.98000001 2.23011628-4.98732559 4.97406976l.00034884.04639536c.02860465 2.72616279 2.25453489 4.93499996 4.98697675 4.93499996l1.18046512.0017442.31465115.0006977.54872093.0031395c1.16127907 0 2.10627907.9418605 2.11220931 2.1013954-.00593024 1.1595349-.95093024 2.1013954-2.11220931 2.1013954l-.54872093.0006976-.80023256.0003489-5.08953488.0045349v2.8754651h5.20151163.81348837v-.0048838-.0003489l.42348837-.0003487c2.74639535 0 4.9813954-2.230814 4.9876744-4.9761628v-.0006977-.0006977c-.006279-2.745-2.24127905-4.97616279-4.9876744-4.97616279l-.42348837-.00209302v-.00104651l-.43988371-.00069767-1.18011629-.00174419c-1.14732558 0-2.08325581-.91883721-2.11116279-2.05953488l-.00104652-.04639536c.0073256-1.15883721.95197675-2.09860465 2.11220931-2.09860465l.49465117-.00034884.31186046-.00069767 5.22523254-.00488372v-2.87546512z" fill="url(#l)" mask="url(#x)" transform="translate(49.186046 36.674884)"/><path d="m5.9616279.27976744-.31255813.00034884-.49430233.00034884c-2.74604651 0-4.98034883 2.23011628-4.98802326 4.97406976l.00034884.04639536c.02860466 2.72616279 2.25453488 4.93499996 4.98767442 4.93499996l1.18011628.0017442.31465116.0006977.54872093.0031395c1.16093024 0 2.10593024.9418605 2.11186047 2.1013954-.00593023 1.1595349-.95093023 2.1013954-2.11186047 2.1013954l-.54872093.0006976-.80023255.0003489-5.08953489.0045349v2.8754651h5.20186046.81348839v-.0048838-.0003489l.42313952-.0003487c2.74639536 0 4.98104649-2.230814 4.98697679-4.9761628v-.0006977-.0006977c-.0059303-2.745-2.24058143-4.97616279-4.98697679-4.97616279l-.42313952-.00209302v-.00104651l-.44023257-.00069767-1.18011628-.00174419c-1.14732559 0-2.08395349-.91883721-2.11186046-2.05953488l-.00069767-.04639536c.00767441-1.15883721.95197674-2.09860465 2.11255813-2.09860465l.49430233-.00034884.31255813-.00069767 5.2248837-.00488372v-2.87546512z" fill="url(#m)" mask="url(#y)" transform="translate(101.860466 36.674884)"/></g></svg>