<svg height="90" viewBox="0 0 180 90" width="180" xmlns="http://www.w3.org/2000/svg"><g fill="none" fill-rule="evenodd" transform="translate(0 26)"><path d="m146.511628 0h33.488372v36.2790698h-33.488372z" fill="#f58454"/><g fill-rule="nonzero"><path d="m169.748372 20.4655814c-3.094884 0-5.586977 2.5786046-5.586977 5.7432558s2.490698 5.7265116 5.585582 5.7265116c3.079535 0 5.571628-2.5618604 5.571628-5.7265116s-2.492093-5.7432558-5.571628-5.7432558zm-.094884 8.4976744c-1.493023 0-2.690232-1.232093-2.690232-2.7488372 0-1.5209302 1.2-2.7669767 2.690232-2.7669767 1.47907 0 2.676279 1.2460465 2.676279 2.7655814 0 1.5181395-1.2 2.7488372-2.676279 2.7488372zm-11.658139-8.0330232h-5.148837v10.8837209h2.591162v-2.3106977h2.183721c2.214419 0 4.039535-1.7916279 4.169303-4.0353488v-.5023256c-.111628-2.1265116-1.611628-4.0353488-3.795349-4.0353488zm-.407442 5.9106976h-2.148837v-3.2483721h2.182325c.862326.0167442 1.548838.7367442 1.548838 1.6241861 0 .904186-.701861 1.624186-1.582326 1.624186zm4.643721-9.9111628-2.330233-3.2818604c1.124652-.6181396 1.889303-1.74 1.889303-3.3139535 0-3.11162792-1.43721-4.28651164-3.602791-4.28651164h-5.34v10.88372094h2.591163v-2.7125581h1.855814l1.744186 2.7111627h3.195349zm-6.795349-8.20465112h2.168372c.865116 0 1.590698.7172093 1.590698 1.64930232 0 .9516279-.743721 1.44-1.607442 1.44h-2.148837v-3.08930232zm18.047442-.33488372v-2.34418605h-7.964651v10.88372089h7.967442v-2.3274418h-5.427907v-1.9423256h4.286511v-2.3274419h-4.283721v-1.94232554h5.423721z" fill="#fff"/><path d="m18.7116279 11.5534884c-.6139535-.7813954-1.4162791-1.4023256-2.4069767-1.86279073-.9906977-.46046511-1.9465117-.69069767-2.8674419-.69069767-.4744186 0-.955814.04186047-1.444186.1255814-.4883721.08372093-.927907.24418604-1.3186047.48139534-.3906977.23720931-.71860465.54418606-.98372093.92093026-.26511627.3767442-.39767441.8581395-.39767441 1.444186 0 .5023256.10465116.9209303.31395348 1.255814.20930233.3348837.51627906.627907.92093026.8790697.4046511.2511628.8860465.4813954 1.444186.6906977.5581396.2093023 1.1860465.4255814 1.883721.6488372 1.0046511.3348837 2.0511627.7046512 3.1395348 1.1093024 1.0883721.4046511 2.0790698.9418604 2.9720931 1.6116279.8930232.6697674 1.6325581 1.5 2.2186046 2.4906976.5860465.9906977.8790698 2.2255814.8790698 3.7046512 0 1.7023256-.3139535 3.1744186-.9418605 4.4162791-.627907 1.2418604-1.472093 2.2674418-2.5325581 3.0767442-1.0604651.8093023-2.2744186 1.4093023-3.6418605 1.8-1.3674419.3906976-2.7767442.5860465-4.227907.5860465-2.1209302 0-4.17209299-.3697675-6.15348834-1.1093024-1.98139535-.7395348-3.62790698-1.7930232-4.93953488-3.1604651l4.68837209-4.772093c.7255814.8930233 1.68139535 1.6395349 2.86744186 2.2395349s2.36511627.9 3.53720927.9c.5302326 0 1.0465117-.055814 1.5488372-.1674419.5023256-.1116279.9418605-.2930232 1.3186047-.544186s.6767442-.5860465.9-1.0046512c.2232558-.4186046.3348837-.9209302.3348837-1.5069767 0-.5581396-.1395349-1.0325582-.4186046-1.4232558-.2790698-.3906977-.6767442-.7465117-1.1930233-1.0674419s-1.1581395-.6139535-1.9255814-.8790698c-.7674418-.2651163-1.6395349-.5511628-2.61627906-.8581395-.94883721-.3069768-1.87674418-.6697674-2.78372093-1.0883721-.90697674-.4186047-1.71627907-.955814-2.42790698-1.6116279-.7116279-.655814-1.28372093-1.4511628-1.71627906-2.3860465-.43255814-.9348837-.64883721-2.072093-.64883721-3.4116279 0-1.6465117.33488372-3.05581398 1.00465116-4.227907.66976744-1.17209303 1.54883721-2.13488372 2.6372093-2.8883721 1.08837209-.75348837 2.31627907-1.30465116 3.68372093-1.65348837 1.36744185-.34883721 2.74883725-.52325581 4.14418605-.52325581 1.6744186 0 3.3837209.30697674 5.127907.92093023 1.744186.61395349 3.272093 1.52093023 4.5837209 2.72093023zm31.1023256 21.9348837h-8.4976744l-6.8232558-10.0046512h-.1255814v10.0046512h-6.9069768v-31.64651163h6.9069768v19.25581393h.1255814l6.6558139-8.4558139h8.3302326l-8.0372093 9.4186046zm16.1162791-12.8093023c0-1.0883721-.3418605-2.0232558-1.0255814-2.8046512-.683721-.7813953-1.7093024-1.172093-3.0767442-1.172093-.6697675 0-1.283721.1046511-1.8418605.3139535-.5581395.2093023-1.0465116.4953488-1.4651163.8581395-.4186046.3627907-.7534883.7883721-1.0046511 1.2767442s-.3906977.9976744-.4186047 1.527907zm6.3209302 2.6372093v.8372093c0 .2790697-.0139535.544186-.0418605.7953488h-15.1116279c.055814.5860465.2302326 1.1162791.5232558 1.5906977.2930233.4744186.6697675.8860465 1.1302326 1.2348837s.9767442.6209302 1.5488372.8162791c.572093.1953488 1.1651163.2930232 1.7790698.2930232 1.0883721 0 2.0093023-.2023256 2.7627907-.6069767.7534883-.4046512 1.3674418-.927907 1.8418604-1.5697675l4.7720931 3.0139535c-.9767442 1.4232558-2.2674419 2.5186047-3.8720931 3.2860465-1.6046511.7674419-3.4674418 1.1511628-5.5883721 1.1511628-1.5627907 0-3.0418604-.244186-4.4372093-.7325581-1.3953488-.4883721-2.616279-1.2-3.6627907-2.1348837-1.0465116-.9348837-1.8697674-2.0860465-2.4697674-3.4534884s-.9-2.9302326-.9-4.6883721c0-1.7023256.2930233-3.244186.8790698-4.6255814.5860465-1.3813953 1.3813953-2.5534884 2.3860465-3.5162791 1.0046511-.9627907 2.1906976-1.7093023 3.5581395-2.2395348 1.3674419-.5302326 2.8465116-.7953489 4.4372093-.7953489 1.5348837 0 2.9441861.2581396 4.227907.7744186 1.2837209.5162791 2.3860465 1.2627907 3.3069767 2.2395349.9209303.9767442 1.6395349 2.1627907 2.155814 3.5581395.5162791 1.3953489.7744186 2.9860466.7744186 4.7720931zm11.7209302-5.5255814v7.9534883c0 .9767442.1883721 1.7093024.5651163 2.1976745s1.0534884.7325581 2.0302326.7325581c.3348837 0 .6906976-.027907 1.0674418-.0837209.3767442-.055814.6906977-.1395349.9418605-.2511628l.0837209 5.0232558c-.4744186.1674419-1.0744186.3139535-1.8.4395349s-1.4511628.1883721-2.1767442.1883721c-1.3953488 0-2.5674418-.1744186-3.516279-.5232558s-1.7093024-.8511628-2.2813954-1.5069768c-.572093-.6558139-.9837209-1.4372093-1.2348837-2.344186-.2511628-.9069768-.3767442-1.9186047-.3767442-3.0348838v-8.7906976h-3.3488372v-5.1488372h3.3069767v-5.48372097h6.7395349v5.48372097h4.8976744v5.1488372zm22.47907 1.5906976c-.390698-.5023255-.92093-.9069767-1.590698-1.2139534-.669767-.3069768-1.353488-.4604652-2.051163-.4604652-.725581 0-1.381395.1465117-1.967442.4395349-.586046.2930233-1.0883716.683721-1.5069763 1.1720931-.4186046.488372-.7465116 1.0534883-.9837209 1.6953488s-.355814 1.3255814-.355814 2.0511628.1116279 1.4093023.3348838 2.0511628c.2232558.6418604.5511627 1.2069767.9837209 1.6953488.4325581.4883721.9488375.872093 1.5488375 1.1511628s1.276744.4186046 2.030232.4186046c.697675 0 1.388372-.1325581 2.072093-.3976744.683721-.2651162 1.234884-.6488372 1.653489-1.1511628l3.809302 4.6465117c-.865116.8372093-1.981395 1.4930232-3.348837 1.9674418s-2.818605.7116279-4.353489.7116279c-1.646511 0-3.181395-.2511628-4.6046508-.7534883-1.4232558-.5023256-2.6581395-1.2348838-3.7046511-2.1976745-1.0465117-.9627907-1.8697675-2.1279069-2.4697675-3.4953488s-.9-2.9162791-.9-4.6465116c0-1.7023256.3-3.2372093.9-4.6046512.6-1.3674418 1.4232558-2.5325581 2.4697675-3.4953488 1.0465116-.9627907 2.2813953-1.7023256 3.7046511-2.2186047 1.4232558-.516279 2.9441858-.7744186 4.5627908-.7744186.753488 0 1.5.0697675 2.239535.2093023.739535.1395349 1.451163.327907 2.134884.5651163.68372.2372093 1.311627.5302326 1.88372.8790698s1.067442.7325581 1.486047 1.1511628zm20.427907 14.1069768v-11.3023256c0-.5860465-.041861-1.144186-.125582-1.6744186s-.244186-.9976744-.481395-1.4023256c-.237209-.4046511-.551163-.7255814-.94186-.9627907-.390698-.2372093-.893024-.3558139-1.506977-.3558139-1.2 0-2.12093.4255814-2.762791 1.2767442-.64186.8511628-.962791 1.9046511-.962791 3.1604651v11.2604651h-6.865116v-31.64651163h6.865116v13.43720933h.083721c.474419-.8372093 1.227907-1.583721 2.260465-2.2395349 1.032559-.655814 2.274419-.9837209 3.725582-.9837209 1.423256 0 2.616279.2511627 3.57907.7534883.96279.5023256 1.744186 1.1511628 2.344186 1.9465117.6.7953488 1.032558 1.7093023 1.297674 2.7418604.265116 1.0325582.397675 2.0651163.397675 3.0976744v12.8930233z" fill="#4b4c63"/></g></g></svg>