<svg height="90" viewBox="0 0 180 90" width="180" xmlns="http://www.w3.org/2000/svg"><g fill="none" fill-rule="evenodd"><g transform="translate(0 28)"><path d="m0 0h33.203525v33.203525h-33.203525z" fill="none"/><circle cx="16.601763" cy="16.601763" fill="#ea4c89" r="15.937692"/><path d="m16.6017627 0c-9.16516914 0-16.6017627 7.43659356-16.6017627 16.6017627 0 9.165169 7.43659356 16.6017626 16.6017627 16.6017626 9.1471727 0 16.6017626-7.4365936 16.6017626-16.6017626 0-9.16516914-7.4545899-16.6017627-16.6017626-16.6017627zm10.9657962 7.6526489c1.9806899 2.4128338 3.1691105 5.4919295 3.2051363 8.8230732-.4681697-.090048-5.1498003-1.0443505-9.8674236-.4501734-.1080443-.2340517-.1980923-.486166-.3061033-.7382472-.288107-.684225-.6122398-1.3864796-.9363394-2.0527083 5.2218188-2.1247268 7.5986267-5.18579304 7.90473-5.5819443zm-10.9657962-5.20379926c3.6012543 0 6.8964054 1.35046374 9.3992539 3.56523849-.2520812.36012544-2.3948375 3.22313261-7.4365604 5.11377457-2.322819-4.26748311-4.8977192-7.7606932-5.2938372-8.30088135 1.0623468-.25208781 2.1787489-.37813171 3.3311437-.37813171zm-6.0320845 1.33246743c.3781218.50416233 2.8989998 4.01540193 5.2578114 8.19283703-6.62629468 1.7646014-12.47831641 1.7286088-13.10854588 1.7286641.91830326-4.39357901 3.8893547-8.0488555 7.85073448-9.92150113zm-8.1568411 12.83844193c0-.1440369 0-.2880738 0-.4321439.61221324.0179963 7.49061238.1080443 14.5670473-2.0166825.4141476.7922693.7922693 1.6025349 1.1523948 2.4128337-.1800628.0540222-.3781218.1080443-.5581845.1620332-7.3105198 2.3588449-11.19988113 8.8050769-11.52398074 9.3452651-2.25080058-2.5028818-3.63727686-5.8340255-3.63727686-9.4713056zm14.1889256 14.1709325c-3.2771216 0-6.3021952-1.1164021-8.69703263-2.9890477.25211437-.5221587 3.13311783-6.0681103 11.12786263-8.8590658.0360259-.0179963.0540222-.0179963.090048-.0360258 1.9986862 5.1677966 2.808985 9.5072982 3.0250404 10.7497409-1.7105792.7382472-3.5832249 1.1343984-5.5459184 1.1343984zm7.9047632-2.4308301c-.1440701-.8643209-.9003136-5.0057634-2.7549629-10.1015085 4.4475458-.7022545 8.336874.4501402 8.82304.6122066-.6122066 3.9433503-2.8810035 7.3465456-6.0680771 9.4893019z" fill="#c32361"/></g><path d="m134.467637 22.9932421c-.421353-.3049744-.75538-.3485374-1.031302.2323582-4.73449 10.2385727-12.707653 5.1265911-11.908776 5.5767977 1.77174-.8132871 6.419237-4.5311523 5.721963-9.6867632-.42102-3.1514794-3.122459-4.5456623-5.997884-4.0373827-5.010412.8713933-6.840259 6.2739057-5.910892 11.0519262.159709.8278303.45024 1.4958852.75538 2.1639402-5.64958 4.6037352-7.900447-4.1099988-8.16209-5.1556442-.014278-.0581062 4.371576-3.7033552 5.591473-12.402546 1.278004-9.10586431-1.62664-10.77599765-4.603668-10.71790609-5.504149.10166023-6.98569 11.58926619-4.996135 21.15985029-.159709.043563-.943976.4792597-2.192761.5228227-.900479-2.8319619-4.7490999-5.3153531-5.7511823-4.356867-2.5125108 2.3962985.6099487 7.0726498 2.8176511 7.4357303-1.3218323 8.1473482-9.5998032 6.1286735-8.0604878-4.0809457 2.6868293-4.9958688 4.7491002-12.44610901 4.3715762-16.93369827-.1308219-1.58298139-1.3072228-3.71784654-3.964833-3.61618631-5.1120148.20332212-5.6638574 11.69091838-5.0685181 19.85280978-.0288871-.2033384-.319418.9875393-2.410908 1.5829781-.4937364-2.7448026-4.9230867-5.5186915-5.9686657-4.1825817-1.9460586 2.4834245 1.4377126 6.9129076 3.0351342 7.217882-1.3215003 8.1473482-9.5994712 6.1286403-8.0601557-4.0809457 2.7014388-4.9958689 4.7491002-12.43159913 4.3858536-16.91915518-.1304898-1.58301128-1.3068907-3.71787643-3.9648329-3.6162162-5.1120148.20332046-5.6638574 11.69091508-5.0681862 19.85280648-.0292191-.2033384-.3197499 1.0311355-2.4982332 1.6120312-.0723837-3.572633-4.5163435-5.1992073-5.5911416-4.0664026-1.902562 2.0331847.4356302 6.2012564 2.599504 7.217882-1.3215003 8.1473482-9.5994712 6.1286403-8.0601558-4.0809457 2.6868293-4.9958689 4.7491002-12.44610907 4.3715761-16.93369833-.1162123-1.56846813-1.2926132-3.70333328-3.9505554-3.60167305-5.1120148.20332046-5.5184259 12.27184398-4.9230867 20.43370218-1.6847469 7.2178819-7.3339947 16.2221467-6.593556-1.8298795.0727157-1.2634938.1454314-1.7427534-.4791269-2.2219799-.4791269-.3630806-1.553925-.1888285-2.1349867-.1742853-.7115515.0290531-.9001476.4502066-1.045579 1.0746985-.3629145 1.6265411-.4356303 3.2095523-.4937364 5.3734593-.0288871 1.0165923-.1162124 1.4813421-.508346 2.861015-.3921336 1.3796728-2.599504 3.8921504-3.8194015 3.4709637-1.6847469-.5808957-1.1329043-5.3298963-.8134864-8.5975548.2616438-2.5850605-.5807296-3.7323751-2.7301599-4.1535286-1.2634937-.2614114-2.0331846-.2178484-3.3402414-.6390351-1.2489838-.3921004-1.5249051-2.7448026-4.1680717-1.9605685-1.452289.4356966-.5228227 3.5000168-.8713934 5.7801028-1.7137003 11.1971585-5.2717901 11.5021329-6.9274175 6.0705674 7.4357303-18.2407551 2.1348871-25.42958562-.9585193-25.42958562-3.2240623 0-6.91287439 2.2220015-5.3589494 16.45444032-.75518098-.2178484-.98753925-.3340275-1.82987949-.3340275-4.6908878-.01451-7.90044681 3.7904812-7.90044681 8.4813757 0 4.6908944 3.20955901 8.4958856 7.91498996 8.4958856 2.77385574 0 4.71991434-1.2634937 6.20125644-3.2095524.9585193 1.3796729 2.134887 3.2386055 4.2842508 3.1514794 6.3900849-.2469014 8.2490175-13.3610653 8.4668658-14.1017364.6825649.1016692 1.3361098.3049744 1.9606017.4066436 1.0456455.1597422 1.1327715.5808957 1.1037184 1.6265411-.2759213 8.9170723 1.365163 12.0394987 5.0977041 12.0394987 2.0765484 0 3.9356138-2.0477278 5.2136175-3.5000168.9585858 1.9751117 2.4686821 3.4419106 4.5166756 3.5000168 4.9376962.1161791 6.8402582-7.7552478 6.6659397-6.7241124-.1308219.8132872 1.5974216 6.6660062 6.6951588 6.6950593 6.3026932.0290531 7.4790941-6.8983644 7.609916-8.060189.0288871-.2033384.0146096-.2323915 0 0v.0725829c2.0041648-.3775905 3.0351343-1.4377458 3.0351343-1.4377458s1.6120311 9.541531 7.5521418 9.439895c6.1722033-.1162123 7.3482722-6.3755749 7.4937036-7.5955056.0288871-.2614114.0146096-.2904312 0 0v.0290531c2.3816889-.8713601 3.0062472-1.7282103 3.0062472-1.7282103s1.2780037 9.3527358 7.5518098 9.4398618c5.5914737.072749 7.6680225-5.6639237 7.6826315-8.0601889.943976.0145099 2.686829-.5663858 2.643333-.5954389 0 0 2.047661 8.1764014 7.769625 8.5975549 2.686829.2032055 4.705271-1.5103952 5.852785-2.2946293 2.701107 2.1929601 11.690961 4.9814585 17.369428-4.6473314.813155-1.3651297-.915089-3.006214-1.219897-3.2095523zm-126.78503852 6.9855236c-2.74480262 0-4.5020826-2.5414974-4.5020826-5.2718233 0-2.7302927 1.61204776-5.2718233 4.35688359-5.2718233 1.23444066 0 1.91700553.1307223 2.89003483.9730625.1742853.6825649.6680549 2.2655761.9149564 2.991704.3194843.9585194.7116179 1.7863165 1.0892084 2.6722198-.5663857 2.294596-2.3672453 3.9066603-4.74900062 3.9066603zm6.68054932-9.497968c-.1161792-.1887952-.0871261-.0726161-.2178484-.2469014-.4937696-1.365163-1.4667989-4.4149732-1.582978-7.8859369-.1307223-3.9211703.5228227-8.5249387 2.4543382-8.5249387 1.3070899 0 2.7012728 9.3237159-.6535118 16.657777zm38.6452843-4.0809457c-.3048084-2.3236491-.319418-12.70752037 2.1642057-12.41708914 1.3796065.5518758-.8715925 10.34030824-2.1642057 12.41708914zm18.197192 0c-.3048084-2.3236491-.3194179-12.70752037 2.1642058-12.41708914 1.3796065.5518758-.8715926 10.34030824-2.1642058 12.41708914zm18.0520926.1452322c-.3051404-2.3236823-.3194179-12.70755356 2.1638738-12.41708912 1.3796065.53736586-.8712605 10.34030822-2.1638738 12.41708912zm19.9254353-13.18678004c2.280086-.23238151 2.178484 9.71581634-2.381689 15.98968884-.595671-2.2655761-1.495818-15.20545477 2.381689-15.98968884zm9.585194 21.42125434c-.726161-3.703322 1.161791-6.1286735 3.10785-6.3900848.682664-.101636 1.670137.3340274 1.858733 1.1618577.31975 1.553925-.043496 3.8630642-4.41474 6.7821853.014609.0145099-.392134-.740671-.551843-1.5539582zm-77.2473376-11.4150067c1.553925 0 2.8173191-1.2634938 2.8173191-2.8174188 0-1.55395817-1.2633941-2.81745192-2.8173191-2.81745192s-2.8176512 1.26349375-2.8176512 2.81745192c0 1.553925 1.2637262 2.8174188 2.8176512 2.8174188z" fill="#444" transform="translate(43.865546 28)"/></g></svg>