<svg height="90" viewBox="0 0 180 90" width="180" xmlns="http://www.w3.org/2000/svg"><path d="m20.3012658.18227848c-11.21012656 0-20.3012658 9.09113924-20.3012658 20.30126582 0 11.2101266 9.09113924 20.3012658 20.3012658 20.3012658 11.2101266 0 20.3012658-9.0911392 20.3012658-20.3012658 0-11.21012658-9.0911392-20.30126582-20.3012658-20.30126582zm104.3088612 4.4886076c-.273418 0-.501266.2278481-.501266.50126582v23.513924c0 .2734178.227848.5012659.501266.5012659h3.053164c.273418 0 .501266-.2278481.501266-.5012659v-1.6177215c1.572152 1.6405064 3.736709 2.5746836 5.992405 2.5746836 4.762025 0 8.635443-4.1012658 8.635443-9.1822785s-3.873418-9.1594937-8.635443-9.1594937c-2.278481 0-4.443038.9341772-5.992405 2.5746836v-8.7037975c0-.27341772-.227848-.50126582-.501266-.50126582zm-102.2126586 3.3949367c2.5974683.06835444 5.2177215 1.09367089 7.2227848 3.12151902 4.0329114 4.0329114 4.1696202 10.4126582.3189873 14.2860759-6.9493671 6.9493671-19.321519 4.7164557-19.321519 4.7164557s-2.23291137-12.3721519 4.7164557-19.321519c1.9367089-1.91392402 4.4886076-2.84810124 7.0632912-2.80253162zm36.5240506 3.23544302c-1.8683544 0-3.6227848.9113924-4.7392405 2.4151899v-1.4582279c0-.2734177-.2278481-.5012658-.5012658-.5012658h-3.0531646c-.2734177 0-.5012658.2278481-.5012658.5012658v16.450633c0 .2734177.2278481.5012658.5012658.5012658h3.0531646c.2734177 0 .5012658-.2278481.5012658-.5012658v-9.843038c.113924-2.2101266 1.6405063-3.9417722 3.5088607-3.9417722 1.9367089 0 3.5544304 1.6177216 3.5544304 3.7594937v10.0253165c0 .2734177.2278481.5012658.5012658.5012658h3.0759494c.2734177 0 .5012658-.2278481.5012658-.5012658l-.0227848-10.2303798c.2734177-2.0050633 1.7316456-3.5544304 3.486076-3.5544304 1.9367088 0 3.5544304 1.6177216 3.5544304 3.7594937v10.0253165c0 .2734177.2278481.5012658.5012658.5012658h3.0759493c.2734178 0 .5012659-.2278481.5012659-.5012658l-.0227848-11.3012659c.0683544-3.3721519-2.8025317-6.1063291-6.3569621-6.1063291-2.278481.0227848-4.3746835 1.3443038-5.3544304 3.4177215-1.1392405-2.1189873-3.349367-3.4405063-5.7645569-3.4177215zm29.1417721 0c-4.7620253 0-8.635443 4.1012658-8.635443 9.1822785s3.8734177 9.1822785 8.635443 9.1822785c2.2784811 0 4.443038-.9341772 5.9924051-2.5746836v1.6177216c0 .2734177.2278481.5012658.5012658.5012658h3.0531646c.2734177 0 .5012658-.2278481.5012658-.5012658v-16.450633c.0227848-.2734177-.2050633-.5012658-.5012658-.5012658h-3.0531646c-.2734177 0-.5012658.2278481-.5012658.5012658v1.6177216c-1.5721519-1.6405064-3.7367089-2.5746836-5.9924051-2.5746836zm24.1746839 0c-2.278481 0-4.443038.9341772-5.992405 2.5746836v-1.6177216c0-.2734177-.227848-.5012658-.501266-.5012658h-3.053165c-.273417 0-.501266.2278481-.501266.5012658v23.5139241c0 .2734177.227849.5012658.501266.5012658h3.053165c.273418 0 .501266-.2278481.501266-.5012658v-8.7037975c1.572152 1.6405064 3.736708 2.5746836 5.992405 2.5746836 4.762025 0 8.635443-4.1012658 8.635443-9.1822785s-3.873418-9.1594937-8.635443-9.1594937zm42.265822 0c-5.172151 0-9.341772 4.1012658-9.341772 9.1822785s4.192405 9.1822785 9.341772 9.1822785c5.149368 0 9.341773-4.1012658 9.341773-9.1822785s-4.169621-9.1822785-9.341773-9.1822785zm10.344304.4556962c-.250633 0-.455696.2050633-.455696.4556962 0 .0911393.022785.1822785.068354.2506329l5.240507 7.9746836-5.308861 8.0658228c-.136709.2050633-.091139.5012658.136709.6379747.068354.0455696.159494.0683544.250633.0683544h3.531645c.273418 0 .524051-.1367089.66076-.364557l3.144304-5.2632911 3.144303 5.2632911c.136709.2278481.387342.364557.66076.364557h3.531646c.250632 0 .455696-.2050633.455696-.4556962 0-.0911393-.022785-.1594937-.068355-.2506329l-5.30886-8.0658228 5.240506-7.9746836c.136709-.2050633.091139-.5012658-.136709-.6379746-.068354-.0455697-.159494-.0683545-.250633-.0683545h-3.531645c-.273418 0-.524051.1367089-.66076.364557l-3.075949 5.1721519-3.07595-5.1721519c-.136709-.2278481-.387341-.364557-.660759-.364557zm-142.2227845.3189874-1.9822785 4.1012658-4.078481 1.9822785 4.078481 1.9822785 1.9822785 4.1012658 2.0050632-4.1012658 4.0784811-1.9822785-4.0784811-1.9822785zm66.1443038 2.8936709c2.8936708 0 5.2405063 2.4379746 5.2860759 5.4455696v.1367088c-.0227848 3.007595-2.3924051 5.4455697-5.2860759 5.4455697-2.9164557 0-5.286076-2.4607595-5.286076-5.5139241s2.3696203-5.513924 5.286076-5.513924zm22.7392407 0c2.916455 0 5.286076 2.4607594 5.286076 5.513924s-2.369621 5.5139241-5.286076 5.5139241c-2.893671 0-5.240507-2.4379747-5.286076-5.4455697v-.1367088c.045569-3.007595 2.392405-5.4455696 5.286076-5.4455696zm21.941772 0c2.916456 0 5.286076 2.4607594 5.286076 5.513924s-2.36962 5.5139241-5.286076 5.5139241c-2.893671 0-5.240506-2.4379747-5.286076-5.4455697v-.1367088c.04557-3.007595 2.392405-5.4455696 5.286076-5.4455696zm21.007595 0c2.916456 0 5.286076 2.4607594 5.286076 5.513924s-2.36962 5.5139241-5.286076 5.5139241-5.286076-2.4607595-5.286076-5.5139241 2.36962-5.513924 5.286076-5.513924z" fill="#4264fb" transform="translate(0 24)"/></svg>