<svg height="90" viewBox="0 0 180 90" width="180" xmlns="http://www.w3.org/2000/svg"><g fill="#1d1d1d" fill-rule="evenodd" transform="translate(0 24)"><path d="m28.0964286 3.46428571c.9821428-1.96964285 3.0839285-3.33214285 5.2857143-3.40714285 1.5535714-.00535715 3.1875.40357143 4.3482142 1.4875 1.2071429 1.11785714 2.0410715 2.69107143 2.1071429 4.35.0803571.98214285-.1607143 1.9625-.5196429 2.86964285-.2732142.74107143-.8517857 1.29821429-1.3214285 1.91428569-1.7625 1.7946429-3.5553572 3.5625-5.325 5.3517857 1.2982143-.0071428 2.5964285-.0089285 3.8964285.0035715.0446429-1.0553572.6517858-2.0071429 1.4803572-2.6285715.5267857-.3714285 1.1857143-.4107142 1.8071428-.4732142.0017858 2.1178571.0035715 4.2357142 0 6.3535714-4.1392857.0053571-8.2785714-.0017857-12.4196428 0-.0339286-1.75.7375-3.4696429 2.0357143-4.6357143 1.9-1.9089286 3.8053571-3.8142857 5.7142857-5.71785714.3767857-.40714286.6964286-.8625 1.0107143-1.31607143.6446428-1.06428572.4517857-2.53392857-.3857143-3.43928572-.6696429-.68035714-1.6607143-1.04285714-2.6107143-.88214285-1.2517857.21785714-2.3678571 1.28035714-2.4589286 2.58035714-.1410714.95.2767857 1.9.9857143 2.525-.7732143.7875-1.5339286 1.58571429-2.3107143 2.3678571-.6821428-.79642853-1.375-1.62499996-1.6678571-2.65357139-.4714286-1.51607142-.3892857-3.23214285.3482143-4.65z"/><path d="m12.0964286 8.60535714c1.5892857-2.08928571 4.1767857-3.48928571 6.8446428-3.22678571 1.2696429-.00714286 2.4071429.64285714 3.4071429 1.36428571.8125.58392857 1.3303571 1.47142857 1.7821428 2.34285715.4732143.94464281.5 2.03035711.4964286 3.06428571 0 6.6821429-.0107143 13.3660714.0053572 20.0482143-1.7017858.0625-3.2714286-1.4017857-3.2678572-3.1160714-.0482143-5.8785715.0142857-11.7589286-.025-17.6392858.0017857-1.46964281-1.2964286-2.78571424-2.7607143-2.81607139-1.4178571-.01428571-2.8767857.61428572-3.7107143 1.78571429-.6035714.7982143-.8839285 1.8017857-.8910714 2.7946429-.0107143 2.2053571.0053572 4.4089285-.0071428 6.6142857.0464285.8857143-.7214286 1.7589285-1.6375 1.6857143-.9035715.0607142-1.6589286-.8053572-1.6178572-1.6803572-.0232143-2.3285714.0321429-4.6571428-.0285714-6.9839286-.0571429-1.5107142-1.47500001-2.7767857-2.97857144-2.6875-1.90892857-.0446428-3.69107143 1.3660715-4.19821429 3.1857143-.15714286.5357143-.1625 1.1017857-.175 1.6553572.00178572 5.8339285 0 11.6678571.00178572 17.5017857-.00714286.6535714.04107142 1.3196428-.11964286 1.9607143-.3875 1.3553571-1.72142857 2.3857143-3.14642857 2.3482143.00357143-7.3267858-.00178572-14.6535715.00357143-21.9821429.03214285-.7785714.05-1.5732143.28392857-2.3232143.54821428-2.1196428 2.13214285-3.88035713 4.06071428-4.86785713 1.7375-.83392857 3.80535715-.97857143 5.63214286-.34642857.7767857.27321429 1.4071429.81964286 2.0464286 1.31785714z"/><path d="m63.4821429 8.86785714c.1303571-1.59464285 1.6428571-2.88035714 3.2321428-2.81964285-.0196428 2.27678571.0375 4.55535711-.0303571 6.83214281-.1089286 3.0553572-1.7642857 5.8892858-4.0803572 7.8196429 2.3732143 1.2589286 4.0303572 3.8160714 4.0946429 6.5178571.0339286 1.6625.0089286 3.325.0142857 4.9875-.6214286-.0857142-1.2803571-.1267857-1.8303571-.4571428-.6589286-.4875-1.25-1.1696429-1.3642858-2.0089286-.1767857-1.2607143.1035715-2.5892857-.3660714-3.8035714-.6375-1.4767857-2.0285714-2.7107143-3.6714286-2.8535714-3.2839285-.3214286-6.5607142 1.9107142-7.5964285 5.0178571-.6428572 1.8732143-.3232143 3.8803571-.4392857 5.8178571-.1214286 1.6053572-1.6375 2.9303572-3.2392858 2.8928572 0-2.1517857-.0089285-4.3017857.0089286-6.4535714.0446429-3.1589286 1.5767857-6.2464286 4.0553572-8.2053572-.9214286-.5839286-1.825-1.2339286-2.4928572-2.1071428-1.0732143-1.3714286-1.5821428-3.1321429-1.5714286-4.8607143.0035715-1.5107143 0-3.0214286.0017858-4.5303572 1.0517857-.0160714 2.0553571.4857143 2.6607142 1.3464286.8321429.9964286.5285715 2.3642857.6214286 3.5535714.0625 1.8267857 1.3875 3.5375 3.1375 4.0607143.9982143.325 2.0696429.1732143 3.075-.0321428 2.7125-.6321429 4.9482143-2.9 5.5482143-5.6178572.3571429-1.6767857.1089286-3.4.2321429-5.09642856z"/><path d="m75.9267857 7.15c.3232143.15.6464286.29821429.9714286.44821429-.3339286.92321428-.6303572 1.86071428-1.0803572 2.73571431-.1517857.3517857-.3857142.6928571-.3732142 1.0910714 0 3.1839286-.0017858 6.3678571-.0017858 9.5535714-.3553571 0-.7107142.0017857-1.0642857.0035715.0017857-2.6982143.0035715-5.3946429-.0017857-8.0910715-.5125.6339286-1.0071428 1.2821429-1.5107143 1.9196429-.1071428-.3589286-.2125-.7178572-.3160714-1.0785714 1.5553571-1.9428572 2.6839286-4.19642861 3.3767857-6.5821429z"/><path d="m80.6214286 7.19464286c.3517857 0 .7071428.00178571 1.0625.00178571.0017857.85892857.0017857 1.71964286 0 2.57857143 1.3642857.00178571 2.7303571.00178571 4.0964285-.00178571-.0017857.35000001-.0017857.70000001 0 1.05000001-1.0196428.0017857-2.0392857 0-3.0589285.0017857.7 2.4464286 1.9625 4.7071429 3.6446428 6.6142857-.2375.2928572-.4714285.5875-.7053571.8821429-1.5785714-1.9785715-2.8571429-4.225-3.5375-6.6732143-.1-.3017857-.1625-.6392857-.4178572-.8535714-.0482142 2.0142857-.0089285 4.0303571-.0196428 6.0464285.775-.0017857 1.55-.0035714 2.3267857.0017857-.0053571.3428572-.0053571.6857143-.0071429 1.0285715-.775.0017857-1.5482142-.0017857-2.3232142.0017857.0035714 1.0303571.0071428 2.0589286.0017857 3.0892857-.3553572 0-.7107143 0-1.0625 0-.0053572-1.0285714-.0017857-2.0571429-.0035715-3.0875-.7642857.0017857-1.5285714-.0053571-2.2928571-.0017857-.0017857-.3446429-.0035714-.6892857-.0035714-1.0357143.7660714 0 1.5321428.0035714 2.2982143.0017857-.0285715-2.0446428.0642857-4.0928571-.05-6.1339286-.4964286.9035715-.575 1.9642858-1.025 2.8892858-.6928572 1.8053571-1.7375 3.4517857-3.0035715 4.9071428-.1875-.3107143-.3732143-.6232143-.5571428-.9357143 1.7785714-1.8803571 2.9142857-4.2625 3.5857143-6.7410714-.975 0-1.95-.0017857-2.925 0-.0017858-.35-.0017858-.7 0-1.05 1.325-.00178571 2.65.00178571 3.975-.00178571-.0035715-.85892858 0-1.71785715.0017857-2.57857143z"/><path d="m121.028571 7.16607143c.339286.15714286.678572.31607143 1.019643.47678571-.4 1.13571429-.951785 2.20357143-1.483928 3.27857146-.071429 3.35-.001786 6.7089285-.033929 10.0625-.371428-.0017857-.741071-.0035715-1.108928-.0053572.007142-2.8089285 0-5.6196428.003571-8.4285714-.544643.5642857-.9875 1.2285714-1.585714 1.7357143-.135715-.3535714-.241072-.7142857-.351786-1.075 1.582143-1.7464286 2.801786-3.80714287 3.541071-6.04464287z"/><path d="m124.326786 7.11785714c.358928.08035715.719643.1625 1.082143.24285715-.241072.65535714-.480358 1.30892857-.721429 1.9625 2.160714 0 4.321429.00178571 6.482143.00178571-.001786.35535714-.001786.7107143 0 1.0678571-1.680357-.0071428-3.360714-.0071428-5.039286 0-.001786.8232143-.001786 1.6464286-.001786 2.4696429 1.460715.0035714 2.919643.0017857 4.380358.0017857-.001786.35-.001786.6982143 0 1.0482143-1.460715.0017857-2.921429-.0017857-4.380358.0053571.001786.8428572 0 1.6857143 0 2.5303572 1.491072.0035714 2.980358 0 4.471429.0017857-.001786.3446429-.001786.6892857 0 1.0339286-1.491071.0017857-2.982143-.0017857-4.471429.0017857-.003571 1.1642857.003572 2.3285714.003572 3.4946428-.366072-.0017857-.732143-.0017857-1.096429-.0017857-.005357-3.5303571.001786-7.0625-.001785-10.5928571-.276786.0035714-.548215.0071428-.821429.0142857-.614286 1.3642857-1.475 2.5928571-2.376786 3.7803571-.253571-.3035714-.507143-.6053571-.760714-.9071428 1.480357-1.8142857 2.503571-3.9482143 3.251786-6.15535716z"/><path d="m153.083929 7.17857143c.367857.125.7375.25 1.110714.375-1.185714 1.65892857-2.498214 3.24107147-4.0625 4.55892857 2.733928-.1285714 5.4625-.3160714 8.1875-.55-.55-.7821429-1.139286-1.5357143-1.751786-2.26785714.323214-.15535715.646429-.31071429.971429-.46607143 1.305357 1.58392857 2.503571 3.24642857 3.598214 4.98035717-.351786.1714285-.701786.3410714-1.051786.5089285-.367857-.5946428-.739285-1.1875-1.107143-1.7803571-3.523214.3017857-7.055357.5035714-10.5875.6428571-.071428-.3357142-.141071-.6714285-.208928-1.0053571 2.175-1.0160714 3.5375-3.11428571 4.901786-4.99642857z"/><path d="m92.6767857 12.3535714c1.6946429-1.3410714 3.0125-3.11249997 3.8875-5.08392854.3285714.00178571.6589286.00178571.9910714.00357143.8142858 2.00357142 2.2410715 3.69285711 3.9321429 5.02142861-.198214.2982142-.394643.5982142-.589286.8982142-.610714-.4857142-1.1874997-1.0107142-1.723214-1.575-.0017857.3089286-.0035714.6196429-.0017857.9303572-1.4053572.0053571-2.8089286-.0035714-4.2125.0035714-.0035714-.2910714-.0071429-.5803571-.0107143-.8714286-.5696429.5125-1.1 1.0660715-1.7 1.5428572-.1928571-.2892857-.3839286-.5803572-.5732143-.8696429zm2.325-.7928571c1.375 0 2.7517857-.0053572 4.1267857 0-.8142857-.9982143-1.5142857-2.07500001-2.0660714-3.23928573-.5892857 1.14107143-1.2482143 2.24107143-2.0607143 3.23928573z" fill-rule="nonzero"/><path d="m87.8053571 7.9c1.5696429 0 3.1375-.00357143 4.7071429 0-.2357143 2.05892857-.4821429 4.1178571-.7160714 6.1785714.3071428.0017857.6160714.0017857.925.0035715-.0107143 1.6232142-.0071429 3.25-.1875 4.8642857-.0732143.4946428-.1267857 1.0767857-.5678572 1.3964285-.7464285.5589286-1.7339285.4125-2.6053571.3785715-.0928572-.3178572-.1839286-.6321429-.2767857-.9482143.6482143.0375 1.3517857.1946428 1.9660714-.1035714.3392857-.1625.4910714-.5392858.525-.8946429.1660714-1.2375.1410714-2.4892857.1589286-3.7339286-1.275-.0053571-2.55 0-3.8232143-.0017857.2321428-1.7142857.4696428-3.4285714.7-5.14464284.3303571.01964285.6607143.0375.9946428.05714285-.1964285 1.37678569-.4035714 2.75178569-.6017857 4.12857139.5910715.0017858 1.1821429.0017858 1.7732143 0 .2196429-1.7303571.4375-3.4607142.6553572-5.18928567-1.2089286 0-2.4196429-.00178572-3.6285715-.00178572 0-.33035714 0-.66071428.0017857-.98928571z"/><path d="m133.419643 7.88392857c4.039286-.00178571 8.078571 0 12.117857 0-.001786.35 0 .70178572.001786 1.05178572-1.860715-.00535715-3.721429.00535714-5.580357-.00535715-.001786 1.89107146.001785 3.78214286 0 5.67142856 2.048214.0125 4.098214-.0035714 6.146428.0053572 0 .3428571.001786.6875.005357 1.0303571-2.05.0035714-4.1 0-6.15.0035714-.001785 1.7678572-.001785 3.5375 0 5.3089286-.371428-.0017857-.742857-.0017857-1.110714-.0035714.001786-1.7696429-.005357-3.5392857 0-5.3089286-2.010714 0-4.021429.0071429-6.032143-.0017857-.001786-.3446429-.001786-.6892857 0-1.0339286 2.010714.0053572 4.021429.0053572 6.033929.0035714.001785-1.8892857-.008929-3.7785714-.001786-5.6678571-1.810714-.00535714-3.619643.00535714-5.430357-.00714286-.001786-.34821428-.001786-.69642857 0-1.04642857z"/><path d="m103.778571 8.3625c3.805358.00178571 7.6125.00357143 11.419643 0-.005357.34464286-.008928.69107143-.010714 1.03571429-1.719643.00178571-3.4375.00357142-5.155357 0 .003571 3.16428571.005357 6.32857141.003571 9.49464281 2.042857.0017858 4.085715.0071429 6.128572-.0035714.001785.3464286.003571.6928572.007143 1.0392857-4.466072-.0017857-8.932143.0017857-13.398215 0 0-.3446428 0-.6892857.001786-1.0339285 2.05-.0035715 4.1.0035714 6.151786.0017857-.003572-3.1660715-.003572-6.3321429-.001786-9.4964286-1.714286-.00178571-3.430357 0-5.144643-.00178571-.001786-.34464286-.003571-.69107143-.001786-1.03571429z"/><path d="m143.753571 9.81785714c.328572.15357143.658929.30892856.991072.46607146-.498214 1.2071428-1.098214 2.3660714-1.783929 3.4785714-.321428-.1642857-.641071-.3285714-.958928-.4928571.664285-1.1089286 1.260714-2.2553572 1.751785-3.45178576z"/><path d="m134.242857 10.3910714c.333929-.1660714.669643-.3321428 1.005357-.49821426.591072 1.12142856 1.126786 2.27142856 1.621429 3.44107146-.3375.1625-.671429.325-1.005357.4875-.485715-1.1678572-1.014286-2.3196429-1.621429-3.4303572z"/><path d="m42.6928571 13.7535714c-.0267857-1.7214285 1.5732143-3.1446428 3.2589286-3.1017857.0107143 7.4017857-.0035714 14.8035714.0071429 22.2053572-.0035715 1.075-.0125 2.1678571-.3160715 3.2089285-.6089285 2.4553572-2.3946428 4.5339286-4.6285714 5.6785715-2.2357143 1.1428571-4.9232143 1.3642857-7.3160714.6071428-3.45-1.1964286-6.1357143-4.5482143-6.2339286-8.2464286-.0446428-4.0035714 0-8.0071428-.0196428-12.0107142 1.0892857.0053571 2.1785714.0053571 3.2696428.0071428.0160714 3.9464286-.0267857 7.8928572.0196429 11.8392857.0732143 3.0428572 2.8410714 5.6928572 5.8839285 5.6446429 3.1660715.1482143 6.0821429-2.6589286 6.0553572-5.8285714.0303571-6.6678572-.0089286-13.3357143.0196428-20.0035715z"/><path d="m95.8732143 13.7642857c.3089286-.0946428.6196428-.1910714.9303571-.2857143.4392857 1.3428572.7714286 2.7125 1.1053572 4.0821429-.3196429.0839286-.6392857.1642857-.9553572.2446428-.2803571-1.3678571-.6464285-2.7142857-1.0803571-4.0410714z"/><path d="m99.5142857 13.4785714c.3446429.0857143.6910713.1714286 1.0375003.2571429-.380357 1.9196428-.8589289 3.8214286-1.5125003 5.6660714.7535714.0035714 1.5089283.0017857 2.2642853.0035714 0 .3428572 0 .6892858.001786 1.0339286-2.730357.0017857-5.4607141 0-8.192857 0-.0017857-.3464286-.0017857-.6928571 0-1.0375 1.625 0 3.25.0035714 4.8767857.0017857.6696429-1.9285714 1.1428572-3.9196428 1.525-5.925z"/><path d="m93.5714286 14.2285714c.3035714-.1053571.6107143-.2107143.9160714-.3160714.5535714 1.3946429.9125 2.8553571 1.2928571 4.3053571-.3089285.075-.6196428.15-.9267857.2267858-.3428571-1.4321429-.7857143-2.8321429-1.2821428-4.2160715z"/><path d="m149.457143 14.7232143c3.3375-.0017857 6.675.0035714 10.010714 0 .008929 2.0857143.001786 4.1714286.007143 6.2571428-.367857 0-.733929 0-1.096429 0-.003571-.2517857-.003571-.5017857-.001785-.7517857-2.608929 0-5.216072 0-7.825 0-.005357.25-.005357.5-.005357.75-.360715 0-.719643 0-1.076786.0035715-.021429-2.0857143-.017857-4.1732143-.0125-6.2589286zm1.094643 1.0357143c-.008929 1.1446428-.007143 2.2910714-.007143 3.4357143 2.610714-.0017858 5.221428.0017857 7.833928 0 .005358-1.1446429-.001785-2.2892858-.003571-3.4339286-2.607143-.0053572-5.216071.0017857-7.823214-.0017857z" fill-rule="nonzero"/><path d="m87.4 17.2428571c1.1767857-.2178571 2.3428571-.4875 3.4767857-.8660714 0 .3232143 0 .6464286.0017857.9696429-1.0910714.3875-2.2125.6803571-3.3446428.9160714-.0446429-.3392857-.0892857-.6803571-.1339286-1.0196429z"/><path d="m112.873214 22.7303571c.444643-.1982142 1.0125.1696429 1.007143.6589286.064286.575-.678571 1.0107143-1.146428.6589286-.5125-.2928572-.421429-1.1410714.139285-1.3178572z"/><path d="m109.423214 22.8660714c.358929 0 .717857 0 1.078572.0017857.001785 3.15-.001786 6.3017858 0 9.4535715-.360715-.0017857-.719643-.0017857-1.078572-.0017857 0-3.15-.007143-6.3017858 0-9.4535715z"/><path d="m127.7 25.9178571c.9875-.5696428 2.289286-.6535714 3.316071-.1321428.630358.3392857 1.001786 1.0410714 1.019643 1.7482143.032143 1.5946428 0 3.1910714.010715 4.7875-.342858 0-.685715 0-1.025 0-.005358-.3553572-.008929-.7107143-.014286-1.0660715-.751786 1.1696429-2.416072 1.5339286-3.583929.7785715-.891071-.4785715-1.091071-1.7214286-.644643-2.5696429.326786-.5928571 1.001786-.8678571 1.641072-.9696428.846428-.1196429 1.703571-.125 2.557143-.1928572-.019643-.5964286.033928-1.3982143-.608929-1.7017857-.830357-.3732143-2.051786-.2696429-2.496428.6339286-.3625.0035714-.728572 0-1.0875-.0053572.158928-.5178571.414285-1.0464285.916071-1.3107143zm.55 3.5910715c-.683929.2589285-.766071 1.3017857-.167857 1.6982143.855357.5553571 2.167857.2410714 2.676786-.65.223214-.4196429.185714-.9178572.223214-1.3785715-.908929.0964286-1.866072-.0035714-2.732143.3303572z" fill-rule="nonzero"/><path d="m72.9767857 25.5535714h1.0232143c.0035714.3767857.0053571.7553572.0125 1.1339286.3785714-.6178571.9410714-1.2017857 1.7178571-1.225.9071429-.1517857 1.7767858.3857143 2.1732143 1.1892857.6571429-1.1196428 2.1857143-1.5428571 3.3214286-.9160714.7035714.3696428.9517857 1.2035714.9553571 1.9482143.0267858 1.5464285.0035715 3.0928571.0125 4.6375-.3625 0-.7232142 0-1.0821428 0-.0017857-1.3714286 0-2.7410715.0017857-4.1125-.0160714-.5267857-.0160714-1.1660715-.4839286-1.5142857-.9053571-.6660715-2.4339285-.0767858-2.4803571 1.1035714-.0732143 1.5053571-.0089286 3.0160714-.0303572 4.5232143-.3625 0-.7214285 0-1.0821428-.0017857-.0232143-1.6.05-3.2017858-.0321429-4.8-.0821428-1.0517858-1.5142857-1.4214286-2.2589285-.8-.475.3392857-.6839286.9357142-.6821429 1.5035714-.0196429 1.3642857-.0035714 2.7303571-.0071429 4.0964286-.3607142.0017857-.7214285.0017857-1.0803571.0017857.0035714-2.2553572-.0035714-4.5125.0017857-6.7678572z"/><path d="m84.1178571 25.5535714c.3589286 0 .7196429-.0017857 1.0821429 0 .0035714 1.3660715-.0178571 2.7321429.0071429 4.0982143.0142857.5875.1125 1.3053572.6928571 1.6089286.95.4607143 2.3821429.0410714 2.5857143-1.0964286.1875-1.5267857.0446428-3.075.0892857-4.6107143h1.0803571c-.0107142 2.2571429.0035715 4.5142857.0017858 6.7714286-.3446429-.0017857-.6875-.0035714-1.0303572-.0053571-.0035714-.3732143-.0089286-.7464286-.0125-1.1178572-.6392857 1.2196429-2.275 1.55-3.4464286.95-.7625-.4160714-1.05-1.3321428-1.0446428-2.1517857-.0178572-1.4821429-.0017857-2.9642857-.0053572-4.4464286z"/><path d="m91.1232143 25.5517857c.4321428.0017857.8660714.0017857 1.3017857.0125.5375.8625 1.075 1.725 1.6464286 2.5660714.5535714-.8535714 1.0857143-1.7196428 1.6321428-2.5785714.4071429 0 .8160715.0017857 1.225.0035714-.7660714 1.1160715-1.5446428 2.2232143-2.2946428 3.35.7803571 1.1339286 1.55 2.2767858 2.325 3.4142858-.4267857.0017857-.8535715.0035714-1.2785715.0053571-.5571428-.8714286-1.0785714-1.7625-1.6589285-2.6160714-.5589286.8660714-1.1017857 1.7446428-1.6571429 2.6142857-.4053571-.0017857-.8125-.0035714-1.2160714-.0035714.7732143-1.1267858 1.5428571-2.2553572 2.3142857-3.3821429-.7767857-1.1303571-1.5642857-2.2535714-2.3392857-3.3857143z"/><path d="m102.939286 25.9625c1.005357-.6142857 2.355357-.7160714 3.408928-.1660714.675.3660714 1.021429 1.1410714 1.003572 1.8892857.014285 1.5464286 0 3.0928571.008928 4.6392857-.344643-.0017857-.6875-.0035714-1.030357-.0053571-.003571-.3535715-.008928-.7089286-.0125-1.0607143-.767857 1.2-2.494643 1.5375-3.658928.725-.8125-.4892857-.983929-1.6339286-.607143-2.45.316071-.65 1.046428-.9464286 1.725-1.0482143.833928-.1142857 1.678571-.1178572 2.517857-.1821429-.028572-.5857143.0375-1.3589285-.573214-1.6821428-.844643-.4089286-2.083929-.2910715-2.553572.6178571-.355357 0-.708928-.0035714-1.060714-.0089286.139286-.4946428.366071-1 .832143-1.2678571zm.669643 3.5285714c-.728572.2339286-.833929 1.3339286-.194643 1.7285715.867857.5428571 2.171428.2125 2.667857-.6892858.207143-.4160714.176786-.9017857.216071-1.3517857-.894643.0928572-1.832143.0035715-2.689285.3125z" fill-rule="nonzero"/><path d="m112.598214 25.5535714c.357143 0 .717857 0 1.078572.0017857.005357 2.25-.008929 4.5017858.010714 6.7535715-.364286.0071428-.726786.0125-1.089286.0160714.001786-2.2571429-.001785-4.5142857 0-6.7714286z"/><path d="m115.742857 25.5535714h1.026786c.001786.3785715.003571.7571429.010714 1.1375.389286-.6517857.996429-1.2464285 1.808929-1.2392857.894643-.1178571 1.685714.45 2.1 1.2053572.660714-1.2 2.355357-1.5857143 3.473214-.8125.644643.4410714.782143 1.2785714.794643 2.0053571.008928 1.4892857-.001786 2.9803571.001786 4.4696429-.360715 0-.721429 0-1.078572.0017857-.010714-1.4357143.008929-2.8696429-.005357-4.3053572-.014286-.4910714-.085714-1.0714285-.533929-1.3625-.867857-.5696428-2.260714-.0803571-2.405357.9982143-.119643 1.5517857-.017857 3.1142857-.051785 4.6714286-.360715 0-.721429 0-1.080358 0-.019642-1.6107143.048215-3.225-.035714-4.8321429-.1-1-1.433928-1.3660714-2.182143-.825-.517857.3303572-.753571.9535715-.755357 1.5464286-.019643 1.3696429-.001786 2.7392857-.008928 4.1089286-.360715 0-.719643 0-1.078572 0-.001786-2.2553572-.001786-4.5107143 0-6.7678572z"/><path d="m134 25.5535714h1.028571c0 .3785715-.001785.7553572 0 1.1339286.394643-.6285714.971429-1.2196429 1.767858-1.2321429.901785-.1357142 1.739285.4142858 2.141071 1.2.6875-1.2232142 2.451786-1.6035714 3.566071-.7535714.633929.5053572.708929 1.375.716072 2.125-.005357 1.4321429.001786 2.8625-.003572 4.2946429-.360714 0-.719642 0-1.076785 0-.001786-1.4303572.001785-2.8607143-.005357-4.2910715-.003572-.5071428-.082143-1.1125-.5625-1.3982142-.692858-.3928572-1.719643-.2392858-2.155358.4660714-.294642.4321428-.271428.9767857-.278571 1.4767857.0125 1.2482143.008929 2.4964286.003571 3.7446429-.360714 0-.721428 0-1.078571 0-.023214-1.6071429.05-3.2196429-.035714-4.825-.096429-1.0196429-1.467857-1.3625-2.2125-.8035715-.507143.3339286-.726786.9517857-.728572 1.5375-.0125 1.3642857.001786 2.7303572-.005357 4.0946429-.364286-.0035714-.725-.0053572-1.085714-.0107143.014286-2.2517857.001786-4.5053571.005357-6.7589286z"/><path d="m145.042857 27.2321429c.385714-1.7267858 2.614286-2.1267858 4.042857-1.5410715.7125.2928572 1.183929 1.0267857 1.203572 1.7928572.042857 1.6107143.001785 3.2232143.017857 4.8357143-.346429 0-.691072.0017857-1.032143.0017857-.001786-.3571429-.005357-.7142857-.001786-1.0696429-.3125.3392857-.603571.7214286-1.030357.9232143-.923214.4446429-2.108928.2910714-2.8875-.375-.855357-.8160714-.7125-2.5035714.408929-3.0178571 1.082143-.5035715 2.316071-.35 3.473214-.4803572-.017857-.6107143.025-1.4375-.65-1.725-.751786-.2964286-1.803571-.275-2.3125.4464286-.260714.4089286-.839286.1339286-1.232143.2089286zm1.476786 2.2732142c-.680357.25-.782143 1.2660715-.208929 1.6803572.8.5482143 2.035715.3071428 2.6-.475.342857-.4303572.291072-1.0160714.333929-1.5321429-.907143.0946429-1.860714.0035715-2.725.3267857z" fill-rule="nonzero"/><path d="m156.382143 26.3964286c.846428-.9928572 2.348214-1.1732143 3.526786-.7357143.828571.3214286 1.4 1.1035714 1.583928 1.9607143-.3625.0017857-.723214.0035714-1.082143.0035714-.401785-1.2678571-2.214285-1.6285714-3.098214-.6660714-.851786 1.0767857-.848214 2.7357143-.075 3.8535714.810714 1.0625 2.771429.7857143 3.167857-.5303571.366072-.0035715.732143-.0035715 1.101786 0-.148214.4553571-.3.9321428-.642857 1.2803571-.785715.8785714-2.107143 1.0303571-3.192857.7339286-1.0625-.2857143-1.810715-1.275-2.017858-2.3267857-.239285-1.2125-.119642-2.6089286.728572-3.5732143z"/><path d="m164.696429 25.6232143c1.033928-.3321429 2.278571-.2375 3.135714.4785714.675.5553572 1.019643 1.4214286 1.096428 2.275.092858.9696429-.021428 2.0125-.582142 2.8321429-.946429 1.4142857-3.139286 1.6089285-4.444643.6017857-1.116072-.8982143-1.314286-2.4857143-1.085715-3.8160714.166072-1.0392858.858929-2.0267858 1.880358-2.3714286zm.392857.9178571c-.6375.2196429-.985715.8678572-1.132143 1.4839286-.185714.9696429-.133929 2.0714286.501786 2.875.791071.8714286 2.510714.7392857 3.016071-.3821429.510714-1.0428571.494643-2.3910714-.126786-3.3857142-.471428-.7267858-1.492857-.8642858-2.258928-.5910715z" fill-rule="nonzero"/><path d="m170.655357 25.5553571c.339286-.0017857.682143-.0017857 1.025 0 0 .375-.003571.75.003572 1.1267858.380357-.6160715.95-1.1928572 1.723214-1.2214286.907143-.1482143 1.776786.3892857 2.176786 1.1928571.651785-1.125 2.183928-1.5410714 3.319642-.9178571.701786.3696428.95 1.2035714.955358 1.9482143.030357 1.5446428-.001786 3.0910714.0125 4.6375-.364286 0-.723215 0-1.082143-.0017857-.003572-1.425.007143-2.85-.001786-4.275-.003571-.5214286-.0875-1.15-.592857-1.4285715-.925-.5535714-2.326786.0607143-2.369643 1.1892857-.073214 1.5035715-.007143 3.0107143-.030357 4.5160715-.3625 0-.721429-.0017857-1.080357-.0017857-.023215-1.6035715.05-3.2089286-.033929-4.8089286-.091071-1.0482143-1.525-1.4107143-2.2625-.7839286-.532143.3732143-.701786 1.0535714-.685714 1.6714286 0 1.3089286.003571 2.6178571.003571 3.9267857-.364285-.0017857-.726785-.0035714-1.085714-.0071429.001786-2.2535714.005357-4.5089285.005357-6.7625z"/><path d="m99.0071429 30.8178571c.5767857-.2660714 1.2767861.3303572 1.0892861.9410715-.1142861.5839285-.9446433.8339285-1.346429.3803571-.4267857-.3714286-.2607143-1.1267857.2571429-1.3214286z"/><path d="m152.932143 30.8017857c.510714-.2017857 1.123214.25 1.071428.7982143.007143.6053571-.780357 1.0160714-1.260714.6339286-.548214-.3321429-.423214-1.25.189286-1.4321429z"/></g></svg>