<svg height="90" viewBox="0 0 180 90" width="180" xmlns="http://www.w3.org/2000/svg"><g fill="#fded5e" fill-rule="evenodd" transform="translate(0 29)"><path d="m17.9211909.07880911c2.5313485-.00315237 5.062697-.00315237 7.5940455 0 .0031524.81330998.0031524 1.62661996.0063048 2.44308231 4.2115586.00315236 8.4262697 0 12.6378283-.00315237 1.7464098-.11348511 3.4234676.76917689 4.4889668 2.1183888 1.6802101 2.09316987 1.090718 4.94290718 1.194746 7.41751315-2.3169877.0031523-4.6308231.0031523-6.9478108.0031523-.0630473-1.5730297.1355516-3.16497369-.1040281-4.725394-.2206655-.9267951-1.2767075-1.14430823-2.0931698-1.10963222-8.8455342.01260945-17.6942207-.00630473-26.53975486.00945709-.84168126-.05989492-1.82521892.40980735-1.8882662 1.34605954-.13870403 1.48791594-.01576182 2.98528899-.05674256 4.47950959-2.07110333 0-4.14220665 0-6.21330998 0v-6.77758314c1.00875657-1.59824869 2.75516637-2.82451839 4.70647986-2.74886165 4.40385289-.02837128 8.80770574 0 13.21155864-.00945709 0-.81646235.0031524-1.62977233.0031524-2.44308231z"/><path d="m50.0595447.08196147c2.2476357-.00945709 4.4952714-.00630473 6.7429071-.00315236-1.0875656 2.78669001-2.1971979 5.56392294-3.2847635 8.35061296.6210157.00315236 1.2451839.00315236 1.8661996.00315236.0031524 9.64308227.0031524 19.28301227 0 28.92294217-2.1656742 0-4.3345009 0-6.5001751 0-.0031524-7.8525394.0031523-15.7082311-.0031524-23.5607705-1.4217163-.0031524-2.8434326 0-4.2619965-.0031524 1.8063048-4.57408057 3.6283713-9.13870403 5.4409808-13.70963223z"/><path d="m94.274606.07880911c13.328196-.00315237 26.656392-.00315237 39.984588 0 .003153 1.26094571.003153 2.52189142 0 3.78283712-5.485113.00315237-10.970227-.00315236-16.455341.00315237 0 2.75516637-.003152 5.51348511 0 8.2686515 6.09352.0063047 12.190193.0031524 18.283713.0031524.003152 1.2609457.003152 2.5218914 0 3.7828371-5.321191 0-10.63923 0-15.960421 0 4.419615 5.945359 8.845535 11.8844133 13.290368 17.8140105.47916-.0031524.961471-.0031524 1.446935-.0063047.649387 1.2388791 1.308232 2.4714535 1.957619 3.7103327-2.323293-.0063047-4.649738.0031524-6.969878 0-.829072.0409807-1.648686-.2553415-2.187741-.8984238-1.532049-1.6455342-2.707881-3.5810858-4.170578-5.2833625-3.164973-3.6567426-5.923292-7.6476358-9.069352-11.3169878-2.978984 3.5148862-5.655341 7.2725044-8.612259 10.8063048-1.314536 1.5509632-2.484063 3.2122592-3.735551 4.8105078-.725044.8259195-1.535202 1.9229422-2.7551668 1.8756568-2.4273205.0189142-4.854641-.0031524-7.2819615.0063047.6462347-1.2420315 1.2987741-2.4777583 1.9576182-3.7103327.4823117.0031523.9646235.0031523 1.4500876.0063047 4.4322241-5.9359019 8.8612955-11.8718039 13.2872155-17.8140105-5.321191 0-10.6423819 0-15.9635728 0-.0031524-1.2609457-.0031524-2.5218914 0-3.7828371 6.0966725 0 12.1901928.0031523 18.2837128-.0031524.003152-2.75516639 0-5.51348513 0-8.2686515-5.592294-.00630473-11.1845885 0-16.780035-.00315237-.0031524-1.2609457-.0031524-2.52189141 0-3.78283712z"/><path d="m137.26655.15761821c14.182487 0 28.364974-.00315236 42.544308.00315237.003153 1.23257443.003153 2.46514886 0 3.70087565-7.367075.00315237-14.73415-.00315236-22.104378 0v33.33625217c-2.247636 0-4.495272 0-6.742907 0-.003153-11.112084 0-22.2241681-.003153-33.33625217-4.564623 0-9.129247 0-13.690718 0-.006304-1.23572679-.006304-2.46830122-.003152-3.70402802z"/><path d="m69.9761821.15761821h6.8658494c-.0031523 1.02451839 0 2.04588442 0 3.07040281 4.0098074.00315236 8.0164624 0 12.0262697.00315236.0031524 1.26094571.0031524 2.52189142 0 3.78283713-4.006655.00315236-8.0164623-.00315237-12.0262697 0v18.44133099h3.4928196c.0031524 1.2073555.0031524 2.4178634 0 3.6252189-1.1632224-.0031523-2.3295972 0-3.4928196 0-.0031523 2.7583188 0 5.5166375 0 8.2749562-2.2886164 0-4.5772329 0-6.8658494 0-.0063047-2.7583187 0-5.5166374-.0031523-8.2749562-1.1789843 0-2.3548161 0-3.5338004-.0031523-.0031523-1.2073556-.0031523-2.4147111 0-3.6189142 1.1789843-.0031524 2.3548161-.0063048 3.5338004-.0031524.0031523-6.1471103.0031523-12.2942207 0-18.44133099-4.0098074 0-8.0164624.00315236-12.0262697-.00315237-.0031524-1.25779334-.0031524-2.51873905 0-3.77968476 4.0098073-.00315236 8.0164623-.00315236 12.0262697 0-.0031524-1.02451839.0031523-2.04903678.0031523-3.07355517z"/><path d="m60.2227671 8.66900175h6.2542907c-.2868652 7.61611205-.5737303 15.23222415-.8637478 22.84518385-.0914186 1.4028021-.104028 2.8560421-.6336252 4.1768827-.5894922 1.150613-1.9576183 1.6140105-3.1744309 1.6581436-2.0049036.0252189-4.0098073-.0063047-6.014711.0063047.6556918-1.2357268 1.2924694-2.4777583 1.9607706-3.7071803.510683 0 1.021366 0 1.532049.0031523.3183888-8.3285464.6241681-16.6539404.9394046-24.98248685z"/><path d="m80.3380035 8.66900175c2.0994746-.00315236 4.1989492 0 6.2984238 0 .2963223 8.30017515.5894921 16.60035025.8921191 24.90052535.5232925 0 1.0497373 0 1.5793345.0031524.6556918 1.2577934 1.3082312 2.5187391 1.9544659 3.7828371-1.9922943-.0094571-3.9814361.0157619-5.970578-.0031523-1.2483362-.0409808-2.6637478-.5075307-3.2721541-1.6865149-.4791594-1.2073555-.4854641-2.5345009-.5674256-3.8143608-.3089317-7.7264448-.614711-15.4528897-.9141856-23.18248685z"/><path d="m7.91873905 13.0823117c.01260946-1.2609457.02837128-2.5218914.04728547-3.78283709 9.13870398 0 18.28056038-.00315237 27.41926448.00315236-2.682662 3.54956213-5.3873906 7.08336253-8.0732049 10.63292473 4.8861646.0031523 9.7754816 0 14.6616462.0031523-.0126095 1.2609457-.0283713 2.5218914-.0441331 3.7828372-5.2518389 0-10.5068301 0-15.758669 0-.0157618 2.8056042.1292469 5.6175131.0252189 8.4231173-.1670753 2.8497373-2.8182136 5.3527145-5.7152364 5.132049-3.4234676.0031524-6.8500876 0-10.2735552 0 .63993-1.2357268 1.2924694-2.4651488 1.9355517-3.7008756 1.8441331-.0220666 3.6914185.0283713 5.5355516-.0189142.8763573.0630473 1.5950964-.8070053 1.5257444-1.6549913.0252189-2.752014-.025219-5.504028-.025219-8.2591944-6.1628721-.0031523-12.32889663.0031524-18.49176879 0 .02837128-1.2357267.05674256-2.4683012.08196147-3.704028 6.21646235-.0063047 12.43292472 0 18.64623472-.0031523 1.8598949-2.2791594 3.7134851-4.5646235 5.5670753-6.8500876-5.6900175-.0063047-11.3768827 0-17.06374785-.0031524z"/><path d="m159.705079 14.2676007c2.039579-.8763573 4.085464-1.7369527 6.131348-2.6007005 3.757619 4.8830122 7.527846 9.7628721 11.285464 14.6521891-1.516287.6809107-3.007355 1.6234676-4.722241 1.6455342-1.497373-.1071804-2.619615-1.2231174-3.606305-2.241331-3.332049-3.5684764-6.055692-7.641331-9.088266-11.4556918z"/></g></svg>