<svg height="90" viewBox="0 0 180 90" width="180" xmlns="http://www.w3.org/2000/svg"><g fill="none" fill-rule="evenodd" transform="translate(2 20)"><g fill="#373331"><path d="m1 26.11c-.01204614-1.4820887.26301688-2.9524873.81-4.33.50726735-1.2847787 1.27699957-2.4495947 2.26-3.42.99861131-.9693166 2.18211509-1.7277113 3.48-2.23 1.40566039-.5450028 2.9024736-.8165336 4.41-.8 1.7351597-.0747141 3.4648051.2431852 5.06.93 1.138505.5253901 2.1409887 1.3054799 2.93 2.28.6603786.8317213 1.1313312 1.7975156 1.38 2.83.2074573.8415645.3214797 1.7034399.34 2.57h-16c-.22242809 1.6184955-.13418546 3.26456.26 4.85.32467966 1.2648476.96855361 2.425198 1.87 3.37.89727072.9041098 2.00305537 1.573762 3.22 1.95 1.4118894.4337522 2.8831638.6429701 4.36.62.4966272-.0116672.9930115.0319342 1.48.13.3483311.0704785.5836427.3973003.54.75 0 .4866667-.3633333.82-1.09 1-1.0018565.2378814-2.0307904.3421198-3.06.31-1.5382703.0042203-3.0685246-.2216102-4.54-.67-1.42008076-.4160627-2.74967049-1.0944248-3.92-2-1.16795269-.9003432-2.11812969-2.0521764-2.78-3.37-.70414977-1.4894438-1.05003531-3.1229824-1.01-4.77zm13.28-4c.569744.0277446 1.1335588-.1263414 1.61-.44.3781594-.275463.5923748-.7226845.57-1.19-.0002698-.9049025-.4746005-1.7435193-1.25-2.21-.8383999-.5740911-1.8339861-.8745136-2.85-.86-1.300437-.054706-2.56013075.4601253-3.45 1.41-.85960805.9395436-1.48946143 2.0657488-1.84 3.29z" fill-rule="nonzero"/><path d="m24.24 16.2 2.21-.34c.78-.12 1.55-.2233333 2.31-.31s1.4966667-.1566667 2.21-.21c.7066667-.0533333 1.32-.08 1.84-.08 1.6993038-.0722504 3.3966803.1823561 5 .75 1.1621374.4863629 2.0978443 1.3934985 2.62 2.54.6334302 1.4874806.9730067 3.0834903 1 4.7.1066667 1.94.16 4.3266667.16 7.16 0 2.18-.0166667 3.8833333-.05 5.11-.0109624.9202212-.0811072 1.8387844-.21 2.75-.022466.4074375-.1690224.7982544-.42 1.12-.1772542.1375751-.3956263.2115399-.62.21-.353179.0205591-.6749243-.2021876-.78-.54-.1506969-.3997578-.2808666-.8069555-.39-1.22-.1183343-.4419754-.3221794-.8564605-.6-1.22-.3540406-.3926826-.8739663-.5932254-1.4-.54-.458583-.0026605-.9166641.0307761-1.37.1-.4333333.0666667-.8733333.1533333-1.32.26s-.92.1833333-1.42.23c-.5671975.0707177-1.1384258.1041228-1.71.1-.9915402.0373712-1.9806404-.1223804-2.91-.47-.63402-.2465657-1.2022334-.6367845-1.66-1.14-.3656053-.4186151-.6322054-.9142178-.78-1.45-.1327481-.4721466-.2033436-.9595918-.21-1.45-.0051917-1.0371378.3762964-2.0389897 1.07-2.81.785746-.8726133 1.7376482-1.5797406 2.8-2.08 1.2442034-.601267 2.5479898-1.0704961 3.89-1.4 1.4181159-.3583993 2.8577287-.6256128 4.31-.8.128351-1.0325483.0118775-2.0808104-.34-3.06-.3094828-.7724284-.8555765-1.4270408-1.56-1.87-.8114375-.4858363-1.7129112-.8022025-2.65-.93-1.1944184-.1832951-2.4016426-.270242-3.61-.26h-3c-.8466667 0-1.6666667.0433333-2.46.13zm6.23 15.56c-.0326181.8396767.2450403 1.6619729.78 2.31.549264.6207555 1.3524064.9560122 2.18.91.4275914-.011091.8530191-.0646882 1.27-.16.5053466-.1050689.9825697-.3164105 1.4-.62.4596866-.3385559.8415756-.7715908 1.12-1.27.3385885-.6464976.5007056-1.3708509.47-2.1.0537824-.9067445-.2233792-1.8021898-.78-2.52-.5665255-.6263057-1.3870316-.9611311-2.23-.91-1.167728-.0485964-2.294026.4372577-3.06 1.32-.7478433.8351831-1.1578233 1.9189562-1.15 3.04z" fill-rule="nonzero"/><path d="m46.91 33.32c.1733333-.4866667.59-.6433333 1.25-.47.2936429.0745931.5811485.1715427.86.29.4.1533333.8833333.3166667 1.45.49.6315518.1893595 1.272392.3462318 1.92.47.7447826.1428289 1.5016523.2131575 2.26.21 1.3391579.0949617 2.6720152-.2567157 3.79-1 .7960661-.5471849 1.2799441-1.4442203 1.3-2.41.0527379-.8999662-.2863791-1.7787532-.93-2.41-.6411409-.5831479-1.3925865-1.0319752-2.21-1.32-.9119852-.3421436-1.8436553-.6293251-2.79-.86-.9752979-.226313-1.9289319-.5374988-2.85-.93-.8467475-.3526273-1.6024006-.892868-2.21-1.58-.6472848-.7780077-.9823079-1.7688207-.94-2.78-.0056596-.8064985.2199103-1.5977283.65-2.28.4629641-.7190538 1.085836-1.3213915 1.82-1.76.8635483-.5186702 1.8009217-.9030608 2.78-1.14 1.1709178-.29002 2.3737512-.4311345 3.58-.42.52 0 1.1866667.0366667 2 .11.766332.065801 1.5278115.179355 2.28.34.6412034.1258363 1.2565327.3591205 1.82.69.4258518.1915414.6624574.6522997.57 1.11-.0291063.2373032-.1756896.4440233-.39.55-.2309926.1218311-.4888745.1837228-.75.18-.5468002-.0038798-1.0897739-.091565-1.61-.26-.8672449-.2076953-1.7589257-.295181-2.65-.26-.6192613.0008891-1.2364636.0713307-1.84.21-.5764336.1291556-1.1342001.330758-1.66.6-.4666063.2399248-.8733012.5816852-1.19 1-.2691809.3684843-.4129045.8136771-.41 1.27-.0184187.5722807.1273186 1.1378801.42 1.63.2834116.4292076.6507924.7965884 1.08 1.08.4982932.3252492 1.0404151.5777905 1.61.75l1.89.6c.76.24 1.5633333.48 2.41.72.8129547.2414718 1.5949203.5770794 2.33 1 .6969965.3890449 1.2983006.928852 1.76 1.58.4952369.7517147.7402367 1.6407138.7 2.54.0102233.8664076-.2218338 1.7184383-.67 2.46-.4809924.7734022-1.1391194 1.4212461-1.92 1.89-.9310342.5590765-1.9430231.9706187-3 1.22-1.2398566.3051681-2.513206.4529976-3.79.44-.5533333 0-1.1833333-.0333333-1.89-.1-.7161582-.070653-1.4274349-.1841902-2.13-.34-.6768741-.152164-1.3446059-.3424675-2-.57-.6002518-.1965402-1.1744457-.4651689-1.71-.8-.318145-.2114288-.6072647-.463568-.86-.75-.2692302-.2591381-.3232-.6701387-.13-.99z"/><path d="m71.61 33.16c-.2002084-1.1997671-.3038741-2.4136584-.31-3.63-.0333333-1.52-.0333333-3.1366667 0-4.85s.1366667-3.38.31-5c.1533333-1.64.3166667-3.0333333.49-4.18h3.84c-.1752579 2.8940157-.1752579 5.7959843 0 8.69.0989131 1.9383275.4107895 3.8598883.93 5.73.2931328 1.171042.8740365 2.2503542 1.69 3.14.6050684.6291511 1.4371736.9893699 2.31 1 1.0576648-.0058005 2.0341244-.5681197 2.57-1.48.772873-1.208464 1.3499861-2.5314367 1.71-3.92.5141662-1.8266828.931415-3.6792674 1.25-5.55.36-2.0733333.75-4.2 1.17-6.38.0491251-.3477812.1537915-.6854146.31-1 .1767957-.2808978.5009189-.4331967.83-.39.3398021-.0273385.6571343.1720112.78.49.1669021.3639653.2749153.7521376.32 1.15.14 2.2133333.28 4.5466667.42 7s.2166667 4.85.23 7.19c0 2.32-.07 4.4566667-.21 6.41-.084697 1.6011896-.3909449 3.1829095-.91 4.7-.5121187 1.4218389-1.3276741 2.7151255-2.39 3.79-1.0068264 1.0333774-2.1630359 1.9098044-3.43 2.6-2.2135472 1.1870255-4.6786121 1.828148-7.19 1.87-.4954832.0224123-.9882779-.0844173-1.43-.31-.313544-.1363247-.5227676-.4385365-.54-.78-.0511566-.3332971.1358564-.657453.45-.78.3133333-.12.6766667-.25 1.09-.39 2.619918-.714466 5.0529098-1.9906777 7.13-3.74 1.3525562-1.1614789 2.1545495-2.8380441 2.21-4.62.0576783-1.0169958-.2352972-2.0229959-.83-2.85-.574571-.6833852-1.4388222-1.0543085-2.33-1-.9578356-.0097771-1.9137652.087493-2.85.29-.7467552.1816719-1.5115432.2789476-2.28.29-.6090273.0011687-1.2173219-.0422809-1.82-.13-.5502201-.0744729-1.0841932-.2400721-1.58-.49-.4746966-.2404208-.8910864-.5817239-1.22-1-.3906039-.5543853-.6379551-1.1968112-.72-1.87z"/></g><g fill="#77c17b"><path d="m94.08 17.03c0-.4866667.44-.85 1.32-1.09 1.0762289-.2632211 2.1823151-.3842518 3.29-.36 1.1058129-.07813 2.209737.1760859 3.17.73.757062.6551453 1.094778 1.6721305.88 2.65l-1.19 17.8h-2.28c-.1733333-2.6266667-.3466667-5.1866667-.52-7.68s-.3633333-4.9833333-.57-7.47c-.0190941-.4215395-.0793812-.8402001-.18-1.25-.0755043-.2898873-.219546-.5573933-.42-.78-.2304386-.2363071-.5013957-.429364-.8-.57l-1.3-.62c-.38-.1733333-.7133333-.3366667-1-.49-.2912702-.1874542-.4473236-.5268705-.4-.87zm2.9-12.56c-.0344129-.88297089.2105398-1.75430265.7-2.49.416083-.63620525 1.1299416-1.01390824 1.89-1 .778943-.02518796 1.515902.35273972 1.95 1 .48946.73569735.734413 1.60702911.7 2.49.019177.80464935-.068249 1.60829673-.26 2.39-.134765.53164237-.35424 1.03812224-.65 1.5-.213646.33573174-.50972.61114938-.86.8-.271776.1432355-.5728952.2219372-.88.23-.3012861-.00429441-.5967924-.08332516-.86-.23-.3373096-.19559668-.6221237-.47011631-.83-.8-.2960696-.46171306-.5155666-.96824462-.65-1.5-.1888506-.78207249-.27292-1.58577578-.25-2.39z" fill-rule="nonzero"/><path d="m108.45 25.07c-.018611-1.3779326.264688-2.7432315.83-4 .54042-1.15746 1.329095-2.1817134 2.31-3 1.020277-.8494391 2.190381-1.5006274 3.45-1.92 1.38979-.4598916 2.846186-.6862918 4.31-.67 1.305887-.0214828 2.610234.0992279 3.89.36 1.073333.24 1.99.4833333 2.75.73v4.5c-.914768-.822997-1.921422-1.5377213-3-2.13-1.110007-.5927079-2.351755-.8954054-3.61-.88-.912039-.0142754-1.81627.1699831-2.65.54-.766964.3500444-1.449207.8617269-2 1.5-.565399.6580498-1.00595 1.4137649-1.3 2.23-.316299.8717346-.475432 1.7926721-.47 2.72-.065156 1.6481389.27838 3.2868037 1 4.77.601874 1.1839015 1.471577 2.21111 2.54 3 .99682.7142193 2.12518 1.2240203 3.32 1.5 1.0772.2642594 2.180958.4051647 3.29.42.304145.0054654.608284-.0112455.91-.05.285045-.0378157.572493-.0545278.86-.05.52 0 .78.2066667.78.62s-.423333.82-1.27 1.22c-1.078013.3638806-2.212929.5298832-3.35.49-1.997498.0586419-3.982766-.3308942-5.81-1.14-1.482481-.6796401-2.80725-1.6604454-3.89-2.88-.981271-1.1177001-1.723187-2.424561-2.18-3.84-.446859-1.3011538-.686448-2.6644531-.71-4.04z"/><path d="m129.36 25.85c-.147964-2.8895826.982018-5.6980832 3.09-7.68 2.06-1.8666667 4.87-2.8 8.43-2.8s6.386667.9266667 8.48 2.78c2.103367 1.9516238 3.234759 4.7343356 3.09 7.6.020645 1.5501311-.250749 3.0902911-.8 4.54-.510218 1.3275449-1.29774 2.530987-2.31 3.53-1.039709 1.0096164-2.275059 1.7957481-3.63 2.31-3.111292 1.1060458-6.508708 1.1060458-9.62 0-2.71757-.9907736-4.872999-3.1097323-5.91-5.81-.555557-1.4241682-.833881-2.9413712-.82-4.47zm4.77 0c0 2.8133333.606667 4.9566667 1.82 6.43 1.199941 1.4767154 3.029204 2.29673 4.93 2.21 1.921353.0899916 3.77323-.7285379 5-2.21 1.226667-1.4733333 1.84-3.6166667 1.84-6.43s-.636667-4.8533333-1.91-6.12c-1.314426-1.3280718-3.134151-2.0304856-5-1.93-1.843807-.0918336-3.638589.610789-4.93 1.93-1.166667 1.2933333-1.75 3.34-1.75 6.14z" fill-rule="nonzero"/><path d="m158.31 14.02c.043929-.2766733.142513-.5418292.29-.78.159378-.1901551.403447-.2877825.65-.26.335898-.0062716.638073.2032369.75.52.177525.3887381.384808.7631848.62 1.12.31328.4503609.71896.8287691 1.19 1.11.784621.3982458 1.662002.5778672 2.54.52.580981.0028234 1.161729-.0238777 1.74-.08.5-.05 1-.11 1.48-.18l1.48-.18c.5616-.05548 1.125671-.0821816 1.69-.08 1.099978-.0654519 2.189547.2448461 3.09.88.772415.6344776 1.339602 1.483519 1.63 2.44.299446 1.0850667.490383 2.1971917.57 3.32.14 1.4533333.226667 3.0266667.26 4.72s.033333 3.4066667 0 5.14c-.053333 1.7266667-.13 3.23-.23 4.51h-3c-.033333-1.04-.093333-2.2233333-.18-3.55s-.206667-2.6833333-.36-4.07c-.153333-1.38-.37-2.7366667-.65-4.07-.230065-1.2100207-.564652-2.3978055-1-3.55-.341274-.9141127-.831202-1.765574-1.45-2.52-.453055-.6098131-1.160617-.9783351-1.92-1-.99954-.0007884-1.940907.4698946-2.54 1.27-.794365 1.050093-1.39077 2.2361247-1.76 3.5-.540383 1.7162045-.964675 3.4668253-1.27 5.24-.36 2-.733333 4.1633333-1.12 6.49-.086816.5817622-.227419 1.1542153-.42 1.71-.112375.3298674-.432286.5431416-.78.52-.359656.0272356-.702626-.1559417-.88-.47-.228327-.5591984-.350412-1.1560596-.36-1.76-.106667-1.14-.203333-2.5833333-.29-4.33s-.14-3.5733333-.16-5.48c0-1.94.016667-3.85.05-5.73s.146667-3.52.34-4.92z"/></g></g></svg>