<svg height="90" viewBox="0 0 180 90" width="180" xmlns="http://www.w3.org/2000/svg"><path d="m160.20766 11.9259574h5.553191c6.769149 0 12.864255 2.1102128 12.818298 10.2197873 0 7.7074468-6.861064 10.3978723-12.638298 10.3978723-7.314894 0-12.891064-2.6425532-12.914042-10.0857447v-1.0302127h6.951063v1.0302127h.00383c0 2.8282979 3.24766 3.9025532 5.865319 3.9025532 1.715745 0 5.777234-.6261702 5.777234-4.2127659.044043-3.4965958-3.745532-4.212766-5.867234-4.212766h-12.102127v-17.11914892h23.158723v6.27319149h-16.607872v4.83702123zm-30.676596 20.2117022h-12.96v-31.36595747h12.958085c10.876596 0 15.707872 7.25361702 15.707872 15.45893617 0 8.2014894-4.649361 15.9070213-15.707872 15.9070213zm0-25.04680854h-6.008936v18.59744684h6.007021c6.861064 0 8.758723-5.022766 8.758723-9.5457447 0-4.5268085-2.167659-9.05361703-8.758723-9.05361703zm-44.5787236 8.39106384v16.6557447h-7.0353191v-31.79297875l.9880851-.17234042 19.1297872 17.14978727v-16.55042557h7.0410634v31.89638297l-.733404.126383-19.3882977-17.3106383zm-32.6221276 17.4255319c-10.1106383 0-17.0674468-6.2368085-17.0674468-16.4527659 0-10.21978728 6.9548936-16.44893622 17.0674468-16.44893622 10.1106383 0 17.0655319 6.22914894 17.0655319 16.44893622 0 10.2159574-6.9510638 16.4489361-17.0655319 16.4489361zm0-26.62851063c-6.0070213 0-10.1623405 4.48085103-10.1623405 10.17382983 0 5.8710638 4.1553192 10.1297872 10.1642554 10.1297872 6.1391489 0 10.1585106-4.3046809 10.1585106-10.1297872 0-5.7389362-4.0212766-10.17574472-10.1585106-10.17574472zm-35.5365958 16.98702123h-4.3180851v-6.4053191h4.3180851c3.3893617 0 5.0553192-2.1982979 5.0553192-4.7068085 0-2.50851065-1.7138298-4.75276597-5.0553192-4.75276597h-7.85106381v24.73659577h-7.04680851v-31.36595747h14.89787232c8.0808511 0 12.0925532 5.19510638 12.0925532 11.24808507 0 6.2712766-4.0634042 11.1580851-12.0944681 11.2461702z" fill="#191919" transform="translate(0 28)"/></svg>