<svg height="90" viewBox="0 0 180 90" width="180" xmlns="http://www.w3.org/2000/svg"><g fill="none"><g transform="translate(0 21)"><path d="m0 0h47.172414v47.172414h-47.172414z" fill="#000" opacity="0"/><path d="m47.1724138 29.2999655c0-6.5363276-6.5353448-11.8589482-13.8873621-11.8589482-7.7893448 0-13.9060345 5.3226206-13.9060345 11.8589482 0 6.5530345 6.1166897 11.8569828 13.9060345 11.8569828 1.6294138 0 3.2775001-.4157069 4.9059311-.8127414l4.4892414 2.4608276-1.2284483-4.0902414c3.2755345-2.4618104 5.7206379-5.7383276 5.7206379-9.4148276zm-18.3982241-2.0461034c-.8127414 0-1.6274483-.8137242-1.6274483-1.6303966 0-.8117586.8147069-1.6274483 1.6274483-1.6274483 1.2323793 0 2.048069.8156897 2.048069 1.6274483-.0000001.8166724-.8156897 1.6303966-2.048069 1.6303966zm9.0010862 0c-.8137242 0-1.6264656-.8137242-1.6264656-1.6303966 0-.8117586.8127414-1.6274483 1.6264656-1.6274483 1.2304138 0 2.0461034.8156897 2.0461034 1.6274483 0 .8166724-.8353448 1.6303966-2.0461034 1.6303966zm-5.8395518-11.2575c.5356035 0 1.0731725.0373448 1.6077931.0923793-1.4407241-6.73189656-8.6325517-11.72234485-16.8454655-11.72234485-9.17208617 0-16.6980517 6.24936205-16.6980517 14.19987925 0 4.5865345 2.49718966 8.3573794 6.67587929 11.2801035l-1.66381032 5.0277931 5.84250003-2.9384483c2.0893448.4058794 3.7718276.8323966 5.8434827.8323966.5169311 0 1.0368104-.0186724 1.5547242-.0717414-.3331552-1.1115-.5179138-2.2917931-.5179138-3.4956724-.0009828-7.2871552 6.2690172-13.2043448 14.200862-13.2043448zm-8.9883103-4.5305173c1.2569482 0 2.088362.8323966 2.088362 2.0903276 0 1.2559655-.8323965 2.0883621-2.088362 2.0883621-1.2579311 0-2.5138966-.8323966-2.5138966-2.0883621.0186725-1.2589138 1.2736552-2.0903276 2.5138966-2.0903276zm-11.6859828 4.1767242c-1.257931 0-2.51389652-.8314138-2.51389652-2.0883621 0-1.257931 1.25694822-2.0893448 2.51389652-2.0893448 1.2589138 0 2.0913104.8323965 2.0913104 2.0893448-.0009828 1.2392586-.8323966 2.0883621-2.0913104 2.0883621z" fill="#d9dada"/></g><g transform="translate(60.827586 22.241379)"><path d="m14.7773793 9.08275862c-.1191724.53627586-.2383448 1.03282758-.3575172 1.50951728.3773793 2.2642758.8540689 4.2107586 1.449931 5.8791724.6951724-2.1053793 1.0725517-4.5682759 1.1122759-7.38868968zm.6355862 8.60027588c-.5958621-1.5889655-1.0924138-3.3964138-1.4896552-5.4422069-.3575172 1.0924138-.7746206 2.0656552-1.2513103 2.9197241l-.6157241-.7547586c1.1917241-2.3834483 2.0060689-5.62096551 2.4231724-9.69268965l.9732414.17875862c-.1390345 1.11227586-.2979311 2.18482759-.4766897 3.17793103h3.8135172v1.01296552h-.8540689c-.0794483 3.41627588-.5958621 6.33599998-1.5492414 8.71944828.7547586 1.7875862 1.6684138 3.158069 2.7409655 4.1114483l-.6157241.9136551c-1.0129655-.9732413-1.8868966-2.2841379-2.6019311-3.9326896-.7746206 1.5691034-1.7677241 2.88-2.9594482 3.9525517l-.576-.8937931c1.2711724-1.1122759 2.2841379-2.5423448 3.0388965-4.2703448zm-5.1045517 3.9922758-.43696552-.9136551c.19862072-.1191724.31779312-.278069.35751722-.4965518v-4.0121379h-2.4231724v.8739311c-.03972413 2.5423448-.69517241 4.4491034-1.92662069 5.6805517l-.79448275-.6951724c1.11227586-1.152 1.68827586-2.8005518 1.70813793-4.9853793v-1.8670345h4.40937931v4.6874482c.6355862-.5362758 1.2711724-1.1321379 1.9266207-1.7677241l.2184827.9136552c-.9931034 1.0526896-2.0060689 1.9067586-3.0388965 2.5820689zm-1.60882759-16.84303444h.93351724v4.58813793h1.68827585v-3.55531034h.9136552v4.50868965h-6.17710347v-4.50868965h.91365518v3.55531034h1.728zm-4.50868966.09931035.91365517.41710345c-.85406896 2.14510344-2.20468965 3.99227586-4.05186206 5.56137934l-.31779311-1.05268969c1.58896552-1.4697931 2.74096552-3.09848276 3.456-4.9257931zm.09931035 5.30317239.93351724.4171035c-.31779311.7944827-.67531035 1.5492413-1.0924138 2.2642758v10.0899311h-1.01296551v-8.5804138c-.59586207.7746207-1.27117242 1.4896551-2.00606897 2.1649655l-.3177931-1.0328276c1.62868965-1.5889655 2.80055172-3.3566897 3.49572414-5.3230345zm1.68827586 2.1848276h6.09765514v.9931035h-6.09765514zm17.12110344-1.1321379c-.6753103 1.0328276-1.4102069 2.025931-2.2245517 2.9395862l-.3575173-1.1321379c2.0259311-2.5026207 3.4957242-5.30317246 4.3895173-8.44137936l1.0129655.47668966c-.4766897 1.54924138-1.0725517 2.97931034-1.7677241 4.32993103v13.52606897h-1.0526897zm2.9395862-3.67448278h12.8308966v1.03282758h-12.8308966zm1.8471724 2.93958618h9.2557242v.9732414h-9.2557242zm0 2.8005517h9.2557242v.9931035h-9.2557242zm9.5933793 2.9197242v6.6537931h-1.0526896v-1.0924138h-7.8057931v1.0924138h-1.0725517v-6.6537931zm-8.8584827 4.5285517h7.8057931v-3.5155862h-7.8057931zm3.6546207-16.02868964c.4369655.83420689.7746207 1.60882758 1.0129655 2.32386206l-.9533793.37737931c-.2979311-.83420689-.6554483-1.64855172-1.0924138-2.42317241zm14.2411034.25820689 1.0129655.39724138c-1.5293793 4.17103448-3.5354482 7.36882757-5.9983448 9.55365517l-.8342069-.7348965c2.5622069-2.2642759 4.5086897-5.3428966 5.8195862-9.21600005zm6.2565517 10.52689655c1.6088276 2.1649655 2.9991725 4.4689655 4.1908966 6.912l-.9931035.4568276c-.3177931-.6753104-.6355862-1.3108966-.9533793-1.9067586-3.5354482.5561379-7.5277241.9732413-11.9371034 1.2513103l-.1986207-1.0328276c1.728-1.152 3.734069-4.3696551 6.038069-9.6728276l1.0526896.3376552c-1.7875862 4.0915862-3.5553103 7.1702069-5.3428965 9.2557242 3.5751724-.2383449 6.8524138-.5958621 9.8714482-1.0725518-.873931-1.5492414-1.7677241-2.9395862-2.7211034-4.2107586zm-.2780689-10.66593103c1.171862 3.7737931 3.2176551 6.87227583 6.1572414 9.25572413l-.7348966.873931c-3.0190345-2.4827586-5.1442759-5.68055168-6.336-9.61324134zm16.6046896-.03972414h.8143449c2.4231724 3.1382069 5.2435862 5.62096547 8.4215172 7.42841377l-.5561379.9931035c-3.2176552-1.9067586-5.9784828-4.3696552-8.2626207-7.42841382-2.1053793 2.89986207-4.9059311 5.40248272-8.3817931 7.50786202l-.5362759-.9931034c3.3964138-2.006069 6.2366897-4.50868966 8.5009655-7.50786207zm-3.7340689 6.97158617h1.0129655c0 1.3704828-.0993104 2.6019311-.2582069 3.7142069 1.2711724 1.2115862 2.3635862 2.4231724 3.2375172 3.6546207l-.7547586.7746207c-.7150345-1.0725517-1.6088276-2.2046896-2.7012414-3.3765517-.0794482.3177931-.1588965.6355862-.2383448.9335172-.6554483 2.0656552-2.1053793 3.734069-4.329931 5.0251035l-.6554483-.8342069c1.9464827-1.1122759 3.2573793-2.5622069 3.9326896-4.310069.4766897-1.4697931.7348966-3.3368276.7547587-5.5812414zm6.9517241-.1588965h1.0526897c0 1.1917241-.0595862 2.304-.1787587 3.3368276 1.0328276 2.8601379 2.8005518 5.1244138 5.3031725 6.7928276l-.6753104.8143448c-2.2046896-1.5492414-3.8532414-3.4957242-4.9257931-5.8394483l-.1787586.7348966c-.5958621 2.1053793-1.8868966 3.8333793-3.8929655 5.1641379l-.6554483-.8342069c1.728-1.152 2.8998621-2.6217931 3.4957241-4.4292414.4369655-1.5095172.6554483-3.4361379.6554483-5.7401379zm9.1166897-5.85931036h15.9492413v1.07255173h-7.5475862v7.84551723h8.2824828v1.0526897h-8.2824828v7.1503448h-1.0725517v-7.1503448h-8.1235862v-1.0526897h8.1235862v-7.84551723h-7.3291034zm2.1451034 2.60193104c.7746207 1.39034482 1.5095172 2.91972412 2.1848276 4.58813792l-1.0129655.4965517c-.6753104-1.728-1.4102069-3.2573793-2.1649655-4.60799997zm11.6788966-.13903449.9931034.45682759c-.6355862 1.62868962-1.4697931 3.19779312-2.4628965 4.70731032l-.9732414-.4965517c1.0328276-1.5691034 1.8471724-3.11834483 2.4430345-4.66758621zm20.4976552 6.55448281v8.1434482h-1.072552v-1.1321379h-10.884414v1.1321379h-1.072551v-8.1434482zm-11.956966 5.9586206h10.884414v-4.9257931h-10.884414zm-2.582069-8.1831724-.19862-1.0129655c1.92662-.7944827 4.151172-3.05875861 6.653793-6.79282758l1.092414.37737931c-1.926621 2.80055173-3.83338 4.92579307-5.740138 6.37572417 4.210758-.1787586 8.083862-.4369655 11.659034-.7944828-.873931-1.19172412-1.747862-2.28413792-2.621793-3.27724137l.993104-.47668965c1.747862 2.02593103 3.396413 4.21075862 4.905931 6.59420692l-1.032828.5164138c-.516414-.854069-1.05269-1.6485518-1.569103-2.4033104-4.210759.3972414-8.918069.6951724-14.141794.8937931z" fill="#313131"/><path d="m5.61103448 41.4151724h-1.89931034l-.21103448-.9310345c.62068965.0496552 1.21655172.0744828 1.77517241.0744828.45931034 0 .69517241-.2358621.69517241-.6951724v-9.5089655h.91862069v9.7448275c0 .8689656-.43448276 1.3158621-1.27862069 1.3158621zm-2.96689655-8.1806896.8937931.3475862c-.59586206 2.4827586-1.37793103 4.3696551-2.34620689 5.6606896l-.76965517-.6827586c.99310344-1.3158621 1.72551724-3.0910345 2.22206896-5.3255172zm7.05103448-.2979311c.98068969 2.222069 1.73793099 4.1586207 2.25931039 5.8096552l-.7944828.5586207c-.5586207-1.7627586-1.31586207-3.7117242-2.27172414-5.8593104zm8.56551729-2.3089655h5.1517241v3.5875862h-5.1517241zm4.2827586 2.7806897v-1.9862069h-3.4013793v1.9862069zm-4.7668966 1.9613793h6.1696552v.8193103h-2.7062069v1.5889655h2.3213793v.8068966h-2.3213793v1.6758621h3.0041379v.8441379h-6.9641379v-.8441379h3.0413793v-1.6758621h-2.2593103v-.8068966h2.2593103v-1.5889655h-2.5448276zm-4.6427586-1.8h1.8124138v-1.8c-.5213793.0744827-1.0675862.1489655-1.6262069.2110345l-.1737931-.844138c1.5517241-.1489655 2.9296552-.4096551 4.1213793-.7820689l.3103448.8441379c-.5586207.1613793-1.1544827.297931-1.7751724.422069v1.9489655h1.6013793v.8565517h-1.6013793v.657931c.5834483.5710345 1.1793104 1.2165518 1.7751724 1.924138l-.4965517.7448275c-.4965517-.7696551-.9310345-1.3903448-1.2786207-1.8496551v5.5986207h-.8565517v-5.5986207c-.4344828 1.2165517-1.0055172 2.3089655-1.7131035 3.2896551l-.3848275-.9931034c.9434482-1.1048276 1.6137931-2.3586207 2.0110344-3.7737931h-1.7255172zm18.3724138-3.4510345c.1737931.3227586.3475862.6827586.5089655 1.08h4.4937931v.8193103h-9.1613793v3.1903449c-.0496552 2.6317241-.4841379 4.7296551-1.3282759 6.3186207l-.6703448-.5958621c.7075862-1.3779311 1.08-3.2896552 1.1048276-5.7227586v-4.0096552h4.6675862c-.1613793-.3351724-.3351724-.6455173-.5213793-.9310345zm-1.08 4.257931c.5958621.2979311 1.142069.6082759 1.6386207.9186207.7448276-.4344827 1.4275862-.9434483 2.0482758-1.5144827h-5.4744827v-.7696552h6.5917241v.6455172c-.7572414.8068966-1.5889655 1.502069-2.4827586 2.0855173.1986207.1241379.3848276.2606896.5586207.3972413l-.1862069.1862069h3.1531034v.6951725c-.5089655.9682758-1.08 1.7875862-1.7131034 2.457931l-.6703448-.5337931c.5213793-.4965517.9931034-1.0924138 1.4275862-1.7875862h-2.8551724v3.3144827c0 .7324138-.3724138 1.1048276-1.1048276 1.1048276h-1.8248276l-.1862069-.8441379c.5958621.0372414 1.1668965.062069 1.7131034.062069.3351725 0 .5089656-.1862069.5089656-.5337931v-3.1034483h-3.6496552v-.8317242h4.4193103c-.6455172-.4468965-1.4648276-.9310344-2.4455172-1.4275862z" fill="#a6a6a6"/></g></g></svg>