<svg height="90" viewBox="0 0 180 90" width="180" xmlns="http://www.w3.org/2000/svg"><g fill="#ff8a00" fill-rule="evenodd"><path d="m28.8161435 21c.701181.0783957 1.3553483.3912583 1.8565022.8878924l-16.1434977 34.4663677c-1.7757848 0-6.05381168.2421525-7.10313903.2421525-.70118098-.0783957-1.3553483-.3912584-1.85650224-.8878924l-5.56950673-34.4663677c3.39013453 0 7.58744395-.2421525 8.79820628-.2421525.70100484.0790107 1.35498012.3917815 1.85650222.8878924l1.6950673 16.8699551c.1527675 1.8525435.1797352 3.7133142.0807175 5.5695068.4462635-2.0228358 1.0122826-4.0173793 1.6950672-5.9730942l6.6995516-17.0313901c3.1479821-.0807175 6.8609866-.32287 7.9910314-.32287z"/><path d="m45.4439462 38.0313901c0 3.7130045-2.0986547 6.2152467-7.3452915 7.3452915l-5.4887892 1.1300449c.4035874 2.3408071 1.9372197 3.470852 4.3587444 3.470852 1.9243234-.0640785 3.7481433-.8746652 5.0852018-2.2600897.9049976.5562672 1.4784643 1.522106 1.5336322 2.5829596 0 3.1479821-4.8430493 6.5381166-10.412556 6.5381166s-9.3632287-3.5515695-9.3632287-9.6053811c0-6.9417041 4.9237668-16.4663678 13.8026906-16.4663678 4.8430493 0 7.8295964 2.9058296 7.8295964 7.264574zm-9.2825112 3.632287c1.0380578-.3190023 1.6889459-1.3467204 1.5336323-2.4215246 0-1.0493274-.32287-2.5829597-1.5336323-2.5829597-2.1793722 0-3.1479821 3.470852-3.470852 6.1345292z" fill-rule="nonzero"/><path d="m60.2959641 30.7668161c4.4394619 0 7.8295964 2.3408072 7.8295964 5.4080718 0 3.793722-4.6008968 5.2466368-4.6008968 5.2466368s-1.3721973-4.1973095-4.4394619-4.1973095c-2.0986547 0-3.309417 2.0986548-3.309417 6.6995516 0 4.1973094 1.1300448 6.0538117 3.7937219 6.0538117 1.6908901-.0071206 3.3124051-.6730999 4.5201794-1.8565023.9049976.5562673 1.4784644 1.522106 1.5336323 2.5829597 0 2.9865471-4.6008969 6.2152466-10.0089686 6.2152466-5.7309417 0-9.2825112-3.5515695-9.2825112-9.5246637-.0807175-7.1838565 5.0044843-16.6278027 13.9641255-16.6278027z"/><path d="m81.6860987 25.1973094c.6734774.0316251 1.309123.320555 1.7757847.8071749l-.8071749 5.2466368h5.5695067l-1.2914798 4.0358744c-.4035874 1.2914798-1.0493273 2.0179372-2.3408071 2.0179372h-2.9058296l-1.6143498 10.2511211c-.2421525 1.6950673.0807175 2.4215247 1.2107623 2.4215247.7169967-.0380632 1.412044-.2604784 2.0179372-.6457399.8826589.5401212 1.4529459 1.4705894 1.5336323 2.5022421 0 2.5022422-3.5515695 5.0044843-8.1524664 5.0044843-4.8430493 0-6.780269-2.9058296-5.9730941-8.0717489l1.8565022-11.4618834h-3.0672646l1.2914799-4.1973094c.2823284-1.0693967 1.2352147-1.8251341 2.3408071-1.8565022h1.4529148l1.7757848-4.8430494c2.2600897-.4843049 4.2780269-1.2107623 5.3273543-1.2107623z"/><path d="m108.807175 38.0313901c0 3.7130045-2.098655 6.2152467-7.345292 7.3452915l-5.4887888 1.1300449c.4035874 2.3408071 1.9372197 3.470852 4.3587448 3.470852 1.924323-.0640785 3.748143-.8746652 5.085201-2.2600897.904998.5562672 1.478465 1.522106 1.533633 2.5829596 0 3.1479821-4.84305 6.5381166-10.4125564 6.5381166-5.5695067 0-9.3632287-3.5515695-9.3632287-9.6053811 0-6.9417041 4.9237668-16.4663678 13.8026901-16.4663678 4.762332 0 7.829597 2.9058296 7.829597 7.264574zm-9.2825113 3.632287c1.0380573-.3190023 1.6889463-1.3467204 1.5336323-2.4215246 0-1.0493274-.32287-2.5829597-1.5336323-2.5829597-2.1793722 0-3.1479821 3.470852-3.470852 6.1345292z" fill-rule="nonzero"/><path d="m131.165919 38.0313901c0 3.7130045-2.098654 6.2152467-7.345291 7.3452915l-5.488789 1.1300449c.403587 2.3408071 1.937219 3.470852 4.358744 3.470852 1.924323-.0640785 3.748143-.8746652 5.085202-2.2600897.904997.5562672 1.478464 1.522106 1.533632 2.5829596 0 3.1479821-4.843049 6.5381166-10.412556 6.5381166s-9.363229-3.5515695-9.363229-9.6053811c0-6.9417041 4.923767-16.4663678 13.802691-16.4663678 4.843049 0 7.829596 2.9058296 7.829596 7.264574zm-9.282511 3.632287c1.038058-.3190023 1.688946-1.3467204 1.533632-2.4215246 0-1.0493274-.32287-2.5829597-1.533632-2.5829597-2.179372 0-3.147982 3.470852-3.470852 6.1345292z" fill-rule="nonzero"/><path d="m149.488789 47.3946188c1.195597 1.2325554 1.861866 2.8837439 1.856502 4.6008969 0 3.8744395-3.228699 4.8430493-5.973094 4.8430493-3.551569 0-6.134529-1.6950672-8.878923-2.5829596-.726458.8878924-1.533633 1.7757847-2.179373 2.5829596 0 0-4.035874-.0807175-4.035874-2.8251121 0-3.309417 5.569507-9.0403587 11.542601-15.4977578-.635128-.1502856-1.284641-.2314747-1.93722-.2421525-3.390134 0-4.681614 1.6950673-4.681614 1.6950673-1.067847-1.2930158-1.640171-2.924138-1.61435-4.6008969.161435-3.632287 3.632287-4.6008969 6.376682-4.6008969 2.905829 0 5.004484 1.1300449 7.103139 2.0179373l1.695067-2.0179373s4.035874.161435 4.035874 2.8251122c0 3.2286995-5.408071 8.7982062-11.219731 15.0134529 1.124562.3628433 2.291041.5798627 3.470852.6457399 1.691356.1254769 3.340934-.5643466 4.439462-1.8565023z"/><path d="m175.560538 54.6591928c-1.452915 8.7982063-7.506726 13.2376682-15.09417 13.2376682-4.84305 0-8.475337-2.5829597-8.475337-5.4887893.015438-1.1569453.625435-2.2244399 1.61435-2.8251121 1.414049 1.0661388 3.15441 1.6082183 4.923767 1.5336323 3.067265 0 7.183856-1.2914798 7.910314-5.8923767l.565022-3.5515695c-2.017937 2.9865471-4.762332 5.3273543-8.233184 5.3273543-3.874439 0-5.569506-3.1479821-4.600896-9.6053812l1.130044-6.941704c.64574-4.2780269.887893-7.7488789.887893-7.7488789 2.744394-.484305 6.376681-1.7757848 7.668161-1.7757848.711214.0721159 1.385218.3529507 1.93722.8071749l-1.372197 8.7174888-1.29148 7.9910314c-.080718.7264574 0 1.1300448.726457 1.1300448 3.2287 0 5.004485-9.2017937 5.004485-9.2017937.645739-4.2780269.887892-7.7488789.887892-7.7488789 2.744395-.4843049 6.376682-1.7757848 7.668161-1.7757848.711214.072116 1.385218.3529507 1.93722.8071749l-1.372197 8.7174888z"/></g></svg>