<svg height="90" viewBox="0 0 180 90" width="180" xmlns="http://www.w3.org/2000/svg"><g fill="#23132c" fill-rule="evenodd" transform="translate(0 30)"><path d="m7.39973948.98697387c.36196369-.13994953.79353578-.28136449 1.15843035-.07473745.32093137.19417081.36489457.60522674.36416185.94520883.00293088 3.39689001-.00219816 6.7930473.00219816 10.18993735.55540177-.3985997 1.11593256-.8177156 1.78270776-1.0104209.4132541-.1817146.8631442-.2293414 1.3013108-.3187333 1.4595783-.18318 2.9865668-.0095253 4.3135228.6477245.3260604.2058944.6990149.3348531.9869738.599365.5693235.3685582 1.0426606.8682732 1.4310022 1.4207441.6821624 1.033868 1.0324025 2.2487178 1.2104535 3.465033.2176178 1.9614915.3260604 3.9325084.5033786 5.8976634.0556868.6799642.073272 1.3672556.2286087 2.0340308.2051616.8089229.7290564 1.4778963 1.0580477 2.2333306.1524058.3942034.2220142.8777986-.0278434 1.2478222-.2659773.2447285-.6360009.2586502-.9774485.2586502-2.5403403 0-5.0806806 0-7.6210209 0-.269641.0007327-.5385492-.0344378-.7942685-.1194334-.4667426-.3341203-.3780835-.9986973-.1399495-1.447122.324595-.6279411.8103883-1.1752829 1.0082227-1.8640397.1934381-.6206139.0871937-1.2763983.0571522-1.9116666-.0520231-1.1474395-.1311569-2.2941463-.1817146-3.4423186-.078401-1.1210616-.1040462-2.2465196-.2256777-3.3639176-.0879264-.7363836-.1861109-1.4874217-.4887243-2.1710494-.1208988-.2762355-.3172678-.5107059-.5693234-.6763006-.5070423-.2820972-1.1496378-.2857608-1.6603436-.0087927-.28063178.2139543-.5268257.4916552-.64845723.8279737-.27696816.6616461-.30627697 1.3885044-.32825857 2.0948465.00073272 2.5396076 0 5.0792152 0 7.6188228.00146544.4682081.12822601.9334853.35830009 1.3408776.24106489.4748026.61841571.8587479.91736551 1.295449.1949035.3121387.4161849.6447936.3964015 1.0302043.0168525.2425304-.0703411.5246276-.3004152.6425955-.2505903.1619311-.55906539.1428804-.8448262.1538712-2.61141415 0-5.2228283 0-7.83350973 0-.42937393-.0029309-.87047138.0285761-1.28445819-.1091753-.38467802-.2352031-.4169177-.756167-.26744281-1.1401123.28795897-.6645771.83163722-1.1664903 1.20385899-1.779777.03590328-.0769356.073272-.1524057.10917528-.2286086.16852561-.3502402.28136449-.7341855.27623545-1.1247252-.00219816-5.3026948.00073272-10.6053896-.00146544-15.90808438.01172352-.48652609-.14727672-.97598307-.46014817-1.35113572-.35610193-.41838313-.77375234-.77814866-1.14597411-1.18114467-.36855817-.44402833-.30261337-1.15549947.1318896-1.53211756.41178865-.35683465.94594155-.52975657 1.43906212-.74371082.21029064-.11870064.44036473-.19490352.66164618-.28869169.06741024-.03810144.1355532-.07620288.20369616-.11430432.10331352-.03443784.20516161-.07107384.30774241-.10844256 1.45957828-.6477245 2.92648376-1.28372548 4.38972564-1.92558821z"/><path d="m146.757958 10.8017585c.310673-.128226.672637-.2586501 1.003094-.1201661.263046.1077099.384678.3883417.483595.6352683.082797.6381991.021982 1.2829928.043963 1.9241228.402264-.6821624.943744-1.2837255 1.609053-1.7182285 1.115933-.7026785 2.47-.9041765 3.767647-.8704714 1.191403.0373688 2.386469.3509729 3.395424.9943011.858015.5011805 1.603192 1.2104535 2.092649 2.0809249.580314.9825775.884393 2.1029064 1.067573 3.2217699.19124 1.3130343.249125 2.6399902.359765 3.9610844.081332 1.0030937.164862 2.0061874.236669 3.0100139.054221.7100057.239599 1.423675.623545 2.0296344.285028.5414801.672637 1.0675731.710005 1.6999105.020516.2835626-.052756.6264756-.328991.7678905-.371489.1890418-.803061.136286-1.204592.146544-2.176911-.0007327-4.353089 0-6.53-.0007327-.572988-.0256452-1.23903.1194334-1.707238-.3004152-.145079-.3143369-.148742-.6836278-.026378-1.0052919.188309-.5700561.593503-1.0250753.878531-1.5453065.178051-.4066596.345844-.8331026.337051-1.2851909.005862-.8323699-.090857-1.661809-.116502-2.4934462-.113572-1.6889197-.18318-3.3800375-.312139-5.066759-.11064-.939347-.158267-1.9204591-.582512-2.7828706-.438899-.9349507-1.906538-1.0419279-2.520557-.2366686-.415452.526093-.518033 1.2148498-.588374 1.8611089-.038102.6338028-.017585 1.2683384-.022715 1.9021412-.000732 2.1512659.001466 4.3025319-.000732 6.4537979-.019051.73272.298217 1.4412603.761296 1.9973948.324595.45795.758365.8748677.885126 1.4412603.076203.3275258-.002199.7363836-.305545.9246926-.287959.1333551-.616217.1304242-.926158.1370187-2.785069-.0029309-5.570137.0007327-8.355206-.0021982-.277701-.0197834-.5979-.0322397-.801596-.2469266-.225678-.2337377-.231539-.5905724-.164129-.8895221.178784-.5663926.617683-.9899048.949605-1.4669055.432305-.5304893.696817-1.2111862.688024-1.899943-.002931-2.0025239.002931-4.0057804-.002931-6.0090369.005129-.5268257-.193438-1.0455915-.555402-1.4280713-.381014-.3993324-.779614-.7803469-1.16649-1.1716193-.243263-.2491249-.370756-.6235448-.285028-.965725.117235-.4007979.510706-.6037613.842628-.8059921 1.927054-.9488724 3.843849-1.9204591 5.767972-2.8773915z"/><path d="m51.1467882 11.0985101c.4403648-.151673.8331027-.4733371 1.3174306-.4711389.392738.0014654.6975495.3414475.8045266.6953513.0937882.4572173.0432305.9261581.0593503 1.3885044.3201987-.298217.5905724-.6513881.9540015-.9019783.5451437-.4286413 1.19067-.7158675 1.8486526-.9254254 1.2199788-.3165351 2.5081006-.2886917 3.7405357-.0600831 1.0551168.1956363 2.0457543.6667752 2.8905805 1.3247578.4147195.3964016.8235773.800863 1.1459741 1.2793292.164862-.2615811.3333876-.520964.5143695-.7715542.5744525-.7209965 1.3511357-1.2734674 2.2157453-1.5907352 1.0411951-.3744199 2.1681185-.4740698 3.2671986-.3832125 1.6376292.1377513 3.2181063.9378816 4.2673614 2.2091508.8953838 1.130587 1.318896 2.5520639 1.5401774 3.9566881.1582676 1.0060246.2117561 2.0245054.2967516 3.03859.0805992 1.0946837.1714565 2.1879019.2542539 3.2825856.0710738.6960841.0564194 1.4222096.3451111 2.0743304.2784336.7818123.8719368 1.4288041 1.0346007 2.2553122.0205162.2967516.0388342.6660425-.2286087.8653424-.2388667.1846454-.5583326.1868436-.8448261.1992998-2.4179761.0014655-4.8359522 0-7.2539282.0007327-.3348531-.0014654-.6733697.0161199-1.0016283-.0571521-.2308068-.0725393-.4696735-.2271432-.5099731-.484328-.1721892-.7019457.3311894-1.300578.6616461-1.8677033.4022633-.5891069.667508-1.2947163.612554-2.0171782-.1311569-2.3197916-.2593829-4.6388504-.4059269-6.9579093-.0842628-.8880567-.1743874-1.7863714-.4557519-2.6385248-.1553366-.4301066-.4022633-.8690059-.8309045-1.075633-.6850932-.3656273-1.6420255-.0534885-1.9424407.6755679-.3495075.6814296-.3861435 1.4764308-.4059269 2.2282016.0769356.6806969.1172352 1.3657901.1106407 2.051616-.0007327 1.8559798.0007327 3.7112269-.0007327 5.566474.0073272.4044615.0337051.8169828.188309 1.1965318.2315395.769356.8235773 1.3694537 1.0624441 2.1344134.0820646.3458439.1179679.7979321-.1934381 1.0455915-.2388668.1846454-.5583327.1868436-.8455589.1992998-2.5886999.0007327-5.1781324.0014655-7.767565-.0007327-.3458438-.005129-.7671578-.0718066-.9488724-.4044614-.1458113-.3993325-.0454286-.837499.1296915-1.2097208.243263-.4286412.4879915-.8565497.7334527-1.2837255.3033461-.5817797.3912725-1.2448913.3890743-1.8940812-.0021981-2.0032566-.0021981-4.0065131 0-6.0097696-.0329724-.8836604-.0256452-1.779777-.2374013-2.6443866-.1450785-.6264756-.4323048-1.2690711-.994301-1.6259057-.6623789-.3341203-1.5240577-.1897745-2.0223073.3678254-.4879915.6528536-.6015631 1.4962143-.6125539 2.2890174-.0043963 2.6883497-.0021982 5.3766995-.0007327 8.065782.0036636.7642269.4139868 1.4434584.884393 2.0164455.2989498.3942033.64919.7818122.7612961 1.2778637.0659448.3245949-.0036636.7341854-.3070097.9195636-.2645119.1260278-.5663925.128226-.8528861.1370186-2.8092485-.0014654-5.6184971.0014655-8.4277456-.0014654-.3282586-.0102581-.7114712-.0622812-.905642-.3634291-.1685256-.3451112-.1055117-.7620288.0652121-1.0946837.2425303-.4520883.6074249-.8199137.8939184-1.2426932.2740373-.342913.4491574-.7554343.5539364-1.1796792.0893918-.494586.0586176-.9986974.0630139-1.4976797-.0014655-1.7109013.0036636-3.4210698-.0021982-5.1312383.0058618-.4923879-.1655947-.9774485-.4909224-1.3482049-.4044614-.4704062-.879264-.8763331-1.2998453-1.3313523-.2417976-.2989497-.324595-.7334527-.1568021-1.085891.1817146-.2586502.4425629-.4542864.7319873-.5781161 1.8552471-.9005129 3.744932-1.7270211 5.608239-2.6114142z"/><g fill-rule="nonzero"><path d="m84.9259139 10.7380119c1.8024912-.1824473 3.6592037-.1128389 5.3913539.4594154.3209313.1304242.646259.251323.9649922.3890744.3260604.2080925.6997477.3355857 1.0096882.5722543 1.1554995.751038 2.1410079 1.7812424 2.7638199 3.0166083.2820972.5971668.539282 1.2119189.6733697 1.8618416.3018807 1.5453065.4484247 3.1162582.6719043 4.674021.1494749 1.0228771.2498575 2.0538142.4279085 3.0730278.1575348.6711715.4418302 1.3965643 1.0683058 1.7614589.3289913.196369.6711715.5326874.6140193.9510706-.0014654.2769681-.2366685.4667426-.4418301.6154848-.6250102.3634291-1.3606611.4542864-2.0670032.5356183-.9547342.0996499-1.9175283.0908573-2.8759261.0600831-.7752178-.0754702-1.5834079-.1978344-2.2391924-.6513881-.3465765-.1971017-.5304893-.5693235-.6814296-.9217618-.3810144.3934706-.7766832.7818122-1.2676056 1.0360661-.9100383.5019132-1.9636897.6784987-2.9924286.7004803-1.5812098.026378-3.2129773-.2205487-4.6029471-1.0104209-.604494-.3458438-1.1708866-.7774159-1.5878043-1.3416103-.8734023-1.1547668-1.0829602-2.6802899-.8990475-4.0849141.1223643-.8338354.4095905-1.6603436.9364162-2.3256534.6110885-.8250427 1.5123341-1.3804445 2.431165-1.8076203 1.528454-.6074249 3.2327608-.719531 4.8432794-.4110559.5451437.1121062 1.0763657.2916226 1.570219.5502727.0446959.013189.1355532.0381015.1809818.0512904-.1157698-1.0800293-.2337377-2.1600586-.3883416-3.2349589-.1179679-.6858259-.159733-1.4141496-.5092404-2.0318326-.3121387-.591305-1.1247252-.860946-1.7211593-.54954-.2271432.0974518-.3898071.3011479-.5275585.4982496-.2974843.5238948-.5510054 1.0800293-.6770333 1.6720671-.1502076.6272084-.3832125 1.2507531-.805992 1.7475373-.3670927.4916551-.9159.8433607-1.5196613.9561996-.6513881.1091753-1.3335504.0498249-1.9446389-.2080925-.6015632-.2520557-1.0924856-.7532362-1.3474721-1.3518684-.2711065-.7422454-.227876-1.5819426.0637466-2.3117317.2703737-.6770333.8081902-1.2023935 1.3826427-1.630302 1.1892046-.8638769 2.6671008-1.1686885 4.1024994-1.3093707zm1.8720996 9.3502402c-.5194985.5524709-.627941 1.3474721-.5971668 2.0750631.0190507 1.1445086.1509403 2.2992754.5370838 3.3822356.1846454.4271757.3795489.8990474.8030611 1.1430432.4491574.2850281 1.0631768.1135716 1.3650574-.3070097.0930555-.1765855.1868436-.353171.2557193-.5407474.311406-.7224619.1919726-1.5269885.1260278-2.2853537-.0505576-.8697387-.1721892-1.7475373-.4821297-2.5659855-.18318-.3971343-.4044615-.8265082-.8199137-1.020679-.3802817-.1795164-.869006-.1802491-1.1877392.1194334z"/><path d="m105.575429 10.721892c1.767321-.1597329 3.583734-.0908572 5.278515.4762681.466743.1897744.957666.3333876 1.383376.6132866.452088.219816.852153.5238948 1.259546.8155174.367825.3443784.788406.6396646 1.084425 1.0551168.542213.5671253.903444 1.2742001 1.245624 1.973215.576651 1.3342832.668974 2.8026541.870472 4.2248637.16706 1.208988.314337 2.4201742.485793 3.6291622.111373.9664577.22348 2.0223073.906375 2.7770089.268175.2176178.589839.3788163.802328.6616462.225678.279899.221282.7371163-.052756.9847757-.422779.4007978-1.021411.5136367-1.57315.6184157-1.172352.1912399-2.36522.1978344-3.549295.1575348-.618416-.0505577-1.242694-.1421477-1.816413-.3883416-.527559-.2168852-.993569-.6403973-1.153302-1.2001954-.388341.426443-.807457.8455589-1.343075 1.080762-1.096882.5832451-2.373281.714402-3.59619.6587153-1.301311-.0205162-2.597493-.3209314-3.764716-.8953839-.325327-.2425303-.717333-.3890743-1.001628-.6843605-1.036799-.787674-1.5892697-2.0838557-1.6786616-3.3609867-.096719-1.0324025.0483595-2.0955792.4872588-3.0393226.5715218-1.162094 1.6332328-2.0171782 2.8063178-2.5278841 1.628104-.6931531 3.476756-.7832777 5.194985-.4066596.341447.0996499.690955.1817146 1.011153.342913.170724.0644793.335586.146544.496052.238134-.12383-1.2295042-.263779-2.4582757-.448425-3.67972-.098184-.5575999-.161198-1.1452414-.464544-1.6376292-.288692-.5436783-.99943-.7971994-1.57315-.599365-.478466.1736547-.750305.6455264-.94008 1.0880892-.333388.6447937-.411056 1.3760482-.674835 2.0450216-.324595.709273-.847757 1.3789791-1.587072 1.6815925-1.119596.3810144-2.494179.1619311-3.314092-.7297892-.8023287-.8909875-.7590982-2.2699666-.249125-3.2950419.355369-.6748351.959863-1.1745502 1.596597-1.5724172 1.152568-.7341854 2.534478-.9635268 3.871692-1.1049418zm2.239193 9.1428804c-.427909.0622813-.696084.4506229-.852154.819181-.313604.7180657-.220548 1.523325-.18611 2.2831556.074004 1.0148172.235935 2.0428234.674102 2.970447.173655.2974843.361231.6257429.690955.7730196.365627.2132215.882195.1494749 1.156965-.1839127.455019-.5033787.615485-1.2163153.619881-1.8786942-.076936-.9107709-.111373-1.8281364-.295286-2.7257184-.122364-.5480746-.302614-1.0961492-.628674-1.5592282-.263779-.3634292-.731255-.5876415-1.179679-.4982497z"/><path d="m125.664414 10.771717c1.731418-.1905072 3.516324-.2044289 5.205243.2733046.818449.2088252 1.587805.5671253 2.322723.9789139.500447.3641619 1.029471.6946186 1.452984 1.1533013 1.121794 1.0595132 1.879426 2.48099 2.1901 3.9889278.189041.942278.293088 1.8984776.41765 2.8510136.211756 1.4903525.38248 2.9872995.606692 4.4769193.089392.6081576.301148 1.2199789.69755 1.6991778.25865.3326548.714402.4491573.926158.8257754.169991.2374013.143613.5766507-.010991.8147847-.359033.4249776-.926158.5575999-1.443458.6755678-.959131.1787837-1.938778.2286087-2.912563.2168852-.948139.0036636-1.931449-.054954-2.802654-.4630791-.48506-.2088252-.866807-.6316046-1.024342-1.135716-.580314.6931531-1.370919 1.2111862-2.247252 1.4397948-.803794.2608483-1.660344.3231296-2.500774.3011479-1.181877-.018318-2.377676-.2110233-3.463567-.6887568-1.20679-.5011805-2.311732-1.3943662-2.798258-2.6355939-.335586-.7891394-.427909-1.6581454-.39054-2.5081006.026378-1.1877392.438899-2.3864691 1.259546-3.2606041 1.113734-1.1760156 2.698608-1.8413254 4.29667-1.9995929 1.50867-.1406823 3.104535.0021981 4.449076.751038-.106244-1.1877392-.25865-2.371082-.426443-3.5514939-.120166-.6330701-.157535-1.321827-.537084-1.8669707-.36636-.5194984-1.129854-.7356509-1.693316-.421314-.583245.3956688-.818448 1.0954165-1.048522 1.7270211-.162664.5187658-.238134 1.0727021-.50631 1.5526337-.254986.4733372-.595701.9049093-1.029471 1.2265734-.68143.4301066-1.539445.4879915-2.311732.3238622-.822112-.1641293-1.550436-.7437108-1.881625-1.5159977-.273305-.7378491-.229341-1.5665554.049092-2.2970773.244729-.6213466.694619-1.1496377 1.23903-1.5313848 1.109338-.8880567 2.53228-1.2368314 3.916388-1.4009607zm2.447285 9.1677929c-.323129.1538712-.50118.4850606-.643328.7957339-.080599.269641-.164129.5414801-.169258.8250428-.041765.7708214.003663 1.5460392.106977 2.3102662.142147.8213791.308475 1.6676708.769356 2.3784092.197834.2571847.445494.5275584.789872.5619962.396401.0842628.819914-.1230969 1.028739-.463079.372954-.5869088.507042-1.3020435.447692-1.9886022-.095254-.9049092-.110641-1.8230074-.345111-2.7066677-.137752-.5224294-.326061-1.062444-.726126-1.4449239-.310673-.334853-.84043-.4718717-1.258813-.2681755z"/></g><path d="m167.273386 11.3864691c1.227306-.5114386 2.563055-.7063421 3.886347-.7363836 1.746804-.0190507 3.533909.1663274 5.152487.8624114.393471.2168852.825776.361231 1.184808.6403973.855085.5370838 1.587805 1.3701865 1.751201 2.3945291.093056.5539363.03224 1.1518358-.259383 1.6405601-.28576.5224294-.782545.9063747-1.323292 1.1379142-.669706.2535211-1.418546.2593829-2.105837.0805992-.686559-.2036962-1.26321-.6975495-1.626639-1.3079053-.545143-1.0140845-.663844-2.2084181-1.280794-3.1895302-.244729-.4235122-.830172-.5400147-1.255882-.3399821-.339983.1165025-.515103.4652772-.600098.7913376-.171457.6887569-.128959 1.4324677.112106 2.0999756.373687.9547342 1.266873 1.5570301 2.135879 2.02304.885858.3971342 1.80762.7041439 2.712529 1.0543841.743711.2630465 1.491818.5795815 2.082391 1.1159326.478466.3817471.863144.8719368 1.167955 1.4016934.551006 1.1562322.652121 2.5212896.287227 3.7478629-.441831 1.3914353-1.600994 2.4348286-2.878125 3.0657005-1.072702.5173004-2.24945.7884068-3.43206.8968493-1.307173.1216316-2.626801.0849956-3.928845-.0725392-1.377514-.1927054-2.755027-.5568672-3.961817-1.2661402-.822112-.4791989-1.550436-1.2287715-1.759261-2.182773-.154604-.7525034-.093055-1.5848734.328991-2.2450541.249858-.2835627.526093-.5612635.877799-.7180656 1.016283-.4542864 2.244321-.439632 3.239355.0696084.556867.3780835 1.028006.8939184 1.321827 1.5028087.213222.4323048.316535.9063747.468941 1.3613938.202963.4806644.412521.9737849.750305 1.3782464.524628.6198811 1.635431.6931531 2.170317.049825.281364-.3238623.333388-.7744851.339982-1.1870065.011724-.6711715-.204429-1.3767809-.70854-1.83986-.432305-.4733371-1.003094-.7781486-1.559228-1.0770984-.906375-.4015305-1.8721-.6389318-2.794595-.9957665-.443295-.1743874-.906374-.2996825-1.324757-.5275584-.986242-.4696735-1.820077-1.2463568-2.36229-2.1944965-.58471-1.203859-.682162-2.6231376-.340715-3.9105267.142881-.4901897.384678-.9444761.662379-1.3709192.72466-.9715867 1.747538-1.7057722 2.869332-2.1534641z"/><path d="m28.4258732 10.9739477c.7832777-.09159 1.5848734-.2872262 2.3703492-.1106407.269641.0468941.4835952.2374013.6191484.4674754.0337052.188309.068143.3788162.054954.5715216-.0556867 3.3939591-.0827973 6.7879183-.1421476 10.1818774.0087926.9466743-.0556868 1.9116665.1912399 2.8370919.1245624.4630791.3993324.9298217.8550842 1.1291216.4689409.219816 1.0675731.2344704 1.5042742-.0703412.3839453-.2784336.6235448-.7070748.8023285-1.1371814.2322722-.6213466.2886917-1.2925182.2952861-1.9512334 0-2.2472523-.0007327-4.4945046 0-6.7410242-.0095253-.5341529-.1165025-1.0778312-.3839453-1.5445738-.3311894-.6030286-.866075-1.0910201-1.0800293-1.7570626-.0754701-.2058944-.0109908-.4198486.0205162-.6272084.169991-.3084751.4660099-.5502727.8265082-.5839778 1.9014084-.2703737 3.8079459-.5063096 5.7108198-.7671579.5539363-.0571522 1.1371815-.1641293 1.674998.0402996.3092078.1165025.5033786.4388993.4821297.7671579.0051291 4.0526744.0014655 8.1060815.0021982 12.158756.0021982.6609134-.0029309 1.3438085.2425303 1.9680859.1223643.2586502.293088.539282.5876415.6206139.6513881.178051.8587479 1.1738175.3267931 1.5929333-.2996825.2798991-.7100057.3817472-1.0961491.4806644-1.1584304.2476593-2.3520313.2498575-3.5309778.2102906-.7539689-.0703411-1.5680208-.1494749-2.1827729-.6374664-.3751527-.2938207-.5832452-.751038-.6770333-1.208988-.146544.120166-.2725719.261581-.3751527.4205812-.5891069.6162176-1.3562647 1.0507206-2.1769112 1.2785965-1.1159326.3223968-2.29781.36636-3.4489131.2557193-1.5130668-.1875764-2.944069-.9063747-4.0109094-1.9922658-.45795-.4872588-.8909875-1.0170154-1.1415778-1.6442237-.6447936-1.2690711-.7107384-2.7271839-.6872914-4.1237483 0-1.6596108-.0014654-3.3184889 0-4.9780998.0014655-.45795-.0952536-.9195636-.3070096-1.3269559-.2286087-.4623464-.5641945-.8587479-.8492225-1.2851909-.1809819-.2996825-.3854108-.6301393-.3180005-.997232.036636-.4645445.4689408-.8037938.9151673-.8418953 1.6405601-.2300741 3.2840511-.4374338 4.9260767-.654319z"/></g></svg>