<svg height="90" viewBox="0 0 180 90" width="180" xmlns="http://www.w3.org/2000/svg"><path d="m15.4622951 0c1.5344262 0 2.9508197.11803279 4.2491803.47213115 1.2983607.23606557 2.3606557.70819672 3.304918 1.29836065.9442623.59016394 1.6524591 1.41639345 2.1245902 2.47868853.4721312 1.06229508.7081967 2.36065574.7081967 3.77704918 0 1.65245901-.3540983 3.06885249-1.1803278 4.13114749-.7081968 1.0622951-1.8885246 2.0065574-3.3049181 2.7147541 2.0065574.590164 3.5409836 1.6524591 4.4852459 3.0688525s1.5344263 3.1868853 1.5344263 5.1934426c0 1.652459-.3540984 3.0688525-.9442623 4.2491804-.590164 1.1803278-1.5344263 2.2426229-2.5967213 2.9508196-1.0622951.7081968-2.3606558 1.2983607-3.7770492 1.652459-1.4163935.3540984-2.8327869.590164-4.2491804.590164h-15.8163934v-32.5770492zm-.9442623 13.2196721c1.2983606 0 2.3606557-.3540983 3.1868852-.9442623.8262295-.5901639 1.1803279-1.652459 1.1803279-2.95081964 0-.70819672-.1180328-1.41639344-.3540984-1.88852459-.2360655-.47213114-.5901639-.8262295-1.062295-1.18032787-.4721312-.23606557-.9442623-.47213114-1.5344263-.59016393-.5901639-.11803279-1.1803278-.11803279-1.8885246-.11803279h-6.8459016v7.67213112zm.3540983 13.9278689c.7081968 0 1.4163935-.1180328 2.0065574-.2360656.590164-.1180328 1.1803279-.3540984 1.652459-.7081967.4721312-.3540984.8262295-.7081967 1.1803279-1.2983607.2360656-.5901639.4721312-1.2983606.4721312-2.1245901 0-1.652459-.4721312-2.8327869-1.4163935-3.6590164-.9442623-.7081967-2.2426229-1.0622951-3.7770492-1.0622951h-7.7901639v9.0885246zm22.7803279-.1180328c.9442623.9442623 2.3606558 1.4163934 4.2491803 1.4163934 1.2983607 0 2.4786886-.3540983 3.4229509-.9442623.9442623-.7081967 1.5344262-1.4163934 1.7704918-2.1245901h5.7836065c-.9442623 2.8327869-2.3606557 4.8393442-4.2491803 6.1377049-1.8885246 1.1803279-4.1311475 1.8885246-6.8459016 1.8885246-1.8885246 0-3.5409836-.3540984-5.0754099-.9442623-1.5344262-.5901639-2.7147541-1.4163934-3.7770492-2.5967213-1.062295-1.0622951-1.8885245-2.3606558-2.3606557-3.895082-.5901639-1.5344262-.8262295-3.1868852-.8262295-5.0754098 0-1.7704918.2360656-3.4229508.8262295-4.9573771.5901639-1.5344262 1.4163934-2.8327869 2.4786885-4.0131147 1.0622951-1.0622951 2.3606558-2.0065574 3.7770492-2.59672134 1.5344262-.59016393 3.0688525-.94426229 4.9573771-.94426229 2.0065573 0 3.7770491.35409836 5.3114754 1.18032787 1.5344262.82622946 2.7147541 1.77049176 3.6590164 3.18688526.9442623 1.2983606 1.652459 2.8327869 2.1245901 4.4852459.2360656 1.652459.3540984 3.304918.2360656 5.1934426h-17.1147541c0 1.8885246.7081967 3.6590164 1.652459 4.6032787zm7.4360656-12.3934426c-.8262295-.8262295-2.1245902-1.2983607-3.6590164-1.2983607-1.0622951 0-1.8885246.2360656-2.5967213.590164-.7081967.3540983-1.1803279.8262295-1.652459 1.2983606-.4721312.4721312-.7081968 1.0622951-.8262295 1.652459-.1180328.590164-.2360656 1.0622951-.2360656 1.5344263h10.6229508c-.2360656-1.7704918-.8262295-2.9508197-1.652459-3.7770492zm17.2327869-14.6360656v12.2754098h.1180328c.8262295-1.4163934 1.8885246-2.3606557 3.1868852-2.95081964 1.2983607-.59016393 2.4786885-.94426229 3.7770492-.94426229 1.7704918 0 3.1868852.23606557 4.2491803.70819672s2.0065574 1.18032791 2.5967213 2.00655741c.590164.8262295 1.0622951 1.8885246 1.2983607 3.0688524.2360656 1.1803279.3540983 2.4786886.3540983 4.0131148v14.5180328h-6.4918032v-13.337705c0-2.0065573-.3540984-3.4229508-.9442623-4.3672131-.590164-.9442623-1.652459-1.4163934-3.1868853-1.4163934-1.7704918 0-3.0688524.5901639-3.7770492 1.5344262-.8262295 1.0622951-1.1803278 2.8327869-1.1803278 5.1934426v12.3934427h-6.4918033v-32.695082zm20.3016393 12.5114754c.7081967-1.0622951 1.5344262-1.7704918 2.5967213-2.4786885 1.0622951-.59016395 2.242623-1.0622951 3.5409836-1.29836067 1.2983607-.23606557 2.5967213-.35409836 3.895082-.35409836 1.1803279 0 2.3606557.11803279 3.6590164.23606557 1.1803279.11803279 2.3606557.47213115 3.304918.9442623 1.0622949.47213116 1.7704919 1.18032786 2.4786889 2.00655736.590164.8262295.944262 2.0065574.944262 3.4229508v12.3934427c0 1.062295.118033 2.1245901.236066 3.0688524.118032.9442623.472131 1.7704918.826229 2.242623h-6.609836c-.2360656-.2360656-.3540984-.7081968-.4721312-1.0622951-.1180328-.3540984-.1180328-.8262295-.1180328-1.1803279-1.062295 1.0622951-2.2426229 1.7704918-3.6590164 2.242623-1.4163934.4721311-2.8327868.5901639-4.2491803.5901639-1.1803279 0-2.1245902-.1180328-3.1868852-.4721311-.9442623-.2360656-1.7704918-.7081968-2.5967213-1.2983607-.7081968-.5901639-1.2983607-1.2983607-1.7704918-2.242623-.3540984-.9442622-.590164-1.8885245-.590164-3.1868852s.2360656-2.4786885.7081967-3.304918c.4721312-.8262295 1.0622951-1.5344263 1.7704918-2.1245902.7081968-.4721311 1.6524591-.9442623 2.5967214-1.1803279.9442622-.2360655 1.8885245-.4721311 2.9508196-.5901639l2.8327869-.3540984c.9442623-.1180327 1.7704918-.2360655 2.4786885-.3540983.7081968-.2360656 1.2983607-.4721312 1.7704918-.8262295.4721312-.3540984.590164-.8262295.590164-1.5344263 0-.7081967-.1180328-1.2983606-.3540984-1.652459-.2360656-.3540983-.5901639-.7081967-.9442623-.9442623-.3540983-.2360655-.8262295-.3540983-1.2983606-.4721311-.4721312-.1180328-1.0622951-.1180328-1.6524591-.1180328-1.2983606 0-2.2426229.2360656-2.9508196.8262295s-1.1803279 1.5344262-1.2983607 2.7147541h-6.4918033c0-1.4163934.4721312-2.7147541 1.0622951-3.6590164zm12.8655738 9.2065574c-.3540984.1180328-.8262295.2360656-1.2983607.3540983-.4721311.1180328-.9442623.1180328-1.5344262.2360656-.4721311.1180328-1.0622951.1180328-1.5344262.2360656l-1.4163935.3540984c-.4721311.1180327-.9442623.3540983-1.1803278.5901639-.3540984.2360656-.590164.5901639-.8262295.9442623-.3540984.4721311-.3540984.9442623-.3540984 1.5344262s.1180328 1.0622951.3540984 1.4163935c.2360655.3540983.4721311.7081967.8262295.9442623.3540983.2360655.8262295.3540983 1.2983606.4721311.4721312.1180328.9442623.1180328 1.5344262.1180328 1.2983607 0 2.242623-.2360656 2.9508197-.5901639.7081967-.4721312 1.1803279-.9442623 1.5344263-1.5344263.3540983-.5901639.5901639-1.1803278.5901639-1.7704918.1180328-.5901639.1180328-1.0622951.1180328-1.4163934v-2.4786885c-.3540984.2360655-.7081967.4721311-1.0622951.5901639zm17.3508194-12.747541v3.304918h.118033c.82623-1.4163934 1.888525-2.3606557 3.186885-2.95081964 1.298361-.59016393 2.714754-.94426229 4.013115-.94426229 1.770492 0 3.186885.23606557 4.24918.70819672 1.180328.47213115 2.006558 1.18032791 2.596722 2.00655741s1.062295 1.8885246 1.416393 3.0688524c.236066 1.1803279.354098 2.4786886.354098 4.0131148v14.5180328h-6.491803v-13.337705c0-2.0065573-.354098-3.4229508-.944262-4.3672131s-1.652459-1.5344262-3.304918-1.5344262c-1.770492 0-3.068853.7081967-3.895082 1.7704918-.82623 1.0622951-1.180328 2.8327869-1.180328 5.1934426v12.3934427h-6.491803v-23.842623zm30.452459 4.2491803c-1.062295 0-1.888524.2360656-2.596721.7081968-.708197.4721311-1.298361 1.062295-1.770492 1.8885245-.472131.7081968-.708197 1.5344263-.944262 2.4786886-.236066.9442623-.236066 1.7704918-.236066 2.7147541 0 .8262295.118033 1.7704918.236066 2.5967213.236065.9442623.472131 1.652459.944262 2.3606557s.944262 1.2983607 1.652459 1.7704918c.708197.4721312 1.534426.7081967 2.596721.7081967 1.534427 0 2.714755-.4721311 3.659017-1.2983606.826229-.8262295 1.416393-2.0065574 1.534426-3.5409836h6.255738c-.472131 3.1868852-1.652459 5.547541-3.659017 7.2-2.006557 1.652459-4.603278 2.4786885-7.790164 2.4786885-1.770491 0-3.42295-.3540984-4.839344-.9442623-1.534426-.5901639-2.714754-1.4163934-3.777049-2.4786885s-1.888525-2.3606558-2.478688-3.7770492c-.590164-1.5344262-.82623-3.0688525-.82623-4.8393443 0-1.8885246.236066-3.5409836.82623-5.0754098.590163-1.5344262 1.29836-2.9508197 2.360655-4.1311475 1.062295-1.1803279 2.360656-2.0065574 3.777049-2.71475414 1.534427-.59016393 3.186886-.94426229 5.07541-.94426229 1.416394 0 2.714754.23606557 4.013115.59016393s2.478689.9442623 3.422951 1.652459c1.062295.7081967 1.888524 1.652459 2.478688 2.8327869.590164 1.0622951.944263 2.4786885 1.062295 4.0131148h-6.37377c-.236066-2.8327869-1.770492-4.2491804-4.603279-4.2491804zm-108.5901637-10.97704915h13.2196722v3.18688525h-13.2196722zm129.7180327 24.78688525c.944262.9442623 2.478689 1.4163934 4.24918 1.4163934 1.298361 0 2.478689-.3540983 3.422951-.9442623.944263-.7081967 1.534427-1.4163934 1.770492-2.1245901h5.665574c-.944262 2.8327869-2.360656 4.8393442-4.24918 6.1377049-1.888525 1.1803279-4.131148 1.8885246-6.845902 1.8885246-1.888525 0-3.540984-.3540984-5.07541-.9442623s-2.714754-1.4163934-3.777049-2.5967213c-1.062295-1.0622951-1.888525-2.3606558-2.360656-3.895082-.590164-1.5344262-.826229-3.1868852-.826229-5.0754098 0-1.7704918.236065-3.4229508.826229-4.9573771.590164-1.5344262 1.416394-2.8327869 2.478689-4.0131147 1.062295-1.0622951 2.360655-2.0065574 3.777049-2.59672134 1.534426-.59016393 3.186885-.94426229 4.957377-.94426229 2.006557 0 3.777049.35409836 5.193443 1.18032787 1.534426.82622946 2.714754 1.77049176 3.659016 3.18688526.944262 1.2983606 1.652459 2.8327869 2.12459 4.4852459s.590164 3.4229508.472131 5.3114754h-17.114754c0 1.7704918.708197 3.5409836 1.652459 4.4852459zm7.554098-12.3934426c-.826229-.8262295-2.12459-1.2983607-3.659016-1.2983607-1.062295 0-1.888524.2360656-2.596721.590164-.708197.3540983-1.298361.8262295-1.652459 1.2983606-.354099.4721312-.708197 1.0622951-.82623 1.652459-.118033.590164-.236065 1.0622951-.236065 1.5344263h10.622951c-.354099-1.7704918-.944263-2.9508197-1.65246-3.7770492z" fill="#0057ff" transform="translate(0 28)"/></svg>