<svg height="90" viewBox="0 0 180 90" width="180" xmlns="http://www.w3.org/2000/svg"><path d="m10.9885714 0h4.4228572c1.5942857 1.81714286 3.4285714 4.13142857 1.8514285 6.6-3.5828571 9.36-11.45142853 18.9428571-7.0285714 29.4514286 4.2342857 12.96 22.4228572 17.6228571 32.2628572 8.1085714 9.0685714-9.6171429 10.56-23.9485714 18.8571428-34.1314286 4.7142857-5.60571426 11.64-8.96571426 18.8228572-10.0285714h6.5314285c4.2857143 1.02857143 11.4857143.99428571 11.9142857 6.70285714-3.5657142 9.11999996-8.0057142 17.93142856-12.4114285 26.67428576-1.9714286 4.1657142-8.9657143 1.9885714-8.3314286-2.5885715 2.5371429-7.56 6.7542857-14.4342857 9.84-21.77142854-6.9428571-.58285715-14.3657143 1.14857144-19.0628571 6.60000004-8.2114286 8.4514285-6.3428572 23.9828571 3.7028571 30.1885714 8.7771429 6.3085714 22.32 3.7542857 28.114286-5.4 5.297143-8.7771429 8.28-18.7714286 13.748571-27.4628572 4.611429-7.16571424 12.497143-11.79428567 20.897143-12.9428571h6.462857c10.885714.90857143 20.005714 8.46857143 24.531429 18.1542857 2.04-4.56 3.668571-9.3942857 6.582857-13.50857141 2.091428-2.29714286 5.142857-.36 7.302857.72v4.18285714c-4.902857 10.66285717-9.874286 21.30857147-14.862857 31.93714287-4.2 9.3771428-13.662857 15.7714286-23.828572 16.8h-5.28c-10.92-.9428572-20.588571-8.3142857-24.702857-18.3942857-4.337143 10.0114285-13.9199997 17.4857143-24.925714 18.3942857h-5.2628571c-10.8514286-.9085714-20.4-8.1085714-24.8228572-17.9657143-4.3542857 9.8057143-13.7828571 17.04-24.5828571 17.9657143h-5.1942857c-13.5942858-1.1142857-25.18285719-12.4971429-26.5371429-26.0914286v-6.3942857c1.86857143-9.2228571 6.17142857-17.77714286 10.9885714-25.8zm121.8514286 9.80571429c-6.308571 1.88571431-11.52 6.96000001-13.44 13.26857141-3.462857 10.3542857 2.965714 22.5085714 13.508571 25.3885714 12.24 4.1657143 26.365715-6.4114285 25.885715-19.3028571.531428-12.9257143-13.68-23.60571429-25.954286-19.35428571z" fill="#137bfc" transform="translate(0 16)"/></svg>