<svg height="90" viewBox="0 0 180 90" width="180" xmlns="http://www.w3.org/2000/svg" xmlns:xlink="http://www.w3.org/1999/xlink"><mask id="a" fill="#fff"/><g fill="none" transform="translate(0 32)"><path d="m48.4381882 17.5158188c-.381326.6288533-.9432716 1.1305905-1.6858537 1.5052265s-1.642364.5619512-2.6993728.5619512c-1.5922031 0-2.9034095-.3880101-3.9336586-1.1640418-1.030249-.7760317-1.5921946-1.859784-1.6858536-3.2512892h3.6526829c.0535195.5351943.2441795.9566535.5719861 1.2643902.3278065.3077368.7459208.4616028 1.2543554.4616028.4415353 0 .7894063-.1204169 1.0436237-.3612543.2542173-.2408374.381324-.5619492.381324-.963345 0-.3612561-.117072-.6622984-.3512195-.9031359-.2341475-.2408374-.5251551-.4381873-.8730314-.5920557-.3478762-.1538684-.829544-.3378387-1.4450174-.5519164-.8964505-.3077367-1.6289867-.6054341-2.1976307-.893101-.5686439-.287667-1.0570014-.715816-1.4650871-1.28446-.4080856-.5686439-.6121254-1.30787-.6121254-2.2177003 0-.84293104.2140745-1.57212239.64223-2.18759582.4281554-.61547344 1.0202052-1.08710637 1.7761672-1.4149129.755962-.32780652 1.6222948-.49170731 2.5990244-.49170731 1.5788232 0 2.8331661.37463042 3.7630662 1.12390244.9299001.74927201 1.4550516 1.77950565 1.5754704 3.0907317h-3.712892c-.0668993-.46829502-.2374899-.83958052-.511777-1.11386759-.2742871-.27428708-.6455726-.41142857-1.1138676-.41142857-.4013957 0-.7258524.10703728-.9733798.32111498-.2475273.2140777-.3712892.52849969-.3712892.94327526 0 .33449645.1103822.61881416.3311498.85296167.2207677.23414754.4983956.42480764.832892.57198604.3344965.1471784.8161641.3344936 1.4450175.5619512.9098303.3077368 1.6524013.612124 2.2277351.9131708.5753339.3010468 1.0703813.7392306 1.4851568 1.3145644.4147756.5753339.6221603 1.3245947.6221603 2.2478049 0 .749272-.1906601 1.4383244-.571986 2.0671777zm7.4784669-12.26257838v14.18926828h-3.4319164v-14.18926828zm14.1315679 0v2.72947735h-3.8533798v11.45979093h-3.4519861v-11.45979093h-3.8132404v-2.72947735zm6.444878 2.72947735v2.97031363h4.7966551v2.5889895h-4.7966551v3.1509408h5.3987457v2.749547h-8.830662v-14.18926828h8.830662v2.72947735zm17.9272474 6.48250873v4.9772822h-3.4319163v-14.18926828h5.5593031c1.6858618 0 2.9703092.41811428 3.8533798 1.2543554.883071.83624111 1.324599 1.96347725 1.324599 3.38174216 0 .88307062-.19735 1.66912542-.592055 2.35818812-.394706.6890627-.980066 1.2309388-1.756098 1.6256446-.7760321.3947059-1.7192973.5920558-2.8298258.5920558zm3.8132405-4.57588852c0-1.24432677-.6890526-1.86648084-2.0671778-1.86648084h-1.7460627v3.69282226h1.7460627c1.3781252 0 2.0671778-.6087744 2.0671778-1.82634142zm15.5364461 6.96418122h-5.318467l-.883066 2.5889895h-3.612544l5.198049-14.08891985h3.953728l5.198049 14.08891985h-3.652683zm-.883066-2.6090593-1.766133-5.21811844-1.786202 5.21811844zm11.743275 2.5689199h4.575888v2.6291289h-8.007804v-14.18926828h3.431916zm11.161254-8.83066203v2.97031363h4.796655v2.5889895h-4.796655v3.1509408h5.398746v2.749547h-8.830662v-14.18926828h8.830662v2.72947735zm19.10885-2.72947735v2.72947735h-3.853379v11.45979093h-3.451986v-11.45979093h-3.813241v-2.72947735zm13.208363 0v2.72947735h-3.85338v11.45979093h-3.451986v-11.45979093h-3.81324v-2.72947735zm6.444878 2.72947735v2.97031363h4.796655v2.5889895h-4.796655v3.1509408h5.398745v2.749547h-8.830662v-14.18926828h8.830662v2.72947735z" fill="#3d3d3d"/><g mask="url(#a)"><path d="m0 0h12.543554v12.543554h-12.543554z" fill="#8c61ff"/><path d="m0 12.543554h12.543554v12.543554h-12.543554z" fill="#36c3fe"/><path d="m12.543554 12.543554h12.543554v12.543554h-12.543554z" fill="#6592fe"/><path d="m12.543554 0h12.543554v12.543554h-12.543554z" fill="#6059f7"/></g></g></svg>