<svg height="90" viewBox="0 0 180 90" width="180" xmlns="http://www.w3.org/2000/svg"><g fill="#0079bf" fill-rule="evenodd" transform="translate(0 19)"><path d="m132.533333 0h4.244445c3.011111.46666667 3.344444 4.08888889 1.711111 6.14444444-6.955556 11.04444446-15 21.72222226-18.944445 34.33333336-.511111 1.9555555-.511111 4-.655555 6 3.844444-2.0777778 6.366667-5.8 9.977778-8.1888889 3.722222-10.0111111 8.722222-19.4777778 14.088889-28.67777779 1.911111-3.18888889 3.011111-6.87777778 5.622222-9.61111111h4.022222c2.911111.21111111 3.666667 3.8 2.077778 5.84444444-6.888889 11.03333336-14.922222 21.61111116-18.966667 34.13333336-.8 2.1444444-.611111 4.4555555-.477778 6.6888889 3.188889-2.5333334 6.011111-5.4888889 9.1-8.1444445 1.366667-7.8777778 5.855556-14.9111111 11.511111-20.4444444 2.344445-2.4444445 6.355556-2.7777778 9.055556-.7 1.188889 1.4111111 2.011111 3.0888889 3.144444 4.5555555 3.988889.5888889 8.755556-1.0777777 11.955556 2.1777778v.6333333c-3.4 2.1888889-7.4 2.8333334-11.344444 3.2666667-2.155556 8.0666667-5.244445 16.7111111-12.377778 21.6777778-3.988889 2.5333333-8.033334-1.0444445-10.822222-3.6888889-2.5 2.3777778-5.055556 5.4-8.755556 5.6444444-3.344444-.1111111-6.044444-2.2444444-8.366667-4.4444444-2.355555 2.0333333-4.877777 4.6333333-8.277777 4.3888889-3.822223-.5333333-7.455556-3.0222222-8.377778-6.9333333-3.611111 2.6222222-7.166667 5.7888888-11.622222 6.7555555-5.0111116-.2111111-10.6888893-2.9-11.8888893-8.2333333-2.0444445-5.5444445 1.2333333-10.9 3.5-15.7666667-6.3333334 1.4-11.5 6.0777778-15.2333334 11.2-3.0222222 3.8555556-3.1555555 9.1777778-6.4555555 12.8555556-2.5-.8111111-5.5444445-2.7333334-5.1-5.7666667 1.4444444-3.5444444 3.9-6.6444444 4.8333333-10.4222222 1.3-5.0333334 4.0111111-10.0888889 3-15.4222222 2.0333333-.3333334 4.3555556-1.1777778 6.2111111.2 1.2222222 1.7333333 1.0888889 3.9555555 1.4333334 5.9666666 2.6555555-1.8444444 5.3111111-3.9444444 8.5222222-4.7222222 2.2555555-.4555556 4.3666666.7 6.4333333 1.3888889 2.8111111-3.2333333 5.5777779-7.3555556 10.1999999-7.9222222 2.888889-.3111111 6.566667-.2444445 8.522222 2.2555555 1.711111 3.1444445.066667 6.8555556-1.633333 9.6444445-4.688889 6.7444444-10.866667 12.3888889-17.7555556 16.8555555 1.0888889 1.1777778 2.2333334 2.9888889 4.1222223 2.1222222 5.2222223-1.7222222 9.1000003-5.8666666 13.4222223-9.0666666 2.6-1.7222222 3.233333-4.9444445 4.522222-7.5777778 3.088889-6.7444444 6.666667-13.2666667 10.388889-19.67777778 1.8-3.11111111 2.944444-6.63333333 5.433333-9.32222222zm-37.0444441 35.3444444c4.9000001-4.1555555 10.2444441-8.8777777 11.8888891-15.3333333-5.422222 3.6888889-9.6444447 9.1777778-11.8888891 15.3333333zm55.5777781 3.5333334c-.344445 1.9111111-.833334 5.2888889 1.722222 5.7777778 3.388889-4.4333334 6.466667-9.2888889 8.044444-14.6888889.488889-2.5111111 1.455556-5.6-.622222-7.6777778-3.888889 4.9666667-7.588889 10.3888889-9.144444 16.5888889z" fill-rule="nonzero"/><path d="m67.1888889 7.94444444c6.1333333-1.07777777 13.4111111-2.63333333 18.2555555 2.45555556-.2777777 2.2666667-2.5111111 4.7555556-4.9 3.4222222-3.4666666-2.1444444-7.5777777-.6444444-11.3-.3222222-5.7111111 10.3111111-10.6888888 21.2777778-12.1777777 33.0666667-.4444445 1.6111111.2555555 4.0444444-1.5555556 4.9444444-2.7777778.1333333-7.1888889-1.3333333-6.5111111-4.8777778 2.2444444-10.8444444 5.9888889-21.3555555 10.5444444-31.4444444-2.8444444-.3-6.6333333.7111111-8.6555555-1.8888889-.1444445-1.7333333-.3555556-5.28888889 2.3777778-4.72222222 4.6444444.54444444 9.3222222.2 13.9222222-.63333334z"/><path d="m0 13.5111111c.25555556-2.9222222 2.64444444-5.45555554 5.67777778-5.28888888 10.71111112-.11111111 21.42222222-.11111111 32.13333332 0 3.3444445-.24444444 6.0777778 2.83333338 5.7333333 6.12222218.0666667 10.4.0666667 20.8222223 0 31.2222223.3555556 3.3222222-2.4444444 6.3777777-5.8111111 6.1333333-10.6777777.0888889-21.3555555.1111111-32.0333333-.0111111-2.74444444.1666667-4.8-1.9-5.7-4.3111111zm7.26666667.5444445c-1.96666667.7555555-1.53333334 3.1444444-1.62222223 4.8.14444445 7.7333333-.21111111 15.4777777.17777778 23.1888888.85555556 2.6777778 4.28888888 1.6444445 6.38888888 1.9111112 2.3111111-.1555556 6.7.7666666 6.6777778-2.7555556.1222222-8.1888889.1111111-16.3888889 0-24.5777778.2111111-1.3888889-.9777778-2.7444444-2.3666667-2.7111111-3.0777778-.1555555-6.2-.3-9.25555553.1444445zm18.83333333.0555555c-1.8333333.8111111-1.4 3.0888889-1.5 4.6888889.1 4.0555556-.1666667 8.1333333.1555556 12.1777778.6555555 2.8222222 4.2333333 1.8444444 6.3333333 2.0777778 2.2-.3 5.7333333.8555555 6.6888889-1.9111112.3222222-4.1.0666666-8.2111111.1555555-12.3111111-.0555555-1.7.3222223-4.0888889-1.7-4.8222222-3.3555555-.3-6.8111111-.4444444-10.1333333.1z" fill-rule="nonzero"/></g></svg>