<svg height="90" viewBox="0 0 180 90" width="180" xmlns="http://www.w3.org/2000/svg"><g fill-rule="evenodd"><g transform="translate(36.133829 33.360595)"><path d="m8.70293315.30145075c7.00837885 0 11.15786185 4.31284784 11.15786185 11.74597755 0 7.4494656-4.1331464 11.827987-11.15786185 11.827987h-8.31530516v-23.57396455zm-4.65591854 20.40434715h4.31285106c4.99898353 0 7.75986003-3.0549344 7.75986003-8.6256971 0-5.55442603-2.7772131-8.62569698-7.75986003-8.62569698h-4.31285106z" fill-rule="nonzero"/><path d="m37.2164162 18.8270949c-.4737598 3.1202805-3.5123576 5.260695-7.4004559 5.260695-4.9989835 0-8.1029275-3.3493189-8.1029275-8.7240431 0-5.39106059 3.1202805-8.88708175 7.9558985-8.88708175 4.7539353 0 7.7435235 3.26730948 7.7435235 8.47866805v1.2089045h-12.1380547v.2123751c0 2.9405785 1.8460299 4.8682911 4.6232429 4.8682911 1.9603857 0 3.4960212-.9311832 3.969781-2.417809h3.3489922zm-11.9256795-5.1296759h8.5930239c-.0816827-2.6301842-1.7643471-4.36185818-4.2148292-4.36185818-2.4341456.00000006-4.1984927 1.76434718-4.3781947 4.36185818z" fill-rule="nonzero"/><path d="m48.2171205 23.8754148h-3.790079l-6.1915514-17.18637458h3.7574059l4.3128485 13.73903638h.0653461l4.3128435-13.73903638h3.6920597z"/><path d="m70.3675134 18.8270949c-.4737599 3.1202805-3.5123577 5.260695-7.400456 5.260695-4.9989835 0-8.1029275-3.3493189-8.1029275-8.7240431 0-5.39106059 3.1202805-8.88708175 7.9558985-8.88708175 4.7539353 0 7.7435235 3.26730948 7.7435235 8.47866805v1.2089045h-12.1380547v.2123751c0 2.9405785 1.8460299 4.8682911 4.6232429 4.8682911 1.9603857 0 3.4960212-.9311832 3.969781-2.417809h3.3489923zm-11.9256797-5.1296759h8.593024c-.0816828-2.6301842-1.7643472-4.36185818-4.2148293-4.36185818-2.4341455.00000006-4.1984927 1.76434718-4.3781947 4.36185818z" fill-rule="nonzero"/><path d="m73.4224477.30145075h3.5286942v23.57396405h-3.5286942z"/><g fill-rule="nonzero"><path d="m79.5427718 15.2820641c0-5.40739719 3.1856267-8.80539905 8.1519372-8.80539905 4.9826469 0 8.1519371 3.39800186 8.1519371 8.80539905 0 5.4237338-3.1529537 8.8057258-8.1519371 8.8057258-4.9989835 0-8.1519372-3.381992-8.1519372-8.8057258zm12.7098339 0c0-3.7083963-1.699001-5.89749363-4.5578967-5.89749363-2.8588958 0-4.5578967 2.20543383-4.5578967 5.89749363 0 3.7247328 1.6990009 5.8974936 4.5578967 5.8974936 2.8588957 0 4.5578967-2.1727608 4.5578967-5.8974936z"/><path d="m114.429796 15.2820641c0 5.342051-2.858896 8.7730527-7.171745 8.7730527-2.450482 0-4.394531-1.0945487-5.407397-3.0062515h-.081683v8.5116679h-3.5286939v-22.87149304h3.4143389v2.85889577h.065346c.980193-1.84602989 3.071271-3.0385978 5.472743-3.0385978 4.361858 0 7.237091 3.44701151 7.237091 8.77272597zm-3.626714 0c0-3.4796846-1.79702-5.76680125-4.54156-5.76680125-2.695531 0-4.508887 2.33612625-4.508887 5.76680125 0 3.463348 1.813356 5.7831378 4.508887 5.7831378 2.74454 0 4.54156-2.2707801 4.54156-5.7831378z"/><path d="m131.743268 18.8270949c-.473759 3.1202805-3.512357 5.260695-7.400456 5.260695-4.998983 0-8.102927-3.3493189-8.102927-8.7240431 0-5.39106059 3.12028-8.88708175 7.955899-8.88708175 4.753935 0 7.743523 3.26730948 7.743523 8.47866805v1.2089045h-12.138055v.2123751c0 2.9405785 1.84603 4.8682911 4.623243 4.8682911 1.960386 0 3.496021-.9311832 3.969781-2.417809h3.348992zm-11.925679-5.1296759h8.593024c-.081683-2.6301842-1.764347-4.36185818-4.214829-4.36185818-2.434146.00000006-4.198493 1.76434718-4.378195 4.36185818z"/></g><path d="m134.500224 6.68904016h3.365329v2.92424199h.081683c.539106-1.94404912 2.107414-3.10394402 4.133146-3.10394402.506433 0 .931183.06534615 1.208905.13069238v3.29998255c-.277722-.1143558-.89851-.2123751-1.584645-.2123751-2.270781 0-3.675724 1.53563544-3.675724 3.95344444v10.1943324h-3.528694z"/></g><g transform="translate(0 26)"><path d="m17.7056866 5.02754119c1.082027-1.35338019 1.8162846-3.17058323 1.6226314-5.02754119-1.5839393.07876097-3.5168323 1.04497809-4.6358859 2.39942101-1.0047883 1.15987109-1.8941052 3.05315458-1.6622654 4.83226903 1.778052.15423725 3.5544614-.88873582 4.6755199-2.20414885"/><path d="m19.3081131 7.57906996c-2.5821624-.1538118-4.7776284 1.46549804-6.0107468 1.46549804-1.2337935 0-3.1220935-1.3879901-5.16444658-1.3505851-2.65824916.03904307-5.12479947 1.54204307-6.47374744 3.9325069-2.77455961 4.7821082-.73220734 11.8756553 1.9659042 15.770421 1.31026577 1.92686 2.8893523 4.0484797 4.97004965 3.9722723 1.96590437-.0771468 2.73645597-1.2729565 5.12610227-1.2729565 2.387885 0 3.0819892 1.2729565 5.1630241 1.2343946 2.1580847-.0385849 3.5072729-1.9278249 4.8175125-3.8565636 1.5031207-2.1965254 2.1184419-4.3174458 2.1571467-4.4338769-.0387049-.0385619-4.1613935-1.6201286-4.1996184-6.3624955-.0389218-3.9708519 3.2367678-5.8596094 3.3909389-5.9767386-1.8498104-2.73587848-4.7401017-3.04436864-5.7421191-3.12187664"/></g></g></svg>