<svg height="90" viewBox="0 0 180 90" width="180" xmlns="http://www.w3.org/2000/svg"><g fill-rule="evenodd" transform="translate(0 22)"><path d="m15.9230769 52.0615385c0 4.2923077-3.4615384 7.7538461-7.75384613 7.7538461-4.29230769 0-7.75384615-3.4615384-7.75384615-7.7538461s3.46153846-7.7538462 7.75384615-7.7538462c4.29230773 0 7.75384613 3.4615385 7.75384613 7.7538462"/><path d="m41.8153846 52.2c0 3.0461538-2.4923077 5.5384615-5.5384615 5.5384615-3.0461539 0-5.5384616-2.4923077-5.5384616-5.5384615s2.4923077-5.5384615 5.5384616-5.5384615c3.0461538 0 5.5384615 2.4923077 5.5384615 5.5384615"/><path d="m61.8923077 52.2c0 1.3846154-1.1076923 2.4923077-2.4923077 2.4923077s-2.4923077-1.1076923-2.4923077-2.4923077 1.1076923-2.4923077 2.4923077-2.4923077 2.4923077 1.1076923 2.4923077 2.4923077"/><path d="m34.7538462 35.7230769c-1.3846154 0-2.3538462-1.1076923-2.3538462-2.3538461v-10.2461539c0-3.4615384-1.6615385-6.2307692-5.4-6.2307692s-6.0923077 2.9076923-6.0923077 6.2307692v10.1076923c0 1.3846154-.9692308 2.3538462-2.3538461 2.3538462-1.3846154 0-2.3538462-1.1076923-2.3538462-2.3538462v-10.2461538c0-3.4615385-1.8-6.2307692-5.5384615-6.2307692-3.87692312 0-5.81538465 2.9076923-5.81538465 6.2307692v10.1076923c0 1.3846154-.96923077 2.3538461-2.35384616 2.3538461-1.38461538 0-2.35384615-1.1076923-2.35384615-2.3538461v-17.8615385c0-1.3846154.96923077-2.4923077 2.35384615-2.4923077 1.66153846 0 2.35384616 1.1076923 2.35384616 2.4923077v1.6615385c1.38461538-2.6307692 4.15384615-4.2923077 7.19999995-4.2923077 3.6 0 6.3692308 1.8 7.7538462 4.5692308 1.9384615-3.0461539 4.8461538-4.5692308 8.4461538-4.5692308 6.0923077 0 9.1384616 4.2923077 9.1384616 10.2461538v10.523077c-.1384616 1.2461538-1.1076923 2.3538461-2.6307692 2.3538461"/><path d="m43.8923077 35.7230769c-1.3846154 0-2.3538462-1.1076923-2.3538462-2.3538461v-18.1384616c0-1.3846154.9692308-2.3538461 2.3538462-2.3538461s2.3538461 1.1076923 2.3538461 2.3538461v18.1384616c0 1.2461538-.9692307 2.3538461-2.3538461 2.3538461zm0-31.98461536c1.5230769 0 2.7692308 1.24615384 2.7692308 2.76923077 0 1.52307692-1.2461539 2.76923077-2.7692308 2.76923077s-2.7692308-1.24615385-2.7692308-2.76923077c0-1.52307693 1.2461539-2.76923077 2.7692308-2.76923077z" fill-rule="nonzero"/><path d="m59.6769231 21.0461538 6.0923077-7.476923c.4153846-.4153846.9692307-.6923077 1.5230769-.6923077 1.3846154 0 2.2153846.8307692 2.2153846 2.0769231 0 .4153846-.1384615.9692307-.5538461 1.3846153l-6.6461539 7.8923077 6.7846154 8.0307693c.4153846.4153846.5538461.8307692.5538461 1.3846153 0 1.1076924-.9692307 2.0769231-2.076923 2.0769231-.6923077 0-1.2461539-.2769231-1.6615385-.8307692l-6.0923077-7.6153846-6.0923077 7.6153846c-.4153846.5538461-.9692307.8307692-1.6615384.8307692-1.1076923 0-2.0769231-.9692307-2.0769231-2.0769231 0-.5538461.1384615-.9692307.5538461-1.3846153l6.7846154-8.0307693-6.6461538-7.8923077c-.4153846-.4153846-.5538462-.9692307-.5538462-1.3846153 0-1.2461539.8307693-2.0769231 2.2153846-2.0769231.6923077 0 1.1076923.2769231 1.523077.6923077z"/><path d="m84.7384615 16.6153846c-4.1538461 0-6.7846153 3.6-6.7846153 7.7538462 0 4.0153846 2.7692307 7.7538461 6.7846153 7.7538461 4.1538462 0 6.7846154-3.0461538 6.7846154-7.7538461s-2.6307692-7.7538462-6.7846154-7.7538462zm.9692308 19.3846154c-3.4615385 0-6.2307692-1.8-7.7538461-4.4307692v11.3538461c0 1.3846154-.9692308 2.3538462-2.3538462 2.3538462s-2.3538462-1.1076923-2.3538462-2.3538462v-27.6923077c0-1.3846154.8307693-2.3538461 2.2153847-2.3538461 1.3846153 0 2.3538461 1.1076923 2.3538461 2.4923077v1.8c1.5230769-2.6307693 4.5692308-4.4307693 7.8923077-4.4307693 5.8153846 0 10.5230769 4.8461539 10.5230769 11.6307693 0 6.9230769-4.7076923 11.6307692-10.5230769 11.6307692z" fill-rule="nonzero"/><path d="m109.8 16.7538462c-4.015385 0-6.923077 3.4615384-6.923077 7.6153846 0 4.4307692 2.353846 7.6153846 6.923077 7.6153846 4.153846 0 6.923077-3.6 6.923077-7.6153846-.138462-4.8461539-2.907692-7.6153846-6.923077-7.6153846zm11.630769 16.6153846c0 1.3846154-.969231 2.3538461-2.353846 2.3538461s-2.353846-1.1076923-2.353846-2.3538461v-1.1076923c-1.384615 2.076923-4.153846 3.7384615-7.338462 3.7384615-7.061538 0-11.2153842-5.2615385-11.2153842-11.6307692 0-6.3692308 4.5692312-11.6307693 11.7692312-11.6307693 7.338461 0 11.630769 4.8461539 11.630769 11.6307693v9z" fill-rule="nonzero"/><path d="m135.692308 12.6c6.092307 0 10.661538 4.7076923 10.661538 10.6615385v10.1076923c0 1.3846154-1.107692 2.3538461-2.353846 2.3538461-1.384615 0-2.353846-1.1076923-2.353846-2.3538461v-10.6615385c0-3.1846154-2.492308-5.6769231-5.815385-5.6769231s-5.815384 2.4923077-5.815384 5.6769231v10.6615385c0 1.3846154-1.107693 2.3538461-2.353847 2.3538461-1.384615 0-2.353846-1.1076923-2.353846-2.3538461v-10.1076923c-.138461-5.9538462 4.292308-10.6615385 10.384616-10.6615385"/><path d="m160.615385 16.4769231c-3.461539 0-5.815385 2.4923077-6.369231 5.6769231h12.461538c-.415384-3.1846154-2.630769-5.6769231-6.092307-5.6769231zm10.523077 7.8923077c0 .8307692-.415385 1.6615384-1.8 1.6615384h-15.092308c.276923 3.4615385 2.630769 6.0923077 6.784615 6.0923077 2.630769 0 4.153846-.9692307 5.815385-2.4923077.415384-.4153846.969231-.8307692 1.523077-.8307692 1.107692 0 1.938461.8307692 1.938461 1.9384615 0 .5538462-.276923.9692308-.553846 1.3846154-1.938461 2.2153846-5.4 3.7384616-9 3.7384616-7.615384 0-11.492308-5.2615385-11.492308-11.6307693 0-6.6461538 4.846154-11.6307692 11.353847-11.6307692 6.36923 0 10.523077 5.2615385 10.523077 11.7692308z" fill-rule="nonzero"/><path d="m176.815385 35.7230769c-1.384616 0-2.353847-1.1076923-2.353847-2.3538461v-29.90769234c0-1.38461538.969231-2.35384615 2.353847-2.35384615 1.384615 0 2.353846 1.10769231 2.353846 2.35384615v29.90769234c0 1.2461538-.969231 2.3538461-2.353846 2.3538461"/></g></svg>