<svg height="90" viewBox="0 0 180 90" width="180" xmlns="http://www.w3.org/2000/svg"><g fill="none" fill-rule="evenodd" transform="translate(2 20)"><path d="m7.94140625 0h34.08984375c1.703125.05859375 3.3945312.61328125 4.7460938 1.6640625 1.9628906 1.45117188 3.1445312 3.84570312 3.2226562 6.2734375v34.1054688c-.0722656 2.25-1.0800781 4.4824218-2.8046875 5.9472656-1.4042969 1.2558594-3.2597656 1.9433594-5.1347656 2.0097656h-28.7519531c-.0371094-7.1640625-.0546876-14.328125-.1035157-21.4921875-.1953125-5.4042969 2.9296875-10.7539063 7.7109375-13.2695313 2.2480469-1.2226562 4.8300782-1.8125 7.3847656-1.6933593 2.5078126.1464843 4.890625 1.5039062 6.359375 3.53125 1.7890626 2.4160156 2.25 5.765625 1.1367188 8.5625-1.2714844 3.3964843-4.8300781 5.8417969-8.4824219 5.5820312-1.484375-.1699219-2.6386719-1.625-2.5058593-3.109375.0429687-1.5195312 1.4335937-2.8222656 2.9511718-2.7734375 1.3066406-.0136718 2.5234375-1.0136718 2.7734375-2.2988281.3886719-1.5898437-.765625-3.3730469-2.40625-3.5742187-1.7558593-.1503907-3.5332031.3652343-5.0175781 1.2949218-2.1992188 1.3789063-3.71875 3.7695313-4.0507812 6.3417969-.2480469 2.125.2226562 4.3496094 1.4160156 6.1367187 1.2734375 1.96875 3.3867187 3.3730469 5.6914062 3.7910157 2.984375.4257812 6.0664063-.3007813 8.6660156-1.7890625 3.0625-1.734375 5.4179688-4.640625 6.5605469-7.9609375 1.8300781-5.1914063.4941407-11.3515625-3.3769531-15.2773438-2.5136719-2.61718748-6.0507812-4.2363281-9.6855469-4.36718747-4.6816406-.16992188-9.4121093 1.37890625-13.0722656 4.30859377-3.5839844 2.8242187-6.18945312 6.8632812-7.265625 11.3007812-.62695312 2.4199219-.66015625 4.9375-.6328125 7.4199219.02539062 6.4355469.06054688 12.8730469.08398438 19.3105469-1.84765626-.1777344-3.64453126-.953125-4.96679688-2.2675782-1.4296875-1.3378906-2.2578125-3.2324218-2.4765625-5.1601562v-35.03125c.19335938-2.04882812 1.125-4.04296875 2.67382812-5.41601562 1.42773438-1.31054688 3.3359375-2.03515625 5.26757813-2.09960938z" fill="#18a497"/><path d="m68.1696657 16.436h7.696c4.42 0 6.63 1.872 6.63 5.642 0 3.796-2.236 5.694-6.682 5.694h-4.81v7.228h-2.834zm2.834 2.418v6.5h4.628c1.404 0 2.418-.26 3.068-.78.624-.52.962-1.352.962-2.496s-.338-1.976-.988-2.444c-.65-.52-1.664-.78-3.042-.78zm12.9913336-2.782h2.756v7.384c.494-.78 1.118-1.378 1.872-1.742.676-.364 1.43-.52 2.288-.52 1.612 0 2.834.468 3.666 1.43.78.91 1.17 2.262 1.17 4.03v8.346h-2.756v-7.878c0-1.196-.26-2.08-.728-2.704-.52-.65-1.326-.962-2.366-.962-.936 0-1.69.364-2.262 1.118-.598.754-.884 1.716-.884 2.886v7.54h-2.756zm20.1933337 5.122c2.028 0 3.666.676 4.888 2.028 1.196 1.326 1.82 3.016 1.82 5.07 0 2.028-.598 3.718-1.794 5.018-1.248 1.352-2.886 2.054-4.914 2.054s-3.666-.702-4.9140001-2.054c-1.196-1.3-1.794-2.99-1.794-5.018 0-2.054.598-3.744 1.82-5.07 1.2220001-1.352 2.8600001-2.028 4.8880001-2.028zm0 2.262c-1.274 0-2.262.494-2.964 1.508-.624.858-.91 1.976-.91 3.328s.286 2.444.91 3.302c.702.988 1.69 1.508 2.964 1.508s2.262-.52 2.99-1.508c.624-.884.936-1.976.936-3.302 0-1.352-.312-2.47-.936-3.328-.728-1.014-1.716-1.508-2.99-1.508zm12.549333-6.24v4.342h3.068v2.288h-3.068v7.8c0 .364.078.624.234.806.156.156.39.26.728.26h1.768v2.288h-2.21c-1.144 0-2.002-.312-2.522-.91-.52-.572-.754-1.378-.754-2.444v-7.8h-2.496v-2.288h2.496v-3.198zm10.599334 3.978c2.028 0 3.666.676 4.888 2.028 1.196 1.326 1.82 3.016 1.82 5.07 0 2.028-.598 3.718-1.794 5.018-1.248 1.352-2.886 2.054-4.914 2.054s-3.666-.702-4.914-2.054c-1.196-1.3-1.794-2.99-1.794-5.018 0-2.054.598-3.744 1.82-5.07 1.222-1.352 2.86-2.028 4.888-2.028zm0 2.262c-1.274 0-2.262.494-2.964 1.508-.624.858-.91 1.976-.91 3.328s.286 2.444.91 3.302c.702.988 1.69 1.508 2.964 1.508s2.262-.52 2.99-1.508c.624-.884.936-1.976.936-3.302 0-1.352-.312-2.47-.936-3.328-.728-1.014-1.716-1.508-2.99-1.508zm15.201334-2.262c1.976 0 3.51.702 4.654 2.106 1.04 1.3 1.56 2.964 1.56 5.044 0 1.976-.52 3.614-1.534 4.914-1.092 1.404-2.626 2.106-4.55 2.106-1.664 0-3.016-.78-4.108-2.34v7.124h-2.756v-18.59h2.574v1.612c.936-1.326 2.34-1.976 4.16-1.976zm-.416 2.236c-1.196 0-2.132.468-2.782 1.43-.572.832-.858 1.95-.858 3.328v.234c0 1.43.338 2.6 1.066 3.484.624.806 1.456 1.222 2.496 1.222 1.352 0 2.34-.442 2.99-1.326.572-.832.884-1.976.884-3.458s-.286-2.626-.806-3.458c-.65-.988-1.638-1.456-2.99-1.456zm14.057333-2.236c2.184 0 3.874.728 5.018 2.236 1.04 1.352 1.586 3.224 1.612 5.616h-10.192c.104 1.3.442 2.314 1.066 3.016.624.676 1.482 1.04 2.574 1.04.962 0 1.742-.234 2.34-.676.468-.364.858-.962 1.222-1.742h2.756c-.312 1.248-.91 2.314-1.846 3.146-1.17 1.014-2.652 1.534-4.446 1.534-1.976 0-3.562-.624-4.706-1.846-1.248-1.3-1.872-3.042-1.872-5.252 0-2.002.572-3.666 1.768-5.018 1.144-1.378 2.73-2.054 4.706-2.054zm.078 2.262c-1.04 0-1.846.286-2.47.91-.572.598-.962 1.456-1.118 2.6h7.254c-.26-2.34-1.482-3.51-3.666-3.51zm14.083334-2.262c1.976 0 3.432.494 4.368 1.482.806.858 1.222 2.106 1.222 3.744v8.58h-2.548v-1.898c-.52.676-1.17 1.222-1.95 1.612-.884.416-1.924.65-3.12.65-1.404 0-2.496-.364-3.276-1.066-.858-.702-1.274-1.612-1.274-2.73 0-1.508.598-2.678 1.794-3.484 1.092-.78 2.652-1.17 4.628-1.222l3.016-.078v-.546c0-1.872-1.014-2.808-3.042-2.808-.858 0-1.56.156-2.08.468-.624.364-1.014.91-1.17 1.664l-2.73-.234c.286-1.456 1.014-2.548 2.158-3.224.988-.624 2.34-.91 4.004-.91zm2.86 7.592-2.834.078c-2.522.052-3.77.936-3.77 2.6 0 .52.208.936.65 1.274.416.338.988.52 1.69.52 1.17 0 2.158-.364 2.99-1.066s1.274-1.586 1.274-2.626z" fill="#2e3838"/></g></svg>