<svg height="90" viewBox="0 0 180 90" width="180" xmlns="http://www.w3.org/2000/svg"><g opacity=".98" transform="translate(16 3)"><path d="m98.3168992.51976744c2.5988368 3.38426357 4.4353488 7.25364341 6.3296128 11.05372096 6.225659-2.98000003 13.479302-2.94534887 19.704961 0 1.975116-3.62682173 3.522868-7.53085274 6.110155-10.79961243 5.705891 6.07550387 9.921783 14.91155043 7.43845 23.33178293 2.044418 2.0097675 4.065736 4.0195349 6.098604 6.0293023-5.278527 5.3593799-10.464651 10.8111628-15.985736 15.9164341-5.474884 4.9897675-13.386899 5.8675969-20.374884 4.1927907.508217 4.0195349 1.004884 8.3740311 3.904031 11.4810853 3.823178 4.2736434 8.119923 8.0852713 12.035504 12.2665116 4.227442-4.6432558 9.171008-8.6281395 13.040387-13.5832558 3.776977-5.1745736 2.552636-11.862248.542869-17.464186 5.67124 2.0444186 3.904031 10.0257364 3.499767 14.7498449 2.471783-3.3842635 4.77031-7.184341 4.966667-11.504186.404263-6.9071318.046201-13.8373643.161705-20.7560465-2.321628-.3349613-5.590387.716124-6.56062-2.206124 2.864496-.1039535 5.717442-.057752 8.581938.0577519.046202 7.2651938.080853 14.5303876.034651 21.7955814.011551 5.4055814-2.483333 10.6725581-6.433566 14.3224806-6.225659 5.5441861-11.827597 11.7236434-17.822248 17.5103876-4.539302-4.5855039-9.274961-8.9746512-13.617907-13.7449612-3.372713-3.6845737-4.400697-8.8129458-4.054186-13.6756589-8.0621703-5.1514729-14.103023-12.7631783-20.8831005-19.3931008 2.0444186-1.9866667 4.0657364-3.9848837 6.0639535-6.0062016-2.621938-8.581938 2.1252713-16.97906974 7.2189922-23.57434106zm32.4103878 3.45356589c-1.536202 2.91069768-3.060853 5.83294574-4.654806 8.70899227 3.638372 3.0031008 6.884031 6.4335659 10.337597 9.6330232.889379-6.6876744-1.998218-12.97108523-5.682791-18.34201547zm-38.2895351 18.35356587c3.6961241-3.0146511 6.884031-6.5952713 10.5224031-9.6907752-1.617054-2.87604648-3.1648062-5.78674416-4.7125581-8.69744183-3.6499225 5.42868217-6.4220155 11.70054263-5.809845 18.38821703zm10.0834881-6.4913178c-5.105271 4.5277519-9.6214726 9.6676744-14.6227904 14.2993798 4.8742636 4.677907 9.4482171 9.6792248 14.4264344 14.2531783 6.583721 5.9137985 17.464186 6.0062016 24.128759.1848062 5.093721-4.5970542 9.679225-9.7138759 14.668993-14.4148837-4.828062-4.5393023-9.286512-9.448217-14.149225-13.9413178-6.583721-6.1332558-17.683644-6.31806203-24.452171-.3811628z"/><path d="m104.068992 30.5392248c1.617055-1.3282946 3.800078 1.4206977 1.986667 2.6103876-1.628605 1.3167442-3.811628-1.4322481-1.986667-2.6103876z"/><path d="m121.498527 30.2273643c1.617054-.7045736 3.407364 1.9751163 1.651706 2.8529458-1.409148 2.4602325-5.128373-2.5641861-1.651706-2.8529458z"/><path d="m111.565194 37.0536434c.704573-.4851163 2.113721-1.4437984 2.818294-1.9289147.773876.4851163 2.344729 1.4437984 3.118605 1.9173643-1.016434 1.1550388-2.032868 2.3100775-3.049302 3.4535659-.958682-1.1434884-1.928915-2.2985271-2.887597-3.4420155z"/><path d="m0 36.3837209c.79697674.0231008 2.40248062.0924031 3.21100775.1155039-.1848062 9.9102326-.1848062 19.8204651-.01155039 29.7306977-.79697674.0231008-2.40248062.0693023-3.19945736.0808527.05775194-9.9679845.05775194-19.9475194 0-29.9270543z"/><path d="m64.8785271 36.4992248c.8085272-.0231008 2.4371318-.0577519 3.2456589-.0808527-.1617054 6.8031783-.0462015 13.5948062-.1270542 20.3864341 2.5295349-2.3562791 5.0590698-4.7241085 7.5886046-7.091938.5890698.3811628 1.7556589 1.1434884 2.3331783 1.5246512-1.8596124 1.8942635-3.7654263 3.7538759-5.7289922 5.544186 2.3216279 3.2225582 4.677907 6.4104651 7.0688372 9.5752713-.9471318-.0231007-2.8529457-.0577519-3.8000775-.0693023-1.9404651-2.6334884-3.8809303-5.2554263-5.9946512-7.7503101-1.5246512 2.3216279-1.4668992 5.0821706-1.4553488 7.7387597-.773876 0-2.3216279-.0115504-3.0955039-.0115504.1155039-9.9217829.1617054-19.8551162-.0346512-29.7653488z"/><path d="m12.0008527 50.2326357c5.9022481-2.2869768 12.6130233 3.6730232 10.9035659 9.806279-1.1550388 6.2372093-9.864031 8.6974419-14.18387596 4.1003876-4.52775194-4.054186-2.43713179-12.2203101 3.28031006-13.9066666zm0 3.3265116c-2.97999999 1.5593023-3.59217053 6.0986046-1.0972868 8.3624806 2.5526357 2.7605426 7.6925581 1.6170543 8.8129457-1.9751163 1.9173644-4.3660465-3.7885271-9.0093023-7.7156589-6.3873643z"/><path d="m29.083876 51.0527132c2.8529457-1.9982171 6.4913178-1.1550388 9.3904651.2887597.8893798-.358062 2.6796899-1.0857365 3.5690698-1.4553489-.1963566 6.0755039.4389147 12.2087597-.3234109 18.2496124-1.5939535 5.7982946-9.6445736 6.7916279-13.9182171 3.4073644-1.998217-.9471318-1.7672093-2.4371318-.3696124-3.8809303 2.4024807 1.4784497 5.093721 3.8116279 8.1083721 2.5757365 2.7489923-.4735659 3.245659-3.4535659 3.9271318-5.6596899-3.1763566 1.3860465-6.9302325 2.9915503-10.1989922.8778294-5.4171318-2.7605426-5.4055814-11.4233333-.1848062-14.4033333zm2.3331783 2.2638759c-3.245659 1.2705427-4.3660465 5.9022481-1.8480621 8.3971318 2.7720931 3.3842636 9.1363566 1.5246512 9.3904652-2.922248.6814728-3.9502326-3.9964341-7.2767442-7.5424031-5.4748838z"/><path d="m51.1566667 50.1286822c5.4055814-1.8134109 11.5157364 3.1070542 10.7187597 8.8013953-.2194574 6.6992248-9.505969 10.1643411-14.1261241 5.3709303-4.7818604-4.0310853-2.6796899-12.7169768 3.4073644-14.1723256zm-.0231008 3.2687597c-3.6845737 1.5593023-3.9502326 7.3344961-.4620155 9.2749612 3.0724031 2.1714729 7.9120155-.1963566 8.0737209-3.9502326.6468217-3.9617829-4.1003876-7.2882945-7.6117054-5.3247286z"/><path d="m84.7682946 50.1402326c6.110155-2.1368217 12.6938759 4.5162015 10.4184496 10.580155-1.6748062 6.0639535-10.6263566 7.8889147-14.4957364 2.8760465-4.0541861-4.262093-1.5593024-12.070155 4.0772868-13.4562015zm-.1732558 3.338062c-3.1994574 1.49-3.8462791 6.3758139-1.0626357 8.6050387 2.6450388 2.6103876 7.600155 1.3282946 8.6396899-2.2407752 1.8134109-4.2158914-3.696124-8.7898449-7.5770542-6.3642635z"/><path d="m65.7217054 74.9504651c1.5824031-1.4206977 3.6383721-.358062 5.3362791.1732558-1.7441085.8547287-5.96.358062-5.3824806 3.3727132.0577519 2.6450388 3.6845736 1.9866667 5.4171318 2.6103876-1.7672093.415814-3.5344186.8200775-5.3016279 1.2127907-1.131938-2.2176744-2.5988373-5.5095349-.0693024-7.3691473z"/><path d="m73.3334109 74.4306977c5.2785271-2.3678295 7.2536434 7.6117054 1.7672093 7.5770542-4.4006977 1.1088372-5.5903876-6.1910077-1.7672093-7.5770542zm.7738759 7.3806976c2.471783-1.4784496 4.3775969-4.5162015 1.0972868-6.4335658-3.8231783.3349612-2.5872868 4.3313953-1.0972868 6.4335658z"/><path d="m82.2156589 74.2227907c2.5410853.4389147 5.5788372-.6006202 7.8311628 1.0279845.7392248 2.1599225.4966667 4.4931008.6352713 6.733876l-1.4437984-.0115504c-.0693024-2.0328682-.1155039-4.0541861-.1732558-6.0755039-.8316279.0231008-2.5064341.0693023-3.3496124.0924031.1155038 1.9866667.2079069 3.9733333.30031 5.9715504l-1.5015504-.0462016c-.0115503-1.432248-.0115503-2.8644961-.0231007-4.2967441-.7623256-1.131938-1.5246512-2.263876-2.2754264-3.395814z"/><path d="m98.1205426 74.9504651c1.5939535-1.432248 3.6614734-.3349612 5.3824804.1732558-1.824961.7161241-4.3775966.415814-5.5557362 2.2985272.2656589 1.1781395.6814729 2.3100775 1.2589923 3.3842635 1.1434879.0115504 3.4304649.0231008 4.5739539.0346512-1.859613.5775194-3.742326 1.0395349-5.6250392 1.5131008-1.0510853-2.2292248-2.5410853-5.5441861-.0346512-7.4037985z"/><path d="m104.034341 74.707907c1.894264-.1501551 4.077287-1.0395349 5.65969.4851163.90093 2.0790697.577519 4.4237984.762326 6.6299224-.392714.0346512-1.18969.1039535-1.593954.1386047-.034651-2.0097675-.057752-4.0195349-.080853-6.0293023-.889379 0-2.668139 0-3.557519.0115503.057752 1.9866667.115504 3.9733334.173256 5.9715504l-1.258992-.0115504c-.034652-2.3909302-.069303-4.7934108-.103954-7.1958914z"/><path d="m80.5870543 75.0313178c.9009302-.0577519 1.3398449.3465117 1.3167441 1.2358915-.9355813 1.6632558-.150155 4.2158915-1.5477519 5.4864341-.7969767-2.0213178-.9355814-4.828062.2310078-6.7223256z"/></g></svg>