<svg height="90" viewBox="0 0 180 90" width="180" xmlns="http://www.w3.org/2000/svg" xmlns:xlink="http://www.w3.org/1999/xlink"><linearGradient id="a" x1="50%" x2="50%" y1="0%" y2="100%"><stop offset="0" stop-color="#84fab0"/><stop offset="1" stop-color="#8fd3f4"/></linearGradient><g fill="none"><g fill="url(#a)" transform="translate(0 27.236025)"><path d="m32.3835418 15.9691505 23.5328598 8.3682092c.5203641.1850398.7921981.7568826.6071583 1.2772466-.1007754.2833981-.3237602.5063828-.6071583.6071583l-23.5328598 8.3682093c-1.9504419.6935708-4.0803529.6935708-6.0307948 0l-23.5328598-8.3682093c-.52036403-.1850398-.79219805-.7568826-.60715827-1.2772466.10077545-.2833981.32376018-.5063828.60715827-.6071583l23.5328598-8.3682092c1.9504419-.6935709 4.0803529-.6935709 6.0307948 0z" opacity=".6"/><path d="m32.3835418 8.45915066 23.5276119 8.36634314c.520364.1850398.792198.7568825.6071582 1.2772466-.1009219.2838101-.3243988.5070081-.6083347.6075757l-23.5370231 8.336608c-1.9440368.6885609-4.0655826.6885609-6.0096194 0l-23.53702312-8.336608c-.52059461-.18439-.79314225-.755893-.60875218-1.2764876.1005676-.2839359.32376565-.5074128.60757577-.6083347l23.52761183-8.36634314c1.9504419-.69357086 4.0803529-.69357086 6.0307948 0z" opacity=".7"/><path d="m32.3835418 1.35953336 23.5328598 8.36820928c.5203641.18503978.7921981.75688256.6071583 1.27724656-.1007754.2833981-.3237602.5063828-.6071583.6071583l-23.5328598 8.3682093c-1.9504419.6935708-4.0803529.6935708-6.0307948 0l-23.5328598-8.3682093c-.52036403-.1850398-.79219805-.7568826-.60715827-1.2772466.10077545-.2833981.32376018-.50638281.60715827-.60715826l23.5328598-8.36820928c1.9504419-.69357086 4.0803529-.69357086 6.0307948 0z"/></g><path d="m7.99800287 0c2.14695653 0 3.84564743.47185858 5.09607263 1.46276159 1.2032394.94371715 1.9582131 2.33569995 2.2649212 4.22313425h-2.5952222c-.2359293-1.13246058-.7549737-1.98180602-1.5571333-2.54803631-.8021596-.58982322-1.88743432-.87293836-3.20863833-.87293836-1.62791209 0-2.92552318.54263736-3.89283326 1.67509794-1.03808886 1.17964644-1.53354037 2.80755853-1.53354037 4.88373627 0 2.02899192.44826565 3.58612522 1.3919828 4.67139992.99090301 1.1796464 2.54803631 1.7694696 4.64780698 1.7694696.8257525 0 1.60431918-.1179646 2.33569998-.306708.7077878-.1887435 1.321204-.4718586 1.8874343-.8257525v-3.656904h-4.647807v-2.19414239h7.2194362v7.07787869c-.8729384.6841949-1.8874343 1.2032393-3.0434878 1.5807262-1.2268323.3774868-2.57162924.5662303-4.03439083.5662303-2.68959388 0-4.76577162-.8493455-6.25212613-2.5480363-1.3919828-1.5807263-2.07617774-3.6333111-2.07617774-6.13416152 0-2.52444339.68419494-4.60062112 2.07617774-6.22853321 1.46276158-1.74587673 3.4445676-2.59522217 5.92182513-2.59522217zm10.26292403 4.97810798h2.5008505v7.43177262c0 1.0380888.2123363 1.7930625.660602 2.2649211.4246727.4718586 1.1324605.7313808 2.0997706.7313808.660602 0 1.2504253-.2831151 1.8166555-.8021596.5662303-.5426373.9673101-1.2740181 1.1796465-2.1705494v-7.45536552h2.5008504v12.19754422h-2.5008504v-1.651505c-1.0380889 1.321204-2.312107 1.981806-3.8456474 1.981806-2.9491161 0-4.4118777-1.651505-4.4118777-4.9309221zm15.3825896-4.88373626c.4954515 0 .9201242.14155757 1.2504252.47185857.330301.30670808.4954515.70778787.4954515 1.20323937 0 .49545151-.1887434.8965313-.5190444 1.2268323-.330301.30670807-.7549737.47185858-1.2268323.47185858-.4954515 0-.8965313-.16515051-1.2268323-.47185858-.330301-.330301-.4954515-.75497372-.4954515-1.2268323 0-.4954515.1651505-.89653129.4954515-1.20323937.330301-.330301.7313808-.47185857 1.2268323-.47185857zm-1.2504252 4.88373626h2.5008504v12.19754422h-2.5008504zm14.6512087-4.97810798h2.5008505v17.1756522h-2.3357v-1.4627616c-.8493454 1.1796464-2.1233635 1.7930626-3.7748686 1.7930626-1.7930625 0-3.2086383-.6370091-4.2231342-1.9110273-.9437172-1.1796464-1.4155757-2.7131868-1.4155757-4.5770281 0-1.79306264.4482656-3.27941715 1.3919828-4.45906359.990903-1.27401816 2.3828858-1.91102723 4.1287625-1.91102723 1.4863545 0 2.7367797.70778786 3.7276827 2.14695652zm10.4988534 4.64780698c1.981806 0 3.5153464.660602 4.5534352 2.02899187.9437172 1.2268323 1.4391687 2.92552318 1.4627616 5.09607265h-9.2484281c.0943717 1.1796464.4010798 2.0997706.9673101 2.7367797.5662303.6134162 1.3447969.9437172 2.3357.9437172.8729383 0 1.5807262-.2123364 2.1233635-.6134162.4246728-.330301.7785667-.8729383 1.1088677-1.5807262h2.5008505c-.2831152 1.1324606-.8257526 2.0997707-1.675098 2.8547444-1.0616818.9201242-2.4064787 1.3919828-4.0343908 1.3919828-1.7930626 0-3.2322313-.5662303-4.2703201-1.675098-1.1324606-1.1796464-1.6986909-2.7603726-1.6986909-4.7657716 0-1.81665551.5190444-3.32660295 1.6043192-4.55343525 1.0380888-1.25042523 2.4772575-1.86384137 4.2703201-1.86384137zm8.4226756-4.64780698h2.5008504v17.1756522h-2.5008504zm7.3845867.09437172c.4954515 0 .9201242.14155757 1.2504252.47185857.330301.30670808.4954515.70778787.4954515 1.20323937 0 .49545151-.1887434.8965313-.5190444 1.2268323-.330301.30670807-.7549738.47185858-1.2268323.47185858-.4954515 0-.8965313-.16515051-1.2268323-.47185858-.330301-.330301-.4954515-.75497372-.4954515-1.2268323 0-.4954515.1651505-.89653129.4954515-1.20323937.330301-.330301.7313808-.47185857 1.2268323-.47185857zm-1.2504253 4.88373626h2.5008505v12.19754422h-2.5008505zm12.0559867-.330301c3.0198949 0 4.5534352 1.65150501 4.5534352 5.0017009v7.52614432h-2.5008504v-7.31380796c0-2.07617773-.9673101-3.1142666-2.8547444-3.1142666-.7077879 0-1.344797.23592929-1.8638414.75497372-.5662303.56623029-.9201242 1.34479694-1.0144959 2.33569995v7.33740089h-2.5008505v-12.19754422h2.5008505v1.50994744c.4718585-.61341615 1.0144959-1.06168179 1.6279121-1.36838987.6134161-.330301 1.297611-.47185857 2.0525848-.47185857zm12.575031 0c1.981806 0 3.5153469.660602 4.5534349 2.02899187.943718 1.2268323 1.439169 2.92552318 1.462762 5.09607265h-9.2484281c.0943717 1.1796464.4010798 2.0997706.9673101 2.7367797.5662302.6134162 1.3447969.9437172 2.3356999.9437172.8729384 0 1.5807262-.2123364 2.1233636-.6134162.4246727-.330301.7785667-.8729383 1.1088675-1.5807262h2.500851c-.283116 1.1324606-.825753 2.0997707-1.675098 2.8547444-1.0616821.9201242-2.4064791 1.3919828-4.0343912 1.3919828-1.7930626 0-3.2322312-.5662303-4.2703201-1.675098-1.1324606-1.1796464-1.6986909-2.7603726-1.6986909-4.7657716 0-1.81665551.5190445-3.32660295 1.6043192-4.55343525 1.0380889-1.25042523 2.4772575-1.86384137 4.2703201-1.86384137zm12.6929959 0c3.161452 0 4.907329 1.27401815 5.190444 3.84564739h-2.430072c-.188743-.660602-.471858-1.10886765-.872938-1.36838987-.424673-.28311515-1.085275-.42467272-1.93462-.42467272-.754974 0-1.321204.09437172-1.698691.33030101-.448266.23592928-.660602.61341614-.660602 1.08527472 0 .42467272.330301.77856665.990903 1.08527473.424673.18874343 1.226832.42467271 2.453665.73138079 1.391982.33030097 2.430071.73138077 3.090673 1.15605347.96731.6134162 1.462762 1.4627616 1.462762 2.5480364 0 2.5716292-1.816656 3.8692403-5.426374 3.8692403-3.350196 0-5.143258-1.4391687-5.426373-4.2703201h2.453664c.141558.8257525.448266 1.4155757.872939 1.7458767.424672.3067081 1.085274.4718586 2.028992.4718586 1.93462 0 2.925523-.5662303 2.925523-1.651505 0-.5898233-.377487-1.0616818-1.085275-1.3919828-.377487-.1887435-1.203239-.4246728-2.453665-.7077879-1.439168-.330301-2.453664-.6841949-3.019894-1.0616818-.943718-.5898232-1.415576-1.41557574-1.415576-2.4536646 0-1.10886766.448265-1.98180602 1.36839-2.59522217.920124-.63700908 2.123363-.94371715 3.586125-.94371715zm-65.5411564 2.02899187c-1.2268323 0-2.1469565.40107979-2.7367798 1.25042523-.5190444.70778786-.7785666 1.74587673-.7785666 3.09067372 0 1.3447969.2359293 2.3828858.7313808 3.1378595.5662303.8729384 1.4863545 1.321204 2.7131868 1.321204 1.0852747 0 1.9110272-.4482656 2.5244434-1.2976111.5190444-.7785666.7785666-1.7694696.7785666-2.9963019v-.2123364c0-1.32120402-.330301-2.38288581-.9437171-3.18504539-.6134162-.75497372-1.3683899-1.10886766-2.2885141-1.10886766zm13.7310846.02359293c-.9437172 0-1.675098.25952222-2.2413283.82575251-.5190444.54263736-.8729383 1.32120401-1.0144959 2.35929288h6.5824271c-.2359293-2.12336359-1.3447969-3.18504539-3.3266029-3.18504539zm39.1878547 0c-.9437171 0-1.6750979.25952222-2.2413282.82575251-.5190445.54263736-.8729384 1.32120401-1.014496 2.35929288h6.5824273c-.2359294-2.12336359-1.3447971-3.18504539-3.3266031-3.18504539z" fill="#333" transform="translate(64.84472 36)"/></g></svg>