<svg height="90" viewBox="0 0 180 90" width="180" xmlns="http://www.w3.org/2000/svg"><g fill="none"><g fill="#fff" transform="translate(20 21)"><path d="m153.934783 0h6.065217v5.00869565c-1.773913-1.95652174-3.834783-3.61304348-6.065217-5.00869565z"/><path d="m96.973913 7.21304348c5.021739-.03913044 10.056522-.23478261 15.065217.3-1.5 2.63478262-4.421739 2.25652174-6.93913 2.47826087-.93913 3.92608695-1.513043 7.94347825-2.673913 11.83043475-.782609.1956522-2.36087.6130435-3.1434783.8217392.7043478-4.3043479 1.6173913-8.5695653 2.5434783-12.83478265-1.721739-.02608695-3.4434783-.03913043-5.1782609-.06521739.0913043-.63913043.2478261-1.90434783.3260869-2.53043478z"/><path d="m113.291304 7.21304348c3.913044-.07826087 7.826087-.10434783 11.726087.26086956-2.1 4.55217396-9.013043-.15652174-10.095652 5.25652176 2.282609.2347826 4.565218.5217391 6.834783.8478261-1.76087 2.1-4.578261 1.7347826-7.004348 2.0347826-.195652.9782608-.573913 2.9347826-.769565 3.9130435 2.660869.0260869 5.321739.0782608 7.982608.2347826-1.904347 4.5-7.930434 1.6434782-11.726087 2.4.926087-4.9956522 1.982609-9.9782609 3.052174-14.94782612z"/><path d="m125.330435 13.173913c-.573913-6.14347822 6.626087-6.91304343 10.995652-5.43913039-1.343478 3.80869569-6.756522.39130435-7.682609 3.99130439 2.217392 1.9826087 7.839131 3.7826087 4.878261 7.5130434-1.83913 3.926087-6.730435 2.8173913-10.186956 2.7.234782-.7043478.704347-2.1260869.93913-2.8304347 2.608696.5608695 5.308696.6130434 7.291304-1.4086957-2.086956-1.5-4.291304-2.8434783-6.234782-4.526087z"/><path d="m138.256522 7.42173913c4.734782-.6 9.534782-.22173913 14.282608-.01304348-.834782 3.28695655-4.330434 2.04782609-6.691304 2.55652174-.860869 3.93913041-1.382609 7.96956521-2.634783 11.80434781-.808695.2217391-2.426086.6521739-3.234782.8739131.795652-4.2782609 1.669565-8.5434783 2.660869-12.78260873-1.982608-.09130435-3.97826-.20869566-5.947826-.3652174z"/><path d="m40.8086957 11.4391304c2.2043478-.0913043 4.8-1.0173913 6.7304347.5478261 3.3521739 2.5173913 3.1434783 7.6826087 1.0826087 10.9565218-2.1652174 2.0086956-5.2043478 1.1608695-7.8130434.9652174-.1565218-4.1608696-.1565218-8.3086957 0-12.4695653z"/><path d="m21.3217391 20.5304348c1.0565218-3.0652174 4.7478261-2.5043478 7.2913044-3-.7695652 2.0608695.3 5.5434782-2.3478261 6.4304348-2.2173913 2.2043478-7.6956522-.4173913-4.9434783-3.4304348z"/><path d="m10.2347826 40.8c1.9304348-1.6043478 3.8217391 1.8913043 2.1 3.2086957-1.9434783 1.6434782-3.79565217-1.8913044-2.1-3.2086957z"/><path d="m109.404348 40.8521739c1.786956-.6652174 2.43913-.0652174 1.930435 1.7869565-1.8.6652174-2.439131.0652174-1.930435-1.7869565z"/><path d="m132.713043 41.0347826c1.630435-1.2913043 3.026087 1.6434783 1.617392 2.6739131-1.630435 1.3173913-3.078261-1.6565218-1.617392-2.6739131z"/><path d="m141.856522 41.0217391c1.643478-1.2913043 3 1.6695652 1.591304 2.6869566-1.630435 1.3043478-3.065217-1.6826087-1.591304-2.6869566z"/></g><g fill="#6b6969" transform="translate(0 21)"><path d="m88.1217391 0h3.4956522c.1043478 6.1173913-.2086956 12.2347826.0913044 18.3521739.1695652 3.4826087 2.5173913 6.3 3.6652173 9.4956522-2.7913043-.3391304-6.9391304-.7565218-7.0565217-4.4217391-.7695652-7.7739131-.1565217-15.626087-.1956522-23.426087z"/><path d="m57.0652174 1.13478261c.873913.14347826 2.6086956.4173913 3.4695652.54782609.1826087 2.24347826.1304348 4.5.1304348 6.75652173 2.6608696-.26086956 5.5173913-1.21304347 8.1130435-.1173913 7.5260869 3.35217387 7.0043478 16.64347827-1.0565218 18.97826087-3.5347826.5869565-7.1217391-.7565217-10.6826087.026087.0391305-8.726087-.0130434-17.45217396.026087-26.19130439zm3.7434783 10.30434779c-.1565218 4.1608696-.1565218 8.3086957 0 12.4695653 2.6086956.1956521 5.647826 1.0434782 7.8130434-.9652174 2.0608696-3.2739131 2.2695652-8.4391305-1.0826087-10.9565218-1.9304347-1.5652174-4.5260869-.6391304-6.7304347-.5478261z"/><path d="m79.0956522 1.86521739c1.3043478-.4173913 2.6347826-.7173913 4.0043478-.87391304-.0130435.95217391-.0521739 2.83043478-.0782609 3.78260869-.9652174.14347826-2.9086956.44347826-3.8869565.6-.0652174-1.16086956-.0782609-2.33478261-.0391304-3.50869565z"/><path d="m99.2086957 1.47391304c1.1347823-.05217391 3.3913043-.18260869 4.5260873-.24782608-.026087 2.63478261-1.356522 4.3173913-4.1217395 4.21304347-.1043478-.99130434-.3-2.97391304-.4043478-3.96521739z"/><path d="m2.92173913 8.12608696c.9-.01304348 2.68695652-.03913044 3.58695652-.03913044.27391305 4.93043478-.65217391 10.05652178.69130435 14.85652178 1.76086957 2.9086956 5.5956522.9652174 7.4217391-.8347826.7043479-4.5782609.3130435-9.2347827.3130435-13.85217396.9-.06521739 2.6869565-.19565217 3.5869565-.26086957.1173913 6.57391303.1043479 13.14782613.0521739 19.72173913-1.5260869-.3652174-3.0391304-.7434783-4.5521739-1.1478261-3.4173913.9652174-8.30869562 2.2304348-10.31739127-1.7478261-1.64347826-5.3608695-.4826087-11.1521739-.7826087-16.69565214z"/><path d="m21.8608696 11.726087c1.3043478-5.33478265 7.6826087-3.926087 11.6869565-3.37826091-.1565218 1.22608695-.3391304 2.43913041-.5347826 3.65217391-2.7782609-.8608696-6.5217392-1.9695652-7.6173913 1.8 3.9521739 2.1391304 10.0826087 3.9652174 9.1565217 9.7173913-1.5913043 5.0217391-7.9695652 4.7217391-12.0260869 3.3652174-.1434783-1.3304348-.1956522-2.673913-.1695653-4.0173913 2.8043479.6521739 7.1608696 3.2608696 8.7652174-.7173913-2.673913-3.9-10.0043478-4.5521739-9.2608695-10.4217391z"/><path d="m37.7608696 9.13043478c4.3565217-1.38260869 11.2304347-3.09130435 13.6043478 2.19130432.9 5.5565218.1043478 11.3869566 2.2956522 16.7608696-1.7086957-.6-3.4173913-1.2-5.126087-1.8130435-2.5826087.6521739-5.2695652 2.0869565-7.9826087 1.1217391-3.9-1.2391304-5.1652174-7.0043478-2.0608696-9.7304347 2.5695653-3.1173913 6.9391305-2.6739131 10.526087-3.1956522-1.0565217-1.1739131-2.1521739-2.2956522-3.3130435-3.3652174-2.2956521-.1434783-4.473913.7956522-6.6521739 1.3565217-.4304348-1.1086956-.8608696-2.2173913-1.2913043-3.32608692zm3.5608695 11.40000002c-2.7521739 3.0130435 2.726087 5.6347826 4.9434783 3.4304348 2.6478261-.8869566 1.5782609-4.3695653 2.3478261-6.4304348-2.5434783.4956522-6.2347826-.0652174-7.2913044 3z"/><path d="m75.1304348 8.64782609c2.5826087-.27391305 5.1782609-.43043479 7.7869565-.53478261-.0913043 6.43043482-.0782609 12.86086952-.0782609 19.29130432-.9913043 0-2.9608695-.0130435-3.9391304-.0260869 0-5.1782609.0130435-10.3565218-.0652174-15.5347826-.9260869-.7956522-2.7782609-2.38695656-3.7043478-3.19565221z"/><path d="m96.6782609 8.19130435c2.1-.03913044 4.2130431-.09130435 6.3260871-.13043478.078261 6.45652173.03913 12.91304343.03913 19.38260873-.913043-.0391305-2.73913-.0913044-3.6521737-.1173913-.0782608-5.1130435.4695653-10.2782609-.2869565-15.352174-.5217391-.4173913-1.5782608-1.2521739-2.1-1.6695652-.0782608-.53478258-.2478261-1.59130432-.3260869-2.11304345z"/><path d="m28.473913 45.5478261c.0652174-3.1304348.0913044-6.2608696.2217392-9.3913044 1.6695652 1.6173913 3.573913 2.9869566 5.1391304 4.7086957.8086957 1.5782609-.4173913 3.3130435-.5869565 4.9434783-1.1869565-.0652174-3.5739131-.1956522-4.7739131-.2608696zm1.7608696-4.7478261c-1.6956522 1.3173913.1565217 4.8521739 2.1 3.2086957 1.7217391-1.3173914-.1695652-4.8130435-2.1-3.2086957z"/><path d="m44.6869565 35.4521739c1.4869565 3.5086957 1.3434783 7.4086957 1.6826087 11.1521739-3.1956522-2.8565217-1.9173913-7.4478261-1.6826087-11.1521739z"/><path d="m171.313043 46.5521739c-3.182608-2.8173913-2.426086-7.4478261-1.108695-11.0086956.613043 3.6391304.913043 7.3304347 1.108695 11.0086956z"/><path d="m57.1043478 37.8652174c1.2521739.4043478 2.4913044.8217391 3.7434783 1.2521739-2.7 2.2695652-.926087 4.9565217.4826087 7.4347826-3.8217391-1.4086956-4.0173913-5.1913043-4.226087-8.6869565z"/><path d="m80.1130435 38.5565217c3.4434782-2.1652174 2.6086956 3.0130435 2.2956522 4.9695653.5869565.6521739 1.7608695 1.9434782 2.3608695 2.5826087-3.9913043-.352174-5.0347826-4.1347827-4.6565217-7.552174z"/><path d="m104.4 37.9173913c1.278261.4695652 2.569565.926087 3.86087 1.3695652-3.091305 1.9956522-.926087 4.8130435.052173 7.3173913-3.443478-1.6695652-3.652173-5.3478261-3.913043-8.6869565z"/><path d="m143.165217 37.8652174c1.239131.4173913 2.478261.8217391 3.717392 1.2260869-2.452174 2.2826087-.926087 5.0086957.404348 7.4869566-3.665218-1.5391305-3.9-5.2565218-4.12174-8.7130435z"/><path d="m1.3173913 43.8c-.5347826-2.426087.24782609-4.2652174 2.34782609-5.5304348.09130435 1.5.27391304 4.4869565.36521739 5.9869565l1.82608696-.1304347c.48260869-2.0217392.86086956-4.0826087 1.59130435-6.052174.31304348 2.6478261.4173913 5.3086957.49565217 7.9695653-2.19130435-.626087-5.06086956-.2869566-6.62608696-2.2434783z"/><path d="m11.126087 40.4347826c1.7608695-.6 3.5217391-1.1478261 5.3086956-1.6565217-.8478261.6-2.5434783 1.8-3.3913043 2.4.873913.573913 2.6086956 1.7347826 3.4826087 2.3086956-1.5.926087-3 1.8391305-4.5130435 2.7391305l-.2608696-1.8130435c.7695652-.0391305 2.2956522-.0913044 3.0652174-.1173913-1.226087-1.2913044-2.4652174-2.5695652-3.6913043-3.8608696z"/><path d="m19.5913043 39.1304348c1.0434783 0 3.1173914-.0130435 4.1608696-.0130435.3782609 2.1652174.7304348 4.3434783 1.1086957 6.5086957-2.0478261-.0782609-4.0956522-.1695653-6.1434783-.2739131.7043478-2.2304348 2.4913044-3.6521739 4.3173913-4.9695652-.8869565 0-2.6478261-.026087-3.5217391-.0391304z"/><path d="m37.8913043 38.3478261c3.7043479 1.2391304 1.8130435 5.4782609 1.8782609 8.2695652-1.0565217-2.6347826-1.4347826-5.4782609-1.8782609-8.2695652z"/><path d="m51.4173913 38.1391304c1.473913 2.126087 1.3956522 4.7478261 1.6826087 7.2130435-.4434783.0521739-1.3173913.1695652-1.7608696.2217391-.0130434-2.4782608-.0260869-4.9565217.0782609-7.4347826z"/><path d="m64.1608696 38.3478261c.9652174 1.4217391 1.9434782 2.8304348 2.9347826 4.2391304.9652174-1.4478261 1.9304348-2.8826087 2.9086956-4.3043478-.7956521 3.4043478-1.8260869 6.7826087-3.2869565 9.9782609h-3.1956522c.7956522-.4565218 2.3869566-1.3565218 3.1826087-1.8-.8869565-2.7-1.7478261-5.4-2.5434782-8.1130435z"/><path d="m87.5086957 40.8c1.7869565-3.4695652 6.0260869-1.173913 6.3130434 2.0608696-1.173913.0521739-3.5086956.1695652-4.6826087.2217391l.026087 1.2521739c.8478261.0130435 2.5565217.026087 3.4043478.0391304l-.1434782 1.7869566c-2.7782609-.326087-6.5869566-1.8391305-4.9173913-5.3608696z"/><path d="m96.1956522 40.5652174c1.6695652-.6521739 3.3652174-1.2652174 5.0739128-1.8391304-.756522.6130434-2.269565 1.8130434-3.0260867 2.4130434 1.2.8478261 2.3869567 1.6956522 3.5739127 2.5565218-1.891304.9521739-3.8217388 1.9826087-6.0260867 1.7478261 1.0043479-.3913044 3-1.1739131 4.0043479-1.5782609-1.2130435-1.0826087-2.4130435-2.1913044-3.6-3.3z"/><path d="m112.095652 39.0652174c.626087.0391304 1.904348.1043478 2.543478.1434783-.169565 2.4652173-.326087 4.9304347-.6 7.3826086-.808695-2.4652173-1.304347-5.0217391-1.943478-7.5260869z"/><path d="m118.53913 38.8173913c1.643479.2086957 3.286957.4826087 4.917392.8217391.495652 2.2695653.469565 4.6043479.534782 6.926087-1.095652-2.3478261-2.021739-4.7739131-3.313043-7.0173913-.26087 2.0347826-.482609 4.0826087-.665218 6.1304348l-1.486956-.0391305c0-2.2695652 0-4.5391304.013043-6.8217391z"/><path d="m128.43913 39.9782609c1.42174-.5869566 2.869566-1.1086957 4.356522-1.5391305.026087 3.2739131-.104348 6.5478261-.234782 9.8217392h-6.078261c1.969565-.626087 3.926087-1.2652174 5.895652-1.9173913-1.539131-.3913044-3.065218-.7826087-4.604348-1.1739131.195652-1.7347826.313044-3.4826087.665217-5.1913043zm.965218.873913c-.508696 1.8521739.130435 2.4521739 1.930435 1.7869565.508695-1.8521739-.143479-2.4521739-1.930435-1.7869565z"/><path d="m151.565217 39.4304348c2.608696-1.2652174 5.491305.5478261 4.852174 3.5347826 0 2.7260869-2.843478 3.0913043-4.917391 2.4913043-1.252174-1.8-1.382609-4.2913043.065217-6.0260869zm1.147826 1.6043478c-1.460869 1.0173913-.013043 3.9913044 1.617392 2.6739131 1.408695-1.0304348.013043-3.9652174-1.617392-2.6739131z"/><path d="m160.734783 39.4695652c3.07826-1.773913 5.882608 1.4608696 4.630434 4.4739131-.691304 2.2565217-2.973913 1.747826-4.773913 1.5130434-1.108695-1.8260869-1.447826-4.3043478.143479-5.9869565zm1.121739 1.5521739c-1.473913 1.0043479-.039131 3.9913044 1.591304 2.6869566 1.408696-1.0173914.052174-3.9782609-1.591304-2.6869566z"/><path d="m174.873913 40.6565217c1.565217-.7304347 3.143478-1.3826087 4.76087-1.9565217-.56087.5869565-1.695653 1.7608696-2.269566 2.3608696.665218.7565217 1.982609 2.2956521 2.634783 3.0652174v.3521739c-1.852174.5086956-3.704348 1.0043478-5.569565 1.4608695.926087-.5869565 2.778261-1.7608695 3.691304-2.3478261-1.095652-.9652173-2.178261-1.9434782-3.247826-2.9347826z"/></g><path d="m6.37826087 0h61.90434783c2.2304348 1.39565217 4.2913043 3.05217391 6.0652174 5.00869565v18.53478265c-1.8130435 1.9695652-3.6782609 4.5652174-6.6521739 4.5391304-16.5.4956522-33.0391305-.326087-49.5130435.3391304-4.0173913 2.5434783-6.9391304 6.4434783-10.46086957 9.5869566-.06521739-3.0782609-.1173913-6.1565218-.20869565-9.2478261-2.16521739-1.3956522-6.20869565-1.8130435-6.06521739-5.1130435-.31304348-6.1826087-.31304348-12.3913044.02608695-18.56086958-.18260869-2.86956522 2.96086957-3.82173913 4.90434783-5.08695652zm4.94347823 7.21304348c-.0782608.62608695-.2347826 1.89130435-.3260869 2.53043478 1.7347826.02608696 3.4565217.03913044 5.1782608.06521739-.9260869 4.26521735-1.8391304 8.53043475-2.5434782 12.83478265.7826087-.2086957 2.3608695-.626087 3.1434782-.8217392 1.1608696-3.8869565 1.7347827-7.9043478 2.6739131-11.83043475 2.5173913-.22173913 5.4391304.15652175 6.9391304-2.47826087-5.0086956-.53478261-10.0434782-.33913044-15.0652174-.3zm16.3173913 0c-1.0695652 4.96956522-2.1260869 9.95217392-3.0521739 14.94782612 3.7956522-.7565218 9.8217392 2.1 11.726087-2.4-2.6608696-.1565218-5.3217392-.2086957-7.9826087-.2347826.1956522-.9782609.573913-2.9347827.7695652-3.9130435 2.426087-.3 5.2434783.0652174 7.0043478-2.0347826-2.2695652-.326087-4.5521739-.6130435-6.8347826-.8478261 1.0826087-5.4130435 7.9956522-.7043478 10.0956522-5.25652176-3.9-.36521739-7.8130435-.33913043-11.726087-.26086956zm12.0391305 5.96086952c1.9434782 1.6826087 4.1478261 3.026087 6.2347826 4.526087-1.9826087 2.0217391-4.6826087 1.9695652-7.2913044 1.4086957-.2347826.7043478-.7043478 2.1260869-.9391304 2.8304347 3.4565217.1173913 8.3478261 1.226087 10.1869565-2.7 2.9608696-3.7304347-2.6608695-5.5304347-4.8782609-7.5130434.926087-3.60000004 6.3391305-.1826087 7.6826087-3.99130439-4.3695652-1.47391304-11.5695652-.70434783-10.9956521 5.43913039zm12.9260869-5.75217387-1.5652174 2.07391304c1.9695653.15652174 3.9652174.27391305 5.9478261.3652174-.9913043 4.23913043-1.8652174 8.50434783-2.6608695 12.78260873.8086956-.2217392 2.4260869-.652174 3.2347826-.8739131 1.2521739-3.8347826 1.773913-7.8652174 2.6347826-11.80434781 2.3608695-.50869565 5.8565217.73043481 6.6913043-2.55652174-4.7478261-.20869565-9.5478261-.58695652-14.2826087.01304348z" fill="#c00" transform="translate(105.652174 21)"/></g></svg>