<svg height="90" viewBox="0 0 181 90" width="181" xmlns="http://www.w3.org/2000/svg"><g fill="none"><g fill="#1ab1ef" transform="translate(0 27)"><path d="m15.3994737 2.61c.2178947-1.28368421 1.0942105-2.62894737 2.5910526-2.34473684 1.4257895-.18473684 2.0936842 1.18894737 2.3542105 2.34947368-1.648421.00473684-3.2968421 0-4.9452631-.00473684z"/><path d="m6.36157895 5.49947368c1.04210526-.54947368 2.43947368.46894737 2.17894737 1.63894737-.09 1.15105263-1.62 1.7431579-2.48684211 1.00894737-.92842105-.64421053-.74368421-2.24052631.30789474-2.64789474z"/><path d="m28.1605263 5.45684211c1.0373684-.44052632 2.311579.51157894 2.1173684 1.63894736-.0663158 1.30263158-1.9468421 1.87105264-2.7189473.82421053-.7389474-.72947368-.36-2.12210526.6015789-2.46315789z"/><path d="m.41210526 16.5078947c.65842106-.5257894 1.40210527-.928421 2.19789474-1.2078947.02368421 1.6531579.02842105 3.3063158.01894737 4.9547368-.80526316-.2842105-1.55842105-.6821052-2.21684211-1.2173684 0-.8431579 0-1.6863158 0-2.5294737z"/><path d="m32.8973684 15.3331579c1.3784211.1515789 2.8657895 1.108421 2.6289474 2.6857895-.0710526 1.3973684-1.4447369 2.0226315-2.6526316 2.1931579.0331579-1.6247369.0426316-3.2494737.0236842-4.8789474z"/><path d="m15.5510526 33.8257895c1.5678948-.3410527 3.1736842-.4784211 4.7794737-.5068421-.4073684 2.3731579-3.898421 2.7426315-4.7794737.5068421z"/></g><g fill="#2a91f2" transform="translate(2.368421 29.368421)"><path d="m13.0310526.24157895c1.6484211.00473684 3.2968421.00947368 4.9452632.00473684-.5589474 1.04210526-1.3263158 1.96105263-1.8757895 3.00789474.2510526.39315789.5163158.7768421.7957895 1.15578947-.9189474-.58736842-2.0131579-.59210526-2.88.09473684.3078947-.39315789.6110526-.79105263.8763158-1.21736842-.4926316-1.08473684-1.35-1.96105263-1.861579-3.04578947z"/><path d="m.24157895 12.9315789c.75789473.3836843 1.62947368.6773685 2.1268421 1.411579.34105263.5115789.65368421 1.0373684.96631579 1.5631579-.98526316.7152631-1.96105263 1.4636842-3.07421052 1.98.00947368-1.6484211.00473684-3.301579-.01894737-4.9547369z"/><path d="m27.7389474 14.8831579c.9094737-.6678947 1.8047368-1.3594737 2.79-1.9184211.0189473 1.6294737.0094737 3.2542106-.0236842 4.8789474-.9710527-.5636842-1.8663158-1.2457895-2.7710527-1.9136842 0-.2605263.0047369-.7815789.0047369-1.0468421z"/><path d="m3.99315789 24.84c.88578948-.4594737 2.09842106.1847368 2.19789474 1.1794737.28421053 1.2505263-1.28368421 2.2926316-2.34473684 1.5868421-1.06578947-.5589474-.98052632-2.3305263.1468421-2.7663158z"/><path d="m25.7589474 24.8021053c1.9468421-.8763158 3.0789473 2.4489473 1.0326315 2.9557894-1.8189473.6347369-2.8373684-2.3115789-1.0326315-2.9557894z"/><path d="m14.9589474 27.7910526c.4594737.2131579.9189473.4263158 1.3736842.6536842 1.0136842.4168421 1.3073684 1.5678948 1.6294737 2.5057895-1.6057895.0284211-3.211579.1657895-4.7794737.5068421l-.0473684.0094737c-.1089474-1.5157895.8810526-2.6336842 1.8236842-3.6757895z"/></g><g fill="#523dfd" transform="translate(4.736842 33.157895)"><path d="m11.6478947.71526316c.8668421-.68684211 1.9610527-.68210527 2.88-.09473684.9568421.70578947 1.2268421 1.8568421 1.3547369 2.97-1.6531579-.54473685-3.3773684-.30789474-5.0684211-.19421053-.0710526-.28421053-.2131579-.85263158-.2889473-1.13684211.2842105-.38842105.8431579-1.15578947 1.1226315-1.54421052z"/><path d="m4.10684211 5.21526316c-.27-1.41631579 1.0468421-2.80421053 2.46789473-2.63842105.82421053.00473684 1.37368421.72 1.99894737 1.14631578-.85263158 1.26-1.81894737 2.44421053-2.88473684 3.53842106-.62526316-.58736842-1.51578948-1.09421053-1.58210526-2.04631579z"/><path d="m17.7063158 3.94578947c.6963158-1.35947368 2.6147368-1.88526315 3.7468421-.75315789 1.2031579 1.05631579.8005263 3.04105263-.5352632 3.79894737-1.08-1.00894737-2.1505263-2.02263158-3.2115789-3.04578948z"/><path d="m.98526316 11.0652632c1.25526316-.9331579 2.40157895-2.18368425 4.08315789-2.24052636-.51157894 1.83315786-.65842105 3.74684206-.19421052 5.60842106-1.58684211-.2084211-2.71894737-1.3642105-3.90789474-2.3163158-.31263158-.5257895-.62526316-1.0515789-.96631579-1.5631579.24631579.1278947.73894737.3836842.98526316.511579z"/><path d="m21.96 8.80578947c1.26.5731579 2.3068421 1.47789473 3.4105263 2.28789473 0 .2652632-.0047368.7863158-.0047368 1.0468421-1.0894737.8005263-2.1173684 1.6910526-3.3442106 2.2784211-.0094736-1.8710527-.0189473-3.7421053-.0615789-5.61315793z"/><path d="m4.94052632 20.1647368c-1.37368421-1.0468421-.95210527-3.1452631.44526315-3.96 1.03263158 1.1273685 2.10789474 2.2168421 3.19736842 3.2968421-.9 1.0089474-2.48210526 1.6721053-3.64263157.6631579z"/><path d="m21.3489474 16.3468421c.6678947.99 1.2552631 2.3636842.36 3.42-.9 1.2742105-2.6952632 1.0373684-3.7468421.0852632 1.1321052-1.1652632 2.2594736-2.3352632 3.3868421-3.5052632z"/><path d="m10.4305263 20.79c1.8236842-.2321053 3.661579-.2889474 5.4994737-.2178947-.4926316 1.4494736-2.4584211 2.4110526-1.9657895 4.0831579-.4547368-.2273685-.9142105-.4405264-1.3736842-.6536843-.6536842-1.1131578-1.4542105-2.1315789-2.16-3.2115789z"/></g><g fill="#7e35ad" opacity=".9" transform="translate(9 35.052632)"><path d="m6.20052632.07578947.06157894.28894737c.07578948.28421053.21789474.85263158.28894737 1.13684211 1.69105263-.11368421 3.41526316-.35052632 5.06842107.19421052-.5494737 1.65789474-2.54368423 2.77578948-4.13526317 1.75736842-1.25526316-.64421052-1.35473685-2.14105263-1.28368421-3.37736842z"/><path d="m4.31052632 1.82842105.03315789-.05210526c.00473684.87631579.27473684 1.90421053-.36947368 2.63842105-.56368421.85736842-1.6531579.80526316-2.54842106.95210527 1.06578948-1.09421053 2.03210527-2.27842106 2.88473685-3.53842106z"/><path d="m13.4384211 2.04631579.0047368.00473684c1.0610526 1.0231579 2.1315789 2.03684211 3.2115789 3.04578948l.0331579.03315789c-.7294736.18-1.4542105.37421053-2.1552631.63947368-.3647369.17052632-1.0894737.52105264-1.4494737.69631579-.18-.58263158-.3742105-1.16526315-.5257895-1.75263158.2794737-.89526315.5968421-1.77631578.8810527-2.6668421z"/><path d="m.80526316 6.93c1.02789473.55421053 2.20736842 1.34526316 2.15052631 2.67157895.17526316 1.47789475-1.10842105 2.46789475-2.34473684 2.93684215-.46421052-1.861579-.31736842-3.77526321.19421053-5.6084211z"/><path d="m14.8357895 10.35c-.5068421-1.81421053 1.1368421-3.34894737 2.8610526-3.43894737.0426316 1.87105263.0521053 3.74210527.061579 5.61315787-1.2647369-.1705263-2.671579-.7721052-2.9226316-2.1742105z"/><path d="m1.01368421 14.1915789c.91421053.0378948 1.98947368-.1847368 2.7.5542106.88105263.7010526.69631579 1.8805263.60631579 2.8610526-1.08947368-1.08-2.16473684-2.1694737-3.19736842-3.2968421z"/><path d="m13.8789474 14.9068421c.7863158-1.0326316 2.1315789-.7247368 3.2068421-.4547368-1.1273684 1.17-2.2547369 2.34-3.3868421 3.5052631l-.0473685.0521053c-.3505263-1.0184211-.6536842-2.25.2273685-3.1026316z"/><path d="m6.08682083 18.9047368c-.00471557-1.468421.78160022-3.088421 2.39212654-3.268421 1.82368423-.3268421 3.12631583 1.378421 3.18789473 3.0410526-1.83789473-.0710526-3.67578947-.0142105-5.49947368.2178948z"/></g><g fill="#333" transform="translate(42.157895 37.894737)"><path d="m.18947368.16578947c1.54894737-.09473684 3.09789474-.09947368 4.64684211-.07105263.09 2.95105263.18473684 5.92105263-.01421053 8.86736842-.31263158.98052632-1.44.84789474-2.25.9331579-.04736842-.27947369-.14210526-.83368421-.18947368-1.1131579.26526316-.16578947.80526316-.48789473 1.07526316-.65368421-.02368421-2.18368421-.0331579-4.37210526-.02842106-6.55578947-.44052631 0-1.32631579 0-1.7668421 0-.03789474 3.84157895.06157895 7.68789474-.03789474 11.53421052.04263158.7768421-.94736842.4736842-1.41631579.5826316-.06157894-4.50473686-.03315789-9.01421054-.01894737-13.52368423z"/><path d="m5.85473684.1231579c2.78526316-.05684211 5.57052636-.06157895 8.36052636.00473684.0331579.70105263-.1705264 1.31210526-.81 1.68157894-.1326316 3.65684211.1515789 7.33263158-.1373685 10.98000002-.6394736 1.3973684-2.4394736.81-3.64263154.8478947-.00947369-.3173684-.0331579-.9568421-.04736842-1.2742105.75315786-.0805263 1.50631576-.151579 2.26421056-.2178947.118421-3.52421057.0331579-7.05315794.0521052-10.57736846-2.04631576.00473684-4.09263155.04736842-6.13894734-.08526316.02368421-.34105263.07578947-1.01842105.09947368-1.35947368z"/><path d="m17.3131579.21789474c2.5673684-.31736842 5.1726316-.03789474 7.7589474-.14684211.9615789.05684211 2.3921052-.23210526 2.8278947.92368421.1847368 1.82842105.2131579 3.69947369-.0189474 5.52789474-1.0894737 1.50157895-3.3157894.58263158-4.9026315.81947368-.0047369.51157895-.0047369 1.0231579-.0047369 1.53473685 1.6626316 0 3.33 0 4.9926316.04263157-.0094737.35052632-.0331579 1.05631579-.0426316 1.40684212-1.648421.0426316-3.3015789.0426316-4.95.0426316v1.8568421c1.9847369-.0047369 3.9694737-.0142106 5.9542105.0473684-.0236842.3505263-.0757894 1.0563158-.1042105 1.4068421-4.41.0521053-8.8247368.0521053-13.2347368 0-.0142106-.36-.0378948-1.0705263-.0473685-1.4257895 1.9847369-.0331579 3.9694737-.028421 5.9542106-.0331579-.0047369-.6157894-.0094737-1.2363158-.0094737-1.8568421-1.6484211.0047369-3.2921053.0047369-4.9357895-.0236842-.0142105-.35526314-.0426316-1.06578946-.0568421-1.42105262 1.6673684-.04263157 3.3347369-.04263157 5.0021053-.04263157-.0047369-.51631579-.0094737-1.02789474-.0094737-1.53947369-1.3594737-.01421053-2.7426316.16578947-4.0831579-.08526316-1.3689474-.54947368-.8052632-2.32105263-.9473684-3.46263158.1515789-1.17473684-.4405263-2.88947368.8573684-3.57157894zm.7247368 1.36421052c-.0189473.47368421-.0378947.94736842-.0568421 1.42105263 1.17-.00947368 2.3352632-.01421052 3.5052632-.01894736 0-.47368421.0047368-.94263158.0094737-1.41157895-1.1510527 0-2.3021053 0-3.4578948.00947368zm4.9121053-.01894737c.0142105.47368422.0236842.95210527.0378947 1.42578948 1.1889474 0 2.3778948 0 3.5668421-.00473684-.0236842-.34578948-.0757894-1.04210527-.0994736-1.38789474-1.17-.01894737-2.3352632-.02842105-3.5052632-.0331579zm-5.1252632 2.91789474c.0994737.45473684.2131579.90473684.3457895 1.35 1.1036842.11368421 2.2121053.06157895 3.3205263.06157895 0-.47368421 0-.94736842 0-1.41631579-1.2221052-.00473684-2.4442105-.00473684-3.6663158.00473684zm5.1489474-.00473684v1.42105263c1.1036842-.00473684 2.2168421.05684211 3.3157895-.08526316.1894737-.41210526.3031579-.86210526.3363158-1.33578947-1.2173684-.00947368-2.4347369-.00473684-3.6521053 0z"/><path d="m31.4668421.14210526c.3031579-.01421052.9094737-.04263158 1.2126316-.0568421.0757895.54947368.1468421 1.09894737.2178947 1.64842105 1.0231579.01421053 2.0510527.0331579 3.0742105.06631579.0047369 3.24.4405264 6.70736842-1.2505263 9.6442105.8147369.5447369 2.5152632 1.0184211 1.5678948 2.2831579-.9521053-.1136842-1.771579-.6347368-2.5957895-1.08-.8336842.3268421-1.6721053 1.1842105-2.6147368.9426316-.0947369-.27-.2794737-.8052632-.3742106-1.0752632.6584211-.3410526 1.3121053-.6821052 1.9705263-1.0278947-1.4305263-2.45368421-1.378421-5.33368421-1.3405263-8.08105263-1.4257894.08526316-1.53-1.91842105-.0378947-1.80947368.0568421-.4831579.1136842-.97105263.1705263-1.45421053zm1.3642105 3.09789474c-.0094737 2.34947368-.1894737 4.79368421.8526316 6.9773684 1.0563158-2.18368419.8478947-4.64210524.8336842-6.99157893-.5636842.00473685-1.1273684.00947369-1.6863158.01421053z"/><path d="m37.0042105.10894737c1.7384211-.00947369 3.481579-.09 5.22.00473684.5731579-.03315789 1.08.34578947 1.3168421.84789474.1942106 1.44.0805263 2.89894737.1089474 4.35315789.2084211.11842105.6252632.35526316.8336842.47368421.18 2.30684211.18 4.64210525.0047369 6.94894735-.5778948 1.4494737-2.43.8147369-3.6284211.9142105-.0094737-.3363157-.0378947-.9994736-.0521053-1.3357894.7389474-.0521053 1.4778948-.0994737 2.221579-.151579.0378947-.6015789.0710526-1.198421.1042105-1.8-2.0415789.0047369-4.078421.0142106-6.12-.028421-.0142105-.3457895-.0426316-1.03263161-.0568421-1.37368424 2.0463158-.07578947 4.0973684-.0568421 6.1436842-.04736842 0-.64421052 0-1.28842105.0047369-1.92789473-1.6673685-.04736843-3.3631579.16578947-5.011579-.13736843-1.4210526-.87631579-.6205263-2.88473684-.7957895-4.25368421.3552632.02842106 1.0705264.08526316 1.4257895.11368421.0331579.9331579.0663158 1.86157895.1089474 2.79473685 1.1178947.00473684 2.2357895 0 3.358421 0 0-1.30263158-.0189473-2.61-.0710526-3.91263158-1.7431579-.01894737-3.4815789-.01421053-5.2247368-.07578948.028421-.35052631.0805263-1.05631579.1089473-1.4068421z"/><path d="m47.5673684.07105263c1.1889474-.25105263 1.4636842.65368421 1.5157895 1.66263158 1.0042105.01421053 2.0036842.0331579 3.0078947.06157895.0473685 3.25421052.4263158 6.74526316-1.2694737 9.69631574.6157895.3173685 1.231579.6347369 1.8521053.9521053-.0615789.3410526-.18 1.0278947-.2415789 1.3736842-.9047369-.3126316-1.7763158-.7105263-2.6147369-1.17-.7768421.4073684-1.5489473.8573684-2.4015789 1.0847369-.2794737-.3505264-.4878948-.7436842-.6205263-1.1842106.6631579-.3552631 1.3310526-.7105263 1.9989473-1.0705263-1.4257894-2.44421051-1.3736842-5.31473682-1.3263158-8.05263156-.8763158-.11368421-1.2031579-.73421052-1.2315789-1.55368421.3031579-.04736842.9142105-.13736842 1.2221053-.18.028421-.40736842.0805263-1.21736842.1089473-1.62zm1.4021053 3.16894737c-.0094737 2.34473684-.2178948 4.79842105.8431579 6.9773684 1.0326316-2.19315787.8621052-4.6373684.838421-6.99157893-.5589473.00473685-1.1226315.00947369-1.6815789.01421053z"/><path d="m53.1142105.10894737c1.7242106-.00947369 3.4531579-.09 5.1821053.00473684.7057895-.05210526 1.4589474.52105263 1.4305263 1.26473684.1042105 1.30736842.0426316 2.61947369.0568421 3.92684211.2036842.12315789.6063158.36.81.47842105.18 2.33052632.1610526 4.68947369.0094737 7.01526319-.6773684 1.3594737-2.4157895.7626315-3.6142105.8431579-.0189474-.331579-.0521053-.99-.0710527-1.321579.7436842-.0663158 1.4873685-.1231579 2.2310527-.18.0378947-.5921052.0805263-1.1842105.118421-1.7763158-2.0510526.0047369-4.1021052.0142106-6.1531579-.0378947-.0047368-.34578948-.0142105-1.03263159-.0189473-1.37842106 2.0463157-.04736842 4.0926315-.0331579 6.1389473-.06631579 0-.63 0-1.26473684 0-1.89473684-1.6815789-.05684211-3.4057894.18473684-5.0636842-.16105264-1.3594737-.91421052-.5542105-2.87052631-.7436842-4.23473684.3505263.02842105 1.051579.08526316 1.4068421.11368421.0284211.93789474.0663158 1.87105263.1278947 2.80421053 1.1084211 0 2.221579-.00473684 3.33-.00473684 0-1.30736842-.0094736-2.61-.0568421-3.91263158-1.7289473-.01894737-3.4626315-.00947369-5.1915789-.07578948.0142105-.35052631.0521053-1.05157894.0710526-1.4068421z"/><path d="m5.79315789 3.31105263c1.60105264-.10421052 3.20684211-.10894737 4.81263161-.0568421.0710526 2.20263158.1136842 4.41-.0378948 6.60789473-1.58210523.00473685-3.16421049.00473685-4.75105259-.04263158-.07105264-2.16947368-.06157895-4.33894736-.02368422-6.50842105zm1.45894737 1.38789474v3.70894737c.63947369 0 1.27894737-.00473685 1.9231579-.00473685 0-1.21736842.00473684-2.43.00947368-3.64736842-.64421052-.01894736-1.28842105-.03789473-1.93263158-.0568421z"/></g><g fill="#828282" opacity=".95" transform="translate(110.368421 37.421053)"><path d="m9.35526316 5.73631579c2.02736844-1.34052632 3.42947364-3.26368421 4.55210524-5.37157895.7768421 2.07 2.2168421 3.73263158 3.96 5.05421053.0426316.21315789.1231579.64421052.1657895.85736842-1.8521053-.67263158-3.1784211-2.1931579-4.1921053-3.81789474-.9852631 1.42578948-2.0889473 2.96052632-3.7610526 3.6z"/><path d="m31.7131579 1.72421053c.27-.45473685.5636842-.89526316.8857895-1.31684211.0852631.33631579.2510526 1.00894737.3363158 1.34526316 1.7431579.02842105 3.51-.16105263 5.2389473.11368421l.3694737.6868421c-3.988421.19894737-8.0005263.09947369-11.97-.00473684l-.4878947-.70105263c1.8710526-.16578947 3.7515789-.09473684 5.6273684-.12315789z"/><path d="m47.0415789 3.03157895c.2510527-.81-.45-2.38736842.7484211-2.5531579.27.82421053.2084211 1.70526316.2510526 2.55789474 1.6578948.02842105 3.3205263-.05210526 4.9831579-.03789474.09.08526316.2747369.25105263.3694737.33157895.0047369 2.04157895-.0805263 4.08315789.0284211 6.12473684-1.8094737.03789474-3.6189474.01894737-5.4284211.01894737.0094737 1.66263159.0331579 3.32052629-.0852631 4.97842109-.1894737-.1231579-.5636843-.3647369-.7484211-.4878948-.1705263-1.4873684-.0473684-2.9936842-.0710526-4.49052629-1.8 0-3.6047369 0-5.4047369 0 0-2.16947368-.0189473-4.33894737.0142106-6.50368421 1.7763157.07578947 3.5621052.07578947 5.3431578.06157895zm.9568422.91421052c-.0047369 1.53947369-.0047369 3.07421053 0 4.60894737 1.4731578.00947369 2.9463157.00947369 4.4242105 0 0-1.53473684 0-3.07421052 0-4.60894737-1.4778948 0-2.9510527 0-4.4242105 0zm-5.4 0c-.0047369 1.53947369-.0047369 3.07421053 0 4.61368421 1.4921052.00473685 2.9889473.00473685 4.4857894-.00473684.0047369-1.53473684.0047369-3.06947368 0-4.60894737-1.4968421 0-2.9889473 0-4.4857894 0z"/><path d="m63.2321053.94263158c.1847368-.09473684.5636842-.28894737.748421-.38368421.8194737 2.13157895 1.17 4.43842105.9 6.71210526-.1705263-.13736842-.5068421-.40736842-.6773684-.54473684-.27-1.93736842-.3505263-3.91263158-.9710526-5.78368421z"/><path d="m21.96 1.17c.1942105-.10894737.5921053-.3268421.7910526-.43578947.0663158 4.0168421.09 8.04315789.0047369 12.05999997-.0852632 1.3784211-1.71 1.6863158-2.8136842 1.3926316-1.1084211-.928421 1.2742105-.8763158 1.8521052-1.0468421.2557895-3.98368421-.0615789-7.98631579.1657895-11.97z"/><path d="m59.8026316 1.8c.18.14684211.5447368.43105263.7247368.57315789.2368421 3.44842106-.1136842 6.92052632.1563158 10.36894741 1.4731579.9047368 3.481579.2794736 5.1584211.3978947 1.1036842.0615789.6726315-1.4589474 1.018421-2.0984211 1.62.9331579.3126316 3.5905264-1.4778947 3.0410527-1.8142105-.2889474-4.8031579.9189473-5.6463158-1.3168421-.1326316-3.64736845-.1894737-7.32315792.0663158-10.9657895z"/><path d="m19.1036842 2.75684211c.5021053.34105263.8431579.81473684.7247369 1.45894736.0236842 2.23578948-.0047369 4.47631579-.0236843 6.71210523-.2178947.0094737-.658421.0284211-.8763157.0378948.0521052-2.73789476-.1942106-5.49000003.1752631-8.20894739z"/><path d="m29.4110526 2.92263158c.6584211-.00473684.7105263.83842105 1.0421053 1.24578947 1.2457895.00947369 2.4963158.00473684 3.7421053-.04263158.3505263-.42631579.4689473-1.47315789 1.2268421-1.28368421.0757894.45.0521052.89526316-.0757895 1.34526316 1.2789474.19894737 3.088421-.5968421 3.9742105.56842105-1.0089474.54473685-2.2073684.26526316-3.2968421.34578948-3.5763158-.06157895-7.1573684.10421052-10.7242105-.09473684-.1184211-.19421053-.3457895-.58263158-.4594737-.77684211 1.4305263-.07105263 2.8610526-.07105263 4.2915789-.03315789.0710527-.31736843.2084211-.95684211.2794737-1.27421053z"/><path d="m57.3726316 3.18315789c.2036842.09.6157895.27.8194737.36-.0047369 2.65263158-.1894737 5.3431579-.8668421 7.92000001l-.6063158-.4831579c.18-2.59105263.5494737-5.18684211.6536842-7.79684211z"/><path d="m67.5947368 3.67105263c.1326316-.22736842.3884211-.67263158.5163158-.89526316.7578948 2.30684211 1.1510527 4.7131579 1.5205263 7.11v1.97052633c-.2036842-.2463158-.6063157-.7436842-.81-.99-.3410526-2.41105264-.8857894-4.78894738-1.2268421-7.19526317z"/><path d="m27.4168421 5.77894737c3.2589474.02842105 6.541579-.18473684 9.7910526.09473684.0189474 1.31684211.5921053 3.20210526-.7389473 4.05473684-3.0078948.25578945-6.0442106.06631579-9.061579.08526315-.0473684-1.41157894-.0473684-2.82315788.0094737-4.23473683zm.7484211 1.61526316c2.728421.11842105 5.4568421.04263158 8.1852631.05210526.0047369-.18947368.0189474-.5731579.0284211-.76736842-2.671579-.0331579-5.3431579-.00947369-8.0147369-.01894737-.0473684.18473684-.1468421.54947368-.1989473.73421053zm-.0805264 1.01368421c.2510527.45.5636843.89052631 1.2031579.67736842 2.2073685-.00473684 4.4336842.11368421 6.6363158-.06631579.1657895-.14210526.5021053-.43578948.6726316-.58263158-2.8373684-.12789474-5.6747368-.09-8.5121053-.02842105z"/><path d="m.77210526 6.44684211c.29368421-.40736843 1.5631579-.00947369 1.14631579.61578947.02842106 1.41631579-2.31631579.20842105-1.14631579-.61578947z"/><path d="m11.2784211 5.80736842c1.7763157-.03789474 3.5478947-.04263158 5.3242105.02368421-.1752632 1.47789474.5021052 3.31578948-.5921053 4.53789477-.748421.36-2.1410526.6063158-2.4489474-.45947372.6963158-.12789473 1.4021053-.24631579 2.1031579-.36473684.0189474-.95210526.0331579-1.89947368.0426316-2.85157895-1.1842105 0-2.368421 0-3.5478947.00473685.0047368 2.18368421-.0852632 4.37684206.1089474 6.56052636 1.4021052.09 2.8042105.0947368 4.2063157.0047368.3031579-.5163158.0947369-1.98 1.1178948-1.5394737.1089473.9094737.0521052 2.16-1.0373684 2.4347369-1.2647369.1563157-2.5436843.1278947-3.8131579.0521052-.7484211.0142105-1.4589474-.6631579-1.4447369-1.4163158-.1421052-2.3257894-.0378947-4.65631576-.0189473-6.98684208z"/><path d="m25.6594737 12.8984211c.3078947-.9378948.7815789-1.8189474 1.3310526-2.6431579.6157895 1.1131579-.0757895 2.3163157-.6868421 3.2589473-.6205263.2842106-.838421.0805263-.6442105-.6157894z"/><path d="m28.44 10.5631579c1.4636842-.0473684.2368421 2.2736842 1.4257895 2.6242105 1.5868421.1373684 3.1926316.0805263 4.7842105.0426316 1.0184211.1184211.8478947-1.2647368 1.3073684-1.8473684 1.1084211.7105263.4026316 2.7521052-.8952631 2.7568421-1.8663158.0994737-3.78.2178947-5.6321053-.0994737-1.3689474-.5542105-1.1936842-2.2878947-.99-3.4768421z"/><path d="m31.9357895 10.9657895c.1894737-.1326316.568421-.3931579.7578947-.5210527.3173684.7910527 1.2173684 1.8094737.2084211 2.4868421-.3363158-.6489473-.6536842-1.3073684-.9663158-1.9657894z"/><path d="m37.3831579 10.2836842c1.0231579.9047369 1.5773684 2.2121053 1.4968421 3.5857895-1.1273684-.7247369-1.8236842-2.2689474-1.4968421-3.5857895z"/></g><path d="m7.78736842.32684211.0331579.12315789c.15157894.58736842.34578947 1.17.52578947 1.75263158.36-.17526316 1.08473684-.52578947 1.44947368-.69631579-2.50105263 1.6768421-1.05157894 5.76947368-3.87473684 7.2-2.86578947 1.78578951-6.65526316-1.61052632-5.21052631-4.65157895 1.14631579-2.97473684 4.95473684-1.98947368 7.0768421-3.72789473z" fill="#f1582c" transform="translate(13.736842 39.315789)"/></g></svg>