<svg height="90" viewBox="0 0 180 90" width="180" xmlns="http://www.w3.org/2000/svg"><path d="m18.6666667 48.8888889h-.8888889l-17.7777778-47.40740742h10.0740741l13.037037 35.25925922 13.1851852-35.25925922h10.0740741l-17.7777778 47.40740742zm28.5925926 14.3703704c3.4074074 0 6.2222222 2.9629629 6.2222222 6.5185185 0 3.5555555-2.8148148 6.3703703-6.2222222 6.3703703-1.4814815 0-2.962963-.5925925-4-1.6296296v.8888889h-2.0740741v-15.1111111h2.0740741v4.5925926c1.037037-1.037037 2.3703703-1.6296296 4-1.6296296zm0 10.6666666c2.2222222 0 4-1.9259259 4-4.2962963 0-2.3703703-1.7777778-4.2962963-4-4.2962963-2.2222223 0-4 1.925926-4 4.2962963 0 2.3703704 1.7777777 4.2962963 4 4.2962963zm11.2592592-1.7777778 3.2592593-8.1481481 2.2222222.1481481-6.0740741 15.2592593-2.2222222-.1481481 1.6296296-4.1481482-4.2962963-10.962963 2.2222223-.1481481zm11.7037037-8.1481481h2.0740741v11.2592593h-2.0740741zm-.1481481-4.4444444h2.074074v2.5185185h-2.074074zm11.4074074 7.7037037c.1481481.1481481 1.7777778.7407407 2.5185185 2.074074.4444444 1.1851852.4444444 2.3703704-.1481481 3.7037037-.7407408 1.6296297-2.2222223 2.6666667-4.4444445 2.6666667h-.1481481c-1.7777778 0-3.7037037-.8888889-5.0370371-2.3703704l1.6296297-1.4814814c.8888888 1.037037 2.2222222 1.6296296 3.5555555 1.6296296 1.9259259 0 2.3703704-1.0370371 2.5185185-1.3333334.2962963-.7407407.4444445-1.4814814.1481482-1.9259259-.4444445-.7407407-1.3333334-1.037037-1.3333334-1.037037l-4-1.6296296c-.1481481-.1481482-1.9259259-1.0370371-2.2222222-2.962963-.2962963-1.1851852.1481482-2.3703704 1.1851852-3.5555556 2.6666667-2.9629629 6.5185185-1.3333333 8.1481482 0l-.5925926.8888889-.5925926.8888889c-.1481482-.1481481-3.2592593-2.5185185-5.1851852-.2962963-.5925926.5925926-.8888889 1.1851852-.7407408 1.7777778 0 .7407407.8888889 1.3333333 1.0370371 1.4814815zm7.4074074 6.3703703c.2962963.1481482 1.037037.1481482 2.0740741 0l.5925926 2.0740741c-.7407408.1481482-1.3333334.2962963-1.925926.2962963-.8888889 0-1.4814815-.2962963-2.074074-.7407407-1.0370371-.8888889-1.0370371-2.2222223-1.0370371-2.5185186v-6.6666666h-2.0740741v-2.0740741h2.0740741v-2.3703704h2.0740741v2.3703704h2.6666667v2.0740741h-2.6666667v6.8148148s0 .4444444.2962963.7407407zm9.3333333-10.6666666c3.5555558 0 6.3703708 2.9629629 6.2222218 6.5185185 0 3.5555555-2.814814 6.5185185-6.2222218 6.5185185-3.4074074 0-6.2222222-2.962963-6.2222222-6.5185185 0-3.5555556 2.8148148-6.5185185 6.2222222-6.5185185zm0 10.8148148c2.3703708 0 4.1481478-1.9259259 4.1481478-4.2962963s-1.925926-4.2962963-4.1481478-4.2962963c-2.3703703 0-4.1481481 1.9259259-4.1481481 4.2962963s1.9259259 4.2962963 4.1481481 4.2962963zm28.8888888-10.8148148-4.888889 6.3703703 5.037037 5.925926h-2.814815l-4-4.7407408v4.7407408h-2.074074v-15.1111112h2.074074v7.8518519l4-5.037037zm13.62963-43.1111111c0-10.51851857 8.592592-19.11111116 19.111111-19.11111116v9.18518519c-5.481482 0-9.925926 4.44444447-9.925926 9.92592597v29.037037h-9.185185zm-8.296297 49.9259259h17.481482v1.1851852h-17.481482zm-114.9629625 0h17.4814815v1.1851852h-17.4814815zm119.4074075-44.1481482.296296-.1481481c.148148 9.7777778-5.925926 18.3703704-14.962963 21.7777778-11.851852 4.2962963-25.0370368-1.7777778-29.3333331-13.6296297l-.4444445-1.3333333c-4.2962963-11.8518519 1.7777778-25.03703704 13.6296296-29.33333334 11.851852-4.29629629 25.037037 1.77777778 29.333333 13.62962964l1.62963 4.4444444-33.777778 12.4444445c3.555556 5.1851852 10.074074 7.4074074 16 5.1851852 4.148148-1.6296297 7.407408-5.1851852 8.444445-9.6296297zm-27.555556-13.9259259c-5.333333 1.9259259-8.888889 7.1111111-8.888889 12.7407407l23.851852-8.7407407c-3.555555-4.2962963-9.629629-5.92592592-14.962963-4zm-20.296296 13.9259259c.1481482 9.6296297-5.9259259 18.3703704-15.1111111 21.6296297-11.8518518 4.2962963-25.037037-1.7777778-29.3333333-13.6296297l-.4444445-1.3333333c-4.2962962-11.8518519 1.7777778-25.03703704 13.6296297-29.33333334 11.8518518-4.44444444 24.8888889 1.62962963 29.3333333 13.62962964l1.6296296 4.4444444-33.7777777 12.4444445c3.5555555 5.1851852 10.074074 7.4074074 16 5.1851852 4.1481481-1.6296297 7.4074074-5.1851852 8.4444444-9.6296297l9.1851852-3.4074074zm-28.1481481-13.9259259c-5.3333333 1.9259259-8.8888889 7.1111111-8.8888889 12.7407407l23.8518519-8.7407407c-3.5555556-4.2962963-9.6296297-5.92592592-14.962963-4zm50.2222221 53.4814815c-2.222222 0-4.148148 1.9259259-4.148148 4.4444444 0 2.3703704 1.925926 4.2962963 4.148148 4.2962963 1.62963 0 2.962963-1.037037 3.703704-2.5185185h2.222222c-.148148.1481482-.148148.4444445-.296296.7407407-.888889 2.3703704-3.111111 3.8518519-5.62963 3.8518519-3.407407 0-6.222222-2.962963-6.222222-6.5185185 0-3.5555556 2.814815-6.5185185 6.222222-6.5185185 2.37037 0 4.592593 1.4814814 5.62963 3.8518518.148148.4444445.148148.7407408.296296 1.0370371h-2.222222v-.1481482c-.592593-1.4814815-2.074074-2.5185185-3.703704-2.5185185z" fill="#474747" fill-rule="evenodd" transform="translate(10 5)"/></svg>