<svg height="90" viewBox="0 0 180 90" width="180" xmlns="http://www.w3.org/2000/svg"><g fill="none" fill-rule="evenodd" transform="translate(20 12)"><path d="m.833588 18.66816h5.877863v17.633588h-5.877863z" fill="#b9d100"/><circle cx="3.772519" cy="12.523122" fill="#215db1" r="3.473282"/><path d="m17.6467418 8.15888711-8.00129154 27.53360159 116.37940474 10.7097456 13.375146-46.4022343z" fill="#b9d100"/><g fill-rule="nonzero"><path d="m21.5076023 25.4657434v7.0955466h-2.8637882v-18.4484211h7.3001029c3.7203676 0 6.1111194 2.1989802 6.1111194 5.6380829 0 2.4930299-1.329616 4.5130233-3.5797352 5.2673247l4.142265 7.5430135h-3.3112551l-3.7587219-7.0955466zm0-8.949338v6.5969406h4.1166955c2.2117649 0 3.4902418-1.1889835 3.4902418-3.2984703 0-2.0583478-1.3551855-3.2984703-3.5669504-3.2984703zm22.3307118 12.3245169h2.6464471c-.6008842 2.4546756-2.8510034 3.9888478-6.0344108 3.9888478-3.9888478 0-6.4307386-2.7487252-6.4307386-7.1850399 0-4.4107452 2.4930298-7.2361791 6.4179538-7.2361791 3.8737849 0 6.2133975 2.6464471 6.2133975 6.9932684v.9460729h-9.831487v.1278477c.0894934 2.5185994 1.5086027 4.1039107 3.7075829 4.1039107 1.6620199 0 2.7998643-.6136689 3.3112551-1.7387285zm-3.4135333-8.1950367c-2.0327782 0-3.4518875 1.4830332-3.6053047 3.7203677h7.0316227c-.0639238-2.2501193-1.3935398-3.7203677-3.426318-3.7203677zm8.5103769 1.9177153c0-2.4163212 2.2629041-4.1550498 5.4079572-4.1550498 3.1322683 0 5.1778312 1.4574636 5.4463114 3.8610001h-2.6336623c-.2556954-1.0355662-1.2529074-1.713159-2.8126491-1.713159-1.5341723 0-2.6975862.7543014-2.6975862 1.879361 0 .8565795.7031623 1.3935398 2.211765 1.7515133l2.3140431.5369603c2.6464471.6136689 3.8865696 1.7515133 3.8865696 3.7715068 0 2.5825232-2.4418908 4.3340365-5.7659306 4.3340365-3.3112551 0-5.471881-1.4958179-5.7147916-3.9121392h2.7487253c.3451887 1.0867053 1.3679702 1.7642981 3.0299901 1.7642981 1.713159 0 2.927712-.7926557 2.927712-1.9305001 0-.8693642-.6520232-1.4318941-2.0455629-1.764298l-2.4291061-.5753146c-2.6464471-.6136689-3.8737849-1.7898676-3.8737849-3.8482154zm22.8676721 6.2773214h2.6464471c-.6008841 2.4546756-2.8510034 3.9888478-6.0344108 3.9888478-3.9888478 0-6.4307386-2.7487252-6.4307386-7.1850399 0-4.4107452 2.4930299-7.2361791 6.4179538-7.2361791 3.8737849 0 6.2133976 2.6464471 6.2133976 6.9932684v.9460729h-9.8314871v.1278477c.0894934 2.5185994 1.5086027 4.1039107 3.7075829 4.1039107 1.6620199 0 2.7998644-.6136689 3.3112551-1.7387285zm-3.4135332-8.1950367c-2.0327782 0-3.4518875 1.4830332-3.6053048 3.7203677h7.0316228c-.0639239-2.2501193-1.3935398-3.7203677-3.426318-3.7203677zm12.6782115 12.1455302c-2.6848015 0-4.6408711-1.6108808-4.6408711-4.142265 0-2.4930299 1.8665763-3.9377088 5.1778313-4.1422651l3.7715068-.2301258v-1.214553c0-1.5213875-.9716424-2.377967-2.8510034-2.377967-1.5341723 0-2.5953081.5753146-2.9021425 1.5853113h-2.6592319c.2812649-2.3396126 2.5313842-3.8610001 5.6892221-3.8610001 3.4902418 0 5.4590962 1.7387286 5.4590962 4.6536558v9.4990831h-2.6464471v-1.9688544h-.2173411c-.83101 1.4063246-2.3523974 2.1989802-4.1806193 2.1989802zm.7031622-2.211765c2.0711325 0 3.6053048-1.3551854 3.6053048-3.145053v-1.2017683l-3.4007485.2301258c-1.9177153.1278477-2.7870795.8054405-2.7870795 2.0711326 0 1.2912616 1.0867053 2.0455629 2.5825232 2.0455629zm9.558728 1.9816392v-13.8842587h2.6464471v2.1094868h.2045563c.3963278-1.3679703 1.9432848-2.3523974 3.7587219-2.3523974.4091126 0 .9332881.0383543 1.2273378.1022781v2.5825233c-.2301258-.0639239-1.048351-.1534173-1.5341722-.1534173-2.0839173 0-3.5541657 1.3424007-3.5541657 3.2984703v8.2973149zm21.2184367-9.4223745h-2.672016c-.31962-1.3551855-1.444679-2.3907517-3.285686-2.3907517-2.301258 0-3.707583 1.8154371-3.707583 4.8198577 0 3.0683445 1.419109 4.922136 3.707583 4.922136 1.738729 0 2.927712-.8182252 3.285686-2.3268279h2.672016c-.357973 2.7359405-2.505814 4.6664405-5.944917 4.6664405-4.052772 0-6.533017-2.76151-6.533017-7.2617486 0-4.4107451 2.46746-7.1594704 6.520232-7.1594704 3.490242 0 5.599729 2.0327782 5.957702 4.7303644zm2.56546 9.4223745v-19.3305702h2.723155v7.6580764h.217341c.677593-1.546957 2.147842-2.4674603 4.244544-2.4674603 2.966066 0 4.794288 1.879361 4.794288 5.1650465v8.9749076h-2.748725v-8.3228844c0-2.2884736-1.035567-3.426318-2.978851-3.426318-2.25012 0-3.503027 1.4446789-3.503027 3.6180895v8.1311129z" fill="#fff"/><path d="m10.8847328 57.291061 1.2343512.7374045c-.8175573 2.0519084-1.9717558 3.7671756-3.44656492 5.1778626 1.66717562 1.1862596 3.62290072 2.1160306 5.85114502 2.789313l-.8496183 1.2824428c-2.3725191-.7374046-4.44045801-1.7473283-6.17175572-3.0618321-1.82748092 1.410687-4.07175573 2.4366412-6.70076336 3.0938931l-.80152672-1.3465649c2.46870229-.5931297 4.56870229-1.5068702 6.3-2.7412213-1.5870229-1.4427481-2.86946565-3.1740458-3.83129771-5.1778626l1.15419847-.6732825c.96183206 1.9236642 2.24427481 3.5587787 3.83129771 4.9053435 1.50687023-1.3786259 2.64503813-3.0297709 3.43053433-4.9854961zm-10.62824425-3.1099237h3.44656489v-1.5709924h1.50687022v1.5709924h3.91145039v-1.5709924h1.50687025v1.5709924h3.6068702v1.410687h-3.6068702v1.5549619h-1.50687025v-1.5549619h-3.91145039v1.5709924h-1.50687022v-1.5709924h-3.44656489zm41.72748095 4.2h1.6190839v-3.4625954h-1.8114503v-1.3946565h4.9534351v1.3946565h-1.6671756v3.4625954h1.4748092v1.410687h-1.4748092v3.5908397c.5770992-.2083969 1.1541985-.4488549 1.7312977-.7053435v1.4748092c-1.4908397.6412213-3.0778626 1.170229-4.7610687 1.6190839l-.3526718-1.4587786c.6412214-.1282443 1.2824428-.2725191 1.9076336-.448855v-4.0717557h-1.6190839zm12.0549618-2.8534351v-2.3244275h1.4427481v3.6549618h-7.8870229v-3.6549618h1.4587786v2.3244275h1.7312977v-2.9496183h1.4748092v2.9496183zm-7.0053435 2.3564885h9.121374v1.4106871h-4.0557252c-.0961832.4167938-.2244274.8175572-.3687022 1.2183206h4.0717557v5.4503816c0 .8656489-.3847328 1.3145039-1.1541985 1.3145039h-.721374l-.3687023-1.3625955.6412213.0641222c.1603054 0 .2404581-.1122138.2404581-.3045802v-3.8152671h-1.1061069v5.1137404h-1.2664122v-5.1137404h-.9778626v5.1297709h-1.2664122v-5.1297709h-1.0740458v5.4183206h-1.3625955v-6.7648855h2.8534352c.1442748-.4007634.2564885-.8015268.3526717-1.2183206h-3.5587786zm46.2480916-1.5549618c-.0641221.2564886-.1282443.4969466-.1923664.721374.3526717 1.6671756.8175572 3.1259542 1.3786259 4.3763359.5290077-1.4748091.8175573-3.1740458.8816794-5.0977099zm.4969466 6.6526718c-.5450382-1.1061069-1.0259542-2.3564886-1.4267176-3.7511451-.2564886.5770993-.5129771 1.1221374-.8015267 1.6030535l-.9618321-1.1862596c.8977099-1.7633588 1.5068702-4.1358779 1.8274809-7.1175572l1.4908397.2564885c-.0961832.7374046-.1923664 1.4267176-.3206107 2.0839695h4.0717558v1.4587786h-.929771c-.0961832 2.6129771-.5770993 4.8412214-1.4427481 6.6847328.8015267 1.3305344 1.7312977 2.3725191 2.821374 3.1099237l-.8496183 1.2343511c-1.0419847-.7534351-1.9396946-1.7473282-2.7091603-2.9816794-.7534351 1.1702291-1.6992366 2.1641222-2.821374 2.9656489l-.7854962-1.2664122c1.1862595-.8015267 2.132061-1.8274809 2.8374046-3.0938931zm-7.5984733-2.99771 1.4267175.1763359c-.0961832.2564886-.1763358.4969466-.2725191.7534351h3.2702291v1.2343512c-.2885497.961832-.8015268 1.8114504-1.5389313 2.5488549.6572519.2885497 1.2984732.6091603 1.9076335.929771l-.8175572 1.1862596c-.6251908-.3847329-1.378626-.7694657-2.2603054-1.170229-1.0580152.6893129-2.3885496 1.2343511-3.9755725 1.651145l-.7053435-1.2503817c1.2022901-.2885496 2.2442748-.6412214 3.1099237-1.0900763-.6572519-.2725191-1.3625954-.5450382-2.1-.8335878.3847328-.6732824.7374046-1.2984733 1.0419847-1.9076336h-1.6832061v-1.2984733h2.2603054c.1282442-.3206107.240458-.6412213.3366412-.929771zm1.4908397 4.1358779c.7053435-.5610687 1.2183206-1.2022901 1.5709923-1.9076336h-2.4847328c-.2244275.448855-.4648855.8816794-.721374 1.2984733.5610687.1923664 1.1061068.3847328 1.6351145.6091603zm-2.5969466-11.3335878c.3526718.6091603.6572519 1.2503817.929771 1.9557252l-1.0900763.4969466c-.3206107-.7694657-.6732825-1.4587787-1.0419848-2.0519084zm4.6007634-.0160305 1.0740458.5129771c-.3206107.6732824-.7213741 1.3465649-1.2183206 2.0038168l-1.0580153-.5450382c.5129771-.6732824.9137404-1.3305344 1.2022901-1.9717557zm-6.059542 2.7412213h3.029771v-2.9496183h1.3946565v2.9496183h2.7893129v1.3305344h-2.7893129v.0801527c.8496183.3526717 1.7152671.7694656 2.5969465 1.2343511l-.8015267 1.2022901c-.7053435-.5610687-1.2984733-1.0099237-1.7954198-1.3305344v1.7954199h-1.3946565v-2.7091603c-.5290077 1.1541985-1.4106871 2.1641221-2.6450382 3.029771l-.7534351-1.2343512c1.1221374-.6412213 1.9076336-1.3305343 2.3885496-2.0679389h-2.0198473zm43.2984728 11.6862596h-1.362595l-.320611-1.4427481c.400764.0641221.785497.1122137 1.170229.1122137.352672 0 .545039-.2083969.545039-.6251908v-3.4465649c-.5771.208397-1.138168.4007634-1.699237.5931298l-.384733-1.5068702c.705344-.1603054 1.394657-.3687023 2.08397-.6091603v-3.3183207h-1.79542v-1.4587786h1.79542v-2.9015267h1.474809v2.9015267h1.410687v1.4587786h-1.410687v2.7412214c.448855-.2083969.91374-.4328244 1.362595-.6732824v1.4908397c-.464885.2244274-.91374.4488549-1.362595.6572519v4.440458c0 1.0580153-.512977 1.5870229-1.506871 1.5870229zm4.985497-6.9572519c-.208397 2.6931298-.817558 5.0656488-1.843512 7.1175572l-1.186259-1.0580152c1.074045-2.067939 1.619084-4.7290077 1.635114-7.9832061v-5.2259542h8.672519v4.1519084h-2.917557v1.6030534h3.30229v1.3946565h-3.30229v1.651145h2.580916v5.4503817h-1.410687v-.689313h-3.799237v.689313h-1.410687v-5.4503817h2.564886v-1.651145zm2.885496-2.9977099h-2.805344v1.0740458c0 .1763358-.01603.3526717-.01603.5290076h2.821374zm-1.154199 8.0633587h3.799237v-2.0679389h-3.799237zm4.071756-10.8206106h-5.722901v1.3946564h5.722901z" fill="#999"/></g></g></svg>