<?xml version="1.0" encoding="UTF-8"?>
<svg width="180px" height="90px" viewBox="0 0 180 90" version="1.1" xmlns="http://www.w3.org/2000/svg" xmlns:xlink="http://www.w3.org/1999/xlink">
    <!-- Generator: Sketch 55.2 (78181) - https://sketchapp.com -->
    <title>logo_sofastack</title>
    <desc>Created with Sketch.</desc>
    <defs>
        <polygon id="path-1" points="1.33744186 3.81732559 1.33744186 0.60627907 0.138139535 0.60627907 0.138139535 0.176860465 3.0233721 0.176860465 3.0233721 0.60627907 1.81918605 0.60627907 1.81918605 3.81732559"></polygon>
        <linearGradient x1="50.0017737%" y1="0.0018637409%" x2="50.0017737%" y2="99.9989287%" id="linearGradient-3">
            <stop stop-color="#505D70" offset="0%"></stop>
            <stop stop-color="#28313C" offset="100%"></stop>
        </linearGradient>
        <path d="M2.84058139,0.176860465 L1.96848837,2.70976745 C1.8805814,2.96651163 1.81639534,3.16081395 1.77488371,3.29302326 L1.77488371,3.29302326 C1.73860466,3.17372093 1.68034884,2.99476744 1.60116279,2.7544186 L1.60116279,2.7544186 L0.739534884,0.176860465 L0.0143023255,0.176860465 L0.0143023255,3.81732559 L0.478604651,3.81732559 L0.478604651,0.718255814 L1.53174419,3.81732559 L1.96639535,3.81732559 L3.02406976,0.770232558 L3.02406976,3.81732559 L3.4883721,3.81732559 L3.4883721,0.176860465 L2.84058139,0.176860465 Z" id="path-4"></path>
        <linearGradient x1="50.0016106%" y1="0.0018637409%" x2="50.0016106%" y2="99.9989287%" id="linearGradient-6">
            <stop stop-color="#505D70" offset="0%"></stop>
            <stop stop-color="#28313C" offset="100%"></stop>
        </linearGradient>
        <path d="M3.82186046,0.676744186 C3.09697674,0.978139534 2.45476744,1.40476744 1.91372093,1.94616278 L1.91372093,1.94616278 C1.50593023,2.35290697 1.17802326,2.7777907 0.938372093,3.20860465 L0.938372093,3.20860465 C0.694534884,3.64674419 0.513488372,4.14313954 0.399069768,4.68418604 L0.399069768,4.68418604 C0.289186047,5.19976744 0.221860465,5.80430233 0.199534884,6.47965117 L0.199534884,6.47965117 C0.17755814,7.11802326 0.166046511,7.8955814 0.166046511,8.78965116 L0.166046511,8.78965116 C0.166046511,9.68302326 0.17755814,10.4598837 0.199534884,11.0982558 L0.199534884,11.0982558 C0.221860465,11.7739535 0.28883721,12.3781395 0.398372093,12.8930233 L0.398372093,12.8930233 C0.513488372,13.4361628 0.694883721,13.9332558 0.938372093,14.3696512 L0.938372093,14.3696512 C1.17872093,14.8018604 1.50697675,15.2263953 1.91372093,15.632093 L1.91372093,15.632093 C2.45511629,16.174186 3.09732559,16.600814 3.82151163,16.9011629 L3.82151163,16.9011629 C4.54813954,17.2039535 5.37348838,17.357093 6.27453488,17.357093 L6.27453488,17.357093 C7.17627907,17.357093 7.99813953,17.2036046 8.71744186,16.9004651 L8.71744186,16.9004651 C9.43430233,16.6001162 10.0726744,16.1731395 10.6140698,15.6317442 L10.6140698,15.6317442 C11.0194186,15.2260466 11.3469767,14.8015117 11.5887209,14.3696512 L11.5887209,14.3696512 C11.8311628,13.9353488 12.012907,13.4382558 12.1287209,12.8930233 L12.1287209,12.8930233 C12.2365116,12.3833721 12.3069767,11.7819767 12.3383721,11.1059302 L12.3383721,11.1059302 C12.3676744,10.4567442 12.3823256,9.67709302 12.3823256,8.78965116 L12.3823256,8.78965116 C12.3823256,7.8994186 12.3676744,7.11976745 12.3380233,6.47093024 L12.3380233,6.47093024 C12.3069767,5.7955814 12.2365116,5.19453488 12.1287209,4.68418604 L12.1287209,4.68418604 C12.0132558,4.14139535 11.8311628,3.64395348 11.5880233,3.20616278 L11.5880233,3.20616278 C11.3480233,2.7777907 11.0201163,2.35360465 10.6133721,1.94511628 L10.6133721,1.94511628 C10.0733721,1.40616279 9.43534884,0.979186047 8.7177907,0.677790698 L8.7177907,0.677790698 C7.99709303,0.374302326 7.17523256,0.220813954 6.27453488,0.220813954 L6.27453488,0.220813954 C5.37488371,0.220813954 4.54988372,0.373953489 3.82186046,0.676744186 M4.08244186,13.6137209 C3.89023256,13.4222093 3.73604652,13.2118605 3.62406977,12.987907 L3.62406977,12.987907 C3.50895348,12.7569767 3.41965117,12.4709302 3.35895349,12.1374419 L3.35895349,12.1374419 C3.2933721,11.7777907 3.24906976,11.327093 3.2277907,10.797907 L3.2277907,10.797907 C3.20651163,10.2383721 3.19534883,9.56267442 3.19534883,8.78965116 L3.19534883,8.78965116 C3.19534883,8.01523256 3.20651163,7.33953489 3.2277907,6.78174418 L3.2277907,6.78174418 C3.24872093,6.25186046 3.2933721,5.80046511 3.35930233,5.43941861 L3.35930233,5.43941861 C3.41965117,5.1066279 3.50860465,4.82127908 3.62406977,4.59069767 L3.62406977,4.59069767 C3.73569767,4.36744185 3.89023256,4.15674419 4.08313953,3.96313954 L4.08313953,3.96313954 C4.68,3.36627907 5.39686046,3.07674419 6.27453488,3.07674419 L6.27453488,3.07674419 C7.1522093,3.07674419 7.86872092,3.36627907 8.46523256,3.9627907 L8.46523256,3.9627907 C8.65848838,4.15709303 8.81337209,4.36848837 8.92465116,4.59034883 L8.92465116,4.59034883 C9.03941861,4.81918604 9.12837209,5.10593023 9.18976745,5.44081396 L9.18976745,5.44081396 C9.25534884,5.80011628 9.29965116,6.25116279 9.32127908,6.78034884 L9.32127908,6.78034884 C9.34220931,7.33674419 9.35337209,8.01244185 9.35337209,8.78965116 L9.35337209,8.78965116 C9.35337209,9.56616279 9.34220931,10.2415116 9.32127908,10.7965116 L9.32127908,10.7965116 C9.29930233,11.3284884 9.255,11.7795349 9.18976745,12.1374419 L9.18976745,12.1374419 C9.12837209,12.4723256 9.03906977,12.7587209 8.92430232,12.9882558 L8.92430232,12.9882558 C8.81337209,13.210814 8.65883721,13.4215116 8.46558139,13.6144186 L8.46558139,13.6144186 C7.86906977,14.2116279 7.1522093,14.5018605 6.27453488,14.5018605 L6.27453488,14.5018605 C5.39686046,14.5018605 4.67965117,14.2109303 4.08244186,13.6137209" id="path-7"></path>
        <linearGradient x1="50.0008061%" y1="0.00030168553%" x2="50.0008061%" y2="100.000722%" id="linearGradient-9">
            <stop stop-color="#505D70" offset="0%"></stop>
            <stop stop-color="#28313C" offset="100%"></stop>
        </linearGradient>
        <polygon id="path-10" points="0.34116279 0.133604651 0.34116279 17.0082558 3.37011628 17.0082558 3.37011628 10.1731395 10.1626744 10.1731395 10.1626744 7.31720931 3.37011628 7.31720931 3.37011628 2.98883721 11.3386046 2.98883721 11.3386046 0.133604651"></polygon>
        <linearGradient x1="49.9981523%" y1="-0.000829164427%" x2="49.9981523%" y2="100.000725%" id="linearGradient-12">
            <stop stop-color="#505D70" offset="0%"></stop>
            <stop stop-color="#28313C" offset="100%"></stop>
        </linearGradient>
        <path d="M6.22674419,0.133604651 L0.0425581395,16.9374419 L0.0163953488,17.0082558 L3.25151163,17.0082558 L4.49232559,13.5034884 L10.2906977,13.5034884 L11.530814,17.0082558 L14.7655814,17.0082558 L8.5922093,0.168139534 L8.57930233,0.133604651 L6.22674419,0.133604651 Z M7.39988371,5.24651162 L9.3066279,10.6922093 L5.47918605,10.6922093 L7.39988371,5.24651162 Z" id="path-13"></path>
        <linearGradient x1="49.9995669%" y1="-0.000829164427%" x2="49.9995669%" y2="100.000725%" id="linearGradient-15">
            <stop stop-color="#505D70" offset="0%"></stop>
            <stop stop-color="#28313C" offset="100%"></stop>
        </linearGradient>
        <polygon id="path-16" points="9.31046511 0.133604651 3.07674419 7.80872093 3.07674419 0.133604651 0.0470930233 0.133604651 0.0470930233 17.0082558 3.07674419 17.0082558 3.07674419 12.2577907 5.55104651 9.27313954 9.96488371 16.9813953 9.98023255 17.0082558 13.5373256 17.0082558 7.59976744 6.87209303 13.0186047 0.219767442 13.0887209 0.133604651"></polygon>
        <linearGradient x1="50.0011261%" y1="-0.000829164427%" x2="50.0011261%" y2="100.000725%" id="linearGradient-18">
            <stop stop-color="#505D70" offset="0%"></stop>
            <stop stop-color="#28313C" offset="100%"></stop>
        </linearGradient>
        <path d="M4.95627907,0.133604651 C2.24790698,0.133604651 0.0446511628,2.33686046 0.0446511628,5.04488372 L0.0446511628,5.04488372 L0.0446511628,12.0969767 C0.0446511628,14.8053489 2.24790698,17.0082558 4.95627907,17.0082558 L4.95627907,17.0082558 L11.042093,17.0082558 L11.042093,14.1530233 L5.12686046,14.147093 C3.9966279,14.147093 3.07709302,13.2272093 3.07709302,12.0969767 L3.07709302,12.0969767 L3.07360465,5.04418604 L3.07325582,4.98976744 C3.10186046,3.88639534 4.02383721,2.98883721 5.12825581,2.98883721 L5.12825581,2.98883721 L11.042093,2.98883721 L11.042093,0.133604651 L4.95627907,0.133604651 Z" id="path-19"></path>
        <linearGradient x1="49.9999721%" y1="-0.000829164427%" x2="49.9999721%" y2="100.000725%" id="linearGradient-21">
            <stop stop-color="#505D70" offset="0%"></stop>
            <stop stop-color="#28313C" offset="100%"></stop>
        </linearGradient>
        <path d="M18.7922093,0.470232558 L14.1606977,3.12279069 L0.549418604,10.9566279 C0.209302325,11.1526744 0,11.5147674 0,11.9068605 L0,11.9068605 L0,22.088721 C0,22.4818605 0.210697674,22.8453488 0.552209303,23.0403489 L0.552209303,23.0403489 L19.0430232,33.6136047 C19.3810465,33.8065116 19.7954651,33.8061628 20.1327908,33.6129069 L20.1327908,33.6129069 L33.3369768,26.0375581 C33.6111628,25.8802325 33.9530233,26.0780233 33.9530233,26.3940698 L33.9530233,26.3940698 L33.9530233,30.0272093 C33.9530233,30.42 33.7426744,30.7827907 33.4018605,30.9781395 L33.4018605,30.9781395 L20.1313953,38.5845349 C19.7940697,38.7784884 19.3793023,38.7784884 19.0423256,38.5852326 L19.0423256,38.5852326 L0.615348837,28.0486046 C0.340813953,27.8919768 0,28.0901163 0,28.4058139 L0,28.4058139 L0,32.9877907 C0,33.381279 0.210697674,33.7444186 0.552209303,33.9394186 L0.552209303,33.9394186 L19.043721,44.5067442 C19.3810465,44.6996512 19.7951162,44.6993023 20.132093,44.5060465 L20.132093,44.5060465 L38.5751163,33.9394186 C38.9159302,33.7444186 39.1266278,33.3816279 39.1266278,32.9884883 L39.1266278,32.9884883 L39.1266278,17.5067442 C39.1266278,17.1910465 38.7847675,16.992907 38.5109302,17.1498838 L38.5109302,17.1498838 L20.1073255,27.6725582 C19.7703488,27.8658139 19.356279,27.8658139 19.0186047,27.6725582 L19.0186047,27.6725582 L5.78197675,20.1041861 C5.43837209,19.9074419 5.22697674,19.5404652 5.23011628,19.144186 L5.23011628,19.144186 L5.26151163,14.9905814 C5.26360465,14.676279 5.60372093,14.4805814 5.87686047,14.6368605 L5.87686047,14.6368605 L19.0454652,22.1745348 C19.3834884,22.3681396 19.7989535,22.3677907 20.1362791,22.1734884 L20.1362791,22.1734884 L38.3047674,11.73 C38.58,11.5719767 38.58,11.1753488 38.3047674,11.0169767 L38.3047674,11.0169767 L24.4102326,3.03593023 L19.8777907,0.467441861 C19.71,0.37255814 19.523721,0.325116278 19.337093,0.325116278 L19.337093,0.325116278 C19.1490698,0.325116278 18.9610466,0.373255815 18.7922093,0.470232558 M19.1619768,16.3168605 L10.8453488,11.5562791 C10.5701163,11.3989535 10.5694186,11.0016279 10.8443023,10.8432558 L10.8443023,10.8432558 L18.6732558,6.33244186 C19.0109302,6.13779069 19.4267441,6.13709303 19.7651163,6.33104651 L19.7651163,6.33104651 L28.0946512,11.0989535 C28.3705815,11.2566279 28.3705815,11.6536046 28.0953488,11.8119767 L28.0953488,11.8119767 L20.2520931,16.315814 C20.0832559,16.4131395 19.8945349,16.4616279 19.7061628,16.4616279 L19.7061628,16.4616279 C19.5184884,16.4616279 19.3304651,16.4134884 19.1619768,16.3168605" id="path-22"></path>
        <linearGradient x1="30.3176789%" y1="12.0933235%" x2="69.066309%" y2="88.1266481%" id="linearGradient-24">
            <stop stop-color="#505D70" offset="0%"></stop>
            <stop stop-color="#28313C" offset="100%"></stop>
        </linearGradient>
        <polygon id="path-25" points="0.0659302325 0.00837209302 0.0659302325 2.86744186 4.61127907 2.86395349 4.61127907 17.0082558 7.64127907 17.0082558 7.64127907 2.86395349 12.1248837 2.86395349 12.1248837 0.00837209302"></polygon>
        <linearGradient x1="50.0018849%" y1="0.000113885868%" x2="50.0018849%" y2="100.000681%" id="linearGradient-27">
            <stop stop-color="#505D70" offset="0%"></stop>
            <stop stop-color="#28313C" offset="100%"></stop>
        </linearGradient>
        <path d="M9.70255814,0.122093023 L6.39627908,0.122093023 L6.39593023,0.122093023 L6.39593023,0.122790698 L0.250813953,17.0382558 L3.55813954,17.0382558 L4.85023255,13.480814 L11.2486046,13.480814 L12.5406977,17.0382558 L15.8480232,17.0382558 L9.70325581,0.122790698 L9.70360466,0.122093023 L9.70255814,0.122093023 Z M8.04976744,4.67441861 L10.2505814,10.7340698 L5.84825581,10.7340698 L8.04976744,4.67441861 Z" id="path-28"></path>
        <linearGradient x1="50.0004368%" y1="0.000484606026%" x2="50.0004368%" y2="99.9990215%" id="linearGradient-30">
            <stop stop-color="#505D70" offset="0%"></stop>
            <stop stop-color="#28313C" offset="100%"></stop>
        </linearGradient>
        <path d="M6.00523256,0.279767441 L5.6933721,0.280116278 L5.1983721,0.280465116 C2.45267442,0.280465116 0.218372093,2.5105814 0.211046511,5.25453488 L0.211046511,5.25453488 L0.211395348,5.30093024 C0.24,8.02709303 2.46593024,10.2359302 5.1983721,10.2359302 L5.1983721,10.2359302 L6.37883722,10.2376744 L6.69348837,10.2383721 L6.69348837,10.2383721 L7.2422093,10.2415116 L7.2422093,10.2415116 C8.40348837,10.2415116 9.34848837,11.1833721 9.35441861,12.342907 L9.35441861,12.342907 C9.34848837,13.5024419 8.40348837,14.4443024 7.2422093,14.4443024 L7.2422093,14.4443024 L6.69348837,14.445 L5.89325581,14.4453489 L0.803720931,14.4498838 L0.803720931,17.3253489 L6.00523256,17.3253489 L6.81872093,17.3253489 L6.81872093,17.3204651 L6.81872093,17.3201162 L7.2422093,17.3197675 C9.98860465,17.3197675 12.2236047,15.0889535 12.2298837,12.3436047 L12.2298837,12.3436047 L12.2298837,12.342907 L12.2298837,12.3422093 C12.2236047,9.5972093 9.98860465,7.36604651 7.2422093,7.36604651 L7.2422093,7.36604651 L6.81872093,7.36395349 L6.81872093,7.36290698 L6.37883722,7.36220931 L5.19872093,7.36046512 C4.05139535,7.36046512 3.11546512,6.44162791 3.08755814,5.30093024 L3.08755814,5.30093024 L3.08651162,5.25453488 C3.09383722,4.09569767 4.03848837,3.15593023 5.19872093,3.15593023 L5.19872093,3.15593023 L5.6933721,3.15558139 L6.00523256,3.15488372 L11.2304651,3.15 L11.2304651,0.274534883 L6.00523256,0.279767441 Z" id="path-31"></path>
        <linearGradient x1="49.9997365%" y1="0.000567114712%" x2="49.9997365%" y2="100.000469%" id="linearGradient-33">
            <stop stop-color="#505D70" offset="0%"></stop>
            <stop stop-color="#28313C" offset="100%"></stop>
        </linearGradient>
        <path d="M5.9616279,0.279767441 L5.64906977,0.280116278 L5.15476744,0.280465116 C2.40872093,0.280465116 0.174418605,2.5105814 0.166744185,5.25453488 L0.166744185,5.25453488 L0.167093023,5.30093024 C0.195697675,8.02709303 2.4216279,10.2359302 5.15476744,10.2359302 L5.15476744,10.2359302 L6.33488372,10.2376744 L6.64953488,10.2383721 L6.64953488,10.2383721 L7.19825581,10.2415116 L7.19825581,10.2415116 C8.35918605,10.2415116 9.30418605,11.1833721 9.31011628,12.342907 L9.31011628,12.342907 C9.30418605,13.5024419 8.35918605,14.4443024 7.19825581,14.4443024 L7.19825581,14.4443024 L6.64953488,14.445 L5.84930233,14.4453489 L0.759767442,14.4498838 L0.759767442,17.3253489 L5.9616279,17.3253489 L6.77511629,17.3253489 L6.77511629,17.3204651 L6.77511629,17.3201162 L7.19825581,17.3197675 C9.94465117,17.3197675 12.1793023,15.0889535 12.1852326,12.3436047 L12.1852326,12.3436047 L12.1852326,12.342907 L12.1852326,12.3422093 C12.1793023,9.5972093 9.94465117,7.36604651 7.19825581,7.36604651 L7.19825581,7.36604651 L6.77511629,7.36395349 L6.77511629,7.36290698 L6.33488372,7.36220931 L5.15476744,7.36046512 C4.00744185,7.36046512 3.07081395,6.44162791 3.04290698,5.30093024 L3.04290698,5.30093024 L3.04220931,5.25453488 C3.04988372,4.09569767 3.99418605,3.15593023 5.15476744,3.15593023 L5.15476744,3.15593023 L5.64906977,3.15558139 L5.9616279,3.15488372 L11.1865116,3.15 L11.1865116,0.274534883 L5.9616279,0.279767441 Z" id="path-34"></path>
        <linearGradient x1="50.0027408%" y1="0.000567114712%" x2="50.0027408%" y2="100.000469%" id="linearGradient-36">
            <stop stop-color="#505D70" offset="0%"></stop>
            <stop stop-color="#28313C" offset="100%"></stop>
        </linearGradient>
    </defs>
    <g id="logo_sofastack" stroke="none" stroke-width="1" fill="none" fill-rule="evenodd">
        <g id="logo" transform="translate(0.000000, 22.000000)">
            <g id="编组" transform="translate(170.930233, 9.093489)">
                <g id="Fill-1-Clipped">
                    <mask id="mask-2" fill="white">
                        <use xlink:href="#path-1"></use>
                    </mask>
                    <g id="path-1"></g>
                    <polygon id="Fill-1" fill="url(#linearGradient-3)" fill-rule="nonzero" mask="url(#mask-2)" points="1.33744186 3.81732559 1.33744186 0.60627907 0.138139535 0.60627907 0.138139535 0.176860465 3.0233721 0.176860465 3.0233721 0.60627907 1.81918605 0.60627907 1.81918605 3.81732559"></polygon>
                </g>
            </g>
            <g id="编组" transform="translate(174.418605, 9.093489)">
                <g id="Fill-3-Clipped">
                    <mask id="mask-5" fill="white">
                        <use xlink:href="#path-4"></use>
                    </mask>
                    <g id="path-4"></g>
                    <path d="M2.84058139,0.176860465 L1.96848837,2.70976745 C1.8805814,2.96651163 1.81639534,3.16081395 1.77488371,3.29302326 L1.77488371,3.29302326 C1.73860466,3.17372093 1.68034884,2.99476744 1.60116279,2.7544186 L1.60116279,2.7544186 L0.739534884,0.176860465 L0.0143023255,0.176860465 L0.0143023255,3.81732559 L0.478604651,3.81732559 L0.478604651,0.718255814 L1.53174419,3.81732559 L1.96639535,3.81732559 L3.02406976,0.770232558 L3.02406976,3.81732559 L3.4883721,3.81732559 L3.4883721,0.176860465 L2.84058139,0.176860465 Z" id="Fill-3" fill="url(#linearGradient-6)" fill-rule="nonzero" mask="url(#mask-5)"></path>
                </g>
            </g>
            <g id="编组" transform="translate(62.441861, 14.674884)">
                <g id="Fill-5-Clipped">
                    <mask id="mask-8" fill="white">
                        <use xlink:href="#path-7"></use>
                    </mask>
                    <g id="path-7"></g>
                    <path d="M3.82186046,0.676744186 C3.09697674,0.978139534 2.45476744,1.40476744 1.91372093,1.94616278 L1.91372093,1.94616278 C1.50593023,2.35290697 1.17802326,2.7777907 0.938372093,3.20860465 L0.938372093,3.20860465 C0.694534884,3.64674419 0.513488372,4.14313954 0.399069768,4.68418604 L0.399069768,4.68418604 C0.289186047,5.19976744 0.221860465,5.80430233 0.199534884,6.47965117 L0.199534884,6.47965117 C0.17755814,7.11802326 0.166046511,7.8955814 0.166046511,8.78965116 L0.166046511,8.78965116 C0.166046511,9.68302326 0.17755814,10.4598837 0.199534884,11.0982558 L0.199534884,11.0982558 C0.221860465,11.7739535 0.28883721,12.3781395 0.398372093,12.8930233 L0.398372093,12.8930233 C0.513488372,13.4361628 0.694883721,13.9332558 0.938372093,14.3696512 L0.938372093,14.3696512 C1.17872093,14.8018604 1.50697675,15.2263953 1.91372093,15.632093 L1.91372093,15.632093 C2.45511629,16.174186 3.09732559,16.600814 3.82151163,16.9011629 L3.82151163,16.9011629 C4.54813954,17.2039535 5.37348838,17.357093 6.27453488,17.357093 L6.27453488,17.357093 C7.17627907,17.357093 7.99813953,17.2036046 8.71744186,16.9004651 L8.71744186,16.9004651 C9.43430233,16.6001162 10.0726744,16.1731395 10.6140698,15.6317442 L10.6140698,15.6317442 C11.0194186,15.2260466 11.3469767,14.8015117 11.5887209,14.3696512 L11.5887209,14.3696512 C11.8311628,13.9353488 12.012907,13.4382558 12.1287209,12.8930233 L12.1287209,12.8930233 C12.2365116,12.3833721 12.3069767,11.7819767 12.3383721,11.1059302 L12.3383721,11.1059302 C12.3676744,10.4567442 12.3823256,9.67709302 12.3823256,8.78965116 L12.3823256,8.78965116 C12.3823256,7.8994186 12.3676744,7.11976745 12.3380233,6.47093024 L12.3380233,6.47093024 C12.3069767,5.7955814 12.2365116,5.19453488 12.1287209,4.68418604 L12.1287209,4.68418604 C12.0132558,4.14139535 11.8311628,3.64395348 11.5880233,3.20616278 L11.5880233,3.20616278 C11.3480233,2.7777907 11.0201163,2.35360465 10.6133721,1.94511628 L10.6133721,1.94511628 C10.0733721,1.40616279 9.43534884,0.979186047 8.7177907,0.677790698 L8.7177907,0.677790698 C7.99709303,0.374302326 7.17523256,0.220813954 6.27453488,0.220813954 L6.27453488,0.220813954 C5.37488371,0.220813954 4.54988372,0.373953489 3.82186046,0.676744186 M4.08244186,13.6137209 C3.89023256,13.4222093 3.73604652,13.2118605 3.62406977,12.987907 L3.62406977,12.987907 C3.50895348,12.7569767 3.41965117,12.4709302 3.35895349,12.1374419 L3.35895349,12.1374419 C3.2933721,11.7777907 3.24906976,11.327093 3.2277907,10.797907 L3.2277907,10.797907 C3.20651163,10.2383721 3.19534883,9.56267442 3.19534883,8.78965116 L3.19534883,8.78965116 C3.19534883,8.01523256 3.20651163,7.33953489 3.2277907,6.78174418 L3.2277907,6.78174418 C3.24872093,6.25186046 3.2933721,5.80046511 3.35930233,5.43941861 L3.35930233,5.43941861 C3.41965117,5.1066279 3.50860465,4.82127908 3.62406977,4.59069767 L3.62406977,4.59069767 C3.73569767,4.36744185 3.89023256,4.15674419 4.08313953,3.96313954 L4.08313953,3.96313954 C4.68,3.36627907 5.39686046,3.07674419 6.27453488,3.07674419 L6.27453488,3.07674419 C7.1522093,3.07674419 7.86872092,3.36627907 8.46523256,3.9627907 L8.46523256,3.9627907 C8.65848838,4.15709303 8.81337209,4.36848837 8.92465116,4.59034883 L8.92465116,4.59034883 C9.03941861,4.81918604 9.12837209,5.10593023 9.18976745,5.44081396 L9.18976745,5.44081396 C9.25534884,5.80011628 9.29965116,6.25116279 9.32127908,6.78034884 L9.32127908,6.78034884 C9.34220931,7.33674419 9.35337209,8.01244185 9.35337209,8.78965116 L9.35337209,8.78965116 C9.35337209,9.56616279 9.34220931,10.2415116 9.32127908,10.7965116 L9.32127908,10.7965116 C9.29930233,11.3284884 9.255,11.7795349 9.18976745,12.1374419 L9.18976745,12.1374419 C9.12837209,12.4723256 9.03906977,12.7587209 8.92430232,12.9882558 L8.92430232,12.9882558 C8.81337209,13.210814 8.65883721,13.4215116 8.46558139,13.6144186 L8.46558139,13.6144186 C7.86906977,14.2116279 7.1522093,14.5018605 6.27453488,14.5018605 L6.27453488,14.5018605 C5.39686046,14.5018605 4.67965117,14.2109303 4.08244186,13.6137209" id="Fill-5" fill="url(#linearGradient-9)" fill-rule="nonzero" mask="url(#mask-8)"></path>
                </g>
            </g>
            <g id="编组" transform="translate(76.744185, 15.023721)">
                <g id="Fill-7-Clipped">
                    <mask id="mask-11" fill="white">
                        <use xlink:href="#path-10"></use>
                    </mask>
                    <g id="path-10"></g>
                    <polygon id="Fill-7" fill="url(#linearGradient-12)" fill-rule="nonzero" mask="url(#mask-11)" points="0.34116279 0.133604651 0.34116279 17.0082558 3.37011628 17.0082558 3.37011628 10.1731395 10.1626744 10.1731395 10.1626744 7.31720931 3.37011628 7.31720931 3.37011628 2.98883721 11.3386046 2.98883721 11.3386046 0.133604651"></polygon>
                </g>
            </g>
            <g id="编组" transform="translate(86.860465, 15.023721)">
                <g id="Fill-9-Clipped">
                    <mask id="mask-14" fill="white">
                        <use xlink:href="#path-13"></use>
                    </mask>
                    <g id="path-13"></g>
                    <path d="M6.22674419,0.133604651 L0.0425581395,16.9374419 L0.0163953488,17.0082558 L3.25151163,17.0082558 L4.49232559,13.5034884 L10.2906977,13.5034884 L11.530814,17.0082558 L14.7655814,17.0082558 L8.5922093,0.168139534 L8.57930233,0.133604651 L6.22674419,0.133604651 Z M7.39988371,5.24651162 L9.3066279,10.6922093 L5.47918605,10.6922093 L7.39988371,5.24651162 Z" id="Fill-9" fill="url(#linearGradient-15)" fill-rule="nonzero" mask="url(#mask-14)"></path>
                </g>
            </g>
            <g id="编组" transform="translate(153.488372, 15.023721)">
                <g id="Fill-11-Clipped">
                    <mask id="mask-17" fill="white">
                        <use xlink:href="#path-16"></use>
                    </mask>
                    <g id="path-16"></g>
                    <polygon id="Fill-11" fill="url(#linearGradient-18)" fill-rule="nonzero" mask="url(#mask-17)" points="9.31046511 0.133604651 3.07674419 7.80872093 3.07674419 0.133604651 0.0470930233 0.133604651 0.0470930233 17.0082558 3.07674419 17.0082558 3.07674419 12.2577907 5.55104651 9.27313954 9.96488371 16.9813953 9.98023255 17.0082558 13.5373256 17.0082558 7.59976744 6.87209303 13.0186047 0.219767442 13.0887209 0.133604651"></polygon>
                </g>
            </g>
            <g id="编组" transform="translate(140.232558, 15.023721)">
                <g id="Fill-13-Clipped">
                    <mask id="mask-20" fill="white">
                        <use xlink:href="#path-19"></use>
                    </mask>
                    <g id="path-19"></g>
                    <path d="M4.95627907,0.133604651 C2.24790698,0.133604651 0.0446511628,2.33686046 0.0446511628,5.04488372 L0.0446511628,5.04488372 L0.0446511628,12.0969767 C0.0446511628,14.8053489 2.24790698,17.0082558 4.95627907,17.0082558 L4.95627907,17.0082558 L11.042093,17.0082558 L11.042093,14.1530233 L5.12686046,14.147093 C3.9966279,14.147093 3.07709302,13.2272093 3.07709302,12.0969767 L3.07709302,12.0969767 L3.07360465,5.04418604 L3.07325582,4.98976744 C3.10186046,3.88639534 4.02383721,2.98883721 5.12825581,2.98883721 L5.12825581,2.98883721 L11.042093,2.98883721 L11.042093,0.133604651 L4.95627907,0.133604651 Z" id="Fill-13" fill="url(#linearGradient-21)" fill-rule="nonzero" mask="url(#mask-20)"></path>
                </g>
            </g>
            <g id="编组" transform="translate(0.000000, 0.023721)">
                <g id="Fill-15-Clipped">
                    <mask id="mask-23" fill="white">
                        <use xlink:href="#path-22"></use>
                    </mask>
                    <g id="path-22"></g>
                    <path d="M18.7922093,0.470232558 L14.1606977,3.12279069 L0.549418604,10.9566279 C0.209302325,11.1526744 0,11.5147674 0,11.9068605 L0,11.9068605 L0,22.088721 C0,22.4818605 0.210697674,22.8453488 0.552209303,23.0403489 L0.552209303,23.0403489 L19.0430232,33.6136047 C19.3810465,33.8065116 19.7954651,33.8061628 20.1327908,33.6129069 L20.1327908,33.6129069 L33.3369768,26.0375581 C33.6111628,25.8802325 33.9530233,26.0780233 33.9530233,26.3940698 L33.9530233,26.3940698 L33.9530233,30.0272093 C33.9530233,30.42 33.7426744,30.7827907 33.4018605,30.9781395 L33.4018605,30.9781395 L20.1313953,38.5845349 C19.7940697,38.7784884 19.3793023,38.7784884 19.0423256,38.5852326 L19.0423256,38.5852326 L0.615348837,28.0486046 C0.340813953,27.8919768 0,28.0901163 0,28.4058139 L0,28.4058139 L0,32.9877907 C0,33.381279 0.210697674,33.7444186 0.552209303,33.9394186 L0.552209303,33.9394186 L19.043721,44.5067442 C19.3810465,44.6996512 19.7951162,44.6993023 20.132093,44.5060465 L20.132093,44.5060465 L38.5751163,33.9394186 C38.9159302,33.7444186 39.1266278,33.3816279 39.1266278,32.9884883 L39.1266278,32.9884883 L39.1266278,17.5067442 C39.1266278,17.1910465 38.7847675,16.992907 38.5109302,17.1498838 L38.5109302,17.1498838 L20.1073255,27.6725582 C19.7703488,27.8658139 19.356279,27.8658139 19.0186047,27.6725582 L19.0186047,27.6725582 L5.78197675,20.1041861 C5.43837209,19.9074419 5.22697674,19.5404652 5.23011628,19.144186 L5.23011628,19.144186 L5.26151163,14.9905814 C5.26360465,14.676279 5.60372093,14.4805814 5.87686047,14.6368605 L5.87686047,14.6368605 L19.0454652,22.1745348 C19.3834884,22.3681396 19.7989535,22.3677907 20.1362791,22.1734884 L20.1362791,22.1734884 L38.3047674,11.73 C38.58,11.5719767 38.58,11.1753488 38.3047674,11.0169767 L38.3047674,11.0169767 L24.4102326,3.03593023 L19.8777907,0.467441861 C19.71,0.37255814 19.523721,0.325116278 19.337093,0.325116278 L19.337093,0.325116278 C19.1490698,0.325116278 18.9610466,0.373255815 18.7922093,0.470232558 M19.1619768,16.3168605 L10.8453488,11.5562791 C10.5701163,11.3989535 10.5694186,11.0016279 10.8443023,10.8432558 L10.8443023,10.8432558 L18.6732558,6.33244186 C19.0109302,6.13779069 19.4267441,6.13709303 19.7651163,6.33104651 L19.7651163,6.33104651 L28.0946512,11.0989535 C28.3705815,11.2566279 28.3705815,11.6536046 28.0953488,11.8119767 L28.0953488,11.8119767 L20.2520931,16.315814 C20.0832559,16.4131395 19.8945349,16.4616279 19.7061628,16.4616279 L19.7061628,16.4616279 C19.5184884,16.4616279 19.3304651,16.4134884 19.1619768,16.3168605" id="Fill-15" fill="url(#linearGradient-24)" fill-rule="nonzero" mask="url(#mask-23)"></path>
                </g>
            </g>
            <g id="编组" transform="translate(114.418605, 15.023721)">
                <g id="Fill-17-Clipped">
                    <mask id="mask-26" fill="white">
                        <use xlink:href="#path-25"></use>
                    </mask>
                    <g id="path-25"></g>
                    <polygon id="Fill-17" fill="url(#linearGradient-27)" fill-rule="nonzero" mask="url(#mask-26)" points="0.0659302325 0.00837209302 0.0659302325 2.86744186 4.61127907 2.86395349 4.61127907 17.0082558 7.64127907 17.0082558 7.64127907 2.86395349 12.1248837 2.86395349 12.1248837 0.00837209302"></polygon>
                </g>
            </g>
            <g id="编组" transform="translate(124.186047, 15.023721)">
                <g id="Fill-19-Clipped">
                    <mask id="mask-29" fill="white">
                        <use xlink:href="#path-28"></use>
                    </mask>
                    <g id="path-28"></g>
                    <path d="M9.70255814,0.122093023 L6.39627908,0.122093023 L6.39593023,0.122093023 L6.39593023,0.122790698 L0.250813953,17.0382558 L3.55813954,17.0382558 L4.85023255,13.480814 L11.2486046,13.480814 L12.5406977,17.0382558 L15.8480232,17.0382558 L9.70325581,0.122790698 L9.70360466,0.122093023 L9.70255814,0.122093023 Z M8.04976744,4.67441861 L10.2505814,10.7340698 L5.84825581,10.7340698 L8.04976744,4.67441861 Z" id="Fill-19" fill="url(#linearGradient-30)" fill-rule="nonzero" mask="url(#mask-29)"></path>
                </g>
            </g>
            <g id="编组" transform="translate(49.186046, 14.674884)">
                <g id="Fill-21-Clipped">
                    <mask id="mask-32" fill="white">
                        <use xlink:href="#path-31"></use>
                    </mask>
                    <g id="path-31"></g>
                    <path d="M6.00523256,0.279767441 L5.6933721,0.280116278 L5.1983721,0.280465116 C2.45267442,0.280465116 0.218372093,2.5105814 0.211046511,5.25453488 L0.211046511,5.25453488 L0.211395348,5.30093024 C0.24,8.02709303 2.46593024,10.2359302 5.1983721,10.2359302 L5.1983721,10.2359302 L6.37883722,10.2376744 L6.69348837,10.2383721 L6.69348837,10.2383721 L7.2422093,10.2415116 L7.2422093,10.2415116 C8.40348837,10.2415116 9.34848837,11.1833721 9.35441861,12.342907 L9.35441861,12.342907 C9.34848837,13.5024419 8.40348837,14.4443024 7.2422093,14.4443024 L7.2422093,14.4443024 L6.69348837,14.445 L5.89325581,14.4453489 L0.803720931,14.4498838 L0.803720931,17.3253489 L6.00523256,17.3253489 L6.81872093,17.3253489 L6.81872093,17.3204651 L6.81872093,17.3201162 L7.2422093,17.3197675 C9.98860465,17.3197675 12.2236047,15.0889535 12.2298837,12.3436047 L12.2298837,12.3436047 L12.2298837,12.342907 L12.2298837,12.3422093 C12.2236047,9.5972093 9.98860465,7.36604651 7.2422093,7.36604651 L7.2422093,7.36604651 L6.81872093,7.36395349 L6.81872093,7.36290698 L6.37883722,7.36220931 L5.19872093,7.36046512 C4.05139535,7.36046512 3.11546512,6.44162791 3.08755814,5.30093024 L3.08755814,5.30093024 L3.08651162,5.25453488 C3.09383722,4.09569767 4.03848837,3.15593023 5.19872093,3.15593023 L5.19872093,3.15593023 L5.6933721,3.15558139 L6.00523256,3.15488372 L11.2304651,3.15 L11.2304651,0.274534883 L6.00523256,0.279767441 Z" id="Fill-21" fill="url(#linearGradient-33)" fill-rule="nonzero" mask="url(#mask-32)"></path>
                </g>
            </g>
            <g id="编组" transform="translate(101.860466, 14.674884)">
                <g id="Fill-23-Clipped">
                    <mask id="mask-35" fill="white">
                        <use xlink:href="#path-34"></use>
                    </mask>
                    <g id="path-34"></g>
                    <path d="M5.9616279,0.279767441 L5.64906977,0.280116278 L5.15476744,0.280465116 C2.40872093,0.280465116 0.174418605,2.5105814 0.166744185,5.25453488 L0.166744185,5.25453488 L0.167093023,5.30093024 C0.195697675,8.02709303 2.4216279,10.2359302 5.15476744,10.2359302 L5.15476744,10.2359302 L6.33488372,10.2376744 L6.64953488,10.2383721 L6.64953488,10.2383721 L7.19825581,10.2415116 L7.19825581,10.2415116 C8.35918605,10.2415116 9.30418605,11.1833721 9.31011628,12.342907 L9.31011628,12.342907 C9.30418605,13.5024419 8.35918605,14.4443024 7.19825581,14.4443024 L7.19825581,14.4443024 L6.64953488,14.445 L5.84930233,14.4453489 L0.759767442,14.4498838 L0.759767442,17.3253489 L5.9616279,17.3253489 L6.77511629,17.3253489 L6.77511629,17.3204651 L6.77511629,17.3201162 L7.19825581,17.3197675 C9.94465117,17.3197675 12.1793023,15.0889535 12.1852326,12.3436047 L12.1852326,12.3436047 L12.1852326,12.342907 L12.1852326,12.3422093 C12.1793023,9.5972093 9.94465117,7.36604651 7.19825581,7.36604651 L7.19825581,7.36604651 L6.77511629,7.36395349 L6.77511629,7.36290698 L6.33488372,7.36220931 L5.15476744,7.36046512 C4.00744185,7.36046512 3.07081395,6.44162791 3.04290698,5.30093024 L3.04290698,5.30093024 L3.04220931,5.25453488 C3.04988372,4.09569767 3.99418605,3.15593023 5.15476744,3.15593023 L5.15476744,3.15593023 L5.64906977,3.15558139 L5.9616279,3.15488372 L11.1865116,3.15 L11.1865116,0.274534883 L5.9616279,0.279767441 Z" id="Fill-23" fill="url(#linearGradient-36)" fill-rule="nonzero" mask="url(#mask-35)"></path>
                </g>
            </g>
        </g>
    </g>
</svg>