<svg enable-background="new 0 0 14 14" viewBox="0 0 14 14" xmlns="http://www.w3.org/2000/svg"><g fill="#fff"><path d="m1.718 10.03c-2.29-2.29-2.291-6.02 0-8.308 2.29-2.29 6.02-2.29 8.308 0 2.29 2.29 2.291 6.02 0 8.308-2.291 2.29-6.02 2.29-8.308 0m6.897-6.897c-1.513-1.513-3.974-1.513-5.487 0-1.512 1.512-1.513 3.974 0 5.487s3.974 1.512 5.486 0c1.514-1.513 1.514-3.975.001-5.487"/><path d="m11.72 13.609-2.858-2.858c-.521-.521-.521-1.367 0-1.888.522-.521 1.367-.521 1.888 0l2.858 2.858c.521.521.521 1.367 0 1.888s-1.366.521-1.888 0"/></g></svg>