<svg height="24" viewBox="0 0 24 24" width="24" xmlns="http://www.w3.org/2000/svg"><path d="m23.2011218 15.556891c-.1722756 0-.3405449-.0681089-.46875-.2003205l-9.7475962-10.22435896c-.2764423-.28846154-.6490384-.44871795-1.045673-.44871795-.4006411 0-.7732372.16025641-1.0456731.44871795l-9.75160258 10.22435896c-.24439102.2564103-.65304487.2684295-.91346153.0200321-.26041667-.2483975-.26842949-.6530449-.02003206-.9134616l9.74759616-10.22435895c.52083331-.5488782 1.22596151-.84935897 1.98317311-.84935897.7572115 0 1.4583333.30048077 1.983173.84935897l9.7475962 10.22435895c.244391.2564103.2363782.6650641-.0200321.9134616-.1282051.1201923-.2884615.1802884-.4487179.1802884zm0-14.25881408h-22.52403847c-.35657051 0-.64503205-.28846154-.64503205-.64503205s.28846154-.64503205.64503205-.64503205h22.52403847c.3565705 0 .645032.28846154.645032.64503205s-.2884615.64503205-.645032.64503205z" fill="#747d87" transform="translate(0 3)"/></svg>