<svg xmlns="http://www.w3.org/2000/svg" width="44" height="38" viewBox="0 0 44 38">
    <g fill="none" fill-rule="evenodd">
        <path fill="#FFF" d="M15.325.878c1.477-.804 3.87-.805 5.35 0l12.65 6.88C34.802 8.562 36 10.575 36 12.252v13.506c0 1.678-1.195 3.688-2.675 4.493l-12.65 6.88c-1.477.804-3.87.806-5.35 0l-12.65-6.88C1.198 29.447 0 27.434 0 25.758V12.252c0-1.678 1.195-3.688 2.675-4.494l12.65-6.88z"/>
        <ellipse cx="35.498" cy="8.605" fill="#2F8BE6" rx="8.498" ry="8.605"/>
        <path fill="#353535" d="M23.213 23.447v-8.989c0-.814.616-1.458 1.394-1.458.778 0 1.393.644 1.393 1.458v8.99c0 .813-.615 1.457-1.393 1.457s-1.394-.644-1.394-1.458zm-2.175-4.431c0 4.015-2.154 5.984-5.555 5.984C12.08 25 10 23.012 10 19.11v-4.652c0-.814.615-1.458 1.393-1.458s1.394.644 1.394 1.458v4.577c0 2.159 1.03 3.276 2.732 3.276 1.7 0 2.732-1.08 2.732-3.182v-4.67c0-.815.615-1.459 1.393-1.459s1.394.644 1.394 1.458v4.558z"/>
        <path fill="#FFF" d="M35.5 12c-1.435 0-2.5-.778-2.5-1.964v-.02c0-.826.361-1.312 1.046-1.642-.5-.321-.824-.759-.824-1.488v-.02C33.222 5.827 34.13 5 35.5 5s2.278.817 2.278 1.867v.02c0 .728-.324 1.166-.824 1.487.657.36 1.046.797 1.046 1.604v.02C38 11.26 36.935 12 35.5 12zm0-4.122c.565 0 .926-.35.926-.827v-.02c0-.417-.343-.796-.926-.796s-.926.37-.926.787v.02c0 .476.361.836.926.836zm0 2.887c.704 0 1.12-.37 1.12-.846V9.9c0-.525-.472-.836-1.12-.836-.648 0-1.12.311-1.12.836v.02c0 .466.416.845 1.12.845z"/>
    </g>
</svg>
